# https://github.com/mikedh/trimesh
mtllib material.mtl
usemtl 0.910000_0.910000_0.910000_0.000000_0.000000
v -0.00522479 0.04823203 0.00747680
v -0.00522479 0.04823203 0.01397680
v 0.00496123 0.04823203 0.01397680
v 0.00496123 0.04823203 0.00747680
v 0.00745012 0.04630708 0.01397680
v 0.00745012 0.04630708 0.00747680
v 0.00688150 0.04724615 0.00747680
v 0.00688150 0.04724615 0.01397680
v 0.00601310 0.04791778 0.00747680
v 0.00601310 0.04791778 0.01397680
v 0.00496123 0.04823203 0.00747680
v 0.00496123 0.04823203 0.01397680
v 0.00869210 0.04480588 0.01397680
v 0.00960800 0.04443631 0.01397680
v 0.00960800 0.04443631 0.00747680
v 0.00794585 0.04545285 0.01397680
v 0.00869210 0.04480588 0.00747680
v 0.00745012 0.04630708 0.01397680
v 0.00794585 0.04545285 0.00747680
v 0.00745012 0.04630708 0.00747680
v 0.04380154 0.01024277 0.01397680
v 0.04380154 0.01024277 0.00747680
v 0.03710156 0.02577509 0.00747680
v 0.03710156 0.02577509 0.01397680
v 0.02514032 0.03773633 0.00747680
v 0.02514032 0.03773633 0.01397680
v 0.00960800 0.04443631 0.00747680
v 0.00960800 0.04443631 0.01397680
v 0.04481808 0.00858062 0.01397680
v 0.04567231 0.00808489 0.01397680
v 0.04567231 0.00808489 0.00747680
v 0.04417111 0.00932687 0.01397680
v 0.04481808 0.00858062 0.00747680
v 0.04380154 0.01024277 0.01397680
v 0.04417111 0.00932687 0.00747680
v 0.04380154 0.01024277 0.00747680
v 0.04567231 0.00808489 0.00747680
v 0.04567231 0.00808489 0.01397680
v 0.04661138 0.00751627 0.01397680
v 0.04661138 0.00751627 0.00747680
v 0.04728301 0.00664787 0.01397680
v 0.04728301 0.00664787 0.00747680
v 0.04759726 0.00559600 0.01397680
v 0.04759726 0.00559600 0.00747680
v 0.04759726 0.00559600 0.00747680
v 0.04759726 0.00559600 0.01397680
v 0.04759726 -0.00459002 0.01397680
v 0.04759726 -0.00459002 0.00747680
v 0.04567231 -0.00707891 0.01397680
v 0.04567231 -0.00707891 0.00747680
v 0.04661138 -0.00651028 0.00747680
v 0.04661138 -0.00651028 0.01397680
v 0.04728301 -0.00564189 0.00747680
v 0.04728301 -0.00564189 0.01397680
v 0.04759726 -0.00459002 0.00747680
v 0.04759726 -0.00459002 0.01397680
v 0.04417111 -0.00832089 0.01397680
v 0.04380154 -0.00923679 0.01397680
v 0.04380154 -0.00923679 0.00747680
v 0.04481808 -0.00757464 0.01397680
v 0.04417111 -0.00832089 0.00747680
v 0.04567231 -0.00707891 0.01397680
v 0.04481808 -0.00757464 0.00747680
v 0.04567231 -0.00707891 0.00747680
v 0.00960800 -0.04343033 0.01397680
v 0.00960800 -0.04343033 0.00747680
v 0.02514032 -0.03673035 0.00747680
v 0.02514032 -0.03673035 0.01397680
v 0.03710156 -0.02476910 0.00747680
v 0.03710156 -0.02476910 0.01397680
v 0.04380154 -0.00923679 0.00747680
v 0.04380154 -0.00923679 0.01397680
v 0.00794585 -0.04444687 0.01397680
v 0.00745012 -0.04530110 0.01397680
v 0.00745012 -0.04530110 0.00747680
v 0.00869210 -0.04379990 0.01397680
v 0.00794585 -0.04444687 0.00747680
v 0.00960800 -0.04343033 0.01397680
v 0.00869210 -0.04379990 0.00747680
v 0.00960800 -0.04343033 0.00747680
v 0.00745012 -0.04530110 0.00747680
v 0.00745012 -0.04530110 0.01397680
v 0.00688150 -0.04624017 0.01397680
v 0.00688150 -0.04624017 0.00747680
v 0.00601310 -0.04691180 0.01397680
v 0.00601310 -0.04691180 0.00747680
v 0.00496123 -0.04722605 0.01397680
v 0.00496123 -0.04722605 0.00747680
v 0.00496123 -0.04722605 0.00747680
v 0.00496123 -0.04722605 0.01397680
v -0.00522479 -0.04722605 0.01397680
v -0.00522479 -0.04722605 0.00747680
v -0.00771368 -0.04530110 0.01397680
v -0.00771368 -0.04530110 0.00747680
v -0.00714505 -0.04624017 0.00747680
v -0.00714505 -0.04624017 0.01397680
v -0.00627666 -0.04691180 0.00747680
v -0.00627666 -0.04691180 0.01397680
v -0.00522479 -0.04722605 0.00747680
v -0.00522479 -0.04722605 0.01397680
v -0.00895566 -0.04379990 0.01397680
v -0.00987156 -0.04343033 0.01397680
v -0.00987156 -0.04343033 0.00747680
v -0.00820941 -0.04444687 0.01397680
v -0.00895566 -0.04379990 0.00747680
v -0.00771368 -0.04530110 0.01397680
v -0.00820941 -0.04444687 0.00747680
v -0.00771368 -0.04530110 0.00747680
v -0.04406510 -0.00923679 0.01397680
v -0.04406510 -0.00923679 0.00747680
v -0.03736512 -0.02476910 0.00747680
v -0.03736512 -0.02476910 0.01397680
v -0.02540387 -0.03673035 0.00747680
v -0.02540387 -0.03673035 0.01397680
v -0.00987156 -0.04343033 0.00747680
v -0.00987156 -0.04343033 0.01397680
v -0.04508164 -0.00757464 0.01397680
v -0.04593587 -0.00707891 0.01397680
v -0.04593587 -0.00707891 0.00747680
v -0.04443467 -0.00832089 0.01397680
v -0.04508164 -0.00757464 0.00747680
v -0.04406510 -0.00923679 0.01397680
v -0.04443467 -0.00832089 0.00747680
v -0.04406510 -0.00923679 0.00747680
v -0.04593587 -0.00707891 0.00747680
v -0.04593587 -0.00707891 0.01397680
v -0.04687494 -0.00651028 0.01397680
v -0.04687494 -0.00651028 0.00747680
v -0.04754657 -0.00564189 0.01397680
v -0.04754657 -0.00564189 0.00747680
v -0.04786082 -0.00459002 0.01397680
v -0.04786082 -0.00459002 0.00747680
v -0.04786082 -0.00459002 0.00747680
v -0.04786082 -0.00459002 0.01397680
v -0.04786082 0.00559600 0.01397680
v -0.04786082 0.00559600 0.00747680
v -0.04593587 0.00808489 0.01397680
v -0.04593587 0.00808489 0.00747680
v -0.04687494 0.00751627 0.00747680
v -0.04687494 0.00751627 0.01397680
v -0.04754657 0.00664787 0.00747680
v -0.04754657 0.00664787 0.01397680
v -0.04786082 0.00559600 0.00747680
v -0.04786082 0.00559600 0.01397680
v -0.04443467 0.00932687 0.01397680
v -0.04406510 0.01024277 0.01397680
v -0.04406510 0.01024277 0.00747680
v -0.04508164 0.00858062 0.01397680
v -0.04443467 0.00932687 0.00747680
v -0.04593587 0.00808489 0.01397680
v -0.04508164 0.00858062 0.00747680
v -0.04593587 0.00808489 0.00747680
v -0.00987156 0.04443631 0.01397680
v -0.00987156 0.04443631 0.00747680
v -0.02540387 0.03773633 0.00747680
v -0.02540387 0.03773633 0.01397680
v -0.03736512 0.02577509 0.00747680
v -0.03736512 0.02577509 0.01397680
v -0.04406510 0.01024277 0.00747680
v -0.04406510 0.01024277 0.01397680
v -0.00820941 0.04545285 0.01397680
v -0.00771368 0.04630708 0.01397680
v -0.00771368 0.04630708 0.00747680
v -0.00895566 0.04480588 0.01397680
v -0.00820941 0.04545285 0.00747680
v -0.00987156 0.04443631 0.01397680
v -0.00895566 0.04480588 0.00747680
v -0.00987156 0.04443631 0.00747680
v -0.00771368 0.04630708 0.00747680
v -0.00771368 0.04630708 0.01397680
v -0.00714505 0.04724615 0.01397680
v -0.00714505 0.04724615 0.00747680
v -0.00627666 0.04791778 0.01397680
v -0.00627666 0.04791778 0.00747680
v -0.00522479 0.04823203 0.01397680
v -0.00522479 0.04823203 0.00747680
v 0.00644926 -0.04300207 0.01397680
v 0.00668644 -0.04380067 0.01397680
v 0.00960800 -0.04343033 0.01397680
v 0.04337328 -0.00607805 0.01397680
v 0.03914166 -0.01933629 0.01397680
v 0.04380154 -0.00923679 0.01397680
v 0.04337328 0.00708403 0.01397680
v 0.04417189 0.00732121 0.01397680
v 0.04380154 0.01024277 0.01397680
v 0.00644926 0.04400805 0.01397680
v 0.01970750 0.03977643 0.01397680
v 0.00960800 0.04443631 0.01397680
v -0.02540387 0.03773633 0.01397680
v -0.03736512 0.02577509 0.01397680
v -0.03124448 0.03161569 0.01397680
v -0.04363684 0.00708403 0.01397680
v -0.03940522 0.02034227 0.01397680
v -0.04406510 0.01024277 0.01397680
v -0.04363684 -0.00607805 0.01397680
v -0.04443545 -0.00631522 0.01397680
v -0.04406510 -0.00923679 0.01397680
v -0.00671282 -0.04300207 0.01397680
v -0.01997106 -0.03877044 0.01397680
v -0.00987156 -0.04343033 0.01397680
v 0.00794585 -0.04444687 0.01397680
v 0.00660222 -0.04462949 0.01397680
v 0.02514032 -0.03673035 0.01397680
v 0.01970750 -0.03877044 0.01397680
v 0.03710156 -0.02476910 0.01397680
v 0.03098092 -0.03060971 0.01397680
v 0.04417189 -0.00631522 0.01397680
v 0.04481808 -0.00757464 0.01397680
v 0.04567231 -0.00707891 0.01397680
v 0.04500071 -0.00623101 0.01397680
v 0.04728301 -0.00564189 0.01397680
v 0.04759726 -0.00459002 0.01397680
v 0.04651130 -0.00439939 0.01397680
v 0.03710156 0.02577509 0.01397680
v 0.03914166 0.02034227 0.01397680
v 0.02514032 0.03773633 0.01397680
v 0.03098092 0.03161569 0.01397680
v 0.00668644 0.04480666 0.01397680
v 0.00794585 0.04545285 0.01397680
v 0.00745012 0.04630708 0.01397680
v 0.00660222 0.04563548 0.01397680
v -0.00671282 0.04400805 0.01397680
v -0.00694999 0.04480666 0.01397680
v -0.00987156 0.04443631 0.01397680
v -0.04443545 0.00732121 0.01397680
v -0.04508164 0.00858062 0.01397680
v -0.04593587 0.00808489 0.01397680
v -0.04526426 0.00723699 0.01397680
v -0.03736512 -0.02476910 0.01397680
v -0.03940522 -0.01933629 0.01397680
v -0.02540387 -0.03673035 0.01397680
v -0.03124448 -0.03060971 0.01397680
v -0.00694999 -0.04380067 0.01397680
v -0.00820941 -0.04444687 0.01397680
v -0.00771368 -0.04530110 0.01397680
v -0.00686578 -0.04462949 0.01397680
v 0.00745012 -0.04530110 0.01397680
v 0.04417111 -0.00832089 0.01397680
v 0.04661138 -0.00651028 0.01397680
v 0.04573529 -0.00583805 0.01397680
v 0.04626535 -0.00519535 0.01397680
v 0.04643621 -0.00356970 0.01397680
v 0.04533248 -0.00023217 0.01397680
v 0.04605136 -0.00283083 0.01397680
v 0.04541453 -0.00229373 0.01397680
v 0.04498990 -0.00045225 0.01397680
v 0.04481808 0.00858062 0.01397680
v 0.04500071 0.00723699 0.01397680
v 0.00869210 0.04480588 0.01397680
v -0.01997106 0.03977643 0.01397680
v -0.04443467 0.00932687 0.01397680
v -0.04754657 -0.00564189 0.01397680
v -0.04652891 -0.00519535 0.01397680
v -0.04677486 -0.00439939 0.01397680
v -0.04687494 -0.00651028 0.01397680
v -0.04599885 -0.00583805 0.01397680
v -0.00895566 -0.04379990 0.01397680
v -0.00714505 -0.04624017 0.01397680
v -0.00647282 -0.04536408 0.01397680
v -0.00627666 -0.04691180 0.01397680
v -0.00583012 -0.04589413 0.01397680
v -0.00292850 -0.04504332 0.01397680
v -0.00086694 -0.04496127 0.01397680
v -0.00108702 -0.04461868 0.01397680
v 0.00060338 -0.04496127 0.01397680
v 0.00496123 -0.04722605 0.01397680
v 0.00394091 -0.04606500 0.01397680
v 0.00688150 -0.04624017 0.01397680
v 0.00620926 -0.04536408 0.01397680
v 0.00556656 -0.04589413 0.01397680
v 0.00869210 -0.04379990 0.01397680
v 0.04462133 -0.00203904 0.01397680
v 0.04661138 0.00751627 0.01397680
v 0.04573529 0.00684403 0.01397680
v 0.04626535 0.00620133 0.01397680
v 0.04567231 0.00808489 0.01397680
v -0.04593587 -0.00707891 0.01397680
v -0.04526426 -0.00623101 0.01397680
v -0.04508164 -0.00757464 0.01397680
v -0.04443467 -0.00832089 0.01397680
v -0.00522479 -0.04722605 0.01397680
v -0.00503416 -0.04614009 0.01397680
v -0.00346561 -0.04568015 0.01397680
v -0.00273976 -0.04341965 0.01397680
v -0.00267381 -0.04425012 0.01397680
v 0.00477061 -0.04614009 0.01397680
v 0.00601310 -0.04691180 0.01397680
v 0.04417111 0.00932687 0.01397680
v 0.00688150 0.04724615 0.01397680
v 0.00620926 0.04637006 0.01397680
v -0.00714505 0.04724615 0.01397680
v -0.00647282 0.04637006 0.01397680
v -0.00583012 0.04690012 0.01397680
v -0.00771368 0.04630708 0.01397680
v -0.00686578 0.04563548 0.01397680
v -0.00820941 0.04545285 0.01397680
v -0.04687494 0.00751627 0.01397680
v -0.04599885 0.00684403 0.01397680
v -0.04786082 0.00559600 0.01397680
v -0.04559604 0.00123815 0.01397680
v -0.04631492 0.00383682 0.01397680
v -0.04559604 -0.00023217 0.01397680
v -0.04786082 -0.00459002 0.01397680
v -0.04669977 -0.00356970 0.01397680
v -0.00420447 -0.04606500 0.01397680
v 0.00601310 0.04791778 0.01397680
v 0.00556656 0.04690012 0.01397680
v 0.00496123 0.04823203 0.01397680
v 0.00477061 0.04714607 0.01397680
v 0.00060338 0.04596725 0.01397680
v 0.00320205 0.04668613 0.01397680
v -0.00627666 0.04791778 0.01397680
v -0.00503416 0.04714607 0.01397680
v -0.04754657 0.00664787 0.01397680
v -0.04652891 0.00620133 0.01397680
v -0.04677486 0.00540538 0.01397680
v -0.04669977 0.00457568 0.01397680
v 0.04379086 -0.00210499 0.01397680
v 0.04728301 0.00664787 0.01397680
v 0.04651130 0.00540538 0.01397680
v 0.00394091 0.04707098 0.01397680
v -0.00086694 0.04596725 0.01397680
v -0.00522479 0.04823203 0.01397680
v -0.00420447 0.04707098 0.01397680
v -0.00895566 0.04480588 0.01397680
v -0.04567809 0.00329972 0.01397680
v -0.04525346 0.00145823 0.01397680
v 0.00082346 -0.04461868 0.01397680
v 0.00320205 -0.04568015 0.01397680
v 0.00266495 0.04604930 0.01397680
v 0.00082346 0.04562467 0.01397680
v -0.04488489 0.00304502 0.01397680
v 0.00080044 -0.04382088 0.01397680
v 0.00089279 -0.04421745 0.01397680
v 0.00241025 0.04525610 0.01397680
v -0.04590678 0.00050299 0.01397680
v -0.00115635 -0.04421745 0.01397680
v -0.00106400 -0.04382088 0.01397680
v -0.00053085 -0.04519113 0.01397680
v -0.04525346 -0.00045225 0.01397680
v -0.04631492 -0.00283083 0.01397680
v 0.04759726 0.00559600 0.01397680
v 0.04564322 0.00050299 0.01397680
v -0.00108702 0.04562467 0.01397680
v -0.00346561 0.04668613 0.01397680
v -0.04582590 0.00010392 0.01397680
v -0.04485222 -0.00052158 0.01397680
v 0.04556235 0.00010392 0.01397680
v 0.04556235 0.00090206 0.01397680
v 0.00247620 0.04442563 0.01397680
v 0.00089279 0.04522343 0.01397680
v -0.00013178 0.04627799 0.01397680
v -0.00115635 0.04522343 0.01397680
v -0.04582590 0.00090206 0.01397680
v -0.00013178 -0.04527201 0.01397680
v 0.04458866 -0.00052158 0.01397680
v 0.04533248 0.00123815 0.01397680
v 0.04643621 0.00457568 0.01397680
v -0.00053085 0.04619712 0.01397680
v -0.00106400 0.04482686 0.01397680
v -0.04445565 -0.00042923 0.01397680
v 0.00026729 -0.04519113 0.01397680
v 0.04498990 0.00145823 0.01397680
v 0.04605136 0.00383682 0.01397680
v 0.00026729 0.04619712 0.01397680
v -0.04405442 0.00311097 0.01397680
v -0.04485222 0.00152756 0.01397680
v -0.00082454 -0.04349155 0.01397680
v 0.04419209 -0.00042923 0.01397680
v 0.04419209 0.00143521 0.01397680
v 0.04458866 0.00152756 0.01397680
v -0.04445565 0.00143521 0.01397680
v 0.00247620 -0.04341965 0.01397680
v 0.00056098 -0.04349155 0.01397680
v 0.00266495 -0.04504332 0.01397680
v 0.00241025 -0.04425012 0.01397680
v -0.04405442 -0.00210499 0.01397680
v -0.04412632 -0.00018977 0.01397680
v 0.00080044 0.04482686 0.01397680
v -0.04567809 -0.00229373 0.01397680
v -0.04488489 -0.00203904 0.01397680
v 0.00056098 0.04449754 0.01397680
v -0.00273976 0.04442563 0.01397680
v -0.00082454 0.04449754 0.01397680
v -0.00292850 0.04604930 0.01397680
v 0.04379086 0.00311097 0.01397680
v 0.04386277 0.00119575 0.01397680
v -0.04412632 0.00119575 0.01397680
v -0.00267381 0.04525610 0.01397680
v 0.04541453 0.00329972 0.01397680
v 0.04462133 0.00304502 0.01397680
v 0.04386277 -0.00018977 0.01397680
v 0.01818766 0.03940541 0.01647680
v 0.01763783 0.03855875 0.01647680
v 0.02565986 0.03365102 0.01647680
v 0.02644293 0.03430809 0.01647680
v 0.02657604 0.03441979 0.01630670
v 0.02644378 0.03557063 0.01547680
v 0.01965689 0.03969309 0.01547680
v 0.01818766 0.03940541 0.01647680
v 0.02644293 0.03430809 0.01647680
v 0.01873724 0.04025170 0.01547680
v 0.03608424 0.02177268 0.01447680
v 0.03763697 0.02307557 0.01447680
v 0.03098092 0.03161569 0.01447680
v 0.02565986 0.03365102 0.01447680
v 0.02644378 0.03557063 0.01447680
v 0.02657604 0.03441979 0.01447680
v 0.02657604 0.03441979 0.01447680
v 0.02644378 0.03557063 0.01447680
v 0.02644378 0.03557063 0.01547680
v 0.02657604 0.03441979 0.01630670
v 0.03098092 0.03161569 0.01397680
v 0.01970750 0.03977643 0.01397680
v 0.02644378 0.03557063 0.01447680
v 0.01965689 0.03969309 0.01547680
v 0.02644378 0.03557063 0.01547680
v 0.03763697 0.02307557 0.01447680
v 0.03763697 0.02307557 0.01497680
v 0.03900136 0.02059712 0.01497680
v 0.03914166 0.02034227 0.01397680
v 0.03098092 0.03161569 0.01447680
v 0.04337328 0.00708403 0.01497680
v 0.04337328 0.00708403 0.01397680
v 0.01873724 0.04025170 0.01497680
v 0.00644926 0.04400805 0.01397680
v 0.00644926 0.04400805 0.01497680
v 0.01873724 0.04025170 0.01547680
v 0.03914166 0.02034227 0.01497680
v -0.03911570 -0.00240372 0.01497680
v -0.03329435 -0.00240372 0.01497680
v -0.03613178 -0.00029701 0.01497680
v -0.03556610 -0.00006269 0.01497680
v -0.03582563 -0.00023611 0.01497680
v -0.03911570 0.00340971 0.01497680
v -0.03693178 0.00050299 0.01497680
v -0.03643792 -0.00023611 0.01497680
v -0.03669747 -0.00006269 0.01497680
v -0.03329435 0.00340971 0.01497680
v -0.03613178 0.00130299 0.01497680
v -0.03582563 0.00124209 0.01497680
v -0.03643792 0.00124209 0.01497680
v -0.03687088 0.00080914 0.01497680
v -0.03669747 0.00106868 0.01497680
v -0.03687088 0.00019684 0.01497680
v -0.03539268 0.00080914 0.01497680
v -0.03533178 0.00050299 0.01497680
v -0.03556610 0.00106868 0.01497680
v -0.03539268 0.00019684 0.01497680
v -0.02113455 0.00340971 0.01497680
v 0.00250842 0.02819712 0.01497680
v -0.00468122 0.02819712 0.01497680
v -0.00468122 0.02059712 0.01497680
v 0.00250842 -0.02512134 0.01497680
v -0.00468122 -0.02512134 0.01497680
v -0.00468122 -0.03397134 0.01497680
v 0.00466269 0.02819712 0.01497680
v 0.00250842 0.02059712 0.01497680
v -0.02113455 -0.00240372 0.01497680
v -0.01955360 -0.00240372 0.01497680
v -0.02013178 0.00050299 0.01497680
v -0.00468122 0.01959805 0.01497680
v -0.00013178 0.02050299 0.01497680
v 0.00466269 0.02059712 0.01497680
v 0.00250842 0.01997782 0.01497680
v 0.02746822 -0.00240372 0.01497680
v 0.02746822 0.00340971 0.01497680
v 0.01986822 0.00050299 0.01497680
v 0.01929004 0.00340971 0.01497680
v 0.00466269 -0.02512134 0.01497680
v 0.00466269 -0.01854333 0.01497680
v 0.00250842 -0.01897184 0.01497680
v -0.00013178 -0.01949701 0.01497680
v -0.01860937 0.00815666 0.01497680
v -0.01906671 0.01762931 0.01497680
v -0.01997514 0.01805979 0.01497680
v -0.01427392 0.01464513 0.01497680
v -0.00778545 0.01898058 0.01497680
v -0.01275362 0.02059712 0.01497680
v -0.01806707 0.01752310 0.01497680
v -0.01708847 0.01775308 0.01497680
v -0.01624078 0.01829344 0.01497680
v -0.01955360 0.00340971 0.01497680
v -0.02113455 0.01887162 0.01497680
v -0.03329435 0.02059712 0.01497680
v -0.03070744 0.02579049 0.01497680
v -0.03114837 0.02672137 0.01497680
v -0.03329435 0.02819712 0.01497680
v -0.03124843 0.02774653 0.01497680
v -0.02359883 0.02059712 0.01497680
v -0.02997765 0.02506362 0.01497680
v -0.00468122 0.03896356 0.01497680
v -0.00909505 0.03778113 0.01497680
v -0.00934969 0.03884297 0.01497680
v -0.00943244 0.03896356 0.01497680
v -0.00843477 0.02518214 0.01497680
v -0.00859277 0.02819712 0.01497680
v -0.00921909 0.02299806 0.01497680
v -0.01017522 0.02230045 0.01497680
v -0.00860719 0.02401119 0.01497680
v 0.00752189 -0.01797460 0.01497680
v 0.00991166 -0.02129447 0.01497680
v 0.01537397 -0.01781563 0.01497680
v 0.01970728 -0.01300300 0.01497680
v 0.02259610 -0.00720698 0.01497680
v 0.01834581 -0.00715068 0.01497680
v 0.00895554 -0.02199208 0.01497680
v 0.01401036 -0.01363914 0.01497680
v 0.01929004 -0.00240372 0.01497680
v 0.02413356 -0.00546872 0.01497680
v 0.02528007 -0.00517484 0.01497680
v 0.02318995 -0.00618317 0.01497680
v 0.00817121 -0.02417616 0.01497680
v 0.00834364 -0.02300521 0.01497680
v 0.00822074 -0.02512134 0.01497680
v -0.03911570 0.02059712 0.01497680
v -0.03911570 0.01528825 0.01497680
v -0.03783276 0.01901342 0.01497680
v -0.03722681 0.01984636 0.01497680
v -0.03637485 0.02042524 0.01497680
v -0.03435175 0.02058588 0.01497680
v -0.03341911 0.02014870 0.01497680
v -0.03447183 0.02059712 0.01497680
v -0.03329435 0.02006135 0.01497680
v -0.02214109 0.01053719 0.01497680
v -0.02235893 0.00955581 0.01497680
v -0.02341660 0.01314487 0.01497680
v -0.02554363 0.00618082 0.01497680
v -0.02285966 0.00821296 0.01497680
v -0.02225968 0.01153544 0.01497680
v -0.02439712 0.00647470 0.01497680
v -0.02270138 0.01243846 0.01497680
v -0.02345351 0.00718915 0.01497680
v -0.03329435 0.00577462 0.01497680
v -0.03814263 0.00552053 0.01497680
v -0.00087088 0.03619684 0.01497680
v -0.00013178 0.03570299 0.01497680
v 0.00017437 0.03576389 0.01497680
v 0.00250842 0.03380971 0.01497680
v -0.00043793 0.03724210 0.01497680
v -0.00013178 0.03730299 0.01497680
v -0.00093178 0.03650299 0.01497680
v -0.00087088 0.03680914 0.01497680
v -0.00069746 0.03593731 0.01497680
v -0.00043793 0.03576389 0.01497680
v 0.00043391 0.03593731 0.01497680
v 0.00230102 0.03432014 0.01497680
v 0.00230619 0.03596333 0.01497680
v 0.00060732 0.03619684 0.01497680
v 0.00250842 0.03645220 0.01497680
v 0.00250842 0.03896356 0.01497680
v 0.00060732 0.03680914 0.01497680
v 0.00017437 0.03724210 0.01497680
v -0.00069746 0.03706868 0.01497680
v 0.00066822 0.03650299 0.01497680
v 0.00043391 0.03706868 0.01497680
v 0.00293430 0.03748174 0.01497680
v 0.00409146 0.03864839 0.01497680
v 0.01873724 0.04025170 0.01497680
v 0.00644926 0.04400805 0.01497680
v 0.00849807 0.04160683 0.01497680
v 0.00516595 0.04294921 0.01497680
v 0.00571038 0.04074100 0.01497680
v 0.00652164 0.04134486 0.01497680
v 0.01642401 0.03896356 0.01497680
v 0.00591418 0.04334946 0.01497680
v 0.00748745 0.04164483 0.01497680
v 0.00466269 0.04290180 0.01497680
v 0.00514587 0.03990189 0.01497680
v 0.00466269 0.03916289 0.01497680
v 0.00470587 0.03920178 0.01497680
v 0.01790071 0.03896356 0.01497680
v 0.00444138 0.03896356 0.01497680
v 0.00432113 0.04286962 0.01497680
v 0.00351132 0.04312311 0.01497680
v 0.00286267 0.04367019 0.01497680
v 0.00250842 0.04436266 0.01497680
v 0.00247620 0.04442563 0.01497680
v 0.00056098 0.04449754 0.01497680
v -0.00377488 0.04312311 0.01497680
v -0.00312622 0.04367019 0.01497680
v -0.00050345 0.04429775 0.01497680
v -0.00082454 0.04449754 0.01497680
v 0.00023990 0.04429775 0.01497680
v -0.00013178 0.04422799 0.01497680
v -0.00458469 0.04286962 0.01497680
v -0.00273976 0.04442563 0.01497680
v -0.01997106 0.03977643 0.01497680
v -0.02109398 0.03896356 0.01497680
v -0.01627237 0.03896356 0.01497680
v -0.01301087 0.04047960 0.01497680
v -0.00671282 0.04400805 0.01497680
v -0.01086663 0.04036293 0.01497680
v -0.00996751 0.03974333 0.01497680
v -0.00617774 0.04334946 0.01497680
v -0.01192796 0.04061969 0.01497680
v -0.00542951 0.04294921 0.01497680
v -0.00468122 0.04287872 0.01497680
v -0.02113455 0.03670347 0.01497680
v -0.03124448 0.03161569 0.01497680
v -0.03042039 0.02959939 0.01497680
v -0.02239065 0.03611960 0.01497680
v -0.02113455 0.03893419 0.01497680
v -0.03329435 0.02878396 0.01497680
v -0.03099585 0.02874510 0.01497680
v -0.03113446 0.02819712 0.01497680
v -0.03371916 0.02819712 0.01497680
v -0.03570664 0.02059712 0.01497680
v -0.03911570 0.02074221 0.01497680
v -0.03537730 0.02068183 0.01497680
v -0.04249841 0.00495590 0.01497680
v -0.03922526 0.00566279 0.01497680
v -0.04018527 0.00618310 0.01497680
v -0.04363684 0.00708403 0.01497680
v -0.04123562 0.00913284 0.01497680
v -0.03922074 0.02059712 0.01497680
v -0.03940522 0.02034227 0.01497680
v -0.03911570 0.00564840 0.01497680
v -0.04297825 0.00654895 0.01497680
v -0.04257799 0.00580072 0.01497680
v -0.04089546 0.00701254 0.01497680
v -0.04126175 0.00804121 0.01497680
v -0.04275190 0.00414609 0.01497680
v -0.04329898 0.00349744 0.01497680
v -0.04385678 0.00050299 0.01497680
v -0.04347047 0.00340971 0.01497680
v -0.04405442 0.00311097 0.01497680
v -0.04412632 0.00119575 0.01497680
v -0.04347047 -0.00240372 0.01497680
v -0.04392654 0.00013132 0.01497680
v -0.04412632 -0.00018977 0.01497680
v -0.04392654 0.00087467 0.01497680
v -0.04405442 -0.00210499 0.01497680
v -0.03634780 -0.02076670 0.01497680
v -0.03911570 -0.01459096 0.01497680
v -0.03911570 -0.01986220 0.01497680
v -0.04010838 -0.01237610 0.01497680
v -0.03940522 -0.01933629 0.01497680
v -0.04249841 -0.00394992 0.01497680
v -0.04257799 -0.00479474 0.01497680
v -0.03911570 -0.00896676 0.01497680
v -0.03938805 -0.00934876 0.01497680
v -0.04297825 -0.00554297 0.01497680
v -0.04363684 -0.00607805 0.01497680
v -0.04275190 -0.00314011 0.01497680
v -0.03999783 -0.01024563 0.01497680
v -0.04024888 -0.01130071 0.01497680
v -0.04329898 -0.00249145 0.01497680
v -0.03884313 -0.00758941 0.01497680
v -0.03880812 -0.00590955 0.01497680
v -0.03901925 -0.00883146 0.01497680
v -0.03532520 -0.00263861 0.01497680
v -0.03883129 -0.00822460 0.01497680
v -0.03690004 -0.00322430 0.01497680
v -0.03364646 -0.00270901 0.01497680
v -0.03812482 -0.00437454 0.01497680
v -0.03044963 -0.00626008 0.01497680
v -0.03021574 -0.00696141 0.01497680
v -0.02974305 -0.00752985 0.01497680
v -0.02909615 -0.00788774 0.01497680
v -0.02836343 -0.00798617 0.01497680
v -0.03100201 -0.00467325 0.01497680
v -0.02481093 -0.00779999 0.01497680
v -0.02262685 -0.00858432 0.01497680
v -0.02192924 -0.00954045 0.01497680
v -0.02363998 -0.00797242 0.01497680
v -0.03212619 -0.00342450 0.01497680
v -0.03329435 -0.00287473 0.01497680
v -0.02113455 -0.01078823 0.01497680
v -0.01860937 -0.00715068 0.01497680
v -0.01427392 -0.01363914 0.01497680
v -0.01363777 -0.01933607 0.01497680
v -0.00784175 -0.02222488 0.01497680
v -0.00778545 -0.01797460 0.01497680
v -0.00468122 -0.01859207 0.01497680
v -0.00610349 -0.02376235 0.01497680
v -0.01845040 -0.01500275 0.01497680
v -0.00580961 -0.02490886 0.01497680
v -0.00681794 -0.02281873 0.01497680
v -0.00579847 -0.02512134 0.01497680
v -0.00533466 -0.03397134 0.01497680
v -0.00514932 -0.03750785 0.01497680
v -0.00617774 -0.04234348 0.01497680
v -0.00542951 -0.04194322 0.01497680
v -0.00664133 -0.04026069 0.01497680
v -0.01900080 -0.03924572 0.01497680
v -0.00671282 -0.04300207 0.01497680
v -0.00876163 -0.04060085 0.01497680
v -0.00767000 -0.04062698 0.01497680
v -0.00468122 -0.04187274 0.01497680
v -0.00529158 -0.03859049 0.01497680
v -0.00581189 -0.03955049 0.01497680
v -0.01790139 -0.03755277 0.01497680
v -0.00043793 -0.03475790 0.01497680
v -0.00013178 -0.03469701 0.01497680
v -0.00377488 -0.04211713 0.01497680
v -0.00087088 -0.03580315 0.01497680
v -0.00043793 -0.03623611 0.01497680
v -0.00069746 -0.03606270 0.01497680
v 0.00250842 -0.03397134 0.01497680
v 0.00017437 -0.03475790 0.01497680
v -0.00069746 -0.03493132 0.01497680
v -0.00093178 -0.03549701 0.01497680
v -0.00087088 -0.03519086 0.01497680
v -0.00312622 -0.04266421 0.01497680
v -0.00013178 -0.03629701 0.01497680
v 0.00043391 -0.03606270 0.01497680
v 0.00017437 -0.03623611 0.01497680
v -0.00082454 -0.04349155 0.01497680
v 0.00043391 -0.03493132 0.01497680
v 0.00060732 -0.03519086 0.01497680
v 0.00250842 -0.04335668 0.01497680
v 0.00023990 -0.04329177 0.01497680
v 0.00056098 -0.04349155 0.01497680
v -0.00050345 -0.04329177 0.01497680
v -0.00013178 -0.04322201 0.01497680
v -0.00273976 -0.04341965 0.01497680
v 0.00060732 -0.03580315 0.01497680
v 0.00247620 -0.04341965 0.01497680
v 0.00066822 -0.03549701 0.01497680
v -0.00458469 -0.04186364 0.01497680
v 0.00466269 -0.03397134 0.01497680
v 0.00432113 -0.04186364 0.01497680
v 0.00351132 -0.04211713 0.01497680
v 0.00286267 -0.04266421 0.01497680
v 0.00716396 -0.03475698 0.01497680
v 0.00777038 -0.03446928 0.01497680
v 0.00824747 -0.03399716 0.01497680
v 0.00613991 -0.03527286 0.01497680
v 0.00538421 -0.03613526 0.01497680
v 0.00516595 -0.04194322 0.01497680
v 0.00506413 -0.03836342 0.01497680
v 0.00500726 -0.03721818 0.01497680
v 0.00554650 -0.03940367 0.01497680
v 0.01970750 -0.03877044 0.01497680
v 0.02338325 -0.03429706 0.01497680
v 0.00860051 -0.04057921 0.01497680
v 0.00644926 -0.04300207 0.01497680
v 0.00745403 -0.04059887 0.01497680
v 0.02633709 -0.03397134 0.01497680
v 0.00638391 -0.04018697 0.01497680
v 0.00591418 -0.04234348 0.01497680
v 0.02370816 -0.03397134 0.01497680
v 0.00466269 -0.04189582 0.01497680
v 0.00826006 -0.03397134 0.01497680
v 0.02746822 -0.03020189 0.01497680
v 0.03098092 -0.03060971 0.01497680
v 0.03495391 -0.02512134 0.01497680
v 0.03253612 -0.02512134 0.01497680
v 0.02746822 -0.03315252 0.01497680
v 0.02746822 -0.00506016 0.01497680
v 0.03787906 -0.00451455 0.01497680
v 0.04223485 -0.00394992 0.01497680
v 0.03896170 -0.00465681 0.01497680
v 0.03992171 -0.00517712 0.01497680
v 0.04271469 -0.00554297 0.01497680
v 0.04231444 -0.00479474 0.01497680
v 0.04063190 -0.00600656 0.01497680
v 0.03914166 -0.01933629 0.01497680
v 0.04337328 -0.00607805 0.01497680
v 0.04097206 -0.00812686 0.01497680
v 0.04099819 -0.00703523 0.01497680
v 0.03472678 -0.02292521 0.01497680
v 0.04248834 -0.00314011 0.01497680
v 0.04303542 -0.00249145 0.01497680
v 0.04386277 0.00119575 0.01497680
v 0.04379086 0.00311097 0.01497680
v 0.04320691 0.00340971 0.01497680
v 0.03586822 0.00130299 0.01497680
v 0.03617437 0.00124209 0.01497680
v 0.03660733 0.00080914 0.01497680
v 0.04366298 0.00087467 0.01497680
v 0.03666822 0.00050299 0.01497680
v 0.03643391 0.00106868 0.01497680
v 0.03556207 0.00124209 0.01497680
v 0.04320691 -0.00240372 0.01497680
v 0.03586822 -0.00029701 0.01497680
v 0.03643391 -0.00006269 0.01497680
v 0.03617437 -0.00023611 0.01497680
v 0.04359322 0.00050299 0.01497680
v 0.03506822 0.00050299 0.01497680
v 0.03512911 0.00080914 0.01497680
v 0.03556207 -0.00023611 0.01497680
v 0.03530253 -0.00006269 0.01497680
v 0.04386277 -0.00018977 0.01497680
v 0.03660733 0.00019684 0.01497680
v 0.03530253 0.00106868 0.01497680
v 0.03512911 0.00019684 0.01497680
v 0.04366298 0.00013132 0.01497680
v 0.04379086 -0.00210499 0.01497680
v 0.03763697 0.02307557 0.01497680
v 0.03608424 0.02177268 0.01497680
v 0.03661112 0.02059712 0.01497680
v 0.03984483 0.01338209 0.01497680
v 0.03914166 0.02034227 0.01497680
v 0.03900136 0.02059712 0.01497680
v 0.04337328 0.00708403 0.01497680
v 0.03972816 0.01123784 0.01497680
v 0.03910856 0.01033872 0.01497680
v 0.03998492 0.01229917 0.01497680
v 0.04231444 0.00580072 0.01497680
v 0.04271469 0.00654895 0.01497680
v 0.03820820 0.00972091 0.01497680
v 0.03714636 0.00946626 0.01497680
v 0.02746822 0.00895905 0.01497680
v 0.04223485 0.00495590 0.01497680
v 0.04303542 0.00349744 0.01497680
v 0.04248834 0.00414609 0.01497680
v 0.01834581 0.00815666 0.01497680
v 0.02166568 0.01054643 0.01497680
v 0.01818684 0.01600874 0.01497680
v 0.01401036 0.01464513 0.01497680
v 0.01337421 0.02034205 0.01497680
v 0.01286245 0.02059712 0.01497680
v 0.02236329 0.00959031 0.01497680
v 0.00466269 0.01954931 0.01497680
v 0.00752189 0.01898058 0.01497680
v 0.02454737 0.00880598 0.01497680
v 0.02337642 0.00897841 0.01497680
v 0.00554605 0.02591484 0.01497680
v 0.00757819 0.02323087 0.01497680
v 0.00583993 0.02476833 0.01497680
v 0.00655438 0.02382472 0.01497680
v 0.00536827 0.02930699 0.01497680
v 0.00518208 0.03020145 0.01497680
v 0.00473530 0.03099839 0.01497680
v 0.00542644 0.02819712 0.01497680
v 0.00466269 0.03106659 0.01497680
v 0.00406936 0.03162390 0.01497680
v 0.00291956 0.03279781 0.01497680
v 0.00444376 -0.03151731 0.01497680
v 0.00466269 -0.03118965 0.01497680
v 0.00434861 -0.03199567 0.01497680
v 0.00466269 -0.03280167 0.01497680
v 0.00444376 -0.03247402 0.01497680
v 0.00861934 -0.03272711 0.01497680
v 0.00684861 -0.03199567 0.01497680
v 0.00675346 -0.03247402 0.01497680
v 0.00675346 -0.03151731 0.01497680
v 0.00854150 -0.03339379 0.01497680
v 0.00607696 -0.03315051 0.01497680
v 0.00559861 -0.03324566 0.01497680
v 0.00607696 -0.03084082 0.01497680
v 0.00648249 -0.03111178 0.01497680
v 0.00559861 -0.03074566 0.01497680
v 0.00471473 -0.03111178 0.01497680
v 0.00512026 -0.03084082 0.01497680
v 0.00648249 -0.03287955 0.01497680
v 0.00512026 -0.03315051 0.01497680
v 0.00471473 -0.03287955 0.01497680
v -0.03790053 -0.02206959 0.01497680
v 0.01763783 0.03855875 0.01497680
v -0.03124448 -0.03060971 0.01397680
v -0.01997106 -0.03877044 0.01397680
v -0.02670734 -0.03456465 0.01447680
v -0.01992045 -0.03868711 0.01547680
v -0.02670734 -0.03456465 0.01547680
v -0.03790053 -0.02206959 0.01447680
v -0.03790053 -0.02206959 0.01497680
v -0.03911570 -0.01986220 0.01497680
v -0.03940522 -0.01933629 0.01397680
v -0.03124448 -0.03060971 0.01447680
v -0.04363684 -0.00607805 0.01497680
v -0.04363684 -0.00607805 0.01397680
v -0.01900080 -0.03924572 0.01497680
v -0.00671282 -0.04300207 0.01397680
v -0.00671282 -0.04300207 0.01497680
v -0.01900080 -0.03924572 0.01547680
v -0.03940522 -0.01933629 0.01497680
v -0.03634780 -0.02076670 0.01447680
v -0.03790053 -0.02206959 0.01447680
v -0.03124448 -0.03060971 0.01447680
v -0.02592342 -0.03264503 0.01447680
v -0.02670734 -0.03456465 0.01447680
v -0.02683960 -0.03341381 0.01447680
v -0.02683960 -0.03341381 0.01447680
v -0.02670734 -0.03456465 0.01447680
v -0.02670734 -0.03456465 0.01547680
v -0.02683960 -0.03341381 0.01630670
v -0.02683960 -0.03341381 0.01630670
v -0.02670734 -0.03456465 0.01547680
v -0.01992045 -0.03868711 0.01547680
v -0.01845121 -0.03839943 0.01647680
v -0.02670649 -0.03330211 0.01647680
v -0.01900080 -0.03924572 0.01547680
v -0.01845121 -0.03839943 0.01647680
v -0.01790139 -0.03755277 0.01647680
v -0.02592342 -0.03264503 0.01647680
v -0.02670649 -0.03330211 0.01647680
vt 0.50000000 0.50000000
vt 0.50000000 0.50000000
vt 0.50000000 0.50000000
vt 0.50000000 0.50000000
vt 0.50000000 0.50000000
vt 0.50000000 0.50000000
vt 0.50000000 0.50000000
vt 0.50000000 0.50000000
vt 0.50000000 0.50000000
vt 0.50000000 0.50000000
vt 0.50000000 0.50000000
vt 0.50000000 0.50000000
vt 0.50000000 0.50000000
vt 0.50000000 0.50000000
vt 0.50000000 0.50000000
vt 0.50000000 0.50000000
vt 0.50000000 0.50000000
vt 0.50000000 0.50000000
vt 0.50000000 0.50000000
vt 0.50000000 0.50000000
vt 0.50000000 0.50000000
vt 0.50000000 0.50000000
vt 0.50000000 0.50000000
vt 0.50000000 0.50000000
vt 0.50000000 0.50000000
vt 0.50000000 0.50000000
vt 0.50000000 0.50000000
vt 0.50000000 0.50000000
vt 0.50000000 0.50000000
vt 0.50000000 0.50000000
vt 0.50000000 0.50000000
vt 0.50000000 0.50000000
vt 0.50000000 0.50000000
vt 0.50000000 0.50000000
vt 0.50000000 0.50000000
vt 0.50000000 0.50000000
vt 0.50000000 0.50000000
vt 0.50000000 0.50000000
vt 0.50000000 0.50000000
vt 0.50000000 0.50000000
vt 0.50000000 0.50000000
vt 0.50000000 0.50000000
vt 0.50000000 0.50000000
vt 0.50000000 0.50000000
vt 0.50000000 0.50000000
vt 0.50000000 0.50000000
vt 0.50000000 0.50000000
vt 0.50000000 0.50000000
vt 0.50000000 0.50000000
vt 0.50000000 0.50000000
vt 0.50000000 0.50000000
vt 0.50000000 0.50000000
vt 0.50000000 0.50000000
vt 0.50000000 0.50000000
vt 0.50000000 0.50000000
vt 0.50000000 0.50000000
vt 0.50000000 0.50000000
vt 0.50000000 0.50000000
vt 0.50000000 0.50000000
vt 0.50000000 0.50000000
vt 0.50000000 0.50000000
vt 0.50000000 0.50000000
vt 0.50000000 0.50000000
vt 0.50000000 0.50000000
vt 0.50000000 0.50000000
vt 0.50000000 0.50000000
vt 0.50000000 0.50000000
vt 0.50000000 0.50000000
vt 0.50000000 0.50000000
vt 0.50000000 0.50000000
vt 0.50000000 0.50000000
vt 0.50000000 0.50000000
vt 0.50000000 0.50000000
vt 0.50000000 0.50000000
vt 0.50000000 0.50000000
vt 0.50000000 0.50000000
vt 0.50000000 0.50000000
vt 0.50000000 0.50000000
vt 0.50000000 0.50000000
vt 0.50000000 0.50000000
vt 0.50000000 0.50000000
vt 0.50000000 0.50000000
vt 0.50000000 0.50000000
vt 0.50000000 0.50000000
vt 0.50000000 0.50000000
vt 0.50000000 0.50000000
vt 0.50000000 0.50000000
vt 0.50000000 0.50000000
vt 0.50000000 0.50000000
vt 0.50000000 0.50000000
vt 0.50000000 0.50000000
vt 0.50000000 0.50000000
vt 0.50000000 0.50000000
vt 0.50000000 0.50000000
vt 0.50000000 0.50000000
vt 0.50000000 0.50000000
vt 0.50000000 0.50000000
vt 0.50000000 0.50000000
vt 0.50000000 0.50000000
vt 0.50000000 0.50000000
vt 0.50000000 0.50000000
vt 0.50000000 0.50000000
vt 0.50000000 0.50000000
vt 0.50000000 0.50000000
vt 0.50000000 0.50000000
vt 0.50000000 0.50000000
vt 0.50000000 0.50000000
vt 0.50000000 0.50000000
vt 0.50000000 0.50000000
vt 0.50000000 0.50000000
vt 0.50000000 0.50000000
vt 0.50000000 0.50000000
vt 0.50000000 0.50000000
vt 0.50000000 0.50000000
vt 0.50000000 0.50000000
vt 0.50000000 0.50000000
vt 0.50000000 0.50000000
vt 0.50000000 0.50000000
vt 0.50000000 0.50000000
vt 0.50000000 0.50000000
vt 0.50000000 0.50000000
vt 0.50000000 0.50000000
vt 0.50000000 0.50000000
vt 0.50000000 0.50000000
vt 0.50000000 0.50000000
vt 0.50000000 0.50000000
vt 0.50000000 0.50000000
vt 0.50000000 0.50000000
vt 0.50000000 0.50000000
vt 0.50000000 0.50000000
vt 0.50000000 0.50000000
vt 0.50000000 0.50000000
vt 0.50000000 0.50000000
vt 0.50000000 0.50000000
vt 0.50000000 0.50000000
vt 0.50000000 0.50000000
vt 0.50000000 0.50000000
vt 0.50000000 0.50000000
vt 0.50000000 0.50000000
vt 0.50000000 0.50000000
vt 0.50000000 0.50000000
vt 0.50000000 0.50000000
vt 0.50000000 0.50000000
vt 0.50000000 0.50000000
vt 0.50000000 0.50000000
vt 0.50000000 0.50000000
vt 0.50000000 0.50000000
vt 0.50000000 0.50000000
vt 0.50000000 0.50000000
vt 0.50000000 0.50000000
vt 0.50000000 0.50000000
vt 0.50000000 0.50000000
vt 0.50000000 0.50000000
vt 0.50000000 0.50000000
vt 0.50000000 0.50000000
vt 0.50000000 0.50000000
vt 0.50000000 0.50000000
vt 0.50000000 0.50000000
vt 0.50000000 0.50000000
vt 0.50000000 0.50000000
vt 0.50000000 0.50000000
vt 0.50000000 0.50000000
vt 0.50000000 0.50000000
vt 0.50000000 0.50000000
vt 0.50000000 0.50000000
vt 0.50000000 0.50000000
vt 0.50000000 0.50000000
vt 0.50000000 0.50000000
vt 0.50000000 0.50000000
vt 0.50000000 0.50000000
vt 0.50000000 0.50000000
vt 0.50000000 0.50000000
vt 0.50000000 0.50000000
vt 0.50000000 0.50000000
vt 0.50000000 0.50000000
vt 0.50000000 0.50000000
vt 0.50000000 0.50000000
vt 0.50000000 0.50000000
vt 0.50000000 0.50000000
vt 0.50000000 0.50000000
vt 0.50000000 0.50000000
vt 0.50000000 0.50000000
vt 0.50000000 0.50000000
vt 0.50000000 0.50000000
vt 0.50000000 0.50000000
vt 0.50000000 0.50000000
vt 0.50000000 0.50000000
vt 0.50000000 0.50000000
vt 0.50000000 0.50000000
vt 0.50000000 0.50000000
vt 0.50000000 0.50000000
vt 0.50000000 0.50000000
vt 0.50000000 0.50000000
vt 0.50000000 0.50000000
vt 0.50000000 0.50000000
vt 0.50000000 0.50000000
vt 0.50000000 0.50000000
vt 0.50000000 0.50000000
vt 0.50000000 0.50000000
vt 0.50000000 0.50000000
vt 0.50000000 0.50000000
vt 0.50000000 0.50000000
vt 0.50000000 0.50000000
vt 0.50000000 0.50000000
vt 0.50000000 0.50000000
vt 0.50000000 0.50000000
vt 0.50000000 0.50000000
vt 0.50000000 0.50000000
vt 0.50000000 0.50000000
vt 0.50000000 0.50000000
vt 0.50000000 0.50000000
vt 0.50000000 0.50000000
vt 0.50000000 0.50000000
vt 0.50000000 0.50000000
vt 0.50000000 0.50000000
vt 0.50000000 0.50000000
vt 0.50000000 0.50000000
vt 0.50000000 0.50000000
vt 0.50000000 0.50000000
vt 0.50000000 0.50000000
vt 0.50000000 0.50000000
vt 0.50000000 0.50000000
vt 0.50000000 0.50000000
vt 0.50000000 0.50000000
vt 0.50000000 0.50000000
vt 0.50000000 0.50000000
vt 0.50000000 0.50000000
vt 0.50000000 0.50000000
vt 0.50000000 0.50000000
vt 0.50000000 0.50000000
vt 0.50000000 0.50000000
vt 0.50000000 0.50000000
vt 0.50000000 0.50000000
vt 0.50000000 0.50000000
vt 0.50000000 0.50000000
vt 0.50000000 0.50000000
vt 0.50000000 0.50000000
vt 0.50000000 0.50000000
vt 0.50000000 0.50000000
vt 0.50000000 0.50000000
vt 0.50000000 0.50000000
vt 0.50000000 0.50000000
vt 0.50000000 0.50000000
vt 0.50000000 0.50000000
vt 0.50000000 0.50000000
vt 0.50000000 0.50000000
vt 0.50000000 0.50000000
vt 0.50000000 0.50000000
vt 0.50000000 0.50000000
vt 0.50000000 0.50000000
vt 0.50000000 0.50000000
vt 0.50000000 0.50000000
vt 0.50000000 0.50000000
vt 0.50000000 0.50000000
vt 0.50000000 0.50000000
vt 0.50000000 0.50000000
vt 0.50000000 0.50000000
vt 0.50000000 0.50000000
vt 0.50000000 0.50000000
vt 0.50000000 0.50000000
vt 0.50000000 0.50000000
vt 0.50000000 0.50000000
vt 0.50000000 0.50000000
vt 0.50000000 0.50000000
vt 0.50000000 0.50000000
vt 0.50000000 0.50000000
vt 0.50000000 0.50000000
vt 0.50000000 0.50000000
vt 0.50000000 0.50000000
vt 0.50000000 0.50000000
vt 0.50000000 0.50000000
vt 0.50000000 0.50000000
vt 0.50000000 0.50000000
vt 0.50000000 0.50000000
vt 0.50000000 0.50000000
vt 0.50000000 0.50000000
vt 0.50000000 0.50000000
vt 0.50000000 0.50000000
vt 0.50000000 0.50000000
vt 0.50000000 0.50000000
vt 0.50000000 0.50000000
vt 0.50000000 0.50000000
vt 0.50000000 0.50000000
vt 0.50000000 0.50000000
vt 0.50000000 0.50000000
vt 0.50000000 0.50000000
vt 0.50000000 0.50000000
vt 0.50000000 0.50000000
vt 0.50000000 0.50000000
vt 0.50000000 0.50000000
vt 0.50000000 0.50000000
vt 0.50000000 0.50000000
vt 0.50000000 0.50000000
vt 0.50000000 0.50000000
vt 0.50000000 0.50000000
vt 0.50000000 0.50000000
vt 0.50000000 0.50000000
vt 0.50000000 0.50000000
vt 0.50000000 0.50000000
vt 0.50000000 0.50000000
vt 0.50000000 0.50000000
vt 0.50000000 0.50000000
vt 0.50000000 0.50000000
vt 0.50000000 0.50000000
vt 0.50000000 0.50000000
vt 0.50000000 0.50000000
vt 0.50000000 0.50000000
vt 0.50000000 0.50000000
vt 0.50000000 0.50000000
vt 0.50000000 0.50000000
vt 0.50000000 0.50000000
vt 0.50000000 0.50000000
vt 0.50000000 0.50000000
vt 0.50000000 0.50000000
vt 0.50000000 0.50000000
vt 0.50000000 0.50000000
vt 0.50000000 0.50000000
vt 0.50000000 0.50000000
vt 0.50000000 0.50000000
vt 0.50000000 0.50000000
vt 0.50000000 0.50000000
vt 0.50000000 0.50000000
vt 0.50000000 0.50000000
vt 0.50000000 0.50000000
vt 0.50000000 0.50000000
vt 0.50000000 0.50000000
vt 0.50000000 0.50000000
vt 0.50000000 0.50000000
vt 0.50000000 0.50000000
vt 0.50000000 0.50000000
vt 0.50000000 0.50000000
vt 0.50000000 0.50000000
vt 0.50000000 0.50000000
vt 0.50000000 0.50000000
vt 0.50000000 0.50000000
vt 0.50000000 0.50000000
vt 0.50000000 0.50000000
vt 0.50000000 0.50000000
vt 0.50000000 0.50000000
vt 0.50000000 0.50000000
vt 0.50000000 0.50000000
vt 0.50000000 0.50000000
vt 0.50000000 0.50000000
vt 0.50000000 0.50000000
vt 0.50000000 0.50000000
vt 0.50000000 0.50000000
vt 0.50000000 0.50000000
vt 0.50000000 0.50000000
vt 0.50000000 0.50000000
vt 0.50000000 0.50000000
vt 0.50000000 0.50000000
vt 0.50000000 0.50000000
vt 0.50000000 0.50000000
vt 0.50000000 0.50000000
vt 0.50000000 0.50000000
vt 0.50000000 0.50000000
vt 0.50000000 0.50000000
vt 0.50000000 0.50000000
vt 0.50000000 0.50000000
vt 0.50000000 0.50000000
vt 0.50000000 0.50000000
vt 0.50000000 0.50000000
vt 0.50000000 0.50000000
vt 0.50000000 0.50000000
vt 0.50000000 0.50000000
vt 0.50000000 0.50000000
vt 0.50000000 0.50000000
vt 0.50000000 0.50000000
vt 0.50000000 0.50000000
vt 0.50000000 0.50000000
vt 0.50000000 0.50000000
vt 0.50000000 0.50000000
vt 0.50000000 0.50000000
vt 0.50000000 0.50000000
vt 0.50000000 0.50000000
vt 0.50000000 0.50000000
vt 0.50000000 0.50000000
vt 0.50000000 0.50000000
vt 0.50000000 0.50000000
vt 0.50000000 0.50000000
vt 0.50000000 0.50000000
vt 0.50000000 0.50000000
vt 0.50000000 0.50000000
vt 0.50000000 0.50000000
vt 0.50000000 0.50000000
vt 0.50000000 0.50000000
vt 0.50000000 0.50000000
vt 0.50000000 0.50000000
vt 0.50000000 0.50000000
vt 0.50000000 0.50000000
vt 0.50000000 0.50000000
vt 0.50000000 0.50000000
vt 0.50000000 0.50000000
vt 0.50000000 0.50000000
vt 0.50000000 0.50000000
vt 0.50000000 0.50000000
vt 0.50000000 0.50000000
vt 0.50000000 0.50000000
vt 0.50000000 0.50000000
vt 0.50000000 0.50000000
vt 0.50000000 0.50000000
vt 0.50000000 0.50000000
vt 0.50000000 0.50000000
vt 0.50000000 0.50000000
vt 0.50000000 0.50000000
vt 0.50000000 0.50000000
vt 0.50000000 0.50000000
vt 0.50000000 0.50000000
vt 0.50000000 0.50000000
vt 0.50000000 0.50000000
vt 0.50000000 0.50000000
vt 0.50000000 0.50000000
vt 0.50000000 0.50000000
vt 0.50000000 0.50000000
vt 0.50000000 0.50000000
vt 0.50000000 0.50000000
vt 0.50000000 0.50000000
vt 0.50000000 0.50000000
vt 0.50000000 0.50000000
vt 0.50000000 0.50000000
vt 0.50000000 0.50000000
vt 0.50000000 0.50000000
vt 0.50000000 0.50000000
vt 0.50000000 0.50000000
vt 0.50000000 0.50000000
vt 0.50000000 0.50000000
vt 0.50000000 0.50000000
vt 0.50000000 0.50000000
vt 0.50000000 0.50000000
vt 0.50000000 0.50000000
vt 0.50000000 0.50000000
vt 0.50000000 0.50000000
vt 0.50000000 0.50000000
vt 0.50000000 0.50000000
vt 0.50000000 0.50000000
vt 0.50000000 0.50000000
vt 0.50000000 0.50000000
vt 0.50000000 0.50000000
vt 0.50000000 0.50000000
vt 0.50000000 0.50000000
vt 0.50000000 0.50000000
vt 0.50000000 0.50000000
vt 0.50000000 0.50000000
vt 0.50000000 0.50000000
vt 0.50000000 0.50000000
vt 0.50000000 0.50000000
vt 0.50000000 0.50000000
vt 0.50000000 0.50000000
vt 0.50000000 0.50000000
vt 0.50000000 0.50000000
vt 0.50000000 0.50000000
vt 0.50000000 0.50000000
vt 0.50000000 0.50000000
vt 0.50000000 0.50000000
vt 0.50000000 0.50000000
vt 0.50000000 0.50000000
vt 0.50000000 0.50000000
vt 0.50000000 0.50000000
vt 0.50000000 0.50000000
vt 0.50000000 0.50000000
vt 0.50000000 0.50000000
vt 0.50000000 0.50000000
vt 0.50000000 0.50000000
vt 0.50000000 0.50000000
vt 0.50000000 0.50000000
vt 0.50000000 0.50000000
vt 0.50000000 0.50000000
vt 0.50000000 0.50000000
vt 0.50000000 0.50000000
vt 0.50000000 0.50000000
vt 0.50000000 0.50000000
vt 0.50000000 0.50000000
vt 0.50000000 0.50000000
vt 0.50000000 0.50000000
vt 0.50000000 0.50000000
vt 0.50000000 0.50000000
vt 0.50000000 0.50000000
vt 0.50000000 0.50000000
vt 0.50000000 0.50000000
vt 0.50000000 0.50000000
vt 0.50000000 0.50000000
vt 0.50000000 0.50000000
vt 0.50000000 0.50000000
vt 0.50000000 0.50000000
vt 0.50000000 0.50000000
vt 0.50000000 0.50000000
vt 0.50000000 0.50000000
vt 0.50000000 0.50000000
vt 0.50000000 0.50000000
vt 0.50000000 0.50000000
vt 0.50000000 0.50000000
vt 0.50000000 0.50000000
vt 0.50000000 0.50000000
vt 0.50000000 0.50000000
vt 0.50000000 0.50000000
vt 0.50000000 0.50000000
vt 0.50000000 0.50000000
vt 0.50000000 0.50000000
vt 0.50000000 0.50000000
vt 0.50000000 0.50000000
vt 0.50000000 0.50000000
vt 0.50000000 0.50000000
vt 0.50000000 0.50000000
vt 0.50000000 0.50000000
vt 0.50000000 0.50000000
vt 0.50000000 0.50000000
vt 0.50000000 0.50000000
vt 0.50000000 0.50000000
vt 0.50000000 0.50000000
vt 0.50000000 0.50000000
vt 0.50000000 0.50000000
vt 0.50000000 0.50000000
vt 0.50000000 0.50000000
vt 0.50000000 0.50000000
vt 0.50000000 0.50000000
vt 0.50000000 0.50000000
vt 0.50000000 0.50000000
vt 0.50000000 0.50000000
vt 0.50000000 0.50000000
vt 0.50000000 0.50000000
vt 0.50000000 0.50000000
vt 0.50000000 0.50000000
vt 0.50000000 0.50000000
vt 0.50000000 0.50000000
vt 0.50000000 0.50000000
vt 0.50000000 0.50000000
vt 0.50000000 0.50000000
vt 0.50000000 0.50000000
vt 0.50000000 0.50000000
vt 0.50000000 0.50000000
vt 0.50000000 0.50000000
vt 0.50000000 0.50000000
vt 0.50000000 0.50000000
vt 0.50000000 0.50000000
vt 0.50000000 0.50000000
vt 0.50000000 0.50000000
vt 0.50000000 0.50000000
vt 0.50000000 0.50000000
vt 0.50000000 0.50000000
vt 0.50000000 0.50000000
vt 0.50000000 0.50000000
vt 0.50000000 0.50000000
vt 0.50000000 0.50000000
vt 0.50000000 0.50000000
vt 0.50000000 0.50000000
vt 0.50000000 0.50000000
vt 0.50000000 0.50000000
vt 0.50000000 0.50000000
vt 0.50000000 0.50000000
vt 0.50000000 0.50000000
vt 0.50000000 0.50000000
vt 0.50000000 0.50000000
vt 0.50000000 0.50000000
vt 0.50000000 0.50000000
vt 0.50000000 0.50000000
vt 0.50000000 0.50000000
vt 0.50000000 0.50000000
vt 0.50000000 0.50000000
vt 0.50000000 0.50000000
vt 0.50000000 0.50000000
vt 0.50000000 0.50000000
vt 0.50000000 0.50000000
vt 0.50000000 0.50000000
vt 0.50000000 0.50000000
vt 0.50000000 0.50000000
vt 0.50000000 0.50000000
vt 0.50000000 0.50000000
vt 0.50000000 0.50000000
vt 0.50000000 0.50000000
vt 0.50000000 0.50000000
vt 0.50000000 0.50000000
vt 0.50000000 0.50000000
vt 0.50000000 0.50000000
vt 0.50000000 0.50000000
vt 0.50000000 0.50000000
vt 0.50000000 0.50000000
vt 0.50000000 0.50000000
vt 0.50000000 0.50000000
vt 0.50000000 0.50000000
vt 0.50000000 0.50000000
vt 0.50000000 0.50000000
vt 0.50000000 0.50000000
vt 0.50000000 0.50000000
vt 0.50000000 0.50000000
vt 0.50000000 0.50000000
vt 0.50000000 0.50000000
vt 0.50000000 0.50000000
vt 0.50000000 0.50000000
vt 0.50000000 0.50000000
vt 0.50000000 0.50000000
vt 0.50000000 0.50000000
vt 0.50000000 0.50000000
vt 0.50000000 0.50000000
vt 0.50000000 0.50000000
vt 0.50000000 0.50000000
vt 0.50000000 0.50000000
vt 0.50000000 0.50000000
vt 0.50000000 0.50000000
vt 0.50000000 0.50000000
vt 0.50000000 0.50000000
vt 0.50000000 0.50000000
vt 0.50000000 0.50000000
vt 0.50000000 0.50000000
vt 0.50000000 0.50000000
vt 0.50000000 0.50000000
vt 0.50000000 0.50000000
vt 0.50000000 0.50000000
vt 0.50000000 0.50000000
vt 0.50000000 0.50000000
vt 0.50000000 0.50000000
vt 0.50000000 0.50000000
vt 0.50000000 0.50000000
vt 0.50000000 0.50000000
vt 0.50000000 0.50000000
vt 0.50000000 0.50000000
vt 0.50000000 0.50000000
vt 0.50000000 0.50000000
vt 0.50000000 0.50000000
vt 0.50000000 0.50000000
vt 0.50000000 0.50000000
vt 0.50000000 0.50000000
vt 0.50000000 0.50000000
vt 0.50000000 0.50000000
vt 0.50000000 0.50000000
vt 0.50000000 0.50000000
vt 0.50000000 0.50000000
vt 0.50000000 0.50000000
vt 0.50000000 0.50000000
vt 0.50000000 0.50000000
vt 0.50000000 0.50000000
vt 0.50000000 0.50000000
vt 0.50000000 0.50000000
vt 0.50000000 0.50000000
vt 0.50000000 0.50000000
vt 0.50000000 0.50000000
vt 0.50000000 0.50000000
vt 0.50000000 0.50000000
vt 0.50000000 0.50000000
vt 0.50000000 0.50000000
vt 0.50000000 0.50000000
vt 0.50000000 0.50000000
vt 0.50000000 0.50000000
vt 0.50000000 0.50000000
vt 0.50000000 0.50000000
vt 0.50000000 0.50000000
vt 0.50000000 0.50000000
vt 0.50000000 0.50000000
vt 0.50000000 0.50000000
vt 0.50000000 0.50000000
vt 0.50000000 0.50000000
vt 0.50000000 0.50000000
vt 0.50000000 0.50000000
vt 0.50000000 0.50000000
vt 0.50000000 0.50000000
vt 0.50000000 0.50000000
vt 0.50000000 0.50000000
vt 0.50000000 0.50000000
vt 0.50000000 0.50000000
vt 0.50000000 0.50000000
vt 0.50000000 0.50000000
vt 0.50000000 0.50000000
vt 0.50000000 0.50000000
vt 0.50000000 0.50000000
vt 0.50000000 0.50000000
vt 0.50000000 0.50000000
vt 0.50000000 0.50000000
vt 0.50000000 0.50000000
vt 0.50000000 0.50000000
vt 0.50000000 0.50000000
vt 0.50000000 0.50000000
vt 0.50000000 0.50000000
vt 0.50000000 0.50000000
vt 0.50000000 0.50000000
vt 0.50000000 0.50000000
vt 0.50000000 0.50000000
vt 0.50000000 0.50000000
vt 0.50000000 0.50000000
vt 0.50000000 0.50000000
vt 0.50000000 0.50000000
vt 0.50000000 0.50000000
vt 0.50000000 0.50000000
vt 0.50000000 0.50000000
vt 0.50000000 0.50000000
vt 0.50000000 0.50000000
vt 0.50000000 0.50000000
vt 0.50000000 0.50000000
vt 0.50000000 0.50000000
vt 0.50000000 0.50000000
vt 0.50000000 0.50000000
vt 0.50000000 0.50000000
vt 0.50000000 0.50000000
vt 0.50000000 0.50000000
vt 0.50000000 0.50000000
vt 0.50000000 0.50000000
vt 0.50000000 0.50000000
vt 0.50000000 0.50000000
vt 0.50000000 0.50000000
vt 0.50000000 0.50000000
vt 0.50000000 0.50000000
vt 0.50000000 0.50000000
vt 0.50000000 0.50000000
vt 0.50000000 0.50000000
vt 0.50000000 0.50000000
vt 0.50000000 0.50000000
vt 0.50000000 0.50000000
vt 0.50000000 0.50000000
vt 0.50000000 0.50000000
vt 0.50000000 0.50000000
vt 0.50000000 0.50000000
vt 0.50000000 0.50000000
vt 0.50000000 0.50000000
vt 0.50000000 0.50000000
vt 0.50000000 0.50000000
vt 0.50000000 0.50000000
vt 0.50000000 0.50000000
vt 0.50000000 0.50000000
vt 0.50000000 0.50000000
vt 0.50000000 0.50000000
vt 0.50000000 0.50000000
vt 0.50000000 0.50000000
vt 0.50000000 0.50000000
vt 0.50000000 0.50000000
vt 0.50000000 0.50000000
vt 0.50000000 0.50000000
vt 0.50000000 0.50000000
vt 0.50000000 0.50000000
vt 0.50000000 0.50000000
vt 0.50000000 0.50000000
vt 0.50000000 0.50000000
vt 0.50000000 0.50000000
vt 0.50000000 0.50000000
vt 0.50000000 0.50000000
vt 0.50000000 0.50000000
vt 0.50000000 0.50000000
vt 0.50000000 0.50000000
vt 0.50000000 0.50000000
vt 0.50000000 0.50000000
vt 0.50000000 0.50000000
vt 0.50000000 0.50000000
vt 0.50000000 0.50000000
vt 0.50000000 0.50000000
vt 0.50000000 0.50000000
vt 0.50000000 0.50000000
vt 0.50000000 0.50000000
vt 0.50000000 0.50000000
vt 0.50000000 0.50000000
vt 0.50000000 0.50000000
vt 0.50000000 0.50000000
vt 0.50000000 0.50000000
vt 0.50000000 0.50000000
vt 0.50000000 0.50000000
vt 0.50000000 0.50000000
vt 0.50000000 0.50000000
vt 0.50000000 0.50000000
vt 0.50000000 0.50000000
vt 0.50000000 0.50000000
vt 0.50000000 0.50000000
vt 0.50000000 0.50000000
vt 0.50000000 0.50000000
vt 0.50000000 0.50000000
vt 0.50000000 0.50000000
vt 0.50000000 0.50000000
vt 0.50000000 0.50000000
vt 0.50000000 0.50000000
vt 0.50000000 0.50000000
vt 0.50000000 0.50000000
vt 0.50000000 0.50000000
vt 0.50000000 0.50000000
vt 0.50000000 0.50000000
vt 0.50000000 0.50000000
vt 0.50000000 0.50000000
vt 0.50000000 0.50000000
vt 0.50000000 0.50000000
vt 0.50000000 0.50000000
vt 0.50000000 0.50000000
vt 0.50000000 0.50000000
vt 0.50000000 0.50000000
vt 0.50000000 0.50000000
vt 0.50000000 0.50000000
vt 0.50000000 0.50000000
vt 0.50000000 0.50000000
vt 0.50000000 0.50000000
vt 0.50000000 0.50000000
vt 0.50000000 0.50000000
vt 0.50000000 0.50000000
vt 0.50000000 0.50000000
vt 0.50000000 0.50000000
vt 0.50000000 0.50000000
vt 0.50000000 0.50000000
vt 0.50000000 0.50000000
vt 0.50000000 0.50000000
vt 0.50000000 0.50000000
vt 0.50000000 0.50000000
vt 0.50000000 0.50000000
vt 0.50000000 0.50000000
vt 0.50000000 0.50000000
vt 0.50000000 0.50000000
vt 0.50000000 0.50000000
vt 0.50000000 0.50000000
vt 0.50000000 0.50000000
vt 0.50000000 0.50000000
vt 0.50000000 0.50000000
vt 0.50000000 0.50000000
vt 0.50000000 0.50000000
vt 0.50000000 0.50000000
vt 0.50000000 0.50000000
vt 0.50000000 0.50000000
vt 0.50000000 0.50000000
vt 0.50000000 0.50000000
vt 0.50000000 0.50000000
vt 0.50000000 0.50000000
vt 0.50000000 0.50000000
vt 0.50000000 0.50000000
vt 0.50000000 0.50000000
vt 0.50000000 0.50000000
vt 0.50000000 0.50000000
vt 0.50000000 0.50000000
vt 0.50000000 0.50000000
vt 0.50000000 0.50000000
vt 0.50000000 0.50000000
vt 0.50000000 0.50000000
vt 0.50000000 0.50000000
vt 0.50000000 0.50000000
vt 0.50000000 0.50000000
vt 0.50000000 0.50000000
vt 0.50000000 0.50000000
vt 0.50000000 0.50000000
vt 0.50000000 0.50000000
vt 0.50000000 0.50000000
vt 0.50000000 0.50000000
vt 0.50000000 0.50000000
vt 0.50000000 0.50000000
vt 0.50000000 0.50000000
vt 0.50000000 0.50000000
vt 0.50000000 0.50000000
vt 0.50000000 0.50000000
vt 0.50000000 0.50000000
vt 0.50000000 0.50000000
vt 0.50000000 0.50000000
vt 0.50000000 0.50000000
vt 0.50000000 0.50000000
vt 0.50000000 0.50000000
vt 0.50000000 0.50000000
vt 0.50000000 0.50000000
vt 0.50000000 0.50000000
vt 0.50000000 0.50000000
vt 0.50000000 0.50000000
vt 0.50000000 0.50000000
vt 0.50000000 0.50000000
vt 0.50000000 0.50000000
vt 0.50000000 0.50000000
vt 0.50000000 0.50000000
vt 0.50000000 0.50000000
vt 0.50000000 0.50000000
vt 0.50000000 0.50000000
vt 0.50000000 0.50000000
vt 0.50000000 0.50000000
vt 0.50000000 0.50000000
vt 0.50000000 0.50000000
vt 0.50000000 0.50000000
vt 0.50000000 0.50000000
vt 0.50000000 0.50000000
vt 0.50000000 0.50000000
vt 0.50000000 0.50000000
vt 0.50000000 0.50000000
vt 0.50000000 0.50000000
vt 0.50000000 0.50000000
vt 0.50000000 0.50000000
vt 0.50000000 0.50000000
vt 0.50000000 0.50000000
vt 0.50000000 0.50000000
vt 0.50000000 0.50000000
vt 0.50000000 0.50000000
vt 0.50000000 0.50000000
vt 0.50000000 0.50000000
vt 0.50000000 0.50000000
vt 0.50000000 0.50000000
vt 0.50000000 0.50000000
vt 0.50000000 0.50000000
vt 0.50000000 0.50000000
vt 0.50000000 0.50000000
vt 0.50000000 0.50000000
vt 0.50000000 0.50000000
vt 0.50000000 0.50000000
vt 0.50000000 0.50000000
vt 0.50000000 0.50000000
vt 0.50000000 0.50000000
vt 0.50000000 0.50000000
vt 0.50000000 0.50000000
f 1/1 2/2 3/3
f 3/3 4/4 1/1
f 5/5 6/6 7/7
f 8/8 7/7 9/9
f 10/10 9/9 11/11
f 11/11 12/12 10/10
f 9/9 10/10 8/8
f 7/7 8/8 5/5
f 13/13 14/14 15/15
f 16/16 13/13 17/17
f 18/18 16/16 19/19
f 19/19 20/20 18/18
f 17/17 19/19 16/16
f 15/15 17/17 13/13
f 21/21 22/22 23/23
f 24/24 23/23 25/25
f 26/26 25/25 27/27
f 27/27 28/28 26/26
f 25/25 26/26 24/24
f 23/23 24/24 21/21
f 29/29 30/30 31/31
f 32/32 29/29 33/33
f 34/34 32/32 35/35
f 35/35 36/36 34/34
f 33/33 35/35 32/32
f 31/31 33/33 29/29
f 37/37 38/38 39/39
f 40/40 39/39 41/41
f 42/42 41/41 43/43
f 43/43 44/44 42/42
f 41/41 42/42 40/40
f 39/39 40/40 37/37
f 45/45 46/46 47/47
f 47/47 48/48 45/45
f 49/49 50/50 51/51
f 52/52 51/51 53/53
f 54/54 53/53 55/55
f 55/55 56/56 54/54
f 53/53 54/54 52/52
f 51/51 52/52 49/49
f 57/57 58/58 59/59
f 60/60 57/57 61/61
f 62/62 60/60 63/63
f 63/63 64/64 62/62
f 61/61 63/63 60/60
f 59/59 61/61 57/57
f 65/65 66/66 67/67
f 68/68 67/67 69/69
f 70/70 69/69 71/71
f 71/71 72/72 70/70
f 69/69 70/70 68/68
f 67/67 68/68 65/65
f 73/73 74/74 75/75
f 76/76 73/73 77/77
f 78/78 76/76 79/79
f 79/79 80/80 78/78
f 77/77 79/79 76/76
f 75/75 77/77 73/73
f 81/81 82/82 83/83
f 84/84 83/83 85/85
f 86/86 85/85 87/87
f 87/87 88/88 86/86
f 85/85 86/86 84/84
f 83/83 84/84 81/81
f 89/89 90/90 91/91
f 91/91 92/92 89/89
f 93/93 94/94 95/95
f 96/96 95/95 97/97
f 98/98 97/97 99/99
f 99/99 100/100 98/98
f 97/97 98/98 96/96
f 95/95 96/96 93/93
f 101/101 102/102 103/103
f 104/104 101/101 105/105
f 106/106 104/104 107/107
f 107/107 108/108 106/106
f 105/105 107/107 104/104
f 103/103 105/105 101/101
f 109/109 110/110 111/111
f 112/112 111/111 113/113
f 114/114 113/113 115/115
f 115/115 116/116 114/114
f 113/113 114/114 112/112
f 111/111 112/112 109/109
f 117/117 118/118 119/119
f 120/120 117/117 121/121
f 122/122 120/120 123/123
f 123/123 124/124 122/122
f 121/121 123/123 120/120
f 119/119 121/121 117/117
f 125/125 126/126 127/127
f 128/128 127/127 129/129
f 130/130 129/129 131/131
f 131/131 132/132 130/130
f 129/129 130/130 128/128
f 127/127 128/128 125/125
f 133/133 134/134 135/135
f 135/135 136/136 133/133
f 137/137 138/138 139/139
f 140/140 139/139 141/141
f 142/142 141/141 143/143
f 143/143 144/144 142/142
f 141/141 142/142 140/140
f 139/139 140/140 137/137
f 145/145 146/146 147/147
f 148/148 145/145 149/149
f 150/150 148/148 151/151
f 151/151 152/152 150/150
f 149/149 151/151 148/148
f 147/147 149/149 145/145
f 153/153 154/154 155/155
f 156/156 155/155 157/157
f 158/158 157/157 159/159
f 159/159 160/160 158/158
f 157/157 158/158 156/156
f 155/155 156/156 153/153
f 161/161 162/162 163/163
f 164/164 161/161 165/165
f 166/166 164/164 167/167
f 167/167 168/168 166/166
f 165/165 167/167 164/164
f 163/163 165/165 161/161
f 169/169 170/170 171/171
f 172/172 171/171 173/173
f 174/174 173/173 175/175
f 175/175 176/176 174/174
f 173/173 174/174 172/172
f 171/171 172/172 169/169
f 177/177 178/178 179/179
f 180/180 181/181 182/182
f 183/183 184/184 185/185
f 186/186 187/187 188/188
f 189/189 190/190 191/191
f 192/192 193/193 194/194
f 195/195 196/196 197/197
f 198/198 199/199 200/200
f 201/201 178/178 202/202
f 179/179 203/203 204/204
f 203/203 205/205 206/206
f 182/182 207/207 180/180
f 208/208 209/209 210/210
f 211/211 212/212 213/213
f 185/185 214/214 215/215
f 214/214 216/216 217/217
f 188/188 218/218 186/186
f 219/219 220/220 221/221
f 222/222 223/223 224/224
f 190/190 193/193 191/191
f 194/194 225/225 192/192
f 226/226 227/227 228/228
f 197/197 229/229 230/230
f 229/229 231/231 232/232
f 200/200 233/233 198/198
f 234/234 235/235 236/236
f 202/202 237/237 201/201
f 206/206 204/204 203/203
f 181/181 205/205 182/182
f 207/207 238/238 208/208
f 209/209 239/239 240/240
f 239/239 211/211 241/241
f 212/212 242/242 213/213
f 212/212 243/243 244/244
f 245/245 243/243 246/246
f 247/247 184/184 248/248
f 217/217 215/215 214/214
f 187/187 216/216 188/188
f 218/218 249/249 219/219
f 224/224 189/189 250/250
f 193/193 190/190 194/194
f 225/225 251/251 226/226
f 252/252 253/253 254/254
f 255/255 256/256 253/253
f 232/232 230/230 229/229
f 199/199 231/231 200/200
f 233/233 257/257 234/234
f 235/235 258/258 259/259
f 258/258 260/260 261/261
f 262/262 263/263 264/264
f 265/265 266/266 267/267
f 268/268 269/269 270/270
f 237/237 202/202 269/269
f 201/201 271/271 178/178
f 181/181 206/206 205/205
f 207/207 182/182 238/238
f 241/241 240/240 239/239
f 244/244 242/242 212/212
f 246/246 272/272 245/245
f 273/273 274/274 275/275
f 276/276 248/248 274/274
f 248/248 276/276 247/247
f 187/187 217/217 216/216
f 218/218 188/188 249/249
f 191/191 250/250 189/189
f 225/225 194/194 251/251
f 253/253 252/252 255/255
f 277/277 278/278 256/256
f 196/196 279/279 280/280
f 279/279 196/196 278/278
f 199/199 232/232 231/231
f 233/233 200/200 257/257
f 261/261 259/259 258/258
f 260/260 281/281 282/282
f 281/281 263/263 283/283
f 264/264 284/284 285/285
f 266/266 286/286 267/267
f 287/287 270/270 286/286
f 269/269 268/268 237/237
f 179/179 204/204 177/177
f 240/240 210/210 209/209
f 245/245 244/244 243/243
f 274/274 273/273 276/276
f 247/247 288/288 184/184
f 221/221 218/218 219/219
f 220/220 289/289 290/290
f 291/291 292/292 293/293
f 294/294 295/295 292/292
f 296/296 223/223 295/295
f 228/228 225/225 226/226
f 227/227 297/297 298/298
f 299/299 300/300 301/301
f 302/302 303/303 304/304
f 256/256 255/255 277/277
f 278/278 277/277 279/279
f 236/236 233/233 234/234
f 282/282 261/261 260/260
f 283/283 305/305 281/281
f 264/264 285/285 262/262
f 286/286 266/266 287/287
f 271/271 179/179 178/178
f 213/213 241/241 211/211
f 288/288 185/185 184/184
f 290/290 221/221 220/220
f 289/289 306/306 307/307
f 306/306 308/308 309/309
f 308/308 310/310 311/311
f 312/312 293/293 313/313
f 292/292 291/291 294/294
f 295/295 294/294 296/296
f 298/298 228/228 227/227
f 297/297 314/314 315/315
f 314/314 299/299 316/316
f 301/301 317/317 299/299
f 303/303 254/254 304/304
f 280/280 197/197 196/196
f 259/259 236/236 235/235
f 262/262 283/283 263/263
f 270/270 287/287 268/268
f 246/246 318/318 272/272
f 319/319 275/275 320/320
f 185/185 215/215 183/183
f 309/309 307/307 306/306
f 311/311 321/321 308/308
f 322/322 323/323 324/324
f 293/293 312/312 291/291
f 296/296 325/325 223/223
f 315/315 298/298 297/297
f 317/317 316/316 299/299
f 326/326 300/300 327/327
f 254/254 303/303 252/252
f 305/305 282/282 281/281
f 210/210 207/207 208/208
f 328/328 267/267 329/329
f 275/275 319/319 273/273
f 321/321 309/309 308/308
f 330/330 310/310 331/331
f 323/323 313/313 324/324
f 325/325 224/224 223/223
f 316/316 315/315 314/314
f 327/327 332/332 326/326
f 197/197 230/230 195/195
f 267/267 328/328 265/265
f 329/329 333/333 334/334
f 307/307 290/290 289/289
f 331/331 335/335 330/330
f 313/313 323/323 312/312
f 326/326 301/301 300/300
f 299/299 303/303 336/336
f 284/284 337/337 338/338
f 281/281 339/339 263/263
f 340/340 304/304 341/341
f 329/329 334/334 328/328
f 212/212 342/342 343/343
f 330/330 311/311 310/310
f 224/224 250/250 222/222
f 344/344 324/324 345/345
f 303/303 346/346 336/336
f 284/284 264/264 337/337
f 341/341 347/347 340/340
f 212/212 348/348 243/243
f 342/342 349/349 343/343
f 350/350 335/335 351/351
f 320/320 342/342 319/319
f 308/308 323/323 352/352
f 345/345 353/353 344/344
f 336/336 354/354 299/299
f 304/304 340/340 302/302
f 281/281 266/266 355/355
f 318/318 246/246 356/356
f 343/343 348/348 212/212
f 357/357 342/342 358/358
f 331/331 351/351 335/335
f 323/323 359/359 352/352
f 345/345 360/360 353/353
f 303/303 302/302 346/346
f 341/341 361/361 347/347
f 266/266 362/362 355/355
f 265/265 362/362 266/266
f 342/342 320/320 358/358
f 363/363 358/358 364/364
f 308/308 365/365 310/310
f 323/323 322/322 359/359
f 366/366 332/332 367/367
f 324/324 344/344 322/322
f 338/338 368/368 284/284
f 356/356 369/369 318/318
f 358/358 363/363 357/357
f 364/364 370/370 371/371
f 352/352 365/365 308/308
f 327/327 367/367 332/332
f 355/355 339/339 281/281
f 364/364 371/371 363/363
f 367/367 372/372 366/366
f 357/357 349/349 342/342
f 373/373 374/374 333/333
f 354/354 300/300 299/299
f 333/333 375/375 376/376
f 377/377 378/378 361/361
f 351/351 379/379 350/350
f 333/333 329/329 375/375
f 361/361 380/380 381/381
f 333/333 376/376 373/373
f 361/361 341/341 380/380
f 361/361 381/381 377/377
f 379/379 382/382 350/350
f 383/383 384/384 360/360
f 360/360 345/345 385/385
f 386/386 387/387 370/370
f 372/372 388/388 366/366
f 385/385 389/389 360/360
f 370/370 390/390 391/391
f 360/360 389/389 383/383
f 370/370 364/364 390/390
f 370/370 391/391 386/386
f 369/369 392/392 318/318
f 393/393 394/394 395/395
f 395/395 396/396 393/393
f 397/397 398/398 399/399
f 400/400 401/401 397/397
f 399/399 400/400 397/397
f 399/399 402/402 400/400
f 403/403 404/404 405/405
f 405/405 406/406 403/403
f 405/405 407/407 408/408
f 405/405 408/408 406/406
f 409/409 410/410 411/411
f 411/411 412/412 409/409
f 413/413 414/414 415/415
f 416/416 417/417 415/415
f 415/415 414/414 416/416
f 418/418 419/419 420/420
f 420/420 421/421 418/418
f 413/413 422/422 418/418
f 418/418 421/421 413/413
f 423/423 424/424 421/421
f 416/416 414/414 425/425
f 426/426 427/427 425/425
f 425/425 414/414 426/426
f 425/425 428/428 416/416
f 421/421 429/429 423/423
f 420/420 429/429 421/421
f 415/415 422/422 413/413
f 430/430 431/431 432/432
f 431/431 433/433 434/434
f 435/435 430/430 436/436
f 430/430 437/437 438/438
f 434/434 432/432 431/431
f 439/439 440/440 441/441
f 435/435 442/442 440/440
f 436/436 443/443 435/435
f 432/432 437/437 430/430
f 440/440 439/439 435/435
f 443/443 444/444 435/435
f 438/438 445/445 430/430
f 439/439 446/446 447/447
f 441/441 448/448 439/439
f 445/445 436/436 430/430
f 431/431 447/447 449/449
f 448/448 446/446 439/439
f 449/449 433/433 431/431
f 444/444 442/442 435/435
f 450/450 439/439 431/431
f 451/451 452/452 453/453
f 454/454 455/455 456/456
f 457/457 451/451 458/458
f 459/459 460/460 461/461
f 461/461 450/450 459/459
f 453/453 462/462 463/463
f 463/463 458/458 453/453
f 464/464 458/458 465/465
f 466/466 467/467 468/468
f 467/467 469/469 468/468
f 470/470 471/471 472/472
f 455/455 454/454 473/473
f 454/454 472/472 473/473
f 474/474 475/475 476/476
f 477/477 478/478 479/479
f 474/474 480/480 475/475
f 474/474 477/477 481/481
f 453/453 479/479 478/478
f 479/479 482/482 477/477
f 481/481 480/480 474/474
f 450/450 483/483 474/474
f 482/482 481/481 477/477
f 474/474 484/484 450/450
f 476/476 484/484 474/474
f 485/485 486/486 487/487
f 487/487 488/488 485/485
f 487/487 489/489 488/488
f 485/485 490/490 491/491
f 491/491 486/486 485/485
f 452/452 492/492 493/493
f 492/492 494/494 493/493
f 492/492 495/495 494/494
f 453/453 452/452 496/496
f 452/452 497/497 496/496
f 453/453 498/498 499/499
f 496/496 500/500 453/453
f 500/500 498/498 453/453
f 501/501 502/502 503/503
f 504/504 505/505 506/506
f 501/501 507/507 502/502
f 508/508 503/503 504/504
f 506/506 508/508 504/504
f 503/503 508/508 501/501
f 509/509 506/506 505/505
f 509/509 510/510 511/511
f 505/505 512/512 509/509
f 470/470 513/513 514/514
f 511/511 466/466 509/509
f 501/501 471/471 507/507
f 470/470 515/515 513/513
f 512/512 510/510 509/509
f 514/514 471/471 470/470
f 514/514 507/507 471/471
f 516/516 517/517 518/518
f 518/518 519/519 516/516
f 519/519 520/520 516/516
f 485/485 521/521 522/522
f 485/485 523/523 521/521
f 490/490 485/485 524/524
f 450/450 525/525 526/526
f 527/527 484/484 490/490
f 439/439 450/450 528/528
f 526/526 529/529 450/450
f 484/484 530/530 525/525
f 524/524 527/527 490/490
f 450/450 531/531 528/528
f 525/525 450/450 484/484
f 527/527 532/532 484/484
f 450/450 533/533 531/531
f 532/532 530/530 484/484
f 529/529 533/533 450/450
f 439/439 534/534 535/535
f 535/535 435/435 439/439
f 492/492 452/452 536/536
f 452/452 451/451 537/537
f 538/538 451/451 539/539
f 492/492 540/540 541/541
f 492/492 542/542 543/543
f 452/452 544/544 536/536
f 537/537 545/545 452/452
f 539/539 546/546 538/538
f 547/547 548/548 549/549
f 550/550 551/551 552/552
f 551/551 541/541 553/553
f 492/492 554/554 540/540
f 536/536 542/542 492/492
f 538/538 537/537 451/451
f 546/546 539/539 547/547
f 555/555 549/549 548/548
f 551/551 556/556 552/552
f 541/541 551/551 492/492
f 545/545 544/544 452/452
f 548/548 550/550 555/555
f 553/553 556/556 551/551
f 549/549 546/546 547/547
f 543/543 554/554 492/492
f 551/551 557/557 558/558
f 551/551 550/550 557/557
f 559/559 560/560 561/561
f 562/562 563/563 564/564
f 561/561 565/565 559/559
f 560/560 566/566 567/567
f 568/568 569/569 563/563
f 568/568 570/570 571/571
f 564/564 566/566 562/562
f 567/567 561/561 560/560
f 571/571 569/569 568/568
f 565/565 572/572 559/559
f 564/564 567/567 566/566
f 551/551 573/573 574/574
f 574/574 575/575 551/551
f 575/575 576/576 551/551
f 574/574 573/573 570/570
f 570/570 568/568 574/574
f 577/577 578/578 579/579
f 492/492 551/551 580/580
f 581/581 582/582 583/583
f 551/551 584/584 585/585
f 584/584 551/551 577/577
f 551/551 581/581 580/580
f 581/581 551/551 582/582
f 579/579 584/584 577/577
f 580/580 586/586 492/492
f 585/585 582/582 551/551
f 583/583 587/587 581/581
f 588/588 589/589 590/590
f 590/590 591/591 588/588
f 592/592 593/593 594/594
f 591/591 592/592 588/588
f 594/594 595/595 592/592
f 591/591 596/596 592/592
f 495/495 492/492 597/597
f 596/596 593/593 592/592
f 492/492 598/598 597/597
f 597/597 595/595 495/495
f 599/599 590/590 589/589
f 600/600 601/601 602/602
f 602/602 603/603 600/600
f 604/604 605/605 601/601
f 601/601 600/600 604/604
f 604/604 488/488 606/606
f 606/606 605/605 604/604
f 485/485 488/488 607/607
f 608/608 607/607 609/609
f 607/607 610/610 523/523
f 609/609 516/516 608/608
f 608/608 610/610 607/607
f 611/611 612/612 613/613
f 614/614 615/615 517/517
f 516/516 616/616 617/617
f 435/435 618/618 611/611
f 611/611 618/618 612/612
f 619/619 620/620 621/621
f 617/617 517/517 516/516
f 614/614 619/619 622/622
f 613/613 620/620 611/611
f 620/620 613/613 621/621
f 622/622 615/615 614/614
f 611/611 623/623 435/435
f 517/517 617/617 614/614
f 621/621 622/622 619/619
f 623/623 624/624 435/435
f 430/430 435/435 625/625
f 626/626 627/627 628/628
f 629/629 630/630 631/631
f 435/435 632/632 625/625
f 632/632 435/435 626/626
f 631/631 633/633 629/629
f 628/628 632/632 626/626
f 625/625 630/630 430/430
f 634/634 635/635 636/636
f 635/635 637/637 638/638
f 430/430 639/639 640/640
f 638/638 636/636 635/635
f 640/640 641/641 430/430
f 642/642 641/641 643/643
f 637/637 644/644 638/638
f 430/430 645/645 639/639
f 644/644 646/646 642/642
f 637/637 647/647 644/644
f 430/430 648/648 645/645
f 647/647 646/646 644/644
f 430/430 629/629 648/648
f 640/640 643/643 641/641
f 641/641 649/649 650/650
f 649/649 641/641 651/651
f 431/431 430/430 652/652
f 651/651 653/653 649/649
f 430/430 654/654 652/652
f 650/650 430/430 641/641
f 652/652 655/655 431/431
f 650/650 656/656 430/430
f 656/656 654/654 430/430
f 459/459 657/657 658/658
f 658/658 659/659 459/459
f 659/659 660/660 459/459
f 660/660 661/661 459/459
f 459/459 662/662 657/657
f 661/661 663/663 459/459
f 459/459 664/664 665/665
f 663/663 666/666 459/459
f 666/666 664/664 459/459
f 459/459 667/667 662/662
f 431/431 668/668 667/667
f 667/667 459/459 431/431
f 459/459 669/669 670/670
f 671/671 670/670 669/669
f 672/672 673/673 674/674
f 455/455 675/675 676/676
f 669/669 677/677 671/671
f 671/671 677/677 672/672
f 676/676 678/678 455/455
f 674/674 671/671 672/672
f 675/675 674/674 673/673
f 675/675 679/679 676/676
f 673/673 679/679 675/675
f 670/670 460/460 459/459
f 455/455 680/680 681/681
f 456/456 681/681 682/682
f 683/683 684/684 685/685
f 686/686 687/687 688/688
f 687/687 683/683 689/689
f 690/690 691/691 692/692
f 682/682 690/690 456/456
f 684/684 692/692 685/685
f 689/689 688/688 687/687
f 682/682 691/691 690/690
f 688/688 693/693 686/686
f 685/685 689/689 683/683
f 456/456 694/694 695/695
f 456/456 696/696 697/697
f 698/698 699/699 696/696
f 700/700 695/695 701/701
f 456/456 702/702 694/694
f 456/456 703/703 704/704
f 696/696 699/699 697/697
f 705/705 706/706 698/698
f 705/705 707/707 708/708
f 709/709 700/700 705/705
f 700/700 710/710 711/711
f 695/695 700/700 456/456
f 697/697 703/703 456/456
f 708/708 706/706 705/705
f 712/712 713/713 714/714
f 700/700 715/715 716/716
f 705/705 717/717 709/709
f 701/701 710/710 700/700
f 696/696 705/705 698/698
f 700/700 718/718 707/707
f 714/714 719/719 712/712
f 709/709 715/715 700/700
f 704/704 702/702 456/456
f 700/700 720/720 718/718
f 716/716 713/713 700/700
f 707/707 705/705 700/700
f 711/711 720/720 700/700
f 456/456 721/721 696/696
f 456/456 690/690 721/721
f 722/722 700/700 723/723
f 700/700 724/724 723/723
f 700/700 712/712 725/725
f 725/725 724/724 700/700
f 722/722 726/726 727/727
f 727/727 728/728 722/722
f 722/722 729/729 726/726
f 722/722 730/730 729/729
f 722/722 731/731 732/732
f 722/722 733/733 730/730
f 731/731 734/734 732/732
f 735/735 736/736 737/737
f 732/732 733/733 722/722
f 738/738 737/737 739/739
f 735/735 740/740 736/736
f 731/731 741/741 734/734
f 742/742 739/739 741/741
f 737/737 738/738 735/735
f 741/741 731/731 742/742
f 740/740 743/743 736/736
f 722/722 744/744 731/731
f 728/728 745/745 722/722
f 746/746 743/743 740/740
f 747/747 748/748 749/749
f 746/746 750/750 747/747
f 466/466 751/751 752/752
f 753/753 754/754 755/755
f 752/752 753/753 466/466
f 752/752 754/754 753/753
f 756/756 757/757 758/758
f 755/755 757/757 753/753
f 757/757 755/755 758/758
f 759/759 760/760 761/761
f 758/758 762/762 756/756
f 763/763 748/748 759/759
f 760/760 756/756 762/762
f 753/753 764/764 466/466
f 762/762 761/761 760/760
f 764/764 765/765 466/466
f 761/761 763/763 759/759
f 763/763 749/749 748/748
f 766/766 767/767 768/768
f 768/768 769/769 770/770
f 771/771 772/772 766/766
f 772/772 771/771 773/773
f 770/770 774/774 768/768
f 467/467 775/775 769/769
f 466/466 776/776 777/777
f 776/776 778/778 779/779
f 773/773 780/780 772/772
f 769/769 768/768 467/467
f 467/467 781/781 782/782
f 466/466 783/783 784/784
f 779/779 777/777 776/776
f 785/785 786/786 776/776
f 774/774 771/771 768/768
f 782/782 787/787 467/467
f 466/466 788/788 781/781
f 777/777 783/783 466/466
f 789/789 780/780 773/773
f 776/776 790/790 785/785
f 787/787 775/775 467/467
f 784/784 788/788 466/466
f 785/785 789/789 786/786
f 781/781 467/467 466/466
f 773/773 786/786 789/789
f 786/786 778/778 776/776
f 791/791 792/792 793/793
f 793/793 794/794 795/795
f 795/795 796/796 793/793
f 794/794 797/797 795/795
f 797/797 798/798 799/799
f 794/794 800/800 797/797
f 801/801 802/802 803/803
f 800/800 798/798 797/797
f 803/803 804/804 801/801
f 805/805 467/467 806/806
f 799/799 802/802 797/797
f 806/806 801/801 805/805
f 467/467 807/807 808/808
f 804/804 805/805 801/801
f 467/467 768/768 807/807
f 808/808 806/806 467/467
f 809/809 810/810 811/811
f 812/812 813/813 814/814
f 809/809 815/815 810/810
f 812/812 811/811 813/813
f 464/464 816/816 817/817
f 469/469 467/467 818/818
f 811/811 812/812 809/809
f 817/817 814/814 464/464
f 467/467 805/805 818/818
f 814/814 817/817 812/812
f 818/818 819/819 469/469
f 819/819 815/815 469/469
f 457/457 464/464 820/820
f 464/464 814/814 821/821
f 464/464 822/822 820/820
f 821/821 823/823 464/464
f 823/823 822/822 464/464
f 457/457 824/824 825/825
f 825/825 826/826 457/457
f 457/457 827/827 824/824
f 451/451 457/457 828/828
f 828/828 829/829 451/451
f 829/829 830/830 451/451
f 454/454 831/831 832/832
f 700/700 833/833 831/831
f 700/700 722/722 834/834
f 831/831 454/454 700/700
f 834/834 835/835 700/700
f 835/835 833/833 700/700
f 836/836 837/837 838/838
f 836/836 515/515 839/839
f 745/745 840/840 838/838
f 839/839 837/837 836/836
f 745/745 841/841 842/842
f 838/838 840/840 836/836
f 515/515 843/843 844/844
f 515/515 470/470 845/845
f 470/470 846/846 847/847
f 745/745 848/848 841/841
f 844/844 839/839 515/515
f 847/847 845/845 470/470
f 722/722 842/842 849/849
f 838/838 848/848 745/745
f 470/470 832/832 846/846
f 849/849 850/850 722/722
f 845/845 843/843 515/515
f 842/842 722/722 745/745
f 850/850 834/834 722/722
f 832/832 470/470 454/454
f 830/830 539/539 451/451
f 826/826 828/828 457/457
f 820/820 827/827 457/457
f 809/809 469/469 815/815
f 799/799 803/803 802/802
f 793/793 796/796 791/791
f 768/768 771/771 766/766
f 765/765 776/776 466/466
f 749/749 746/746 747/747
f 740/740 750/750 746/746
f 739/739 742/742 738/738
f 723/723 744/744 722/722
f 712/712 700/700 713/713
f 692/692 684/684 690/690
f 681/681 456/456 455/455
f 678/678 680/680 455/455
f 665/665 669/669 459/459
f 655/655 668/668 431/431
f 643/643 644/644 642/642
f 636/636 851/851 634/634
f 629/629 430/430 630/630
f 624/624 626/626 435/435
f 616/616 516/516 609/609
f 607/607 523/523 485/485
f 607/607 488/488 604/604
f 602/602 599/599 603/603
f 589/589 603/603 599/599
f 594/594 495/495 595/595
f 586/586 598/598 492/492
f 576/576 577/577 551/551
f 563/563 562/562 568/568
f 572/572 565/565 852/852
f 558/558 573/573 551/551
f 552/552 555/555 550/550
f 535/535 618/618 435/435
f 528/528 534/534 439/439
f 522/522 524/524 485/485
f 520/520 608/608 516/516
f 511/511 751/751 466/466
f 499/499 479/479 453/453
f 493/493 497/497 452/452
f 489/489 606/606 488/488
f 478/478 462/462 453/453
f 473/473 675/675 455/455
f 472/472 454/454 470/470
f 468/468 509/509 466/466
f 465/465 816/816 464/464
f 463/463 465/465 458/458
f 461/461 483/483 450/450
f 458/458 464/464 457/457
f 456/456 700/700 454/454
f 453/453 458/458 451/451
f 431/431 459/459 450/450
f 447/447 431/431 439/439
f 853/853 854/854 855/855
f 856/856 857/857 855/855
f 855/855 854/854 856/856
f 858/858 859/859 860/860
f 860/860 861/861 858/858
f 853/853 862/862 858/858
f 858/858 861/861 853/853
f 863/863 864/864 861/861
f 856/856 854/854 865/865
f 866/866 867/867 865/865
f 865/865 854/854 866/866
f 865/865 868/868 856/856
f 861/861 869/869 863/863
f 860/860 869/869 861/861
f 855/855 862/862 853/853
f 870/870 871/871 872/872
f 872/872 873/873 870/870
f 872/872 874/874 875/875
f 872/872 875/875 873/873
f 876/876 877/877 878/878
f 878/878 879/879 876/876
f 880/880 881/881 882/882
f 883/883 884/884 880/880
f 882/882 883/883 880/880
f 882/882 885/885 883/883
f 886/886 887/887 888/888
f 888/888 889/889 886/886

