# https://github.com/mikedh/trimesh
mtllib material.mtl
usemtl 0.901961_0.901961_0.901961_0.000000_0.000000
v 0.08435623 0.14369382 0.00130000
v 0.08447041 0.14426784 0.00130000
v 0.08447041 0.14426784 0.00000000
v 0.08403108 0.14320719 0.00130000
v 0.08435623 0.14369382 0.00000000
v 0.08354444 0.14288203 0.00130000
v 0.08403108 0.14320719 0.00000000
v 0.08297042 0.14276785 0.00130000
v 0.08354444 0.14288203 0.00000000
v 0.08239639 0.14288203 0.00130000
v 0.08297042 0.14276785 0.00000000
v 0.08190975 0.14320719 0.00130000
v 0.08239639 0.14288203 0.00000000
v 0.08158460 0.14369382 0.00130000
v 0.08190975 0.14320719 0.00000000
v 0.08147041 0.14426784 0.00130000
v 0.08158460 0.14369382 0.00000000
v 0.08158460 0.14484188 0.00130000
v 0.08147041 0.14426784 0.00000000
v 0.08190975 0.14532851 0.00130000
v 0.08158460 0.14484188 0.00000000
v 0.08239639 0.14565367 0.00130000
v 0.08190975 0.14532851 0.00000000
v 0.08297042 0.14576785 0.00130000
v 0.08239639 0.14565367 0.00000000
v 0.08354444 0.14565367 0.00130000
v 0.08297042 0.14576785 0.00000000
v 0.08403108 0.14532851 0.00130000
v 0.08354444 0.14565367 0.00000000
v 0.08435623 0.14484188 0.00130000
v 0.08403108 0.14532851 0.00000000
v 0.08435623 0.14484188 0.00000000
v 0.09908599 0.06211298 0.00130000
v 0.09920017 0.06268700 0.00130000
v 0.09920017 0.06268700 0.00000000
v 0.09876083 0.06162634 0.00130000
v 0.09908599 0.06211298 0.00000000
v 0.09827419 0.06130118 0.00130000
v 0.09876083 0.06162634 0.00000000
v 0.09770017 0.06118700 0.00130000
v 0.09827419 0.06130118 0.00000000
v 0.09712614 0.06130118 0.00130000
v 0.09770017 0.06118700 0.00000000
v 0.09663951 0.06162634 0.00130000
v 0.09712614 0.06130118 0.00000000
v 0.09631435 0.06211298 0.00130000
v 0.09663951 0.06162634 0.00000000
v 0.09620017 0.06268700 0.00130000
v 0.09631435 0.06211298 0.00000000
v 0.09631435 0.06326102 0.00130000
v 0.09620017 0.06268700 0.00000000
v 0.09663951 0.06374766 0.00130000
v 0.09631435 0.06326102 0.00000000
v 0.09712614 0.06407282 0.00130000
v 0.09663951 0.06374766 0.00000000
v 0.09770017 0.06418700 0.00130000
v 0.09712614 0.06407282 0.00000000
v 0.09827419 0.06407282 0.00130000
v 0.09770017 0.06418700 0.00000000
v 0.09876083 0.06374766 0.00130000
v 0.09827419 0.06407282 0.00000000
v 0.09908599 0.06326102 0.00130000
v 0.09876083 0.06374766 0.00000000
v 0.09908599 0.06326102 0.00000000
v 0.09108584 0.02842592 0.00130000
v 0.09120002 0.02899994 0.00130000
v 0.09120002 0.02899994 0.00000000
v 0.09076068 0.02793928 0.00130000
v 0.09108584 0.02842592 0.00000000
v 0.09027404 0.02761412 0.00130000
v 0.09076068 0.02793928 0.00000000
v 0.08970002 0.02749994 0.00130000
v 0.09027404 0.02761412 0.00000000
v 0.08912599 0.02761412 0.00130000
v 0.08970002 0.02749994 0.00000000
v 0.08863936 0.02793928 0.00130000
v 0.08912599 0.02761412 0.00000000
v 0.08831420 0.02842592 0.00130000
v 0.08863936 0.02793928 0.00000000
v 0.08820002 0.02899994 0.00130000
v 0.08831420 0.02842592 0.00000000
v 0.08831420 0.02957397 0.00130000
v 0.08820002 0.02899994 0.00000000
v 0.08863936 0.03006060 0.00130000
v 0.08831420 0.02957397 0.00000000
v 0.08912599 0.03038576 0.00130000
v 0.08863936 0.03006060 0.00000000
v 0.08970002 0.03049994 0.00130000
v 0.08912599 0.03038576 0.00000000
v 0.09027404 0.03038576 0.00130000
v 0.08970002 0.03049994 0.00000000
v 0.09076068 0.03006060 0.00130000
v 0.09027404 0.03038576 0.00000000
v 0.09108584 0.02957397 0.00130000
v 0.09076068 0.03006060 0.00000000
v 0.09108584 0.02957397 0.00000000
v 0.10708584 0.02842585 0.00130000
v 0.10720002 0.02899987 0.00130000
v 0.10720002 0.02899987 0.00000000
v 0.10676068 0.02793921 0.00130000
v 0.10708584 0.02842585 0.00000000
v 0.10627405 0.02761405 0.00130000
v 0.10676068 0.02793921 0.00000000
v 0.10570002 0.02749987 0.00130000
v 0.10627405 0.02761405 0.00000000
v 0.10512599 0.02761405 0.00130000
v 0.10570002 0.02749987 0.00000000
v 0.10463936 0.02793921 0.00130000
v 0.10512599 0.02761405 0.00000000
v 0.10431420 0.02842585 0.00130000
v 0.10463936 0.02793921 0.00000000
v 0.10420002 0.02899987 0.00130000
v 0.10431420 0.02842585 0.00000000
v 0.10431420 0.02957390 0.00130000
v 0.10420002 0.02899987 0.00000000
v 0.10463936 0.03006053 0.00130000
v 0.10431420 0.02957390 0.00000000
v 0.10512599 0.03038569 0.00130000
v 0.10463936 0.03006053 0.00000000
v 0.10570002 0.03049987 0.00130000
v 0.10512599 0.03038569 0.00000000
v 0.10627405 0.03038569 0.00130000
v 0.10570002 0.03049987 0.00000000
v 0.10676068 0.03006053 0.00130000
v 0.10627405 0.03038569 0.00000000
v 0.10708584 0.02957390 0.00130000
v 0.10676068 0.03006053 0.00000000
v 0.10708584 0.02957390 0.00000000
v 0.08354444 0.14288203 0.00000000
v 0.10845747 0.06219221 -0.00000000
v 0.08957888 0.12201048 -0.00000000
v 0.09380637 0.10469431 -0.00000000
v 0.09908599 0.06326102 0.00000000
v 0.09876083 0.06374766 0.00000000
v 0.09076068 0.03006060 0.00000000
v 0.09027404 0.03038576 0.00000000
v 0.10632122 0.06045489 -0.00000000
v 0.09920017 0.06268700 0.00000000
v 0.10651494 0.06171621 -0.00000000
v 0.08435623 0.14369382 0.00000000
v 0.08447041 0.14426784 0.00000000
v 0.08297042 0.14276785 0.00000000
v 0.08020968 0.13717423 -0.00000000
v 0.10612249 0.06063687 -0.00000000
v 0.10657447 0.06036280 -0.00000000
v 0.10570002 0.03049987 0.00000000
v 0.09108584 0.02957397 0.00000000
v 0.10600853 0.06088106 -0.00000000
v 0.09876083 0.06162634 0.00000000
v 0.09908599 0.06211298 0.00000000
v 0.10608877 0.06140351 -0.00000000
v 0.10599669 0.06115026 -0.00000000
v 0.10627075 0.06160225 -0.00000000
v 0.07900000 0.15000001 -0.00000000
v 0.08158460 0.14484188 0.00000000
v 0.08147041 0.14426784 0.00000000
v 0.08239639 0.14565367 0.00000000
v 0.08190975 0.14532851 0.00000000
v 0.08694083 0.15000001 -0.00000000
v 0.08297042 0.14576785 0.00000000
v 0.08435623 0.14484188 0.00000000
v 0.08403108 0.14532851 0.00000000
v 0.08239639 0.14288203 0.00000000
v 0.08863936 0.03006060 0.00000000
v 0.08831420 0.02957397 0.00000000
v 0.08970002 0.03049994 0.00000000
v 0.08912599 0.03038576 0.00000000
v 0.10627405 0.03038569 0.00000000
v 0.10431420 0.02842585 0.00000000
v 0.08500000 0.02500000 -0.00000000
v 0.08970002 0.02749994 0.00000000
v 0.09663951 0.06374766 0.00000000
v 0.09631435 0.06326102 0.00000000
v 0.08500000 0.06782858 -0.00000000
v 0.08354444 0.14565367 0.00000000
v 0.08403108 0.14320719 0.00000000
v 0.07931216 0.13869612 -0.00000000
v 0.07900000 0.14043513 -0.00000000
v 0.09120002 0.02899994 0.00000000
v 0.09827419 0.06130118 0.00000000
v 0.09631435 0.06211298 0.00000000
v 0.08912599 0.02761412 0.00000000
v 0.08518487 0.06917562 -0.00000000
v 0.09247873 0.08691909 -0.00000000
v 0.09712614 0.06407282 0.00000000
v 0.09827419 0.06407282 0.00000000
v 0.10676068 0.03006053 0.00000000
v 0.09712614 0.06130118 0.00000000
v 0.09770017 0.06118700 0.00000000
v 0.09620017 0.06268700 0.00000000
v 0.10431420 0.02957390 0.00000000
v 0.10420002 0.02899987 0.00000000
v 0.09027404 0.02761412 0.00000000
v 0.10684368 0.06037465 -0.00000000
v 0.10878621 0.06085065 -0.00000000
v 0.11040000 0.05426489 -0.00000000
v 0.11040000 0.02499989 -0.00000000
v 0.10720002 0.02899987 0.00000000
v 0.10512599 0.02761405 0.00000000
v 0.10570002 0.02749987 0.00000000
v 0.08572581 0.07042305 -0.00000000
v 0.08158460 0.14369382 0.00000000
v 0.08190975 0.14320719 0.00000000
v 0.10708584 0.02957390 0.00000000
v 0.09663951 0.06162634 0.00000000
v 0.10463936 0.03006053 0.00000000
v 0.09076068 0.02793928 0.00000000
v 0.10627405 0.02761405 0.00000000
v 0.10676068 0.02793921 0.00000000
v 0.10463936 0.02793921 0.00000000
v 0.08863936 0.02793928 0.00000000
v 0.09770017 0.06418700 0.00000000
v 0.09108584 0.02842592 0.00000000
v 0.10512599 0.03038569 0.00000000
v 0.10708584 0.02842585 0.00000000
v 0.08820002 0.02899994 0.00000000
v 0.08831420 0.02842592 0.00000000
v 0.08354444 0.14288203 0.00130000
v 0.08297042 0.14276785 0.00130000
v 0.08957888 0.12201048 0.00130000
v 0.10845747 0.06219221 0.00130000
v 0.09380637 0.10469431 0.00130000
v 0.09876083 0.06374766 0.00130000
v 0.07900000 0.15000001 0.00130000
v 0.07900000 0.14043513 0.00130000
v 0.08147041 0.14426784 0.00130000
v 0.08239639 0.14288203 0.00130000
v 0.08190975 0.14320719 0.00130000
v 0.08020968 0.13717423 0.00130000
v 0.08694083 0.15000001 0.00130000
v 0.08354444 0.14565367 0.00130000
v 0.08403108 0.14532851 0.00130000
v 0.08239639 0.14565367 0.00130000
v 0.08297042 0.14576785 0.00130000
v 0.08158460 0.14484188 0.00130000
v 0.08190975 0.14532851 0.00130000
v 0.08158460 0.14369382 0.00130000
v 0.07931216 0.13869612 0.00130000
v 0.09908599 0.06326102 0.00130000
v 0.08500000 0.02500000 0.00130000
v 0.09663951 0.06162634 0.00130000
v 0.09631435 0.06211298 0.00130000
v 0.09120002 0.02899994 0.00130000
v 0.10431420 0.02842585 0.00130000
v 0.10420002 0.02899987 0.00130000
v 0.10657447 0.06036280 0.00130000
v 0.09076068 0.03006060 0.00130000
v 0.09108584 0.02957397 0.00130000
v 0.10632122 0.06045489 0.00130000
v 0.08435623 0.14484188 0.00130000
v 0.09827419 0.06407282 0.00130000
v 0.09663951 0.06374766 0.00130000
v 0.08518487 0.06917562 0.00130000
v 0.08500000 0.06782858 0.00130000
v 0.09920017 0.06268700 0.00130000
v 0.10627075 0.06160225 0.00130000
v 0.10651494 0.06171621 0.00130000
v 0.09027404 0.03038576 0.00130000
v 0.09247873 0.08691909 0.00130000
v 0.08572581 0.07042305 0.00130000
v 0.09712614 0.06130118 0.00130000
v 0.09827419 0.06130118 0.00130000
v 0.09770017 0.06118700 0.00130000
v 0.10608877 0.06140351 0.00130000
v 0.09908599 0.06211298 0.00130000
v 0.10599669 0.06115026 0.00130000
v 0.10600853 0.06088106 0.00130000
v 0.10463936 0.02793921 0.00130000
v 0.10570002 0.02749987 0.00130000
v 0.10512599 0.02761405 0.00130000
v 0.10612249 0.06063687 0.00130000
v 0.08970002 0.03049994 0.00130000
v 0.08863936 0.03006060 0.00130000
v 0.08912599 0.03038576 0.00130000
v 0.09108584 0.02842592 0.00130000
v 0.11040000 0.02499989 0.00130000
v 0.09770017 0.06418700 0.00130000
v 0.08435623 0.14369382 0.00130000
v 0.08403108 0.14320719 0.00130000
v 0.08447041 0.14426784 0.00130000
v 0.09631435 0.06326102 0.00130000
v 0.09876083 0.06162634 0.00130000
v 0.08831420 0.02957397 0.00130000
v 0.09027404 0.02761412 0.00130000
v 0.08970002 0.02749994 0.00130000
v 0.09076068 0.02793928 0.00130000
v 0.10627405 0.02761405 0.00130000
v 0.10708584 0.02842585 0.00130000
v 0.10676068 0.02793921 0.00130000
v 0.10684368 0.06037465 0.00130000
v 0.10570002 0.03049987 0.00130000
v 0.10627405 0.03038569 0.00130000
v 0.11040000 0.05426489 0.00130000
v 0.09712614 0.06407282 0.00130000
v 0.08820002 0.02899994 0.00130000
v 0.10878621 0.06085065 0.00130000
v 0.09620017 0.06268700 0.00130000
v 0.08863936 0.02793928 0.00130000
v 0.08831420 0.02842592 0.00130000
v 0.08912599 0.02761412 0.00130000
v 0.10708584 0.02957390 0.00130000
v 0.10463936 0.03006053 0.00130000
v 0.10512599 0.03038569 0.00130000
v 0.10720002 0.02899987 0.00130000
v 0.10676068 0.03006053 0.00130000
v 0.10431420 0.02957390 0.00130000
v 0.10878621 0.06085065 0.00130000
v 0.10878621 0.06085065 -0.00000000
v 0.10684368 0.06037465 -0.00000000
v 0.10684368 0.06037465 0.00130000
v 0.10627075 0.06160225 -0.00000000
v 0.10651494 0.06171621 -0.00000000
v 0.10651494 0.06171621 0.00130000
v 0.10608877 0.06140351 -0.00000000
v 0.10627075 0.06160225 0.00130000
v 0.10599669 0.06115026 -0.00000000
v 0.10608877 0.06140351 0.00130000
v 0.10600853 0.06088106 -0.00000000
v 0.10599669 0.06115026 0.00130000
v 0.10612249 0.06063687 -0.00000000
v 0.10600853 0.06088106 0.00130000
v 0.10632122 0.06045489 -0.00000000
v 0.10612249 0.06063687 0.00130000
v 0.10657447 0.06036280 -0.00000000
v 0.10632122 0.06045489 0.00130000
v 0.10684368 0.06037465 -0.00000000
v 0.10657447 0.06036280 0.00130000
v 0.10684368 0.06037465 0.00130000
v 0.10845747 0.06219221 -0.00000000
v 0.10845747 0.06219221 0.00130000
v 0.10651494 0.06171621 0.00130000
v 0.10651494 0.06171621 -0.00000000
v 0.10878621 0.06085065 0.00130000
v 0.11040000 0.05426489 0.00130000
v 0.11040000 0.05426489 -0.00000000
v 0.10878621 0.06085065 -0.00000000
v 0.11040000 0.05426489 0.00130000
v 0.11040000 0.02499989 0.00130000
v 0.11040000 0.02499989 -0.00000000
v 0.11040000 0.05426489 -0.00000000
v 0.08500000 0.02500000 0.00130000
v 0.08500000 0.02500000 -0.00000000
v 0.11040000 0.02499989 -0.00000000
v 0.11040000 0.02499989 0.00130000
v 0.08500000 0.02500000 -0.00000000
v 0.08500000 0.02500000 0.00130000
v 0.08500000 0.06782858 0.00130000
v 0.08500000 0.06782858 -0.00000000
v 0.08572581 0.07042305 0.00130000
v 0.08572581 0.07042305 -0.00000000
v 0.08518487 0.06917562 -0.00000000
v 0.08518487 0.06917562 0.00130000
v 0.08500000 0.06782858 -0.00000000
v 0.08500000 0.06782858 0.00130000
v 0.08957888 0.12201048 0.00130000
v 0.08020968 0.13717423 0.00130000
v 0.08020968 0.13717423 -0.00000000
v 0.09380637 0.10469431 0.00130000
v 0.08957888 0.12201048 -0.00000000
v 0.09247873 0.08691909 0.00130000
v 0.09380637 0.10469431 -0.00000000
v 0.08572581 0.07042305 0.00130000
v 0.09247873 0.08691909 -0.00000000
v 0.08572581 0.07042305 -0.00000000
v 0.07900000 0.14043513 0.00130000
v 0.07900000 0.14043513 -0.00000000
v 0.07931216 0.13869612 -0.00000000
v 0.07931216 0.13869612 0.00130000
v 0.08020968 0.13717423 -0.00000000
v 0.08020968 0.13717423 0.00130000
v 0.07900000 0.15000001 0.00130000
v 0.07900000 0.15000001 -0.00000000
v 0.07900000 0.14043513 -0.00000000
v 0.07900000 0.14043513 0.00130000
v 0.07900000 0.15000001 0.00130000
v 0.08694083 0.15000001 0.00130000
v 0.08694083 0.15000001 -0.00000000
v 0.07900000 0.15000001 -0.00000000
v 0.11040000 0.06266821 0.00330000
v 0.08900000 0.15000001 0.00330000
v 0.08891112 0.14996785 0.00277640
v 0.11004675 0.06258165 0.00214999
v 0.08888192 0.14995730 0.00260445
v 0.08866445 0.14994578 0.00224344
v 0.11033116 0.06265134 0.00277225
v 0.08890498 0.14996563 0.00274022
v 0.10957444 0.06246591 0.00166370
v 0.08851115 0.14993767 0.00198897
v 0.08831141 0.14994071 0.00183578
v 0.08861621 0.14994323 0.00216337
v 0.10897005 0.06231781 0.00137089
v 0.08791286 0.14994676 0.00153013
v 0.08784939 0.14995001 0.00151203
v 0.08811881 0.14994363 0.00168808
v 0.10845747 0.06219221 0.00130000
v 0.08748081 0.14996889 0.00140692
v 0.08730569 0.14997786 0.00135698
v 0.08713660 0.14998654 0.00130876
v 0.08694083 0.15000001 0.00130000
v 0.10845747 0.06219221 -0.00000000
v 0.08752909 0.15003221 0.00009961
v 0.08781989 0.15004814 0.00014885
v 0.08694083 0.15000001 -0.00000000
v 0.11030046 0.06264382 0.00060011
v 0.08806139 0.15006137 0.00018974
v 0.08837944 0.15008484 0.00037351
v 0.10930323 0.06239945 0.00011696
v 0.08936211 0.15016124 0.00102458
v 0.08962443 0.15019281 0.00143300
v 0.08913840 0.15014085 0.00081204
v 0.08917207 0.15014392 0.00084402
v 0.08884114 0.15011892 0.00064028
v 0.11154904 0.06294978 0.00242922
v 0.11107978 0.06283478 0.00140248
v 0.09003549 0.15024228 0.00207298
v 0.09009217 0.15025903 0.00237918
v 0.08970710 0.15020275 0.00156170
v 0.11166264 0.06297761 0.00330000
v 0.09010319 0.15026228 0.00243869
v 0.09026264 0.15030940 0.00330000
v 0.10845747 0.06219221 -0.00000000
v 0.10930323 0.06239945 0.00011696
v 0.10897005 0.06231781 0.00137089
v 0.11030046 0.06264382 0.00060011
v 0.10957444 0.06246591 0.00166370
v 0.11107978 0.06283478 0.00140248
v 0.11004675 0.06258165 0.00214999
v 0.11154904 0.06294978 0.00242922
v 0.11033116 0.06265134 0.00277225
v 0.11166264 0.06297761 0.00330000
v 0.11040000 0.06266821 0.00330000
v 0.10845747 0.06219221 0.00130000
v 0.09010319 0.15026228 0.00243869
v 0.08891112 0.14996785 0.00277640
v 0.08900000 0.15000001 0.00330000
v 0.08890498 0.14996563 0.00274022
v 0.09026264 0.15030940 0.00330000
v 0.09009217 0.15025903 0.00237918
v 0.09003549 0.15024228 0.00207298
v 0.08888192 0.14995730 0.00260445
v 0.08970710 0.15020275 0.00156170
v 0.08866445 0.14994578 0.00224344
v 0.08962443 0.15019281 0.00143300
v 0.08936211 0.15016124 0.00102458
v 0.08851115 0.14993767 0.00198897
v 0.08861621 0.14994323 0.00216337
v 0.08917207 0.15014392 0.00084402
v 0.08831141 0.14994071 0.00183578
v 0.08913840 0.15014085 0.00081204
v 0.08884114 0.15011892 0.00064028
v 0.08837944 0.15008484 0.00037351
v 0.08791286 0.14994676 0.00153013
v 0.08811881 0.14994363 0.00168808
v 0.08784939 0.14995001 0.00151203
v 0.08806139 0.15006137 0.00018974
v 0.08748081 0.14996889 0.00140692
v 0.08781989 0.15004814 0.00014885
v 0.08752909 0.15003221 0.00009961
v 0.08730569 0.14997786 0.00135698
v 0.08694083 0.15000001 -0.00000000
v 0.08694083 0.15000001 0.00130000
v 0.08713660 0.14998654 0.00130876
v 0.09026264 0.15030940 0.00330000
v 0.10252157 0.10028166 0.01261418
v 0.10265818 0.09972413 0.01250000
v 0.09026264 0.15030940 0.02470000
v 0.11166264 0.06297761 0.02470000
v 0.10265818 0.09972413 0.01550000
v 0.11166264 0.06297761 0.00330000
v 0.10298801 0.09837813 0.01342598
v 0.10301518 0.09826723 0.01400000
v 0.10240575 0.10075431 0.01293934
v 0.10252157 0.10028166 0.01538582
v 0.10291062 0.09869394 0.01506066
v 0.10279480 0.09916660 0.01538582
v 0.10298801 0.09837813 0.01457402
v 0.10291062 0.09869394 0.01293934
v 0.10240575 0.10075431 0.01506066
v 0.10232836 0.10107013 0.01457402
v 0.10279480 0.09916660 0.01261418
v 0.10230119 0.10118103 0.01400000
v 0.10232836 0.10107013 0.01342598
v 0.10232836 0.10107013 0.01342598
v 0.10230119 0.10118103 0.01400000
v 0.10103854 0.10087162 0.01400000
v 0.10240575 0.10075431 0.01293934
v 0.10106572 0.10076073 0.01342598
v 0.10252157 0.10028166 0.01261418
v 0.10114311 0.10044491 0.01293934
v 0.10265818 0.09972413 0.01250000
v 0.10125893 0.09997226 0.01261418
v 0.10279480 0.09916660 0.01261418
v 0.10139554 0.09941473 0.01250000
v 0.10291062 0.09869394 0.01293934
v 0.10153216 0.09885719 0.01261418
v 0.10298801 0.09837813 0.01342598
v 0.10164798 0.09838454 0.01293934
v 0.10301518 0.09826723 0.01400000
v 0.10172537 0.09806873 0.01342598
v 0.10298801 0.09837813 0.01457402
v 0.10175254 0.09795783 0.01400000
v 0.10291062 0.09869394 0.01506066
v 0.10172537 0.09806873 0.01457402
v 0.10279480 0.09916660 0.01538582
v 0.10164798 0.09838454 0.01506066
v 0.10265818 0.09972413 0.01550000
v 0.10153216 0.09885719 0.01538582
v 0.10252157 0.10028166 0.01538582
v 0.10139554 0.09941473 0.01550000
v 0.10240575 0.10075431 0.01506066
v 0.10125893 0.09997226 0.01538582
v 0.10232836 0.10107013 0.01457402
v 0.10114311 0.10044491 0.01506066
v 0.10106572 0.10076073 0.01457402
v 0.08900000 0.15000001 0.00330000
v 0.11040000 0.06266821 0.00330000
v 0.10139554 0.09941473 0.01250000
v 0.08900000 0.15000001 0.02470000
v 0.10125893 0.09997226 0.01538582
v 0.10139554 0.09941473 0.01550000
v 0.10125893 0.09997226 0.01261418
v 0.11040000 0.06266821 0.02470000
v 0.10153216 0.09885719 0.01538582
v 0.10114311 0.10044491 0.01506066
v 0.10153216 0.09885719 0.01261418
v 0.10175254 0.09795783 0.01400000
v 0.10164798 0.09838454 0.01506066
v 0.10172537 0.09806873 0.01457402
v 0.10106572 0.10076073 0.01342598
v 0.10103854 0.10087162 0.01400000
v 0.10164798 0.09838454 0.01293934
v 0.10172537 0.09806873 0.01342598
v 0.10106572 0.10076073 0.01457402
v 0.10114311 0.10044491 0.01293934
v 0.11040000 0.06266821 0.02470000
v 0.11040000 0.06266821 0.00330000
v 0.11166264 0.06297761 0.00330000
v 0.11166264 0.06297761 0.02470000
v 0.08900000 0.15000001 0.00330000
v 0.08900000 0.15000001 0.02470000
v 0.09026264 0.15030940 0.02470000
v 0.09026264 0.15030940 0.00330000
v 0.10845747 0.06219221 0.02670000
v 0.08694083 0.15000001 0.02670000
v 0.08748741 0.14996754 0.02660430
v 0.10957444 0.06246591 0.02633630
v 0.08768061 0.14995606 0.02657047
v 0.08801357 0.14994657 0.02637441
v 0.10897005 0.06231781 0.02662911
v 0.08751208 0.14996608 0.02659998
v 0.11004675 0.06258165 0.02585001
v 0.08833601 0.14993736 0.02618456
v 0.08845927 0.14994030 0.02602758
v 0.08812237 0.14994346 0.02631035
v 0.11033116 0.06265134 0.02522775
v 0.08878732 0.14994811 0.02560980
v 0.08880125 0.14995052 0.02556349
v 0.08861367 0.14994396 0.02583095
v 0.08890488 0.14996850 0.02521892
v 0.08895911 0.14997792 0.02503860
v 0.11040000 0.06266821 0.02470000
v 0.08898956 0.14998321 0.02493733
v 0.08900000 0.15000001 0.02470000
v 0.11166264 0.06297761 0.02470000
v 0.09020236 0.15028059 0.02526469
v 0.09018227 0.15027098 0.02545280
v 0.09026264 0.15030940 0.02470000
v 0.11154904 0.06294978 0.02557078
v 0.11107978 0.06283478 0.02659752
v 0.09013426 0.15026361 0.02556257
v 0.08989646 0.15022708 0.02610628
v 0.08969642 0.15019636 0.02656363
v 0.11030046 0.06264382 0.02739989
v 0.08966934 0.15019365 0.02659427
v 0.08939727 0.15016642 0.02690207
v 0.08916555 0.15014324 0.02716424
v 0.10930323 0.06239945 0.02788304
v 0.08810162 0.15006395 0.02779586
v 0.08785723 0.15005049 0.02783884
v 0.08883936 0.15011893 0.02735789
v 0.08866193 0.15010570 0.02746322
v 0.10845747 0.06219221 0.02800000
v 0.08781860 0.15004836 0.02784563
v 0.08694083 0.15000001 0.02800000
v 0.11166264 0.06297761 0.02470000
v 0.11154904 0.06294978 0.02557078
v 0.11033116 0.06265134 0.02522775
v 0.11107978 0.06283478 0.02659752
v 0.11004675 0.06258165 0.02585001
v 0.11030046 0.06264382 0.02739989
v 0.10957444 0.06246591 0.02633630
v 0.10930323 0.06239945 0.02788304
v 0.10897005 0.06231781 0.02662911
v 0.10845747 0.06219221 0.02800000
v 0.10845747 0.06219221 0.02670000
v 0.11040000 0.06266821 0.02470000
v 0.08781860 0.15004836 0.02784563
v 0.08748741 0.14996754 0.02660430
v 0.08694083 0.15000001 0.02670000
v 0.08785723 0.15005049 0.02783884
v 0.08751208 0.14996608 0.02659998
v 0.08810162 0.15006395 0.02779586
v 0.08768061 0.14995606 0.02657047
v 0.08866193 0.15010570 0.02746322
v 0.08801357 0.14994657 0.02637441
v 0.08883936 0.15011893 0.02735789
v 0.08812237 0.14994346 0.02631035
v 0.08916555 0.15014324 0.02716424
v 0.08833601 0.14993736 0.02618456
v 0.08939727 0.15016642 0.02690207
v 0.08845927 0.14994030 0.02602758
v 0.08878732 0.14994811 0.02560980
v 0.08966934 0.15019365 0.02659427
v 0.08969642 0.15019636 0.02656363
v 0.08861367 0.14994396 0.02583095
v 0.08989646 0.15022708 0.02610628
v 0.08880125 0.14995052 0.02556349
v 0.08895911 0.14997792 0.02503860
v 0.09013426 0.15026361 0.02556257
v 0.09018227 0.15027098 0.02545280
v 0.08890488 0.14996850 0.02521892
v 0.09026264 0.15030940 0.02470000
v 0.08900000 0.15000001 0.02470000
v 0.08898956 0.14998321 0.02493733
v 0.09020236 0.15028059 0.02526469
v 0.08694083 0.15000001 0.02800000
v 0.10651494 0.06171621 0.02670000
v 0.10845747 0.06219221 0.02670000
v 0.10845747 0.06219221 0.02800000
v 0.10651494 0.06171621 0.02800000
v 0.07900000 0.15000001 0.02800000
v 0.08694083 0.15000001 0.02800000
v 0.08694083 0.15000001 0.02670000
v 0.07900000 0.15000001 0.02670000
v 0.08354444 0.14288203 0.02800000
v 0.08297042 0.14276785 0.02800000
v 0.08957888 0.12201048 0.02800000
v 0.10845747 0.06219221 0.02800000
v 0.09380637 0.10469431 0.02800000
v 0.09876083 0.06374766 0.02800000
v 0.10684368 0.06037465 0.02800000
v 0.10657447 0.06036280 0.02800000
v 0.10570002 0.03049987 0.02800000
v 0.10627405 0.03038569 0.02800000
v 0.11040000 0.05426489 0.02800000
v 0.10632122 0.06045489 0.02800000
v 0.08970002 0.03049994 0.02800000
v 0.10463936 0.03006053 0.02800000
v 0.07900000 0.15000001 0.02800000
v 0.07900000 0.14043513 0.02800000
v 0.08147041 0.14426784 0.02800000
v 0.08239639 0.14288203 0.02800000
v 0.08190975 0.14320719 0.02800000
v 0.08020968 0.13717423 0.02800000
v 0.10878621 0.06085065 0.02800000
v 0.08912599 0.03038576 0.02800000
v 0.08694083 0.15000001 0.02800000
v 0.08354444 0.14565367 0.02800000
v 0.08403108 0.14532851 0.02800000
v 0.08297042 0.14576785 0.02800000
v 0.08158460 0.14484188 0.02800000
v 0.08190975 0.14532851 0.02800000
v 0.08158460 0.14369382 0.02800000
v 0.07931216 0.13869612 0.02800000
v 0.09908599 0.06326102 0.02800000
v 0.10512599 0.03038569 0.02800000
v 0.08435623 0.14484188 0.02800000
v 0.08239639 0.14565367 0.02800000
v 0.09827419 0.06407282 0.02800000
v 0.09663951 0.06374766 0.02800000
v 0.08518487 0.06917562 0.02800000
v 0.08500000 0.06782858 0.02800000
v 0.08863936 0.03006060 0.02800000
v 0.09247873 0.08691909 0.02800000
v 0.08572581 0.07042305 0.02800000
v 0.08500000 0.02500000 0.02800000
v 0.09663951 0.06162634 0.02800000
v 0.09631435 0.06211298 0.02800000
v 0.10612249 0.06063687 0.02800000
v 0.08831420 0.02957397 0.02800000
v 0.09120002 0.02899994 0.02800000
v 0.10431420 0.02842585 0.02800000
v 0.10420002 0.02899987 0.02800000
v 0.09108584 0.02842592 0.02800000
v 0.11040000 0.02499989 0.02800000
v 0.10570002 0.02749987 0.02800000
v 0.09770017 0.06418700 0.02800000
v 0.08435623 0.14369382 0.02800000
v 0.08403108 0.14320719 0.02800000
v 0.08447041 0.14426784 0.02800000
v 0.09631435 0.06326102 0.02800000
v 0.09908599 0.06211298 0.02800000
v 0.10600853 0.06088106 0.02800000
v 0.10599669 0.06115026 0.02800000
v 0.09770017 0.06118700 0.02800000
v 0.10708584 0.02957390 0.02800000
v 0.10676068 0.03006053 0.02800000
v 0.08820002 0.02899994 0.02800000
v 0.09076068 0.03006060 0.02800000
v 0.09108584 0.02957397 0.02800000
v 0.09027404 0.02761412 0.02800000
v 0.08970002 0.02749994 0.02800000
v 0.09076068 0.02793928 0.02800000
v 0.10627405 0.02761405 0.02800000
v 0.10708584 0.02842585 0.02800000
v 0.10676068 0.02793921 0.02800000
v 0.09920017 0.06268700 0.02800000
v 0.09712614 0.06407282 0.02800000
v 0.09876083 0.06162634 0.02800000
v 0.09827419 0.06130118 0.02800000
v 0.09712614 0.06130118 0.02800000
v 0.10463936 0.02793921 0.02800000
v 0.10512599 0.02761405 0.02800000
v 0.09620017 0.06268700 0.02800000
v 0.10431420 0.02957390 0.02800000
v 0.09027404 0.03038576 0.02800000
v 0.08863936 0.02793928 0.02800000
v 0.08831420 0.02842592 0.02800000
v 0.08912599 0.02761412 0.02800000
v 0.10720002 0.02899987 0.02800000
v 0.10608877 0.06140351 0.02800000
v 0.10627075 0.06160225 0.02800000
v 0.10651494 0.06171621 0.02800000
v 0.08435623 0.14369382 0.02800000
v 0.08447041 0.14426784 0.02800000
v 0.08447041 0.14426784 0.02670000
v 0.08403108 0.14320719 0.02800000
v 0.08435623 0.14369382 0.02670000
v 0.08354444 0.14288203 0.02800000
v 0.08403108 0.14320719 0.02670000
v 0.08297042 0.14276785 0.02800000
v 0.08354444 0.14288203 0.02670000
v 0.08239639 0.14288203 0.02800000
v 0.08297042 0.14276785 0.02670000
v 0.08190975 0.14320719 0.02800000
v 0.08239639 0.14288203 0.02670000
v 0.08158460 0.14369382 0.02800000
v 0.08190975 0.14320719 0.02670000
v 0.08147041 0.14426784 0.02800000
v 0.08158460 0.14369382 0.02670000
v 0.08158460 0.14484188 0.02800000
v 0.08147041 0.14426784 0.02670000
v 0.08190975 0.14532851 0.02800000
v 0.08158460 0.14484188 0.02670000
v 0.08239639 0.14565367 0.02800000
v 0.08190975 0.14532851 0.02670000
v 0.08297042 0.14576785 0.02800000
v 0.08239639 0.14565367 0.02670000
v 0.08354444 0.14565367 0.02800000
v 0.08297042 0.14576785 0.02670000
v 0.08403108 0.14532851 0.02800000
v 0.08354444 0.14565367 0.02670000
v 0.08435623 0.14484188 0.02800000
v 0.08403108 0.14532851 0.02670000
v 0.08435623 0.14484188 0.02670000
v 0.09108584 0.02842592 0.02800000
v 0.09120002 0.02899994 0.02800000
v 0.09120002 0.02899994 0.02670000
v 0.09076068 0.02793928 0.02800000
v 0.09108584 0.02842592 0.02670000
v 0.09027404 0.02761412 0.02800000
v 0.09076068 0.02793928 0.02670000
v 0.08970002 0.02749994 0.02800000
v 0.09027404 0.02761412 0.02670000
v 0.08912599 0.02761412 0.02800000
v 0.08970002 0.02749994 0.02670000
v 0.08863936 0.02793928 0.02800000
v 0.08912599 0.02761412 0.02670000
v 0.08831420 0.02842592 0.02800000
v 0.08863936 0.02793928 0.02670000
v 0.08820002 0.02899994 0.02800000
v 0.08831420 0.02842592 0.02670000
v 0.08831420 0.02957397 0.02800000
v 0.08820002 0.02899994 0.02670000
v 0.08863936 0.03006060 0.02800000
v 0.08831420 0.02957397 0.02670000
v 0.08912599 0.03038576 0.02800000
v 0.08863936 0.03006060 0.02670000
v 0.08970002 0.03049994 0.02800000
v 0.08912599 0.03038576 0.02670000
v 0.09027404 0.03038576 0.02800000
v 0.08970002 0.03049994 0.02670000
v 0.09076068 0.03006060 0.02800000
v 0.09027404 0.03038576 0.02670000
v 0.09108584 0.02957397 0.02800000
v 0.09076068 0.03006060 0.02670000
v 0.09108584 0.02957397 0.02670000
v 0.10708584 0.02842585 0.02800000
v 0.10720002 0.02899987 0.02800000
v 0.10720002 0.02899987 0.02670000
v 0.10676068 0.02793921 0.02800000
v 0.10708584 0.02842585 0.02670000
v 0.10627405 0.02761405 0.02800000
v 0.10676068 0.02793921 0.02670000
v 0.10570002 0.02749987 0.02800000
v 0.10627405 0.02761405 0.02670000
v 0.10512599 0.02761405 0.02800000
v 0.10570002 0.02749987 0.02670000
v 0.10463936 0.02793921 0.02800000
v 0.10512599 0.02761405 0.02670000
v 0.10431420 0.02842585 0.02800000
v 0.10463936 0.02793921 0.02670000
v 0.10420002 0.02899987 0.02800000
v 0.10431420 0.02842585 0.02670000
v 0.10431420 0.02957390 0.02800000
v 0.10420002 0.02899987 0.02670000
v 0.10463936 0.03006053 0.02800000
v 0.10431420 0.02957390 0.02670000
v 0.10512599 0.03038569 0.02800000
v 0.10463936 0.03006053 0.02670000
v 0.10570002 0.03049987 0.02800000
v 0.10512599 0.03038569 0.02670000
v 0.10627405 0.03038569 0.02800000
v 0.10570002 0.03049987 0.02670000
v 0.10676068 0.03006053 0.02800000
v 0.10627405 0.03038569 0.02670000
v 0.10708584 0.02957390 0.02800000
v 0.10676068 0.03006053 0.02670000
v 0.10708584 0.02957390 0.02670000
v 0.10684368 0.06037465 0.02800000
v 0.10878621 0.06085065 0.02800000
v 0.10878621 0.06085065 0.02670000
v 0.10684368 0.06037465 0.02670000
v 0.10657447 0.06036280 0.02800000
v 0.10684368 0.06037465 0.02800000
v 0.10684368 0.06037465 0.02670000
v 0.10632122 0.06045489 0.02800000
v 0.10657447 0.06036280 0.02670000
v 0.10612249 0.06063687 0.02800000
v 0.10632122 0.06045489 0.02670000
v 0.10600853 0.06088106 0.02800000
v 0.10612249 0.06063687 0.02670000
v 0.10599669 0.06115026 0.02800000
v 0.10600853 0.06088106 0.02670000
v 0.10608877 0.06140351 0.02800000
v 0.10599669 0.06115026 0.02670000
v 0.10627075 0.06160225 0.02800000
v 0.10608877 0.06140351 0.02670000
v 0.10651494 0.06171621 0.02800000
v 0.10627075 0.06160225 0.02670000
v 0.10651494 0.06171621 0.02670000
v 0.08572581 0.07042305 0.02800000
v 0.08572581 0.07042305 0.02670000
v 0.08518487 0.06917562 0.02670000
v 0.08518487 0.06917562 0.02800000
v 0.08500000 0.06782858 0.02670000
v 0.08500000 0.06782858 0.02800000
v 0.07900000 0.14043513 0.02800000
v 0.07900000 0.14043513 0.02670000
v 0.07931216 0.13869612 0.02670000
v 0.07931216 0.13869612 0.02800000
v 0.08020968 0.13717423 0.02670000
v 0.08020968 0.13717423 0.02800000
v 0.08957888 0.12201048 0.02800000
v 0.08020968 0.13717423 0.02800000
v 0.08020968 0.13717423 0.02670000
v 0.09380637 0.10469431 0.02800000
v 0.08957888 0.12201048 0.02670000
v 0.09247873 0.08691909 0.02800000
v 0.09380637 0.10469431 0.02670000
v 0.08572581 0.07042305 0.02800000
v 0.09247873 0.08691909 0.02670000
v 0.08572581 0.07042305 0.02670000
v 0.08500000 0.02500000 0.02670000
v 0.08500000 0.02500000 0.02800000
v 0.08500000 0.06782858 0.02800000
v 0.08500000 0.06782858 0.02670000
v 0.08500000 0.02500000 0.02670000
v 0.11040000 0.02499989 0.02670000
v 0.11040000 0.02499989 0.02800000
v 0.08500000 0.02500000 0.02800000
v 0.11040000 0.02499989 0.02670000
v 0.11040000 0.05426489 0.02670000
v 0.11040000 0.05426489 0.02800000
v 0.11040000 0.02499989 0.02800000
v 0.07900000 0.15000001 0.02800000
v 0.07900000 0.15000001 0.02670000
v 0.07900000 0.14043513 0.02670000
v 0.07900000 0.14043513 0.02800000
v 0.11040000 0.05426489 0.02670000
v 0.10878621 0.06085065 0.02670000
v 0.10878621 0.06085065 0.02800000
v 0.11040000 0.05426489 0.02800000
v 0.09712614 0.06130118 0.02670000
v 0.09770017 0.06118700 0.02670000
v 0.09027404 0.03038576 0.02670000
v 0.08970002 0.03049994 0.02670000
v 0.10600853 0.06088106 0.02670000
v 0.10612249 0.06063687 0.02670000
v 0.08863936 0.03006060 0.02670000
v 0.08500000 0.06782858 0.02670000
v 0.09631435 0.06211298 0.02670000
v 0.08912599 0.03038576 0.02670000
v 0.09076068 0.03006060 0.02670000
v 0.09620017 0.06268700 0.02670000
v 0.10570002 0.03049987 0.02670000
v 0.09108584 0.02957397 0.02670000
v 0.09663951 0.06374766 0.02670000
v 0.09631435 0.06326102 0.02670000
v 0.10684368 0.06037465 0.02670000
v 0.10878621 0.06085065 0.02670000
v 0.11040000 0.05426489 0.02670000
v 0.11040000 0.02499989 0.02670000
v 0.10720002 0.02899987 0.02670000
v 0.10431420 0.02842585 0.02670000
v 0.08500000 0.02500000 0.02670000
v 0.08970002 0.02749994 0.02670000
v 0.09663951 0.06162634 0.02670000
v 0.10627405 0.03038569 0.02670000
v 0.08518487 0.06917562 0.02670000
v 0.09247873 0.08691909 0.02670000
v 0.09712614 0.06407282 0.02670000
v 0.10627075 0.06160225 0.02670000
v 0.09908599 0.06326102 0.02670000
v 0.09876083 0.06374766 0.02670000
v 0.09920017 0.06268700 0.02670000
v 0.10608877 0.06140351 0.02670000
v 0.10599669 0.06115026 0.02670000
v 0.10657447 0.06036280 0.02670000
v 0.08912599 0.02761412 0.02670000
v 0.08831420 0.02957397 0.02670000
v 0.09120002 0.02899994 0.02670000
v 0.10431420 0.02957390 0.02670000
v 0.10420002 0.02899987 0.02670000
v 0.09027404 0.02761412 0.02670000
v 0.08572581 0.07042305 0.02670000
v 0.09876083 0.06162634 0.02670000
v 0.09908599 0.06211298 0.02670000
v 0.10845747 0.06219221 0.02670000
v 0.08435623 0.14369382 0.02670000
v 0.08447041 0.14426784 0.02670000
v 0.10708584 0.02842585 0.02670000
v 0.10627405 0.02761405 0.02670000
v 0.10676068 0.02793921 0.02670000
v 0.10512599 0.02761405 0.02670000
v 0.10570002 0.02749987 0.02670000
v 0.10676068 0.03006053 0.02670000
v 0.10708584 0.02957390 0.02670000
v 0.10463936 0.03006053 0.02670000
v 0.09076068 0.02793928 0.02670000
v 0.09827419 0.06407282 0.02670000
v 0.07900000 0.15000001 0.02670000
v 0.08158460 0.14484188 0.02670000
v 0.08147041 0.14426784 0.02670000
v 0.08239639 0.14565367 0.02670000
v 0.08190975 0.14532851 0.02670000
v 0.08694083 0.15000001 0.02670000
v 0.08297042 0.14576785 0.02670000
v 0.08435623 0.14484188 0.02670000
v 0.08403108 0.14532851 0.02670000
v 0.08354444 0.14288203 0.02670000
v 0.08957888 0.12201048 0.02670000
v 0.10651494 0.06171621 0.02670000
v 0.10632122 0.06045489 0.02670000
v 0.10463936 0.02793921 0.02670000
v 0.08863936 0.02793928 0.02670000
v 0.09108584 0.02842592 0.02670000
v 0.10512599 0.03038569 0.02670000
v 0.09770017 0.06418700 0.02670000
v 0.09827419 0.06130118 0.02670000
v 0.08354444 0.14565367 0.02670000
v 0.08403108 0.14320719 0.02670000
v 0.09380637 0.10469431 0.02670000
v 0.08239639 0.14288203 0.02670000
v 0.07931216 0.13869612 0.02670000
v 0.07900000 0.14043513 0.02670000
v 0.08820002 0.02899994 0.02670000
v 0.08831420 0.02842592 0.02670000
v 0.08297042 0.14276785 0.02670000
v 0.08020968 0.13717423 0.02670000
v 0.08158460 0.14369382 0.02670000
v 0.08190975 0.14320719 0.02670000
v 0.09908599 0.06211298 0.02800000
v 0.09920017 0.06268700 0.02800000
v 0.09920017 0.06268700 0.02670000
v 0.09876083 0.06162634 0.02800000
v 0.09908599 0.06211298 0.02670000
v 0.09827419 0.06130118 0.02800000
v 0.09876083 0.06162634 0.02670000
v 0.09770017 0.06118700 0.02800000
v 0.09827419 0.06130118 0.02670000
v 0.09712614 0.06130118 0.02800000
v 0.09770017 0.06118700 0.02670000
v 0.09663951 0.06162634 0.02800000
v 0.09712614 0.06130118 0.02670000
v 0.09631435 0.06211298 0.02800000
v 0.09663951 0.06162634 0.02670000
v 0.09620017 0.06268700 0.02800000
v 0.09631435 0.06211298 0.02670000
v 0.09631435 0.06326102 0.02800000
v 0.09620017 0.06268700 0.02670000
v 0.09663951 0.06374766 0.02800000
v 0.09631435 0.06326102 0.02670000
v 0.09712614 0.06407282 0.02800000
v 0.09663951 0.06374766 0.02670000
v 0.09770017 0.06418700 0.02800000
v 0.09712614 0.06407282 0.02670000
v 0.09827419 0.06407282 0.02800000
v 0.09770017 0.06418700 0.02670000
v 0.09876083 0.06374766 0.02800000
v 0.09827419 0.06407282 0.02670000
v 0.09908599 0.06326102 0.02800000
v 0.09876083 0.06374766 0.02670000
v 0.09908599 0.06326102 0.02670000
vt 0.50000000 0.50000000
vt 0.50000000 0.50000000
vt 0.50000000 0.50000000
vt 0.50000000 0.50000000
vt 0.50000000 0.50000000
vt 0.50000000 0.50000000
vt 0.50000000 0.50000000
vt 0.50000000 0.50000000
vt 0.50000000 0.50000000
vt 0.50000000 0.50000000
vt 0.50000000 0.50000000
vt 0.50000000 0.50000000
vt 0.50000000 0.50000000
vt 0.50000000 0.50000000
vt 0.50000000 0.50000000
vt 0.50000000 0.50000000
vt 0.50000000 0.50000000
vt 0.50000000 0.50000000
vt 0.50000000 0.50000000
vt 0.50000000 0.50000000
vt 0.50000000 0.50000000
vt 0.50000000 0.50000000
vt 0.50000000 0.50000000
vt 0.50000000 0.50000000
vt 0.50000000 0.50000000
vt 0.50000000 0.50000000
vt 0.50000000 0.50000000
vt 0.50000000 0.50000000
vt 0.50000000 0.50000000
vt 0.50000000 0.50000000
vt 0.50000000 0.50000000
vt 0.50000000 0.50000000
vt 0.50000000 0.50000000
vt 0.50000000 0.50000000
vt 0.50000000 0.50000000
vt 0.50000000 0.50000000
vt 0.50000000 0.50000000
vt 0.50000000 0.50000000
vt 0.50000000 0.50000000
vt 0.50000000 0.50000000
vt 0.50000000 0.50000000
vt 0.50000000 0.50000000
vt 0.50000000 0.50000000
vt 0.50000000 0.50000000
vt 0.50000000 0.50000000
vt 0.50000000 0.50000000
vt 0.50000000 0.50000000
vt 0.50000000 0.50000000
vt 0.50000000 0.50000000
vt 0.50000000 0.50000000
vt 0.50000000 0.50000000
vt 0.50000000 0.50000000
vt 0.50000000 0.50000000
vt 0.50000000 0.50000000
vt 0.50000000 0.50000000
vt 0.50000000 0.50000000
vt 0.50000000 0.50000000
vt 0.50000000 0.50000000
vt 0.50000000 0.50000000
vt 0.50000000 0.50000000
vt 0.50000000 0.50000000
vt 0.50000000 0.50000000
vt 0.50000000 0.50000000
vt 0.50000000 0.50000000
vt 0.50000000 0.50000000
vt 0.50000000 0.50000000
vt 0.50000000 0.50000000
vt 0.50000000 0.50000000
vt 0.50000000 0.50000000
vt 0.50000000 0.50000000
vt 0.50000000 0.50000000
vt 0.50000000 0.50000000
vt 0.50000000 0.50000000
vt 0.50000000 0.50000000
vt 0.50000000 0.50000000
vt 0.50000000 0.50000000
vt 0.50000000 0.50000000
vt 0.50000000 0.50000000
vt 0.50000000 0.50000000
vt 0.50000000 0.50000000
vt 0.50000000 0.50000000
vt 0.50000000 0.50000000
vt 0.50000000 0.50000000
vt 0.50000000 0.50000000
vt 0.50000000 0.50000000
vt 0.50000000 0.50000000
vt 0.50000000 0.50000000
vt 0.50000000 0.50000000
vt 0.50000000 0.50000000
vt 0.50000000 0.50000000
vt 0.50000000 0.50000000
vt 0.50000000 0.50000000
vt 0.50000000 0.50000000
vt 0.50000000 0.50000000
vt 0.50000000 0.50000000
vt 0.50000000 0.50000000
vt 0.50000000 0.50000000
vt 0.50000000 0.50000000
vt 0.50000000 0.50000000
vt 0.50000000 0.50000000
vt 0.50000000 0.50000000
vt 0.50000000 0.50000000
vt 0.50000000 0.50000000
vt 0.50000000 0.50000000
vt 0.50000000 0.50000000
vt 0.50000000 0.50000000
vt 0.50000000 0.50000000
vt 0.50000000 0.50000000
vt 0.50000000 0.50000000
vt 0.50000000 0.50000000
vt 0.50000000 0.50000000
vt 0.50000000 0.50000000
vt 0.50000000 0.50000000
vt 0.50000000 0.50000000
vt 0.50000000 0.50000000
vt 0.50000000 0.50000000
vt 0.50000000 0.50000000
vt 0.50000000 0.50000000
vt 0.50000000 0.50000000
vt 0.50000000 0.50000000
vt 0.50000000 0.50000000
vt 0.50000000 0.50000000
vt 0.50000000 0.50000000
vt 0.50000000 0.50000000
vt 0.50000000 0.50000000
vt 0.50000000 0.50000000
vt 0.50000000 0.50000000
vt 0.50000000 0.50000000
vt 0.50000000 0.50000000
vt 0.50000000 0.50000000
vt 0.50000000 0.50000000
vt 0.50000000 0.50000000
vt 0.50000000 0.50000000
vt 0.50000000 0.50000000
vt 0.50000000 0.50000000
vt 0.50000000 0.50000000
vt 0.50000000 0.50000000
vt 0.50000000 0.50000000
vt 0.50000000 0.50000000
vt 0.50000000 0.50000000
vt 0.50000000 0.50000000
vt 0.50000000 0.50000000
vt 0.50000000 0.50000000
vt 0.50000000 0.50000000
vt 0.50000000 0.50000000
vt 0.50000000 0.50000000
vt 0.50000000 0.50000000
vt 0.50000000 0.50000000
vt 0.50000000 0.50000000
vt 0.50000000 0.50000000
vt 0.50000000 0.50000000
vt 0.50000000 0.50000000
vt 0.50000000 0.50000000
vt 0.50000000 0.50000000
vt 0.50000000 0.50000000
vt 0.50000000 0.50000000
vt 0.50000000 0.50000000
vt 0.50000000 0.50000000
vt 0.50000000 0.50000000
vt 0.50000000 0.50000000
vt 0.50000000 0.50000000
vt 0.50000000 0.50000000
vt 0.50000000 0.50000000
vt 0.50000000 0.50000000
vt 0.50000000 0.50000000
vt 0.50000000 0.50000000
vt 0.50000000 0.50000000
vt 0.50000000 0.50000000
vt 0.50000000 0.50000000
vt 0.50000000 0.50000000
vt 0.50000000 0.50000000
vt 0.50000000 0.50000000
vt 0.50000000 0.50000000
vt 0.50000000 0.50000000
vt 0.50000000 0.50000000
vt 0.50000000 0.50000000
vt 0.50000000 0.50000000
vt 0.50000000 0.50000000
vt 0.50000000 0.50000000
vt 0.50000000 0.50000000
vt 0.50000000 0.50000000
vt 0.50000000 0.50000000
vt 0.50000000 0.50000000
vt 0.50000000 0.50000000
vt 0.50000000 0.50000000
vt 0.50000000 0.50000000
vt 0.50000000 0.50000000
vt 0.50000000 0.50000000
vt 0.50000000 0.50000000
vt 0.50000000 0.50000000
vt 0.50000000 0.50000000
vt 0.50000000 0.50000000
vt 0.50000000 0.50000000
vt 0.50000000 0.50000000
vt 0.50000000 0.50000000
vt 0.50000000 0.50000000
vt 0.50000000 0.50000000
vt 0.50000000 0.50000000
vt 0.50000000 0.50000000
vt 0.50000000 0.50000000
vt 0.50000000 0.50000000
vt 0.50000000 0.50000000
vt 0.50000000 0.50000000
vt 0.50000000 0.50000000
vt 0.50000000 0.50000000
vt 0.50000000 0.50000000
vt 0.50000000 0.50000000
vt 0.50000000 0.50000000
vt 0.50000000 0.50000000
vt 0.50000000 0.50000000
vt 0.50000000 0.50000000
vt 0.50000000 0.50000000
vt 0.50000000 0.50000000
vt 0.50000000 0.50000000
vt 0.50000000 0.50000000
vt 0.50000000 0.50000000
vt 0.50000000 0.50000000
vt 0.50000000 0.50000000
vt 0.50000000 0.50000000
vt 0.50000000 0.50000000
vt 0.50000000 0.50000000
vt 0.50000000 0.50000000
vt 0.50000000 0.50000000
vt 0.50000000 0.50000000
vt 0.50000000 0.50000000
vt 0.50000000 0.50000000
vt 0.50000000 0.50000000
vt 0.50000000 0.50000000
vt 0.50000000 0.50000000
vt 0.50000000 0.50000000
vt 0.50000000 0.50000000
vt 0.50000000 0.50000000
vt 0.50000000 0.50000000
vt 0.50000000 0.50000000
vt 0.50000000 0.50000000
vt 0.50000000 0.50000000
vt 0.50000000 0.50000000
vt 0.50000000 0.50000000
vt 0.50000000 0.50000000
vt 0.50000000 0.50000000
vt 0.50000000 0.50000000
vt 0.50000000 0.50000000
vt 0.50000000 0.50000000
vt 0.50000000 0.50000000
vt 0.50000000 0.50000000
vt 0.50000000 0.50000000
vt 0.50000000 0.50000000
vt 0.50000000 0.50000000
vt 0.50000000 0.50000000
vt 0.50000000 0.50000000
vt 0.50000000 0.50000000
vt 0.50000000 0.50000000
vt 0.50000000 0.50000000
vt 0.50000000 0.50000000
vt 0.50000000 0.50000000
vt 0.50000000 0.50000000
vt 0.50000000 0.50000000
vt 0.50000000 0.50000000
vt 0.50000000 0.50000000
vt 0.50000000 0.50000000
vt 0.50000000 0.50000000
vt 0.50000000 0.50000000
vt 0.50000000 0.50000000
vt 0.50000000 0.50000000
vt 0.50000000 0.50000000
vt 0.50000000 0.50000000
vt 0.50000000 0.50000000
vt 0.50000000 0.50000000
vt 0.50000000 0.50000000
vt 0.50000000 0.50000000
vt 0.50000000 0.50000000
vt 0.50000000 0.50000000
vt 0.50000000 0.50000000
vt 0.50000000 0.50000000
vt 0.50000000 0.50000000
vt 0.50000000 0.50000000
vt 0.50000000 0.50000000
vt 0.50000000 0.50000000
vt 0.50000000 0.50000000
vt 0.50000000 0.50000000
vt 0.50000000 0.50000000
vt 0.50000000 0.50000000
vt 0.50000000 0.50000000
vt 0.50000000 0.50000000
vt 0.50000000 0.50000000
vt 0.50000000 0.50000000
vt 0.50000000 0.50000000
vt 0.50000000 0.50000000
vt 0.50000000 0.50000000
vt 0.50000000 0.50000000
vt 0.50000000 0.50000000
vt 0.50000000 0.50000000
vt 0.50000000 0.50000000
vt 0.50000000 0.50000000
vt 0.50000000 0.50000000
vt 0.50000000 0.50000000
vt 0.50000000 0.50000000
vt 0.50000000 0.50000000
vt 0.50000000 0.50000000
vt 0.50000000 0.50000000
vt 0.50000000 0.50000000
vt 0.50000000 0.50000000
vt 0.50000000 0.50000000
vt 0.50000000 0.50000000
vt 0.50000000 0.50000000
vt 0.50000000 0.50000000
vt 0.50000000 0.50000000
vt 0.50000000 0.50000000
vt 0.50000000 0.50000000
vt 0.50000000 0.50000000
vt 0.50000000 0.50000000
vt 0.50000000 0.50000000
vt 0.50000000 0.50000000
vt 0.50000000 0.50000000
vt 0.50000000 0.50000000
vt 0.50000000 0.50000000
vt 0.50000000 0.50000000
vt 0.50000000 0.50000000
vt 0.50000000 0.50000000
vt 0.50000000 0.50000000
vt 0.50000000 0.50000000
vt 0.50000000 0.50000000
vt 0.50000000 0.50000000
vt 0.50000000 0.50000000
vt 0.50000000 0.50000000
vt 0.50000000 0.50000000
vt 0.50000000 0.50000000
vt 0.50000000 0.50000000
vt 0.50000000 0.50000000
vt 0.50000000 0.50000000
vt 0.50000000 0.50000000
vt 0.50000000 0.50000000
vt 0.50000000 0.50000000
vt 0.50000000 0.50000000
vt 0.50000000 0.50000000
vt 0.50000000 0.50000000
vt 0.50000000 0.50000000
vt 0.50000000 0.50000000
vt 0.50000000 0.50000000
vt 0.50000000 0.50000000
vt 0.50000000 0.50000000
vt 0.50000000 0.50000000
vt 0.50000000 0.50000000
vt 0.50000000 0.50000000
vt 0.50000000 0.50000000
vt 0.50000000 0.50000000
vt 0.50000000 0.50000000
vt 0.50000000 0.50000000
vt 0.50000000 0.50000000
vt 0.50000000 0.50000000
vt 0.50000000 0.50000000
vt 0.50000000 0.50000000
vt 0.50000000 0.50000000
vt 0.50000000 0.50000000
vt 0.50000000 0.50000000
vt 0.50000000 0.50000000
vt 0.50000000 0.50000000
vt 0.50000000 0.50000000
vt 0.50000000 0.50000000
vt 0.50000000 0.50000000
vt 0.50000000 0.50000000
vt 0.50000000 0.50000000
vt 0.50000000 0.50000000
vt 0.50000000 0.50000000
vt 0.50000000 0.50000000
vt 0.50000000 0.50000000
vt 0.50000000 0.50000000
vt 0.50000000 0.50000000
vt 0.50000000 0.50000000
vt 0.50000000 0.50000000
vt 0.50000000 0.50000000
vt 0.50000000 0.50000000
vt 0.50000000 0.50000000
vt 0.50000000 0.50000000
vt 0.50000000 0.50000000
vt 0.50000000 0.50000000
vt 0.50000000 0.50000000
vt 0.50000000 0.50000000
vt 0.50000000 0.50000000
vt 0.50000000 0.50000000
vt 0.50000000 0.50000000
vt 0.50000000 0.50000000
vt 0.50000000 0.50000000
vt 0.50000000 0.50000000
vt 0.50000000 0.50000000
vt 0.50000000 0.50000000
vt 0.50000000 0.50000000
vt 0.50000000 0.50000000
vt 0.50000000 0.50000000
vt 0.50000000 0.50000000
vt 0.50000000 0.50000000
vt 0.50000000 0.50000000
vt 0.50000000 0.50000000
vt 0.50000000 0.50000000
vt 0.50000000 0.50000000
vt 0.50000000 0.50000000
vt 0.50000000 0.50000000
vt 0.50000000 0.50000000
vt 0.50000000 0.50000000
vt 0.50000000 0.50000000
vt 0.50000000 0.50000000
vt 0.50000000 0.50000000
vt 0.50000000 0.50000000
vt 0.50000000 0.50000000
vt 0.50000000 0.50000000
vt 0.50000000 0.50000000
vt 0.50000000 0.50000000
vt 0.50000000 0.50000000
vt 0.50000000 0.50000000
vt 0.50000000 0.50000000
vt 0.50000000 0.50000000
vt 0.50000000 0.50000000
vt 0.50000000 0.50000000
vt 0.50000000 0.50000000
vt 0.50000000 0.50000000
vt 0.50000000 0.50000000
vt 0.50000000 0.50000000
vt 0.50000000 0.50000000
vt 0.50000000 0.50000000
vt 0.50000000 0.50000000
vt 0.50000000 0.50000000
vt 0.50000000 0.50000000
vt 0.50000000 0.50000000
vt 0.50000000 0.50000000
vt 0.50000000 0.50000000
vt 0.50000000 0.50000000
vt 0.50000000 0.50000000
vt 0.50000000 0.50000000
vt 0.50000000 0.50000000
vt 0.50000000 0.50000000
vt 0.50000000 0.50000000
vt 0.50000000 0.50000000
vt 0.50000000 0.50000000
vt 0.50000000 0.50000000
vt 0.50000000 0.50000000
vt 0.50000000 0.50000000
vt 0.50000000 0.50000000
vt 0.50000000 0.50000000
vt 0.50000000 0.50000000
vt 0.50000000 0.50000000
vt 0.50000000 0.50000000
vt 0.50000000 0.50000000
vt 0.50000000 0.50000000
vt 0.50000000 0.50000000
vt 0.50000000 0.50000000
vt 0.50000000 0.50000000
vt 0.50000000 0.50000000
vt 0.50000000 0.50000000
vt 0.50000000 0.50000000
vt 0.50000000 0.50000000
vt 0.50000000 0.50000000
vt 0.50000000 0.50000000
vt 0.50000000 0.50000000
vt 0.50000000 0.50000000
vt 0.50000000 0.50000000
vt 0.50000000 0.50000000
vt 0.50000000 0.50000000
vt 0.50000000 0.50000000
vt 0.50000000 0.50000000
vt 0.50000000 0.50000000
vt 0.50000000 0.50000000
vt 0.50000000 0.50000000
vt 0.50000000 0.50000000
vt 0.50000000 0.50000000
vt 0.50000000 0.50000000
vt 0.50000000 0.50000000
vt 0.50000000 0.50000000
vt 0.50000000 0.50000000
vt 0.50000000 0.50000000
vt 0.50000000 0.50000000
vt 0.50000000 0.50000000
vt 0.50000000 0.50000000
vt 0.50000000 0.50000000
vt 0.50000000 0.50000000
vt 0.50000000 0.50000000
vt 0.50000000 0.50000000
vt 0.50000000 0.50000000
vt 0.50000000 0.50000000
vt 0.50000000 0.50000000
vt 0.50000000 0.50000000
vt 0.50000000 0.50000000
vt 0.50000000 0.50000000
vt 0.50000000 0.50000000
vt 0.50000000 0.50000000
vt 0.50000000 0.50000000
vt 0.50000000 0.50000000
vt 0.50000000 0.50000000
vt 0.50000000 0.50000000
vt 0.50000000 0.50000000
vt 0.50000000 0.50000000
vt 0.50000000 0.50000000
vt 0.50000000 0.50000000
vt 0.50000000 0.50000000
vt 0.50000000 0.50000000
vt 0.50000000 0.50000000
vt 0.50000000 0.50000000
vt 0.50000000 0.50000000
vt 0.50000000 0.50000000
vt 0.50000000 0.50000000
vt 0.50000000 0.50000000
vt 0.50000000 0.50000000
vt 0.50000000 0.50000000
vt 0.50000000 0.50000000
vt 0.50000000 0.50000000
vt 0.50000000 0.50000000
vt 0.50000000 0.50000000
vt 0.50000000 0.50000000
vt 0.50000000 0.50000000
vt 0.50000000 0.50000000
vt 0.50000000 0.50000000
vt 0.50000000 0.50000000
vt 0.50000000 0.50000000
vt 0.50000000 0.50000000
vt 0.50000000 0.50000000
vt 0.50000000 0.50000000
vt 0.50000000 0.50000000
vt 0.50000000 0.50000000
vt 0.50000000 0.50000000
vt 0.50000000 0.50000000
vt 0.50000000 0.50000000
vt 0.50000000 0.50000000
vt 0.50000000 0.50000000
vt 0.50000000 0.50000000
vt 0.50000000 0.50000000
vt 0.50000000 0.50000000
vt 0.50000000 0.50000000
vt 0.50000000 0.50000000
vt 0.50000000 0.50000000
vt 0.50000000 0.50000000
vt 0.50000000 0.50000000
vt 0.50000000 0.50000000
vt 0.50000000 0.50000000
vt 0.50000000 0.50000000
vt 0.50000000 0.50000000
vt 0.50000000 0.50000000
vt 0.50000000 0.50000000
vt 0.50000000 0.50000000
vt 0.50000000 0.50000000
vt 0.50000000 0.50000000
vt 0.50000000 0.50000000
vt 0.50000000 0.50000000
vt 0.50000000 0.50000000
vt 0.50000000 0.50000000
vt 0.50000000 0.50000000
vt 0.50000000 0.50000000
vt 0.50000000 0.50000000
vt 0.50000000 0.50000000
vt 0.50000000 0.50000000
vt 0.50000000 0.50000000
vt 0.50000000 0.50000000
vt 0.50000000 0.50000000
vt 0.50000000 0.50000000
vt 0.50000000 0.50000000
vt 0.50000000 0.50000000
vt 0.50000000 0.50000000
vt 0.50000000 0.50000000
vt 0.50000000 0.50000000
vt 0.50000000 0.50000000
vt 0.50000000 0.50000000
vt 0.50000000 0.50000000
vt 0.50000000 0.50000000
vt 0.50000000 0.50000000
vt 0.50000000 0.50000000
vt 0.50000000 0.50000000
vt 0.50000000 0.50000000
vt 0.50000000 0.50000000
vt 0.50000000 0.50000000
vt 0.50000000 0.50000000
vt 0.50000000 0.50000000
vt 0.50000000 0.50000000
vt 0.50000000 0.50000000
vt 0.50000000 0.50000000
vt 0.50000000 0.50000000
vt 0.50000000 0.50000000
vt 0.50000000 0.50000000
vt 0.50000000 0.50000000
vt 0.50000000 0.50000000
vt 0.50000000 0.50000000
vt 0.50000000 0.50000000
vt 0.50000000 0.50000000
vt 0.50000000 0.50000000
vt 0.50000000 0.50000000
vt 0.50000000 0.50000000
vt 0.50000000 0.50000000
vt 0.50000000 0.50000000
vt 0.50000000 0.50000000
vt 0.50000000 0.50000000
vt 0.50000000 0.50000000
vt 0.50000000 0.50000000
vt 0.50000000 0.50000000
vt 0.50000000 0.50000000
vt 0.50000000 0.50000000
vt 0.50000000 0.50000000
vt 0.50000000 0.50000000
vt 0.50000000 0.50000000
vt 0.50000000 0.50000000
vt 0.50000000 0.50000000
vt 0.50000000 0.50000000
vt 0.50000000 0.50000000
vt 0.50000000 0.50000000
vt 0.50000000 0.50000000
vt 0.50000000 0.50000000
vt 0.50000000 0.50000000
vt 0.50000000 0.50000000
vt 0.50000000 0.50000000
vt 0.50000000 0.50000000
vt 0.50000000 0.50000000
vt 0.50000000 0.50000000
vt 0.50000000 0.50000000
vt 0.50000000 0.50000000
vt 0.50000000 0.50000000
vt 0.50000000 0.50000000
vt 0.50000000 0.50000000
vt 0.50000000 0.50000000
vt 0.50000000 0.50000000
vt 0.50000000 0.50000000
vt 0.50000000 0.50000000
vt 0.50000000 0.50000000
vt 0.50000000 0.50000000
vt 0.50000000 0.50000000
vt 0.50000000 0.50000000
vt 0.50000000 0.50000000
vt 0.50000000 0.50000000
vt 0.50000000 0.50000000
vt 0.50000000 0.50000000
vt 0.50000000 0.50000000
vt 0.50000000 0.50000000
vt 0.50000000 0.50000000
vt 0.50000000 0.50000000
vt 0.50000000 0.50000000
vt 0.50000000 0.50000000
vt 0.50000000 0.50000000
vt 0.50000000 0.50000000
vt 0.50000000 0.50000000
vt 0.50000000 0.50000000
vt 0.50000000 0.50000000
vt 0.50000000 0.50000000
vt 0.50000000 0.50000000
vt 0.50000000 0.50000000
vt 0.50000000 0.50000000
vt 0.50000000 0.50000000
vt 0.50000000 0.50000000
vt 0.50000000 0.50000000
vt 0.50000000 0.50000000
vt 0.50000000 0.50000000
vt 0.50000000 0.50000000
vt 0.50000000 0.50000000
vt 0.50000000 0.50000000
vt 0.50000000 0.50000000
vt 0.50000000 0.50000000
vt 0.50000000 0.50000000
vt 0.50000000 0.50000000
vt 0.50000000 0.50000000
vt 0.50000000 0.50000000
vt 0.50000000 0.50000000
vt 0.50000000 0.50000000
vt 0.50000000 0.50000000
vt 0.50000000 0.50000000
vt 0.50000000 0.50000000
vt 0.50000000 0.50000000
vt 0.50000000 0.50000000
vt 0.50000000 0.50000000
vt 0.50000000 0.50000000
vt 0.50000000 0.50000000
vt 0.50000000 0.50000000
vt 0.50000000 0.50000000
vt 0.50000000 0.50000000
vt 0.50000000 0.50000000
vt 0.50000000 0.50000000
vt 0.50000000 0.50000000
vt 0.50000000 0.50000000
vt 0.50000000 0.50000000
vt 0.50000000 0.50000000
vt 0.50000000 0.50000000
vt 0.50000000 0.50000000
vt 0.50000000 0.50000000
vt 0.50000000 0.50000000
vt 0.50000000 0.50000000
vt 0.50000000 0.50000000
vt 0.50000000 0.50000000
vt 0.50000000 0.50000000
vt 0.50000000 0.50000000
vt 0.50000000 0.50000000
vt 0.50000000 0.50000000
vt 0.50000000 0.50000000
vt 0.50000000 0.50000000
vt 0.50000000 0.50000000
vt 0.50000000 0.50000000
vt 0.50000000 0.50000000
vt 0.50000000 0.50000000
vt 0.50000000 0.50000000
vt 0.50000000 0.50000000
vt 0.50000000 0.50000000
vt 0.50000000 0.50000000
vt 0.50000000 0.50000000
vt 0.50000000 0.50000000
vt 0.50000000 0.50000000
vt 0.50000000 0.50000000
vt 0.50000000 0.50000000
vt 0.50000000 0.50000000
vt 0.50000000 0.50000000
vt 0.50000000 0.50000000
vt 0.50000000 0.50000000
vt 0.50000000 0.50000000
vt 0.50000000 0.50000000
vt 0.50000000 0.50000000
vt 0.50000000 0.50000000
vt 0.50000000 0.50000000
vt 0.50000000 0.50000000
vt 0.50000000 0.50000000
vt 0.50000000 0.50000000
vt 0.50000000 0.50000000
vt 0.50000000 0.50000000
vt 0.50000000 0.50000000
vt 0.50000000 0.50000000
vt 0.50000000 0.50000000
vt 0.50000000 0.50000000
vt 0.50000000 0.50000000
vt 0.50000000 0.50000000
vt 0.50000000 0.50000000
vt 0.50000000 0.50000000
vt 0.50000000 0.50000000
vt 0.50000000 0.50000000
vt 0.50000000 0.50000000
vt 0.50000000 0.50000000
vt 0.50000000 0.50000000
vt 0.50000000 0.50000000
vt 0.50000000 0.50000000
vt 0.50000000 0.50000000
vt 0.50000000 0.50000000
vt 0.50000000 0.50000000
vt 0.50000000 0.50000000
vt 0.50000000 0.50000000
vt 0.50000000 0.50000000
vt 0.50000000 0.50000000
vt 0.50000000 0.50000000
vt 0.50000000 0.50000000
vt 0.50000000 0.50000000
vt 0.50000000 0.50000000
vt 0.50000000 0.50000000
vt 0.50000000 0.50000000
vt 0.50000000 0.50000000
vt 0.50000000 0.50000000
vt 0.50000000 0.50000000
vt 0.50000000 0.50000000
vt 0.50000000 0.50000000
vt 0.50000000 0.50000000
vt 0.50000000 0.50000000
vt 0.50000000 0.50000000
vt 0.50000000 0.50000000
vt 0.50000000 0.50000000
vt 0.50000000 0.50000000
vt 0.50000000 0.50000000
vt 0.50000000 0.50000000
vt 0.50000000 0.50000000
vt 0.50000000 0.50000000
vt 0.50000000 0.50000000
vt 0.50000000 0.50000000
vt 0.50000000 0.50000000
vt 0.50000000 0.50000000
vt 0.50000000 0.50000000
vt 0.50000000 0.50000000
vt 0.50000000 0.50000000
vt 0.50000000 0.50000000
vt 0.50000000 0.50000000
vt 0.50000000 0.50000000
vt 0.50000000 0.50000000
vt 0.50000000 0.50000000
vt 0.50000000 0.50000000
vt 0.50000000 0.50000000
vt 0.50000000 0.50000000
vt 0.50000000 0.50000000
vt 0.50000000 0.50000000
vt 0.50000000 0.50000000
vt 0.50000000 0.50000000
vt 0.50000000 0.50000000
vt 0.50000000 0.50000000
vt 0.50000000 0.50000000
vt 0.50000000 0.50000000
vt 0.50000000 0.50000000
vt 0.50000000 0.50000000
vt 0.50000000 0.50000000
vt 0.50000000 0.50000000
vt 0.50000000 0.50000000
vt 0.50000000 0.50000000
vt 0.50000000 0.50000000
vt 0.50000000 0.50000000
vt 0.50000000 0.50000000
vt 0.50000000 0.50000000
vt 0.50000000 0.50000000
vt 0.50000000 0.50000000
vt 0.50000000 0.50000000
vt 0.50000000 0.50000000
vt 0.50000000 0.50000000
vt 0.50000000 0.50000000
vt 0.50000000 0.50000000
vt 0.50000000 0.50000000
vt 0.50000000 0.50000000
vt 0.50000000 0.50000000
vt 0.50000000 0.50000000
vt 0.50000000 0.50000000
vt 0.50000000 0.50000000
vt 0.50000000 0.50000000
vt 0.50000000 0.50000000
vt 0.50000000 0.50000000
vt 0.50000000 0.50000000
vt 0.50000000 0.50000000
vt 0.50000000 0.50000000
vt 0.50000000 0.50000000
vt 0.50000000 0.50000000
vt 0.50000000 0.50000000
vt 0.50000000 0.50000000
vt 0.50000000 0.50000000
vt 0.50000000 0.50000000
vt 0.50000000 0.50000000
vt 0.50000000 0.50000000
vt 0.50000000 0.50000000
vt 0.50000000 0.50000000
vt 0.50000000 0.50000000
vt 0.50000000 0.50000000
vt 0.50000000 0.50000000
vt 0.50000000 0.50000000
vt 0.50000000 0.50000000
vt 0.50000000 0.50000000
vt 0.50000000 0.50000000
vt 0.50000000 0.50000000
vt 0.50000000 0.50000000
vt 0.50000000 0.50000000
vt 0.50000000 0.50000000
vt 0.50000000 0.50000000
vt 0.50000000 0.50000000
vt 0.50000000 0.50000000
vt 0.50000000 0.50000000
vt 0.50000000 0.50000000
vt 0.50000000 0.50000000
vt 0.50000000 0.50000000
vt 0.50000000 0.50000000
vt 0.50000000 0.50000000
vt 0.50000000 0.50000000
vt 0.50000000 0.50000000
vt 0.50000000 0.50000000
vt 0.50000000 0.50000000
vt 0.50000000 0.50000000
vt 0.50000000 0.50000000
vt 0.50000000 0.50000000
vt 0.50000000 0.50000000
vt 0.50000000 0.50000000
vt 0.50000000 0.50000000
vt 0.50000000 0.50000000
vt 0.50000000 0.50000000
vt 0.50000000 0.50000000
vt 0.50000000 0.50000000
vt 0.50000000 0.50000000
vt 0.50000000 0.50000000
vt 0.50000000 0.50000000
vt 0.50000000 0.50000000
vt 0.50000000 0.50000000
vt 0.50000000 0.50000000
vt 0.50000000 0.50000000
vt 0.50000000 0.50000000
vt 0.50000000 0.50000000
vt 0.50000000 0.50000000
vt 0.50000000 0.50000000
vt 0.50000000 0.50000000
vt 0.50000000 0.50000000
vt 0.50000000 0.50000000
vt 0.50000000 0.50000000
vt 0.50000000 0.50000000
vt 0.50000000 0.50000000
vt 0.50000000 0.50000000
vt 0.50000000 0.50000000
vt 0.50000000 0.50000000
vt 0.50000000 0.50000000
vt 0.50000000 0.50000000
vt 0.50000000 0.50000000
vt 0.50000000 0.50000000
vt 0.50000000 0.50000000
vt 0.50000000 0.50000000
vt 0.50000000 0.50000000
vt 0.50000000 0.50000000
vt 0.50000000 0.50000000
vt 0.50000000 0.50000000
vt 0.50000000 0.50000000
vt 0.50000000 0.50000000
vt 0.50000000 0.50000000
vt 0.50000000 0.50000000
vt 0.50000000 0.50000000
vt 0.50000000 0.50000000
vt 0.50000000 0.50000000
vt 0.50000000 0.50000000
vt 0.50000000 0.50000000
vt 0.50000000 0.50000000
vt 0.50000000 0.50000000
vt 0.50000000 0.50000000
vt 0.50000000 0.50000000
vt 0.50000000 0.50000000
vt 0.50000000 0.50000000
vt 0.50000000 0.50000000
vt 0.50000000 0.50000000
vt 0.50000000 0.50000000
vt 0.50000000 0.50000000
vt 0.50000000 0.50000000
vt 0.50000000 0.50000000
vt 0.50000000 0.50000000
vt 0.50000000 0.50000000
vt 0.50000000 0.50000000
vt 0.50000000 0.50000000
vt 0.50000000 0.50000000
vt 0.50000000 0.50000000
vt 0.50000000 0.50000000
vt 0.50000000 0.50000000
vt 0.50000000 0.50000000
vt 0.50000000 0.50000000
vt 0.50000000 0.50000000
vt 0.50000000 0.50000000
vt 0.50000000 0.50000000
vt 0.50000000 0.50000000
vt 0.50000000 0.50000000
vt 0.50000000 0.50000000
vt 0.50000000 0.50000000
vt 0.50000000 0.50000000
vt 0.50000000 0.50000000
vt 0.50000000 0.50000000
vt 0.50000000 0.50000000
vt 0.50000000 0.50000000
vt 0.50000000 0.50000000
vt 0.50000000 0.50000000
vt 0.50000000 0.50000000
vt 0.50000000 0.50000000
vt 0.50000000 0.50000000
vt 0.50000000 0.50000000
vt 0.50000000 0.50000000
vt 0.50000000 0.50000000
vt 0.50000000 0.50000000
vt 0.50000000 0.50000000
vt 0.50000000 0.50000000
vt 0.50000000 0.50000000
vt 0.50000000 0.50000000
vt 0.50000000 0.50000000
vt 0.50000000 0.50000000
vt 0.50000000 0.50000000
vt 0.50000000 0.50000000
vt 0.50000000 0.50000000
vt 0.50000000 0.50000000
vt 0.50000000 0.50000000
vt 0.50000000 0.50000000
vt 0.50000000 0.50000000
vt 0.50000000 0.50000000
vt 0.50000000 0.50000000
vt 0.50000000 0.50000000
vt 0.50000000 0.50000000
vt 0.50000000 0.50000000
vt 0.50000000 0.50000000
vt 0.50000000 0.50000000
vt 0.50000000 0.50000000
vt 0.50000000 0.50000000
vt 0.50000000 0.50000000
vt 0.50000000 0.50000000
vt 0.50000000 0.50000000
vt 0.50000000 0.50000000
vt 0.50000000 0.50000000
vt 0.50000000 0.50000000
vt 0.50000000 0.50000000
vt 0.50000000 0.50000000
vt 0.50000000 0.50000000
vt 0.50000000 0.50000000
vt 0.50000000 0.50000000
vt 0.50000000 0.50000000
vt 0.50000000 0.50000000
vt 0.50000000 0.50000000
vt 0.50000000 0.50000000
vt 0.50000000 0.50000000
vt 0.50000000 0.50000000
vt 0.50000000 0.50000000
vt 0.50000000 0.50000000
vt 0.50000000 0.50000000
vt 0.50000000 0.50000000
vt 0.50000000 0.50000000
vt 0.50000000 0.50000000
vt 0.50000000 0.50000000
vt 0.50000000 0.50000000
vt 0.50000000 0.50000000
vt 0.50000000 0.50000000
vt 0.50000000 0.50000000
vt 0.50000000 0.50000000
vt 0.50000000 0.50000000
vt 0.50000000 0.50000000
vt 0.50000000 0.50000000
vt 0.50000000 0.50000000
vt 0.50000000 0.50000000
vt 0.50000000 0.50000000
vt 0.50000000 0.50000000
vt 0.50000000 0.50000000
vt 0.50000000 0.50000000
vt 0.50000000 0.50000000
vt 0.50000000 0.50000000
vt 0.50000000 0.50000000
vt 0.50000000 0.50000000
vt 0.50000000 0.50000000
vt 0.50000000 0.50000000
vt 0.50000000 0.50000000
vt 0.50000000 0.50000000
vt 0.50000000 0.50000000
vt 0.50000000 0.50000000
f 1/1 2/2 3/3
f 4/4 1/1 5/5
f 6/6 4/4 7/7
f 8/8 6/6 9/9
f 10/10 8/8 11/11
f 12/12 10/10 13/13
f 14/14 12/12 15/15
f 16/16 14/14 17/17
f 18/18 16/16 19/19
f 20/20 18/18 21/21
f 22/22 20/20 23/23
f 24/24 22/22 25/25
f 26/26 24/24 27/27
f 28/28 26/26 29/29
f 30/30 28/28 31/31
f 2/2 30/30 32/32
f 32/32 3/3 2/2
f 31/31 32/32 30/30
f 29/29 31/31 28/28
f 27/27 29/29 26/26
f 25/25 27/27 24/24
f 23/23 25/25 22/22
f 21/21 23/23 20/20
f 19/19 21/21 18/18
f 17/17 19/19 16/16
f 15/15 17/17 14/14
f 13/13 15/15 12/12
f 11/11 13/13 10/10
f 9/9 11/11 8/8
f 7/7 9/9 6/6
f 5/5 7/7 4/4
f 3/3 5/5 1/1
f 33/33 34/34 35/35
f 36/36 33/33 37/37
f 38/38 36/36 39/39
f 40/40 38/38 41/41
f 42/42 40/40 43/43
f 44/44 42/42 45/45
f 46/46 44/44 47/47
f 48/48 46/46 49/49
f 50/50 48/48 51/51
f 52/52 50/50 53/53
f 54/54 52/52 55/55
f 56/56 54/54 57/57
f 58/58 56/56 59/59
f 60/60 58/58 61/61
f 62/62 60/60 63/63
f 34/34 62/62 64/64
f 64/64 35/35 34/34
f 63/63 64/64 62/62
f 61/61 63/63 60/60
f 59/59 61/61 58/58
f 57/57 59/59 56/56
f 55/55 57/57 54/54
f 53/53 55/55 52/52
f 51/51 53/53 50/50
f 49/49 51/51 48/48
f 47/47 49/49 46/46
f 45/45 47/47 44/44
f 43/43 45/45 42/42
f 41/41 43/43 40/40
f 39/39 41/41 38/38
f 37/37 39/39 36/36
f 35/35 37/37 33/33
f 65/65 66/66 67/67
f 68/68 65/65 69/69
f 70/70 68/68 71/71
f 72/72 70/70 73/73
f 74/74 72/72 75/75
f 76/76 74/74 77/77
f 78/78 76/76 79/79
f 80/80 78/78 81/81
f 82/82 80/80 83/83
f 84/84 82/82 85/85
f 86/86 84/84 87/87
f 88/88 86/86 89/89
f 90/90 88/88 91/91
f 92/92 90/90 93/93
f 94/94 92/92 95/95
f 66/66 94/94 96/96
f 96/96 67/67 66/66
f 95/95 96/96 94/94
f 93/93 95/95 92/92
f 91/91 93/93 90/90
f 89/89 91/91 88/88
f 87/87 89/89 86/86
f 85/85 87/87 84/84
f 83/83 85/85 82/82
f 81/81 83/83 80/80
f 79/79 81/81 78/78
f 77/77 79/79 76/76
f 75/75 77/77 74/74
f 73/73 75/75 72/72
f 71/71 73/73 70/70
f 69/69 71/71 68/68
f 67/67 69/69 65/65
f 97/97 98/98 99/99
f 100/100 97/97 101/101
f 102/102 100/100 103/103
f 104/104 102/102 105/105
f 106/106 104/104 107/107
f 108/108 106/106 109/109
f 110/110 108/108 111/111
f 112/112 110/110 113/113
f 114/114 112/112 115/115
f 116/116 114/114 117/117
f 118/118 116/116 119/119
f 120/120 118/118 121/121
f 122/122 120/120 123/123
f 124/124 122/122 125/125
f 126/126 124/124 127/127
f 98/98 126/126 128/128
f 128/128 99/99 98/98
f 127/127 128/128 126/126
f 125/125 127/127 124/124
f 123/123 125/125 122/122
f 121/121 123/123 120/120
f 119/119 121/121 118/118
f 117/117 119/119 116/116
f 115/115 117/117 114/114
f 113/113 115/115 112/112
f 111/111 113/113 110/110
f 109/109 111/111 108/108
f 107/107 109/109 106/106
f 105/105 107/107 104/104
f 103/103 105/105 102/102
f 101/101 103/103 100/100
f 99/99 101/101 97/97
f 129/129 130/130 131/131
f 130/130 132/132 131/131
f 130/130 133/133 134/134
f 135/135 136/136 137/137
f 138/138 130/130 139/139
f 130/130 140/140 141/141
f 134/134 132/132 130/130
f 142/142 131/131 143/143
f 136/136 144/144 137/137
f 145/145 146/146 147/147
f 148/148 149/149 150/150
f 138/138 151/151 152/152
f 139/139 153/153 138/138
f 154/154 155/155 156/156
f 154/154 157/157 158/158
f 154/154 159/159 160/160
f 159/159 161/161 162/162
f 141/141 159/159 130/130
f 143/143 163/163 142/142
f 144/144 164/164 165/165
f 144/144 166/166 167/167
f 137/137 145/145 135/135
f 145/145 168/168 146/146
f 150/150 152/152 148/148
f 153/153 151/151 138/138
f 169/169 170/170 171/171
f 172/172 173/173 174/174
f 158/158 155/155 154/154
f 159/159 175/175 160/160
f 141/141 161/161 159/159
f 130/130 129/129 176/176
f 131/131 142/142 129/129
f 163/163 177/177 178/178
f 165/165 170/170 144/144
f 136/136 166/166 144/144
f 146/146 179/179 147/147
f 152/152 150/150 138/138
f 144/144 170/170 180/180
f 170/170 174/174 181/181
f 170/170 182/182 171/171
f 174/174 183/183 172/172
f 184/184 185/185 172/172
f 160/160 157/157 154/154
f 176/176 140/140 130/130
f 134/134 186/186 132/132
f 163/163 143/143 177/177
f 167/167 164/164 144/144
f 145/145 187/187 168/168
f 180/180 149/149 144/144
f 170/170 188/188 189/189
f 174/174 190/190 181/181
f 179/179 191/191 192/192
f 192/192 171/171 193/193
f 194/194 195/195 196/196
f 194/194 197/197 198/198
f 170/170 199/199 200/200
f 171/171 192/192 169/169
f 172/172 201/201 184/184
f 162/162 175/175 159/159
f 130/130 138/138 133/133
f 178/178 202/202 203/203
f 147/147 135/135 145/145
f 145/145 198/198 204/204
f 189/189 180/180 170/170
f 181/181 205/205 170/170
f 179/179 206/206 191/191
f 193/193 207/207 192/192
f 198/198 145/145 194/194
f 197/197 208/208 209/209
f 170/170 210/210 199/199
f 170/170 211/211 182/182
f 183/183 201/201 172/172
f 212/212 185/185 184/184
f 186/186 212/212 132/132
f 178/178 156/156 202/202
f 204/204 187/187 145/145
f 205/205 188/188 170/170
f 207/207 213/213 192/192
f 179/179 146/146 214/214
f 197/197 215/215 198/198
f 197/197 200/200 208/208
f 169/169 210/210 170/170
f 170/170 216/216 217/217
f 184/184 132/132 212/212
f 178/178 203/203 163/163
f 148/148 144/144 149/149
f 214/214 206/206 179/179
f 209/209 215/215 197/197
f 217/217 211/211 170/170
f 156/156 178/178 154/154
f 192/192 213/213 179/179
f 200/200 197/197 170/170
f 165/165 216/216 170/170
f 173/173 190/190 174/174
f 196/196 197/197 194/194
f 218/218 219/219 220/220
f 221/221 222/222 223/223
f 220/220 221/221 218/218
f 224/224 225/225 226/226
f 227/227 228/228 225/225
f 219/219 227/227 229/229
f 220/220 222/222 221/221
f 230/230 231/231 232/232
f 224/224 233/233 234/234
f 224/224 235/235 236/236
f 225/225 237/237 226/226
f 225/225 238/238 227/227
f 223/223 239/239 221/221
f 240/240 241/241 242/242
f 243/243 244/244 245/245
f 246/246 247/247 248/248
f 247/247 246/246 249/249
f 232/232 250/250 230/230
f 234/234 230/230 224/224
f 226/226 235/235 224/224
f 238/238 229/229 227/227
f 222/222 251/251 223/223
f 252/252 253/253 254/254
f 242/242 254/254 240/240
f 255/255 256/256 257/257
f 248/248 245/245 246/246
f 249/249 258/258 247/247
f 234/234 231/231 230/230
f 228/228 237/237 225/225
f 229/229 220/220 219/219
f 259/259 260/260 252/252
f 252/252 260/260 253/253
f 240/240 261/261 241/241
f 240/240 262/262 263/263
f 255/255 264/264 256/256
f 255/255 265/265 266/266
f 267/267 266/266 265/265
f 243/243 268/268 244/244
f 243/243 269/269 270/270
f 271/271 272/272 258/258
f 271/271 273/273 274/274
f 275/275 276/276 269/269
f 236/236 233/233 224/224
f 222/222 277/277 251/251
f 221/221 278/278 279/279
f 221/221 230/230 280/280
f 277/277 222/222 259/259
f 254/254 281/281 252/252
f 263/263 261/261 240/240
f 271/271 282/282 262/262
f 266/266 264/264 255/255
f 282/282 271/271 267/267
f 270/270 268/268 243/243
f 274/274 272/272 271/271
f 271/271 240/240 283/283
f 276/276 284/284 285/285
f 276/276 275/275 286/286
f 276/276 287/287 269/269
f 276/276 288/288 289/289
f 290/290 246/246 291/291
f 290/290 292/292 293/293
f 239/239 255/255 221/221
f 280/280 278/278 221/221
f 252/252 294/294 259/259
f 262/262 240/240 271/271
f 265/265 282/282 267/267
f 249/249 271/271 258/258
f 240/240 295/295 283/283
f 286/286 284/284 276/276
f 289/289 287/287 276/276
f 293/293 296/296 290/290
f 279/279 218/218 221/221
f 254/254 297/297 281/281
f 257/257 221/221 255/255
f 283/283 273/273 271/271
f 240/240 298/298 299/299
f 240/240 285/285 300/300
f 269/269 243/243 275/275
f 276/276 293/293 301/301
f 291/291 292/292 290/290
f 246/246 302/302 303/303
f 259/259 294/294 277/277
f 245/245 248/248 243/243
f 300/300 298/298 240/240
f 276/276 304/304 288/288
f 293/293 305/305 301/301
f 303/303 291/291 246/246
f 242/242 297/297 254/254
f 285/285 240/240 276/276
f 292/292 305/305 293/293
f 246/246 245/245 306/306
f 299/299 295/295 240/240
f 306/306 302/302 246/246
f 301/301 304/304 276/276
f 250/250 280/280 230/230
f 307/307 308/308 309/309
f 309/309 310/310 307/307
f 311/311 312/312 313/313
f 314/314 311/311 315/315
f 316/316 314/314 317/317
f 318/318 316/316 319/319
f 320/320 318/318 321/321
f 322/322 320/320 323/323
f 324/324 322/322 325/325
f 326/326 324/324 327/327
f 327/327 328/328 326/326
f 325/325 327/327 324/324
f 323/323 325/325 322/322
f 321/321 323/323 320/320
f 319/319 321/321 318/318
f 317/317 319/319 316/316
f 315/315 317/317 314/314
f 313/313 315/315 311/311
f 329/329 330/330 331/331
f 331/331 332/332 329/329
f 333/333 334/334 335/335
f 335/335 336/336 333/333
f 337/337 338/338 339/339
f 339/339 340/340 337/337
f 341/341 342/342 343/343
f 343/343 344/344 341/341
f 345/345 346/346 347/347
f 347/347 348/348 345/345
f 349/349 350/350 351/351
f 352/352 351/351 353/353
f 353/353 354/354 352/352
f 351/351 352/352 349/349
f 355/355 356/356 357/357
f 358/358 355/355 359/359
f 360/360 358/358 361/361
f 362/362 360/360 363/363
f 363/363 364/364 362/362
f 361/361 363/363 360/360
f 359/359 361/361 358/358
f 357/357 359/359 355/355
f 365/365 366/366 367/367
f 368/368 367/367 369/369
f 369/369 370/370 368/368
f 367/367 368/368 365/365
f 371/371 372/372 373/373
f 373/373 374/374 371/371
f 375/375 376/376 377/377
f 377/377 378/378 375/375
f 379/379 380/380 381/381
f 382/382 383/383 384/384
f 385/385 381/381 386/386
f 386/386 382/382 385/385
f 386/386 383/383 382/382
f 387/387 388/388 389/389
f 387/387 382/382 390/390
f 390/390 388/388 387/387
f 391/391 392/392 393/393
f 391/391 387/387 394/394
f 394/394 392/392 391/391
f 395/395 391/391 396/396
f 396/396 397/397 395/395
f 397/397 398/398 395/395
f 398/398 399/399 395/395
f 393/393 396/396 391/391
f 389/389 394/394 387/387
f 384/384 390/390 382/382
f 381/381 385/385 379/379
f 400/400 401/401 402/402
f 400/400 403/403 401/401
f 404/404 405/405 406/406
f 407/407 402/402 405/405
f 405/405 404/404 407/407
f 404/404 408/408 409/409
f 404/404 410/410 411/411
f 404/404 412/412 410/410
f 411/411 408/408 404/404
f 413/413 414/414 415/415
f 415/415 416/416 413/413
f 414/414 409/409 417/417
f 417/417 415/415 414/414
f 418/418 413/413 419/419
f 419/419 420/420 418/418
f 416/416 419/419 413/413
f 409/409 414/414 404/404
f 406/406 412/412 404/404
f 402/402 407/407 400/400
f 421/421 422/422 423/423
f 422/422 424/424 425/425
f 425/425 423/423 422/422
f 424/424 426/426 427/427
f 426/426 428/428 429/429
f 428/428 430/430 431/431
f 427/427 425/425 424/424
f 431/431 429/429 428/428
f 429/429 427/427 426/426
f 423/423 432/432 421/421
f 433/433 434/434 435/435
f 433/433 436/436 434/434
f 435/435 437/437 433/433
f 438/438 439/439 440/440
f 441/441 442/442 440/440
f 440/440 439/439 441/441
f 443/443 444/444 445/445
f 446/446 441/441 443/443
f 445/445 446/446 443/443
f 447/447 448/448 445/445
f 445/445 444/444 447/447
f 448/448 449/449 450/450
f 448/448 447/447 449/449
f 450/450 451/451 452/452
f 452/452 453/453 450/450
f 451/451 454/454 452/452
f 455/455 456/456 454/454
f 454/454 451/451 455/455
f 457/457 458/458 459/459
f 459/459 456/456 457/457
f 460/460 461/461 462/462
f 462/462 458/458 460/460
f 462/462 459/459 458/458
f 455/455 457/457 456/456
f 450/450 453/453 448/448
f 446/446 442/442 441/441
f 440/440 436/436 438/438
f 433/433 438/438 436/436
f 463/463 464/464 465/465
f 466/466 467/467 468/468
f 469/469 470/470 471/471
f 463/463 472/472 464/464
f 468/468 473/473 466/466
f 467/467 474/474 475/475
f 467/467 471/471 476/476
f 469/469 477/477 470/470
f 465/465 469/469 463/463
f 466/466 478/478 479/479
f 475/475 468/468 467/467
f 471/471 467/467 469/469
f 465/465 480/480 469/469
f 473/473 478/478 466/466
f 480/480 477/477 469/469
f 463/463 466/466 481/481
f 476/476 474/474 467/467
f 481/481 482/482 463/463
f 482/482 472/472 463/463
f 479/479 481/481 466/466
f 483/483 484/484 485/485
f 486/486 483/483 487/487
f 488/488 486/486 489/489
f 490/490 488/488 491/491
f 492/492 490/490 493/493
f 494/494 492/492 495/495
f 496/496 494/494 497/497
f 498/498 496/496 499/499
f 500/500 498/498 501/501
f 502/502 500/500 503/503
f 504/504 502/502 505/505
f 506/506 504/504 507/507
f 508/508 506/506 509/509
f 510/510 508/508 511/511
f 512/512 510/510 513/513
f 484/484 512/512 514/514
f 514/514 485/485 484/484
f 513/513 514/514 512/512
f 511/511 513/513 510/510
f 509/509 511/511 508/508
f 507/507 509/509 506/506
f 505/505 507/507 504/504
f 503/503 505/505 502/502
f 501/501 503/503 500/500
f 499/499 501/501 498/498
f 497/497 499/499 496/496
f 495/495 497/497 494/494
f 493/493 495/495 492/492
f 491/491 493/493 490/490
f 489/489 491/491 488/488
f 487/487 489/489 486/486
f 485/485 487/487 483/483
f 515/515 516/516 517/517
f 518/518 519/519 520/520
f 517/517 521/521 515/515
f 522/522 520/520 523/523
f 518/518 524/524 519/519
f 516/516 525/525 517/517
f 516/516 522/522 526/526
f 522/522 527/527 528/528
f 520/520 522/522 518/518
f 515/515 529/529 530/530
f 516/516 531/531 525/525
f 526/526 532/532 516/516
f 523/523 527/527 522/522
f 518/518 530/530 533/533
f 515/515 534/534 529/529
f 532/532 531/531 516/516
f 533/533 524/524 518/518
f 521/521 534/534 515/515
f 530/530 518/518 515/515
f 528/528 526/526 522/522
f 535/535 536/536 537/537
f 537/537 538/538 535/535
f 539/539 540/540 541/541
f 541/541 542/542 539/539
f 543/543 544/544 545/545
f 546/546 547/547 548/548
f 549/549 545/545 550/550
f 550/550 546/546 549/549
f 550/550 547/547 546/546
f 551/551 552/552 553/553
f 546/546 554/554 552/552
f 552/552 551/551 546/546
f 555/555 556/556 557/557
f 551/551 558/558 556/556
f 556/556 555/555 551/551
f 555/555 559/559 560/560
f 560/560 561/561 555/555
f 560/560 562/562 561/561
f 562/562 563/563 561/561
f 557/557 559/559 555/555
f 553/553 558/558 551/551
f 548/548 554/554 546/546
f 545/545 549/549 543/543
f 564/564 565/565 566/566
f 564/564 567/567 565/565
f 566/566 568/568 564/564
f 569/569 568/568 570/570
f 570/570 571/571 569/569
f 571/571 572/572 569/569
f 573/573 569/569 574/574
f 574/574 575/575 573/573
f 575/575 576/576 573/573
f 577/577 578/578 579/579
f 577/577 573/573 580/580
f 580/580 581/581 577/577
f 581/581 578/578 577/577
f 582/582 577/577 583/583
f 583/583 584/584 582/582
f 579/579 583/583 577/577
f 576/576 580/580 573/573
f 572/572 574/574 569/569
f 566/566 570/570 568/568
f 585/585 586/586 587/587
f 588/588 589/589 587/587
f 587/587 586/586 588/588
f 590/590 591/591 589/589
f 592/592 593/593 591/591
f 594/594 595/595 593/593
f 589/589 588/588 590/590
f 593/593 592/592 594/594
f 591/591 590/590 592/592
f 587/587 596/596 585/585
f 597/597 598/598 599/599
f 597/597 600/600 601/601
f 601/601 598/598 597/597
f 600/600 602/602 603/603
f 604/604 605/605 603/603
f 603/603 602/602 604/604
f 604/604 606/606 607/607
f 606/606 608/608 609/609
f 609/609 607/607 606/606
f 610/610 611/611 609/609
f 609/609 608/608 610/610
f 612/612 613/613 614/614
f 613/613 615/615 611/611
f 613/613 612/612 615/615
f 611/611 610/610 613/613
f 616/616 617/617 612/612
f 618/618 619/619 620/620
f 619/619 621/621 617/617
f 619/619 618/618 621/621
f 617/617 616/616 619/619
f 622/622 623/623 624/624
f 624/624 625/625 622/622
f 624/624 618/618 625/625
f 620/620 625/625 618/618
f 614/614 616/616 612/612
f 607/607 605/605 604/604
f 603/603 601/601 600/600
f 599/599 626/626 597/597
f 627/627 628/628 629/629
f 629/629 630/630 627/627
f 631/631 632/632 633/633
f 633/633 634/634 631/631
f 635/635 636/636 637/637
f 638/638 639/639 640/640
f 637/637 638/638 635/635
f 641/641 642/642 643/643
f 641/641 644/644 645/645
f 646/646 647/647 648/648
f 649/649 650/650 651/651
f 652/652 653/653 650/650
f 636/636 652/652 654/654
f 637/637 639/639 638/638
f 645/645 655/655 641/641
f 646/646 656/656 647/647
f 657/657 658/658 659/659
f 657/657 649/649 660/660
f 649/649 661/661 662/662
f 650/650 663/663 651/651
f 650/650 664/664 652/652
f 640/640 665/665 638/638
f 643/643 644/644 641/641
f 648/648 666/666 646/646
f 659/659 667/667 657/657
f 649/649 668/668 660/660
f 651/651 661/661 649/649
f 664/664 654/654 652/652
f 639/639 669/669 640/640
f 670/670 671/671 672/672
f 642/642 646/646 643/643
f 646/646 673/673 656/656
f 660/660 658/658 657/657
f 653/653 663/663 650/650
f 654/654 637/637 636/636
f 674/674 675/675 670/670
f 670/670 675/675 671/671
f 676/676 677/677 678/678
f 666/666 643/643 646/646
f 679/679 676/676 680/680
f 681/681 682/682 683/683
f 684/684 685/685 686/686
f 662/662 668/668 649/649
f 639/639 687/687 669/669
f 638/638 688/688 689/689
f 638/638 657/657 690/690
f 687/687 639/639 674/674
f 672/672 691/691 670/670
f 692/692 693/693 694/694
f 678/678 672/672 676/676
f 695/695 676/676 679/679
f 685/685 645/645 696/696
f 644/644 697/697 645/645
f 676/676 698/698 680/680
f 683/683 699/699 700/700
f 685/685 701/701 702/702
f 685/685 684/684 703/703
f 685/685 704/704 686/686
f 685/685 705/705 706/706
f 665/665 707/707 638/638
f 690/690 688/688 638/638
f 670/670 708/708 674/674
f 693/693 709/709 710/710
f 694/694 707/707 692/692
f 676/676 711/711 677/677
f 679/679 693/693 695/695
f 645/645 697/697 696/696
f 680/680 673/673 679/679
f 681/681 712/712 682/682
f 681/681 686/686 713/713
f 703/703 701/701 685/685
f 706/706 704/704 685/685
f 689/689 635/635 638/638
f 672/672 714/714 691/691
f 692/692 709/709 693/693
f 695/695 711/711 676/676
f 646/646 679/679 673/673
f 647/647 683/683 715/715
f 713/713 712/712 681/681
f 683/683 647/647 716/716
f 676/676 717/717 718/718
f 676/676 702/702 719/719
f 686/686 681/681 684/684
f 674/674 708/708 687/687
f 678/678 714/714 672/672
f 715/715 648/648 647/647
f 716/716 699/699 683/683
f 719/719 717/717 676/676
f 685/685 720/720 705/705
f 707/707 694/694 721/721
f 710/710 695/695 693/693
f 683/683 700/700 681/681
f 702/702 676/676 685/685
f 667/667 690/690 657/657
f 718/718 698/698 676/676
f 707/707 722/722 723/723
f 696/696 720/720 685/685
f 721/721 722/722 707/707
f 723/723 638/638 707/707
f 724/724 725/725 726/726
f 727/727 724/724 728/728
f 729/729 727/727 730/730
f 731/731 729/729 732/732
f 733/733 731/731 734/734
f 735/735 733/733 736/736
f 737/737 735/735 738/738
f 739/739 737/737 740/740
f 741/741 739/739 742/742
f 743/743 741/741 744/744
f 745/745 743/743 746/746
f 747/747 745/745 748/748
f 749/749 747/747 750/750
f 751/751 749/749 752/752
f 753/753 751/751 754/754
f 725/725 753/753 755/755
f 755/755 726/726 725/725
f 754/754 755/755 753/753
f 752/752 754/754 751/751
f 750/750 752/752 749/749
f 748/748 750/750 747/747
f 746/746 748/748 745/745
f 744/744 746/746 743/743
f 742/742 744/744 741/741
f 740/740 742/742 739/739
f 738/738 740/740 737/737
f 736/736 738/738 735/735
f 734/734 736/736 733/733
f 732/732 734/734 731/731
f 730/730 732/732 729/729
f 728/728 730/730 727/727
f 726/726 728/728 724/724
f 756/756 757/757 758/758
f 759/759 756/756 760/760
f 761/761 759/759 762/762
f 763/763 761/761 764/764
f 765/765 763/763 766/766
f 767/767 765/765 768/768
f 769/769 767/767 770/770
f 771/771 769/769 772/772
f 773/773 771/771 774/774
f 775/775 773/773 776/776
f 777/777 775/775 778/778
f 779/779 777/777 780/780
f 781/781 779/779 782/782
f 783/783 781/781 784/784
f 785/785 783/783 786/786
f 757/757 785/785 787/787
f 787/787 758/758 757/757
f 786/786 787/787 785/785
f 784/784 786/786 783/783
f 782/782 784/784 781/781
f 780/780 782/782 779/779
f 778/778 780/780 777/777
f 776/776 778/778 775/775
f 774/774 776/776 773/773
f 772/772 774/774 771/771
f 770/770 772/772 769/769
f 768/768 770/770 767/767
f 766/766 768/768 765/765
f 764/764 766/766 763/763
f 762/762 764/764 761/761
f 760/760 762/762 759/759
f 758/758 760/760 756/756
f 788/788 789/789 790/790
f 791/791 788/788 792/792
f 793/793 791/791 794/794
f 795/795 793/793 796/796
f 797/797 795/795 798/798
f 799/799 797/797 800/800
f 801/801 799/799 802/802
f 803/803 801/801 804/804
f 805/805 803/803 806/806
f 807/807 805/805 808/808
f 809/809 807/807 810/810
f 811/811 809/809 812/812
f 813/813 811/811 814/814
f 815/815 813/813 816/816
f 817/817 815/815 818/818
f 789/789 817/817 819/819
f 819/819 790/790 789/789
f 818/818 819/819 817/817
f 816/816 818/818 815/815
f 814/814 816/816 813/813
f 812/812 814/814 811/811
f 810/810 812/812 809/809
f 808/808 810/810 807/807
f 806/806 808/808 805/805
f 804/804 806/806 803/803
f 802/802 804/804 801/801
f 800/800 802/802 799/799
f 798/798 800/800 797/797
f 796/796 798/798 795/795
f 794/794 796/796 793/793
f 792/792 794/794 791/791
f 790/790 792/792 788/788
f 820/820 821/821 822/822
f 822/822 823/823 820/820
f 824/824 825/825 826/826
f 827/827 824/824 828/828
f 829/829 827/827 830/830
f 831/831 829/829 832/832
f 833/833 831/831 834/834
f 835/835 833/833 836/836
f 837/837 835/835 838/838
f 839/839 837/837 840/840
f 840/840 841/841 839/839
f 838/838 840/840 837/837
f 836/836 838/838 835/835
f 834/834 836/836 833/833
f 832/832 834/834 831/831
f 830/830 832/832 829/829
f 828/828 830/830 827/827
f 826/826 828/828 824/824
f 842/842 843/843 844/844
f 845/845 844/844 846/846
f 846/846 847/847 845/845
f 844/844 845/845 842/842
f 848/848 849/849 850/850
f 851/851 850/850 852/852
f 852/852 853/853 851/851
f 850/850 851/851 848/848
f 854/854 855/855 856/856
f 857/857 854/854 858/858
f 859/859 857/857 860/860
f 861/861 859/859 862/862
f 862/862 863/863 861/861
f 860/860 862/862 859/859
f 858/858 860/860 857/857
f 856/856 858/858 854/854
f 864/864 865/865 866/866
f 866/866 867/867 864/864
f 868/868 869/869 870/870
f 870/870 871/871 868/868
f 872/872 873/873 874/874
f 874/874 875/875 872/872
f 876/876 877/877 878/878
f 878/878 879/879 876/876
f 880/880 881/881 882/882
f 882/882 883/883 880/880
f 884/884 885/885 886/886
f 886/886 887/887 884/884
f 886/886 888/888 889/889
f 890/890 891/891 892/892
f 884/884 887/887 893/893
f 889/889 894/894 886/886
f 891/891 895/895 892/892
f 889/889 896/896 897/897
f 898/898 899/899 891/891
f 900/900 901/901 902/902
f 900/900 903/903 904/904
f 905/905 906/906 907/907
f 885/885 888/888 886/886
f 892/892 908/908 890/890
f 889/889 909/909 896/896
f 891/891 910/910 898/898
f 911/911 912/912 898/898
f 913/913 914/914 915/915
f 916/916 917/917 918/918
f 904/904 919/919 900/900
f 906/906 920/920 907/907
f 906/906 891/891 921/921
f 908/908 884/884 890/890
f 896/896 922/922 897/897
f 922/922 923/923 924/924
f 924/924 907/907 925/925
f 898/898 926/926 911/911
f 915/915 911/911 913/913
f 918/918 927/927 928/928
f 929/929 930/930 931/931
f 903/903 932/932 904/904
f 903/903 933/933 934/934
f 906/906 935/935 936/936
f 907/907 924/924 905/905
f 891/891 890/890 921/921
f 885/885 918/918 888/888
f 889/889 937/937 909/909
f 889/889 904/904 938/938
f 922/922 939/939 923/923
f 925/925 940/940 924/924
f 910/910 926/926 898/898
f 915/915 941/941 911/911
f 916/916 913/913 917/917
f 942/942 943/943 944/944
f 942/942 945/945 946/946
f 942/942 947/947 948/948
f 947/947 949/949 950/950
f 931/931 947/947 929/929
f 951/951 929/929 952/952
f 953/953 913/913 911/911
f 904/904 954/954 919/919
f 903/903 936/936 933/933
f 906/906 955/955 935/935
f 906/906 956/956 920/920
f 893/893 890/890 884/884
f 938/938 937/937 889/889
f 940/940 957/957 924/924
f 922/922 896/896 958/958
f 911/911 959/959 912/912
f 913/913 916/916 914/914
f 918/918 960/960 927/927
f 946/946 943/943 942/942
f 947/947 961/961 948/948
f 931/931 949/949 947/947
f 929/929 951/951 962/962
f 929/929 963/963 952/952
f 963/963 929/929 953/953
f 964/964 965/965 966/966
f 934/934 932/932 903/903
f 905/905 955/955 906/906
f 906/906 967/967 968/968
f 897/897 894/894 889/889
f 958/958 939/939 922/922
f 941/941 959/959 911/911
f 918/918 885/885 960/960
f 948/948 945/945 942/942
f 962/962 930/930 929/929
f 911/911 963/963 953/953
f 969/969 952/952 970/970
f 964/964 970/970 965/965
f 904/904 889/889 954/954
f 968/968 956/956 906/906
f 924/924 957/957 922/922
f 918/918 928/928 916/916
f 950/950 961/961 947/947
f 970/970 964/964 969/969
f 966/966 971/971 972/972
f 936/936 903/903 906/906
f 899/899 895/895 891/891
f 952/952 969/969 951/951
f 966/966 944/944 971/971
f 921/921 967/967 906/906
f 966/966 972/972 964/964
f 944/944 966/966 942/942
f 902/902 903/903 900/900
f 973/973 974/974 975/975
f 976/976 973/973 977/977
f 978/978 976/976 979/979
f 980/980 978/978 981/981
f 982/982 980/980 983/983
f 984/984 982/982 985/985
f 986/986 984/984 987/987
f 988/988 986/986 989/989
f 990/990 988/988 991/991
f 992/992 990/990 993/993
f 994/994 992/992 995/995
f 996/996 994/994 997/997
f 998/998 996/996 999/999
f 1000/1000 998/998 1001/1001
f 1002/1002 1000/1000 1003/1003
f 974/974 1002/1002 1004/1004
f 1004/1004 975/975 974/974
f 1003/1003 1004/1004 1002/1002
f 1001/1001 1003/1003 1000/1000
f 999/999 1001/1001 998/998
f 997/997 999/999 996/996
f 995/995 997/997 994/994
f 993/993 995/995 992/992
f 991/991 993/993 990/990
f 989/989 991/991 988/988
f 987/987 989/989 986/986
f 985/985 987/987 984/984
f 983/983 985/985 982/982
f 981/981 983/983 980/980
f 979/979 981/981 978/978
f 977/977 979/979 976/976
f 975/975 977/977 973/973

