{
    "accessors": [
        {
            "bufferView": 0,
            "componentType": 5126,
            "count": 32,
            "max": [
                -0.2712000012397766,
                0.030933765694499016,
                0.19130000472068787
            ],
            "min": [
                -0.2745000123977661,
                0.02763376571238041,
                0.1899999976158142
            ],
            "name": "mesh11565_coord_accessor",
            "type": "VEC3"
        },
        {
            "bufferView": 1,
            "componentType": 5126,
            "count": 32,
            "max": [
                1.0,
                1.0,
                2.821196490854341e-16
            ],
            "min": [
                -1.0,
                -1.0,
                -2.821196490854341e-16
            ],
            "name": "mesh11565_norm_accessor",
            "type": "VEC3"
        },
        {
            "bufferView": 2,
            "componentType": 5125,
            "count": 96,
            "max": [
                31
            ],
            "min": [
                0
            ],
            "name": "mesh11565_idx_accessor",
            "type": "SCALAR"
        },
        {
            "bufferView": 3,
            "componentType": 5126,
            "count": 293,
            "max": [
                0.2874999940395355,
                0.05799778923392296,
                0.1899999976158142
            ],
            "min": [
                -0.2874999940395355,
                -0.16899999976158142,
                0.1899999976158142
            ],
            "name": "mesh11566_coord_accessor",
            "type": "VEC3"
        },
        {
            "bufferView": 4,
            "componentType": 5126,
            "count": 293,
            "max": [
                6.123234262925839e-17,
                2.800008226376571e-16,
                -1.0
            ],
            "min": [
                6.123234262925839e-17,
                2.800008226376571e-16,
                -1.0
            ],
            "name": "mesh11566_norm_accessor",
            "type": "VEC3"
        },
        {
            "bufferView": 5,
            "componentType": 5125,
            "count": 1050,
            "max": [
                292
            ],
            "min": [
                0
            ],
            "name": "mesh11566_idx_accessor",
            "type": "SCALAR"
        },
        {
            "bufferView": 6,
            "componentType": 5126,
            "count": 293,
            "max": [
                0.2874999940395355,
                0.05799778923392296,
                0.19130000472068787
            ],
            "min": [
                -0.2874999940395355,
                -0.16899999976158142,
                0.19130000472068787
            ],
            "name": "mesh11567_coord_accessor",
            "type": "VEC3"
        },
        {
            "bufferView": 7,
            "componentType": 5126,
            "count": 293,
            "max": [
                -6.123234262925839e-17,
                -2.800008226376571e-16,
                1.0
            ],
            "min": [
                -6.123234262925839e-17,
                -2.800008226376571e-16,
                1.0
            ],
            "name": "mesh11567_norm_accessor",
            "type": "VEC3"
        },
        {
            "bufferView": 8,
            "componentType": 5125,
            "count": 1050,
            "max": [
                292
            ],
            "min": [
                0
            ],
            "name": "mesh11567_idx_accessor",
            "type": "SCALAR"
        },
        {
            "bufferView": 9,
            "componentType": 5126,
            "count": 6,
            "max": [
                0.09035000205039978,
                -0.05580348148941994,
                0.19130000472068787
            ],
            "min": [
                -0.09035000205039978,
                -0.05580348148941994,
                0.1899999976158142
            ],
            "name": "mesh11568_coord_accessor",
            "type": "VEC3"
        },
        {
            "bufferView": 10,
            "componentType": 5126,
            "count": 6,
            "max": [
                0.0,
                1.0,
                2.800008226376571e-16
            ],
            "min": [
                0.0,
                1.0,
                2.800008226376571e-16
            ],
            "name": "mesh11568_norm_accessor",
            "type": "VEC3"
        },
        {
            "bufferView": 11,
            "componentType": 5125,
            "count": 12,
            "max": [
                5
            ],
            "min": [
                0
            ],
            "name": "mesh11568_idx_accessor",
            "type": "SCALAR"
        },
        {
            "bufferView": 12,
            "componentType": 5126,
            "count": 10,
            "max": [
                0.09735000133514404,
                -0.048803482204675674,
                0.19130000472068787
            ],
            "min": [
                0.09035000205039978,
                -0.05580348148941994,
                0.1899999976158142
            ],
            "name": "mesh11569_coord_accessor",
            "type": "VEC3"
        },
        {
            "bufferView": 13,
            "componentType": 5126,
            "count": 10,
            "max": [
                -5.685860032496588e-18,
                1.0,
                2.800008226376571e-16
            ],
            "min": [
                -1.0,
                1.3827997517108954e-14,
                -6.123234262925839e-17
            ],
            "name": "mesh11569_norm_accessor",
            "type": "VEC3"
        },
        {
            "bufferView": 14,
            "componentType": 5125,
            "count": 24,
            "max": [
                9
            ],
            "min": [
                0
            ],
            "name": "mesh11569_idx_accessor",
            "type": "SCALAR"
        },
        {
            "bufferView": 15,
            "componentType": 5126,
            "count": 10,
            "max": [
                0.09735000133514404,
                0.05499779060482979,
                0.19130000472068787
            ],
            "min": [
                0.09735000133514404,
                -0.048803482204675674,
                0.1899999976158142
            ],
            "name": "mesh11570_coord_accessor",
            "type": "VEC3"
        },
        {
            "bufferView": 16,
            "componentType": 5126,
            "count": 10,
            "max": [
                -1.0,
                3.7007432742450306e-15,
                -6.123234262925839e-17
            ],
            "min": [
                -1.0,
                3.7007432742450306e-15,
                -6.123234262925839e-17
            ],
            "name": "mesh11570_norm_accessor",
            "type": "VEC3"
        },
        {
            "bufferView": 17,
            "componentType": 5125,
            "count": 24,
            "max": [
                9
            ],
            "min": [
                0
            ],
            "name": "mesh11570_idx_accessor",
            "type": "SCALAR"
        },
        {
            "bufferView": 18,
            "componentType": 5126,
            "count": 12,
            "max": [
                0.28450000286102295,
                0.05799778923392296,
                0.19130000472068787
            ],
            "min": [
                0.10034999996423721,
                0.05799778923392296,
                0.1899999976158142
            ],
            "name": "mesh11571_coord_accessor",
            "type": "VEC3"
        },
        {
            "bufferView": 19,
            "componentType": 5126,
            "count": 12,
            "max": [
                -1.3672737562334482e-32,
                1.0,
                2.800008226376571e-16
            ],
            "min": [
                -1.3672737562334482e-32,
                1.0,
                2.800008226376571e-16
            ],
            "name": "mesh11571_norm_accessor",
            "type": "VEC3"
        },
        {
            "bufferView": 20,
            "componentType": 5125,
            "count": 30,
            "max": [
                11
            ],
            "min": [
                0
            ],
            "name": "mesh11571_idx_accessor",
            "type": "SCALAR"
        },
        {
            "bufferView": 21,
            "componentType": 5126,
            "count": 12,
            "max": [
                0.2874999940395355,
                0.05499779060482979,
                0.19130000472068787
            ],
            "min": [
                0.2874999940395355,
                -0.12744449079036713,
                0.1899999976158142
            ],
            "name": "mesh11572_coord_accessor",
            "type": "VEC3"
        },
        {
            "bufferView": 22,
            "componentType": 5126,
            "count": 12,
            "max": [
                1.0,
                -0.0,
                6.123234262925839e-17
            ],
            "min": [
                1.0,
                -0.0,
                6.123234262925839e-17
            ],
            "name": "mesh11572_norm_accessor",
            "type": "VEC3"
        },
        {
            "bufferView": 23,
            "componentType": 5125,
            "count": 30,
            "max": [
                11
            ],
            "min": [
                0
            ],
            "name": "mesh11572_idx_accessor",
            "type": "SCALAR"
        },
        {
            "bufferView": 24,
            "componentType": 5126,
            "count": 6,
            "max": [
                0.28450000286102295,
                -0.1304444968700409,
                0.19130000472068787
            ],
            "min": [
                0.22717410326004028,
                -0.1304444968700409,
                0.1899999976158142
            ],
            "name": "mesh11573_coord_accessor",
            "type": "VEC3"
        },
        {
            "bufferView": 25,
            "componentType": 5126,
            "count": 6,
            "max": [
                -0.0,
                -1.0,
                -2.800008226376571e-16
            ],
            "min": [
                -0.0,
                -1.0,
                -2.800008226376571e-16
            ],
            "name": "mesh11573_norm_accessor",
            "type": "VEC3"
        },
        {
            "bufferView": 26,
            "componentType": 5125,
            "count": 12,
            "max": [
                5
            ],
            "min": [
                0
            ],
            "name": "mesh11573_idx_accessor",
            "type": "SCALAR"
        },
        {
            "bufferView": 27,
            "componentType": 5126,
            "count": 6,
            "max": [
                0.22717410326004028,
                -0.1304444968700409,
                0.19130000472068787
            ],
            "min": [
                0.22081013023853302,
                -0.13308054208755493,
                0.1899999976158142
            ],
            "name": "mesh11574_coord_accessor",
            "type": "VEC3"
        },
        {
            "bufferView": 28,
            "componentType": 5126,
            "count": 6,
            "max": [
                0.7071067690849304,
                -0.7071067690849304,
                -1.54692687479877e-16
            ],
            "min": [
                -1.2246468525851679e-16,
                -1.0,
                -2.800008226376571e-16
            ],
            "name": "mesh11574_norm_accessor",
            "type": "VEC3"
        },
        {
            "bufferView": 29,
            "componentType": 5125,
            "count": 12,
            "max": [
                5
            ],
            "min": [
                0
            ],
            "name": "mesh11574_idx_accessor",
            "type": "SCALAR"
        },
        {
            "bufferView": 30,
            "componentType": 5126,
            "count": 6,
            "max": [
                0.22081013023853302,
                -0.13308054208755493,
                0.19130000472068787
            ],
            "min": [
                0.18694092333316803,
                -0.16694974899291992,
                0.1899999976158142
            ],
            "name": "mesh11575_coord_accessor",
            "type": "VEC3"
        },
        {
            "bufferView": 31,
            "componentType": 5126,
            "count": 6,
            "max": [
                0.7071067690849304,
                -0.7071067690849304,
                -1.54692687479877e-16
            ],
            "min": [
                0.7071067690849304,
                -0.7071067690849304,
                -1.54692687479877e-16
            ],
            "name": "mesh11575_norm_accessor",
            "type": "VEC3"
        },
        {
            "bufferView": 32,
            "componentType": 5125,
            "count": 12,
            "max": [
                5
            ],
            "min": [
                0
            ],
            "name": "mesh11575_idx_accessor",
            "type": "SCALAR"
        },
        {
            "bufferView": 33,
            "componentType": 5126,
            "count": 6,
            "max": [
                0.18694092333316803,
                -0.16694974899291992,
                0.19130000472068787
            ],
            "min": [
                0.18199117481708527,
                -0.16899999976158142,
                0.1899999976158142
            ],
            "name": "mesh11576_coord_accessor",
            "type": "VEC3"
        },
        {
            "bufferView": 34,
            "componentType": 5126,
            "count": 6,
            "max": [
                0.7071067690849304,
                -0.7071067690849304,
                -1.54692687479877e-16
            ],
            "min": [
                5.685860032496588e-18,
                -1.0,
                -2.800008226376571e-16
            ],
            "name": "mesh11576_norm_accessor",
            "type": "VEC3"
        },
        {
            "bufferView": 35,
            "componentType": 5125,
            "count": 12,
            "max": [
                5
            ],
            "min": [
                0
            ],
            "name": "mesh11576_idx_accessor",
            "type": "SCALAR"
        },
        {
            "bufferView": 36,
            "componentType": 5126,
            "count": 16,
            "max": [
                0.18199117481708527,
                -0.16899999976158142,
                0.19130000472068787
            ],
            "min": [
                -0.18199117481708527,
                -0.16899999976158142,
                0.1899999976158142
            ],
            "name": "mesh11577_coord_accessor",
            "type": "VEC3"
        },
        {
            "bufferView": 37,
            "componentType": 5126,
            "count": 16,
            "max": [
                2.135154126774981e-32,
                -1.0,
                -2.800008226376571e-16
            ],
            "min": [
                2.135154126774981e-32,
                -1.0,
                -2.800008226376571e-16
            ],
            "name": "mesh11577_norm_accessor",
            "type": "VEC3"
        },
        {
            "bufferView": 38,
            "componentType": 5125,
            "count": 42,
            "max": [
                15
            ],
            "min": [
                0
            ],
            "name": "mesh11577_idx_accessor",
            "type": "SCALAR"
        },
        {
            "bufferView": 39,
            "componentType": 5126,
            "count": 6,
            "max": [
                -0.18199117481708527,
                -0.16694974899291992,
                0.19130000472068787
            ],
            "min": [
                -0.18694092333316803,
                -0.16899999976158142,
                0.1899999976158142
            ],
            "name": "mesh11578_coord_accessor",
            "type": "VEC3"
        },
        {
            "bufferView": 40,
            "componentType": 5126,
            "count": 6,
            "max": [
                -2.4492937051703357e-16,
                -0.7071067690849304,
                -2.4128829351414255e-16
            ],
            "min": [
                -0.7071067690849304,
                -1.0,
                -2.821196490854341e-16
            ],
            "name": "mesh11578_norm_accessor",
            "type": "VEC3"
        },
        {
            "bufferView": 41,
            "componentType": 5125,
            "count": 12,
            "max": [
                5
            ],
            "min": [
                0
            ],
            "name": "mesh11578_idx_accessor",
            "type": "SCALAR"
        },
        {
            "bufferView": 42,
            "componentType": 5126,
            "count": 6,
            "max": [
                -0.18694092333316803,
                -0.13308054208755493,
                0.19130000472068787
            ],
            "min": [
                -0.22081013023853302,
                -0.16694974899291992,
                0.1899999976158142
            ],
            "name": "mesh11579_coord_accessor",
            "type": "VEC3"
        },
        {
            "bufferView": 43,
            "componentType": 5126,
            "count": 6,
            "max": [
                -0.7071067690849304,
                -0.7071067690849304,
                -2.4128829351414255e-16
            ],
            "min": [
                -0.7071067690849304,
                -0.7071067690849304,
                -2.4128829351414255e-16
            ],
            "name": "mesh11579_norm_accessor",
            "type": "VEC3"
        },
        {
            "bufferView": 44,
            "componentType": 5125,
            "count": 12,
            "max": [
                5
            ],
            "min": [
                0
            ],
            "name": "mesh11579_idx_accessor",
            "type": "SCALAR"
        },
        {
            "bufferView": 45,
            "componentType": 5126,
            "count": 6,
            "max": [
                -0.22081013023853302,
                -0.1304444968700409,
                0.19130000472068787
            ],
            "min": [
                -0.22717410326004028,
                -0.13308054208755493,
                0.1899999976158142
            ],
            "name": "mesh11580_coord_accessor",
            "type": "VEC3"
        },
        {
            "bufferView": 46,
            "componentType": 5126,
            "count": 6,
            "max": [
                -1.2246468525851679e-16,
                -0.7071067690849304,
                -2.4128829351414255e-16
            ],
            "min": [
                -0.7071067690849304,
                -1.0,
                -2.821196490854341e-16
            ],
            "name": "mesh11580_norm_accessor",
            "type": "VEC3"
        },
        {
            "bufferView": 47,
            "componentType": 5125,
            "count": 12,
            "max": [
                5
            ],
            "min": [
                0
            ],
            "name": "mesh11580_idx_accessor",
            "type": "SCALAR"
        },
        {
            "bufferView": 48,
            "componentType": 5126,
            "count": 8,
            "max": [
                -0.22717410326004028,
                -0.1304444968700409,
                0.19130000472068787
            ],
            "min": [
                -0.28450000286102295,
                -0.1304444968700409,
                0.1899999976158142
            ],
            "name": "mesh11581_coord_accessor",
            "type": "VEC3"
        },
        {
            "bufferView": 49,
            "componentType": 5126,
            "count": 8,
            "max": [
                0.0,
                -1.0,
                -2.800008226376571e-16
            ],
            "min": [
                0.0,
                -1.0,
                -2.800008226376571e-16
            ],
            "name": "mesh11581_norm_accessor",
            "type": "VEC3"
        },
        {
            "bufferView": 50,
            "componentType": 5125,
            "count": 18,
            "max": [
                7
            ],
            "min": [
                0
            ],
            "name": "mesh11581_idx_accessor",
            "type": "SCALAR"
        },
        {
            "bufferView": 51,
            "componentType": 5126,
            "count": 12,
            "max": [
                -0.2874999940395355,
                0.05499779060482979,
                0.19130000472068787
            ],
            "min": [
                -0.2874999940395355,
                -0.12744449079036713,
                0.1899999976158142
            ],
            "name": "mesh11582_coord_accessor",
            "type": "VEC3"
        },
        {
            "bufferView": 52,
            "componentType": 5126,
            "count": 12,
            "max": [
                -1.0,
                0.0,
                -6.123234262925839e-17
            ],
            "min": [
                -1.0,
                0.0,
                -6.123234262925839e-17
            ],
            "name": "mesh11582_norm_accessor",
            "type": "VEC3"
        },
        {
            "bufferView": 53,
            "componentType": 5125,
            "count": 30,
            "max": [
                11
            ],
            "min": [
                0
            ],
            "name": "mesh11582_idx_accessor",
            "type": "SCALAR"
        },
        {
            "bufferView": 54,
            "componentType": 5126,
            "count": 12,
            "max": [
                -0.10034999996423721,
                0.05799778923392296,
                0.19130000472068787
            ],
            "min": [
                -0.28450000286102295,
                0.05799778923392296,
                0.1899999976158142
            ],
            "name": "mesh11583_coord_accessor",
            "type": "VEC3"
        },
        {
            "bufferView": 55,
            "componentType": 5126,
            "count": 12,
            "max": [
                -1.3672737562334482e-32,
                1.0,
                2.800008226376571e-16
            ],
            "min": [
                -1.3672737562334482e-32,
                1.0,
                2.800008226376571e-16
            ],
            "name": "mesh11583_norm_accessor",
            "type": "VEC3"
        },
        {
            "bufferView": 56,
            "componentType": 5125,
            "count": 30,
            "max": [
                11
            ],
            "min": [
                0
            ],
            "name": "mesh11583_idx_accessor",
            "type": "SCALAR"
        },
        {
            "bufferView": 57,
            "componentType": 5126,
            "count": 10,
            "max": [
                -0.09735000133514404,
                0.05499779060482979,
                0.19130000472068787
            ],
            "min": [
                -0.09735000133514404,
                -0.048803482204675674,
                0.1899999976158142
            ],
            "name": "mesh11584_coord_accessor",
            "type": "VEC3"
        },
        {
            "bufferView": 58,
            "componentType": 5126,
            "count": 10,
            "max": [
                1.0,
                0.0,
                6.123234262925839e-17
            ],
            "min": [
                1.0,
                0.0,
                6.123234262925839e-17
            ],
            "name": "mesh11584_norm_accessor",
            "type": "VEC3"
        },
        {
            "bufferView": 59,
            "componentType": 5125,
            "count": 24,
            "max": [
                9
            ],
            "min": [
                0
            ],
            "name": "mesh11584_idx_accessor",
            "type": "SCALAR"
        },
        {
            "bufferView": 60,
            "componentType": 5126,
            "count": 10,
            "max": [
                -0.09035000205039978,
                -0.048803482204675674,
                0.19130000472068787
            ],
            "min": [
                -0.09735000133514404,
                -0.05580348148941994,
                0.1899999976158142
            ],
            "name": "mesh11585_coord_accessor",
            "type": "VEC3"
        },
        {
            "bufferView": 61,
            "componentType": 5126,
            "count": 10,
            "max": [
                1.0,
                1.0,
                2.821196490854341e-16
            ],
            "min": [
                2.4492937051703357e-16,
                -1.8369701465288538e-16,
                6.123234262925839e-17
            ],
            "name": "mesh11585_norm_accessor",
            "type": "VEC3"
        },
        {
            "bufferView": 62,
            "componentType": 5125,
            "count": 24,
            "max": [
                9
            ],
            "min": [
                0
            ],
            "name": "mesh11585_idx_accessor",
            "type": "SCALAR"
        },
        {
            "bufferView": 63,
            "componentType": 5126,
            "count": 10,
            "max": [
                -0.28450000286102295,
                0.05799778923392296,
                0.19130000472068787
            ],
            "min": [
                -0.2874999940395355,
                0.05499779060482979,
                0.1899999976158142
            ],
            "name": "mesh11586_coord_accessor",
            "type": "VEC3"
        },
        {
            "bufferView": 64,
            "componentType": 5126,
            "count": 10,
            "max": [
                1.2246468525851679e-16,
                1.0,
                2.800008226376571e-16
            ],
            "min": [
                -1.0,
                1.8369701465288538e-16,
                -6.123234262925839e-17
            ],
            "name": "mesh11586_norm_accessor",
            "type": "VEC3"
        },
        {
            "bufferView": 65,
            "componentType": 5125,
            "count": 24,
            "max": [
                9
            ],
            "min": [
                0
            ],
            "name": "mesh11586_idx_accessor",
            "type": "SCALAR"
        },
        {
            "bufferView": 66,
            "componentType": 5126,
            "count": 10,
            "max": [
                -0.28450000286102295,
                -0.12744449079036713,
                0.19130000472068787
            ],
            "min": [
                -0.2874999940395355,
                -0.1304444968700409,
                0.1899999976158142
            ],
            "name": "mesh11587_coord_accessor",
            "type": "VEC3"
        },
        {
            "bufferView": 67,
            "componentType": 5126,
            "count": 10,
            "max": [
                1.2246468525851679e-16,
                -1.8369701465288538e-16,
                -6.123234262925839e-17
            ],
            "min": [
                -1.0,
                -1.0,
                -2.821196490854341e-16
            ],
            "name": "mesh11587_norm_accessor",
            "type": "VEC3"
        },
        {
            "bufferView": 68,
            "componentType": 5125,
            "count": 24,
            "max": [
                9
            ],
            "min": [
                0
            ],
            "name": "mesh11587_idx_accessor",
            "type": "SCALAR"
        },
        {
            "bufferView": 69,
            "componentType": 5126,
            "count": 10,
            "max": [
                0.2874999940395355,
                -0.12744449079036713,
                0.19130000472068787
            ],
            "min": [
                0.28450000286102295,
                -0.1304444968700409,
                0.1899999976158142
            ],
            "name": "mesh11588_coord_accessor",
            "type": "VEC3"
        },
        {
            "bufferView": 70,
            "componentType": 5126,
            "count": 10,
            "max": [
                1.0,
                6.123234262925839e-17,
                6.123234262925839e-17
            ],
            "min": [
                1.2246468525851679e-16,
                -1.0,
                -2.800008226376571e-16
            ],
            "name": "mesh11588_norm_accessor",
            "type": "VEC3"
        },
        {
            "bufferView": 71,
            "componentType": 5125,
            "count": 24,
            "max": [
                9
            ],
            "min": [
                0
            ],
            "name": "mesh11588_idx_accessor",
            "type": "SCALAR"
        },
        {
            "bufferView": 72,
            "componentType": 5126,
            "count": 10,
            "max": [
                0.2874999940395355,
                0.05799778923392296,
                0.19130000472068787
            ],
            "min": [
                0.28450000286102295,
                0.05499779060482979,
                0.1899999976158142
            ],
            "name": "mesh11589_coord_accessor",
            "type": "VEC3"
        },
        {
            "bufferView": 73,
            "componentType": 5126,
            "count": 10,
            "max": [
                1.0,
                1.0,
                2.821196490854341e-16
            ],
            "min": [
                1.3267006742492039e-17,
                6.123234262925839e-17,
                6.123234262925839e-17
            ],
            "name": "mesh11589_norm_accessor",
            "type": "VEC3"
        },
        {
            "bufferView": 74,
            "componentType": 5125,
            "count": 24,
            "max": [
                9
            ],
            "min": [
                0
            ],
            "name": "mesh11589_idx_accessor",
            "type": "SCALAR"
        },
        {
            "bufferView": 75,
            "componentType": 5126,
            "count": 10,
            "max": [
                0.10034999996423721,
                0.05799778923392296,
                0.19130000472068787
            ],
            "min": [
                0.09735000133514404,
                0.05499779060482979,
                0.1899999976158142
            ],
            "name": "mesh11590_coord_accessor",
            "type": "VEC3"
        },
        {
            "bufferView": 76,
            "componentType": 5126,
            "count": 10,
            "max": [
                -2.4492937051703357e-16,
                1.0,
                2.800008226376571e-16
            ],
            "min": [
                -1.0,
                -1.8369701465288538e-16,
                -6.123234262925839e-17
            ],
            "name": "mesh11590_norm_accessor",
            "type": "VEC3"
        },
        {
            "bufferView": 77,
            "componentType": 5125,
            "count": 24,
            "max": [
                9
            ],
            "min": [
                0
            ],
            "name": "mesh11590_idx_accessor",
            "type": "SCALAR"
        },
        {
            "bufferView": 78,
            "componentType": 5126,
            "count": 10,
            "max": [
                -0.09735000133514404,
                0.05799778923392296,
                0.19130000472068787
            ],
            "min": [
                -0.10034999996423721,
                0.05499779060482979,
                0.1899999976158142
            ],
            "name": "mesh11591_coord_accessor",
            "type": "VEC3"
        },
        {
            "bufferView": 79,
            "componentType": 5126,
            "count": 10,
            "max": [
                1.0,
                1.0,
                2.821196490854341e-16
            ],
            "min": [
                1.2246468525851679e-16,
                1.6081226229577292e-16,
                6.123234262925839e-17
            ],
            "name": "mesh11591_norm_accessor",
            "type": "VEC3"
        },
        {
            "bufferView": 80,
            "componentType": 5125,
            "count": 24,
            "max": [
                9
            ],
            "min": [
                0
            ],
            "name": "mesh11591_idx_accessor",
            "type": "SCALAR"
        },
        {
            "bufferView": 81,
            "componentType": 5126,
            "count": 32,
            "max": [
                -0.08335000276565552,
                -0.0840662345290184,
                0.19130000472068787
            ],
            "min": [
                -0.08664999902248383,
                -0.08736623078584671,
                0.1899999976158142
            ],
            "name": "mesh11592_coord_accessor",
            "type": "VEC3"
        },
        {
            "bufferView": 82,
            "componentType": 5126,
            "count": 32,
            "max": [
                1.0,
                1.0,
                2.821196490854341e-16
            ],
            "min": [
                -1.0,
                -1.0,
                -2.821196490854341e-16
            ],
            "name": "mesh11592_norm_accessor",
            "type": "VEC3"
        },
        {
            "bufferView": 83,
            "componentType": 5125,
            "count": 96,
            "max": [
                31
            ],
            "min": [
                0
            ],
            "name": "mesh11592_idx_accessor",
            "type": "SCALAR"
        },
        {
            "bufferView": 84,
            "componentType": 5126,
            "count": 32,
            "max": [
                0.08664999902248383,
                -0.0840662345290184,
                0.19130000472068787
            ],
            "min": [
                0.08335000276565552,
                -0.08736623078584671,
                0.1899999976158142
            ],
            "name": "mesh11593_coord_accessor",
            "type": "VEC3"
        },
        {
            "bufferView": 85,
            "componentType": 5126,
            "count": 32,
            "max": [
                1.0,
                1.0,
                2.821196490854341e-16
            ],
            "min": [
                -1.0,
                -1.0,
                -2.821196490854341e-16
            ],
            "name": "mesh11593_norm_accessor",
            "type": "VEC3"
        },
        {
            "bufferView": 86,
            "componentType": 5125,
            "count": 96,
            "max": [
                31
            ],
            "min": [
                0
            ],
            "name": "mesh11593_idx_accessor",
            "type": "SCALAR"
        },
        {
            "bufferView": 87,
            "componentType": 5126,
            "count": 32,
            "max": [
                0.2745000123977661,
                0.030933765694499016,
                0.19130000472068787
            ],
            "min": [
                0.2712000012397766,
                0.02763376571238041,
                0.1899999976158142
            ],
            "name": "mesh11594_coord_accessor",
            "type": "VEC3"
        },
        {
            "bufferView": 88,
            "componentType": 5126,
            "count": 32,
            "max": [
                1.0,
                1.0,
                2.821196490854341e-16
            ],
            "min": [
                -1.0,
                -1.0,
                -2.821196490854341e-16
            ],
            "name": "mesh11594_norm_accessor",
            "type": "VEC3"
        },
        {
            "bufferView": 89,
            "componentType": 5125,
            "count": 96,
            "max": [
                31
            ],
            "min": [
                0
            ],
            "name": "mesh11594_idx_accessor",
            "type": "SCALAR"
        },
        {
            "bufferView": 90,
            "componentType": 5126,
            "count": 32,
            "max": [
                0.16597500443458557,
                -0.15045000612735748,
                0.19130000472068787
            ],
            "min": [
                0.15962499380111694,
                -0.15680000185966492,
                0.1899999976158142
            ],
            "name": "mesh11595_coord_accessor",
            "type": "VEC3"
        },
        {
            "bufferView": 91,
            "componentType": 5126,
            "count": 32,
            "max": [
                1.0,
                1.0,
                2.821196490854341e-16
            ],
            "min": [
                -1.0,
                -1.0,
                -2.821196490854341e-16
            ],
            "name": "mesh11595_norm_accessor",
            "type": "VEC3"
        },
        {
            "bufferView": 92,
            "componentType": 5125,
            "count": 96,
            "max": [
                31
            ],
            "min": [
                0
            ],
            "name": "mesh11595_idx_accessor",
            "type": "SCALAR"
        },
        {
            "bufferView": 93,
            "componentType": 5126,
            "count": 32,
            "max": [
                0.12787500023841858,
                -0.15045000612735748,
                0.19130000472068787
            ],
            "min": [
                0.12152499705553055,
                -0.15680000185966492,
                0.1899999976158142
            ],
            "name": "mesh11596_coord_accessor",
            "type": "VEC3"
        },
        {
            "bufferView": 94,
            "componentType": 5126,
            "count": 32,
            "max": [
                1.0,
                1.0,
                2.821196490854341e-16
            ],
            "min": [
                -1.0,
                -1.0,
                -2.821196490854341e-16
            ],
            "name": "mesh11596_norm_accessor",
            "type": "VEC3"
        },
        {
            "bufferView": 95,
            "componentType": 5125,
            "count": 96,
            "max": [
                31
            ],
            "min": [
                0
            ],
            "name": "mesh11596_idx_accessor",
            "type": "SCALAR"
        },
        {
            "bufferView": 96,
            "componentType": 5126,
            "count": 32,
            "max": [
                -0.12152499705553055,
                -0.15045000612735748,
                0.19130000472068787
            ],
            "min": [
                -0.12787500023841858,
                -0.15680000185966492,
                0.1899999976158142
            ],
            "name": "mesh11597_coord_accessor",
            "type": "VEC3"
        },
        {
            "bufferView": 97,
            "componentType": 5126,
            "count": 32,
            "max": [
                1.0,
                1.0,
                2.821196490854341e-16
            ],
            "min": [
                -1.0,
                -1.0,
                -2.821196490854341e-16
            ],
            "name": "mesh11597_norm_accessor",
            "type": "VEC3"
        },
        {
            "bufferView": 98,
            "componentType": 5125,
            "count": 96,
            "max": [
                31
            ],
            "min": [
                0
            ],
            "name": "mesh11597_idx_accessor",
            "type": "SCALAR"
        },
        {
            "bufferView": 99,
            "componentType": 5126,
            "count": 32,
            "max": [
                -0.15962499380111694,
                -0.15045000612735748,
                0.19130000472068787
            ],
            "min": [
                -0.16597500443458557,
                -0.15680000185966492,
                0.1899999976158142
            ],
            "name": "mesh11598_coord_accessor",
            "type": "VEC3"
        },
        {
            "bufferView": 100,
            "componentType": 5126,
            "count": 32,
            "max": [
                1.0,
                1.0,
                2.821196490854341e-16
            ],
            "min": [
                -1.0,
                -1.0,
                -2.821196490854341e-16
            ],
            "name": "mesh11598_norm_accessor",
            "type": "VEC3"
        },
        {
            "bufferView": 101,
            "componentType": 5125,
            "count": 96,
            "max": [
                31
            ],
            "min": [
                0
            ],
            "name": "mesh11598_idx_accessor",
            "type": "SCALAR"
        },
        {
            "bufferView": 102,
            "componentType": 5126,
            "count": 40,
            "max": [
                0.1946749985218048,
                0.03153376653790474,
                0.19130000472068787
            ],
            "min": [
                0.19017499685287476,
                0.027033766731619835,
                0.1899999976158142
            ],
            "name": "mesh11599_coord_accessor",
            "type": "VEC3"
        },
        {
            "bufferView": 103,
            "componentType": 5126,
            "count": 40,
            "max": [
                1.0,
                1.0,
                2.891205881527277e-16
            ],
            "min": [
                -1.0,
                -1.0,
                -2.821196490854341e-16
            ],
            "name": "mesh11599_norm_accessor",
            "type": "VEC3"
        },
        {
            "bufferView": 104,
            "componentType": 5125,
            "count": 120,
            "max": [
                39
            ],
            "min": [
                0
            ],
            "name": "mesh11599_idx_accessor",
            "type": "SCALAR"
        },
        {
            "bufferView": 105,
            "componentType": 5126,
            "count": 40,
            "max": [
                -0.19017499685287476,
                0.03153376653790474,
                0.19130000472068787
            ],
            "min": [
                -0.1946749985218048,
                0.027033766731619835,
                0.1899999976158142
            ],
            "name": "mesh11600_coord_accessor",
            "type": "VEC3"
        },
        {
            "bufferView": 106,
            "componentType": 5126,
            "count": 40,
            "max": [
                1.0,
                1.0,
                2.891205881527277e-16
            ],
            "min": [
                -1.0,
                -1.0,
                -2.821196490854341e-16
            ],
            "name": "mesh11600_norm_accessor",
            "type": "VEC3"
        },
        {
            "bufferView": 107,
            "componentType": 5125,
            "count": 120,
            "max": [
                39
            ],
            "min": [
                0
            ],
            "name": "mesh11600_idx_accessor",
            "type": "SCALAR"
        }
    ],
    "asset": {
        "generator": "ONSHAPE BY PTC INC, 1.212",
        "version": "2.0"
    },
    "bufferViews": [
        {
            "buffer": 0,
            "byteLength": 384,
            "name": "mesh11565_coord_bufferView",
            "target": 34962
        },
        {
            "buffer": 0,
            "byteLength": 384,
            "byteOffset": 384,
            "name": "mesh11565_norm_bufferView",
            "target": 34962
        },
        {
            "buffer": 0,
            "byteLength": 384,
            "byteOffset": 768,
            "name": "mesh11565_idx_bufferView",
            "target": 34963
        },
        {
            "buffer": 0,
            "byteLength": 3516,
            "byteOffset": 1152,
            "name": "mesh11566_coord_bufferView",
            "target": 34962
        },
        {
            "buffer": 0,
            "byteLength": 3516,
            "byteOffset": 4668,
            "name": "mesh11566_norm_bufferView",
            "target": 34962
        },
        {
            "buffer": 0,
            "byteLength": 4200,
            "byteOffset": 8184,
            "name": "mesh11566_idx_bufferView",
            "target": 34963
        },
        {
            "buffer": 0,
            "byteLength": 3516,
            "byteOffset": 12384,
            "name": "mesh11567_coord_bufferView",
            "target": 34962
        },
        {
            "buffer": 0,
            "byteLength": 3516,
            "byteOffset": 15900,
            "name": "mesh11567_norm_bufferView",
            "target": 34962
        },
        {
            "buffer": 0,
            "byteLength": 4200,
            "byteOffset": 19416,
            "name": "mesh11567_idx_bufferView",
            "target": 34963
        },
        {
            "buffer": 0,
            "byteLength": 72,
            "byteOffset": 23616,
            "name": "mesh11568_coord_bufferView",
            "target": 34962
        },
        {
            "buffer": 0,
            "byteLength": 72,
            "byteOffset": 23688,
            "name": "mesh11568_norm_bufferView",
            "target": 34962
        },
        {
            "buffer": 0,
            "byteLength": 48,
            "byteOffset": 23760,
            "name": "mesh11568_idx_bufferView",
            "target": 34963
        },
        {
            "buffer": 0,
            "byteLength": 120,
            "byteOffset": 23808,
            "name": "mesh11569_coord_bufferView",
            "target": 34962
        },
        {
            "buffer": 0,
            "byteLength": 120,
            "byteOffset": 23928,
            "name": "mesh11569_norm_bufferView",
            "target": 34962
        },
        {
            "buffer": 0,
            "byteLength": 96,
            "byteOffset": 24048,
            "name": "mesh11569_idx_bufferView",
            "target": 34963
        },
        {
            "buffer": 0,
            "byteLength": 120,
            "byteOffset": 24144,
            "name": "mesh11570_coord_bufferView",
            "target": 34962
        },
        {
            "buffer": 0,
            "byteLength": 120,
            "byteOffset": 24264,
            "name": "mesh11570_norm_bufferView",
            "target": 34962
        },
        {
            "buffer": 0,
            "byteLength": 96,
            "byteOffset": 24384,
            "name": "mesh11570_idx_bufferView",
            "target": 34963
        },
        {
            "buffer": 0,
            "byteLength": 144,
            "byteOffset": 24480,
            "name": "mesh11571_coord_bufferView",
            "target": 34962
        },
        {
            "buffer": 0,
            "byteLength": 144,
            "byteOffset": 24624,
            "name": "mesh11571_norm_bufferView",
            "target": 34962
        },
        {
            "buffer": 0,
            "byteLength": 120,
            "byteOffset": 24768,
            "name": "mesh11571_idx_bufferView",
            "target": 34963
        },
        {
            "buffer": 0,
            "byteLength": 144,
            "byteOffset": 24888,
            "name": "mesh11572_coord_bufferView",
            "target": 34962
        },
        {
            "buffer": 0,
            "byteLength": 144,
            "byteOffset": 25032,
            "name": "mesh11572_norm_bufferView",
            "target": 34962
        },
        {
            "buffer": 0,
            "byteLength": 120,
            "byteOffset": 25176,
            "name": "mesh11572_idx_bufferView",
            "target": 34963
        },
        {
            "buffer": 0,
            "byteLength": 72,
            "byteOffset": 25296,
            "name": "mesh11573_coord_bufferView",
            "target": 34962
        },
        {
            "buffer": 0,
            "byteLength": 72,
            "byteOffset": 25368,
            "name": "mesh11573_norm_bufferView",
            "target": 34962
        },
        {
            "buffer": 0,
            "byteLength": 48,
            "byteOffset": 25440,
            "name": "mesh11573_idx_bufferView",
            "target": 34963
        },
        {
            "buffer": 0,
            "byteLength": 72,
            "byteOffset": 25488,
            "name": "mesh11574_coord_bufferView",
            "target": 34962
        },
        {
            "buffer": 0,
            "byteLength": 72,
            "byteOffset": 25560,
            "name": "mesh11574_norm_bufferView",
            "target": 34962
        },
        {
            "buffer": 0,
            "byteLength": 48,
            "byteOffset": 25632,
            "name": "mesh11574_idx_bufferView",
            "target": 34963
        },
        {
            "buffer": 0,
            "byteLength": 72,
            "byteOffset": 25680,
            "name": "mesh11575_coord_bufferView",
            "target": 34962
        },
        {
            "buffer": 0,
            "byteLength": 72,
            "byteOffset": 25752,
            "name": "mesh11575_norm_bufferView",
            "target": 34962
        },
        {
            "buffer": 0,
            "byteLength": 48,
            "byteOffset": 25824,
            "name": "mesh11575_idx_bufferView",
            "target": 34963
        },
        {
            "buffer": 0,
            "byteLength": 72,
            "byteOffset": 25872,
            "name": "mesh11576_coord_bufferView",
            "target": 34962
        },
        {
            "buffer": 0,
            "byteLength": 72,
            "byteOffset": 25944,
            "name": "mesh11576_norm_bufferView",
            "target": 34962
        },
        {
            "buffer": 0,
            "byteLength": 48,
            "byteOffset": 26016,
            "name": "mesh11576_idx_bufferView",
            "target": 34963
        },
        {
            "buffer": 0,
            "byteLength": 192,
            "byteOffset": 26064,
            "name": "mesh11577_coord_bufferView",
            "target": 34962
        },
        {
            "buffer": 0,
            "byteLength": 192,
            "byteOffset": 26256,
            "name": "mesh11577_norm_bufferView",
            "target": 34962
        },
        {
            "buffer": 0,
            "byteLength": 168,
            "byteOffset": 26448,
            "name": "mesh11577_idx_bufferView",
            "target": 34963
        },
        {
            "buffer": 0,
            "byteLength": 72,
            "byteOffset": 26616,
            "name": "mesh11578_coord_bufferView",
            "target": 34962
        },
        {
            "buffer": 0,
            "byteLength": 72,
            "byteOffset": 26688,
            "name": "mesh11578_norm_bufferView",
            "target": 34962
        },
        {
            "buffer": 0,
            "byteLength": 48,
            "byteOffset": 26760,
            "name": "mesh11578_idx_bufferView",
            "target": 34963
        },
        {
            "buffer": 0,
            "byteLength": 72,
            "byteOffset": 26808,
            "name": "mesh11579_coord_bufferView",
            "target": 34962
        },
        {
            "buffer": 0,
            "byteLength": 72,
            "byteOffset": 26880,
            "name": "mesh11579_norm_bufferView",
            "target": 34962
        },
        {
            "buffer": 0,
            "byteLength": 48,
            "byteOffset": 26952,
            "name": "mesh11579_idx_bufferView",
            "target": 34963
        },
        {
            "buffer": 0,
            "byteLength": 72,
            "byteOffset": 27000,
            "name": "mesh11580_coord_bufferView",
            "target": 34962
        },
        {
            "buffer": 0,
            "byteLength": 72,
            "byteOffset": 27072,
            "name": "mesh11580_norm_bufferView",
            "target": 34962
        },
        {
            "buffer": 0,
            "byteLength": 48,
            "byteOffset": 27144,
            "name": "mesh11580_idx_bufferView",
            "target": 34963
        },
        {
            "buffer": 0,
            "byteLength": 96,
            "byteOffset": 27192,
            "name": "mesh11581_coord_bufferView",
            "target": 34962
        },
        {
            "buffer": 0,
            "byteLength": 96,
            "byteOffset": 27288,
            "name": "mesh11581_norm_bufferView",
            "target": 34962
        },
        {
            "buffer": 0,
            "byteLength": 72,
            "byteOffset": 27384,
            "name": "mesh11581_idx_bufferView",
            "target": 34963
        },
        {
            "buffer": 0,
            "byteLength": 144,
            "byteOffset": 27456,
            "name": "mesh11582_coord_bufferView",
            "target": 34962
        },
        {
            "buffer": 0,
            "byteLength": 144,
            "byteOffset": 27600,
            "name": "mesh11582_norm_bufferView",
            "target": 34962
        },
        {
            "buffer": 0,
            "byteLength": 120,
            "byteOffset": 27744,
            "name": "mesh11582_idx_bufferView",
            "target": 34963
        },
        {
            "buffer": 0,
            "byteLength": 144,
            "byteOffset": 27864,
            "name": "mesh11583_coord_bufferView",
            "target": 34962
        },
        {
            "buffer": 0,
            "byteLength": 144,
            "byteOffset": 28008,
            "name": "mesh11583_norm_bufferView",
            "target": 34962
        },
        {
            "buffer": 0,
            "byteLength": 120,
            "byteOffset": 28152,
            "name": "mesh11583_idx_bufferView",
            "target": 34963
        },
        {
            "buffer": 0,
            "byteLength": 120,
            "byteOffset": 28272,
            "name": "mesh11584_coord_bufferView",
            "target": 34962
        },
        {
            "buffer": 0,
            "byteLength": 120,
            "byteOffset": 28392,
            "name": "mesh11584_norm_bufferView",
            "target": 34962
        },
        {
            "buffer": 0,
            "byteLength": 96,
            "byteOffset": 28512,
            "name": "mesh11584_idx_bufferView",
            "target": 34963
        },
        {
            "buffer": 0,
            "byteLength": 120,
            "byteOffset": 28608,
            "name": "mesh11585_coord_bufferView",
            "target": 34962
        },
        {
            "buffer": 0,
            "byteLength": 120,
            "byteOffset": 28728,
            "name": "mesh11585_norm_bufferView",
            "target": 34962
        },
        {
            "buffer": 0,
            "byteLength": 96,
            "byteOffset": 28848,
            "name": "mesh11585_idx_bufferView",
            "target": 34963
        },
        {
            "buffer": 0,
            "byteLength": 120,
            "byteOffset": 28944,
            "name": "mesh11586_coord_bufferView",
            "target": 34962
        },
        {
            "buffer": 0,
            "byteLength": 120,
            "byteOffset": 29064,
            "name": "mesh11586_norm_bufferView",
            "target": 34962
        },
        {
            "buffer": 0,
            "byteLength": 96,
            "byteOffset": 29184,
            "name": "mesh11586_idx_bufferView",
            "target": 34963
        },
        {
            "buffer": 0,
            "byteLength": 120,
            "byteOffset": 29280,
            "name": "mesh11587_coord_bufferView",
            "target": 34962
        },
        {
            "buffer": 0,
            "byteLength": 120,
            "byteOffset": 29400,
            "name": "mesh11587_norm_bufferView",
            "target": 34962
        },
        {
            "buffer": 0,
            "byteLength": 96,
            "byteOffset": 29520,
            "name": "mesh11587_idx_bufferView",
            "target": 34963
        },
        {
            "buffer": 0,
            "byteLength": 120,
            "byteOffset": 29616,
            "name": "mesh11588_coord_bufferView",
            "target": 34962
        },
        {
            "buffer": 0,
            "byteLength": 120,
            "byteOffset": 29736,
            "name": "mesh11588_norm_bufferView",
            "target": 34962
        },
        {
            "buffer": 0,
            "byteLength": 96,
            "byteOffset": 29856,
            "name": "mesh11588_idx_bufferView",
            "target": 34963
        },
        {
            "buffer": 0,
            "byteLength": 120,
            "byteOffset": 29952,
            "name": "mesh11589_coord_bufferView",
            "target": 34962
        },
        {
            "buffer": 0,
            "byteLength": 120,
            "byteOffset": 30072,
            "name": "mesh11589_norm_bufferView",
            "target": 34962
        },
        {
            "buffer": 0,
            "byteLength": 96,
            "byteOffset": 30192,
            "name": "mesh11589_idx_bufferView",
            "target": 34963
        },
        {
            "buffer": 0,
            "byteLength": 120,
            "byteOffset": 30288,
            "name": "mesh11590_coord_bufferView",
            "target": 34962
        },
        {
            "buffer": 0,
            "byteLength": 120,
            "byteOffset": 30408,
            "name": "mesh11590_norm_bufferView",
            "target": 34962
        },
        {
            "buffer": 0,
            "byteLength": 96,
            "byteOffset": 30528,
            "name": "mesh11590_idx_bufferView",
            "target": 34963
        },
        {
            "buffer": 0,
            "byteLength": 120,
            "byteOffset": 30624,
            "name": "mesh11591_coord_bufferView",
            "target": 34962
        },
        {
            "buffer": 0,
            "byteLength": 120,
            "byteOffset": 30744,
            "name": "mesh11591_norm_bufferView",
            "target": 34962
        },
        {
            "buffer": 0,
            "byteLength": 96,
            "byteOffset": 30864,
            "name": "mesh11591_idx_bufferView",
            "target": 34963
        },
        {
            "buffer": 0,
            "byteLength": 384,
            "byteOffset": 30960,
            "name": "mesh11592_coord_bufferView",
            "target": 34962
        },
        {
            "buffer": 0,
            "byteLength": 384,
            "byteOffset": 31344,
            "name": "mesh11592_norm_bufferView",
            "target": 34962
        },
        {
            "buffer": 0,
            "byteLength": 384,
            "byteOffset": 31728,
            "name": "mesh11592_idx_bufferView",
            "target": 34963
        },
        {
            "buffer": 0,
            "byteLength": 384,
            "byteOffset": 32112,
            "name": "mesh11593_coord_bufferView",
            "target": 34962
        },
        {
            "buffer": 0,
            "byteLength": 384,
            "byteOffset": 32496,
            "name": "mesh11593_norm_bufferView",
            "target": 34962
        },
        {
            "buffer": 0,
            "byteLength": 384,
            "byteOffset": 32880,
            "name": "mesh11593_idx_bufferView",
            "target": 34963
        },
        {
            "buffer": 0,
            "byteLength": 384,
            "byteOffset": 33264,
            "name": "mesh11594_coord_bufferView",
            "target": 34962
        },
        {
            "buffer": 0,
            "byteLength": 384,
            "byteOffset": 33648,
            "name": "mesh11594_norm_bufferView",
            "target": 34962
        },
        {
            "buffer": 0,
            "byteLength": 384,
            "byteOffset": 34032,
            "name": "mesh11594_idx_bufferView",
            "target": 34963
        },
        {
            "buffer": 0,
            "byteLength": 384,
            "byteOffset": 34416,
            "name": "mesh11595_coord_bufferView",
            "target": 34962
        },
        {
            "buffer": 0,
            "byteLength": 384,
            "byteOffset": 34800,
            "name": "mesh11595_norm_bufferView",
            "target": 34962
        },
        {
            "buffer": 0,
            "byteLength": 384,
            "byteOffset": 35184,
            "name": "mesh11595_idx_bufferView",
            "target": 34963
        },
        {
            "buffer": 0,
            "byteLength": 384,
            "byteOffset": 35568,
            "name": "mesh11596_coord_bufferView",
            "target": 34962
        },
        {
            "buffer": 0,
            "byteLength": 384,
            "byteOffset": 35952,
            "name": "mesh11596_norm_bufferView",
            "target": 34962
        },
        {
            "buffer": 0,
            "byteLength": 384,
            "byteOffset": 36336,
            "name": "mesh11596_idx_bufferView",
            "target": 34963
        },
        {
            "buffer": 0,
            "byteLength": 384,
            "byteOffset": 36720,
            "name": "mesh11597_coord_bufferView",
            "target": 34962
        },
        {
            "buffer": 0,
            "byteLength": 384,
            "byteOffset": 37104,
            "name": "mesh11597_norm_bufferView",
            "target": 34962
        },
        {
            "buffer": 0,
            "byteLength": 384,
            "byteOffset": 37488,
            "name": "mesh11597_idx_bufferView",
            "target": 34963
        },
        {
            "buffer": 0,
            "byteLength": 384,
            "byteOffset": 37872,
            "name": "mesh11598_coord_bufferView",
            "target": 34962
        },
        {
            "buffer": 0,
            "byteLength": 384,
            "byteOffset": 38256,
            "name": "mesh11598_norm_bufferView",
            "target": 34962
        },
        {
            "buffer": 0,
            "byteLength": 384,
            "byteOffset": 38640,
            "name": "mesh11598_idx_bufferView",
            "target": 34963
        },
        {
            "buffer": 0,
            "byteLength": 480,
            "byteOffset": 39024,
            "name": "mesh11599_coord_bufferView",
            "target": 34962
        },
        {
            "buffer": 0,
            "byteLength": 480,
            "byteOffset": 39504,
            "name": "mesh11599_norm_bufferView",
            "target": 34962
        },
        {
            "buffer": 0,
            "byteLength": 480,
            "byteOffset": 39984,
            "name": "mesh11599_idx_bufferView",
            "target": 34963
        },
        {
            "buffer": 0,
            "byteLength": 480,
            "byteOffset": 40464,
            "name": "mesh11600_coord_bufferView",
            "target": 34962
        },
        {
            "buffer": 0,
            "byteLength": 480,
            "byteOffset": 40944,
            "name": "mesh11600_norm_bufferView",
            "target": 34962
        },
        {
            "buffer": 0,
            "byteLength": 480,
            "byteOffset": 41424,
            "name": "mesh11600_idx_bufferView",
            "target": 34963
        }
    ],
    "buffers": [
        {
            "byteLength": 41904,
            "name": "Total_buffer",
            "uri": "data:application/octet-stream;base64,"
        }
    ],
    "extensionsUsed": [
        "PTC_onshape_metadata"
    ],
    "materials": [
        {
            "doubleSided": true,
            "name": "0.372549_0.372549_0.372549_0.000000_0.000000",
            "pbrMetallicRoughness": {
                "baseColorFactor": [
                    0.37254902720451355,
                    0.37254902720451355,
                    0.37254902720451355,
                    1.0
                ],
                "metallicFactor": 0.0
            }
        },
        {
            "doubleSided": true,
            "name": "0.901961_0.901961_0.901961_0.000000_0.000000",
            "pbrMetallicRoughness": {
                "baseColorFactor": [
                    0.9019607901573181,
                    0.9019607901573181,
                    0.9019607901573181,
                    1.0
                ],
                "metallicFactor": 0.0
            }
        },
        {
            "doubleSided": true,
            "name": "0.917647_0.917647_0.917647_0.000000_0.000000",
            "pbrMetallicRoughness": {
                "baseColorFactor": [
                    0.9176470637321472,
                    0.9176470637321472,
                    0.9176470637321472,
                    1.0
                ],
                "metallicFactor": 0.0
            }
        },
        {
            "doubleSided": true,
            "name": "0.800000_0.800000_0.800000_0.000000_0.000000",
            "pbrMetallicRoughness": {
                "baseColorFactor": [
                    0.800000011920929,
                    0.800000011920929,
                    0.800000011920929,
                    1.0
                ],
                "metallicFactor": 0.0
            }
        },
        {
            "doubleSided": true,
            "name": "0.910000_0.910000_0.910000_0.000000_0.000000",
            "pbrMetallicRoughness": {
                "baseColorFactor": [
                    0.9100000262260437,
                    0.9100000262260437,
                    0.9100000262260437,
                    1.0
                ],
                "metallicFactor": 0.0
            }
        },
        {
            "doubleSided": true,
            "name": "0.301961_0.301961_0.301961_0.000000_0.000000",
            "pbrMetallicRoughness": {
                "baseColorFactor": [
                    0.3019607961177826,
                    0.3019607961177826,
                    0.3019607961177826,
                    1.0
                ],
                "metallicFactor": 0.0
            }
        },
        {
            "doubleSided": true,
            "name": "0.023529_0.298039_0.568627_0.000000_0.000000",
            "pbrMetallicRoughness": {
                "baseColorFactor": [
                    0.0235294122248888,
                    0.2980392277240753,
                    0.5686274766921997,
                    1.0
                ],
                "metallicFactor": 0.0
            }
        },
        {
            "doubleSided": true,
            "name": "0.501961_0.501961_0.501961_0.000000_0.000000",
            "pbrMetallicRoughness": {
                "baseColorFactor": [
                    0.501960813999176,
                    0.501960813999176,
                    0.501960813999176,
                    1.0
                ],
                "metallicFactor": 0.0
            }
        },
        {
            "doubleSided": true,
            "name": "0.498039_0.498039_0.498039_0.000000_0.000000",
            "pbrMetallicRoughness": {
                "baseColorFactor": [
                    0.49803921580314636,
                    0.49803921580314636,
                    0.49803921580314636,
                    1.0
                ],
                "metallicFactor": 0.0
            }
        },
        {
            "doubleSided": true,
            "name": "0.000000_0.000000_0.000000_0.000000_0.000000",
            "pbrMetallicRoughness": {
                "baseColorFactor": [
                    0.0,
                    0.0,
                    0.0,
                    1.0
                ],
                "metallicFactor": 0.0
            }
        },
        {
            "doubleSided": true,
            "name": "0.752941_0.752941_0.752941_0.000000_0.000000",
            "pbrMetallicRoughness": {
                "baseColorFactor": [
                    0.7529411911964417,
                    0.7529411911964417,
                    0.7529411911964417,
                    1.0
                ],
                "metallicFactor": 0.0
            }
        },
        {
            "doubleSided": true,
            "name": "0.250980_0.250980_0.250980_0.000000_0.000000",
            "pbrMetallicRoughness": {
                "baseColorFactor": [
                    0.250980406999588,
                    0.250980406999588,
                    0.250980406999588,
                    1.0
                ],
                "metallicFactor": 0.0
            }
        },
        {
            "doubleSided": true,
            "name": "0.796078_0.823529_0.937255_0.000000_0.000000",
            "pbrMetallicRoughness": {
                "baseColorFactor": [
                    0.7960784435272217,
                    0.8235294222831726,
                    0.9372549057006836,
                    1.0
                ],
                "metallicFactor": 0.0
            }
        },
        {
            "doubleSided": true,
            "name": "0.117647_0.117647_0.117647_0.000000_0.000000",
            "pbrMetallicRoughness": {
                "baseColorFactor": [
                    0.11764705926179886,
                    0.11764705926179886,
                    0.11764705926179886,
                    1.0
                ],
                "metallicFactor": 0.0
            }
        },
        {
            "doubleSided": true,
            "name": "0.600000_0.600000_0.600000_0.000000_0.000000",
            "pbrMetallicRoughness": {
                "baseColorFactor": [
                    0.6000000238418579,
                    0.6000000238418579,
                    0.6000000238418579,
                    1.0
                ],
                "metallicFactor": 0.0
            }
        },
        {
            "doubleSided": true,
            "name": "0.262745_0.282353_0.301961_0.000000_0.000000",
            "pbrMetallicRoughness": {
                "baseColorFactor": [
                    0.26274511218070984,
                    0.2823529541492462,
                    0.3019607961177826,
                    1.0
                ],
                "metallicFactor": 0.0
            }
        },
        {
            "doubleSided": true,
            "name": "0.792157_0.819608_0.933333_0.000000_0.000000",
            "pbrMetallicRoughness": {
                "baseColorFactor": [
                    0.7921568751335144,
                    0.8196078538894653,
                    0.9333333373069763,
                    1.0
                ],
                "metallicFactor": 0.0
            }
        },
        {
            "doubleSided": true,
            "name": "0.647059_0.647059_0.647059_0.000000_0.000000",
            "pbrMetallicRoughness": {
                "baseColorFactor": [
                    0.6470588445663452,
                    0.6470588445663452,
                    0.6470588445663452,
                    1.0
                ],
                "metallicFactor": 0.0
            }
        },
        {
            "doubleSided": true,
            "name": "0.349020_0.376471_0.400000_0.000000_0.000000",
            "pbrMetallicRoughness": {
                "baseColorFactor": [
                    0.3490196168422699,
                    0.3764705955982208,
                    0.4000000059604645,
                    1.0
                ],
                "metallicFactor": 0.0
            }
        },
        {
            "doubleSided": true,
            "name": "0.298039_0.298039_0.298039_0.000000_0.000000",
            "pbrMetallicRoughness": {
                "baseColorFactor": [
                    0.2980392277240753,
                    0.2980392277240753,
                    0.2980392277240753,
                    1.0
                ],
                "metallicFactor": 0.0
            }
        },
        {
            "doubleSided": true,
            "name": "0.098039_0.098039_0.098039_0.000000_0.000000",
            "pbrMetallicRoughness": {
                "baseColorFactor": [
                    0.09803921729326248,
                    0.09803921729326248,
                    0.09803921729326248,
                    1.0
                ],
                "metallicFactor": 0.0
            }
        },
        {
            "doubleSided": true,
            "name": "0.639216_0.666667_0.678431_0.000000_0.000000",
            "pbrMetallicRoughness": {
                "baseColorFactor": [
                    0.6392157077789307,
                    0.6666666865348816,
                    0.6784313917160034,
                    1.0
                ],
                "metallicFactor": 0.0
            }
        },
        {
            "doubleSided": true,
            "name": "0.905882_0.427451_0.000000_0.000000_0.000000",
            "pbrMetallicRoughness": {
                "baseColorFactor": [
                    0.9058823585510254,
                    0.4274509847164154,
                    0.0,
                    1.0
                ],
                "metallicFactor": 0.0
            }
        },
        {
            "doubleSided": true,
            "name": "1.000000_1.000000_1.000000_0.000000_0.000000",
            "pbrMetallicRoughness": {
                "metallicFactor": 0.0
            }
        },
        {
            "doubleSided": true,
            "name": "0.968627_0.878431_0.600000_0.000000_0.000000",
            "pbrMetallicRoughness": {
                "baseColorFactor": [
                    0.9686274528503418,
                    0.8784313797950745,
                    0.6000000238418579,
                    1.0
                ],
                "metallicFactor": 0.0
            }
        },
        {
            "doubleSided": true,
            "name": "0.196078_0.196078_0.196078_0.000000_0.000000",
            "pbrMetallicRoughness": {
                "baseColorFactor": [
                    0.19607843458652496,
                    0.19607843458652496,
                    0.19607843458652496,
                    1.0
                ],
                "metallicFactor": 0.0
            }
        },
        {
            "doubleSided": true,
            "name": "0.768627_0.886275_0.952941_0.000000_0.000000",
            "pbrMetallicRoughness": {
                "baseColorFactor": [
                    0.7686274647712708,
                    0.886274516582489,
                    0.9529411792755127,
                    1.0
                ],
                "metallicFactor": 0.0
            }
        },
        {
            "doubleSided": true,
            "name": "0.941176_0.941176_0.941176_0.000000_0.000000",
            "pbrMetallicRoughness": {
                "baseColorFactor": [
                    0.9411764740943909,
                    0.9411764740943909,
                    0.9411764740943909,
                    1.0
                ],
                "metallicFactor": 0.0
            }
        },
        {
            "doubleSided": true,
            "name": "0.066667_0.003922_0.592157_0.000000_0.000000",
            "pbrMetallicRoughness": {
                "baseColorFactor": [
                    0.06666667014360428,
                    0.003921568859368563,
                    0.5921568870544434,
                    1.0
                ],
                "metallicFactor": 0.0
            }
        },
        {
            "doubleSided": true,
            "name": "0.843137_0.815686_0.752941_0.000000_0.000000",
            "pbrMetallicRoughness": {
                "baseColorFactor": [
                    0.843137264251709,
                    0.8156862854957581,
                    0.7529411911964417,
                    1.0
                ],
                "metallicFactor": 0.0
            }
        },
        {
            "doubleSided": true,
            "name": "0.615686_0.811765_0.929412_0.000000_0.000000",
            "pbrMetallicRoughness": {
                "baseColorFactor": [
                    0.615686297416687,
                    0.8117647171020508,
                    0.929411768913269,
                    1.0
                ],
                "metallicFactor": 0.0
            }
        },
        {
            "doubleSided": true,
            "name": "0.945098_0.364706_0.184314_0.000000_0.000000",
            "pbrMetallicRoughness": {
                "baseColorFactor": [
                    0.9450980424880981,
                    0.364705890417099,
                    0.18431372940540314,
                    1.0
                ],
                "metallicFactor": 0.0
            }
        },
        {
            "doubleSided": true,
            "name": "0.796078_0.823529_0.933333_0.000000_0.000000",
            "pbrMetallicRoughness": {
                "baseColorFactor": [
                    0.7960784435272217,
                    0.8235294222831726,
                    0.9333333373069763,
                    1.0
                ],
                "metallicFactor": 0.0
            }
        },
        {
            "doubleSided": true,
            "name": "1.000000_0.937255_0.678431_0.000000_0.000000",
            "pbrMetallicRoughness": {
                "baseColorFactor": [
                    1.0,
                    0.9372549057006836,
                    0.6784313917160034,
                    1.0
                ],
                "metallicFactor": 0.0
            }
        },
        {
            "doubleSided": true,
            "name": "0.949020_0.760784_0.180392_0.000000_0.000000",
            "pbrMetallicRoughness": {
                "baseColorFactor": [
                    0.9490196108818054,
                    0.7607843279838562,
                    0.18039216101169586,
                    1.0
                ],
                "metallicFactor": 0.0
            }
        },
        {
            "doubleSided": true,
            "name": "0.701961_0.701961_0.701961_0.000000_0.000000",
            "pbrMetallicRoughness": {
                "baseColorFactor": [
                    0.7019608020782471,
                    0.7019608020782471,
                    0.7019608020782471,
                    1.0
                ],
                "metallicFactor": 0.0
            }
        }
    ],
    "meshes": [
        {
            "name": "mesh11565_mesh",
            "primitives": [
                {
                    "attributes": {
                        "NORMAL": 1,
                        "POSITION": 0
                    },
                    "indices": 2,
                    "material": 6
                }
            ]
        },
        {
            "name": "mesh11566_mesh",
            "primitives": [
                {
                    "attributes": {
                        "NORMAL": 4,
                        "POSITION": 3
                    },
                    "indices": 5,
                    "material": 6
                }
            ]
        },
        {
            "name": "mesh11567_mesh",
            "primitives": [
                {
                    "attributes": {
                        "NORMAL": 7,
                        "POSITION": 6
                    },
                    "indices": 8,
                    "material": 6
                }
            ]
        },
        {
            "name": "mesh11568_mesh",
            "primitives": [
                {
                    "attributes": {
                        "NORMAL": 10,
                        "POSITION": 9
                    },
                    "indices": 11,
                    "material": 6
                }
            ]
        },
        {
            "name": "mesh11569_mesh",
            "primitives": [
                {
                    "attributes": {
                        "NORMAL": 13,
                        "POSITION": 12
                    },
                    "indices": 14,
                    "material": 6
                }
            ]
        },
        {
            "name": "mesh11570_mesh",
            "primitives": [
                {
                    "attributes": {
                        "NORMAL": 16,
                        "POSITION": 15
                    },
                    "indices": 17,
                    "material": 6
                }
            ]
        },
        {
            "name": "mesh11571_mesh",
            "primitives": [
                {
                    "attributes": {
                        "NORMAL": 19,
                        "POSITION": 18
                    },
                    "indices": 20,
                    "material": 6
                }
            ]
        },
        {
            "name": "mesh11572_mesh",
            "primitives": [
                {
                    "attributes": {
                        "NORMAL": 22,
                        "POSITION": 21
                    },
                    "indices": 23,
                    "material": 6
                }
            ]
        },
        {
            "name": "mesh11573_mesh",
            "primitives": [
                {
                    "attributes": {
                        "NORMAL": 25,
                        "POSITION": 24
                    },
                    "indices": 26,
                    "material": 6
                }
            ]
        },
        {
            "name": "mesh11574_mesh",
            "primitives": [
                {
                    "attributes": {
                        "NORMAL": 28,
                        "POSITION": 27
                    },
                    "indices": 29,
                    "material": 6
                }
            ]
        },
        {
            "name": "mesh11575_mesh",
            "primitives": [
                {
                    "attributes": {
                        "NORMAL": 31,
                        "POSITION": 30
                    },
                    "indices": 32,
                    "material": 6
                }
            ]
        },
        {
            "name": "mesh11576_mesh",
            "primitives": [
                {
                    "attributes": {
                        "NORMAL": 34,
                        "POSITION": 33
                    },
                    "indices": 35,
                    "material": 6
                }
            ]
        },
        {
            "name": "mesh11577_mesh",
            "primitives": [
                {
                    "attributes": {
                        "NORMAL": 37,
                        "POSITION": 36
                    },
                    "indices": 38,
                    "material": 6
                }
            ]
        },
        {
            "name": "mesh11578_mesh",
            "primitives": [
                {
                    "attributes": {
                        "NORMAL": 40,
                        "POSITION": 39
                    },
                    "indices": 41,
                    "material": 6
                }
            ]
        },
        {
            "name": "mesh11579_mesh",
            "primitives": [
                {
                    "attributes": {
                        "NORMAL": 43,
                        "POSITION": 42
                    },
                    "indices": 44,
                    "material": 6
                }
            ]
        },
        {
            "name": "mesh11580_mesh",
            "primitives": [
                {
                    "attributes": {
                        "NORMAL": 46,
                        "POSITION": 45
                    },
                    "indices": 47,
                    "material": 6
                }
            ]
        },
        {
            "name": "mesh11581_mesh",
            "primitives": [
                {
                    "attributes": {
                        "NORMAL": 49,
                        "POSITION": 48
                    },
                    "indices": 50,
                    "material": 6
                }
            ]
        },
        {
            "name": "mesh11582_mesh",
            "primitives": [
                {
                    "attributes": {
                        "NORMAL": 52,
                        "POSITION": 51
                    },
                    "indices": 53,
                    "material": 6
                }
            ]
        },
        {
            "name": "mesh11583_mesh",
            "primitives": [
                {
                    "attributes": {
                        "NORMAL": 55,
                        "POSITION": 54
                    },
                    "indices": 56,
                    "material": 6
                }
            ]
        },
        {
            "name": "mesh11584_mesh",
            "primitives": [
                {
                    "attributes": {
                        "NORMAL": 58,
                        "POSITION": 57
                    },
                    "indices": 59,
                    "material": 6
                }
            ]
        },
        {
            "name": "mesh11585_mesh",
            "primitives": [
                {
                    "attributes": {
                        "NORMAL": 61,
                        "POSITION": 60
                    },
                    "indices": 62,
                    "material": 6
                }
            ]
        },
        {
            "name": "mesh11586_mesh",
            "primitives": [
                {
                    "attributes": {
                        "NORMAL": 64,
                        "POSITION": 63
                    },
                    "indices": 65,
                    "material": 6
                }
            ]
        },
        {
            "name": "mesh11587_mesh",
            "primitives": [
                {
                    "attributes": {
                        "NORMAL": 67,
                        "POSITION": 66
                    },
                    "indices": 68,
                    "material": 6
                }
            ]
        },
        {
            "name": "mesh11588_mesh",
            "primitives": [
                {
                    "attributes": {
                        "NORMAL": 70,
                        "POSITION": 69
                    },
                    "indices": 71,
                    "material": 6
                }
            ]
        },
        {
            "name": "mesh11589_mesh",
            "primitives": [
                {
                    "attributes": {
                        "NORMAL": 73,
                        "POSITION": 72
                    },
                    "indices": 74,
                    "material": 6
                }
            ]
        },
        {
            "name": "mesh11590_mesh",
            "primitives": [
                {
                    "attributes": {
                        "NORMAL": 76,
                        "POSITION": 75
                    },
                    "indices": 77,
                    "material": 6
                }
            ]
        },
        {
            "name": "mesh11591_mesh",
            "primitives": [
                {
                    "attributes": {
                        "NORMAL": 79,
                        "POSITION": 78
                    },
                    "indices": 80,
                    "material": 6
                }
            ]
        },
        {
            "name": "mesh11592_mesh",
            "primitives": [
                {
                    "attributes": {
                        "NORMAL": 82,
                        "POSITION": 81
                    },
                    "indices": 83,
                    "material": 6
                }
            ]
        },
        {
            "name": "mesh11593_mesh",
            "primitives": [
                {
                    "attributes": {
                        "NORMAL": 85,
                        "POSITION": 84
                    },
                    "indices": 86,
                    "material": 6
                }
            ]
        },
        {
            "name": "mesh11594_mesh",
            "primitives": [
                {
                    "attributes": {
                        "NORMAL": 88,
                        "POSITION": 87
                    },
                    "indices": 89,
                    "material": 6
                }
            ]
        },
        {
            "name": "mesh11595_mesh",
            "primitives": [
                {
                    "attributes": {
                        "NORMAL": 91,
                        "POSITION": 90
                    },
                    "indices": 92,
                    "material": 6
                }
            ]
        },
        {
            "name": "mesh11596_mesh",
            "primitives": [
                {
                    "attributes": {
                        "NORMAL": 94,
                        "POSITION": 93
                    },
                    "indices": 95,
                    "material": 6
                }
            ]
        },
        {
            "name": "mesh11597_mesh",
            "primitives": [
                {
                    "attributes": {
                        "NORMAL": 97,
                        "POSITION": 96
                    },
                    "indices": 98,
                    "material": 6
                }
            ]
        },
        {
            "name": "mesh11598_mesh",
            "primitives": [
                {
                    "attributes": {
                        "NORMAL": 100,
                        "POSITION": 99
                    },
                    "indices": 101,
                    "material": 6
                }
            ]
        },
        {
            "name": "mesh11599_mesh",
            "primitives": [
                {
                    "attributes": {
                        "NORMAL": 103,
                        "POSITION": 102
                    },
                    "indices": 104,
                    "material": 6
                }
            ]
        },
        {
            "name": "mesh11600_mesh",
            "primitives": [
                {
                    "attributes": {
                        "NORMAL": 106,
                        "POSITION": 105
                    },
                    "indices": 107,
                    "material": 6
                }
            ]
        }
    ],
    "nodes": [
        {
            "mesh": 0,
            "name": "mesh11565"
        },
        {
            "mesh": 1,
            "name": "mesh11566"
        },
        {
            "mesh": 2,
            "name": "mesh11567"
        },
        {
            "mesh": 3,
            "name": "mesh11568"
        },
        {
            "mesh": 4,
            "name": "mesh11569"
        },
        {
            "mesh": 5,
            "name": "mesh11570"
        },
        {
            "mesh": 6,
            "name": "mesh11571"
        },
        {
            "mesh": 7,
            "name": "mesh11572"
        },
        {
            "mesh": 8,
            "name": "mesh11573"
        },
        {
            "mesh": 9,
            "name": "mesh11574"
        },
        {
            "mesh": 10,
            "name": "mesh11575"
        },
        {
            "mesh": 11,
            "name": "mesh11576"
        },
        {
            "mesh": 12,
            "name": "mesh11577"
        },
        {
            "mesh": 13,
            "name": "mesh11578"
        },
        {
            "mesh": 14,
            "name": "mesh11579"
        },
        {
            "mesh": 15,
            "name": "mesh11580"
        },
        {
            "mesh": 16,
            "name": "mesh11581"
        },
        {
            "mesh": 17,
            "name": "mesh11582"
        },
        {
            "mesh": 18,
            "name": "mesh11583"
        },
        {
            "mesh": 19,
            "name": "mesh11584"
        },
        {
            "mesh": 20,
            "name": "mesh11585"
        },
        {
            "mesh": 21,
            "name": "mesh11586"
        },
        {
            "mesh": 22,
            "name": "mesh11587"
        },
        {
            "mesh": 23,
            "name": "mesh11588"
        },
        {
            "mesh": 24,
            "name": "mesh11589"
        },
        {
            "mesh": 25,
            "name": "mesh11590"
        },
        {
            "mesh": 26,
            "name": "mesh11591"
        },
        {
            "mesh": 27,
            "name": "mesh11592"
        },
        {
            "mesh": 28,
            "name": "mesh11593"
        },
        {
            "mesh": 29,
            "name": "mesh11594"
        },
        {
            "mesh": 30,
            "name": "mesh11595"
        },
        {
            "mesh": 31,
            "name": "mesh11596"
        },
        {
            "mesh": 32,
            "name": "mesh11597"
        },
        {
            "mesh": 33,
            "name": "mesh11598"
        },
        {
            "mesh": 34,
            "name": "mesh11599"
        },
        {
            "mesh": 35,
            "name": "mesh11600"
        }
    ],
    "scene": 0,
    "scenes": [
        {
            "name": "Root",
            "nodes": [
                0,
                1,
                2,
                3,
                4,
                5,
                6,
                7,
                8,
                9,
                10,
                11,
                12,
                13,
                14,
                15,
                16,
                17,
                18,
                19,
                20,
                21,
                22,
                23,
                24,
                25,
                26,
                27,
                28,
                29,
                30,
                31,
                32,
                33,
                34,
                35
            ]
        }
    ]
}