# https://github.com/mikedh/trimesh
mtllib material.mtl
usemtl 0.901961_0.901961_0.901961_0.000000_0.000000
v 0.00000000 -0.08716058 0.18201162
v 0.00000000 -0.08629955 0.18218289
v 0.00476250 -0.08629955 0.18218289
v 0.00000000 -0.08789054 0.18152389
v 0.00476250 -0.08716058 0.18201162
v 0.00000000 -0.08837827 0.18079394
v 0.00476250 -0.08789054 0.18152389
v 0.00000000 -0.08854955 0.17993289
v 0.00476250 -0.08837827 0.18079394
v 0.00000000 -0.08837827 0.17907186
v 0.00476250 -0.08854955 0.17993289
v 0.00000000 -0.08789054 0.17834191
v 0.00476250 -0.08837827 0.17907186
v 0.00000000 -0.08716058 0.17785417
v 0.00476250 -0.08789054 0.17834191
v 0.00000000 -0.08629955 0.17768289
v 0.00476250 -0.08716058 0.17785417
v 0.00000000 -0.08543850 0.17785417
v 0.00476250 -0.08629955 0.17768289
v 0.00000000 -0.08470856 0.17834191
v 0.00476250 -0.08543850 0.17785417
v 0.00000000 -0.08422082 0.17907186
v 0.00476250 -0.08470856 0.17834191
v 0.00000000 -0.08404955 0.17993289
v 0.00476250 -0.08422082 0.17907186
v 0.00000000 -0.08422082 0.18079394
v 0.00476250 -0.08404955 0.17993289
v 0.00000000 -0.08470856 0.18152389
v 0.00476250 -0.08422082 0.18079394
v 0.00000000 -0.08543850 0.18201162
v 0.00476250 -0.08470856 0.18152389
v 0.00476250 -0.08543850 0.18201162
v 0.00000000 -0.06534941 0.24367461
v 0.00000000 -0.06379955 0.24398290
v 0.00476250 -0.06379955 0.24398290
v 0.00000000 -0.06666332 0.24279667
v 0.00476250 -0.06534941 0.24367461
v 0.00000000 -0.06754126 0.24148276
v 0.00476250 -0.06666332 0.24279667
v 0.00000000 -0.06784955 0.23993289
v 0.00476250 -0.06754126 0.24148276
v 0.00000000 -0.06754126 0.23838302
v 0.00476250 -0.06784955 0.23993289
v 0.00000000 -0.06666332 0.23706912
v 0.00476250 -0.06754126 0.23838302
v 0.00000000 -0.06534941 0.23619118
v 0.00476250 -0.06666332 0.23706912
v 0.00000000 -0.06379955 0.23588289
v 0.00476250 -0.06534941 0.23619118
v 0.00000000 -0.06224968 0.23619118
v 0.00476250 -0.06379955 0.23588289
v 0.00000000 -0.06093576 0.23706912
v 0.00000000 -0.06162134 0.23661102
v 0.00476250 -0.06162134 0.23661102
v 0.00476250 -0.06224968 0.23619118
v 0.00000000 -0.06005783 0.23838302
v 0.00476250 -0.06093576 0.23706912
v 0.00000000 -0.05974954 0.23993289
v 0.00476250 -0.06005783 0.23838302
v 0.00000000 -0.06005783 0.24148276
v 0.00476250 -0.05974954 0.23993289
v 0.00000000 -0.06093576 0.24279667
v 0.00476250 -0.06005783 0.24148276
v 0.00000000 -0.06224968 0.24367461
v 0.00000000 -0.06162134 0.24325477
v 0.00476250 -0.06162134 0.24325477
v 0.00476250 -0.06093576 0.24279667
v 0.00476250 -0.06224968 0.24367461
v 0.00000000 -0.07965269 0.22465484
v 0.00000000 -0.07947762 0.22520463
v 0.00476250 -0.07947762 0.22520463
v 0.00000000 -0.07960726 0.22407964
v 0.00476250 -0.07965269 0.22465484
v 0.00000000 -0.07934807 0.22356413
v 0.00476250 -0.07960726 0.22407964
v 0.00000000 -0.07891347 0.22318460
v 0.00476250 -0.07934807 0.22356413
v 0.00000000 -0.07836775 0.22299722
v 0.00476250 -0.07891347 0.22318460
v 0.00000000 -0.07779167 0.22302969
v 0.00476250 -0.07836775 0.22299722
v 0.00000000 -0.07727046 0.22327723
v 0.00476250 -0.07779167 0.22302969
v 0.00476250 -0.07727046 0.22327723
v 0.00000000 -0.06350661 0.22571892
v 0.00000000 -0.06352653 0.22520348
v 0.00476250 -0.06352653 0.22520348
v 0.00000000 -0.06366247 0.22621061
v 0.00476250 -0.06350661 0.22571892
v 0.00000000 -0.06397568 0.22662044
v 0.00476250 -0.06366247 0.22621061
v 0.00000000 -0.06440920 0.22689994
v 0.00476250 -0.06397568 0.22662044
v 0.00000000 -0.06491178 0.22701605
v 0.00476250 -0.06440920 0.22689994
v 0.00000000 -0.06542397 0.22695506
v 0.00476250 -0.06491178 0.22701605
v 0.00000000 -0.06588522 0.22672415
v 0.00476250 -0.06542397 0.22695506
v 0.00476250 -0.06588522 0.22672415
v 0.00000000 -0.07002933 0.19380802
v 0.00000000 -0.07037251 0.19424602
v 0.00476250 -0.07037251 0.19424602
v 0.00000000 -0.06955011 0.19352525
v 0.00476250 -0.07002933 0.19380802
v 0.00000000 -0.06900078 0.19343664
v 0.00476250 -0.06955011 0.19352525
v 0.00000000 -0.06845695 0.19355434
v 0.00476250 -0.06900078 0.19343664
v 0.00000000 -0.06799343 0.19386218
v 0.00000000 -0.06844954 0.19355926
v 0.00476250 -0.06844954 0.19355926
v 0.00476250 -0.06845695 0.19355434
v 0.00000000 -0.06767403 0.19431782
v 0.00476250 -0.06799343 0.19386218
v 0.00000000 -0.06754268 0.19485852
v 0.00476250 -0.06767403 0.19431782
v 0.00476250 -0.06754268 0.19485852
v 0.00000000 -0.08355023 0.21073537
v 0.00000000 -0.08318423 0.21027777
v 0.00476250 -0.08318423 0.21027777
v 0.00000000 -0.08406361 0.21101782
v 0.00476250 -0.08355023 0.21073537
v 0.00000000 -0.08464605 0.21108204
v 0.00476250 -0.08406361 0.21101782
v 0.00000000 -0.08520864 0.21091823
v 0.00476250 -0.08464605 0.21108204
v 0.00000000 -0.08566555 0.21055138
v 0.00476250 -0.08520864 0.21091823
v 0.00000000 -0.08594705 0.21003747
v 0.00476250 -0.08566555 0.21055138
v 0.00476250 -0.08594705 0.21003747
v 0.00000000 -0.07044894 0.23512985
v 0.00000000 -0.06975106 0.23458692
v 0.00476250 -0.06975106 0.23458692
v 0.00000000 -0.07129215 0.23539589
v 0.00476250 -0.07044894 0.23512985
v 0.00000000 -0.07217524 0.23535177
v 0.00476250 -0.07129215 0.23539589
v 0.00000000 -0.07298774 0.23500301
v 0.00476250 -0.07217524 0.23535177
v 0.00000000 -0.07362802 0.23439321
v 0.00476250 -0.07298774 0.23500301
v 0.00476250 -0.07362802 0.23439321
v 0.00476250 -0.06809292 0.23027661
v 0.00000000 -0.06809292 0.23027661
v 0.00000000 -0.06844954 0.22989306
v 0.00000000 -0.06871869 0.22960359
v 0.00476250 -0.06871869 0.22960359
v 0.00476250 -0.06844954 0.22989306
v 0.00000000 -0.06775262 0.23113029
v 0.00000000 -0.06774378 0.23204924
v 0.00476250 -0.06775262 0.23113029
v 0.00000000 -0.06806758 0.23290929
v 0.00476250 -0.06774378 0.23204924
v 0.00000000 -0.06868027 0.23359424
v 0.00000000 -0.06844954 0.23333631
v 0.00476250 -0.06844954 0.23333631
v 0.00476250 -0.06806758 0.23290929
v 0.00476250 -0.06868027 0.23359424
v 0.00000000 -0.08965701 0.18671913
v 0.00000000 -0.08975988 0.18750985
v 0.00476250 -0.08975988 0.18750985
v 0.00000000 -0.08931040 0.18600105
v 0.00476250 -0.08965701 0.18671913
v 0.00000000 -0.08875532 0.18542860
v 0.00000000 -0.08915530 0.18584110
v 0.00476250 -0.08915530 0.18584110
v 0.00476250 -0.08931040 0.18600105
v 0.00000000 -0.08804823 0.18506005
v 0.00476250 -0.08875532 0.18542860
v 0.00000000 -0.08726106 0.18493290
v 0.00476250 -0.08804823 0.18506005
v 0.00476250 -0.08726106 0.18493290
v 0.00476250 -0.08057453 0.21427080
v 0.00476250 -0.08031379 0.21343254
v 0.00000000 -0.08031379 0.21343254
v 0.00476250 -0.08052941 0.21514751
v 0.00000000 -0.08057453 0.21427080
v 0.00476250 -0.08018399 0.21595459
v 0.00000000 -0.08052941 0.21514751
v 0.00000000 -0.07958087 0.21659248
v 0.00476250 -0.07958087 0.21659248
v 0.00476250 -0.08012830 0.21601348
v 0.00000000 -0.08018399 0.21595459
v 0.00000000 -0.08012830 0.21601348
v 0.00476250 -0.07168636 0.18777329
v 0.00476250 -0.07194334 0.18858303
v 0.00000000 -0.07194334 0.18858303
v 0.00476250 -0.07171537 0.18692423
v 0.00000000 -0.07168636 0.18777329
v 0.00476250 -0.07202704 0.18613392
v 0.00000000 -0.07171537 0.18692423
v 0.00476250 -0.07258537 0.18549362
v 0.00000000 -0.07202704 0.18613392
v 0.00476250 -0.07332588 0.18507725
v 0.00000000 -0.07258537 0.18549362
v 0.00476250 -0.07416307 0.18493290
v 0.00000000 -0.07332588 0.18507725
v 0.00000000 -0.07416307 0.18493290
v 0.00000000 -0.07660605 0.20627666
v 0.00000000 -0.08012830 0.21307455
v 0.00476250 -0.08012830 0.21307455
v 0.00476250 -0.08031379 0.21343254
v 0.00000000 -0.08031379 0.21343254
v 0.00476250 -0.07037251 0.19424602
v 0.00000000 -0.07037251 0.19424602
v 0.00476250 -0.07660605 0.20627666
v 0.00000000 -0.07416307 0.18493290
v 0.00000000 -0.07660605 0.18493290
v 0.00476250 -0.07660605 0.18493290
v 0.00476250 -0.08012830 0.18493290
v 0.00000000 -0.08012830 0.18493290
v 0.00476250 -0.08726106 0.18493290
v 0.00000000 -0.08726106 0.18493290
v 0.00476250 -0.07416307 0.18493290
v 0.00000000 -0.07947762 0.22520463
v 0.00000000 -0.07660605 0.22971532
v 0.00476250 -0.07660605 0.22971532
v 0.00476250 -0.07362802 0.23439321
v 0.00000000 -0.07362802 0.23439321
v 0.00476250 -0.07947762 0.22520463
v 0.00476250 -0.06379955 0.17493290
v 0.00476250 -0.06844954 0.17493290
v 0.00000000 -0.06844954 0.17493290
v 0.00000000 -0.07660605 0.17493290
v 0.00476250 -0.07660605 0.17493290
v 0.00000000 -0.08012830 0.17493290
v 0.00476250 -0.08012830 0.17493290
v 0.00000000 -0.08915530 0.17493290
v 0.00476250 -0.08915530 0.17493290
v 0.00000000 -0.09379955 0.17493290
v 0.00476250 -0.09379955 0.17493290
v 0.00000000 -0.06379955 0.17493290
v 0.00000000 -0.06352653 0.22520348
v 0.00000000 -0.06460758 0.21703540
v 0.00476250 -0.06460758 0.21703540
v 0.00476250 -0.06754268 0.19485852
v 0.00000000 -0.06754268 0.19485852
v 0.00476250 -0.06352653 0.22520348
v 0.00476250 -0.07660605 0.21879317
v 0.00476250 -0.07898214 0.21703540
v 0.00000000 -0.07898214 0.21703540
v 0.00000000 -0.06844954 0.22482713
v 0.00476250 -0.06844954 0.22482713
v 0.00476250 -0.06588522 0.22672415
v 0.00000000 -0.07660605 0.21879317
v 0.00000000 -0.07958087 0.21659248
v 0.00476250 -0.07958087 0.21659248
v 0.00000000 -0.06588522 0.22672415
v 0.00476250 -0.07225499 0.18918450
v 0.00476250 -0.07660605 0.19758198
v 0.00000000 -0.07660605 0.19758198
v 0.00000000 -0.07225499 0.18918450
v 0.00000000 -0.07194334 0.18858303
v 0.00476250 -0.07194334 0.18858303
v 0.00476250 -0.08012830 0.20437987
v 0.00000000 -0.08012830 0.20437987
v 0.00000000 -0.08318423 0.21027777
v 0.00476250 -0.08318423 0.21027777
v 0.00000000 -0.08975988 0.18750985
v 0.00000000 -0.08947644 0.18918450
v 0.00476250 -0.08947644 0.18918450
v 0.00000000 -0.08915530 0.19108190
v 0.00476250 -0.08915530 0.19108190
v 0.00476250 -0.08594705 0.21003747
v 0.00000000 -0.08594705 0.21003747
v 0.00476250 -0.08975988 0.18750985
v 0.00476250 -0.07727046 0.22327723
v 0.00476250 -0.07660605 0.22376874
v 0.00000000 -0.07660605 0.22376874
v 0.00000000 -0.06871869 0.22960359
v 0.00476250 -0.06871869 0.22960359
v 0.00000000 -0.07727046 0.22327723
v 0.00000000 -0.06868027 0.23359424
v 0.00476250 -0.06868027 0.23359424
v 0.00476250 -0.06975106 0.23458692
v 0.00000000 -0.06975106 0.23458692
v 0.00476250 -0.09379955 0.17493290
v 0.00476250 -0.09379955 0.17630790
v 0.00000000 -0.09379955 0.17630790
v 0.00000000 -0.09379955 0.18355790
v 0.00476250 -0.09379955 0.18355790
v 0.00000000 -0.09379955 0.18493290
v 0.00476250 -0.09379955 0.18493290
v 0.00000000 -0.09379955 0.17493290
v 0.00000000 -0.08761346 0.21728623
v 0.00000000 -0.08766142 0.21703540
v 0.00476250 -0.08766142 0.21703540
v 0.00000000 -0.08915530 0.20922233
v 0.00476250 -0.08915530 0.20922233
v 0.00476250 -0.09298662 0.18918450
v 0.00000000 -0.09298662 0.18918450
v 0.00000000 -0.09379955 0.18493290
v 0.00476250 -0.09379955 0.18493290
v 0.00476250 -0.06992790 0.24507520
v 0.00000000 -0.06992790 0.24507520
v 0.00000000 -0.07592657 0.23564960
v 0.00000000 -0.07660605 0.23458195
v 0.00476250 -0.07660605 0.23458195
v 0.00476250 -0.07592657 0.23564960
v 0.00476250 -0.08012830 0.22904749
v 0.00000000 -0.08012830 0.22904749
v 0.00476250 -0.08761346 0.21728623
v 0.00000000 -0.06764746 0.24694671
v 0.00000000 -0.06844954 0.24628845
v 0.00476250 -0.06844954 0.24628845
v 0.00476250 -0.06992790 0.24507520
v 0.00000000 -0.06992790 0.24507520
v 0.00476250 -0.06764746 0.24694671
v 0.00476250 -0.06484375 0.24786445
v 0.00000000 -0.06484375 0.24786445
v 0.00476250 -0.06189806 0.24770363
v 0.00000000 -0.05921093 0.24648611
v 0.00000000 -0.06162134 0.24757825
v 0.00476250 -0.06162134 0.24757825
v 0.00000000 -0.06189806 0.24770363
v 0.00476250 -0.05921093 0.24648611
v 0.00476250 -0.05714779 0.24437746
v 0.00000000 -0.05714779 0.24437746
v 0.00476250 -0.05598918 0.24166441
v 0.00000000 -0.05598918 0.24166441
v 0.00476250 -0.05589265 0.23871592
v 0.00000000 -0.05589265 0.23871592
v 0.00476250 -0.05687134 0.23593290
v 0.00000000 -0.05687134 0.23593290
v 0.00000000 -0.06379955 0.18493290
v 0.00000000 -0.06322198 0.18918450
v 0.00476250 -0.06322198 0.18918450
v 0.00000000 -0.06162134 0.20096716
v 0.00476250 -0.06162134 0.20096716
v 0.00000000 -0.05943851 0.21703540
v 0.00476250 -0.05943851 0.21703540
v 0.00000000 -0.05690983 0.23564960
v 0.00476250 -0.05690983 0.23564960
v 0.00476250 -0.05687134 0.23593290
v 0.00000000 -0.05687134 0.23593290
v 0.00476250 -0.06379955 0.18493290
v 0.00476250 -0.06379955 0.18355790
v 0.00000000 -0.06379955 0.18355790
v 0.00000000 -0.06379955 0.18493290
v 0.00000000 -0.06379955 0.17630790
v 0.00476250 -0.06379955 0.17630790
v 0.00000000 -0.06379955 0.17493290
v 0.00476250 -0.06379955 0.17493290
v 0.00476250 -0.06379955 0.18493290
v 0.00000000 -0.09379955 0.18355790
v 0.00000000 -0.08915530 0.18355790
v 0.00000000 -0.08915530 0.17630790
v 0.00000000 -0.08012830 0.17630790
v 0.00000000 -0.08629955 0.17768289
v 0.00000000 -0.08854955 0.17993289
v 0.00000000 -0.08422082 0.17907186
v 0.00000000 -0.08404955 0.17993289
v 0.00000000 -0.08543850 0.17785417
v 0.00000000 -0.08789054 0.17834191
v 0.00000000 -0.08716058 0.17785417
v 0.00000000 -0.08837827 0.17907186
v 0.00000000 -0.08789054 0.18152389
v 0.00000000 -0.08837827 0.18079394
v 0.00000000 -0.08012830 0.18355790
v 0.00000000 -0.08543850 0.18201162
v 0.00000000 -0.08629955 0.18218289
v 0.00000000 -0.08422082 0.18079394
v 0.00000000 -0.08470856 0.17834191
v 0.00000000 -0.08470856 0.18152389
v 0.00000000 -0.08716058 0.18201162
v 0.00000000 -0.07660605 0.18355790
v 0.00000000 -0.07660605 0.17630790
v 0.00000000 -0.07216058 0.17785417
v 0.00000000 -0.07129955 0.17768289
v 0.00000000 -0.07354955 0.17993289
v 0.00000000 -0.06844954 0.17630790
v 0.00000000 -0.06922082 0.17907186
v 0.00000000 -0.06904954 0.17993289
v 0.00000000 -0.07043850 0.17785417
v 0.00000000 -0.07289053 0.17834191
v 0.00000000 -0.07337827 0.17907186
v 0.00000000 -0.07289053 0.18152389
v 0.00000000 -0.07337827 0.18079394
v 0.00000000 -0.06844954 0.18355790
v 0.00000000 -0.06922082 0.18079394
v 0.00000000 -0.06970856 0.17834191
v 0.00000000 -0.07129955 0.18218289
v 0.00000000 -0.06970856 0.18152389
v 0.00000000 -0.07043850 0.18201162
v 0.00000000 -0.07216058 0.18201162
v 0.00000000 -0.09379955 0.17630790
v 0.00000000 -0.08915530 0.17493290
v 0.00000000 -0.08012830 0.17493290
v 0.00000000 -0.07660605 0.17493290
v 0.00000000 -0.06844954 0.17493290
v 0.00000000 -0.08012830 0.21703540
v 0.00000000 -0.07898214 0.21703540
v 0.00000000 -0.07958087 0.21659248
v 0.00000000 -0.07037251 0.19424602
v 0.00000000 -0.07225499 0.18918450
v 0.00000000 -0.07660605 0.19758198
v 0.00000000 -0.06844954 0.18918450
v 0.00000000 -0.06900078 0.19343664
v 0.00000000 -0.06845695 0.19355434
v 0.00000000 -0.06955011 0.19352525
v 0.00000000 -0.07660605 0.20627666
v 0.00000000 -0.07002933 0.19380802
v 0.00000000 -0.08012830 0.20437987
v 0.00000000 -0.08012830 0.21307455
v 0.00000000 -0.08726106 0.18493290
v 0.00000000 -0.08804823 0.18506005
v 0.00000000 -0.08915530 0.18584110
v 0.00000000 -0.08875532 0.18542860
v 0.00000000 -0.08012830 0.18493290
v 0.00000000 -0.07660605 0.18493290
v 0.00000000 -0.07171537 0.18692423
v 0.00000000 -0.07258537 0.18549362
v 0.00000000 -0.07202704 0.18613392
v 0.00000000 -0.07416307 0.18493290
v 0.00000000 -0.07168636 0.18777329
v 0.00000000 -0.07194334 0.18858303
v 0.00000000 -0.07332588 0.18507725
v 0.00000000 -0.06844954 0.22482713
v 0.00000000 -0.07660605 0.21879317
v 0.00000000 -0.07660605 0.22376874
v 0.00000000 -0.06871869 0.22960359
v 0.00000000 -0.06162134 0.23564960
v 0.00000000 -0.06397568 0.22662044
v 0.00000000 -0.06775262 0.23113029
v 0.00000000 -0.06366247 0.22621061
v 0.00000000 -0.06162134 0.21703540
v 0.00000000 -0.06352653 0.22520348
v 0.00000000 -0.06350661 0.22571892
v 0.00000000 -0.06588522 0.22672415
v 0.00000000 -0.06844954 0.22989306
v 0.00000000 -0.06460758 0.21703540
v 0.00000000 -0.06809292 0.23027661
v 0.00000000 -0.06542397 0.22695506
v 0.00000000 -0.06491178 0.22701605
v 0.00000000 -0.06440920 0.22689994
v 0.00000000 -0.06806758 0.23290929
v 0.00000000 -0.06844954 0.23333631
v 0.00000000 -0.06774378 0.23204924
v 0.00000000 -0.06379955 0.18355790
v 0.00000000 -0.06379955 0.17630790
v 0.00000000 -0.06379955 0.17493290
v 0.00000000 -0.09379955 0.18493290
v 0.00000000 -0.09298662 0.18918450
v 0.00000000 -0.08975988 0.18750985
v 0.00000000 -0.08931040 0.18600105
v 0.00000000 -0.08947644 0.18918450
v 0.00000000 -0.08965701 0.18671913
v 0.00000000 -0.08915530 0.20922233
v 0.00000000 -0.08915530 0.19108190
v 0.00000000 -0.08766142 0.21703540
v 0.00000000 -0.08566555 0.21055138
v 0.00000000 -0.08406361 0.21101782
v 0.00000000 -0.08052941 0.21514751
v 0.00000000 -0.08057453 0.21427080
v 0.00000000 -0.08018399 0.21595459
v 0.00000000 -0.08355023 0.21073537
v 0.00000000 -0.08031379 0.21343254
v 0.00000000 -0.08594705 0.21003747
v 0.00000000 -0.08464605 0.21108204
v 0.00000000 -0.08520864 0.21091823
v 0.00000000 -0.08012830 0.21601348
v 0.00000000 -0.08318423 0.21027777
v 0.00000000 -0.08761346 0.21728623
v 0.00000000 -0.08012830 0.22904749
v 0.00000000 -0.07965269 0.22465484
v 0.00000000 -0.07660605 0.23458195
v 0.00000000 -0.07660605 0.22971532
v 0.00000000 -0.07891347 0.22318460
v 0.00000000 -0.07836775 0.22299722
v 0.00000000 -0.07960726 0.22407964
v 0.00000000 -0.07947762 0.22520463
v 0.00000000 -0.07779167 0.22302969
v 0.00000000 -0.07727046 0.22327723
v 0.00000000 -0.07934807 0.22356413
v 0.00000000 -0.07362802 0.23439321
v 0.00000000 -0.07592657 0.23564960
v 0.00000000 -0.07298774 0.23500301
v 0.00000000 -0.07217524 0.23535177
v 0.00000000 -0.06844954 0.23564960
v 0.00000000 -0.07129215 0.23539589
v 0.00000000 -0.06868027 0.23359424
v 0.00000000 -0.06975106 0.23458692
v 0.00000000 -0.07044894 0.23512985
v 0.00000000 -0.06992790 0.24507520
v 0.00000000 -0.05690983 0.23564960
v 0.00000000 -0.05943851 0.21703540
v 0.00000000 -0.06162134 0.20096716
v 0.00000000 -0.06754268 0.19485852
v 0.00000000 -0.06322198 0.18918450
v 0.00000000 -0.06844954 0.19355926
v 0.00000000 -0.06767403 0.19431782
v 0.00000000 -0.06799343 0.19386218
v 0.00000000 -0.06379955 0.18493290
v 0.00000000 -0.05714779 0.24437746
v 0.00000000 -0.06005783 0.24148276
v 0.00000000 -0.06093576 0.24279667
v 0.00000000 -0.05921093 0.24648611
v 0.00000000 -0.06162134 0.24325477
v 0.00000000 -0.05598918 0.24166441
v 0.00000000 -0.05589265 0.23871592
v 0.00000000 -0.05974954 0.23993289
v 0.00000000 -0.05687134 0.23593290
v 0.00000000 -0.06005783 0.23838302
v 0.00000000 -0.06093576 0.23706912
v 0.00000000 -0.06162134 0.23661102
v 0.00000000 -0.06534941 0.23619118
v 0.00000000 -0.06379955 0.23588289
v 0.00000000 -0.06844954 0.24628845
v 0.00000000 -0.06754126 0.24148276
v 0.00000000 -0.06784955 0.23993289
v 0.00000000 -0.06666332 0.24279667
v 0.00000000 -0.06189806 0.24770363
v 0.00000000 -0.06224968 0.24367461
v 0.00000000 -0.06379955 0.24398290
v 0.00000000 -0.06224968 0.23619118
v 0.00000000 -0.06754126 0.23838302
v 0.00000000 -0.06666332 0.23706912
v 0.00000000 -0.06534941 0.24367461
v 0.00000000 -0.06484375 0.24786445
v 0.00000000 -0.06764746 0.24694671
v 0.00000000 -0.06162134 0.24757825
v 0.00000000 -0.09379955 0.17493290
v 0.00476250 -0.09379955 0.17630790
v 0.00476250 -0.09379955 0.17493290
v 0.00476250 -0.08915530 0.17493290
v 0.00476250 -0.08915530 0.17630790
v 0.00476250 -0.08012830 0.17493290
v 0.00476250 -0.08012830 0.17630790
v 0.00476250 -0.07660605 0.17493290
v 0.00476250 -0.07660605 0.17630790
v 0.00476250 -0.06844954 0.17493290
v 0.00476250 -0.09379955 0.18355790
v 0.00476250 -0.08012830 0.18355790
v 0.00476250 -0.08404955 0.17993289
v 0.00476250 -0.08543850 0.17785417
v 0.00476250 -0.08629955 0.17768289
v 0.00476250 -0.08422082 0.17907186
v 0.00476250 -0.08470856 0.18152389
v 0.00476250 -0.08422082 0.18079394
v 0.00476250 -0.08915530 0.18355790
v 0.00476250 -0.08629955 0.18218289
v 0.00476250 -0.08470856 0.17834191
v 0.00476250 -0.08543850 0.18201162
v 0.00476250 -0.08789054 0.18152389
v 0.00476250 -0.08716058 0.18201162
v 0.00476250 -0.08837827 0.17907186
v 0.00476250 -0.08854955 0.17993289
v 0.00476250 -0.08837827 0.18079394
v 0.00476250 -0.08789054 0.17834191
v 0.00476250 -0.08716058 0.17785417
v 0.00476250 -0.06844954 0.17630790
v 0.00476250 -0.06844954 0.18355790
v 0.00476250 -0.06904954 0.17993289
v 0.00476250 -0.06922082 0.17907186
v 0.00476250 -0.06970856 0.18152389
v 0.00476250 -0.06922082 0.18079394
v 0.00476250 -0.07660605 0.18355790
v 0.00476250 -0.07216058 0.18201162
v 0.00476250 -0.07129955 0.18218289
v 0.00476250 -0.06970856 0.17834191
v 0.00476250 -0.07043850 0.17785417
v 0.00476250 -0.07043850 0.18201162
v 0.00476250 -0.07289053 0.18152389
v 0.00476250 -0.07337827 0.17907186
v 0.00476250 -0.07354955 0.17993289
v 0.00476250 -0.07337827 0.18079394
v 0.00476250 -0.07289053 0.17834191
v 0.00476250 -0.07129955 0.17768289
v 0.00476250 -0.07216058 0.17785417
v 0.00476250 -0.08012830 0.21703540
v 0.00476250 -0.08012830 0.21601348
v 0.00476250 -0.07958087 0.21659248
v 0.00476250 -0.07660605 0.20627666
v 0.00476250 -0.08012830 0.21307455
v 0.00476250 -0.08012830 0.20437987
v 0.00476250 -0.06844954 0.18918450
v 0.00476250 -0.06900078 0.19343664
v 0.00476250 -0.06955011 0.19352525
v 0.00476250 -0.06844954 0.19355926
v 0.00476250 -0.06845695 0.19355434
v 0.00476250 -0.07037251 0.19424602
v 0.00476250 -0.07660605 0.19758198
v 0.00476250 -0.07225499 0.18918450
v 0.00476250 -0.07002933 0.19380802
v 0.00476250 -0.07171537 0.18692423
v 0.00476250 -0.07202704 0.18613392
v 0.00476250 -0.07168636 0.18777329
v 0.00476250 -0.07332588 0.18507725
v 0.00476250 -0.07416307 0.18493290
v 0.00476250 -0.07258537 0.18549362
v 0.00476250 -0.07194334 0.18858303
v 0.00476250 -0.08012830 0.18493290
v 0.00476250 -0.08726106 0.18493290
v 0.00476250 -0.08804823 0.18506005
v 0.00476250 -0.08875532 0.18542860
v 0.00476250 -0.06588522 0.22672415
v 0.00476250 -0.06809292 0.23027661
v 0.00476250 -0.06844954 0.22989306
v 0.00476250 -0.06844954 0.22482713
v 0.00476250 -0.06162134 0.23564960
v 0.00476250 -0.06774378 0.23204924
v 0.00476250 -0.06775262 0.23113029
v 0.00476250 -0.06491178 0.22701605
v 0.00476250 -0.06440920 0.22689994
v 0.00476250 -0.06542397 0.22695506
v 0.00476250 -0.06162134 0.21703540
v 0.00476250 -0.06350661 0.22571892
v 0.00476250 -0.06397568 0.22662044
v 0.00476250 -0.06352653 0.22520348
v 0.00476250 -0.06366247 0.22621061
v 0.00476250 -0.06844954 0.23564960
v 0.00476250 -0.06844954 0.23333631
v 0.00476250 -0.06460758 0.21703540
v 0.00476250 -0.06806758 0.23290929
v 0.00476250 -0.06871869 0.22960359
v 0.00476250 -0.07660605 0.22376874
v 0.00476250 -0.06379955 0.17493290
v 0.00476250 -0.06379955 0.17630790
v 0.00476250 -0.06379955 0.18493290
v 0.00476250 -0.06379955 0.18355790
v 0.00476250 -0.06754268 0.19485852
v 0.00476250 -0.06162134 0.20096716
v 0.00476250 -0.06322198 0.18918450
v 0.00476250 -0.06799343 0.19386218
v 0.00476250 -0.06767403 0.19431782
v 0.00476250 -0.05943851 0.21703540
v 0.00476250 -0.06844954 0.24628845
v 0.00476250 -0.06992790 0.24507520
v 0.00476250 -0.07044894 0.23512985
v 0.00476250 -0.06975106 0.23458692
v 0.00476250 -0.06868027 0.23359424
v 0.00476250 -0.07592657 0.23564960
v 0.00476250 -0.07217524 0.23535177
v 0.00476250 -0.07129215 0.23539589
v 0.00476250 -0.07298774 0.23500301
v 0.00476250 -0.07362802 0.23439321
v 0.00476250 -0.07660605 0.23458195
v 0.00476250 -0.07660605 0.22971532
v 0.00476250 -0.08012830 0.22904749
v 0.00476250 -0.07947762 0.22520463
v 0.00476250 -0.07960726 0.22407964
v 0.00476250 -0.07965269 0.22465484
v 0.00476250 -0.07934807 0.22356413
v 0.00476250 -0.07898214 0.21703540
v 0.00476250 -0.07836775 0.22299722
v 0.00476250 -0.07891347 0.22318460
v 0.00476250 -0.07660605 0.21879317
v 0.00476250 -0.07727046 0.22327723
v 0.00476250 -0.07779167 0.22302969
v 0.00476250 -0.08761346 0.21728623
v 0.00476250 -0.08355023 0.21073537
v 0.00476250 -0.08318423 0.21027777
v 0.00476250 -0.08406361 0.21101782
v 0.00476250 -0.08052941 0.21514751
v 0.00476250 -0.08031379 0.21343254
v 0.00476250 -0.08018399 0.21595459
v 0.00476250 -0.08057453 0.21427080
v 0.00476250 -0.08766142 0.21703540
v 0.00476250 -0.08464605 0.21108204
v 0.00476250 -0.08520864 0.21091823
v 0.00476250 -0.08566555 0.21055138
v 0.00476250 -0.08915530 0.20922233
v 0.00476250 -0.08594705 0.21003747
v 0.00476250 -0.08915530 0.19108190
v 0.00476250 -0.09298662 0.18918450
v 0.00476250 -0.08947644 0.18918450
v 0.00476250 -0.09379955 0.18493290
v 0.00476250 -0.08965701 0.18671913
v 0.00476250 -0.08975988 0.18750985
v 0.00476250 -0.08931040 0.18600105
v 0.00476250 -0.08915530 0.18584110
v 0.00476250 -0.05690983 0.23564960
v 0.00476250 -0.06093576 0.23706912
v 0.00476250 -0.05687134 0.23593290
v 0.00476250 -0.05589265 0.23871592
v 0.00476250 -0.05974954 0.23993289
v 0.00476250 -0.06005783 0.23838302
v 0.00476250 -0.05598918 0.24166441
v 0.00476250 -0.06005783 0.24148276
v 0.00476250 -0.05714779 0.24437746
v 0.00476250 -0.05921093 0.24648611
v 0.00476250 -0.06093576 0.24279667
v 0.00476250 -0.06162134 0.24757825
v 0.00476250 -0.06162134 0.24325477
v 0.00476250 -0.06189806 0.24770363
v 0.00476250 -0.06484375 0.24786445
v 0.00476250 -0.06379955 0.24398290
v 0.00476250 -0.06784955 0.23993289
v 0.00476250 -0.06224968 0.24367461
v 0.00476250 -0.06764746 0.24694671
v 0.00476250 -0.06534941 0.24367461
v 0.00476250 -0.06754126 0.24148276
v 0.00476250 -0.06754126 0.23838302
v 0.00476250 -0.06666332 0.24279667
v 0.00476250 -0.06379955 0.23588289
v 0.00476250 -0.06534941 0.23619118
v 0.00476250 -0.06666332 0.23706912
v 0.00476250 -0.06224968 0.23619118
v 0.00476250 -0.06162134 0.23661102
v 0.00476250 -0.07660605 0.18493290
v 0.00000000 -0.07216058 0.18201162
v 0.00000000 -0.07129955 0.18218289
v 0.00476250 -0.07129955 0.18218289
v 0.00000000 -0.07289053 0.18152389
v 0.00476250 -0.07216058 0.18201162
v 0.00000000 -0.07337827 0.18079394
v 0.00476250 -0.07289053 0.18152389
v 0.00000000 -0.07354955 0.17993289
v 0.00476250 -0.07337827 0.18079394
v 0.00000000 -0.07337827 0.17907186
v 0.00476250 -0.07354955 0.17993289
v 0.00000000 -0.07289053 0.17834191
v 0.00476250 -0.07337827 0.17907186
v 0.00000000 -0.07216058 0.17785417
v 0.00476250 -0.07289053 0.17834191
v 0.00000000 -0.07129955 0.17768289
v 0.00476250 -0.07216058 0.17785417
v 0.00000000 -0.07043850 0.17785417
v 0.00476250 -0.07129955 0.17768289
v 0.00000000 -0.06970856 0.17834191
v 0.00476250 -0.07043850 0.17785417
v 0.00000000 -0.06922082 0.17907186
v 0.00476250 -0.06970856 0.17834191
v 0.00000000 -0.06904954 0.17993289
v 0.00476250 -0.06922082 0.17907186
v 0.00000000 -0.06922082 0.18079394
v 0.00476250 -0.06904954 0.17993289
v 0.00000000 -0.06970856 0.18152389
v 0.00476250 -0.06922082 0.18079394
v 0.00000000 -0.07043850 0.18201162
v 0.00476250 -0.06970856 0.18152389
v 0.00476250 -0.07043850 0.18201162
vt 0.50000000 0.50000000
vt 0.50000000 0.50000000
vt 0.50000000 0.50000000
vt 0.50000000 0.50000000
vt 0.50000000 0.50000000
vt 0.50000000 0.50000000
vt 0.50000000 0.50000000
vt 0.50000000 0.50000000
vt 0.50000000 0.50000000
vt 0.50000000 0.50000000
vt 0.50000000 0.50000000
vt 0.50000000 0.50000000
vt 0.50000000 0.50000000
vt 0.50000000 0.50000000
vt 0.50000000 0.50000000
vt 0.50000000 0.50000000
vt 0.50000000 0.50000000
vt 0.50000000 0.50000000
vt 0.50000000 0.50000000
vt 0.50000000 0.50000000
vt 0.50000000 0.50000000
vt 0.50000000 0.50000000
vt 0.50000000 0.50000000
vt 0.50000000 0.50000000
vt 0.50000000 0.50000000
vt 0.50000000 0.50000000
vt 0.50000000 0.50000000
vt 0.50000000 0.50000000
vt 0.50000000 0.50000000
vt 0.50000000 0.50000000
vt 0.50000000 0.50000000
vt 0.50000000 0.50000000
vt 0.50000000 0.50000000
vt 0.50000000 0.50000000
vt 0.50000000 0.50000000
vt 0.50000000 0.50000000
vt 0.50000000 0.50000000
vt 0.50000000 0.50000000
vt 0.50000000 0.50000000
vt 0.50000000 0.50000000
vt 0.50000000 0.50000000
vt 0.50000000 0.50000000
vt 0.50000000 0.50000000
vt 0.50000000 0.50000000
vt 0.50000000 0.50000000
vt 0.50000000 0.50000000
vt 0.50000000 0.50000000
vt 0.50000000 0.50000000
vt 0.50000000 0.50000000
vt 0.50000000 0.50000000
vt 0.50000000 0.50000000
vt 0.50000000 0.50000000
vt 0.50000000 0.50000000
vt 0.50000000 0.50000000
vt 0.50000000 0.50000000
vt 0.50000000 0.50000000
vt 0.50000000 0.50000000
vt 0.50000000 0.50000000
vt 0.50000000 0.50000000
vt 0.50000000 0.50000000
vt 0.50000000 0.50000000
vt 0.50000000 0.50000000
vt 0.50000000 0.50000000
vt 0.50000000 0.50000000
vt 0.50000000 0.50000000
vt 0.50000000 0.50000000
vt 0.50000000 0.50000000
vt 0.50000000 0.50000000
vt 0.50000000 0.50000000
vt 0.50000000 0.50000000
vt 0.50000000 0.50000000
vt 0.50000000 0.50000000
vt 0.50000000 0.50000000
vt 0.50000000 0.50000000
vt 0.50000000 0.50000000
vt 0.50000000 0.50000000
vt 0.50000000 0.50000000
vt 0.50000000 0.50000000
vt 0.50000000 0.50000000
vt 0.50000000 0.50000000
vt 0.50000000 0.50000000
vt 0.50000000 0.50000000
vt 0.50000000 0.50000000
vt 0.50000000 0.50000000
vt 0.50000000 0.50000000
vt 0.50000000 0.50000000
vt 0.50000000 0.50000000
vt 0.50000000 0.50000000
vt 0.50000000 0.50000000
vt 0.50000000 0.50000000
vt 0.50000000 0.50000000
vt 0.50000000 0.50000000
vt 0.50000000 0.50000000
vt 0.50000000 0.50000000
vt 0.50000000 0.50000000
vt 0.50000000 0.50000000
vt 0.50000000 0.50000000
vt 0.50000000 0.50000000
vt 0.50000000 0.50000000
vt 0.50000000 0.50000000
vt 0.50000000 0.50000000
vt 0.50000000 0.50000000
vt 0.50000000 0.50000000
vt 0.50000000 0.50000000
vt 0.50000000 0.50000000
vt 0.50000000 0.50000000
vt 0.50000000 0.50000000
vt 0.50000000 0.50000000
vt 0.50000000 0.50000000
vt 0.50000000 0.50000000
vt 0.50000000 0.50000000
vt 0.50000000 0.50000000
vt 0.50000000 0.50000000
vt 0.50000000 0.50000000
vt 0.50000000 0.50000000
vt 0.50000000 0.50000000
vt 0.50000000 0.50000000
vt 0.50000000 0.50000000
vt 0.50000000 0.50000000
vt 0.50000000 0.50000000
vt 0.50000000 0.50000000
vt 0.50000000 0.50000000
vt 0.50000000 0.50000000
vt 0.50000000 0.50000000
vt 0.50000000 0.50000000
vt 0.50000000 0.50000000
vt 0.50000000 0.50000000
vt 0.50000000 0.50000000
vt 0.50000000 0.50000000
vt 0.50000000 0.50000000
vt 0.50000000 0.50000000
vt 0.50000000 0.50000000
vt 0.50000000 0.50000000
vt 0.50000000 0.50000000
vt 0.50000000 0.50000000
vt 0.50000000 0.50000000
vt 0.50000000 0.50000000
vt 0.50000000 0.50000000
vt 0.50000000 0.50000000
vt 0.50000000 0.50000000
vt 0.50000000 0.50000000
vt 0.50000000 0.50000000
vt 0.50000000 0.50000000
vt 0.50000000 0.50000000
vt 0.50000000 0.50000000
vt 0.50000000 0.50000000
vt 0.50000000 0.50000000
vt 0.50000000 0.50000000
vt 0.50000000 0.50000000
vt 0.50000000 0.50000000
vt 0.50000000 0.50000000
vt 0.50000000 0.50000000
vt 0.50000000 0.50000000
vt 0.50000000 0.50000000
vt 0.50000000 0.50000000
vt 0.50000000 0.50000000
vt 0.50000000 0.50000000
vt 0.50000000 0.50000000
vt 0.50000000 0.50000000
vt 0.50000000 0.50000000
vt 0.50000000 0.50000000
vt 0.50000000 0.50000000
vt 0.50000000 0.50000000
vt 0.50000000 0.50000000
vt 0.50000000 0.50000000
vt 0.50000000 0.50000000
vt 0.50000000 0.50000000
vt 0.50000000 0.50000000
vt 0.50000000 0.50000000
vt 0.50000000 0.50000000
vt 0.50000000 0.50000000
vt 0.50000000 0.50000000
vt 0.50000000 0.50000000
vt 0.50000000 0.50000000
vt 0.50000000 0.50000000
vt 0.50000000 0.50000000
vt 0.50000000 0.50000000
vt 0.50000000 0.50000000
vt 0.50000000 0.50000000
vt 0.50000000 0.50000000
vt 0.50000000 0.50000000
vt 0.50000000 0.50000000
vt 0.50000000 0.50000000
vt 0.50000000 0.50000000
vt 0.50000000 0.50000000
vt 0.50000000 0.50000000
vt 0.50000000 0.50000000
vt 0.50000000 0.50000000
vt 0.50000000 0.50000000
vt 0.50000000 0.50000000
vt 0.50000000 0.50000000
vt 0.50000000 0.50000000
vt 0.50000000 0.50000000
vt 0.50000000 0.50000000
vt 0.50000000 0.50000000
vt 0.50000000 0.50000000
vt 0.50000000 0.50000000
vt 0.50000000 0.50000000
vt 0.50000000 0.50000000
vt 0.50000000 0.50000000
vt 0.50000000 0.50000000
vt 0.50000000 0.50000000
vt 0.50000000 0.50000000
vt 0.50000000 0.50000000
vt 0.50000000 0.50000000
vt 0.50000000 0.50000000
vt 0.50000000 0.50000000
vt 0.50000000 0.50000000
vt 0.50000000 0.50000000
vt 0.50000000 0.50000000
vt 0.50000000 0.50000000
vt 0.50000000 0.50000000
vt 0.50000000 0.50000000
vt 0.50000000 0.50000000
vt 0.50000000 0.50000000
vt 0.50000000 0.50000000
vt 0.50000000 0.50000000
vt 0.50000000 0.50000000
vt 0.50000000 0.50000000
vt 0.50000000 0.50000000
vt 0.50000000 0.50000000
vt 0.50000000 0.50000000
vt 0.50000000 0.50000000
vt 0.50000000 0.50000000
vt 0.50000000 0.50000000
vt 0.50000000 0.50000000
vt 0.50000000 0.50000000
vt 0.50000000 0.50000000
vt 0.50000000 0.50000000
vt 0.50000000 0.50000000
vt 0.50000000 0.50000000
vt 0.50000000 0.50000000
vt 0.50000000 0.50000000
vt 0.50000000 0.50000000
vt 0.50000000 0.50000000
vt 0.50000000 0.50000000
vt 0.50000000 0.50000000
vt 0.50000000 0.50000000
vt 0.50000000 0.50000000
vt 0.50000000 0.50000000
vt 0.50000000 0.50000000
vt 0.50000000 0.50000000
vt 0.50000000 0.50000000
vt 0.50000000 0.50000000
vt 0.50000000 0.50000000
vt 0.50000000 0.50000000
vt 0.50000000 0.50000000
vt 0.50000000 0.50000000
vt 0.50000000 0.50000000
vt 0.50000000 0.50000000
vt 0.50000000 0.50000000
vt 0.50000000 0.50000000
vt 0.50000000 0.50000000
vt 0.50000000 0.50000000
vt 0.50000000 0.50000000
vt 0.50000000 0.50000000
vt 0.50000000 0.50000000
vt 0.50000000 0.50000000
vt 0.50000000 0.50000000
vt 0.50000000 0.50000000
vt 0.50000000 0.50000000
vt 0.50000000 0.50000000
vt 0.50000000 0.50000000
vt 0.50000000 0.50000000
vt 0.50000000 0.50000000
vt 0.50000000 0.50000000
vt 0.50000000 0.50000000
vt 0.50000000 0.50000000
vt 0.50000000 0.50000000
vt 0.50000000 0.50000000
vt 0.50000000 0.50000000
vt 0.50000000 0.50000000
vt 0.50000000 0.50000000
vt 0.50000000 0.50000000
vt 0.50000000 0.50000000
vt 0.50000000 0.50000000
vt 0.50000000 0.50000000
vt 0.50000000 0.50000000
vt 0.50000000 0.50000000
vt 0.50000000 0.50000000
vt 0.50000000 0.50000000
vt 0.50000000 0.50000000
vt 0.50000000 0.50000000
vt 0.50000000 0.50000000
vt 0.50000000 0.50000000
vt 0.50000000 0.50000000
vt 0.50000000 0.50000000
vt 0.50000000 0.50000000
vt 0.50000000 0.50000000
vt 0.50000000 0.50000000
vt 0.50000000 0.50000000
vt 0.50000000 0.50000000
vt 0.50000000 0.50000000
vt 0.50000000 0.50000000
vt 0.50000000 0.50000000
vt 0.50000000 0.50000000
vt 0.50000000 0.50000000
vt 0.50000000 0.50000000
vt 0.50000000 0.50000000
vt 0.50000000 0.50000000
vt 0.50000000 0.50000000
vt 0.50000000 0.50000000
vt 0.50000000 0.50000000
vt 0.50000000 0.50000000
vt 0.50000000 0.50000000
vt 0.50000000 0.50000000
vt 0.50000000 0.50000000
vt 0.50000000 0.50000000
vt 0.50000000 0.50000000
vt 0.50000000 0.50000000
vt 0.50000000 0.50000000
vt 0.50000000 0.50000000
vt 0.50000000 0.50000000
vt 0.50000000 0.50000000
vt 0.50000000 0.50000000
vt 0.50000000 0.50000000
vt 0.50000000 0.50000000
vt 0.50000000 0.50000000
vt 0.50000000 0.50000000
vt 0.50000000 0.50000000
vt 0.50000000 0.50000000
vt 0.50000000 0.50000000
vt 0.50000000 0.50000000
vt 0.50000000 0.50000000
vt 0.50000000 0.50000000
vt 0.50000000 0.50000000
vt 0.50000000 0.50000000
vt 0.50000000 0.50000000
vt 0.50000000 0.50000000
vt 0.50000000 0.50000000
vt 0.50000000 0.50000000
vt 0.50000000 0.50000000
vt 0.50000000 0.50000000
vt 0.50000000 0.50000000
vt 0.50000000 0.50000000
vt 0.50000000 0.50000000
vt 0.50000000 0.50000000
vt 0.50000000 0.50000000
vt 0.50000000 0.50000000
vt 0.50000000 0.50000000
vt 0.50000000 0.50000000
vt 0.50000000 0.50000000
vt 0.50000000 0.50000000
vt 0.50000000 0.50000000
vt 0.50000000 0.50000000
vt 0.50000000 0.50000000
vt 0.50000000 0.50000000
vt 0.50000000 0.50000000
vt 0.50000000 0.50000000
vt 0.50000000 0.50000000
vt 0.50000000 0.50000000
vt 0.50000000 0.50000000
vt 0.50000000 0.50000000
vt 0.50000000 0.50000000
vt 0.50000000 0.50000000
vt 0.50000000 0.50000000
vt 0.50000000 0.50000000
vt 0.50000000 0.50000000
vt 0.50000000 0.50000000
vt 0.50000000 0.50000000
vt 0.50000000 0.50000000
vt 0.50000000 0.50000000
vt 0.50000000 0.50000000
vt 0.50000000 0.50000000
vt 0.50000000 0.50000000
vt 0.50000000 0.50000000
vt 0.50000000 0.50000000
vt 0.50000000 0.50000000
vt 0.50000000 0.50000000
vt 0.50000000 0.50000000
vt 0.50000000 0.50000000
vt 0.50000000 0.50000000
vt 0.50000000 0.50000000
vt 0.50000000 0.50000000
vt 0.50000000 0.50000000
vt 0.50000000 0.50000000
vt 0.50000000 0.50000000
vt 0.50000000 0.50000000
vt 0.50000000 0.50000000
vt 0.50000000 0.50000000
vt 0.50000000 0.50000000
vt 0.50000000 0.50000000
vt 0.50000000 0.50000000
vt 0.50000000 0.50000000
vt 0.50000000 0.50000000
vt 0.50000000 0.50000000
vt 0.50000000 0.50000000
vt 0.50000000 0.50000000
vt 0.50000000 0.50000000
vt 0.50000000 0.50000000
vt 0.50000000 0.50000000
vt 0.50000000 0.50000000
vt 0.50000000 0.50000000
vt 0.50000000 0.50000000
vt 0.50000000 0.50000000
vt 0.50000000 0.50000000
vt 0.50000000 0.50000000
vt 0.50000000 0.50000000
vt 0.50000000 0.50000000
vt 0.50000000 0.50000000
vt 0.50000000 0.50000000
vt 0.50000000 0.50000000
vt 0.50000000 0.50000000
vt 0.50000000 0.50000000
vt 0.50000000 0.50000000
vt 0.50000000 0.50000000
vt 0.50000000 0.50000000
vt 0.50000000 0.50000000
vt 0.50000000 0.50000000
vt 0.50000000 0.50000000
vt 0.50000000 0.50000000
vt 0.50000000 0.50000000
vt 0.50000000 0.50000000
vt 0.50000000 0.50000000
vt 0.50000000 0.50000000
vt 0.50000000 0.50000000
vt 0.50000000 0.50000000
vt 0.50000000 0.50000000
vt 0.50000000 0.50000000
vt 0.50000000 0.50000000
vt 0.50000000 0.50000000
vt 0.50000000 0.50000000
vt 0.50000000 0.50000000
vt 0.50000000 0.50000000
vt 0.50000000 0.50000000
vt 0.50000000 0.50000000
vt 0.50000000 0.50000000
vt 0.50000000 0.50000000
vt 0.50000000 0.50000000
vt 0.50000000 0.50000000
vt 0.50000000 0.50000000
vt 0.50000000 0.50000000
vt 0.50000000 0.50000000
vt 0.50000000 0.50000000
vt 0.50000000 0.50000000
vt 0.50000000 0.50000000
vt 0.50000000 0.50000000
vt 0.50000000 0.50000000
vt 0.50000000 0.50000000
vt 0.50000000 0.50000000
vt 0.50000000 0.50000000
vt 0.50000000 0.50000000
vt 0.50000000 0.50000000
vt 0.50000000 0.50000000
vt 0.50000000 0.50000000
vt 0.50000000 0.50000000
vt 0.50000000 0.50000000
vt 0.50000000 0.50000000
vt 0.50000000 0.50000000
vt 0.50000000 0.50000000
vt 0.50000000 0.50000000
vt 0.50000000 0.50000000
vt 0.50000000 0.50000000
vt 0.50000000 0.50000000
vt 0.50000000 0.50000000
vt 0.50000000 0.50000000
vt 0.50000000 0.50000000
vt 0.50000000 0.50000000
vt 0.50000000 0.50000000
vt 0.50000000 0.50000000
vt 0.50000000 0.50000000
vt 0.50000000 0.50000000
vt 0.50000000 0.50000000
vt 0.50000000 0.50000000
vt 0.50000000 0.50000000
vt 0.50000000 0.50000000
vt 0.50000000 0.50000000
vt 0.50000000 0.50000000
vt 0.50000000 0.50000000
vt 0.50000000 0.50000000
vt 0.50000000 0.50000000
vt 0.50000000 0.50000000
vt 0.50000000 0.50000000
vt 0.50000000 0.50000000
vt 0.50000000 0.50000000
vt 0.50000000 0.50000000
vt 0.50000000 0.50000000
vt 0.50000000 0.50000000
vt 0.50000000 0.50000000
vt 0.50000000 0.50000000
vt 0.50000000 0.50000000
vt 0.50000000 0.50000000
vt 0.50000000 0.50000000
vt 0.50000000 0.50000000
vt 0.50000000 0.50000000
vt 0.50000000 0.50000000
vt 0.50000000 0.50000000
vt 0.50000000 0.50000000
vt 0.50000000 0.50000000
vt 0.50000000 0.50000000
vt 0.50000000 0.50000000
vt 0.50000000 0.50000000
vt 0.50000000 0.50000000
vt 0.50000000 0.50000000
vt 0.50000000 0.50000000
vt 0.50000000 0.50000000
vt 0.50000000 0.50000000
vt 0.50000000 0.50000000
vt 0.50000000 0.50000000
vt 0.50000000 0.50000000
vt 0.50000000 0.50000000
vt 0.50000000 0.50000000
vt 0.50000000 0.50000000
vt 0.50000000 0.50000000
vt 0.50000000 0.50000000
vt 0.50000000 0.50000000
vt 0.50000000 0.50000000
vt 0.50000000 0.50000000
vt 0.50000000 0.50000000
vt 0.50000000 0.50000000
vt 0.50000000 0.50000000
vt 0.50000000 0.50000000
vt 0.50000000 0.50000000
vt 0.50000000 0.50000000
vt 0.50000000 0.50000000
vt 0.50000000 0.50000000
vt 0.50000000 0.50000000
vt 0.50000000 0.50000000
vt 0.50000000 0.50000000
vt 0.50000000 0.50000000
vt 0.50000000 0.50000000
vt 0.50000000 0.50000000
vt 0.50000000 0.50000000
vt 0.50000000 0.50000000
vt 0.50000000 0.50000000
vt 0.50000000 0.50000000
vt 0.50000000 0.50000000
vt 0.50000000 0.50000000
vt 0.50000000 0.50000000
vt 0.50000000 0.50000000
vt 0.50000000 0.50000000
vt 0.50000000 0.50000000
vt 0.50000000 0.50000000
vt 0.50000000 0.50000000
vt 0.50000000 0.50000000
vt 0.50000000 0.50000000
vt 0.50000000 0.50000000
vt 0.50000000 0.50000000
vt 0.50000000 0.50000000
vt 0.50000000 0.50000000
vt 0.50000000 0.50000000
vt 0.50000000 0.50000000
vt 0.50000000 0.50000000
vt 0.50000000 0.50000000
vt 0.50000000 0.50000000
vt 0.50000000 0.50000000
vt 0.50000000 0.50000000
vt 0.50000000 0.50000000
vt 0.50000000 0.50000000
vt 0.50000000 0.50000000
vt 0.50000000 0.50000000
vt 0.50000000 0.50000000
vt 0.50000000 0.50000000
vt 0.50000000 0.50000000
vt 0.50000000 0.50000000
vt 0.50000000 0.50000000
vt 0.50000000 0.50000000
vt 0.50000000 0.50000000
vt 0.50000000 0.50000000
vt 0.50000000 0.50000000
vt 0.50000000 0.50000000
vt 0.50000000 0.50000000
vt 0.50000000 0.50000000
vt 0.50000000 0.50000000
vt 0.50000000 0.50000000
vt 0.50000000 0.50000000
vt 0.50000000 0.50000000
vt 0.50000000 0.50000000
vt 0.50000000 0.50000000
vt 0.50000000 0.50000000
vt 0.50000000 0.50000000
vt 0.50000000 0.50000000
vt 0.50000000 0.50000000
vt 0.50000000 0.50000000
vt 0.50000000 0.50000000
vt 0.50000000 0.50000000
vt 0.50000000 0.50000000
vt 0.50000000 0.50000000
vt 0.50000000 0.50000000
vt 0.50000000 0.50000000
vt 0.50000000 0.50000000
vt 0.50000000 0.50000000
vt 0.50000000 0.50000000
vt 0.50000000 0.50000000
vt 0.50000000 0.50000000
vt 0.50000000 0.50000000
vt 0.50000000 0.50000000
vt 0.50000000 0.50000000
vt 0.50000000 0.50000000
vt 0.50000000 0.50000000
vt 0.50000000 0.50000000
vt 0.50000000 0.50000000
vt 0.50000000 0.50000000
vt 0.50000000 0.50000000
vt 0.50000000 0.50000000
vt 0.50000000 0.50000000
vt 0.50000000 0.50000000
vt 0.50000000 0.50000000
vt 0.50000000 0.50000000
vt 0.50000000 0.50000000
vt 0.50000000 0.50000000
vt 0.50000000 0.50000000
vt 0.50000000 0.50000000
vt 0.50000000 0.50000000
vt 0.50000000 0.50000000
vt 0.50000000 0.50000000
vt 0.50000000 0.50000000
vt 0.50000000 0.50000000
vt 0.50000000 0.50000000
vt 0.50000000 0.50000000
vt 0.50000000 0.50000000
vt 0.50000000 0.50000000
vt 0.50000000 0.50000000
vt 0.50000000 0.50000000
vt 0.50000000 0.50000000
vt 0.50000000 0.50000000
vt 0.50000000 0.50000000
vt 0.50000000 0.50000000
vt 0.50000000 0.50000000
vt 0.50000000 0.50000000
vt 0.50000000 0.50000000
vt 0.50000000 0.50000000
vt 0.50000000 0.50000000
vt 0.50000000 0.50000000
vt 0.50000000 0.50000000
vt 0.50000000 0.50000000
vt 0.50000000 0.50000000
vt 0.50000000 0.50000000
vt 0.50000000 0.50000000
vt 0.50000000 0.50000000
vt 0.50000000 0.50000000
vt 0.50000000 0.50000000
vt 0.50000000 0.50000000
vt 0.50000000 0.50000000
vt 0.50000000 0.50000000
vt 0.50000000 0.50000000
vt 0.50000000 0.50000000
vt 0.50000000 0.50000000
vt 0.50000000 0.50000000
vt 0.50000000 0.50000000
vt 0.50000000 0.50000000
vt 0.50000000 0.50000000
vt 0.50000000 0.50000000
vt 0.50000000 0.50000000
vt 0.50000000 0.50000000
vt 0.50000000 0.50000000
vt 0.50000000 0.50000000
vt 0.50000000 0.50000000
vt 0.50000000 0.50000000
vt 0.50000000 0.50000000
vt 0.50000000 0.50000000
vt 0.50000000 0.50000000
vt 0.50000000 0.50000000
vt 0.50000000 0.50000000
vt 0.50000000 0.50000000
vt 0.50000000 0.50000000
vt 0.50000000 0.50000000
vt 0.50000000 0.50000000
vt 0.50000000 0.50000000
vt 0.50000000 0.50000000
vt 0.50000000 0.50000000
vt 0.50000000 0.50000000
vt 0.50000000 0.50000000
vt 0.50000000 0.50000000
vt 0.50000000 0.50000000
vt 0.50000000 0.50000000
vt 0.50000000 0.50000000
vt 0.50000000 0.50000000
vt 0.50000000 0.50000000
vt 0.50000000 0.50000000
vt 0.50000000 0.50000000
vt 0.50000000 0.50000000
vt 0.50000000 0.50000000
vt 0.50000000 0.50000000
vt 0.50000000 0.50000000
vt 0.50000000 0.50000000
vt 0.50000000 0.50000000
vt 0.50000000 0.50000000
vt 0.50000000 0.50000000
vt 0.50000000 0.50000000
vt 0.50000000 0.50000000
vt 0.50000000 0.50000000
vt 0.50000000 0.50000000
vt 0.50000000 0.50000000
vt 0.50000000 0.50000000
vt 0.50000000 0.50000000
vt 0.50000000 0.50000000
vt 0.50000000 0.50000000
vt 0.50000000 0.50000000
vt 0.50000000 0.50000000
vt 0.50000000 0.50000000
vt 0.50000000 0.50000000
vt 0.50000000 0.50000000
vt 0.50000000 0.50000000
vt 0.50000000 0.50000000
vt 0.50000000 0.50000000
vt 0.50000000 0.50000000
vt 0.50000000 0.50000000
vt 0.50000000 0.50000000
vt 0.50000000 0.50000000
vt 0.50000000 0.50000000
vt 0.50000000 0.50000000
vt 0.50000000 0.50000000
vt 0.50000000 0.50000000
vt 0.50000000 0.50000000
vt 0.50000000 0.50000000
vt 0.50000000 0.50000000
vt 0.50000000 0.50000000
vt 0.50000000 0.50000000
vt 0.50000000 0.50000000
vt 0.50000000 0.50000000
vt 0.50000000 0.50000000
vt 0.50000000 0.50000000
vt 0.50000000 0.50000000
vt 0.50000000 0.50000000
vt 0.50000000 0.50000000
vt 0.50000000 0.50000000
vt 0.50000000 0.50000000
vt 0.50000000 0.50000000
vt 0.50000000 0.50000000
vt 0.50000000 0.50000000
vt 0.50000000 0.50000000
vt 0.50000000 0.50000000
vt 0.50000000 0.50000000
vt 0.50000000 0.50000000
vt 0.50000000 0.50000000
vt 0.50000000 0.50000000
vt 0.50000000 0.50000000
vt 0.50000000 0.50000000
vt 0.50000000 0.50000000
vt 0.50000000 0.50000000
vt 0.50000000 0.50000000
vt 0.50000000 0.50000000
vt 0.50000000 0.50000000
f 1/1 2/2 3/3
f 4/4 1/1 5/5
f 6/6 4/4 7/7
f 8/8 6/6 9/9
f 10/10 8/8 11/11
f 12/12 10/10 13/13
f 14/14 12/12 15/15
f 16/16 14/14 17/17
f 18/18 16/16 19/19
f 20/20 18/18 21/21
f 22/22 20/20 23/23
f 24/24 22/22 25/25
f 26/26 24/24 27/27
f 28/28 26/26 29/29
f 30/30 28/28 31/31
f 2/2 30/30 32/32
f 32/32 3/3 2/2
f 31/31 32/32 30/30
f 29/29 31/31 28/28
f 27/27 29/29 26/26
f 25/25 27/27 24/24
f 23/23 25/25 22/22
f 21/21 23/23 20/20
f 19/19 21/21 18/18
f 17/17 19/19 16/16
f 15/15 17/17 14/14
f 13/13 15/15 12/12
f 11/11 13/13 10/10
f 9/9 11/11 8/8
f 7/7 9/9 6/6
f 5/5 7/7 4/4
f 3/3 5/5 1/1
f 33/33 34/34 35/35
f 36/36 33/33 37/37
f 38/38 36/36 39/39
f 40/40 38/38 41/41
f 42/42 40/40 43/43
f 44/44 42/42 45/45
f 46/46 44/44 47/47
f 48/48 46/46 49/49
f 50/50 48/48 51/51
f 52/52 53/53 54/54
f 55/55 54/54 53/53
f 53/53 50/50 55/55
f 56/56 52/52 57/57
f 58/58 56/56 59/59
f 60/60 58/58 61/61
f 62/62 60/60 63/63
f 64/64 65/65 66/66
f 67/67 66/66 65/65
f 65/65 62/62 67/67
f 34/34 64/64 68/68
f 68/68 35/35 34/34
f 66/66 68/68 64/64
f 63/63 67/67 62/62
f 61/61 63/63 60/60
f 59/59 61/61 58/58
f 57/57 59/59 56/56
f 54/54 57/57 52/52
f 51/51 55/55 50/50
f 49/49 51/51 48/48
f 47/47 49/49 46/46
f 45/45 47/47 44/44
f 43/43 45/45 42/42
f 41/41 43/43 40/40
f 39/39 41/41 38/38
f 37/37 39/39 36/36
f 35/35 37/37 33/33
f 69/69 70/70 71/71
f 72/72 69/69 73/73
f 74/74 72/72 75/75
f 76/76 74/74 77/77
f 78/78 76/76 79/79
f 80/80 78/78 81/81
f 82/82 80/80 83/83
f 83/83 84/84 82/82
f 81/81 83/83 80/80
f 79/79 81/81 78/78
f 77/77 79/79 76/76
f 75/75 77/77 74/74
f 73/73 75/75 72/72
f 71/71 73/73 69/69
f 85/85 86/86 87/87
f 88/88 85/85 89/89
f 90/90 88/88 91/91
f 92/92 90/90 93/93
f 94/94 92/92 95/95
f 96/96 94/94 97/97
f 98/98 96/96 99/99
f 99/99 100/100 98/98
f 97/97 99/99 96/96
f 95/95 97/97 94/94
f 93/93 95/95 92/92
f 91/91 93/93 90/90
f 89/89 91/91 88/88
f 87/87 89/89 85/85
f 101/101 102/102 103/103
f 104/104 101/101 105/105
f 106/106 104/104 107/107
f 108/108 106/106 109/109
f 110/110 111/111 112/112
f 113/113 112/112 111/111
f 111/111 108/108 113/113
f 114/114 110/110 115/115
f 116/116 114/114 117/117
f 117/117 118/118 116/116
f 115/115 117/117 114/114
f 112/112 115/115 110/110
f 109/109 113/113 108/108
f 107/107 109/109 106/106
f 105/105 107/107 104/104
f 103/103 105/105 101/101
f 119/119 120/120 121/121
f 122/122 119/119 123/123
f 124/124 122/122 125/125
f 126/126 124/124 127/127
f 128/128 126/126 129/129
f 130/130 128/128 131/131
f 131/131 132/132 130/130
f 129/129 131/131 128/128
f 127/127 129/129 126/126
f 125/125 127/127 124/124
f 123/123 125/125 122/122
f 121/121 123/123 119/119
f 133/133 134/134 135/135
f 136/136 133/133 137/137
f 138/138 136/136 139/139
f 140/140 138/138 141/141
f 142/142 140/140 143/143
f 143/143 144/144 142/142
f 141/141 143/143 140/140
f 139/139 141/141 138/138
f 137/137 139/139 136/136
f 135/135 137/137 133/133
f 145/145 146/146 147/147
f 148/148 149/149 150/150
f 150/150 147/147 148/148
f 151/151 146/146 145/145
f 152/152 151/151 153/153
f 154/154 152/152 155/155
f 156/156 157/157 158/158
f 159/159 158/158 157/157
f 157/157 154/154 159/159
f 158/158 160/160 156/156
f 155/155 159/159 154/154
f 153/153 155/155 152/152
f 145/145 153/153 151/151
f 147/147 150/150 145/145
f 161/161 162/162 163/163
f 164/164 161/161 165/165
f 166/166 167/167 168/168
f 169/169 168/168 167/167
f 167/167 164/164 169/169
f 170/170 166/166 171/171
f 172/172 170/170 173/173
f 173/173 174/174 172/172
f 171/171 173/173 170/170
f 168/168 171/171 166/166
f 165/165 169/169 164/164
f 163/163 165/165 161/161
f 175/175 176/176 177/177
f 178/178 175/175 179/179
f 180/180 178/178 181/181
f 182/182 183/183 184/184
f 180/180 185/185 186/186
f 186/186 184/184 180/180
f 184/184 186/186 182/182
f 181/181 185/185 180/180
f 179/179 181/181 178/178
f 177/177 179/179 175/175
f 187/187 188/188 189/189
f 190/190 187/187 191/191
f 192/192 190/190 193/193
f 194/194 192/192 195/195
f 196/196 194/194 197/197
f 198/198 196/196 199/199
f 199/199 200/200 198/198
f 197/197 199/199 196/196
f 195/195 197/197 194/194
f 193/193 195/195 192/192
f 191/191 193/193 190/190
f 189/189 191/191 187/187
f 201/201 202/202 203/203
f 204/204 203/203 202/202
f 202/202 205/205 204/204
f 206/206 207/207 201/201
f 201/201 208/208 206/206
f 203/203 208/208 201/201
f 209/209 210/210 211/211
f 212/212 211/211 210/210
f 210/210 213/213 212/212
f 214/214 212/212 213/213
f 213/213 215/215 214/214
f 211/211 216/216 209/209
f 217/217 218/218 219/219
f 220/220 219/219 218/218
f 218/218 221/221 220/220
f 219/219 222/222 217/217
f 223/223 224/224 225/225
f 226/226 225/225 224/224
f 224/224 227/227 226/226
f 228/228 226/226 227/227
f 227/227 229/229 228/228
f 230/230 228/228 229/229
f 229/229 231/231 230/230
f 232/232 230/230 231/231
f 231/231 233/233 232/232
f 225/225 234/234 223/223
f 235/235 236/236 237/237
f 238/238 237/237 236/236
f 236/236 239/239 238/238
f 237/237 240/240 235/235
f 241/241 242/242 243/243
f 244/244 245/245 241/241
f 246/246 245/245 244/244
f 241/241 247/247 244/244
f 243/243 247/247 241/241
f 248/248 243/243 242/242
f 242/242 249/249 248/248
f 244/244 250/250 246/246
f 251/251 252/252 253/253
f 251/251 254/254 255/255
f 255/255 256/256 251/251
f 252/252 257/257 258/258
f 258/258 253/253 252/252
f 259/259 258/258 257/257
f 257/257 260/260 259/259
f 253/253 254/254 251/251
f 261/261 262/262 263/263
f 262/262 264/264 265/265
f 265/265 263/263 262/262
f 266/266 265/265 264/264
f 264/264 267/267 266/266
f 263/263 268/268 261/261
f 269/269 270/270 271/271
f 272/272 271/271 270/270
f 270/270 273/273 272/272
f 271/271 274/274 269/269
f 275/275 276/276 277/277
f 277/277 278/278 275/275
f 279/279 280/280 281/281
f 282/282 281/281 280/280
f 280/280 283/283 282/282
f 284/284 282/282 283/283
f 283/283 285/285 284/284
f 281/281 286/286 279/279
f 287/287 288/288 289/289
f 288/288 290/290 291/291
f 291/291 289/289 288/288
f 292/292 291/291 290/290
f 290/290 293/293 292/292
f 294/294 295/295 292/292
f 292/292 293/293 294/294
f 296/296 297/297 298/298
f 298/298 299/299 300/300
f 300/300 301/301 298/298
f 302/302 300/300 299/299
f 299/299 303/303 302/302
f 304/304 302/302 303/303
f 303/303 287/287 304/304
f 298/298 301/301 296/296
f 289/289 304/304 287/287
f 305/305 306/306 307/307
f 308/308 307/307 306/306
f 306/306 309/309 308/308
f 305/305 310/310 311/311
f 312/312 311/311 313/313
f 314/314 315/315 316/316
f 313/313 316/316 315/315
f 315/315 317/317 313/313
f 314/314 318/318 319/319
f 320/320 319/319 321/321
f 322/322 321/321 323/323
f 324/324 323/323 325/325
f 325/325 326/326 324/324
f 323/323 324/324 322/322
f 321/321 322/322 320/320
f 319/319 320/320 314/314
f 316/316 318/318 314/314
f 313/313 317/317 312/312
f 311/311 312/312 305/305
f 307/307 310/310 305/305
f 327/327 328/328 329/329
f 329/329 328/328 330/330
f 330/330 331/331 329/329
f 332/332 333/333 331/331
f 331/331 330/330 332/332
f 332/332 334/334 335/335
f 335/335 333/333 332/332
f 336/336 335/335 334/334
f 334/334 337/337 336/336
f 329/329 338/338 327/327
f 339/339 340/340 341/341
f 342/342 340/340 339/339
f 339/339 343/343 342/342
f 344/344 342/342 343/343
f 343/343 345/345 344/344
f 341/341 346/346 339/339
f 347/347 348/348 349/349
f 350/350 349/349 351/351
f 349/349 348/348 352/352
f 350/350 353/353 354/354
f 351/351 355/355 350/350
f 349/349 356/356 357/357
f 352/352 358/358 349/349
f 348/348 359/359 360/360
f 361/361 362/362 363/363
f 361/361 354/354 364/364
f 350/350 365/365 353/353
f 357/357 351/351 349/349
f 360/360 352/352 348/348
f 361/361 366/366 362/362
f 354/354 361/361 350/350
f 358/358 356/356 349/349
f 348/348 363/363 367/367
f 364/364 366/366 361/361
f 367/367 359/359 348/348
f 355/355 365/365 350/350
f 361/361 368/368 369/369
f 369/369 370/370 371/371
f 369/369 368/368 372/372
f 373/373 374/374 375/375
f 373/373 371/371 376/376
f 369/369 377/377 370/370
f 372/372 378/378 369/369
f 368/368 379/379 380/380
f 381/381 375/375 382/382
f 373/373 383/383 374/374
f 371/371 373/373 369/369
f 380/380 372/372 368/368
f 368/368 381/381 384/384
f 381/381 385/385 386/386
f 375/375 381/381 373/373
f 378/378 377/377 369/369
f 384/384 387/387 368/368
f 382/382 385/385 381/381
f 387/387 379/379 368/368
f 376/376 383/383 373/373
f 388/388 349/349 389/389
f 349/349 350/350 390/390
f 350/350 369/369 391/391
f 369/369 373/373 392/392
f 393/393 394/394 395/395
f 396/396 397/397 398/398
f 399/399 400/400 401/401
f 399/399 397/397 402/402
f 398/398 403/403 396/396
f 402/402 400/400 399/399
f 396/396 404/404 397/397
f 404/404 402/402 397/397
f 405/405 406/406 403/403
f 361/361 348/348 407/407
f 348/348 408/408 407/407
f 348/348 409/409 410/410
f 410/410 408/408 348/348
f 411/411 412/412 368/368
f 399/399 381/381 413/413
f 381/381 414/414 415/415
f 381/381 368/368 416/416
f 399/399 417/417 418/418
f 415/415 413/413 381/381
f 368/368 412/412 416/416
f 413/413 417/417 399/399
f 416/416 419/419 381/381
f 419/419 414/414 381/381
f 420/420 421/421 422/422
f 422/422 423/423 420/420
f 424/424 425/425 426/426
f 424/424 427/427 425/425
f 428/428 429/429 430/430
f 431/431 420/420 432/432
f 424/424 430/430 427/427
f 428/428 433/433 429/429
f 434/434 435/435 431/431
f 430/430 424/424 428/428
f 434/434 436/436 435/435
f 434/434 425/425 437/437
f 424/424 438/438 439/439
f 425/425 434/434 426/426
f 437/437 436/436 434/434
f 424/424 440/440 438/438
f 432/432 434/434 431/431
f 426/426 440/440 424/424
f 381/381 441/441 442/442
f 373/373 442/442 443/443
f 444/444 445/445 446/446
f 447/447 347/347 444/444
f 445/445 448/448 446/446
f 347/347 447/447 409/409
f 446/446 449/449 444/444
f 444/444 449/449 447/447
f 445/445 450/450 451/451
f 450/450 452/452 453/453
f 454/454 455/455 456/456
f 393/393 457/457 455/455
f 458/458 459/459 406/406
f 453/453 460/460 450/450
f 393/393 454/454 461/461
f 455/455 454/454 393/393
f 458/458 456/456 459/459
f 452/452 462/462 453/453
f 461/461 452/452 393/393
f 393/393 463/463 457/457
f 406/406 405/405 464/464
f 461/461 462/462 452/452
f 406/406 464/464 458/458
f 456/456 458/458 454/454
f 393/393 452/452 465/465
f 393/393 466/466 467/467
f 466/466 468/468 469/469
f 393/393 470/470 471/471
f 467/467 472/472 393/393
f 469/469 473/473 466/466
f 421/421 474/474 475/475
f 471/471 474/474 421/421
f 393/393 476/476 470/470
f 473/473 467/467 466/466
f 421/421 394/394 471/471
f 472/472 476/476 393/393
f 471/471 394/394 393/393
f 477/477 469/469 468/468
f 478/478 479/479 477/477
f 478/478 480/480 479/479
f 478/478 481/481 482/482
f 482/482 480/480 478/478
f 481/481 483/483 484/484
f 481/481 485/485 482/482
f 481/481 439/439 483/483
f 484/484 485/485 481/481
f 481/481 478/478 486/486
f 424/424 487/487 488/488
f 433/433 428/428 489/489
f 489/489 490/490 433/433
f 491/491 399/399 492/492
f 491/491 493/493 490/490
f 492/492 494/494 491/491
f 494/494 493/493 491/491
f 399/399 491/491 495/495
f 495/495 381/381 399/399
f 496/496 497/497 498/498
f 499/499 498/498 500/500
f 498/498 499/499 496/496
f 501/501 502/502 503/503
f 502/502 504/504 505/505
f 496/496 501/501 497/497
f 505/505 503/503 502/502
f 506/506 505/505 504/504
f 424/424 507/507 506/506
f 503/503 497/497 501/501
f 506/506 487/487 424/424
f 504/504 487/487 506/506
f 481/481 508/508 509/509
f 510/510 511/511 512/512
f 509/509 424/424 481/481
f 510/510 513/513 511/511
f 514/514 515/515 516/516
f 509/509 517/517 424/424
f 481/481 518/518 519/519
f 512/512 481/481 510/510
f 520/520 513/513 510/510
f 521/521 516/516 520/520
f 516/516 521/521 514/514
f 519/519 508/508 481/481
f 510/510 522/522 520/520
f 514/514 523/523 515/515
f 512/512 518/518 481/481
f 523/523 500/500 515/515
f 520/520 522/522 521/521
f 517/517 507/507 424/424
f 500/500 523/523 499/499
f 495/495 441/441 381/381
f 489/489 491/491 490/490
f 489/489 428/428 488/488
f 488/488 428/428 424/424
f 486/486 510/510 481/481
f 468/468 478/478 477/477
f 475/475 422/422 421/421
f 465/465 466/466 393/393
f 460/460 451/451 450/450
f 451/451 448/448 445/445
f 409/409 348/348 347/347
f 443/443 392/392 373/373
f 442/442 373/373 381/381
f 439/439 481/481 424/424
f 423/423 432/432 420/420
f 418/418 397/397 399/399
f 368/368 361/361 411/411
f 407/407 411/411 361/361
f 403/403 398/398 405/405
f 401/401 492/492 399/399
f 395/395 463/463 393/393
f 392/392 391/391 369/369
f 391/391 390/390 350/350
f 390/390 389/389 349/349
f 389/389 524/524 388/388
f 386/386 384/384 381/381
f 369/369 350/350 361/361
f 363/363 348/348 361/361
f 349/349 388/388 347/347
f 525/525 526/526 527/527
f 528/528 527/527 529/529
f 530/530 529/529 531/531
f 532/532 531/531 533/533
f 534/534 525/525 528/528
f 530/530 535/535 536/536
f 530/530 537/537 538/538
f 536/536 539/539 530/530
f 535/535 540/540 541/541
f 535/535 542/542 543/543
f 530/530 544/544 537/537
f 541/541 536/536 535/535
f 543/543 545/545 535/535
f 542/542 546/546 547/547
f 528/528 548/548 549/549
f 539/539 544/544 530/530
f 547/547 543/543 542/542
f 542/542 549/549 550/550
f 528/528 551/551 548/548
f 545/545 540/540 535/535
f 549/549 542/542 528/528
f 550/550 546/546 542/542
f 528/528 538/538 552/552
f 552/552 551/551 528/528
f 535/535 530/530 532/532
f 553/553 554/554 555/555
f 555/555 556/556 553/553
f 554/554 557/557 558/558
f 559/559 560/560 561/561
f 553/553 562/562 563/563
f 558/558 555/555 554/554
f 554/554 561/561 564/564
f 559/559 565/565 560/560
f 532/532 566/566 567/567
f 556/556 562/562 553/553
f 561/561 554/554 559/559
f 559/559 567/567 568/568
f 532/532 569/569 566/566
f 564/564 557/557 554/554
f 567/567 559/559 532/532
f 532/532 553/553 570/570
f 568/568 565/565 559/559
f 570/570 571/571 532/532
f 571/571 569/569 532/532
f 572/572 573/573 574/574
f 575/575 576/576 577/577
f 578/578 579/579 580/580
f 578/578 581/581 582/582
f 583/583 575/575 584/584
f 582/582 579/579 578/578
f 585/585 586/586 583/583
f 580/580 585/585 578/578
f 580/580 586/586 585/585
f 554/554 587/587 588/588
f 578/578 589/589 587/587
f 587/587 554/554 578/578
f 554/554 590/590 591/591
f 588/588 592/592 554/554
f 578/578 585/585 593/593
f 591/591 559/559 554/554
f 593/593 589/589 578/578
f 592/592 590/590 554/554
f 594/594 535/535 559/559
f 535/535 594/594 595/595
f 595/595 542/542 535/535
f 595/595 596/596 542/542
f 596/596 597/597 542/542
f 598/598 599/599 600/600
f 600/600 601/601 598/598
f 602/602 603/603 604/604
f 599/599 605/605 606/606
f 598/598 607/607 599/599
f 608/608 602/602 609/609
f 604/604 610/610 602/602
f 607/607 605/605 599/599
f 609/609 611/611 608/608
f 610/610 612/612 602/602
f 610/610 604/604 599/599
f 612/612 609/609 602/602
f 602/602 613/613 614/614
f 611/611 615/615 608/608
f 614/614 616/616 602/602
f 616/616 603/603 602/602
f 601/601 617/617 618/618
f 601/601 600/600 617/617
f 553/553 533/533 619/619
f 554/554 553/553 620/620
f 578/578 554/554 621/621
f 554/554 622/622 621/621
f 615/615 623/623 624/624
f 623/623 625/625 624/624
f 624/624 608/608 615/615
f 625/625 626/626 581/581
f 623/623 627/627 625/625
f 627/627 626/626 625/625
f 602/602 608/608 628/628
f 613/613 629/629 630/630
f 613/613 631/631 632/632
f 632/632 633/633 613/613
f 634/634 635/635 636/636
f 613/613 636/636 631/631
f 634/634 637/637 635/635
f 638/638 634/634 639/639
f 636/636 613/613 634/634
f 639/639 640/640 638/638
f 638/638 637/637 634/634
f 641/641 642/642 640/640
f 572/572 643/643 644/644
f 641/641 644/644 642/642
f 572/572 645/645 643/643
f 572/572 646/646 647/647
f 644/644 641/641 572/572
f 647/647 648/648 572/572
f 647/647 646/646 649/649
f 649/649 618/618 650/650
f 648/648 645/645 572/572
f 650/650 651/651 649/649
f 649/649 651/651 647/647
f 572/572 641/641 652/652
f 653/653 654/654 576/576
f 572/572 655/655 656/656
f 576/576 657/657 653/653
f 656/656 658/658 572/572
f 655/655 653/653 659/659
f 572/572 660/660 661/661
f 657/657 659/659 653/653
f 659/659 656/656 655/655
f 660/660 662/662 661/661
f 658/658 573/573 572/572
f 660/660 663/663 662/662
f 664/664 665/665 663/663
f 661/661 655/655 572/572
f 664/664 666/666 665/665
f 663/663 660/660 664/664
f 667/667 668/668 666/666
f 669/669 670/670 671/671
f 671/671 667/667 669/669
f 672/672 670/670 669/669
f 669/669 534/534 672/672
f 534/534 542/542 673/673
f 673/673 672/672 534/534
f 602/602 674/674 675/675
f 675/675 674/674 676/676
f 677/677 678/678 679/679
f 680/680 681/681 678/678
f 682/682 683/683 684/684
f 676/676 679/679 675/675
f 678/678 677/677 680/680
f 681/681 680/680 682/682
f 683/683 685/685 686/686
f 679/679 676/676 677/677
f 686/686 684/684 683/683
f 684/684 681/681 682/682
f 687/687 688/688 689/689
f 629/629 613/613 690/690
f 691/691 685/685 687/687
f 688/688 692/692 693/693
f 690/690 694/694 629/629
f 693/693 689/689 688/688
f 693/693 692/692 629/629
f 613/613 695/695 690/690
f 689/689 691/691 687/687
f 694/694 696/696 629/629
f 613/613 602/602 697/697
f 629/629 696/696 693/693
f 613/613 698/698 699/699
f 602/602 700/700 697/697
f 699/699 695/695 613/613
f 602/602 701/701 700/700
f 697/697 698/698 613/613
f 691/691 686/686 685/685
f 675/675 701/701 602/602
f 671/671 668/668 667/667
f 666/666 664/664 667/667
f 654/654 577/577 576/576
f 652/652 660/660 572/572
f 640/640 639/639 641/641
f 633/633 614/614 613/613
f 630/630 634/634 613/613
f 628/628 674/674 602/602
f 628/628 608/608 624/624
f 581/581 578/578 625/625
f 621/621 625/625 578/578
f 620/620 622/622 554/554
f 619/619 620/620 553/553
f 618/618 649/649 601/601
f 606/606 610/610 599/599
f 597/597 673/673 542/542
f 559/559 702/702 594/594
f 591/591 702/702 559/559
f 584/584 585/585 583/583
f 577/577 584/584 575/575
f 574/574 646/646 572/572
f 563/563 570/570 553/553
f 532/532 559/559 535/535
f 538/538 528/528 530/530
f 528/528 542/542 534/534
f 533/533 553/553 532/532
f 531/531 532/532 530/530
f 529/529 530/530 528/528
f 527/527 528/528 525/525
f 703/703 704/704 705/705
f 706/706 703/703 707/707
f 708/708 706/706 709/709
f 710/710 708/708 711/711
f 712/712 710/710 713/713
f 714/714 712/712 715/715
f 716/716 714/714 717/717
f 718/718 716/716 719/719
f 720/720 718/718 721/721
f 722/722 720/720 723/723
f 724/724 722/722 725/725
f 726/726 724/724 727/727
f 728/728 726/726 729/729
f 730/730 728/728 731/731
f 732/732 730/730 733/733
f 704/704 732/732 734/734
f 734/734 705/705 704/704
f 733/733 734/734 732/732
f 731/731 733/733 730/730
f 729/729 731/731 728/728
f 727/727 729/729 726/726
f 725/725 727/727 724/724
f 723/723 725/725 722/722
f 721/721 723/723 720/720
f 719/719 721/721 718/718
f 717/717 719/719 716/716
f 715/715 717/717 714/714
f 713/713 715/715 712/712
f 711/711 713/713 710/710
f 709/709 711/711 708/708
f 707/707 709/709 706/706
f 705/705 707/707 703/703

