# https://github.com/mikedh/trimesh
mtllib material.mtl
usemtl 0.647059_0.647059_0.647059_0.000000_0.000000
v 0.01959406 0.07756335 0.01800000
v 0.01959406 0.07756335 0.02300000
v 0.02108838 0.07691175 0.02300000
v 0.02108838 0.07691175 0.01800000
v 0.02229366 0.07581409 0.02300000
v 0.02229366 0.07581409 0.01800000
v 0.02308179 0.07438706 0.02300000
v 0.02308179 0.07438706 0.01800000
v 0.02336899 0.07278235 0.02300000
v 0.02336899 0.07278235 0.01800000
v 0.02312472 0.07117055 0.02300000
v 0.02312472 0.07117055 0.01800000
v -0.02312472 0.07117055 0.01800000
v -0.02312472 0.07117055 0.02300000
v -0.02336899 0.07278235 0.02300000
v -0.02336899 0.07278235 0.01800000
v -0.02308179 0.07438706 0.02300000
v -0.02308179 0.07438706 0.01800000
v -0.02229366 0.07581409 0.02300000
v -0.02229366 0.07581409 0.01800000
v -0.02108838 0.07691175 0.02300000
v -0.02108838 0.07691175 0.01800000
v -0.01959406 0.07756335 0.02300000
v -0.01959406 0.07756335 0.01800000
v -0.00000000 0.08000000 0.01800000
v -0.01959406 0.07756335 0.01800000
v -0.01184387 0.07852714 0.02300000
v -0.01959406 0.07756335 0.02300000
v -0.00000000 0.08000000 0.02300000
v 0.01184387 0.07852714 0.02300000
v 0.01959406 0.07756335 0.01800000
v 0.01959406 0.07756335 0.02300000
v 0.02008610 0.06181867 0.02300000
v 0.02008610 0.06181867 0.01800000
v 0.02312472 0.07117055 0.01800000
v 0.02312472 0.07117055 0.02300000
v 0.02008610 0.06181867 0.01800000
v 0.02008610 0.06181867 0.02300000
v 0.03278879 0.05483531 0.02300000
v 0.04143256 0.05008336 0.01800000
v 0.04143256 0.05008336 0.02300000
v 0.05583261 0.03267669 0.02300000
v 0.05695993 0.03131399 0.01800000
v 0.06448746 0.00814666 0.01800000
v 0.05981455 0.02252839 0.02300000
v 0.05695993 0.03131399 0.02300000
v 0.06295791 -0.01616484 0.01800000
v 0.06397491 0.00000000 0.02300000
v 0.06448746 0.00814666 0.02300000
v 0.05258610 -0.03820604 0.01800000
v 0.05996345 -0.02252839 0.02300000
v 0.05518802 -0.03267669 0.02300000
v 0.06295791 -0.01616484 0.02300000
v 0.05258610 -0.03820604 0.02300000
v 0.03482874 -0.05488132 0.02300000
v 0.01217979 -0.06384867 0.01800000
v 0.03482874 -0.05488132 0.01800000
v 0.03278879 -0.05568899 0.02300000
v -0.01217979 -0.06384867 0.01800000
v 0.01184387 -0.06384867 0.02300000
v -0.01184387 -0.06384867 0.02300000
v 0.01217979 -0.06384867 0.02300000
v -0.01217979 -0.06384867 0.02300000
v -0.03278879 -0.05568899 0.02300000
v -0.03482874 -0.05488132 0.01800000
v -0.03482874 -0.05488132 0.02300000
v -0.05258610 -0.03820604 0.02300000
v -0.06295791 -0.01616484 0.01800000
v -0.05258610 -0.03820604 0.01800000
v -0.05518802 -0.03267669 0.02300000
v -0.05303879 -0.03724404 0.02300000
v -0.06295791 -0.01616484 0.02300000
v -0.06397491 0.00000000 0.02300000
v -0.06448746 0.00814666 0.01800000
v -0.06448746 0.00814666 0.02300000
v -0.05695993 0.03131399 0.02300000
v -0.04143256 0.05008336 0.01800000
v -0.05695993 0.03131399 0.01800000
v -0.05303879 0.03605384 0.02300000
v -0.05583261 0.03267669 0.02300000
v -0.02008610 0.06181867 0.01800000
v -0.03278879 0.05483531 0.02300000
v -0.04143256 0.05008336 0.02300000
v -0.02008610 0.06181867 0.02300000
v -0.02008610 0.06181867 0.01800000
v -0.02008610 0.06181867 0.02300000
v -0.02312472 0.07117055 0.02300000
v -0.02312472 0.07117055 0.01800000
v -0.06448746 0.00814666 0.01800000
v -0.05695993 0.03131399 0.01800000
v -0.04619398 0.01913417 0.01800000
v -0.03535534 0.03535534 0.01800000
v 0.02008610 0.06181867 0.01800000
v -0.01913417 0.04619398 0.01800000
v 0.05258610 -0.03820604 0.01800000
v 0.03535534 -0.03535534 0.01800000
v 0.04619398 -0.01913417 0.01800000
v 0.03482874 -0.05488132 0.01800000
v 0.01913417 -0.04619398 0.01800000
v 0.01217979 -0.06384867 0.01800000
v -0.00000000 -0.05000000 0.01800000
v 0.01913417 0.04619398 0.01800000
v -0.00000000 0.05000000 0.01800000
v -0.02312472 0.07117055 0.01800000
v -0.02308179 0.07438706 0.01800000
v -0.02229366 0.07581409 0.01800000
v 0.04143256 0.05008336 0.01800000
v 0.03535534 0.03535534 0.01800000
v -0.01217979 -0.06384867 0.01800000
v -0.03482874 -0.05488132 0.01800000
v -0.01913417 -0.04619398 0.01800000
v -0.02336899 0.07278235 0.01800000
v 0.02229366 0.07581409 0.01800000
v 0.02308179 0.07438706 0.01800000
v 0.01959406 0.07756335 0.01800000
v 0.02108838 0.07691175 0.01800000
v 0.05695993 0.03131399 0.01800000
v 0.04619398 0.01913417 0.01800000
v 0.06448746 0.00814666 0.01800000
v 0.05000000 -0.00000000 0.01800000
v 0.06295791 -0.01616484 0.01800000
v -0.05258610 -0.03820604 0.01800000
v -0.03535534 -0.03535534 0.01800000
v -0.02108838 0.07691175 0.01800000
v -0.06295791 -0.01616484 0.01800000
v -0.04619398 -0.01913417 0.01800000
v -0.01959406 0.07756335 0.01800000
v 0.02312472 0.07117055 0.01800000
v 0.02336899 0.07278235 0.01800000
v -0.00000000 0.08000000 0.01800000
v -0.05000000 0.00000000 0.01800000
v -0.02008610 0.06181867 0.01800000
v -0.04143256 0.05008336 0.01800000
v -0.05303879 -0.02252839 0.02300000
v -0.05303879 -0.03267669 0.02300000
v -0.03278879 -0.03267669 0.02300000
v -0.03278879 0.00000000 0.02300000
v -0.03578691 -0.01140101 0.02300000
v -0.03557758 -0.01245338 0.02300000
v -0.03638303 -0.01050884 0.02300000
v -0.04027212 -0.01439793 0.02300000
v -0.04086825 -0.01350576 0.02300000
v -0.03727520 -0.00991272 0.02300000
v -0.03937996 -0.01499405 0.02300000
v -0.03278879 -0.02252839 0.02300000
v -0.03832758 -0.01520338 0.02300000
v -0.03832758 -0.00970338 0.02300000
v -0.05303879 0.00000000 0.02300000
v -0.03937996 -0.00991272 0.02300000
v -0.04107758 -0.01245338 0.02300000
v -0.03727520 -0.01499405 0.02300000
v -0.04027212 -0.01050884 0.02300000
v -0.04086825 -0.01140101 0.02300000
v -0.03638303 -0.01439793 0.02300000
v -0.03578691 -0.01350576 0.02300000
v -0.03832758 0.00970338 0.02300000
v -0.03937996 0.00991272 0.02300000
v -0.03278879 0.02252839 0.02300000
v -0.03832758 0.01520338 0.02300000
v -0.03727520 0.01499405 0.02300000
v -0.05303879 0.02252839 0.02300000
v -0.03937996 0.01499405 0.02300000
v -0.04086825 0.01140101 0.02300000
v -0.04107758 0.01245338 0.02300000
v -0.03727520 0.00991272 0.02300000
v -0.03638303 0.01439793 0.02300000
v -0.03578691 0.01350576 0.02300000
v -0.04027212 0.01439793 0.02300000
v -0.04027212 0.01050884 0.02300000
v -0.03638303 0.01050884 0.02300000
v -0.03557758 0.01245338 0.02300000
v -0.04086825 0.01350576 0.02300000
v -0.03578691 0.01140101 0.02300000
v -0.05303879 0.03267669 0.02300000
v -0.01184387 0.07852714 0.02300000
v -0.00105238 0.04284067 0.02300000
v -0.00000000 0.04305000 0.02300000
v -0.00194454 0.04224454 0.02300000
v -0.00254067 0.04135238 0.02300000
v -0.01184387 0.03267669 0.02300000
v -0.00275000 0.04030000 0.02300000
v 0.01184387 0.07852714 0.02300000
v -0.00000000 0.08000000 0.02300000
v 0.00105238 0.04284067 0.02300000
v -0.00254067 0.03924762 0.02300000
v 0.01184387 0.03267669 0.02300000
v 0.00105238 0.03775933 0.02300000
v -0.00000000 0.03755000 0.02300000
v 0.00254067 0.04135238 0.02300000
v 0.00194454 0.04224454 0.02300000
v -0.00194454 0.03835545 0.02300000
v -0.00105238 0.03775933 0.02300000
v 0.00194454 0.03835545 0.02300000
v 0.00254067 0.03924762 0.02300000
v 0.00275000 0.04030000 0.02300000
v -0.02108838 0.07691175 0.02300000
v -0.02229366 0.07581409 0.02300000
v -0.02308179 0.07438706 0.02300000
v -0.02336899 0.07278235 0.02300000
v -0.01959406 0.07756335 0.02300000
v -0.02008610 0.06181867 0.02300000
v -0.02174320 0.03454793 0.02300000
v -0.03278879 0.05483531 0.02300000
v -0.02474013 0.03514405 0.02300000
v -0.02368775 0.03535338 0.02300000
v -0.03278879 0.03267669 0.02300000
v -0.02622841 0.03365576 0.02300000
v -0.02114708 0.03365576 0.02300000
v -0.02263537 0.03514405 0.02300000
v -0.02563229 0.03454793 0.02300000
v -0.02642316 0.03267669 0.02300000
v -0.02312472 0.07117055 0.02300000
v -0.04143256 0.05008336 0.02300000
v -0.05303879 0.03605384 0.02300000
v -0.05583261 0.03267669 0.02300000
v -0.06448746 0.00814666 0.02300000
v -0.05695993 0.03131399 0.02300000
v -0.06397491 0.00000000 0.02300000
v -0.06295791 -0.01616484 0.02300000
v -0.05518802 -0.03267669 0.02300000
v -0.05303879 -0.03724404 0.02300000
v -0.05258610 -0.03820604 0.02300000
v -0.03482874 -0.05488132 0.02300000
v -0.03278879 -0.05568899 0.02300000
v -0.02563229 -0.03454793 0.02300000
v -0.02622841 -0.03365576 0.02300000
v -0.01217979 -0.06384867 0.02300000
v -0.02368775 -0.03535338 0.02300000
v -0.02263537 -0.03514405 0.02300000
v -0.01184387 -0.06384867 0.02300000
v -0.01184387 -0.03267669 0.02300000
v -0.02114708 -0.03365576 0.02300000
v -0.02474013 -0.03514405 0.02300000
v -0.02174320 -0.03454793 0.02300000
v -0.02095233 -0.03267669 0.02300000
v -0.00105238 -0.03775933 0.02300000
v -0.00000000 -0.03755000 0.02300000
v -0.00194454 -0.03835545 0.02300000
v -0.00254067 -0.03924762 0.02300000
v 0.01184387 -0.06384867 0.02300000
v -0.00000000 -0.04305000 0.02300000
v -0.00275000 -0.04030000 0.02300000
v -0.00254067 -0.04135238 0.02300000
v -0.00105238 -0.04284067 0.02300000
v 0.01184387 -0.03267669 0.02300000
v 0.00194454 -0.03835545 0.02300000
v 0.00254067 -0.03924762 0.02300000
v 0.00105238 -0.03775933 0.02300000
v -0.00194454 -0.04224454 0.02300000
v 0.00194454 -0.04224454 0.02300000
v 0.00105238 -0.04284067 0.02300000
v 0.00254067 -0.04135238 0.02300000
v 0.00275000 -0.04030000 0.02300000
v 0.02174320 -0.03454793 0.02300000
v 0.02114708 -0.03365576 0.02300000
v 0.02263537 -0.03514405 0.02300000
v 0.01217979 -0.06384867 0.02300000
v 0.03278879 -0.05568899 0.02300000
v 0.02474013 -0.03514405 0.02300000
v 0.02368775 -0.03535338 0.02300000
v 0.03278879 -0.03267669 0.02300000
v 0.02622841 -0.03365576 0.02300000
v 0.02563229 -0.03454793 0.02300000
v 0.02642316 -0.03267669 0.02300000
v 0.03482874 -0.05488132 0.02300000
v 0.05258610 -0.03820604 0.02300000
v 0.03278879 -0.02252839 0.02300000
v 0.05518802 -0.03267669 0.02300000
v 0.03278879 0.00000000 0.02300000
v 0.03832758 -0.00970338 0.02300000
v 0.03937996 -0.00991272 0.02300000
v 0.06397491 0.00000000 0.02300000
v 0.06295791 -0.01616484 0.02300000
v 0.04107758 -0.01245338 0.02300000
v 0.04086825 -0.01350576 0.02300000
v 0.04086825 -0.01140101 0.02300000
v 0.03727520 -0.00991272 0.02300000
v 0.05996345 -0.02252839 0.02300000
v 0.04027212 -0.01050884 0.02300000
v 0.03638303 -0.01050884 0.02300000
v 0.03557758 -0.01245338 0.02300000
v 0.03638303 -0.01439793 0.02300000
v 0.03578691 -0.01350576 0.02300000
v 0.03832758 -0.01520338 0.02300000
v 0.03727520 -0.01499405 0.02300000
v 0.03937996 -0.01499405 0.02300000
v 0.04027212 -0.01439793 0.02300000
v 0.03578691 -0.01140101 0.02300000
v 0.03278879 0.02252839 0.02300000
v 0.03832758 0.01520338 0.02300000
v 0.03937996 0.01499405 0.02300000
v 0.05981455 0.02252839 0.02300000
v 0.03832758 0.00970338 0.02300000
v 0.03727520 0.00991272 0.02300000
v 0.03937996 0.00991272 0.02300000
v 0.04086825 0.01350576 0.02300000
v 0.04107758 0.01245338 0.02300000
v 0.03727520 0.01499405 0.02300000
v 0.03578691 0.01140101 0.02300000
v 0.03557758 0.01245338 0.02300000
v 0.04027212 0.01439793 0.02300000
v 0.03638303 0.01439793 0.02300000
v 0.03638303 0.01050884 0.02300000
v 0.04027212 0.01050884 0.02300000
v 0.06448746 0.00814666 0.02300000
v 0.04086825 0.01140101 0.02300000
v 0.03578691 0.01350576 0.02300000
v 0.05695993 0.03131399 0.02300000
v 0.05583261 0.03267669 0.02300000
v 0.03278879 0.03267669 0.02300000
v 0.04143256 0.05008336 0.02300000
v 0.02312472 0.07117055 0.02300000
v 0.02229366 0.07581409 0.02300000
v 0.02108838 0.07691175 0.02300000
v 0.02336899 0.07278235 0.02300000
v 0.02308179 0.07438706 0.02300000
v 0.03278879 0.05483531 0.02300000
v 0.02563229 0.03454793 0.02300000
v 0.02622841 0.03365576 0.02300000
v 0.02008610 0.06181867 0.02300000
v 0.02368775 0.03535338 0.02300000
v 0.02114708 0.03365576 0.02300000
v 0.02174320 0.03454793 0.02300000
v 0.01959406 0.07756335 0.02300000
v 0.02474013 0.03514405 0.02300000
v 0.02263537 0.03514405 0.02300000
v 0.02095233 0.03267669 0.02300000
v 0.02642316 0.03267669 0.02300000
v 0.02771639 -0.01148050 0.02300000
v 0.02121320 -0.02121320 0.02300000
v 0.03000000 0.00000000 0.02300000
v 0.02622841 -0.03155101 0.02300000
v 0.02093775 -0.03260338 0.02300000
v 0.02114708 -0.03155101 0.02300000
v 0.02643775 -0.03260338 0.02300000
v 0.01924490 -0.02252839 0.02300000
v 0.02368775 -0.02985338 0.02300000
v 0.01184387 -0.02747359 0.02300000
v 0.02174320 -0.03065884 0.02300000
v 0.02095233 -0.03267669 0.02300000
v 0.02563229 -0.03065884 0.02300000
v 0.02474013 -0.03006272 0.02300000
v 0.02263537 -0.03006272 0.02300000
v 0.01148050 -0.02771639 0.02300000
v 0.00000000 -0.03000000 0.02300000
v -0.01148050 -0.02771639 0.02300000
v -0.01184387 -0.02747359 0.02300000
v -0.02114708 -0.03155101 0.02300000
v -0.02474013 -0.03006272 0.02300000
v -0.02368775 -0.02985338 0.02300000
v -0.02093775 -0.03260338 0.02300000
v -0.01924490 -0.02252839 0.02300000
v -0.02263537 -0.03006272 0.02300000
v -0.02174320 -0.03065884 0.02300000
v -0.02563229 -0.03065884 0.02300000
v -0.02643775 -0.03260338 0.02300000
v -0.02622841 -0.03155101 0.02300000
v -0.02642316 -0.03267669 0.02300000
v -0.02771639 -0.01148050 0.02300000
v -0.02121320 -0.02121320 0.02300000
v -0.02771639 0.01148050 0.02300000
v -0.02121320 0.02121320 0.02300000
v -0.03000000 0.00000000 0.02300000
v -0.01924490 0.02252839 0.02300000
v -0.01184387 0.02747359 0.02300000
v -0.02174320 0.03065884 0.02300000
v -0.02263537 0.03006272 0.02300000
v -0.02093775 0.03260338 0.02300000
v -0.02114708 0.03155101 0.02300000
v -0.02622841 0.03155101 0.02300000
v -0.02368775 0.02985338 0.02300000
v -0.02095233 0.03267669 0.02300000
v -0.02643775 0.03260338 0.02300000
v -0.02474013 0.03006272 0.02300000
v -0.02563229 0.03065884 0.02300000
v -0.01148050 0.02771639 0.02300000
v 0.00000000 0.03000000 0.02300000
v 0.01148050 0.02771639 0.02300000
v 0.02474013 0.03006272 0.02300000
v 0.02368775 0.02985338 0.02300000
v 0.02563229 0.03065884 0.02300000
v 0.02643775 0.03260338 0.02300000
v 0.02622841 0.03155101 0.02300000
v 0.01184387 0.02747359 0.02300000
v 0.02114708 0.03155101 0.02300000
v 0.01924490 0.02252839 0.02300000
v 0.02263537 0.03006272 0.02300000
v 0.02174320 0.03065884 0.02300000
v 0.02093775 0.03260338 0.02300000
v 0.02771639 0.01148050 0.02300000
v 0.02121320 0.02121320 0.02300000
v 0.05000000 -0.00000000 0.01800000
v 0.05000000 -0.00000000 0.00500000
v 0.04619398 0.01913417 0.00500000
v 0.03535534 0.03535534 0.01800000
v 0.04619398 0.01913417 0.01800000
v 0.04392603 0.02252839 0.00500000
v 0.03714515 0.03267669 0.00500000
v 0.01913417 0.04619398 0.01800000
v 0.03278879 0.03707025 0.00500000
v 0.03535534 0.03535534 0.00500000
v -0.00000000 0.05000000 0.01800000
v 0.01184387 0.04764411 0.00500000
v 0.01913417 0.04619398 0.00500000
v -0.00000000 0.05000000 0.00500000
v -0.01184387 0.04764411 0.00500000
v -0.01913417 0.04619398 0.01800000
v -0.01913417 0.04619398 0.00500000
v -0.03278879 0.03707025 0.00500000
v -0.03535534 0.03535534 0.01800000
v -0.04619398 0.01913417 0.01800000
v -0.04392603 0.02252839 0.00500000
v -0.04553879 0.02011473 0.00500000
v -0.03714515 0.03267669 0.00500000
v -0.03535534 0.03535534 0.00500000
v -0.04619398 0.01913417 0.00500000
v -0.05000000 0.00000000 0.00500000
v -0.05000000 0.00000000 0.01800000
v -0.04619398 -0.01913417 0.00500000
v -0.03535534 -0.03535534 0.01800000
v -0.04619398 -0.01913417 0.01800000
v -0.04392603 -0.02252839 0.00500000
v -0.03714515 -0.03267669 0.00500000
v -0.04553879 -0.02011473 0.00500000
v -0.01913417 -0.04619398 0.01800000
v -0.03278879 -0.03707025 0.00500000
v -0.03535534 -0.03535534 0.00500000
v -0.00000000 -0.05000000 0.01800000
v -0.01184387 -0.04764411 0.00500000
v -0.01913417 -0.04619398 0.00500000
v -0.00000000 -0.05000000 0.00500000
v 0.01184387 -0.04764411 0.00500000
v 0.01913417 -0.04619398 0.01800000
v 0.01913417 -0.04619398 0.00500000
v 0.03278879 -0.03707025 0.00500000
v 0.03535534 -0.03535534 0.01800000
v 0.03714515 -0.03267669 0.00500000
v 0.04392603 -0.02252839 0.00500000
v 0.04619398 -0.01913417 0.01800000
v 0.03535534 -0.03535534 0.00500000
v 0.04619398 -0.01913417 0.00500000
v 0.00254067 0.03924762 0.02300000
v 0.00275000 0.04030000 0.02300000
v 0.00275000 0.04030000 0.00500000
v 0.00194454 0.03835545 0.02300000
v 0.00254067 0.03924762 0.00500000
v 0.00105238 0.03775933 0.02300000
v 0.00194454 0.03835545 0.00500000
v -0.00000000 0.03755000 0.02300000
v 0.00105238 0.03775933 0.00500000
v -0.00105238 0.03775933 0.02300000
v -0.00000000 0.03755000 0.00500000
v -0.00194454 0.03835545 0.02300000
v -0.00105238 0.03775933 0.00500000
v -0.00254067 0.03924762 0.02300000
v -0.00194454 0.03835545 0.00500000
v -0.00275000 0.04030000 0.02300000
v -0.00254067 0.03924762 0.00500000
v -0.00254067 0.04135238 0.02300000
v -0.00275000 0.04030000 0.00500000
v -0.00194454 0.04224454 0.02300000
v -0.00254067 0.04135238 0.00500000
v -0.00105238 0.04284067 0.02300000
v -0.00194454 0.04224454 0.00500000
v -0.00000000 0.04305000 0.02300000
v -0.00105238 0.04284067 0.00500000
v 0.00105238 0.04284067 0.02300000
v -0.00000000 0.04305000 0.00500000
v 0.00194454 0.04224454 0.02300000
v 0.00105238 0.04284067 0.00500000
v 0.00254067 0.04135238 0.02300000
v 0.00194454 0.04224454 0.00500000
v 0.00254067 0.04135238 0.00500000
v 0.02622841 0.03155101 0.02300000
v 0.02643775 0.03260338 0.02300000
v 0.02643775 0.03260338 0.00500000
v 0.02563229 0.03065884 0.02300000
v 0.02622841 0.03155101 0.00500000
v 0.02474013 0.03006272 0.02300000
v 0.02563229 0.03065884 0.00500000
v 0.02368775 0.02985338 0.02300000
v 0.02474013 0.03006272 0.00500000
v 0.02263537 0.03006272 0.02300000
v 0.02368775 0.02985338 0.00500000
v 0.02174320 0.03065884 0.02300000
v 0.02263537 0.03006272 0.00500000
v 0.02114708 0.03155101 0.02300000
v 0.02174320 0.03065884 0.00500000
v 0.02093775 0.03260338 0.02300000
v 0.02114708 0.03155101 0.00500000
v 0.02114708 0.03365576 0.02300000
v 0.02095233 0.03267669 0.02300000
v 0.02095233 0.03267669 0.00500000
v 0.02093775 0.03260338 0.00500000
v 0.02174320 0.03454793 0.02300000
v 0.02114708 0.03365576 0.00500000
v 0.02263537 0.03514405 0.02300000
v 0.02174320 0.03454793 0.00500000
v 0.02368775 0.03535338 0.02300000
v 0.02263537 0.03514405 0.00500000
v 0.02474013 0.03514405 0.02300000
v 0.02368775 0.03535338 0.00500000
v 0.02563229 0.03454793 0.02300000
v 0.02474013 0.03514405 0.00500000
v 0.02622841 0.03365576 0.02300000
v 0.02563229 0.03454793 0.00500000
v 0.02642316 0.03267669 0.02300000
v 0.02642316 0.03267669 0.00500000
v 0.02622841 0.03365576 0.00500000
v 0.04086825 0.01140101 0.02300000
v 0.04107758 0.01245338 0.02300000
v 0.04107758 0.01245338 0.00500000
v 0.04027212 0.01050884 0.02300000
v 0.04086825 0.01140101 0.00500000
v 0.03937996 0.00991272 0.02300000
v 0.04027212 0.01050884 0.00500000
v 0.03832758 0.00970338 0.02300000
v 0.03937996 0.00991272 0.00500000
v 0.03727520 0.00991272 0.02300000
v 0.03832758 0.00970338 0.00500000
v 0.03638303 0.01050884 0.02300000
v 0.03727520 0.00991272 0.00500000
v 0.03578691 0.01140101 0.02300000
v 0.03638303 0.01050884 0.00500000
v 0.03557758 0.01245338 0.02300000
v 0.03578691 0.01140101 0.00500000
v 0.03578691 0.01350576 0.02300000
v 0.03557758 0.01245338 0.00500000
v 0.03638303 0.01439793 0.02300000
v 0.03578691 0.01350576 0.00500000
v 0.03727520 0.01499405 0.02300000
v 0.03638303 0.01439793 0.00500000
v 0.03832758 0.01520338 0.02300000
v 0.03727520 0.01499405 0.00500000
v 0.03937996 0.01499405 0.02300000
v 0.03832758 0.01520338 0.00500000
v 0.04027212 0.01439793 0.02300000
v 0.03937996 0.01499405 0.00500000
v 0.04086825 0.01350576 0.02300000
v 0.04027212 0.01439793 0.00500000
v 0.04086825 0.01350576 0.00500000
v 0.04086825 -0.01350576 0.02300000
v 0.04107758 -0.01245338 0.02300000
v 0.04107758 -0.01245338 0.00500000
v 0.04027212 -0.01439793 0.02300000
v 0.04086825 -0.01350576 0.00500000
v 0.03937996 -0.01499405 0.02300000
v 0.04027212 -0.01439793 0.00500000
v 0.03832758 -0.01520338 0.02300000
v 0.03937996 -0.01499405 0.00500000
v 0.03727520 -0.01499405 0.02300000
v 0.03832758 -0.01520338 0.00500000
v 0.03638303 -0.01439793 0.02300000
v 0.03727520 -0.01499405 0.00500000
v 0.03578691 -0.01350576 0.02300000
v 0.03638303 -0.01439793 0.00500000
v 0.03557758 -0.01245338 0.02300000
v 0.03578691 -0.01350576 0.00500000
v 0.03578691 -0.01140101 0.02300000
v 0.03557758 -0.01245338 0.00500000
v 0.03638303 -0.01050884 0.02300000
v 0.03578691 -0.01140101 0.00500000
v 0.03727520 -0.00991272 0.02300000
v 0.03638303 -0.01050884 0.00500000
v 0.03832758 -0.00970338 0.02300000
v 0.03727520 -0.00991272 0.00500000
v 0.03937996 -0.00991272 0.02300000
v 0.03832758 -0.00970338 0.00500000
v 0.04027212 -0.01050884 0.02300000
v 0.03937996 -0.00991272 0.00500000
v 0.04086825 -0.01140101 0.02300000
v 0.04027212 -0.01050884 0.00500000
v 0.04086825 -0.01140101 0.00500000
v 0.02622841 -0.03365576 0.02300000
v 0.02642316 -0.03267669 0.02300000
v 0.02642316 -0.03267669 0.00500000
v 0.02643775 -0.03260338 0.00500000
v 0.02643775 -0.03260338 0.02300000
v 0.02563229 -0.03454793 0.02300000
v 0.02622841 -0.03365576 0.00500000
v 0.02474013 -0.03514405 0.02300000
v 0.02563229 -0.03454793 0.00500000
v 0.02368775 -0.03535338 0.02300000
v 0.02474013 -0.03514405 0.00500000
v 0.02263537 -0.03514405 0.02300000
v 0.02368775 -0.03535338 0.00500000
v 0.02174320 -0.03454793 0.02300000
v 0.02263537 -0.03514405 0.00500000
v 0.02114708 -0.03365576 0.02300000
v 0.02174320 -0.03454793 0.00500000
v 0.02093775 -0.03260338 0.02300000
v 0.02095233 -0.03267669 0.02300000
v 0.02095233 -0.03267669 0.00500000
v 0.02114708 -0.03365576 0.00500000
v 0.02114708 -0.03155101 0.02300000
v 0.02093775 -0.03260338 0.00500000
v 0.02174320 -0.03065884 0.02300000
v 0.02114708 -0.03155101 0.00500000
v 0.02263537 -0.03006272 0.02300000
v 0.02174320 -0.03065884 0.00500000
v 0.02368775 -0.02985338 0.02300000
v 0.02263537 -0.03006272 0.00500000
v 0.02474013 -0.03006272 0.02300000
v 0.02368775 -0.02985338 0.00500000
v 0.02563229 -0.03065884 0.02300000
v 0.02474013 -0.03006272 0.00500000
v 0.02622841 -0.03155101 0.02300000
v 0.02563229 -0.03065884 0.00500000
v 0.02622841 -0.03155101 0.00500000
v 0.00254067 -0.04135238 0.02300000
v 0.00275000 -0.04030000 0.02300000
v 0.00275000 -0.04030000 0.00500000
v 0.00194454 -0.04224454 0.02300000
v 0.00254067 -0.04135238 0.00500000
v 0.00105238 -0.04284067 0.02300000
v 0.00194454 -0.04224454 0.00500000
v -0.00000000 -0.04305000 0.02300000
v 0.00105238 -0.04284067 0.00500000
v -0.00105238 -0.04284067 0.02300000
v -0.00000000 -0.04305000 0.00500000
v -0.00194454 -0.04224454 0.02300000
v -0.00105238 -0.04284067 0.00500000
v -0.00254067 -0.04135238 0.02300000
v -0.00194454 -0.04224454 0.00500000
v -0.00275000 -0.04030000 0.02300000
v -0.00254067 -0.04135238 0.00500000
v -0.00254067 -0.03924762 0.02300000
v -0.00275000 -0.04030000 0.00500000
v -0.00194454 -0.03835545 0.02300000
v -0.00254067 -0.03924762 0.00500000
v -0.00105238 -0.03775933 0.02300000
v -0.00194454 -0.03835545 0.00500000
v -0.00000000 -0.03755000 0.02300000
v -0.00105238 -0.03775933 0.00500000
v 0.00105238 -0.03775933 0.02300000
v -0.00000000 -0.03755000 0.00500000
v 0.00194454 -0.03835545 0.02300000
v 0.00105238 -0.03775933 0.00500000
v 0.00254067 -0.03924762 0.02300000
v 0.00194454 -0.03835545 0.00500000
v 0.00254067 -0.03924762 0.00500000
v -0.02114708 -0.03365576 0.02300000
v -0.02095233 -0.03267669 0.02300000
v -0.02095233 -0.03267669 0.00500000
v -0.02093775 -0.03260338 0.00500000
v -0.02093775 -0.03260338 0.02300000
v -0.02174320 -0.03454793 0.02300000
v -0.02114708 -0.03365576 0.00500000
v -0.02263537 -0.03514405 0.02300000
v -0.02174320 -0.03454793 0.00500000
v -0.02368775 -0.03535338 0.02300000
v -0.02263537 -0.03514405 0.00500000
v -0.02474013 -0.03514405 0.02300000
v -0.02368775 -0.03535338 0.00500000
v -0.02563229 -0.03454793 0.02300000
v -0.02474013 -0.03514405 0.00500000
v -0.02622841 -0.03365576 0.02300000
v -0.02563229 -0.03454793 0.00500000
v -0.02643775 -0.03260338 0.02300000
v -0.02642316 -0.03267669 0.02300000
v -0.02642316 -0.03267669 0.00500000
v -0.02622841 -0.03365576 0.00500000
v -0.02622841 -0.03155101 0.02300000
v -0.02643775 -0.03260338 0.00500000
v -0.02563229 -0.03065884 0.02300000
v -0.02622841 -0.03155101 0.00500000
v -0.02474013 -0.03006272 0.02300000
v -0.02563229 -0.03065884 0.00500000
v -0.02368775 -0.02985338 0.02300000
v -0.02474013 -0.03006272 0.00500000
v -0.02263537 -0.03006272 0.02300000
v -0.02368775 -0.02985338 0.00500000
v -0.02174320 -0.03065884 0.02300000
v -0.02263537 -0.03006272 0.00500000
v -0.02114708 -0.03155101 0.02300000
v -0.02174320 -0.03065884 0.00500000
v -0.02114708 -0.03155101 0.00500000
v -0.03578691 -0.01350576 0.02300000
v -0.03557758 -0.01245338 0.02300000
v -0.03557758 -0.01245338 0.00500000
v -0.03638303 -0.01439793 0.02300000
v -0.03578691 -0.01350576 0.00500000
v -0.03727520 -0.01499405 0.02300000
v -0.03638303 -0.01439793 0.00500000
v -0.03832758 -0.01520338 0.02300000
v -0.03727520 -0.01499405 0.00500000
v -0.03937996 -0.01499405 0.02300000
v -0.03832758 -0.01520338 0.00500000
v -0.04027212 -0.01439793 0.02300000
v -0.03937996 -0.01499405 0.00500000
v -0.04086825 -0.01350576 0.02300000
v -0.04027212 -0.01439793 0.00500000
v -0.04107758 -0.01245338 0.02300000
v -0.04086825 -0.01350576 0.00500000
v -0.04086825 -0.01140101 0.02300000
v -0.04107758 -0.01245338 0.00500000
v -0.04027212 -0.01050884 0.02300000
v -0.04086825 -0.01140101 0.00500000
v -0.03937996 -0.00991272 0.02300000
v -0.04027212 -0.01050884 0.00500000
v -0.03832758 -0.00970338 0.02300000
v -0.03937996 -0.00991272 0.00500000
v -0.03727520 -0.00991272 0.02300000
v -0.03832758 -0.00970338 0.00500000
v -0.03638303 -0.01050884 0.02300000
v -0.03727520 -0.00991272 0.00500000
v -0.03578691 -0.01140101 0.02300000
v -0.03638303 -0.01050884 0.00500000
v -0.03578691 -0.01140101 0.00500000
v -0.03578691 0.01140101 0.02300000
v -0.03557758 0.01245338 0.02300000
v -0.03557758 0.01245338 0.00500000
v -0.03638303 0.01050884 0.02300000
v -0.03578691 0.01140101 0.00500000
v -0.03727520 0.00991272 0.02300000
v -0.03638303 0.01050884 0.00500000
v -0.03832758 0.00970338 0.02300000
v -0.03727520 0.00991272 0.00500000
v -0.03937996 0.00991272 0.02300000
v -0.03832758 0.00970338 0.00500000
v -0.04027212 0.01050884 0.02300000
v -0.03937996 0.00991272 0.00500000
v -0.04086825 0.01140101 0.02300000
v -0.04027212 0.01050884 0.00500000
v -0.04107758 0.01245338 0.02300000
v -0.04086825 0.01140101 0.00500000
v -0.04086825 0.01350576 0.02300000
v -0.04107758 0.01245338 0.00500000
v -0.04027212 0.01439793 0.02300000
v -0.04086825 0.01350576 0.00500000
v -0.03937996 0.01499405 0.02300000
v -0.04027212 0.01439793 0.00500000
v -0.03832758 0.01520338 0.02300000
v -0.03937996 0.01499405 0.00500000
v -0.03727520 0.01499405 0.02300000
v -0.03832758 0.01520338 0.00500000
v -0.03638303 0.01439793 0.02300000
v -0.03727520 0.01499405 0.00500000
v -0.03578691 0.01350576 0.02300000
v -0.03638303 0.01439793 0.00500000
v -0.03578691 0.01350576 0.00500000
v -0.02114708 0.03155101 0.02300000
v -0.02093775 0.03260338 0.02300000
v -0.02093775 0.03260338 0.00500000
v -0.02174320 0.03065884 0.02300000
v -0.02114708 0.03155101 0.00500000
v -0.02263537 0.03006272 0.02300000
v -0.02174320 0.03065884 0.00500000
v -0.02368775 0.02985338 0.02300000
v -0.02263537 0.03006272 0.00500000
v -0.02474013 0.03006272 0.02300000
v -0.02368775 0.02985338 0.00500000
v -0.02563229 0.03065884 0.02300000
v -0.02474013 0.03006272 0.00500000
v -0.02622841 0.03155101 0.02300000
v -0.02563229 0.03065884 0.00500000
v -0.02643775 0.03260338 0.02300000
v -0.02622841 0.03155101 0.00500000
v -0.02622841 0.03365576 0.02300000
v -0.02642316 0.03267669 0.02300000
v -0.02642316 0.03267669 0.00500000
v -0.02643775 0.03260338 0.00500000
v -0.02563229 0.03454793 0.02300000
v -0.02622841 0.03365576 0.00500000
v -0.02474013 0.03514405 0.02300000
v -0.02563229 0.03454793 0.00500000
v -0.02368775 0.03535338 0.02300000
v -0.02474013 0.03514405 0.00500000
v -0.02263537 0.03514405 0.02300000
v -0.02368775 0.03535338 0.00500000
v -0.02174320 0.03454793 0.02300000
v -0.02263537 0.03514405 0.00500000
v -0.02114708 0.03365576 0.02300000
v -0.02174320 0.03454793 0.00500000
v -0.02095233 0.03267669 0.02300000
v -0.02095233 0.03267669 0.00500000
v -0.02114708 0.03365576 0.00500000
v 0.03278879 0.00000000 0.00500000
v 0.03000000 0.00000000 0.00500000
v 0.02771639 0.01148050 0.00500000
v 0.03278879 0.02252839 0.00500000
v 0.02121320 0.02121320 0.00500000
v 0.03278879 0.03267669 0.00500000
v 0.02622841 0.03155101 0.00500000
v 0.02643775 0.03260338 0.00500000
v 0.02563229 0.03065884 0.00500000
v 0.02474013 0.03006272 0.00500000
v 0.01924490 0.02252839 0.00500000
v 0.02368775 0.02985338 0.00500000
v 0.01184387 0.02747359 0.00500000
v 0.02174320 0.03065884 0.00500000
v 0.01184387 0.03267669 0.00500000
v 0.02093775 0.03260338 0.00500000
v 0.02114708 0.03155101 0.00500000
v 0.02263537 0.03006272 0.00500000
v 0.02095233 0.03267669 0.00500000
v -0.01184387 0.03267669 0.00500000
v 0.00000000 0.03000000 0.00500000
v 0.01148050 0.02771639 0.00500000
v -0.01148050 0.02771639 0.00500000
v -0.01184387 0.02747359 0.00500000
v -0.02114708 0.03155101 0.00500000
v -0.02093775 0.03260338 0.00500000
v -0.02174320 0.03065884 0.00500000
v -0.01924490 0.02252839 0.00500000
v -0.02263537 0.03006272 0.00500000
v -0.03278879 0.02252839 0.00500000
v -0.02474013 0.03006272 0.00500000
v -0.02368775 0.02985338 0.00500000
v -0.03278879 0.03267669 0.00500000
v -0.02643775 0.03260338 0.00500000
v -0.02622841 0.03155101 0.00500000
v -0.02563229 0.03065884 0.00500000
v -0.02642316 0.03267669 0.00500000
v -0.03278879 0.00000000 0.00500000
v -0.02771639 0.01148050 0.00500000
v -0.02121320 0.02121320 0.00500000
v -0.03000000 0.00000000 0.00500000
v -0.02771639 -0.01148050 0.00500000
v -0.03278879 -0.02252839 0.00500000
v -0.02121320 -0.02121320 0.00500000
v -0.03278879 -0.03267669 0.00500000
v -0.02622841 -0.03155101 0.00500000
v -0.01184387 -0.03267669 0.00500000
v -0.02093775 -0.03260338 0.00500000
v -0.02114708 -0.03155101 0.00500000
v -0.02643775 -0.03260338 0.00500000
v -0.01924490 -0.02252839 0.00500000
v -0.02368775 -0.02985338 0.00500000
v -0.01184387 -0.02747359 0.00500000
v -0.02174320 -0.03065884 0.00500000
v -0.02095233 -0.03267669 0.00500000
v -0.02563229 -0.03065884 0.00500000
v -0.02474013 -0.03006272 0.00500000
v -0.02263537 -0.03006272 0.00500000
v 0.01184387 -0.03267669 0.00500000
v 0.00000000 -0.03000000 0.00500000
v -0.01148050 -0.02771639 0.00500000
v 0.01148050 -0.02771639 0.00500000
v 0.01184387 -0.02747359 0.00500000
v 0.02114708 -0.03155101 0.00500000
v 0.03278879 -0.03267669 0.00500000
v 0.02643775 -0.03260338 0.00500000
v 0.02622841 -0.03155101 0.00500000
v 0.02093775 -0.03260338 0.00500000
v 0.01924490 -0.02252839 0.00500000
v 0.02263537 -0.03006272 0.00500000
v 0.02174320 -0.03065884 0.00500000
v 0.03278879 -0.02252839 0.00500000
v 0.02474013 -0.03006272 0.00500000
v 0.02368775 -0.02985338 0.00500000
v 0.02642316 -0.03267669 0.00500000
v 0.02563229 -0.03065884 0.00500000
v 0.02771639 -0.01148050 0.00500000
v 0.02121320 -0.02121320 0.00500000
v -0.04553879 0.00000000 0.00500000
v -0.05000000 0.00000000 0.00500000
v -0.04619398 0.01913417 0.00500000
v -0.03937996 0.01499405 0.00500000
v -0.04027212 0.01439793 0.00500000
v -0.04553879 0.02011473 0.00500000
v -0.04392603 0.02252839 0.00500000
v -0.03832758 0.01520338 0.00500000
v -0.03832758 0.00970338 0.00500000
v -0.03727520 0.00991272 0.00500000
v -0.03937996 0.00991272 0.00500000
v -0.03727520 0.01499405 0.00500000
v -0.04107758 0.01245338 0.00500000
v -0.03638303 0.01439793 0.00500000
v -0.03557758 0.01245338 0.00500000
v -0.03578691 0.01350576 0.00500000
v -0.03578691 0.01140101 0.00500000
v -0.04027212 0.01050884 0.00500000
v -0.04086825 0.01140101 0.00500000
v -0.04086825 0.01350576 0.00500000
v -0.03638303 0.01050884 0.00500000
v -0.03714515 0.03267669 0.00500000
v -0.03535534 0.03535534 0.00500000
v -0.03278879 0.03707025 0.00500000
v -0.02622841 0.03365576 0.00500000
v -0.01913417 0.04619398 0.00500000
v -0.02474013 0.03514405 0.00500000
v -0.02174320 0.03454793 0.00500000
v -0.02263537 0.03514405 0.00500000
v -0.01184387 0.04764411 0.00500000
v -0.02114708 0.03365576 0.00500000
v -0.02563229 0.03454793 0.00500000
v -0.02368775 0.03535338 0.00500000
v -0.02095233 0.03267669 0.00500000
v 0.01184387 0.04764411 0.00500000
v 0.00194454 0.04224454 0.00500000
v 0.00105238 0.04284067 0.00500000
v -0.00000000 0.05000000 0.00500000
v 0.00254067 0.04135238 0.00500000
v -0.00000000 0.03755000 0.00500000
v -0.00105238 0.04284067 0.00500000
v 0.00275000 0.04030000 0.00500000
v 0.00254067 0.03924762 0.00500000
v 0.00105238 0.03775933 0.00500000
v -0.00194454 0.04224454 0.00500000
v -0.00254067 0.04135238 0.00500000
v -0.00000000 0.04305000 0.00500000
v 0.00194454 0.03835545 0.00500000
v -0.00194454 0.03835545 0.00500000
v -0.00105238 0.03775933 0.00500000
v -0.00254067 0.03924762 0.00500000
v -0.00275000 0.04030000 0.00500000
v 0.02174320 0.03454793 0.00500000
v 0.02114708 0.03365576 0.00500000
v 0.01913417 0.04619398 0.00500000
v 0.03278879 0.03707025 0.00500000
v 0.02563229 0.03454793 0.00500000
v 0.02474013 0.03514405 0.00500000
v 0.02642316 0.03267669 0.00500000
v 0.02622841 0.03365576 0.00500000
v 0.02368775 0.03535338 0.00500000
v 0.02263537 0.03514405 0.00500000
v 0.03535534 0.03535534 0.00500000
v 0.03714515 0.03267669 0.00500000
v 0.05000000 -0.00000000 0.00500000
v 0.03832758 0.00970338 0.00500000
v 0.03832758 0.01520338 0.00500000
v 0.03727520 0.01499405 0.00500000
v 0.04392603 0.02252839 0.00500000
v 0.03937996 0.01499405 0.00500000
v 0.03937996 0.00991272 0.00500000
v 0.04619398 0.01913417 0.00500000
v 0.04027212 0.01439793 0.00500000
v 0.03727520 0.00991272 0.00500000
v 0.03557758 0.01245338 0.00500000
v 0.04107758 0.01245338 0.00500000
v 0.04086825 0.01350576 0.00500000
v 0.04086825 0.01140101 0.00500000
v 0.03638303 0.01050884 0.00500000
v 0.03578691 0.01140101 0.00500000
v 0.03638303 0.01439793 0.00500000
v 0.03578691 0.01350576 0.00500000
v 0.04027212 0.01050884 0.00500000
v 0.03832758 -0.00970338 0.00500000
v 0.03727520 -0.00991272 0.00500000
v 0.03937996 -0.00991272 0.00500000
v 0.03578691 -0.01140101 0.00500000
v 0.03557758 -0.01245338 0.00500000
v 0.04619398 -0.01913417 0.00500000
v 0.04027212 -0.01439793 0.00500000
v 0.04086825 -0.01350576 0.00500000
v 0.04392603 -0.02252839 0.00500000
v 0.03937996 -0.01499405 0.00500000
v 0.03638303 -0.01050884 0.00500000
v 0.04027212 -0.01050884 0.00500000
v 0.04107758 -0.01245338 0.00500000
v 0.03832758 -0.01520338 0.00500000
v 0.03638303 -0.01439793 0.00500000
v 0.03727520 -0.01499405 0.00500000
v 0.03578691 -0.01350576 0.00500000
v 0.04086825 -0.01140101 0.00500000
v 0.03714515 -0.03267669 0.00500000
v 0.03535534 -0.03535534 0.00500000
v 0.03278879 -0.03707025 0.00500000
v 0.02622841 -0.03365576 0.00500000
v 0.01913417 -0.04619398 0.00500000
v 0.02474013 -0.03514405 0.00500000
v 0.02174320 -0.03454793 0.00500000
v 0.02263537 -0.03514405 0.00500000
v 0.01184387 -0.04764411 0.00500000
v 0.02114708 -0.03365576 0.00500000
v 0.02563229 -0.03454793 0.00500000
v 0.02368775 -0.03535338 0.00500000
v 0.02095233 -0.03267669 0.00500000
v 0.00194454 -0.03835545 0.00500000
v 0.00105238 -0.03775933 0.00500000
v -0.00000000 -0.03755000 0.00500000
v 0.00254067 -0.03924762 0.00500000
v 0.00275000 -0.04030000 0.00500000
v -0.00000000 -0.05000000 0.00500000
v 0.00105238 -0.04284067 0.00500000
v -0.00105238 -0.03775933 0.00500000
v -0.00000000 -0.04305000 0.00500000
v -0.01184387 -0.04764411 0.00500000
v -0.00194454 -0.04224454 0.00500000
v -0.00105238 -0.04284067 0.00500000
v -0.00254067 -0.03924762 0.00500000
v -0.00275000 -0.04030000 0.00500000
v -0.00194454 -0.03835545 0.00500000
v 0.00254067 -0.04135238 0.00500000
v 0.00194454 -0.04224454 0.00500000
v -0.00254067 -0.04135238 0.00500000
v -0.02174320 -0.03454793 0.00500000
v -0.02114708 -0.03365576 0.00500000
v -0.01913417 -0.04619398 0.00500000
v -0.03278879 -0.03707025 0.00500000
v -0.02563229 -0.03454793 0.00500000
v -0.02474013 -0.03514405 0.00500000
v -0.02642316 -0.03267669 0.00500000
v -0.02622841 -0.03365576 0.00500000
v -0.02368775 -0.03535338 0.00500000
v -0.02263537 -0.03514405 0.00500000
v -0.03535534 -0.03535534 0.00500000
v -0.03714515 -0.03267669 0.00500000
v -0.03832758 -0.00970338 0.00500000
v -0.03937996 -0.00991272 0.00500000
v -0.03832758 -0.01520338 0.00500000
v -0.03727520 -0.01499405 0.00500000
v -0.04392603 -0.02252839 0.00500000
v -0.03937996 -0.01499405 0.00500000
v -0.03727520 -0.00991272 0.00500000
v -0.03557758 -0.01245338 0.00500000
v -0.04553879 -0.02011473 0.00500000
v -0.04086825 -0.01140101 0.00500000
v -0.04107758 -0.01245338 0.00500000
v -0.03638303 -0.01050884 0.00500000
v -0.03578691 -0.01140101 0.00500000
v -0.04027212 -0.01439793 0.00500000
v -0.04086825 -0.01350576 0.00500000
v -0.04027212 -0.01050884 0.00500000
v -0.03638303 -0.01439793 0.00500000
v -0.03578691 -0.01350576 0.00500000
v -0.04619398 -0.01913417 0.00500000
v -0.02771639 -0.01148050 0.00500000
v -0.03000000 0.00000000 0.00500000
v -0.03000000 0.00000000 0.02300000
v -0.02121320 -0.02121320 0.00500000
v -0.02771639 -0.01148050 0.02300000
v -0.01184387 -0.02747359 0.02300000
v -0.01148050 -0.02771639 0.02300000
v -0.01148050 -0.02771639 0.00500000
v -0.01924490 -0.02252839 0.02300000
v -0.01184387 -0.02747359 0.00500000
v -0.01924490 -0.02252839 0.00500000
v -0.02121320 -0.02121320 0.02300000
v 0.00000000 -0.03000000 0.00500000
v 0.01148050 -0.02771639 0.00500000
v 0.00000000 -0.03000000 0.02300000
v 0.01924490 -0.02252839 0.02300000
v 0.02121320 -0.02121320 0.02300000
v 0.02121320 -0.02121320 0.00500000
v 0.01924490 -0.02252839 0.00500000
v 0.01184387 -0.02747359 0.00500000
v 0.01184387 -0.02747359 0.02300000
v 0.01148050 -0.02771639 0.02300000
v 0.02771639 -0.01148050 0.00500000
v 0.03000000 0.00000000 0.00500000
v 0.02771639 -0.01148050 0.02300000
v 0.02771639 0.01148050 0.00500000
v 0.03000000 0.00000000 0.02300000
v 0.02121320 0.02121320 0.00500000
v 0.02771639 0.01148050 0.02300000
v 0.01184387 0.02747359 0.02300000
v 0.01148050 0.02771639 0.02300000
v 0.01148050 0.02771639 0.00500000
v 0.01924490 0.02252839 0.02300000
v 0.01184387 0.02747359 0.00500000
v 0.01924490 0.02252839 0.00500000
v 0.02121320 0.02121320 0.02300000
v 0.00000000 0.03000000 0.00500000
v -0.01148050 0.02771639 0.00500000
v 0.00000000 0.03000000 0.02300000
v -0.01924490 0.02252839 0.02300000
v -0.02121320 0.02121320 0.02300000
v -0.02121320 0.02121320 0.00500000
v -0.01184387 0.02747359 0.02300000
v -0.01924490 0.02252839 0.00500000
v -0.01184387 0.02747359 0.00500000
v -0.01148050 0.02771639 0.02300000
v -0.02771639 0.01148050 0.00500000
v -0.02771639 0.01148050 0.02300000
vt 0.50000000 0.50000000
vt 0.50000000 0.50000000
vt 0.50000000 0.50000000
vt 0.50000000 0.50000000
vt 0.50000000 0.50000000
vt 0.50000000 0.50000000
vt 0.50000000 0.50000000
vt 0.50000000 0.50000000
vt 0.50000000 0.50000000
vt 0.50000000 0.50000000
vt 0.50000000 0.50000000
vt 0.50000000 0.50000000
vt 0.50000000 0.50000000
vt 0.50000000 0.50000000
vt 0.50000000 0.50000000
vt 0.50000000 0.50000000
vt 0.50000000 0.50000000
vt 0.50000000 0.50000000
vt 0.50000000 0.50000000
vt 0.50000000 0.50000000
vt 0.50000000 0.50000000
vt 0.50000000 0.50000000
vt 0.50000000 0.50000000
vt 0.50000000 0.50000000
vt 0.50000000 0.50000000
vt 0.50000000 0.50000000
vt 0.50000000 0.50000000
vt 0.50000000 0.50000000
vt 0.50000000 0.50000000
vt 0.50000000 0.50000000
vt 0.50000000 0.50000000
vt 0.50000000 0.50000000
vt 0.50000000 0.50000000
vt 0.50000000 0.50000000
vt 0.50000000 0.50000000
vt 0.50000000 0.50000000
vt 0.50000000 0.50000000
vt 0.50000000 0.50000000
vt 0.50000000 0.50000000
vt 0.50000000 0.50000000
vt 0.50000000 0.50000000
vt 0.50000000 0.50000000
vt 0.50000000 0.50000000
vt 0.50000000 0.50000000
vt 0.50000000 0.50000000
vt 0.50000000 0.50000000
vt 0.50000000 0.50000000
vt 0.50000000 0.50000000
vt 0.50000000 0.50000000
vt 0.50000000 0.50000000
vt 0.50000000 0.50000000
vt 0.50000000 0.50000000
vt 0.50000000 0.50000000
vt 0.50000000 0.50000000
vt 0.50000000 0.50000000
vt 0.50000000 0.50000000
vt 0.50000000 0.50000000
vt 0.50000000 0.50000000
vt 0.50000000 0.50000000
vt 0.50000000 0.50000000
vt 0.50000000 0.50000000
vt 0.50000000 0.50000000
vt 0.50000000 0.50000000
vt 0.50000000 0.50000000
vt 0.50000000 0.50000000
vt 0.50000000 0.50000000
vt 0.50000000 0.50000000
vt 0.50000000 0.50000000
vt 0.50000000 0.50000000
vt 0.50000000 0.50000000
vt 0.50000000 0.50000000
vt 0.50000000 0.50000000
vt 0.50000000 0.50000000
vt 0.50000000 0.50000000
vt 0.50000000 0.50000000
vt 0.50000000 0.50000000
vt 0.50000000 0.50000000
vt 0.50000000 0.50000000
vt 0.50000000 0.50000000
vt 0.50000000 0.50000000
vt 0.50000000 0.50000000
vt 0.50000000 0.50000000
vt 0.50000000 0.50000000
vt 0.50000000 0.50000000
vt 0.50000000 0.50000000
vt 0.50000000 0.50000000
vt 0.50000000 0.50000000
vt 0.50000000 0.50000000
vt 0.50000000 0.50000000
vt 0.50000000 0.50000000
vt 0.50000000 0.50000000
vt 0.50000000 0.50000000
vt 0.50000000 0.50000000
vt 0.50000000 0.50000000
vt 0.50000000 0.50000000
vt 0.50000000 0.50000000
vt 0.50000000 0.50000000
vt 0.50000000 0.50000000
vt 0.50000000 0.50000000
vt 0.50000000 0.50000000
vt 0.50000000 0.50000000
vt 0.50000000 0.50000000
vt 0.50000000 0.50000000
vt 0.50000000 0.50000000
vt 0.50000000 0.50000000
vt 0.50000000 0.50000000
vt 0.50000000 0.50000000
vt 0.50000000 0.50000000
vt 0.50000000 0.50000000
vt 0.50000000 0.50000000
vt 0.50000000 0.50000000
vt 0.50000000 0.50000000
vt 0.50000000 0.50000000
vt 0.50000000 0.50000000
vt 0.50000000 0.50000000
vt 0.50000000 0.50000000
vt 0.50000000 0.50000000
vt 0.50000000 0.50000000
vt 0.50000000 0.50000000
vt 0.50000000 0.50000000
vt 0.50000000 0.50000000
vt 0.50000000 0.50000000
vt 0.50000000 0.50000000
vt 0.50000000 0.50000000
vt 0.50000000 0.50000000
vt 0.50000000 0.50000000
vt 0.50000000 0.50000000
vt 0.50000000 0.50000000
vt 0.50000000 0.50000000
vt 0.50000000 0.50000000
vt 0.50000000 0.50000000
vt 0.50000000 0.50000000
vt 0.50000000 0.50000000
vt 0.50000000 0.50000000
vt 0.50000000 0.50000000
vt 0.50000000 0.50000000
vt 0.50000000 0.50000000
vt 0.50000000 0.50000000
vt 0.50000000 0.50000000
vt 0.50000000 0.50000000
vt 0.50000000 0.50000000
vt 0.50000000 0.50000000
vt 0.50000000 0.50000000
vt 0.50000000 0.50000000
vt 0.50000000 0.50000000
vt 0.50000000 0.50000000
vt 0.50000000 0.50000000
vt 0.50000000 0.50000000
vt 0.50000000 0.50000000
vt 0.50000000 0.50000000
vt 0.50000000 0.50000000
vt 0.50000000 0.50000000
vt 0.50000000 0.50000000
vt 0.50000000 0.50000000
vt 0.50000000 0.50000000
vt 0.50000000 0.50000000
vt 0.50000000 0.50000000
vt 0.50000000 0.50000000
vt 0.50000000 0.50000000
vt 0.50000000 0.50000000
vt 0.50000000 0.50000000
vt 0.50000000 0.50000000
vt 0.50000000 0.50000000
vt 0.50000000 0.50000000
vt 0.50000000 0.50000000
vt 0.50000000 0.50000000
vt 0.50000000 0.50000000
vt 0.50000000 0.50000000
vt 0.50000000 0.50000000
vt 0.50000000 0.50000000
vt 0.50000000 0.50000000
vt 0.50000000 0.50000000
vt 0.50000000 0.50000000
vt 0.50000000 0.50000000
vt 0.50000000 0.50000000
vt 0.50000000 0.50000000
vt 0.50000000 0.50000000
vt 0.50000000 0.50000000
vt 0.50000000 0.50000000
vt 0.50000000 0.50000000
vt 0.50000000 0.50000000
vt 0.50000000 0.50000000
vt 0.50000000 0.50000000
vt 0.50000000 0.50000000
vt 0.50000000 0.50000000
vt 0.50000000 0.50000000
vt 0.50000000 0.50000000
vt 0.50000000 0.50000000
vt 0.50000000 0.50000000
vt 0.50000000 0.50000000
vt 0.50000000 0.50000000
vt 0.50000000 0.50000000
vt 0.50000000 0.50000000
vt 0.50000000 0.50000000
vt 0.50000000 0.50000000
vt 0.50000000 0.50000000
vt 0.50000000 0.50000000
vt 0.50000000 0.50000000
vt 0.50000000 0.50000000
vt 0.50000000 0.50000000
vt 0.50000000 0.50000000
vt 0.50000000 0.50000000
vt 0.50000000 0.50000000
vt 0.50000000 0.50000000
vt 0.50000000 0.50000000
vt 0.50000000 0.50000000
vt 0.50000000 0.50000000
vt 0.50000000 0.50000000
vt 0.50000000 0.50000000
vt 0.50000000 0.50000000
vt 0.50000000 0.50000000
vt 0.50000000 0.50000000
vt 0.50000000 0.50000000
vt 0.50000000 0.50000000
vt 0.50000000 0.50000000
vt 0.50000000 0.50000000
vt 0.50000000 0.50000000
vt 0.50000000 0.50000000
vt 0.50000000 0.50000000
vt 0.50000000 0.50000000
vt 0.50000000 0.50000000
vt 0.50000000 0.50000000
vt 0.50000000 0.50000000
vt 0.50000000 0.50000000
vt 0.50000000 0.50000000
vt 0.50000000 0.50000000
vt 0.50000000 0.50000000
vt 0.50000000 0.50000000
vt 0.50000000 0.50000000
vt 0.50000000 0.50000000
vt 0.50000000 0.50000000
vt 0.50000000 0.50000000
vt 0.50000000 0.50000000
vt 0.50000000 0.50000000
vt 0.50000000 0.50000000
vt 0.50000000 0.50000000
vt 0.50000000 0.50000000
vt 0.50000000 0.50000000
vt 0.50000000 0.50000000
vt 0.50000000 0.50000000
vt 0.50000000 0.50000000
vt 0.50000000 0.50000000
vt 0.50000000 0.50000000
vt 0.50000000 0.50000000
vt 0.50000000 0.50000000
vt 0.50000000 0.50000000
vt 0.50000000 0.50000000
vt 0.50000000 0.50000000
vt 0.50000000 0.50000000
vt 0.50000000 0.50000000
vt 0.50000000 0.50000000
vt 0.50000000 0.50000000
vt 0.50000000 0.50000000
vt 0.50000000 0.50000000
vt 0.50000000 0.50000000
vt 0.50000000 0.50000000
vt 0.50000000 0.50000000
vt 0.50000000 0.50000000
vt 0.50000000 0.50000000
vt 0.50000000 0.50000000
vt 0.50000000 0.50000000
vt 0.50000000 0.50000000
vt 0.50000000 0.50000000
vt 0.50000000 0.50000000
vt 0.50000000 0.50000000
vt 0.50000000 0.50000000
vt 0.50000000 0.50000000
vt 0.50000000 0.50000000
vt 0.50000000 0.50000000
vt 0.50000000 0.50000000
vt 0.50000000 0.50000000
vt 0.50000000 0.50000000
vt 0.50000000 0.50000000
vt 0.50000000 0.50000000
vt 0.50000000 0.50000000
vt 0.50000000 0.50000000
vt 0.50000000 0.50000000
vt 0.50000000 0.50000000
vt 0.50000000 0.50000000
vt 0.50000000 0.50000000
vt 0.50000000 0.50000000
vt 0.50000000 0.50000000
vt 0.50000000 0.50000000
vt 0.50000000 0.50000000
vt 0.50000000 0.50000000
vt 0.50000000 0.50000000
vt 0.50000000 0.50000000
vt 0.50000000 0.50000000
vt 0.50000000 0.50000000
vt 0.50000000 0.50000000
vt 0.50000000 0.50000000
vt 0.50000000 0.50000000
vt 0.50000000 0.50000000
vt 0.50000000 0.50000000
vt 0.50000000 0.50000000
vt 0.50000000 0.50000000
vt 0.50000000 0.50000000
vt 0.50000000 0.50000000
vt 0.50000000 0.50000000
vt 0.50000000 0.50000000
vt 0.50000000 0.50000000
vt 0.50000000 0.50000000
vt 0.50000000 0.50000000
vt 0.50000000 0.50000000
vt 0.50000000 0.50000000
vt 0.50000000 0.50000000
vt 0.50000000 0.50000000
vt 0.50000000 0.50000000
vt 0.50000000 0.50000000
vt 0.50000000 0.50000000
vt 0.50000000 0.50000000
vt 0.50000000 0.50000000
vt 0.50000000 0.50000000
vt 0.50000000 0.50000000
vt 0.50000000 0.50000000
vt 0.50000000 0.50000000
vt 0.50000000 0.50000000
vt 0.50000000 0.50000000
vt 0.50000000 0.50000000
vt 0.50000000 0.50000000
vt 0.50000000 0.50000000
vt 0.50000000 0.50000000
vt 0.50000000 0.50000000
vt 0.50000000 0.50000000
vt 0.50000000 0.50000000
vt 0.50000000 0.50000000
vt 0.50000000 0.50000000
vt 0.50000000 0.50000000
vt 0.50000000 0.50000000
vt 0.50000000 0.50000000
vt 0.50000000 0.50000000
vt 0.50000000 0.50000000
vt 0.50000000 0.50000000
vt 0.50000000 0.50000000
vt 0.50000000 0.50000000
vt 0.50000000 0.50000000
vt 0.50000000 0.50000000
vt 0.50000000 0.50000000
vt 0.50000000 0.50000000
vt 0.50000000 0.50000000
vt 0.50000000 0.50000000
vt 0.50000000 0.50000000
vt 0.50000000 0.50000000
vt 0.50000000 0.50000000
vt 0.50000000 0.50000000
vt 0.50000000 0.50000000
vt 0.50000000 0.50000000
vt 0.50000000 0.50000000
vt 0.50000000 0.50000000
vt 0.50000000 0.50000000
vt 0.50000000 0.50000000
vt 0.50000000 0.50000000
vt 0.50000000 0.50000000
vt 0.50000000 0.50000000
vt 0.50000000 0.50000000
vt 0.50000000 0.50000000
vt 0.50000000 0.50000000
vt 0.50000000 0.50000000
vt 0.50000000 0.50000000
vt 0.50000000 0.50000000
vt 0.50000000 0.50000000
vt 0.50000000 0.50000000
vt 0.50000000 0.50000000
vt 0.50000000 0.50000000
vt 0.50000000 0.50000000
vt 0.50000000 0.50000000
vt 0.50000000 0.50000000
vt 0.50000000 0.50000000
vt 0.50000000 0.50000000
vt 0.50000000 0.50000000
vt 0.50000000 0.50000000
vt 0.50000000 0.50000000
vt 0.50000000 0.50000000
vt 0.50000000 0.50000000
vt 0.50000000 0.50000000
vt 0.50000000 0.50000000
vt 0.50000000 0.50000000
vt 0.50000000 0.50000000
vt 0.50000000 0.50000000
vt 0.50000000 0.50000000
vt 0.50000000 0.50000000
vt 0.50000000 0.50000000
vt 0.50000000 0.50000000
vt 0.50000000 0.50000000
vt 0.50000000 0.50000000
vt 0.50000000 0.50000000
vt 0.50000000 0.50000000
vt 0.50000000 0.50000000
vt 0.50000000 0.50000000
vt 0.50000000 0.50000000
vt 0.50000000 0.50000000
vt 0.50000000 0.50000000
vt 0.50000000 0.50000000
vt 0.50000000 0.50000000
vt 0.50000000 0.50000000
vt 0.50000000 0.50000000
vt 0.50000000 0.50000000
vt 0.50000000 0.50000000
vt 0.50000000 0.50000000
vt 0.50000000 0.50000000
vt 0.50000000 0.50000000
vt 0.50000000 0.50000000
vt 0.50000000 0.50000000
vt 0.50000000 0.50000000
vt 0.50000000 0.50000000
vt 0.50000000 0.50000000
vt 0.50000000 0.50000000
vt 0.50000000 0.50000000
vt 0.50000000 0.50000000
vt 0.50000000 0.50000000
vt 0.50000000 0.50000000
vt 0.50000000 0.50000000
vt 0.50000000 0.50000000
vt 0.50000000 0.50000000
vt 0.50000000 0.50000000
vt 0.50000000 0.50000000
vt 0.50000000 0.50000000
vt 0.50000000 0.50000000
vt 0.50000000 0.50000000
vt 0.50000000 0.50000000
vt 0.50000000 0.50000000
vt 0.50000000 0.50000000
vt 0.50000000 0.50000000
vt 0.50000000 0.50000000
vt 0.50000000 0.50000000
vt 0.50000000 0.50000000
vt 0.50000000 0.50000000
vt 0.50000000 0.50000000
vt 0.50000000 0.50000000
vt 0.50000000 0.50000000
vt 0.50000000 0.50000000
vt 0.50000000 0.50000000
vt 0.50000000 0.50000000
vt 0.50000000 0.50000000
vt 0.50000000 0.50000000
vt 0.50000000 0.50000000
vt 0.50000000 0.50000000
vt 0.50000000 0.50000000
vt 0.50000000 0.50000000
vt 0.50000000 0.50000000
vt 0.50000000 0.50000000
vt 0.50000000 0.50000000
vt 0.50000000 0.50000000
vt 0.50000000 0.50000000
vt 0.50000000 0.50000000
vt 0.50000000 0.50000000
vt 0.50000000 0.50000000
vt 0.50000000 0.50000000
vt 0.50000000 0.50000000
vt 0.50000000 0.50000000
vt 0.50000000 0.50000000
vt 0.50000000 0.50000000
vt 0.50000000 0.50000000
vt 0.50000000 0.50000000
vt 0.50000000 0.50000000
vt 0.50000000 0.50000000
vt 0.50000000 0.50000000
vt 0.50000000 0.50000000
vt 0.50000000 0.50000000
vt 0.50000000 0.50000000
vt 0.50000000 0.50000000
vt 0.50000000 0.50000000
vt 0.50000000 0.50000000
vt 0.50000000 0.50000000
vt 0.50000000 0.50000000
vt 0.50000000 0.50000000
vt 0.50000000 0.50000000
vt 0.50000000 0.50000000
vt 0.50000000 0.50000000
vt 0.50000000 0.50000000
vt 0.50000000 0.50000000
vt 0.50000000 0.50000000
vt 0.50000000 0.50000000
vt 0.50000000 0.50000000
vt 0.50000000 0.50000000
vt 0.50000000 0.50000000
vt 0.50000000 0.50000000
vt 0.50000000 0.50000000
vt 0.50000000 0.50000000
vt 0.50000000 0.50000000
vt 0.50000000 0.50000000
vt 0.50000000 0.50000000
vt 0.50000000 0.50000000
vt 0.50000000 0.50000000
vt 0.50000000 0.50000000
vt 0.50000000 0.50000000
vt 0.50000000 0.50000000
vt 0.50000000 0.50000000
vt 0.50000000 0.50000000
vt 0.50000000 0.50000000
vt 0.50000000 0.50000000
vt 0.50000000 0.50000000
vt 0.50000000 0.50000000
vt 0.50000000 0.50000000
vt 0.50000000 0.50000000
vt 0.50000000 0.50000000
vt 0.50000000 0.50000000
vt 0.50000000 0.50000000
vt 0.50000000 0.50000000
vt 0.50000000 0.50000000
vt 0.50000000 0.50000000
vt 0.50000000 0.50000000
vt 0.50000000 0.50000000
vt 0.50000000 0.50000000
vt 0.50000000 0.50000000
vt 0.50000000 0.50000000
vt 0.50000000 0.50000000
vt 0.50000000 0.50000000
vt 0.50000000 0.50000000
vt 0.50000000 0.50000000
vt 0.50000000 0.50000000
vt 0.50000000 0.50000000
vt 0.50000000 0.50000000
vt 0.50000000 0.50000000
vt 0.50000000 0.50000000
vt 0.50000000 0.50000000
vt 0.50000000 0.50000000
vt 0.50000000 0.50000000
vt 0.50000000 0.50000000
vt 0.50000000 0.50000000
vt 0.50000000 0.50000000
vt 0.50000000 0.50000000
vt 0.50000000 0.50000000
vt 0.50000000 0.50000000
vt 0.50000000 0.50000000
vt 0.50000000 0.50000000
vt 0.50000000 0.50000000
vt 0.50000000 0.50000000
vt 0.50000000 0.50000000
vt 0.50000000 0.50000000
vt 0.50000000 0.50000000
vt 0.50000000 0.50000000
vt 0.50000000 0.50000000
vt 0.50000000 0.50000000
vt 0.50000000 0.50000000
vt 0.50000000 0.50000000
vt 0.50000000 0.50000000
vt 0.50000000 0.50000000
vt 0.50000000 0.50000000
vt 0.50000000 0.50000000
vt 0.50000000 0.50000000
vt 0.50000000 0.50000000
vt 0.50000000 0.50000000
vt 0.50000000 0.50000000
vt 0.50000000 0.50000000
vt 0.50000000 0.50000000
vt 0.50000000 0.50000000
vt 0.50000000 0.50000000
vt 0.50000000 0.50000000
vt 0.50000000 0.50000000
vt 0.50000000 0.50000000
vt 0.50000000 0.50000000
vt 0.50000000 0.50000000
vt 0.50000000 0.50000000
vt 0.50000000 0.50000000
vt 0.50000000 0.50000000
vt 0.50000000 0.50000000
vt 0.50000000 0.50000000
vt 0.50000000 0.50000000
vt 0.50000000 0.50000000
vt 0.50000000 0.50000000
vt 0.50000000 0.50000000
vt 0.50000000 0.50000000
vt 0.50000000 0.50000000
vt 0.50000000 0.50000000
vt 0.50000000 0.50000000
vt 0.50000000 0.50000000
vt 0.50000000 0.50000000
vt 0.50000000 0.50000000
vt 0.50000000 0.50000000
vt 0.50000000 0.50000000
vt 0.50000000 0.50000000
vt 0.50000000 0.50000000
vt 0.50000000 0.50000000
vt 0.50000000 0.50000000
vt 0.50000000 0.50000000
vt 0.50000000 0.50000000
vt 0.50000000 0.50000000
vt 0.50000000 0.50000000
vt 0.50000000 0.50000000
vt 0.50000000 0.50000000
vt 0.50000000 0.50000000
vt 0.50000000 0.50000000
vt 0.50000000 0.50000000
vt 0.50000000 0.50000000
vt 0.50000000 0.50000000
vt 0.50000000 0.50000000
vt 0.50000000 0.50000000
vt 0.50000000 0.50000000
vt 0.50000000 0.50000000
vt 0.50000000 0.50000000
vt 0.50000000 0.50000000
vt 0.50000000 0.50000000
vt 0.50000000 0.50000000
vt 0.50000000 0.50000000
vt 0.50000000 0.50000000
vt 0.50000000 0.50000000
vt 0.50000000 0.50000000
vt 0.50000000 0.50000000
vt 0.50000000 0.50000000
vt 0.50000000 0.50000000
vt 0.50000000 0.50000000
vt 0.50000000 0.50000000
vt 0.50000000 0.50000000
vt 0.50000000 0.50000000
vt 0.50000000 0.50000000
vt 0.50000000 0.50000000
vt 0.50000000 0.50000000
vt 0.50000000 0.50000000
vt 0.50000000 0.50000000
vt 0.50000000 0.50000000
vt 0.50000000 0.50000000
vt 0.50000000 0.50000000
vt 0.50000000 0.50000000
vt 0.50000000 0.50000000
vt 0.50000000 0.50000000
vt 0.50000000 0.50000000
vt 0.50000000 0.50000000
vt 0.50000000 0.50000000
vt 0.50000000 0.50000000
vt 0.50000000 0.50000000
vt 0.50000000 0.50000000
vt 0.50000000 0.50000000
vt 0.50000000 0.50000000
vt 0.50000000 0.50000000
vt 0.50000000 0.50000000
vt 0.50000000 0.50000000
vt 0.50000000 0.50000000
vt 0.50000000 0.50000000
vt 0.50000000 0.50000000
vt 0.50000000 0.50000000
vt 0.50000000 0.50000000
vt 0.50000000 0.50000000
vt 0.50000000 0.50000000
vt 0.50000000 0.50000000
vt 0.50000000 0.50000000
vt 0.50000000 0.50000000
vt 0.50000000 0.50000000
vt 0.50000000 0.50000000
vt 0.50000000 0.50000000
vt 0.50000000 0.50000000
vt 0.50000000 0.50000000
vt 0.50000000 0.50000000
vt 0.50000000 0.50000000
vt 0.50000000 0.50000000
vt 0.50000000 0.50000000
vt 0.50000000 0.50000000
vt 0.50000000 0.50000000
vt 0.50000000 0.50000000
vt 0.50000000 0.50000000
vt 0.50000000 0.50000000
vt 0.50000000 0.50000000
vt 0.50000000 0.50000000
vt 0.50000000 0.50000000
vt 0.50000000 0.50000000
vt 0.50000000 0.50000000
vt 0.50000000 0.50000000
vt 0.50000000 0.50000000
vt 0.50000000 0.50000000
vt 0.50000000 0.50000000
vt 0.50000000 0.50000000
vt 0.50000000 0.50000000
vt 0.50000000 0.50000000
vt 0.50000000 0.50000000
vt 0.50000000 0.50000000
vt 0.50000000 0.50000000
vt 0.50000000 0.50000000
vt 0.50000000 0.50000000
vt 0.50000000 0.50000000
vt 0.50000000 0.50000000
vt 0.50000000 0.50000000
vt 0.50000000 0.50000000
vt 0.50000000 0.50000000
vt 0.50000000 0.50000000
vt 0.50000000 0.50000000
vt 0.50000000 0.50000000
vt 0.50000000 0.50000000
vt 0.50000000 0.50000000
vt 0.50000000 0.50000000
vt 0.50000000 0.50000000
vt 0.50000000 0.50000000
vt 0.50000000 0.50000000
vt 0.50000000 0.50000000
vt 0.50000000 0.50000000
vt 0.50000000 0.50000000
vt 0.50000000 0.50000000
vt 0.50000000 0.50000000
vt 0.50000000 0.50000000
vt 0.50000000 0.50000000
vt 0.50000000 0.50000000
vt 0.50000000 0.50000000
vt 0.50000000 0.50000000
vt 0.50000000 0.50000000
vt 0.50000000 0.50000000
vt 0.50000000 0.50000000
vt 0.50000000 0.50000000
vt 0.50000000 0.50000000
vt 0.50000000 0.50000000
vt 0.50000000 0.50000000
vt 0.50000000 0.50000000
vt 0.50000000 0.50000000
vt 0.50000000 0.50000000
vt 0.50000000 0.50000000
vt 0.50000000 0.50000000
vt 0.50000000 0.50000000
vt 0.50000000 0.50000000
vt 0.50000000 0.50000000
vt 0.50000000 0.50000000
vt 0.50000000 0.50000000
vt 0.50000000 0.50000000
vt 0.50000000 0.50000000
vt 0.50000000 0.50000000
vt 0.50000000 0.50000000
vt 0.50000000 0.50000000
vt 0.50000000 0.50000000
vt 0.50000000 0.50000000
vt 0.50000000 0.50000000
vt 0.50000000 0.50000000
vt 0.50000000 0.50000000
vt 0.50000000 0.50000000
vt 0.50000000 0.50000000
vt 0.50000000 0.50000000
vt 0.50000000 0.50000000
vt 0.50000000 0.50000000
vt 0.50000000 0.50000000
vt 0.50000000 0.50000000
vt 0.50000000 0.50000000
vt 0.50000000 0.50000000
vt 0.50000000 0.50000000
vt 0.50000000 0.50000000
vt 0.50000000 0.50000000
vt 0.50000000 0.50000000
vt 0.50000000 0.50000000
vt 0.50000000 0.50000000
vt 0.50000000 0.50000000
vt 0.50000000 0.50000000
vt 0.50000000 0.50000000
vt 0.50000000 0.50000000
vt 0.50000000 0.50000000
vt 0.50000000 0.50000000
vt 0.50000000 0.50000000
vt 0.50000000 0.50000000
vt 0.50000000 0.50000000
vt 0.50000000 0.50000000
vt 0.50000000 0.50000000
vt 0.50000000 0.50000000
vt 0.50000000 0.50000000
vt 0.50000000 0.50000000
vt 0.50000000 0.50000000
vt 0.50000000 0.50000000
vt 0.50000000 0.50000000
vt 0.50000000 0.50000000
vt 0.50000000 0.50000000
vt 0.50000000 0.50000000
vt 0.50000000 0.50000000
vt 0.50000000 0.50000000
vt 0.50000000 0.50000000
vt 0.50000000 0.50000000
vt 0.50000000 0.50000000
vt 0.50000000 0.50000000
vt 0.50000000 0.50000000
vt 0.50000000 0.50000000
vt 0.50000000 0.50000000
vt 0.50000000 0.50000000
vt 0.50000000 0.50000000
vt 0.50000000 0.50000000
vt 0.50000000 0.50000000
vt 0.50000000 0.50000000
vt 0.50000000 0.50000000
vt 0.50000000 0.50000000
vt 0.50000000 0.50000000
vt 0.50000000 0.50000000
vt 0.50000000 0.50000000
vt 0.50000000 0.50000000
vt 0.50000000 0.50000000
vt 0.50000000 0.50000000
vt 0.50000000 0.50000000
vt 0.50000000 0.50000000
vt 0.50000000 0.50000000
vt 0.50000000 0.50000000
vt 0.50000000 0.50000000
vt 0.50000000 0.50000000
vt 0.50000000 0.50000000
vt 0.50000000 0.50000000
vt 0.50000000 0.50000000
vt 0.50000000 0.50000000
vt 0.50000000 0.50000000
vt 0.50000000 0.50000000
vt 0.50000000 0.50000000
vt 0.50000000 0.50000000
vt 0.50000000 0.50000000
vt 0.50000000 0.50000000
vt 0.50000000 0.50000000
vt 0.50000000 0.50000000
vt 0.50000000 0.50000000
vt 0.50000000 0.50000000
vt 0.50000000 0.50000000
vt 0.50000000 0.50000000
vt 0.50000000 0.50000000
vt 0.50000000 0.50000000
vt 0.50000000 0.50000000
vt 0.50000000 0.50000000
vt 0.50000000 0.50000000
vt 0.50000000 0.50000000
vt 0.50000000 0.50000000
vt 0.50000000 0.50000000
vt 0.50000000 0.50000000
vt 0.50000000 0.50000000
vt 0.50000000 0.50000000
vt 0.50000000 0.50000000
vt 0.50000000 0.50000000
vt 0.50000000 0.50000000
vt 0.50000000 0.50000000
vt 0.50000000 0.50000000
vt 0.50000000 0.50000000
vt 0.50000000 0.50000000
vt 0.50000000 0.50000000
vt 0.50000000 0.50000000
vt 0.50000000 0.50000000
vt 0.50000000 0.50000000
vt 0.50000000 0.50000000
vt 0.50000000 0.50000000
vt 0.50000000 0.50000000
vt 0.50000000 0.50000000
vt 0.50000000 0.50000000
vt 0.50000000 0.50000000
vt 0.50000000 0.50000000
vt 0.50000000 0.50000000
vt 0.50000000 0.50000000
vt 0.50000000 0.50000000
vt 0.50000000 0.50000000
vt 0.50000000 0.50000000
vt 0.50000000 0.50000000
vt 0.50000000 0.50000000
vt 0.50000000 0.50000000
vt 0.50000000 0.50000000
vt 0.50000000 0.50000000
vt 0.50000000 0.50000000
vt 0.50000000 0.50000000
vt 0.50000000 0.50000000
vt 0.50000000 0.50000000
vt 0.50000000 0.50000000
vt 0.50000000 0.50000000
vt 0.50000000 0.50000000
vt 0.50000000 0.50000000
vt 0.50000000 0.50000000
vt 0.50000000 0.50000000
vt 0.50000000 0.50000000
vt 0.50000000 0.50000000
vt 0.50000000 0.50000000
vt 0.50000000 0.50000000
vt 0.50000000 0.50000000
vt 0.50000000 0.50000000
vt 0.50000000 0.50000000
vt 0.50000000 0.50000000
vt 0.50000000 0.50000000
vt 0.50000000 0.50000000
vt 0.50000000 0.50000000
vt 0.50000000 0.50000000
vt 0.50000000 0.50000000
vt 0.50000000 0.50000000
vt 0.50000000 0.50000000
vt 0.50000000 0.50000000
vt 0.50000000 0.50000000
vt 0.50000000 0.50000000
vt 0.50000000 0.50000000
vt 0.50000000 0.50000000
vt 0.50000000 0.50000000
vt 0.50000000 0.50000000
vt 0.50000000 0.50000000
vt 0.50000000 0.50000000
vt 0.50000000 0.50000000
vt 0.50000000 0.50000000
vt 0.50000000 0.50000000
vt 0.50000000 0.50000000
vt 0.50000000 0.50000000
vt 0.50000000 0.50000000
vt 0.50000000 0.50000000
vt 0.50000000 0.50000000
vt 0.50000000 0.50000000
vt 0.50000000 0.50000000
vt 0.50000000 0.50000000
vt 0.50000000 0.50000000
vt 0.50000000 0.50000000
vt 0.50000000 0.50000000
vt 0.50000000 0.50000000
vt 0.50000000 0.50000000
vt 0.50000000 0.50000000
vt 0.50000000 0.50000000
vt 0.50000000 0.50000000
vt 0.50000000 0.50000000
vt 0.50000000 0.50000000
vt 0.50000000 0.50000000
vt 0.50000000 0.50000000
vt 0.50000000 0.50000000
vt 0.50000000 0.50000000
vt 0.50000000 0.50000000
vt 0.50000000 0.50000000
vt 0.50000000 0.50000000
vt 0.50000000 0.50000000
vt 0.50000000 0.50000000
vt 0.50000000 0.50000000
vt 0.50000000 0.50000000
vt 0.50000000 0.50000000
vt 0.50000000 0.50000000
vt 0.50000000 0.50000000
vt 0.50000000 0.50000000
vt 0.50000000 0.50000000
vt 0.50000000 0.50000000
vt 0.50000000 0.50000000
vt 0.50000000 0.50000000
vt 0.50000000 0.50000000
vt 0.50000000 0.50000000
vt 0.50000000 0.50000000
vt 0.50000000 0.50000000
vt 0.50000000 0.50000000
vt 0.50000000 0.50000000
vt 0.50000000 0.50000000
vt 0.50000000 0.50000000
vt 0.50000000 0.50000000
vt 0.50000000 0.50000000
vt 0.50000000 0.50000000
vt 0.50000000 0.50000000
vt 0.50000000 0.50000000
vt 0.50000000 0.50000000
vt 0.50000000 0.50000000
vt 0.50000000 0.50000000
vt 0.50000000 0.50000000
vt 0.50000000 0.50000000
vt 0.50000000 0.50000000
vt 0.50000000 0.50000000
vt 0.50000000 0.50000000
vt 0.50000000 0.50000000
vt 0.50000000 0.50000000
vt 0.50000000 0.50000000
vt 0.50000000 0.50000000
vt 0.50000000 0.50000000
vt 0.50000000 0.50000000
vt 0.50000000 0.50000000
vt 0.50000000 0.50000000
vt 0.50000000 0.50000000
vt 0.50000000 0.50000000
vt 0.50000000 0.50000000
vt 0.50000000 0.50000000
vt 0.50000000 0.50000000
vt 0.50000000 0.50000000
vt 0.50000000 0.50000000
vt 0.50000000 0.50000000
vt 0.50000000 0.50000000
vt 0.50000000 0.50000000
vt 0.50000000 0.50000000
vt 0.50000000 0.50000000
vt 0.50000000 0.50000000
vt 0.50000000 0.50000000
vt 0.50000000 0.50000000
vt 0.50000000 0.50000000
vt 0.50000000 0.50000000
vt 0.50000000 0.50000000
vt 0.50000000 0.50000000
vt 0.50000000 0.50000000
vt 0.50000000 0.50000000
vt 0.50000000 0.50000000
vt 0.50000000 0.50000000
vt 0.50000000 0.50000000
vt 0.50000000 0.50000000
vt 0.50000000 0.50000000
vt 0.50000000 0.50000000
vt 0.50000000 0.50000000
vt 0.50000000 0.50000000
vt 0.50000000 0.50000000
vt 0.50000000 0.50000000
vt 0.50000000 0.50000000
vt 0.50000000 0.50000000
vt 0.50000000 0.50000000
vt 0.50000000 0.50000000
vt 0.50000000 0.50000000
vt 0.50000000 0.50000000
vt 0.50000000 0.50000000
vt 0.50000000 0.50000000
vt 0.50000000 0.50000000
vt 0.50000000 0.50000000
vt 0.50000000 0.50000000
vt 0.50000000 0.50000000
vt 0.50000000 0.50000000
vt 0.50000000 0.50000000
vt 0.50000000 0.50000000
vt 0.50000000 0.50000000
vt 0.50000000 0.50000000
vt 0.50000000 0.50000000
vt 0.50000000 0.50000000
vt 0.50000000 0.50000000
vt 0.50000000 0.50000000
vt 0.50000000 0.50000000
vt 0.50000000 0.50000000
vt 0.50000000 0.50000000
vt 0.50000000 0.50000000
vt 0.50000000 0.50000000
vt 0.50000000 0.50000000
vt 0.50000000 0.50000000
vt 0.50000000 0.50000000
vt 0.50000000 0.50000000
vt 0.50000000 0.50000000
vt 0.50000000 0.50000000
vt 0.50000000 0.50000000
vt 0.50000000 0.50000000
vt 0.50000000 0.50000000
vt 0.50000000 0.50000000
vt 0.50000000 0.50000000
vt 0.50000000 0.50000000
vt 0.50000000 0.50000000
vt 0.50000000 0.50000000
vt 0.50000000 0.50000000
vt 0.50000000 0.50000000
vt 0.50000000 0.50000000
vt 0.50000000 0.50000000
vt 0.50000000 0.50000000
vt 0.50000000 0.50000000
vt 0.50000000 0.50000000
vt 0.50000000 0.50000000
vt 0.50000000 0.50000000
vt 0.50000000 0.50000000
vt 0.50000000 0.50000000
vt 0.50000000 0.50000000
vt 0.50000000 0.50000000
vt 0.50000000 0.50000000
vt 0.50000000 0.50000000
vt 0.50000000 0.50000000
vt 0.50000000 0.50000000
vt 0.50000000 0.50000000
vt 0.50000000 0.50000000
vt 0.50000000 0.50000000
vt 0.50000000 0.50000000
vt 0.50000000 0.50000000
vt 0.50000000 0.50000000
vt 0.50000000 0.50000000
vt 0.50000000 0.50000000
vt 0.50000000 0.50000000
vt 0.50000000 0.50000000
vt 0.50000000 0.50000000
vt 0.50000000 0.50000000
vt 0.50000000 0.50000000
vt 0.50000000 0.50000000
vt 0.50000000 0.50000000
vt 0.50000000 0.50000000
vt 0.50000000 0.50000000
vt 0.50000000 0.50000000
vt 0.50000000 0.50000000
vt 0.50000000 0.50000000
vt 0.50000000 0.50000000
vt 0.50000000 0.50000000
vt 0.50000000 0.50000000
vt 0.50000000 0.50000000
vt 0.50000000 0.50000000
vt 0.50000000 0.50000000
vt 0.50000000 0.50000000
vt 0.50000000 0.50000000
vt 0.50000000 0.50000000
vt 0.50000000 0.50000000
vt 0.50000000 0.50000000
vt 0.50000000 0.50000000
vt 0.50000000 0.50000000
vt 0.50000000 0.50000000
vt 0.50000000 0.50000000
vt 0.50000000 0.50000000
vt 0.50000000 0.50000000
vt 0.50000000 0.50000000
f 1/1 2/2 3/3
f 4/4 3/3 5/5
f 6/6 5/5 7/7
f 8/8 7/7 9/9
f 10/10 9/9 11/11
f 11/11 12/12 10/10
f 9/9 10/10 8/8
f 7/7 8/8 6/6
f 5/5 6/6 4/4
f 3/3 4/4 1/1
f 13/13 14/14 15/15
f 16/16 15/15 17/17
f 18/18 17/17 19/19
f 20/20 19/19 21/21
f 22/22 21/21 23/23
f 23/23 24/24 22/22
f 21/21 22/22 20/20
f 19/19 20/20 18/18
f 17/17 18/18 16/16
f 15/15 16/16 13/13
f 25/25 26/26 27/27
f 26/26 28/28 27/27
f 25/25 29/29 30/30
f 30/30 31/31 25/25
f 30/30 32/32 31/31
f 27/27 29/29 25/25
f 33/33 34/34 35/35
f 35/35 36/36 33/33
f 37/37 38/38 39/39
f 39/39 40/40 37/37
f 40/40 41/41 42/42
f 42/42 43/43 40/40
f 44/44 43/43 45/45
f 43/43 46/46 45/45
f 47/47 44/44 48/48
f 44/44 49/49 48/48
f 50/50 47/47 51/51
f 51/51 52/52 50/50
f 47/47 53/53 51/51
f 50/50 54/54 55/55
f 56/56 57/57 58/58
f 57/57 55/55 58/58
f 59/59 56/56 60/60
f 60/60 61/61 59/59
f 56/56 62/62 60/60
f 59/59 63/63 64/64
f 64/64 65/65 59/59
f 65/65 66/66 67/67
f 68/68 69/69 70/70
f 69/69 71/71 70/70
f 69/69 67/67 71/71
f 68/68 72/72 73/73
f 73/73 74/74 68/68
f 74/74 75/75 76/76
f 77/77 78/78 79/79
f 78/78 80/80 79/79
f 78/78 76/76 80/80
f 81/81 77/77 82/82
f 77/77 83/83 82/82
f 82/82 84/84 81/81
f 79/79 83/83 77/77
f 76/76 78/78 74/74
f 73/73 75/75 74/74
f 70/70 72/72 68/68
f 67/67 69/69 65/65
f 64/64 66/66 65/65
f 61/61 63/63 59/59
f 58/58 62/62 56/56
f 55/55 57/57 50/50
f 52/52 54/54 50/50
f 48/48 53/53 47/47
f 45/45 49/49 44/44
f 42/42 46/46 43/43
f 39/39 41/41 40/40
f 85/85 86/86 87/87
f 87/87 88/88 85/85
f 89/89 90/90 91/91
f 90/90 92/92 91/91
f 90/90 93/93 94/94
f 95/95 96/96 97/97
f 98/98 99/99 96/96
f 100/100 101/101 99/99
f 94/94 92/92 90/90
f 93/93 102/102 103/103
f 96/96 95/95 98/98
f 99/99 98/98 100/100
f 104/104 105/105 106/106
f 103/103 94/94 93/93
f 107/107 108/108 102/102
f 100/100 109/109 101/101
f 109/109 110/110 111/111
f 104/104 112/112 105/105
f 104/104 113/113 114/114
f 104/104 115/115 116/116
f 102/102 93/93 107/107
f 117/117 118/118 108/108
f 119/119 120/120 118/118
f 121/121 97/97 120/120
f 111/111 101/101 109/109
f 110/110 122/122 123/123
f 106/106 124/124 104/104
f 116/116 113/113 104/104
f 108/108 107/107 117/117
f 120/120 119/119 121/121
f 123/123 111/111 110/110
f 122/122 125/125 126/126
f 124/124 127/127 104/104
f 104/104 128/128 93/93
f 114/114 129/129 104/104
f 118/118 117/117 119/119
f 126/126 123/123 122/122
f 127/127 130/130 104/104
f 129/129 128/128 104/104
f 97/97 121/121 95/95
f 125/125 89/89 131/131
f 93/93 132/132 104/104
f 93/93 90/90 133/133
f 131/131 126/126 125/125
f 133/133 132/132 93/93
f 130/130 115/115 104/104
f 91/91 131/131 89/89
f 134/134 135/135 136/136
f 137/137 138/138 139/139
f 137/137 140/140 138/138
f 134/134 141/141 142/142
f 137/137 143/143 140/140
f 134/134 144/144 141/141
f 145/145 146/146 144/144
f 137/137 147/147 143/143
f 137/137 148/148 149/149
f 144/144 134/134 145/145
f 149/149 147/147 137/137
f 148/148 134/134 150/150
f 145/145 151/151 146/146
f 148/148 152/152 149/149
f 150/150 153/153 148/148
f 145/145 154/154 151/151
f 145/145 139/139 155/155
f 153/153 152/152 148/148
f 155/155 154/154 145/145
f 142/142 150/150 134/134
f 137/137 156/156 157/157
f 158/158 159/159 160/160
f 158/158 161/161 162/162
f 157/157 148/148 137/137
f 162/162 159/159 158/158
f 148/148 163/163 164/164
f 137/137 165/165 156/156
f 158/158 166/166 167/167
f 161/161 168/168 162/162
f 148/148 169/169 163/163
f 137/137 170/170 165/165
f 137/137 158/158 171/171
f 160/160 166/166 158/158
f 161/161 164/164 172/172
f 157/157 169/169 148/148
f 171/171 173/173 137/137
f 172/172 168/168 161/161
f 173/173 170/170 137/137
f 164/164 161/161 148/148
f 174/174 161/161 158/158
f 175/175 176/176 177/177
f 175/175 178/178 176/176
f 175/175 179/179 178/178
f 180/180 181/181 179/179
f 182/182 183/183 177/177
f 179/179 175/175 180/180
f 177/177 184/184 182/182
f 180/180 185/185 181/181
f 186/186 187/187 188/188
f 186/186 182/182 189/189
f 184/184 190/190 182/182
f 180/180 191/191 185/185
f 180/180 188/188 192/192
f 186/186 193/193 187/187
f 190/190 189/189 182/182
f 192/192 191/191 180/180
f 186/186 194/194 193/193
f 177/177 183/183 175/175
f 186/186 195/195 194/194
f 188/188 180/180 186/186
f 196/196 197/197 198/198
f 199/199 200/200 196/196
f 180/180 201/201 202/202
f 203/203 204/204 205/205
f 203/203 206/206 207/207
f 198/198 199/199 196/196
f 202/202 208/208 180/180
f 201/201 205/205 209/209
f 203/203 210/210 204/204
f 206/206 211/211 207/207
f 212/212 175/175 200/200
f 209/209 202/202 201/201
f 207/207 210/210 203/203
f 199/199 212/212 200/200
f 205/205 201/201 203/203
f 212/212 201/201 175/175
f 201/201 180/180 175/175
f 206/206 213/213 214/214
f 206/206 203/203 213/213
f 161/161 174/174 215/215
f 216/216 148/148 161/161
f 161/161 217/217 216/216
f 148/148 218/218 219/219
f 220/220 135/135 134/134
f 136/136 135/135 221/221
f 221/221 222/222 136/136
f 222/222 223/223 136/136
f 224/224 225/225 226/226
f 224/224 227/227 228/228
f 229/229 228/228 227/227
f 230/230 231/231 232/232
f 226/226 136/136 224/224
f 228/228 233/233 224/224
f 230/230 234/234 229/229
f 231/231 235/235 232/232
f 233/233 225/225 224/224
f 232/232 234/234 230/230
f 227/227 230/230 229/229
f 231/231 236/236 237/237
f 231/231 238/238 236/236
f 231/231 239/239 238/238
f 230/230 240/240 241/241
f 231/231 242/242 239/239
f 231/231 230/230 243/243
f 241/241 244/244 230/230
f 245/245 246/246 247/247
f 245/245 237/237 248/248
f 243/243 242/242 231/231
f 244/244 249/249 230/230
f 240/240 250/250 251/251
f 248/248 246/246 245/245
f 249/249 243/243 230/230
f 240/240 252/252 250/250
f 245/245 253/253 252/252
f 237/237 245/245 231/231
f 252/252 240/240 245/245
f 251/251 241/241 240/240
f 240/240 254/254 255/255
f 256/256 240/240 257/257
f 258/258 259/259 260/260
f 258/258 261/261 262/262
f 255/255 245/245 240/240
f 257/257 260/260 256/256
f 258/258 263/263 259/259
f 261/261 264/264 262/262
f 256/256 254/254 240/240
f 262/262 263/263 258/258
f 260/260 257/257 258/258
f 261/261 258/258 265/265
f 265/265 266/266 261/261
f 267/267 261/261 268/268
f 269/269 270/270 271/271
f 271/271 272/272 269/269
f 273/273 274/274 275/275
f 272/272 276/276 274/274
f 269/269 277/277 270/270
f 275/275 278/278 273/273
f 272/272 279/279 276/276
f 269/269 280/280 277/277
f 269/269 267/267 281/281
f 267/267 282/282 283/283
f 267/267 284/284 285/285
f 267/267 278/278 286/286
f 275/275 287/287 278/278
f 271/271 279/279 272/272
f 281/281 288/288 269/269
f 285/285 282/282 267/267
f 287/287 286/286 278/278
f 288/288 280/280 269/269
f 286/286 284/284 267/267
f 283/283 281/281 267/267
f 289/289 290/290 291/291
f 291/291 292/292 289/289
f 269/269 293/293 294/294
f 269/269 272/272 295/295
f 292/292 296/296 297/297
f 289/289 298/298 290/290
f 269/269 299/299 300/300
f 295/295 293/293 269/269
f 292/292 301/301 296/296
f 289/289 302/302 298/298
f 269/269 303/303 299/299
f 272/272 304/304 295/295
f 305/305 297/297 306/306
f 291/291 301/301 292/292
f 289/289 300/300 307/307
f 294/294 303/303 269/269
f 306/306 272/272 305/305
f 307/307 302/302 289/289
f 306/306 304/304 272/272
f 300/300 289/289 269/269
f 289/289 308/308 309/309
f 289/289 292/292 308/308
f 310/310 309/309 311/311
f 312/312 313/313 314/314
f 312/312 315/315 316/316
f 316/316 313/313 312/312
f 317/317 318/318 319/319
f 317/317 320/320 321/321
f 186/186 322/322 323/323
f 314/314 324/324 312/312
f 319/319 310/310 317/317
f 321/321 325/325 317/317
f 320/320 323/323 326/326
f 186/186 327/327 322/322
f 182/182 320/320 312/312
f 325/325 318/318 317/317
f 323/323 320/320 186/186
f 182/182 186/186 320/320
f 326/326 321/321 320/320
f 319/319 328/328 310/310
f 267/267 329/329 330/330
f 269/269 331/331 329/329
f 329/329 267/267 269/269
f 261/261 267/267 332/332
f 245/245 333/333 334/334
f 332/332 335/335 261/261
f 267/267 336/336 337/337
f 336/336 338/338 339/339
f 245/245 340/340 333/333
f 267/267 341/341 332/332
f 337/337 342/342 267/267
f 339/339 343/343 336/336
f 334/334 338/338 245/245
f 342/342 341/341 267/267
f 334/334 339/339 338/338
f 343/343 337/337 336/336
f 245/245 344/344 345/345
f 231/231 345/345 346/346
f 245/245 338/338 344/344
f 345/345 231/231 245/245
f 231/231 347/347 348/348
f 145/145 349/349 350/350
f 348/348 351/351 231/231
f 352/352 353/353 354/354
f 145/145 355/355 349/349
f 136/136 356/356 357/357
f 347/347 354/354 348/348
f 352/352 350/350 353/353
f 145/145 357/357 355/355
f 136/136 358/358 356/356
f 354/354 347/347 352/352
f 357/357 145/145 136/136
f 350/350 352/352 145/145
f 137/137 145/145 359/359
f 145/145 360/360 359/359
f 145/145 352/352 360/360
f 158/158 361/361 362/362
f 137/137 363/363 361/361
f 361/361 158/158 137/137
f 364/364 365/365 366/366
f 366/366 367/367 364/364
f 180/180 368/368 369/369
f 206/206 158/158 370/370
f 158/158 364/364 371/371
f 365/365 369/369 366/366
f 180/180 372/372 368/368
f 370/370 373/373 206/206
f 371/371 374/374 158/158
f 369/369 365/365 180/180
f 158/158 375/375 370/370
f 367/367 371/371 364/364
f 374/374 375/375 158/158
f 180/180 376/376 377/377
f 377/377 186/186 180/180
f 180/180 365/365 376/376
f 377/377 378/378 186/186
f 289/289 379/379 380/380
f 289/289 381/381 379/379
f 310/310 382/382 383/383
f 186/186 384/384 385/385
f 386/386 387/387 388/388
f 289/289 383/383 381/381
f 310/310 328/328 382/382
f 385/385 389/389 186/186
f 386/386 380/380 387/387
f 383/383 289/289 310/310
f 384/384 388/388 385/385
f 380/380 386/386 289/289
f 388/388 384/384 386/386
f 269/269 289/289 390/390
f 289/289 391/391 390/390
f 289/289 386/386 391/391
f 390/390 331/331 269/269
f 389/389 327/327 186/186
f 378/378 384/384 186/186
f 373/373 211/211 206/206
f 362/362 364/364 158/158
f 359/359 363/363 137/137
f 351/351 235/235 231/231
f 346/346 347/347 231/231
f 335/335 264/264 261/261
f 330/330 336/336 267/267
f 324/324 182/182 312/312
f 311/311 317/317 310/310
f 309/309 310/310 289/289
f 297/297 305/305 292/292
f 274/274 273/273 272/272
f 268/268 278/278 267/267
f 266/266 268/268 261/261
f 255/255 340/340 245/245
f 247/247 253/253 245/245
f 226/226 358/358 136/136
f 223/223 224/224 136/136
f 221/221 135/135 220/220
f 134/134 219/219 220/220
f 219/219 134/134 148/148
f 216/216 218/218 148/148
f 215/215 217/217 161/161
f 215/215 174/174 214/214
f 214/214 174/174 206/206
f 208/208 372/372 180/180
f 189/189 195/195 186/186
f 158/158 206/206 174/174
f 167/167 171/171 158/158
f 139/139 145/145 137/137
f 136/136 145/145 134/134
f 392/392 393/393 394/394
f 395/395 396/396 397/397
f 397/397 398/398 395/395
f 396/396 394/394 397/397
f 399/399 395/395 400/400
f 395/395 401/401 400/400
f 402/402 399/399 403/403
f 399/399 404/404 403/403
f 402/402 405/405 406/406
f 406/406 407/407 402/402
f 407/407 408/408 409/409
f 409/409 410/410 407/407
f 411/411 412/412 413/413
f 410/410 414/414 412/412
f 412/412 411/411 410/410
f 410/410 415/415 414/414
f 411/411 416/416 417/417
f 418/418 417/417 419/419
f 420/420 421/421 422/422
f 422/422 423/423 420/420
f 421/421 424/424 422/422
f 421/421 419/419 424/424
f 425/425 420/420 426/426
f 420/420 427/427 426/426
f 428/428 425/425 429/429
f 425/425 430/430 429/429
f 428/428 431/431 432/432
f 432/432 433/433 428/428
f 433/433 434/434 435/435
f 435/435 436/436 433/433
f 436/436 437/437 438/438
f 438/438 439/439 436/436
f 436/436 440/440 437/437
f 439/439 441/441 393/393
f 393/393 392/392 439/439
f 438/438 441/441 439/439
f 435/435 440/440 436/436
f 432/432 434/434 433/433
f 429/429 431/431 428/428
f 426/426 430/430 425/425
f 423/423 427/427 420/420
f 419/419 421/421 418/418
f 417/417 418/418 411/411
f 413/413 416/416 411/411
f 409/409 415/415 410/410
f 406/406 408/408 407/407
f 403/403 405/405 402/402
f 400/400 404/404 399/399
f 398/398 401/401 395/395
f 394/394 396/396 392/392
f 442/442 443/443 444/444
f 445/445 442/442 446/446
f 447/447 445/445 448/448
f 449/449 447/447 450/450
f 451/451 449/449 452/452
f 453/453 451/451 454/454
f 455/455 453/453 456/456
f 457/457 455/455 458/458
f 459/459 457/457 460/460
f 461/461 459/459 462/462
f 463/463 461/461 464/464
f 465/465 463/463 466/466
f 467/467 465/465 468/468
f 469/469 467/467 470/470
f 471/471 469/469 472/472
f 443/443 471/471 473/473
f 473/473 444/444 443/443
f 472/472 473/473 471/471
f 470/470 472/472 469/469
f 468/468 470/470 467/467
f 466/466 468/468 465/465
f 464/464 466/466 463/463
f 462/462 464/464 461/461
f 460/460 462/462 459/459
f 458/458 460/460 457/457
f 456/456 458/458 455/455
f 454/454 456/456 453/453
f 452/452 454/454 451/451
f 450/450 452/452 449/449
f 448/448 450/450 447/447
f 446/446 448/448 445/445
f 444/444 446/446 442/442
f 474/474 475/475 476/476
f 477/477 474/474 478/478
f 479/479 477/477 480/480
f 481/481 479/479 482/482
f 483/483 481/481 484/484
f 485/485 483/483 486/486
f 487/487 485/485 488/488
f 489/489 487/487 490/490
f 491/491 492/492 493/493
f 494/494 493/493 492/492
f 492/492 489/489 494/494
f 495/495 491/491 496/496
f 497/497 495/495 498/498
f 499/499 497/497 500/500
f 501/501 499/499 502/502
f 503/503 501/501 504/504
f 505/505 503/503 506/506
f 475/475 507/507 508/508
f 509/509 508/508 507/507
f 507/507 505/505 509/509
f 508/508 476/476 475/475
f 506/506 509/509 505/505
f 504/504 506/506 503/503
f 502/502 504/504 501/501
f 500/500 502/502 499/499
f 498/498 500/500 497/497
f 496/496 498/498 495/495
f 493/493 496/496 491/491
f 490/490 494/494 489/489
f 488/488 490/490 487/487
f 486/486 488/488 485/485
f 484/484 486/486 483/483
f 482/482 484/484 481/481
f 480/480 482/482 479/479
f 478/478 480/480 477/477
f 476/476 478/478 474/474
f 510/510 511/511 512/512
f 513/513 510/510 514/514
f 515/515 513/513 516/516
f 517/517 515/515 518/518
f 519/519 517/517 520/520
f 521/521 519/519 522/522
f 523/523 521/521 524/524
f 525/525 523/523 526/526
f 527/527 525/525 528/528
f 529/529 527/527 530/530
f 531/531 529/529 532/532
f 533/533 531/531 534/534
f 535/535 533/533 536/536
f 537/537 535/535 538/538
f 539/539 537/537 540/540
f 511/511 539/539 541/541
f 541/541 512/512 511/511
f 540/540 541/541 539/539
f 538/538 540/540 537/537
f 536/536 538/538 535/535
f 534/534 536/536 533/533
f 532/532 534/534 531/531
f 530/530 532/532 529/529
f 528/528 530/530 527/527
f 526/526 528/528 525/525
f 524/524 526/526 523/523
f 522/522 524/524 521/521
f 520/520 522/522 519/519
f 518/518 520/520 517/517
f 516/516 518/518 515/515
f 514/514 516/516 513/513
f 512/512 514/514 510/510
f 542/542 543/543 544/544
f 545/545 542/542 546/546
f 547/547 545/545 548/548
f 549/549 547/547 550/550
f 551/551 549/549 552/552
f 553/553 551/551 554/554
f 555/555 553/553 556/556
f 557/557 555/555 558/558
f 559/559 557/557 560/560
f 561/561 559/559 562/562
f 563/563 561/561 564/564
f 565/565 563/563 566/566
f 567/567 565/565 568/568
f 569/569 567/567 570/570
f 571/571 569/569 572/572
f 543/543 571/571 573/573
f 573/573 544/544 543/543
f 572/572 573/573 571/571
f 570/570 572/572 569/569
f 568/568 570/570 567/567
f 566/566 568/568 565/565
f 564/564 566/566 563/563
f 562/562 564/564 561/561
f 560/560 562/562 559/559
f 558/558 560/560 557/557
f 556/556 558/558 555/555
f 554/554 556/556 553/553
f 552/552 554/554 551/551
f 550/550 552/552 549/549
f 548/548 550/550 547/547
f 546/546 548/548 545/545
f 544/544 546/546 542/542
f 574/574 575/575 576/576
f 577/577 576/576 575/575
f 575/575 578/578 577/577
f 579/579 574/574 580/580
f 581/581 579/579 582/582
f 583/583 581/581 584/584
f 585/585 583/583 586/586
f 587/587 585/585 588/588
f 589/589 587/587 590/590
f 591/591 592/592 593/593
f 594/594 593/593 592/592
f 592/592 589/589 594/594
f 595/595 591/591 596/596
f 597/597 595/595 598/598
f 599/599 597/597 600/600
f 601/601 599/599 602/602
f 603/603 601/601 604/604
f 605/605 603/603 606/606
f 607/607 605/605 608/608
f 578/578 607/607 609/609
f 609/609 577/577 578/578
f 608/608 609/609 607/607
f 606/606 608/608 605/605
f 604/604 606/606 603/603
f 602/602 604/604 601/601
f 600/600 602/602 599/599
f 598/598 600/600 597/597
f 596/596 598/598 595/595
f 593/593 596/596 591/591
f 590/590 594/594 589/589
f 588/588 590/590 587/587
f 586/586 588/588 585/585
f 584/584 586/586 583/583
f 582/582 584/584 581/581
f 580/580 582/582 579/579
f 576/576 580/580 574/574
f 610/610 611/611 612/612
f 613/613 610/610 614/614
f 615/615 613/613 616/616
f 617/617 615/615 618/618
f 619/619 617/617 620/620
f 621/621 619/619 622/622
f 623/623 621/621 624/624
f 625/625 623/623 626/626
f 627/627 625/625 628/628
f 629/629 627/627 630/630
f 631/631 629/629 632/632
f 633/633 631/631 634/634
f 635/635 633/633 636/636
f 637/637 635/635 638/638
f 639/639 637/637 640/640
f 611/611 639/639 641/641
f 641/641 612/612 611/611
f 640/640 641/641 639/639
f 638/638 640/640 637/637
f 636/636 638/638 635/635
f 634/634 636/636 633/633
f 632/632 634/634 631/631
f 630/630 632/632 629/629
f 628/628 630/630 627/627
f 626/626 628/628 625/625
f 624/624 626/626 623/623
f 622/622 624/624 621/621
f 620/620 622/622 619/619
f 618/618 620/620 617/617
f 616/616 618/618 615/615
f 614/614 616/616 613/613
f 612/612 614/614 610/610
f 642/642 643/643 644/644
f 645/645 644/644 643/643
f 643/643 646/646 645/645
f 647/647 642/642 648/648
f 649/649 647/647 650/650
f 651/651 649/649 652/652
f 653/653 651/651 654/654
f 655/655 653/653 656/656
f 657/657 655/655 658/658
f 659/659 660/660 661/661
f 662/662 661/661 660/660
f 660/660 657/657 662/662
f 663/663 659/659 664/664
f 665/665 663/663 666/666
f 667/667 665/665 668/668
f 669/669 667/667 670/670
f 671/671 669/669 672/672
f 673/673 671/671 674/674
f 675/675 673/673 676/676
f 646/646 675/675 677/677
f 677/677 645/645 646/646
f 676/676 677/677 675/675
f 674/674 676/676 673/673
f 672/672 674/674 671/671
f 670/670 672/672 669/669
f 668/668 670/670 667/667
f 666/666 668/668 665/665
f 664/664 666/666 663/663
f 661/661 664/664 659/659
f 658/658 662/662 657/657
f 656/656 658/658 655/655
f 654/654 656/656 653/653
f 652/652 654/654 651/651
f 650/650 652/652 649/649
f 648/648 650/650 647/647
f 644/644 648/648 642/642
f 678/678 679/679 680/680
f 681/681 678/678 682/682
f 683/683 681/681 684/684
f 685/685 683/683 686/686
f 687/687 685/685 688/688
f 689/689 687/687 690/690
f 691/691 689/689 692/692
f 693/693 691/691 694/694
f 695/695 693/693 696/696
f 697/697 695/695 698/698
f 699/699 697/697 700/700
f 701/701 699/699 702/702
f 703/703 701/701 704/704
f 705/705 703/703 706/706
f 707/707 705/705 708/708
f 679/679 707/707 709/709
f 709/709 680/680 679/679
f 708/708 709/709 707/707
f 706/706 708/708 705/705
f 704/704 706/706 703/703
f 702/702 704/704 701/701
f 700/700 702/702 699/699
f 698/698 700/700 697/697
f 696/696 698/698 695/695
f 694/694 696/696 693/693
f 692/692 694/694 691/691
f 690/690 692/692 689/689
f 688/688 690/690 687/687
f 686/686 688/688 685/685
f 684/684 686/686 683/683
f 682/682 684/684 681/681
f 680/680 682/682 678/678
f 710/710 711/711 712/712
f 713/713 710/710 714/714
f 715/715 713/713 716/716
f 717/717 715/715 718/718
f 719/719 717/717 720/720
f 721/721 719/719 722/722
f 723/723 721/721 724/724
f 725/725 723/723 726/726
f 727/727 725/725 728/728
f 729/729 727/727 730/730
f 731/731 729/729 732/732
f 733/733 731/731 734/734
f 735/735 733/733 736/736
f 737/737 735/735 738/738
f 739/739 737/737 740/740
f 711/711 739/739 741/741
f 741/741 712/712 711/711
f 740/740 741/741 739/739
f 738/738 740/740 737/737
f 736/736 738/738 735/735
f 734/734 736/736 733/733
f 732/732 734/734 731/731
f 730/730 732/732 729/729
f 728/728 730/730 727/727
f 726/726 728/728 725/725
f 724/724 726/726 723/723
f 722/722 724/724 721/721
f 720/720 722/722 719/719
f 718/718 720/720 717/717
f 716/716 718/718 715/715
f 714/714 716/716 713/713
f 712/712 714/714 710/710
f 742/742 743/743 744/744
f 745/745 742/742 746/746
f 747/747 745/745 748/748
f 749/749 747/747 750/750
f 751/751 749/749 752/752
f 753/753 751/751 754/754
f 755/755 753/753 756/756
f 757/757 755/755 758/758
f 759/759 760/760 761/761
f 762/762 761/761 760/760
f 760/760 757/757 762/762
f 763/763 759/759 764/764
f 765/765 763/763 766/766
f 767/767 765/765 768/768
f 769/769 767/767 770/770
f 771/771 769/769 772/772
f 773/773 771/771 774/774
f 743/743 775/775 776/776
f 777/777 776/776 775/775
f 775/775 773/773 777/777
f 776/776 744/744 743/743
f 774/774 777/777 773/773
f 772/772 774/774 771/771
f 770/770 772/772 769/769
f 768/768 770/770 767/767
f 766/766 768/768 765/765
f 764/764 766/766 763/763
f 761/761 764/764 759/759
f 758/758 762/762 757/757
f 756/756 758/758 755/755
f 754/754 756/756 753/753
f 752/752 754/754 751/751
f 750/750 752/752 749/749
f 748/748 750/750 747/747
f 746/746 748/748 745/745
f 744/744 746/746 742/742
f 778/778 779/779 780/780
f 780/780 781/781 778/778
f 780/780 782/782 781/781
f 783/783 781/781 784/784
f 784/784 785/785 783/783
f 781/781 786/786 784/784
f 781/781 787/787 786/786
f 781/781 788/788 789/789
f 788/788 790/790 791/791
f 792/792 793/793 794/794
f 789/789 787/787 781/781
f 791/791 795/795 788/788
f 792/792 796/796 793/793
f 795/795 789/789 788/788
f 794/794 790/790 792/792
f 794/794 791/791 790/790
f 797/797 792/792 798/798
f 792/792 799/799 798/798
f 798/798 800/800 797/797
f 792/792 790/790 799/799
f 797/797 801/801 802/802
f 802/802 803/803 797/797
f 801/801 804/804 802/802
f 805/805 806/806 804/804
f 804/804 801/801 805/805
f 807/807 808/808 809/809
f 810/810 811/811 812/812
f 805/805 809/809 806/806
f 807/807 813/813 808/808
f 810/810 814/814 811/811
f 809/809 805/805 807/807
f 812/812 807/807 810/810
f 812/812 813/813 807/807
f 815/815 807/807 816/816
f 807/807 805/805 817/817
f 817/817 816/816 807/807
f 815/815 818/818 819/819
f 819/819 820/820 815/815
f 819/819 821/821 820/820
f 822/822 820/820 823/823
f 824/824 825/825 826/826
f 823/823 827/827 822/822
f 820/820 828/828 829/829
f 828/828 830/830 831/831
f 824/824 832/832 825/825
f 820/820 833/833 823/823
f 829/829 834/834 820/820
f 831/831 835/835 828/828
f 826/826 830/830 824/824
f 834/834 833/833 820/820
f 826/826 831/831 830/830
f 835/835 829/829 828/828
f 836/836 824/824 837/837
f 824/824 830/830 838/838
f 838/838 837/837 824/824
f 837/837 839/839 836/836
f 836/836 840/840 841/841
f 842/842 843/843 844/844
f 841/841 845/845 836/836
f 846/846 847/847 848/848
f 849/849 850/850 851/851
f 842/842 852/852 843/843
f 840/840 848/848 841/841
f 846/846 851/851 847/847
f 849/849 853/853 850/850
f 844/844 849/849 842/842
f 848/848 840/840 846/846
f 844/844 853/853 849/849
f 851/851 846/846 849/849
f 778/778 849/849 854/854
f 849/849 855/855 854/854
f 849/849 846/846 855/855
f 856/856 857/857 858/858
f 859/859 860/860 861/861
f 862/862 807/807 863/863
f 863/863 859/859 862/862
f 815/815 864/864 865/865
f 856/856 866/866 864/864
f 807/807 867/867 863/863
f 864/864 815/815 856/856
f 856/856 861/861 868/868
f 807/807 869/869 867/867
f 807/807 870/870 871/871
f 815/815 872/872 870/870
f 856/856 873/873 866/866
f 868/868 874/874 856/856
f 861/861 860/860 875/875
f 871/871 869/869 807/807
f 815/815 876/876 872/872
f 874/874 873/873 856/856
f 861/861 862/862 859/859
f 865/865 876/876 815/815
f 870/870 807/807 815/815
f 807/807 862/862 877/877
f 810/810 877/877 878/878
f 810/810 879/879 880/880
f 879/879 881/881 882/882
f 883/883 884/884 881/881
f 885/885 797/797 886/886
f 879/879 887/887 880/880
f 881/881 888/888 882/882
f 881/881 885/885 883/883
f 797/797 889/889 886/886
f 882/882 887/887 879/879
f 886/886 883/883 885/885
f 884/884 888/888 881/881
f 890/890 891/891 892/892
f 892/892 893/893 890/890
f 890/890 894/894 891/891
f 792/792 797/797 895/895
f 885/885 893/893 896/896
f 890/890 897/897 894/894
f 792/792 898/898 897/897
f 895/895 899/899 792/792
f 885/885 900/900 901/901
f 893/893 902/902 896/896
f 897/897 890/890 792/792
f 899/899 903/903 792/792
f 797/797 904/904 905/905
f 896/896 900/900 885/885
f 903/903 898/898 792/792
f 797/797 906/906 904/904
f 797/797 885/885 907/907
f 892/892 902/902 893/893
f 907/907 906/906 797/797
f 905/905 895/895 797/797
f 890/890 908/908 909/909
f 908/908 890/890 910/910
f 911/911 912/912 913/913
f 783/783 914/914 915/915
f 909/909 792/792 890/890
f 910/910 916/916 917/917
f 913/913 910/910 911/911
f 915/915 911/911 783/783
f 910/910 917/917 908/908
f 915/915 912/912 911/911
f 913/913 916/916 910/910
f 783/783 911/911 918/918
f 781/781 783/783 919/919
f 920/920 778/778 921/921
f 781/781 922/922 923/923
f 924/924 925/925 922/922
f 921/921 926/926 920/920
f 922/922 781/781 924/924
f 924/924 927/927 928/928
f 778/778 929/929 921/921
f 778/778 781/781 930/930
f 928/928 925/925 924/924
f 927/927 931/931 932/932
f 920/920 933/933 931/931
f 778/778 934/934 929/929
f 930/930 935/935 778/778
f 781/781 936/936 937/937
f 932/932 928/928 927/927
f 920/920 938/938 933/933
f 935/935 934/934 778/778
f 923/923 936/936 781/781
f 926/926 938/938 920/920
f 931/931 927/927 920/920
f 778/778 939/939 940/940
f 920/920 941/941 939/939
f 778/778 942/942 943/943
f 939/939 778/778 920/920
f 944/944 945/945 946/946
f 947/947 948/948 945/945
f 778/778 949/949 942/942
f 920/920 950/950 941/941
f 920/920 944/944 951/951
f 945/945 944/944 947/947
f 947/947 849/849 952/952
f 849/849 953/953 954/954
f 849/849 943/943 955/955
f 940/940 949/949 778/778
f 951/951 956/956 920/920
f 952/952 948/948 947/947
f 955/955 953/953 849/849
f 956/956 950/950 920/920
f 954/954 952/952 849/849
f 946/946 951/951 944/944
f 849/849 947/947 957/957
f 842/842 957/957 958/958
f 842/842 959/959 960/960
f 959/959 961/961 962/962
f 963/963 964/964 961/961
f 965/965 836/836 966/966
f 959/959 967/967 960/960
f 961/961 968/968 962/962
f 961/961 965/965 963/963
f 836/836 969/969 966/966
f 962/962 967/967 959/959
f 966/966 963/963 965/965
f 964/964 968/968 961/961
f 836/836 970/970 971/971
f 824/824 836/836 972/972
f 836/836 973/973 970/970
f 836/836 965/965 974/974
f 965/965 975/975 976/976
f 972/972 977/977 824/824
f 974/974 973/973 836/836
f 975/975 978/978 976/976
f 979/979 980/980 981/981
f 824/824 982/982 983/983
f 977/977 984/984 824/824
f 965/965 985/985 974/974
f 976/976 986/986 965/965
f 981/981 975/975 979/979
f 984/984 982/982 824/824
f 986/986 985/985 965/965
f 979/979 987/987 980/980
f 971/971 972/972 836/836
f 979/979 983/983 987/987
f 981/981 978/978 975/975
f 979/979 988/988 989/989
f 988/988 979/979 990/990
f 991/991 992/992 993/993
f 822/822 994/994 995/995
f 989/989 824/824 979/979
f 990/990 996/996 997/997
f 993/993 990/990 991/991
f 995/995 991/991 822/822
f 990/990 997/997 988/988
f 995/995 992/992 991/991
f 993/993 996/996 990/990
f 822/822 991/991 998/998
f 820/820 822/822 999/999
f 856/856 815/815 1000/1000
f 1000/1000 1001/1001 856/856
f 820/820 1002/1002 1003/1003
f 1004/1004 1005/1005 1002/1002
f 815/815 1006/1006 1000/1000
f 815/815 820/820 1007/1007
f 1002/1002 820/820 1004/1004
f 1005/1005 1004/1004 1008/1008
f 856/856 1009/1009 1010/1010
f 815/815 1011/1011 1006/1006
f 1007/1007 1012/1012 815/815
f 1008/1008 1013/1013 1005/1005
f 1008/1008 1010/1010 1014/1014
f 856/856 1015/1015 1009/1009
f 1012/1012 1011/1011 815/815
f 820/820 1016/1016 1017/1017
f 1014/1014 1013/1013 1008/1008
f 1001/1001 1015/1015 856/856
f 1003/1003 1016/1016 820/820
f 1017/1017 1007/1007 820/820
f 856/856 1008/1008 1018/1018
f 1018/1018 857/857 856/856
f 1010/1010 1008/1008 856/856
f 999/999 1004/1004 820/820
f 998/998 999/999 822/822
f 989/989 832/832 824/824
f 983/983 979/979 824/824
f 960/960 852/852 842/842
f 958/958 959/959 842/842
f 957/957 842/842 849/849
f 943/943 849/849 778/778
f 937/937 930/930 781/781
f 919/919 924/924 781/781
f 918/918 919/919 783/783
f 909/909 796/796 792/792
f 901/901 907/907 885/885
f 880/880 814/814 810/810
f 878/878 879/879 810/810
f 877/877 810/810 807/807
f 875/875 868/868 861/861
f 858/858 861/861 856/856
f 854/854 779/779 778/778
f 845/845 969/969 836/836
f 839/839 840/840 836/836
f 827/827 994/994 822/822
f 821/821 828/828 820/820
f 816/816 818/818 815/815
f 803/803 889/889 797/797
f 800/800 801/801 797/797
f 785/785 914/914 783/783
f 782/782 788/788 781/781
f 1019/1019 1020/1020 1021/1021
f 1022/1022 1019/1019 1023/1023
f 1024/1024 1025/1025 1026/1026
f 1027/1027 1024/1024 1028/1028
f 1028/1028 1029/1029 1027/1027
f 1027/1027 1029/1029 1022/1022
f 1022/1022 1030/1030 1027/1027
f 1031/1031 1026/1026 1025/1025
f 1032/1032 1031/1031 1033/1033
f 1034/1034 1035/1035 1036/1036
f 1037/1037 1038/1038 1039/1039
f 1039/1039 1034/1034 1037/1037
f 1039/1039 1038/1038 1032/1032
f 1032/1032 1040/1040 1039/1039
f 1041/1041 1036/1036 1035/1035
f 1042/1042 1041/1041 1043/1043
f 1044/1044 1042/1042 1045/1045
f 1046/1046 1044/1044 1047/1047
f 1048/1048 1049/1049 1050/1050
f 1051/1051 1048/1048 1052/1052
f 1052/1052 1053/1053 1051/1051
f 1051/1051 1053/1053 1046/1046
f 1046/1046 1054/1054 1051/1051
f 1055/1055 1050/1050 1049/1049
f 1056/1056 1055/1055 1057/1057
f 1058/1058 1059/1059 1060/1060
f 1061/1061 1058/1058 1062/1062
f 1062/1062 1063/1063 1061/1061
f 1061/1061 1063/1063 1056/1056
f 1056/1056 1064/1064 1061/1061
f 1065/1065 1060/1060 1059/1059
f 1020/1020 1065/1065 1066/1066
f 1066/1066 1021/1021 1020/1020
f 1059/1059 1066/1066 1065/1065
f 1060/1060 1062/1062 1058/1058
f 1057/1057 1064/1064 1056/1056
f 1049/1049 1057/1057 1055/1055
f 1050/1050 1052/1052 1048/1048
f 1047/1047 1054/1054 1046/1046
f 1045/1045 1047/1047 1044/1044
f 1043/1043 1045/1045 1042/1042
f 1035/1035 1043/1043 1041/1041
f 1036/1036 1037/1037 1034/1034
f 1033/1033 1040/1040 1032/1032
f 1025/1025 1033/1033 1031/1031
f 1026/1026 1028/1028 1024/1024
f 1023/1023 1030/1030 1022/1022
f 1021/1021 1023/1023 1019/1019

