# https://github.com/mikedh/trimesh
mtllib material.mtl
usemtl 0.901961_0.901961_0.901961_0.000000_0.000000
v 0.22024609 0.01160274 0.02828750
v 0.21938506 0.01177402 0.02828750
v 0.21938506 0.01177402 0.02670000
v 0.22097604 0.01111500 0.02828750
v 0.22024609 0.01160274 0.02670000
v 0.22146377 0.01038505 0.02828750
v 0.22097604 0.01111500 0.02670000
v 0.22163504 0.00952401 0.02828750
v 0.22146377 0.01038505 0.02670000
v 0.22146377 0.00866297 0.02828750
v 0.22163504 0.00952401 0.02670000
v 0.22097602 0.00793302 0.02828750
v 0.22146377 0.00866297 0.02670000
v 0.22024608 0.00744528 0.02828750
v 0.22097602 0.00793302 0.02670000
v 0.21938503 0.00727402 0.02828750
v 0.22024608 0.00744528 0.02670000
v 0.21852399 0.00744529 0.02828750
v 0.21938503 0.00727402 0.02670000
v 0.21779405 0.00793303 0.02828750
v 0.21852399 0.00744529 0.02670000
v 0.21730632 0.00866299 0.02828750
v 0.21779405 0.00793303 0.02670000
v 0.21713504 0.00952403 0.02828750
v 0.21730632 0.00866299 0.02670000
v 0.21730632 0.01038506 0.02828750
v 0.21713504 0.00952403 0.02670000
v 0.21779406 0.01111501 0.02828750
v 0.21730632 0.01038506 0.02670000
v 0.21852401 0.01160275 0.02828750
v 0.21779406 0.01111501 0.02670000
v 0.21852401 0.01160275 0.02670000
v 0.00898991 0.00698429 0.02670000
v 0.00793753 0.00677496 0.02670000
v 0.00793753 0.00677496 0.02828750
v 0.00988208 0.00758041 0.02670000
v 0.00898991 0.00698429 0.02828750
v 0.01047821 0.00847257 0.02670000
v 0.00988208 0.00758041 0.02828750
v 0.01068754 0.00952495 0.02670000
v 0.01047821 0.00847257 0.02828750
v 0.01047822 0.01057733 0.02670000
v 0.01068754 0.00952495 0.02828750
v 0.00988210 0.01146950 0.02670000
v 0.01047822 0.01057733 0.02828750
v 0.00898993 0.01206563 0.02670000
v 0.00988210 0.01146950 0.02828750
v 0.00793756 0.01227496 0.02670000
v 0.00898993 0.01206563 0.02828750
v 0.00688517 0.01206564 0.02670000
v 0.00793756 0.01227496 0.02828750
v 0.00599301 0.01146952 0.02670000
v 0.00688517 0.01206564 0.02828750
v 0.00539688 0.01057736 0.02670000
v 0.00599301 0.01146952 0.02828750
v 0.00518754 0.00952498 0.02670000
v 0.00539688 0.01057736 0.02828750
v 0.00539687 0.00847260 0.02670000
v 0.00518754 0.00952498 0.02828750
v 0.00599299 0.00758043 0.02670000
v 0.00539687 0.00847260 0.02828750
v 0.00688515 0.00698430 0.02670000
v 0.00599299 0.00758043 0.02828750
v 0.00688515 0.00698430 0.02828750
v 0.02486491 0.00698422 0.02670000
v 0.02381253 0.00677489 0.02670000
v 0.02381253 0.00677489 0.02828750
v 0.02575708 0.00758034 0.02670000
v 0.02486491 0.00698422 0.02828750
v 0.02635321 0.00847250 0.02670000
v 0.02575708 0.00758034 0.02828750
v 0.02656254 0.00952488 0.02670000
v 0.02635321 0.00847250 0.02828750
v 0.02635322 0.01057726 0.02670000
v 0.02656254 0.00952488 0.02828750
v 0.02575709 0.01146943 0.02670000
v 0.02635322 0.01057726 0.02828750
v 0.02486493 0.01206556 0.02670000
v 0.02575709 0.01146943 0.02828750
v 0.02381255 0.01227489 0.02670000
v 0.02486493 0.01206556 0.02828750
v 0.02276018 0.01206557 0.02670000
v 0.02381255 0.01227489 0.02828750
v 0.02186801 0.01146945 0.02670000
v 0.02276018 0.01206557 0.02828750
v 0.02127188 0.01057728 0.02670000
v 0.02186801 0.01146945 0.02828750
v 0.02106254 0.00952491 0.02670000
v 0.02127188 0.01057728 0.02828750
v 0.02127187 0.00847253 0.02670000
v 0.02106254 0.00952491 0.02828750
v 0.02186799 0.00758036 0.02670000
v 0.02127187 0.00847253 0.02828750
v 0.02276015 0.00698423 0.02670000
v 0.02186799 0.00758036 0.02828750
v 0.02276015 0.00698423 0.02828750
v 0.21730632 0.01038506 0.02828750
v 0.00000009 0.01905000 0.02828750
v 0.02381255 0.01227489 0.02828750
v 0.00793756 0.01227496 0.02828750
v 0.00898993 0.01206563 0.02828750
v 0.02127187 0.00847253 0.02828750
v 0.02106254 0.00952491 0.02828750
v 0.01068754 0.00952495 0.02828750
v 0.01047822 0.01057733 0.02828750
v 0.02127188 0.01057728 0.02828750
v 0.02486493 0.01206556 0.02828750
v 0.11999999 -0.00158804 0.02828750
v 0.22539999 -0.00158851 0.02828750
v 0.21852399 0.00744529 0.02828750
v 0.01047821 0.00847257 0.02828750
v 0.00988208 0.00758041 0.02828750
v 0.02276015 0.00698423 0.02828750
v 0.02186799 0.00758036 0.02828750
v 0.02186801 0.01146945 0.02828750
v 0.00988210 0.01146950 0.02828750
v 0.02575709 0.01146943 0.02828750
v 0.02635322 0.01057726 0.02828750
v 0.00599301 0.01146952 0.02828750
v 0.00688517 0.01206564 0.02828750
v 0.21713504 0.00952403 0.02828750
v 0.02656254 0.00952488 0.02828750
v 0.21938503 0.00727402 0.02828750
v -0.00000001 -0.00158750 0.02828750
v 0.02381253 0.00677489 0.02828750
v 0.00898991 0.00698429 0.02828750
v 0.00539687 0.00847260 0.02828750
v 0.00518754 0.00952498 0.02828750
v 0.02635321 0.00847250 0.02828750
v 0.21779405 0.00793303 0.02828750
v 0.02276018 0.01206557 0.02828750
v 0.00539688 0.01057736 0.02828750
v 0.00599299 0.00758043 0.02828750
v 0.22097602 0.00793302 0.02828750
v 0.22024608 0.00744528 0.02828750
v 0.02486491 0.00698422 0.02828750
v 0.21730632 0.00866299 0.02828750
v 0.00793753 0.00677496 0.02828750
v 0.00688515 0.00698430 0.02828750
v 0.22146377 0.00866297 0.02828750
v 0.22540009 0.01904899 0.02828750
v 0.22163504 0.00952401 0.02828750
v 0.02575708 0.00758034 0.02828750
v 0.22146377 0.01038505 0.02828750
v 0.22097604 0.01111500 0.02828750
v 0.21779406 0.01111501 0.02828750
v 0.21852401 0.01160275 0.02828750
v 0.22024609 0.01160274 0.02828750
v 0.21938506 0.01177402 0.02828750
v 0.22540000 -0.00000101 0.02670000
v 0.12000000 -0.00000054 0.02670000
v 0.21852399 0.00744529 0.02670000
v 0.21938503 0.00727402 0.02670000
v 0.21779405 0.00793303 0.02670000
v 0.00000000 -0.00000000 0.02670000
v 0.02381253 0.00677489 0.02670000
v 0.02127187 0.00847253 0.02670000
v 0.00898991 0.00698429 0.02670000
v 0.22024608 0.00744528 0.02670000
v 0.02486491 0.00698422 0.02670000
v 0.00793753 0.00677496 0.02670000
v 0.00000009 0.01905000 0.02670000
v 0.00518754 0.00952498 0.02670000
v 0.01047822 0.01057733 0.02670000
v 0.02186801 0.01146945 0.02670000
v 0.02127188 0.01057728 0.02670000
v 0.21730632 0.00866299 0.02670000
v 0.02276015 0.00698423 0.02670000
v 0.02186799 0.00758036 0.02670000
v 0.02106254 0.00952491 0.02670000
v 0.00599299 0.00758043 0.02670000
v 0.00688515 0.00698430 0.02670000
v 0.00539687 0.00847260 0.02670000
v 0.01068754 0.00952495 0.02670000
v 0.22097602 0.00793302 0.02670000
v 0.02656254 0.00952488 0.02670000
v 0.21852401 0.01160275 0.02670000
v 0.00539688 0.01057736 0.02670000
v 0.02381255 0.01227489 0.02670000
v 0.00898993 0.01206563 0.02670000
v 0.00988210 0.01146950 0.02670000
v 0.02276018 0.01206557 0.02670000
v 0.22146377 0.00866297 0.02670000
v 0.02635322 0.01057726 0.02670000
v 0.22540009 0.01904899 0.02670000
v 0.02575708 0.00758034 0.02670000
v 0.02635321 0.00847250 0.02670000
v 0.00599301 0.01146952 0.02670000
v 0.00793756 0.01227496 0.02670000
v 0.00688517 0.01206564 0.02670000
v 0.00988208 0.00758041 0.02670000
v 0.01047821 0.00847257 0.02670000
v 0.22163504 0.00952401 0.02670000
v 0.21713504 0.00952403 0.02670000
v 0.02575709 0.01146943 0.02670000
v 0.02486493 0.01206556 0.02670000
v 0.21938506 0.01177402 0.02670000
v 0.22146377 0.01038505 0.02670000
v 0.21730632 0.01038506 0.02670000
v 0.21779406 0.01111501 0.02670000
v 0.22097604 0.01111500 0.02670000
v 0.22024609 0.01160274 0.02670000
v 0.22024609 0.01160274 0.00130000
v 0.21938506 0.01177402 0.00130000
v 0.21938506 0.01177402 -0.00028750
v 0.22097604 0.01111500 0.00130000
v 0.22024609 0.01160274 -0.00028750
v 0.22146377 0.01038505 0.00130000
v 0.22097604 0.01111500 -0.00028750
v 0.22163504 0.00952401 0.00130000
v 0.22146377 0.01038505 -0.00028750
v 0.22146377 0.00866297 0.00130000
v 0.22163504 0.00952401 -0.00028750
v 0.22097602 0.00793302 0.00130000
v 0.22146377 0.00866297 -0.00028750
v 0.22024608 0.00744528 0.00130000
v 0.22097602 0.00793302 -0.00028750
v 0.21938503 0.00727402 0.00130000
v 0.22024608 0.00744528 -0.00028750
v 0.21852399 0.00744529 0.00130000
v 0.21938503 0.00727402 -0.00028750
v 0.21779405 0.00793303 0.00130000
v 0.21852399 0.00744529 -0.00028750
v 0.21730632 0.00866299 0.00130000
v 0.21779405 0.00793303 -0.00028750
v 0.21713504 0.00952403 0.00130000
v 0.21730632 0.00866299 -0.00028750
v 0.21730632 0.01038506 0.00130000
v 0.21713504 0.00952403 -0.00028750
v 0.21779406 0.01111501 0.00130000
v 0.21730632 0.01038506 -0.00028750
v 0.21852401 0.01160275 0.00130000
v 0.21779406 0.01111501 -0.00028750
v 0.21852401 0.01160275 -0.00028750
v 0.00898991 0.00698429 -0.00028750
v 0.00793753 0.00677496 -0.00028750
v 0.00793753 0.00677496 0.00130000
v 0.00988208 0.00758041 -0.00028750
v 0.00898991 0.00698429 0.00130000
v 0.01047821 0.00847257 -0.00028750
v 0.00988208 0.00758041 0.00130000
v 0.01068754 0.00952495 -0.00028750
v 0.01047821 0.00847257 0.00130000
v 0.01047822 0.01057733 -0.00028750
v 0.01068754 0.00952495 0.00130000
v 0.00988210 0.01146950 -0.00028750
v 0.01047822 0.01057733 0.00130000
v 0.00898993 0.01206563 -0.00028750
v 0.00988210 0.01146950 0.00130000
v 0.00793756 0.01227496 -0.00028750
v 0.00898993 0.01206563 0.00130000
v 0.00688517 0.01206564 -0.00028750
v 0.00793756 0.01227496 0.00130000
v 0.00599301 0.01146952 -0.00028750
v 0.00688517 0.01206564 0.00130000
v 0.00539688 0.01057736 -0.00028750
v 0.00599301 0.01146952 0.00130000
v 0.00518754 0.00952498 -0.00028750
v 0.00539688 0.01057736 0.00130000
v 0.00539687 0.00847260 -0.00028750
v 0.00518754 0.00952498 0.00130000
v 0.00599299 0.00758043 -0.00028750
v 0.00539687 0.00847260 0.00130000
v 0.00688515 0.00698430 -0.00028750
v 0.00599299 0.00758043 0.00130000
v 0.00688515 0.00698430 0.00130000
v 0.02486491 0.00698422 -0.00028750
v 0.02381253 0.00677489 -0.00028750
v 0.02381253 0.00677489 0.00130000
v 0.02575708 0.00758034 -0.00028750
v 0.02486491 0.00698422 0.00130000
v 0.02635321 0.00847250 -0.00028750
v 0.02575708 0.00758034 0.00130000
v 0.02656254 0.00952488 -0.00028750
v 0.02635321 0.00847250 0.00130000
v 0.02635322 0.01057726 -0.00028750
v 0.02656254 0.00952488 0.00130000
v 0.02575709 0.01146943 -0.00028750
v 0.02635322 0.01057726 0.00130000
v 0.02486493 0.01206556 -0.00028750
v 0.02575709 0.01146943 0.00130000
v 0.02381255 0.01227489 -0.00028750
v 0.02486493 0.01206556 0.00130000
v 0.02276018 0.01206557 -0.00028750
v 0.02381255 0.01227489 0.00130000
v 0.02186801 0.01146945 -0.00028750
v 0.02276018 0.01206557 0.00130000
v 0.02127188 0.01057728 -0.00028750
v 0.02186801 0.01146945 0.00130000
v 0.02106254 0.00952491 -0.00028750
v 0.02127188 0.01057728 0.00130000
v 0.02127187 0.00847253 -0.00028750
v 0.02106254 0.00952491 0.00130000
v 0.02186799 0.00758036 -0.00028750
v 0.02127187 0.00847253 0.00130000
v 0.02276015 0.00698423 -0.00028750
v 0.02186799 0.00758036 0.00130000
v 0.02276015 0.00698423 0.00130000
v 0.21730632 0.01038506 0.00130000
v 0.00000009 0.01905000 0.00130000
v 0.02381255 0.01227489 0.00130000
v 0.00793756 0.01227496 0.00130000
v 0.00898993 0.01206563 0.00130000
v 0.22540000 -0.00000101 0.00130000
v 0.21938503 0.00727402 0.00130000
v 0.21852399 0.00744529 0.00130000
v 0.00000000 -0.00000000 0.00130000
v 0.00539687 0.00847260 0.00130000
v 0.00518754 0.00952498 0.00130000
v 0.21713504 0.00952403 0.00130000
v 0.02656254 0.00952488 0.00130000
v 0.12000000 -0.00000054 0.00130000
v 0.02486493 0.01206556 0.00130000
v 0.02635321 0.00847250 0.00130000
v 0.21779405 0.00793303 0.00130000
v 0.02575709 0.01146943 0.00130000
v 0.00599301 0.01146952 0.00130000
v 0.00688517 0.01206564 0.00130000
v 0.00599299 0.00758043 0.00130000
v 0.21730632 0.00866299 0.00130000
v 0.02635322 0.01057726 0.00130000
v 0.00539688 0.01057736 0.00130000
v 0.02127187 0.00847253 0.00130000
v 0.02106254 0.00952491 0.00130000
v 0.01068754 0.00952495 0.00130000
v 0.00793753 0.00677496 0.00130000
v 0.00688515 0.00698430 0.00130000
v 0.01047821 0.00847257 0.00130000
v 0.00988210 0.01146950 0.00130000
v 0.02127188 0.01057728 0.00130000
v 0.02186801 0.01146945 0.00130000
v 0.01047822 0.01057733 0.00130000
v 0.02486491 0.00698422 0.00130000
v 0.02381253 0.00677489 0.00130000
v 0.00988208 0.00758041 0.00130000
v 0.02186799 0.00758036 0.00130000
v 0.02276018 0.01206557 0.00130000
v 0.02575708 0.00758034 0.00130000
v 0.00898991 0.00698429 0.00130000
v 0.02276015 0.00698423 0.00130000
v 0.22097602 0.00793302 0.00130000
v 0.22024608 0.00744528 0.00130000
v 0.22146377 0.00866297 0.00130000
v 0.22540009 0.01904899 0.00130000
v 0.22146377 0.01038505 0.00130000
v 0.22163504 0.00952401 0.00130000
v 0.21779406 0.01111501 0.00130000
v 0.21852401 0.01160275 0.00130000
v 0.22097604 0.01111500 0.00130000
v 0.22024609 0.01160274 0.00130000
v 0.21938506 0.01177402 0.00130000
v 0.22539999 -0.00158851 -0.00028750
v 0.21852399 0.00744529 -0.00028750
v 0.21938503 0.00727402 -0.00028750
v 0.11999999 -0.00158804 -0.00028750
v 0.21779405 0.00793303 -0.00028750
v 0.22024608 0.00744528 -0.00028750
v 0.22097602 0.00793302 -0.00028750
v 0.02127187 0.00847253 -0.00028750
v 0.01047821 0.00847257 -0.00028750
v 0.01068754 0.00952495 -0.00028750
v -0.00000001 -0.00158750 -0.00028750
v 0.00793753 0.00677496 -0.00028750
v 0.00898991 0.00698429 -0.00028750
v 0.00988208 0.00758041 -0.00028750
v 0.02381253 0.00677489 -0.00028750
v 0.00599299 0.00758043 -0.00028750
v 0.00688515 0.00698430 -0.00028750
v 0.00000009 0.01905000 -0.00028750
v 0.00518754 0.00952498 -0.00028750
v 0.22146377 0.00866297 -0.00028750
v 0.22163504 0.00952401 -0.00028750
v 0.21730632 0.00866299 -0.00028750
v 0.21779406 0.01111501 -0.00028750
v 0.02106254 0.00952491 -0.00028750
v 0.00539688 0.01057736 -0.00028750
v 0.02127188 0.01057728 -0.00028750
v 0.22540009 0.01904899 -0.00028750
v 0.21713504 0.00952403 -0.00028750
v 0.02276015 0.00698423 -0.00028750
v 0.02186799 0.00758036 -0.00028750
v 0.00539687 0.00847260 -0.00028750
v 0.00599301 0.01146952 -0.00028750
v 0.01047822 0.01057733 -0.00028750
v 0.02575709 0.01146943 -0.00028750
v 0.02486493 0.01206556 -0.00028750
v 0.02656254 0.00952488 -0.00028750
v 0.02635322 0.01057726 -0.00028750
v 0.02575708 0.00758034 -0.00028750
v 0.02635321 0.00847250 -0.00028750
v 0.02486491 0.00698422 -0.00028750
v 0.21852401 0.01160275 -0.00028750
v 0.02381255 0.01227489 -0.00028750
v 0.00898993 0.01206563 -0.00028750
v 0.00988210 0.01146950 -0.00028750
v 0.02186801 0.01146945 -0.00028750
v 0.02276018 0.01206557 -0.00028750
v 0.21730632 0.01038506 -0.00028750
v 0.00793756 0.01227496 -0.00028750
v 0.00688517 0.01206564 -0.00028750
v 0.22146377 0.01038505 -0.00028750
v 0.22097604 0.01111500 -0.00028750
v 0.21938506 0.01177402 -0.00028750
v 0.22024609 0.01160274 -0.00028750
v 0.22540009 0.01904899 0.02670000
v 0.00000009 0.01905000 0.02670000
v 0.00000009 0.01905000 0.02828750
v 0.22540009 0.01904899 0.02828750
v 0.00000009 0.01905000 0.00130000
v 0.22540009 0.01904899 0.00130000
v 0.22540009 0.01904899 -0.00028750
v 0.00000009 0.01905000 -0.00028750
v -0.00000001 -0.00158750 0.00573125
v -0.00000001 -0.00158750 0.02828750
v 0.00000000 -0.00000000 0.02147500
v 0.00000000 -0.00000000 0.00130000
v -0.00000001 -0.00158750 -0.00028750
v 0.00000009 0.01905000 -0.00028750
v 0.00000000 -0.00000000 0.02670000
v 0.00000009 0.01905000 0.02828750
v 0.00000009 0.01905000 0.02670000
v 0.00000009 0.01905000 0.00130000
v 0.22539999 -0.00158851 0.00573125
v 0.22540000 -0.00000101 0.00130000
v 0.22540000 -0.00000101 0.02147500
v 0.22539999 -0.00158851 0.02828750
v 0.22540009 0.01904899 0.02828750
v 0.22540000 -0.00000101 0.02670000
v 0.22539999 -0.00158851 -0.00028750
v 0.22540009 0.01904899 -0.00028750
v 0.22540009 0.01904899 0.00130000
v 0.22540009 0.01904899 0.02670000
v 0.11999999 -0.00158804 -0.00028750
v 0.22539999 -0.00158851 -0.00028750
v 0.22539999 -0.00158851 0.00573125
v 0.13159098 -0.00158809 0.01559099
v 0.21779400 -0.00158848 0.01559099
v 0.21852395 -0.00158848 0.01607873
v 0.21730627 -0.00158847 0.01486104
v 0.11999999 -0.00158804 0.02828750
v 0.12792127 -0.00158807 0.01486104
v 0.12840900 -0.00158808 0.01559099
v 0.22539999 -0.00158851 0.02828750
v 0.13000000 -0.00158808 0.01625000
v 0.13086103 -0.00158809 0.01607873
v 0.12913896 -0.00158808 0.01607873
v 0.22024603 -0.00158849 0.01607873
v 0.22097598 -0.00158849 0.01559099
v 0.21938500 -0.00158848 0.01625000
v 0.11999999 -0.00158804 0.00573125
v 0.12774999 -0.00158807 0.01400000
v 0.12913896 -0.00158808 0.01192127
v 0.12840900 -0.00158808 0.01240901
v 0.13086103 -0.00158809 0.01192127
v 0.21730627 -0.00158847 0.01313896
v 0.21713500 -0.00158847 0.01400000
v 0.13225000 -0.00158809 0.01400000
v 0.22097598 -0.00158849 0.01240901
v 0.22024603 -0.00158849 0.01192127
v 0.22163500 -0.00158849 0.01400000
v 0.22146372 -0.00158849 0.01313896
v 0.22146372 -0.00158849 0.01486104
v 0.13207872 -0.00158809 0.01486104
v 0.13000000 -0.00158808 0.01175000
v 0.13159098 -0.00158809 0.01240901
v 0.13207872 -0.00158809 0.01313896
v 0.21852395 -0.00158848 0.01192127
v 0.21779400 -0.00158848 0.01240901
v 0.21938500 -0.00158848 0.01175000
v 0.12792127 -0.00158807 0.01313896
v -0.00000001 -0.00158750 -0.00028750
v 0.05057872 -0.00158773 0.01486104
v 0.05074999 -0.00158773 0.01400000
v 0.06925000 -0.00158781 0.01400000
v 0.07150000 -0.00158782 0.01175000
v 0.07063895 -0.00158782 0.01192127
v 0.05009098 -0.00158772 0.01559099
v 0.06942126 -0.00158781 0.01486104
v 0.06990900 -0.00158781 0.01559099
v 0.06990900 -0.00158781 0.01240901
v 0.06942126 -0.00158781 0.01313896
v 0.07150000 -0.00158782 0.01625000
v 0.07236103 -0.00158782 0.01607873
v 0.04936103 -0.00158772 0.01607873
v 0.07063895 -0.00158782 0.01607873
v -0.00000001 -0.00158750 0.02828750
v -0.00000001 -0.00158750 0.00573125
v 0.04624999 -0.00158771 0.01400000
v 0.07309099 -0.00158783 0.01559099
v 0.10840900 -0.00158799 0.01559099
v 0.10913896 -0.00158799 0.01607873
v 0.07357872 -0.00158783 0.01486104
v 0.07374999 -0.00158783 0.01400000
v 0.10774999 -0.00158798 0.01400000
v 0.04849999 -0.00158772 0.01625000
v 0.04642126 -0.00158771 0.01486104
v 0.04690900 -0.00158771 0.01559099
v 0.04642126 -0.00158771 0.01313896
v 0.10792127 -0.00158798 0.01486104
v 0.04763896 -0.00158771 0.01607873
v 0.04763896 -0.00158771 0.01192127
v 0.04690900 -0.00158771 0.01240901
v 0.04936103 -0.00158772 0.01192127
v 0.04849999 -0.00158772 0.01175000
v 0.05057872 -0.00158773 0.01313896
v 0.07357872 -0.00158783 0.01313896
v 0.10999999 -0.00158799 0.01175000
v 0.11086103 -0.00158800 0.01607873
v 0.11159098 -0.00158800 0.01559099
v 0.10999999 -0.00158799 0.01625000
v 0.10792127 -0.00158798 0.01313896
v 0.07236103 -0.00158782 0.01192127
v 0.11086103 -0.00158800 0.01192127
v 0.11207872 -0.00158800 0.01486104
v 0.11224999 -0.00158800 0.01400000
v 0.05009098 -0.00158772 0.01240901
v 0.11207872 -0.00158800 0.01313896
v 0.11159098 -0.00158800 0.01240901
v 0.10840900 -0.00158799 0.01240901
v 0.07309099 -0.00158783 0.01240901
v 0.10913896 -0.00158799 0.01192127
v 0.13086103 -0.00158809 0.01607873
v 0.13000000 -0.00158808 0.01625000
v 0.13000000 -0.00000058 0.01625000
v 0.13159098 -0.00158809 0.01559099
v 0.13086104 -0.00000059 0.01607873
v 0.13207872 -0.00158809 0.01486104
v 0.13159099 -0.00000059 0.01559099
v 0.13225000 -0.00158809 0.01400000
v 0.13207872 -0.00000059 0.01486104
v 0.13207872 -0.00158809 0.01313896
v 0.13225000 -0.00000059 0.01400000
v 0.13159098 -0.00158809 0.01240901
v 0.13207872 -0.00000059 0.01313896
v 0.13086103 -0.00158809 0.01192127
v 0.13159099 -0.00000059 0.01240901
v 0.13000000 -0.00158808 0.01175000
v 0.13086104 -0.00000059 0.01192127
v 0.12913896 -0.00158808 0.01192127
v 0.13000000 -0.00000058 0.01175000
v 0.12840900 -0.00158808 0.01240901
v 0.12913896 -0.00000058 0.01192127
v 0.12792127 -0.00158807 0.01313896
v 0.12840901 -0.00000058 0.01240901
v 0.12774999 -0.00158807 0.01400000
v 0.12792127 -0.00000057 0.01313896
v 0.12792127 -0.00158807 0.01486104
v 0.12774999 -0.00000057 0.01400000
v 0.12840900 -0.00158808 0.01559099
v 0.12792127 -0.00000057 0.01486104
v 0.12913896 -0.00158808 0.01607873
v 0.12840901 -0.00000058 0.01559099
v 0.12913896 -0.00000058 0.01607873
v 0.11086103 -0.00158800 0.01607873
v 0.10999999 -0.00158799 0.01625000
v 0.11000000 -0.00000049 0.01625000
v 0.11159098 -0.00158800 0.01559099
v 0.11086104 -0.00000050 0.01607873
v 0.11207872 -0.00158800 0.01486104
v 0.11159099 -0.00000050 0.01559099
v 0.11224999 -0.00158800 0.01400000
v 0.11207873 -0.00000050 0.01486104
v 0.11207872 -0.00158800 0.01313896
v 0.11225000 -0.00000050 0.01400000
v 0.11159098 -0.00158800 0.01240901
v 0.11207873 -0.00000050 0.01313896
v 0.11086103 -0.00158800 0.01192127
v 0.11159099 -0.00000050 0.01240901
v 0.10999999 -0.00158799 0.01175000
v 0.11086104 -0.00000050 0.01192127
v 0.10913896 -0.00158799 0.01192127
v 0.11000000 -0.00000049 0.01175000
v 0.10840900 -0.00158799 0.01240901
v 0.10913897 -0.00000049 0.01192127
v 0.10792127 -0.00158798 0.01313896
v 0.10840901 -0.00000049 0.01240901
v 0.10774999 -0.00158798 0.01400000
v 0.10792127 -0.00000048 0.01313896
v 0.10792127 -0.00158798 0.01486104
v 0.10775000 -0.00000048 0.01400000
v 0.10840900 -0.00158799 0.01559099
v 0.10792127 -0.00000048 0.01486104
v 0.10913896 -0.00158799 0.01607873
v 0.10840901 -0.00000049 0.01559099
v 0.10913897 -0.00000049 0.01607873
v 0.22024603 -0.00158849 0.01607873
v 0.21938500 -0.00158848 0.01625000
v 0.21938500 -0.00000098 0.01625000
v 0.22097598 -0.00158849 0.01559099
v 0.22024603 -0.00000099 0.01607873
v 0.22146372 -0.00158849 0.01486104
v 0.22097600 -0.00000099 0.01559099
v 0.22163500 -0.00158849 0.01400000
v 0.22146372 -0.00000099 0.01486104
v 0.22146372 -0.00158849 0.01313896
v 0.22163500 -0.00000099 0.01400000
v 0.22097598 -0.00158849 0.01240901
v 0.22146372 -0.00000099 0.01313896
v 0.22024603 -0.00158849 0.01192127
v 0.22097600 -0.00000099 0.01240901
v 0.21938500 -0.00158848 0.01175000
v 0.22024603 -0.00000099 0.01192127
v 0.21852395 -0.00158848 0.01192127
v 0.21938500 -0.00000098 0.01175000
v 0.21779400 -0.00158848 0.01240901
v 0.21852396 -0.00000098 0.01192127
v 0.21730627 -0.00158847 0.01313896
v 0.21779402 -0.00000098 0.01240901
v 0.21713500 -0.00158847 0.01400000
v 0.21730627 -0.00000097 0.01313896
v 0.21730627 -0.00158847 0.01486104
v 0.21713500 -0.00000097 0.01400000
v 0.21779400 -0.00158848 0.01559099
v 0.21730627 -0.00000097 0.01486104
v 0.21852395 -0.00158848 0.01607873
v 0.21779402 -0.00000098 0.01559099
v 0.21852396 -0.00000098 0.01607873
v 0.04936104 -0.00000022 0.01192127
v 0.04850000 -0.00000022 0.01175000
v 0.04849999 -0.00158772 0.01175000
v 0.05009099 -0.00000022 0.01240901
v 0.04936103 -0.00158772 0.01192127
v 0.05057873 -0.00000023 0.01313896
v 0.05009098 -0.00158772 0.01240901
v 0.05075000 -0.00000023 0.01400000
v 0.05057872 -0.00158773 0.01313896
v 0.05057873 -0.00000023 0.01486104
v 0.05074999 -0.00158773 0.01400000
v 0.05009099 -0.00000022 0.01559099
v 0.05057872 -0.00158773 0.01486104
v 0.04936104 -0.00000022 0.01607873
v 0.05009098 -0.00158772 0.01559099
v 0.04850000 -0.00000022 0.01625000
v 0.04936103 -0.00158772 0.01607873
v 0.04763896 -0.00000021 0.01607873
v 0.04849999 -0.00158772 0.01625000
v 0.04690901 -0.00000021 0.01559099
v 0.04763896 -0.00158771 0.01607873
v 0.04642127 -0.00000021 0.01486104
v 0.04690900 -0.00158771 0.01559099
v 0.04625000 -0.00000021 0.01400000
v 0.04642126 -0.00158771 0.01486104
v 0.04642127 -0.00000021 0.01313896
v 0.04624999 -0.00158771 0.01400000
v 0.04690901 -0.00000021 0.01240901
v 0.04642126 -0.00158771 0.01313896
v 0.04763896 -0.00000021 0.01192127
v 0.04690900 -0.00158771 0.01240901
v 0.04763896 -0.00158771 0.01192127
v 0.12000000 -0.00000054 0.02670000
v 0.22540000 -0.00000101 0.02670000
v 0.22540000 -0.00000101 0.02147500
v 0.12000000 -0.00000054 0.02147500
v 0.13086104 -0.00000059 0.01607873
v 0.13207872 -0.00000059 0.01486104
v 0.21938500 -0.00000098 0.01625000
v 0.22146372 -0.00000099 0.01486104
v 0.22097600 -0.00000099 0.01559099
v 0.13159099 -0.00000059 0.01559099
v 0.22024603 -0.00000099 0.01607873
v 0.22163500 -0.00000099 0.01400000
v 0.22540000 -0.00000101 0.00130000
v 0.22146372 -0.00000099 0.01313896
v 0.12913896 -0.00000058 0.01607873
v 0.12840901 -0.00000058 0.01559099
v 0.13000000 -0.00000058 0.01625000
v 0.13225000 -0.00000059 0.01400000
v 0.21730627 -0.00000097 0.01313896
v 0.12000000 -0.00000054 0.00130000
v 0.13000000 -0.00000058 0.01175000
v 0.12792127 -0.00000057 0.01486104
v 0.22097600 -0.00000099 0.01240901
v 0.21938500 -0.00000098 0.01175000
v 0.22024603 -0.00000099 0.01192127
v 0.13086104 -0.00000059 0.01192127
v 0.21852396 -0.00000098 0.01607873
v 0.12913896 -0.00000058 0.01192127
v 0.13159099 -0.00000059 0.01240901
v 0.13207872 -0.00000059 0.01313896
v 0.21713500 -0.00000097 0.01400000
v 0.21779402 -0.00000098 0.01559099
v 0.12840901 -0.00000058 0.01240901
v 0.21852396 -0.00000098 0.01192127
v 0.21730627 -0.00000097 0.01486104
v 0.21779402 -0.00000098 0.01240901
v 0.12792127 -0.00000057 0.01313896
v 0.12774999 -0.00000057 0.01400000
v 0.00000000 -0.00000000 0.02670000
v 0.05057873 -0.00000023 0.01486104
v 0.07150000 -0.00000032 0.01625000
v 0.07063896 -0.00000032 0.01607873
v 0.05009099 -0.00000022 0.01240901
v 0.05057873 -0.00000023 0.01313896
v 0.07357873 -0.00000033 0.01486104
v 0.11000000 -0.00000049 0.01625000
v 0.05075000 -0.00000023 0.01400000
v 0.04936104 -0.00000022 0.01192127
v 0.11086104 -0.00000050 0.01607873
v 0.06942127 -0.00000031 0.01313896
v 0.00000000 -0.00000000 0.00130000
v 0.04850000 -0.00000022 0.01175000
v 0.07375000 -0.00000033 0.01400000
v 0.07309099 -0.00000033 0.01240901
v 0.07357873 -0.00000033 0.01313896
v 0.07063896 -0.00000032 0.01192127
v 0.07150000 -0.00000032 0.01175000
v 0.06990901 -0.00000031 0.01240901
v 0.04763896 -0.00000021 0.01192127
v 0.04936104 -0.00000022 0.01607873
v 0.04850000 -0.00000022 0.01625000
v 0.05009099 -0.00000022 0.01559099
v 0.07309099 -0.00000033 0.01559099
v 0.07236104 -0.00000032 0.01607873
v 0.11207873 -0.00000050 0.01486104
v 0.11159099 -0.00000050 0.01559099
v 0.11207873 -0.00000050 0.01313896
v 0.11225000 -0.00000050 0.01400000
v 0.11086104 -0.00000050 0.01192127
v 0.11159099 -0.00000050 0.01240901
v 0.10913897 -0.00000049 0.01192127
v 0.10792127 -0.00000048 0.01313896
v 0.06925000 -0.00000031 0.01400000
v 0.04642127 -0.00000021 0.01313896
v 0.04690901 -0.00000021 0.01240901
v 0.00000000 -0.00000000 0.02147500
v 0.11000000 -0.00000049 0.01175000
v 0.10840901 -0.00000049 0.01240901
v 0.10775000 -0.00000048 0.01400000
v 0.07236104 -0.00000032 0.01192127
v 0.04763896 -0.00000021 0.01607873
v 0.04690901 -0.00000021 0.01559099
v 0.04625000 -0.00000021 0.01400000
v 0.10792127 -0.00000048 0.01486104
v 0.06990901 -0.00000031 0.01559099
v 0.10840901 -0.00000049 0.01559099
v 0.10913897 -0.00000049 0.01607873
v 0.04642127 -0.00000021 0.01486104
v 0.06942127 -0.00000031 0.01486104
v 0.07236104 -0.00000032 0.01192127
v 0.07150000 -0.00000032 0.01175000
v 0.07150000 -0.00158782 0.01175000
v 0.07309099 -0.00000033 0.01240901
v 0.07236103 -0.00158782 0.01192127
v 0.07357873 -0.00000033 0.01313896
v 0.07309099 -0.00158783 0.01240901
v 0.07375000 -0.00000033 0.01400000
v 0.07357872 -0.00158783 0.01313896
v 0.07357873 -0.00000033 0.01486104
v 0.07374999 -0.00158783 0.01400000
v 0.07309099 -0.00000033 0.01559099
v 0.07357872 -0.00158783 0.01486104
v 0.07236104 -0.00000032 0.01607873
v 0.07309099 -0.00158783 0.01559099
v 0.07150000 -0.00000032 0.01625000
v 0.07236103 -0.00158782 0.01607873
v 0.07063896 -0.00000032 0.01607873
v 0.07150000 -0.00158782 0.01625000
v 0.06990901 -0.00000031 0.01559099
v 0.07063895 -0.00158782 0.01607873
v 0.06942127 -0.00000031 0.01486104
v 0.06990900 -0.00158781 0.01559099
v 0.06925000 -0.00000031 0.01400000
v 0.06942126 -0.00158781 0.01486104
v 0.06942127 -0.00000031 0.01313896
v 0.06925000 -0.00158781 0.01400000
v 0.06990901 -0.00000031 0.01240901
v 0.06942126 -0.00158781 0.01313896
v 0.07063896 -0.00000032 0.01192127
v 0.06990900 -0.00158781 0.01240901
v 0.07063895 -0.00158782 0.01192127
vt 0.50000000 0.50000000
vt 0.50000000 0.50000000
vt 0.50000000 0.50000000
vt 0.50000000 0.50000000
vt 0.50000000 0.50000000
vt 0.50000000 0.50000000
vt 0.50000000 0.50000000
vt 0.50000000 0.50000000
vt 0.50000000 0.50000000
vt 0.50000000 0.50000000
vt 0.50000000 0.50000000
vt 0.50000000 0.50000000
vt 0.50000000 0.50000000
vt 0.50000000 0.50000000
vt 0.50000000 0.50000000
vt 0.50000000 0.50000000
vt 0.50000000 0.50000000
vt 0.50000000 0.50000000
vt 0.50000000 0.50000000
vt 0.50000000 0.50000000
vt 0.50000000 0.50000000
vt 0.50000000 0.50000000
vt 0.50000000 0.50000000
vt 0.50000000 0.50000000
vt 0.50000000 0.50000000
vt 0.50000000 0.50000000
vt 0.50000000 0.50000000
vt 0.50000000 0.50000000
vt 0.50000000 0.50000000
vt 0.50000000 0.50000000
vt 0.50000000 0.50000000
vt 0.50000000 0.50000000
vt 0.50000000 0.50000000
vt 0.50000000 0.50000000
vt 0.50000000 0.50000000
vt 0.50000000 0.50000000
vt 0.50000000 0.50000000
vt 0.50000000 0.50000000
vt 0.50000000 0.50000000
vt 0.50000000 0.50000000
vt 0.50000000 0.50000000
vt 0.50000000 0.50000000
vt 0.50000000 0.50000000
vt 0.50000000 0.50000000
vt 0.50000000 0.50000000
vt 0.50000000 0.50000000
vt 0.50000000 0.50000000
vt 0.50000000 0.50000000
vt 0.50000000 0.50000000
vt 0.50000000 0.50000000
vt 0.50000000 0.50000000
vt 0.50000000 0.50000000
vt 0.50000000 0.50000000
vt 0.50000000 0.50000000
vt 0.50000000 0.50000000
vt 0.50000000 0.50000000
vt 0.50000000 0.50000000
vt 0.50000000 0.50000000
vt 0.50000000 0.50000000
vt 0.50000000 0.50000000
vt 0.50000000 0.50000000
vt 0.50000000 0.50000000
vt 0.50000000 0.50000000
vt 0.50000000 0.50000000
vt 0.50000000 0.50000000
vt 0.50000000 0.50000000
vt 0.50000000 0.50000000
vt 0.50000000 0.50000000
vt 0.50000000 0.50000000
vt 0.50000000 0.50000000
vt 0.50000000 0.50000000
vt 0.50000000 0.50000000
vt 0.50000000 0.50000000
vt 0.50000000 0.50000000
vt 0.50000000 0.50000000
vt 0.50000000 0.50000000
vt 0.50000000 0.50000000
vt 0.50000000 0.50000000
vt 0.50000000 0.50000000
vt 0.50000000 0.50000000
vt 0.50000000 0.50000000
vt 0.50000000 0.50000000
vt 0.50000000 0.50000000
vt 0.50000000 0.50000000
vt 0.50000000 0.50000000
vt 0.50000000 0.50000000
vt 0.50000000 0.50000000
vt 0.50000000 0.50000000
vt 0.50000000 0.50000000
vt 0.50000000 0.50000000
vt 0.50000000 0.50000000
vt 0.50000000 0.50000000
vt 0.50000000 0.50000000
vt 0.50000000 0.50000000
vt 0.50000000 0.50000000
vt 0.50000000 0.50000000
vt 0.50000000 0.50000000
vt 0.50000000 0.50000000
vt 0.50000000 0.50000000
vt 0.50000000 0.50000000
vt 0.50000000 0.50000000
vt 0.50000000 0.50000000
vt 0.50000000 0.50000000
vt 0.50000000 0.50000000
vt 0.50000000 0.50000000
vt 0.50000000 0.50000000
vt 0.50000000 0.50000000
vt 0.50000000 0.50000000
vt 0.50000000 0.50000000
vt 0.50000000 0.50000000
vt 0.50000000 0.50000000
vt 0.50000000 0.50000000
vt 0.50000000 0.50000000
vt 0.50000000 0.50000000
vt 0.50000000 0.50000000
vt 0.50000000 0.50000000
vt 0.50000000 0.50000000
vt 0.50000000 0.50000000
vt 0.50000000 0.50000000
vt 0.50000000 0.50000000
vt 0.50000000 0.50000000
vt 0.50000000 0.50000000
vt 0.50000000 0.50000000
vt 0.50000000 0.50000000
vt 0.50000000 0.50000000
vt 0.50000000 0.50000000
vt 0.50000000 0.50000000
vt 0.50000000 0.50000000
vt 0.50000000 0.50000000
vt 0.50000000 0.50000000
vt 0.50000000 0.50000000
vt 0.50000000 0.50000000
vt 0.50000000 0.50000000
vt 0.50000000 0.50000000
vt 0.50000000 0.50000000
vt 0.50000000 0.50000000
vt 0.50000000 0.50000000
vt 0.50000000 0.50000000
vt 0.50000000 0.50000000
vt 0.50000000 0.50000000
vt 0.50000000 0.50000000
vt 0.50000000 0.50000000
vt 0.50000000 0.50000000
vt 0.50000000 0.50000000
vt 0.50000000 0.50000000
vt 0.50000000 0.50000000
vt 0.50000000 0.50000000
vt 0.50000000 0.50000000
vt 0.50000000 0.50000000
vt 0.50000000 0.50000000
vt 0.50000000 0.50000000
vt 0.50000000 0.50000000
vt 0.50000000 0.50000000
vt 0.50000000 0.50000000
vt 0.50000000 0.50000000
vt 0.50000000 0.50000000
vt 0.50000000 0.50000000
vt 0.50000000 0.50000000
vt 0.50000000 0.50000000
vt 0.50000000 0.50000000
vt 0.50000000 0.50000000
vt 0.50000000 0.50000000
vt 0.50000000 0.50000000
vt 0.50000000 0.50000000
vt 0.50000000 0.50000000
vt 0.50000000 0.50000000
vt 0.50000000 0.50000000
vt 0.50000000 0.50000000
vt 0.50000000 0.50000000
vt 0.50000000 0.50000000
vt 0.50000000 0.50000000
vt 0.50000000 0.50000000
vt 0.50000000 0.50000000
vt 0.50000000 0.50000000
vt 0.50000000 0.50000000
vt 0.50000000 0.50000000
vt 0.50000000 0.50000000
vt 0.50000000 0.50000000
vt 0.50000000 0.50000000
vt 0.50000000 0.50000000
vt 0.50000000 0.50000000
vt 0.50000000 0.50000000
vt 0.50000000 0.50000000
vt 0.50000000 0.50000000
vt 0.50000000 0.50000000
vt 0.50000000 0.50000000
vt 0.50000000 0.50000000
vt 0.50000000 0.50000000
vt 0.50000000 0.50000000
vt 0.50000000 0.50000000
vt 0.50000000 0.50000000
vt 0.50000000 0.50000000
vt 0.50000000 0.50000000
vt 0.50000000 0.50000000
vt 0.50000000 0.50000000
vt 0.50000000 0.50000000
vt 0.50000000 0.50000000
vt 0.50000000 0.50000000
vt 0.50000000 0.50000000
vt 0.50000000 0.50000000
vt 0.50000000 0.50000000
vt 0.50000000 0.50000000
vt 0.50000000 0.50000000
vt 0.50000000 0.50000000
vt 0.50000000 0.50000000
vt 0.50000000 0.50000000
vt 0.50000000 0.50000000
vt 0.50000000 0.50000000
vt 0.50000000 0.50000000
vt 0.50000000 0.50000000
vt 0.50000000 0.50000000
vt 0.50000000 0.50000000
vt 0.50000000 0.50000000
vt 0.50000000 0.50000000
vt 0.50000000 0.50000000
vt 0.50000000 0.50000000
vt 0.50000000 0.50000000
vt 0.50000000 0.50000000
vt 0.50000000 0.50000000
vt 0.50000000 0.50000000
vt 0.50000000 0.50000000
vt 0.50000000 0.50000000
vt 0.50000000 0.50000000
vt 0.50000000 0.50000000
vt 0.50000000 0.50000000
vt 0.50000000 0.50000000
vt 0.50000000 0.50000000
vt 0.50000000 0.50000000
vt 0.50000000 0.50000000
vt 0.50000000 0.50000000
vt 0.50000000 0.50000000
vt 0.50000000 0.50000000
vt 0.50000000 0.50000000
vt 0.50000000 0.50000000
vt 0.50000000 0.50000000
vt 0.50000000 0.50000000
vt 0.50000000 0.50000000
vt 0.50000000 0.50000000
vt 0.50000000 0.50000000
vt 0.50000000 0.50000000
vt 0.50000000 0.50000000
vt 0.50000000 0.50000000
vt 0.50000000 0.50000000
vt 0.50000000 0.50000000
vt 0.50000000 0.50000000
vt 0.50000000 0.50000000
vt 0.50000000 0.50000000
vt 0.50000000 0.50000000
vt 0.50000000 0.50000000
vt 0.50000000 0.50000000
vt 0.50000000 0.50000000
vt 0.50000000 0.50000000
vt 0.50000000 0.50000000
vt 0.50000000 0.50000000
vt 0.50000000 0.50000000
vt 0.50000000 0.50000000
vt 0.50000000 0.50000000
vt 0.50000000 0.50000000
vt 0.50000000 0.50000000
vt 0.50000000 0.50000000
vt 0.50000000 0.50000000
vt 0.50000000 0.50000000
vt 0.50000000 0.50000000
vt 0.50000000 0.50000000
vt 0.50000000 0.50000000
vt 0.50000000 0.50000000
vt 0.50000000 0.50000000
vt 0.50000000 0.50000000
vt 0.50000000 0.50000000
vt 0.50000000 0.50000000
vt 0.50000000 0.50000000
vt 0.50000000 0.50000000
vt 0.50000000 0.50000000
vt 0.50000000 0.50000000
vt 0.50000000 0.50000000
vt 0.50000000 0.50000000
vt 0.50000000 0.50000000
vt 0.50000000 0.50000000
vt 0.50000000 0.50000000
vt 0.50000000 0.50000000
vt 0.50000000 0.50000000
vt 0.50000000 0.50000000
vt 0.50000000 0.50000000
vt 0.50000000 0.50000000
vt 0.50000000 0.50000000
vt 0.50000000 0.50000000
vt 0.50000000 0.50000000
vt 0.50000000 0.50000000
vt 0.50000000 0.50000000
vt 0.50000000 0.50000000
vt 0.50000000 0.50000000
vt 0.50000000 0.50000000
vt 0.50000000 0.50000000
vt 0.50000000 0.50000000
vt 0.50000000 0.50000000
vt 0.50000000 0.50000000
vt 0.50000000 0.50000000
vt 0.50000000 0.50000000
vt 0.50000000 0.50000000
vt 0.50000000 0.50000000
vt 0.50000000 0.50000000
vt 0.50000000 0.50000000
vt 0.50000000 0.50000000
vt 0.50000000 0.50000000
vt 0.50000000 0.50000000
vt 0.50000000 0.50000000
vt 0.50000000 0.50000000
vt 0.50000000 0.50000000
vt 0.50000000 0.50000000
vt 0.50000000 0.50000000
vt 0.50000000 0.50000000
vt 0.50000000 0.50000000
vt 0.50000000 0.50000000
vt 0.50000000 0.50000000
vt 0.50000000 0.50000000
vt 0.50000000 0.50000000
vt 0.50000000 0.50000000
vt 0.50000000 0.50000000
vt 0.50000000 0.50000000
vt 0.50000000 0.50000000
vt 0.50000000 0.50000000
vt 0.50000000 0.50000000
vt 0.50000000 0.50000000
vt 0.50000000 0.50000000
vt 0.50000000 0.50000000
vt 0.50000000 0.50000000
vt 0.50000000 0.50000000
vt 0.50000000 0.50000000
vt 0.50000000 0.50000000
vt 0.50000000 0.50000000
vt 0.50000000 0.50000000
vt 0.50000000 0.50000000
vt 0.50000000 0.50000000
vt 0.50000000 0.50000000
vt 0.50000000 0.50000000
vt 0.50000000 0.50000000
vt 0.50000000 0.50000000
vt 0.50000000 0.50000000
vt 0.50000000 0.50000000
vt 0.50000000 0.50000000
vt 0.50000000 0.50000000
vt 0.50000000 0.50000000
vt 0.50000000 0.50000000
vt 0.50000000 0.50000000
vt 0.50000000 0.50000000
vt 0.50000000 0.50000000
vt 0.50000000 0.50000000
vt 0.50000000 0.50000000
vt 0.50000000 0.50000000
vt 0.50000000 0.50000000
vt 0.50000000 0.50000000
vt 0.50000000 0.50000000
vt 0.50000000 0.50000000
vt 0.50000000 0.50000000
vt 0.50000000 0.50000000
vt 0.50000000 0.50000000
vt 0.50000000 0.50000000
vt 0.50000000 0.50000000
vt 0.50000000 0.50000000
vt 0.50000000 0.50000000
vt 0.50000000 0.50000000
vt 0.50000000 0.50000000
vt 0.50000000 0.50000000
vt 0.50000000 0.50000000
vt 0.50000000 0.50000000
vt 0.50000000 0.50000000
vt 0.50000000 0.50000000
vt 0.50000000 0.50000000
vt 0.50000000 0.50000000
vt 0.50000000 0.50000000
vt 0.50000000 0.50000000
vt 0.50000000 0.50000000
vt 0.50000000 0.50000000
vt 0.50000000 0.50000000
vt 0.50000000 0.50000000
vt 0.50000000 0.50000000
vt 0.50000000 0.50000000
vt 0.50000000 0.50000000
vt 0.50000000 0.50000000
vt 0.50000000 0.50000000
vt 0.50000000 0.50000000
vt 0.50000000 0.50000000
vt 0.50000000 0.50000000
vt 0.50000000 0.50000000
vt 0.50000000 0.50000000
vt 0.50000000 0.50000000
vt 0.50000000 0.50000000
vt 0.50000000 0.50000000
vt 0.50000000 0.50000000
vt 0.50000000 0.50000000
vt 0.50000000 0.50000000
vt 0.50000000 0.50000000
vt 0.50000000 0.50000000
vt 0.50000000 0.50000000
vt 0.50000000 0.50000000
vt 0.50000000 0.50000000
vt 0.50000000 0.50000000
vt 0.50000000 0.50000000
vt 0.50000000 0.50000000
vt 0.50000000 0.50000000
vt 0.50000000 0.50000000
vt 0.50000000 0.50000000
vt 0.50000000 0.50000000
vt 0.50000000 0.50000000
vt 0.50000000 0.50000000
vt 0.50000000 0.50000000
vt 0.50000000 0.50000000
vt 0.50000000 0.50000000
vt 0.50000000 0.50000000
vt 0.50000000 0.50000000
vt 0.50000000 0.50000000
vt 0.50000000 0.50000000
vt 0.50000000 0.50000000
vt 0.50000000 0.50000000
vt 0.50000000 0.50000000
vt 0.50000000 0.50000000
vt 0.50000000 0.50000000
vt 0.50000000 0.50000000
vt 0.50000000 0.50000000
vt 0.50000000 0.50000000
vt 0.50000000 0.50000000
vt 0.50000000 0.50000000
vt 0.50000000 0.50000000
vt 0.50000000 0.50000000
vt 0.50000000 0.50000000
vt 0.50000000 0.50000000
vt 0.50000000 0.50000000
vt 0.50000000 0.50000000
vt 0.50000000 0.50000000
vt 0.50000000 0.50000000
vt 0.50000000 0.50000000
vt 0.50000000 0.50000000
vt 0.50000000 0.50000000
vt 0.50000000 0.50000000
vt 0.50000000 0.50000000
vt 0.50000000 0.50000000
vt 0.50000000 0.50000000
vt 0.50000000 0.50000000
vt 0.50000000 0.50000000
vt 0.50000000 0.50000000
vt 0.50000000 0.50000000
vt 0.50000000 0.50000000
vt 0.50000000 0.50000000
vt 0.50000000 0.50000000
vt 0.50000000 0.50000000
vt 0.50000000 0.50000000
vt 0.50000000 0.50000000
vt 0.50000000 0.50000000
vt 0.50000000 0.50000000
vt 0.50000000 0.50000000
vt 0.50000000 0.50000000
vt 0.50000000 0.50000000
vt 0.50000000 0.50000000
vt 0.50000000 0.50000000
vt 0.50000000 0.50000000
vt 0.50000000 0.50000000
vt 0.50000000 0.50000000
vt 0.50000000 0.50000000
vt 0.50000000 0.50000000
vt 0.50000000 0.50000000
vt 0.50000000 0.50000000
vt 0.50000000 0.50000000
vt 0.50000000 0.50000000
vt 0.50000000 0.50000000
vt 0.50000000 0.50000000
vt 0.50000000 0.50000000
vt 0.50000000 0.50000000
vt 0.50000000 0.50000000
vt 0.50000000 0.50000000
vt 0.50000000 0.50000000
vt 0.50000000 0.50000000
vt 0.50000000 0.50000000
vt 0.50000000 0.50000000
vt 0.50000000 0.50000000
vt 0.50000000 0.50000000
vt 0.50000000 0.50000000
vt 0.50000000 0.50000000
vt 0.50000000 0.50000000
vt 0.50000000 0.50000000
vt 0.50000000 0.50000000
vt 0.50000000 0.50000000
vt 0.50000000 0.50000000
vt 0.50000000 0.50000000
vt 0.50000000 0.50000000
vt 0.50000000 0.50000000
vt 0.50000000 0.50000000
vt 0.50000000 0.50000000
vt 0.50000000 0.50000000
vt 0.50000000 0.50000000
vt 0.50000000 0.50000000
vt 0.50000000 0.50000000
vt 0.50000000 0.50000000
vt 0.50000000 0.50000000
vt 0.50000000 0.50000000
vt 0.50000000 0.50000000
vt 0.50000000 0.50000000
vt 0.50000000 0.50000000
vt 0.50000000 0.50000000
vt 0.50000000 0.50000000
vt 0.50000000 0.50000000
vt 0.50000000 0.50000000
vt 0.50000000 0.50000000
vt 0.50000000 0.50000000
vt 0.50000000 0.50000000
vt 0.50000000 0.50000000
vt 0.50000000 0.50000000
vt 0.50000000 0.50000000
vt 0.50000000 0.50000000
vt 0.50000000 0.50000000
vt 0.50000000 0.50000000
vt 0.50000000 0.50000000
vt 0.50000000 0.50000000
vt 0.50000000 0.50000000
vt 0.50000000 0.50000000
vt 0.50000000 0.50000000
vt 0.50000000 0.50000000
vt 0.50000000 0.50000000
vt 0.50000000 0.50000000
vt 0.50000000 0.50000000
vt 0.50000000 0.50000000
vt 0.50000000 0.50000000
vt 0.50000000 0.50000000
vt 0.50000000 0.50000000
vt 0.50000000 0.50000000
vt 0.50000000 0.50000000
vt 0.50000000 0.50000000
vt 0.50000000 0.50000000
vt 0.50000000 0.50000000
vt 0.50000000 0.50000000
vt 0.50000000 0.50000000
vt 0.50000000 0.50000000
vt 0.50000000 0.50000000
vt 0.50000000 0.50000000
vt 0.50000000 0.50000000
vt 0.50000000 0.50000000
vt 0.50000000 0.50000000
vt 0.50000000 0.50000000
vt 0.50000000 0.50000000
vt 0.50000000 0.50000000
vt 0.50000000 0.50000000
vt 0.50000000 0.50000000
vt 0.50000000 0.50000000
vt 0.50000000 0.50000000
vt 0.50000000 0.50000000
vt 0.50000000 0.50000000
vt 0.50000000 0.50000000
vt 0.50000000 0.50000000
vt 0.50000000 0.50000000
vt 0.50000000 0.50000000
vt 0.50000000 0.50000000
vt 0.50000000 0.50000000
vt 0.50000000 0.50000000
vt 0.50000000 0.50000000
vt 0.50000000 0.50000000
vt 0.50000000 0.50000000
vt 0.50000000 0.50000000
vt 0.50000000 0.50000000
vt 0.50000000 0.50000000
vt 0.50000000 0.50000000
vt 0.50000000 0.50000000
vt 0.50000000 0.50000000
vt 0.50000000 0.50000000
vt 0.50000000 0.50000000
vt 0.50000000 0.50000000
vt 0.50000000 0.50000000
vt 0.50000000 0.50000000
vt 0.50000000 0.50000000
vt 0.50000000 0.50000000
vt 0.50000000 0.50000000
vt 0.50000000 0.50000000
vt 0.50000000 0.50000000
vt 0.50000000 0.50000000
vt 0.50000000 0.50000000
vt 0.50000000 0.50000000
vt 0.50000000 0.50000000
vt 0.50000000 0.50000000
vt 0.50000000 0.50000000
vt 0.50000000 0.50000000
vt 0.50000000 0.50000000
vt 0.50000000 0.50000000
vt 0.50000000 0.50000000
vt 0.50000000 0.50000000
vt 0.50000000 0.50000000
vt 0.50000000 0.50000000
vt 0.50000000 0.50000000
vt 0.50000000 0.50000000
vt 0.50000000 0.50000000
vt 0.50000000 0.50000000
vt 0.50000000 0.50000000
vt 0.50000000 0.50000000
vt 0.50000000 0.50000000
vt 0.50000000 0.50000000
vt 0.50000000 0.50000000
vt 0.50000000 0.50000000
vt 0.50000000 0.50000000
vt 0.50000000 0.50000000
vt 0.50000000 0.50000000
vt 0.50000000 0.50000000
vt 0.50000000 0.50000000
vt 0.50000000 0.50000000
vt 0.50000000 0.50000000
vt 0.50000000 0.50000000
vt 0.50000000 0.50000000
vt 0.50000000 0.50000000
vt 0.50000000 0.50000000
vt 0.50000000 0.50000000
vt 0.50000000 0.50000000
vt 0.50000000 0.50000000
vt 0.50000000 0.50000000
vt 0.50000000 0.50000000
vt 0.50000000 0.50000000
vt 0.50000000 0.50000000
vt 0.50000000 0.50000000
vt 0.50000000 0.50000000
vt 0.50000000 0.50000000
vt 0.50000000 0.50000000
vt 0.50000000 0.50000000
vt 0.50000000 0.50000000
vt 0.50000000 0.50000000
vt 0.50000000 0.50000000
vt 0.50000000 0.50000000
vt 0.50000000 0.50000000
vt 0.50000000 0.50000000
vt 0.50000000 0.50000000
vt 0.50000000 0.50000000
vt 0.50000000 0.50000000
vt 0.50000000 0.50000000
vt 0.50000000 0.50000000
vt 0.50000000 0.50000000
vt 0.50000000 0.50000000
vt 0.50000000 0.50000000
vt 0.50000000 0.50000000
vt 0.50000000 0.50000000
vt 0.50000000 0.50000000
vt 0.50000000 0.50000000
vt 0.50000000 0.50000000
vt 0.50000000 0.50000000
vt 0.50000000 0.50000000
vt 0.50000000 0.50000000
vt 0.50000000 0.50000000
vt 0.50000000 0.50000000
vt 0.50000000 0.50000000
vt 0.50000000 0.50000000
vt 0.50000000 0.50000000
vt 0.50000000 0.50000000
vt 0.50000000 0.50000000
vt 0.50000000 0.50000000
vt 0.50000000 0.50000000
vt 0.50000000 0.50000000
vt 0.50000000 0.50000000
vt 0.50000000 0.50000000
vt 0.50000000 0.50000000
vt 0.50000000 0.50000000
vt 0.50000000 0.50000000
vt 0.50000000 0.50000000
vt 0.50000000 0.50000000
vt 0.50000000 0.50000000
vt 0.50000000 0.50000000
vt 0.50000000 0.50000000
vt 0.50000000 0.50000000
vt 0.50000000 0.50000000
vt 0.50000000 0.50000000
vt 0.50000000 0.50000000
vt 0.50000000 0.50000000
vt 0.50000000 0.50000000
vt 0.50000000 0.50000000
vt 0.50000000 0.50000000
vt 0.50000000 0.50000000
vt 0.50000000 0.50000000
vt 0.50000000 0.50000000
vt 0.50000000 0.50000000
vt 0.50000000 0.50000000
vt 0.50000000 0.50000000
vt 0.50000000 0.50000000
vt 0.50000000 0.50000000
vt 0.50000000 0.50000000
vt 0.50000000 0.50000000
vt 0.50000000 0.50000000
vt 0.50000000 0.50000000
vt 0.50000000 0.50000000
vt 0.50000000 0.50000000
vt 0.50000000 0.50000000
vt 0.50000000 0.50000000
vt 0.50000000 0.50000000
vt 0.50000000 0.50000000
vt 0.50000000 0.50000000
vt 0.50000000 0.50000000
vt 0.50000000 0.50000000
vt 0.50000000 0.50000000
vt 0.50000000 0.50000000
vt 0.50000000 0.50000000
vt 0.50000000 0.50000000
vt 0.50000000 0.50000000
vt 0.50000000 0.50000000
vt 0.50000000 0.50000000
vt 0.50000000 0.50000000
vt 0.50000000 0.50000000
vt 0.50000000 0.50000000
vt 0.50000000 0.50000000
vt 0.50000000 0.50000000
vt 0.50000000 0.50000000
vt 0.50000000 0.50000000
vt 0.50000000 0.50000000
vt 0.50000000 0.50000000
vt 0.50000000 0.50000000
vt 0.50000000 0.50000000
vt 0.50000000 0.50000000
vt 0.50000000 0.50000000
vt 0.50000000 0.50000000
vt 0.50000000 0.50000000
vt 0.50000000 0.50000000
vt 0.50000000 0.50000000
vt 0.50000000 0.50000000
vt 0.50000000 0.50000000
vt 0.50000000 0.50000000
vt 0.50000000 0.50000000
vt 0.50000000 0.50000000
vt 0.50000000 0.50000000
vt 0.50000000 0.50000000
vt 0.50000000 0.50000000
vt 0.50000000 0.50000000
vt 0.50000000 0.50000000
vt 0.50000000 0.50000000
vt 0.50000000 0.50000000
vt 0.50000000 0.50000000
vt 0.50000000 0.50000000
vt 0.50000000 0.50000000
vt 0.50000000 0.50000000
vt 0.50000000 0.50000000
vt 0.50000000 0.50000000
vt 0.50000000 0.50000000
vt 0.50000000 0.50000000
vt 0.50000000 0.50000000
vt 0.50000000 0.50000000
vt 0.50000000 0.50000000
vt 0.50000000 0.50000000
vt 0.50000000 0.50000000
vt 0.50000000 0.50000000
vt 0.50000000 0.50000000
vt 0.50000000 0.50000000
vt 0.50000000 0.50000000
vt 0.50000000 0.50000000
vt 0.50000000 0.50000000
vt 0.50000000 0.50000000
vt 0.50000000 0.50000000
vt 0.50000000 0.50000000
vt 0.50000000 0.50000000
vt 0.50000000 0.50000000
vt 0.50000000 0.50000000
vt 0.50000000 0.50000000
vt 0.50000000 0.50000000
vt 0.50000000 0.50000000
vt 0.50000000 0.50000000
vt 0.50000000 0.50000000
vt 0.50000000 0.50000000
vt 0.50000000 0.50000000
vt 0.50000000 0.50000000
vt 0.50000000 0.50000000
vt 0.50000000 0.50000000
vt 0.50000000 0.50000000
vt 0.50000000 0.50000000
vt 0.50000000 0.50000000
vt 0.50000000 0.50000000
vt 0.50000000 0.50000000
vt 0.50000000 0.50000000
vt 0.50000000 0.50000000
vt 0.50000000 0.50000000
vt 0.50000000 0.50000000
vt 0.50000000 0.50000000
vt 0.50000000 0.50000000
f 1/1 2/2 3/3
f 4/4 1/1 5/5
f 6/6 4/4 7/7
f 8/8 6/6 9/9
f 10/10 8/8 11/11
f 12/12 10/10 13/13
f 14/14 12/12 15/15
f 16/16 14/14 17/17
f 18/18 16/16 19/19
f 20/20 18/18 21/21
f 22/22 20/20 23/23
f 24/24 22/22 25/25
f 26/26 24/24 27/27
f 28/28 26/26 29/29
f 30/30 28/28 31/31
f 2/2 30/30 32/32
f 32/32 3/3 2/2
f 31/31 32/32 30/30
f 29/29 31/31 28/28
f 27/27 29/29 26/26
f 25/25 27/27 24/24
f 23/23 25/25 22/22
f 21/21 23/23 20/20
f 19/19 21/21 18/18
f 17/17 19/19 16/16
f 15/15 17/17 14/14
f 13/13 15/15 12/12
f 11/11 13/13 10/10
f 9/9 11/11 8/8
f 7/7 9/9 6/6
f 5/5 7/7 4/4
f 3/3 5/5 1/1
f 33/33 34/34 35/35
f 36/36 33/33 37/37
f 38/38 36/36 39/39
f 40/40 38/38 41/41
f 42/42 40/40 43/43
f 44/44 42/42 45/45
f 46/46 44/44 47/47
f 48/48 46/46 49/49
f 50/50 48/48 51/51
f 52/52 50/50 53/53
f 54/54 52/52 55/55
f 56/56 54/54 57/57
f 58/58 56/56 59/59
f 60/60 58/58 61/61
f 62/62 60/60 63/63
f 34/34 62/62 64/64
f 64/64 35/35 34/34
f 63/63 64/64 62/62
f 61/61 63/63 60/60
f 59/59 61/61 58/58
f 57/57 59/59 56/56
f 55/55 57/57 54/54
f 53/53 55/55 52/52
f 51/51 53/53 50/50
f 49/49 51/51 48/48
f 47/47 49/49 46/46
f 45/45 47/47 44/44
f 43/43 45/45 42/42
f 41/41 43/43 40/40
f 39/39 41/41 38/38
f 37/37 39/39 36/36
f 35/35 37/37 33/33
f 65/65 66/66 67/67
f 68/68 65/65 69/69
f 70/70 68/68 71/71
f 72/72 70/70 73/73
f 74/74 72/72 75/75
f 76/76 74/74 77/77
f 78/78 76/76 79/79
f 80/80 78/78 81/81
f 82/82 80/80 83/83
f 84/84 82/82 85/85
f 86/86 84/84 87/87
f 88/88 86/86 89/89
f 90/90 88/88 91/91
f 92/92 90/90 93/93
f 94/94 92/92 95/95
f 66/66 94/94 96/96
f 96/96 67/67 66/66
f 95/95 96/96 94/94
f 93/93 95/95 92/92
f 91/91 93/93 90/90
f 89/89 91/91 88/88
f 87/87 89/89 86/86
f 85/85 87/87 84/84
f 83/83 85/85 82/82
f 81/81 83/83 80/80
f 79/79 81/81 78/78
f 77/77 79/79 76/76
f 75/75 77/77 74/74
f 73/73 75/75 72/72
f 71/71 73/73 70/70
f 69/69 71/71 68/68
f 67/67 69/69 65/65
f 97/97 98/98 99/99
f 98/98 100/100 101/101
f 101/101 99/99 98/98
f 102/102 103/103 104/104
f 105/105 104/104 106/106
f 99/99 107/107 97/97
f 108/108 109/109 110/110
f 104/104 111/111 102/102
f 112/112 113/113 114/114
f 115/115 116/116 105/105
f 97/97 117/117 118/118
f 107/107 117/117 97/97
f 98/98 119/119 120/120
f 121/121 122/122 108/108
f 109/109 123/123 110/110
f 124/124 125/125 126/126
f 111/111 112/112 102/102
f 112/112 125/125 113/113
f 106/106 115/115 105/105
f 118/118 121/121 97/97
f 120/120 100/100 98/98
f 124/124 127/127 128/128
f 122/122 129/129 108/108
f 110/110 130/130 108/108
f 125/125 112/112 126/126
f 114/114 102/102 112/112
f 115/115 131/131 116/116
f 101/101 116/116 99/99
f 98/98 128/128 132/132
f 124/124 133/133 127/127
f 109/109 134/134 135/135
f 108/108 136/136 125/125
f 130/130 137/137 108/108
f 103/103 106/106 104/104
f 118/118 122/122 121/121
f 128/128 98/98 124/124
f 124/124 138/138 139/139
f 109/109 140/140 134/134
f 109/109 141/141 142/142
f 108/108 143/143 136/136
f 108/108 137/137 121/121
f 131/131 99/99 116/116
f 139/139 133/133 124/124
f 142/142 140/140 109/109
f 129/129 143/143 108/108
f 132/132 119/119 98/98
f 141/141 144/144 142/142
f 126/126 138/138 124/124
f 141/141 145/145 144/144
f 98/98 146/146 147/147
f 125/125 124/124 108/108
f 141/141 148/148 145/145
f 97/97 146/146 98/98
f 141/141 149/149 148/148
f 147/147 141/141 98/98
f 147/147 149/149 141/141
f 135/135 123/123 109/109
f 150/150 151/151 152/152
f 152/152 153/153 150/150
f 151/151 154/154 152/152
f 151/151 155/155 156/156
f 157/157 155/155 158/158
f 153/153 159/159 150/150
f 156/156 160/160 151/151
f 155/155 161/161 158/158
f 155/155 162/162 163/163
f 164/164 165/165 166/166
f 151/151 167/167 154/154
f 155/155 168/168 156/156
f 155/155 157/157 169/169
f 158/158 166/166 170/170
f 155/155 171/171 172/172
f 163/163 173/173 155/155
f 166/166 174/174 164/164
f 159/159 175/175 150/150
f 176/176 177/177 151/151
f 169/169 168/168 155/155
f 172/172 161/161 155/155
f 162/162 178/178 163/163
f 162/162 179/179 180/180
f 181/181 182/182 165/165
f 175/175 183/183 150/150
f 184/184 185/185 177/177
f 151/151 186/186 187/187
f 158/158 170/170 157/157
f 162/162 188/188 178/178
f 162/162 189/189 190/190
f 179/179 181/181 180/180
f 181/181 179/179 182/182
f 166/166 191/191 192/192
f 185/185 150/150 193/193
f 151/151 194/194 167/167
f 185/185 195/195 196/196
f 185/185 197/197 177/177
f 160/160 186/186 151/151
f 190/190 188/188 162/162
f 164/164 181/181 165/165
f 166/166 158/158 191/191
f 193/193 198/198 185/185
f 151/151 199/199 194/194
f 196/196 162/162 185/185
f 177/177 176/176 184/184
f 173/173 171/171 155/155
f 192/192 174/174 166/166
f 183/183 193/193 150/150
f 151/151 177/177 200/200
f 184/184 195/195 185/185
f 180/180 189/189 162/162
f 200/200 199/199 151/151
f 151/151 187/187 176/176
f 196/196 179/179 162/162
f 198/198 201/201 185/185
f 201/201 202/202 185/185
f 202/202 197/197 185/185
f 203/203 204/204 205/205
f 206/206 203/203 207/207
f 208/208 206/206 209/209
f 210/210 208/208 211/211
f 212/212 210/210 213/213
f 214/214 212/212 215/215
f 216/216 214/214 217/217
f 218/218 216/216 219/219
f 220/220 218/218 221/221
f 222/222 220/220 223/223
f 224/224 222/222 225/225
f 226/226 224/224 227/227
f 228/228 226/226 229/229
f 230/230 228/228 231/231
f 232/232 230/230 233/233
f 204/204 232/232 234/234
f 234/234 205/205 204/204
f 233/233 234/234 232/232
f 231/231 233/233 230/230
f 229/229 231/231 228/228
f 227/227 229/229 226/226
f 225/225 227/227 224/224
f 223/223 225/225 222/222
f 221/221 223/223 220/220
f 219/219 221/221 218/218
f 217/217 219/219 216/216
f 215/215 217/217 214/214
f 213/213 215/215 212/212
f 211/211 213/213 210/210
f 209/209 211/211 208/208
f 207/207 209/209 206/206
f 205/205 207/207 203/203
f 235/235 236/236 237/237
f 238/238 235/235 239/239
f 240/240 238/238 241/241
f 242/242 240/240 243/243
f 244/244 242/242 245/245
f 246/246 244/244 247/247
f 248/248 246/246 249/249
f 250/250 248/248 251/251
f 252/252 250/250 253/253
f 254/254 252/252 255/255
f 256/256 254/254 257/257
f 258/258 256/256 259/259
f 260/260 258/258 261/261
f 262/262 260/260 263/263
f 264/264 262/262 265/265
f 236/236 264/264 266/266
f 266/266 237/237 236/236
f 265/265 266/266 264/264
f 263/263 265/265 262/262
f 261/261 263/263 260/260
f 259/259 261/261 258/258
f 257/257 259/259 256/256
f 255/255 257/257 254/254
f 253/253 255/255 252/252
f 251/251 253/253 250/250
f 249/249 251/251 248/248
f 247/247 249/249 246/246
f 245/245 247/247 244/244
f 243/243 245/245 242/242
f 241/241 243/243 240/240
f 239/239 241/241 238/238
f 237/237 239/239 235/235
f 267/267 268/268 269/269
f 270/270 267/267 271/271
f 272/272 270/270 273/273
f 274/274 272/272 275/275
f 276/276 274/274 277/277
f 278/278 276/276 279/279
f 280/280 278/278 281/281
f 282/282 280/280 283/283
f 284/284 282/282 285/285
f 286/286 284/284 287/287
f 288/288 286/286 289/289
f 290/290 288/288 291/291
f 292/292 290/290 293/293
f 294/294 292/292 295/295
f 296/296 294/294 297/297
f 268/268 296/296 298/298
f 298/298 269/269 268/268
f 297/297 298/298 296/296
f 295/295 297/297 294/294
f 293/293 295/295 292/292
f 291/291 293/293 290/290
f 289/289 291/291 288/288
f 287/287 289/289 286/286
f 285/285 287/287 284/284
f 283/283 285/285 282/282
f 281/281 283/283 280/280
f 279/279 281/281 278/278
f 277/277 279/279 276/276
f 275/275 277/277 274/274
f 273/273 275/275 272/272
f 271/271 273/273 270/270
f 269/269 271/271 267/267
f 299/299 300/300 301/301
f 300/300 302/302 303/303
f 304/304 305/305 306/306
f 303/303 301/301 300/300
f 307/307 308/308 309/309
f 310/310 311/311 312/312
f 306/306 312/312 304/304
f 301/301 313/313 299/299
f 309/309 300/300 307/307
f 311/311 314/314 312/312
f 306/306 315/315 312/312
f 313/313 316/316 299/299
f 300/300 317/317 318/318
f 307/307 319/319 308/308
f 315/315 320/320 312/312
f 299/299 316/316 321/321
f 318/318 302/302 300/300
f 309/309 322/322 300/300
f 323/323 324/324 325/325
f 312/312 320/320 310/310
f 321/321 310/310 299/299
f 322/322 317/317 300/300
f 307/307 326/326 327/327
f 325/325 328/328 323/323
f 329/329 330/330 331/331
f 330/330 332/332 325/325
f 312/312 333/333 334/334
f 321/321 311/311 310/310
f 327/327 319/319 307/307
f 335/335 336/336 323/323
f 331/331 337/337 329/329
f 330/330 329/329 332/332
f 312/312 338/338 333/333
f 303/303 329/329 301/301
f 307/307 334/334 339/339
f 335/335 340/340 336/336
f 325/325 324/324 330/330
f 314/314 338/338 312/312
f 304/304 341/341 342/342
f 334/334 335/335 339/339
f 335/335 334/334 340/340
f 334/334 307/307 312/312
f 304/304 343/343 341/341
f 344/344 345/345 346/346
f 300/300 347/347 348/348
f 328/328 335/335 323/323
f 337/337 301/301 329/329
f 304/304 346/346 343/343
f 344/344 349/349 345/345
f 348/348 344/344 300/300
f 299/299 347/347 300/300
f 346/346 304/304 344/344
f 339/339 326/326 307/307
f 344/344 350/350 349/349
f 348/348 351/351 344/344
f 351/351 350/350 344/344
f 342/342 305/305 304/304
f 352/352 353/353 354/354
f 355/355 356/356 353/353
f 352/352 357/357 358/358
f 353/353 352/352 355/355
f 359/359 360/360 361/361
f 362/362 363/363 364/364
f 354/354 357/357 352/352
f 355/355 365/365 366/366
f 359/359 365/365 360/360
f 364/364 355/355 362/362
f 362/362 367/367 368/368
f 362/362 369/369 370/370
f 352/352 371/371 372/372
f 355/355 373/373 356/356
f 366/366 374/374 355/355
f 361/361 375/375 359/359
f 368/368 363/363 362/362
f 369/369 376/376 370/370
f 377/377 375/375 361/361
f 372/372 378/378 352/352
f 355/355 379/379 373/373
f 365/365 380/380 366/366
f 359/359 381/381 365/365
f 362/362 382/382 367/367
f 369/369 383/383 376/376
f 361/361 384/384 377/377
f 358/358 371/371 352/352
f 381/381 380/380 365/365
f 370/370 382/382 362/362
f 378/378 385/385 386/386
f 378/378 387/387 388/388
f 378/378 389/389 390/390
f 391/391 378/378 392/392
f 369/369 393/393 394/394
f 395/395 396/396 377/377
f 395/395 393/393 397/397
f 355/355 398/398 379/379
f 364/364 365/365 355/355
f 369/369 399/399 400/400
f 386/386 369/369 378/378
f 390/390 387/387 378/378
f 374/374 366/366 391/391
f 393/393 395/395 394/394
f 397/397 396/396 395/395
f 372/372 401/401 378/378
f 400/400 383/383 369/369
f 388/388 385/385 378/378
f 392/392 374/374 391/391
f 384/384 395/395 377/377
f 374/374 398/398 355/355
f 391/391 389/389 378/378
f 401/401 402/402 378/378
f 378/378 403/403 392/392
f 386/386 393/393 369/369
f 394/394 399/399 369/369
f 402/402 404/404 378/378
f 404/404 403/403 378/378
f 405/405 406/406 407/407
f 407/407 408/408 405/405
f 409/409 410/410 411/411
f 411/411 412/412 409/409
f 413/413 414/414 415/415
f 416/416 417/417 413/413
f 418/418 417/417 416/416
f 414/414 419/419 415/415
f 415/415 416/416 413/413
f 420/420 421/421 419/419
f 419/419 414/414 420/420
f 416/416 422/422 418/418
f 423/423 424/424 425/425
f 425/425 426/426 423/423
f 427/427 426/426 428/428
f 423/423 429/429 424/424
f 425/425 428/428 426/426
f 430/430 431/431 424/424
f 424/424 429/429 430/430
f 428/428 432/432 427/427
f 433/433 434/434 435/435
f 436/436 437/437 438/438
f 436/436 439/439 437/437
f 440/440 441/441 442/442
f 438/438 443/443 436/436
f 440/440 444/444 445/445
f 442/442 446/446 440/440
f 443/443 447/447 448/448
f 438/438 449/449 443/443
f 446/446 444/444 440/440
f 440/440 450/450 451/451
f 450/450 452/452 453/453
f 450/450 435/435 454/454
f 455/455 456/456 457/457
f 435/435 458/458 459/459
f 435/435 460/460 461/461
f 443/443 462/462 460/460
f 449/449 447/447 443/443
f 463/463 457/457 456/456
f 451/451 441/441 440/440
f 450/450 464/464 452/452
f 435/435 465/465 454/454
f 457/457 466/466 455/455
f 465/465 467/467 468/468
f 435/435 469/469 467/467
f 461/461 458/458 435/435
f 448/448 462/462 443/443
f 439/439 436/436 463/463
f 450/450 470/470 451/451
f 454/454 464/464 450/450
f 468/468 455/455 465/465
f 459/459 469/469 435/435
f 456/456 439/439 463/463
f 453/453 470/470 450/450
f 467/467 465/465 435/435
f 443/443 445/445 436/436
f 466/466 465/465 455/455
f 445/445 443/443 440/440
f 471/471 433/433 450/450
f 472/472 473/473 474/474
f 473/473 475/475 476/476
f 477/477 478/478 479/479
f 478/478 477/477 472/472
f 476/476 480/480 473/473
f 474/474 478/478 472/472
f 480/480 481/481 473/473
f 440/440 482/482 483/483
f 484/484 485/485 482/482
f 481/481 474/474 473/473
f 486/486 487/487 488/488
f 489/489 490/490 491/491
f 492/492 493/493 494/494
f 482/482 440/440 484/484
f 485/485 484/484 477/477
f 440/440 486/486 495/495
f 486/486 496/496 497/497
f 487/487 498/498 488/488
f 491/491 440/440 489/489
f 499/499 489/489 492/492
f 479/479 485/485 477/477
f 486/486 500/500 495/495
f 488/488 496/496 486/486
f 487/487 501/501 502/502
f 450/450 503/503 504/504
f 505/505 450/450 475/475
f 506/506 450/450 507/507
f 440/440 508/508 509/509
f 491/491 510/510 440/440
f 493/493 511/511 494/494
f 495/495 484/484 440/440
f 502/502 498/498 487/487
f 504/504 487/487 450/450
f 450/450 512/512 475/475
f 450/450 513/513 507/507
f 440/440 514/514 515/515
f 510/510 508/508 440/440
f 494/494 499/499 492/492
f 497/497 500/500 486/486
f 450/450 516/516 503/503
f 475/475 473/473 505/505
f 507/507 493/493 506/506
f 450/450 517/517 518/518
f 509/509 514/514 440/440
f 493/493 519/519 511/511
f 504/504 501/501 487/487
f 450/450 520/520 512/512
f 518/518 513/513 450/450
f 499/499 490/490 489/489
f 493/493 507/507 521/521
f 505/505 516/516 450/450
f 450/450 515/515 517/517
f 521/521 519/519 493/493
f 506/506 520/520 450/450
f 483/483 489/489 440/440
f 515/515 450/450 440/440
f 450/450 487/487 471/471
f 460/460 435/435 443/443
f 435/435 450/450 433/433
f 522/522 523/523 524/524
f 525/525 522/522 526/526
f 527/527 525/525 528/528
f 529/529 527/527 530/530
f 531/531 529/529 532/532
f 533/533 531/531 534/534
f 535/535 533/533 536/536
f 537/537 535/535 538/538
f 539/539 537/537 540/540
f 541/541 539/539 542/542
f 543/543 541/541 544/544
f 545/545 543/543 546/546
f 547/547 545/545 548/548
f 549/549 547/547 550/550
f 551/551 549/549 552/552
f 523/523 551/551 553/553
f 553/553 524/524 523/523
f 552/552 553/553 551/551
f 550/550 552/552 549/549
f 548/548 550/550 547/547
f 546/546 548/548 545/545
f 544/544 546/546 543/543
f 542/542 544/544 541/541
f 540/540 542/542 539/539
f 538/538 540/540 537/537
f 536/536 538/538 535/535
f 534/534 536/536 533/533
f 532/532 534/534 531/531
f 530/530 532/532 529/529
f 528/528 530/530 527/527
f 526/526 528/528 525/525
f 524/524 526/526 522/522
f 554/554 555/555 556/556
f 557/557 554/554 558/558
f 559/559 557/557 560/560
f 561/561 559/559 562/562
f 563/563 561/561 564/564
f 565/565 563/563 566/566
f 567/567 565/565 568/568
f 569/569 567/567 570/570
f 571/571 569/569 572/572
f 573/573 571/571 574/574
f 575/575 573/573 576/576
f 577/577 575/575 578/578
f 579/579 577/577 580/580
f 581/581 579/579 582/582
f 583/583 581/581 584/584
f 555/555 583/583 585/585
f 585/585 556/556 555/555
f 584/584 585/585 583/583
f 582/582 584/584 581/581
f 580/580 582/582 579/579
f 578/578 580/580 577/577
f 576/576 578/578 575/575
f 574/574 576/576 573/573
f 572/572 574/574 571/571
f 570/570 572/572 569/569
f 568/568 570/570 567/567
f 566/566 568/568 565/565
f 564/564 566/566 563/563
f 562/562 564/564 561/561
f 560/560 562/562 559/559
f 558/558 560/560 557/557
f 556/556 558/558 554/554
f 586/586 587/587 588/588
f 589/589 586/586 590/590
f 591/591 589/589 592/592
f 593/593 591/591 594/594
f 595/595 593/593 596/596
f 597/597 595/595 598/598
f 599/599 597/597 600/600
f 601/601 599/599 602/602
f 603/603 601/601 604/604
f 605/605 603/603 606/606
f 607/607 605/605 608/608
f 609/609 607/607 610/610
f 611/611 609/609 612/612
f 613/613 611/611 614/614
f 615/615 613/613 616/616
f 587/587 615/615 617/617
f 617/617 588/588 587/587
f 616/616 617/617 615/615
f 614/614 616/616 613/613
f 612/612 614/614 611/611
f 610/610 612/612 609/609
f 608/608 610/610 607/607
f 606/606 608/608 605/605
f 604/604 606/606 603/603
f 602/602 604/604 601/601
f 600/600 602/602 599/599
f 598/598 600/600 597/597
f 596/596 598/598 595/595
f 594/594 596/596 593/593
f 592/592 594/594 591/591
f 590/590 592/592 589/589
f 588/588 590/590 586/586
f 618/618 619/619 620/620
f 621/621 618/618 622/622
f 623/623 621/621 624/624
f 625/625 623/623 626/626
f 627/627 625/625 628/628
f 629/629 627/627 630/630
f 631/631 629/629 632/632
f 633/633 631/631 634/634
f 635/635 633/633 636/636
f 637/637 635/635 638/638
f 639/639 637/637 640/640
f 641/641 639/639 642/642
f 643/643 641/641 644/644
f 645/645 643/643 646/646
f 647/647 645/645 648/648
f 619/619 647/647 649/649
f 649/649 620/620 619/619
f 648/648 649/649 647/647
f 646/646 648/648 645/645
f 644/644 646/646 643/643
f 642/642 644/644 641/641
f 640/640 642/642 639/639
f 638/638 640/640 637/637
f 636/636 638/638 635/635
f 634/634 636/636 633/633
f 632/632 634/634 631/631
f 630/630 632/632 629/629
f 628/628 630/630 627/627
f 626/626 628/628 625/625
f 624/624 626/626 623/623
f 622/622 624/624 621/621
f 620/620 622/622 618/618
f 650/650 651/651 652/652
f 653/653 652/652 654/654
f 655/655 652/652 656/656
f 652/652 657/657 658/658
f 652/652 659/659 654/654
f 652/652 660/660 656/656
f 652/652 661/661 657/657
f 662/662 663/663 661/661
f 653/653 664/664 665/665
f 654/654 666/666 653/653
f 656/656 667/667 655/655
f 661/661 652/652 662/662
f 668/668 669/669 670/670
f 665/665 671/671 653/653
f 655/655 659/659 652/652
f 662/662 672/672 663/663
f 662/662 673/673 674/674
f 675/675 656/656 676/676
f 669/669 677/677 670/670
f 666/666 664/664 653/653
f 656/656 678/678 679/679
f 674/674 672/672 662/662
f 680/680 670/670 675/675
f 676/676 681/681 675/675
f 669/669 682/682 677/677
f 679/679 667/667 656/656
f 662/662 683/683 673/673
f 681/681 684/684 675/675
f 669/669 685/685 683/683
f 669/669 686/686 682/682
f 669/669 653/653 687/687
f 658/658 660/660 652/652
f 675/675 684/684 680/680
f 669/669 668/668 685/685
f 687/687 686/686 669/669
f 675/675 678/678 656/656
f 670/670 680/680 668/668
f 683/683 662/662 669/669
f 688/688 650/650 653/653
f 689/689 690/690 691/691
f 689/689 653/653 690/690
f 691/691 692/692 693/693
f 694/694 653/653 695/695
f 691/691 696/696 689/689
f 691/691 697/697 692/692
f 653/653 698/698 695/695
f 699/699 700/700 701/701
f 693/693 696/696 691/691
f 695/695 702/702 694/694
f 695/695 703/703 704/704
f 700/700 705/705 706/706
f 700/700 699/699 707/707
f 700/700 708/708 701/701
f 653/653 709/709 710/710
f 689/689 711/711 653/653
f 653/653 712/712 713/713
f 704/704 702/702 695/695
f 653/653 714/714 715/715
f 669/669 716/716 717/717
f 669/669 718/718 719/719
f 669/669 700/700 720/720
f 706/706 721/721 700/700
f 701/701 722/722 699/699
f 700/700 723/723 724/724
f 710/710 725/725 653/653
f 713/713 690/690 653/653
f 715/715 698/698 653/653
f 717/717 653/653 669/669
f 669/669 726/726 718/718
f 700/700 727/727 720/720
f 706/706 728/728 721/721
f 724/724 708/708 700/700
f 728/728 706/706 729/729
f 725/725 730/730 731/731
f 711/711 709/709 653/653
f 717/717 714/714 653/653
f 720/720 726/726 669/669
f 707/707 705/705 700/700
f 700/700 725/725 732/732
f 729/729 733/733 728/728
f 710/710 730/730 725/725
f 722/722 701/701 697/697
f 697/697 691/691 734/734
f 719/719 716/716 669/669
f 732/732 723/723 700/700
f 703/703 735/735 733/733
f 703/703 695/695 736/736
f 731/731 737/737 725/725
f 734/734 738/738 697/697
f 721/721 727/727 700/700
f 736/736 735/735 703/703
f 697/697 738/738 722/722
f 729/729 703/703 733/733
f 694/694 712/712 653/653
f 737/737 732/732 725/725
f 653/653 725/725 688/688
f 671/671 687/687 653/653
f 652/652 653/653 650/650
f 739/739 740/740 741/741
f 742/742 739/739 743/743
f 744/744 742/742 745/745
f 746/746 744/744 747/747
f 748/748 746/746 749/749
f 750/750 748/748 751/751
f 752/752 750/750 753/753
f 754/754 752/752 755/755
f 756/756 754/754 757/757
f 758/758 756/756 759/759
f 760/760 758/758 761/761
f 762/762 760/760 763/763
f 764/764 762/762 765/765
f 766/766 764/764 767/767
f 768/768 766/766 769/769
f 740/740 768/768 770/770
f 770/770 741/741 740/740
f 769/769 770/770 768/768
f 767/767 769/769 766/766
f 765/765 767/767 764/764
f 763/763 765/765 762/762
f 761/761 763/763 760/760
f 759/759 761/761 758/758
f 757/757 759/759 756/756
f 755/755 757/757 754/754
f 753/753 755/755 752/752
f 751/751 753/753 750/750
f 749/749 751/751 748/748
f 747/747 749/749 746/746
f 745/745 747/747 744/744
f 743/743 745/745 742/742
f 741/741 743/743 739/739

