# https://github.com/mikedh/trimesh
mtllib material.mtl
usemtl material_0
v 0.06100000 -0.00607612 0.00211732
v 0.06100000 -0.00600000 0.00250000
v 0.03900000 -0.00600000 0.00250000
v 0.06100000 -0.00629289 0.00179289
v 0.03900000 -0.00607612 0.00211732
v 0.06100000 -0.00661732 0.00157612
v 0.03900000 -0.00629289 0.00179289
v 0.06100000 -0.00700000 0.00150000
v 0.03900000 -0.00661732 0.00157612
v 0.06100000 -0.00738268 0.00157612
v 0.03900000 -0.00700000 0.00150000
v 0.06100000 -0.00770711 0.00179289
v 0.03900000 -0.00738268 0.00157612
v 0.06100000 -0.00792388 0.00211732
v 0.03900000 -0.00770711 0.00179289
v 0.06100000 -0.00800000 0.00250000
v 0.03900000 -0.00792388 0.00211732
v 0.06100000 -0.00792388 0.00288268
v 0.03900000 -0.00800000 0.00250000
v 0.06100000 -0.00770711 0.00320711
v 0.03900000 -0.00792388 0.00288268
v 0.06100000 -0.00738268 0.00342388
v 0.03900000 -0.00770711 0.00320711
v 0.06100000 -0.00700000 0.00350000
v 0.03900000 -0.00738268 0.00342388
v 0.06100000 -0.00661732 0.00342388
v 0.03900000 -0.00700000 0.00350000
v 0.06100000 -0.00629289 0.00320711
v 0.03900000 -0.00661732 0.00342388
v 0.06100000 -0.00607612 0.00288268
v 0.03900000 -0.00629289 0.00320711
v 0.03900000 -0.00607612 0.00288268
v 0.06100000 -0.00871785 0.00283392
v 0.06100000 -0.00800000 0.00250000
v 0.06100000 -0.00792388 0.00288268
v 0.06100000 -0.00672617 0.00077156
v 0.06100000 -0.00609861 0.00100000
v 0.06100000 -0.00661732 0.00157612
v 0.06100000 -0.00629289 0.00179289
v 0.06100000 -0.00739361 0.00420516
v 0.06100000 -0.00738268 0.00342388
v 0.06100000 -0.00700000 0.00350000
v 0.06100000 -0.00800373 0.00393354
v 0.06100000 -0.00770711 0.00320711
v 0.06100000 -0.00846766 0.00345314
v 0.06100000 -0.00400000 0.00100000
v 0.06100000 -0.00600000 0.00250000
v 0.06100000 -0.00607612 0.00211732
v 0.06100000 -0.00400000 0.00400000
v 0.06100000 -0.00607612 0.00288268
v 0.06100000 -0.00629289 0.00320711
v 0.06100000 -0.00609861 0.00400000
v 0.06100000 -0.00672617 0.00422844
v 0.06100000 -0.00661732 0.00342388
v 0.06100000 -0.00871785 0.00216608
v 0.06100000 -0.00846766 0.00154686
v 0.06100000 -0.00792388 0.00211732
v 0.06100000 -0.00800373 0.00106646
v 0.06100000 -0.00770711 0.00179289
v 0.06100000 -0.00739361 0.00079484
v 0.06100000 -0.00738268 0.00157612
v 0.06100000 -0.00700000 0.00150000
v 0.03900000 -0.00400000 0.00100000
v 0.03900000 -0.00629289 0.00179289
v 0.03900000 -0.00607612 0.00211732
v 0.03900000 -0.00609861 0.00100000
v 0.03900000 -0.00661732 0.00157612
v 0.03900000 -0.00672617 0.00077156
v 0.03900000 -0.00700000 0.00150000
v 0.03900000 -0.00739361 0.00079484
v 0.03900000 -0.00738268 0.00157612
v 0.03900000 -0.00871785 0.00283392
v 0.03900000 -0.00846766 0.00345314
v 0.03900000 -0.00792388 0.00288268
v 0.03900000 -0.00400000 0.00400000
v 0.03900000 -0.00600000 0.00250000
v 0.03900000 -0.00800373 0.00106646
v 0.03900000 -0.00770711 0.00179289
v 0.03900000 -0.00800000 0.00250000
v 0.03900000 -0.00871785 0.00216608
v 0.03900000 -0.00800373 0.00393354
v 0.03900000 -0.00770711 0.00320711
v 0.03900000 -0.00607612 0.00288268
v 0.03900000 -0.00846766 0.00154686
v 0.03900000 -0.00792388 0.00211732
v 0.03900000 -0.00739361 0.00420516
v 0.03900000 -0.00738268 0.00342388
v 0.03900000 -0.00672617 0.00422844
v 0.03900000 -0.00700000 0.00350000
v 0.03900000 -0.00609861 0.00400000
v 0.03900000 -0.00661732 0.00342388
v 0.03900000 -0.00629289 0.00320711
v 0.06100000 -0.00609861 0.00400000
v 0.03900000 -0.00609861 0.00400000
v 0.03900000 -0.00672617 0.00422844
v 0.06100000 -0.00672617 0.00422844
v 0.03900000 -0.00739361 0.00420516
v 0.06100000 -0.00739361 0.00420516
v 0.03900000 -0.00800373 0.00393354
v 0.06100000 -0.00800373 0.00393354
v 0.03900000 -0.00846766 0.00345314
v 0.06100000 -0.00846766 0.00345314
v 0.03900000 -0.00871785 0.00283392
v 0.06100000 -0.00871785 0.00283392
v 0.03900000 -0.00871785 0.00216608
v 0.06100000 -0.00871785 0.00216608
v 0.03900000 -0.00846766 0.00154686
v 0.06100000 -0.00846766 0.00154686
v 0.03900000 -0.00800373 0.00106646
v 0.06100000 -0.00800373 0.00106646
v 0.03900000 -0.00739361 0.00079484
v 0.06100000 -0.00739361 0.00079484
v 0.03900000 -0.00672617 0.00077156
v 0.06100000 -0.00672617 0.00077156
v 0.03900000 -0.00609861 0.00100000
v 0.06100000 -0.00609861 0.00100000
v 0.06100000 -0.00400000 0.00400000
v 0.03900000 -0.00400000 0.00400000
v 0.03900000 -0.00609861 0.00400000
v 0.06100000 -0.00609861 0.00400000
v 0.03900000 -0.00400000 0.00100000
v 0.06100000 -0.00400000 0.00100000
v 0.06100000 -0.00609861 0.00100000
v 0.03900000 -0.00609861 0.00100000
v 0.07250000 -0.00400000 0.00100000
v 0.07132842 -0.00400000 0.00382843
v 0.07003073 -0.00400000 0.00469552
v 0.02750000 -0.00400000 0.00100000
v 0.02996927 -0.00400000 0.00469552
v 0.02867157 -0.00400000 0.00382843
v 0.06100000 -0.00400000 0.00100000
v 0.06850000 -0.00400000 0.00500000
v 0.07219552 -0.00400000 0.00253073
v 0.03150000 -0.00400000 0.00500000
v 0.03900000 -0.00400000 0.00100000
v 0.03900000 -0.00400000 0.00400000
v 0.07250000 -0.00400000 0.00000000
v 0.02780448 -0.00400000 0.00253073
v 0.02750000 -0.00400000 -0.00000000
v 0.06100000 -0.00400000 0.00400000
v 0.07250000 -0.00400000 0.00000000
v 0.07250000 -0.02339589 0.00000000
v 0.07250000 -0.02339589 0.00100000
v 0.07250000 -0.00400000 0.00100000
v 0.07219552 -0.00400000 0.00253073
v 0.07250000 -0.00400000 0.00100000
v 0.07250000 -0.02339589 0.00100000
v 0.07132842 -0.00400000 0.00382843
v 0.07219552 -0.02341442 0.00253073
v 0.07003073 -0.00400000 0.00469552
v 0.07132842 -0.02346561 0.00382843
v 0.06850000 -0.00400000 0.00500000
v 0.07003073 -0.02353784 0.00469552
v 0.06850000 -0.02361629 0.00500000
v 0.03150000 -0.00400000 0.00500000
v 0.06850000 -0.00400000 0.00500000
v 0.05278497 -0.02400000 0.00500000
v 0.04721503 -0.02400000 0.00500000
v 0.06850000 -0.02361629 0.00500000
v 0.03150000 -0.02361629 0.00500000
v 0.07450000 -0.02326696 0.00000000
v 0.07450000 -0.02326696 0.00800000
v 0.07219552 -0.02341442 0.00253073
v 0.07250000 -0.02339589 0.00100000
v 0.07003073 -0.02353784 0.00469552
v 0.07132842 -0.02346561 0.00382843
v 0.07396716 -0.02330253 0.01067878
v 0.06850000 -0.02361629 0.00500000
v 0.07244974 -0.02339897 0.01294975
v 0.05278497 -0.02400000 0.00500000
v 0.06750000 -0.02366359 0.01500000
v 0.07017878 -0.02352987 0.01446716
v 0.05278497 -0.02400000 0.01500000
v 0.07250000 -0.02339589 0.00000000
v 0.02700000 -0.00200000 0.00000000
v 0.07300000 -0.00200000 0.00000000
v 0.07250000 -0.00400000 0.00000000
v 0.02750000 -0.00400000 -0.00000000
v 0.02593934 -0.00243934 0.00000000
v 0.02642597 -0.00211418 0.00000000
v 0.02550000 -0.00350000 0.00000000
v 0.02561418 -0.00292597 0.00000000
v 0.02550000 -0.02326696 0.00000000
v 0.07357402 -0.00211418 0.00000000
v 0.02750000 -0.02339589 -0.00000000
v 0.07450000 -0.02326696 0.00000000
v 0.07250000 -0.02339589 0.00000000
v 0.07406066 -0.00243934 0.00000000
v 0.07438582 -0.00292597 0.00000000
v 0.07450000 -0.00350000 0.00000000
v 0.03150000 -0.00400000 0.00500000
v 0.03150000 -0.02361629 0.00500000
v 0.02996927 -0.02353784 0.00469552
v 0.02996927 -0.00400000 0.00469552
v 0.02867157 -0.02346561 0.00382843
v 0.02867157 -0.00400000 0.00382843
v 0.02780448 -0.02341442 0.00253073
v 0.02780448 -0.00400000 0.00253073
v 0.02750000 -0.02339589 0.00100000
v 0.02750000 -0.00400000 0.00100000
v 0.02750000 -0.00400000 0.00100000
v 0.02750000 -0.02339589 0.00100000
v 0.02750000 -0.02339589 -0.00000000
v 0.02750000 -0.00400000 -0.00000000
v 0.04721503 -0.02400000 0.00500000
v 0.04721503 -0.02400000 0.01500000
v 0.03250000 -0.02366359 0.01500000
v 0.03150000 -0.02361629 0.00500000
v 0.02982122 -0.02352987 0.01446716
v 0.02755025 -0.02339897 0.01294975
v 0.02996927 -0.02353784 0.00469552
v 0.02603284 -0.02330253 0.01067878
v 0.02550000 -0.02326696 0.00800000
v 0.02867157 -0.02346561 0.00382843
v 0.02780448 -0.02341442 0.00253073
v 0.02550000 -0.02326696 0.00000000
v 0.02750000 -0.02339589 0.00100000
v 0.02750000 -0.02339589 -0.00000000
v 0.07300000 -0.00200000 0.00000000
v 0.07300000 -0.00200000 0.00050000
v 0.07357402 -0.00211418 0.00050000
v 0.07357402 -0.00211418 0.00000000
v 0.07406066 -0.00243934 0.00050000
v 0.07406066 -0.00243934 0.00000000
v 0.07438582 -0.00292597 0.00050000
v 0.07438582 -0.00292597 0.00000000
v 0.07450000 -0.00350000 0.00050000
v 0.07450000 -0.00350000 0.00000000
v 0.07300000 -0.00200000 0.00050000
v 0.07300000 -0.00200000 0.00000000
v 0.02700000 -0.00200000 0.00000000
v 0.02700000 -0.00200000 0.00050000
v 0.02550000 -0.00350000 0.00000000
v 0.02550000 -0.00350000 0.00050000
v 0.02561418 -0.00292597 0.00050000
v 0.02561418 -0.00292597 0.00000000
v 0.02593934 -0.00243934 0.00050000
v 0.02593934 -0.00243934 0.00000000
v 0.02642597 -0.00211418 0.00050000
v 0.02642597 -0.00211418 0.00000000
v 0.02700000 -0.00200000 0.00050000
v 0.02700000 -0.00200000 0.00000000
v 0.02623463 -0.00165224 0.00050000
v 0.02700000 -0.00150000 0.00050000
v 0.02700000 -0.00200000 0.00050000
v 0.07300000 -0.00200000 0.00050000
v 0.02515224 -0.00273463 0.00050000
v 0.02558579 -0.00208579 0.00050000
v 0.02593934 -0.00243934 0.00050000
v 0.02642597 -0.00211418 0.00050000
v 0.07300000 -0.00150000 0.00050000
v 0.07376537 -0.00165224 0.00050000
v 0.07357402 -0.00211418 0.00050000
v 0.07484776 -0.00273463 0.00050000
v 0.07500000 -0.00350000 0.00050000
v 0.07450000 -0.00350000 0.00050000
v 0.07450000 -0.02300000 0.00050000
v 0.02500000 -0.02300000 0.00050000
v 0.02500000 -0.00350000 0.00050000
v 0.02550000 -0.00350000 0.00050000
v 0.02561418 -0.00292597 0.00050000
v 0.07441422 -0.00208579 0.00050000
v 0.07438582 -0.00292597 0.00050000
v 0.07500000 -0.02300000 0.00050000
v 0.07406066 -0.00243934 0.00050000
v 0.02550000 -0.02300000 0.00050000
v 0.02550000 -0.00350000 0.00000000
v 0.02550000 -0.02326696 0.00000000
v 0.02550000 -0.02300000 0.00050000
v 0.02550000 -0.02326696 0.00800000
v 0.02550000 -0.02300000 0.00800000
v 0.02550000 -0.00350000 0.00050000
v 0.07450000 -0.02326696 0.00800000
v 0.07450000 -0.02326696 0.00000000
v 0.07450000 -0.02300000 0.00050000
v 0.07450000 -0.00350000 0.00000000
v 0.07450000 -0.00350000 0.00050000
v 0.07450000 -0.02300000 0.00800000
v 0.05278497 -0.02400000 0.01500000
v 0.04721503 -0.02400000 0.01500000
v 0.04721503 -0.02400000 0.00500000
v 0.05278497 -0.02400000 0.00500000
v 0.06750000 -0.02300000 0.01500000
v 0.04721503 -0.02400000 0.01500000
v 0.05278497 -0.02400000 0.01500000
v 0.03250000 -0.02300000 0.01500000
v 0.03250000 -0.02366359 0.01500000
v 0.06750000 -0.02366359 0.01500000
v 0.02603284 -0.02300000 0.01067878
v 0.02550000 -0.02300000 0.00800000
v 0.02550000 -0.02326696 0.00800000
v 0.02755025 -0.02300000 0.01294975
v 0.02603284 -0.02330253 0.01067878
v 0.02982122 -0.02300000 0.01446716
v 0.02755025 -0.02339897 0.01294975
v 0.03250000 -0.02300000 0.01500000
v 0.02982122 -0.02352987 0.01446716
v 0.03250000 -0.02366359 0.01500000
v 0.06750000 -0.02300000 0.01500000
v 0.06750000 -0.02366359 0.01500000
v 0.07017878 -0.02352987 0.01446716
v 0.07017878 -0.02300000 0.01446716
v 0.07244974 -0.02339897 0.01294975
v 0.07244974 -0.02300000 0.01294975
v 0.07396716 -0.02330253 0.01067878
v 0.07396716 -0.02300000 0.01067878
v 0.07450000 -0.02326696 0.00800000
v 0.07450000 -0.02300000 0.00800000
v 0.06750000 -0.02300000 0.01550000
v 0.06750000 -0.02300000 0.01500000
v 0.07017878 -0.02300000 0.01446716
v 0.03250000 -0.02300000 0.01500000
v 0.03250000 -0.02300000 0.01550000
v 0.02962987 -0.02300000 0.01492910
v 0.02982122 -0.02300000 0.01446716
v 0.07442909 -0.02300000 0.01087013
v 0.07280330 -0.02300000 0.01330330
v 0.07244974 -0.02300000 0.01294975
v 0.07037012 -0.02300000 0.01492910
v 0.02719670 -0.02300000 0.01330330
v 0.02755025 -0.02300000 0.01294975
v 0.02557090 -0.02300000 0.01087013
v 0.02500000 -0.02300000 0.00800000
v 0.02550000 -0.02300000 0.00800000
v 0.02550000 -0.02300000 0.00050000
v 0.02603284 -0.02300000 0.01067878
v 0.02500000 -0.02300000 0.00050000
v 0.07500000 -0.02300000 0.00050000
v 0.07500000 -0.02300000 0.00800000
v 0.07450000 -0.02300000 0.00800000
v 0.07396716 -0.02300000 0.01067878
v 0.07450000 -0.02300000 0.00050000
v 0.02623463 -0.00165224 0.00000000
v 0.02700000 -0.00150000 0.00000000
v 0.02700000 -0.00150000 0.00050000
v 0.02558579 -0.00208579 0.00000000
v 0.02623463 -0.00165224 0.00050000
v 0.02515224 -0.00273463 0.00000000
v 0.02558579 -0.00208579 0.00050000
v 0.02500000 -0.00350000 0.00000000
v 0.02515224 -0.00273463 0.00050000
v 0.02500000 -0.00350000 0.00050000
v 0.02700000 -0.00150000 0.00050000
v 0.02700000 -0.00150000 0.00000000
v 0.07300000 -0.00150000 0.00000000
v 0.07300000 -0.00150000 0.00050000
v 0.07484776 -0.00273463 0.00000000
v 0.07500000 -0.00350000 0.00000000
v 0.07500000 -0.00350000 0.00050000
v 0.07441422 -0.00208579 0.00000000
v 0.07484776 -0.00273463 0.00050000
v 0.07376537 -0.00165224 0.00000000
v 0.07441422 -0.00208579 0.00050000
v 0.07300000 -0.00150000 0.00000000
v 0.07376537 -0.00165224 0.00050000
v 0.07300000 -0.00150000 0.00050000
v 0.00341783 -0.01629102 0.00000000
v 0.00302211 -0.01322508 0.00000000
v 0.00378963 -0.01023050 0.00000000
v 0.00561133 -0.00773289 0.00000000
v 0.00492057 -0.01899258 0.00000000
v 0.01026577 -0.02187303 0.00000000
v 0.00731674 -0.02094578 0.00000000
v 0.08603200 -0.00468559 -0.00000000
v 0.09697790 -0.01322508 -0.00000000
v 0.09658217 -0.01629102 -0.00000000
v 0.09438867 -0.00773289 -0.00000000
v 0.09621037 -0.01023050 -0.00000000
v 0.00822828 -0.00608724 -0.00000000
v 0.09507943 -0.01899258 -0.00000000
v 0.09268326 -0.02094578 -0.00000000
v 0.01396801 -0.00468559 -0.00000000
v 0.02500000 -0.02323277 0.00000000
v 0.02098707 0.00000000 0.00000000
v 0.07901293 0.00000000 0.00000000
v 0.07300000 -0.00150000 0.00000000
v 0.01563549 -0.00392023 -0.00000000
v 0.01595305 -0.00367325 -0.00000000
v 0.02515224 -0.00273463 0.00000000
v 0.02700000 -0.00150000 0.00000000
v 0.08973423 -0.02187303 0.00000000
v 0.02500000 -0.00350000 0.00000000
v 0.01403719 -0.00466557 -0.00000000
v 0.07376537 -0.00165224 0.00000000
v 0.07500000 -0.02323277 0.00000000
v 0.08596281 -0.00466557 -0.00000000
v 0.02623463 -0.00165224 0.00000000
v 0.07484776 -0.00273463 0.00000000
v 0.07441422 -0.00208579 0.00000000
v 0.08404694 -0.00367325 -0.00000000
v 0.07500000 -0.00350000 0.00000000
v 0.02558579 -0.00208579 0.00000000
v 0.08436451 -0.00392023 -0.00000000
v 0.09177172 -0.00608724 -0.00000000
v 0.07500000 -0.00350000 0.00000000
v 0.07500000 -0.02323277 0.00000000
v 0.07500000 -0.02300000 0.00050000
v 0.07500000 -0.02323277 0.00800000
v 0.07500000 -0.02300000 0.00800000
v 0.07500000 -0.00350000 0.00050000
v 0.02500000 -0.02323277 0.00800000
v 0.02500000 -0.02323277 0.00000000
v 0.02500000 -0.02300000 0.00050000
v 0.02500000 -0.00350000 0.00000000
v 0.02500000 -0.00350000 0.00050000
v 0.02500000 -0.02300000 0.00800000
v 0.07442909 -0.02300000 0.01087013
v 0.07500000 -0.02300000 0.00800000
v 0.07500000 -0.02323277 0.00800000
v 0.07280330 -0.02300000 0.01330330
v 0.07442909 -0.02327174 0.01087013
v 0.07037012 -0.02300000 0.01492910
v 0.07280330 -0.02337714 0.01330330
v 0.06750000 -0.02300000 0.01550000
v 0.07037012 -0.02351946 0.01492910
v 0.06750000 -0.02366359 0.01550000
v 0.08973423 -0.02187303 0.02700000
v 0.07442909 -0.02327174 0.01087013
v 0.07500000 -0.02323277 0.00800000
v 0.08973423 -0.02187303 0.00000000
v 0.05278497 -0.02400000 0.02700000
v 0.05278497 -0.02400000 0.01550000
v 0.06750000 -0.02366359 0.01550000
v 0.07037012 -0.02351946 0.01492910
v 0.07280330 -0.02337714 0.01330330
v 0.07500000 -0.02323277 0.00000000
v 0.03250000 -0.02300000 0.01550000
v 0.05278497 -0.02400000 0.01550000
v 0.04721503 -0.02400000 0.01550000
v 0.06750000 -0.02300000 0.01550000
v 0.06750000 -0.02366359 0.01550000
v 0.03250000 -0.02366359 0.01550000
v 0.03250000 -0.02300000 0.01550000
v 0.03250000 -0.02366359 0.01550000
v 0.02962987 -0.02351946 0.01492910
v 0.02962987 -0.02300000 0.01492910
v 0.02719670 -0.02337714 0.01330330
v 0.02719670 -0.02300000 0.01330330
v 0.02557090 -0.02327174 0.01087013
v 0.02557090 -0.02300000 0.01087013
v 0.02500000 -0.02323277 0.00800000
v 0.02500000 -0.02300000 0.00800000
v 0.04721503 -0.02400000 0.02700000
v 0.01026577 -0.02187303 0.02700000
v 0.03250000 -0.02366359 0.01550000
v 0.02962987 -0.02351946 0.01492910
v 0.02719670 -0.02337714 0.01330330
v 0.02557090 -0.02327174 0.01087013
v 0.01026577 -0.02187303 0.00000000
v 0.02500000 -0.02323277 0.00800000
v 0.02500000 -0.02323277 0.00000000
v 0.04721503 -0.02400000 0.01550000
v 0.05278497 -0.02400000 0.02700000
v 0.04721503 -0.02400000 0.02700000
v 0.04721503 -0.02400000 0.01550000
v 0.05278497 -0.02400000 0.01550000
v 0.01396801 -0.00468559 0.02700000
v 0.00378963 -0.01023050 0.02700000
v 0.00302211 -0.01322508 0.02700000
v 0.00341783 -0.01629102 0.02700000
v 0.09507943 -0.01899258 0.02700000
v 0.09697790 -0.01322508 0.02700000
v 0.09621037 -0.01023050 0.02700000
v 0.00492057 -0.01899258 0.02700000
v 0.00731674 -0.02094578 0.02700000
v 0.00561133 -0.00773289 0.02700000
v 0.09658217 -0.01629102 0.02700000
v 0.09438867 -0.00773289 0.02700000
v 0.08973423 -0.02187303 0.02700000
v 0.09268326 -0.02094578 0.02700000
v 0.07901293 0.00000000 0.02700000
v 0.04721503 -0.02400000 0.02700000
v 0.05278497 -0.02400000 0.02700000
v 0.02098707 0.00000000 0.02700000
v 0.01026577 -0.02187303 0.02700000
v 0.01403719 -0.00466557 0.02700000
v 0.01595305 -0.00367325 0.02700000
v 0.01563549 -0.00392023 0.02700000
v 0.08436451 -0.00392023 0.02700000
v 0.08404694 -0.00367325 0.02700000
v 0.09177172 -0.00608724 0.02700000
v 0.08596281 -0.00466557 0.02700000
v 0.08603200 -0.00468559 0.02700000
v 0.00822828 -0.00608724 0.02700000
v 0.00822828 -0.00608724 0.02700000
v 0.00822828 -0.00608724 -0.00000000
v 0.00561133 -0.00773289 0.00000000
v 0.00561133 -0.00773289 0.02700000
v 0.00378963 -0.01023050 0.00000000
v 0.00378963 -0.01023050 0.02700000
v 0.00302211 -0.01322508 0.00000000
v 0.00302211 -0.01322508 0.02700000
v 0.00341783 -0.01629102 0.00000000
v 0.00341783 -0.01629102 0.02700000
v 0.00492057 -0.01899258 0.00000000
v 0.00492057 -0.01899258 0.02700000
v 0.00731674 -0.02094578 0.00000000
v 0.00731674 -0.02094578 0.02700000
v 0.01026577 -0.02187303 0.00000000
v 0.01026577 -0.02187303 0.02700000
v 0.01563549 -0.00392023 -0.00000000
v 0.01403719 -0.00466557 -0.00000000
v 0.01403719 -0.00466557 0.02700000
v 0.01396801 -0.00468559 -0.00000000
v 0.01396801 -0.00468559 0.02700000
v 0.00822828 -0.00608724 -0.00000000
v 0.00822828 -0.00608724 0.02700000
v 0.01683491 -0.00258584 0.00226617
v 0.01743753 -0.00134440 0.02078995
v 0.01752187 -0.00133306 0.00625856
v 0.01787667 -0.00041498 0.01787821
v 0.01800000 0.00000000 0.01350000
v 0.01684355 -0.00260154 0.02472844
v 0.01563549 -0.00392023 0.02700000
v 0.01652873 -0.00308656 0.00104471
v 0.01675012 -0.00279927 0.02534792
v 0.01595305 -0.00367325 0.02700000
v 0.01595305 -0.00367325 -0.00000000
v 0.01740965 -0.00164593 0.00455896
v 0.01875516 0.00000053 0.02041338
v 0.01800000 0.00000000 0.01350000
v 0.01787667 -0.00041498 0.01787821
v 0.02098707 0.00000000 0.02700000
v 0.01743753 -0.00134440 0.02078995
v 0.01684355 -0.00260154 0.02472844
v 0.01675012 -0.00279927 0.02534792
v 0.01595305 -0.00367325 0.02700000
v 0.01875516 0.00000053 0.00658662
v 0.02098707 0.00000000 0.00000000
v 0.01740965 -0.00164593 0.00455896
v 0.01652873 -0.00308656 0.00104471
v 0.01683491 -0.00258584 0.00226617
v 0.01595305 -0.00367325 -0.00000000
v 0.01752187 -0.00133306 0.00625856
v 0.01800000 0.00000000 0.01350000
v 0.08973423 -0.02187303 0.02700000
v 0.08973423 -0.02187303 0.00000000
v 0.09268326 -0.02094578 -0.00000000
v 0.09268326 -0.02094578 0.02700000
v 0.09507943 -0.01899258 -0.00000000
v 0.09507943 -0.01899258 0.02700000
v 0.09658217 -0.01629102 -0.00000000
v 0.09658217 -0.01629102 0.02700000
v 0.09697790 -0.01322508 -0.00000000
v 0.09697790 -0.01322508 0.02700000
v 0.09621037 -0.01023050 -0.00000000
v 0.09621037 -0.01023050 0.02700000
v 0.09438867 -0.00773289 -0.00000000
v 0.09438867 -0.00773289 0.02700000
v 0.09177172 -0.00608724 -0.00000000
v 0.09177172 -0.00608724 0.02700000
v 0.08603200 -0.00468559 -0.00000000
v 0.08603200 -0.00468559 0.02700000
v 0.09177172 -0.00608724 0.02700000
v 0.08596281 -0.00466557 -0.00000000
v 0.08596281 -0.00466557 0.02700000
v 0.08436451 -0.00392023 -0.00000000
v 0.08436451 -0.00392023 0.02700000
v 0.08344942 -0.00305962 0.00109906
v 0.08325274 -0.00280272 0.02535625
v 0.08316419 -0.00258832 0.00225696
v 0.08315690 -0.00260040 0.02472430
v 0.08404694 -0.00367325 -0.00000000
v 0.08247257 -0.00132339 0.00626240
v 0.08200000 0.00000000 0.01350000
v 0.08212605 -0.00042428 0.01792751
v 0.08255995 -0.00134025 0.02078841
v 0.08257899 -0.00162141 0.00463251
v 0.08404694 -0.00367325 0.02700000
v 0.09177172 -0.00608724 -0.00000000
v 0.08124484 0.00000053 0.02041338
v 0.08255995 -0.00134025 0.02078841
v 0.08212605 -0.00042428 0.01792751
v 0.07901293 0.00000000 0.02700000
v 0.08315690 -0.00260040 0.02472430
v 0.08325274 -0.00280272 0.02535625
v 0.08404694 -0.00367325 0.02700000
v 0.08200000 0.00000000 0.01350000
v 0.07901293 0.00000000 0.00000000
v 0.08257899 -0.00162141 0.00463251
v 0.08316419 -0.00258832 0.00225696
v 0.08344942 -0.00305962 0.00109906
v 0.08124484 0.00000053 0.00658662
v 0.08247257 -0.00132339 0.00626240
v 0.08404694 -0.00367325 -0.00000000
v 0.08200000 0.00000000 0.01350000
v 0.08200000 0.00000000 0.01350000
v 0.08022334 0.00000000 0.00940131
v 0.08022334 0.00000000 0.01759869
v 0.07804015 0.00000000 0.02550000
v 0.07901293 0.00000000 0.02700000
v 0.08124484 0.00000053 0.02041338
v 0.01800000 0.00000000 0.01350000
v 0.01977665 0.00000000 0.01759869
v 0.01977665 0.00000000 0.00940131
v 0.08124484 0.00000053 0.00658662
v 0.07804015 0.00000000 0.00150000
v 0.01875516 0.00000053 0.00658662
v 0.02195985 0.00000000 0.02550000
v 0.01875516 0.00000053 0.02041338
v 0.07901293 0.00000000 0.00000000
v 0.02098707 0.00000000 0.00000000
v 0.02195985 0.00000000 0.00150000
v 0.02098707 0.00000000 0.02700000
v 0.02195985 -0.00100000 0.00150000
v 0.01977665 -0.00100000 0.00940131
v 0.03422960 -0.00100000 0.01079919
v 0.01977665 -0.00100000 0.01759869
v 0.03422960 -0.00100000 0.01620081
v 0.02195985 -0.00100000 0.02550000
v 0.03602701 -0.00100000 0.02129459
v 0.03941699 -0.00100000 0.02550000
v 0.03602701 -0.00100000 0.00570541
v 0.03941699 -0.00100000 0.00150000
v 0.01977665 0.00000000 0.01759869
v 0.02195985 0.00000000 0.02550000
v 0.02195985 -0.00100000 0.02550000
v 0.01977665 0.00000000 0.00940131
v 0.01977665 -0.00100000 0.01759869
v 0.02195985 0.00000000 0.00150000
v 0.01977665 -0.00100000 0.00940131
v 0.02195985 -0.00100000 0.00150000
v 0.07804015 0.00000000 0.00150000
v 0.05981071 -0.00100000 0.00150000
v 0.06058301 -0.00100000 0.00150000
v 0.06058301 -0.00200000 0.00150000
v 0.05981071 -0.00200000 0.00150000
v 0.03941699 -0.00100000 0.00150000
v 0.04018929 -0.00100000 0.00150000
v 0.04018929 -0.00200000 0.00150000
v 0.03941699 -0.00200000 0.00150000
v 0.02195985 0.00000000 0.00150000
v 0.02195985 -0.00100000 0.00150000
v 0.07804015 -0.00100000 0.00150000
v 0.02195985 0.00000000 0.02550000
v 0.04018929 -0.00100000 0.02550000
v 0.03941699 -0.00100000 0.02550000
v 0.03941699 -0.00200000 0.02550000
v 0.04018929 -0.00200000 0.02550000
v 0.06058301 -0.00100000 0.02550000
v 0.05981071 -0.00100000 0.02550000
v 0.05981071 -0.00200000 0.02550000
v 0.06058301 -0.00200000 0.02550000
v 0.07804015 0.00000000 0.02550000
v 0.07804015 -0.00100000 0.02550000
v 0.02195985 -0.00100000 0.02550000
v 0.03602701 -0.00100000 0.02129459
v 0.03941699 -0.00100000 0.02550000
v 0.03941699 -0.00200000 0.02550000
v 0.03422960 -0.00100000 0.01620081
v 0.03602701 -0.00200000 0.02129459
v 0.03422960 -0.00100000 0.01079919
v 0.03422960 -0.00200000 0.01620081
v 0.03602701 -0.00100000 0.00570541
v 0.03422960 -0.00200000 0.01079919
v 0.03941699 -0.00100000 0.00150000
v 0.03602701 -0.00200000 0.00570541
v 0.03941699 -0.00200000 0.00150000
v 0.03941699 -0.00200000 0.00150000
v 0.03602701 -0.00200000 0.00570541
v 0.03663640 -0.00200000 0.00564734
v 0.03474241 -0.00200000 0.01076946
v 0.03422960 -0.00200000 0.01079919
v 0.03422960 -0.00200000 0.01620081
v 0.03474241 -0.00200000 0.01623054
v 0.03602701 -0.00200000 0.02129459
v 0.03941699 -0.00200000 0.02550000
v 0.04018929 -0.00200000 0.02550000
v 0.03663640 -0.00200000 0.02135266
v 0.04018929 -0.00200000 0.00150000
v 0.04018929 -0.00100000 0.00150000
v 0.04018929 -0.00200000 0.00150000
v 0.03663640 -0.00200000 0.00564734
v 0.03663640 -0.00100000 0.00564734
v 0.03474241 -0.00200000 0.01076946
v 0.03474241 -0.00100000 0.01076946
v 0.03474241 -0.00200000 0.01623054
v 0.03474241 -0.00100000 0.01623054
v 0.03663640 -0.00200000 0.02135266
v 0.03663640 -0.00100000 0.02135266
v 0.04018929 -0.00200000 0.02550000
v 0.04018929 -0.00100000 0.02550000
v 0.08022334 0.00000000 0.00940131
v 0.07804015 0.00000000 0.00150000
v 0.07804015 -0.00100000 0.00150000
v 0.08022334 0.00000000 0.01759869
v 0.08022334 -0.00100000 0.00940131
v 0.07804015 0.00000000 0.02550000
v 0.08022334 -0.00100000 0.01759869
v 0.07804015 -0.00100000 0.02550000
v 0.07804015 -0.00100000 0.02550000
v 0.08022334 -0.00100000 0.01759869
v 0.06577040 -0.00100000 0.01620081
v 0.06397299 -0.00100000 0.02129459
v 0.08022334 -0.00100000 0.00940131
v 0.06577040 -0.00100000 0.01079919
v 0.07804015 -0.00100000 0.00150000
v 0.06397299 -0.00100000 0.00570541
v 0.06058301 -0.00100000 0.00150000
v 0.06058301 -0.00100000 0.02550000
v 0.06397299 -0.00100000 0.00570541
v 0.06058301 -0.00100000 0.00150000
v 0.06058301 -0.00200000 0.00150000
v 0.06577040 -0.00100000 0.01079919
v 0.06397299 -0.00200000 0.00570541
v 0.06577040 -0.00100000 0.01620081
v 0.06577040 -0.00200000 0.01079919
v 0.06397299 -0.00100000 0.02129459
v 0.06577040 -0.00200000 0.01620081
v 0.06058301 -0.00100000 0.02550000
v 0.06397299 -0.00200000 0.02129459
v 0.06058301 -0.00200000 0.02550000
v 0.06525759 -0.00200000 0.01623054
v 0.06336360 -0.00200000 0.02135266
v 0.06397299 -0.00200000 0.02129459
v 0.06525759 -0.00200000 0.01076946
v 0.06577040 -0.00200000 0.01620081
v 0.06058301 -0.00200000 0.02550000
v 0.06577040 -0.00200000 0.01079919
v 0.06397299 -0.00200000 0.00570541
v 0.06058301 -0.00200000 0.00150000
v 0.05981071 -0.00200000 0.00150000
v 0.06336360 -0.00200000 0.00564734
v 0.05981071 -0.00200000 0.02550000
v 0.05981071 -0.00100000 0.02550000
v 0.05981071 -0.00200000 0.02550000
v 0.06336360 -0.00200000 0.02135266
v 0.06336360 -0.00100000 0.02135266
v 0.06525759 -0.00200000 0.01623054
v 0.06525759 -0.00100000 0.01623054
v 0.06525759 -0.00200000 0.01076946
v 0.06525759 -0.00100000 0.01076946
v 0.06336360 -0.00200000 0.00564734
v 0.06336360 -0.00100000 0.00564734
v 0.05981071 -0.00200000 0.00150000
v 0.05981071 -0.00100000 0.00150000
v 0.03663640 -0.00100000 0.00564734
v 0.04122315 -0.00100000 0.00986451
v 0.04328249 -0.00100000 0.00678249
v 0.03474241 -0.00100000 0.01076946
v 0.04050000 -0.00100000 0.01350000
v 0.05981071 -0.00100000 0.00150000
v 0.05000000 -0.00100000 0.00400000
v 0.05363549 -0.00100000 0.00472314
v 0.04018929 -0.00100000 0.00150000
v 0.04636451 -0.00100000 0.00472314
v 0.03663640 -0.00100000 0.02135266
v 0.04018929 -0.00100000 0.02550000
v 0.04328249 -0.00100000 0.02021751
v 0.05981071 -0.00100000 0.02550000
v 0.05671751 -0.00100000 0.02021751
v 0.05363549 -0.00100000 0.02227686
v 0.06336360 -0.00100000 0.02135266
v 0.05877686 -0.00100000 0.01713549
v 0.06525759 -0.00100000 0.01623054
v 0.05950000 -0.00100000 0.01350000
v 0.03474241 -0.00100000 0.01623054
v 0.04122315 -0.00100000 0.01713549
v 0.04636451 -0.00100000 0.02227686
v 0.06525759 -0.00100000 0.01076946
v 0.06336360 -0.00100000 0.00564734
v 0.05877686 -0.00100000 0.00986451
v 0.05671751 -0.00100000 0.00678249
v 0.05000000 -0.00100000 0.02300000
v 0.04122315 -0.00100000 0.00986451
v 0.04050000 -0.00100000 0.01350000
v 0.04050000 -0.00200000 0.01350000
v 0.04328249 -0.00100000 0.00678249
v 0.04122315 -0.00200000 0.00986451
v 0.04636451 -0.00100000 0.00472314
v 0.04328249 -0.00200000 0.00678249
v 0.05000000 -0.00100000 0.00400000
v 0.04636451 -0.00200000 0.00472314
v 0.05363549 -0.00100000 0.00472314
v 0.05000000 -0.00200000 0.00400000
v 0.05671751 -0.00100000 0.00678249
v 0.05363549 -0.00200000 0.00472314
v 0.05877686 -0.00100000 0.00986451
v 0.05671751 -0.00200000 0.00678249
v 0.05950000 -0.00100000 0.01350000
v 0.05877686 -0.00200000 0.00986451
v 0.05877686 -0.00100000 0.01713549
v 0.05950000 -0.00200000 0.01350000
v 0.05671751 -0.00100000 0.02021751
v 0.05877686 -0.00200000 0.01713549
v 0.05363549 -0.00100000 0.02227686
v 0.05671751 -0.00200000 0.02021751
v 0.05000000 -0.00100000 0.02300000
v 0.05363549 -0.00200000 0.02227686
v 0.04636451 -0.00100000 0.02227686
v 0.05000000 -0.00200000 0.02300000
v 0.04328249 -0.00100000 0.02021751
v 0.04636451 -0.00200000 0.02227686
v 0.04122315 -0.00100000 0.01713549
v 0.04328249 -0.00200000 0.02021751
v 0.04122315 -0.00200000 0.01713549
v 0.05877686 -0.00200000 0.00986451
v 0.05785298 -0.00200000 0.01024719
v 0.05850000 -0.00200000 0.01350000
v 0.05671751 -0.00200000 0.00678249
v 0.05601041 -0.00200000 0.00748959
v 0.05363549 -0.00200000 0.00472314
v 0.05325281 -0.00200000 0.00564702
v 0.05000000 -0.00200000 0.00400000
v 0.05000000 -0.00200000 0.00500000
v 0.05877686 -0.00200000 0.01713549
v 0.05785298 -0.00200000 0.01675281
v 0.05601041 -0.00200000 0.01951041
v 0.05950000 -0.00200000 0.01350000
v 0.04636451 -0.00200000 0.00472314
v 0.04674719 -0.00200000 0.00564702
v 0.04328249 -0.00200000 0.00678249
v 0.04398959 -0.00200000 0.00748959
v 0.04122315 -0.00200000 0.00986451
v 0.04214703 -0.00200000 0.01024719
v 0.04050000 -0.00200000 0.01350000
v 0.04150000 -0.00200000 0.01350000
v 0.04328249 -0.00200000 0.02021751
v 0.04398959 -0.00200000 0.01951041
v 0.04214703 -0.00200000 0.01675281
v 0.04636451 -0.00200000 0.02227686
v 0.04674719 -0.00200000 0.02135298
v 0.04122315 -0.00200000 0.01713549
v 0.05000000 -0.00200000 0.02300000
v 0.05363549 -0.00200000 0.02227686
v 0.05325281 -0.00200000 0.02135298
v 0.05671751 -0.00200000 0.02021751
v 0.05000000 -0.00200000 0.02200000
v 0.04214703 -0.00200000 0.01024719
v 0.04150000 -0.00200000 0.01350000
v 0.04150000 -0.00225000 0.01350000
v 0.04398959 -0.00200000 0.00748959
v 0.04214703 -0.00225000 0.01024719
v 0.04674719 -0.00200000 0.00564702
v 0.04398959 -0.00225000 0.00748959
v 0.05000000 -0.00200000 0.00500000
v 0.04674719 -0.00225000 0.00564702
v 0.05325281 -0.00200000 0.00564702
v 0.05000000 -0.00225000 0.00500000
v 0.05601041 -0.00200000 0.00748959
v 0.05325281 -0.00225000 0.00564702
v 0.05785298 -0.00200000 0.01024719
v 0.05601041 -0.00225000 0.00748959
v 0.05850000 -0.00200000 0.01350000
v 0.05785298 -0.00225000 0.01024719
v 0.05785298 -0.00200000 0.01675281
v 0.05850000 -0.00225000 0.01350000
v 0.05601041 -0.00200000 0.01951041
v 0.05785298 -0.00225000 0.01675281
v 0.05325281 -0.00200000 0.02135298
v 0.05601041 -0.00225000 0.01951041
v 0.05000000 -0.00200000 0.02200000
v 0.05325281 -0.00225000 0.02135298
v 0.04674719 -0.00200000 0.02135298
v 0.05000000 -0.00225000 0.02200000
v 0.04398959 -0.00200000 0.01951041
v 0.04674719 -0.00225000 0.02135298
v 0.04214703 -0.00200000 0.01675281
v 0.04398959 -0.00225000 0.01951041
v 0.04214703 -0.00225000 0.01675281
v 0.05325281 -0.00225000 0.02135298
v 0.05601041 -0.00225000 0.01951041
v 0.05530330 -0.00225000 0.01880330
v 0.05785298 -0.00225000 0.01675281
v 0.05692910 -0.00225000 0.01637013
v 0.05850000 -0.00225000 0.01350000
v 0.05750000 -0.00225000 0.01350000
v 0.05785298 -0.00225000 0.01024719
v 0.05692910 -0.00225000 0.01062987
v 0.05601041 -0.00225000 0.00748959
v 0.05530330 -0.00225000 0.00819670
v 0.05325281 -0.00225000 0.00564702
v 0.05287012 -0.00225000 0.00657090
v 0.05000000 -0.00225000 0.00500000
v 0.05000000 -0.00225000 0.00600000
v 0.04674719 -0.00225000 0.00564702
v 0.04712987 -0.00225000 0.00657090
v 0.04214703 -0.00225000 0.01024719
v 0.04307090 -0.00225000 0.01062987
v 0.04469670 -0.00225000 0.00819670
v 0.04150000 -0.00225000 0.01350000
v 0.04250000 -0.00225000 0.01350000
v 0.04398959 -0.00225000 0.00748959
v 0.04214703 -0.00225000 0.01675281
v 0.04307090 -0.00225000 0.01637013
v 0.04398959 -0.00225000 0.01951041
v 0.04469670 -0.00225000 0.01880330
v 0.05000000 -0.00225000 0.02200000
v 0.05287012 -0.00225000 0.02042910
v 0.04674719 -0.00225000 0.02135298
v 0.04712987 -0.00225000 0.02042910
v 0.05000000 -0.00225000 0.02100000
v 0.04307090 -0.00225000 0.01062987
v 0.04250000 -0.00225000 0.01350000
v 0.04250000 -0.00250000 0.01350000
v 0.04469670 -0.00225000 0.00819670
v 0.04307090 -0.00250000 0.01062987
v 0.04712987 -0.00225000 0.00657090
v 0.04469670 -0.00250000 0.00819670
v 0.05000000 -0.00225000 0.00600000
v 0.04712987 -0.00250000 0.00657090
v 0.05287012 -0.00225000 0.00657090
v 0.05000000 -0.00250000 0.00600000
v 0.05530330 -0.00225000 0.00819670
v 0.05287012 -0.00250000 0.00657090
v 0.05692910 -0.00225000 0.01062987
v 0.05530330 -0.00250000 0.00819670
v 0.05750000 -0.00225000 0.01350000
v 0.05692910 -0.00250000 0.01062987
v 0.05692910 -0.00225000 0.01637013
v 0.05750000 -0.00250000 0.01350000
v 0.05530330 -0.00225000 0.01880330
v 0.05692910 -0.00250000 0.01637013
v 0.05287012 -0.00225000 0.02042910
v 0.05530330 -0.00250000 0.01880330
v 0.05000000 -0.00225000 0.02100000
v 0.05287012 -0.00250000 0.02042910
v 0.04712987 -0.00225000 0.02042910
v 0.05000000 -0.00250000 0.02100000
v 0.04469670 -0.00225000 0.01880330
v 0.04712987 -0.00250000 0.02042910
v 0.04307090 -0.00225000 0.01637013
v 0.04469670 -0.00250000 0.01880330
v 0.04307090 -0.00250000 0.01637013
v 0.05287012 -0.00250000 0.02042910
v 0.05530330 -0.00250000 0.01880330
v 0.05459619 -0.00250000 0.01809619
v 0.05692910 -0.00250000 0.01637013
v 0.05600522 -0.00250000 0.01598744
v 0.05248744 -0.00250000 0.01950522
v 0.05000000 -0.00250000 0.02000000
v 0.05692910 -0.00250000 0.01062987
v 0.05600522 -0.00250000 0.01101256
v 0.05650000 -0.00250000 0.01350000
v 0.05530330 -0.00250000 0.00819670
v 0.05459619 -0.00250000 0.00890381
v 0.05750000 -0.00250000 0.01350000
v 0.05287012 -0.00250000 0.00657090
v 0.05248744 -0.00250000 0.00749478
v 0.05000000 -0.00250000 0.00600000
v 0.05000000 -0.00250000 0.00700000
v 0.04712987 -0.00250000 0.00657090
v 0.04751256 -0.00250000 0.00749478
v 0.04469670 -0.00250000 0.00819670
v 0.04307090 -0.00250000 0.01062987
v 0.04399478 -0.00250000 0.01101256
v 0.04250000 -0.00250000 0.01350000
v 0.04350000 -0.00250000 0.01350000
v 0.04540380 -0.00250000 0.00890381
v 0.04307090 -0.00250000 0.01637013
v 0.04399478 -0.00250000 0.01598744
v 0.04469670 -0.00250000 0.01880330
v 0.04540380 -0.00250000 0.01809619
v 0.04712987 -0.00250000 0.02042910
v 0.04751256 -0.00250000 0.01950522
v 0.05000000 -0.00250000 0.02100000
v 0.04399478 -0.00250000 0.01101256
v 0.04350000 -0.00250000 0.01350000
v 0.04350000 -0.00275000 0.01350000
v 0.04540380 -0.00250000 0.00890381
v 0.04399478 -0.00275000 0.01101256
v 0.04751256 -0.00250000 0.00749478
v 0.04540380 -0.00275000 0.00890381
v 0.05000000 -0.00250000 0.00700000
v 0.04751256 -0.00275000 0.00749478
v 0.05248744 -0.00250000 0.00749478
v 0.05000000 -0.00275000 0.00700000
v 0.05459619 -0.00250000 0.00890381
v 0.05248744 -0.00275000 0.00749478
v 0.05600522 -0.00250000 0.01101256
v 0.05459619 -0.00275000 0.00890381
v 0.05650000 -0.00250000 0.01350000
v 0.05600522 -0.00275000 0.01101256
v 0.05600522 -0.00250000 0.01598744
v 0.05650000 -0.00275000 0.01350000
v 0.05459619 -0.00250000 0.01809619
v 0.05600522 -0.00275000 0.01598744
v 0.05248744 -0.00250000 0.01950522
v 0.05459619 -0.00275000 0.01809619
v 0.05000000 -0.00250000 0.02000000
v 0.05248744 -0.00275000 0.01950522
v 0.04751256 -0.00250000 0.01950522
v 0.05000000 -0.00275000 0.02000000
v 0.04540380 -0.00250000 0.01809619
v 0.04751256 -0.00275000 0.01950522
v 0.04399478 -0.00250000 0.01598744
v 0.04540380 -0.00275000 0.01809619
v 0.04399478 -0.00275000 0.01598744
v 0.05650000 -0.00275000 0.01350000
v 0.05500000 -0.00275000 0.01350000
v 0.05462891 -0.00275000 0.01539029
v 0.05600522 -0.00275000 0.01101256
v 0.05462891 -0.00275000 0.01160971
v 0.05459619 -0.00275000 0.00890381
v 0.05357071 -0.00275000 0.01000000
v 0.04751256 -0.00275000 0.00749478
v 0.04540380 -0.00275000 0.00890381
v 0.04642929 -0.00275000 0.01000000
v 0.04350000 -0.00275000 0.01350000
v 0.04500000 -0.00275000 0.01350000
v 0.04537109 -0.00275000 0.01160971
v 0.04399478 -0.00275000 0.01598744
v 0.04537109 -0.00275000 0.01539029
v 0.05600522 -0.00275000 0.01598744
v 0.05357071 -0.00275000 0.01700000
v 0.05000000 -0.00275000 0.00700000
v 0.05248744 -0.00275000 0.00749478
v 0.04540380 -0.00275000 0.01809619
v 0.04642929 -0.00275000 0.01700000
v 0.04399478 -0.00275000 0.01101256
v 0.04751256 -0.00275000 0.01950522
v 0.05000000 -0.00275000 0.02000000
v 0.05248744 -0.00275000 0.01950522
v 0.05459619 -0.00275000 0.01809619
v 0.04642929 -0.00475000 0.01000000
v 0.04537109 -0.00475000 0.01160971
v 0.04676642 -0.00475000 0.01216061
v 0.04500000 -0.00475000 0.01350000
v 0.04650000 -0.00475000 0.01350000
v 0.04537109 -0.00475000 0.01539029
v 0.04676642 -0.00475000 0.01483939
v 0.04642929 -0.00475000 0.01700000
v 0.04752513 -0.00475000 0.01597487
v 0.04752513 -0.00475000 0.01102513
v 0.04866061 -0.00475000 0.01026642
v 0.04866061 -0.00475000 0.01673358
v 0.05000000 -0.00475000 0.01700000
v 0.05000000 -0.00475000 0.01000000
v 0.04537109 -0.00275000 0.01539029
v 0.04642929 -0.00275000 0.01700000
v 0.04642929 -0.00475000 0.01700000
v 0.04500000 -0.00275000 0.01350000
v 0.04537109 -0.00475000 0.01539029
v 0.04537109 -0.00275000 0.01160971
v 0.04500000 -0.00475000 0.01350000
v 0.04642929 -0.00275000 0.01000000
v 0.04537109 -0.00475000 0.01160971
v 0.04642929 -0.00475000 0.01000000
v 0.04642929 -0.00275000 0.01000000
v 0.04642929 -0.00475000 0.01000000
v 0.05000000 -0.00475000 0.01000000
v 0.05357071 -0.00275000 0.01000000
v 0.05357071 -0.00475000 0.01000000
v 0.04642929 -0.00275000 0.01700000
v 0.05357071 -0.00275000 0.01700000
v 0.05000000 -0.00475000 0.01700000
v 0.05357071 -0.00475000 0.01700000
v 0.04642929 -0.00475000 0.01700000
v 0.05462891 -0.00275000 0.01160971
v 0.05357071 -0.00275000 0.01000000
v 0.05357071 -0.00475000 0.01000000
v 0.05500000 -0.00275000 0.01350000
v 0.05462891 -0.00475000 0.01160971
v 0.05462891 -0.00275000 0.01539029
v 0.05500000 -0.00475000 0.01350000
v 0.05357071 -0.00275000 0.01700000
v 0.05462891 -0.00475000 0.01539029
v 0.05357071 -0.00475000 0.01700000
v 0.05462891 -0.00475000 0.01160971
v 0.05323358 -0.00475000 0.01216061
v 0.05350000 -0.00475000 0.01350000
v 0.05357071 -0.00475000 0.01000000
v 0.05247488 -0.00475000 0.01102513
v 0.05462891 -0.00475000 0.01539029
v 0.05500000 -0.00475000 0.01350000
v 0.05357071 -0.00475000 0.01700000
v 0.05323358 -0.00475000 0.01483939
v 0.05133939 -0.00475000 0.01026642
v 0.05247488 -0.00475000 0.01597487
v 0.05000000 -0.00475000 0.01000000
v 0.05133939 -0.00475000 0.01673358
v 0.05000000 -0.00475000 0.01700000
v 0.04650000 -0.00475000 0.01350000
v 0.04676642 -0.00475000 0.01483939
v 0.04813613 -0.00575000 0.01427204
v 0.04752513 -0.00475000 0.01597487
v 0.04857346 -0.00575000 0.01492654
v 0.04866061 -0.00475000 0.01673358
v 0.04922796 -0.00575000 0.01536387
v 0.05000000 -0.00475000 0.01700000
v 0.05000000 -0.00575000 0.01551744
v 0.05133939 -0.00475000 0.01673358
v 0.05077204 -0.00575000 0.01536387
v 0.05247488 -0.00475000 0.01597487
v 0.05142654 -0.00575000 0.01492654
v 0.05323358 -0.00475000 0.01483939
v 0.05186387 -0.00575000 0.01427204
v 0.05350000 -0.00475000 0.01350000
v 0.05201744 -0.00575000 0.01350000
v 0.05323358 -0.00475000 0.01216061
v 0.05186387 -0.00575000 0.01272796
v 0.05247488 -0.00475000 0.01102513
v 0.05142654 -0.00575000 0.01207346
v 0.05133939 -0.00475000 0.01026642
v 0.05077204 -0.00575000 0.01163613
v 0.05000000 -0.00475000 0.01000000
v 0.05000000 -0.00575000 0.01148256
v 0.04866061 -0.00475000 0.01026642
v 0.04922796 -0.00575000 0.01163613
v 0.04752513 -0.00475000 0.01102513
v 0.04857346 -0.00575000 0.01207346
v 0.04676642 -0.00475000 0.01216061
v 0.04813613 -0.00575000 0.01272796
v 0.04798256 -0.00575000 0.01350000
v 0.05000000 -0.00575000 0.01350000
v 0.04813613 -0.00575000 0.01427204
v 0.04857346 -0.00575000 0.01492654
v 0.04922796 -0.00575000 0.01536387
v 0.05000000 -0.00575000 0.01551744
v 0.05077204 -0.00575000 0.01536387
v 0.05142654 -0.00575000 0.01492654
v 0.05186387 -0.00575000 0.01427204
v 0.05201744 -0.00575000 0.01350000
v 0.05186387 -0.00575000 0.01272796
v 0.05142654 -0.00575000 0.01207346
v 0.05077204 -0.00575000 0.01163613
v 0.05000000 -0.00575000 0.01148256
v 0.04922796 -0.00575000 0.01163613
v 0.04857346 -0.00575000 0.01207346
v 0.04813613 -0.00575000 0.01272796
v 0.04798256 -0.00575000 0.01350000
vt 0.66078629 0.34821429
vt 0.66078629 0.34821429
vt 0.66078629 0.34821429
vt 0.66078629 0.34821429
vt 0.66078629 0.34821429
vt 0.66078629 0.34821429
vt 0.66078629 0.34821429
vt 0.66078629 0.34821429
vt 0.66078629 0.34821429
vt 0.66078629 0.34821429
vt 0.66078629 0.34821429
vt 0.66078629 0.34821429
vt 0.66078629 0.34821429
vt 0.66078629 0.34821429
vt 0.66078629 0.34821429
vt 0.66078629 0.34821429
vt 0.66078629 0.34821429
vt 0.66078629 0.34821429
vt 0.66078629 0.34821429
vt 0.66078629 0.34821429
vt 0.66078629 0.34821429
vt 0.66078629 0.34821429
vt 0.66078629 0.34821429
vt 0.66078629 0.34821429
vt 0.66078629 0.34821429
vt 0.66078629 0.34821429
vt 0.66078629 0.34821429
vt 0.66078629 0.34821429
vt 0.66078629 0.34821429
vt 0.66078629 0.34821429
vt 0.66078629 0.34821429
vt 0.66078629 0.34821429
vt 0.66078629 0.34821429
vt 0.66078629 0.34821429
vt 0.66078629 0.34821429
vt 0.66078629 0.34821429
vt 0.66078629 0.34821429
vt 0.66078629 0.34821429
vt 0.66078629 0.34821429
vt 0.66078629 0.34821429
vt 0.66078629 0.34821429
vt 0.66078629 0.34821429
vt 0.66078629 0.34821429
vt 0.66078629 0.34821429
vt 0.66078629 0.34821429
vt 0.66078629 0.34821429
vt 0.66078629 0.34821429
vt 0.66078629 0.34821429
vt 0.66078629 0.34821429
vt 0.66078629 0.34821429
vt 0.66078629 0.34821429
vt 0.66078629 0.34821429
vt 0.66078629 0.34821429
vt 0.66078629 0.34821429
vt 0.66078629 0.34821429
vt 0.66078629 0.34821429
vt 0.66078629 0.34821429
vt 0.66078629 0.34821429
vt 0.66078629 0.34821429
vt 0.66078629 0.34821429
vt 0.66078629 0.34821429
vt 0.66078629 0.34821429
vt 0.66078629 0.34821429
vt 0.66078629 0.34821429
vt 0.66078629 0.34821429
vt 0.66078629 0.34821429
vt 0.66078629 0.34821429
vt 0.66078629 0.34821429
vt 0.66078629 0.34821429
vt 0.66078629 0.34821429
vt 0.66078629 0.34821429
vt 0.66078629 0.34821429
vt 0.66078629 0.34821429
vt 0.66078629 0.34821429
vt 0.66078629 0.34821429
vt 0.66078629 0.34821429
vt 0.66078629 0.34821429
vt 0.66078629 0.34821429
vt 0.66078629 0.34821429
vt 0.66078629 0.34821429
vt 0.66078629 0.34821429
vt 0.66078629 0.34821429
vt 0.66078629 0.34821429
vt 0.66078629 0.34821429
vt 0.66078629 0.34821429
vt 0.66078629 0.34821429
vt 0.66078629 0.34821429
vt 0.66078629 0.34821429
vt 0.66078629 0.34821429
vt 0.66078629 0.34821429
vt 0.66078629 0.34821429
vt 0.66078629 0.34821429
vt 0.66078629 0.34821429
vt 0.66078629 0.34821429
vt 0.66078629 0.34821429
vt 0.66078629 0.34821429
vt 0.66078629 0.34821429
vt 0.66078629 0.34821429
vt 0.66078629 0.34821429
vt 0.66078629 0.34821429
vt 0.66078629 0.34821429
vt 0.66078629 0.34821429
vt 0.66078629 0.34821429
vt 0.66078629 0.34821429
vt 0.66078629 0.34821429
vt 0.66078629 0.34821429
vt 0.66078629 0.34821429
vt 0.66078629 0.34821429
vt 0.66078629 0.34821429
vt 0.66078629 0.34821429
vt 0.66078629 0.34821429
vt 0.66078629 0.34821429
vt 0.66078629 0.34821429
vt 0.66078629 0.34821429
vt 0.66078629 0.34821429
vt 0.66078629 0.34821429
vt 0.66078629 0.34821429
vt 0.66078629 0.34821429
vt 0.66078629 0.34821429
vt 0.66078629 0.34821429
vt 0.66078629 0.34821429
vt 0.66078629 0.34821429
vt 0.66078629 0.34821429
vt 0.66078629 0.34821429
vt 0.46723790 0.34821429
vt 0.46723790 0.34821429
vt 0.46723790 0.34821429
vt 0.46723790 0.34821429
vt 0.46723790 0.34821429
vt 0.46723790 0.34821429
vt 0.46723790 0.34821429
vt 0.46723790 0.34821429
vt 0.46723790 0.34821429
vt 0.46723790 0.34821429
vt 0.46723790 0.34821429
vt 0.46723790 0.34821429
vt 0.46723790 0.34821429
vt 0.46723790 0.34821429
vt 0.46723790 0.34821429
vt 0.46723790 0.34821429
vt 0.66078629 0.34821429
vt 0.66078629 0.34821429
vt 0.66078629 0.34821429
vt 0.66078629 0.34821429
vt 0.46723790 0.34821429
vt 0.46723790 0.34821429
vt 0.46723790 0.34821429
vt 0.46723790 0.34821429
vt 0.46723790 0.34821429
vt 0.46723790 0.34821429
vt 0.46723790 0.34821429
vt 0.46723790 0.34821429
vt 0.46723790 0.34821429
vt 0.46723790 0.34821429
vt 0.46723790 0.34821429
vt 0.46723790 0.34821429
vt 0.46723790 0.34821429
vt 0.46723790 0.34821429
vt 0.46723790 0.34821429
vt 0.46723790 0.34821429
vt 0.46723790 0.34821429
vt 0.46723790 0.34821429
vt 0.46723790 0.34821429
vt 0.46723790 0.34821429
vt 0.46723790 0.34821429
vt 0.46723790 0.34821429
vt 0.46723790 0.34821429
vt 0.46723790 0.34821429
vt 0.46723790 0.34821429
vt 0.46723790 0.34821429
vt 0.46723790 0.34821429
vt 0.46723790 0.34821429
vt 0.46723790 0.34821429
vt 0.46723790 0.34821429
vt 0.46723790 0.34821429
vt 0.46723790 0.34821429
vt 0.46723790 0.34821429
vt 0.46723790 0.34821429
vt 0.46723790 0.34821429
vt 0.46723790 0.34821429
vt 0.46723790 0.34821429
vt 0.46723790 0.34821429
vt 0.46723790 0.34821429
vt 0.46723790 0.34821429
vt 0.46723790 0.34821429
vt 0.46723790 0.34821429
vt 0.46723790 0.34821429
vt 0.46723790 0.34821429
vt 0.46723790 0.34821429
vt 0.46723790 0.34821429
vt 0.46723790 0.34821429
vt 0.46723790 0.34821429
vt 0.46723790 0.34821429
vt 0.46723790 0.34821429
vt 0.46723790 0.34821429
vt 0.46723790 0.34821429
vt 0.46723790 0.34821429
vt 0.46723790 0.34821429
vt 0.46723790 0.34821429
vt 0.46723790 0.34821429
vt 0.66078629 0.34821429
vt 0.66078629 0.34821429
vt 0.66078629 0.34821429
vt 0.66078629 0.34821429
vt 0.46723790 0.34821429
vt 0.46723790 0.34821429
vt 0.46723790 0.34821429
vt 0.46723790 0.34821429
vt 0.46723790 0.34821429
vt 0.46723790 0.34821429
vt 0.46723790 0.34821429
vt 0.46723790 0.34821429
vt 0.46723790 0.34821429
vt 0.46723790 0.34821429
vt 0.46723790 0.34821429
vt 0.46723790 0.34821429
vt 0.46723790 0.34821429
vt 0.46723790 0.34821429
vt 0.66078629 0.34821429
vt 0.66078629 0.34821429
vt 0.66078629 0.34821429
vt 0.66078629 0.34821429
vt 0.66078629 0.34821429
vt 0.66078629 0.34821429
vt 0.66078629 0.34821429
vt 0.66078629 0.34821429
vt 0.66078629 0.34821429
vt 0.66078629 0.34821429
vt 0.66078629 0.34821429
vt 0.66078629 0.34821429
vt 0.66078629 0.34821429
vt 0.66078629 0.34821429
vt 0.66078629 0.34821429
vt 0.66078629 0.34821429
vt 0.66078629 0.34821429
vt 0.66078629 0.34821429
vt 0.66078629 0.34821429
vt 0.66078629 0.34821429
vt 0.66078629 0.34821429
vt 0.66078629 0.34821429
vt 0.66078629 0.34821429
vt 0.66078629 0.34821429
vt 0.66078629 0.34821429
vt 0.66078629 0.34821429
vt 0.66078629 0.34821429
vt 0.66078629 0.34821429
vt 0.66078629 0.34821429
vt 0.66078629 0.34821429
vt 0.66078629 0.34821429
vt 0.66078629 0.34821429
vt 0.66078629 0.34821429
vt 0.66078629 0.34821429
vt 0.66078629 0.34821429
vt 0.66078629 0.34821429
vt 0.66078629 0.34821429
vt 0.66078629 0.34821429
vt 0.66078629 0.34821429
vt 0.66078629 0.34821429
vt 0.66078629 0.34821429
vt 0.66078629 0.34821429
vt 0.66078629 0.34821429
vt 0.66078629 0.34821429
vt 0.66078629 0.34821429
vt 0.66078629 0.34821429
vt 0.66078629 0.34821429
vt 0.66078629 0.34821429
vt 0.66078629 0.34821429
vt 0.66078629 0.34821429
vt 0.66078629 0.34821429
vt 0.66078629 0.34821429
vt 0.66078629 0.34821429
vt 0.66078629 0.34821429
vt 0.66078629 0.34821429
vt 0.66078629 0.34821429
vt 0.66078629 0.34821429
vt 0.66078629 0.34821429
vt 0.66078629 0.34821429
vt 0.66078629 0.34821429
vt 0.27368952 0.34821429
vt 0.27368952 0.34821429
vt 0.27368952 0.34821429
vt 0.27368952 0.34821429
vt 0.66078629 0.34821429
vt 0.66078629 0.34821429
vt 0.66078629 0.34821429
vt 0.66078629 0.34821429
vt 0.66078629 0.34821429
vt 0.66078629 0.34821429
vt 0.66078629 0.34821429
vt 0.66078629 0.34821429
vt 0.66078629 0.34821429
vt 0.66078629 0.34821429
vt 0.66078629 0.34821429
vt 0.66078629 0.34821429
vt 0.66078629 0.34821429
vt 0.66078629 0.34821429
vt 0.66078629 0.34821429
vt 0.66078629 0.34821429
vt 0.66078629 0.34821429
vt 0.66078629 0.34821429
vt 0.66078629 0.34821429
vt 0.66078629 0.34821429
vt 0.66078629 0.34821429
vt 0.66078629 0.34821429
vt 0.66078629 0.34821429
vt 0.66078629 0.34821429
vt 0.66078629 0.34821429
vt 0.66078629 0.34821429
vt 0.66078629 0.34821429
vt 0.66078629 0.34821429
vt 0.66078629 0.34821429
vt 0.66078629 0.34821429
vt 0.66078629 0.34821429
vt 0.66078629 0.34821429
vt 0.66078629 0.34821429
vt 0.66078629 0.34821429
vt 0.66078629 0.34821429
vt 0.66078629 0.34821429
vt 0.66078629 0.34821429
vt 0.66078629 0.34821429
vt 0.66078629 0.34821429
vt 0.66078629 0.34821429
vt 0.66078629 0.34821429
vt 0.66078629 0.34821429
vt 0.66078629 0.34821429
vt 0.66078629 0.34821429
vt 0.66078629 0.34821429
vt 0.66078629 0.34821429
vt 0.66078629 0.34821429
vt 0.66078629 0.34821429
vt 0.66078629 0.34821429
vt 0.66078629 0.34821429
vt 0.66078629 0.34821429
vt 0.66078629 0.34821429
vt 0.66078629 0.34821429
vt 0.66078629 0.34821429
vt 0.66078629 0.34821429
vt 0.66078629 0.34821429
vt 0.66078629 0.34821429
vt 0.66078629 0.34821429
vt 0.66078629 0.34821429
vt 0.66078629 0.34821429
vt 0.66078629 0.34821429
vt 0.66078629 0.34821429
vt 0.66078629 0.34821429
vt 0.66078629 0.34821429
vt 0.66078629 0.34821429
vt 0.66078629 0.34821429
vt 0.66078629 0.34821429
vt 0.66078629 0.34821429
vt 0.66078629 0.34821429
vt 0.66078629 0.34821429
vt 0.66078629 0.34821429
vt 0.66078629 0.34821429
vt 0.66078629 0.34821429
vt 0.66078629 0.34821429
vt 0.27368952 0.34821429
vt 0.27368952 0.34821429
vt 0.27368952 0.34821429
vt 0.27368952 0.34821429
vt 0.27368952 0.34821429
vt 0.27368952 0.34821429
vt 0.27368952 0.34821429
vt 0.27368952 0.34821429
vt 0.27368952 0.34821429
vt 0.27368952 0.34821429
vt 0.27368952 0.34821429
vt 0.27368952 0.34821429
vt 0.27368952 0.34821429
vt 0.27368952 0.34821429
vt 0.27368952 0.34821429
vt 0.27368952 0.34821429
vt 0.27368952 0.34821429
vt 0.27368952 0.34821429
vt 0.27368952 0.34821429
vt 0.27368952 0.34821429
vt 0.27368952 0.34821429
vt 0.27368952 0.34821429
vt 0.27368952 0.34821429
vt 0.27368952 0.34821429
vt 0.27368952 0.34821429
vt 0.27368952 0.34821429
vt 0.27368952 0.34821429
vt 0.27368952 0.34821429
vt 0.27368952 0.34821429
vt 0.27368952 0.34821429
vt 0.27368952 0.34821429
vt 0.27368952 0.34821429
vt 0.27368952 0.34821429
vt 0.27368952 0.34821429
vt 0.27368952 0.34821429
vt 0.27368952 0.34821429
vt 0.27368952 0.34821429
vt 0.27368952 0.34821429
vt 0.66078629 0.34821429
vt 0.66078629 0.34821429
vt 0.66078629 0.34821429
vt 0.66078629 0.34821429
vt 0.66078629 0.34821429
vt 0.66078629 0.34821429
vt 0.66078629 0.34821429
vt 0.66078629 0.34821429
vt 0.66078629 0.34821429
vt 0.66078629 0.34821429
vt 0.66078629 0.34821429
vt 0.66078629 0.34821429
vt 0.66078629 0.34821429
vt 0.66078629 0.34821429
vt 0.66078629 0.34821429
vt 0.66078629 0.34821429
vt 0.66078629 0.34821429
vt 0.66078629 0.34821429
vt 0.66078629 0.34821429
vt 0.66078629 0.34821429
vt 0.66078629 0.34821429
vt 0.66078629 0.34821429
vt 0.27368952 0.34821429
vt 0.27368952 0.34821429
vt 0.27368952 0.34821429
vt 0.27368952 0.34821429
vt 0.27368952 0.34821429
vt 0.27368952 0.34821429
vt 0.27368952 0.34821429
vt 0.27368952 0.34821429
vt 0.27368952 0.34821429
vt 0.27368952 0.34821429
vt 0.66078629 0.34821429
vt 0.66078629 0.34821429
vt 0.66078629 0.34821429
vt 0.66078629 0.34821429
vt 0.66078629 0.34821429
vt 0.66078629 0.34821429
vt 0.66078629 0.34821429
vt 0.66078629 0.34821429
vt 0.66078629 0.34821429
vt 0.66078629 0.34821429
vt 0.66078629 0.34821429
vt 0.66078629 0.34821429
vt 0.66078629 0.34821429
vt 0.66078629 0.34821429
vt 0.66078629 0.34821429
vt 0.66078629 0.34821429
vt 0.27368952 0.34821429
vt 0.27368952 0.34821429
vt 0.27368952 0.34821429
vt 0.27368952 0.34821429
vt 0.27368952 0.34821429
vt 0.27368952 0.34821429
vt 0.27368952 0.34821429
vt 0.27368952 0.34821429
vt 0.27368952 0.34821429
vt 0.27368952 0.34821429
vt 0.27368952 0.34821429
vt 0.27368952 0.34821429
vt 0.27368952 0.34821429
vt 0.27368952 0.34821429
vt 0.27368952 0.34821429
vt 0.27368952 0.34821429
vt 0.27368952 0.34821429
vt 0.27368952 0.34821429
vt 0.27368952 0.34821429
vt 0.27368952 0.34821429
vt 0.27368952 0.34821429
vt 0.27368952 0.34821429
vt 0.27368952 0.34821429
vt 0.27368952 0.34821429
vt 0.27368952 0.34821429
vt 0.27368952 0.34821429
vt 0.27368952 0.34821429
vt 0.27368952 0.34821429
vt 0.27368952 0.34821429
vt 0.27368952 0.34821429
vt 0.27368952 0.34821429
vt 0.27368952 0.34821429
vt 0.27368952 0.34821429
vt 0.27368952 0.34821429
vt 0.27368952 0.34821429
vt 0.27368952 0.34821429
vt 0.27368952 0.34821429
vt 0.27368952 0.34821429
vt 0.27368952 0.34821429
vt 0.27368952 0.34821429
vt 0.27368952 0.34821429
vt 0.27368952 0.34821429
vt 0.27368952 0.34821429
vt 0.27368952 0.34821429
vt 0.27368952 0.34821429
vt 0.27368952 0.34821429
vt 0.27368952 0.34821429
vt 0.27368952 0.34821429
vt 0.27368952 0.34821429
vt 0.27368952 0.34821429
vt 0.27368952 0.34821429
vt 0.27368952 0.34821429
vt 0.27368952 0.34821429
vt 0.27368952 0.34821429
vt 0.27368952 0.34821429
vt 0.27368952 0.34821429
vt 0.27368952 0.34821429
vt 0.27368952 0.34821429
vt 0.27368952 0.34821429
vt 0.27368952 0.34821429
vt 0.27368952 0.34821429
vt 0.27368952 0.34821429
vt 0.27368952 0.34821429
vt 0.27368952 0.34821429
vt 0.27368952 0.34821429
vt 0.27368952 0.34821429
vt 0.27368952 0.34821429
vt 0.27368952 0.34821429
vt 0.27368952 0.34821429
vt 0.27368952 0.34821429
vt 0.27368952 0.34821429
vt 0.27368952 0.34821429
vt 0.27368952 0.34821429
vt 0.27368952 0.34821429
vt 0.27368952 0.34821429
vt 0.27368952 0.34821429
vt 0.27368952 0.34821429
vt 0.27368952 0.34821429
vt 0.27368952 0.34821429
vt 0.27368952 0.34821429
vt 0.27368952 0.34821429
vt 0.27368952 0.34821429
vt 0.27368952 0.34821429
vt 0.27368952 0.34821429
vt 0.27368952 0.34821429
vt 0.27368952 0.34821429
vt 0.27368952 0.34821429
vt 0.27368952 0.34821429
vt 0.27368952 0.34821429
vt 0.27368952 0.34821429
vt 0.27368952 0.34821429
vt 0.27368952 0.34821429
vt 0.27368952 0.34821429
vt 0.27368952 0.34821429
vt 0.27368952 0.34821429
vt 0.27368952 0.34821429
vt 0.27368952 0.34821429
vt 0.27368952 0.34821429
vt 0.27368952 0.34821429
vt 0.27368952 0.34821429
vt 0.27368952 0.34821429
vt 0.27368952 0.34821429
vt 0.27368952 0.34821429
vt 0.27368952 0.34821429
vt 0.27368952 0.34821429
vt 0.27368952 0.34821429
vt 0.27368952 0.34821429
vt 0.27368952 0.34821429
vt 0.27368952 0.34821429
vt 0.27368952 0.34821429
vt 0.27368952 0.34821429
vt 0.27368952 0.34821429
vt 0.27368952 0.34821429
vt 0.27368952 0.34821429
vt 0.27368952 0.34821429
vt 0.27368952 0.34821429
vt 0.27368952 0.34821429
vt 0.27368952 0.34821429
vt 0.27368952 0.34821429
vt 0.27368952 0.34821429
vt 0.27368952 0.34821429
vt 0.27368952 0.34821429
vt 0.27368952 0.34821429
vt 0.27368952 0.34821429
vt 0.27368952 0.34821429
vt 0.27368952 0.34821429
vt 0.27368952 0.34821429
vt 0.27368952 0.34821429
vt 0.27368952 0.34821429
vt 0.27368952 0.34821429
vt 0.27368952 0.34821429
vt 0.27368952 0.34821429
vt 0.27368952 0.34821429
vt 0.27368952 0.34821429
vt 0.27368952 0.34821429
vt 0.27368952 0.34821429
vt 0.27368952 0.34821429
vt 0.27368952 0.34821429
vt 0.27368952 0.34821429
vt 0.27368952 0.34821429
vt 0.27368952 0.34821429
vt 0.27368952 0.34821429
vt 0.27368952 0.34821429
vt 0.27368952 0.34821429
vt 0.66078629 0.34821429
vt 0.66078629 0.34821429
vt 0.66078629 0.34821429
vt 0.66078629 0.34821429
vt 0.66078629 0.34821429
vt 0.66078629 0.34821429
vt 0.66078629 0.34821429
vt 0.66078629 0.34821429
vt 0.66078629 0.34821429
vt 0.66078629 0.34821429
vt 0.66078629 0.34821429
vt 0.66078629 0.34821429
vt 0.66078629 0.34821429
vt 0.66078629 0.34821429
vt 0.66078629 0.34821429
vt 0.66078629 0.34821429
vt 0.66078629 0.34821429
vt 0.66078629 0.34821429
vt 0.46723790 0.34821429
vt 0.46723790 0.34821429
vt 0.46723790 0.34821429
vt 0.46723790 0.34821429
vt 0.46723790 0.34821429
vt 0.46723790 0.34821429
vt 0.46723790 0.34821429
vt 0.46723790 0.34821429
vt 0.46723790 0.34821429
vt 0.46723790 0.34821429
vt 0.66078629 0.34821429
vt 0.66078629 0.34821429
vt 0.66078629 0.34821429
vt 0.66078629 0.34821429
vt 0.66078629 0.34821429
vt 0.66078629 0.34821429
vt 0.66078629 0.34821429
vt 0.66078629 0.34821429
vt 0.66078629 0.34821429
vt 0.66078629 0.34821429
vt 0.66078629 0.34821429
vt 0.66078629 0.34821429
vt 0.66078629 0.34821429
vt 0.66078629 0.34821429
vt 0.66078629 0.34821429
vt 0.66078629 0.34821429
vt 0.66078629 0.34821429
vt 0.66078629 0.34821429
vt 0.66078629 0.34821429
vt 0.66078629 0.34821429
vt 0.66078629 0.34821429
vt 0.66078629 0.34821429
vt 0.66078629 0.34821429
vt 0.66078629 0.34821429
vt 0.66078629 0.34821429
vt 0.66078629 0.34821429
vt 0.66078629 0.34821429
vt 0.66078629 0.34821429
vt 0.66078629 0.34821429
vt 0.66078629 0.34821429
vt 0.66078629 0.34821429
vt 0.66078629 0.34821429
vt 0.66078629 0.34821429
vt 0.66078629 0.34821429
vt 0.66078629 0.34821429
vt 0.66078629 0.34821429
vt 0.66078629 0.34821429
vt 0.66078629 0.34821429
vt 0.66078629 0.34821429
vt 0.66078629 0.34821429
vt 0.66078629 0.34821429
vt 0.66078629 0.34821429
vt 0.66078629 0.34821429
vt 0.66078629 0.34821429
vt 0.66078629 0.34821429
vt 0.66078629 0.34821429
vt 0.66078629 0.34821429
vt 0.66078629 0.34821429
vt 0.66078629 0.34821429
vt 0.66078629 0.34821429
vt 0.66078629 0.34821429
vt 0.66078629 0.34821429
vt 0.66078629 0.34821429
vt 0.66078629 0.34821429
vt 0.66078629 0.34821429
vt 0.66078629 0.34821429
vt 0.66078629 0.34821429
vt 0.66078629 0.34821429
vt 0.66078629 0.34821429
vt 0.66078629 0.34821429
vt 0.66078629 0.34821429
vt 0.66078629 0.34821429
vt 0.66078629 0.34821429
vt 0.66078629 0.34821429
vt 0.66078629 0.34821429
vt 0.66078629 0.34821429
vt 0.66078629 0.34821429
vt 0.66078629 0.34821429
vt 0.66078629 0.34821429
vt 0.66078629 0.34821429
vt 0.66078629 0.34821429
vt 0.66078629 0.34821429
vt 0.66078629 0.34821429
vt 0.66078629 0.34821429
vt 0.66078629 0.34821429
vt 0.66078629 0.34821429
vt 0.46723790 0.34821429
vt 0.46723790 0.34821429
vt 0.46723790 0.34821429
vt 0.46723790 0.34821429
vt 0.46723790 0.34821429
vt 0.46723790 0.34821429
vt 0.46723790 0.34821429
vt 0.46723790 0.34821429
vt 0.46723790 0.34821429
vt 0.46723790 0.34821429
vt 0.66078629 0.34821429
vt 0.66078629 0.34821429
vt 0.66078629 0.34821429
vt 0.66078629 0.34821429
vt 0.66078629 0.34821429
vt 0.66078629 0.34821429
vt 0.66078629 0.34821429
vt 0.66078629 0.34821429
vt 0.66078629 0.34821429
vt 0.66078629 0.34821429
vt 0.66078629 0.34821429
vt 0.66078629 0.34821429
vt 0.66078629 0.34821429
vt 0.66078629 0.34821429
vt 0.66078629 0.34821429
vt 0.66078629 0.34821429
vt 0.66078629 0.34821429
vt 0.66078629 0.34821429
vt 0.66078629 0.34821429
vt 0.66078629 0.34821429
vt 0.66078629 0.34821429
vt 0.66078629 0.34821429
vt 0.66078629 0.34821429
vt 0.66078629 0.34821429
vt 0.66078629 0.34821429
vt 0.66078629 0.34821429
vt 0.66078629 0.34821429
vt 0.66078629 0.34821429
vt 0.66078629 0.34821429
vt 0.66078629 0.34821429
vt 0.66078629 0.34821429
vt 0.66078629 0.34821429
vt 0.66078629 0.34821429
vt 0.66078629 0.34821429
vt 0.66078629 0.34821429
vt 0.66078629 0.34821429
vt 0.46723790 0.34821429
vt 0.46723790 0.34821429
vt 0.46723790 0.34821429
vt 0.46723790 0.34821429
vt 0.46723790 0.34821429
vt 0.46723790 0.34821429
vt 0.46723790 0.34821429
vt 0.46723790 0.34821429
vt 0.46723790 0.34821429
vt 0.46723790 0.34821429
vt 0.46723790 0.34821429
vt 0.46723790 0.34821429
vt 0.46723790 0.34821429
vt 0.46723790 0.34821429
vt 0.46723790 0.34821429
vt 0.46723790 0.34821429
vt 0.46723790 0.34821429
vt 0.46723790 0.34821429
vt 0.46723790 0.34821429
vt 0.46723790 0.34821429
vt 0.46723790 0.34821429
vt 0.46723790 0.34821429
vt 0.46723790 0.34821429
vt 0.46723790 0.34821429
vt 0.46723790 0.34821429
vt 0.46723790 0.34821429
vt 0.46723790 0.34821429
vt 0.46723790 0.34821429
vt 0.66078629 0.34821429
vt 0.66078629 0.34821429
vt 0.66078629 0.34821429
vt 0.66078629 0.34821429
vt 0.66078629 0.34821429
vt 0.66078629 0.34821429
vt 0.66078629 0.34821429
vt 0.66078629 0.34821429
vt 0.66078629 0.34821429
vt 0.66078629 0.34821429
vt 0.66078629 0.34821429
vt 0.66078629 0.34821429
vt 0.66078629 0.34821429
vt 0.66078629 0.34821429
vt 0.66078629 0.34821429
vt 0.66078629 0.34821429
vt 0.66078629 0.34821429
vt 0.66078629 0.34821429
vt 0.66078629 0.34821429
vt 0.66078629 0.34821429
vt 0.66078629 0.34821429
vt 0.66078629 0.34821429
vt 0.66078629 0.34821429
vt 0.66078629 0.34821429
vt 0.66078629 0.34821429
vt 0.66078629 0.34821429
vt 0.66078629 0.34821429
vt 0.66078629 0.34821429
vt 0.66078629 0.34821429
vt 0.66078629 0.34821429
vt 0.66078629 0.34821429
vt 0.66078629 0.34821429
vt 0.46723790 0.34821429
vt 0.46723790 0.34821429
vt 0.46723790 0.34821429
vt 0.46723790 0.34821429
vt 0.46723790 0.34821429
vt 0.46723790 0.34821429
vt 0.46723790 0.34821429
vt 0.46723790 0.34821429
vt 0.46723790 0.34821429
vt 0.46723790 0.34821429
vt 0.46723790 0.34821429
vt 0.46723790 0.34821429
vt 0.46723790 0.34821429
vt 0.46723790 0.34821429
vt 0.46723790 0.34821429
vt 0.46723790 0.34821429
vt 0.46723790 0.34821429
vt 0.46723790 0.34821429
vt 0.46723790 0.34821429
vt 0.46723790 0.34821429
vt 0.46723790 0.34821429
vt 0.46723790 0.34821429
vt 0.46723790 0.34821429
vt 0.46723790 0.34821429
vt 0.46723790 0.34821429
vt 0.46723790 0.34821429
vt 0.46723790 0.34821429
vt 0.46723790 0.34821429
vt 0.46723790 0.34821429
vt 0.46723790 0.34821429
vt 0.46723790 0.34821429
vt 0.46723790 0.34821429
vt 0.66078629 0.34821429
vt 0.66078629 0.34821429
vt 0.66078629 0.34821429
vt 0.66078629 0.34821429
vt 0.66078629 0.34821429
vt 0.66078629 0.34821429
vt 0.66078629 0.34821429
vt 0.66078629 0.34821429
vt 0.66078629 0.34821429
vt 0.66078629 0.34821429
vt 0.66078629 0.34821429
vt 0.66078629 0.34821429
vt 0.66078629 0.34821429
vt 0.66078629 0.34821429
vt 0.66078629 0.34821429
vt 0.66078629 0.34821429
vt 0.66078629 0.34821429
vt 0.66078629 0.34821429
vt 0.66078629 0.34821429
vt 0.66078629 0.34821429
vt 0.66078629 0.34821429
vt 0.66078629 0.34821429
vt 0.66078629 0.34821429
vt 0.66078629 0.34821429
vt 0.66078629 0.34821429
vt 0.66078629 0.34821429
vt 0.66078629 0.34821429
vt 0.66078629 0.34821429
vt 0.66078629 0.34821429
vt 0.66078629 0.34821429
vt 0.66078629 0.34821429
vt 0.66078629 0.34821429
vt 0.46723790 0.34821429
vt 0.46723790 0.34821429
vt 0.46723790 0.34821429
vt 0.46723790 0.34821429
vt 0.46723790 0.34821429
vt 0.46723790 0.34821429
vt 0.46723790 0.34821429
vt 0.46723790 0.34821429
vt 0.46723790 0.34821429
vt 0.46723790 0.34821429
vt 0.46723790 0.34821429
vt 0.46723790 0.34821429
vt 0.46723790 0.34821429
vt 0.46723790 0.34821429
vt 0.46723790 0.34821429
vt 0.46723790 0.34821429
vt 0.46723790 0.34821429
vt 0.46723790 0.34821429
vt 0.46723790 0.34821429
vt 0.46723790 0.34821429
vt 0.46723790 0.34821429
vt 0.46723790 0.34821429
vt 0.46723790 0.34821429
vt 0.46723790 0.34821429
vt 0.46723790 0.34821429
vt 0.46723790 0.34821429
vt 0.46723790 0.34821429
vt 0.46723790 0.34821429
vt 0.46723790 0.34821429
vt 0.46723790 0.34821429
vt 0.46723790 0.34821429
vt 0.46723790 0.34821429
vt 0.66078629 0.34821429
vt 0.66078629 0.34821429
vt 0.66078629 0.34821429
vt 0.66078629 0.34821429
vt 0.66078629 0.34821429
vt 0.66078629 0.34821429
vt 0.66078629 0.34821429
vt 0.66078629 0.34821429
vt 0.66078629 0.34821429
vt 0.66078629 0.34821429
vt 0.66078629 0.34821429
vt 0.66078629 0.34821429
vt 0.66078629 0.34821429
vt 0.66078629 0.34821429
vt 0.66078629 0.34821429
vt 0.66078629 0.34821429
vt 0.66078629 0.34821429
vt 0.66078629 0.34821429
vt 0.66078629 0.34821429
vt 0.66078629 0.34821429
vt 0.66078629 0.34821429
vt 0.66078629 0.34821429
vt 0.66078629 0.34821429
vt 0.66078629 0.34821429
vt 0.66078629 0.34821429
vt 0.66078629 0.34821429
vt 0.66078629 0.34821429
vt 0.66078629 0.34821429
vt 0.66078629 0.34821429
vt 0.66078629 0.34821429
vt 0.66078629 0.34821429
vt 0.66078629 0.34821429
vt 0.46723790 0.34821429
vt 0.46723790 0.34821429
vt 0.46723790 0.34821429
vt 0.46723790 0.34821429
vt 0.46723790 0.34821429
vt 0.46723790 0.34821429
vt 0.46723790 0.34821429
vt 0.46723790 0.34821429
vt 0.46723790 0.34821429
vt 0.46723790 0.34821429
vt 0.46723790 0.34821429
vt 0.46723790 0.34821429
vt 0.46723790 0.34821429
vt 0.46723790 0.34821429
vt 0.46723790 0.34821429
vt 0.46723790 0.34821429
vt 0.46723790 0.34821429
vt 0.46723790 0.34821429
vt 0.46723790 0.34821429
vt 0.46723790 0.34821429
vt 0.46723790 0.34821429
vt 0.46723790 0.34821429
vt 0.46723790 0.34821429
vt 0.46723790 0.34821429
vt 0.46723790 0.34821429
vt 0.46723790 0.34821429
vt 0.46723790 0.34821429
vt 0.46723790 0.34821429
vt 0.46723790 0.34821429
vt 0.46723790 0.34821429
vt 0.46723790 0.34821429
vt 0.46723790 0.34821429
vt 0.66078629 0.34821429
vt 0.66078629 0.34821429
vt 0.66078629 0.34821429
vt 0.66078629 0.34821429
vt 0.66078629 0.34821429
vt 0.66078629 0.34821429
vt 0.66078629 0.34821429
vt 0.66078629 0.34821429
vt 0.66078629 0.34821429
vt 0.66078629 0.34821429
vt 0.66078629 0.34821429
vt 0.66078629 0.34821429
vt 0.66078629 0.34821429
vt 0.66078629 0.34821429
vt 0.66078629 0.34821429
vt 0.66078629 0.34821429
vt 0.66078629 0.34821429
vt 0.66078629 0.34821429
vt 0.66078629 0.34821429
vt 0.66078629 0.34821429
vt 0.66078629 0.34821429
vt 0.66078629 0.34821429
vt 0.66078629 0.34821429
vt 0.66078629 0.34821429
vt 0.66078629 0.34821429
vt 0.66078629 0.34821429
vt 0.66078629 0.34821429
vt 0.66078629 0.34821429
vt 0.66078629 0.34821429
vt 0.66078629 0.34821429
vt 0.66078629 0.34821429
vt 0.66078629 0.34821429
vt 0.27368952 0.34821429
vt 0.27368952 0.34821429
vt 0.27368952 0.34821429
vt 0.27368952 0.34821429
vt 0.27368952 0.34821429
vt 0.27368952 0.34821429
vt 0.27368952 0.34821429
vt 0.27368952 0.34821429
vt 0.27368952 0.34821429
vt 0.27368952 0.34821429
vt 0.27368952 0.34821429
vt 0.27368952 0.34821429
vt 0.27368952 0.34821429
vt 0.27368952 0.34821429
vt 0.27368952 0.34821429
vt 0.27368952 0.34821429
vt 0.27368952 0.34821429
vt 0.27368952 0.34821429
vt 0.27368952 0.34821429
vt 0.27368952 0.34821429
vt 0.27368952 0.34821429
vt 0.27368952 0.34821429
vt 0.27368952 0.34821429
vt 0.27368952 0.34821429
vt 0.27368952 0.34821429
vt 0.27368952 0.34821429
vt 0.46723790 0.34821429
vt 0.46723790 0.34821429
vt 0.46723790 0.34821429
vt 0.46723790 0.34821429
vt 0.46723790 0.34821429
vt 0.46723790 0.34821429
vt 0.46723790 0.34821429
vt 0.46723790 0.34821429
vt 0.46723790 0.34821429
vt 0.46723790 0.34821429
vt 0.46723790 0.34821429
vt 0.46723790 0.34821429
vt 0.46723790 0.34821429
vt 0.46723790 0.34821429
vt 0.66078629 0.34821429
vt 0.66078629 0.34821429
vt 0.66078629 0.34821429
vt 0.66078629 0.34821429
vt 0.66078629 0.34821429
vt 0.66078629 0.34821429
vt 0.66078629 0.34821429
vt 0.66078629 0.34821429
vt 0.66078629 0.34821429
vt 0.66078629 0.34821429
vt 0.66078629 0.34821429
vt 0.66078629 0.34821429
vt 0.66078629 0.34821429
vt 0.66078629 0.34821429
vt 0.66078629 0.34821429
vt 0.66078629 0.34821429
vt 0.66078629 0.34821429
vt 0.66078629 0.34821429
vt 0.66078629 0.34821429
vt 0.66078629 0.34821429
vt 0.66078629 0.34821429
vt 0.66078629 0.34821429
vt 0.66078629 0.34821429
vt 0.66078629 0.34821429
vt 0.66078629 0.34821429
vt 0.66078629 0.34821429
vt 0.66078629 0.34821429
vt 0.66078629 0.34821429
vt 0.66078629 0.34821429
vt 0.66078629 0.34821429
vt 0.46723790 0.34821429
vt 0.46723790 0.34821429
vt 0.46723790 0.34821429
vt 0.46723790 0.34821429
vt 0.46723790 0.34821429
vt 0.46723790 0.34821429
vt 0.46723790 0.34821429
vt 0.46723790 0.34821429
vt 0.46723790 0.34821429
vt 0.46723790 0.34821429
vt 0.46723790 0.34821429
vt 0.46723790 0.34821429
vt 0.46723790 0.34821429
vt 0.46723790 0.34821429
vt 0.08014113 0.34821429
vt 0.08014113 0.34821429
vt 0.08014113 0.34821429
vt 0.08014113 0.34821429
vt 0.08014113 0.34821429
vt 0.08014113 0.34821429
vt 0.08014113 0.34821429
vt 0.08014113 0.34821429
vt 0.08014113 0.34821429
vt 0.08014113 0.34821429
vt 0.08014113 0.34821429
vt 0.08014113 0.34821429
vt 0.08014113 0.34821429
vt 0.08014113 0.34821429
vt 0.08014113 0.34821429
vt 0.08014113 0.34821429
vt 0.08014113 0.34821429
vt 0.08014113 0.34821429
vt 0.08014113 0.34821429
vt 0.08014113 0.34821429
vt 0.08014113 0.34821429
vt 0.08014113 0.34821429
vt 0.08014113 0.34821429
vt 0.08014113 0.34821429
vt 0.08014113 0.34821429
vt 0.08014113 0.34821429
vt 0.08014113 0.34821429
vt 0.08014113 0.34821429
vt 0.08014113 0.34821429
vt 0.08014113 0.34821429
vt 0.08014113 0.34821429
vt 0.08014113 0.34821429
vt 0.27368952 0.34821429
vt 0.27368952 0.34821429
vt 0.27368952 0.34821429
vt 0.27368952 0.34821429
vt 0.27368952 0.34821429
vt 0.27368952 0.34821429
vt 0.27368952 0.34821429
vt 0.27368952 0.34821429
vt 0.27368952 0.34821429
vt 0.27368952 0.34821429
vt 0.27368952 0.34821429
vt 0.27368952 0.34821429
vt 0.27368952 0.34821429
vt 0.27368952 0.34821429
vt 0.27368952 0.34821429
vt 0.27368952 0.34821429
vt 0.27368952 0.34821429
f 1/1 2/2 3/3
f 4/4 1/1 5/5
f 6/6 4/4 7/7
f 8/8 6/6 9/9
f 10/10 8/8 11/11
f 12/12 10/10 13/13
f 14/14 12/12 15/15
f 16/16 14/14 17/17
f 18/18 16/16 19/19
f 20/20 18/18 21/21
f 22/22 20/20 23/23
f 24/24 22/22 25/25
f 26/26 24/24 27/27
f 28/28 26/26 29/29
f 30/30 28/28 31/31
f 2/2 30/30 32/32
f 32/32 3/3 2/2
f 31/31 32/32 30/30
f 29/29 31/31 28/28
f 27/27 29/29 26/26
f 25/25 27/27 24/24
f 23/23 25/25 22/22
f 21/21 23/23 20/20
f 19/19 21/21 18/18
f 17/17 19/19 16/16
f 15/15 17/17 14/14
f 13/13 15/15 12/12
f 11/11 13/13 10/10
f 9/9 11/11 8/8
f 7/7 9/9 6/6
f 5/5 7/7 4/4
f 3/3 5/5 1/1
f 33/33 34/34 35/35
f 36/36 37/37 38/38
f 39/39 38/38 37/37
f 40/40 41/41 42/42
f 43/43 44/44 41/41
f 45/45 35/35 44/44
f 35/35 45/45 33/33
f 37/37 46/46 39/39
f 46/46 47/47 48/48
f 49/49 50/50 47/47
f 51/51 49/49 52/52
f 53/53 42/42 54/54
f 41/41 40/40 43/43
f 33/33 55/55 34/34
f 48/48 39/39 46/46
f 49/49 51/51 50/50
f 54/54 52/52 53/53
f 44/44 43/43 45/45
f 47/47 46/46 49/49
f 42/42 53/53 40/40
f 55/55 56/56 57/57
f 56/56 58/58 59/59
f 52/52 54/54 51/51
f 59/59 57/57 56/56
f 58/58 60/60 61/61
f 60/60 36/36 62/62
f 57/57 34/34 55/55
f 62/62 61/61 60/60
f 61/61 59/59 58/58
f 38/38 62/62 36/36
f 63/63 64/64 65/65
f 64/64 63/63 66/66
f 66/66 67/67 64/64
f 68/68 69/69 67/67
f 67/67 66/66 68/68
f 70/70 71/71 69/69
f 72/72 73/73 74/74
f 75/75 63/63 76/76
f 69/69 68/68 70/70
f 77/77 78/78 71/71
f 79/79 80/80 72/72
f 73/73 81/81 82/82
f 76/76 83/83 75/75
f 71/71 70/70 77/77
f 84/84 85/85 78/78
f 80/80 79/79 85/85
f 82/82 74/74 73/73
f 81/81 86/86 87/87
f 65/65 76/76 63/63
f 85/85 84/84 80/80
f 87/87 82/82 81/81
f 86/86 88/88 89/89
f 88/88 90/90 91/91
f 92/92 91/91 90/90
f 78/78 77/77 84/84
f 89/89 87/87 86/86
f 90/90 75/75 92/92
f 74/74 79/79 72/72
f 83/83 92/92 75/75
f 91/91 89/89 88/88
f 93/93 94/94 95/95
f 96/96 95/95 97/97
f 98/98 97/97 99/99
f 100/100 99/99 101/101
f 102/102 101/101 103/103
f 104/104 103/103 105/105
f 106/106 105/105 107/107
f 108/108 107/107 109/109
f 110/110 109/109 111/111
f 112/112 111/111 113/113
f 114/114 113/113 115/115
f 115/115 116/116 114/114
f 113/113 114/114 112/112
f 111/111 112/112 110/110
f 109/109 110/110 108/108
f 107/107 108/108 106/106
f 105/105 106/106 104/104
f 103/103 104/104 102/102
f 101/101 102/102 100/100
f 99/99 100/100 98/98
f 97/97 98/98 96/96
f 95/95 96/96 93/93
f 117/117 118/118 119/119
f 119/119 120/120 117/117
f 121/121 122/122 123/123
f 123/123 124/124 121/121
f 125/125 126/126 127/127
f 128/128 129/129 130/130
f 131/131 125/125 132/132
f 125/125 133/133 126/126
f 128/128 134/134 129/129
f 135/135 136/136 134/134
f 127/127 132/132 125/125
f 134/134 128/128 135/135
f 131/131 137/137 125/125
f 132/132 134/134 136/136
f 130/130 138/138 128/128
f 139/139 137/137 131/131
f 136/136 140/140 132/132
f 131/131 135/135 139/139
f 128/128 139/139 135/135
f 132/132 140/140 131/131
f 141/141 142/142 143/143
f 143/143 144/144 141/141
f 145/145 146/146 147/147
f 148/148 145/145 149/149
f 150/150 148/148 151/151
f 152/152 150/150 153/153
f 153/153 154/154 152/152
f 151/151 153/153 150/150
f 149/149 151/151 148/148
f 147/147 149/149 145/145
f 155/155 156/156 157/157
f 157/157 158/158 155/155
f 156/156 159/159 157/157
f 158/158 160/160 155/155
f 161/161 162/162 163/163
f 163/163 164/164 161/161
f 165/165 166/166 162/162
f 162/162 167/167 165/165
f 168/168 165/165 169/169
f 170/170 168/168 171/171
f 168/168 172/172 171/171
f 171/171 173/173 170/170
f 169/169 172/172 168/168
f 167/167 169/169 165/165
f 166/166 163/163 162/162
f 164/164 174/174 161/161
f 175/175 176/176 177/177
f 178/178 179/179 180/180
f 178/178 181/181 182/182
f 183/183 181/181 178/178
f 177/177 176/176 184/184
f 180/180 175/175 178/178
f 178/178 185/185 183/183
f 177/177 178/178 175/175
f 186/186 187/187 177/177
f 177/177 188/188 189/189
f 184/184 188/188 177/177
f 189/189 190/190 177/177
f 177/177 190/190 186/186
f 182/182 179/179 178/178
f 191/191 192/192 193/193
f 194/194 193/193 195/195
f 196/196 195/195 197/197
f 198/198 197/197 199/199
f 199/199 200/200 198/198
f 197/197 198/198 196/196
f 195/195 196/196 194/194
f 193/193 194/194 191/191
f 201/201 202/202 203/203
f 203/203 204/204 201/201
f 205/205 206/206 207/207
f 207/207 208/208 205/205
f 208/208 209/209 210/210
f 210/210 211/211 208/208
f 211/211 212/212 213/213
f 211/211 210/210 212/212
f 213/213 214/214 211/211
f 213/213 215/215 214/214
f 216/216 217/217 215/215
f 216/216 218/218 217/217
f 215/215 213/213 216/216
f 207/207 209/209 208/208
f 219/219 220/220 221/221
f 222/222 221/221 223/223
f 224/224 223/223 225/225
f 226/226 225/225 227/227
f 227/227 228/228 226/226
f 225/225 226/226 224/224
f 223/223 224/224 222/222
f 221/221 222/222 219/219
f 229/229 230/230 231/231
f 231/231 232/232 229/229
f 233/233 234/234 235/235
f 236/236 235/235 237/237
f 238/238 237/237 239/239
f 240/240 239/239 241/241
f 241/241 242/242 240/240
f 239/239 240/240 238/238
f 237/237 238/238 236/236
f 235/235 236/236 233/233
f 243/243 244/244 245/245
f 246/246 245/245 244/244
f 247/247 248/248 249/249
f 248/248 243/243 250/250
f 244/244 251/251 246/246
f 252/252 253/253 246/246
f 254/254 255/255 256/256
f 257/257 256/256 255/255
f 258/258 259/259 260/260
f 247/247 261/261 260/260
f 250/250 249/249 248/248
f 246/246 251/251 252/252
f 262/262 254/254 263/263
f 255/255 264/264 257/257
f 260/260 259/259 247/247
f 245/245 250/250 243/243
f 262/262 265/265 253/253
f 256/256 263/263 254/254
f 249/249 261/261 247/247
f 263/263 265/265 262/262
f 253/253 252/252 262/262
f 260/260 266/266 258/258
f 267/267 268/268 269/269
f 270/270 271/271 269/269
f 269/269 268/268 270/270
f 269/269 272/272 267/267
f 273/273 274/274 275/275
f 276/276 277/277 275/275
f 275/275 274/274 276/276
f 275/275 278/278 273/273
f 279/279 280/280 281/281
f 281/281 282/282 279/279
f 283/283 284/284 285/285
f 286/286 287/287 284/284
f 284/284 283/283 286/286
f 285/285 288/288 283/283
f 289/289 290/290 291/291
f 292/292 289/289 293/293
f 294/294 292/292 295/295
f 296/296 294/294 297/297
f 297/297 298/298 296/296
f 295/295 297/297 294/294
f 293/293 295/295 292/292
f 291/291 293/293 289/289
f 299/299 300/300 301/301
f 302/302 301/301 303/303
f 304/304 303/303 305/305
f 306/306 305/305 307/307
f 307/307 308/308 306/306
f 305/305 306/306 304/304
f 303/303 304/304 302/302
f 301/301 302/302 299/299
f 309/309 310/310 311/311
f 312/312 310/310 309/309
f 309/309 313/313 312/312
f 313/313 314/314 315/315
f 316/316 317/317 318/318
f 319/319 311/311 318/318
f 315/315 312/312 313/313
f 320/320 321/321 315/315
f 322/322 323/323 324/324
f 325/325 324/324 323/323
f 318/318 317/317 319/319
f 315/315 314/314 320/320
f 322/322 326/326 321/321
f 323/323 327/327 325/325
f 328/328 329/329 330/330
f 329/329 316/316 331/331
f 311/311 319/319 309/309
f 324/324 326/326 322/322
f 331/331 330/330 329/329
f 321/321 320/320 322/322
f 318/318 331/331 316/316
f 330/330 332/332 328/328
f 333/333 334/334 335/335
f 336/336 333/333 337/337
f 338/338 336/336 339/339
f 340/340 338/338 341/341
f 341/341 342/342 340/340
f 339/339 341/341 338/338
f 337/337 339/339 336/336
f 335/335 337/337 333/333
f 343/343 344/344 345/345
f 345/345 346/346 343/343
f 347/347 348/348 349/349
f 350/350 347/347 351/351
f 352/352 350/350 353/353
f 354/354 352/352 355/355
f 355/355 356/356 354/354
f 353/353 355/355 352/352
f 351/351 353/353 350/350
f 349/349 351/351 347/347
f 357/357 358/358 359/359
f 360/360 361/361 357/357
f 360/360 362/362 363/363
f 363/363 361/361 360/360
f 359/359 360/360 357/357
f 364/364 365/365 366/366
f 364/364 367/367 368/368
f 360/360 369/369 362/362
f 364/364 370/370 371/371
f 368/368 365/365 364/364
f 372/372 373/373 362/362
f 374/374 375/375 376/376
f 366/366 370/370 364/364
f 373/373 377/377 378/378
f 378/378 374/374 379/379
f 369/369 372/372 362/362
f 376/376 380/380 374/374
f 371/371 381/381 364/364
f 379/379 382/382 378/378
f 372/372 383/383 373/373
f 375/375 384/384 376/376
f 385/385 386/386 364/364
f 383/383 377/377 373/373
f 380/380 387/387 374/374
f 375/375 388/388 389/389
f 381/381 385/385 364/364
f 390/390 391/391 388/388
f 385/385 391/391 390/390
f 374/374 392/392 379/379
f 389/389 384/384 375/375
f 385/385 393/393 386/386
f 390/390 393/393 385/385
f 387/387 392/392 374/374
f 388/388 375/375 390/390
f 364/364 394/394 367/367
f 378/378 382/382 373/373
f 395/395 396/396 397/397
f 398/398 399/399 397/397
f 397/397 396/396 398/398
f 397/397 400/400 395/395
f 401/401 402/402 403/403
f 404/404 405/405 403/403
f 403/403 402/402 404/404
f 403/403 406/406 401/401
f 407/407 408/408 409/409
f 410/410 407/407 411/411
f 412/412 410/410 413/413
f 414/414 412/412 415/415
f 415/415 416/416 414/414
f 413/413 415/415 412/412
f 411/411 413/413 410/410
f 409/409 411/411 407/407
f 417/417 418/418 419/419
f 419/419 420/420 417/417
f 421/421 422/422 423/423
f 423/423 417/417 421/421
f 423/423 424/424 417/417
f 424/424 425/425 417/417
f 425/425 418/418 417/417
f 419/419 426/426 420/420
f 427/427 428/428 429/429
f 430/430 431/431 428/428
f 428/428 427/427 430/430
f 429/429 432/432 427/427
f 433/433 434/434 435/435
f 436/436 435/435 437/437
f 438/438 437/437 439/439
f 440/440 439/439 441/441
f 441/441 442/442 440/440
f 439/439 440/440 438/438
f 437/437 438/438 436/436
f 435/435 436/436 433/433
f 443/443 444/444 445/445
f 444/444 446/446 445/445
f 444/444 447/447 446/446
f 444/444 448/448 447/447
f 444/444 449/449 450/450
f 449/449 451/451 450/450
f 450/450 448/448 444/444
f 445/445 452/452 443/443
f 453/453 454/454 455/455
f 455/455 456/456 453/453
f 457/457 458/458 459/459
f 459/459 460/460 457/457
f 461/461 462/462 463/463
f 457/457 464/464 465/465
f 457/457 466/466 458/458
f 461/461 467/467 462/462
f 468/468 469/469 470/470
f 460/460 464/464 457/457
f 471/471 472/472 473/473
f 472/472 471/471 474/474
f 470/470 461/461 468/468
f 475/475 476/476 457/457
f 474/474 477/477 472/472
f 463/463 468/468 461/461
f 465/465 475/475 457/457
f 472/472 478/478 476/476
f 473/473 479/479 480/480
f 468/468 481/481 469/469
f 476/476 475/475 472/472
f 473/473 480/480 471/471
f 473/473 469/469 482/482
f 481/481 483/483 469/469
f 477/477 478/478 472/472
f 483/483 482/482 469/469
f 482/482 479/479 473/473
f 457/457 484/484 466/466
f 485/485 486/486 487/487
f 488/488 487/487 489/489
f 490/490 489/489 491/491
f 492/492 491/491 493/493
f 494/494 493/493 495/495
f 496/496 495/495 497/497
f 498/498 497/497 499/499
f 499/499 500/500 498/498
f 497/497 498/498 496/496
f 495/495 496/496 494/494
f 493/493 494/494 492/492
f 491/491 492/492 490/490
f 489/489 490/490 488/488
f 487/487 488/488 485/485
f 501/501 502/502 503/503
f 504/504 505/505 503/503
f 503/503 502/502 504/504
f 504/504 506/506 507/507
f 508/508 509/509 510/510
f 510/510 509/509 511/511
f 511/511 512/512 510/510
f 508/508 513/513 509/509
f 501/501 514/514 515/515
f 515/515 516/516 513/513
f 514/514 517/517 516/516
f 516/516 515/515 514/514
f 513/513 508/508 515/515
f 515/515 518/518 501/501
f 510/510 519/519 508/508
f 507/507 505/505 504/504
f 503/503 514/514 501/501
f 520/520 521/521 522/522
f 523/523 520/520 524/524
f 524/524 525/525 523/523
f 525/525 526/526 523/523
f 526/526 527/527 523/523
f 522/522 524/524 520/520
f 528/528 529/529 530/530
f 529/529 531/531 532/532
f 529/529 533/533 531/531
f 532/532 530/530 529/529
f 530/530 534/534 528/528
f 528/528 534/534 535/535
f 536/536 537/537 538/538
f 539/539 538/538 540/540
f 541/541 540/540 542/542
f 543/543 542/542 544/544
f 545/545 544/544 546/546
f 547/547 546/546 548/548
f 549/549 548/548 550/550
f 550/550 551/551 549/549
f 548/548 549/549 547/547
f 546/546 547/547 545/545
f 544/544 545/545 543/543
f 542/542 543/543 541/541
f 540/540 541/541 539/539
f 538/538 539/539 536/536
f 552/552 553/553 554/554
f 552/552 555/555 556/556
f 557/557 558/558 556/556
f 556/556 555/555 557/557
f 558/558 559/559 560/560
f 559/559 561/561 562/562
f 562/562 560/560 559/559
f 557/557 563/563 559/559
f 559/559 558/558 557/557
f 564/564 565/565 566/566
f 566/566 567/567 564/564
f 562/562 561/561 568/568
f 568/568 564/564 562/562
f 567/567 562/562 564/564
f 560/560 569/569 558/558
f 556/556 553/553 552/552
f 554/554 570/570 552/552
f 571/571 572/572 573/573
f 574/574 575/575 572/572
f 574/574 576/576 575/575
f 574/574 577/577 576/576
f 572/572 571/571 574/574
f 573/573 578/578 571/571
f 579/579 580/580 581/581
f 581/581 582/582 579/579
f 583/583 584/584 580/580
f 580/580 579/579 583/583
f 582/582 585/585 579/579
f 584/584 583/583 586/586
f 587/587 588/588 589/589
f 590/590 591/591 592/592
f 589/589 592/592 587/587
f 593/593 594/594 595/595
f 587/587 596/596 588/588
f 597/597 588/588 596/596
f 595/595 598/598 593/593
f 599/599 594/594 600/600
f 596/596 601/601 597/597
f 601/601 602/602 603/603
f 603/603 602/602 598/598
f 600/600 604/604 599/599
f 603/603 597/597 601/601
f 593/593 600/600 594/594
f 598/598 595/595 603/603
f 591/591 590/590 599/599
f 599/599 604/604 591/591
f 592/592 589/589 590/590
f 605/605 606/606 607/607
f 606/606 608/608 609/609
f 610/610 611/611 609/609
f 609/609 607/607 606/606
f 610/610 612/612 611/611
f 609/609 608/608 610/610
f 607/607 613/613 605/605
f 613/613 614/614 605/605
f 615/615 616/616 617/617
f 618/618 615/615 619/619
f 620/620 618/618 621/621
f 621/621 622/622 620/620
f 619/619 621/621 618/618
f 617/617 619/619 615/615
f 623/623 624/624 625/625
f 626/626 625/625 624/624
f 624/624 627/627 626/626
f 623/623 628/628 629/629
f 629/629 624/624 623/623
f 630/630 629/629 628/628
f 628/628 631/631 630/630
f 632/632 633/633 628/628
f 628/628 623/623 632/632
f 625/625 634/634 623/623
f 635/635 636/636 637/637
f 638/638 637/637 636/636
f 636/636 639/639 638/638
f 635/635 640/640 641/641
f 641/641 636/636 635/635
f 642/642 641/641 640/640
f 640/640 643/643 642/642
f 644/644 645/645 640/640
f 640/640 635/635 644/644
f 637/637 646/646 635/635
f 647/647 648/648 649/649
f 650/650 647/647 651/651
f 652/652 650/650 653/653
f 654/654 652/652 655/655
f 656/656 654/654 657/657
f 657/657 658/658 656/656
f 655/655 657/657 654/654
f 653/653 655/655 652/652
f 651/651 653/653 650/650
f 649/649 651/651 647/647
f 659/659 660/660 661/661
f 662/662 661/661 660/660
f 660/660 663/663 662/662
f 662/662 663/663 664/664
f 665/665 664/664 666/666
f 667/667 668/668 669/669
f 664/664 665/665 662/662
f 669/669 666/666 667/667
f 666/666 669/669 665/665
f 661/661 670/670 659/659
f 671/671 672/672 673/673
f 674/674 673/673 675/675
f 676/676 675/675 677/677
f 678/678 677/677 679/679
f 680/680 679/679 681/681
f 681/681 682/682 680/680
f 679/679 680/680 678/678
f 677/677 678/678 676/676
f 675/675 676/676 674/674
f 673/673 674/674 671/671
f 683/683 684/684 685/685
f 686/686 683/683 687/687
f 688/688 686/686 689/689
f 689/689 690/690 688/688
f 687/687 689/689 686/686
f 685/685 687/687 683/683
f 691/691 692/692 693/693
f 693/693 694/694 691/691
f 695/695 696/696 693/693
f 697/697 698/698 696/696
f 693/693 692/692 695/695
f 697/697 699/699 698/698
f 696/696 695/695 697/697
f 694/694 700/700 691/691
f 701/701 702/702 703/703
f 704/704 701/701 705/705
f 706/706 704/704 707/707
f 708/708 706/706 709/709
f 710/710 708/708 711/711
f 711/711 712/712 710/710
f 709/709 711/711 708/708
f 707/707 709/709 706/706
f 705/705 707/707 704/704
f 703/703 705/705 701/701
f 713/713 714/714 715/715
f 716/716 713/713 717/717
f 718/718 715/715 714/714
f 717/717 719/719 716/716
f 716/716 719/719 720/720
f 721/721 722/722 723/723
f 715/715 717/717 713/713
f 723/723 720/720 721/721
f 720/720 723/723 716/716
f 714/714 724/724 718/718
f 725/725 726/726 727/727
f 728/728 727/727 729/729
f 730/730 729/729 731/731
f 732/732 731/731 733/733
f 734/734 733/733 735/735
f 735/735 736/736 734/734
f 733/733 734/734 732/732
f 731/731 732/732 730/730
f 729/729 730/730 728/728
f 727/727 728/728 725/725
f 737/737 738/738 739/739
f 740/740 741/741 738/738
f 742/742 743/743 744/744
f 745/745 746/746 743/743
f 739/739 745/745 737/737
f 738/738 737/737 740/740
f 747/747 748/748 749/749
f 750/750 751/751 752/752
f 753/753 754/754 751/751
f 755/755 756/756 754/754
f 743/743 742/742 745/745
f 740/740 757/757 741/741
f 757/757 747/747 758/758
f 748/748 759/759 749/749
f 751/751 750/750 753/753
f 754/754 753/753 755/755
f 760/760 761/761 762/762
f 761/761 742/742 763/763
f 739/739 746/746 745/745
f 749/749 758/758 747/747
f 755/755 760/760 756/756
f 763/763 762/762 761/761
f 758/758 741/741 757/757
f 748/748 750/750 764/764
f 762/762 756/756 760/760
f 764/764 759/759 748/748
f 744/744 763/763 742/742
f 752/752 764/764 750/750
f 765/765 766/766 767/767
f 768/768 765/765 769/769
f 770/770 768/768 771/771
f 772/772 770/770 773/773
f 774/774 772/772 775/775
f 776/776 774/774 777/777
f 778/778 776/776 779/779
f 780/780 778/778 781/781
f 782/782 780/780 783/783
f 784/784 782/782 785/785
f 786/786 784/784 787/787
f 788/788 786/786 789/789
f 790/790 788/788 791/791
f 792/792 790/790 793/793
f 794/794 792/792 795/795
f 766/766 794/794 796/796
f 796/796 767/767 766/766
f 795/795 796/796 794/794
f 793/793 795/795 792/792
f 791/791 793/793 790/790
f 789/789 791/791 788/788
f 787/787 789/789 786/786
f 785/785 787/787 784/784
f 783/783 785/785 782/782
f 781/781 783/783 780/780
f 779/779 781/781 778/778
f 777/777 779/779 776/776
f 775/775 777/777 774/774
f 773/773 775/775 772/772
f 771/771 773/773 770/770
f 769/769 771/771 768/768
f 767/767 769/769 765/765
f 797/797 798/798 799/799
f 800/800 801/801 798/798
f 798/798 797/797 800/800
f 802/802 803/803 801/801
f 801/801 800/800 802/802
f 802/802 804/804 805/805
f 806/806 807/807 808/808
f 806/806 809/809 799/799
f 805/805 803/803 802/802
f 804/804 810/810 811/811
f 799/799 807/807 806/806
f 811/811 805/805 804/804
f 799/799 809/809 797/797
f 810/810 812/812 813/813
f 814/814 815/815 813/813
f 814/814 816/816 817/817
f 818/818 819/819 820/820
f 821/821 822/822 819/819
f 813/813 811/811 810/810
f 817/817 815/815 814/814
f 816/816 823/823 820/820
f 819/819 818/818 821/821
f 813/813 812/812 814/814
f 820/820 823/823 818/818
f 824/824 825/825 826/826
f 827/827 808/808 826/826
f 820/820 817/817 816/816
f 821/821 824/824 828/828
f 826/826 825/825 827/827
f 828/828 822/822 821/821
f 808/808 827/827 806/806
f 826/826 828/828 824/824
f 829/829 830/830 831/831
f 832/832 829/829 833/833
f 834/834 832/832 835/835
f 836/836 834/834 837/837
f 838/838 836/836 839/839
f 840/840 838/838 841/841
f 842/842 840/840 843/843
f 844/844 842/842 845/845
f 846/846 844/844 847/847
f 848/848 846/846 849/849
f 850/850 848/848 851/851
f 852/852 850/850 853/853
f 854/854 852/852 855/855
f 856/856 854/854 857/857
f 858/858 856/856 859/859
f 830/830 858/858 860/860
f 860/860 831/831 830/830
f 859/859 860/860 858/858
f 857/857 859/859 856/856
f 855/855 857/857 854/854
f 853/853 855/855 852/852
f 851/851 853/853 850/850
f 849/849 851/851 848/848
f 847/847 849/849 846/846
f 845/845 847/847 844/844
f 843/843 845/845 842/842
f 841/841 843/843 840/840
f 839/839 841/841 838/838
f 837/837 839/839 836/836
f 835/835 837/837 834/834
f 833/833 835/835 832/832
f 831/831 833/833 829/829
f 861/861 862/862 863/863
f 862/862 864/864 865/865
f 865/865 863/863 862/862
f 864/864 866/866 867/867
f 867/867 865/865 864/864
f 868/868 869/869 867/867
f 870/870 871/871 869/869
f 872/872 873/873 871/871
f 867/867 866/866 868/868
f 871/871 870/870 872/872
f 874/874 875/875 873/873
f 874/874 876/876 877/877
f 878/878 879/879 880/880
f 878/878 881/881 882/882
f 869/869 868/868 870/870
f 877/877 875/875 874/874
f 883/883 880/880 877/877
f 882/882 879/879 878/878
f 881/881 884/884 885/885
f 884/884 886/886 887/887
f 888/888 861/861 889/889
f 873/873 872/872 874/874
f 880/880 883/883 878/878
f 887/887 885/885 884/884
f 863/863 889/889 861/861
f 885/885 882/882 881/881
f 890/890 891/891 887/887
f 890/890 888/888 892/892
f 877/877 876/876 883/883
f 892/892 891/891 890/890
f 887/887 886/886 890/890
f 889/889 892/892 888/888
f 893/893 894/894 895/895
f 896/896 893/893 897/897
f 898/898 896/896 899/899
f 900/900 898/898 901/901
f 902/902 900/900 903/903
f 904/904 902/902 905/905
f 906/906 904/904 907/907
f 908/908 906/906 909/909
f 910/910 908/908 911/911
f 912/912 910/910 913/913
f 914/914 912/912 915/915
f 916/916 914/914 917/917
f 918/918 916/916 919/919
f 920/920 918/918 921/921
f 922/922 920/920 923/923
f 894/894 922/922 924/924
f 924/924 895/895 894/894
f 923/923 924/924 922/922
f 921/921 923/923 920/920
f 919/919 921/921 918/918
f 917/917 919/919 916/916
f 915/915 917/917 914/914
f 913/913 915/915 912/912
f 911/911 913/913 910/910
f 909/909 911/911 908/908
f 907/907 909/909 906/906
f 905/905 907/907 904/904
f 903/903 905/905 902/902
f 901/901 903/903 900/900
f 899/899 901/901 898/898
f 897/897 899/899 896/896
f 895/895 897/897 893/893
f 925/925 926/926 927/927
f 926/926 928/928 929/929
f 925/925 930/930 931/931
f 929/929 927/927 926/926
f 932/932 933/933 934/934
f 932/932 935/935 936/936
f 927/927 930/930 925/925
f 937/937 934/934 929/929
f 936/936 933/933 932/932
f 935/935 938/938 939/939
f 929/929 928/928 937/937
f 939/939 936/936 935/935
f 940/940 941/941 939/939
f 940/940 942/942 943/943
f 944/944 945/945 946/946
f 945/945 947/947 948/948
f 934/934 937/937 932/932
f 943/943 941/941 940/940
f 942/942 944/944 949/949
f 948/948 946/946 945/945
f 939/939 938/938 940/940
f 946/946 949/949 944/944
f 947/947 950/950 951/951
f 952/952 953/953 951/951
f 949/949 943/943 942/942
f 951/951 950/950 952/952
f 954/954 955/955 953/953
f 954/954 956/956 931/931
f 951/951 948/948 947/947
f 931/931 955/955 954/954
f 953/953 952/952 954/954
f 931/931 956/956 925/925
f 957/957 958/958 959/959
f 960/960 957/957 961/961
f 962/962 960/960 963/963
f 964/964 962/962 965/965
f 966/966 964/964 967/967
f 968/968 966/966 969/969
f 970/970 968/968 971/971
f 972/972 970/970 973/973
f 974/974 972/972 975/975
f 976/976 974/974 977/977
f 978/978 976/976 979/979
f 980/980 978/978 981/981
f 982/982 980/980 983/983
f 984/984 982/982 985/985
f 986/986 984/984 987/987
f 958/958 986/986 988/988
f 988/988 959/959 958/958
f 987/987 988/988 986/986
f 985/985 987/987 984/984
f 983/983 985/985 982/982
f 981/981 983/983 980/980
f 979/979 981/981 978/978
f 977/977 979/979 976/976
f 975/975 977/977 974/974
f 973/973 975/975 972/972
f 971/971 973/973 970/970
f 969/969 971/971 968/968
f 967/967 969/969 966/966
f 965/965 967/967 964/964
f 963/963 965/965 962/962
f 961/961 963/963 960/960
f 959/959 961/961 957/957
f 989/989 990/990 991/991
f 989/989 992/992 993/993
f 993/993 990/990 989/989
f 992/992 994/994 995/995
f 996/996 997/997 998/998
f 999/999 1000/1000 1001/1001
f 999/999 1002/1002 1003/1003
f 1004/1004 991/991 1005/1005
f 995/995 993/993 992/992
f 995/995 1006/1006 996/996
f 995/995 994/994 1007/1007
f 1003/1003 1000/1000 999/999
f 1002/1002 1008/1008 1009/1009
f 991/991 1004/1004 989/989
f 1007/1007 1006/1006 995/995
f 1010/1010 1001/1001 998/998
f 1009/1009 1003/1003 1002/1002
f 1005/1005 1011/1011 1012/1012
f 998/998 995/995 996/996
f 1001/1001 1010/1010 999/999
f 1012/1012 1013/1013 1005/1005
f 1011/1011 1005/1005 1009/1009
f 998/998 997/997 1010/1010
f 1009/1009 1008/1008 1011/1011
f 1013/1013 1014/1014 1005/1005
f 1005/1005 1014/1014 1004/1004
f 1015/1015 1016/1016 1017/1017
f 1016/1016 1018/1018 1019/1019
f 1019/1019 1017/1017 1016/1016
f 1020/1020 1021/1021 1019/1019
f 1022/1022 1023/1023 1021/1021
f 1015/1015 1024/1024 1025/1025
f 1019/1019 1018/1018 1020/1020
f 1022/1022 1026/1026 1023/1023
f 1017/1017 1024/1024 1015/1015
f 1022/1022 1027/1027 1026/1026
f 1021/1021 1020/1020 1022/1022
f 1025/1025 1028/1028 1015/1015
f 1029/1029 1030/1030 1031/1031
f 1032/1032 1029/1029 1033/1033
f 1034/1034 1032/1032 1035/1035
f 1036/1036 1034/1034 1037/1037
f 1037/1037 1038/1038 1036/1036
f 1035/1035 1037/1037 1034/1034
f 1033/1033 1035/1035 1032/1032
f 1031/1031 1033/1033 1029/1029
f 1039/1039 1040/1040 1041/1041
f 1041/1041 1042/1042 1039/1039
f 1041/1041 1043/1043 1042/1042
f 1044/1044 1045/1045 1046/1046
f 1045/1045 1047/1047 1046/1046
f 1046/1046 1048/1048 1044/1044
f 1049/1049 1050/1050 1051/1051
f 1052/1052 1049/1049 1053/1053
f 1054/1054 1052/1052 1055/1055
f 1056/1056 1054/1054 1057/1057
f 1057/1057 1058/1058 1056/1056
f 1055/1055 1057/1057 1054/1054
f 1053/1053 1055/1055 1052/1052
f 1051/1051 1053/1053 1049/1049
f 1059/1059 1060/1060 1061/1061
f 1062/1062 1063/1063 1060/1060
f 1064/1064 1065/1065 1061/1061
f 1060/1060 1059/1059 1062/1062
f 1061/1061 1065/1065 1059/1059
f 1066/1066 1064/1064 1067/1067
f 1062/1062 1068/1068 1063/1063
f 1067/1067 1069/1069 1066/1066
f 1062/1062 1070/1070 1068/1068
f 1061/1061 1067/1067 1064/1064
f 1069/1069 1071/1071 1066/1066
f 1071/1071 1072/1072 1066/1066
f 1073/1073 1074/1074 1075/1075
f 1074/1074 1076/1076 1077/1077
f 1076/1076 1078/1078 1079/1079
f 1078/1078 1080/1080 1081/1081
f 1080/1080 1082/1082 1083/1083
f 1082/1082 1084/1084 1085/1085
f 1084/1084 1086/1086 1087/1087
f 1086/1086 1088/1088 1089/1089
f 1088/1088 1090/1090 1091/1091
f 1090/1090 1092/1092 1093/1093
f 1092/1092 1094/1094 1095/1095
f 1094/1094 1096/1096 1097/1097
f 1096/1096 1098/1098 1099/1099
f 1098/1098 1100/1100 1101/1101
f 1100/1100 1102/1102 1103/1103
f 1102/1102 1073/1073 1104/1104
f 1104/1104 1103/1103 1102/1102
f 1103/1103 1101/1101 1100/1100
f 1101/1101 1099/1099 1098/1098
f 1099/1099 1097/1097 1096/1096
f 1097/1097 1095/1095 1094/1094
f 1095/1095 1093/1093 1092/1092
f 1093/1093 1091/1091 1090/1090
f 1091/1091 1089/1089 1088/1088
f 1089/1089 1087/1087 1086/1086
f 1087/1087 1085/1085 1084/1084
f 1085/1085 1083/1083 1082/1082
f 1083/1083 1081/1081 1080/1080
f 1081/1081 1079/1079 1078/1078
f 1079/1079 1077/1077 1076/1076
f 1077/1077 1075/1075 1074/1074
f 1075/1075 1104/1104 1073/1073
f 1105/1105 1106/1106 1107/1107
f 1107/1107 1108/1108 1105/1105
f 1108/1108 1109/1109 1105/1105
f 1109/1109 1110/1110 1105/1105
f 1110/1110 1111/1111 1105/1105
f 1111/1111 1112/1112 1105/1105
f 1112/1112 1113/1113 1105/1105
f 1113/1113 1114/1114 1105/1105
f 1114/1114 1115/1115 1105/1105
f 1115/1115 1116/1116 1105/1105
f 1116/1116 1117/1117 1105/1105
f 1117/1117 1118/1118 1105/1105
f 1118/1118 1119/1119 1105/1105
f 1119/1119 1120/1120 1105/1105
f 1120/1120 1121/1121 1105/1105
f 1121/1121 1106/1106 1105/1105

