# https://github.com/mikedh/trimesh
mtllib material.mtl
usemtl 0.910000_0.910000_0.910000_0.000000_0.000000
v -0.00992863 -0.00021448 -0.04778554
v -0.00962306 -0.00025459 -0.04780585
v -0.00962527 -0.00025430 -0.04846459
v -0.00992419 -0.00021506 -0.04848288
v -0.01015871 -0.00018428 -0.04782731
v -0.00930005 -0.00029698 -0.04782731
v -0.00930005 -0.00029698 -0.04857320
v -0.01015871 -0.00018428 -0.04857320
v -0.00909666 -0.00003170 -0.04777622
v -0.00890706 0.00021559 -0.04780616
v -0.00897269 0.00012999 -0.04846459
v -0.00915613 -0.00010927 -0.04848288
v -0.00930005 -0.00029698 -0.04782731
v -0.00877312 0.00039029 -0.04782731
v -0.00877312 0.00039029 -0.04857320
v -0.00930005 -0.00029698 -0.04857320
v -0.00893898 0.00079028 -0.04777320
v -0.00897921 0.00088727 -0.04846459
v -0.00886372 0.00060879 -0.04848288
v -0.00877312 0.00039029 -0.04782731
v -0.00881626 0.00049433 -0.04781323
v -0.00906171 0.00108622 -0.04781323
v -0.00910485 0.00119026 -0.04857320
v -0.00910485 0.00119026 -0.04782731
v -0.00877312 0.00039029 -0.04857320
v -0.00963178 0.00050299 -0.04742347
v -0.01044730 0.00051165 -0.04781323
v -0.01049044 0.00061569 -0.04782731
v -0.00963178 0.00050299 -0.04742347
v -0.00933493 0.00122046 -0.04778554
v -0.00910485 0.00119026 -0.04782731
v -0.00963178 0.00050299 -0.04742347
v -0.00881626 0.00049433 -0.04781323
v -0.00877312 0.00039029 -0.04782731
v -0.00963178 0.00050299 -0.04742347
v -0.00992863 -0.00021448 -0.04778554
v -0.01015871 -0.00018428 -0.04782731
v -0.01020185 -0.00008024 -0.04781323
v -0.00963178 0.00050299 -0.04742347
v -0.00963178 0.00050299 -0.04742347
v -0.00962306 -0.00025459 -0.04780585
v -0.00963178 0.00050299 -0.04742347
v -0.00930005 -0.00029698 -0.04782731
v -0.00963178 0.00050299 -0.04742347
v -0.00909666 -0.00003170 -0.04777622
v -0.00963178 0.00050299 -0.04742347
v -0.00890706 0.00021559 -0.04780616
v -0.00963178 0.00050299 -0.04742347
v -0.00963178 0.00050299 -0.04742347
v -0.00893898 0.00079028 -0.04777320
v -0.00963178 0.00050299 -0.04742347
v -0.00906171 0.00108622 -0.04781323
v -0.00963178 0.00050299 -0.04742347
v -0.00963178 0.00050299 -0.04742347
v -0.00964050 0.00126057 -0.04780585
v -0.00963178 0.00050299 -0.04742347
v -0.00996351 0.00130296 -0.04782731
v -0.00963178 0.00050299 -0.04742347
v -0.01016690 0.00103769 -0.04777622
v -0.00963178 0.00050299 -0.04742347
v -0.01035650 0.00079039 -0.04780616
v -0.00963178 0.00050299 -0.04742347
v -0.00963178 0.00050299 -0.04742347
v -0.01032458 0.00021570 -0.04777320
v -0.00963178 0.00050299 -0.04742347
v -0.00933493 0.00122046 -0.04778554
v -0.00964050 0.00126057 -0.04780585
v -0.00963829 0.00126028 -0.04846459
v -0.00933937 0.00122105 -0.04848288
v -0.00910485 0.00119026 -0.04782731
v -0.00996351 0.00130296 -0.04782731
v -0.00996351 0.00130296 -0.04857320
v -0.00910485 0.00119026 -0.04857320
v -0.01032458 0.00021570 -0.04777320
v -0.01027330 0.00009205 -0.04846903
v -0.01037585 0.00033936 -0.04846903
v -0.01044730 0.00051165 -0.04781323
v -0.01015871 -0.00018428 -0.04857320
v -0.01020185 -0.00008024 -0.04781323
v -0.01049044 0.00061569 -0.04857320
v -0.01049044 0.00061569 -0.04782731
v -0.01015871 -0.00018428 -0.04782731
v -0.00996351 0.00130296 -0.04782731
v -0.01016690 0.00103769 -0.04777622
v -0.01014553 0.00106556 -0.04846903
v -0.01035650 0.00079039 -0.04780616
v -0.01030842 0.00085309 -0.04846903
v -0.01049044 0.00061569 -0.04782731
v -0.01049044 0.00061569 -0.04857320
v -0.00996351 0.00130296 -0.04857320
v -0.01036102 0.00003586 -0.04857320
v -0.01047759 0.00031699 -0.04857320
v -0.01037585 0.00033936 -0.04846903
v -0.01015871 -0.00018428 -0.04857320
v -0.01027330 0.00009205 -0.04846903
v -0.01049044 0.00061569 -0.04857320
v -0.01040095 0.00090096 -0.04857320
v -0.01021577 0.00114248 -0.04857320
v -0.01014553 0.00106556 -0.04846903
v -0.01049044 0.00061569 -0.04857320
v -0.01030842 0.00085309 -0.04846903
v -0.00996351 0.00130296 -0.04857320
v -0.00821813 0.00191776 -0.04857320
v -0.00778432 0.00126909 -0.04857320
v -0.00890157 0.00096860 -0.04857320
v -0.00878636 0.00069077 -0.04857320
v -0.00763178 0.00050378 -0.04857320
v -0.00877312 0.00039029 -0.04857320
v -0.01039788 0.00235045 -0.04857320
v -0.00996351 0.00130296 -0.04857320
v -0.01021577 0.00114248 -0.04857320
v -0.00963257 0.00250299 -0.04857320
v -0.00966990 0.00136818 -0.04857320
v -0.00886714 0.00235105 -0.04857320
v -0.00937169 0.00132904 -0.04857320
v -0.00910485 0.00119026 -0.04857320
v -0.00778372 -0.00026164 -0.04857320
v -0.00886345 0.00010341 -0.04857320
v -0.00821701 -0.00091066 -0.04857320
v -0.00904645 -0.00013528 -0.04857320
v -0.00886568 -0.00134446 -0.04857320
v -0.00930005 -0.00029698 -0.04857320
v -0.00963099 -0.00149701 -0.04857320
v -0.00959366 -0.00036220 -0.04857320
v -0.01039642 -0.00134507 -0.04857320
v -0.00989187 -0.00032305 -0.04857320
v -0.01104543 -0.00091178 -0.04857320
v -0.01015871 -0.00018428 -0.04857320
v -0.01147924 -0.00026311 -0.04857320
v -0.01036102 0.00003586 -0.04857320
v -0.01104655 0.00191664 -0.04857320
v -0.01040095 0.00090096 -0.04857320
v -0.01147984 0.00126763 -0.04857320
v -0.01049044 0.00061569 -0.04857320
v -0.01163178 0.00050220 -0.04857320
v -0.01047759 0.00031699 -0.04857320
vt 0.50000000 0.50000000
vt 0.50000000 0.50000000
vt 0.50000000 0.50000000
vt 0.50000000 0.50000000
vt 0.50000000 0.50000000
vt 0.50000000 0.50000000
vt 0.50000000 0.50000000
vt 0.50000000 0.50000000
vt 0.50000000 0.50000000
vt 0.50000000 0.50000000
vt 0.50000000 0.50000000
vt 0.50000000 0.50000000
vt 0.50000000 0.50000000
vt 0.50000000 0.50000000
vt 0.50000000 0.50000000
vt 0.50000000 0.50000000
vt 0.50000000 0.50000000
vt 0.50000000 0.50000000
vt 0.50000000 0.50000000
vt 0.50000000 0.50000000
vt 0.50000000 0.50000000
vt 0.50000000 0.50000000
vt 0.50000000 0.50000000
vt 0.50000000 0.50000000
vt 0.50000000 0.50000000
vt 0.50000000 0.50000000
vt 0.50000000 0.50000000
vt 0.50000000 0.50000000
vt 0.50000000 0.50000000
vt 0.50000000 0.50000000
vt 0.50000000 0.50000000
vt 0.50000000 0.50000000
vt 0.50000000 0.50000000
vt 0.50000000 0.50000000
vt 0.50000000 0.50000000
vt 0.50000000 0.50000000
vt 0.50000000 0.50000000
vt 0.50000000 0.50000000
vt 0.50000000 0.50000000
vt 0.50000000 0.50000000
vt 0.50000000 0.50000000
vt 0.50000000 0.50000000
vt 0.50000000 0.50000000
vt 0.50000000 0.50000000
vt 0.50000000 0.50000000
vt 0.50000000 0.50000000
vt 0.50000000 0.50000000
vt 0.50000000 0.50000000
vt 0.50000000 0.50000000
vt 0.50000000 0.50000000
vt 0.50000000 0.50000000
vt 0.50000000 0.50000000
vt 0.50000000 0.50000000
vt 0.50000000 0.50000000
vt 0.50000000 0.50000000
vt 0.50000000 0.50000000
vt 0.50000000 0.50000000
vt 0.50000000 0.50000000
vt 0.50000000 0.50000000
vt 0.50000000 0.50000000
vt 0.50000000 0.50000000
vt 0.50000000 0.50000000
vt 0.50000000 0.50000000
vt 0.50000000 0.50000000
vt 0.50000000 0.50000000
vt 0.50000000 0.50000000
vt 0.50000000 0.50000000
vt 0.50000000 0.50000000
vt 0.50000000 0.50000000
vt 0.50000000 0.50000000
vt 0.50000000 0.50000000
vt 0.50000000 0.50000000
vt 0.50000000 0.50000000
vt 0.50000000 0.50000000
vt 0.50000000 0.50000000
vt 0.50000000 0.50000000
vt 0.50000000 0.50000000
vt 0.50000000 0.50000000
vt 0.50000000 0.50000000
vt 0.50000000 0.50000000
vt 0.50000000 0.50000000
vt 0.50000000 0.50000000
vt 0.50000000 0.50000000
vt 0.50000000 0.50000000
vt 0.50000000 0.50000000
vt 0.50000000 0.50000000
vt 0.50000000 0.50000000
vt 0.50000000 0.50000000
vt 0.50000000 0.50000000
vt 0.50000000 0.50000000
vt 0.50000000 0.50000000
vt 0.50000000 0.50000000
vt 0.50000000 0.50000000
vt 0.50000000 0.50000000
vt 0.50000000 0.50000000
vt 0.50000000 0.50000000
vt 0.50000000 0.50000000
vt 0.50000000 0.50000000
vt 0.50000000 0.50000000
vt 0.50000000 0.50000000
vt 0.50000000 0.50000000
vt 0.50000000 0.50000000
vt 0.50000000 0.50000000
vt 0.50000000 0.50000000
vt 0.50000000 0.50000000
vt 0.50000000 0.50000000
vt 0.50000000 0.50000000
vt 0.50000000 0.50000000
vt 0.50000000 0.50000000
vt 0.50000000 0.50000000
vt 0.50000000 0.50000000
vt 0.50000000 0.50000000
vt 0.50000000 0.50000000
vt 0.50000000 0.50000000
vt 0.50000000 0.50000000
vt 0.50000000 0.50000000
vt 0.50000000 0.50000000
vt 0.50000000 0.50000000
vt 0.50000000 0.50000000
vt 0.50000000 0.50000000
vt 0.50000000 0.50000000
vt 0.50000000 0.50000000
vt 0.50000000 0.50000000
vt 0.50000000 0.50000000
vt 0.50000000 0.50000000
vt 0.50000000 0.50000000
vt 0.50000000 0.50000000
vt 0.50000000 0.50000000
vt 0.50000000 0.50000000
vt 0.50000000 0.50000000
vt 0.50000000 0.50000000
vt 0.50000000 0.50000000
vt 0.50000000 0.50000000
vt 0.50000000 0.50000000
vt 0.50000000 0.50000000
vt 0.50000000 0.50000000
f 1/1 2/2 3/3
f 4/4 5/5 1/1
f 3/3 4/4 1/1
f 6/6 7/7 3/3
f 3/3 2/2 6/6
f 4/4 8/8 5/5
f 9/9 10/10 11/11
f 12/12 13/13 9/9
f 11/11 12/12 9/9
f 14/14 15/15 11/11
f 11/11 10/10 14/14
f 12/12 16/16 13/13
f 17/17 18/18 19/19
f 20/20 21/21 19/19
f 19/19 21/21 17/17
f 17/17 22/22 18/18
f 23/23 18/18 22/22
f 22/22 24/24 23/23
f 19/19 25/25 20/20
f 26/26 27/27 28/28
f 29/29 30/30 31/31
f 32/32 33/33 34/34
f 35/35 36/36 37/37
f 37/37 38/38 39/39
f 36/36 40/40 41/41
f 41/41 42/42 43/43
f 43/43 44/44 45/45
f 45/45 46/46 47/47
f 34/34 47/47 48/48
f 33/33 49/49 50/50
f 50/50 51/51 52/52
f 31/31 52/52 53/53
f 30/30 54/54 55/55
f 55/55 56/56 57/57
f 57/57 58/58 59/59
f 59/59 60/60 61/61
f 28/28 61/61 62/62
f 27/27 63/63 64/64
f 64/64 65/65 38/38
f 66/66 67/67 68/68
f 69/69 70/70 66/66
f 68/68 69/69 66/66
f 71/71 72/72 68/68
f 68/68 67/67 71/71
f 69/69 73/73 70/70
f 74/74 75/75 76/76
f 76/76 77/77 74/74
f 78/78 75/75 79/79
f 80/80 81/81 77/77
f 79/79 82/82 78/78
f 74/74 79/79 75/75
f 77/77 76/76 80/80
f 83/83 84/84 85/85
f 84/84 86/86 87/87
f 87/87 85/85 84/84
f 88/88 89/89 87/87
f 87/87 86/86 88/88
f 85/85 90/90 83/83
f 91/91 92/92 93/93
f 94/94 91/91 95/95
f 93/93 95/95 91/91
f 93/93 92/92 96/96
f 97/97 98/98 99/99
f 100/100 97/97 101/101
f 99/99 101/101 97/97
f 99/99 98/98 102/102
f 103/103 104/104 105/105
f 104/104 106/106 105/105
f 107/107 108/108 106/106
f 109/109 110/110 111/111
f 109/109 112/112 113/113
f 112/112 114/114 115/115
f 114/114 103/103 116/116
f 106/106 104/104 107/107
f 117/117 118/118 108/108
f 119/119 120/120 118/118
f 121/121 122/122 120/120
f 113/113 110/110 109/109
f 116/116 115/115 114/114
f 108/108 107/107 117/117
f 120/120 119/119 121/121
f 121/121 123/123 124/124
f 123/123 125/125 126/126
f 125/125 127/127 128/128
f 127/127 129/129 130/130
f 115/115 113/113 112/112
f 118/118 117/117 119/119
f 126/126 124/124 123/123
f 130/130 128/128 127/127
f 105/105 116/116 103/103
f 128/128 126/126 125/125
f 131/131 111/111 132/132
f 124/124 122/122 121/121
f 133/133 132/132 134/134
f 111/111 131/131 109/109
f 135/135 134/134 136/136
f 132/132 133/133 131/131
f 136/136 129/129 135/135
f 136/136 130/130 129/129
f 134/134 135/135 133/133

