# https://github.com/mikedh/trimesh
mtllib material.mtl
usemtl 0.023529_0.298039_0.568627_0.000000_0.000000
v -0.03318114 -0.00832758 0.00420000
v -0.03318114 -0.00832758 0.00920000
v -0.02896938 -0.00822532 0.00920000
v -0.02896938 -0.00822532 0.00420000
v -0.03326964 -0.00468265 0.00920000
v -0.03318114 -0.00832758 0.00920000
v -0.03318114 -0.00832758 0.00420000
v -0.03326964 -0.00468265 0.00420000
v -0.02980800 -0.00399622 0.00420000
v -0.02905788 -0.00458040 0.00420000
v -0.02905788 -0.00458040 0.00920000
v -0.03071089 -0.00369832 0.00420000
v -0.02980800 -0.00399622 0.00920000
v -0.03166138 -0.00372140 0.00420000
v -0.03071089 -0.00369832 0.00920000
v -0.03254874 -0.00406276 0.00420000
v -0.03166138 -0.00372140 0.00920000
v -0.03326964 -0.00468265 0.00420000
v -0.03254874 -0.00406276 0.00920000
v -0.03326964 -0.00468265 0.00920000
v -0.02896938 -0.00822532 0.00420000
v -0.02896938 -0.00822532 0.00920000
v -0.02905788 -0.00458040 0.00920000
v -0.02905788 -0.00458040 0.00420000
v -0.03401575 -0.00369505 0.00420000
v -0.03273949 -0.00279671 0.00420000
v -0.03254874 -0.00406276 0.00420000
v -0.03121660 -0.00245517 0.00420000
v -0.03166138 -0.00372140 0.00420000
v -0.02521836 -0.00230954 0.00420000
v -0.02980800 -0.00399622 0.00420000
v -0.03326964 -0.00468265 0.00420000
v -0.03318114 -0.00832758 0.00420000
v -0.03511833 -0.00655108 0.00420000
v -0.03071089 -0.00369832 0.00420000
v -0.02896938 -0.00822532 0.00420000
v -0.03102242 -0.01045281 0.00420000
v -0.03485109 -0.00501340 0.00420000
v -0.03256010 -0.01018557 0.00420000
v -0.03477678 -0.00807397 0.00420000
v -0.02905788 -0.00458040 0.00420000
v -0.02502419 -0.01030718 0.00420000
v -0.03387845 -0.00935023 0.00420000
v -0.03121660 -0.00245517 0.00920000
v -0.03071089 -0.00369832 0.00920000
v -0.02980800 -0.00399622 0.00920000
v -0.03273949 -0.00279671 0.00920000
v -0.03254874 -0.00406276 0.00920000
v -0.03166138 -0.00372140 0.00920000
v -0.03401575 -0.00369505 0.00920000
v -0.03326964 -0.00468265 0.00920000
v -0.03485109 -0.00501340 0.00920000
v -0.03511833 -0.00655108 0.00920000
v -0.02521836 -0.00230954 0.00920000
v -0.02905788 -0.00458040 0.00920000
v -0.02896938 -0.00822532 0.00920000
v -0.03318114 -0.00832758 0.00920000
v -0.03256010 -0.01018557 0.00920000
v -0.03102242 -0.01045281 0.00920000
v -0.03477678 -0.00807397 0.00920000
v -0.03387845 -0.00935023 0.00920000
v -0.02502419 -0.01030718 0.00920000
v -0.02896938 -0.00822532 -0.02280000
v -0.02896938 -0.00822532 -0.01780000
v -0.02905788 -0.00458040 -0.01780000
v -0.02905788 -0.00458040 -0.02280000
v -0.02980800 -0.00399622 -0.02280000
v -0.02905788 -0.00458040 -0.02280000
v -0.02905788 -0.00458040 -0.01780000
v -0.03071089 -0.00369832 -0.02280000
v -0.02980800 -0.00399622 -0.01780000
v -0.03166138 -0.00372140 -0.02280000
v -0.03071089 -0.00369832 -0.01780000
v -0.03254874 -0.00406276 -0.02280000
v -0.03166138 -0.00372140 -0.01780000
v -0.03326964 -0.00468265 -0.02280000
v -0.03254874 -0.00406276 -0.01780000
v -0.03326964 -0.00468265 -0.01780000
v -0.03326964 -0.00468265 -0.01780000
v -0.03318114 -0.00832758 -0.01780000
v -0.03318114 -0.00832758 -0.02280000
v -0.03326964 -0.00468265 -0.02280000
v -0.03318114 -0.00832758 -0.02280000
v -0.03318114 -0.00832758 -0.01780000
v -0.02896938 -0.00822532 -0.01780000
v -0.02896938 -0.00822532 -0.02280000
v -0.03121660 -0.00245517 -0.01780000
v -0.03071089 -0.00369832 -0.01780000
v -0.02980800 -0.00399622 -0.01780000
v -0.03273949 -0.00279671 -0.01780000
v -0.03254874 -0.00406276 -0.01780000
v -0.03166138 -0.00372140 -0.01780000
v -0.03401575 -0.00369505 -0.01780000
v -0.03326964 -0.00468265 -0.01780000
v -0.03485109 -0.00501340 -0.01780000
v -0.03511833 -0.00655108 -0.01780000
v -0.02521836 -0.00230954 -0.01780000
v -0.02905788 -0.00458040 -0.01780000
v -0.02896938 -0.00822532 -0.01780000
v -0.03318114 -0.00832758 -0.01780000
v -0.03256010 -0.01018557 -0.01780000
v -0.03102242 -0.01045281 -0.01780000
v -0.03477678 -0.00807397 -0.01780000
v -0.03387845 -0.00935023 -0.01780000
v -0.02502419 -0.01030718 -0.01780000
v -0.03401575 -0.00369505 -0.02280000
v -0.03273949 -0.00279671 -0.02280000
v -0.03254874 -0.00406276 -0.02280000
v -0.03121660 -0.00245517 -0.02280000
v -0.03166138 -0.00372140 -0.02280000
v -0.02621807 -0.00233381 -0.02280000
v -0.02980800 -0.00399622 -0.02280000
v -0.03326964 -0.00468265 -0.02280000
v -0.03318114 -0.00832758 -0.02280000
v -0.03511833 -0.00655108 -0.02280000
v -0.03071089 -0.00369832 -0.02280000
v -0.02896938 -0.00822532 -0.02280000
v -0.03102242 -0.01045281 -0.02280000
v -0.03485109 -0.00501340 -0.02280000
v -0.03256010 -0.01018557 -0.02280000
v -0.03477678 -0.00807397 -0.02280000
v -0.02905788 -0.00458040 -0.02280000
v -0.02602389 -0.01033145 -0.02280000
v -0.03387845 -0.00935023 -0.02280000
v -0.03102242 -0.01045281 0.00420000
v -0.03102242 -0.01045281 0.00920000
v -0.03256010 -0.01018557 0.00920000
v -0.03256010 -0.01018557 0.00420000
v -0.03387845 -0.00935023 0.00920000
v -0.03387845 -0.00935023 0.00420000
v -0.03477678 -0.00807397 0.00920000
v -0.03477678 -0.00807397 0.00420000
v -0.03511833 -0.00655108 0.00920000
v -0.03511833 -0.00655108 0.00420000
v -0.03485109 -0.00501340 0.00920000
v -0.03485109 -0.00501340 0.00420000
v -0.03401575 -0.00369505 0.00920000
v -0.03401575 -0.00369505 0.00420000
v -0.03273949 -0.00279671 0.00920000
v -0.03273949 -0.00279671 0.00420000
v -0.03121660 -0.00245517 0.00920000
v -0.03121660 -0.00245517 0.00420000
v -0.02521836 -0.00230954 0.00420000
v -0.03121660 -0.00245517 0.00420000
v -0.03121660 -0.00245517 0.00920000
v -0.02521836 -0.00230954 0.00920000
v -0.02502419 -0.01030718 0.00420000
v -0.02502419 -0.01030718 0.00920000
v -0.03102242 -0.01045281 0.00920000
v -0.03102242 -0.01045281 0.00420000
v -0.02524263 -0.00130983 0.01150000
v -0.02521836 -0.00230954 0.00920000
v -0.02502419 -0.01030718 0.00920000
v -0.02521836 -0.00230954 -0.01780000
v -0.02521836 -0.00230954 0.00420000
v -0.02499992 -0.01130688 -0.02271608
v -0.02502419 -0.01030718 0.00420000
v -0.02502419 -0.01030718 -0.01780000
v -0.02502419 -0.01030718 -0.02271608
v -0.02499992 -0.01130688 0.01150000
v -0.02524263 -0.00130983 -0.02271608
v -0.02521836 -0.00230954 -0.02271608
v -0.03102242 -0.01045281 -0.02280000
v -0.03102242 -0.01045281 -0.01780000
v -0.03256010 -0.01018557 -0.01780000
v -0.03256010 -0.01018557 -0.02280000
v -0.03387845 -0.00935023 -0.01780000
v -0.03387845 -0.00935023 -0.02280000
v -0.03477678 -0.00807397 -0.01780000
v -0.03477678 -0.00807397 -0.02280000
v -0.03511833 -0.00655108 -0.01780000
v -0.03511833 -0.00655108 -0.02280000
v -0.03485109 -0.00501340 -0.01780000
v -0.03485109 -0.00501340 -0.02280000
v -0.03401575 -0.00369505 -0.01780000
v -0.03401575 -0.00369505 -0.02280000
v -0.03273949 -0.00279671 -0.01780000
v -0.03273949 -0.00279671 -0.02280000
v -0.03121660 -0.00245517 -0.01780000
v -0.03121660 -0.00245517 -0.02280000
v -0.03121660 -0.00245517 -0.01780000
v -0.02521836 -0.00230954 -0.01780000
v -0.02621807 -0.00233381 -0.02280000
v -0.02521836 -0.00230954 -0.02271608
v -0.03121660 -0.00245517 -0.02280000
v -0.03102242 -0.01045281 -0.01780000
v -0.03102242 -0.01045281 -0.02280000
v -0.02602389 -0.01033145 -0.02280000
v -0.02502419 -0.01030718 -0.01780000
v -0.02502419 -0.01030718 -0.02271608
v -0.02024411 -0.00118847 -0.01680000
v -0.02000139 -0.01118552 -0.01680000
v -0.02045798 -0.01119661 -0.01909610
v -0.02070070 -0.00119956 -0.01909610
v -0.02175823 -0.01122818 -0.02104264
v -0.02200095 -0.00123113 -0.02104264
v -0.02370420 -0.01127543 -0.02234328
v -0.02394692 -0.00127837 -0.02234328
v -0.02521836 -0.00230954 -0.02271608
v -0.02502419 -0.01030718 -0.02271608
v -0.02602389 -0.01033145 -0.02280000
v -0.02499992 -0.01130688 -0.02271608
v -0.02621807 -0.00233381 -0.02280000
v -0.02524263 -0.00130983 -0.02271608
v -0.02024411 -0.00118847 0.00050000
v -0.02000139 -0.01118552 0.00050000
v -0.02000139 -0.01118552 -0.01680000
v -0.02024411 -0.00118847 -0.01680000
v -0.02000139 -0.01118552 0.00050000
v -0.02067997 -0.01120200 0.01796716
v -0.02295027 -0.01125712 0.01644975
v -0.02000139 -0.01118552 -0.01680000
v -0.02370420 -0.01127543 -0.02234328
v -0.02175823 -0.01122818 -0.02104264
v -0.02446723 -0.01129395 0.01417878
v -0.02499992 -0.01130688 -0.02271608
v -0.02000139 -0.01118552 0.01820820
v -0.02045798 -0.01119661 -0.01909610
v -0.02499992 -0.01130688 0.01150000
v -0.02024411 -0.00118847 -0.01680000
v -0.02070070 -0.00119956 -0.01909610
v -0.02200095 -0.00123113 -0.02104264
v -0.01654130 -0.00109857 0.00604328
v -0.01848727 -0.00114582 0.00474264
v -0.02524263 -0.00130983 0.01150000
v -0.02394692 -0.00127837 -0.02234328
v -0.02524263 -0.00130983 -0.02271608
v -0.02024411 -0.00118847 0.00050000
v -0.02470995 -0.00129690 0.01417878
v -0.02319299 -0.00126007 0.01644975
v -0.01824470 -0.00113993 0.01850000
v -0.01374735 -0.00103074 0.01850000
v -0.01424588 -0.00104284 0.00650000
v -0.00025000 -0.00070303 0.00650000
v -0.00660343 -0.00085729 0.01850000
v -0.00305343 -0.00077110 0.01850000
v -0.01978752 -0.00117739 0.00279610
v -0.02092269 -0.00120495 0.01796716
v -0.00025000 -0.00070303 0.01850000
v -0.01424588 -0.00104284 0.00650000
v -0.01391268 -0.01476664 0.00650000
v -0.01624273 -0.01339620 0.00604328
v -0.01654130 -0.00109857 0.00604328
v -0.01821805 -0.01223441 0.00474264
v -0.01848727 -0.00114582 0.00474264
v -0.01897526 -0.01178905 0.00383342
v -0.01953791 -0.01145812 0.00279610
v -0.01978752 -0.00117739 0.00279610
v -0.01988440 -0.01125434 0.00167054
v -0.02000139 -0.01118552 0.00050000
v -0.02024411 -0.00118847 0.00050000
v -0.02446723 -0.01129395 0.01417878
v -0.02470995 -0.00129690 0.01417878
v -0.02524263 -0.00130983 0.01150000
v -0.02295027 -0.01125712 0.01644975
v -0.02319299 -0.00126007 0.01644975
v -0.02067997 -0.01120200 0.01796716
v -0.02092269 -0.00120495 0.01796716
v -0.02000139 -0.01118552 0.01820820
v -0.01797182 -0.01237923 0.01850000
v -0.01807944 -0.00794657 0.01850000
v -0.01816563 -0.00439657 0.01850000
v -0.01824470 -0.00113993 0.01850000
v -0.02499992 -0.01130688 0.01150000
v -0.01391268 -0.01476664 0.00650000
v -0.00522178 -0.01987823 0.00650000
v -0.00908947 -0.01760343 0.01850000
v -0.01374735 -0.01486387 0.01850000
v -0.02000139 -0.01118552 0.01820820
v -0.01953791 -0.01145812 0.00279610
v -0.01897526 -0.01178905 0.00383342
v -0.00660343 -0.01906561 0.01850000
v -0.01624273 -0.01339620 0.00604328
v -0.01512529 -0.01405343 0.01850000
v -0.01988440 -0.01125434 0.00167054
v -0.00522178 -0.01987823 0.01850000
v -0.01797182 -0.01237923 0.01850000
v -0.02000139 -0.01118552 0.00050000
v -0.01821805 -0.01223441 0.00474264
v -0.01424588 -0.00104284 0.00650000
v -0.00951596 -0.00705836 0.00650000
v -0.01030000 -0.01100000 0.00650000
v -0.01391268 -0.01476664 0.00650000
v -0.00728320 -0.00371680 0.00650000
v -0.00025000 -0.00070303 0.00650000
v -0.00394164 -0.00148404 0.00650000
v -0.00951596 -0.01494164 0.00650000
v -0.00728320 -0.01828320 0.00650000
v -0.00522178 -0.01987823 0.00650000
v 0.00660343 -0.00326259 0.01850000
v 0.00728320 -0.00371680 0.01850000
v 0.00728320 -0.00371680 0.00450000
v 0.00660343 -0.00326259 0.00450000
v 0.00394164 -0.00148404 0.00450000
v 0.00394164 -0.00148404 0.01850000
v 0.00951596 -0.00705836 0.00450000
v 0.00773741 -0.00439657 0.00450000
v 0.00773741 -0.00439657 0.01850000
v 0.01030000 -0.01100000 0.01850000
v 0.01030000 -0.01100000 0.00450000
v 0.00977288 -0.00835000 0.00450000
v 0.00951596 -0.00705836 0.01850000
v 0.00969264 -0.00794657 0.01850000
v 0.00951596 -0.01494164 0.00450000
v 0.00977288 -0.01365000 0.00450000
v 0.00969264 -0.01405343 0.01850000
v 0.00773741 -0.01760343 0.01850000
v 0.00728320 -0.01828320 0.01850000
v 0.00728320 -0.01828320 0.00450000
v 0.00773741 -0.01760343 0.00450000
v 0.00951596 -0.01494164 0.01850000
v 0.00660343 -0.01873741 0.01850000
v 0.00394164 -0.02051596 0.01850000
v 0.00394164 -0.02051596 0.00450000
v 0.00660343 -0.01873741 0.00450000
v 0.00263935 -0.02077500 0.01850000
v 0.00000000 -0.02130000 0.01850000
v 0.00000000 -0.02130000 0.00450000
v 0.00263935 -0.02077500 0.00450000
v 0.00265000 -0.02077288 0.00450000
v 0.00305343 -0.02069264 0.01850000
v -0.00394164 -0.02051596 0.00450000
v -0.00265000 -0.02077288 0.00450000
v -0.00305343 -0.02069264 0.01850000
v -0.00263935 -0.02077500 0.01850000
v -0.00263935 -0.02077500 0.00450000
v -0.00951596 -0.01494164 0.00650000
v -0.00951596 -0.01494164 0.00450000
v -0.00773741 -0.01760343 0.00450000
v -0.00728320 -0.01828320 0.00650000
v -0.00977500 -0.01363935 0.00450000
v -0.00977288 -0.01365000 0.00450000
v -0.01030000 -0.01100000 0.00650000
v -0.01030000 -0.01100000 0.00450000
v -0.00951596 -0.00705836 0.00650000
v -0.00977500 -0.00836065 0.00450000
v -0.00951596 -0.00705836 0.00450000
v -0.00977288 -0.00835000 0.00450000
v -0.00728320 -0.00371680 0.00650000
v -0.00773741 -0.00439657 0.00450000
v -0.00728320 -0.00371680 0.00450000
v -0.00394164 -0.00148404 0.00650000
v -0.00394164 -0.00148404 0.00450000
v -0.00660343 -0.00326259 0.00450000
v -0.00025000 -0.00070303 0.00650000
v -0.00025000 -0.00070303 0.00450000
v -0.00265000 -0.00121078 0.00450000
v 0.00265000 -0.00121078 0.00450000
v 0.00305343 -0.00129613 0.01850000
v 0.00025000 -0.00070303 0.00650000
v 0.00025000 -0.00070303 0.00450000
v 0.00025000 -0.00070303 0.01850000
v -0.00660343 -0.01873741 0.00450000
v -0.00522178 -0.01987823 0.00650000
v -0.00728320 -0.01828320 0.00450000
v -0.00394164 -0.02051596 0.01850000
v -0.00522178 -0.01987823 0.01850000
v -0.00660343 -0.01405343 0.01850000
v -0.00660343 -0.01760343 0.01850000
v -0.00645685 -0.01665686 0.01850000
v -0.00305343 -0.01760343 0.01850000
v -0.00305343 -0.01405343 0.01850000
v -0.00491775 -0.01635071 0.01850000
v -0.00639596 -0.01635071 0.01850000
v -0.00622254 -0.01722254 0.01850000
v -0.00639596 -0.01696300 0.01850000
v -0.00509117 -0.01609117 0.01850000
v -0.00565685 -0.01585685 0.01850000
v -0.00535071 -0.01591775 0.01850000
v -0.00596300 -0.01591775 0.01850000
v -0.00622254 -0.01609117 0.01850000
v -0.00596300 -0.01739596 0.01850000
v -0.00535071 -0.01739596 0.01850000
v -0.00565685 -0.01745685 0.01850000
v -0.00485685 -0.01665686 0.01850000
v -0.00491775 -0.01696300 0.01850000
v -0.00509117 -0.01722254 0.01850000
v 0.00305343 -0.01760343 0.01850000
v 0.00660343 -0.01405343 0.01850000
v 0.00639596 -0.01635071 0.01850000
v 0.00645685 -0.01665686 0.01850000
v 0.00485685 -0.01665686 0.01850000
v 0.00491775 -0.01635071 0.01850000
v 0.00622254 -0.01609117 0.01850000
v 0.00305343 -0.01405343 0.01850000
v 0.00535071 -0.01591775 0.01850000
v 0.00509117 -0.01722254 0.01850000
v 0.00491775 -0.01696300 0.01850000
v 0.00596300 -0.01591775 0.01850000
v 0.00565685 -0.01585685 0.01850000
v 0.00509117 -0.01609117 0.01850000
v 0.00535071 -0.01739596 0.01850000
v 0.00660343 -0.01760343 0.01850000
v 0.00565685 -0.01745685 0.01850000
v 0.00596300 -0.01739596 0.01850000
v 0.00639596 -0.01696300 0.01850000
v 0.00622254 -0.01722254 0.01850000
v -0.00660343 -0.00794657 0.01850000
v -0.00684515 -0.01052165 0.01850000
v -0.00675000 -0.01100000 0.01850000
v -0.00711612 -0.01011612 0.01850000
v -0.01374735 -0.00794657 0.01850000
v -0.00847835 -0.00984515 0.01850000
v -0.00800000 -0.01225000 0.01850000
v -0.00847835 -0.01215485 0.01850000
v -0.00752165 -0.00984515 0.01850000
v -0.00800000 -0.00975000 0.01850000
v -0.01374735 -0.01405343 0.01850000
v -0.00915485 -0.01052165 0.01850000
v -0.00888388 -0.01011612 0.01850000
v -0.00925000 -0.01100000 0.01850000
v -0.00752165 -0.01215485 0.01850000
v -0.00684515 -0.01147835 0.01850000
v -0.00711612 -0.01188388 0.01850000
v -0.00915485 -0.01147835 0.01850000
v -0.00888388 -0.01188388 0.01850000
v -0.00305343 -0.00794657 0.01850000
v 0.00305343 -0.00794657 0.01850000
v -0.01374735 -0.00439657 0.01850000
v -0.00305343 -0.00439657 0.01850000
v -0.00660343 -0.00439657 0.01850000
v -0.00565685 -0.00454315 0.01850000
v -0.00535071 -0.00460404 0.01850000
v -0.00645685 -0.00534315 0.01850000
v -0.00639596 -0.00503700 0.01850000
v -0.00509117 -0.00477746 0.01850000
v -0.00622254 -0.00477746 0.01850000
v -0.00565685 -0.00614315 0.01850000
v -0.00596300 -0.00608225 0.01850000
v -0.00485685 -0.00534315 0.01850000
v -0.00491775 -0.00564929 0.01850000
v -0.00491775 -0.00503700 0.01850000
v -0.00596300 -0.00460404 0.01850000
v -0.00639596 -0.00564929 0.01850000
v -0.00622254 -0.00590883 0.01850000
v -0.00535071 -0.00608225 0.01850000
v -0.00509117 -0.00590883 0.01850000
v 0.00660343 -0.00439657 0.01850000
v 0.00596300 -0.00460404 0.01850000
v 0.00622254 -0.00477746 0.01850000
v 0.00305343 -0.00439657 0.01850000
v 0.00491775 -0.00564929 0.01850000
v 0.00535071 -0.00608225 0.01850000
v 0.00509117 -0.00590883 0.01850000
v 0.00639596 -0.00503700 0.01850000
v 0.00660343 -0.00794657 0.01850000
v 0.00565685 -0.00614315 0.01850000
v 0.00565685 -0.00454315 0.01850000
v 0.00535071 -0.00460404 0.01850000
v 0.00491775 -0.00503700 0.01850000
v 0.00509117 -0.00477746 0.01850000
v 0.00639596 -0.00564929 0.01850000
v 0.00622254 -0.00590883 0.01850000
v 0.00645685 -0.00534315 0.01850000
v 0.00485685 -0.00534315 0.01850000
v 0.00596300 -0.00608225 0.01850000
v -0.00305343 -0.00077110 0.01850000
v -0.00660343 -0.00085729 0.01850000
v -0.01374735 -0.00103074 0.01850000
v -0.01824470 -0.00113993 0.01850000
v -0.01816563 -0.00439657 0.01850000
v -0.01807944 -0.00794657 0.01850000
v -0.01797182 -0.01237923 0.01850000
v -0.01512529 -0.01405343 0.01850000
v -0.01374735 -0.01486387 0.01850000
v -0.00908947 -0.01760343 0.01850000
v -0.00522178 -0.01987823 0.01850000
v -0.00394164 -0.02051596 0.01850000
v -0.00660343 -0.01906561 0.01850000
v -0.00115485 -0.01852165 0.01850000
v -0.00088388 -0.01811612 0.01850000
v -0.00115485 -0.01947835 0.01850000
v -0.00305343 -0.02069264 0.01850000
v -0.00263935 -0.02077500 0.01850000
v -0.00125000 -0.01900000 0.01850000
v -0.00047835 -0.02015485 0.01850000
v -0.00088388 -0.01988388 0.01850000
v -0.00047835 -0.01784515 0.01850000
v 0.00115485 -0.01947835 0.01850000
v 0.00088388 -0.01988388 0.01850000
v 0.00263935 -0.02077500 0.01850000
v 0.00305343 -0.02069264 0.01850000
v 0.00125000 -0.01900000 0.01850000
v 0.00088388 -0.01811612 0.01850000
v 0.00115485 -0.01852165 0.01850000
v 0.00000000 -0.01775000 0.01850000
v 0.00047835 -0.02015485 0.01850000
v 0.00047835 -0.01784515 0.01850000
v 0.00000000 -0.02025000 0.01850000
v 0.00394164 -0.02051596 0.01850000
v 0.00660343 -0.01873741 0.01850000
v 0.00728320 -0.01828320 0.01850000
v 0.00773741 -0.01760343 0.01850000
v 0.00951596 -0.01494164 0.01850000
v 0.00684515 -0.01052165 0.01850000
v 0.00711612 -0.01011612 0.01850000
v 0.00675000 -0.01100000 0.01850000
v 0.00969264 -0.00794657 0.01850000
v 0.00888388 -0.01011612 0.01850000
v 0.00915485 -0.01052165 0.01850000
v 0.00800000 -0.00975000 0.01850000
v 0.00752165 -0.01215485 0.01850000
v 0.00711612 -0.01188388 0.01850000
v 0.00847835 -0.00984515 0.01850000
v 0.00752165 -0.00984515 0.01850000
v 0.00684515 -0.01147835 0.01850000
v 0.00800000 -0.01225000 0.01850000
v 0.00969264 -0.01405343 0.01850000
v 0.00847835 -0.01215485 0.01850000
v 0.00888388 -0.01188388 0.01850000
v 0.01030000 -0.01100000 0.01850000
v 0.00915485 -0.01147835 0.01850000
v 0.00925000 -0.01100000 0.01850000
v 0.00951596 -0.00705836 0.01850000
v 0.00773741 -0.00439657 0.01850000
v 0.00728320 -0.00371680 0.01850000
v 0.00660343 -0.00326259 0.01850000
v 0.00394164 -0.00148404 0.01850000
v -0.00088388 -0.00388388 0.01850000
v -0.00115485 -0.00347835 0.01850000
v -0.00047835 -0.00415485 0.01850000
v 0.00000000 -0.00425000 0.01850000
v 0.00305343 -0.00129613 0.01850000
v 0.00115485 -0.00252165 0.01850000
v 0.00125000 -0.00300000 0.01850000
v -0.00115485 -0.00252165 0.01850000
v -0.00088388 -0.00211612 0.01850000
v 0.00088388 -0.00388388 0.01850000
v 0.00047835 -0.00415485 0.01850000
v 0.00088388 -0.00211612 0.01850000
v 0.00025000 -0.00090000 0.01850000
v 0.00047835 -0.00184515 0.01850000
v -0.00025000 -0.00090000 0.01850000
v 0.00115485 -0.00347835 0.01850000
v -0.00125000 -0.00300000 0.01850000
v 0.00000000 -0.00175000 0.01850000
v -0.00047835 -0.00184515 0.01850000
v 0.00025000 -0.00070303 0.01850000
v -0.00025000 -0.00070303 0.01850000
v 0.00000000 -0.02130000 0.01850000
v -0.00025000 -0.00090000 0.01850000
v -0.00025000 -0.00090000 0.00650000
v -0.00025000 -0.00070303 0.00650000
v -0.00025000 -0.00070303 0.00450000
v -0.00025000 -0.00090000 0.00450000
v -0.00025000 -0.00070303 0.01850000
v 0.00491775 -0.01696300 0.00450000
v 0.00485685 -0.01665686 0.00450000
v 0.00485685 -0.01665686 0.01850000
v 0.00509117 -0.01722254 0.00450000
v 0.00491775 -0.01696300 0.01850000
v 0.00535071 -0.01739596 0.00450000
v 0.00509117 -0.01722254 0.01850000
v 0.00565685 -0.01745685 0.00450000
v 0.00535071 -0.01739596 0.01850000
v 0.00596300 -0.01739596 0.00450000
v 0.00565685 -0.01745685 0.01850000
v 0.00622254 -0.01722254 0.00450000
v 0.00596300 -0.01739596 0.01850000
v 0.00639596 -0.01696300 0.00450000
v 0.00622254 -0.01722254 0.01850000
v 0.00645685 -0.01665686 0.00450000
v 0.00639596 -0.01696300 0.01850000
v 0.00639596 -0.01635071 0.00450000
v 0.00645685 -0.01665686 0.01850000
v 0.00622254 -0.01609117 0.00450000
v 0.00639596 -0.01635071 0.01850000
v 0.00596300 -0.01591775 0.00450000
v 0.00622254 -0.01609117 0.01850000
v 0.00565685 -0.01585685 0.00450000
v 0.00596300 -0.01591775 0.01850000
v 0.00535071 -0.01591775 0.00450000
v 0.00565685 -0.01585685 0.01850000
v 0.00509117 -0.01609117 0.00450000
v 0.00535071 -0.01591775 0.01850000
v 0.00491775 -0.01635071 0.00450000
v 0.00509117 -0.01609117 0.01850000
v 0.00491775 -0.01635071 0.01850000
v 0.00491775 -0.00564929 0.00450000
v 0.00485685 -0.00534315 0.00450000
v 0.00485685 -0.00534315 0.01850000
v 0.00509117 -0.00590883 0.00450000
v 0.00491775 -0.00564929 0.01850000
v 0.00535071 -0.00608225 0.00450000
v 0.00509117 -0.00590883 0.01850000
v 0.00565685 -0.00614315 0.00450000
v 0.00535071 -0.00608225 0.01850000
v 0.00596300 -0.00608225 0.00450000
v 0.00565685 -0.00614315 0.01850000
v 0.00622254 -0.00590883 0.00450000
v 0.00596300 -0.00608225 0.01850000
v 0.00639596 -0.00564929 0.00450000
v 0.00622254 -0.00590883 0.01850000
v 0.00645685 -0.00534315 0.00450000
v 0.00639596 -0.00564929 0.01850000
v 0.00639596 -0.00503700 0.00450000
v 0.00645685 -0.00534315 0.01850000
v 0.00622254 -0.00477746 0.00450000
v 0.00639596 -0.00503700 0.01850000
v 0.00596300 -0.00460404 0.00450000
v 0.00622254 -0.00477746 0.01850000
v 0.00565685 -0.00454315 0.00450000
v 0.00596300 -0.00460404 0.01850000
v 0.00535071 -0.00460404 0.00450000
v 0.00565685 -0.00454315 0.01850000
v 0.00509117 -0.00477746 0.00450000
v 0.00535071 -0.00460404 0.01850000
v 0.00491775 -0.00503700 0.00450000
v 0.00509117 -0.00477746 0.01850000
v 0.00491775 -0.00503700 0.01850000
v -0.00639596 -0.00564929 0.00450000
v -0.00645685 -0.00534315 0.00450000
v -0.00645685 -0.00534315 0.01850000
v -0.00622254 -0.00590883 0.00450000
v -0.00639596 -0.00564929 0.01850000
v -0.00596300 -0.00608225 0.00450000
v -0.00622254 -0.00590883 0.01850000
v -0.00565685 -0.00614315 0.00450000
v -0.00596300 -0.00608225 0.01850000
v -0.00535071 -0.00608225 0.00450000
v -0.00565685 -0.00614315 0.01850000
v -0.00509117 -0.00590883 0.00450000
v -0.00535071 -0.00608225 0.01850000
v -0.00491775 -0.00564929 0.00450000
v -0.00509117 -0.00590883 0.01850000
v -0.00485685 -0.00534315 0.00450000
v -0.00491775 -0.00564929 0.01850000
v -0.00491775 -0.00503700 0.00450000
v -0.00485685 -0.00534315 0.01850000
v -0.00509117 -0.00477746 0.00450000
v -0.00491775 -0.00503700 0.01850000
v -0.00535071 -0.00460404 0.00450000
v -0.00509117 -0.00477746 0.01850000
v -0.00565685 -0.00454315 0.00450000
v -0.00535071 -0.00460404 0.01850000
v -0.00596300 -0.00460404 0.00450000
v -0.00565685 -0.00454315 0.01850000
v -0.00622254 -0.00477746 0.00450000
v -0.00596300 -0.00460404 0.01850000
v -0.00639596 -0.00503700 0.00450000
v -0.00622254 -0.00477746 0.01850000
v -0.00639596 -0.00503700 0.01850000
v -0.00115485 -0.00347835 0.00450000
v -0.00125000 -0.00300000 0.00450000
v -0.00125000 -0.00300000 0.01850000
v -0.00088388 -0.00388388 0.00450000
v -0.00115485 -0.00347835 0.01850000
v -0.00047835 -0.00415485 0.00450000
v -0.00088388 -0.00388388 0.01850000
v 0.00000000 -0.00425000 0.00450000
v -0.00047835 -0.00415485 0.01850000
v 0.00047835 -0.00415485 0.00450000
v 0.00000000 -0.00425000 0.01850000
v 0.00088388 -0.00388388 0.00450000
v 0.00047835 -0.00415485 0.01850000
v 0.00115485 -0.00347835 0.00450000
v 0.00088388 -0.00388388 0.01850000
v 0.00125000 -0.00300000 0.00450000
v 0.00115485 -0.00347835 0.01850000
v 0.00115485 -0.00252165 0.00450000
v 0.00125000 -0.00300000 0.01850000
v 0.00088388 -0.00211612 0.00450000
v 0.00115485 -0.00252165 0.01850000
v 0.00047835 -0.00184515 0.00450000
v 0.00088388 -0.00211612 0.01850000
v 0.00000000 -0.00175000 0.00450000
v 0.00047835 -0.00184515 0.01850000
v -0.00047835 -0.00184515 0.00450000
v 0.00000000 -0.00175000 0.01850000
v -0.00088388 -0.00211612 0.00450000
v -0.00047835 -0.00184515 0.01850000
v -0.00115485 -0.00252165 0.00450000
v -0.00088388 -0.00211612 0.01850000
v -0.00115485 -0.00252165 0.01850000
v 0.00684515 -0.01147835 0.00450000
v 0.00675000 -0.01100000 0.00450000
v 0.00675000 -0.01100000 0.01850000
v 0.00711612 -0.01188388 0.00450000
v 0.00684515 -0.01147835 0.01850000
v 0.00752165 -0.01215485 0.00450000
v 0.00711612 -0.01188388 0.01850000
v 0.00800000 -0.01225000 0.00450000
v 0.00752165 -0.01215485 0.01850000
v 0.00847835 -0.01215485 0.00450000
v 0.00800000 -0.01225000 0.01850000
v 0.00888388 -0.01188388 0.00450000
v 0.00847835 -0.01215485 0.01850000
v 0.00915485 -0.01147835 0.00450000
v 0.00888388 -0.01188388 0.01850000
v 0.00925000 -0.01100000 0.00450000
v 0.00915485 -0.01147835 0.01850000
v 0.00915485 -0.01052165 0.00450000
v 0.00925000 -0.01100000 0.01850000
v 0.00888388 -0.01011612 0.00450000
v 0.00915485 -0.01052165 0.01850000
v 0.00847835 -0.00984515 0.00450000
v 0.00888388 -0.01011612 0.01850000
v 0.00800000 -0.00975000 0.00450000
v 0.00847835 -0.00984515 0.01850000
v 0.00752165 -0.00984515 0.00450000
v 0.00800000 -0.00975000 0.01850000
v 0.00711612 -0.01011612 0.00450000
v 0.00752165 -0.00984515 0.01850000
v 0.00684515 -0.01052165 0.00450000
v 0.00711612 -0.01011612 0.01850000
v 0.00684515 -0.01052165 0.01850000
v -0.00115485 -0.01947835 0.00450000
v -0.00125000 -0.01900000 0.00450000
v -0.00125000 -0.01900000 0.01850000
v -0.00088388 -0.01988388 0.00450000
v -0.00115485 -0.01947835 0.01850000
v -0.00047835 -0.02015485 0.00450000
v -0.00088388 -0.01988388 0.01850000
v 0.00000000 -0.02025000 0.00450000
v -0.00047835 -0.02015485 0.01850000
v 0.00047835 -0.02015485 0.00450000
v 0.00000000 -0.02025000 0.01850000
v 0.00088388 -0.01988388 0.00450000
v 0.00047835 -0.02015485 0.01850000
v 0.00115485 -0.01947835 0.00450000
v 0.00088388 -0.01988388 0.01850000
v 0.00125000 -0.01900000 0.00450000
v 0.00115485 -0.01947835 0.01850000
v 0.00115485 -0.01852165 0.00450000
v 0.00125000 -0.01900000 0.01850000
v 0.00088388 -0.01811612 0.00450000
v 0.00115485 -0.01852165 0.01850000
v 0.00047835 -0.01784515 0.00450000
v 0.00088388 -0.01811612 0.01850000
v 0.00000000 -0.01775000 0.00450000
v 0.00047835 -0.01784515 0.01850000
v -0.00047835 -0.01784515 0.00450000
v 0.00000000 -0.01775000 0.01850000
v -0.00088388 -0.01811612 0.00450000
v -0.00047835 -0.01784515 0.01850000
v -0.00115485 -0.01852165 0.00450000
v -0.00088388 -0.01811612 0.01850000
v -0.00115485 -0.01852165 0.01850000
v -0.00915485 -0.01147835 0.00450000
v -0.00925000 -0.01100000 0.00450000
v -0.00925000 -0.01100000 0.01850000
v -0.00888388 -0.01188388 0.00450000
v -0.00915485 -0.01147835 0.01850000
v -0.00847835 -0.01215485 0.00450000
v -0.00888388 -0.01188388 0.01850000
v -0.00800000 -0.01225000 0.00450000
v -0.00847835 -0.01215485 0.01850000
v -0.00752165 -0.01215485 0.00450000
v -0.00800000 -0.01225000 0.01850000
v -0.00711612 -0.01188388 0.00450000
v -0.00752165 -0.01215485 0.01850000
v -0.00684515 -0.01147835 0.00450000
v -0.00711612 -0.01188388 0.01850000
v -0.00675000 -0.01100000 0.00450000
v -0.00684515 -0.01147835 0.01850000
v -0.00684515 -0.01052165 0.00450000
v -0.00675000 -0.01100000 0.01850000
v -0.00711612 -0.01011612 0.00450000
v -0.00684515 -0.01052165 0.01850000
v -0.00752165 -0.00984515 0.00450000
v -0.00711612 -0.01011612 0.01850000
v -0.00800000 -0.00975000 0.00450000
v -0.00752165 -0.00984515 0.01850000
v -0.00847835 -0.00984515 0.00450000
v -0.00800000 -0.00975000 0.01850000
v -0.00888388 -0.01011612 0.00450000
v -0.00847835 -0.00984515 0.01850000
v -0.00915485 -0.01052165 0.00450000
v -0.00888388 -0.01011612 0.01850000
v -0.00915485 -0.01052165 0.01850000
v -0.00639596 -0.01696300 0.00450000
v -0.00645685 -0.01665686 0.00450000
v -0.00645685 -0.01665686 0.01850000
v -0.00622254 -0.01722254 0.00450000
v -0.00639596 -0.01696300 0.01850000
v -0.00596300 -0.01739596 0.00450000
v -0.00622254 -0.01722254 0.01850000
v -0.00565685 -0.01745685 0.00450000
v -0.00596300 -0.01739596 0.01850000
v -0.00535071 -0.01739596 0.00450000
v -0.00565685 -0.01745685 0.01850000
v -0.00509117 -0.01722254 0.00450000
v -0.00535071 -0.01739596 0.01850000
v -0.00491775 -0.01696300 0.00450000
v -0.00509117 -0.01722254 0.01850000
v -0.00485685 -0.01665686 0.00450000
v -0.00491775 -0.01696300 0.01850000
v -0.00491775 -0.01635071 0.00450000
v -0.00485685 -0.01665686 0.01850000
v -0.00509117 -0.01609117 0.00450000
v -0.00491775 -0.01635071 0.01850000
v -0.00535071 -0.01591775 0.00450000
v -0.00509117 -0.01609117 0.01850000
v -0.00565685 -0.01585685 0.00450000
v -0.00535071 -0.01591775 0.01850000
v -0.00596300 -0.01591775 0.00450000
v -0.00565685 -0.01585685 0.01850000
v -0.00622254 -0.01609117 0.00450000
v -0.00596300 -0.01591775 0.01850000
v -0.00639596 -0.01635071 0.00450000
v -0.00622254 -0.01609117 0.01850000
v -0.00639596 -0.01635071 0.01850000
v 0.00025000 -0.00090000 0.01850000
v 0.00025000 -0.00090000 0.00650000
v -0.00025000 -0.00090000 0.00650000
v -0.00025000 -0.00090000 0.00450000
v 0.00025000 -0.00090000 0.00450000
v -0.00025000 -0.00090000 0.01850000
v 0.00025000 -0.00070303 0.01850000
v 0.00025000 -0.00070303 0.00650000
v 0.00025000 -0.00090000 0.00650000
v 0.00025000 -0.00090000 0.00450000
v 0.00025000 -0.00070303 0.00450000
v 0.00025000 -0.00090000 0.01850000
v -0.00265000 -0.00439657 0.00450000
v -0.00535071 -0.00460404 0.00450000
v -0.00565685 -0.00454315 0.00450000
v -0.00265000 -0.00654657 0.00450000
v -0.00491775 -0.00564929 0.00450000
v -0.00485685 -0.00534315 0.00450000
v -0.00660343 -0.00439657 0.00450000
v -0.00622254 -0.00477746 0.00450000
v -0.00639596 -0.00503700 0.00450000
v -0.00509117 -0.00477746 0.00450000
v -0.00509117 -0.00590883 0.00450000
v -0.00660343 -0.00654657 0.00450000
v -0.00622254 -0.00590883 0.00450000
v -0.00596300 -0.00608225 0.00450000
v -0.00596300 -0.00460404 0.00450000
v -0.00491775 -0.00503700 0.00450000
v -0.00535071 -0.00608225 0.00450000
v -0.00565685 -0.00614315 0.00450000
v -0.00639596 -0.00564929 0.00450000
v -0.00645685 -0.00534315 0.00450000
v 0.00265000 -0.00439657 0.00450000
v 0.00265000 -0.00654657 0.00450000
v 0.00445343 -0.00439657 0.00450000
v 0.00445343 -0.00654657 0.00450000
v 0.00660343 -0.00654657 0.00450000
v 0.00639596 -0.00564929 0.00450000
v 0.00645685 -0.00534315 0.00450000
v 0.00535071 -0.00608225 0.00450000
v 0.00565685 -0.00614315 0.00450000
v 0.00509117 -0.00477746 0.00450000
v 0.00491775 -0.00503700 0.00450000
v 0.00660343 -0.00439657 0.00450000
v 0.00622254 -0.00477746 0.00450000
v 0.00596300 -0.00460404 0.00450000
v 0.00622254 -0.00590883 0.00450000
v 0.00509117 -0.00590883 0.00450000
v 0.00535071 -0.00460404 0.00450000
v 0.00565685 -0.00454315 0.00450000
v 0.00639596 -0.00503700 0.00450000
v 0.00596300 -0.00608225 0.00450000
v 0.00491775 -0.00564929 0.00450000
v 0.00485685 -0.00534315 0.00450000
v 0.00660343 -0.00835000 0.00450000
v 0.00445343 -0.00835000 0.00450000
v 0.00660343 -0.01365000 0.00450000
v 0.00660343 -0.01760343 0.00450000
v 0.00645685 -0.01665686 0.00450000
v 0.00639596 -0.01635071 0.00450000
v 0.00622254 -0.01722254 0.00450000
v 0.00639596 -0.01696300 0.00450000
v 0.00445343 -0.01365000 0.00450000
v 0.00491775 -0.01635071 0.00450000
v 0.00485685 -0.01665686 0.00450000
v 0.00622254 -0.01609117 0.00450000
v 0.00445343 -0.01760343 0.00450000
v 0.00535071 -0.01739596 0.00450000
v 0.00565685 -0.01745685 0.00450000
v 0.00509117 -0.01609117 0.00450000
v 0.00565685 -0.01585685 0.00450000
v 0.00596300 -0.01739596 0.00450000
v 0.00491775 -0.01696300 0.00450000
v 0.00535071 -0.01591775 0.00450000
v 0.00596300 -0.01591775 0.00450000
v 0.00509117 -0.01722254 0.00450000
v 0.00265000 -0.00121078 0.00450000
v 0.00394164 -0.00148404 0.00450000
v 0.00660343 -0.00326259 0.00450000
v 0.00728320 -0.00371680 0.00450000
v 0.00773741 -0.00439657 0.00450000
v 0.00951596 -0.00705836 0.00450000
v 0.00684515 -0.01052165 0.00450000
v 0.00675000 -0.01100000 0.00450000
v 0.00977288 -0.01365000 0.00450000
v 0.00800000 -0.01225000 0.00450000
v 0.00711612 -0.01011612 0.00450000
v 0.00977288 -0.00835000 0.00450000
v 0.00847835 -0.00984515 0.00450000
v 0.00800000 -0.00975000 0.00450000
v 0.00847835 -0.01215485 0.00450000
v 0.00711612 -0.01188388 0.00450000
v 0.00752165 -0.01215485 0.00450000
v 0.00752165 -0.00984515 0.00450000
v 0.01030000 -0.01100000 0.00450000
v 0.00915485 -0.01052165 0.00450000
v 0.00915485 -0.01147835 0.00450000
v 0.00925000 -0.01100000 0.00450000
v 0.00888388 -0.01188388 0.00450000
v 0.00684515 -0.01147835 0.00450000
v 0.00888388 -0.01011612 0.00450000
v 0.00951596 -0.01494164 0.00450000
v 0.00773741 -0.01760343 0.00450000
v 0.00728320 -0.01828320 0.00450000
v 0.00660343 -0.01873741 0.00450000
v 0.00265000 -0.01760343 0.00450000
v 0.00394164 -0.02051596 0.00450000
v 0.00125000 -0.01900000 0.00450000
v 0.00115485 -0.01852165 0.00450000
v 0.00088388 -0.01811612 0.00450000
v 0.00265000 -0.02077288 0.00450000
v 0.00115485 -0.01947835 0.00450000
v 0.00263935 -0.02077500 0.00450000
v 0.00047835 -0.02015485 0.00450000
v 0.00088388 -0.01988388 0.00450000
v -0.00263935 -0.02077500 0.00450000
v 0.00000000 -0.02025000 0.00450000
v -0.00265000 -0.01760343 0.00450000
v -0.00088388 -0.01811612 0.00450000
v -0.00115485 -0.01852165 0.00450000
v 0.00047835 -0.01784515 0.00450000
v 0.00000000 -0.01775000 0.00450000
v -0.00047835 -0.01784515 0.00450000
v -0.00115485 -0.01947835 0.00450000
v -0.00088388 -0.01988388 0.00450000
v -0.00047835 -0.02015485 0.00450000
v -0.00265000 -0.02077288 0.00450000
v -0.00125000 -0.01900000 0.00450000
v -0.00394164 -0.02051596 0.00450000
v -0.00660343 -0.01873741 0.00450000
v -0.00660343 -0.01760343 0.00450000
v -0.00728320 -0.01828320 0.00450000
v -0.00660343 -0.01365000 0.00450000
v -0.00773741 -0.01760343 0.00450000
v -0.00951596 -0.01494164 0.00450000
v -0.00660343 -0.00835000 0.00450000
v -0.00675000 -0.01100000 0.00450000
v -0.00684515 -0.01052165 0.00450000
v -0.00977288 -0.01365000 0.00450000
v -0.00847835 -0.01215485 0.00450000
v -0.00800000 -0.01225000 0.00450000
v -0.00711612 -0.01011612 0.00450000
v -0.00684515 -0.01147835 0.00450000
v -0.00977500 -0.01363935 0.00450000
v -0.00847835 -0.00984515 0.00450000
v -0.00888388 -0.01011612 0.00450000
v -0.00977500 -0.00836065 0.00450000
v -0.00752165 -0.01215485 0.00450000
v -0.00711612 -0.01188388 0.00450000
v -0.00888388 -0.01188388 0.00450000
v -0.00977288 -0.00835000 0.00450000
v -0.00800000 -0.00975000 0.00450000
v -0.00915485 -0.01147835 0.00450000
v -0.00915485 -0.01052165 0.00450000
v -0.00752165 -0.00984515 0.00450000
v -0.00925000 -0.01100000 0.00450000
v -0.00951596 -0.00705836 0.00450000
v -0.00773741 -0.00439657 0.00450000
v -0.00728320 -0.00371680 0.00450000
v -0.00660343 -0.00326259 0.00450000
v -0.00394164 -0.00148404 0.00450000
v 0.00025000 -0.00090000 0.00450000
v 0.00115485 -0.00252165 0.00450000
v 0.00088388 -0.00388388 0.00450000
v 0.00115485 -0.00347835 0.00450000
v 0.00088388 -0.00211612 0.00450000
v 0.00047835 -0.00415485 0.00450000
v 0.00125000 -0.00300000 0.00450000
v 0.00000000 -0.00425000 0.00450000
v -0.00047835 -0.00415485 0.00450000
v -0.00265000 -0.00121078 0.00450000
v -0.00025000 -0.00090000 0.00450000
v -0.00047835 -0.00184515 0.00450000
v 0.00047835 -0.00184515 0.00450000
v 0.00000000 -0.00175000 0.00450000
v -0.00088388 -0.00211612 0.00450000
v -0.00088388 -0.00388388 0.00450000
v -0.00125000 -0.00300000 0.00450000
v -0.00115485 -0.00347835 0.00450000
v -0.00115485 -0.00252165 0.00450000
v -0.00025000 -0.00070303 0.00450000
v 0.00286378 -0.00813622 0.00450000
v 0.00265000 -0.00799337 0.00450000
v 0.00300663 -0.00835000 0.00450000
v 0.00000000 -0.00695000 0.00450000
v 0.00154987 -0.00725829 0.00450000
v -0.00154987 -0.00725829 0.00450000
v -0.00286378 -0.00813622 0.00450000
v -0.00300663 -0.00835000 0.00450000
v -0.00265000 -0.00799337 0.00450000
v -0.00405000 -0.01100000 0.00450000
v -0.00374171 -0.00945013 0.00450000
v -0.00374171 -0.01254987 0.00450000
v -0.00491775 -0.01635071 0.00450000
v -0.00509117 -0.01609117 0.00450000
v -0.00286378 -0.01386378 0.00450000
v -0.00485685 -0.01665686 0.00450000
v -0.00265000 -0.01400663 0.00450000
v -0.00509117 -0.01722254 0.00450000
v -0.00491775 -0.01696300 0.00450000
v -0.00300663 -0.01365000 0.00450000
v -0.00639596 -0.01635071 0.00450000
v -0.00645685 -0.01665686 0.00450000
v -0.00565685 -0.01745685 0.00450000
v -0.00622254 -0.01609117 0.00450000
v -0.00535071 -0.01591775 0.00450000
v -0.00535071 -0.01739596 0.00450000
v -0.00596300 -0.01739596 0.00450000
v -0.00639596 -0.01696300 0.00450000
v -0.00596300 -0.01591775 0.00450000
v -0.00565685 -0.01585685 0.00450000
v -0.00622254 -0.01722254 0.00450000
v -0.00154987 -0.01474171 0.00450000
v 0.00000000 -0.01505000 0.00450000
v 0.00154987 -0.01474171 0.00450000
v 0.00286378 -0.01386378 0.00450000
v 0.00300663 -0.01365000 0.00450000
v 0.00265000 -0.01400663 0.00450000
v 0.00405000 -0.01100000 0.00450000
v 0.00374171 -0.00945013 0.00450000
v 0.00374171 -0.01254987 0.00450000
v 0.00025000 -0.00070303 0.00450000
v -0.01030000 -0.01100000 0.00450000
v 0.00000000 -0.02130000 0.00450000
v -0.00374171 -0.01254987 0.00450000
v -0.00405000 -0.01100000 0.00450000
v -0.00405000 -0.01100000 0.00650000
v -0.00374171 -0.01254987 0.00650000
v -0.00286378 -0.01386378 0.00650000
v -0.00300663 -0.01365000 0.00450000
v -0.00286378 -0.01386378 0.00450000
v -0.00154987 -0.01474171 0.00650000
v -0.00154987 -0.01474171 0.00450000
v -0.00265000 -0.01400663 0.00450000
v 0.00000000 -0.01505000 0.00450000
v 0.00154987 -0.01474171 0.00450000
v 0.00000000 -0.01505000 0.00650000
v 0.00154987 -0.01474171 0.00650000
v 0.00286378 -0.01386378 0.00650000
v 0.00265000 -0.01400663 0.00450000
v 0.00286378 -0.01386378 0.00450000
v 0.00374171 -0.01254987 0.00650000
v 0.00374171 -0.01254987 0.00450000
v 0.00300663 -0.01365000 0.00450000
v 0.00405000 -0.01100000 0.00450000
v 0.00374171 -0.00945013 0.00450000
v 0.00405000 -0.01100000 0.00650000
v 0.00374171 -0.00945013 0.00650000
v 0.00286378 -0.00813622 0.00650000
v 0.00300663 -0.00835000 0.00450000
v 0.00286378 -0.00813622 0.00450000
v 0.00154987 -0.00725829 0.00650000
v 0.00154987 -0.00725829 0.00450000
v 0.00265000 -0.00799337 0.00450000
v 0.00000000 -0.00695000 0.00450000
v -0.00154987 -0.00725829 0.00450000
v 0.00000000 -0.00695000 0.00650000
v -0.00154987 -0.00725829 0.00650000
v -0.00286378 -0.00813622 0.00650000
v -0.00265000 -0.00799337 0.00450000
v -0.00286378 -0.00813622 0.00450000
v -0.00374171 -0.00945013 0.00650000
v -0.00374171 -0.00945013 0.00450000
v -0.00300663 -0.00835000 0.00450000
v 0.00000000 -0.01100000 0.00650000
v 0.00374171 -0.01254987 0.00650000
v 0.00286378 -0.01386378 0.00650000
v 0.00154987 -0.01474171 0.00650000
v 0.00000000 -0.01505000 0.00650000
v -0.00154987 -0.01474171 0.00650000
v -0.00286378 -0.01386378 0.00650000
v -0.00374171 -0.01254987 0.00650000
v -0.00405000 -0.01100000 0.00650000
v -0.00374171 -0.00945013 0.00650000
v -0.00286378 -0.00813622 0.00650000
v -0.00154987 -0.00725829 0.00650000
v 0.00000000 -0.00695000 0.00650000
v 0.00154987 -0.00725829 0.00650000
v 0.00286378 -0.00813622 0.00650000
v 0.00374171 -0.00945013 0.00650000
v 0.00405000 -0.01100000 0.00650000
vt 0.50000000 0.50000000
vt 0.50000000 0.50000000
vt 0.50000000 0.50000000
vt 0.50000000 0.50000000
vt 0.50000000 0.50000000
vt 0.50000000 0.50000000
vt 0.50000000 0.50000000
vt 0.50000000 0.50000000
vt 0.50000000 0.50000000
vt 0.50000000 0.50000000
vt 0.50000000 0.50000000
vt 0.50000000 0.50000000
vt 0.50000000 0.50000000
vt 0.50000000 0.50000000
vt 0.50000000 0.50000000
vt 0.50000000 0.50000000
vt 0.50000000 0.50000000
vt 0.50000000 0.50000000
vt 0.50000000 0.50000000
vt 0.50000000 0.50000000
vt 0.50000000 0.50000000
vt 0.50000000 0.50000000
vt 0.50000000 0.50000000
vt 0.50000000 0.50000000
vt 0.50000000 0.50000000
vt 0.50000000 0.50000000
vt 0.50000000 0.50000000
vt 0.50000000 0.50000000
vt 0.50000000 0.50000000
vt 0.50000000 0.50000000
vt 0.50000000 0.50000000
vt 0.50000000 0.50000000
vt 0.50000000 0.50000000
vt 0.50000000 0.50000000
vt 0.50000000 0.50000000
vt 0.50000000 0.50000000
vt 0.50000000 0.50000000
vt 0.50000000 0.50000000
vt 0.50000000 0.50000000
vt 0.50000000 0.50000000
vt 0.50000000 0.50000000
vt 0.50000000 0.50000000
vt 0.50000000 0.50000000
vt 0.50000000 0.50000000
vt 0.50000000 0.50000000
vt 0.50000000 0.50000000
vt 0.50000000 0.50000000
vt 0.50000000 0.50000000
vt 0.50000000 0.50000000
vt 0.50000000 0.50000000
vt 0.50000000 0.50000000
vt 0.50000000 0.50000000
vt 0.50000000 0.50000000
vt 0.50000000 0.50000000
vt 0.50000000 0.50000000
vt 0.50000000 0.50000000
vt 0.50000000 0.50000000
vt 0.50000000 0.50000000
vt 0.50000000 0.50000000
vt 0.50000000 0.50000000
vt 0.50000000 0.50000000
vt 0.50000000 0.50000000
vt 0.50000000 0.50000000
vt 0.50000000 0.50000000
vt 0.50000000 0.50000000
vt 0.50000000 0.50000000
vt 0.50000000 0.50000000
vt 0.50000000 0.50000000
vt 0.50000000 0.50000000
vt 0.50000000 0.50000000
vt 0.50000000 0.50000000
vt 0.50000000 0.50000000
vt 0.50000000 0.50000000
vt 0.50000000 0.50000000
vt 0.50000000 0.50000000
vt 0.50000000 0.50000000
vt 0.50000000 0.50000000
vt 0.50000000 0.50000000
vt 0.50000000 0.50000000
vt 0.50000000 0.50000000
vt 0.50000000 0.50000000
vt 0.50000000 0.50000000
vt 0.50000000 0.50000000
vt 0.50000000 0.50000000
vt 0.50000000 0.50000000
vt 0.50000000 0.50000000
vt 0.50000000 0.50000000
vt 0.50000000 0.50000000
vt 0.50000000 0.50000000
vt 0.50000000 0.50000000
vt 0.50000000 0.50000000
vt 0.50000000 0.50000000
vt 0.50000000 0.50000000
vt 0.50000000 0.50000000
vt 0.50000000 0.50000000
vt 0.50000000 0.50000000
vt 0.50000000 0.50000000
vt 0.50000000 0.50000000
vt 0.50000000 0.50000000
vt 0.50000000 0.50000000
vt 0.50000000 0.50000000
vt 0.50000000 0.50000000
vt 0.50000000 0.50000000
vt 0.50000000 0.50000000
vt 0.50000000 0.50000000
vt 0.50000000 0.50000000
vt 0.50000000 0.50000000
vt 0.50000000 0.50000000
vt 0.50000000 0.50000000
vt 0.50000000 0.50000000
vt 0.50000000 0.50000000
vt 0.50000000 0.50000000
vt 0.50000000 0.50000000
vt 0.50000000 0.50000000
vt 0.50000000 0.50000000
vt 0.50000000 0.50000000
vt 0.50000000 0.50000000
vt 0.50000000 0.50000000
vt 0.50000000 0.50000000
vt 0.50000000 0.50000000
vt 0.50000000 0.50000000
vt 0.50000000 0.50000000
vt 0.50000000 0.50000000
vt 0.50000000 0.50000000
vt 0.50000000 0.50000000
vt 0.50000000 0.50000000
vt 0.50000000 0.50000000
vt 0.50000000 0.50000000
vt 0.50000000 0.50000000
vt 0.50000000 0.50000000
vt 0.50000000 0.50000000
vt 0.50000000 0.50000000
vt 0.50000000 0.50000000
vt 0.50000000 0.50000000
vt 0.50000000 0.50000000
vt 0.50000000 0.50000000
vt 0.50000000 0.50000000
vt 0.50000000 0.50000000
vt 0.50000000 0.50000000
vt 0.50000000 0.50000000
vt 0.50000000 0.50000000
vt 0.50000000 0.50000000
vt 0.50000000 0.50000000
vt 0.50000000 0.50000000
vt 0.50000000 0.50000000
vt 0.50000000 0.50000000
vt 0.50000000 0.50000000
vt 0.50000000 0.50000000
vt 0.50000000 0.50000000
vt 0.50000000 0.50000000
vt 0.50000000 0.50000000
vt 0.50000000 0.50000000
vt 0.50000000 0.50000000
vt 0.50000000 0.50000000
vt 0.50000000 0.50000000
vt 0.50000000 0.50000000
vt 0.50000000 0.50000000
vt 0.50000000 0.50000000
vt 0.50000000 0.50000000
vt 0.50000000 0.50000000
vt 0.50000000 0.50000000
vt 0.50000000 0.50000000
vt 0.50000000 0.50000000
vt 0.50000000 0.50000000
vt 0.50000000 0.50000000
vt 0.50000000 0.50000000
vt 0.50000000 0.50000000
vt 0.50000000 0.50000000
vt 0.50000000 0.50000000
vt 0.50000000 0.50000000
vt 0.50000000 0.50000000
vt 0.50000000 0.50000000
vt 0.50000000 0.50000000
vt 0.50000000 0.50000000
vt 0.50000000 0.50000000
vt 0.50000000 0.50000000
vt 0.50000000 0.50000000
vt 0.50000000 0.50000000
vt 0.50000000 0.50000000
vt 0.50000000 0.50000000
vt 0.50000000 0.50000000
vt 0.50000000 0.50000000
vt 0.50000000 0.50000000
vt 0.50000000 0.50000000
vt 0.50000000 0.50000000
vt 0.50000000 0.50000000
vt 0.50000000 0.50000000
vt 0.50000000 0.50000000
vt 0.50000000 0.50000000
vt 0.50000000 0.50000000
vt 0.50000000 0.50000000
vt 0.50000000 0.50000000
vt 0.50000000 0.50000000
vt 0.50000000 0.50000000
vt 0.50000000 0.50000000
vt 0.50000000 0.50000000
vt 0.50000000 0.50000000
vt 0.50000000 0.50000000
vt 0.50000000 0.50000000
vt 0.50000000 0.50000000
vt 0.50000000 0.50000000
vt 0.50000000 0.50000000
vt 0.50000000 0.50000000
vt 0.50000000 0.50000000
vt 0.50000000 0.50000000
vt 0.50000000 0.50000000
vt 0.50000000 0.50000000
vt 0.50000000 0.50000000
vt 0.50000000 0.50000000
vt 0.50000000 0.50000000
vt 0.50000000 0.50000000
vt 0.50000000 0.50000000
vt 0.50000000 0.50000000
vt 0.50000000 0.50000000
vt 0.50000000 0.50000000
vt 0.50000000 0.50000000
vt 0.50000000 0.50000000
vt 0.50000000 0.50000000
vt 0.50000000 0.50000000
vt 0.50000000 0.50000000
vt 0.50000000 0.50000000
vt 0.50000000 0.50000000
vt 0.50000000 0.50000000
vt 0.50000000 0.50000000
vt 0.50000000 0.50000000
vt 0.50000000 0.50000000
vt 0.50000000 0.50000000
vt 0.50000000 0.50000000
vt 0.50000000 0.50000000
vt 0.50000000 0.50000000
vt 0.50000000 0.50000000
vt 0.50000000 0.50000000
vt 0.50000000 0.50000000
vt 0.50000000 0.50000000
vt 0.50000000 0.50000000
vt 0.50000000 0.50000000
vt 0.50000000 0.50000000
vt 0.50000000 0.50000000
vt 0.50000000 0.50000000
vt 0.50000000 0.50000000
vt 0.50000000 0.50000000
vt 0.50000000 0.50000000
vt 0.50000000 0.50000000
vt 0.50000000 0.50000000
vt 0.50000000 0.50000000
vt 0.50000000 0.50000000
vt 0.50000000 0.50000000
vt 0.50000000 0.50000000
vt 0.50000000 0.50000000
vt 0.50000000 0.50000000
vt 0.50000000 0.50000000
vt 0.50000000 0.50000000
vt 0.50000000 0.50000000
vt 0.50000000 0.50000000
vt 0.50000000 0.50000000
vt 0.50000000 0.50000000
vt 0.50000000 0.50000000
vt 0.50000000 0.50000000
vt 0.50000000 0.50000000
vt 0.50000000 0.50000000
vt 0.50000000 0.50000000
vt 0.50000000 0.50000000
vt 0.50000000 0.50000000
vt 0.50000000 0.50000000
vt 0.50000000 0.50000000
vt 0.50000000 0.50000000
vt 0.50000000 0.50000000
vt 0.50000000 0.50000000
vt 0.50000000 0.50000000
vt 0.50000000 0.50000000
vt 0.50000000 0.50000000
vt 0.50000000 0.50000000
vt 0.50000000 0.50000000
vt 0.50000000 0.50000000
vt 0.50000000 0.50000000
vt 0.50000000 0.50000000
vt 0.50000000 0.50000000
vt 0.50000000 0.50000000
vt 0.50000000 0.50000000
vt 0.50000000 0.50000000
vt 0.50000000 0.50000000
vt 0.50000000 0.50000000
vt 0.50000000 0.50000000
vt 0.50000000 0.50000000
vt 0.50000000 0.50000000
vt 0.50000000 0.50000000
vt 0.50000000 0.50000000
vt 0.50000000 0.50000000
vt 0.50000000 0.50000000
vt 0.50000000 0.50000000
vt 0.50000000 0.50000000
vt 0.50000000 0.50000000
vt 0.50000000 0.50000000
vt 0.50000000 0.50000000
vt 0.50000000 0.50000000
vt 0.50000000 0.50000000
vt 0.50000000 0.50000000
vt 0.50000000 0.50000000
vt 0.50000000 0.50000000
vt 0.50000000 0.50000000
vt 0.50000000 0.50000000
vt 0.50000000 0.50000000
vt 0.50000000 0.50000000
vt 0.50000000 0.50000000
vt 0.50000000 0.50000000
vt 0.50000000 0.50000000
vt 0.50000000 0.50000000
vt 0.50000000 0.50000000
vt 0.50000000 0.50000000
vt 0.50000000 0.50000000
vt 0.50000000 0.50000000
vt 0.50000000 0.50000000
vt 0.50000000 0.50000000
vt 0.50000000 0.50000000
vt 0.50000000 0.50000000
vt 0.50000000 0.50000000
vt 0.50000000 0.50000000
vt 0.50000000 0.50000000
vt 0.50000000 0.50000000
vt 0.50000000 0.50000000
vt 0.50000000 0.50000000
vt 0.50000000 0.50000000
vt 0.50000000 0.50000000
vt 0.50000000 0.50000000
vt 0.50000000 0.50000000
vt 0.50000000 0.50000000
vt 0.50000000 0.50000000
vt 0.50000000 0.50000000
vt 0.50000000 0.50000000
vt 0.50000000 0.50000000
vt 0.50000000 0.50000000
vt 0.50000000 0.50000000
vt 0.50000000 0.50000000
vt 0.50000000 0.50000000
vt 0.50000000 0.50000000
vt 0.50000000 0.50000000
vt 0.50000000 0.50000000
vt 0.50000000 0.50000000
vt 0.50000000 0.50000000
vt 0.50000000 0.50000000
vt 0.50000000 0.50000000
vt 0.50000000 0.50000000
vt 0.50000000 0.50000000
vt 0.50000000 0.50000000
vt 0.50000000 0.50000000
vt 0.50000000 0.50000000
vt 0.50000000 0.50000000
vt 0.50000000 0.50000000
vt 0.50000000 0.50000000
vt 0.50000000 0.50000000
vt 0.50000000 0.50000000
vt 0.50000000 0.50000000
vt 0.50000000 0.50000000
vt 0.50000000 0.50000000
vt 0.50000000 0.50000000
vt 0.50000000 0.50000000
vt 0.50000000 0.50000000
vt 0.50000000 0.50000000
vt 0.50000000 0.50000000
vt 0.50000000 0.50000000
vt 0.50000000 0.50000000
vt 0.50000000 0.50000000
vt 0.50000000 0.50000000
vt 0.50000000 0.50000000
vt 0.50000000 0.50000000
vt 0.50000000 0.50000000
vt 0.50000000 0.50000000
vt 0.50000000 0.50000000
vt 0.50000000 0.50000000
vt 0.50000000 0.50000000
vt 0.50000000 0.50000000
vt 0.50000000 0.50000000
vt 0.50000000 0.50000000
vt 0.50000000 0.50000000
vt 0.50000000 0.50000000
vt 0.50000000 0.50000000
vt 0.50000000 0.50000000
vt 0.50000000 0.50000000
vt 0.50000000 0.50000000
vt 0.50000000 0.50000000
vt 0.50000000 0.50000000
vt 0.50000000 0.50000000
vt 0.50000000 0.50000000
vt 0.50000000 0.50000000
vt 0.50000000 0.50000000
vt 0.50000000 0.50000000
vt 0.50000000 0.50000000
vt 0.50000000 0.50000000
vt 0.50000000 0.50000000
vt 0.50000000 0.50000000
vt 0.50000000 0.50000000
vt 0.50000000 0.50000000
vt 0.50000000 0.50000000
vt 0.50000000 0.50000000
vt 0.50000000 0.50000000
vt 0.50000000 0.50000000
vt 0.50000000 0.50000000
vt 0.50000000 0.50000000
vt 0.50000000 0.50000000
vt 0.50000000 0.50000000
vt 0.50000000 0.50000000
vt 0.50000000 0.50000000
vt 0.50000000 0.50000000
vt 0.50000000 0.50000000
vt 0.50000000 0.50000000
vt 0.50000000 0.50000000
vt 0.50000000 0.50000000
vt 0.50000000 0.50000000
vt 0.50000000 0.50000000
vt 0.50000000 0.50000000
vt 0.50000000 0.50000000
vt 0.50000000 0.50000000
vt 0.50000000 0.50000000
vt 0.50000000 0.50000000
vt 0.50000000 0.50000000
vt 0.50000000 0.50000000
vt 0.50000000 0.50000000
vt 0.50000000 0.50000000
vt 0.50000000 0.50000000
vt 0.50000000 0.50000000
vt 0.50000000 0.50000000
vt 0.50000000 0.50000000
vt 0.50000000 0.50000000
vt 0.50000000 0.50000000
vt 0.50000000 0.50000000
vt 0.50000000 0.50000000
vt 0.50000000 0.50000000
vt 0.50000000 0.50000000
vt 0.50000000 0.50000000
vt 0.50000000 0.50000000
vt 0.50000000 0.50000000
vt 0.50000000 0.50000000
vt 0.50000000 0.50000000
vt 0.50000000 0.50000000
vt 0.50000000 0.50000000
vt 0.50000000 0.50000000
vt 0.50000000 0.50000000
vt 0.50000000 0.50000000
vt 0.50000000 0.50000000
vt 0.50000000 0.50000000
vt 0.50000000 0.50000000
vt 0.50000000 0.50000000
vt 0.50000000 0.50000000
vt 0.50000000 0.50000000
vt 0.50000000 0.50000000
vt 0.50000000 0.50000000
vt 0.50000000 0.50000000
vt 0.50000000 0.50000000
vt 0.50000000 0.50000000
vt 0.50000000 0.50000000
vt 0.50000000 0.50000000
vt 0.50000000 0.50000000
vt 0.50000000 0.50000000
vt 0.50000000 0.50000000
vt 0.50000000 0.50000000
vt 0.50000000 0.50000000
vt 0.50000000 0.50000000
vt 0.50000000 0.50000000
vt 0.50000000 0.50000000
vt 0.50000000 0.50000000
vt 0.50000000 0.50000000
vt 0.50000000 0.50000000
vt 0.50000000 0.50000000
vt 0.50000000 0.50000000
vt 0.50000000 0.50000000
vt 0.50000000 0.50000000
vt 0.50000000 0.50000000
vt 0.50000000 0.50000000
vt 0.50000000 0.50000000
vt 0.50000000 0.50000000
vt 0.50000000 0.50000000
vt 0.50000000 0.50000000
vt 0.50000000 0.50000000
vt 0.50000000 0.50000000
vt 0.50000000 0.50000000
vt 0.50000000 0.50000000
vt 0.50000000 0.50000000
vt 0.50000000 0.50000000
vt 0.50000000 0.50000000
vt 0.50000000 0.50000000
vt 0.50000000 0.50000000
vt 0.50000000 0.50000000
vt 0.50000000 0.50000000
vt 0.50000000 0.50000000
vt 0.50000000 0.50000000
vt 0.50000000 0.50000000
vt 0.50000000 0.50000000
vt 0.50000000 0.50000000
vt 0.50000000 0.50000000
vt 0.50000000 0.50000000
vt 0.50000000 0.50000000
vt 0.50000000 0.50000000
vt 0.50000000 0.50000000
vt 0.50000000 0.50000000
vt 0.50000000 0.50000000
vt 0.50000000 0.50000000
vt 0.50000000 0.50000000
vt 0.50000000 0.50000000
vt 0.50000000 0.50000000
vt 0.50000000 0.50000000
vt 0.50000000 0.50000000
vt 0.50000000 0.50000000
vt 0.50000000 0.50000000
vt 0.50000000 0.50000000
vt 0.50000000 0.50000000
vt 0.50000000 0.50000000
vt 0.50000000 0.50000000
vt 0.50000000 0.50000000
vt 0.50000000 0.50000000
vt 0.50000000 0.50000000
vt 0.50000000 0.50000000
vt 0.50000000 0.50000000
vt 0.50000000 0.50000000
vt 0.50000000 0.50000000
vt 0.50000000 0.50000000
vt 0.50000000 0.50000000
vt 0.50000000 0.50000000
vt 0.50000000 0.50000000
vt 0.50000000 0.50000000
vt 0.50000000 0.50000000
vt 0.50000000 0.50000000
vt 0.50000000 0.50000000
vt 0.50000000 0.50000000
vt 0.50000000 0.50000000
vt 0.50000000 0.50000000
vt 0.50000000 0.50000000
vt 0.50000000 0.50000000
vt 0.50000000 0.50000000
vt 0.50000000 0.50000000
vt 0.50000000 0.50000000
vt 0.50000000 0.50000000
vt 0.50000000 0.50000000
vt 0.50000000 0.50000000
vt 0.50000000 0.50000000
vt 0.50000000 0.50000000
vt 0.50000000 0.50000000
vt 0.50000000 0.50000000
vt 0.50000000 0.50000000
vt 0.50000000 0.50000000
vt 0.50000000 0.50000000
vt 0.50000000 0.50000000
vt 0.50000000 0.50000000
vt 0.50000000 0.50000000
vt 0.50000000 0.50000000
vt 0.50000000 0.50000000
vt 0.50000000 0.50000000
vt 0.50000000 0.50000000
vt 0.50000000 0.50000000
vt 0.50000000 0.50000000
vt 0.50000000 0.50000000
vt 0.50000000 0.50000000
vt 0.50000000 0.50000000
vt 0.50000000 0.50000000
vt 0.50000000 0.50000000
vt 0.50000000 0.50000000
vt 0.50000000 0.50000000
vt 0.50000000 0.50000000
vt 0.50000000 0.50000000
vt 0.50000000 0.50000000
vt 0.50000000 0.50000000
vt 0.50000000 0.50000000
vt 0.50000000 0.50000000
vt 0.50000000 0.50000000
vt 0.50000000 0.50000000
vt 0.50000000 0.50000000
vt 0.50000000 0.50000000
vt 0.50000000 0.50000000
vt 0.50000000 0.50000000
vt 0.50000000 0.50000000
vt 0.50000000 0.50000000
vt 0.50000000 0.50000000
vt 0.50000000 0.50000000
vt 0.50000000 0.50000000
vt 0.50000000 0.50000000
vt 0.50000000 0.50000000
vt 0.50000000 0.50000000
vt 0.50000000 0.50000000
vt 0.50000000 0.50000000
vt 0.50000000 0.50000000
vt 0.50000000 0.50000000
vt 0.50000000 0.50000000
vt 0.50000000 0.50000000
vt 0.50000000 0.50000000
vt 0.50000000 0.50000000
vt 0.50000000 0.50000000
vt 0.50000000 0.50000000
vt 0.50000000 0.50000000
vt 0.50000000 0.50000000
vt 0.50000000 0.50000000
vt 0.50000000 0.50000000
vt 0.50000000 0.50000000
vt 0.50000000 0.50000000
vt 0.50000000 0.50000000
vt 0.50000000 0.50000000
vt 0.50000000 0.50000000
vt 0.50000000 0.50000000
vt 0.50000000 0.50000000
vt 0.50000000 0.50000000
vt 0.50000000 0.50000000
vt 0.50000000 0.50000000
vt 0.50000000 0.50000000
vt 0.50000000 0.50000000
vt 0.50000000 0.50000000
vt 0.50000000 0.50000000
vt 0.50000000 0.50000000
vt 0.50000000 0.50000000
vt 0.50000000 0.50000000
vt 0.50000000 0.50000000
vt 0.50000000 0.50000000
vt 0.50000000 0.50000000
vt 0.50000000 0.50000000
vt 0.50000000 0.50000000
vt 0.50000000 0.50000000
vt 0.50000000 0.50000000
vt 0.50000000 0.50000000
vt 0.50000000 0.50000000
vt 0.50000000 0.50000000
vt 0.50000000 0.50000000
vt 0.50000000 0.50000000
vt 0.50000000 0.50000000
vt 0.50000000 0.50000000
vt 0.50000000 0.50000000
vt 0.50000000 0.50000000
vt 0.50000000 0.50000000
vt 0.50000000 0.50000000
vt 0.50000000 0.50000000
vt 0.50000000 0.50000000
vt 0.50000000 0.50000000
vt 0.50000000 0.50000000
vt 0.50000000 0.50000000
vt 0.50000000 0.50000000
vt 0.50000000 0.50000000
vt 0.50000000 0.50000000
vt 0.50000000 0.50000000
vt 0.50000000 0.50000000
vt 0.50000000 0.50000000
vt 0.50000000 0.50000000
vt 0.50000000 0.50000000
vt 0.50000000 0.50000000
vt 0.50000000 0.50000000
vt 0.50000000 0.50000000
vt 0.50000000 0.50000000
vt 0.50000000 0.50000000
vt 0.50000000 0.50000000
vt 0.50000000 0.50000000
vt 0.50000000 0.50000000
vt 0.50000000 0.50000000
vt 0.50000000 0.50000000
vt 0.50000000 0.50000000
vt 0.50000000 0.50000000
vt 0.50000000 0.50000000
vt 0.50000000 0.50000000
vt 0.50000000 0.50000000
vt 0.50000000 0.50000000
vt 0.50000000 0.50000000
vt 0.50000000 0.50000000
vt 0.50000000 0.50000000
vt 0.50000000 0.50000000
vt 0.50000000 0.50000000
vt 0.50000000 0.50000000
vt 0.50000000 0.50000000
vt 0.50000000 0.50000000
vt 0.50000000 0.50000000
vt 0.50000000 0.50000000
vt 0.50000000 0.50000000
vt 0.50000000 0.50000000
vt 0.50000000 0.50000000
vt 0.50000000 0.50000000
vt 0.50000000 0.50000000
vt 0.50000000 0.50000000
vt 0.50000000 0.50000000
vt 0.50000000 0.50000000
vt 0.50000000 0.50000000
vt 0.50000000 0.50000000
vt 0.50000000 0.50000000
vt 0.50000000 0.50000000
vt 0.50000000 0.50000000
vt 0.50000000 0.50000000
vt 0.50000000 0.50000000
vt 0.50000000 0.50000000
vt 0.50000000 0.50000000
vt 0.50000000 0.50000000
vt 0.50000000 0.50000000
vt 0.50000000 0.50000000
vt 0.50000000 0.50000000
vt 0.50000000 0.50000000
vt 0.50000000 0.50000000
vt 0.50000000 0.50000000
vt 0.50000000 0.50000000
vt 0.50000000 0.50000000
vt 0.50000000 0.50000000
vt 0.50000000 0.50000000
vt 0.50000000 0.50000000
vt 0.50000000 0.50000000
vt 0.50000000 0.50000000
vt 0.50000000 0.50000000
vt 0.50000000 0.50000000
vt 0.50000000 0.50000000
vt 0.50000000 0.50000000
vt 0.50000000 0.50000000
vt 0.50000000 0.50000000
vt 0.50000000 0.50000000
vt 0.50000000 0.50000000
vt 0.50000000 0.50000000
vt 0.50000000 0.50000000
vt 0.50000000 0.50000000
vt 0.50000000 0.50000000
vt 0.50000000 0.50000000
vt 0.50000000 0.50000000
vt 0.50000000 0.50000000
vt 0.50000000 0.50000000
vt 0.50000000 0.50000000
vt 0.50000000 0.50000000
vt 0.50000000 0.50000000
vt 0.50000000 0.50000000
vt 0.50000000 0.50000000
vt 0.50000000 0.50000000
vt 0.50000000 0.50000000
vt 0.50000000 0.50000000
vt 0.50000000 0.50000000
vt 0.50000000 0.50000000
vt 0.50000000 0.50000000
vt 0.50000000 0.50000000
vt 0.50000000 0.50000000
vt 0.50000000 0.50000000
vt 0.50000000 0.50000000
vt 0.50000000 0.50000000
vt 0.50000000 0.50000000
vt 0.50000000 0.50000000
vt 0.50000000 0.50000000
vt 0.50000000 0.50000000
vt 0.50000000 0.50000000
vt 0.50000000 0.50000000
vt 0.50000000 0.50000000
vt 0.50000000 0.50000000
vt 0.50000000 0.50000000
vt 0.50000000 0.50000000
vt 0.50000000 0.50000000
vt 0.50000000 0.50000000
vt 0.50000000 0.50000000
vt 0.50000000 0.50000000
vt 0.50000000 0.50000000
vt 0.50000000 0.50000000
vt 0.50000000 0.50000000
vt 0.50000000 0.50000000
vt 0.50000000 0.50000000
vt 0.50000000 0.50000000
vt 0.50000000 0.50000000
vt 0.50000000 0.50000000
vt 0.50000000 0.50000000
vt 0.50000000 0.50000000
vt 0.50000000 0.50000000
vt 0.50000000 0.50000000
vt 0.50000000 0.50000000
vt 0.50000000 0.50000000
vt 0.50000000 0.50000000
vt 0.50000000 0.50000000
vt 0.50000000 0.50000000
vt 0.50000000 0.50000000
vt 0.50000000 0.50000000
vt 0.50000000 0.50000000
vt 0.50000000 0.50000000
vt 0.50000000 0.50000000
vt 0.50000000 0.50000000
vt 0.50000000 0.50000000
vt 0.50000000 0.50000000
vt 0.50000000 0.50000000
vt 0.50000000 0.50000000
vt 0.50000000 0.50000000
vt 0.50000000 0.50000000
vt 0.50000000 0.50000000
vt 0.50000000 0.50000000
vt 0.50000000 0.50000000
vt 0.50000000 0.50000000
vt 0.50000000 0.50000000
vt 0.50000000 0.50000000
vt 0.50000000 0.50000000
vt 0.50000000 0.50000000
vt 0.50000000 0.50000000
vt 0.50000000 0.50000000
vt 0.50000000 0.50000000
vt 0.50000000 0.50000000
vt 0.50000000 0.50000000
vt 0.50000000 0.50000000
vt 0.50000000 0.50000000
vt 0.50000000 0.50000000
vt 0.50000000 0.50000000
vt 0.50000000 0.50000000
vt 0.50000000 0.50000000
vt 0.50000000 0.50000000
vt 0.50000000 0.50000000
vt 0.50000000 0.50000000
vt 0.50000000 0.50000000
vt 0.50000000 0.50000000
vt 0.50000000 0.50000000
vt 0.50000000 0.50000000
vt 0.50000000 0.50000000
vt 0.50000000 0.50000000
vt 0.50000000 0.50000000
vt 0.50000000 0.50000000
vt 0.50000000 0.50000000
vt 0.50000000 0.50000000
vt 0.50000000 0.50000000
vt 0.50000000 0.50000000
vt 0.50000000 0.50000000
vt 0.50000000 0.50000000
vt 0.50000000 0.50000000
vt 0.50000000 0.50000000
vt 0.50000000 0.50000000
vt 0.50000000 0.50000000
vt 0.50000000 0.50000000
vt 0.50000000 0.50000000
vt 0.50000000 0.50000000
vt 0.50000000 0.50000000
vt 0.50000000 0.50000000
vt 0.50000000 0.50000000
vt 0.50000000 0.50000000
vt 0.50000000 0.50000000
vt 0.50000000 0.50000000
vt 0.50000000 0.50000000
vt 0.50000000 0.50000000
vt 0.50000000 0.50000000
vt 0.50000000 0.50000000
vt 0.50000000 0.50000000
vt 0.50000000 0.50000000
vt 0.50000000 0.50000000
vt 0.50000000 0.50000000
vt 0.50000000 0.50000000
vt 0.50000000 0.50000000
vt 0.50000000 0.50000000
vt 0.50000000 0.50000000
vt 0.50000000 0.50000000
vt 0.50000000 0.50000000
vt 0.50000000 0.50000000
vt 0.50000000 0.50000000
vt 0.50000000 0.50000000
vt 0.50000000 0.50000000
vt 0.50000000 0.50000000
vt 0.50000000 0.50000000
vt 0.50000000 0.50000000
vt 0.50000000 0.50000000
vt 0.50000000 0.50000000
vt 0.50000000 0.50000000
vt 0.50000000 0.50000000
vt 0.50000000 0.50000000
vt 0.50000000 0.50000000
vt 0.50000000 0.50000000
vt 0.50000000 0.50000000
vt 0.50000000 0.50000000
vt 0.50000000 0.50000000
vt 0.50000000 0.50000000
vt 0.50000000 0.50000000
vt 0.50000000 0.50000000
vt 0.50000000 0.50000000
vt 0.50000000 0.50000000
vt 0.50000000 0.50000000
vt 0.50000000 0.50000000
vt 0.50000000 0.50000000
vt 0.50000000 0.50000000
vt 0.50000000 0.50000000
vt 0.50000000 0.50000000
vt 0.50000000 0.50000000
vt 0.50000000 0.50000000
vt 0.50000000 0.50000000
vt 0.50000000 0.50000000
vt 0.50000000 0.50000000
vt 0.50000000 0.50000000
vt 0.50000000 0.50000000
vt 0.50000000 0.50000000
vt 0.50000000 0.50000000
vt 0.50000000 0.50000000
vt 0.50000000 0.50000000
vt 0.50000000 0.50000000
vt 0.50000000 0.50000000
vt 0.50000000 0.50000000
vt 0.50000000 0.50000000
vt 0.50000000 0.50000000
vt 0.50000000 0.50000000
vt 0.50000000 0.50000000
vt 0.50000000 0.50000000
vt 0.50000000 0.50000000
vt 0.50000000 0.50000000
vt 0.50000000 0.50000000
vt 0.50000000 0.50000000
vt 0.50000000 0.50000000
vt 0.50000000 0.50000000
vt 0.50000000 0.50000000
vt 0.50000000 0.50000000
vt 0.50000000 0.50000000
vt 0.50000000 0.50000000
vt 0.50000000 0.50000000
vt 0.50000000 0.50000000
vt 0.50000000 0.50000000
vt 0.50000000 0.50000000
vt 0.50000000 0.50000000
vt 0.50000000 0.50000000
vt 0.50000000 0.50000000
vt 0.50000000 0.50000000
vt 0.50000000 0.50000000
vt 0.50000000 0.50000000
vt 0.50000000 0.50000000
vt 0.50000000 0.50000000
vt 0.50000000 0.50000000
vt 0.50000000 0.50000000
vt 0.50000000 0.50000000
vt 0.50000000 0.50000000
vt 0.50000000 0.50000000
vt 0.50000000 0.50000000
vt 0.50000000 0.50000000
vt 0.50000000 0.50000000
vt 0.50000000 0.50000000
vt 0.50000000 0.50000000
vt 0.50000000 0.50000000
vt 0.50000000 0.50000000
vt 0.50000000 0.50000000
vt 0.50000000 0.50000000
vt 0.50000000 0.50000000
vt 0.50000000 0.50000000
vt 0.50000000 0.50000000
vt 0.50000000 0.50000000
vt 0.50000000 0.50000000
vt 0.50000000 0.50000000
vt 0.50000000 0.50000000
vt 0.50000000 0.50000000
vt 0.50000000 0.50000000
vt 0.50000000 0.50000000
vt 0.50000000 0.50000000
vt 0.50000000 0.50000000
vt 0.50000000 0.50000000
vt 0.50000000 0.50000000
vt 0.50000000 0.50000000
vt 0.50000000 0.50000000
vt 0.50000000 0.50000000
vt 0.50000000 0.50000000
vt 0.50000000 0.50000000
vt 0.50000000 0.50000000
vt 0.50000000 0.50000000
vt 0.50000000 0.50000000
vt 0.50000000 0.50000000
vt 0.50000000 0.50000000
vt 0.50000000 0.50000000
vt 0.50000000 0.50000000
vt 0.50000000 0.50000000
vt 0.50000000 0.50000000
vt 0.50000000 0.50000000
vt 0.50000000 0.50000000
vt 0.50000000 0.50000000
vt 0.50000000 0.50000000
vt 0.50000000 0.50000000
vt 0.50000000 0.50000000
vt 0.50000000 0.50000000
vt 0.50000000 0.50000000
vt 0.50000000 0.50000000
vt 0.50000000 0.50000000
vt 0.50000000 0.50000000
vt 0.50000000 0.50000000
vt 0.50000000 0.50000000
vt 0.50000000 0.50000000
vt 0.50000000 0.50000000
vt 0.50000000 0.50000000
vt 0.50000000 0.50000000
vt 0.50000000 0.50000000
vt 0.50000000 0.50000000
vt 0.50000000 0.50000000
vt 0.50000000 0.50000000
vt 0.50000000 0.50000000
vt 0.50000000 0.50000000
vt 0.50000000 0.50000000
vt 0.50000000 0.50000000
vt 0.50000000 0.50000000
vt 0.50000000 0.50000000
vt 0.50000000 0.50000000
vt 0.50000000 0.50000000
vt 0.50000000 0.50000000
vt 0.50000000 0.50000000
vt 0.50000000 0.50000000
vt 0.50000000 0.50000000
vt 0.50000000 0.50000000
vt 0.50000000 0.50000000
vt 0.50000000 0.50000000
vt 0.50000000 0.50000000
vt 0.50000000 0.50000000
vt 0.50000000 0.50000000
vt 0.50000000 0.50000000
vt 0.50000000 0.50000000
vt 0.50000000 0.50000000
vt 0.50000000 0.50000000
vt 0.50000000 0.50000000
vt 0.50000000 0.50000000
vt 0.50000000 0.50000000
vt 0.50000000 0.50000000
vt 0.50000000 0.50000000
vt 0.50000000 0.50000000
vt 0.50000000 0.50000000
vt 0.50000000 0.50000000
vt 0.50000000 0.50000000
vt 0.50000000 0.50000000
vt 0.50000000 0.50000000
vt 0.50000000 0.50000000
vt 0.50000000 0.50000000
vt 0.50000000 0.50000000
vt 0.50000000 0.50000000
vt 0.50000000 0.50000000
vt 0.50000000 0.50000000
vt 0.50000000 0.50000000
vt 0.50000000 0.50000000
vt 0.50000000 0.50000000
vt 0.50000000 0.50000000
vt 0.50000000 0.50000000
vt 0.50000000 0.50000000
vt 0.50000000 0.50000000
vt 0.50000000 0.50000000
vt 0.50000000 0.50000000
vt 0.50000000 0.50000000
vt 0.50000000 0.50000000
vt 0.50000000 0.50000000
vt 0.50000000 0.50000000
vt 0.50000000 0.50000000
vt 0.50000000 0.50000000
vt 0.50000000 0.50000000
vt 0.50000000 0.50000000
vt 0.50000000 0.50000000
vt 0.50000000 0.50000000
vt 0.50000000 0.50000000
vt 0.50000000 0.50000000
vt 0.50000000 0.50000000
vt 0.50000000 0.50000000
vt 0.50000000 0.50000000
vt 0.50000000 0.50000000
vt 0.50000000 0.50000000
vt 0.50000000 0.50000000
vt 0.50000000 0.50000000
vt 0.50000000 0.50000000
vt 0.50000000 0.50000000
vt 0.50000000 0.50000000
vt 0.50000000 0.50000000
vt 0.50000000 0.50000000
vt 0.50000000 0.50000000
vt 0.50000000 0.50000000
vt 0.50000000 0.50000000
vt 0.50000000 0.50000000
vt 0.50000000 0.50000000
vt 0.50000000 0.50000000
vt 0.50000000 0.50000000
vt 0.50000000 0.50000000
vt 0.50000000 0.50000000
vt 0.50000000 0.50000000
vt 0.50000000 0.50000000
vt 0.50000000 0.50000000
vt 0.50000000 0.50000000
vt 0.50000000 0.50000000
vt 0.50000000 0.50000000
vt 0.50000000 0.50000000
vt 0.50000000 0.50000000
vt 0.50000000 0.50000000
vt 0.50000000 0.50000000
vt 0.50000000 0.50000000
vt 0.50000000 0.50000000
vt 0.50000000 0.50000000
vt 0.50000000 0.50000000
vt 0.50000000 0.50000000
vt 0.50000000 0.50000000
vt 0.50000000 0.50000000
vt 0.50000000 0.50000000
vt 0.50000000 0.50000000
vt 0.50000000 0.50000000
vt 0.50000000 0.50000000
vt 0.50000000 0.50000000
vt 0.50000000 0.50000000
vt 0.50000000 0.50000000
vt 0.50000000 0.50000000
vt 0.50000000 0.50000000
vt 0.50000000 0.50000000
vt 0.50000000 0.50000000
vt 0.50000000 0.50000000
vt 0.50000000 0.50000000
vt 0.50000000 0.50000000
vt 0.50000000 0.50000000
vt 0.50000000 0.50000000
vt 0.50000000 0.50000000
vt 0.50000000 0.50000000
vt 0.50000000 0.50000000
vt 0.50000000 0.50000000
f 1/1 2/2 3/3
f 3/3 4/4 1/1
f 5/5 6/6 7/7
f 7/7 8/8 5/5
f 9/9 10/10 11/11
f 12/12 9/9 13/13
f 14/14 12/12 15/15
f 16/16 14/14 17/17
f 18/18 16/16 19/19
f 19/19 20/20 18/18
f 17/17 19/19 16/16
f 15/15 17/17 14/14
f 13/13 15/15 12/12
f 11/11 13/13 9/9
f 21/21 22/22 23/23
f 23/23 24/24 21/21
f 25/25 26/26 27/27
f 26/26 28/28 29/29
f 28/28 30/30 31/31
f 32/32 33/33 34/34
f 29/29 27/27 26/26
f 31/31 35/35 28/28
f 33/33 36/36 37/37
f 34/34 38/38 32/32
f 35/35 29/29 28/28
f 37/37 39/39 33/33
f 33/33 40/40 34/34
f 30/30 41/41 31/31
f 30/30 42/42 36/36
f 36/36 42/42 37/37
f 33/33 43/43 40/40
f 36/36 41/41 30/30
f 38/38 25/25 32/32
f 39/39 43/43 33/33
f 27/27 32/32 25/25
f 44/44 45/45 46/46
f 47/47 48/48 49/49
f 50/50 51/51 48/48
f 44/44 49/49 45/45
f 48/48 47/47 50/50
f 51/51 52/52 53/53
f 49/49 44/44 47/47
f 51/51 50/50 52/52
f 54/54 55/55 56/56
f 46/46 54/54 44/44
f 53/53 57/57 51/51
f 57/57 58/58 59/59
f 46/46 55/55 54/54
f 53/53 60/60 57/57
f 57/57 61/61 58/58
f 60/60 61/61 57/57
f 59/59 56/56 57/57
f 59/59 62/62 56/56
f 56/56 62/62 54/54
f 63/63 64/64 65/65
f 65/65 66/66 63/63
f 67/67 68/68 69/69
f 70/70 67/67 71/71
f 72/72 70/70 73/73
f 74/74 72/72 75/75
f 76/76 74/74 77/77
f 77/77 78/78 76/76
f 75/75 77/77 74/74
f 73/73 75/75 72/72
f 71/71 73/73 70/70
f 69/69 71/71 67/67
f 79/79 80/80 81/81
f 81/81 82/82 79/79
f 83/83 84/84 85/85
f 85/85 86/86 83/83
f 87/87 88/88 89/89
f 90/90 91/91 92/92
f 93/93 94/94 91/91
f 87/87 92/92 88/88
f 91/91 90/90 93/93
f 94/94 95/95 96/96
f 92/92 87/87 90/90
f 94/94 93/93 95/95
f 97/97 98/98 99/99
f 89/89 97/97 87/87
f 96/96 100/100 94/94
f 100/100 101/101 102/102
f 89/89 98/98 97/97
f 96/96 103/103 100/100
f 100/100 104/104 101/101
f 103/103 104/104 100/100
f 102/102 99/99 100/100
f 102/102 105/105 99/99
f 99/99 105/105 97/97
f 106/106 107/107 108/108
f 107/107 109/109 110/110
f 109/109 111/111 112/112
f 113/113 114/114 115/115
f 110/110 108/108 107/107
f 112/112 116/116 109/109
f 114/114 117/117 118/118
f 115/115 119/119 113/113
f 116/116 110/110 109/109
f 118/118 120/120 114/114
f 114/114 121/121 115/115
f 111/111 122/122 112/112
f 111/111 123/123 117/117
f 117/117 123/123 118/118
f 114/114 124/124 121/121
f 117/117 122/122 111/111
f 119/119 106/106 113/113
f 120/120 124/124 114/114
f 108/108 113/113 106/106
f 125/125 126/126 127/127
f 128/128 127/127 129/129
f 130/130 129/129 131/131
f 132/132 131/131 133/133
f 134/134 133/133 135/135
f 136/136 135/135 137/137
f 138/138 137/137 139/139
f 140/140 139/139 141/141
f 141/141 142/142 140/140
f 139/139 140/140 138/138
f 137/137 138/138 136/136
f 135/135 136/136 134/134
f 133/133 134/134 132/132
f 131/131 132/132 130/130
f 129/129 130/130 128/128
f 127/127 128/128 125/125
f 143/143 144/144 145/145
f 145/145 146/146 143/143
f 147/147 148/148 149/149
f 149/149 150/150 147/147
f 151/151 152/152 153/153
f 151/151 154/154 155/155
f 156/156 157/157 158/158
f 157/157 155/155 154/154
f 155/155 152/152 151/151
f 154/154 158/158 157/157
f 158/158 159/159 156/156
f 160/160 153/153 157/157
f 157/157 156/156 160/160
f 161/161 162/162 154/154
f 154/154 151/151 161/161
f 153/153 160/160 151/151
f 163/163 164/164 165/165
f 166/166 165/165 167/167
f 168/168 167/167 169/169
f 170/170 169/169 171/171
f 172/172 171/171 173/173
f 174/174 173/173 175/175
f 176/176 175/175 177/177
f 178/178 177/177 179/179
f 179/179 180/180 178/178
f 177/177 178/178 176/176
f 175/175 176/176 174/174
f 173/173 174/174 172/172
f 171/171 172/172 170/170
f 169/169 170/170 168/168
f 167/167 168/168 166/166
f 165/165 166/166 163/163
f 181/181 182/182 183/183
f 182/182 184/184 183/183
f 183/183 185/185 181/181
f 186/186 187/187 188/188
f 188/188 189/189 186/186
f 188/188 190/190 189/189
f 191/191 192/192 193/193
f 194/194 193/193 195/195
f 196/196 195/195 197/197
f 198/198 197/197 199/199
f 199/199 200/200 201/201
f 197/197 202/202 200/200
f 200/200 199/199 197/197
f 201/201 203/203 199/199
f 199/199 204/204 198/198
f 197/197 198/198 196/196
f 195/195 196/196 194/194
f 193/193 194/194 191/191
f 205/205 206/206 207/207
f 207/207 208/208 205/205
f 209/209 210/210 211/211
f 212/212 213/213 214/214
f 211/211 215/215 209/209
f 216/216 212/212 209/209
f 212/212 216/216 213/213
f 209/209 217/217 210/210
f 214/214 218/218 212/212
f 209/209 219/219 216/216
f 215/215 219/219 209/209
f 220/220 221/221 222/222
f 223/223 224/224 225/225
f 222/222 226/226 220/220
f 227/227 225/225 228/228
f 225/225 229/229 223/223
f 228/228 220/220 227/227
f 229/229 230/230 223/223
f 231/231 232/232 233/233
f 234/234 235/235 236/236
f 233/233 232/232 235/235
f 225/225 237/237 228/228
f 230/230 238/238 223/223
f 223/223 238/238 231/231
f 235/235 234/234 233/233
f 224/224 237/237 225/225
f 236/236 239/239 234/234
f 233/233 223/223 231/231
f 226/226 227/227 220/220
f 240/240 241/241 242/242
f 243/243 242/242 244/244
f 245/245 246/246 247/247
f 245/245 244/244 246/246
f 248/248 249/249 250/250
f 248/248 247/247 249/249
f 250/250 251/251 248/248
f 247/247 248/248 245/245
f 244/244 245/245 243/243
f 242/242 243/243 240/240
f 252/252 253/253 254/254
f 255/255 256/256 253/253
f 257/257 258/258 256/256
f 259/259 260/260 261/261
f 257/257 259/259 262/262
f 262/262 258/258 257/257
f 262/262 263/263 258/258
f 261/261 262/262 259/259
f 256/256 255/255 257/257
f 253/253 252/252 255/255
f 254/254 264/264 252/252
f 265/265 266/266 267/267
f 267/267 268/268 265/265
f 269/269 270/270 271/271
f 266/266 272/272 267/267
f 273/273 265/265 274/274
f 269/269 275/275 270/270
f 266/266 276/276 272/272
f 274/274 277/277 273/273
f 269/269 278/278 275/275
f 277/277 269/269 273/273
f 271/271 279/279 269/269
f 279/279 273/273 269/269
f 268/268 274/274 265/265
f 280/280 281/281 282/282
f 282/282 283/283 280/280
f 280/280 284/284 281/281
f 280/280 285/285 286/286
f 283/283 287/287 288/288
f 286/286 284/284 280/280
f 282/282 287/287 283/283
f 288/288 289/289 283/283
f 290/290 291/291 292/292
f 290/290 293/293 294/294
f 294/294 295/295 290/290
f 296/296 297/297 298/298
f 298/298 297/297 292/292
f 292/292 291/291 298/298
f 299/299 300/300 301/301
f 296/296 302/302 303/303
f 303/303 301/301 296/296
f 304/304 305/305 306/306
f 299/299 306/306 305/305
f 305/305 300/300 299/299
f 307/307 308/308 309/309
f 307/307 310/310 304/304
f 304/304 311/311 307/307
f 312/312 313/313 314/314
f 312/312 315/315 309/309
f 309/309 308/308 312/312
f 316/316 317/317 318/318
f 316/316 319/319 320/320
f 320/320 321/321 316/316
f 314/314 313/313 321/321
f 321/321 320/320 314/314
f 322/322 323/323 324/324
f 325/325 324/324 323/323
f 323/323 326/326 325/325
f 325/325 326/326 318/318
f 318/318 317/317 325/325
f 327/327 328/328 329/329
f 329/329 330/330 327/327
f 327/327 331/331 332/332
f 333/333 334/334 331/331
f 331/331 327/327 333/333
f 333/333 335/335 336/336
f 335/335 337/337 338/338
f 338/338 336/336 335/335
f 335/335 339/339 340/340
f 339/339 341/341 340/340
f 342/342 343/343 344/344
f 344/344 339/339 342/342
f 345/345 346/346 347/347
f 347/347 342/342 345/345
f 294/294 348/348 349/349
f 349/349 348/348 350/350
f 348/348 351/351 350/350
f 350/350 352/352 349/349
f 353/353 322/322 354/354
f 330/330 355/355 353/353
f 356/356 357/357 354/354
f 354/354 322/322 356/356
f 354/354 330/330 353/353
f 349/349 295/295 294/294
f 347/347 343/343 342/342
f 344/344 341/341 339/339
f 340/340 337/337 335/335
f 336/336 334/334 333/333
f 332/332 328/328 327/327
f 329/329 355/355 330/330
f 324/324 356/356 322/322
f 318/318 319/319 316/316
f 314/314 315/315 312/312
f 309/309 310/310 307/307
f 306/306 311/311 304/304
f 301/301 303/303 299/299
f 298/298 302/302 296/296
f 292/292 293/293 290/290
f 358/358 359/359 360/360
f 361/361 362/362 363/363
f 360/360 364/364 358/358
f 359/359 365/365 366/366
f 362/362 367/367 363/363
f 358/358 368/368 369/369
f 366/366 360/360 359/359
f 362/362 369/369 367/367
f 358/358 370/370 368/368
f 364/364 371/371 358/358
f 369/369 362/362 358/358
f 359/359 372/372 365/365
f 361/361 373/373 374/374
f 371/371 370/370 358/358
f 374/374 359/359 361/361
f 361/361 375/375 376/376
f 374/374 372/372 359/359
f 376/376 377/377 361/361
f 377/377 373/373 361/361
f 362/362 361/361 378/378
f 379/379 380/380 381/381
f 378/378 382/382 383/383
f 379/379 384/384 380/380
f 379/379 385/385 386/386
f 383/383 385/385 378/378
f 378/378 387/387 388/388
f 379/379 389/389 384/384
f 386/386 390/390 379/379
f 383/383 391/391 385/385
f 378/378 392/392 387/387
f 390/390 389/389 379/379
f 388/388 382/382 378/378
f 378/378 393/393 394/394
f 391/391 386/386 385/385
f 393/393 395/395 394/394
f 393/393 381/381 396/396
f 394/394 392/392 378/378
f 396/396 397/397 393/393
f 397/397 395/395 393/393
f 398/398 399/399 400/400
f 398/398 401/401 399/399
f 398/398 402/402 403/403
f 358/358 404/404 405/405
f 398/398 406/406 401/401
f 403/403 407/407 398/398
f 405/405 408/408 358/358
f 407/407 406/406 398/398
f 402/402 409/409 410/410
f 402/402 408/408 411/411
f 358/358 412/412 404/404
f 358/358 413/413 414/414
f 410/410 403/403 402/402
f 408/408 415/415 411/411
f 405/405 416/416 408/408
f 358/358 400/400 413/413
f 411/411 409/409 402/402
f 414/414 412/412 358/358
f 416/416 415/415 408/408
f 398/398 358/358 362/362
f 417/417 362/362 385/385
f 418/418 385/385 379/379
f 419/419 402/402 398/398
f 420/420 421/421 422/422
f 422/422 423/423 420/420
f 421/421 424/424 425/425
f 423/423 426/426 420/420
f 425/425 427/427 421/421
f 398/398 428/428 429/429
f 420/420 430/430 431/431
f 426/426 432/432 420/420
f 427/427 433/433 421/421
f 398/398 434/434 424/424
f 429/429 435/435 398/398
f 431/431 417/417 420/420
f 433/433 422/422 421/421
f 435/435 434/434 398/398
f 398/398 417/417 436/436
f 431/431 437/437 417/417
f 424/424 421/421 398/398
f 437/437 436/436 417/417
f 436/436 428/428 398/398
f 420/420 417/417 418/418
f 438/438 439/439 440/440
f 441/441 418/418 442/442
f 418/418 443/443 444/444
f 440/440 445/445 438/438
f 444/444 442/442 418/418
f 446/446 447/447 443/443
f 438/438 448/448 439/439
f 441/441 449/449 448/448
f 441/441 450/450 451/451
f 443/443 418/418 446/446
f 446/446 452/452 453/453
f 446/446 438/438 454/454
f 448/448 438/438 441/441
f 441/441 455/455 450/450
f 446/446 456/456 447/447
f 454/454 452/452 446/446
f 451/451 449/449 441/441
f 453/453 456/456 446/446
f 442/442 455/455 441/441
f 420/420 457/457 458/458
f 421/421 458/458 459/459
f 459/459 460/460 461/461
f 419/419 461/461 462/462
f 402/402 462/462 463/463
f 463/463 464/464 402/402
f 358/358 408/408 465/465
f 465/465 466/466 358/358
f 361/361 467/467 468/468
f 361/361 359/359 469/469
f 469/469 467/467 361/361
f 361/361 470/470 471/471
f 472/472 473/473 474/474
f 361/361 475/475 470/470
f 473/473 472/472 475/475
f 474/474 476/476 477/477
f 471/471 478/478 361/361
f 474/474 477/477 472/472
f 479/479 480/480 481/481
f 482/482 378/378 483/483
f 378/378 484/484 485/485
f 378/378 361/361 486/486
f 475/475 361/361 473/473
f 481/481 480/480 487/487
f 483/483 479/479 482/482
f 378/378 488/488 484/484
f 478/478 486/486 361/361
f 474/474 481/481 489/489
f 481/481 482/482 479/479
f 486/486 488/488 378/378
f 487/487 489/489 481/481
f 489/489 476/476 474/474
f 378/378 490/490 491/491
f 378/378 482/482 490/490
f 393/393 491/491 492/492
f 379/379 393/393 493/493
f 493/493 494/494 379/379
f 446/446 495/495 496/496
f 446/446 379/379 497/497
f 498/498 499/499 500/500
f 498/498 446/446 501/501
f 497/497 495/495 446/446
f 379/379 502/502 503/503
f 498/498 504/504 499/499
f 446/446 505/505 501/501
f 379/379 506/506 497/497
f 379/379 507/507 502/502
f 508/508 509/509 507/507
f 501/501 504/504 498/498
f 503/503 506/506 379/379
f 508/508 510/510 509/509
f 500/500 511/511 498/498
f 507/507 379/379 508/508
f 508/508 511/511 512/512
f 496/496 505/505 446/446
f 511/511 513/513 512/512
f 512/512 510/510 508/508
f 446/446 514/514 515/515
f 446/446 498/498 514/514
f 438/438 515/515 516/516
f 441/441 438/438 517/517
f 517/517 518/518 441/441
f 420/420 519/519 520/520
f 420/420 521/521 519/519
f 420/420 441/441 522/522
f 523/523 524/524 525/525
f 420/420 526/526 527/527
f 522/522 521/521 420/420
f 441/441 528/528 529/529
f 523/523 530/530 524/524
f 523/523 531/531 532/532
f 527/527 533/533 420/420
f 529/529 522/522 441/441
f 441/441 525/525 534/534
f 532/532 530/530 523/523
f 420/420 535/535 526/526
f 534/534 528/528 441/441
f 531/531 536/536 532/532
f 531/531 527/527 537/537
f 457/457 420/420 533/533
f 520/520 535/535 420/420
f 537/537 536/536 531/531
f 527/527 531/531 533/533
f 523/523 538/538 531/531
f 525/525 441/441 523/523
f 533/533 539/539 457/457
f 518/518 523/523 441/441
f 516/516 517/517 438/438
f 515/515 438/438 446/446
f 500/500 513/513 511/511
f 494/494 508/508 379/379
f 492/492 493/493 393/393
f 491/491 393/393 378/378
f 485/485 483/483 378/378
f 481/481 474/474 540/540
f 468/468 473/473 361/361
f 469/469 359/359 466/466
f 466/466 359/359 358/358
f 465/465 408/408 464/464
f 464/464 408/408 402/402
f 462/462 402/402 419/419
f 461/461 419/419 459/459
f 459/459 419/419 421/421
f 458/458 421/421 420/420
f 445/445 454/454 438/438
f 418/418 441/441 420/420
f 432/432 430/430 420/420
f 398/398 421/421 419/419
f 379/379 446/446 418/418
f 385/385 418/418 417/417
f 362/362 417/417 398/398
f 400/400 358/358 398/398
f 381/381 393/393 379/379
f 378/378 385/385 362/362
f 363/363 375/375 361/361
f 541/541 542/542 543/543
f 544/544 543/543 542/542
f 542/542 545/545 544/544
f 543/543 546/546 541/541
f 547/547 548/548 549/549
f 550/550 547/547 551/551
f 552/552 550/550 553/553
f 554/554 552/552 555/555
f 556/556 554/554 557/557
f 558/558 556/556 559/559
f 560/560 558/558 561/561
f 562/562 560/560 563/563
f 564/564 562/562 565/565
f 566/566 564/564 567/567
f 568/568 566/566 569/569
f 570/570 568/568 571/571
f 572/572 570/570 573/573
f 574/574 572/572 575/575
f 576/576 574/574 577/577
f 548/548 576/576 578/578
f 578/578 549/549 548/548
f 577/577 578/578 576/576
f 575/575 577/577 574/574
f 573/573 575/575 572/572
f 571/571 573/573 570/570
f 569/569 571/571 568/568
f 567/567 569/569 566/566
f 565/565 567/567 564/564
f 563/563 565/565 562/562
f 561/561 563/563 560/560
f 559/559 561/561 558/558
f 557/557 559/559 556/556
f 555/555 557/557 554/554
f 553/553 555/555 552/552
f 551/551 553/553 550/550
f 549/549 551/551 547/547
f 579/579 580/580 581/581
f 582/582 579/579 583/583
f 584/584 582/582 585/585
f 586/586 584/584 587/587
f 588/588 586/586 589/589
f 590/590 588/588 591/591
f 592/592 590/590 593/593
f 594/594 592/592 595/595
f 596/596 594/594 597/597
f 598/598 596/596 599/599
f 600/600 598/598 601/601
f 602/602 600/600 603/603
f 604/604 602/602 605/605
f 606/606 604/604 607/607
f 608/608 606/606 609/609
f 580/580 608/608 610/610
f 610/610 581/581 580/580
f 609/609 610/610 608/608
f 607/607 609/609 606/606
f 605/605 607/607 604/604
f 603/603 605/605 602/602
f 601/601 603/603 600/600
f 599/599 601/601 598/598
f 597/597 599/599 596/596
f 595/595 597/597 594/594
f 593/593 595/595 592/592
f 591/591 593/593 590/590
f 589/589 591/591 588/588
f 587/587 589/589 586/586
f 585/585 587/587 584/584
f 583/583 585/585 582/582
f 581/581 583/583 579/579
f 611/611 612/612 613/613
f 614/614 611/611 615/615
f 616/616 614/614 617/617
f 618/618 616/616 619/619
f 620/620 618/618 621/621
f 622/622 620/620 623/623
f 624/624 622/622 625/625
f 626/626 624/624 627/627
f 628/628 626/626 629/629
f 630/630 628/628 631/631
f 632/632 630/630 633/633
f 634/634 632/632 635/635
f 636/636 634/634 637/637
f 638/638 636/636 639/639
f 640/640 638/638 641/641
f 612/612 640/640 642/642
f 642/642 613/613 612/612
f 641/641 642/642 640/640
f 639/639 641/641 638/638
f 637/637 639/639 636/636
f 635/635 637/637 634/634
f 633/633 635/635 632/632
f 631/631 633/633 630/630
f 629/629 631/631 628/628
f 627/627 629/629 626/626
f 625/625 627/627 624/624
f 623/623 625/625 622/622
f 621/621 623/623 620/620
f 619/619 621/621 618/618
f 617/617 619/619 616/616
f 615/615 617/617 614/614
f 613/613 615/615 611/611
f 643/643 644/644 645/645
f 646/646 643/643 647/647
f 648/648 646/646 649/649
f 650/650 648/648 651/651
f 652/652 650/650 653/653
f 654/654 652/652 655/655
f 656/656 654/654 657/657
f 658/658 656/656 659/659
f 660/660 658/658 661/661
f 662/662 660/660 663/663
f 664/664 662/662 665/665
f 666/666 664/664 667/667
f 668/668 666/666 669/669
f 670/670 668/668 671/671
f 672/672 670/670 673/673
f 644/644 672/672 674/674
f 674/674 645/645 644/644
f 673/673 674/674 672/672
f 671/671 673/673 670/670
f 669/669 671/671 668/668
f 667/667 669/669 666/666
f 665/665 667/667 664/664
f 663/663 665/665 662/662
f 661/661 663/663 660/660
f 659/659 661/661 658/658
f 657/657 659/659 656/656
f 655/655 657/657 654/654
f 653/653 655/655 652/652
f 651/651 653/653 650/650
f 649/649 651/651 648/648
f 647/647 649/649 646/646
f 645/645 647/647 643/643
f 675/675 676/676 677/677
f 678/678 675/675 679/679
f 680/680 678/678 681/681
f 682/682 680/680 683/683
f 684/684 682/682 685/685
f 686/686 684/684 687/687
f 688/688 686/686 689/689
f 690/690 688/688 691/691
f 692/692 690/690 693/693
f 694/694 692/692 695/695
f 696/696 694/694 697/697
f 698/698 696/696 699/699
f 700/700 698/698 701/701
f 702/702 700/700 703/703
f 704/704 702/702 705/705
f 676/676 704/704 706/706
f 706/706 677/677 676/676
f 705/705 706/706 704/704
f 703/703 705/705 702/702
f 701/701 703/703 700/700
f 699/699 701/701 698/698
f 697/697 699/699 696/696
f 695/695 697/697 694/694
f 693/693 695/695 692/692
f 691/691 693/693 690/690
f 689/689 691/691 688/688
f 687/687 689/689 686/686
f 685/685 687/687 684/684
f 683/683 685/685 682/682
f 681/681 683/683 680/680
f 679/679 681/681 678/678
f 677/677 679/679 675/675
f 707/707 708/708 709/709
f 710/710 707/707 711/711
f 712/712 710/710 713/713
f 714/714 712/712 715/715
f 716/716 714/714 717/717
f 718/718 716/716 719/719
f 720/720 718/718 721/721
f 722/722 720/720 723/723
f 724/724 722/722 725/725
f 726/726 724/724 727/727
f 728/728 726/726 729/729
f 730/730 728/728 731/731
f 732/732 730/730 733/733
f 734/734 732/732 735/735
f 736/736 734/734 737/737
f 708/708 736/736 738/738
f 738/738 709/709 708/708
f 737/737 738/738 736/736
f 735/735 737/737 734/734
f 733/733 735/735 732/732
f 731/731 733/733 730/730
f 729/729 731/731 728/728
f 727/727 729/729 726/726
f 725/725 727/727 724/724
f 723/723 725/725 722/722
f 721/721 723/723 720/720
f 719/719 721/721 718/718
f 717/717 719/719 716/716
f 715/715 717/717 714/714
f 713/713 715/715 712/712
f 711/711 713/713 710/710
f 709/709 711/711 707/707
f 739/739 740/740 741/741
f 742/742 739/739 743/743
f 744/744 742/742 745/745
f 746/746 744/744 747/747
f 748/748 746/746 749/749
f 750/750 748/748 751/751
f 752/752 750/750 753/753
f 754/754 752/752 755/755
f 756/756 754/754 757/757
f 758/758 756/756 759/759
f 760/760 758/758 761/761
f 762/762 760/760 763/763
f 764/764 762/762 765/765
f 766/766 764/764 767/767
f 768/768 766/766 769/769
f 740/740 768/768 770/770
f 770/770 741/741 740/740
f 769/769 770/770 768/768
f 767/767 769/769 766/766
f 765/765 767/767 764/764
f 763/763 765/765 762/762
f 761/761 763/763 760/760
f 759/759 761/761 758/758
f 757/757 759/759 756/756
f 755/755 757/757 754/754
f 753/753 755/755 752/752
f 751/751 753/753 750/750
f 749/749 751/751 748/748
f 747/747 749/749 746/746
f 745/745 747/747 744/744
f 743/743 745/745 742/742
f 741/741 743/743 739/739
f 771/771 772/772 773/773
f 774/774 771/771 775/775
f 776/776 774/774 777/777
f 778/778 776/776 779/779
f 780/780 778/778 781/781
f 782/782 780/780 783/783
f 784/784 782/782 785/785
f 786/786 784/784 787/787
f 788/788 786/786 789/789
f 790/790 788/788 791/791
f 792/792 790/790 793/793
f 794/794 792/792 795/795
f 796/796 794/794 797/797
f 798/798 796/796 799/799
f 800/800 798/798 801/801
f 772/772 800/800 802/802
f 802/802 773/773 772/772
f 801/801 802/802 800/800
f 799/799 801/801 798/798
f 797/797 799/799 796/796
f 795/795 797/797 794/794
f 793/793 795/795 792/792
f 791/791 793/793 790/790
f 789/789 791/791 788/788
f 787/787 789/789 786/786
f 785/785 787/787 784/784
f 783/783 785/785 782/782
f 781/781 783/783 780/780
f 779/779 781/781 778/778
f 777/777 779/779 776/776
f 775/775 777/777 774/774
f 773/773 775/775 771/771
f 803/803 804/804 805/805
f 806/806 805/805 804/804
f 804/804 807/807 806/806
f 805/805 808/808 803/803
f 809/809 810/810 811/811
f 812/812 811/811 810/810
f 810/810 813/813 812/812
f 811/811 814/814 809/809
f 815/815 816/816 817/817
f 818/818 819/819 820/820
f 821/821 822/822 823/823
f 815/815 824/824 816/816
f 818/818 825/825 819/819
f 826/826 827/827 828/828
f 821/821 829/829 822/822
f 815/815 830/830 824/824
f 818/818 831/831 825/825
f 818/818 826/826 832/832
f 826/826 833/833 827/827
f 826/826 821/821 834/834
f 821/821 817/817 829/829
f 815/815 820/820 830/830
f 832/832 831/831 818/818
f 834/834 833/833 826/826
f 817/817 821/821 815/815
f 828/828 832/832 826/826
f 820/820 815/815 818/818
f 815/815 835/835 836/836
f 835/835 837/837 838/838
f 839/839 840/840 841/841
f 838/838 842/842 843/843
f 837/837 844/844 845/845
f 846/846 847/847 848/848
f 839/839 849/849 840/840
f 838/838 850/850 842/842
f 837/837 851/851 844/844
f 837/837 846/846 852/852
f 846/846 853/853 847/847
f 839/839 854/854 849/849
f 838/838 855/855 850/850
f 838/838 837/837 856/856
f 852/852 851/851 837/837
f 846/846 841/841 853/853
f 839/839 843/843 854/854
f 856/856 855/855 838/838
f 848/848 852/852 846/846
f 843/843 839/839 838/838
f 841/841 846/846 839/839
f 838/838 839/839 857/857
f 858/858 857/857 859/859
f 859/859 860/860 861/861
f 861/861 862/862 859/859
f 860/860 863/863 864/864
f 864/864 861/861 860/860
f 865/865 866/866 867/867
f 862/862 868/868 859/859
f 869/869 870/870 871/871
f 865/865 872/872 866/866
f 865/865 859/859 873/873
f 860/860 874/874 863/863
f 871/871 860/860 869/869
f 869/869 867/867 875/875
f 865/865 876/876 872/872
f 859/859 877/877 873/873
f 871/871 874/874 860/860
f 875/875 878/878 869/869
f 873/873 876/876 865/865
f 878/878 870/870 869/869
f 868/868 877/877 859/859
f 835/835 879/879 880/880
f 837/837 880/880 881/881
f 846/846 881/881 882/882
f 839/839 846/846 883/883
f 857/857 839/839 884/884
f 857/857 885/885 886/886
f 887/887 859/859 888/888
f 857/857 889/889 885/885
f 890/890 891/891 892/892
f 888/888 893/893 887/887
f 859/859 894/894 895/895
f 857/857 896/896 889/889
f 892/892 857/857 890/890
f 890/890 897/897 898/898
f 897/897 899/899 900/900
f 887/887 901/901 899/899
f 895/895 888/888 859/859
f 859/859 886/886 902/902
f 892/892 896/896 857/857
f 898/898 903/903 890/890
f 899/899 897/897 887/887
f 902/902 894/894 859/859
f 903/903 891/891 890/890
f 893/893 901/901 887/887
f 900/900 898/898 897/897
f 859/859 904/904 905/905
f 859/859 887/887 904/904
f 860/860 905/905 906/906
f 869/869 860/860 907/907
f 908/908 869/869 909/909
f 908/908 910/910 911/911
f 911/911 912/912 908/908
f 913/913 914/914 910/910
f 914/914 913/913 915/915
f 910/910 908/908 913/913
f 915/915 916/916 917/917
f 915/915 917/917 914/914
f 915/915 918/918 919/919
f 920/920 921/921 922/922
f 908/908 923/923 924/924
f 919/919 916/916 915/915
f 920/920 925/925 921/921
f 912/912 923/923 908/908
f 926/926 927/927 918/918
f 920/920 924/924 925/925
f 918/918 928/928 919/919
f 918/918 929/929 926/926
f 929/929 920/920 930/930
f 924/924 920/920 908/908
f 930/930 926/926 929/929
f 927/927 928/928 918/918
f 920/920 931/931 932/932
f 920/920 929/929 931/931
f 933/933 932/932 934/934
f 935/935 933/933 936/936
f 936/936 937/937 935/935
f 938/938 939/939 940/940
f 941/941 942/942 943/943
f 940/940 944/944 938/938
f 935/935 945/945 939/939
f 943/943 935/935 941/941
f 942/942 941/941 946/946
f 947/947 948/948 949/949
f 939/939 938/938 935/935
f 935/935 950/950 951/951
f 946/946 952/952 942/942
f 949/949 953/953 947/947
f 953/953 938/938 954/954
f 951/951 945/945 935/935
f 946/946 955/955 952/952
f 948/948 956/956 949/949
f 938/938 957/957 954/954
f 943/943 950/950 935/935
f 946/946 949/949 958/958
f 954/954 947/947 953/953
f 958/958 955/955 946/946
f 944/944 957/957 938/938
f 938/938 953/953 959/959
f 826/826 959/959 960/960
f 821/821 960/960 961/961
f 815/815 821/821 962/962
f 962/962 963/963 815/815
f 964/964 835/835 965/965
f 835/835 966/966 967/967
f 965/965 968/968 964/964
f 835/835 969/969 966/966
f 835/835 970/970 965/965
f 835/835 971/971 969/969
f 967/967 970/970 835/835
f 815/815 972/972 971/971
f 973/973 974/974 975/975
f 974/974 976/976 977/977
f 971/971 835/835 815/815
f 975/975 978/978 973/973
f 974/974 968/968 976/976
f 815/815 979/979 972/972
f 815/815 980/980 981/981
f 973/973 982/982 980/980
f 977/977 975/975 974/974
f 879/879 835/835 964/964
f 981/981 979/979 815/815
f 978/978 982/982 973/973
f 968/968 974/974 964/964
f 973/973 983/983 974/974
f 980/980 815/815 973/973
f 838/838 984/984 985/985
f 838/838 858/858 986/986
f 986/986 984/984 838/838
f 818/818 836/836 987/987
f 836/836 988/988 987/987
f 987/987 989/989 818/818
f 836/836 985/985 988/988
f 826/826 990/990 991/991
f 826/826 818/818 992/992
f 992/992 990/990 826/826
f 935/935 938/938 993/993
f 938/938 994/994 993/993
f 938/938 991/991 994/994
f 993/993 995/995 935/935
f 996/996 997/997 998/998
f 920/920 999/999 996/996
f 996/996 1000/1000 920/920
f 920/920 1001/1001 1002/1002
f 1003/1003 998/998 997/997
f 1002/1002 999/999 920/920
f 935/935 1004/1004 1005/1005
f 998/998 1000/1000 996/996
f 920/920 933/933 1006/1006
f 935/935 1007/1007 1004/1004
f 935/935 1003/1003 1008/1008
f 920/920 1009/1009 1001/1001
f 933/933 1010/1010 1006/1006
f 933/933 1005/1005 1011/1011
f 935/935 1012/1012 1007/1007
f 1008/1008 1013/1013 935/935
f 1006/1006 1009/1009 920/920
f 1011/1011 1014/1014 933/933
f 1013/1013 1012/1012 935/935
f 1014/1014 1010/1010 933/933
f 997/997 1008/1008 1003/1003
f 920/920 1015/1015 1016/1016
f 1016/1016 908/908 920/920
f 1016/1016 1017/1017 908/908
f 920/920 1000/1000 1015/1015
f 869/869 1018/1018 1019/1019
f 869/869 908/908 1020/1020
f 1020/1020 1018/1018 869/869
f 858/858 1021/1021 1022/1022
f 865/865 1023/1023 1021/1021
f 1021/1021 858/858 865/865
f 865/865 1019/1019 1023/1023
f 1022/1022 986/986 858/858
f 1019/1019 865/865 869/869
f 1017/1017 1020/1020 908/908
f 1005/1005 933/933 935/935
f 995/995 1003/1003 935/935
f 991/991 938/938 826/826
f 989/989 992/992 818/818
f 985/985 836/836 838/838
f 964/964 1024/1024 879/879
f 963/963 973/973 815/815
f 961/961 962/962 821/821
f 960/960 821/821 826/826
f 959/959 826/826 938/938
f 956/956 958/958 949/949
f 949/949 946/946 1025/1025
f 937/937 941/941 935/935
f 934/934 936/936 933/933
f 932/932 933/933 920/920
f 922/922 930/930 920/920
f 918/918 915/915 1026/1026
f 909/909 913/913 908/908
f 907/907 909/909 869/869
f 906/906 907/907 860/860
f 905/905 860/860 859/859
f 886/886 859/859 857/857
f 884/884 890/890 857/857
f 883/883 884/884 839/839
f 882/882 883/883 846/846
f 881/881 846/846 837/837
f 880/880 837/837 835/835
f 867/867 869/869 865/865
f 859/859 865/865 858/858
f 857/857 858/858 838/838
f 845/845 856/856 837/837
f 838/838 836/836 835/835
f 836/836 818/818 815/815
f 823/823 834/834 821/821
f 1027/1027 1028/1028 1029/1029
f 1030/1030 1031/1031 1032/1032
f 1031/1031 1033/1033 1032/1032
f 1034/1034 1035/1035 1036/1036
f 1036/1036 1031/1031 1034/1034
f 1037/1037 1035/1035 1034/1034
f 1038/1038 1037/1037 1039/1039
f 1040/1040 1041/1041 1042/1042
f 1041/1041 1043/1043 1042/1042
f 1044/1044 1045/1045 1046/1046
f 1046/1046 1041/1041 1044/1044
f 1047/1047 1045/1045 1044/1044
f 1048/1048 1047/1047 1049/1049
f 1050/1050 1051/1051 1052/1052
f 1051/1051 1053/1053 1052/1052
f 1054/1054 1055/1055 1056/1056
f 1056/1056 1051/1051 1054/1054
f 1057/1057 1055/1055 1054/1054
f 1058/1058 1057/1057 1059/1059
f 1060/1060 1061/1061 1062/1062
f 1061/1061 1063/1063 1062/1062
f 1064/1064 1065/1065 1066/1066
f 1066/1066 1061/1061 1064/1064
f 1028/1028 1065/1065 1064/1064
f 1064/1064 1029/1029 1028/1028
f 1066/1066 1063/1063 1061/1061
f 1062/1062 1058/1058 1060/1060
f 1059/1059 1060/1060 1058/1058
f 1054/1054 1059/1059 1057/1057
f 1056/1056 1053/1053 1051/1051
f 1052/1052 1048/1048 1050/1050
f 1049/1049 1050/1050 1048/1048
f 1044/1044 1049/1049 1047/1047
f 1046/1046 1043/1043 1041/1041
f 1042/1042 1038/1038 1040/1040
f 1039/1039 1040/1040 1038/1038
f 1034/1034 1039/1039 1037/1037
f 1036/1036 1033/1033 1031/1031
f 1032/1032 1027/1027 1030/1030
f 1029/1029 1030/1030 1027/1027
f 1067/1067 1068/1068 1069/1069
f 1069/1069 1070/1070 1067/1067
f 1070/1070 1071/1071 1067/1067
f 1071/1071 1072/1072 1067/1067
f 1072/1072 1073/1073 1067/1067
f 1073/1073 1074/1074 1067/1067
f 1074/1074 1075/1075 1067/1067
f 1075/1075 1076/1076 1067/1067
f 1076/1076 1077/1077 1067/1067
f 1077/1077 1078/1078 1067/1067
f 1078/1078 1079/1079 1067/1067
f 1079/1079 1080/1080 1067/1067
f 1080/1080 1081/1081 1067/1067
f 1081/1081 1082/1082 1067/1067
f 1082/1082 1083/1083 1067/1067
f 1083/1083 1068/1068 1067/1067

