# https://github.com/mikedh/trimesh
mtllib material.mtl
usemtl 0.501961_0.501961_0.501961_0.000000_0.000000
v 0.02309699 0.00956709 -0.04800000
v 0.02377263 0.00617043 -0.04800000
v 0.02377263 0.00617043 -0.06360000
v 0.02500000 0.00000000 -0.06360000
v 0.02500000 0.00000000 -0.04800000
v 0.01767767 0.01767767 -0.04800000
v 0.01952321 0.01491562 -0.04800000
v 0.01952321 0.01491562 -0.06360000
v 0.02309699 0.00956709 -0.06360000
v 0.00956709 0.02309699 -0.04800000
v 0.01106250 0.02209779 -0.04800000
v 0.01106250 0.02209779 -0.06360000
v 0.01767767 0.01767767 -0.06360000
v 0.00956709 0.02309699 -0.06360000
v -0.00000000 0.02500000 -0.06360000
v -0.00956709 0.02309699 -0.04800000
v -0.00018750 0.02496270 -0.04800000
v -0.00018750 0.02496270 -0.06360000
v -0.00000000 0.02500000 -0.04800000
v -0.01767767 0.01767767 -0.04800000
v -0.01087500 0.02222307 -0.04800000
v -0.01087500 0.02222307 -0.06360000
v -0.00956709 0.02309699 -0.06360000
v -0.02309699 0.00956709 -0.04800000
v -0.02075000 0.01307960 -0.04800000
v -0.02075000 0.01307960 -0.06360000
v -0.01952321 0.01491562 -0.06360000
v -0.01952321 0.01491562 -0.04800000
v -0.01767767 0.01767767 -0.06360000
v -0.02500000 0.00000000 -0.04800000
v -0.02377263 0.00617043 -0.04800000
v -0.02377263 0.00617043 -0.06360000
v -0.02309699 0.00956709 -0.06360000
v -0.02500000 0.00000000 -0.06360000
v -0.02309699 -0.00956709 -0.06360000
v -0.01767767 -0.01767767 -0.06360000
v -0.01767767 -0.01767767 -0.04800000
v -0.02075000 -0.01307960 -0.04800000
v -0.02253002 -0.01041562 -0.04800000
v -0.02253002 -0.01041562 -0.06360000
v -0.02075000 -0.01307960 -0.06360000
v -0.02309699 -0.00956709 -0.04800000
v -0.00956709 -0.02309699 -0.04800000
v -0.01087500 -0.02222307 -0.04800000
v -0.01087500 -0.02222307 -0.06360000
v -0.00000000 -0.02500000 -0.04800000
v -0.00018750 -0.02496270 -0.04800000
v -0.00018750 -0.02496270 -0.06360000
v -0.00956709 -0.02309699 -0.06360000
v -0.00000000 -0.02500000 -0.06360000
v 0.00956709 -0.02309699 -0.06360000
v 0.01767767 -0.01767767 -0.04800000
v 0.01106250 -0.02209779 -0.04800000
v 0.01106250 -0.02209779 -0.06360000
v 0.00956709 -0.02309699 -0.04800000
v 0.02309699 -0.00956709 -0.04800000
v 0.02253002 -0.01041562 -0.04800000
v 0.02253002 -0.01041562 -0.06360000
v 0.01767767 -0.01767767 -0.06360000
v 0.02377263 -0.00617043 -0.04800000
v 0.02377263 -0.00617043 -0.06360000
v 0.02309699 -0.00956709 -0.06360000
v 0.00920373 0.01147982 -0.04800000
v 0.00937500 0.01234086 -0.04800000
v 0.00937500 0.01234086 -0.06360000
v 0.00871599 0.01074987 -0.04800000
v 0.00920373 0.01147982 -0.06360000
v 0.00798604 0.01026213 -0.04800000
v 0.00871599 0.01074987 -0.06360000
v 0.00712500 0.01009086 -0.04800000
v 0.00798604 0.01026213 -0.06360000
v 0.00626396 0.01026213 -0.04800000
v 0.00712500 0.01009086 -0.06360000
v 0.00553401 0.01074987 -0.04800000
v 0.00626396 0.01026213 -0.06360000
v 0.00504627 0.01147982 -0.04800000
v 0.00553401 0.01074987 -0.06360000
v 0.00487500 0.01234086 -0.04800000
v 0.00504627 0.01147982 -0.06360000
v 0.00504627 0.01320190 -0.04800000
v 0.00487500 0.01234086 -0.06360000
v 0.00553401 0.01393185 -0.04800000
v 0.00504627 0.01320190 -0.06360000
v 0.00626396 0.01441959 -0.04800000
v 0.00553401 0.01393185 -0.06360000
v 0.00712500 0.01459086 -0.04800000
v 0.00626396 0.01441959 -0.06360000
v 0.00798604 0.01441959 -0.04800000
v 0.00712500 0.01459086 -0.06360000
v 0.00871599 0.01393185 -0.04800000
v 0.00798604 0.01441959 -0.06360000
v 0.00920373 0.01320190 -0.04800000
v 0.00871599 0.01393185 -0.06360000
v 0.00920373 0.01320190 -0.06360000
v -0.01217127 -0.00086104 -0.04800000
v -0.01200000 -0.00000000 -0.04800000
v -0.01200000 -0.00000000 -0.06360000
v -0.01265901 -0.00159099 -0.04800000
v -0.01217127 -0.00086104 -0.06360000
v -0.01338896 -0.00207873 -0.04800000
v -0.01265901 -0.00159099 -0.06360000
v -0.01425000 -0.00225000 -0.04800000
v -0.01338896 -0.00207873 -0.06360000
v -0.01511104 -0.00207873 -0.04800000
v -0.01425000 -0.00225000 -0.06360000
v -0.01584099 -0.00159099 -0.04800000
v -0.01511104 -0.00207873 -0.06360000
v -0.01632873 -0.00086104 -0.04800000
v -0.01584099 -0.00159099 -0.06360000
v -0.01650000 -0.00000000 -0.04800000
v -0.01632873 -0.00086104 -0.06360000
v -0.01632873 0.00086104 -0.04800000
v -0.01650000 -0.00000000 -0.06360000
v -0.01584099 0.00159099 -0.04800000
v -0.01632873 0.00086104 -0.06360000
v -0.01511104 0.00207873 -0.04800000
v -0.01584099 0.00159099 -0.06360000
v -0.01425000 0.00225000 -0.04800000
v -0.01511104 0.00207873 -0.06360000
v -0.01338896 0.00207873 -0.04800000
v -0.01425000 0.00225000 -0.06360000
v -0.01265901 0.00159099 -0.04800000
v -0.01338896 0.00207873 -0.06360000
v -0.01217127 0.00086104 -0.04800000
v -0.01265901 0.00159099 -0.06360000
v -0.01217127 0.00086104 -0.06360000
v 0.00920373 -0.01320190 -0.04800000
v 0.00937500 -0.01234086 -0.04800000
v 0.00937500 -0.01234086 -0.06360000
v 0.00871599 -0.01393185 -0.04800000
v 0.00920373 -0.01320190 -0.06360000
v 0.00798604 -0.01441959 -0.04800000
v 0.00871599 -0.01393185 -0.06360000
v 0.00712500 -0.01459086 -0.04800000
v 0.00798604 -0.01441959 -0.06360000
v 0.00626396 -0.01441959 -0.04800000
v 0.00712500 -0.01459086 -0.06360000
v 0.00553401 -0.01393185 -0.04800000
v 0.00626396 -0.01441959 -0.06360000
v 0.00504627 -0.01320190 -0.04800000
v 0.00553401 -0.01393185 -0.06360000
v 0.00487500 -0.01234086 -0.04800000
v 0.00504627 -0.01320190 -0.06360000
v 0.00504627 -0.01147982 -0.04800000
v 0.00487500 -0.01234086 -0.06360000
v 0.00553401 -0.01074987 -0.04800000
v 0.00504627 -0.01147982 -0.06360000
v 0.00626396 -0.01026213 -0.04800000
v 0.00603425 -0.01041562 -0.04800000
v 0.00603425 -0.01041562 -0.06360000
v 0.00553401 -0.01074987 -0.06360000
v 0.00712500 -0.01009086 -0.04800000
v 0.00626396 -0.01026213 -0.06360000
v 0.00798604 -0.01026213 -0.04800000
v 0.00712500 -0.01009086 -0.06360000
v 0.00871599 -0.01074987 -0.04800000
v 0.00821575 -0.01041562 -0.04800000
v 0.00821575 -0.01041562 -0.06360000
v 0.00798604 -0.01026213 -0.06360000
v 0.00920373 -0.01147982 -0.04800000
v 0.00871599 -0.01074987 -0.06360000
v 0.00920373 -0.01147982 -0.06360000
v -0.00542127 0.01212934 -0.04800000
v -0.00525000 0.01299038 -0.04800000
v -0.00525000 0.01299038 -0.06360000
v -0.00590901 0.01139939 -0.04800000
v -0.00542127 0.01212934 -0.06360000
v -0.00663896 0.01091165 -0.04800000
v -0.00590901 0.01139939 -0.06360000
v -0.00750000 0.01074038 -0.04800000
v -0.00663896 0.01091165 -0.06360000
v -0.00836104 0.01091165 -0.04800000
v -0.00750000 0.01074038 -0.06360000
v -0.00909099 0.01139939 -0.04800000
v -0.00836104 0.01091165 -0.06360000
v -0.00957873 0.01212934 -0.04800000
v -0.00909099 0.01139939 -0.06360000
v -0.00975000 0.01299038 -0.04800000
v -0.00957873 0.01212934 -0.06360000
v -0.00957873 0.01385142 -0.04800000
v -0.00975000 0.01299038 -0.06360000
v -0.00909099 0.01458137 -0.04800000
v -0.00957873 0.01385142 -0.06360000
v -0.00836104 0.01506911 -0.04800000
v -0.00859075 0.01491562 -0.04800000
v -0.00859075 0.01491562 -0.06360000
v -0.00909099 0.01458137 -0.06360000
v -0.00750000 0.01524038 -0.04800000
v -0.00836104 0.01506911 -0.06360000
v -0.00663896 0.01506911 -0.04800000
v -0.00750000 0.01524038 -0.06360000
v -0.00590901 0.01458137 -0.04800000
v -0.00640925 0.01491562 -0.04800000
v -0.00640925 0.01491562 -0.06360000
v -0.00663896 0.01506911 -0.06360000
v -0.00542127 0.01385142 -0.04800000
v -0.00590901 0.01458137 -0.06360000
v -0.00542127 0.01385142 -0.06360000
v -0.00542127 -0.01385142 -0.04800000
v -0.00525000 -0.01299038 -0.04800000
v -0.00525000 -0.01299038 -0.06360000
v -0.00590901 -0.01458137 -0.04800000
v -0.00542127 -0.01385142 -0.06360000
v -0.00663896 -0.01506911 -0.04800000
v -0.00590901 -0.01458137 -0.06360000
v -0.00750000 -0.01524038 -0.04800000
v -0.00663896 -0.01506911 -0.06360000
v -0.00836104 -0.01506911 -0.04800000
v -0.00750000 -0.01524038 -0.06360000
v -0.00909099 -0.01458137 -0.04800000
v -0.00836104 -0.01506911 -0.06360000
v -0.00957873 -0.01385142 -0.04800000
v -0.00909099 -0.01458137 -0.06360000
v -0.00975000 -0.01299038 -0.04800000
v -0.00957873 -0.01385142 -0.06360000
v -0.00957873 -0.01212934 -0.04800000
v -0.00975000 -0.01299038 -0.06360000
v -0.00909099 -0.01139939 -0.04800000
v -0.00957873 -0.01212934 -0.06360000
v -0.00836104 -0.01091165 -0.04800000
v -0.00909099 -0.01139939 -0.06360000
v -0.00750000 -0.01074038 -0.04800000
v -0.00836104 -0.01091165 -0.06360000
v -0.00663896 -0.01091165 -0.04800000
v -0.00750000 -0.01074038 -0.06360000
v -0.00590901 -0.01139939 -0.04800000
v -0.00663896 -0.01091165 -0.06360000
v -0.00542127 -0.01212934 -0.04800000
v -0.00590901 -0.01139939 -0.06360000
v -0.00542127 -0.01212934 -0.06360000
v -0.02075000 -0.01041562 -0.04800000
v -0.01087500 -0.01041562 -0.04800000
v -0.01087500 -0.00617043 -0.04800000
v -0.00018750 -0.01041562 -0.04800000
v -0.00018750 -0.00617043 -0.04800000
v -0.02075000 0.00617043 -0.04800000
v -0.01511104 0.00207873 -0.04800000
v -0.01425000 0.00225000 -0.04800000
v -0.02075000 -0.00617043 -0.04800000
v -0.01425000 -0.00225000 -0.04800000
v -0.01087500 0.00617043 -0.04800000
v -0.01632873 0.00086104 -0.04800000
v -0.01584099 0.00159099 -0.04800000
v -0.01511104 -0.00207873 -0.04800000
v -0.01584099 -0.00159099 -0.04800000
v -0.01338896 -0.00207873 -0.04800000
v -0.01338896 0.00207873 -0.04800000
v -0.01265901 0.00159099 -0.04800000
v -0.01650000 -0.00000000 -0.04800000
v -0.01217127 -0.00086104 -0.04800000
v -0.01265901 -0.00159099 -0.04800000
v -0.01632873 -0.00086104 -0.04800000
v -0.01200000 -0.00000000 -0.04800000
v -0.01217127 0.00086104 -0.04800000
v -0.00018750 0.00617043 -0.04800000
v 0.01106250 -0.00617043 -0.04800000
v 0.01106250 0.00617043 -0.04800000
v -0.00018750 0.01491562 -0.04800000
v 0.00626396 0.01441959 -0.04800000
v 0.00712500 0.01459086 -0.04800000
v 0.00504627 0.01320190 -0.04800000
v 0.00553401 0.01393185 -0.04800000
v 0.01106250 0.01491562 -0.04800000
v 0.00487500 0.01234086 -0.04800000
v 0.00504627 0.01147982 -0.04800000
v 0.00626396 0.01026213 -0.04800000
v 0.00553401 0.01074987 -0.04800000
v 0.00712500 0.01009086 -0.04800000
v 0.00798604 0.01441959 -0.04800000
v 0.00871599 0.01393185 -0.04800000
v 0.00798604 0.01026213 -0.04800000
v 0.00920373 0.01147982 -0.04800000
v 0.00871599 0.01074987 -0.04800000
v 0.00937500 0.01234086 -0.04800000
v 0.00920373 0.01320190 -0.04800000
v 0.00798604 -0.01026213 -0.04800000
v 0.00821575 -0.01041562 -0.04800000
v 0.00626396 -0.01026213 -0.04800000
v 0.00712500 -0.01009086 -0.04800000
v 0.00603425 -0.01041562 -0.04800000
v -0.00663896 0.01091165 -0.04800000
v -0.00750000 0.01074038 -0.04800000
v -0.00836104 0.01091165 -0.04800000
v -0.00909099 0.01139939 -0.04800000
v -0.00542127 0.01212934 -0.04800000
v -0.00590901 0.01139939 -0.04800000
v -0.00525000 0.01299038 -0.04800000
v -0.00957873 0.01212934 -0.04800000
v -0.00975000 0.01299038 -0.04800000
v -0.00542127 0.01385142 -0.04800000
v -0.01087500 0.01491562 -0.04800000
v -0.00640925 0.01491562 -0.04800000
v -0.00590901 0.01458137 -0.04800000
v -0.00957873 0.01385142 -0.04800000
v -0.00909099 0.01458137 -0.04800000
v -0.02309699 -0.00956709 -0.04800000
v -0.02253002 -0.01041562 -0.04800000
v -0.02075000 -0.01307960 -0.04800000
v -0.01767767 -0.01767767 -0.04800000
v -0.00750000 -0.01524038 -0.04800000
v -0.00836104 -0.01506911 -0.04800000
v -0.01087500 -0.02222307 -0.04800000
v -0.00018750 -0.02496270 -0.04800000
v -0.00663896 -0.01506911 -0.04800000
v -0.00750000 -0.01074038 -0.04800000
v -0.00909099 -0.01458137 -0.04800000
v -0.00956709 -0.02309699 -0.04800000
v -0.00836104 -0.01091165 -0.04800000
v -0.00957873 -0.01212934 -0.04800000
v -0.00909099 -0.01139939 -0.04800000
v -0.00542127 -0.01385142 -0.04800000
v -0.00590901 -0.01458137 -0.04800000
v -0.00663896 -0.01091165 -0.04800000
v -0.00590901 -0.01139939 -0.04800000
v -0.00957873 -0.01385142 -0.04800000
v -0.00975000 -0.01299038 -0.04800000
v -0.00525000 -0.01299038 -0.04800000
v -0.00542127 -0.01212934 -0.04800000
v 0.00504627 -0.01147982 -0.04800000
v 0.00553401 -0.01074987 -0.04800000
v 0.00553401 -0.01393185 -0.04800000
v -0.00000000 -0.02500000 -0.04800000
v 0.00487500 -0.01234086 -0.04800000
v 0.00504627 -0.01320190 -0.04800000
v 0.00626396 -0.01441959 -0.04800000
v 0.00956709 -0.02309699 -0.04800000
v 0.00712500 -0.01459086 -0.04800000
v 0.01106250 -0.02209779 -0.04800000
v 0.00798604 -0.01441959 -0.04800000
v 0.00920373 -0.01320190 -0.04800000
v 0.00871599 -0.01393185 -0.04800000
v 0.01106250 -0.01041562 -0.04800000
v 0.00937500 -0.01234086 -0.04800000
v 0.00920373 -0.01147982 -0.04800000
v 0.00871599 -0.01074987 -0.04800000
v 0.01767767 -0.01767767 -0.04800000
v 0.02253002 -0.01041562 -0.04800000
v 0.02309699 -0.00956709 -0.04800000
v 0.02377263 0.00617043 -0.04800000
v 0.01500000 0.00225000 -0.04800000
v 0.01586104 0.00207873 -0.04800000
v 0.02500000 0.00000000 -0.04800000
v 0.01707873 0.00086104 -0.04800000
v 0.01413896 0.00207873 -0.04800000
v 0.01292127 0.00086104 -0.04800000
v 0.01340901 0.00159099 -0.04800000
v 0.01413896 -0.00207873 -0.04800000
v 0.01340901 -0.00159099 -0.04800000
v 0.01725000 -0.00000000 -0.04800000
v 0.01707873 -0.00086104 -0.04800000
v 0.01659099 0.00159099 -0.04800000
v 0.01275000 0.00000000 -0.04800000
v 0.01500000 -0.00225000 -0.04800000
v 0.02377263 -0.00617043 -0.04800000
v 0.01586104 -0.00207873 -0.04800000
v 0.01292127 -0.00086104 -0.04800000
v 0.01659099 -0.00159099 -0.04800000
v 0.02309699 0.00956709 -0.04800000
v 0.01952321 0.01491562 -0.04800000
v 0.01767767 0.01767767 -0.04800000
v 0.00956709 0.02309699 -0.04800000
v -0.00000000 0.02500000 -0.04800000
v 0.01106250 0.02209779 -0.04800000
v -0.00018750 0.02496270 -0.04800000
v -0.00956709 0.02309699 -0.04800000
v -0.00750000 0.01524038 -0.04800000
v -0.01087500 0.02222307 -0.04800000
v -0.00836104 0.01506911 -0.04800000
v -0.00859075 0.01491562 -0.04800000
v -0.00663896 0.01506911 -0.04800000
v -0.01767767 0.01767767 -0.04800000
v -0.01952321 0.01491562 -0.04800000
v -0.02075000 0.01307960 -0.04800000
v -0.02309699 0.00956709 -0.04800000
v -0.02500000 0.00000000 -0.04800000
v -0.02377263 0.00617043 -0.04800000
v -0.00018750 0.01491562 -0.06360000
v 0.00626396 0.01441959 -0.06360000
v 0.00553401 0.01393185 -0.06360000
v 0.01106250 0.01491562 -0.06360000
v 0.00712500 0.01459086 -0.06360000
v -0.00018750 0.00617043 -0.06360000
v 0.00626396 0.01026213 -0.06360000
v 0.00712500 0.01009086 -0.06360000
v 0.00504627 0.01147982 -0.06360000
v 0.00553401 0.01074987 -0.06360000
v 0.00504627 0.01320190 -0.06360000
v 0.00798604 0.01441959 -0.06360000
v 0.00920373 0.01320190 -0.06360000
v 0.00871599 0.01393185 -0.06360000
v 0.01106250 0.00617043 -0.06360000
v 0.00920373 0.01147982 -0.06360000
v 0.00937500 0.01234086 -0.06360000
v 0.00487500 0.01234086 -0.06360000
v 0.00798604 0.01026213 -0.06360000
v 0.00871599 0.01074987 -0.06360000
v -0.02075000 0.00617043 -0.06360000
v -0.01087500 0.00617043 -0.06360000
v -0.01425000 0.00225000 -0.06360000
v -0.02075000 -0.00617043 -0.06360000
v -0.01511104 -0.00207873 -0.06360000
v -0.01425000 -0.00225000 -0.06360000
v -0.01511104 0.00207873 -0.06360000
v -0.01584099 0.00159099 -0.06360000
v -0.01338896 0.00207873 -0.06360000
v -0.01087500 -0.00617043 -0.06360000
v -0.01632873 -0.00086104 -0.06360000
v -0.01584099 -0.00159099 -0.06360000
v -0.01217127 0.00086104 -0.06360000
v -0.01265901 0.00159099 -0.06360000
v -0.01200000 -0.00000000 -0.06360000
v -0.01338896 -0.00207873 -0.06360000
v -0.01265901 -0.00159099 -0.06360000
v -0.01217127 -0.00086104 -0.06360000
v -0.01632873 0.00086104 -0.06360000
v -0.01650000 -0.00000000 -0.06360000
v -0.00018750 -0.00617043 -0.06360000
v -0.02075000 -0.01041562 -0.06360000
v -0.01087500 -0.01041562 -0.06360000
v 0.00626396 -0.01026213 -0.06360000
v 0.00603425 -0.01041562 -0.06360000
v 0.01106250 -0.00617043 -0.06360000
v 0.00712500 -0.01009086 -0.06360000
v 0.01106250 -0.01041562 -0.06360000
v 0.00821575 -0.01041562 -0.06360000
v 0.00798604 -0.01026213 -0.06360000
v -0.00750000 0.01074038 -0.06360000
v -0.00836104 0.01091165 -0.06360000
v -0.00957873 0.01212934 -0.06360000
v -0.00909099 0.01139939 -0.06360000
v -0.00542127 0.01212934 -0.06360000
v -0.00663896 0.01091165 -0.06360000
v -0.00590901 0.01139939 -0.06360000
v -0.00525000 0.01299038 -0.06360000
v -0.01087500 0.01491562 -0.06360000
v -0.00975000 0.01299038 -0.06360000
v -0.00542127 0.01385142 -0.06360000
v -0.00590901 0.01458137 -0.06360000
v -0.00957873 0.01385142 -0.06360000
v -0.00859075 0.01491562 -0.06360000
v -0.00909099 0.01458137 -0.06360000
v -0.02377263 0.00617043 -0.06360000
v -0.02309699 0.00956709 -0.06360000
v -0.02075000 0.01307960 -0.06360000
v -0.01952321 0.01491562 -0.06360000
v -0.01767767 0.01767767 -0.06360000
v -0.00750000 0.01524038 -0.06360000
v -0.00836104 0.01506911 -0.06360000
v -0.01087500 0.02222307 -0.06360000
v -0.00018750 0.02496270 -0.06360000
v -0.00663896 0.01506911 -0.06360000
v -0.00956709 0.02309699 -0.06360000
v -0.00640925 0.01491562 -0.06360000
v 0.00956709 0.02309699 -0.06360000
v 0.01106250 0.02209779 -0.06360000
v -0.00000000 0.02500000 -0.06360000
v 0.01767767 0.01767767 -0.06360000
v 0.01952321 0.01491562 -0.06360000
v 0.02309699 0.00956709 -0.06360000
v 0.02500000 0.00000000 -0.06360000
v 0.01725000 -0.00000000 -0.06360000
v 0.01707873 0.00086104 -0.06360000
v 0.02377263 -0.00617043 -0.06360000
v 0.01707873 -0.00086104 -0.06360000
v 0.02377263 0.00617043 -0.06360000
v 0.01586104 0.00207873 -0.06360000
v 0.01500000 0.00225000 -0.06360000
v 0.01659099 -0.00159099 -0.06360000
v 0.01292127 -0.00086104 -0.06360000
v 0.01340901 -0.00159099 -0.06360000
v 0.01500000 -0.00225000 -0.06360000
v 0.01413896 -0.00207873 -0.06360000
v 0.01413896 0.00207873 -0.06360000
v 0.01340901 0.00159099 -0.06360000
v 0.01659099 0.00159099 -0.06360000
v 0.01586104 -0.00207873 -0.06360000
v 0.01292127 0.00086104 -0.06360000
v 0.01275000 0.00000000 -0.06360000
v 0.02309699 -0.00956709 -0.06360000
v 0.02253002 -0.01041562 -0.06360000
v 0.01767767 -0.01767767 -0.06360000
v 0.00553401 -0.01393185 -0.06360000
v 0.00626396 -0.01441959 -0.06360000
v -0.00000000 -0.02500000 -0.06360000
v 0.00712500 -0.01459086 -0.06360000
v -0.00018750 -0.02496270 -0.06360000
v 0.00504627 -0.01320190 -0.06360000
v 0.00798604 -0.01441959 -0.06360000
v 0.01106250 -0.02209779 -0.06360000
v 0.00956709 -0.02309699 -0.06360000
v -0.00018750 -0.01041562 -0.06360000
v 0.00487500 -0.01234086 -0.06360000
v 0.00920373 -0.01320190 -0.06360000
v 0.00504627 -0.01147982 -0.06360000
v 0.00553401 -0.01074987 -0.06360000
v 0.00920373 -0.01147982 -0.06360000
v 0.00871599 -0.01074987 -0.06360000
v 0.00937500 -0.01234086 -0.06360000
v 0.00871599 -0.01393185 -0.06360000
v -0.00663896 -0.01091165 -0.06360000
v -0.00750000 -0.01074038 -0.06360000
v -0.00956709 -0.02309699 -0.06360000
v -0.00750000 -0.01524038 -0.06360000
v -0.01087500 -0.02222307 -0.06360000
v -0.00836104 -0.01091165 -0.06360000
v -0.00909099 -0.01139939 -0.06360000
v -0.00836104 -0.01506911 -0.06360000
v -0.00957873 -0.01385142 -0.06360000
v -0.00909099 -0.01458137 -0.06360000
v -0.00542127 -0.01212934 -0.06360000
v -0.00590901 -0.01139939 -0.06360000
v -0.00542127 -0.01385142 -0.06360000
v -0.00663896 -0.01506911 -0.06360000
v -0.00590901 -0.01458137 -0.06360000
v -0.00525000 -0.01299038 -0.06360000
v -0.00957873 -0.01212934 -0.06360000
v -0.00975000 -0.01299038 -0.06360000
v -0.01767767 -0.01767767 -0.06360000
v -0.02075000 -0.01307960 -0.06360000
v -0.02253002 -0.01041562 -0.06360000
v -0.02500000 0.00000000 -0.06360000
v -0.02309699 -0.00956709 -0.06360000
v 0.01707873 -0.00086104 -0.04800000
v 0.01725000 -0.00000000 -0.04800000
v 0.01725000 -0.00000000 -0.06360000
v 0.01659099 -0.00159099 -0.04800000
v 0.01707873 -0.00086104 -0.06360000
v 0.01586104 -0.00207873 -0.04800000
v 0.01659099 -0.00159099 -0.06360000
v 0.01500000 -0.00225000 -0.04800000
v 0.01586104 -0.00207873 -0.06360000
v 0.01413896 -0.00207873 -0.04800000
v 0.01500000 -0.00225000 -0.06360000
v 0.01340901 -0.00159099 -0.04800000
v 0.01413896 -0.00207873 -0.06360000
v 0.01292127 -0.00086104 -0.04800000
v 0.01340901 -0.00159099 -0.06360000
v 0.01275000 0.00000000 -0.04800000
v 0.01292127 -0.00086104 -0.06360000
v 0.01292127 0.00086104 -0.04800000
v 0.01275000 0.00000000 -0.06360000
v 0.01340901 0.00159099 -0.04800000
v 0.01292127 0.00086104 -0.06360000
v 0.01413896 0.00207873 -0.04800000
v 0.01340901 0.00159099 -0.06360000
v 0.01500000 0.00225000 -0.04800000
v 0.01413896 0.00207873 -0.06360000
v 0.01586104 0.00207873 -0.04800000
v 0.01500000 0.00225000 -0.06360000
v 0.01659099 0.00159099 -0.04800000
v 0.01586104 0.00207873 -0.06360000
v 0.01707873 0.00086104 -0.04800000
v 0.01659099 0.00159099 -0.06360000
v 0.01707873 0.00086104 -0.06360000
vt 0.50000000 0.50000000
vt 0.50000000 0.50000000
vt 0.50000000 0.50000000
vt 0.50000000 0.50000000
vt 0.50000000 0.50000000
vt 0.50000000 0.50000000
vt 0.50000000 0.50000000
vt 0.50000000 0.50000000
vt 0.50000000 0.50000000
vt 0.50000000 0.50000000
vt 0.50000000 0.50000000
vt 0.50000000 0.50000000
vt 0.50000000 0.50000000
vt 0.50000000 0.50000000
vt 0.50000000 0.50000000
vt 0.50000000 0.50000000
vt 0.50000000 0.50000000
vt 0.50000000 0.50000000
vt 0.50000000 0.50000000
vt 0.50000000 0.50000000
vt 0.50000000 0.50000000
vt 0.50000000 0.50000000
vt 0.50000000 0.50000000
vt 0.50000000 0.50000000
vt 0.50000000 0.50000000
vt 0.50000000 0.50000000
vt 0.50000000 0.50000000
vt 0.50000000 0.50000000
vt 0.50000000 0.50000000
vt 0.50000000 0.50000000
vt 0.50000000 0.50000000
vt 0.50000000 0.50000000
vt 0.50000000 0.50000000
vt 0.50000000 0.50000000
vt 0.50000000 0.50000000
vt 0.50000000 0.50000000
vt 0.50000000 0.50000000
vt 0.50000000 0.50000000
vt 0.50000000 0.50000000
vt 0.50000000 0.50000000
vt 0.50000000 0.50000000
vt 0.50000000 0.50000000
vt 0.50000000 0.50000000
vt 0.50000000 0.50000000
vt 0.50000000 0.50000000
vt 0.50000000 0.50000000
vt 0.50000000 0.50000000
vt 0.50000000 0.50000000
vt 0.50000000 0.50000000
vt 0.50000000 0.50000000
vt 0.50000000 0.50000000
vt 0.50000000 0.50000000
vt 0.50000000 0.50000000
vt 0.50000000 0.50000000
vt 0.50000000 0.50000000
vt 0.50000000 0.50000000
vt 0.50000000 0.50000000
vt 0.50000000 0.50000000
vt 0.50000000 0.50000000
vt 0.50000000 0.50000000
vt 0.50000000 0.50000000
vt 0.50000000 0.50000000
vt 0.50000000 0.50000000
vt 0.50000000 0.50000000
vt 0.50000000 0.50000000
vt 0.50000000 0.50000000
vt 0.50000000 0.50000000
vt 0.50000000 0.50000000
vt 0.50000000 0.50000000
vt 0.50000000 0.50000000
vt 0.50000000 0.50000000
vt 0.50000000 0.50000000
vt 0.50000000 0.50000000
vt 0.50000000 0.50000000
vt 0.50000000 0.50000000
vt 0.50000000 0.50000000
vt 0.50000000 0.50000000
vt 0.50000000 0.50000000
vt 0.50000000 0.50000000
vt 0.50000000 0.50000000
vt 0.50000000 0.50000000
vt 0.50000000 0.50000000
vt 0.50000000 0.50000000
vt 0.50000000 0.50000000
vt 0.50000000 0.50000000
vt 0.50000000 0.50000000
vt 0.50000000 0.50000000
vt 0.50000000 0.50000000
vt 0.50000000 0.50000000
vt 0.50000000 0.50000000
vt 0.50000000 0.50000000
vt 0.50000000 0.50000000
vt 0.50000000 0.50000000
vt 0.50000000 0.50000000
vt 0.50000000 0.50000000
vt 0.50000000 0.50000000
vt 0.50000000 0.50000000
vt 0.50000000 0.50000000
vt 0.50000000 0.50000000
vt 0.50000000 0.50000000
vt 0.50000000 0.50000000
vt 0.50000000 0.50000000
vt 0.50000000 0.50000000
vt 0.50000000 0.50000000
vt 0.50000000 0.50000000
vt 0.50000000 0.50000000
vt 0.50000000 0.50000000
vt 0.50000000 0.50000000
vt 0.50000000 0.50000000
vt 0.50000000 0.50000000
vt 0.50000000 0.50000000
vt 0.50000000 0.50000000
vt 0.50000000 0.50000000
vt 0.50000000 0.50000000
vt 0.50000000 0.50000000
vt 0.50000000 0.50000000
vt 0.50000000 0.50000000
vt 0.50000000 0.50000000
vt 0.50000000 0.50000000
vt 0.50000000 0.50000000
vt 0.50000000 0.50000000
vt 0.50000000 0.50000000
vt 0.50000000 0.50000000
vt 0.50000000 0.50000000
vt 0.50000000 0.50000000
vt 0.50000000 0.50000000
vt 0.50000000 0.50000000
vt 0.50000000 0.50000000
vt 0.50000000 0.50000000
vt 0.50000000 0.50000000
vt 0.50000000 0.50000000
vt 0.50000000 0.50000000
vt 0.50000000 0.50000000
vt 0.50000000 0.50000000
vt 0.50000000 0.50000000
vt 0.50000000 0.50000000
vt 0.50000000 0.50000000
vt 0.50000000 0.50000000
vt 0.50000000 0.50000000
vt 0.50000000 0.50000000
vt 0.50000000 0.50000000
vt 0.50000000 0.50000000
vt 0.50000000 0.50000000
vt 0.50000000 0.50000000
vt 0.50000000 0.50000000
vt 0.50000000 0.50000000
vt 0.50000000 0.50000000
vt 0.50000000 0.50000000
vt 0.50000000 0.50000000
vt 0.50000000 0.50000000
vt 0.50000000 0.50000000
vt 0.50000000 0.50000000
vt 0.50000000 0.50000000
vt 0.50000000 0.50000000
vt 0.50000000 0.50000000
vt 0.50000000 0.50000000
vt 0.50000000 0.50000000
vt 0.50000000 0.50000000
vt 0.50000000 0.50000000
vt 0.50000000 0.50000000
vt 0.50000000 0.50000000
vt 0.50000000 0.50000000
vt 0.50000000 0.50000000
vt 0.50000000 0.50000000
vt 0.50000000 0.50000000
vt 0.50000000 0.50000000
vt 0.50000000 0.50000000
vt 0.50000000 0.50000000
vt 0.50000000 0.50000000
vt 0.50000000 0.50000000
vt 0.50000000 0.50000000
vt 0.50000000 0.50000000
vt 0.50000000 0.50000000
vt 0.50000000 0.50000000
vt 0.50000000 0.50000000
vt 0.50000000 0.50000000
vt 0.50000000 0.50000000
vt 0.50000000 0.50000000
vt 0.50000000 0.50000000
vt 0.50000000 0.50000000
vt 0.50000000 0.50000000
vt 0.50000000 0.50000000
vt 0.50000000 0.50000000
vt 0.50000000 0.50000000
vt 0.50000000 0.50000000
vt 0.50000000 0.50000000
vt 0.50000000 0.50000000
vt 0.50000000 0.50000000
vt 0.50000000 0.50000000
vt 0.50000000 0.50000000
vt 0.50000000 0.50000000
vt 0.50000000 0.50000000
vt 0.50000000 0.50000000
vt 0.50000000 0.50000000
vt 0.50000000 0.50000000
vt 0.50000000 0.50000000
vt 0.50000000 0.50000000
vt 0.50000000 0.50000000
vt 0.50000000 0.50000000
vt 0.50000000 0.50000000
vt 0.50000000 0.50000000
vt 0.50000000 0.50000000
vt 0.50000000 0.50000000
vt 0.50000000 0.50000000
vt 0.50000000 0.50000000
vt 0.50000000 0.50000000
vt 0.50000000 0.50000000
vt 0.50000000 0.50000000
vt 0.50000000 0.50000000
vt 0.50000000 0.50000000
vt 0.50000000 0.50000000
vt 0.50000000 0.50000000
vt 0.50000000 0.50000000
vt 0.50000000 0.50000000
vt 0.50000000 0.50000000
vt 0.50000000 0.50000000
vt 0.50000000 0.50000000
vt 0.50000000 0.50000000
vt 0.50000000 0.50000000
vt 0.50000000 0.50000000
vt 0.50000000 0.50000000
vt 0.50000000 0.50000000
vt 0.50000000 0.50000000
vt 0.50000000 0.50000000
vt 0.50000000 0.50000000
vt 0.50000000 0.50000000
vt 0.50000000 0.50000000
vt 0.50000000 0.50000000
vt 0.50000000 0.50000000
vt 0.50000000 0.50000000
vt 0.50000000 0.50000000
vt 0.50000000 0.50000000
vt 0.50000000 0.50000000
vt 0.50000000 0.50000000
vt 0.50000000 0.50000000
vt 0.50000000 0.50000000
vt 0.50000000 0.50000000
vt 0.50000000 0.50000000
vt 0.50000000 0.50000000
vt 0.50000000 0.50000000
vt 0.50000000 0.50000000
vt 0.50000000 0.50000000
vt 0.50000000 0.50000000
vt 0.50000000 0.50000000
vt 0.50000000 0.50000000
vt 0.50000000 0.50000000
vt 0.50000000 0.50000000
vt 0.50000000 0.50000000
vt 0.50000000 0.50000000
vt 0.50000000 0.50000000
vt 0.50000000 0.50000000
vt 0.50000000 0.50000000
vt 0.50000000 0.50000000
vt 0.50000000 0.50000000
vt 0.50000000 0.50000000
vt 0.50000000 0.50000000
vt 0.50000000 0.50000000
vt 0.50000000 0.50000000
vt 0.50000000 0.50000000
vt 0.50000000 0.50000000
vt 0.50000000 0.50000000
vt 0.50000000 0.50000000
vt 0.50000000 0.50000000
vt 0.50000000 0.50000000
vt 0.50000000 0.50000000
vt 0.50000000 0.50000000
vt 0.50000000 0.50000000
vt 0.50000000 0.50000000
vt 0.50000000 0.50000000
vt 0.50000000 0.50000000
vt 0.50000000 0.50000000
vt 0.50000000 0.50000000
vt 0.50000000 0.50000000
vt 0.50000000 0.50000000
vt 0.50000000 0.50000000
vt 0.50000000 0.50000000
vt 0.50000000 0.50000000
vt 0.50000000 0.50000000
vt 0.50000000 0.50000000
vt 0.50000000 0.50000000
vt 0.50000000 0.50000000
vt 0.50000000 0.50000000
vt 0.50000000 0.50000000
vt 0.50000000 0.50000000
vt 0.50000000 0.50000000
vt 0.50000000 0.50000000
vt 0.50000000 0.50000000
vt 0.50000000 0.50000000
vt 0.50000000 0.50000000
vt 0.50000000 0.50000000
vt 0.50000000 0.50000000
vt 0.50000000 0.50000000
vt 0.50000000 0.50000000
vt 0.50000000 0.50000000
vt 0.50000000 0.50000000
vt 0.50000000 0.50000000
vt 0.50000000 0.50000000
vt 0.50000000 0.50000000
vt 0.50000000 0.50000000
vt 0.50000000 0.50000000
vt 0.50000000 0.50000000
vt 0.50000000 0.50000000
vt 0.50000000 0.50000000
vt 0.50000000 0.50000000
vt 0.50000000 0.50000000
vt 0.50000000 0.50000000
vt 0.50000000 0.50000000
vt 0.50000000 0.50000000
vt 0.50000000 0.50000000
vt 0.50000000 0.50000000
vt 0.50000000 0.50000000
vt 0.50000000 0.50000000
vt 0.50000000 0.50000000
vt 0.50000000 0.50000000
vt 0.50000000 0.50000000
vt 0.50000000 0.50000000
vt 0.50000000 0.50000000
vt 0.50000000 0.50000000
vt 0.50000000 0.50000000
vt 0.50000000 0.50000000
vt 0.50000000 0.50000000
vt 0.50000000 0.50000000
vt 0.50000000 0.50000000
vt 0.50000000 0.50000000
vt 0.50000000 0.50000000
vt 0.50000000 0.50000000
vt 0.50000000 0.50000000
vt 0.50000000 0.50000000
vt 0.50000000 0.50000000
vt 0.50000000 0.50000000
vt 0.50000000 0.50000000
vt 0.50000000 0.50000000
vt 0.50000000 0.50000000
vt 0.50000000 0.50000000
vt 0.50000000 0.50000000
vt 0.50000000 0.50000000
vt 0.50000000 0.50000000
vt 0.50000000 0.50000000
vt 0.50000000 0.50000000
vt 0.50000000 0.50000000
vt 0.50000000 0.50000000
vt 0.50000000 0.50000000
vt 0.50000000 0.50000000
vt 0.50000000 0.50000000
vt 0.50000000 0.50000000
vt 0.50000000 0.50000000
vt 0.50000000 0.50000000
vt 0.50000000 0.50000000
vt 0.50000000 0.50000000
vt 0.50000000 0.50000000
vt 0.50000000 0.50000000
vt 0.50000000 0.50000000
vt 0.50000000 0.50000000
vt 0.50000000 0.50000000
vt 0.50000000 0.50000000
vt 0.50000000 0.50000000
vt 0.50000000 0.50000000
vt 0.50000000 0.50000000
vt 0.50000000 0.50000000
vt 0.50000000 0.50000000
vt 0.50000000 0.50000000
vt 0.50000000 0.50000000
vt 0.50000000 0.50000000
vt 0.50000000 0.50000000
vt 0.50000000 0.50000000
vt 0.50000000 0.50000000
vt 0.50000000 0.50000000
vt 0.50000000 0.50000000
vt 0.50000000 0.50000000
vt 0.50000000 0.50000000
vt 0.50000000 0.50000000
vt 0.50000000 0.50000000
vt 0.50000000 0.50000000
vt 0.50000000 0.50000000
vt 0.50000000 0.50000000
vt 0.50000000 0.50000000
vt 0.50000000 0.50000000
vt 0.50000000 0.50000000
vt 0.50000000 0.50000000
vt 0.50000000 0.50000000
vt 0.50000000 0.50000000
vt 0.50000000 0.50000000
vt 0.50000000 0.50000000
vt 0.50000000 0.50000000
vt 0.50000000 0.50000000
vt 0.50000000 0.50000000
vt 0.50000000 0.50000000
vt 0.50000000 0.50000000
vt 0.50000000 0.50000000
vt 0.50000000 0.50000000
vt 0.50000000 0.50000000
vt 0.50000000 0.50000000
vt 0.50000000 0.50000000
vt 0.50000000 0.50000000
vt 0.50000000 0.50000000
vt 0.50000000 0.50000000
vt 0.50000000 0.50000000
vt 0.50000000 0.50000000
vt 0.50000000 0.50000000
vt 0.50000000 0.50000000
vt 0.50000000 0.50000000
vt 0.50000000 0.50000000
vt 0.50000000 0.50000000
vt 0.50000000 0.50000000
vt 0.50000000 0.50000000
vt 0.50000000 0.50000000
vt 0.50000000 0.50000000
vt 0.50000000 0.50000000
vt 0.50000000 0.50000000
vt 0.50000000 0.50000000
vt 0.50000000 0.50000000
vt 0.50000000 0.50000000
vt 0.50000000 0.50000000
vt 0.50000000 0.50000000
vt 0.50000000 0.50000000
vt 0.50000000 0.50000000
vt 0.50000000 0.50000000
vt 0.50000000 0.50000000
vt 0.50000000 0.50000000
vt 0.50000000 0.50000000
vt 0.50000000 0.50000000
vt 0.50000000 0.50000000
vt 0.50000000 0.50000000
vt 0.50000000 0.50000000
vt 0.50000000 0.50000000
vt 0.50000000 0.50000000
vt 0.50000000 0.50000000
vt 0.50000000 0.50000000
vt 0.50000000 0.50000000
vt 0.50000000 0.50000000
vt 0.50000000 0.50000000
vt 0.50000000 0.50000000
vt 0.50000000 0.50000000
vt 0.50000000 0.50000000
vt 0.50000000 0.50000000
vt 0.50000000 0.50000000
vt 0.50000000 0.50000000
vt 0.50000000 0.50000000
vt 0.50000000 0.50000000
vt 0.50000000 0.50000000
vt 0.50000000 0.50000000
vt 0.50000000 0.50000000
vt 0.50000000 0.50000000
vt 0.50000000 0.50000000
vt 0.50000000 0.50000000
vt 0.50000000 0.50000000
vt 0.50000000 0.50000000
vt 0.50000000 0.50000000
vt 0.50000000 0.50000000
vt 0.50000000 0.50000000
vt 0.50000000 0.50000000
vt 0.50000000 0.50000000
vt 0.50000000 0.50000000
vt 0.50000000 0.50000000
vt 0.50000000 0.50000000
vt 0.50000000 0.50000000
vt 0.50000000 0.50000000
vt 0.50000000 0.50000000
vt 0.50000000 0.50000000
vt 0.50000000 0.50000000
vt 0.50000000 0.50000000
vt 0.50000000 0.50000000
vt 0.50000000 0.50000000
vt 0.50000000 0.50000000
vt 0.50000000 0.50000000
vt 0.50000000 0.50000000
vt 0.50000000 0.50000000
vt 0.50000000 0.50000000
vt 0.50000000 0.50000000
vt 0.50000000 0.50000000
vt 0.50000000 0.50000000
vt 0.50000000 0.50000000
vt 0.50000000 0.50000000
vt 0.50000000 0.50000000
vt 0.50000000 0.50000000
vt 0.50000000 0.50000000
vt 0.50000000 0.50000000
vt 0.50000000 0.50000000
vt 0.50000000 0.50000000
vt 0.50000000 0.50000000
vt 0.50000000 0.50000000
vt 0.50000000 0.50000000
vt 0.50000000 0.50000000
vt 0.50000000 0.50000000
vt 0.50000000 0.50000000
vt 0.50000000 0.50000000
vt 0.50000000 0.50000000
vt 0.50000000 0.50000000
vt 0.50000000 0.50000000
vt 0.50000000 0.50000000
vt 0.50000000 0.50000000
vt 0.50000000 0.50000000
vt 0.50000000 0.50000000
vt 0.50000000 0.50000000
vt 0.50000000 0.50000000
vt 0.50000000 0.50000000
vt 0.50000000 0.50000000
vt 0.50000000 0.50000000
vt 0.50000000 0.50000000
vt 0.50000000 0.50000000
vt 0.50000000 0.50000000
vt 0.50000000 0.50000000
vt 0.50000000 0.50000000
vt 0.50000000 0.50000000
vt 0.50000000 0.50000000
vt 0.50000000 0.50000000
vt 0.50000000 0.50000000
vt 0.50000000 0.50000000
vt 0.50000000 0.50000000
vt 0.50000000 0.50000000
vt 0.50000000 0.50000000
vt 0.50000000 0.50000000
vt 0.50000000 0.50000000
vt 0.50000000 0.50000000
vt 0.50000000 0.50000000
vt 0.50000000 0.50000000
vt 0.50000000 0.50000000
vt 0.50000000 0.50000000
vt 0.50000000 0.50000000
vt 0.50000000 0.50000000
vt 0.50000000 0.50000000
vt 0.50000000 0.50000000
vt 0.50000000 0.50000000
vt 0.50000000 0.50000000
vt 0.50000000 0.50000000
vt 0.50000000 0.50000000
vt 0.50000000 0.50000000
vt 0.50000000 0.50000000
vt 0.50000000 0.50000000
vt 0.50000000 0.50000000
vt 0.50000000 0.50000000
vt 0.50000000 0.50000000
vt 0.50000000 0.50000000
vt 0.50000000 0.50000000
vt 0.50000000 0.50000000
vt 0.50000000 0.50000000
vt 0.50000000 0.50000000
vt 0.50000000 0.50000000
vt 0.50000000 0.50000000
vt 0.50000000 0.50000000
vt 0.50000000 0.50000000
vt 0.50000000 0.50000000
vt 0.50000000 0.50000000
vt 0.50000000 0.50000000
vt 0.50000000 0.50000000
vt 0.50000000 0.50000000
vt 0.50000000 0.50000000
vt 0.50000000 0.50000000
vt 0.50000000 0.50000000
vt 0.50000000 0.50000000
vt 0.50000000 0.50000000
vt 0.50000000 0.50000000
vt 0.50000000 0.50000000
vt 0.50000000 0.50000000
f 1/1 2/2 3/3
f 4/4 3/3 2/2
f 2/2 5/5 4/4
f 6/6 7/7 8/8
f 9/9 8/8 7/7
f 7/7 1/1 9/9
f 10/10 11/11 12/12
f 13/13 12/12 11/11
f 11/11 6/6 13/13
f 10/10 14/14 15/15
f 16/16 17/17 18/18
f 15/15 18/18 17/17
f 17/17 19/19 15/15
f 20/20 21/21 22/22
f 23/23 22/22 21/21
f 21/21 16/16 23/23
f 24/24 25/25 26/26
f 27/27 26/26 25/25
f 25/25 28/28 27/27
f 20/20 29/29 27/27
f 27/27 28/28 20/20
f 30/30 31/31 32/32
f 33/33 32/32 31/31
f 31/31 24/24 33/33
f 30/30 34/34 35/35
f 36/36 37/37 38/38
f 39/39 40/40 41/41
f 41/41 38/38 39/39
f 35/35 40/40 39/39
f 39/39 42/42 35/35
f 43/43 44/44 45/45
f 36/36 45/45 44/44
f 44/44 37/37 36/36
f 46/46 47/47 48/48
f 49/49 48/48 47/47
f 47/47 43/43 49/49
f 46/46 50/50 51/51
f 52/52 53/53 54/54
f 51/51 54/54 53/53
f 53/53 55/55 51/51
f 56/56 57/57 58/58
f 59/59 58/58 57/57
f 57/57 52/52 59/59
f 5/5 60/60 61/61
f 62/62 61/61 60/60
f 60/60 56/56 62/62
f 61/61 4/4 5/5
f 58/58 62/62 56/56
f 54/54 59/59 52/52
f 51/51 55/55 46/46
f 48/48 50/50 46/46
f 45/45 49/49 43/43
f 38/38 41/41 36/36
f 35/35 42/42 30/30
f 32/32 34/34 30/30
f 26/26 33/33 24/24
f 22/22 29/29 20/20
f 18/18 23/23 16/16
f 15/15 19/19 10/10
f 12/12 14/14 10/10
f 8/8 13/13 6/6
f 3/3 9/9 1/1
f 63/63 64/64 65/65
f 66/66 63/63 67/67
f 68/68 66/66 69/69
f 70/70 68/68 71/71
f 72/72 70/70 73/73
f 74/74 72/72 75/75
f 76/76 74/74 77/77
f 78/78 76/76 79/79
f 80/80 78/78 81/81
f 82/82 80/80 83/83
f 84/84 82/82 85/85
f 86/86 84/84 87/87
f 88/88 86/86 89/89
f 90/90 88/88 91/91
f 92/92 90/90 93/93
f 64/64 92/92 94/94
f 94/94 65/65 64/64
f 93/93 94/94 92/92
f 91/91 93/93 90/90
f 89/89 91/91 88/88
f 87/87 89/89 86/86
f 85/85 87/87 84/84
f 83/83 85/85 82/82
f 81/81 83/83 80/80
f 79/79 81/81 78/78
f 77/77 79/79 76/76
f 75/75 77/77 74/74
f 73/73 75/75 72/72
f 71/71 73/73 70/70
f 69/69 71/71 68/68
f 67/67 69/69 66/66
f 65/65 67/67 63/63
f 95/95 96/96 97/97
f 98/98 95/95 99/99
f 100/100 98/98 101/101
f 102/102 100/100 103/103
f 104/104 102/102 105/105
f 106/106 104/104 107/107
f 108/108 106/106 109/109
f 110/110 108/108 111/111
f 112/112 110/110 113/113
f 114/114 112/112 115/115
f 116/116 114/114 117/117
f 118/118 116/116 119/119
f 120/120 118/118 121/121
f 122/122 120/120 123/123
f 124/124 122/122 125/125
f 96/96 124/124 126/126
f 126/126 97/97 96/96
f 125/125 126/126 124/124
f 123/123 125/125 122/122
f 121/121 123/123 120/120
f 119/119 121/121 118/118
f 117/117 119/119 116/116
f 115/115 117/117 114/114
f 113/113 115/115 112/112
f 111/111 113/113 110/110
f 109/109 111/111 108/108
f 107/107 109/109 106/106
f 105/105 107/107 104/104
f 103/103 105/105 102/102
f 101/101 103/103 100/100
f 99/99 101/101 98/98
f 97/97 99/99 95/95
f 127/127 128/128 129/129
f 130/130 127/127 131/131
f 132/132 130/130 133/133
f 134/134 132/132 135/135
f 136/136 134/134 137/137
f 138/138 136/136 139/139
f 140/140 138/138 141/141
f 142/142 140/140 143/143
f 144/144 142/142 145/145
f 146/146 144/144 147/147
f 148/148 149/149 150/150
f 151/151 150/150 149/149
f 149/149 146/146 151/151
f 152/152 148/148 153/153
f 154/154 152/152 155/155
f 156/156 157/157 158/158
f 159/159 158/158 157/157
f 157/157 154/154 159/159
f 160/160 156/156 161/161
f 128/128 160/160 162/162
f 162/162 129/129 128/128
f 161/161 162/162 160/160
f 158/158 161/161 156/156
f 155/155 159/159 154/154
f 153/153 155/155 152/152
f 150/150 153/153 148/148
f 147/147 151/151 146/146
f 145/145 147/147 144/144
f 143/143 145/145 142/142
f 141/141 143/143 140/140
f 139/139 141/141 138/138
f 137/137 139/139 136/136
f 135/135 137/137 134/134
f 133/133 135/135 132/132
f 131/131 133/133 130/130
f 129/129 131/131 127/127
f 163/163 164/164 165/165
f 166/166 163/163 167/167
f 168/168 166/166 169/169
f 170/170 168/168 171/171
f 172/172 170/170 173/173
f 174/174 172/172 175/175
f 176/176 174/174 177/177
f 178/178 176/176 179/179
f 180/180 178/178 181/181
f 182/182 180/180 183/183
f 184/184 185/185 186/186
f 187/187 186/186 185/185
f 185/185 182/182 187/187
f 188/188 184/184 189/189
f 190/190 188/188 191/191
f 192/192 193/193 194/194
f 195/195 194/194 193/193
f 193/193 190/190 195/195
f 196/196 192/192 197/197
f 164/164 196/196 198/198
f 198/198 165/165 164/164
f 197/197 198/198 196/196
f 194/194 197/197 192/192
f 191/191 195/195 190/190
f 189/189 191/191 188/188
f 186/186 189/189 184/184
f 183/183 187/187 182/182
f 181/181 183/183 180/180
f 179/179 181/181 178/178
f 177/177 179/179 176/176
f 175/175 177/177 174/174
f 173/173 175/175 172/172
f 171/171 173/173 170/170
f 169/169 171/171 168/168
f 167/167 169/169 166/166
f 165/165 167/167 163/163
f 199/199 200/200 201/201
f 202/202 199/199 203/203
f 204/204 202/202 205/205
f 206/206 204/204 207/207
f 208/208 206/206 209/209
f 210/210 208/208 211/211
f 212/212 210/210 213/213
f 214/214 212/212 215/215
f 216/216 214/214 217/217
f 218/218 216/216 219/219
f 220/220 218/218 221/221
f 222/222 220/220 223/223
f 224/224 222/222 225/225
f 226/226 224/224 227/227
f 228/228 226/226 229/229
f 200/200 228/228 230/230
f 230/230 201/201 200/200
f 229/229 230/230 228/228
f 227/227 229/229 226/226
f 225/225 227/227 224/224
f 223/223 225/225 222/222
f 221/221 223/223 220/220
f 219/219 221/221 218/218
f 217/217 219/219 216/216
f 215/215 217/217 214/214
f 213/213 215/215 212/212
f 211/211 213/213 210/210
f 209/209 211/211 208/208
f 207/207 209/209 206/206
f 205/205 207/207 204/204
f 203/203 205/205 202/202
f 201/201 203/203 199/199
f 231/231 232/232 233/233
f 232/232 234/234 235/235
f 236/236 237/237 238/238
f 239/239 233/233 240/240
f 238/238 241/241 236/236
f 236/236 242/242 243/243
f 239/239 244/244 245/245
f 233/233 246/246 240/240
f 241/241 247/247 248/248
f 243/243 237/237 236/236
f 236/236 239/239 249/249
f 240/240 244/244 239/239
f 233/233 250/250 251/251
f 238/238 247/247 241/241
f 239/239 252/252 249/249
f 251/251 246/246 233/233
f 233/233 241/241 253/253
f 249/249 242/242 236/236
f 253/253 250/250 233/233
f 245/245 252/252 239/239
f 248/248 254/254 241/241
f 233/233 235/235 255/255
f 235/235 256/256 257/257
f 258/258 259/259 260/260
f 258/258 261/261 262/262
f 262/262 259/259 258/258
f 260/260 263/263 258/258
f 258/258 264/264 261/261
f 255/255 265/265 264/264
f 255/255 266/266 267/267
f 255/255 257/257 268/268
f 264/264 258/258 255/255
f 268/268 266/266 255/255
f 267/267 265/265 255/255
f 263/263 269/269 270/270
f 257/257 271/271 268/268
f 260/260 269/269 263/263
f 257/257 272/272 273/273
f 273/273 271/271 257/257
f 257/257 263/263 274/274
f 274/274 272/272 257/257
f 270/270 275/275 263/263
f 256/256 276/276 277/277
f 235/235 278/278 279/279
f 235/235 234/234 280/280
f 256/256 279/279 276/276
f 280/280 278/278 235/235
f 279/279 256/256 235/235
f 255/255 281/281 282/282
f 241/241 283/283 284/284
f 282/282 241/241 255/255
f 282/282 283/283 241/241
f 255/255 285/285 286/286
f 258/258 287/287 285/285
f 241/241 288/288 289/289
f 286/286 281/281 255/255
f 258/258 290/290 287/287
f 289/289 291/291 241/241
f 285/285 255/255 258/258
f 284/284 288/288 241/241
f 258/258 292/292 293/293
f 291/291 294/294 295/295
f 293/293 290/290 258/258
f 289/289 294/294 291/291
f 239/239 296/296 297/297
f 232/232 231/231 298/298
f 298/298 299/299 232/232
f 300/300 301/301 302/302
f 303/303 304/304 300/300
f 234/234 232/232 305/305
f 302/302 301/301 306/306
f 300/300 307/307 303/303
f 232/232 308/308 305/305
f 232/232 309/309 310/310
f 302/302 307/307 300/300
f 303/303 311/311 312/312
f 234/234 313/313 314/314
f 310/310 308/308 232/232
f 302/302 315/315 316/316
f 312/312 304/304 303/303
f 234/234 317/317 311/311
f 305/305 313/313 234/234
f 316/316 232/232 302/302
f 311/311 303/303 234/234
f 314/314 318/318 234/234
f 306/306 315/315 302/302
f 316/316 309/309 232/232
f 234/234 319/319 320/320
f 321/321 303/303 322/322
f 234/234 323/323 319/319
f 234/234 303/303 324/324
f 322/322 325/325 321/321
f 322/322 326/326 327/327
f 324/324 323/323 234/234
f 327/327 325/325 322/322
f 321/321 324/324 303/303
f 327/327 326/326 328/328
f 328/328 329/329 327/327
f 328/328 330/330 331/331
f 332/332 333/333 330/330
f 331/331 329/329 328/328
f 332/332 334/334 333/333
f 330/330 328/328 332/332
f 332/332 277/277 335/335
f 335/335 334/334 332/332
f 332/332 328/328 336/336
f 256/256 332/332 337/337
f 337/337 338/338 256/256
f 339/339 257/257 340/340
f 340/340 341/341 339/339
f 342/342 339/339 343/343
f 257/257 344/344 340/340
f 257/257 345/345 346/346
f 256/256 347/347 348/348
f 342/342 349/349 350/350
f 339/339 351/351 343/343
f 346/346 344/344 257/257
f 257/257 256/256 352/352
f 256/256 353/353 347/347
f 354/354 355/355 353/353
f 350/350 354/354 342/342
f 341/341 351/351 339/339
f 256/256 356/356 352/352
f 353/353 256/256 354/354
f 350/350 357/357 354/354
f 352/352 345/345 257/257
f 357/357 355/355 354/354
f 348/348 356/356 256/256
f 257/257 358/358 359/359
f 257/257 339/339 358/358
f 263/263 359/359 360/360
f 258/258 361/361 362/362
f 258/258 263/263 363/363
f 363/363 361/361 258/258
f 364/364 365/365 366/366
f 366/366 365/365 367/367
f 367/367 368/368 366/366
f 367/367 291/291 369/369
f 364/364 370/370 292/292
f 369/369 368/368 367/367
f 366/366 370/370 364/364
f 291/291 367/367 371/371
f 241/241 291/291 372/372
f 372/372 373/373 241/241
f 236/236 373/373 374/374
f 375/375 296/296 239/239
f 236/236 376/376 375/375
f 239/239 236/236 375/375
f 374/374 376/376 236/236
f 373/373 236/236 241/241
f 371/371 372/372 291/291
f 292/292 258/258 364/364
f 362/362 364/364 258/258
f 360/360 363/363 263/263
f 359/359 263/263 257/257
f 343/343 349/349 342/342
f 338/338 354/354 256/256
f 336/336 337/337 332/332
f 320/320 280/280 234/234
f 318/318 317/317 234/234
f 299/299 302/302 232/232
f 298/298 231/231 297/297
f 297/297 231/231 239/239
f 295/295 369/369 291/291
f 277/277 332/332 256/256
f 275/275 274/274 263/263
f 257/257 255/255 235/235
f 255/255 241/241 233/233
f 254/254 253/253 241/241
f 235/235 233/233 232/232
f 233/233 239/239 231/231
f 377/377 378/378 379/379
f 377/377 380/380 381/381
f 381/381 378/378 377/377
f 382/382 383/383 384/384
f 382/382 385/385 386/386
f 379/379 387/387 377/377
f 386/386 383/383 382/382
f 380/380 388/388 381/381
f 380/380 389/389 390/390
f 391/391 392/392 393/393
f 384/384 391/391 382/382
f 382/382 377/377 394/394
f 390/390 388/388 380/380
f 393/393 380/380 391/391
f 391/391 395/395 396/396
f 394/394 385/385 382/382
f 393/393 389/389 380/380
f 384/384 395/395 391/391
f 396/396 392/392 391/391
f 397/397 398/398 399/399
f 400/400 401/401 402/402
f 397/397 403/403 404/404
f 398/398 405/405 399/399
f 402/402 406/406 400/400
f 400/400 407/407 408/408
f 399/399 403/403 397/397
f 398/398 409/409 410/410
f 398/398 406/406 411/411
f 406/406 412/412 413/413
f 408/408 401/401 400/400
f 410/410 405/405 398/398
f 406/406 414/414 411/411
f 402/402 412/412 406/406
f 404/404 415/415 397/397
f 413/413 414/414 406/406
f 411/411 409/409 398/398
f 400/400 397/397 416/416
f 416/416 407/407 400/400
f 406/406 398/398 382/382
f 417/417 382/382 391/391
f 418/418 400/400 406/406
f 419/419 406/406 417/417
f 417/417 420/420 421/421
f 417/417 422/422 423/423
f 422/422 424/424 425/425
f 423/423 420/420 417/417
f 425/425 426/426 422/422
f 426/426 423/423 422/422
f 382/382 398/398 427/427
f 398/398 428/428 427/427
f 398/398 429/429 430/430
f 377/377 382/382 431/431
f 382/382 432/432 433/433
f 430/430 428/428 398/398
f 431/431 434/434 377/377
f 427/427 432/432 382/382
f 398/398 435/435 436/436
f 377/377 437/437 438/438
f 433/433 431/431 382/382
f 435/435 439/439 436/436
f 435/435 440/440 441/441
f 434/434 437/437 377/377
f 441/441 439/439 435/435
f 436/436 429/429 398/398
f 397/397 442/442 443/443
f 398/398 444/444 445/445
f 398/398 397/397 444/444
f 435/435 445/445 446/446
f 447/447 448/448 449/449
f 450/450 451/451 447/447
f 449/449 448/448 440/440
f 447/447 452/452 450/450
f 449/449 452/452 447/447
f 450/450 377/377 453/453
f 453/453 451/451 450/450
f 377/377 454/454 455/455
f 377/377 450/450 456/456
f 456/456 454/454 377/377
f 380/380 455/455 457/457
f 391/391 380/380 458/458
f 458/458 459/459 391/391
f 460/460 461/461 462/462
f 460/460 463/463 464/464
f 465/465 466/466 467/467
f 462/462 465/465 460/460
f 463/463 468/468 464/464
f 422/422 469/469 470/470
f 467/467 391/391 465/465
f 464/464 461/461 460/460
f 463/463 422/422 471/471
f 470/470 472/472 422/422
f 391/391 473/473 474/474
f 465/465 475/475 466/466
f 463/463 476/476 468/468
f 472/472 471/471 422/422
f 467/467 473/473 391/391
f 471/471 476/476 463/463
f 462/462 475/475 465/465
f 474/474 477/477 391/391
f 422/422 391/391 478/478
f 478/478 469/469 422/422
f 422/422 479/479 480/480
f 422/422 463/463 479/479
f 424/424 480/480 481/481
f 482/482 483/483 484/484
f 484/484 483/483 485/485
f 486/486 487/487 482/482
f 485/485 488/488 489/489
f 484/484 486/486 482/482
f 485/485 490/490 484/484
f 491/491 492/492 487/487
f 487/487 486/486 491/491
f 424/424 489/489 493/493
f 491/491 494/494 492/492
f 491/491 421/421 495/495
f 424/424 496/496 497/497
f 493/493 498/498 424/424
f 489/489 488/488 499/499
f 495/495 494/494 491/491
f 498/498 496/496 424/424
f 489/489 490/490 485/485
f 499/499 493/493 489/489
f 491/491 500/500 501/501
f 486/486 502/502 503/503
f 503/503 502/502 504/504
f 419/419 505/505 506/506
f 501/501 419/419 491/491
f 504/504 507/507 503/503
f 504/504 508/508 509/509
f 501/501 505/505 419/419
f 491/491 510/510 511/511
f 491/491 486/486 512/512
f 486/486 513/513 514/514
f 509/509 507/507 504/504
f 511/511 500/500 491/491
f 512/512 515/515 491/491
f 503/503 513/513 486/486
f 506/506 516/516 419/419
f 514/514 512/512 486/486
f 515/515 510/510 491/491
f 504/504 419/419 517/517
f 517/517 508/508 504/504
f 419/419 518/518 519/519
f 419/419 504/504 518/518
f 400/400 418/418 520/520
f 521/521 397/397 400/400
f 400/400 522/522 521/521
f 521/521 442/442 397/397
f 520/520 522/522 400/400
f 520/520 418/418 519/519
f 519/519 418/418 419/419
f 516/516 517/517 419/419
f 497/497 425/425 424/424
f 481/481 489/489 424/424
f 480/480 424/424 422/422
f 477/477 478/478 391/391
f 459/459 465/465 391/391
f 457/457 458/458 380/380
f 455/455 380/380 377/377
f 440/440 435/435 449/449
f 446/446 449/449 435/435
f 445/445 435/435 398/398
f 443/443 444/444 397/397
f 438/438 453/453 377/377
f 421/421 491/491 417/417
f 417/417 491/491 419/419
f 406/406 419/419 418/418
f 391/391 422/422 417/417
f 382/382 417/417 406/406
f 415/415 416/416 397/397
f 387/387 394/394 377/377
f 523/523 524/524 525/525
f 526/526 523/523 527/527
f 528/528 526/526 529/529
f 530/530 528/528 531/531
f 532/532 530/530 533/533
f 534/534 532/532 535/535
f 536/536 534/534 537/537
f 538/538 536/536 539/539
f 540/540 538/538 541/541
f 542/542 540/540 543/543
f 544/544 542/542 545/545
f 546/546 544/544 547/547
f 548/548 546/546 549/549
f 550/550 548/548 551/551
f 552/552 550/550 553/553
f 524/524 552/552 554/554
f 554/554 525/525 524/524
f 553/553 554/554 552/552
f 551/551 553/553 550/550
f 549/549 551/551 548/548
f 547/547 549/549 546/546
f 545/545 547/547 544/544
f 543/543 545/545 542/542
f 541/541 543/543 540/540
f 539/539 541/541 538/538
f 537/537 539/539 536/536
f 535/535 537/537 534/534
f 533/533 535/535 532/532
f 531/531 533/533 530/530
f 529/529 531/531 528/528
f 527/527 529/529 526/526
f 525/525 527/527 523/523

