# https://github.com/mikedh/trimesh
mtllib material.mtl
usemtl 0.910000_0.910000_0.910000_0.000000_0.000000
v 0.00936171 0.00126028 -0.04846459
v 0.00966063 0.00122105 -0.04848288
v 0.00967328 0.00121938 -0.04779935
v 0.00946582 0.00124661 -0.04777320
v 0.00989515 0.00119026 -0.04782731
v 0.00936490 0.00125986 -0.04778592
v 0.00903649 0.00130296 -0.04782731
v 0.00903649 0.00130296 -0.04857320
v 0.00989515 0.00119026 -0.04857320
v 0.00883585 0.00104127 -0.04779198
v 0.00864133 0.00078756 -0.04781304
v 0.00870913 0.00087600 -0.04846459
v 0.00889257 0.00111525 -0.04848288
v 0.00903649 0.00130296 -0.04782731
v 0.00889530 0.00111881 -0.04778554
v 0.00850956 0.00061569 -0.04782731
v 0.00850956 0.00061569 -0.04857320
v 0.00903649 0.00130296 -0.04857320
v 0.00867545 0.00021564 -0.04778571
v 0.00879917 -0.00008272 -0.04781675
v 0.00871565 0.00011871 -0.04846459
v 0.00860016 0.00039720 -0.04848288
v 0.00855379 0.00050902 -0.04780966
v 0.00863760 0.00030691 -0.04777622
v 0.00850956 0.00061569 -0.04782731
v 0.00884129 -0.00018428 -0.04857320
v 0.00884129 -0.00018428 -0.04782731
v 0.00850956 0.00061569 -0.04857320
v 0.00937473 -0.00025430 -0.04846459
v 0.00907581 -0.00021506 -0.04848288
v 0.00906316 -0.00021340 -0.04779935
v 0.00927062 -0.00024063 -0.04777320
v 0.00884129 -0.00018428 -0.04782731
v 0.00937154 -0.00025388 -0.04778592
v 0.00969995 -0.00029698 -0.04782731
v 0.00969995 -0.00029698 -0.04857320
v 0.00884129 -0.00018428 -0.04857320
v 0.01006099 0.00079034 -0.04778571
v 0.00993727 0.00108870 -0.04781675
v 0.01000974 0.00091393 -0.04846903
v 0.01011229 0.00066662 -0.04846903
v 0.01018265 0.00049696 -0.04780966
v 0.01009884 0.00069907 -0.04777622
v 0.01022688 0.00039029 -0.04857320
v 0.01022688 0.00039029 -0.04782731
v 0.00989515 0.00119026 -0.04857320
v 0.00989515 0.00119026 -0.04782731
v 0.00936822 0.00050299 -0.04742347
v 0.01006099 0.00079034 -0.04778571
v 0.01009884 0.00069907 -0.04777622
v 0.00936822 0.00050299 -0.04742347
v 0.01018265 0.00049696 -0.04780966
v 0.01022688 0.00039029 -0.04782731
v 0.00936822 0.00050299 -0.04742347
v 0.00990059 -0.00003529 -0.04779198
v 0.00984114 -0.00011283 -0.04778554
v 0.00936822 0.00050299 -0.04742347
v 0.00937154 -0.00025388 -0.04778592
v 0.00927062 -0.00024063 -0.04777320
v 0.00936822 0.00050299 -0.04742347
v 0.00906316 -0.00021340 -0.04779935
v 0.00884129 -0.00018428 -0.04782731
v 0.00936822 0.00050299 -0.04742347
v 0.00867545 0.00021564 -0.04778571
v 0.00863760 0.00030691 -0.04777622
v 0.00936822 0.00050299 -0.04742347
v 0.00855379 0.00050902 -0.04780966
v 0.00850956 0.00061569 -0.04782731
v 0.00936822 0.00050299 -0.04742347
v 0.00883585 0.00104127 -0.04779198
v 0.00889530 0.00111881 -0.04778554
v 0.00936822 0.00050299 -0.04742347
v 0.00936490 0.00125986 -0.04778592
v 0.00946582 0.00124661 -0.04777320
v 0.00936822 0.00050299 -0.04742347
v 0.00967328 0.00121938 -0.04779935
v 0.00989515 0.00119026 -0.04782731
v 0.00993727 0.00108870 -0.04781675
v 0.00936822 0.00050299 -0.04742347
v 0.00936822 0.00050299 -0.04742347
v 0.00936822 0.00050299 -0.04742347
v 0.00903649 0.00130296 -0.04782731
v 0.00936822 0.00050299 -0.04742347
v 0.00936822 0.00050299 -0.04742347
v 0.00864133 0.00078756 -0.04781304
v 0.00936822 0.00050299 -0.04742347
v 0.00936822 0.00050299 -0.04742347
v 0.00936822 0.00050299 -0.04742347
v 0.00879917 -0.00008272 -0.04781675
v 0.00936822 0.00050299 -0.04742347
v 0.00936822 0.00050299 -0.04742347
v 0.00936822 0.00050299 -0.04742347
v 0.00969995 -0.00029698 -0.04782731
v 0.00936822 0.00050299 -0.04742347
v 0.00936822 0.00050299 -0.04742347
v 0.01009511 0.00021842 -0.04781304
v 0.00936822 0.00050299 -0.04742347
v 0.00936822 0.00050299 -0.04742347
v 0.00936822 0.00050299 -0.04742347
v 0.00990059 -0.00003529 -0.04779198
v 0.01009511 0.00021842 -0.04781304
v 0.01004487 0.00015289 -0.04846903
v 0.00969995 -0.00029698 -0.04782731
v 0.00984114 -0.00011283 -0.04778554
v 0.00988197 -0.00005958 -0.04846903
v 0.01022688 0.00039029 -0.04782731
v 0.01022688 0.00039029 -0.04857320
v 0.00969995 -0.00029698 -0.04857320
v 0.01009746 0.00097012 -0.04857320
v 0.01021403 0.00068900 -0.04857320
v 0.01011229 0.00066662 -0.04846903
v 0.00989515 0.00119026 -0.04857320
v 0.01000974 0.00091393 -0.04846903
v 0.01022688 0.00039029 -0.04857320
v 0.01013739 0.00010502 -0.04857320
v 0.00995221 -0.00013650 -0.04857320
v 0.00988197 -0.00005958 -0.04846903
v 0.01022688 0.00039029 -0.04857320
v 0.01004487 0.00015289 -0.04846903
v 0.00969995 -0.00029698 -0.04857320
v 0.00795345 0.00191664 -0.04857320
v 0.00878289 0.00114126 -0.04857320
v 0.00859989 0.00090257 -0.04857320
v 0.00860212 0.00235045 -0.04857320
v 0.00903649 0.00130296 -0.04857320
v 0.00936743 0.00250299 -0.04857320
v 0.00933010 0.00136818 -0.04857320
v 0.01013286 0.00235105 -0.04857320
v 0.00962831 0.00132904 -0.04857320
v 0.01078187 0.00191776 -0.04857320
v 0.00989515 0.00119026 -0.04857320
v 0.01121568 0.00126909 -0.04857320
v 0.01009746 0.00097012 -0.04857320
v 0.01013432 -0.00134446 -0.04857320
v 0.00969995 -0.00029698 -0.04857320
v 0.00995221 -0.00013650 -0.04857320
v 0.00936901 -0.00149701 -0.04857320
v 0.00940634 -0.00036220 -0.04857320
v 0.00860358 -0.00134507 -0.04857320
v 0.00910813 -0.00032305 -0.04857320
v 0.00795457 -0.00091178 -0.04857320
v 0.00884129 -0.00018428 -0.04857320
v 0.00752076 -0.00026311 -0.04857320
v 0.00863801 0.00003739 -0.04857320
v 0.00752016 0.00126763 -0.04857320
v 0.00850956 0.00061569 -0.04857320
v 0.01136822 0.00050378 -0.04857320
v 0.01022688 0.00039029 -0.04857320
v 0.01021403 0.00068900 -0.04857320
v 0.01121628 -0.00026164 -0.04857320
v 0.01013739 0.00010502 -0.04857320
v 0.00852280 0.00031521 -0.04857320
v 0.00736822 0.00050220 -0.04857320
v 0.01078299 -0.00091066 -0.04857320
vt 0.50000000 0.50000000
vt 0.50000000 0.50000000
vt 0.50000000 0.50000000
vt 0.50000000 0.50000000
vt 0.50000000 0.50000000
vt 0.50000000 0.50000000
vt 0.50000000 0.50000000
vt 0.50000000 0.50000000
vt 0.50000000 0.50000000
vt 0.50000000 0.50000000
vt 0.50000000 0.50000000
vt 0.50000000 0.50000000
vt 0.50000000 0.50000000
vt 0.50000000 0.50000000
vt 0.50000000 0.50000000
vt 0.50000000 0.50000000
vt 0.50000000 0.50000000
vt 0.50000000 0.50000000
vt 0.50000000 0.50000000
vt 0.50000000 0.50000000
vt 0.50000000 0.50000000
vt 0.50000000 0.50000000
vt 0.50000000 0.50000000
vt 0.50000000 0.50000000
vt 0.50000000 0.50000000
vt 0.50000000 0.50000000
vt 0.50000000 0.50000000
vt 0.50000000 0.50000000
vt 0.50000000 0.50000000
vt 0.50000000 0.50000000
vt 0.50000000 0.50000000
vt 0.50000000 0.50000000
vt 0.50000000 0.50000000
vt 0.50000000 0.50000000
vt 0.50000000 0.50000000
vt 0.50000000 0.50000000
vt 0.50000000 0.50000000
vt 0.50000000 0.50000000
vt 0.50000000 0.50000000
vt 0.50000000 0.50000000
vt 0.50000000 0.50000000
vt 0.50000000 0.50000000
vt 0.50000000 0.50000000
vt 0.50000000 0.50000000
vt 0.50000000 0.50000000
vt 0.50000000 0.50000000
vt 0.50000000 0.50000000
vt 0.50000000 0.50000000
vt 0.50000000 0.50000000
vt 0.50000000 0.50000000
vt 0.50000000 0.50000000
vt 0.50000000 0.50000000
vt 0.50000000 0.50000000
vt 0.50000000 0.50000000
vt 0.50000000 0.50000000
vt 0.50000000 0.50000000
vt 0.50000000 0.50000000
vt 0.50000000 0.50000000
vt 0.50000000 0.50000000
vt 0.50000000 0.50000000
vt 0.50000000 0.50000000
vt 0.50000000 0.50000000
vt 0.50000000 0.50000000
vt 0.50000000 0.50000000
vt 0.50000000 0.50000000
vt 0.50000000 0.50000000
vt 0.50000000 0.50000000
vt 0.50000000 0.50000000
vt 0.50000000 0.50000000
vt 0.50000000 0.50000000
vt 0.50000000 0.50000000
vt 0.50000000 0.50000000
vt 0.50000000 0.50000000
vt 0.50000000 0.50000000
vt 0.50000000 0.50000000
vt 0.50000000 0.50000000
vt 0.50000000 0.50000000
vt 0.50000000 0.50000000
vt 0.50000000 0.50000000
vt 0.50000000 0.50000000
vt 0.50000000 0.50000000
vt 0.50000000 0.50000000
vt 0.50000000 0.50000000
vt 0.50000000 0.50000000
vt 0.50000000 0.50000000
vt 0.50000000 0.50000000
vt 0.50000000 0.50000000
vt 0.50000000 0.50000000
vt 0.50000000 0.50000000
vt 0.50000000 0.50000000
vt 0.50000000 0.50000000
vt 0.50000000 0.50000000
vt 0.50000000 0.50000000
vt 0.50000000 0.50000000
vt 0.50000000 0.50000000
vt 0.50000000 0.50000000
vt 0.50000000 0.50000000
vt 0.50000000 0.50000000
vt 0.50000000 0.50000000
vt 0.50000000 0.50000000
vt 0.50000000 0.50000000
vt 0.50000000 0.50000000
vt 0.50000000 0.50000000
vt 0.50000000 0.50000000
vt 0.50000000 0.50000000
vt 0.50000000 0.50000000
vt 0.50000000 0.50000000
vt 0.50000000 0.50000000
vt 0.50000000 0.50000000
vt 0.50000000 0.50000000
vt 0.50000000 0.50000000
vt 0.50000000 0.50000000
vt 0.50000000 0.50000000
vt 0.50000000 0.50000000
vt 0.50000000 0.50000000
vt 0.50000000 0.50000000
vt 0.50000000 0.50000000
vt 0.50000000 0.50000000
vt 0.50000000 0.50000000
vt 0.50000000 0.50000000
vt 0.50000000 0.50000000
vt 0.50000000 0.50000000
vt 0.50000000 0.50000000
vt 0.50000000 0.50000000
vt 0.50000000 0.50000000
vt 0.50000000 0.50000000
vt 0.50000000 0.50000000
vt 0.50000000 0.50000000
vt 0.50000000 0.50000000
vt 0.50000000 0.50000000
vt 0.50000000 0.50000000
vt 0.50000000 0.50000000
vt 0.50000000 0.50000000
vt 0.50000000 0.50000000
vt 0.50000000 0.50000000
vt 0.50000000 0.50000000
vt 0.50000000 0.50000000
vt 0.50000000 0.50000000
vt 0.50000000 0.50000000
vt 0.50000000 0.50000000
vt 0.50000000 0.50000000
vt 0.50000000 0.50000000
vt 0.50000000 0.50000000
vt 0.50000000 0.50000000
vt 0.50000000 0.50000000
vt 0.50000000 0.50000000
vt 0.50000000 0.50000000
vt 0.50000000 0.50000000
vt 0.50000000 0.50000000
vt 0.50000000 0.50000000
vt 0.50000000 0.50000000
vt 0.50000000 0.50000000
vt 0.50000000 0.50000000
vt 0.50000000 0.50000000
f 1/1 2/2 3/3
f 3/3 4/4 1/1
f 2/2 5/5 3/3
f 4/4 6/6 1/1
f 7/7 8/8 1/1
f 1/1 6/6 7/7
f 2/2 9/9 5/5
f 10/10 11/11 12/12
f 13/13 14/14 15/15
f 15/15 10/10 13/13
f 12/12 13/13 10/10
f 16/16 17/17 12/12
f 12/12 11/11 16/16
f 13/13 18/18 14/14
f 19/19 20/20 21/21
f 22/22 23/23 24/24
f 25/25 23/23 22/22
f 24/24 19/19 22/22
f 21/21 22/22 19/19
f 26/26 21/21 20/20
f 20/20 27/27 26/26
f 22/22 28/28 25/25
f 29/29 30/30 31/31
f 31/31 32/32 29/29
f 30/30 33/33 31/31
f 32/32 34/34 29/29
f 35/35 36/36 29/29
f 29/29 34/34 35/35
f 30/30 37/37 33/33
f 38/38 39/39 40/40
f 41/41 42/42 43/43
f 41/41 44/44 45/45
f 43/43 38/38 41/41
f 40/40 41/41 38/38
f 46/46 40/40 39/39
f 39/39 47/47 46/46
f 45/45 42/42 41/41
f 48/48 49/49 50/50
f 51/51 52/52 53/53
f 54/54 55/55 56/56
f 57/57 58/58 59/59
f 60/60 61/61 62/62
f 63/63 64/64 65/65
f 66/66 67/67 68/68
f 69/69 70/70 71/71
f 72/72 73/73 74/74
f 75/75 76/76 77/77
f 77/77 78/78 79/79
f 74/74 76/76 80/80
f 73/73 81/81 82/82
f 71/71 82/82 83/83
f 70/70 84/84 85/85
f 68/68 85/85 86/86
f 65/65 67/67 87/87
f 64/64 88/88 89/89
f 62/62 89/89 90/90
f 59/59 61/61 91/91
f 58/58 92/92 93/93
f 56/56 93/93 94/94
f 55/55 95/95 96/96
f 53/53 96/96 97/97
f 50/50 52/52 98/98
f 49/49 99/99 78/78
f 100/100 101/101 102/102
f 103/103 104/104 105/105
f 105/105 104/104 100/100
f 102/102 105/105 100/100
f 106/106 107/107 102/102
f 102/102 101/101 106/106
f 105/105 108/108 103/103
f 109/109 110/110 111/111
f 112/112 109/109 113/113
f 111/111 113/113 109/109
f 111/111 110/110 114/114
f 115/115 116/116 117/117
f 118/118 115/115 119/119
f 117/117 119/119 115/115
f 117/117 116/116 120/120
f 121/121 122/122 123/123
f 124/124 125/125 122/122
f 124/124 126/126 127/127
f 126/126 128/128 129/129
f 128/128 130/130 131/131
f 130/130 132/132 133/133
f 134/134 135/135 136/136
f 134/134 137/137 138/138
f 137/137 139/139 140/140
f 139/139 141/141 142/142
f 141/141 143/143 144/144
f 145/145 123/123 146/146
f 122/122 121/121 124/124
f 129/129 127/127 126/126
f 133/133 131/131 130/130
f 147/147 148/148 149/149
f 150/150 151/151 148/148
f 138/138 135/135 134/134
f 142/142 140/140 139/139
f 143/143 152/152 144/144
f 153/153 146/146 152/152
f 123/123 145/145 121/121
f 131/131 129/129 128/128
f 148/148 147/147 150/150
f 140/140 138/138 137/137
f 152/152 143/143 153/153
f 127/127 125/125 124/124
f 149/149 132/132 147/147
f 154/154 136/136 151/151
f 144/144 142/142 141/141
f 149/149 133/133 132/132
f 136/136 154/154 134/134
f 151/151 150/150 154/154
f 146/146 153/153 145/145

