# https://github.com/mikedh/trimesh
mtllib material.mtl
usemtl 0.901961_0.901961_0.901961_0.000000_0.000000
v -0.08785000 0.00995929 -0.02418500
v -0.08785000 0.00995929 -0.02183500
v -0.08785000 0.01078206 -0.02167134
v -0.08785000 0.00823722 -0.02384246
v -0.08785000 0.00913652 -0.02167134
v -0.08785000 0.00677731 -0.02286698
v -0.08785000 0.00843901 -0.02120528
v -0.08785000 0.00580183 -0.02140708
v -0.08785000 0.00797295 -0.02050777
v -0.08785000 0.00545929 -0.01968500
v -0.08785000 0.00780929 -0.01968500
v -0.08785000 0.00580183 -0.01796293
v -0.08785000 0.00797295 -0.01886223
v -0.08785000 0.00677731 -0.01650302
v -0.08785000 0.00843901 -0.01816472
v -0.08785000 0.00823722 -0.01552754
v -0.08785000 0.00913652 -0.01769866
v -0.08785000 0.01314127 -0.01650302
v -0.08785000 0.01411675 -0.01796293
v -0.08785000 0.01194563 -0.01886223
v -0.08785000 0.01445929 -0.01968500
v -0.08785000 0.01210929 -0.01968500
v -0.08785000 0.01411675 -0.02140708
v -0.08785000 0.01194563 -0.02050777
v -0.08785000 0.01314127 -0.02286698
v -0.08785000 0.01147957 -0.02120528
v -0.08785000 0.00995929 -0.01518500
v -0.08785000 0.00995929 -0.01753500
v -0.08785000 0.01147957 -0.01816472
v -0.08785000 0.01078206 -0.01769866
v -0.08785000 0.01168137 -0.02384246
v -0.08785000 0.01168137 -0.01552754
v -0.09185000 0.00823722 -0.01552754
v -0.09185000 0.00995929 -0.01518500
v -0.08785000 0.00995929 -0.01518500
v -0.09185000 0.00677731 -0.01650302
v -0.08785000 0.00823722 -0.01552754
v -0.09185000 0.00580183 -0.01796293
v -0.08785000 0.00677731 -0.01650302
v -0.09185000 0.00545929 -0.01968500
v -0.08785000 0.00580183 -0.01796293
v -0.09185000 0.00580183 -0.02140708
v -0.08785000 0.00545929 -0.01968500
v -0.09185000 0.00677731 -0.02286698
v -0.08785000 0.00580183 -0.02140708
v -0.09185000 0.00823722 -0.02384246
v -0.08785000 0.00677731 -0.02286698
v -0.09185000 0.00995929 -0.02418500
v -0.08785000 0.00823722 -0.02384246
v -0.09185000 0.01168137 -0.02384246
v -0.08785000 0.00995929 -0.02418500
v -0.09185000 0.01314127 -0.02286698
v -0.08785000 0.01168137 -0.02384246
v -0.09185000 0.01411675 -0.02140708
v -0.08785000 0.01314127 -0.02286698
v -0.09185000 0.01445929 -0.01968500
v -0.08785000 0.01411675 -0.02140708
v -0.09185000 0.01411675 -0.01796293
v -0.08785000 0.01445929 -0.01968500
v -0.09185000 0.01314127 -0.01650302
v -0.08785000 0.01411675 -0.01796293
v -0.09185000 0.01168137 -0.01552754
v -0.08785000 0.01314127 -0.01650302
v -0.08785000 0.01168137 -0.01552754
v -0.08550000 0.00913652 -0.02167134
v -0.08550000 0.00995929 -0.02183500
v -0.08785000 0.00995929 -0.02183500
v -0.08550000 0.00843901 -0.02120528
v -0.08785000 0.00913652 -0.02167134
v -0.08550000 0.00797295 -0.02050777
v -0.08785000 0.00843901 -0.02120528
v -0.08550000 0.00780929 -0.01968500
v -0.08785000 0.00797295 -0.02050777
v -0.08550000 0.00797295 -0.01886223
v -0.08785000 0.00780929 -0.01968500
v -0.08550000 0.00843901 -0.01816472
v -0.08785000 0.00797295 -0.01886223
v -0.08550000 0.00913652 -0.01769866
v -0.08785000 0.00843901 -0.01816472
v -0.08550000 0.00995929 -0.01753500
v -0.08785000 0.00913652 -0.01769866
v -0.08550000 0.01078206 -0.01769866
v -0.08785000 0.00995929 -0.01753500
v -0.08550000 0.01147957 -0.01816472
v -0.08785000 0.01078206 -0.01769866
v -0.08550000 0.01194563 -0.01886223
v -0.08785000 0.01147957 -0.01816472
v -0.08550000 0.01210929 -0.01968500
v -0.08785000 0.01194563 -0.01886223
v -0.08550000 0.01194563 -0.02050777
v -0.08785000 0.01210929 -0.01968500
v -0.08550000 0.01147957 -0.02120528
v -0.08785000 0.01194563 -0.02050777
v -0.08550000 0.01078206 -0.02167134
v -0.08785000 0.01147957 -0.02120528
v -0.08785000 0.01078206 -0.02167134
v -0.08550000 0.01605465 -0.01393500
v -0.08550000 0.01078206 -0.01017134
v -0.08550000 0.00995929 -0.01033500
v -0.08550000 0.01194563 -0.00900777
v -0.08550000 0.01147957 -0.00970528
v -0.08550000 0.01605465 -0.00506000
v -0.08550000 0.01078206 -0.00619866
v -0.08550000 0.01147957 -0.00666472
v -0.08550000 0.00472965 -0.00506000
v -0.08550000 0.00995929 -0.00603500
v -0.08550000 0.00780929 -0.00818500
v -0.08550000 0.00797295 -0.00736223
v -0.08550000 0.00472965 -0.01393500
v -0.08550000 0.00797295 -0.00900777
v -0.08550000 0.01210929 -0.00818500
v -0.08550000 0.00843901 -0.00666472
v -0.08550000 0.00913652 -0.00619866
v -0.08550000 0.00913652 -0.01017134
v -0.08550000 0.01194563 -0.00736223
v -0.08550000 0.00843901 -0.00970528
v -0.08550000 -0.00472965 -0.00506000
v -0.08550000 -0.00472965 -0.01393500
v -0.08550000 0.00472965 -0.02281000
v -0.08550000 0.00780929 -0.01968500
v -0.08550000 0.00995929 -0.01753500
v -0.08550000 0.00797295 -0.02050777
v -0.08550000 0.00913652 -0.02167134
v -0.08550000 0.00843901 -0.02120528
v -0.08550000 0.01194563 -0.01886223
v -0.08550000 0.01210929 -0.01968500
v -0.08550000 0.00913652 -0.01769866
v -0.08550000 0.00797295 -0.01886223
v -0.08550000 0.00843901 -0.01816472
v -0.08550000 0.01605465 -0.02281000
v -0.08550000 0.01194563 -0.02050777
v -0.08550000 0.01147957 -0.01816472
v -0.08550000 0.00995929 -0.02183500
v -0.08550000 0.01078206 -0.02167134
v -0.08550000 0.01147957 -0.02120528
v -0.08550000 0.01078206 -0.01769866
v -0.08550000 -0.00472965 -0.02281000
v -0.08550000 0.00472965 -0.03051000
v -0.08550000 0.00165000 -0.02543500
v -0.08550000 0.00116673 -0.02660173
v -0.08550000 0.00063143 -0.02695940
v -0.08550000 0.00152440 -0.02606643
v -0.08550000 0.00116673 -0.02426827
v -0.08550000 0.00152440 -0.02480357
v -0.08550000 0.00063143 -0.02391060
v -0.08550000 0.00000000 -0.02378500
v -0.08550000 -0.00472965 -0.03051000
v -0.08550000 -0.00152440 -0.02606643
v -0.08550000 -0.00165000 -0.02543500
v -0.08550000 -0.00063143 -0.02391060
v -0.08550000 -0.00063143 -0.02695940
v -0.08550000 -0.00116673 -0.02660173
v -0.08550000 -0.00152440 -0.02480357
v -0.08550000 -0.00116673 -0.02426827
v -0.08550000 0.00000000 -0.02708500
v -0.08550000 -0.00765367 0.00454259
v -0.08550000 -0.01414214 0.00020714
v -0.08550000 -0.00472965 0.00512422
v -0.08550000 -0.02000000 -0.01393500
v -0.08550000 -0.00995929 -0.01033500
v -0.08550000 -0.00797295 -0.00900777
v -0.08550000 -0.00843901 -0.00970528
v -0.08550000 -0.00780929 -0.00818500
v -0.08550000 -0.01766152 -0.00506000
v -0.08550000 -0.01078206 -0.00619866
v -0.08550000 -0.00995929 -0.00603500
v -0.08550000 -0.01210929 -0.00818500
v -0.08550000 -0.01194563 -0.00736223
v -0.08550000 -0.01078206 -0.01017134
v -0.08550000 -0.00913652 -0.01017134
v -0.08550000 -0.00797295 -0.00736223
v -0.08550000 -0.00913652 -0.00619866
v -0.08550000 -0.00843901 -0.00666472
v -0.08550000 -0.01147957 -0.00666472
v -0.08550000 -0.01847759 -0.00628133
v -0.08550000 -0.01194563 -0.00900777
v -0.08550000 -0.01147957 -0.00970528
v -0.08550000 -0.01847759 -0.02158867
v -0.08550000 -0.01210929 -0.01968500
v -0.08550000 -0.01766152 -0.02281000
v -0.08550000 -0.01194563 -0.02050777
v -0.08550000 -0.01147957 -0.02120528
v -0.08550000 -0.01078206 -0.01769866
v -0.08550000 -0.00995929 -0.01753500
v -0.08550000 -0.01194563 -0.01886223
v -0.08550000 -0.01147957 -0.01816472
v -0.08550000 -0.01078206 -0.02167134
v -0.08550000 -0.00797295 -0.01886223
v -0.08550000 -0.00780929 -0.01968500
v -0.08550000 -0.00797295 -0.02050777
v -0.08550000 -0.00843901 -0.02120528
v -0.08550000 -0.00843901 -0.01816472
v -0.08550000 -0.00995929 -0.02183500
v -0.08550000 -0.00913652 -0.01769866
v -0.08550000 -0.00913652 -0.02167134
v -0.08550000 -0.01414214 -0.02807713
v -0.08550000 -0.01050110 -0.03051000
v -0.08550000 -0.00765367 -0.03241259
v -0.08550000 -0.00472965 -0.03299421
v -0.08550000 0.00000000 -0.03393500
v -0.08550000 0.00472965 -0.03299421
v -0.08550000 0.00765367 -0.03241259
v -0.08550000 0.01414214 -0.02807713
v -0.08550000 0.01605465 -0.02521486
v -0.08550000 0.01050110 -0.03051000
v -0.08550000 0.01847759 -0.02158867
v -0.08550000 0.01766152 -0.02281000
v -0.08550000 0.02000000 -0.01393500
v -0.08550000 0.01847759 -0.00628133
v -0.08550000 0.01605465 -0.00265514
v -0.08550000 0.01414214 0.00020714
v -0.08550000 0.00765367 0.00454259
v -0.08550000 -0.00152440 -0.00180357
v -0.08550000 -0.00116673 -0.00126827
v -0.08550000 -0.00165000 -0.00243500
v -0.08550000 0.00472965 0.00512422
v -0.08550000 0.00152440 -0.00180357
v -0.08550000 0.00063143 -0.00091060
v -0.08550000 0.00116673 -0.00126827
v -0.08550000 0.00000000 0.00606500
v -0.08550000 -0.00000000 -0.00078500
v -0.08550000 -0.00063143 -0.00091060
v -0.08550000 -0.00116673 -0.00360173
v -0.08550000 -0.00152440 -0.00306643
v -0.08550000 0.00116673 -0.00360173
v -0.08550000 0.00063143 -0.00395940
v -0.08550000 -0.00000000 -0.00408500
v -0.08550000 0.00152440 -0.00306643
v -0.08550000 0.00165000 -0.00243500
v -0.08550000 -0.00063143 -0.00395940
v -0.08550000 0.01766152 -0.00506000
v -0.08550000 0.00913652 -0.01017134
v -0.08550000 0.00995929 -0.01033500
v -0.08785000 0.00995929 -0.01033500
v -0.08550000 0.00843901 -0.00970528
v -0.08785000 0.00913652 -0.01017134
v -0.08550000 0.00797295 -0.00900777
v -0.08785000 0.00843901 -0.00970528
v -0.08550000 0.00780929 -0.00818500
v -0.08785000 0.00797295 -0.00900777
v -0.08550000 0.00797295 -0.00736223
v -0.08785000 0.00780929 -0.00818500
v -0.08550000 0.00843901 -0.00666472
v -0.08785000 0.00797295 -0.00736223
v -0.08550000 0.00913652 -0.00619866
v -0.08785000 0.00843901 -0.00666472
v -0.08550000 0.00995929 -0.00603500
v -0.08785000 0.00913652 -0.00619866
v -0.08550000 0.01078206 -0.00619866
v -0.08785000 0.00995929 -0.00603500
v -0.08550000 0.01147957 -0.00666472
v -0.08785000 0.01078206 -0.00619866
v -0.08550000 0.01194563 -0.00736223
v -0.08785000 0.01147957 -0.00666472
v -0.08550000 0.01210929 -0.00818500
v -0.08785000 0.01194563 -0.00736223
v -0.08550000 0.01194563 -0.00900777
v -0.08785000 0.01210929 -0.00818500
v -0.08550000 0.01147957 -0.00970528
v -0.08785000 0.01194563 -0.00900777
v -0.08550000 0.01078206 -0.01017134
v -0.08785000 0.01147957 -0.00970528
v -0.08785000 0.01078206 -0.01017134
v -0.08785000 0.01168137 -0.00402754
v -0.08785000 0.01078206 -0.00619866
v -0.08785000 0.00995929 -0.00603500
v -0.08785000 0.01314127 -0.00500302
v -0.08785000 0.01147957 -0.00666472
v -0.08785000 0.01314127 -0.01136698
v -0.08785000 0.01147957 -0.00970528
v -0.08785000 0.01194563 -0.00900777
v -0.08785000 0.01168137 -0.01234246
v -0.08785000 0.01078206 -0.01017134
v -0.08785000 0.01411675 -0.00646292
v -0.08785000 0.01194563 -0.00736223
v -0.08785000 0.01411675 -0.00990708
v -0.08785000 0.01210929 -0.00818500
v -0.08785000 0.01445929 -0.00818500
v -0.08785000 0.00995929 -0.01268500
v -0.08785000 0.00995929 -0.01033500
v -0.08785000 0.00823722 -0.01234246
v -0.08785000 0.00913652 -0.01017134
v -0.08785000 0.00677731 -0.01136698
v -0.08785000 0.00843901 -0.00970528
v -0.08785000 0.00545929 -0.00818500
v -0.08785000 0.00780929 -0.00818500
v -0.08785000 0.00797295 -0.00900777
v -0.08785000 0.00580183 -0.00646292
v -0.08785000 0.00797295 -0.00736223
v -0.08785000 0.00580183 -0.00990708
v -0.08785000 0.00677731 -0.00500302
v -0.08785000 0.00843901 -0.00666472
v -0.08785000 0.00823722 -0.00402754
v -0.08785000 0.00913652 -0.00619866
v -0.08785000 0.00995929 -0.00368500
v -0.09185000 0.00823722 -0.00402754
v -0.09185000 0.00995929 -0.00368500
v -0.08785000 0.00995929 -0.00368500
v -0.09185000 0.00677731 -0.00500302
v -0.08785000 0.00823722 -0.00402754
v -0.09185000 0.00580183 -0.00646292
v -0.08785000 0.00677731 -0.00500302
v -0.09185000 0.00545929 -0.00818500
v -0.08785000 0.00580183 -0.00646292
v -0.08785000 0.00580183 -0.00990708
v -0.09185000 0.00580183 -0.00990708
v -0.09185000 0.00549907 -0.00838500
v -0.08785000 0.00545929 -0.00818500
v -0.09185000 0.00677731 -0.01136698
v -0.09185000 0.00823722 -0.01234246
v -0.08785000 0.00677731 -0.01136698
v -0.09185000 0.00995929 -0.01268500
v -0.08785000 0.00823722 -0.01234246
v -0.09185000 0.01168137 -0.01234246
v -0.08785000 0.00995929 -0.01268500
v -0.09185000 0.01314127 -0.01136698
v -0.08785000 0.01168137 -0.01234246
v -0.09185000 0.01411675 -0.00990708
v -0.08785000 0.01314127 -0.01136698
v -0.08785000 0.01411675 -0.00990708
v -0.08785000 0.01445929 -0.00818500
v -0.09185000 0.01441951 -0.00838500
v -0.09185000 0.01445929 -0.00818500
v -0.09185000 0.01411675 -0.00646292
v -0.09185000 0.01314127 -0.00500302
v -0.08785000 0.01411675 -0.00646292
v -0.09185000 0.01168137 -0.00402754
v -0.08785000 0.01314127 -0.00500302
v -0.08785000 0.01168137 -0.00402754
v -0.08550000 -0.01078206 -0.01017134
v -0.08550000 -0.00995929 -0.01033500
v -0.08785000 -0.00995929 -0.01033500
v -0.08550000 -0.01147957 -0.00970528
v -0.08785000 -0.01078206 -0.01017134
v -0.08550000 -0.01194563 -0.00900777
v -0.08785000 -0.01147957 -0.00970528
v -0.08550000 -0.01210929 -0.00818500
v -0.08785000 -0.01194563 -0.00900777
v -0.08550000 -0.01194563 -0.00736223
v -0.08785000 -0.01210929 -0.00818500
v -0.08550000 -0.01147957 -0.00666472
v -0.08785000 -0.01194563 -0.00736223
v -0.08550000 -0.01078206 -0.00619866
v -0.08785000 -0.01147957 -0.00666472
v -0.08550000 -0.00995929 -0.00603500
v -0.08785000 -0.01078206 -0.00619866
v -0.08550000 -0.00913652 -0.00619866
v -0.08785000 -0.00995929 -0.00603500
v -0.08550000 -0.00843901 -0.00666472
v -0.08785000 -0.00913652 -0.00619866
v -0.08550000 -0.00797295 -0.00736223
v -0.08785000 -0.00843901 -0.00666472
v -0.08550000 -0.00780929 -0.00818500
v -0.08785000 -0.00797295 -0.00736223
v -0.08550000 -0.00797295 -0.00900777
v -0.08785000 -0.00780929 -0.00818500
v -0.08550000 -0.00843901 -0.00970528
v -0.08785000 -0.00797295 -0.00900777
v -0.08550000 -0.00913652 -0.01017134
v -0.08785000 -0.00843901 -0.00970528
v -0.08785000 -0.00913652 -0.01017134
v -0.08785000 -0.01168137 -0.01234246
v -0.08785000 -0.01078206 -0.01017134
v -0.08785000 -0.00995929 -0.01033500
v -0.08785000 -0.01314127 -0.01136698
v -0.08785000 -0.01147957 -0.00970528
v -0.08785000 -0.00823722 -0.00402754
v -0.08785000 -0.00913652 -0.00619866
v -0.08785000 -0.00995929 -0.00603500
v -0.08785000 -0.00677731 -0.00500302
v -0.08785000 -0.00843901 -0.00666472
v -0.08785000 -0.01411675 -0.00990708
v -0.08785000 -0.01194563 -0.00900777
v -0.08785000 -0.00580183 -0.00646292
v -0.08785000 -0.00797295 -0.00736223
v -0.08785000 -0.00545929 -0.00818500
v -0.08785000 -0.00780929 -0.00818500
v -0.08785000 -0.00580183 -0.00990708
v -0.08785000 -0.00797295 -0.00900777
v -0.08785000 -0.00677731 -0.01136698
v -0.08785000 -0.00843901 -0.00970528
v -0.08785000 -0.00823722 -0.01234246
v -0.08785000 -0.00913652 -0.01017134
v -0.08785000 -0.01445929 -0.00818500
v -0.08785000 -0.01210929 -0.00818500
v -0.08785000 -0.01411675 -0.00646292
v -0.08785000 -0.01194563 -0.00736223
v -0.08785000 -0.01314127 -0.00500302
v -0.08785000 -0.01147957 -0.00666472
v -0.08785000 -0.00995929 -0.01268500
v -0.08785000 -0.01168137 -0.00402754
v -0.08785000 -0.01078206 -0.00619866
v -0.08785000 -0.00995929 -0.00368500
v -0.09185000 -0.01168137 -0.00402754
v -0.09185000 -0.00995929 -0.00368500
v -0.08785000 -0.00995929 -0.00368500
v -0.09185000 -0.01314127 -0.00500302
v -0.08785000 -0.01168137 -0.00402754
v -0.09185000 -0.01411675 -0.00646292
v -0.08785000 -0.01314127 -0.00500302
v -0.09185000 -0.01445929 -0.00818500
v -0.08785000 -0.01411675 -0.00646292
v -0.08785000 -0.01411675 -0.00990708
v -0.09185000 -0.01411675 -0.00990708
v -0.09185000 -0.01441951 -0.00838500
v -0.08785000 -0.01445929 -0.00818500
v -0.09185000 -0.01314127 -0.01136698
v -0.09185000 -0.01168137 -0.01234246
v -0.08785000 -0.01314127 -0.01136698
v -0.09185000 -0.00995929 -0.01268500
v -0.08785000 -0.01168137 -0.01234246
v -0.09185000 -0.00823722 -0.01234246
v -0.08785000 -0.00995929 -0.01268500
v -0.09185000 -0.00677731 -0.01136698
v -0.08785000 -0.00823722 -0.01234246
v -0.09185000 -0.00580183 -0.00990708
v -0.08785000 -0.00677731 -0.01136698
v -0.08785000 -0.00580183 -0.00990708
v -0.08785000 -0.00545929 -0.00818500
v -0.09185000 -0.00549907 -0.00838500
v -0.09185000 -0.00545929 -0.00818500
v -0.09185000 -0.00580183 -0.00646292
v -0.09185000 -0.00677731 -0.00500302
v -0.08785000 -0.00580183 -0.00646292
v -0.09185000 -0.00823722 -0.00402754
v -0.08785000 -0.00677731 -0.00500302
v -0.08785000 -0.00823722 -0.00402754
v -0.09185000 -0.00063143 -0.00091060
v -0.09185000 -0.00000000 -0.00078500
v -0.08550000 -0.00000000 -0.00078500
v -0.09185000 -0.00116673 -0.00126827
v -0.08550000 -0.00063143 -0.00091060
v -0.09185000 -0.00152440 -0.00180357
v -0.08550000 -0.00116673 -0.00126827
v -0.08550000 -0.00152440 -0.00180357
v -0.08550000 -0.00165000 -0.00243500
v -0.09185000 -0.00161022 -0.00223500
v -0.09185000 -0.00165000 -0.00243500
v -0.09185000 -0.00152440 -0.00306643
v -0.09185000 -0.00116673 -0.00360173
v -0.08550000 -0.00152440 -0.00306643
v -0.09185000 -0.00063143 -0.00395940
v -0.08550000 -0.00116673 -0.00360173
v -0.09185000 -0.00000000 -0.00408500
v -0.08550000 -0.00063143 -0.00395940
v -0.09185000 0.00063143 -0.00395940
v -0.08550000 -0.00000000 -0.00408500
v -0.09185000 0.00116673 -0.00360173
v -0.08550000 0.00063143 -0.00395940
v -0.09185000 0.00152440 -0.00306643
v -0.08550000 0.00116673 -0.00360173
v -0.09185000 0.00165000 -0.00243500
v -0.08550000 0.00152440 -0.00306643
v -0.08550000 0.00152440 -0.00180357
v -0.09185000 0.00152440 -0.00180357
v -0.09185000 0.00161022 -0.00223500
v -0.08550000 0.00165000 -0.00243500
v -0.09185000 0.00116673 -0.00126827
v -0.09185000 0.00063143 -0.00091060
v -0.08550000 0.00116673 -0.00126827
v -0.08550000 0.00063143 -0.00091060
v -0.09185000 -0.00063143 -0.02391060
v -0.09185000 -0.00000000 -0.02378500
v -0.08550000 0.00000000 -0.02378500
v -0.09185000 -0.00116673 -0.02426827
v -0.08550000 -0.00063143 -0.02391060
v -0.09185000 -0.00152440 -0.02480357
v -0.08550000 -0.00116673 -0.02426827
v -0.09185000 -0.00165000 -0.02543500
v -0.08550000 -0.00152440 -0.02480357
v -0.08550000 -0.00152440 -0.02606643
v -0.09185000 -0.00152440 -0.02606643
v -0.09185000 -0.00161022 -0.02563500
v -0.08550000 -0.00165000 -0.02543500
v -0.09185000 -0.00116673 -0.02660173
v -0.09185000 -0.00063143 -0.02695940
v -0.08550000 -0.00116673 -0.02660173
v -0.09185000 0.00000000 -0.02708500
v -0.08550000 -0.00063143 -0.02695940
v -0.09185000 0.00063143 -0.02695940
v -0.08550000 0.00000000 -0.02708500
v -0.09185000 0.00116673 -0.02660173
v -0.08550000 0.00063143 -0.02695940
v -0.09185000 0.00152440 -0.02606643
v -0.08550000 0.00116673 -0.02660173
v -0.08550000 0.00152440 -0.02606643
v -0.08550000 0.00165000 -0.02543500
v -0.09185000 0.00161022 -0.02563500
v -0.09185000 0.00165000 -0.02543500
v -0.09185000 0.00152440 -0.02480357
v -0.09185000 0.00116673 -0.02426827
v -0.08550000 0.00152440 -0.02480357
v -0.09185000 0.00063143 -0.02391060
v -0.08550000 0.00116673 -0.02426827
v -0.08550000 0.00063143 -0.02391060
v -0.09185000 0.00765367 -0.03241259
v -0.08550000 0.00765367 -0.03241259
v -0.08550000 0.00472965 -0.03299421
v -0.08550000 0.00000000 -0.03393500
v -0.09185000 0.00000000 -0.03393500
v -0.09185000 0.00355465 -0.03322794
v -0.09185000 0.01414214 -0.02807713
v -0.08550000 0.01414214 -0.02807713
v -0.08550000 0.01050110 -0.03051000
v -0.09185000 0.01847759 -0.02158867
v -0.08550000 0.01847759 -0.02158867
v -0.08550000 0.01766152 -0.02281000
v -0.08550000 0.01605465 -0.02521486
v -0.09185000 0.01577392 -0.02563500
v -0.09185000 0.01722965 -0.02345635
v -0.09185000 0.02000000 -0.01393500
v -0.08550000 0.02000000 -0.01393500
v -0.09185000 0.01889604 -0.00838500
v -0.08550000 0.01847759 -0.00628133
v -0.08550000 0.01414214 0.00020714
v -0.08550000 0.01605465 -0.00265514
v -0.09185000 0.01577392 -0.00223500
v -0.08550000 0.01766152 -0.00506000
v -0.09185000 0.01722965 -0.00441365
v -0.09185000 0.01847759 -0.00628133
v -0.09185000 0.01414214 0.00020714
v -0.09185000 0.00765367 0.00454259
v -0.08550000 0.00000000 0.00606500
v -0.08550000 0.00472965 0.00512422
v -0.09185000 0.00355465 0.00535794
v -0.08550000 0.00765367 0.00454259
v -0.09185000 -0.00765367 0.00454259
v -0.08550000 -0.00765367 0.00454259
v -0.08550000 -0.00472965 0.00512422
v -0.09185000 0.00000000 0.00606500
v -0.09185000 -0.00355465 0.00535794
v -0.09185000 -0.01414214 0.00020714
v -0.08550000 -0.01766152 -0.00506000
v -0.08550000 -0.01414214 0.00020714
v -0.09185000 -0.01577392 -0.00223500
v -0.09185000 -0.01847759 -0.00628133
v -0.08550000 -0.01847759 -0.00628133
v -0.08550000 -0.02000000 -0.01393500
v -0.09185000 -0.01889604 -0.00838500
v -0.09185000 -0.02000000 -0.01393500
v -0.09185000 -0.01847759 -0.02158867
v -0.08550000 -0.01766152 -0.02281000
v -0.09185000 -0.01577392 -0.02563500
v -0.08550000 -0.01414214 -0.02807713
v -0.08550000 -0.01847759 -0.02158867
v -0.09185000 -0.01414214 -0.02807713
v -0.09185000 -0.00765367 -0.03241259
v -0.08550000 -0.01050110 -0.03051000
v -0.08550000 -0.00765367 -0.03241259
v -0.08550000 -0.00472965 -0.03299421
v -0.09185000 -0.00355465 -0.03322794
v -0.09185000 0.00355465 -0.00838500
v -0.09185000 0.00355465 -0.01393500
v -0.09185000 -0.00355465 -0.01393500
v -0.09185000 -0.00355465 -0.00838500
v -0.09185000 -0.00000000 -0.00408500
v -0.09185000 0.00116673 -0.00360173
v -0.09185000 0.00152440 -0.00306643
v -0.09185000 0.00063143 -0.00395940
v -0.09185000 0.00355465 -0.00223500
v -0.09185000 0.00165000 -0.00243500
v -0.09185000 -0.00355465 -0.00223500
v -0.09185000 -0.00152440 -0.00306643
v -0.09185000 -0.00116673 -0.00360173
v -0.09185000 -0.00063143 -0.00395940
v -0.09185000 -0.00165000 -0.00243500
v -0.09185000 -0.00161022 -0.00223500
v -0.09185000 -0.00116673 -0.02426827
v -0.09185000 -0.00152440 -0.02480357
v -0.09185000 0.00063143 -0.02391060
v -0.09185000 -0.00000000 -0.02378500
v -0.09185000 0.00355465 -0.02563500
v -0.09185000 0.00152440 -0.02480357
v -0.09185000 -0.00063143 -0.02391060
v -0.09185000 0.00116673 -0.02426827
v -0.09185000 0.00165000 -0.02543500
v -0.09185000 -0.00355465 -0.02563500
v -0.09185000 -0.00165000 -0.02543500
v -0.09185000 0.00161022 -0.02563500
v -0.09185000 0.01722965 -0.01393500
v -0.09185000 0.00995929 -0.01268500
v -0.09185000 0.00823722 -0.01234246
v -0.09185000 0.01168137 -0.01234246
v -0.09185000 0.01314127 -0.01136698
v -0.09185000 0.00677731 -0.01136698
v -0.09185000 0.00549907 -0.00838500
v -0.09185000 0.00580183 -0.00990708
v -0.09185000 0.01722965 -0.00838500
v -0.09185000 0.01411675 -0.00990708
v -0.09185000 0.00765367 0.00454259
v -0.09185000 0.01414214 0.00020714
v -0.09185000 0.00355465 0.00535794
v -0.09185000 0.00580183 -0.00646292
v -0.09185000 0.01577392 -0.00223500
v -0.09185000 0.00995929 -0.00368500
v -0.09185000 0.00677731 -0.00500302
v -0.09185000 0.01168137 -0.00402754
v -0.09185000 0.01722965 -0.00441365
v -0.09185000 0.01411675 -0.00646292
v -0.09185000 0.01314127 -0.00500302
v -0.09185000 0.01445929 -0.00818500
v -0.09185000 0.00545929 -0.00818500
v -0.09185000 0.00823722 -0.00402754
v -0.09185000 0.01441951 -0.00838500
v -0.09185000 0.01847759 -0.00628133
v -0.09185000 0.01889604 -0.00838500
v -0.09185000 0.02000000 -0.01393500
v -0.09185000 0.01847759 -0.02158867
v -0.09185000 0.00823722 -0.02384246
v -0.09185000 0.00995929 -0.02418500
v -0.09185000 0.00545929 -0.01968500
v -0.09185000 0.01168137 -0.01552754
v -0.09185000 0.00995929 -0.01518500
v -0.09185000 0.01411675 -0.01796293
v -0.09185000 0.01314127 -0.01650302
v -0.09185000 0.01722965 -0.02345635
v -0.09185000 0.01445929 -0.01968500
v -0.09185000 0.00677731 -0.02286698
v -0.09185000 0.00580183 -0.02140708
v -0.09185000 0.01411675 -0.02140708
v -0.09185000 0.01577392 -0.02563500
v -0.09185000 0.01314127 -0.02286698
v -0.09185000 0.01168137 -0.02384246
v -0.09185000 0.00677731 -0.01650302
v -0.09185000 0.00580183 -0.01796293
v -0.09185000 0.00823722 -0.01552754
v -0.09185000 0.01414214 -0.02807713
v -0.09185000 0.00765367 -0.03241259
v -0.09185000 0.00355465 -0.03322794
v -0.09185000 0.00116673 -0.02660173
v -0.09185000 0.00152440 -0.02606643
v -0.09185000 0.00000000 -0.03393500
v -0.09185000 0.00000000 -0.02708500
v -0.09185000 0.00063143 -0.02695940
v -0.09185000 -0.00355465 -0.03322794
v -0.09185000 -0.00063143 -0.02695940
v -0.09185000 -0.00152440 -0.02606643
v -0.09185000 -0.00116673 -0.02660173
v -0.09185000 -0.00161022 -0.02563500
v -0.09185000 -0.00765367 -0.03241259
v -0.09185000 -0.01414214 -0.02807713
v -0.09185000 -0.00580183 -0.01796293
v -0.09185000 -0.00677731 -0.01650302
v -0.09185000 -0.00580183 -0.02140708
v -0.09185000 -0.00545929 -0.01968500
v -0.09185000 -0.01577392 -0.02563500
v -0.09185000 -0.01314127 -0.02286698
v -0.09185000 -0.01168137 -0.02384246
v -0.09185000 -0.01847759 -0.02158867
v -0.09185000 -0.01411675 -0.02140708
v -0.09185000 -0.00823722 -0.01552754
v -0.09185000 -0.00823722 -0.02384246
v -0.09185000 -0.00677731 -0.02286698
v -0.09185000 -0.00995929 -0.02418500
v -0.09185000 -0.02000000 -0.01393500
v -0.09185000 -0.01411675 -0.01796293
v -0.09185000 -0.01445929 -0.01968500
v -0.09185000 -0.01314127 -0.01650302
v -0.09185000 -0.00995929 -0.01518500
v -0.09185000 -0.01168137 -0.01552754
v -0.09185000 -0.01168137 -0.01234246
v -0.09185000 -0.00995929 -0.01268500
v -0.09185000 -0.00823722 -0.01234246
v -0.09185000 -0.00677731 -0.01136698
v -0.09185000 -0.00580183 -0.00990708
v -0.09185000 -0.01314127 -0.01136698
v -0.09185000 -0.01889604 -0.00838500
v -0.09185000 -0.01441951 -0.00838500
v -0.09185000 -0.01411675 -0.00990708
v -0.09185000 -0.01847759 -0.00628133
v -0.09185000 -0.01411675 -0.00646292
v -0.09185000 -0.01445929 -0.00818500
v -0.09185000 -0.00823722 -0.00402754
v -0.09185000 -0.00995929 -0.00368500
v -0.09185000 -0.01577392 -0.00223500
v -0.09185000 -0.01314127 -0.00500302
v -0.09185000 -0.00545929 -0.00818500
v -0.09185000 -0.00580183 -0.00646292
v -0.09185000 -0.01168137 -0.00402754
v -0.09185000 -0.00677731 -0.00500302
v -0.09185000 -0.00549907 -0.00838500
v -0.09185000 -0.01414214 0.00020714
v -0.09185000 -0.00765367 0.00454259
v -0.09185000 -0.00355465 0.00535794
v -0.09185000 -0.00116673 -0.00126827
v -0.09185000 -0.00152440 -0.00180357
v -0.09185000 0.00000000 0.00606500
v -0.09185000 -0.00000000 -0.00078500
v -0.09185000 -0.00063143 -0.00091060
v -0.09185000 0.00063143 -0.00091060
v -0.09185000 0.00152440 -0.00180357
v -0.09185000 0.00116673 -0.00126827
v -0.09185000 0.00161022 -0.00223500
v -0.09185000 -0.01168137 -0.01552754
v -0.09185000 -0.00995929 -0.01518500
v -0.08785000 -0.00995929 -0.01518500
v -0.09185000 -0.01314127 -0.01650302
v -0.08785000 -0.01168137 -0.01552754
v -0.09185000 -0.01411675 -0.01796293
v -0.08785000 -0.01314127 -0.01650302
v -0.09185000 -0.01445929 -0.01968500
v -0.08785000 -0.01411675 -0.01796293
v -0.09185000 -0.01411675 -0.02140708
v -0.08785000 -0.01445929 -0.01968500
v -0.09185000 -0.01314127 -0.02286698
v -0.08785000 -0.01411675 -0.02140708
v -0.09185000 -0.01168137 -0.02384246
v -0.08785000 -0.01314127 -0.02286698
v -0.09185000 -0.00995929 -0.02418500
v -0.08785000 -0.01168137 -0.02384246
v -0.09185000 -0.00823722 -0.02384246
v -0.08785000 -0.00995929 -0.02418500
v -0.09185000 -0.00677731 -0.02286698
v -0.08785000 -0.00823722 -0.02384246
v -0.09185000 -0.00580183 -0.02140708
v -0.08785000 -0.00677731 -0.02286698
v -0.09185000 -0.00545929 -0.01968500
v -0.08785000 -0.00580183 -0.02140708
v -0.09185000 -0.00580183 -0.01796293
v -0.08785000 -0.00545929 -0.01968500
v -0.09185000 -0.00677731 -0.01650302
v -0.08785000 -0.00580183 -0.01796293
v -0.09185000 -0.00823722 -0.01552754
v -0.08785000 -0.00677731 -0.01650302
v -0.08785000 -0.00823722 -0.01552754
v -0.08785000 -0.01314127 -0.02286698
v -0.08785000 -0.01411675 -0.02140708
v -0.08785000 -0.01194563 -0.02050777
v -0.08785000 -0.01445929 -0.01968500
v -0.08785000 -0.01210929 -0.01968500
v -0.08785000 -0.01411675 -0.01796293
v -0.08785000 -0.01194563 -0.01886223
v -0.08785000 -0.01147957 -0.02120528
v -0.08785000 -0.01078206 -0.02167134
v -0.08785000 -0.01314127 -0.01650302
v -0.08785000 -0.01147957 -0.01816472
v -0.08785000 -0.00995929 -0.02418500
v -0.08785000 -0.00995929 -0.02183500
v -0.08785000 -0.00913652 -0.02167134
v -0.08785000 -0.01168137 -0.02384246
v -0.08785000 -0.01168137 -0.01552754
v -0.08785000 -0.01078206 -0.01769866
v -0.08785000 -0.00677731 -0.01650302
v -0.08785000 -0.00843901 -0.01816472
v -0.08785000 -0.00913652 -0.01769866
v -0.08785000 -0.00580183 -0.01796293
v -0.08785000 -0.00797295 -0.01886223
v -0.08785000 -0.00580183 -0.02140708
v -0.08785000 -0.00797295 -0.02050777
v -0.08785000 -0.00780929 -0.01968500
v -0.08785000 -0.00677731 -0.02286698
v -0.08785000 -0.00843901 -0.02120528
v -0.08785000 -0.00545929 -0.01968500
v -0.08785000 -0.00823722 -0.02384246
v -0.08785000 -0.00995929 -0.01518500
v -0.08785000 -0.00995929 -0.01753500
v -0.08785000 -0.00823722 -0.01552754
v -0.08550000 -0.01078206 -0.02167134
v -0.08550000 -0.00995929 -0.02183500
v -0.08785000 -0.00995929 -0.02183500
v -0.08550000 -0.01147957 -0.02120528
v -0.08785000 -0.01078206 -0.02167134
v -0.08550000 -0.01194563 -0.02050777
v -0.08785000 -0.01147957 -0.02120528
v -0.08550000 -0.01210929 -0.01968500
v -0.08785000 -0.01194563 -0.02050777
v -0.08550000 -0.01194563 -0.01886223
v -0.08785000 -0.01210929 -0.01968500
v -0.08550000 -0.01147957 -0.01816472
v -0.08785000 -0.01194563 -0.01886223
v -0.08550000 -0.01078206 -0.01769866
v -0.08785000 -0.01147957 -0.01816472
v -0.08550000 -0.00995929 -0.01753500
v -0.08785000 -0.01078206 -0.01769866
v -0.08550000 -0.00913652 -0.01769866
v -0.08785000 -0.00995929 -0.01753500
v -0.08550000 -0.00843901 -0.01816472
v -0.08785000 -0.00913652 -0.01769866
v -0.08550000 -0.00797295 -0.01886223
v -0.08785000 -0.00843901 -0.01816472
v -0.08550000 -0.00780929 -0.01968500
v -0.08785000 -0.00797295 -0.01886223
v -0.08550000 -0.00797295 -0.02050777
v -0.08785000 -0.00780929 -0.01968500
v -0.08550000 -0.00843901 -0.02120528
v -0.08785000 -0.00797295 -0.02050777
v -0.08550000 -0.00913652 -0.02167134
v -0.08785000 -0.00843901 -0.02120528
v -0.08785000 -0.00913652 -0.02167134
vt 0.50000000 0.50000000
vt 0.50000000 0.50000000
vt 0.50000000 0.50000000
vt 0.50000000 0.50000000
vt 0.50000000 0.50000000
vt 0.50000000 0.50000000
vt 0.50000000 0.50000000
vt 0.50000000 0.50000000
vt 0.50000000 0.50000000
vt 0.50000000 0.50000000
vt 0.50000000 0.50000000
vt 0.50000000 0.50000000
vt 0.50000000 0.50000000
vt 0.50000000 0.50000000
vt 0.50000000 0.50000000
vt 0.50000000 0.50000000
vt 0.50000000 0.50000000
vt 0.50000000 0.50000000
vt 0.50000000 0.50000000
vt 0.50000000 0.50000000
vt 0.50000000 0.50000000
vt 0.50000000 0.50000000
vt 0.50000000 0.50000000
vt 0.50000000 0.50000000
vt 0.50000000 0.50000000
vt 0.50000000 0.50000000
vt 0.50000000 0.50000000
vt 0.50000000 0.50000000
vt 0.50000000 0.50000000
vt 0.50000000 0.50000000
vt 0.50000000 0.50000000
vt 0.50000000 0.50000000
vt 0.50000000 0.50000000
vt 0.50000000 0.50000000
vt 0.50000000 0.50000000
vt 0.50000000 0.50000000
vt 0.50000000 0.50000000
vt 0.50000000 0.50000000
vt 0.50000000 0.50000000
vt 0.50000000 0.50000000
vt 0.50000000 0.50000000
vt 0.50000000 0.50000000
vt 0.50000000 0.50000000
vt 0.50000000 0.50000000
vt 0.50000000 0.50000000
vt 0.50000000 0.50000000
vt 0.50000000 0.50000000
vt 0.50000000 0.50000000
vt 0.50000000 0.50000000
vt 0.50000000 0.50000000
vt 0.50000000 0.50000000
vt 0.50000000 0.50000000
vt 0.50000000 0.50000000
vt 0.50000000 0.50000000
vt 0.50000000 0.50000000
vt 0.50000000 0.50000000
vt 0.50000000 0.50000000
vt 0.50000000 0.50000000
vt 0.50000000 0.50000000
vt 0.50000000 0.50000000
vt 0.50000000 0.50000000
vt 0.50000000 0.50000000
vt 0.50000000 0.50000000
vt 0.50000000 0.50000000
vt 0.50000000 0.50000000
vt 0.50000000 0.50000000
vt 0.50000000 0.50000000
vt 0.50000000 0.50000000
vt 0.50000000 0.50000000
vt 0.50000000 0.50000000
vt 0.50000000 0.50000000
vt 0.50000000 0.50000000
vt 0.50000000 0.50000000
vt 0.50000000 0.50000000
vt 0.50000000 0.50000000
vt 0.50000000 0.50000000
vt 0.50000000 0.50000000
vt 0.50000000 0.50000000
vt 0.50000000 0.50000000
vt 0.50000000 0.50000000
vt 0.50000000 0.50000000
vt 0.50000000 0.50000000
vt 0.50000000 0.50000000
vt 0.50000000 0.50000000
vt 0.50000000 0.50000000
vt 0.50000000 0.50000000
vt 0.50000000 0.50000000
vt 0.50000000 0.50000000
vt 0.50000000 0.50000000
vt 0.50000000 0.50000000
vt 0.50000000 0.50000000
vt 0.50000000 0.50000000
vt 0.50000000 0.50000000
vt 0.50000000 0.50000000
vt 0.50000000 0.50000000
vt 0.50000000 0.50000000
vt 0.50000000 0.50000000
vt 0.50000000 0.50000000
vt 0.50000000 0.50000000
vt 0.50000000 0.50000000
vt 0.50000000 0.50000000
vt 0.50000000 0.50000000
vt 0.50000000 0.50000000
vt 0.50000000 0.50000000
vt 0.50000000 0.50000000
vt 0.50000000 0.50000000
vt 0.50000000 0.50000000
vt 0.50000000 0.50000000
vt 0.50000000 0.50000000
vt 0.50000000 0.50000000
vt 0.50000000 0.50000000
vt 0.50000000 0.50000000
vt 0.50000000 0.50000000
vt 0.50000000 0.50000000
vt 0.50000000 0.50000000
vt 0.50000000 0.50000000
vt 0.50000000 0.50000000
vt 0.50000000 0.50000000
vt 0.50000000 0.50000000
vt 0.50000000 0.50000000
vt 0.50000000 0.50000000
vt 0.50000000 0.50000000
vt 0.50000000 0.50000000
vt 0.50000000 0.50000000
vt 0.50000000 0.50000000
vt 0.50000000 0.50000000
vt 0.50000000 0.50000000
vt 0.50000000 0.50000000
vt 0.50000000 0.50000000
vt 0.50000000 0.50000000
vt 0.50000000 0.50000000
vt 0.50000000 0.50000000
vt 0.50000000 0.50000000
vt 0.50000000 0.50000000
vt 0.50000000 0.50000000
vt 0.50000000 0.50000000
vt 0.50000000 0.50000000
vt 0.50000000 0.50000000
vt 0.50000000 0.50000000
vt 0.50000000 0.50000000
vt 0.50000000 0.50000000
vt 0.50000000 0.50000000
vt 0.50000000 0.50000000
vt 0.50000000 0.50000000
vt 0.50000000 0.50000000
vt 0.50000000 0.50000000
vt 0.50000000 0.50000000
vt 0.50000000 0.50000000
vt 0.50000000 0.50000000
vt 0.50000000 0.50000000
vt 0.50000000 0.50000000
vt 0.50000000 0.50000000
vt 0.50000000 0.50000000
vt 0.50000000 0.50000000
vt 0.50000000 0.50000000
vt 0.50000000 0.50000000
vt 0.50000000 0.50000000
vt 0.50000000 0.50000000
vt 0.50000000 0.50000000
vt 0.50000000 0.50000000
vt 0.50000000 0.50000000
vt 0.50000000 0.50000000
vt 0.50000000 0.50000000
vt 0.50000000 0.50000000
vt 0.50000000 0.50000000
vt 0.50000000 0.50000000
vt 0.50000000 0.50000000
vt 0.50000000 0.50000000
vt 0.50000000 0.50000000
vt 0.50000000 0.50000000
vt 0.50000000 0.50000000
vt 0.50000000 0.50000000
vt 0.50000000 0.50000000
vt 0.50000000 0.50000000
vt 0.50000000 0.50000000
vt 0.50000000 0.50000000
vt 0.50000000 0.50000000
vt 0.50000000 0.50000000
vt 0.50000000 0.50000000
vt 0.50000000 0.50000000
vt 0.50000000 0.50000000
vt 0.50000000 0.50000000
vt 0.50000000 0.50000000
vt 0.50000000 0.50000000
vt 0.50000000 0.50000000
vt 0.50000000 0.50000000
vt 0.50000000 0.50000000
vt 0.50000000 0.50000000
vt 0.50000000 0.50000000
vt 0.50000000 0.50000000
vt 0.50000000 0.50000000
vt 0.50000000 0.50000000
vt 0.50000000 0.50000000
vt 0.50000000 0.50000000
vt 0.50000000 0.50000000
vt 0.50000000 0.50000000
vt 0.50000000 0.50000000
vt 0.50000000 0.50000000
vt 0.50000000 0.50000000
vt 0.50000000 0.50000000
vt 0.50000000 0.50000000
vt 0.50000000 0.50000000
vt 0.50000000 0.50000000
vt 0.50000000 0.50000000
vt 0.50000000 0.50000000
vt 0.50000000 0.50000000
vt 0.50000000 0.50000000
vt 0.50000000 0.50000000
vt 0.50000000 0.50000000
vt 0.50000000 0.50000000
vt 0.50000000 0.50000000
vt 0.50000000 0.50000000
vt 0.50000000 0.50000000
vt 0.50000000 0.50000000
vt 0.50000000 0.50000000
vt 0.50000000 0.50000000
vt 0.50000000 0.50000000
vt 0.50000000 0.50000000
vt 0.50000000 0.50000000
vt 0.50000000 0.50000000
vt 0.50000000 0.50000000
vt 0.50000000 0.50000000
vt 0.50000000 0.50000000
vt 0.50000000 0.50000000
vt 0.50000000 0.50000000
vt 0.50000000 0.50000000
vt 0.50000000 0.50000000
vt 0.50000000 0.50000000
vt 0.50000000 0.50000000
vt 0.50000000 0.50000000
vt 0.50000000 0.50000000
vt 0.50000000 0.50000000
vt 0.50000000 0.50000000
vt 0.50000000 0.50000000
vt 0.50000000 0.50000000
vt 0.50000000 0.50000000
vt 0.50000000 0.50000000
vt 0.50000000 0.50000000
vt 0.50000000 0.50000000
vt 0.50000000 0.50000000
vt 0.50000000 0.50000000
vt 0.50000000 0.50000000
vt 0.50000000 0.50000000
vt 0.50000000 0.50000000
vt 0.50000000 0.50000000
vt 0.50000000 0.50000000
vt 0.50000000 0.50000000
vt 0.50000000 0.50000000
vt 0.50000000 0.50000000
vt 0.50000000 0.50000000
vt 0.50000000 0.50000000
vt 0.50000000 0.50000000
vt 0.50000000 0.50000000
vt 0.50000000 0.50000000
vt 0.50000000 0.50000000
vt 0.50000000 0.50000000
vt 0.50000000 0.50000000
vt 0.50000000 0.50000000
vt 0.50000000 0.50000000
vt 0.50000000 0.50000000
vt 0.50000000 0.50000000
vt 0.50000000 0.50000000
vt 0.50000000 0.50000000
vt 0.50000000 0.50000000
vt 0.50000000 0.50000000
vt 0.50000000 0.50000000
vt 0.50000000 0.50000000
vt 0.50000000 0.50000000
vt 0.50000000 0.50000000
vt 0.50000000 0.50000000
vt 0.50000000 0.50000000
vt 0.50000000 0.50000000
vt 0.50000000 0.50000000
vt 0.50000000 0.50000000
vt 0.50000000 0.50000000
vt 0.50000000 0.50000000
vt 0.50000000 0.50000000
vt 0.50000000 0.50000000
vt 0.50000000 0.50000000
vt 0.50000000 0.50000000
vt 0.50000000 0.50000000
vt 0.50000000 0.50000000
vt 0.50000000 0.50000000
vt 0.50000000 0.50000000
vt 0.50000000 0.50000000
vt 0.50000000 0.50000000
vt 0.50000000 0.50000000
vt 0.50000000 0.50000000
vt 0.50000000 0.50000000
vt 0.50000000 0.50000000
vt 0.50000000 0.50000000
vt 0.50000000 0.50000000
vt 0.50000000 0.50000000
vt 0.50000000 0.50000000
vt 0.50000000 0.50000000
vt 0.50000000 0.50000000
vt 0.50000000 0.50000000
vt 0.50000000 0.50000000
vt 0.50000000 0.50000000
vt 0.50000000 0.50000000
vt 0.50000000 0.50000000
vt 0.50000000 0.50000000
vt 0.50000000 0.50000000
vt 0.50000000 0.50000000
vt 0.50000000 0.50000000
vt 0.50000000 0.50000000
vt 0.50000000 0.50000000
vt 0.50000000 0.50000000
vt 0.50000000 0.50000000
vt 0.50000000 0.50000000
vt 0.50000000 0.50000000
vt 0.50000000 0.50000000
vt 0.50000000 0.50000000
vt 0.50000000 0.50000000
vt 0.50000000 0.50000000
vt 0.50000000 0.50000000
vt 0.50000000 0.50000000
vt 0.50000000 0.50000000
vt 0.50000000 0.50000000
vt 0.50000000 0.50000000
vt 0.50000000 0.50000000
vt 0.50000000 0.50000000
vt 0.50000000 0.50000000
vt 0.50000000 0.50000000
vt 0.50000000 0.50000000
vt 0.50000000 0.50000000
vt 0.50000000 0.50000000
vt 0.50000000 0.50000000
vt 0.50000000 0.50000000
vt 0.50000000 0.50000000
vt 0.50000000 0.50000000
vt 0.50000000 0.50000000
vt 0.50000000 0.50000000
vt 0.50000000 0.50000000
vt 0.50000000 0.50000000
vt 0.50000000 0.50000000
vt 0.50000000 0.50000000
vt 0.50000000 0.50000000
vt 0.50000000 0.50000000
vt 0.50000000 0.50000000
vt 0.50000000 0.50000000
vt 0.50000000 0.50000000
vt 0.50000000 0.50000000
vt 0.50000000 0.50000000
vt 0.50000000 0.50000000
vt 0.50000000 0.50000000
vt 0.50000000 0.50000000
vt 0.50000000 0.50000000
vt 0.50000000 0.50000000
vt 0.50000000 0.50000000
vt 0.50000000 0.50000000
vt 0.50000000 0.50000000
vt 0.50000000 0.50000000
vt 0.50000000 0.50000000
vt 0.50000000 0.50000000
vt 0.50000000 0.50000000
vt 0.50000000 0.50000000
vt 0.50000000 0.50000000
vt 0.50000000 0.50000000
vt 0.50000000 0.50000000
vt 0.50000000 0.50000000
vt 0.50000000 0.50000000
vt 0.50000000 0.50000000
vt 0.50000000 0.50000000
vt 0.50000000 0.50000000
vt 0.50000000 0.50000000
vt 0.50000000 0.50000000
vt 0.50000000 0.50000000
vt 0.50000000 0.50000000
vt 0.50000000 0.50000000
vt 0.50000000 0.50000000
vt 0.50000000 0.50000000
vt 0.50000000 0.50000000
vt 0.50000000 0.50000000
vt 0.50000000 0.50000000
vt 0.50000000 0.50000000
vt 0.50000000 0.50000000
vt 0.50000000 0.50000000
vt 0.50000000 0.50000000
vt 0.50000000 0.50000000
vt 0.50000000 0.50000000
vt 0.50000000 0.50000000
vt 0.50000000 0.50000000
vt 0.50000000 0.50000000
vt 0.50000000 0.50000000
vt 0.50000000 0.50000000
vt 0.50000000 0.50000000
vt 0.50000000 0.50000000
vt 0.50000000 0.50000000
vt 0.50000000 0.50000000
vt 0.50000000 0.50000000
vt 0.50000000 0.50000000
vt 0.50000000 0.50000000
vt 0.50000000 0.50000000
vt 0.50000000 0.50000000
vt 0.50000000 0.50000000
vt 0.50000000 0.50000000
vt 0.50000000 0.50000000
vt 0.50000000 0.50000000
vt 0.50000000 0.50000000
vt 0.50000000 0.50000000
vt 0.50000000 0.50000000
vt 0.50000000 0.50000000
vt 0.50000000 0.50000000
vt 0.50000000 0.50000000
vt 0.50000000 0.50000000
vt 0.50000000 0.50000000
vt 0.50000000 0.50000000
vt 0.50000000 0.50000000
vt 0.50000000 0.50000000
vt 0.50000000 0.50000000
vt 0.50000000 0.50000000
vt 0.50000000 0.50000000
vt 0.50000000 0.50000000
vt 0.50000000 0.50000000
vt 0.50000000 0.50000000
vt 0.50000000 0.50000000
vt 0.50000000 0.50000000
vt 0.50000000 0.50000000
vt 0.50000000 0.50000000
vt 0.50000000 0.50000000
vt 0.50000000 0.50000000
vt 0.50000000 0.50000000
vt 0.50000000 0.50000000
vt 0.50000000 0.50000000
vt 0.50000000 0.50000000
vt 0.50000000 0.50000000
vt 0.50000000 0.50000000
vt 0.50000000 0.50000000
vt 0.50000000 0.50000000
vt 0.50000000 0.50000000
vt 0.50000000 0.50000000
vt 0.50000000 0.50000000
vt 0.50000000 0.50000000
vt 0.50000000 0.50000000
vt 0.50000000 0.50000000
vt 0.50000000 0.50000000
vt 0.50000000 0.50000000
vt 0.50000000 0.50000000
vt 0.50000000 0.50000000
vt 0.50000000 0.50000000
vt 0.50000000 0.50000000
vt 0.50000000 0.50000000
vt 0.50000000 0.50000000
vt 0.50000000 0.50000000
vt 0.50000000 0.50000000
vt 0.50000000 0.50000000
vt 0.50000000 0.50000000
vt 0.50000000 0.50000000
vt 0.50000000 0.50000000
vt 0.50000000 0.50000000
vt 0.50000000 0.50000000
vt 0.50000000 0.50000000
vt 0.50000000 0.50000000
vt 0.50000000 0.50000000
vt 0.50000000 0.50000000
vt 0.50000000 0.50000000
vt 0.50000000 0.50000000
vt 0.50000000 0.50000000
vt 0.50000000 0.50000000
vt 0.50000000 0.50000000
vt 0.50000000 0.50000000
vt 0.50000000 0.50000000
vt 0.50000000 0.50000000
vt 0.50000000 0.50000000
vt 0.50000000 0.50000000
vt 0.50000000 0.50000000
vt 0.50000000 0.50000000
vt 0.50000000 0.50000000
vt 0.50000000 0.50000000
vt 0.50000000 0.50000000
vt 0.50000000 0.50000000
vt 0.50000000 0.50000000
vt 0.50000000 0.50000000
vt 0.50000000 0.50000000
vt 0.50000000 0.50000000
vt 0.50000000 0.50000000
vt 0.50000000 0.50000000
vt 0.50000000 0.50000000
vt 0.50000000 0.50000000
vt 0.50000000 0.50000000
vt 0.50000000 0.50000000
vt 0.50000000 0.50000000
vt 0.50000000 0.50000000
vt 0.50000000 0.50000000
vt 0.50000000 0.50000000
vt 0.50000000 0.50000000
vt 0.50000000 0.50000000
vt 0.50000000 0.50000000
vt 0.50000000 0.50000000
vt 0.50000000 0.50000000
vt 0.50000000 0.50000000
vt 0.50000000 0.50000000
vt 0.50000000 0.50000000
vt 0.50000000 0.50000000
vt 0.50000000 0.50000000
vt 0.50000000 0.50000000
vt 0.50000000 0.50000000
vt 0.50000000 0.50000000
vt 0.50000000 0.50000000
vt 0.50000000 0.50000000
vt 0.50000000 0.50000000
vt 0.50000000 0.50000000
vt 0.50000000 0.50000000
vt 0.50000000 0.50000000
vt 0.50000000 0.50000000
vt 0.50000000 0.50000000
vt 0.50000000 0.50000000
vt 0.50000000 0.50000000
vt 0.50000000 0.50000000
vt 0.50000000 0.50000000
vt 0.50000000 0.50000000
vt 0.50000000 0.50000000
vt 0.50000000 0.50000000
vt 0.50000000 0.50000000
vt 0.50000000 0.50000000
vt 0.50000000 0.50000000
vt 0.50000000 0.50000000
vt 0.50000000 0.50000000
vt 0.50000000 0.50000000
vt 0.50000000 0.50000000
vt 0.50000000 0.50000000
vt 0.50000000 0.50000000
vt 0.50000000 0.50000000
vt 0.50000000 0.50000000
vt 0.50000000 0.50000000
vt 0.50000000 0.50000000
vt 0.50000000 0.50000000
vt 0.50000000 0.50000000
vt 0.50000000 0.50000000
vt 0.50000000 0.50000000
vt 0.50000000 0.50000000
vt 0.50000000 0.50000000
vt 0.50000000 0.50000000
vt 0.50000000 0.50000000
vt 0.50000000 0.50000000
vt 0.50000000 0.50000000
vt 0.50000000 0.50000000
vt 0.50000000 0.50000000
vt 0.50000000 0.50000000
vt 0.50000000 0.50000000
vt 0.50000000 0.50000000
vt 0.50000000 0.50000000
vt 0.50000000 0.50000000
vt 0.50000000 0.50000000
vt 0.50000000 0.50000000
vt 0.50000000 0.50000000
vt 0.50000000 0.50000000
vt 0.50000000 0.50000000
vt 0.50000000 0.50000000
vt 0.50000000 0.50000000
vt 0.50000000 0.50000000
vt 0.50000000 0.50000000
vt 0.50000000 0.50000000
vt 0.50000000 0.50000000
vt 0.50000000 0.50000000
vt 0.50000000 0.50000000
vt 0.50000000 0.50000000
vt 0.50000000 0.50000000
vt 0.50000000 0.50000000
vt 0.50000000 0.50000000
vt 0.50000000 0.50000000
vt 0.50000000 0.50000000
vt 0.50000000 0.50000000
vt 0.50000000 0.50000000
vt 0.50000000 0.50000000
vt 0.50000000 0.50000000
vt 0.50000000 0.50000000
vt 0.50000000 0.50000000
vt 0.50000000 0.50000000
vt 0.50000000 0.50000000
vt 0.50000000 0.50000000
vt 0.50000000 0.50000000
vt 0.50000000 0.50000000
vt 0.50000000 0.50000000
vt 0.50000000 0.50000000
vt 0.50000000 0.50000000
vt 0.50000000 0.50000000
vt 0.50000000 0.50000000
vt 0.50000000 0.50000000
vt 0.50000000 0.50000000
vt 0.50000000 0.50000000
vt 0.50000000 0.50000000
vt 0.50000000 0.50000000
vt 0.50000000 0.50000000
vt 0.50000000 0.50000000
vt 0.50000000 0.50000000
vt 0.50000000 0.50000000
vt 0.50000000 0.50000000
vt 0.50000000 0.50000000
vt 0.50000000 0.50000000
vt 0.50000000 0.50000000
vt 0.50000000 0.50000000
vt 0.50000000 0.50000000
vt 0.50000000 0.50000000
vt 0.50000000 0.50000000
vt 0.50000000 0.50000000
vt 0.50000000 0.50000000
vt 0.50000000 0.50000000
vt 0.50000000 0.50000000
vt 0.50000000 0.50000000
vt 0.50000000 0.50000000
vt 0.50000000 0.50000000
vt 0.50000000 0.50000000
vt 0.50000000 0.50000000
vt 0.50000000 0.50000000
vt 0.50000000 0.50000000
vt 0.50000000 0.50000000
vt 0.50000000 0.50000000
vt 0.50000000 0.50000000
vt 0.50000000 0.50000000
vt 0.50000000 0.50000000
vt 0.50000000 0.50000000
vt 0.50000000 0.50000000
vt 0.50000000 0.50000000
vt 0.50000000 0.50000000
vt 0.50000000 0.50000000
vt 0.50000000 0.50000000
vt 0.50000000 0.50000000
vt 0.50000000 0.50000000
vt 0.50000000 0.50000000
vt 0.50000000 0.50000000
vt 0.50000000 0.50000000
vt 0.50000000 0.50000000
vt 0.50000000 0.50000000
vt 0.50000000 0.50000000
vt 0.50000000 0.50000000
vt 0.50000000 0.50000000
vt 0.50000000 0.50000000
vt 0.50000000 0.50000000
vt 0.50000000 0.50000000
vt 0.50000000 0.50000000
vt 0.50000000 0.50000000
vt 0.50000000 0.50000000
vt 0.50000000 0.50000000
vt 0.50000000 0.50000000
vt 0.50000000 0.50000000
vt 0.50000000 0.50000000
vt 0.50000000 0.50000000
vt 0.50000000 0.50000000
vt 0.50000000 0.50000000
vt 0.50000000 0.50000000
vt 0.50000000 0.50000000
vt 0.50000000 0.50000000
vt 0.50000000 0.50000000
vt 0.50000000 0.50000000
vt 0.50000000 0.50000000
vt 0.50000000 0.50000000
vt 0.50000000 0.50000000
vt 0.50000000 0.50000000
vt 0.50000000 0.50000000
vt 0.50000000 0.50000000
vt 0.50000000 0.50000000
vt 0.50000000 0.50000000
vt 0.50000000 0.50000000
vt 0.50000000 0.50000000
vt 0.50000000 0.50000000
vt 0.50000000 0.50000000
vt 0.50000000 0.50000000
vt 0.50000000 0.50000000
vt 0.50000000 0.50000000
vt 0.50000000 0.50000000
vt 0.50000000 0.50000000
vt 0.50000000 0.50000000
vt 0.50000000 0.50000000
vt 0.50000000 0.50000000
vt 0.50000000 0.50000000
vt 0.50000000 0.50000000
vt 0.50000000 0.50000000
vt 0.50000000 0.50000000
vt 0.50000000 0.50000000
vt 0.50000000 0.50000000
vt 0.50000000 0.50000000
vt 0.50000000 0.50000000
vt 0.50000000 0.50000000
vt 0.50000000 0.50000000
vt 0.50000000 0.50000000
vt 0.50000000 0.50000000
vt 0.50000000 0.50000000
vt 0.50000000 0.50000000
vt 0.50000000 0.50000000
vt 0.50000000 0.50000000
vt 0.50000000 0.50000000
vt 0.50000000 0.50000000
vt 0.50000000 0.50000000
vt 0.50000000 0.50000000
vt 0.50000000 0.50000000
vt 0.50000000 0.50000000
vt 0.50000000 0.50000000
vt 0.50000000 0.50000000
vt 0.50000000 0.50000000
vt 0.50000000 0.50000000
vt 0.50000000 0.50000000
vt 0.50000000 0.50000000
vt 0.50000000 0.50000000
vt 0.50000000 0.50000000
vt 0.50000000 0.50000000
vt 0.50000000 0.50000000
vt 0.50000000 0.50000000
vt 0.50000000 0.50000000
vt 0.50000000 0.50000000
vt 0.50000000 0.50000000
vt 0.50000000 0.50000000
vt 0.50000000 0.50000000
vt 0.50000000 0.50000000
vt 0.50000000 0.50000000
vt 0.50000000 0.50000000
vt 0.50000000 0.50000000
vt 0.50000000 0.50000000
vt 0.50000000 0.50000000
vt 0.50000000 0.50000000
vt 0.50000000 0.50000000
vt 0.50000000 0.50000000
vt 0.50000000 0.50000000
vt 0.50000000 0.50000000
vt 0.50000000 0.50000000
vt 0.50000000 0.50000000
vt 0.50000000 0.50000000
vt 0.50000000 0.50000000
vt 0.50000000 0.50000000
vt 0.50000000 0.50000000
vt 0.50000000 0.50000000
vt 0.50000000 0.50000000
vt 0.50000000 0.50000000
vt 0.50000000 0.50000000
vt 0.50000000 0.50000000
vt 0.50000000 0.50000000
vt 0.50000000 0.50000000
vt 0.50000000 0.50000000
vt 0.50000000 0.50000000
vt 0.50000000 0.50000000
vt 0.50000000 0.50000000
vt 0.50000000 0.50000000
vt 0.50000000 0.50000000
vt 0.50000000 0.50000000
vt 0.50000000 0.50000000
vt 0.50000000 0.50000000
vt 0.50000000 0.50000000
vt 0.50000000 0.50000000
vt 0.50000000 0.50000000
vt 0.50000000 0.50000000
vt 0.50000000 0.50000000
vt 0.50000000 0.50000000
vt 0.50000000 0.50000000
vt 0.50000000 0.50000000
vt 0.50000000 0.50000000
vt 0.50000000 0.50000000
vt 0.50000000 0.50000000
vt 0.50000000 0.50000000
vt 0.50000000 0.50000000
vt 0.50000000 0.50000000
vt 0.50000000 0.50000000
vt 0.50000000 0.50000000
vt 0.50000000 0.50000000
vt 0.50000000 0.50000000
vt 0.50000000 0.50000000
vt 0.50000000 0.50000000
vt 0.50000000 0.50000000
vt 0.50000000 0.50000000
vt 0.50000000 0.50000000
vt 0.50000000 0.50000000
vt 0.50000000 0.50000000
vt 0.50000000 0.50000000
vt 0.50000000 0.50000000
vt 0.50000000 0.50000000
vt 0.50000000 0.50000000
vt 0.50000000 0.50000000
vt 0.50000000 0.50000000
vt 0.50000000 0.50000000
vt 0.50000000 0.50000000
vt 0.50000000 0.50000000
vt 0.50000000 0.50000000
vt 0.50000000 0.50000000
vt 0.50000000 0.50000000
vt 0.50000000 0.50000000
vt 0.50000000 0.50000000
vt 0.50000000 0.50000000
vt 0.50000000 0.50000000
vt 0.50000000 0.50000000
vt 0.50000000 0.50000000
vt 0.50000000 0.50000000
vt 0.50000000 0.50000000
vt 0.50000000 0.50000000
vt 0.50000000 0.50000000
vt 0.50000000 0.50000000
vt 0.50000000 0.50000000
vt 0.50000000 0.50000000
vt 0.50000000 0.50000000
vt 0.50000000 0.50000000
f 1/1 2/2 3/3
f 1/1 4/4 5/5
f 6/6 7/7 5/5
f 6/6 8/8 9/9
f 5/5 2/2 1/1
f 9/9 7/7 6/6
f 8/8 10/10 11/11
f 10/10 12/12 13/13
f 12/12 14/14 15/15
f 16/16 17/17 15/15
f 18/18 19/19 20/20
f 19/19 21/21 22/22
f 23/23 24/24 22/22
f 25/25 26/26 24/24
f 5/5 4/4 6/6
f 13/13 11/11 10/10
f 15/15 14/14 16/16
f 27/27 28/28 17/17
f 18/18 29/29 30/30
f 22/22 20/20 19/19
f 24/24 23/23 25/25
f 25/25 31/31 3/3
f 11/11 9/9 8/8
f 17/17 16/16 27/27
f 27/27 32/32 30/30
f 20/20 29/29 18/18
f 3/3 26/26 25/25
f 15/15 13/13 12/12
f 30/30 32/32 18/18
f 3/3 31/31 1/1
f 22/22 21/21 23/23
f 30/30 28/28 27/27
f 33/33 34/34 35/35
f 36/36 33/33 37/37
f 38/38 36/36 39/39
f 40/40 38/38 41/41
f 42/42 40/40 43/43
f 44/44 42/42 45/45
f 46/46 44/44 47/47
f 48/48 46/46 49/49
f 50/50 48/48 51/51
f 52/52 50/50 53/53
f 54/54 52/52 55/55
f 56/56 54/54 57/57
f 58/58 56/56 59/59
f 60/60 58/58 61/61
f 62/62 60/60 63/63
f 34/34 62/62 64/64
f 64/64 35/35 34/34
f 63/63 64/64 62/62
f 61/61 63/63 60/60
f 59/59 61/61 58/58
f 57/57 59/59 56/56
f 55/55 57/57 54/54
f 53/53 55/55 52/52
f 51/51 53/53 50/50
f 49/49 51/51 48/48
f 47/47 49/49 46/46
f 45/45 47/47 44/44
f 43/43 45/45 42/42
f 41/41 43/43 40/40
f 39/39 41/41 38/38
f 37/37 39/39 36/36
f 35/35 37/37 33/33
f 65/65 66/66 67/67
f 68/68 65/65 69/69
f 70/70 68/68 71/71
f 72/72 70/70 73/73
f 74/74 72/72 75/75
f 76/76 74/74 77/77
f 78/78 76/76 79/79
f 80/80 78/78 81/81
f 82/82 80/80 83/83
f 84/84 82/82 85/85
f 86/86 84/84 87/87
f 88/88 86/86 89/89
f 90/90 88/88 91/91
f 92/92 90/90 93/93
f 94/94 92/92 95/95
f 66/66 94/94 96/96
f 96/96 67/67 66/66
f 95/95 96/96 94/94
f 93/93 95/95 92/92
f 91/91 93/93 90/90
f 89/89 91/91 88/88
f 87/87 89/89 86/86
f 85/85 87/87 84/84
f 83/83 85/85 82/82
f 81/81 83/83 80/80
f 79/79 81/81 78/78
f 77/77 79/79 76/76
f 75/75 77/77 74/74
f 73/73 75/75 72/72
f 71/71 73/73 70/70
f 69/69 71/71 68/68
f 67/67 69/69 65/65
f 97/97 98/98 99/99
f 97/97 100/100 101/101
f 102/102 103/103 104/104
f 102/102 105/105 106/106
f 105/105 107/107 108/108
f 109/109 110/110 107/107
f 101/101 98/98 97/97
f 97/97 102/102 111/111
f 106/106 103/103 102/102
f 105/105 112/112 113/113
f 107/107 105/105 109/109
f 109/109 99/99 114/114
f 111/111 100/100 97/97
f 104/104 115/115 102/102
f 108/108 112/112 105/105
f 114/114 116/116 109/109
f 115/115 111/111 102/102
f 116/116 110/110 109/109
f 113/113 106/106 105/105
f 105/105 117/117 118/118
f 109/109 119/119 120/120
f 97/97 109/109 121/121
f 119/119 122/122 120/120
f 119/119 123/123 124/124
f 97/97 125/125 126/126
f 109/109 127/127 121/121
f 109/109 128/128 129/129
f 124/124 122/122 119/119
f 130/130 126/126 131/131
f 97/97 132/132 125/125
f 129/129 127/127 109/109
f 119/119 133/133 123/123
f 130/130 134/134 133/133
f 131/131 135/135 130/130
f 97/97 136/136 132/132
f 120/120 128/128 109/109
f 135/135 134/134 130/130
f 121/121 136/136 97/97
f 126/126 130/130 97/97
f 109/109 118/118 137/137
f 138/138 119/119 139/139
f 138/138 140/140 141/141
f 139/139 142/142 138/138
f 119/119 143/143 144/144
f 142/142 140/140 138/138
f 119/119 145/145 143/143
f 119/119 137/137 146/146
f 147/147 148/148 149/149
f 144/144 139/139 119/119
f 137/137 150/150 146/146
f 149/149 137/137 147/147
f 147/147 151/151 152/152
f 146/146 145/145 119/119
f 137/137 153/153 154/154
f 152/152 148/148 147/147
f 147/147 138/138 155/155
f 154/154 150/150 137/137
f 155/155 151/151 147/147
f 149/149 153/153 137/137
f 117/117 156/156 157/157
f 117/117 158/158 156/156
f 159/159 118/118 160/160
f 118/118 161/161 162/162
f 118/118 117/117 163/163
f 164/164 165/165 166/166
f 167/167 168/168 164/164
f 160/160 169/169 159/159
f 162/162 170/170 118/118
f 117/117 171/171 163/163
f 117/117 172/172 173/173
f 164/164 174/174 165/165
f 164/164 175/175 167/167
f 159/159 176/176 167/167
f 169/169 177/177 159/159
f 163/163 161/161 118/118
f 117/117 166/166 172/172
f 168/168 174/174 164/164
f 177/177 176/176 159/159
f 173/173 171/171 117/117
f 167/167 175/175 159/159
f 166/166 117/117 164/164
f 159/159 178/178 179/179
f 179/179 178/178 180/180
f 180/180 181/181 179/179
f 180/180 182/182 181/181
f 159/159 183/183 184/184
f 159/159 185/185 186/186
f 180/180 187/187 182/182
f 118/118 188/188 189/189
f 184/184 118/118 159/159
f 179/179 185/185 159/159
f 137/137 190/190 191/191
f 118/118 192/192 188/188
f 186/186 183/183 159/159
f 180/180 137/137 193/193
f 137/137 189/189 190/190
f 118/118 194/194 192/192
f 193/193 187/187 180/180
f 191/191 195/195 137/137
f 184/184 194/194 118/118
f 189/189 137/137 118/118
f 137/137 196/196 197/197
f 137/137 180/180 196/196
f 147/147 197/197 198/198
f 147/147 199/199 200/200
f 200/200 138/138 147/147
f 138/138 201/201 202/202
f 119/119 203/203 204/204
f 119/119 138/138 205/205
f 205/205 203/203 119/119
f 97/97 130/130 206/206
f 130/130 207/207 206/206
f 97/97 208/208 209/209
f 209/209 102/102 97/97
f 105/105 102/102 210/210
f 210/210 211/211 105/105
f 211/211 212/212 105/105
f 158/158 213/213 214/214
f 117/117 215/215 213/213
f 105/105 216/216 217/217
f 216/216 218/218 219/219
f 220/220 221/221 218/218
f 220/220 158/158 222/222
f 213/213 158/158 117/117
f 117/117 223/223 224/224
f 105/105 225/225 226/226
f 219/219 217/217 216/216
f 222/222 221/221 220/220
f 224/224 215/215 117/117
f 117/117 105/105 227/227
f 105/105 228/228 225/225
f 217/217 229/229 105/105
f 214/214 222/222 158/158
f 227/227 230/230 117/117
f 229/229 228/228 105/105
f 230/230 223/223 117/117
f 218/218 216/216 220/220
f 226/226 227/227 105/105
f 212/212 216/216 105/105
f 210/210 102/102 231/231
f 209/209 231/231 102/102
f 206/206 208/208 97/97
f 207/207 130/130 204/204
f 204/204 130/130 119/119
f 202/202 205/205 138/138
f 200/200 201/201 138/138
f 198/198 199/199 147/147
f 197/197 147/147 137/137
f 195/195 193/193 137/137
f 170/170 160/160 118/118
f 157/157 164/164 117/117
f 141/141 155/155 138/138
f 137/137 119/119 109/109
f 133/133 119/119 130/130
f 118/118 109/109 105/105
f 99/99 109/109 97/97
f 232/232 233/233 234/234
f 235/235 232/232 236/236
f 237/237 235/235 238/238
f 239/239 237/237 240/240
f 241/241 239/239 242/242
f 243/243 241/241 244/244
f 245/245 243/243 246/246
f 247/247 245/245 248/248
f 249/249 247/247 250/250
f 251/251 249/249 252/252
f 253/253 251/251 254/254
f 255/255 253/253 256/256
f 257/257 255/255 258/258
f 259/259 257/257 260/260
f 261/261 259/259 262/262
f 233/233 261/261 263/263
f 263/263 234/234 233/233
f 262/262 263/263 261/261
f 260/260 262/262 259/259
f 258/258 260/260 257/257
f 256/256 258/258 255/255
f 254/254 256/256 253/253
f 252/252 254/254 251/251
f 250/250 252/252 249/249
f 248/248 250/250 247/247
f 246/246 248/248 245/245
f 244/244 246/246 243/243
f 242/242 244/244 241/241
f 240/240 242/242 239/239
f 238/238 240/240 237/237
f 236/236 238/238 235/235
f 234/234 236/236 232/232
f 264/264 265/265 266/266
f 264/264 267/267 268/268
f 269/269 270/270 271/271
f 269/269 272/272 273/273
f 268/268 265/265 264/264
f 267/267 274/274 275/275
f 276/276 271/271 277/277
f 273/273 270/270 269/269
f 275/275 268/268 267/267
f 274/274 278/278 277/277
f 271/271 276/276 269/269
f 272/272 279/279 280/280
f 281/281 282/282 280/280
f 281/281 283/283 284/284
f 285/285 286/286 287/287
f 285/285 288/288 289/289
f 277/277 275/275 274/274
f 280/280 273/273 272/272
f 284/284 282/282 281/281
f 283/283 290/290 287/287
f 289/289 286/286 285/285
f 288/288 291/291 292/292
f 293/293 294/294 292/292
f 293/293 295/295 266/266
f 277/277 278/278 276/276
f 287/287 284/284 283/283
f 292/292 289/289 288/288
f 266/266 294/294 293/293
f 280/280 279/279 281/281
f 292/292 291/291 293/293
f 287/287 290/290 285/285
f 266/266 295/295 264/264
f 296/296 297/297 298/298
f 299/299 296/296 300/300
f 301/301 299/299 302/302
f 303/303 301/301 304/304
f 305/305 306/306 307/307
f 307/307 308/308 305/305
f 309/309 306/306 305/305
f 310/310 309/309 311/311
f 312/312 310/310 313/313
f 314/314 312/312 315/315
f 316/316 314/314 317/317
f 318/318 316/316 319/319
f 320/320 321/321 322/322
f 321/321 323/323 322/322
f 324/324 323/323 321/321
f 325/325 324/324 326/326
f 327/327 325/325 328/328
f 297/297 327/327 329/329
f 329/329 298/298 297/297
f 328/328 329/329 327/327
f 326/326 328/328 325/325
f 321/321 326/326 324/324
f 322/322 318/318 320/320
f 319/319 320/320 318/318
f 317/317 319/319 316/316
f 315/315 317/317 314/314
f 313/313 315/315 312/312
f 311/311 313/313 310/310
f 305/305 311/311 309/309
f 307/307 303/303 308/308
f 304/304 308/308 303/303
f 302/302 304/304 301/301
f 300/300 302/302 299/299
f 298/298 300/300 296/296
f 330/330 331/331 332/332
f 333/333 330/330 334/334
f 335/335 333/333 336/336
f 337/337 335/335 338/338
f 339/339 337/337 340/340
f 341/341 339/339 342/342
f 343/343 341/341 344/344
f 345/345 343/343 346/346
f 347/347 345/345 348/348
f 349/349 347/347 350/350
f 351/351 349/349 352/352
f 353/353 351/351 354/354
f 355/355 353/353 356/356
f 357/357 355/355 358/358
f 359/359 357/357 360/360
f 331/331 359/359 361/361
f 361/361 332/332 331/331
f 360/360 361/361 359/359
f 358/358 360/360 357/357
f 356/356 358/358 355/355
f 354/354 356/356 353/353
f 352/352 354/354 351/351
f 350/350 352/352 349/349
f 348/348 350/350 347/347
f 346/346 348/348 345/345
f 344/344 346/346 343/343
f 342/342 344/344 341/341
f 340/340 342/342 339/339
f 338/338 340/340 337/337
f 336/336 338/338 335/335
f 334/334 336/336 333/333
f 332/332 334/334 330/330
f 362/362 363/363 364/364
f 362/362 365/365 366/366
f 367/367 368/368 369/369
f 367/367 370/370 371/371
f 366/366 363/363 362/362
f 365/365 372/372 373/373
f 371/371 368/368 367/367
f 370/370 374/374 375/375
f 376/376 377/377 375/375
f 376/376 378/378 379/379
f 380/380 381/381 379/379
f 380/380 382/382 383/383
f 373/373 366/366 365/365
f 372/372 384/384 385/385
f 386/386 387/387 385/385
f 386/386 388/388 389/389
f 375/375 371/371 370/370
f 379/379 377/377 376/376
f 383/383 381/381 380/380
f 382/382 390/390 364/364
f 385/385 373/373 372/372
f 389/389 387/387 386/386
f 388/388 391/391 392/392
f 391/391 393/393 369/369
f 375/375 374/374 376/376
f 364/364 383/383 382/382
f 385/385 384/384 386/386
f 369/369 392/392 391/391
f 379/379 378/378 380/380
f 392/392 389/389 388/388
f 364/364 390/390 362/362
f 369/369 393/393 367/367
f 394/394 395/395 396/396
f 397/397 394/394 398/398
f 399/399 397/397 400/400
f 401/401 399/399 402/402
f 403/403 404/404 405/405
f 405/405 406/406 403/403
f 407/407 404/404 403/403
f 408/408 407/407 409/409
f 410/410 408/408 411/411
f 412/412 410/410 413/413
f 414/414 412/412 415/415
f 416/416 414/414 417/417
f 418/418 419/419 420/420
f 419/419 421/421 420/420
f 422/422 421/421 419/419
f 423/423 422/422 424/424
f 425/425 423/423 426/426
f 395/395 425/425 427/427
f 427/427 396/396 395/395
f 426/426 427/427 425/425
f 424/424 426/426 423/423
f 419/419 424/424 422/422
f 420/420 416/416 418/418
f 417/417 418/418 416/416
f 415/415 417/417 414/414
f 413/413 415/415 412/412
f 411/411 413/413 410/410
f 409/409 411/411 408/408
f 403/403 409/409 407/407
f 405/405 401/401 406/406
f 402/402 406/406 401/401
f 400/400 402/402 399/399
f 398/398 400/400 397/397
f 396/396 398/398 394/394
f 428/428 429/429 430/430
f 431/431 428/428 432/432
f 433/433 431/431 434/434
f 435/435 436/436 437/437
f 436/436 438/438 437/437
f 439/439 438/438 436/436
f 440/440 439/439 441/441
f 442/442 440/440 443/443
f 444/444 442/442 445/445
f 446/446 444/444 447/447
f 448/448 446/446 449/449
f 450/450 448/448 451/451
f 452/452 450/450 453/453
f 454/454 455/455 456/456
f 456/456 457/457 454/454
f 458/458 455/455 454/454
f 459/459 458/458 460/460
f 429/429 459/459 461/461
f 461/461 430/430 429/429
f 460/460 461/461 459/459
f 454/454 460/460 458/458
f 456/456 452/452 457/457
f 453/453 457/457 452/452
f 451/451 453/453 450/450
f 449/449 451/451 448/448
f 447/447 449/449 446/446
f 445/445 447/447 444/444
f 443/443 445/445 442/442
f 441/441 443/443 440/440
f 436/436 441/441 439/439
f 437/437 433/433 435/435
f 434/434 435/435 433/433
f 432/432 434/434 431/431
f 430/430 432/432 428/428
f 462/462 463/463 464/464
f 465/465 462/462 466/466
f 467/467 465/465 468/468
f 469/469 467/467 470/470
f 471/471 472/472 473/473
f 473/473 474/474 471/471
f 475/475 472/472 471/471
f 476/476 475/475 477/477
f 478/478 476/476 479/479
f 480/480 478/478 481/481
f 482/482 480/480 483/483
f 484/484 482/482 485/485
f 486/486 487/487 488/488
f 487/487 489/489 488/488
f 490/490 489/489 487/487
f 491/491 490/490 492/492
f 493/493 491/491 494/494
f 463/463 493/493 495/495
f 495/495 464/464 463/463
f 494/494 495/495 493/493
f 492/492 494/494 491/491
f 487/487 492/492 490/490
f 488/488 484/484 486/486
f 485/485 486/486 484/484
f 483/483 485/485 482/482
f 481/481 483/483 480/480
f 479/479 481/481 478/478
f 477/477 479/479 476/476
f 471/471 477/477 475/475
f 473/473 469/469 474/474
f 470/470 474/474 469/469
f 468/468 470/470 467/467
f 466/466 468/468 465/465
f 464/464 466/466 462/462
f 496/496 497/497 498/498
f 499/499 500/500 501/501
f 501/501 498/498 499/499
f 502/502 503/503 504/504
f 504/504 496/496 502/502
f 505/505 506/506 507/507
f 508/508 509/509 510/510
f 510/510 507/507 508/508
f 503/503 502/502 509/509
f 509/509 508/508 503/503
f 506/506 505/505 511/511
f 512/512 511/511 513/513
f 513/513 514/514 512/512
f 515/515 516/516 517/517
f 516/516 518/518 519/519
f 519/519 517/517 516/516
f 520/520 519/519 518/518
f 518/518 514/514 520/520
f 515/515 521/521 522/522
f 523/523 524/524 525/525
f 522/522 525/525 524/524
f 524/524 526/526 522/522
f 527/527 528/528 529/529
f 523/523 530/530 531/531
f 531/531 529/529 523/523
f 528/528 527/527 532/532
f 533/533 534/534 535/535
f 536/536 537/537 533/533
f 534/534 532/532 535/535
f 538/538 537/537 539/539
f 537/537 536/536 539/539
f 538/538 540/540 541/541
f 542/542 541/541 543/543
f 543/543 544/544 542/542
f 542/542 545/545 541/541
f 546/546 547/547 548/548
f 547/547 549/549 548/548
f 499/499 550/550 551/551
f 547/547 551/551 550/550
f 550/550 549/549 547/547
f 551/551 500/500 499/499
f 548/548 544/544 546/546
f 543/543 546/546 544/544
f 541/541 545/545 538/538
f 539/539 540/540 538/538
f 535/535 536/536 533/533
f 532/532 534/534 528/528
f 529/529 531/531 527/527
f 525/525 530/530 523/523
f 522/522 526/526 515/515
f 517/517 521/521 515/515
f 513/513 520/520 514/514
f 511/511 512/512 506/506
f 507/507 510/510 505/505
f 504/504 497/497 496/496
f 498/498 501/501 496/496
f 552/552 553/553 554/554
f 552/552 555/555 556/556
f 552/552 557/557 558/558
f 556/556 559/559 552/552
f 560/560 558/558 561/561
f 559/559 557/557 552/552
f 555/555 562/562 563/563
f 558/558 560/560 552/552
f 555/555 564/564 565/565
f 562/562 566/566 563/563
f 565/565 556/556 555/555
f 562/562 567/567 566/566
f 563/563 564/564 555/555
f 554/554 568/568 569/569
f 553/553 570/570 571/571
f 553/553 572/572 573/573
f 554/554 574/574 568/568
f 571/571 554/554 553/553
f 573/573 575/575 553/553
f 571/571 574/574 554/554
f 572/572 576/576 573/573
f 575/575 570/570 553/553
f 577/577 569/569 578/578
f 572/572 579/579 576/576
f 569/569 577/577 554/554
f 580/580 553/553 581/581
f 553/553 582/582 581/581
f 580/580 583/583 584/584
f 553/553 585/585 582/582
f 552/552 586/586 587/587
f 581/581 583/583 580/580
f 587/587 553/553 552/552
f 588/588 580/580 589/589
f 587/587 585/585 553/553
f 584/584 589/589 580/580
f 560/560 590/590 591/591
f 560/560 592/592 590/590
f 552/552 560/560 593/593
f 560/560 594/594 595/595
f 560/560 596/596 593/593
f 594/594 597/597 595/595
f 598/598 599/599 600/600
f 588/588 601/601 599/599
f 593/593 602/602 552/552
f 595/595 603/603 560/560
f 600/600 594/594 598/598
f 588/588 604/604 601/601
f 603/603 596/596 560/560
f 599/599 598/598 588/588
f 600/600 597/597 594/594
f 588/588 598/598 605/605
f 580/580 588/588 606/606
f 580/580 607/607 608/608
f 572/572 609/609 610/610
f 572/572 553/553 611/611
f 580/580 612/612 613/613
f 580/580 614/614 615/615
f 580/580 616/616 617/617
f 572/572 618/618 609/609
f 611/611 619/619 572/572
f 615/615 612/612 580/580
f 616/616 620/620 617/617
f 616/616 621/621 622/622
f 621/621 610/610 623/623
f 619/619 618/618 572/572
f 553/553 624/624 625/625
f 617/617 614/614 580/580
f 623/623 622/622 621/621
f 625/625 611/611 553/553
f 553/553 613/613 626/626
f 622/622 620/620 616/616
f 626/626 624/624 553/553
f 610/610 621/621 572/572
f 572/572 627/627 628/628
f 572/572 621/621 627/627
f 629/629 630/630 631/631
f 631/631 572/572 629/629
f 632/632 633/633 634/634
f 632/632 635/635 636/636
f 635/635 577/577 637/637
f 629/629 634/634 630/630
f 636/636 633/633 632/632
f 637/637 638/638 635/635
f 634/634 629/629 632/632
f 577/577 639/639 637/637
f 638/638 636/636 635/635
f 577/577 635/635 640/640
f 640/640 641/641 577/577
f 554/554 642/642 643/643
f 577/577 644/644 645/645
f 646/646 647/647 648/648
f 646/646 649/649 650/650
f 643/643 651/651 554/554
f 645/645 554/554 577/577
f 577/577 652/652 653/653
f 577/577 646/646 654/654
f 650/650 647/647 646/646
f 655/655 656/656 657/657
f 645/645 642/642 554/554
f 654/654 652/652 577/577
f 649/649 657/657 650/650
f 655/655 658/658 656/656
f 653/653 644/644 577/577
f 657/657 649/649 655/655
f 655/655 554/554 659/659
f 648/648 654/654 646/646
f 659/659 660/660 655/655
f 660/660 658/658 655/655
f 655/655 661/661 662/662
f 554/554 663/663 664/664
f 662/662 554/554 655/655
f 662/662 663/663 554/554
f 555/555 554/554 665/665
f 655/655 666/666 661/661
f 667/667 668/668 669/669
f 664/664 665/665 554/554
f 669/669 655/655 667/667
f 669/669 666/666 655/655
f 670/670 671/671 672/672
f 562/562 673/673 674/674
f 672/672 667/667 670/670
f 675/675 676/676 671/671
f 674/674 675/675 562/562
f 555/555 677/677 678/678
f 671/671 670/670 675/675
f 674/674 679/679 675/675
f 562/562 678/678 680/680
f 555/555 681/681 677/677
f 679/679 676/676 675/675
f 678/678 562/562 555/555
f 680/680 673/673 562/562
f 562/562 675/675 682/682
f 682/682 683/683 562/562
f 684/684 685/685 686/686
f 686/686 562/562 684/684
f 687/687 688/688 689/689
f 687/687 592/592 690/690
f 592/592 560/560 691/691
f 684/684 689/689 685/685
f 690/690 688/688 687/687
f 691/691 692/692 592/592
f 689/689 684/684 687/687
f 560/560 693/693 691/691
f 692/692 690/690 592/592
f 686/686 567/567 562/562
f 683/683 684/684 562/562
f 672/672 668/668 667/667
f 665/665 681/681 555/555
f 651/651 659/659 554/554
f 641/641 646/646 577/577
f 631/631 579/579 572/572
f 628/628 629/629 572/572
f 613/613 553/553 580/580
f 608/608 616/616 580/580
f 606/606 607/607 580/580
f 605/605 606/606 588/588
f 602/602 586/586 552/552
f 591/591 594/594 560/560
f 589/589 604/604 588/588
f 578/578 639/639 577/577
f 561/561 693/693 560/560
f 554/554 555/555 552/552
f 694/694 695/695 696/696
f 697/697 694/694 698/698
f 699/699 697/697 700/700
f 701/701 699/699 702/702
f 703/703 701/701 704/704
f 705/705 703/703 706/706
f 707/707 705/705 708/708
f 709/709 707/707 710/710
f 711/711 709/709 712/712
f 713/713 711/711 714/714
f 715/715 713/713 716/716
f 717/717 715/715 718/718
f 719/719 717/717 720/720
f 721/721 719/719 722/722
f 723/723 721/721 724/724
f 695/695 723/723 725/725
f 725/725 696/696 695/695
f 724/724 725/725 723/723
f 722/722 724/724 721/721
f 720/720 722/722 719/719
f 718/718 720/720 717/717
f 716/716 718/718 715/715
f 714/714 716/716 713/713
f 712/712 714/714 711/711
f 710/710 712/712 709/709
f 708/708 710/710 707/707
f 706/706 708/708 705/705
f 704/704 706/706 703/703
f 702/702 704/704 701/701
f 700/700 702/702 699/699
f 698/698 700/700 697/697
f 696/696 698/698 694/694
f 726/726 727/727 728/728
f 727/727 729/729 730/730
f 730/730 728/728 727/727
f 729/729 731/731 732/732
f 726/726 733/733 734/734
f 732/732 730/730 729/729
f 728/728 733/733 726/726
f 731/731 735/735 736/736
f 737/737 738/738 739/739
f 737/737 740/740 734/734
f 736/736 732/732 731/731
f 741/741 742/742 736/736
f 743/743 744/744 745/745
f 743/743 746/746 747/747
f 748/748 749/749 750/750
f 751/751 752/752 749/749
f 734/734 738/738 737/737
f 736/736 735/735 741/741
f 747/747 744/744 743/743
f 746/746 753/753 750/750
f 749/749 748/748 751/751
f 751/751 754/754 739/739
f 734/734 740/740 726/726
f 755/755 756/756 742/742
f 755/755 757/757 745/745
f 750/750 747/747 746/746
f 739/739 752/752 751/751
f 742/742 741/741 755/755
f 745/745 757/757 743/743
f 739/739 754/754 737/737
f 750/750 753/753 748/748
f 745/745 756/756 755/755
f 758/758 759/759 760/760
f 761/761 758/758 762/762
f 763/763 761/761 764/764
f 765/765 763/763 766/766
f 767/767 765/765 768/768
f 769/769 767/767 770/770
f 771/771 769/769 772/772
f 773/773 771/771 774/774
f 775/775 773/773 776/776
f 777/777 775/775 778/778
f 779/779 777/777 780/780
f 781/781 779/779 782/782
f 783/783 781/781 784/784
f 785/785 783/783 786/786
f 787/787 785/785 788/788
f 759/759 787/787 789/789
f 789/789 760/760 759/759
f 788/788 789/789 787/787
f 786/786 788/788 785/785
f 784/784 786/786 783/783
f 782/782 784/784 781/781
f 780/780 782/782 779/779
f 778/778 780/780 777/777
f 776/776 778/778 775/775
f 774/774 776/776 773/773
f 772/772 774/774 771/771
f 770/770 772/772 769/769
f 768/768 770/770 767/767
f 766/766 768/768 765/765
f 764/764 766/766 763/763
f 762/762 764/764 761/761
f 760/760 762/762 758/758

