# https://github.com/mikedh/trimesh
mtllib material.mtl
usemtl 0.910000_0.910000_0.910000_0.000000_0.000000
v 0.00898282 0.04468310 -0.04572320
v 0.00930485 0.04443620 -0.04572320
v 0.00920229 0.04434254 -0.04558431
v 0.00860246 0.04480242 -0.04572320
v 0.00891900 0.04455974 -0.04558431
v 0.00951882 0.04409985 -0.04572320
v 0.00906064 0.04445114 -0.04452321
v 0.00883924 0.04462089 -0.04455806
v 0.00891900 0.04455974 -0.04558431
v 0.00951882 0.04409985 -0.04459534
v 0.00916834 0.04436857 -0.04454016
v 0.00920229 0.04434254 -0.04558431
v 0.00860246 0.04480242 -0.04459534
v 0.00860246 0.04480242 -0.04572320
v 0.00951882 0.04409985 -0.04572320
v 0.00845101 0.04665754 -0.04572320
v 0.00860246 0.04480242 -0.04572320
v 0.00820419 0.04478529 -0.04572320
v 0.00959915 0.04642964 -0.04572320
v 0.00898282 0.04468310 -0.04572320
v 0.00568101 0.04250840 -0.04572320
v 0.00738557 0.04321524 -0.04572320
v 0.00760117 0.04287710 -0.04572320
v 0.00545219 0.04365636 -0.04572320
v 0.00729872 0.04360430 -0.04572320
v 0.00568010 0.04480450 -0.04572320
v 0.00633004 0.04577802 -0.04572320
v 0.00753583 0.04436012 -0.04572320
v 0.00730305 0.04642873 -0.04572320
v 0.00782935 0.04462986 -0.04572320
v 0.01122338 0.04480669 -0.04572320
v 0.00951882 0.04409985 -0.04572320
v 0.00930485 0.04443620 -0.04572320
v 0.01145219 0.04365873 -0.04572320
v 0.00960567 0.04371078 -0.04572320
v 0.01122429 0.04251059 -0.04572320
v 0.01057435 0.04153706 -0.04572320
v 0.00936856 0.04295497 -0.04572320
v 0.00960134 0.04088636 -0.04572320
v 0.00907504 0.04268523 -0.04572320
v 0.00845338 0.04065754 -0.04572320
v 0.00830193 0.04251266 -0.04572320
v 0.00870020 0.04252979 -0.04572320
v 0.00730524 0.04088545 -0.04572320
v 0.00791942 0.04263310 -0.04572320
v 0.00633171 0.04153538 -0.04572320
v 0.01057268 0.04577970 -0.04572320
v 0.00735153 0.04400664 -0.04572320
v 0.00955286 0.04330845 -0.04572320
v 0.00820419 0.04478529 -0.04572320
v 0.00823402 0.04464964 -0.04558431
v 0.00790427 0.04451290 -0.04558431
v 0.00753583 0.04436012 -0.04572320
v 0.00782935 0.04462986 -0.04572320
v 0.00860246 0.04480242 -0.04572320
v 0.00806909 0.04458125 -0.04455731
v 0.00766799 0.04441492 -0.04458592
v 0.00790427 0.04451290 -0.04558431
v 0.00823402 0.04464964 -0.04558431
v 0.00845632 0.04474182 -0.04456687
v 0.00831666 0.04468391 -0.04453965
v 0.00753583 0.04436012 -0.04572320
v 0.00860246 0.04480242 -0.04572320
v 0.00860246 0.04480242 -0.04459534
v 0.00753583 0.04436012 -0.04459534
v 0.00729872 0.04360430 -0.04572320
v 0.00735153 0.04400664 -0.04572320
v 0.00748393 0.04396465 -0.04558431
v 0.00738557 0.04321524 -0.04572320
v 0.00743747 0.04361071 -0.04558431
v 0.00753583 0.04436012 -0.04572320
v 0.00748393 0.04396465 -0.04558431
v 0.00747783 0.04391821 -0.04452723
v 0.00744256 0.04364947 -0.04455327
v 0.00753583 0.04436012 -0.04459534
v 0.00749633 0.04405915 -0.04454895
v 0.00743747 0.04361071 -0.04558431
v 0.00738557 0.04321524 -0.04459534
v 0.00738557 0.04321524 -0.04572320
v 0.00753583 0.04436012 -0.04572320
v 0.00870020 0.04252979 -0.04572320
v 0.00867037 0.04266544 -0.04558431
v 0.00900012 0.04280218 -0.04558431
v 0.00936856 0.04295497 -0.04572320
v 0.00907504 0.04268523 -0.04572320
v 0.00830193 0.04251266 -0.04572320
v 0.00883530 0.04273384 -0.04455731
v 0.00923640 0.04290016 -0.04458592
v 0.00900012 0.04280218 -0.04558431
v 0.00867037 0.04266544 -0.04558431
v 0.00844807 0.04257326 -0.04456687
v 0.00858773 0.04263118 -0.04453965
v 0.00936856 0.04295497 -0.04572320
v 0.00830193 0.04251266 -0.04572320
v 0.00830193 0.04251266 -0.04459534
v 0.00936856 0.04295497 -0.04459534
v 0.00795486 0.04277876 -0.04557839
v 0.00773605 0.04294652 -0.04454016
v 0.00784375 0.04286395 -0.04452321
v 0.00763585 0.04302334 -0.04560277
v 0.00738557 0.04321524 -0.04459534
v 0.00806515 0.04269420 -0.04455806
v 0.00830193 0.04251266 -0.04459534
v 0.00830193 0.04251266 -0.04572320
v 0.00738557 0.04321524 -0.04572320
v 0.00845219 0.04365755 -0.04405690
v 0.00806909 0.04458125 -0.04455731
v 0.00831666 0.04468391 -0.04453965
v 0.00845219 0.04365755 -0.04405690
v 0.00845632 0.04474182 -0.04456687
v 0.00860246 0.04480242 -0.04459534
v 0.00845219 0.04365755 -0.04405690
v 0.00883924 0.04462089 -0.04455806
v 0.00906064 0.04445114 -0.04452321
v 0.00845219 0.04365755 -0.04405690
v 0.00946183 0.04366562 -0.04455327
v 0.00942656 0.04339688 -0.04452723
v 0.00845219 0.04365755 -0.04405690
v 0.00940806 0.04325593 -0.04454895
v 0.00936856 0.04295497 -0.04459534
v 0.00845219 0.04365755 -0.04405690
v 0.00883530 0.04273384 -0.04455731
v 0.00858773 0.04263118 -0.04453965
v 0.00845219 0.04365755 -0.04405690
v 0.00844807 0.04257326 -0.04456687
v 0.00830193 0.04251266 -0.04459534
v 0.00845219 0.04365755 -0.04405690
v 0.00806515 0.04269420 -0.04455806
v 0.00784375 0.04286395 -0.04452321
v 0.00845219 0.04365755 -0.04405690
v 0.00744256 0.04364947 -0.04455327
v 0.00747783 0.04391821 -0.04452723
v 0.00845219 0.04365755 -0.04405690
v 0.00749633 0.04405915 -0.04454895
v 0.00753583 0.04436012 -0.04459534
v 0.00766799 0.04441492 -0.04458592
v 0.00845219 0.04365755 -0.04405690
v 0.00845219 0.04365755 -0.04405690
v 0.00845219 0.04365755 -0.04405690
v 0.00738557 0.04321524 -0.04459534
v 0.00845219 0.04365755 -0.04405690
v 0.00773605 0.04294652 -0.04454016
v 0.00845219 0.04365755 -0.04405690
v 0.00845219 0.04365755 -0.04405690
v 0.00845219 0.04365755 -0.04405690
v 0.00845219 0.04365755 -0.04405690
v 0.00923640 0.04290016 -0.04458592
v 0.00845219 0.04365755 -0.04405690
v 0.00845219 0.04365755 -0.04405690
v 0.00845219 0.04365755 -0.04405690
v 0.00951882 0.04409985 -0.04459534
v 0.00845219 0.04365755 -0.04405690
v 0.00916834 0.04436857 -0.04454016
v 0.00845219 0.04365755 -0.04405690
v 0.00845219 0.04365755 -0.04405690
v 0.00845219 0.04365755 -0.04405690
v 0.00845219 0.04365755 -0.04405690
v 0.00942046 0.04335044 -0.04558431
v 0.00942656 0.04339688 -0.04452723
v 0.00946183 0.04366562 -0.04455327
v 0.00936856 0.04295497 -0.04459534
v 0.00940806 0.04325593 -0.04454895
v 0.00946692 0.04370438 -0.04558431
v 0.00951882 0.04409985 -0.04459534
v 0.00951882 0.04409985 -0.04572320
v 0.00936856 0.04295497 -0.04572320
v 0.00960567 0.04371078 -0.04572320
v 0.00955286 0.04330845 -0.04572320
v 0.00942046 0.04335044 -0.04558431
v 0.00951882 0.04409985 -0.04572320
v 0.00946692 0.04370438 -0.04558431
v 0.00936856 0.04295497 -0.04572320
vt 0.50000000 0.50000000
vt 0.50000000 0.50000000
vt 0.50000000 0.50000000
vt 0.50000000 0.50000000
vt 0.50000000 0.50000000
vt 0.50000000 0.50000000
vt 0.50000000 0.50000000
vt 0.50000000 0.50000000
vt 0.50000000 0.50000000
vt 0.50000000 0.50000000
vt 0.50000000 0.50000000
vt 0.50000000 0.50000000
vt 0.50000000 0.50000000
vt 0.50000000 0.50000000
vt 0.50000000 0.50000000
vt 0.50000000 0.50000000
vt 0.50000000 0.50000000
vt 0.50000000 0.50000000
vt 0.50000000 0.50000000
vt 0.50000000 0.50000000
vt 0.50000000 0.50000000
vt 0.50000000 0.50000000
vt 0.50000000 0.50000000
vt 0.50000000 0.50000000
vt 0.50000000 0.50000000
vt 0.50000000 0.50000000
vt 0.50000000 0.50000000
vt 0.50000000 0.50000000
vt 0.50000000 0.50000000
vt 0.50000000 0.50000000
vt 0.50000000 0.50000000
vt 0.50000000 0.50000000
vt 0.50000000 0.50000000
vt 0.50000000 0.50000000
vt 0.50000000 0.50000000
vt 0.50000000 0.50000000
vt 0.50000000 0.50000000
vt 0.50000000 0.50000000
vt 0.50000000 0.50000000
vt 0.50000000 0.50000000
vt 0.50000000 0.50000000
vt 0.50000000 0.50000000
vt 0.50000000 0.50000000
vt 0.50000000 0.50000000
vt 0.50000000 0.50000000
vt 0.50000000 0.50000000
vt 0.50000000 0.50000000
vt 0.50000000 0.50000000
vt 0.50000000 0.50000000
vt 0.50000000 0.50000000
vt 0.50000000 0.50000000
vt 0.50000000 0.50000000
vt 0.50000000 0.50000000
vt 0.50000000 0.50000000
vt 0.50000000 0.50000000
vt 0.50000000 0.50000000
vt 0.50000000 0.50000000
vt 0.50000000 0.50000000
vt 0.50000000 0.50000000
vt 0.50000000 0.50000000
vt 0.50000000 0.50000000
vt 0.50000000 0.50000000
vt 0.50000000 0.50000000
vt 0.50000000 0.50000000
vt 0.50000000 0.50000000
vt 0.50000000 0.50000000
vt 0.50000000 0.50000000
vt 0.50000000 0.50000000
vt 0.50000000 0.50000000
vt 0.50000000 0.50000000
vt 0.50000000 0.50000000
vt 0.50000000 0.50000000
vt 0.50000000 0.50000000
vt 0.50000000 0.50000000
vt 0.50000000 0.50000000
vt 0.50000000 0.50000000
vt 0.50000000 0.50000000
vt 0.50000000 0.50000000
vt 0.50000000 0.50000000
vt 0.50000000 0.50000000
vt 0.50000000 0.50000000
vt 0.50000000 0.50000000
vt 0.50000000 0.50000000
vt 0.50000000 0.50000000
vt 0.50000000 0.50000000
vt 0.50000000 0.50000000
vt 0.50000000 0.50000000
vt 0.50000000 0.50000000
vt 0.50000000 0.50000000
vt 0.50000000 0.50000000
vt 0.50000000 0.50000000
vt 0.50000000 0.50000000
vt 0.50000000 0.50000000
vt 0.50000000 0.50000000
vt 0.50000000 0.50000000
vt 0.50000000 0.50000000
vt 0.50000000 0.50000000
vt 0.50000000 0.50000000
vt 0.50000000 0.50000000
vt 0.50000000 0.50000000
vt 0.50000000 0.50000000
vt 0.50000000 0.50000000
vt 0.50000000 0.50000000
vt 0.50000000 0.50000000
vt 0.50000000 0.50000000
vt 0.50000000 0.50000000
vt 0.50000000 0.50000000
vt 0.50000000 0.50000000
vt 0.50000000 0.50000000
vt 0.50000000 0.50000000
vt 0.50000000 0.50000000
vt 0.50000000 0.50000000
vt 0.50000000 0.50000000
vt 0.50000000 0.50000000
vt 0.50000000 0.50000000
vt 0.50000000 0.50000000
vt 0.50000000 0.50000000
vt 0.50000000 0.50000000
vt 0.50000000 0.50000000
vt 0.50000000 0.50000000
vt 0.50000000 0.50000000
vt 0.50000000 0.50000000
vt 0.50000000 0.50000000
vt 0.50000000 0.50000000
vt 0.50000000 0.50000000
vt 0.50000000 0.50000000
vt 0.50000000 0.50000000
vt 0.50000000 0.50000000
vt 0.50000000 0.50000000
vt 0.50000000 0.50000000
vt 0.50000000 0.50000000
vt 0.50000000 0.50000000
vt 0.50000000 0.50000000
vt 0.50000000 0.50000000
vt 0.50000000 0.50000000
vt 0.50000000 0.50000000
vt 0.50000000 0.50000000
vt 0.50000000 0.50000000
vt 0.50000000 0.50000000
vt 0.50000000 0.50000000
vt 0.50000000 0.50000000
vt 0.50000000 0.50000000
vt 0.50000000 0.50000000
vt 0.50000000 0.50000000
vt 0.50000000 0.50000000
vt 0.50000000 0.50000000
vt 0.50000000 0.50000000
vt 0.50000000 0.50000000
vt 0.50000000 0.50000000
vt 0.50000000 0.50000000
vt 0.50000000 0.50000000
vt 0.50000000 0.50000000
vt 0.50000000 0.50000000
vt 0.50000000 0.50000000
vt 0.50000000 0.50000000
vt 0.50000000 0.50000000
vt 0.50000000 0.50000000
vt 0.50000000 0.50000000
vt 0.50000000 0.50000000
vt 0.50000000 0.50000000
vt 0.50000000 0.50000000
vt 0.50000000 0.50000000
vt 0.50000000 0.50000000
vt 0.50000000 0.50000000
vt 0.50000000 0.50000000
vt 0.50000000 0.50000000
vt 0.50000000 0.50000000
vt 0.50000000 0.50000000
vt 0.50000000 0.50000000
vt 0.50000000 0.50000000
vt 0.50000000 0.50000000
vt 0.50000000 0.50000000
f 1/1 2/2 3/3
f 4/4 1/1 5/5
f 3/3 5/5 1/1
f 3/3 2/2 6/6
f 7/7 8/8 9/9
f 10/10 11/11 12/12
f 12/12 11/11 7/7
f 9/9 12/12 7/7
f 13/13 14/14 9/9
f 9/9 8/8 13/13
f 12/12 15/15 10/10
f 16/16 17/17 18/18
f 19/19 20/20 17/17
f 21/21 22/22 23/23
f 21/21 24/24 25/25
f 26/26 27/27 28/28
f 27/27 29/29 30/30
f 17/17 16/16 19/19
f 31/31 32/32 33/33
f 31/31 34/34 35/35
f 36/36 37/37 38/38
f 37/37 39/39 40/40
f 41/41 42/42 43/43
f 44/44 45/45 42/42
f 46/46 23/23 45/45
f 25/25 22/22 21/21
f 30/30 28/28 27/27
f 18/18 29/29 16/16
f 47/47 33/33 20/20
f 35/35 32/32 31/31
f 40/40 38/38 37/37
f 42/42 41/41 44/44
f 23/23 46/46 21/21
f 18/18 30/30 29/29
f 33/33 47/47 31/31
f 39/39 43/43 40/40
f 45/45 44/44 46/46
f 24/24 26/26 48/48
f 20/20 19/19 47/47
f 34/34 36/36 49/49
f 43/43 39/39 41/41
f 28/28 48/48 26/26
f 38/38 49/49 36/36
f 49/49 35/35 34/34
f 48/48 25/25 24/24
f 50/50 51/51 52/52
f 53/53 54/54 52/52
f 52/52 54/54 50/50
f 51/51 50/50 55/55
f 56/56 57/57 58/58
f 59/59 60/60 61/61
f 61/61 56/56 59/59
f 62/62 58/58 57/57
f 59/59 63/63 64/64
f 57/57 65/65 62/62
f 58/58 59/59 56/56
f 64/64 60/60 59/59
f 66/66 67/67 68/68
f 69/69 66/66 70/70
f 68/68 70/70 66/66
f 68/68 67/67 71/71
f 72/72 73/73 74/74
f 75/75 76/76 72/72
f 72/72 76/76 73/73
f 74/74 77/77 72/72
f 78/78 79/79 77/77
f 77/77 74/74 78/78
f 72/72 80/80 75/75
f 81/81 82/82 83/83
f 84/84 85/85 83/83
f 83/83 85/85 81/81
f 82/82 81/81 86/86
f 87/87 88/88 89/89
f 90/90 91/91 92/92
f 92/92 87/87 90/90
f 93/93 89/89 88/88
f 90/90 94/94 95/95
f 88/88 96/96 93/93
f 89/89 90/90 87/87
f 95/95 91/91 90/90
f 97/97 98/98 99/99
f 98/98 97/97 100/100
f 100/100 101/101 98/98
f 99/99 102/102 97/97
f 103/103 104/104 97/97
f 97/97 102/102 103/103
f 100/100 105/105 101/101
f 106/106 107/107 108/108
f 109/109 110/110 111/111
f 112/112 113/113 114/114
f 115/115 116/116 117/117
f 118/118 119/119 120/120
f 121/121 122/122 123/123
f 124/124 125/125 126/126
f 127/127 128/128 129/129
f 130/130 131/131 132/132
f 133/133 134/134 135/135
f 135/135 136/136 137/137
f 132/132 134/134 138/138
f 131/131 139/139 140/140
f 140/140 141/141 142/142
f 129/129 142/142 143/143
f 126/126 128/128 144/144
f 123/123 125/125 145/145
f 122/122 146/146 147/147
f 120/120 147/147 148/148
f 117/117 119/119 149/149
f 116/116 150/150 151/151
f 151/151 152/152 153/153
f 114/114 153/153 154/154
f 111/111 113/113 155/155
f 108/108 110/110 156/156
f 107/107 157/157 136/136
f 158/158 159/159 160/160
f 161/161 162/162 158/158
f 158/158 162/162 159/159
f 160/160 163/163 158/158
f 164/164 165/165 163/163
f 163/163 160/160 164/164
f 158/158 166/166 161/161
f 167/167 168/168 169/169
f 170/170 167/167 171/171
f 169/169 171/171 167/167
f 169/169 168/168 172/172

