# https://github.com/mikedh/trimesh
mtllib material.mtl

o mesh907_mesh
usemtl 0.910000_0.910000_0.910000_0.000000_0.000000
v 0.03116935 -0.01968445 0.00927685
v 0.03067086 -0.01870545 0.00927685
v 0.02711094 -0.02051810 0.00927685
v 0.02929501 -0.01600337 0.00927685
v 0.02573509 -0.01781602 0.00927685
v 0.02914177 -0.01570241 0.00927685
v 0.02558184 -0.01751506 0.00927685
v 0.00073336 -0.03518188 0.00927685
v 0.00023488 -0.03420288 0.00927685
v -0.00333617 -0.03602120 0.00927685
v -0.00135969 -0.03482534 0.00927685
v -0.00471202 -0.03331912 0.00927685
v -0.00305793 -0.03427295 0.00927685
v -0.00183394 -0.03495895 0.00927685
v -0.00289272 -0.03287959 0.00927685
v -0.00250570 -0.03257465 0.00927685
v -0.00319158 -0.03379871 0.00927685
v -0.00313357 -0.03330942 0.00927685
v -0.00275303 -0.03465999 0.00927685
v -0.00097268 -0.03452041 0.00927685
v -0.00114097 -0.03150081 0.00927685
v -0.00111236 -0.03274001 0.00927685
v -0.00080747 -0.03312705 0.00927685
v -0.00232322 -0.03490089 0.00927685
v -0.00067381 -0.03360129 0.00927685
v -0.00073183 -0.03409058 0.00927685
v -0.00203145 -0.03244105 0.00927685
v -0.00154217 -0.03249911 0.00927685
v -0.00129421 -0.03119984 0.00927685
v -0.00486526 -0.03301816 0.00927685
v -0.02660600 0.01851091 0.00927685
v -0.02713861 0.01955691 0.00927685
v -0.03070965 0.01773860 0.00927685
v -0.01151144 -0.03640227 0.00927685
v -0.02861884 0.01363237 0.00927685
v -0.03017705 0.01669260 0.00927685
v -0.03040712 0.01484973 0.00927685
v -0.03526502 0.01024827 0.00927685
v -0.03225608 0.01339290 0.00927685
v -0.03254583 0.01376073 0.00927685
v -0.03069687 0.01521755 0.00927685
v -0.03682323 0.01330849 0.00927685
v -0.03110534 0.01544649 0.00927685
v -0.03267285 0.01421142 0.00927685
v -0.03093192 0.01323576 0.00927685
v -0.03157032 0.01550167 0.00927685
v -0.03238882 0.01508490 0.00927685
v -0.03202103 0.01537469 0.00927685
v -0.03184761 0.01316397 0.00927685
v -0.03056412 0.01352556 0.00927685
v -0.03028010 0.01439904 0.00927685
v -0.03033523 0.01393405 0.00927685
v -0.03261772 0.01467641 0.00927685
v -0.03138262 0.01310879 0.00927685
v -0.03735583 0.01435449 0.00927685
v -0.03174835 -0.01657683 0.00927685
v -0.02884505 -0.01872071 0.00927685
v -0.02847725 -0.01843091 0.00927685
v -0.02494535 -0.02993749 0.00927685
v -0.02161002 -0.02823920 0.00927685
v -0.02738815 -0.02056984 0.00927685
v -0.02841301 -0.01487854 0.00927685
v -0.02686334 -0.01895588 0.00927685
v -0.02907394 -0.01912920 0.00927685
v -0.02783885 -0.02069682 0.00927685
v -0.02830383 -0.02064164 0.00927685
v -0.02702035 -0.02028005 0.00927685
v -0.02715310 -0.01858805 0.00927685
v -0.02802655 -0.01830394 0.00927685
v -0.02912907 -0.01959419 0.00927685
v -0.02871230 -0.02041270 0.00927685
v -0.02900206 -0.02004488 0.00927685
v -0.02673632 -0.01940657 0.00927685
v -0.02679146 -0.01987156 0.00927685
v -0.02756156 -0.01835912 0.00927685
v 0.03554607 0.00086361 0.00927685
v 0.03101864 0.00314828 0.00927685
v 0.03078219 0.00097558 0.00927685
v 0.02874307 0.01422427 0.00927685
v 0.02797154 0.01383142 0.00927685
v 0.02760998 -0.01269407 0.00927685
v 0.02530398 -0.01696936 0.00927685
v 0.02479300 -0.01791672 0.00927685
v 0.00105664 -0.03038182 0.00927685
v 0.00041642 -0.03032882 0.00927685
v -0.00183253 -0.03014262 0.00927685
v -0.00652735 -0.02975392 0.00927685
v -0.00864284 -0.02957878 0.00927685
v -0.00750090 -0.03176917 0.00927685
v -0.00662745 -0.03205328 0.00927685
v -0.00633769 -0.03242111 0.00927685
v -0.00795160 -0.03189614 0.00927685
v -0.00831940 -0.03218593 0.00927685
v -0.00854829 -0.03259442 0.00927685
v -0.01646224 -0.02561805 0.00927685
v -0.01689132 -0.02583653 0.00927685
v -0.00860342 -0.03305941 0.00927685
v -0.00686250 -0.03403507 0.00927685
v -0.00703591 -0.03182435 0.00927685
v -0.00649470 -0.03374528 0.00927685
v -0.00621067 -0.03287180 0.00927685
v -0.00626581 -0.03333679 0.00927685
v -0.00818665 -0.03387793 0.00927685
v -0.00847641 -0.03351010 0.00927685
v -0.00731320 -0.03416204 0.00927685
v -0.00777818 -0.03410687 0.00927685
v -0.02762018 -0.01530095 0.00927685
v -0.02762391 -0.01529984 0.00927685
v -0.02761264 -0.01529947 0.00927685
v -0.01934805 -0.02415631 0.00927685
v -0.02762710 -0.01529761 0.00927685
v -0.02761629 -0.01530082 0.00927685
v -0.02722186 -0.01510049 0.00927685
v -0.02762941 -0.01529448 0.00927685
v -0.01719035 -0.02524925 0.00927685
v -0.02946521 0.01131505 0.00927685
v -0.03137068 0.00260004 0.00927685
v -0.03082706 0.00287684 0.00927685
v -0.02780414 0.01404721 0.00927685
v -0.02591518 0.01715419 0.00927685
v -0.02441075 0.01962869 0.00927685
v -0.00026255 0.03324170 0.00927685
v -0.00197253 0.03171141 0.00927685
v -0.00095175 0.03157358 0.00927685
v -0.00459341 0.03103650 0.00927685
v 0.00382998 0.03400835 0.00927685
v 0.00027005 0.03219570 0.00927685
v 0.00070041 0.03135050 0.00927685
v 0.00503024 0.03076586 0.00927685
v 0.02692350 0.01779780 0.00927685
v 0.02106670 0.02930018 0.00927685
v 0.02033098 0.02413817 0.00927685
v 0.01732892 0.02739697 0.00927685
v 0.01843484 0.02522500 0.00927685
v 0.02575791 0.01720430 0.00927685
v 0.02772715 0.01468824 0.00927685
v 0.00329738 0.03505434 0.00927685
v 0.00292989 0.03480385 0.00927685
v 0.00224401 0.03357979 0.00927685
v 0.00287188 0.03431456 0.00927685
v 0.00176976 0.03344619 0.00927685
v 0.00263103 0.03388473 0.00927685
v 0.00291427 0.03485927 0.00927685
v 0.00085067 0.03374515 0.00927685
v 0.00128048 0.03350425 0.00927685
v 0.00222195 -0.03412053 0.00927685
v 0.00239253 -0.03433707 0.00927685
v 0.00209493 -0.03366984 0.00927685
v 0.01385987 -0.02726530 0.00927685
v 0.00331643 -0.03056892 0.00927685
v 0.00366244 -0.03243478 0.00927685
v 0.00319746 -0.03237959 0.00927685
v 0.00274675 -0.03250657 0.00927685
v 0.00237896 -0.03279636 0.00927685
v 0.00215006 -0.03320485 0.00927685
v 0.00214718 -0.03322918 0.00927685
v 0.00436067 -0.03303153 0.00927685
v 0.01508530 -0.02787414 0.00927685
v 0.01464933 -0.02701793 0.00927685
v 0.00407091 -0.03266371 0.00927685
v 0.00368381 -0.03244675 0.00927685
v 0.02434605 -0.02285535 0.00927685
v 0.02421904 -0.02240466 0.00927685
v 0.01533031 -0.02651658 0.00927685
v 0.01476765 -0.02698086 0.00927685
v 0.02451663 -0.02307189 0.00927685
v 0.02532156 -0.02111441 0.00927685
v 0.02451118 -0.01843921 0.00927685
v 0.02402356 -0.01934326 0.00927685
v 0.02578655 -0.02116959 0.00927685
v 0.02580792 -0.02118157 0.00927685
v 0.02450306 -0.02153118 0.00927685
v 0.02487086 -0.02124139 0.00927685
v 0.02427129 -0.02196400 0.00927685
v 0.02427417 -0.02193967 0.00927685
v 0.02619502 -0.02139853 0.00927685
v 0.02648477 -0.02176635 0.00927685
v 0.02760942 -0.02149710 0.00927685
v 0.03734140 -0.01190630 0.00927685
v 0.03718816 -0.01160534 0.00927685
v 0.03175955 -0.01436949 0.00927685
v 0.03175941 -0.01436959 0.00927685
v 0.03175924 -0.01436964 0.00927685
v 0.03199444 -0.01238772 0.00927685
v 0.03228419 -0.01275557 0.00927685
v 0.03235611 -0.01367128 0.00927685
v 0.03212722 -0.01407979 0.00927685
v 0.03241123 -0.01320627 0.00927685
v 0.03180828 -0.00103960 0.00927685
v 0.03158597 -0.01215876 0.00927685
v 0.03048982 -0.00171094 0.00927685
v 0.03112097 -0.01210357 0.00927685
v 0.02972035 -0.00878148 0.00927685
v 0.03014547 -0.01384457 0.00927685
v 0.03030244 -0.01252035 0.00927685
v 0.03067024 -0.01223054 0.00927685
v 0.03007354 -0.01292886 0.00927685
v 0.03043522 -0.01421242 0.00927685
v 0.03130869 -0.01449657 0.00927685
v 0.03084369 -0.01444138 0.00927685
v 0.03001842 -0.01339387 0.00927685
v -0.03976675 0.00741948 0.00927685
v -0.03974332 0.00796800 0.00927685
v -0.03608939 0.00019737 0.00927685
v -0.04009182 -0.00019079 0.00927685
v -0.03565821 -0.01856766 0.00927685
v -0.02643363 -0.03027572 0.00927685
v -0.02411014 -0.03157779 0.00927685
v -0.01823311 -0.03487123 0.00927685
v -0.01360175 -0.03746661 0.00927685
v -0.01324741 -0.03766518 0.00927685
v -0.01135819 -0.03670323 0.00927685
v -0.01265297 -0.03799830 0.00927685
v -0.01057313 -0.03824504 0.00927685
v -0.00824590 -0.03852114 0.00927685
v -0.00628226 -0.03875411 0.00927685
v -0.00283768 -0.03700019 0.00927685
v -0.00166575 -0.03930180 0.00927685
v 0.00303400 -0.03985937 0.00927685
v 0.00310488 -0.03983939 0.00927685
v 0.00292017 -0.03471729 0.00927685
v 0.00251170 -0.03448836 0.00927685
v 0.00338516 -0.03477247 0.00927685
v 0.01823906 -0.03557559 0.00927685
v 0.00420366 -0.03435571 0.00927685
v 0.00383586 -0.03464550 0.00927685
v 0.00443255 -0.03394721 0.00927685
v 0.00448768 -0.03348223 0.00927685
v 0.00443544 -0.03329685 0.00927685
v 0.01878694 -0.03514392 0.00927685
v 0.02463581 -0.02322318 0.00927685
v 0.03004258 -0.02627566 0.00927685
v 0.02595996 -0.02338032 0.00927685
v 0.02550926 -0.02350729 0.00927685
v 0.02661179 -0.02221704 0.00927685
v 0.02504428 -0.02345211 0.00927685
v 0.02632776 -0.02309052 0.00927685
v 0.02655666 -0.02268204 0.00927685
v 0.02655955 -0.02203167 0.00927685
v 0.03064736 -0.02579916 0.00927685
v 0.03255212 -0.02240012 0.00927685
v 0.03523361 -0.01761500 0.00927685
v 0.03620029 -0.01588997 0.00927685
v 0.03786092 -0.01292659 0.00927685
v 0.03836983 -0.01201844 0.00927685
v 0.03845010 -0.01134177 0.00927685
v 0.03849795 -0.01093842 0.00927685
v 0.03907569 -0.00606833 0.00927685
v 0.03161970 0.01030722 0.00927685
v 0.03132994 0.01067505 0.00927685
v 0.03618866 0.01801542 0.00927685
v 0.03346866 0.01176405 0.00927685
v 0.03359568 0.01131336 0.00927685
v 0.03185475 0.01228902 0.00927685
v 0.03230545 0.01241599 0.00927685
v 0.03317891 0.01213187 0.00927685
v 0.03148695 0.01199922 0.00927685
v 0.03120293 0.01112574 0.00927685
v 0.03125806 0.01159073 0.00927685
v 0.03202817 0.01007829 0.00927685
v 0.03277044 0.01236081 0.00927685
v 0.03294386 0.01015008 0.00927685
v 0.03249315 0.01002311 0.00927685
v 0.04023077 0.00366854 0.00927685
v 0.03331165 0.01043988 0.00927685
v 0.04017780 0.00322200 0.00927685
v 0.03354055 0.01084837 0.00927685
v 0.03594688 0.01887357 0.00927685
v 0.03403411 0.02141839 0.00927685
v 0.02660169 0.01996104 0.00927685
v 0.02689145 0.01959321 0.00927685
v 0.02754413 0.03005286 0.00927685
v 0.02712650 0.02157501 0.00927685
v 0.02729991 0.01936428 0.00927685
v 0.02757720 0.02170198 0.00927685
v 0.02647468 0.02041173 0.00927685
v 0.02804219 0.02164680 0.00927685
v 0.02675870 0.02128521 0.00927685
v 0.02776490 0.01930910 0.00927685
v 0.02845065 0.02141786 0.00927685
v 0.02535546 0.03148393 0.00927685
v 0.02652981 0.02087672 0.00927685
v 0.02874041 0.02105004 0.00927685
v 0.02858340 0.01972586 0.00927685
v 0.02821560 0.01943607 0.00927685
v 0.02881229 0.02013436 0.00927685
v 0.02886743 0.02059934 0.00927685
v 0.01725934 0.03677760 0.00927685
v 0.01343458 0.03504519 0.00927685
v 0.01583906 0.03770624 0.00927685
v 0.01259637 0.03847203 0.00927685
v 0.01707440 0.03689852 0.00927685
v 0.01082914 0.03888937 0.00927685
v 0.00222836 0.04092051 0.00927685
v 0.00041721 0.04071082 0.00927685
v 0.00249134 0.03566513 0.00927685
v 0.00279624 0.03527809 0.00927685
v 0.00206154 0.03590603 0.00927685
v 0.00109800 0.03583048 0.00927685
v 0.00157226 0.03596409 0.00927685
v -0.00381613 0.04022070 0.00927685
v 0.00071099 0.03552555 0.00927685
v 0.00054578 0.03413219 0.00927685
v 0.00041212 0.03460643 0.00927685
v 0.00047014 0.03509572 0.00927685
v 0.00081504 0.03379038 0.00927685
v -0.00300840 0.03351173 0.00927685
v -0.00345910 0.03338476 0.00927685
v -0.00241171 0.03421001 0.00927685
v -0.00264060 0.03380152 0.00927685
v -0.01359360 0.02871885 0.00927685
v -0.00462231 0.03403670 0.00927685
v -0.00474933 0.03448739 0.00927685
v -0.00392409 0.03343993 0.00927685
v -0.00433256 0.03366887 0.00927685
v -0.01761436 0.03634593 0.00927685
v -0.01369318 0.02864497 0.00927685
v -0.01166394 0.03931212 0.00927685
v -0.00446530 0.03536087 0.00927685
v -0.00409751 0.03565066 0.00927685
v -0.00469420 0.03495238 0.00927685
v -0.00235658 0.03467500 0.00927685
v -0.00277335 0.03549352 0.00927685
v -0.00248359 0.03512569 0.00927685
v -0.00364680 0.03577763 0.00927685
v -0.00318182 0.03572245 0.00927685
v -0.02323117 0.02156889 0.00927685
v -0.02323553 0.02252197 0.00927685
v -0.02372525 0.02164808 0.00927685
v -0.02325088 0.02153647 0.00927685
v -0.03059327 0.02634166 0.00927685
v -0.02762887 0.02498394 0.00927685
v -0.02684201 0.02560390 0.00927685
v -0.02796495 0.02215106 0.00927685
v -0.02451211 0.02102812 0.00927685
v -0.02418017 0.03307299 0.00927685
v -0.02823660 0.02311528 0.00927685
v -0.02400913 0.02526782 0.00927685
v -0.02587780 0.02587555 0.00927685
v -0.02811859 0.02411005 0.00927685
v -0.02647110 0.02087449 0.00927685
v -0.02734499 0.02136420 0.00927685
v -0.02547632 0.02075647 0.00927685
v -0.02338917 0.02448096 0.00927685
v -0.02488302 0.02575754 0.00927685
v -0.02311752 0.02351675 0.00927685
v -0.03382689 0.02294759 0.00927685
v -0.03748844 0.01461492 0.00927685
v -0.03767409 0.01419244 0.00927685
v -0.03931428 0.01008580 0.00927685
v -0.03841972 0.01249559 0.00927685
v -0.03916112 0.00929925 0.00927685
v -0.03930904 0.00916534 0.00927685
v -0.03919713 0.00999133 0.00927685
v -0.03911075 0.00986809 0.00927685
v -0.03945302 0.01014410 0.00927685
v -0.03907225 0.00947788 0.00927685
v -0.03949559 0.00909461 0.00927685
v -0.03905465 0.00967662 0.00927685
v -0.02985807 -0.01112595 0.00927685
v -0.03010206 -0.01156135 0.00927685
v -0.02907939 -0.01242738 0.00927685
v -0.02908315 -0.01243801 0.00927685
v -0.02908308 -0.01243412 0.00927685
v -0.02907615 -0.01242522 0.00927685
v -0.02908179 -0.01243045 0.00927685
v -0.02795893 -0.01464733 0.00927685
v -0.02908199 -0.01244172 0.00927685
v -0.02903749 -0.01069650 0.00927685
v -0.02985660 -0.01111357 0.00927685
v -0.02868537 -0.01222624 0.00927685
v -0.03132358 -0.01284089 0.00927685
v -0.03243050 -0.01315275 0.00927685
v -0.03042026 -0.01212917 0.00927685
v -0.03620997 -0.01786735 0.00927685
v -0.03357251 -0.01301727 0.00927685
v -0.03358338 -0.01301118 0.00927685
v -0.03714966 -0.01482706 0.00927685
v -0.03356006 -0.01301875 0.00927685
v -0.04028385 -0.00468660 0.00927685
v -0.03546383 -0.00930283 0.00927685
v -0.03545770 -0.00929190 0.00927685
v -0.03942472 -0.00150092 0.00927685
v -0.04016386 -0.00187728 0.00927685
v -0.03559931 -0.01044484 0.00927685
v -0.03528745 -0.01155176 0.00927685
v -0.03457573 -0.01245507 0.00927685
v -0.03490163 -0.00829960 0.00927685
v -0.03399832 -0.00758789 0.00927685
v -0.03289140 -0.00727603 0.00927685
v -0.03174939 -0.00741151 0.00927685
v -0.03074617 -0.00797370 0.00927685
v -0.03137719 -0.00053185 0.00927685
v -0.03224503 -0.00735271 0.00927685
v -0.03003445 -0.00887702 0.00927685
v -0.03099182 0.00185597 0.00927685
v -0.02972259 -0.00998394 0.00927685
v 0.00551427 0.03070050 0.00927685
v 0.00991974 0.03010566 0.00927685
v 0.00734809 0.03138634 0.00927685
v 0.00832168 0.03166064 0.00927685
v 0.00911619 0.03228662 0.00927685
v 0.01590787 0.02667340 0.00927685
v 0.00955508 0.03306983 0.00927685
v 0.00538819 0.03094812 0.00927685
v 0.00546126 0.03199998 0.00927685
v 0.00483527 0.03279449 0.00927685
v 0.00645655 0.03149211 0.00927685
v 0.00634364 0.03150550 0.00927685
v 0.00456098 0.03376808 0.00927685
v 0.00825690 0.03626245 0.00927685
v 0.01156577 0.03871541 0.00927685
v 0.01187637 0.03810542 0.00927685
v 0.00596912 0.03628090 0.00927685
v 0.00694271 0.03655519 0.00927685
v 0.00794716 0.03643603 0.00927685
v 0.00517461 0.03565491 0.00927685
v 0.00463831 0.03441994 0.00927685
v 0.00468014 0.03477252 0.00927685
v 0.00945553 0.03514704 0.00927685
v 0.00972983 0.03417346 0.00927685
v 0.00961066 0.03316901 0.00927685
v 0.00882954 0.03594155 0.00927685
v -0.03969510 0.00909680 0.00927685
v -0.02604135 -0.03049555 0.00927685
v -0.02836246 0.01312886 0.00927685
f 1 2 3
f 2 4 5
f 4 6 7
f 8 9 10
f 10 9 11
f 12 10 13
f 11 14 10
f 12 15 16
f 12 17 18
f 10 19 13
f 9 20 11
f 21 22 23
f 16 21 12
f 13 17 12
f 14 24 10
f 9 25 26
f 23 9 21
f 21 27 28
f 18 15 12
f 26 20 9
f 28 22 21
f 24 19 10
f 16 27 21
f 21 29 30
f 31 32 33
f 12 30 34
f 35 36 37
f 38 39 40
f 36 41 37
f 40 42 38
f 36 43 41
f 40 44 42
f 38 35 45
f 36 46 43
f 42 47 48
f 38 49 39
f 35 50 45
f 35 51 52
f 36 48 46
f 42 53 47
f 38 54 49
f 52 50 35
f 48 36 42
f 45 54 38
f 44 53 42
f 36 33 55
f 56 57 58
f 59 60 61
f 60 62 63
f 56 64 57
f 59 65 66
f 60 67 61
f 62 68 63
f 62 58 69
f 56 70 64
f 59 71 72
f 61 65 59
f 60 73 74
f 62 75 68
f 58 62 56
f 72 56 59
f 74 67 60
f 69 75 62
f 66 71 59
f 72 70 56
f 76 77 78
f 79 80 77
f 77 76 79
f 6 81 82
f 5 7 83
f 21 84 85
f 30 29 86
f 87 88 89
f 87 90 91
f 88 92 89
f 93 92 88
f 94 93 95
f 96 34 97
f 91 30 87
f 88 95 93
f 97 94 96
f 34 30 98
f 87 99 90
f 95 96 94
f 30 100 98
f 30 101 102
f 89 99 87
f 34 103 104
f 34 105 106
f 102 100 30
f 104 97 34
f 98 105 34
f 106 103 34
f 60 107 108
f 109 60 110
f 62 60 111
f 60 112 107
f 110 113 109
f 111 114 62
f 109 112 60
f 108 111 60
f 60 96 115
f 115 110 60
f 35 38 116
f 38 117 118
f 118 116 38
f 36 119 120
f 36 35 119
f 32 31 121
f 122 123 124
f 122 125 123
f 126 127 128
f 128 129 126
f 130 131 132
f 131 133 134
f 134 132 131
f 130 135 136
f 136 79 130
f 126 137 138
f 127 126 139
f 138 140 126
f 139 141 127
f 140 142 126
f 142 139 126
f 137 143 138
f 122 127 144
f 141 145 127
f 145 144 127
f 9 8 146
f 8 147 146
f 146 148 9
f 149 150 151
f 150 152 151
f 150 84 153
f 84 21 154
f 153 152 150
f 21 155 154
f 154 153 84
f 21 9 156
f 156 155 21
f 157 158 149
f 158 159 149
f 149 160 157
f 149 161 160
f 162 163 164
f 164 158 162
f 164 165 158
f 158 166 162
f 165 159 158
f 167 168 169
f 5 170 171
f 167 5 168
f 5 167 170
f 169 172 173
f 164 174 175
f 169 173 167
f 175 169 164
f 175 172 169
f 3 176 177
f 177 178 3
f 3 171 176
f 179 180 181
f 4 182 183
f 181 182 179
f 182 4 179
f 180 184 185
f 180 186 187
f 185 188 180
f 189 190 184
f 190 189 191
f 192 191 193
f 81 6 194
f 188 186 180
f 191 192 190
f 193 195 196
f 81 197 195
f 6 198 194
f 6 199 200
f 184 180 189
f 195 193 81
f 194 201 81
f 6 183 199
f 193 196 192
f 200 198 6
f 201 197 81
f 117 38 202
f 38 203 202
f 204 202 205
f 56 206 207
f 207 59 56
f 60 59 208
f 96 209 210
f 96 60 209
f 34 210 211
f 212 211 213
f 12 212 214
f 214 215 12
f 10 215 216
f 8 217 218
f 218 219 8
f 220 221 222
f 220 223 221
f 220 224 225
f 220 226 223
f 224 227 225
f 228 227 224
f 158 229 228
f 225 226 220
f 228 230 158
f 224 230 228
f 222 8 220
f 158 230 231
f 232 233 234
f 232 178 235
f 230 236 231
f 232 237 233
f 235 238 232
f 230 234 236
f 238 237 232
f 234 230 232
f 178 239 235
f 178 240 241
f 178 232 240
f 2 1 242
f 4 243 244
f 4 2 243
f 179 244 245
f 180 179 246
f 189 180 247
f 247 248 189
f 76 249 250
f 251 252 253
f 79 254 255
f 250 79 76
f 251 256 252
f 79 257 254
f 79 258 259
f 76 260 249
f 251 261 256
f 255 251 79
f 250 258 79
f 76 262 263
f 264 265 262
f 255 261 251
f 263 260 76
f 76 266 264
f 259 257 79
f 264 267 265
f 262 76 264
f 264 253 267
f 79 268 269
f 79 251 268
f 131 130 270
f 130 271 270
f 272 131 273
f 130 274 271
f 273 275 272
f 270 276 131
f 272 275 277
f 131 278 273
f 130 279 274
f 269 272 280
f 272 281 131
f 276 282 131
f 280 283 269
f 282 278 131
f 269 284 285
f 277 280 272
f 269 286 284
f 130 285 279
f 269 287 286
f 285 130 269
f 133 131 288
f 288 289 133
f 289 290 291
f 289 292 290
f 137 293 294
f 137 295 296
f 296 297 137
f 295 298 296
f 295 299 300
f 301 302 299
f 122 303 304
f 300 298 295
f 301 305 302
f 122 306 303
f 299 295 301
f 304 301 122
f 304 305 301
f 125 122 307
f 307 308 125
f 122 309 310
f 311 312 313
f 125 314 315
f 310 307 122
f 316 317 311
f 308 314 125
f 318 319 320
f 321 319 318
f 311 315 312
f 122 322 309
f 301 323 324
f 320 301 318
f 316 313 321
f 315 311 125
f 324 122 301
f 320 325 301
f 313 316 311
f 301 326 323
f 318 316 321
f 325 326 301
f 327 317 328
f 329 330 327
f 331 332 333
f 331 32 334
f 32 330 335
f 328 329 327
f 333 336 331
f 334 337 331
f 329 335 330
f 317 316 338
f 338 316 336
f 333 339 336
f 337 340 331
f 32 341 342
f 335 343 32
f 338 344 317
f 339 345 336
f 342 334 32
f 317 346 328
f 336 345 338
f 343 341 32
f 340 332 331
f 32 331 347
f 33 347 348
f 42 55 349
f 350 42 351
f 38 352 353
f 42 354 355
f 351 356 350
f 38 357 352
f 350 354 42
f 353 203 38
f 355 38 42
f 353 358 203
f 355 359 38
f 359 357 38
f 360 361 362
f 361 363 364
f 362 365 360
f 364 366 361
f 62 367 368
f 366 362 361
f 368 361 62
f 368 363 361
f 369 370 360
f 360 371 369
f 56 62 372
f 372 373 56
f 62 374 372
f 62 361 374
f 375 376 377
f 377 378 375
f 206 56 379
f 379 376 206
f 380 381 382
f 383 384 380
f 380 385 381
f 378 386 385
f 385 380 378
f 378 377 387
f 387 386 378
f 383 388 389
f 389 204 383
f 383 382 388
f 389 390 204
f 391 392 393
f 393 117 391
f 117 204 394
f 394 391 117
f 369 393 395
f 393 396 117
f 392 395 393
f 395 397 369
f 398 399 400
f 399 401 400
f 402 401 399
f 399 403 402
f 289 404 403
f 400 405 398
f 403 133 289
f 404 402 403
f 405 406 407
f 407 126 405
f 405 408 409
f 409 406 405
f 407 410 126
f 411 412 293
f 411 413 412
f 293 137 414
f 293 415 416
f 137 417 414
f 137 126 418
f 414 415 293
f 418 419 137
f 419 417 137
f 289 413 420
f 289 421 422
f 413 423 420
f 420 421 289
f 413 411 423
f 422 404 289
f 293 416 411
f 410 418 126
f 400 408 405
f 397 370 369
f 390 394 204
f 382 383 380
f 375 206 376
f 373 379 56
f 365 371 360
f 358 424 203
f 349 351 42
f 349 55 348
f 348 55 33
f 347 33 32
f 344 346 317
f 324 322 122
f 297 143 137
f 294 295 137
f 412 413 291
f 291 413 289
f 288 292 289
f 288 131 281
f 283 287 269
f 269 130 79
f 253 264 251
f 266 76 248
f 248 76 189
f 246 247 180
f 245 246 179
f 244 179 4
f 242 243 2
f 242 1 241
f 241 1 178
f 231 166 158
f 222 147 8
f 219 220 8
f 218 217 216
f 216 217 10
f 215 10 12
f 213 214 212
f 211 212 34
f 210 34 96
f 208 209 60
f 208 59 425
f 207 425 59
f 384 383 205
f 205 383 204
f 202 204 117
f 187 181 180
f 183 6 4
f 177 239 178
f 171 3 5
f 163 174 164
f 157 229 158
f 151 161 149
f 148 156 9
f 144 306 122
f 136 80 79
f 132 135 130
f 134 133 403
f 398 405 129
f 129 405 126
f 128 127 124
f 124 127 122
f 121 330 32
f 121 31 120
f 120 31 36
f 119 35 426
f 116 426 35
f 118 117 396
f 114 367 62
f 115 96 95
f 91 101 30
f 86 87 30
f 86 29 85
f 85 29 21
f 83 168 5
f 83 7 82
f 82 7 6
f 191 189 78
f 78 189 76
f 63 73 60
f 55 42 36
f 37 51 35
f 34 212 12
f 33 36 31
f 30 12 21
f 23 25 9
f 10 217 8
f 7 5 4
f 5 3 2
f 3 178 1

