{
    "accessors": [
        {
            "bufferView": 0,
            "componentType": 5126,
            "count": 7,
            "max": [
                0.012000000104308128,
                8.782745250146625e-19,
                -0.005428203381597996
            ],
            "min": [
                0.006000000052154064,
                -0.010392304509878159,
                -0.006500000134110451
            ],
            "name": "mesh1856_coord_accessor",
            "type": "VEC3"
        },
        {
            "bufferView": 1,
            "componentType": 5126,
            "count": 7,
            "max": [
                0.5,
                4.717900062568058e-17,
                -0.8660253882408142
            ],
            "min": [
                0.25,
                -0.4330126941204071,
                -0.8660253882408142
            ],
            "name": "mesh1856_norm_accessor",
            "type": "VEC3"
        },
        {
            "bufferView": 2,
            "componentType": 5125,
            "count": 15,
            "max": [
                6
            ],
            "min": [
                0
            ],
            "name": "mesh1856_idx_accessor",
            "type": "SCALAR"
        },
        {
            "bufferView": 3,
            "componentType": 5126,
            "count": 10,
            "max": [
                0.012000000104308128,
                0.006928203161805868,
                0.006500000134110451
            ],
            "min": [
                0.012000000104308128,
                -0.006928203161805868,
                -0.006500000134110451
            ],
            "name": "mesh1857_coord_accessor",
            "type": "VEC3"
        },
        {
            "bufferView": 4,
            "componentType": 5126,
            "count": 10,
            "max": [
                1.0,
                -0.0,
                -0.0
            ],
            "min": [
                1.0,
                -0.0,
                -0.0
            ],
            "name": "mesh1857_norm_accessor",
            "type": "VEC3"
        },
        {
            "bufferView": 5,
            "componentType": 5125,
            "count": 24,
            "max": [
                9
            ],
            "min": [
                0
            ],
            "name": "mesh1857_idx_accessor",
            "type": "SCALAR"
        },
        {
            "bufferView": 6,
            "componentType": 5126,
            "count": 7,
            "max": [
                0.012000000104308128,
                0.010392304509878159,
                -0.005428203381597996
            ],
            "min": [
                0.006000000052154064,
                8.782745250146625e-19,
                -0.006500000134110451
            ],
            "name": "mesh1858_coord_accessor",
            "type": "VEC3"
        },
        {
            "bufferView": 7,
            "componentType": 5126,
            "count": 7,
            "max": [
                0.5,
                0.4330126941204071,
                -0.8660253882408142
            ],
            "min": [
                0.25,
                0.0,
                -0.8660253882408142
            ],
            "name": "mesh1858_norm_accessor",
            "type": "VEC3"
        },
        {
            "bufferView": 8,
            "componentType": 5125,
            "count": 15,
            "max": [
                6
            ],
            "min": [
                0
            ],
            "name": "mesh1858_idx_accessor",
            "type": "SCALAR"
        },
        {
            "bufferView": 9,
            "componentType": 5126,
            "count": 7,
            "max": [
                0.012000000104308128,
                0.010392304509878159,
                0.006500000134110451
            ],
            "min": [
                0.006000000052154064,
                9.289959994054953e-19,
                0.005428203381597996
            ],
            "name": "mesh1859_coord_accessor",
            "type": "VEC3"
        },
        {
            "bufferView": 10,
            "componentType": 5126,
            "count": 7,
            "max": [
                0.5,
                0.4330126941204071,
                0.8660253882408142
            ],
            "min": [
                0.25,
                1.2246468525851679e-16,
                0.8660253882408142
            ],
            "name": "mesh1859_norm_accessor",
            "type": "VEC3"
        },
        {
            "bufferView": 11,
            "componentType": 5125,
            "count": 15,
            "max": [
                6
            ],
            "min": [
                0
            ],
            "name": "mesh1859_idx_accessor",
            "type": "SCALAR"
        },
        {
            "bufferView": 12,
            "componentType": 5126,
            "count": 7,
            "max": [
                0.012000000104308128,
                9.289959994054953e-19,
                0.006500000134110451
            ],
            "min": [
                0.006000000052154064,
                -0.010392304509878159,
                0.005428203381597996
            ],
            "name": "mesh1860_coord_accessor",
            "type": "VEC3"
        },
        {
            "bufferView": 13,
            "componentType": 5126,
            "count": 7,
            "max": [
                0.5,
                0.0,
                0.8660253882408142
            ],
            "min": [
                0.25,
                -0.4330126941204071,
                0.8660253882408142
            ],
            "name": "mesh1860_norm_accessor",
            "type": "VEC3"
        },
        {
            "bufferView": 14,
            "componentType": 5125,
            "count": 15,
            "max": [
                6
            ],
            "min": [
                0
            ],
            "name": "mesh1860_idx_accessor",
            "type": "SCALAR"
        },
        {
            "bufferView": 15,
            "componentType": 5126,
            "count": 10,
            "max": [
                0.012000000104308128,
                0.013856406323611736,
                0.006500000134110451
            ],
            "min": [
                -2.3828649808457947e-18,
                0.006928203161805868,
                -0.006500000134110451
            ],
            "name": "mesh1861_coord_accessor",
            "type": "VEC3"
        },
        {
            "bufferView": 16,
            "componentType": 5126,
            "count": 10,
            "max": [
                0.5,
                0.8660253882408142,
                -0.0
            ],
            "min": [
                0.5,
                0.8660253882408142,
                -0.0
            ],
            "name": "mesh1861_norm_accessor",
            "type": "VEC3"
        },
        {
            "bufferView": 17,
            "componentType": 5125,
            "count": 24,
            "max": [
                9
            ],
            "min": [
                0
            ],
            "name": "mesh1861_idx_accessor",
            "type": "SCALAR"
        },
        {
            "bufferView": 18,
            "componentType": 5126,
            "count": 7,
            "max": [
                0.006000000052154064,
                0.013856406323611736,
                -0.005428203381597996
            ],
            "min": [
                -0.006000000052154064,
                0.010392304509878159,
                -0.006500000134110451
            ],
            "name": "mesh1862_coord_accessor",
            "type": "VEC3"
        },
        {
            "bufferView": 19,
            "componentType": 5126,
            "count": 7,
            "max": [
                0.25,
                0.5,
                -0.8660253882408142
            ],
            "min": [
                -0.25,
                0.4330126941204071,
                -0.8660253882408142
            ],
            "name": "mesh1862_norm_accessor",
            "type": "VEC3"
        },
        {
            "bufferView": 20,
            "componentType": 5125,
            "count": 15,
            "max": [
                6
            ],
            "min": [
                0
            ],
            "name": "mesh1862_idx_accessor",
            "type": "SCALAR"
        },
        {
            "bufferView": 21,
            "componentType": 5126,
            "count": 7,
            "max": [
                0.006000000052154064,
                0.013856406323611736,
                0.006500000134110451
            ],
            "min": [
                -0.006000000052154064,
                0.010392304509878159,
                0.005428203381597996
            ],
            "name": "mesh1863_coord_accessor",
            "type": "VEC3"
        },
        {
            "bufferView": 22,
            "componentType": 5126,
            "count": 7,
            "max": [
                0.25,
                0.5,
                0.8660253882408142
            ],
            "min": [
                -0.25,
                0.4330126941204071,
                0.8660253882408142
            ],
            "name": "mesh1863_norm_accessor",
            "type": "VEC3"
        },
        {
            "bufferView": 23,
            "componentType": 5125,
            "count": 15,
            "max": [
                6
            ],
            "min": [
                0
            ],
            "name": "mesh1863_idx_accessor",
            "type": "SCALAR"
        },
        {
            "bufferView": 24,
            "componentType": 5126,
            "count": 10,
            "max": [
                0.012000000104308128,
                -0.006928203161805868,
                0.006500000134110451
            ],
            "min": [
                -6.202847760245866e-20,
                -0.013856406323611736,
                -0.006500000134110451
            ],
            "name": "mesh1864_coord_accessor",
            "type": "VEC3"
        },
        {
            "bufferView": 25,
            "componentType": 5126,
            "count": 10,
            "max": [
                0.5,
                -0.8660253882408142,
                -0.0
            ],
            "min": [
                0.5,
                -0.8660253882408142,
                -0.0
            ],
            "name": "mesh1864_norm_accessor",
            "type": "VEC3"
        },
        {
            "bufferView": 26,
            "componentType": 5125,
            "count": 24,
            "max": [
                9
            ],
            "min": [
                0
            ],
            "name": "mesh1864_idx_accessor",
            "type": "SCALAR"
        },
        {
            "bufferView": 27,
            "componentType": 5126,
            "count": 7,
            "max": [
                0.006000000052154064,
                -0.010392304509878159,
                -0.005428203381597996
            ],
            "min": [
                -0.006000000052154064,
                -0.013856406323611736,
                -0.006500000134110451
            ],
            "name": "mesh1865_coord_accessor",
            "type": "VEC3"
        },
        {
            "bufferView": 28,
            "componentType": 5126,
            "count": 7,
            "max": [
                0.25,
                -0.4330126941204071,
                -0.8660253882408142
            ],
            "min": [
                -0.25,
                -0.5,
                -0.8660253882408142
            ],
            "name": "mesh1865_norm_accessor",
            "type": "VEC3"
        },
        {
            "bufferView": 29,
            "componentType": 5125,
            "count": 15,
            "max": [
                6
            ],
            "min": [
                0
            ],
            "name": "mesh1865_idx_accessor",
            "type": "SCALAR"
        },
        {
            "bufferView": 30,
            "componentType": 5126,
            "count": 7,
            "max": [
                0.006000000052154064,
                -0.010392304509878159,
                0.006500000134110451
            ],
            "min": [
                -0.006000000052154064,
                -0.013856406323611736,
                0.005428203381597996
            ],
            "name": "mesh1866_coord_accessor",
            "type": "VEC3"
        },
        {
            "bufferView": 31,
            "componentType": 5126,
            "count": 7,
            "max": [
                0.25,
                -0.4330126941204071,
                0.8660253882408142
            ],
            "min": [
                -0.25,
                -0.5,
                0.8660253882408142
            ],
            "name": "mesh1866_norm_accessor",
            "type": "VEC3"
        },
        {
            "bufferView": 32,
            "componentType": 5125,
            "count": 15,
            "max": [
                6
            ],
            "min": [
                0
            ],
            "name": "mesh1866_idx_accessor",
            "type": "SCALAR"
        },
        {
            "bufferView": 33,
            "componentType": 5126,
            "count": 10,
            "max": [
                -5.200131343773416e-20,
                -0.006928203161805868,
                0.006500000134110451
            ],
            "min": [
                -0.012000000104308128,
                -0.013856406323611736,
                -0.006500000134110451
            ],
            "name": "mesh1867_coord_accessor",
            "type": "VEC3"
        },
        {
            "bufferView": 34,
            "componentType": 5126,
            "count": 10,
            "max": [
                -0.5,
                -0.8660253882408142,
                -0.0
            ],
            "min": [
                -0.5,
                -0.8660253882408142,
                -0.0
            ],
            "name": "mesh1867_norm_accessor",
            "type": "VEC3"
        },
        {
            "bufferView": 35,
            "componentType": 5125,
            "count": 24,
            "max": [
                9
            ],
            "min": [
                0
            ],
            "name": "mesh1867_idx_accessor",
            "type": "SCALAR"
        },
        {
            "bufferView": 36,
            "componentType": 5126,
            "count": 7,
            "max": [
                -0.006000000052154064,
                -7.347880536484578e-19,
                -0.005428203381597996
            ],
            "min": [
                -0.012000000104308128,
                -0.010392304509878159,
                -0.006500000134110451
            ],
            "name": "mesh1868_coord_accessor",
            "type": "VEC3"
        },
        {
            "bufferView": 37,
            "componentType": 5126,
            "count": 7,
            "max": [
                -0.25,
                -1.048990695230788e-15,
                -0.8660253882408142
            ],
            "min": [
                -0.5,
                -0.4330126941204071,
                -0.8660253882408142
            ],
            "name": "mesh1868_norm_accessor",
            "type": "VEC3"
        },
        {
            "bufferView": 38,
            "componentType": 5125,
            "count": 15,
            "max": [
                6
            ],
            "min": [
                0
            ],
            "name": "mesh1868_idx_accessor",
            "type": "SCALAR"
        },
        {
            "bufferView": 39,
            "componentType": 5126,
            "count": 7,
            "max": [
                -0.006000000052154064,
                7.347880536484578e-19,
                0.006500000134110451
            ],
            "min": [
                -0.012000000104308128,
                -0.010392304509878159,
                0.005428203381597996
            ],
            "name": "mesh1869_coord_accessor",
            "type": "VEC3"
        },
        {
            "bufferView": 40,
            "componentType": 5126,
            "count": 7,
            "max": [
                -0.25,
                -6.123234262925839e-17,
                0.8660253882408142
            ],
            "min": [
                -0.5,
                -0.4330126941204071,
                0.8660253882408142
            ],
            "name": "mesh1869_norm_accessor",
            "type": "VEC3"
        },
        {
            "bufferView": 41,
            "componentType": 5125,
            "count": 15,
            "max": [
                6
            ],
            "min": [
                0
            ],
            "name": "mesh1869_idx_accessor",
            "type": "SCALAR"
        },
        {
            "bufferView": 42,
            "componentType": 5126,
            "count": 10,
            "max": [
                -0.012000000104308128,
                0.006928203161805868,
                0.006500000134110451
            ],
            "min": [
                -0.012000000104308128,
                -0.006928203161805868,
                -0.006500000134110451
            ],
            "name": "mesh1870_coord_accessor",
            "type": "VEC3"
        },
        {
            "bufferView": 43,
            "componentType": 5126,
            "count": 10,
            "max": [
                -1.0,
                -0.0,
                -0.0
            ],
            "min": [
                -1.0,
                -0.0,
                -0.0
            ],
            "name": "mesh1870_norm_accessor",
            "type": "VEC3"
        },
        {
            "bufferView": 44,
            "componentType": 5125,
            "count": 24,
            "max": [
                9
            ],
            "min": [
                0
            ],
            "name": "mesh1870_idx_accessor",
            "type": "SCALAR"
        },
        {
            "bufferView": 45,
            "componentType": 5126,
            "count": 10,
            "max": [
                -1.7855471071732902e-18,
                0.013856406323611736,
                0.006500000134110451
            ],
            "min": [
                -0.012000000104308128,
                0.006928203161805868,
                -0.006500000134110451
            ],
            "name": "mesh1871_coord_accessor",
            "type": "VEC3"
        },
        {
            "bufferView": 46,
            "componentType": 5126,
            "count": 10,
            "max": [
                -0.5,
                0.8660253882408142,
                -0.0
            ],
            "min": [
                -0.5,
                0.8660253882408142,
                -0.0
            ],
            "name": "mesh1871_norm_accessor",
            "type": "VEC3"
        },
        {
            "bufferView": 47,
            "componentType": 5125,
            "count": 24,
            "max": [
                9
            ],
            "min": [
                0
            ],
            "name": "mesh1871_idx_accessor",
            "type": "SCALAR"
        },
        {
            "bufferView": 48,
            "componentType": 5126,
            "count": 7,
            "max": [
                -0.006000000052154064,
                0.010392304509878159,
                -0.005428203381597996
            ],
            "min": [
                -0.012000000104308128,
                -7.347880536484578e-19,
                -0.006500000134110451
            ],
            "name": "mesh1872_coord_accessor",
            "type": "VEC3"
        },
        {
            "bufferView": 49,
            "componentType": 5126,
            "count": 7,
            "max": [
                -0.25,
                0.4330126941204071,
                -0.8660253882408142
            ],
            "min": [
                -0.5,
                -1.048990695230788e-15,
                -0.8660253882408142
            ],
            "name": "mesh1872_norm_accessor",
            "type": "VEC3"
        },
        {
            "bufferView": 50,
            "componentType": 5125,
            "count": 15,
            "max": [
                6
            ],
            "min": [
                0
            ],
            "name": "mesh1872_idx_accessor",
            "type": "SCALAR"
        },
        {
            "bufferView": 51,
            "componentType": 5126,
            "count": 7,
            "max": [
                -0.006000000052154064,
                0.010392304509878159,
                0.006500000134110451
            ],
            "min": [
                -0.012000000104308128,
                7.347880536484578e-19,
                0.005428203381597996
            ],
            "name": "mesh1873_coord_accessor",
            "type": "VEC3"
        },
        {
            "bufferView": 52,
            "componentType": 5126,
            "count": 7,
            "max": [
                -0.25,
                0.4330126941204071,
                0.8660253882408142
            ],
            "min": [
                -0.5,
                -6.123234262925839e-17,
                0.8660253882408142
            ],
            "name": "mesh1873_norm_accessor",
            "type": "VEC3"
        },
        {
            "bufferView": 53,
            "componentType": 5125,
            "count": 15,
            "max": [
                6
            ],
            "min": [
                0
            ],
            "name": "mesh1873_idx_accessor",
            "type": "SCALAR"
        },
        {
            "bufferView": 54,
            "componentType": 5126,
            "count": 35,
            "max": [
                0.012000000104308128,
                0.011813302524387836,
                -0.006500000134110451
            ],
            "min": [
                -0.012000000104308128,
                -0.011813302524387836,
                -0.006500000134110451
            ],
            "name": "mesh1874_coord_accessor",
            "type": "VEC3"
        },
        {
            "bufferView": 55,
            "componentType": 5126,
            "count": 35,
            "max": [
                -0.0,
                -0.0,
                -1.0
            ],
            "min": [
                -0.0,
                -0.0,
                -1.0
            ],
            "name": "mesh1874_norm_accessor",
            "type": "VEC3"
        },
        {
            "bufferView": 56,
            "componentType": 5125,
            "count": 105,
            "max": [
                34
            ],
            "min": [
                0
            ],
            "name": "mesh1874_idx_accessor",
            "type": "SCALAR"
        },
        {
            "bufferView": 57,
            "componentType": 5126,
            "count": 34,
            "max": [
                0.012000000104308128,
                0.011813302524387836,
                0.006500000134110451
            ],
            "min": [
                -0.012000000104308128,
                -0.011813302524387836,
                0.006500000134110451
            ],
            "name": "mesh1875_coord_accessor",
            "type": "VEC3"
        },
        {
            "bufferView": 58,
            "componentType": 5126,
            "count": 34,
            "max": [
                0.0,
                0.0,
                1.0
            ],
            "min": [
                0.0,
                0.0,
                1.0
            ],
            "name": "mesh1875_norm_accessor",
            "type": "VEC3"
        },
        {
            "bufferView": 59,
            "componentType": 5125,
            "count": 102,
            "max": [
                33
            ],
            "min": [
                0
            ],
            "name": "mesh1875_idx_accessor",
            "type": "SCALAR"
        },
        {
            "bufferView": 60,
            "componentType": 5126,
            "count": 708,
            "max": [
                0.00800000037997961,
                0.00800000037997961,
                0.006500000134110451
            ],
            "min": [
                -0.00800000037997961,
                -0.00800000037997961,
                -0.006500000134110451
            ],
            "name": "mesh1876_coord_accessor",
            "type": "VEC3"
        },
        {
            "bufferView": 61,
            "componentType": 5126,
            "count": 708,
            "max": [
                1.0,
                1.0,
                0.0
            ],
            "min": [
                -1.0,
                -1.0,
                0.0
            ],
            "name": "mesh1876_norm_accessor",
            "type": "VEC3"
        },
        {
            "bufferView": 62,
            "componentType": 5125,
            "count": 2118,
            "max": [
                707
            ],
            "min": [
                0
            ],
            "name": "mesh1876_idx_accessor",
            "type": "SCALAR"
        },
        {
            "bufferView": 63,
            "componentType": 5126,
            "count": 3,
            "max": [
                -5.795871645982017e-16,
                0.00800000037997961,
                0.006500000134110451
            ],
            "min": [
                -7.254450734450898e-16,
                0.007524519227445126,
                0.005750000011175871
            ],
            "name": "mesh1877_coord_accessor",
            "type": "VEC3"
        },
        {
            "bufferView": 64,
            "componentType": 5126,
            "count": 3,
            "max": [
                -1.0,
                0.0,
                0.0
            ],
            "min": [
                -1.0,
                0.0,
                0.0
            ],
            "name": "mesh1877_norm_accessor",
            "type": "VEC3"
        },
        {
            "bufferView": 65,
            "componentType": 5125,
            "count": 3,
            "max": [
                2
            ],
            "min": [
                0
            ],
            "name": "mesh1877_idx_accessor",
            "type": "SCALAR"
        },
        {
            "bufferView": 66,
            "componentType": 5126,
            "count": 691,
            "max": [
                0.00800000037997961,
                0.00800000037997961,
                0.006024518981575966
            ],
            "min": [
                -0.00800000037997961,
                -0.00800000037997961,
                -0.006500000134110451
            ],
            "name": "mesh1878_coord_accessor",
            "type": "VEC3"
        },
        {
            "bufferView": 67,
            "componentType": 5126,
            "count": 691,
            "max": [
                0.5000122785568237,
                0.5011634826660156,
                -0.8652675151824951
            ],
            "min": [
                -0.5000723600387573,
                -0.5008618235588074,
                -0.8655451536178589
            ],
            "name": "mesh1878_norm_accessor",
            "type": "VEC3"
        },
        {
            "bufferView": 68,
            "componentType": 5125,
            "count": 2067,
            "max": [
                690
            ],
            "min": [
                0
            ],
            "name": "mesh1878_idx_accessor",
            "type": "SCALAR"
        },
        {
            "bufferView": 69,
            "componentType": 5126,
            "count": 65,
            "max": [
                0.00800000037997961,
                0.00800000037997961,
                0.006500000134110451
            ],
            "min": [
                -0.006840365473181009,
                -0.00800000037997961,
                0.005200962070375681
            ],
            "name": "mesh1879_coord_accessor",
            "type": "VEC3"
        },
        {
            "bufferView": 70,
            "componentType": 5126,
            "count": 65,
            "max": [
                0.7071067690849304,
                0.7071067690849304,
                0.7071067690849304
            ],
            "min": [
                -0.7071067690849304,
                -0.7071067690849304,
                0.7071067690849304
            ],
            "name": "mesh1879_norm_accessor",
            "type": "VEC3"
        },
        {
            "bufferView": 71,
            "componentType": 5125,
            "count": 189,
            "max": [
                64
            ],
            "min": [
                0
            ],
            "name": "mesh1879_idx_accessor",
            "type": "SCALAR"
        },
        {
            "bufferView": 72,
            "componentType": 5126,
            "count": 707,
            "max": [
                0.00800000037997961,
                0.00800000037997961,
                0.006500000134110451
            ],
            "min": [
                -0.00800000037997961,
                -0.00800000037997961,
                -0.006500000134110451
            ],
            "name": "mesh1880_coord_accessor",
            "type": "VEC3"
        },
        {
            "bufferView": 73,
            "componentType": 5126,
            "count": 707,
            "max": [
                0.5011504292488098,
                0.5010938048362732,
                0.8655451536178589
            ],
            "min": [
                -0.5012978911399841,
                -0.5012320280075073,
                0.8652528524398804
            ],
            "name": "mesh1880_norm_accessor",
            "type": "VEC3"
        },
        {
            "bufferView": 74,
            "componentType": 5125,
            "count": 2115,
            "max": [
                706
            ],
            "min": [
                0
            ],
            "name": "mesh1880_idx_accessor",
            "type": "SCALAR"
        },
        {
            "bufferView": 75,
            "componentType": 5126,
            "count": 93,
            "max": [
                0.00800000037997961,
                0.00800000037997961,
                -0.005200962070375681
            ],
            "min": [
                -0.00800000037997961,
                -0.00800000037997961,
                -0.006500000134110451
            ],
            "name": "mesh1881_coord_accessor",
            "type": "VEC3"
        },
        {
            "bufferView": 76,
            "componentType": 5126,
            "count": 93,
            "max": [
                0.7071067690849304,
                0.7071067690849304,
                -0.7071067690849304
            ],
            "min": [
                -0.7071067690849304,
                -0.7071067690849304,
                -0.7071067690849304
            ],
            "name": "mesh1881_norm_accessor",
            "type": "VEC3"
        },
        {
            "bufferView": 77,
            "componentType": 5125,
            "count": 273,
            "max": [
                92
            ],
            "min": [
                0
            ],
            "name": "mesh1881_idx_accessor",
            "type": "SCALAR"
        },
        {
            "bufferView": 78,
            "componentType": 5126,
            "count": 578,
            "max": [
                0.006700961850583553,
                0.006700961850583553,
                0.005200962070375681
            ],
            "min": [
                -0.006700961850583553,
                -0.006700961850583553,
                -0.005200962070375681
            ],
            "name": "mesh1882_coord_accessor",
            "type": "VEC3"
        },
        {
            "bufferView": 79,
            "componentType": 5126,
            "count": 578,
            "max": [
                1.0,
                1.0,
                -0.0
            ],
            "min": [
                -1.0,
                -1.0,
                -0.0
            ],
            "name": "mesh1882_norm_accessor",
            "type": "VEC3"
        },
        {
            "bufferView": 80,
            "componentType": 5125,
            "count": 1728,
            "max": [
                577
            ],
            "min": [
                0
            ],
            "name": "mesh1882_idx_accessor",
            "type": "SCALAR"
        }
    ],
    "asset": {
        "generator": "ONSHAPE BY PTC INC, 1.212",
        "version": "2.0"
    },
    "bufferViews": [
        {
            "buffer": 0,
            "byteLength": 84,
            "name": "mesh1856_coord_bufferView",
            "target": 34962
        },
        {
            "buffer": 0,
            "byteLength": 84,
            "byteOffset": 84,
            "name": "mesh1856_norm_bufferView",
            "target": 34962
        },
        {
            "buffer": 0,
            "byteLength": 60,
            "byteOffset": 168,
            "name": "mesh1856_idx_bufferView",
            "target": 34963
        },
        {
            "buffer": 0,
            "byteLength": 120,
            "byteOffset": 228,
            "name": "mesh1857_coord_bufferView",
            "target": 34962
        },
        {
            "buffer": 0,
            "byteLength": 120,
            "byteOffset": 348,
            "name": "mesh1857_norm_bufferView",
            "target": 34962
        },
        {
            "buffer": 0,
            "byteLength": 96,
            "byteOffset": 468,
            "name": "mesh1857_idx_bufferView",
            "target": 34963
        },
        {
            "buffer": 0,
            "byteLength": 84,
            "byteOffset": 564,
            "name": "mesh1858_coord_bufferView",
            "target": 34962
        },
        {
            "buffer": 0,
            "byteLength": 84,
            "byteOffset": 648,
            "name": "mesh1858_norm_bufferView",
            "target": 34962
        },
        {
            "buffer": 0,
            "byteLength": 60,
            "byteOffset": 732,
            "name": "mesh1858_idx_bufferView",
            "target": 34963
        },
        {
            "buffer": 0,
            "byteLength": 84,
            "byteOffset": 792,
            "name": "mesh1859_coord_bufferView",
            "target": 34962
        },
        {
            "buffer": 0,
            "byteLength": 84,
            "byteOffset": 876,
            "name": "mesh1859_norm_bufferView",
            "target": 34962
        },
        {
            "buffer": 0,
            "byteLength": 60,
            "byteOffset": 960,
            "name": "mesh1859_idx_bufferView",
            "target": 34963
        },
        {
            "buffer": 0,
            "byteLength": 84,
            "byteOffset": 1020,
            "name": "mesh1860_coord_bufferView",
            "target": 34962
        },
        {
            "buffer": 0,
            "byteLength": 84,
            "byteOffset": 1104,
            "name": "mesh1860_norm_bufferView",
            "target": 34962
        },
        {
            "buffer": 0,
            "byteLength": 60,
            "byteOffset": 1188,
            "name": "mesh1860_idx_bufferView",
            "target": 34963
        },
        {
            "buffer": 0,
            "byteLength": 120,
            "byteOffset": 1248,
            "name": "mesh1861_coord_bufferView",
            "target": 34962
        },
        {
            "buffer": 0,
            "byteLength": 120,
            "byteOffset": 1368,
            "name": "mesh1861_norm_bufferView",
            "target": 34962
        },
        {
            "buffer": 0,
            "byteLength": 96,
            "byteOffset": 1488,
            "name": "mesh1861_idx_bufferView",
            "target": 34963
        },
        {
            "buffer": 0,
            "byteLength": 84,
            "byteOffset": 1584,
            "name": "mesh1862_coord_bufferView",
            "target": 34962
        },
        {
            "buffer": 0,
            "byteLength": 84,
            "byteOffset": 1668,
            "name": "mesh1862_norm_bufferView",
            "target": 34962
        },
        {
            "buffer": 0,
            "byteLength": 60,
            "byteOffset": 1752,
            "name": "mesh1862_idx_bufferView",
            "target": 34963
        },
        {
            "buffer": 0,
            "byteLength": 84,
            "byteOffset": 1812,
            "name": "mesh1863_coord_bufferView",
            "target": 34962
        },
        {
            "buffer": 0,
            "byteLength": 84,
            "byteOffset": 1896,
            "name": "mesh1863_norm_bufferView",
            "target": 34962
        },
        {
            "buffer": 0,
            "byteLength": 60,
            "byteOffset": 1980,
            "name": "mesh1863_idx_bufferView",
            "target": 34963
        },
        {
            "buffer": 0,
            "byteLength": 120,
            "byteOffset": 2040,
            "name": "mesh1864_coord_bufferView",
            "target": 34962
        },
        {
            "buffer": 0,
            "byteLength": 120,
            "byteOffset": 2160,
            "name": "mesh1864_norm_bufferView",
            "target": 34962
        },
        {
            "buffer": 0,
            "byteLength": 96,
            "byteOffset": 2280,
            "name": "mesh1864_idx_bufferView",
            "target": 34963
        },
        {
            "buffer": 0,
            "byteLength": 84,
            "byteOffset": 2376,
            "name": "mesh1865_coord_bufferView",
            "target": 34962
        },
        {
            "buffer": 0,
            "byteLength": 84,
            "byteOffset": 2460,
            "name": "mesh1865_norm_bufferView",
            "target": 34962
        },
        {
            "buffer": 0,
            "byteLength": 60,
            "byteOffset": 2544,
            "name": "mesh1865_idx_bufferView",
            "target": 34963
        },
        {
            "buffer": 0,
            "byteLength": 84,
            "byteOffset": 2604,
            "name": "mesh1866_coord_bufferView",
            "target": 34962
        },
        {
            "buffer": 0,
            "byteLength": 84,
            "byteOffset": 2688,
            "name": "mesh1866_norm_bufferView",
            "target": 34962
        },
        {
            "buffer": 0,
            "byteLength": 60,
            "byteOffset": 2772,
            "name": "mesh1866_idx_bufferView",
            "target": 34963
        },
        {
            "buffer": 0,
            "byteLength": 120,
            "byteOffset": 2832,
            "name": "mesh1867_coord_bufferView",
            "target": 34962
        },
        {
            "buffer": 0,
            "byteLength": 120,
            "byteOffset": 2952,
            "name": "mesh1867_norm_bufferView",
            "target": 34962
        },
        {
            "buffer": 0,
            "byteLength": 96,
            "byteOffset": 3072,
            "name": "mesh1867_idx_bufferView",
            "target": 34963
        },
        {
            "buffer": 0,
            "byteLength": 84,
            "byteOffset": 3168,
            "name": "mesh1868_coord_bufferView",
            "target": 34962
        },
        {
            "buffer": 0,
            "byteLength": 84,
            "byteOffset": 3252,
            "name": "mesh1868_norm_bufferView",
            "target": 34962
        },
        {
            "buffer": 0,
            "byteLength": 60,
            "byteOffset": 3336,
            "name": "mesh1868_idx_bufferView",
            "target": 34963
        },
        {
            "buffer": 0,
            "byteLength": 84,
            "byteOffset": 3396,
            "name": "mesh1869_coord_bufferView",
            "target": 34962
        },
        {
            "buffer": 0,
            "byteLength": 84,
            "byteOffset": 3480,
            "name": "mesh1869_norm_bufferView",
            "target": 34962
        },
        {
            "buffer": 0,
            "byteLength": 60,
            "byteOffset": 3564,
            "name": "mesh1869_idx_bufferView",
            "target": 34963
        },
        {
            "buffer": 0,
            "byteLength": 120,
            "byteOffset": 3624,
            "name": "mesh1870_coord_bufferView",
            "target": 34962
        },
        {
            "buffer": 0,
            "byteLength": 120,
            "byteOffset": 3744,
            "name": "mesh1870_norm_bufferView",
            "target": 34962
        },
        {
            "buffer": 0,
            "byteLength": 96,
            "byteOffset": 3864,
            "name": "mesh1870_idx_bufferView",
            "target": 34963
        },
        {
            "buffer": 0,
            "byteLength": 120,
            "byteOffset": 3960,
            "name": "mesh1871_coord_bufferView",
            "target": 34962
        },
        {
            "buffer": 0,
            "byteLength": 120,
            "byteOffset": 4080,
            "name": "mesh1871_norm_bufferView",
            "target": 34962
        },
        {
            "buffer": 0,
            "byteLength": 96,
            "byteOffset": 4200,
            "name": "mesh1871_idx_bufferView",
            "target": 34963
        },
        {
            "buffer": 0,
            "byteLength": 84,
            "byteOffset": 4296,
            "name": "mesh1872_coord_bufferView",
            "target": 34962
        },
        {
            "buffer": 0,
            "byteLength": 84,
            "byteOffset": 4380,
            "name": "mesh1872_norm_bufferView",
            "target": 34962
        },
        {
            "buffer": 0,
            "byteLength": 60,
            "byteOffset": 4464,
            "name": "mesh1872_idx_bufferView",
            "target": 34963
        },
        {
            "buffer": 0,
            "byteLength": 84,
            "byteOffset": 4524,
            "name": "mesh1873_coord_bufferView",
            "target": 34962
        },
        {
            "buffer": 0,
            "byteLength": 84,
            "byteOffset": 4608,
            "name": "mesh1873_norm_bufferView",
            "target": 34962
        },
        {
            "buffer": 0,
            "byteLength": 60,
            "byteOffset": 4692,
            "name": "mesh1873_idx_bufferView",
            "target": 34963
        },
        {
            "buffer": 0,
            "byteLength": 420,
            "byteOffset": 4752,
            "name": "mesh1874_coord_bufferView",
            "target": 34962
        },
        {
            "buffer": 0,
            "byteLength": 420,
            "byteOffset": 5172,
            "name": "mesh1874_norm_bufferView",
            "target": 34962
        },
        {
            "buffer": 0,
            "byteLength": 420,
            "byteOffset": 5592,
            "name": "mesh1874_idx_bufferView",
            "target": 34963
        },
        {
            "buffer": 0,
            "byteLength": 408,
            "byteOffset": 6012,
            "name": "mesh1875_coord_bufferView",
            "target": 34962
        },
        {
            "buffer": 0,
            "byteLength": 408,
            "byteOffset": 6420,
            "name": "mesh1875_norm_bufferView",
            "target": 34962
        },
        {
            "buffer": 0,
            "byteLength": 408,
            "byteOffset": 6828,
            "name": "mesh1875_idx_bufferView",
            "target": 34963
        },
        {
            "buffer": 0,
            "byteLength": 8496,
            "byteOffset": 7236,
            "name": "mesh1876_coord_bufferView",
            "target": 34962
        },
        {
            "buffer": 0,
            "byteLength": 8496,
            "byteOffset": 15732,
            "name": "mesh1876_norm_bufferView",
            "target": 34962
        },
        {
            "buffer": 0,
            "byteLength": 8472,
            "byteOffset": 24228,
            "name": "mesh1876_idx_bufferView",
            "target": 34963
        },
        {
            "buffer": 0,
            "byteLength": 36,
            "byteOffset": 32700,
            "name": "mesh1877_coord_bufferView",
            "target": 34962
        },
        {
            "buffer": 0,
            "byteLength": 36,
            "byteOffset": 32736,
            "name": "mesh1877_norm_bufferView",
            "target": 34962
        },
        {
            "buffer": 0,
            "byteLength": 12,
            "byteOffset": 32772,
            "name": "mesh1877_idx_bufferView",
            "target": 34963
        },
        {
            "buffer": 0,
            "byteLength": 8292,
            "byteOffset": 32784,
            "name": "mesh1878_coord_bufferView",
            "target": 34962
        },
        {
            "buffer": 0,
            "byteLength": 8292,
            "byteOffset": 41076,
            "name": "mesh1878_norm_bufferView",
            "target": 34962
        },
        {
            "buffer": 0,
            "byteLength": 8268,
            "byteOffset": 49368,
            "name": "mesh1878_idx_bufferView",
            "target": 34963
        },
        {
            "buffer": 0,
            "byteLength": 780,
            "byteOffset": 57636,
            "name": "mesh1879_coord_bufferView",
            "target": 34962
        },
        {
            "buffer": 0,
            "byteLength": 780,
            "byteOffset": 58416,
            "name": "mesh1879_norm_bufferView",
            "target": 34962
        },
        {
            "buffer": 0,
            "byteLength": 756,
            "byteOffset": 59196,
            "name": "mesh1879_idx_bufferView",
            "target": 34963
        },
        {
            "buffer": 0,
            "byteLength": 8484,
            "byteOffset": 59952,
            "name": "mesh1880_coord_bufferView",
            "target": 34962
        },
        {
            "buffer": 0,
            "byteLength": 8484,
            "byteOffset": 68436,
            "name": "mesh1880_norm_bufferView",
            "target": 34962
        },
        {
            "buffer": 0,
            "byteLength": 8460,
            "byteOffset": 76920,
            "name": "mesh1880_idx_bufferView",
            "target": 34963
        },
        {
            "buffer": 0,
            "byteLength": 1116,
            "byteOffset": 85380,
            "name": "mesh1881_coord_bufferView",
            "target": 34962
        },
        {
            "buffer": 0,
            "byteLength": 1116,
            "byteOffset": 86496,
            "name": "mesh1881_norm_bufferView",
            "target": 34962
        },
        {
            "buffer": 0,
            "byteLength": 1092,
            "byteOffset": 87612,
            "name": "mesh1881_idx_bufferView",
            "target": 34963
        },
        {
            "buffer": 0,
            "byteLength": 6936,
            "byteOffset": 88704,
            "name": "mesh1882_coord_bufferView",
            "target": 34962
        },
        {
            "buffer": 0,
            "byteLength": 6936,
            "byteOffset": 95640,
            "name": "mesh1882_norm_bufferView",
            "target": 34962
        },
        {
            "buffer": 0,
            "byteLength": 6912,
            "byteOffset": 102576,
            "name": "mesh1882_idx_bufferView",
            "target": 34963
        }
    ],
    "buffers": [
        {
            "byteLength": 109488,
            "name": "Total_buffer",
            "uri": "data:application/octet-stream;base64,"
        }
    ],
    "extensionsUsed": [
        "PTC_onshape_metadata"
    ],
    "materials": [
        {
            "doubleSided": true,
            "name": "0.372549_0.372549_0.372549_0.000000_0.000000",
            "pbrMetallicRoughness": {
                "baseColorFactor": [
                    0.37254902720451355,
                    0.37254902720451355,
                    0.37254902720451355,
                    1.0
                ],
                "metallicFactor": 0.0
            }
        },
        {
            "doubleSided": true,
            "name": "0.901961_0.901961_0.901961_0.000000_0.000000",
            "pbrMetallicRoughness": {
                "baseColorFactor": [
                    0.9019607901573181,
                    0.9019607901573181,
                    0.9019607901573181,
                    1.0
                ],
                "metallicFactor": 0.0
            }
        },
        {
            "doubleSided": true,
            "name": "0.917647_0.917647_0.917647_0.000000_0.000000",
            "pbrMetallicRoughness": {
                "baseColorFactor": [
                    0.9176470637321472,
                    0.9176470637321472,
                    0.9176470637321472,
                    1.0
                ],
                "metallicFactor": 0.0
            }
        },
        {
            "doubleSided": true,
            "name": "0.800000_0.800000_0.800000_0.000000_0.000000",
            "pbrMetallicRoughness": {
                "baseColorFactor": [
                    0.800000011920929,
                    0.800000011920929,
                    0.800000011920929,
                    1.0
                ],
                "metallicFactor": 0.0
            }
        },
        {
            "doubleSided": true,
            "name": "0.910000_0.910000_0.910000_0.000000_0.000000",
            "pbrMetallicRoughness": {
                "baseColorFactor": [
                    0.9100000262260437,
                    0.9100000262260437,
                    0.9100000262260437,
                    1.0
                ],
                "metallicFactor": 0.0
            }
        },
        {
            "doubleSided": true,
            "name": "0.301961_0.301961_0.301961_0.000000_0.000000",
            "pbrMetallicRoughness": {
                "baseColorFactor": [
                    0.3019607961177826,
                    0.3019607961177826,
                    0.3019607961177826,
                    1.0
                ],
                "metallicFactor": 0.0
            }
        },
        {
            "doubleSided": true,
            "name": "0.023529_0.298039_0.568627_0.000000_0.000000",
            "pbrMetallicRoughness": {
                "baseColorFactor": [
                    0.0235294122248888,
                    0.2980392277240753,
                    0.5686274766921997,
                    1.0
                ],
                "metallicFactor": 0.0
            }
        },
        {
            "doubleSided": true,
            "name": "0.501961_0.501961_0.501961_0.000000_0.000000",
            "pbrMetallicRoughness": {
                "baseColorFactor": [
                    0.501960813999176,
                    0.501960813999176,
                    0.501960813999176,
                    1.0
                ],
                "metallicFactor": 0.0
            }
        },
        {
            "doubleSided": true,
            "name": "0.498039_0.498039_0.498039_0.000000_0.000000",
            "pbrMetallicRoughness": {
                "baseColorFactor": [
                    0.49803921580314636,
                    0.49803921580314636,
                    0.49803921580314636,
                    1.0
                ],
                "metallicFactor": 0.0
            }
        },
        {
            "doubleSided": true,
            "name": "0.000000_0.000000_0.000000_0.000000_0.000000",
            "pbrMetallicRoughness": {
                "baseColorFactor": [
                    0.0,
                    0.0,
                    0.0,
                    1.0
                ],
                "metallicFactor": 0.0
            }
        },
        {
            "doubleSided": true,
            "name": "0.752941_0.752941_0.752941_0.000000_0.000000",
            "pbrMetallicRoughness": {
                "baseColorFactor": [
                    0.7529411911964417,
                    0.7529411911964417,
                    0.7529411911964417,
                    1.0
                ],
                "metallicFactor": 0.0
            }
        },
        {
            "doubleSided": true,
            "name": "0.250980_0.250980_0.250980_0.000000_0.000000",
            "pbrMetallicRoughness": {
                "baseColorFactor": [
                    0.250980406999588,
                    0.250980406999588,
                    0.250980406999588,
                    1.0
                ],
                "metallicFactor": 0.0
            }
        },
        {
            "doubleSided": true,
            "name": "0.796078_0.823529_0.937255_0.000000_0.000000",
            "pbrMetallicRoughness": {
                "baseColorFactor": [
                    0.7960784435272217,
                    0.8235294222831726,
                    0.9372549057006836,
                    1.0
                ],
                "metallicFactor": 0.0
            }
        },
        {
            "doubleSided": true,
            "name": "0.117647_0.117647_0.117647_0.000000_0.000000",
            "pbrMetallicRoughness": {
                "baseColorFactor": [
                    0.11764705926179886,
                    0.11764705926179886,
                    0.11764705926179886,
                    1.0
                ],
                "metallicFactor": 0.0
            }
        },
        {
            "doubleSided": true,
            "name": "0.600000_0.600000_0.600000_0.000000_0.000000",
            "pbrMetallicRoughness": {
                "baseColorFactor": [
                    0.6000000238418579,
                    0.6000000238418579,
                    0.6000000238418579,
                    1.0
                ],
                "metallicFactor": 0.0
            }
        },
        {
            "doubleSided": true,
            "name": "0.262745_0.282353_0.301961_0.000000_0.000000",
            "pbrMetallicRoughness": {
                "baseColorFactor": [
                    0.26274511218070984,
                    0.2823529541492462,
                    0.3019607961177826,
                    1.0
                ],
                "metallicFactor": 0.0
            }
        },
        {
            "doubleSided": true,
            "name": "0.792157_0.819608_0.933333_0.000000_0.000000",
            "pbrMetallicRoughness": {
                "baseColorFactor": [
                    0.7921568751335144,
                    0.8196078538894653,
                    0.9333333373069763,
                    1.0
                ],
                "metallicFactor": 0.0
            }
        },
        {
            "doubleSided": true,
            "name": "0.647059_0.647059_0.647059_0.000000_0.000000",
            "pbrMetallicRoughness": {
                "baseColorFactor": [
                    0.6470588445663452,
                    0.6470588445663452,
                    0.6470588445663452,
                    1.0
                ],
                "metallicFactor": 0.0
            }
        },
        {
            "doubleSided": true,
            "name": "0.349020_0.376471_0.400000_0.000000_0.000000",
            "pbrMetallicRoughness": {
                "baseColorFactor": [
                    0.3490196168422699,
                    0.3764705955982208,
                    0.4000000059604645,
                    1.0
                ],
                "metallicFactor": 0.0
            }
        },
        {
            "doubleSided": true,
            "name": "0.298039_0.298039_0.298039_0.000000_0.000000",
            "pbrMetallicRoughness": {
                "baseColorFactor": [
                    0.2980392277240753,
                    0.2980392277240753,
                    0.2980392277240753,
                    1.0
                ],
                "metallicFactor": 0.0
            }
        },
        {
            "doubleSided": true,
            "name": "0.098039_0.098039_0.098039_0.000000_0.000000",
            "pbrMetallicRoughness": {
                "baseColorFactor": [
                    0.09803921729326248,
                    0.09803921729326248,
                    0.09803921729326248,
                    1.0
                ],
                "metallicFactor": 0.0
            }
        },
        {
            "doubleSided": true,
            "name": "0.639216_0.666667_0.678431_0.000000_0.000000",
            "pbrMetallicRoughness": {
                "baseColorFactor": [
                    0.6392157077789307,
                    0.6666666865348816,
                    0.6784313917160034,
                    1.0
                ],
                "metallicFactor": 0.0
            }
        },
        {
            "doubleSided": true,
            "name": "0.905882_0.427451_0.000000_0.000000_0.000000",
            "pbrMetallicRoughness": {
                "baseColorFactor": [
                    0.9058823585510254,
                    0.4274509847164154,
                    0.0,
                    1.0
                ],
                "metallicFactor": 0.0
            }
        },
        {
            "doubleSided": true,
            "name": "1.000000_1.000000_1.000000_0.000000_0.000000",
            "pbrMetallicRoughness": {
                "metallicFactor": 0.0
            }
        },
        {
            "doubleSided": true,
            "name": "0.968627_0.878431_0.600000_0.000000_0.000000",
            "pbrMetallicRoughness": {
                "baseColorFactor": [
                    0.9686274528503418,
                    0.8784313797950745,
                    0.6000000238418579,
                    1.0
                ],
                "metallicFactor": 0.0
            }
        },
        {
            "doubleSided": true,
            "name": "0.196078_0.196078_0.196078_0.000000_0.000000",
            "pbrMetallicRoughness": {
                "baseColorFactor": [
                    0.19607843458652496,
                    0.19607843458652496,
                    0.19607843458652496,
                    1.0
                ],
                "metallicFactor": 0.0
            }
        },
        {
            "doubleSided": true,
            "name": "0.768627_0.886275_0.952941_0.000000_0.000000",
            "pbrMetallicRoughness": {
                "baseColorFactor": [
                    0.7686274647712708,
                    0.886274516582489,
                    0.9529411792755127,
                    1.0
                ],
                "metallicFactor": 0.0
            }
        },
        {
            "doubleSided": true,
            "name": "0.941176_0.941176_0.941176_0.000000_0.000000",
            "pbrMetallicRoughness": {
                "baseColorFactor": [
                    0.9411764740943909,
                    0.9411764740943909,
                    0.9411764740943909,
                    1.0
                ],
                "metallicFactor": 0.0
            }
        },
        {
            "doubleSided": true,
            "name": "0.066667_0.003922_0.592157_0.000000_0.000000",
            "pbrMetallicRoughness": {
                "baseColorFactor": [
                    0.06666667014360428,
                    0.003921568859368563,
                    0.5921568870544434,
                    1.0
                ],
                "metallicFactor": 0.0
            }
        },
        {
            "doubleSided": true,
            "name": "0.843137_0.815686_0.752941_0.000000_0.000000",
            "pbrMetallicRoughness": {
                "baseColorFactor": [
                    0.843137264251709,
                    0.8156862854957581,
                    0.7529411911964417,
                    1.0
                ],
                "metallicFactor": 0.0
            }
        },
        {
            "doubleSided": true,
            "name": "0.615686_0.811765_0.929412_0.000000_0.000000",
            "pbrMetallicRoughness": {
                "baseColorFactor": [
                    0.615686297416687,
                    0.8117647171020508,
                    0.929411768913269,
                    1.0
                ],
                "metallicFactor": 0.0
            }
        },
        {
            "doubleSided": true,
            "name": "0.945098_0.364706_0.184314_0.000000_0.000000",
            "pbrMetallicRoughness": {
                "baseColorFactor": [
                    0.9450980424880981,
                    0.364705890417099,
                    0.18431372940540314,
                    1.0
                ],
                "metallicFactor": 0.0
            }
        },
        {
            "doubleSided": true,
            "name": "0.796078_0.823529_0.933333_0.000000_0.000000",
            "pbrMetallicRoughness": {
                "baseColorFactor": [
                    0.7960784435272217,
                    0.8235294222831726,
                    0.9333333373069763,
                    1.0
                ],
                "metallicFactor": 0.0
            }
        },
        {
            "doubleSided": true,
            "name": "1.000000_0.937255_0.678431_0.000000_0.000000",
            "pbrMetallicRoughness": {
                "baseColorFactor": [
                    1.0,
                    0.9372549057006836,
                    0.6784313917160034,
                    1.0
                ],
                "metallicFactor": 0.0
            }
        },
        {
            "doubleSided": true,
            "name": "0.949020_0.760784_0.180392_0.000000_0.000000",
            "pbrMetallicRoughness": {
                "baseColorFactor": [
                    0.9490196108818054,
                    0.7607843279838562,
                    0.18039216101169586,
                    1.0
                ],
                "metallicFactor": 0.0
            }
        },
        {
            "doubleSided": true,
            "name": "0.701961_0.701961_0.701961_0.000000_0.000000",
            "pbrMetallicRoughness": {
                "baseColorFactor": [
                    0.7019608020782471,
                    0.7019608020782471,
                    0.7019608020782471,
                    1.0
                ],
                "metallicFactor": 0.0
            }
        }
    ],
    "meshes": [
        {
            "name": "mesh1856_mesh",
            "primitives": [
                {
                    "attributes": {
                        "NORMAL": 1,
                        "POSITION": 0
                    },
                    "indices": 2,
                    "material": 8
                }
            ]
        },
        {
            "name": "mesh1857_mesh",
            "primitives": [
                {
                    "attributes": {
                        "NORMAL": 4,
                        "POSITION": 3
                    },
                    "indices": 5,
                    "material": 8
                }
            ]
        },
        {
            "name": "mesh1858_mesh",
            "primitives": [
                {
                    "attributes": {
                        "NORMAL": 7,
                        "POSITION": 6
                    },
                    "indices": 8,
                    "material": 8
                }
            ]
        },
        {
            "name": "mesh1859_mesh",
            "primitives": [
                {
                    "attributes": {
                        "NORMAL": 10,
                        "POSITION": 9
                    },
                    "indices": 11,
                    "material": 8
                }
            ]
        },
        {
            "name": "mesh1860_mesh",
            "primitives": [
                {
                    "attributes": {
                        "NORMAL": 13,
                        "POSITION": 12
                    },
                    "indices": 14,
                    "material": 8
                }
            ]
        },
        {
            "name": "mesh1861_mesh",
            "primitives": [
                {
                    "attributes": {
                        "NORMAL": 16,
                        "POSITION": 15
                    },
                    "indices": 17,
                    "material": 8
                }
            ]
        },
        {
            "name": "mesh1862_mesh",
            "primitives": [
                {
                    "attributes": {
                        "NORMAL": 19,
                        "POSITION": 18
                    },
                    "indices": 20,
                    "material": 8
                }
            ]
        },
        {
            "name": "mesh1863_mesh",
            "primitives": [
                {
                    "attributes": {
                        "NORMAL": 22,
                        "POSITION": 21
                    },
                    "indices": 23,
                    "material": 8
                }
            ]
        },
        {
            "name": "mesh1864_mesh",
            "primitives": [
                {
                    "attributes": {
                        "NORMAL": 25,
                        "POSITION": 24
                    },
                    "indices": 26,
                    "material": 8
                }
            ]
        },
        {
            "name": "mesh1865_mesh",
            "primitives": [
                {
                    "attributes": {
                        "NORMAL": 28,
                        "POSITION": 27
                    },
                    "indices": 29,
                    "material": 8
                }
            ]
        },
        {
            "name": "mesh1866_mesh",
            "primitives": [
                {
                    "attributes": {
                        "NORMAL": 31,
                        "POSITION": 30
                    },
                    "indices": 32,
                    "material": 8
                }
            ]
        },
        {
            "name": "mesh1867_mesh",
            "primitives": [
                {
                    "attributes": {
                        "NORMAL": 34,
                        "POSITION": 33
                    },
                    "indices": 35,
                    "material": 8
                }
            ]
        },
        {
            "name": "mesh1868_mesh",
            "primitives": [
                {
                    "attributes": {
                        "NORMAL": 37,
                        "POSITION": 36
                    },
                    "indices": 38,
                    "material": 8
                }
            ]
        },
        {
            "name": "mesh1869_mesh",
            "primitives": [
                {
                    "attributes": {
                        "NORMAL": 40,
                        "POSITION": 39
                    },
                    "indices": 41,
                    "material": 8
                }
            ]
        },
        {
            "name": "mesh1870_mesh",
            "primitives": [
                {
                    "attributes": {
                        "NORMAL": 43,
                        "POSITION": 42
                    },
                    "indices": 44,
                    "material": 8
                }
            ]
        },
        {
            "name": "mesh1871_mesh",
            "primitives": [
                {
                    "attributes": {
                        "NORMAL": 46,
                        "POSITION": 45
                    },
                    "indices": 47,
                    "material": 8
                }
            ]
        },
        {
            "name": "mesh1872_mesh",
            "primitives": [
                {
                    "attributes": {
                        "NORMAL": 49,
                        "POSITION": 48
                    },
                    "indices": 50,
                    "material": 8
                }
            ]
        },
        {
            "name": "mesh1873_mesh",
            "primitives": [
                {
                    "attributes": {
                        "NORMAL": 52,
                        "POSITION": 51
                    },
                    "indices": 53,
                    "material": 8
                }
            ]
        },
        {
            "name": "mesh1874_mesh",
            "primitives": [
                {
                    "attributes": {
                        "NORMAL": 55,
                        "POSITION": 54
                    },
                    "indices": 56,
                    "material": 8
                }
            ]
        },
        {
            "name": "mesh1875_mesh",
            "primitives": [
                {
                    "attributes": {
                        "NORMAL": 58,
                        "POSITION": 57
                    },
                    "indices": 59,
                    "material": 8
                }
            ]
        },
        {
            "name": "mesh1876_mesh",
            "primitives": [
                {
                    "attributes": {
                        "NORMAL": 61,
                        "POSITION": 60
                    },
                    "indices": 62,
                    "material": 8
                }
            ]
        },
        {
            "name": "mesh1877_mesh",
            "primitives": [
                {
                    "attributes": {
                        "NORMAL": 64,
                        "POSITION": 63
                    },
                    "indices": 65,
                    "material": 8
                }
            ]
        },
        {
            "name": "mesh1878_mesh",
            "primitives": [
                {
                    "attributes": {
                        "NORMAL": 67,
                        "POSITION": 66
                    },
                    "indices": 68,
                    "material": 8
                }
            ]
        },
        {
            "name": "mesh1879_mesh",
            "primitives": [
                {
                    "attributes": {
                        "NORMAL": 70,
                        "POSITION": 69
                    },
                    "indices": 71,
                    "material": 8
                }
            ]
        },
        {
            "name": "mesh1880_mesh",
            "primitives": [
                {
                    "attributes": {
                        "NORMAL": 73,
                        "POSITION": 72
                    },
                    "indices": 74,
                    "material": 8
                }
            ]
        },
        {
            "name": "mesh1881_mesh",
            "primitives": [
                {
                    "attributes": {
                        "NORMAL": 76,
                        "POSITION": 75
                    },
                    "indices": 77,
                    "material": 8
                }
            ]
        },
        {
            "name": "mesh1882_mesh",
            "primitives": [
                {
                    "attributes": {
                        "NORMAL": 79,
                        "POSITION": 78
                    },
                    "indices": 80,
                    "material": 8
                }
            ]
        }
    ],
    "nodes": [
        {
            "mesh": 0,
            "name": "mesh1856"
        },
        {
            "mesh": 1,
            "name": "mesh1857"
        },
        {
            "mesh": 2,
            "name": "mesh1858"
        },
        {
            "mesh": 3,
            "name": "mesh1859"
        },
        {
            "mesh": 4,
            "name": "mesh1860"
        },
        {
            "mesh": 5,
            "name": "mesh1861"
        },
        {
            "mesh": 6,
            "name": "mesh1862"
        },
        {
            "mesh": 7,
            "name": "mesh1863"
        },
        {
            "mesh": 8,
            "name": "mesh1864"
        },
        {
            "mesh": 9,
            "name": "mesh1865"
        },
        {
            "mesh": 10,
            "name": "mesh1866"
        },
        {
            "mesh": 11,
            "name": "mesh1867"
        },
        {
            "mesh": 12,
            "name": "mesh1868"
        },
        {
            "mesh": 13,
            "name": "mesh1869"
        },
        {
            "mesh": 14,
            "name": "mesh1870"
        },
        {
            "mesh": 15,
            "name": "mesh1871"
        },
        {
            "mesh": 16,
            "name": "mesh1872"
        },
        {
            "mesh": 17,
            "name": "mesh1873"
        },
        {
            "mesh": 18,
            "name": "mesh1874"
        },
        {
            "mesh": 19,
            "name": "mesh1875"
        },
        {
            "mesh": 20,
            "name": "mesh1876"
        },
        {
            "mesh": 21,
            "name": "mesh1877"
        },
        {
            "mesh": 22,
            "name": "mesh1878"
        },
        {
            "mesh": 23,
            "name": "mesh1879"
        },
        {
            "mesh": 24,
            "name": "mesh1880"
        },
        {
            "mesh": 25,
            "name": "mesh1881"
        },
        {
            "mesh": 26,
            "name": "mesh1882"
        }
    ],
    "scene": 0,
    "scenes": [
        {
            "name": "Root",
            "nodes": [
                0,
                1,
                2,
                3,
                4,
                5,
                6,
                7,
                8,
                9,
                10,
                11,
                12,
                13,
                14,
                15,
                16,
                17,
                18,
                19,
                20,
                21,
                22,
                23,
                24,
                25,
                26
            ]
        }
    ]
}