# https://github.com/mikedh/trimesh
mtllib material.mtl
usemtl 0.600000_0.600000_0.600000_0.000000_0.000000
v 0.00000000 -0.02000000 -0.04200000
v 0.03050000 -0.02000000 -0.04200000
v 0.03011732 -0.01992388 -0.04161732
v 0.00000000 -0.01992388 -0.04161732
v 0.02979289 -0.01970711 -0.04129289
v 0.00000000 -0.01970711 -0.04129289
v 0.02966853 -0.01955557 -0.04116853
v 0.02957612 -0.01938268 -0.04107612
v 0.00000000 -0.01938268 -0.04107612
v 0.02951922 -0.01919509 -0.04101922
v 0.02950000 -0.01900000 -0.04100000
v 0.00000000 -0.01900000 -0.04100000
v 0.00000000 -0.00061732 -0.04107612
v 0.00000000 -0.00100000 -0.04100000
v 0.02950000 -0.00100000 -0.04100000
v 0.02951922 -0.00080491 -0.04101922
v 0.00000000 -0.00029289 -0.04129289
v 0.02957612 -0.00061732 -0.04107612
v 0.02966853 -0.00044443 -0.04116853
v 0.00000000 -0.00007612 -0.04161732
v 0.02979289 -0.00029289 -0.04129289
v 0.00000000 0.00000000 -0.04200000
v 0.03011732 -0.00007612 -0.04161732
v 0.03050000 0.00000000 -0.04200000
v 0.02950000 -0.00100000 -0.04100000
v 0.00000000 -0.00100000 -0.04100000
v 0.00000000 -0.01900000 -0.04100000
v 0.02950000 -0.01900000 -0.04100000
v 0.02950000 -0.01900000 -0.04100000
v 0.02950000 -0.01900000 -0.02100000
v 0.02950000 -0.00100000 -0.02100000
v 0.02950000 -0.00100000 -0.04100000
v 0.00000000 0.00000000 -0.04200000
v 0.00000000 0.00000000 -0.06200000
v -0.00000000 -0.00775000 -0.05550000
v 0.00000000 -0.00913896 -0.05342127
v 0.00000000 -0.00007612 -0.04161732
v -0.00000000 -0.00792127 -0.05636104
v 0.00000000 -0.01086104 -0.05342127
v 0.00000000 -0.01159099 -0.05390901
v 0.00000000 -0.02000000 -0.04200000
v 0.00000000 -0.00029289 -0.04129289
v 0.00000000 -0.00100000 -0.04100000
v 0.00000000 -0.00061732 -0.04107612
v -0.00000000 -0.00840901 -0.05709099
v 0.00000000 -0.02000000 -0.06200000
v -0.00000000 -0.01000000 -0.05775000
v -0.00000000 -0.01159099 -0.05709099
v -0.00000000 -0.01086104 -0.05757873
v -0.00000000 -0.01225000 -0.05550000
v -0.00000000 -0.01207873 -0.05636104
v 0.00000000 -0.01207873 -0.05463896
v 0.00000000 -0.01970711 -0.04129289
v 0.00000000 -0.01938268 -0.04107612
v 0.00000000 -0.01992388 -0.04161732
v 0.00000000 -0.01000000 -0.05325000
v 0.00000000 -0.00792127 -0.05463896
v -0.00000000 -0.00913896 -0.05757873
v 0.00000000 -0.00840901 -0.05390901
v 0.00000000 -0.01900000 -0.04100000
v 0.03050000 0.00000000 -0.02000000
v 0.03050000 0.00000000 -0.04200000
v 0.03011732 -0.00007612 -0.04161732
v 0.03011732 -0.00007612 -0.02038268
v 0.02979289 -0.00029289 -0.04129289
v 0.02966853 -0.00044443 -0.02083147
v 0.02966853 -0.00044443 -0.04116853
v 0.02957612 -0.00061732 -0.04107612
v 0.02957612 -0.00061732 -0.02092388
v 0.02951922 -0.00080491 -0.04101922
v 0.02950000 -0.00100000 -0.04100000
v 0.02950000 -0.00100000 -0.02100000
v 0.02951922 -0.00080491 -0.02098078
v 0.02979289 -0.00029289 -0.02070711
v 0.03050000 0.00000000 -0.02000000
v 0.00000000 0.00000000 -0.02000000
v 0.00600000 0.00000000 -0.01700000
v 0.00523463 0.00000000 -0.01684776
v 0.00458579 0.00000000 -0.01641421
v 0.00000000 0.00000000 0.00000000
v 0.00400000 0.00000000 0.00000000
v 0.00400000 0.00000000 -0.01500000
v 0.00000000 0.00000000 -0.06200000
v 0.00000000 0.00000000 -0.04200000
v 0.00400000 0.00000000 -0.04700000
v 0.03050000 0.00000000 -0.04200000
v 0.03350000 0.00000000 -0.04500000
v 0.00600000 0.00000000 -0.04500000
v 0.00415224 0.00000000 -0.01576537
v 0.00415224 0.00000000 -0.04623463
v 0.00458579 0.00000000 -0.04558579
v 0.00523463 0.00000000 -0.04515224
v 0.03350000 0.00000000 -0.01700000
v 0.00400000 0.00000000 -0.06200000
v 0.00000000 0.00000000 -0.02000000
v 0.03050000 0.00000000 -0.02000000
v 0.03011732 -0.00007612 -0.02038268
v 0.00000000 -0.00007612 -0.02038268
v 0.02979289 -0.00029289 -0.02070711
v 0.00000000 -0.00029289 -0.02070711
v 0.02966853 -0.00044443 -0.02083147
v 0.02957612 -0.00061732 -0.02092388
v 0.00000000 -0.00061732 -0.02092388
v 0.02951922 -0.00080491 -0.02098078
v 0.02950000 -0.00100000 -0.02100000
v 0.00000000 -0.00100000 -0.02100000
v 0.02951922 -0.01919509 -0.04101922
v 0.02951922 -0.01919509 -0.02098078
v 0.02950000 -0.01900000 -0.02100000
v 0.02957612 -0.01938268 -0.02092388
v 0.02950000 -0.01900000 -0.04100000
v 0.02966853 -0.01955557 -0.02083147
v 0.02957612 -0.01938268 -0.04107612
v 0.02966853 -0.01955557 -0.04116853
v 0.02979289 -0.01970711 -0.04129289
v 0.02979289 -0.01970711 -0.02070711
v 0.03011732 -0.01992388 -0.04161732
v 0.03011732 -0.01992388 -0.02038268
v 0.03050000 -0.02000000 -0.04200000
v 0.03050000 -0.02000000 -0.02000000
v 0.02950000 -0.01900000 -0.02100000
v 0.00000000 -0.01900000 -0.02100000
v 0.00000000 -0.00100000 -0.02100000
v 0.02950000 -0.00100000 -0.02100000
v 0.00000000 -0.01159099 -0.00809099
v 0.00000000 -0.01938268 -0.02092388
v 0.00000000 -0.01970711 -0.02070711
v 0.00000000 -0.00913896 -0.00857873
v 0.00000000 -0.00007612 -0.02038268
v 0.00000000 -0.00029289 -0.02070711
v 0.00000000 -0.01992388 -0.02038268
v 0.00000000 -0.01086104 -0.00857873
v 0.00000000 -0.01900000 -0.02100000
v 0.00000000 0.00000000 0.00000000
v -0.00000000 -0.00913896 -0.00442127
v -0.00000000 -0.01000000 -0.00425000
v 0.00000000 -0.00061732 -0.02092388
v 0.00000000 -0.00840901 -0.00809099
v 0.00000000 0.00000000 -0.02000000
v 0.00000000 -0.00100000 -0.02100000
v 0.00000000 -0.01000000 -0.00875000
v -0.00000000 -0.00840901 -0.00490901
v 0.00000000 -0.02000000 -0.02000000
v 0.00000000 -0.01207873 -0.00736104
v -0.00000000 -0.00792127 -0.00563896
v 0.00000000 -0.00792127 -0.00736104
v -0.00000000 -0.00775000 -0.00650000
v 0.00000000 -0.02000000 0.00000000
v -0.00000000 -0.01225000 -0.00650000
v -0.00000000 -0.01159099 -0.00490901
v -0.00000000 -0.01207873 -0.00563896
v -0.00000000 -0.01086104 -0.00442127
v 0.00000000 -0.01938268 -0.02092388
v 0.00000000 -0.01900000 -0.02100000
v 0.02950000 -0.01900000 -0.02100000
v 0.02951922 -0.01919509 -0.02098078
v 0.00000000 -0.01970711 -0.02070711
v 0.02957612 -0.01938268 -0.02092388
v 0.02966853 -0.01955557 -0.02083147
v 0.00000000 -0.01992388 -0.02038268
v 0.02979289 -0.01970711 -0.02070711
v 0.00000000 -0.02000000 -0.02000000
v 0.03011732 -0.01992388 -0.02038268
v 0.03050000 -0.02000000 -0.02000000
v 0.00000000 -0.02000000 0.00000000
v 0.00000000 -0.02000000 -0.02000000
v 0.00400000 -0.02000000 -0.01500000
v 0.00415224 -0.02000000 -0.01576537
v 0.03050000 -0.02000000 -0.04200000
v 0.00000000 -0.02000000 -0.04200000
v 0.00600000 -0.02000000 -0.04500000
v 0.00000000 -0.02000000 -0.06200000
v 0.00400000 -0.02000000 -0.06200000
v 0.00400000 -0.02000000 -0.04700000
v 0.00458579 -0.02000000 -0.01641421
v 0.03050000 -0.02000000 -0.02000000
v 0.03350000 -0.02000000 -0.01700000
v 0.00600000 -0.02000000 -0.01700000
v 0.00523463 -0.02000000 -0.04515224
v 0.00523463 -0.02000000 -0.01684776
v 0.00458579 -0.02000000 -0.04558579
v 0.00415224 -0.02000000 -0.04623463
v 0.03350000 -0.02000000 -0.04500000
v 0.00400000 -0.02000000 0.00000000
v 0.00500000 -0.01086104 -0.05757873
v 0.00500000 -0.01000000 -0.05775000
v -0.00000000 -0.01000000 -0.05775000
v 0.00500000 -0.01159099 -0.05709099
v -0.00000000 -0.01086104 -0.05757873
v 0.00500000 -0.01207873 -0.05636104
v -0.00000000 -0.01159099 -0.05709099
v 0.00500000 -0.01225000 -0.05550000
v -0.00000000 -0.01207873 -0.05636104
v 0.00500000 -0.01207873 -0.05463896
v -0.00000000 -0.01225000 -0.05550000
v 0.00500000 -0.01159099 -0.05390901
v 0.00000000 -0.01207873 -0.05463896
v 0.00500000 -0.01086104 -0.05342127
v 0.00000000 -0.01159099 -0.05390901
v 0.00500000 -0.01000000 -0.05325000
v 0.00000000 -0.01086104 -0.05342127
v 0.00500000 -0.00913896 -0.05342127
v 0.00000000 -0.01000000 -0.05325000
v 0.00500000 -0.00840901 -0.05390901
v 0.00000000 -0.00913896 -0.05342127
v 0.00500000 -0.00792127 -0.05463896
v 0.00000000 -0.00840901 -0.05390901
v 0.00500000 -0.00775000 -0.05550000
v 0.00000000 -0.00792127 -0.05463896
v 0.00500000 -0.00792127 -0.05636104
v -0.00000000 -0.00775000 -0.05550000
v 0.00500000 -0.00840901 -0.05709099
v -0.00000000 -0.00792127 -0.05636104
v 0.00500000 -0.00913896 -0.05757873
v -0.00000000 -0.00840901 -0.05709099
v -0.00000000 -0.00913896 -0.05757873
v 0.00000000 -0.02000000 -0.06200000
v 0.00000000 0.00000000 -0.06200000
v 0.00400000 0.00000000 -0.06200000
v 0.00400000 -0.02000000 -0.06200000
v 0.00492388 -0.01938268 -0.06138268
v 0.00492388 -0.00061732 -0.06138268
v 0.00500000 -0.00100000 -0.06100000
v 0.00470711 -0.01970711 -0.06170711
v 0.00470711 -0.00029289 -0.06170711
v 0.00455557 -0.00016853 -0.06183147
v 0.00455557 -0.01983147 -0.06183147
v 0.00438268 -0.01992388 -0.06192388
v 0.00438268 -0.00007612 -0.06192388
v 0.00419509 -0.01998078 -0.06198078
v 0.00419509 -0.00001921 -0.06198078
v 0.00400000 -0.02000000 -0.06200000
v 0.00400000 0.00000000 -0.06200000
v 0.00500000 -0.01900000 -0.06100000
v 0.00500000 -0.00100000 -0.04700000
v 0.00500000 -0.00792127 -0.05463896
v 0.00500000 -0.00775000 -0.05550000
v 0.00500000 -0.00100000 -0.06100000
v 0.00500000 -0.01900000 -0.06100000
v 0.00500000 -0.01000000 -0.05775000
v 0.00500000 -0.00792127 -0.05636104
v 0.00500000 -0.01900000 -0.04700000
v 0.00500000 -0.01225000 -0.05550000
v 0.00500000 -0.01159099 -0.05709099
v 0.00500000 -0.01207873 -0.05636104
v 0.00500000 -0.01086104 -0.05757873
v 0.00500000 -0.00840901 -0.05709099
v 0.00500000 -0.00913896 -0.05757873
v 0.00500000 -0.00840901 -0.05390901
v 0.00500000 -0.01000000 -0.05325000
v 0.00500000 -0.01207873 -0.05463896
v 0.00500000 -0.00913896 -0.05342127
v 0.00500000 -0.01159099 -0.05390901
v 0.00500000 -0.01086104 -0.05342127
v 0.00400000 -0.02000000 -0.04700000
v 0.00419509 -0.01998078 -0.06198078
v 0.00438268 -0.01992388 -0.06192388
v 0.00400000 -0.02000000 -0.06200000
v 0.00438268 -0.01992388 -0.04700000
v 0.00455557 -0.01983147 -0.06183147
v 0.00470711 -0.01970711 -0.06170711
v 0.00470711 -0.01970711 -0.04700000
v 0.00492388 -0.01938268 -0.06138268
v 0.00492388 -0.01938268 -0.04700000
v 0.00500000 -0.01900000 -0.06100000
v 0.00500000 -0.01900000 -0.04700000
v 0.00600000 -0.01992388 -0.04538268
v 0.00600000 -0.02000000 -0.04500000
v 0.00523463 -0.02000000 -0.04515224
v 0.00538108 -0.01992388 -0.04550580
v 0.00458579 -0.02000000 -0.04558579
v 0.00485638 -0.01992388 -0.04585638
v 0.00415224 -0.02000000 -0.04623463
v 0.00450579 -0.01992388 -0.04638108
v 0.00400000 -0.02000000 -0.04700000
v 0.00600000 -0.01970711 -0.04570711
v 0.00550523 -0.01970711 -0.04580552
v 0.00508579 -0.01970711 -0.04608579
v 0.00480552 -0.01970711 -0.04650523
v 0.00438268 -0.01992388 -0.04700000
v 0.00600000 -0.01938268 -0.04592388
v 0.00558819 -0.01938268 -0.04600579
v 0.00523907 -0.01938268 -0.04623907
v 0.00500579 -0.01938268 -0.04658819
v 0.00470711 -0.01970711 -0.04700000
v 0.00600000 -0.01900000 -0.04600000
v 0.00561732 -0.01900000 -0.04607612
v 0.00529289 -0.01900000 -0.04629289
v 0.00507612 -0.01900000 -0.04661732
v 0.00492388 -0.01938268 -0.04700000
v 0.00500000 -0.01900000 -0.04700000
v 0.00492388 -0.00061732 -0.04700000
v 0.00500000 -0.00100000 -0.04700000
v 0.00500000 -0.00100000 -0.06100000
v 0.00470711 -0.00029289 -0.04700000
v 0.00492388 -0.00061732 -0.06138268
v 0.00438268 -0.00007612 -0.04700000
v 0.00470711 -0.00029289 -0.06170711
v 0.00455557 -0.00016853 -0.06183147
v 0.00400000 0.00000000 -0.04700000
v 0.00438268 -0.00007612 -0.06192388
v 0.00419509 -0.00001921 -0.06198078
v 0.00400000 0.00000000 -0.06200000
v 0.00507612 -0.01900000 -0.04661732
v 0.00500000 -0.01900000 -0.04700000
v 0.00500000 -0.00100000 -0.04700000
v 0.00529289 -0.01900000 -0.04629289
v 0.00507612 -0.00100000 -0.04661732
v 0.00561732 -0.01900000 -0.04607612
v 0.00529289 -0.00100000 -0.04629289
v 0.00600000 -0.01900000 -0.04600000
v 0.00561732 -0.00100000 -0.04607612
v 0.00600000 -0.00100000 -0.04600000
v 0.00600000 -0.01900000 -0.04600000
v 0.03350000 -0.01900000 -0.04600000
v 0.03350000 -0.01938268 -0.04592388
v 0.00600000 -0.01938268 -0.04592388
v 0.03350000 -0.01970711 -0.04570711
v 0.00600000 -0.01970711 -0.04570711
v 0.03350000 -0.01992388 -0.04538268
v 0.00600000 -0.01992388 -0.04538268
v 0.03350000 -0.02000000 -0.04500000
v 0.00600000 -0.02000000 -0.04500000
v 0.00600000 -0.00061732 -0.04592388
v 0.00600000 -0.00100000 -0.04600000
v 0.00561732 -0.00100000 -0.04607612
v 0.00558819 -0.00061732 -0.04600579
v 0.00529289 -0.00100000 -0.04629289
v 0.00523907 -0.00061732 -0.04623907
v 0.00507612 -0.00100000 -0.04661732
v 0.00500579 -0.00061732 -0.04658819
v 0.00500000 -0.00100000 -0.04700000
v 0.00600000 -0.00029289 -0.04570711
v 0.00550523 -0.00029289 -0.04580552
v 0.00508579 -0.00029289 -0.04608579
v 0.00480552 -0.00029289 -0.04650523
v 0.00492388 -0.00061732 -0.04700000
v 0.00600000 -0.00007612 -0.04538268
v 0.00538108 -0.00007612 -0.04550580
v 0.00485638 -0.00007612 -0.04585638
v 0.00450579 -0.00007612 -0.04638108
v 0.00470711 -0.00029289 -0.04700000
v 0.00600000 0.00000000 -0.04500000
v 0.00523463 0.00000000 -0.04515224
v 0.00458579 0.00000000 -0.04558579
v 0.00415224 0.00000000 -0.04623463
v 0.00438268 -0.00007612 -0.04700000
v 0.00400000 0.00000000 -0.04700000
v 0.03350000 -0.00100000 -0.04600000
v 0.03350000 -0.01900000 -0.04600000
v 0.00600000 -0.01900000 -0.04600000
v 0.00600000 -0.00100000 -0.04600000
v 0.03388269 -0.01992388 -0.04500000
v 0.03350000 -0.02000000 -0.04500000
v 0.03350000 -0.01992388 -0.04538268
v 0.03388269 -0.01985355 -0.04535355
v 0.03350000 -0.01970711 -0.04570711
v 0.03388269 -0.01965328 -0.04565328
v 0.03350000 -0.01938268 -0.04592388
v 0.03388269 -0.01935355 -0.04585356
v 0.03350000 -0.01900000 -0.04600000
v 0.03420711 -0.01970711 -0.04500000
v 0.03420711 -0.01965328 -0.04527060
v 0.03420711 -0.01950000 -0.04550000
v 0.03420711 -0.01927060 -0.04565328
v 0.03388269 -0.01900000 -0.04592388
v 0.03442388 -0.01938268 -0.04500000
v 0.03442388 -0.01935355 -0.04514645
v 0.03442388 -0.01927060 -0.04527060
v 0.03442388 -0.01914645 -0.04535355
v 0.03420711 -0.01900000 -0.04570711
v 0.03450000 -0.01900000 -0.04500000
v 0.03442388 -0.01900000 -0.04538268
v 0.03350000 -0.00100000 -0.04600000
v 0.00600000 -0.00100000 -0.04600000
v 0.00600000 -0.00061732 -0.04592388
v 0.03350000 -0.00061732 -0.04592388
v 0.00600000 -0.00029289 -0.04570711
v 0.03350000 -0.00029289 -0.04570711
v 0.00600000 -0.00007612 -0.04538268
v 0.03350000 -0.00007612 -0.04538268
v 0.00600000 0.00000000 -0.04500000
v 0.03350000 0.00000000 -0.04500000
v 0.03442388 -0.00061732 -0.04500000
v 0.03450000 -0.00100000 -0.04500000
v 0.03442388 -0.00100000 -0.04538268
v 0.03435355 -0.00061732 -0.04535355
v 0.03420711 -0.00100000 -0.04570711
v 0.03415328 -0.00061732 -0.04565328
v 0.03388269 -0.00100000 -0.04592388
v 0.03385355 -0.00061732 -0.04585356
v 0.03350000 -0.00100000 -0.04600000
v 0.03420711 -0.00029289 -0.04500000
v 0.03415328 -0.00029289 -0.04527060
v 0.03400000 -0.00029289 -0.04550000
v 0.03377060 -0.00029289 -0.04565328
v 0.03350000 -0.00061732 -0.04592388
v 0.03388269 -0.00007612 -0.04500000
v 0.03385355 -0.00007612 -0.04514645
v 0.03377060 -0.00007612 -0.04527060
v 0.03364645 -0.00007612 -0.04535355
v 0.03350000 -0.00029289 -0.04570711
v 0.03350000 0.00000000 -0.04500000
v 0.03350000 -0.00007612 -0.04538268
v 0.03350000 -0.01900000 -0.04600000
v 0.03350000 -0.00100000 -0.04600000
v 0.03388269 -0.00100000 -0.04592388
v 0.03388269 -0.01900000 -0.04592388
v 0.03420711 -0.00100000 -0.04570711
v 0.03420711 -0.01900000 -0.04570711
v 0.03442388 -0.00100000 -0.04538268
v 0.03442388 -0.01900000 -0.04538268
v 0.03450000 -0.00100000 -0.04500000
v 0.03450000 -0.01900000 -0.04500000
v 0.03450000 -0.01900000 -0.04500000
v 0.03450000 -0.01900000 -0.01700000
v 0.03442388 -0.01938268 -0.01700000
v 0.03442388 -0.01938268 -0.04500000
v 0.03420711 -0.01970711 -0.01700000
v 0.03420711 -0.01970711 -0.04500000
v 0.03388269 -0.01992388 -0.01700000
v 0.03388269 -0.01992388 -0.04500000
v 0.03350000 -0.02000000 -0.01700000
v 0.03350000 -0.02000000 -0.04500000
v 0.03450000 -0.00100000 -0.01700000
v 0.03450000 -0.01900000 -0.01700000
v 0.03450000 -0.01900000 -0.04500000
v 0.03450000 -0.00100000 -0.04500000
v 0.03350000 -0.01992388 -0.01661732
v 0.03350000 -0.02000000 -0.01700000
v 0.03388269 -0.01992388 -0.01700000
v 0.03385355 -0.01985355 -0.01661732
v 0.03420711 -0.01970711 -0.01700000
v 0.03415328 -0.01965328 -0.01661732
v 0.03442388 -0.01938268 -0.01700000
v 0.03435355 -0.01935355 -0.01661732
v 0.03450000 -0.01900000 -0.01700000
v 0.03350000 -0.01970711 -0.01629289
v 0.03377060 -0.01965328 -0.01629289
v 0.03400000 -0.01950000 -0.01629289
v 0.03415328 -0.01927060 -0.01629289
v 0.03442388 -0.01900000 -0.01661732
v 0.03350000 -0.01938268 -0.01607612
v 0.03364645 -0.01935355 -0.01607612
v 0.03377060 -0.01927060 -0.01607612
v 0.03385355 -0.01914645 -0.01607612
v 0.03420711 -0.01900000 -0.01629289
v 0.03350000 -0.01900000 -0.01600000
v 0.03388269 -0.01900000 -0.01607612
v 0.03450000 -0.00100000 -0.01700000
v 0.03450000 -0.00100000 -0.04500000
v 0.03442388 -0.00061732 -0.04500000
v 0.03442388 -0.00061732 -0.01700000
v 0.03420711 -0.00029289 -0.04500000
v 0.03420711 -0.00029289 -0.01700000
v 0.03388269 -0.00007612 -0.04500000
v 0.03388269 -0.00007612 -0.01700000
v 0.03350000 0.00000000 -0.04500000
v 0.03350000 0.00000000 -0.01700000
v 0.03442388 -0.00100000 -0.01661732
v 0.03450000 -0.00100000 -0.01700000
v 0.03442388 -0.00061732 -0.01700000
v 0.03435355 -0.00064645 -0.01661732
v 0.03420711 -0.00029289 -0.01700000
v 0.03415328 -0.00034672 -0.01661732
v 0.03388269 -0.00007612 -0.01700000
v 0.03385355 -0.00014645 -0.01661732
v 0.03350000 0.00000000 -0.01700000
v 0.03420711 -0.00100000 -0.01629289
v 0.03415328 -0.00072940 -0.01629289
v 0.03400000 -0.00050000 -0.01629289
v 0.03377060 -0.00034672 -0.01629289
v 0.03350000 -0.00007612 -0.01661732
v 0.03388269 -0.00100000 -0.01607612
v 0.03385355 -0.00085355 -0.01607612
v 0.03377060 -0.00072940 -0.01607612
v 0.03364645 -0.00064645 -0.01607612
v 0.03350000 -0.00029289 -0.01629289
v 0.03350000 -0.00100000 -0.01600000
v 0.03350000 -0.00061732 -0.01607612
v 0.03350000 -0.00100000 -0.01600000
v 0.03350000 -0.01900000 -0.01600000
v 0.03388269 -0.01900000 -0.01607612
v 0.03388269 -0.00100000 -0.01607612
v 0.03420711 -0.01900000 -0.01629289
v 0.03420711 -0.00100000 -0.01629289
v 0.03442388 -0.01900000 -0.01661732
v 0.03442388 -0.00100000 -0.01661732
v 0.03450000 -0.01900000 -0.01700000
v 0.03450000 -0.00100000 -0.01700000
v 0.03350000 -0.01900000 -0.01600000
v 0.00600000 -0.01900000 -0.01600000
v 0.00600000 -0.01938268 -0.01607612
v 0.03350000 -0.01938268 -0.01607612
v 0.00600000 -0.01970711 -0.01629289
v 0.03350000 -0.01970711 -0.01629289
v 0.00600000 -0.01992388 -0.01661732
v 0.03350000 -0.01992388 -0.01661732
v 0.00600000 -0.02000000 -0.01700000
v 0.03350000 -0.02000000 -0.01700000
v 0.00600000 -0.00100000 -0.01600000
v 0.00600000 -0.01900000 -0.01600000
v 0.03350000 -0.01900000 -0.01600000
v 0.03350000 -0.00100000 -0.01600000
v 0.00438268 -0.01992388 -0.01500000
v 0.00400000 -0.02000000 -0.01500000
v 0.00415224 -0.02000000 -0.01576537
v 0.00450579 -0.01992388 -0.01561892
v 0.00458579 -0.02000000 -0.01641421
v 0.00485638 -0.01992388 -0.01614362
v 0.00523463 -0.02000000 -0.01684776
v 0.00538108 -0.01992388 -0.01649421
v 0.00600000 -0.02000000 -0.01700000
v 0.00470711 -0.01970711 -0.01500000
v 0.00480552 -0.01970711 -0.01549477
v 0.00508579 -0.01970711 -0.01591421
v 0.00550523 -0.01970711 -0.01619448
v 0.00600000 -0.01992388 -0.01661732
v 0.00492388 -0.01938268 -0.01500000
v 0.00500579 -0.01938268 -0.01541181
v 0.00523907 -0.01938268 -0.01576093
v 0.00558819 -0.01938268 -0.01599421
v 0.00600000 -0.01970711 -0.01629289
v 0.00500000 -0.01900000 -0.01500000
v 0.00507612 -0.01900000 -0.01538268
v 0.00529289 -0.01900000 -0.01570711
v 0.00561732 -0.01900000 -0.01592388
v 0.00600000 -0.01938268 -0.01607612
v 0.00600000 -0.01900000 -0.01600000
v 0.00600000 -0.00100000 -0.01600000
v 0.03350000 -0.00100000 -0.01600000
v 0.03350000 -0.00061732 -0.01607612
v 0.00600000 -0.00061732 -0.01607612
v 0.03350000 -0.00029289 -0.01629289
v 0.00600000 -0.00029289 -0.01629289
v 0.03350000 -0.00007612 -0.01661732
v 0.00600000 -0.00007612 -0.01661732
v 0.03350000 0.00000000 -0.01700000
v 0.00600000 0.00000000 -0.01700000
v 0.00561732 -0.01900000 -0.01592388
v 0.00600000 -0.01900000 -0.01600000
v 0.00600000 -0.00100000 -0.01600000
v 0.00529289 -0.01900000 -0.01570711
v 0.00561732 -0.00100000 -0.01592388
v 0.00507612 -0.01900000 -0.01538268
v 0.00529289 -0.00100000 -0.01570711
v 0.00500000 -0.01900000 -0.01500000
v 0.00507612 -0.00100000 -0.01538268
v 0.00500000 -0.00100000 -0.01500000
v 0.00492388 -0.01938268 -0.01500000
v 0.00500000 -0.01900000 -0.01500000
v 0.00500000 -0.01900000 -0.00100000
v 0.00470711 -0.01970711 -0.01500000
v 0.00492388 -0.01938268 -0.00061732
v 0.00438268 -0.01992388 -0.01500000
v 0.00470711 -0.01970711 -0.00029289
v 0.00455557 -0.01983147 -0.00016853
v 0.00400000 -0.02000000 -0.01500000
v 0.00438268 -0.01992388 -0.00007612
v 0.00419509 -0.01998078 -0.00001921
v 0.00400000 -0.02000000 0.00000000
v 0.00492388 -0.00061732 -0.01500000
v 0.00500000 -0.00100000 -0.01500000
v 0.00507612 -0.00100000 -0.01538268
v 0.00500579 -0.00061732 -0.01541181
v 0.00529289 -0.00100000 -0.01570711
v 0.00523907 -0.00061732 -0.01576093
v 0.00561732 -0.00100000 -0.01592388
v 0.00558819 -0.00061732 -0.01599421
v 0.00600000 -0.00100000 -0.01600000
v 0.00470711 -0.00029289 -0.01500000
v 0.00480552 -0.00029289 -0.01549477
v 0.00508579 -0.00029289 -0.01591421
v 0.00550523 -0.00029289 -0.01619448
v 0.00600000 -0.00061732 -0.01607612
v 0.00438268 -0.00007612 -0.01500000
v 0.00450579 -0.00007612 -0.01561892
v 0.00485638 -0.00007612 -0.01614362
v 0.00538108 -0.00007612 -0.01649421
v 0.00600000 -0.00029289 -0.01629289
v 0.00400000 0.00000000 -0.01500000
v 0.00415224 0.00000000 -0.01576537
v 0.00458579 0.00000000 -0.01641421
v 0.00523463 0.00000000 -0.01684776
v 0.00600000 -0.00007612 -0.01661732
v 0.00600000 0.00000000 -0.01700000
v 0.00400000 0.00000000 -0.01500000
v 0.00419509 -0.00001921 -0.00001921
v 0.00438268 -0.00007612 -0.00007612
v 0.00400000 0.00000000 0.00000000
v 0.00438268 -0.00007612 -0.01500000
v 0.00455557 -0.00016853 -0.00016853
v 0.00470711 -0.00029289 -0.00029289
v 0.00470711 -0.00029289 -0.01500000
v 0.00492388 -0.00061732 -0.00061732
v 0.00492388 -0.00061732 -0.01500000
v 0.00500000 -0.00100000 -0.00100000
v 0.00500000 -0.00100000 -0.01500000
v 0.00000000 0.00000000 0.00000000
v 0.00000000 -0.02000000 0.00000000
v 0.00400000 -0.02000000 0.00000000
v 0.00400000 0.00000000 0.00000000
v 0.00419509 -0.00001921 -0.00001921
v 0.00419509 -0.01998078 -0.00001921
v 0.00438268 -0.01992388 -0.00007612
v 0.00438268 -0.00007612 -0.00007612
v 0.00400000 0.00000000 0.00000000
v 0.00400000 -0.02000000 0.00000000
v 0.00455557 -0.00016853 -0.00016853
v 0.00455557 -0.01983147 -0.00016853
v 0.00470711 -0.01970711 -0.00029289
v 0.00470711 -0.00029289 -0.00029289
v 0.00492388 -0.01938268 -0.00061732
v 0.00500000 -0.01900000 -0.00100000
v 0.00500000 -0.00100000 -0.00100000
v 0.00492388 -0.00061732 -0.00061732
v 0.00500000 -0.00100000 -0.01500000
v 0.00500000 -0.00792127 -0.00736104
v 0.00500000 -0.00840901 -0.00809099
v 0.00500000 -0.00100000 -0.00100000
v 0.00500000 -0.00775000 -0.00650000
v 0.00500000 -0.00913896 -0.00442127
v 0.00500000 -0.00840901 -0.00490901
v 0.00500000 -0.00913896 -0.00857873
v 0.00500000 -0.01000000 -0.00875000
v 0.00500000 -0.01000000 -0.00425000
v 0.00500000 -0.01900000 -0.00100000
v 0.00500000 -0.01086104 -0.00442127
v 0.00500000 -0.00792127 -0.00563896
v 0.00500000 -0.01159099 -0.00490901
v 0.00500000 -0.01225000 -0.00650000
v 0.00500000 -0.01207873 -0.00563896
v 0.00500000 -0.01900000 -0.01500000
v 0.00500000 -0.01159099 -0.00809099
v 0.00500000 -0.01207873 -0.00736104
v 0.00500000 -0.01086104 -0.00857873
v 0.00500000 -0.01086104 -0.00857873
v 0.00500000 -0.01000000 -0.00875000
v 0.00000000 -0.01000000 -0.00875000
v 0.00500000 -0.01159099 -0.00809099
v 0.00000000 -0.01086104 -0.00857873
v 0.00500000 -0.01207873 -0.00736104
v 0.00000000 -0.01159099 -0.00809099
v 0.00500000 -0.01225000 -0.00650000
v 0.00000000 -0.01207873 -0.00736104
v 0.00500000 -0.01207873 -0.00563896
v -0.00000000 -0.01225000 -0.00650000
v 0.00500000 -0.01159099 -0.00490901
v -0.00000000 -0.01207873 -0.00563896
v 0.00500000 -0.01086104 -0.00442127
v -0.00000000 -0.01159099 -0.00490901
v 0.00500000 -0.01000000 -0.00425000
v -0.00000000 -0.01086104 -0.00442127
v 0.00500000 -0.00913896 -0.00442127
v -0.00000000 -0.01000000 -0.00425000
v 0.00500000 -0.00840901 -0.00490901
v -0.00000000 -0.00913896 -0.00442127
v 0.00500000 -0.00792127 -0.00563896
v -0.00000000 -0.00840901 -0.00490901
v 0.00500000 -0.00775000 -0.00650000
v -0.00000000 -0.00792127 -0.00563896
v 0.00500000 -0.00792127 -0.00736104
v -0.00000000 -0.00775000 -0.00650000
v 0.00500000 -0.00840901 -0.00809099
v 0.00000000 -0.00792127 -0.00736104
v 0.00500000 -0.00913896 -0.00857873
v 0.00000000 -0.00840901 -0.00809099
v 0.00000000 -0.00913896 -0.00857873
vt 0.50000000 0.50000000
vt 0.50000000 0.50000000
vt 0.50000000 0.50000000
vt 0.50000000 0.50000000
vt 0.50000000 0.50000000
vt 0.50000000 0.50000000
vt 0.50000000 0.50000000
vt 0.50000000 0.50000000
vt 0.50000000 0.50000000
vt 0.50000000 0.50000000
vt 0.50000000 0.50000000
vt 0.50000000 0.50000000
vt 0.50000000 0.50000000
vt 0.50000000 0.50000000
vt 0.50000000 0.50000000
vt 0.50000000 0.50000000
vt 0.50000000 0.50000000
vt 0.50000000 0.50000000
vt 0.50000000 0.50000000
vt 0.50000000 0.50000000
vt 0.50000000 0.50000000
vt 0.50000000 0.50000000
vt 0.50000000 0.50000000
vt 0.50000000 0.50000000
vt 0.50000000 0.50000000
vt 0.50000000 0.50000000
vt 0.50000000 0.50000000
vt 0.50000000 0.50000000
vt 0.50000000 0.50000000
vt 0.50000000 0.50000000
vt 0.50000000 0.50000000
vt 0.50000000 0.50000000
vt 0.50000000 0.50000000
vt 0.50000000 0.50000000
vt 0.50000000 0.50000000
vt 0.50000000 0.50000000
vt 0.50000000 0.50000000
vt 0.50000000 0.50000000
vt 0.50000000 0.50000000
vt 0.50000000 0.50000000
vt 0.50000000 0.50000000
vt 0.50000000 0.50000000
vt 0.50000000 0.50000000
vt 0.50000000 0.50000000
vt 0.50000000 0.50000000
vt 0.50000000 0.50000000
vt 0.50000000 0.50000000
vt 0.50000000 0.50000000
vt 0.50000000 0.50000000
vt 0.50000000 0.50000000
vt 0.50000000 0.50000000
vt 0.50000000 0.50000000
vt 0.50000000 0.50000000
vt 0.50000000 0.50000000
vt 0.50000000 0.50000000
vt 0.50000000 0.50000000
vt 0.50000000 0.50000000
vt 0.50000000 0.50000000
vt 0.50000000 0.50000000
vt 0.50000000 0.50000000
vt 0.50000000 0.50000000
vt 0.50000000 0.50000000
vt 0.50000000 0.50000000
vt 0.50000000 0.50000000
vt 0.50000000 0.50000000
vt 0.50000000 0.50000000
vt 0.50000000 0.50000000
vt 0.50000000 0.50000000
vt 0.50000000 0.50000000
vt 0.50000000 0.50000000
vt 0.50000000 0.50000000
vt 0.50000000 0.50000000
vt 0.50000000 0.50000000
vt 0.50000000 0.50000000
vt 0.50000000 0.50000000
vt 0.50000000 0.50000000
vt 0.50000000 0.50000000
vt 0.50000000 0.50000000
vt 0.50000000 0.50000000
vt 0.50000000 0.50000000
vt 0.50000000 0.50000000
vt 0.50000000 0.50000000
vt 0.50000000 0.50000000
vt 0.50000000 0.50000000
vt 0.50000000 0.50000000
vt 0.50000000 0.50000000
vt 0.50000000 0.50000000
vt 0.50000000 0.50000000
vt 0.50000000 0.50000000
vt 0.50000000 0.50000000
vt 0.50000000 0.50000000
vt 0.50000000 0.50000000
vt 0.50000000 0.50000000
vt 0.50000000 0.50000000
vt 0.50000000 0.50000000
vt 0.50000000 0.50000000
vt 0.50000000 0.50000000
vt 0.50000000 0.50000000
vt 0.50000000 0.50000000
vt 0.50000000 0.50000000
vt 0.50000000 0.50000000
vt 0.50000000 0.50000000
vt 0.50000000 0.50000000
vt 0.50000000 0.50000000
vt 0.50000000 0.50000000
vt 0.50000000 0.50000000
vt 0.50000000 0.50000000
vt 0.50000000 0.50000000
vt 0.50000000 0.50000000
vt 0.50000000 0.50000000
vt 0.50000000 0.50000000
vt 0.50000000 0.50000000
vt 0.50000000 0.50000000
vt 0.50000000 0.50000000
vt 0.50000000 0.50000000
vt 0.50000000 0.50000000
vt 0.50000000 0.50000000
vt 0.50000000 0.50000000
vt 0.50000000 0.50000000
vt 0.50000000 0.50000000
vt 0.50000000 0.50000000
vt 0.50000000 0.50000000
vt 0.50000000 0.50000000
vt 0.50000000 0.50000000
vt 0.50000000 0.50000000
vt 0.50000000 0.50000000
vt 0.50000000 0.50000000
vt 0.50000000 0.50000000
vt 0.50000000 0.50000000
vt 0.50000000 0.50000000
vt 0.50000000 0.50000000
vt 0.50000000 0.50000000
vt 0.50000000 0.50000000
vt 0.50000000 0.50000000
vt 0.50000000 0.50000000
vt 0.50000000 0.50000000
vt 0.50000000 0.50000000
vt 0.50000000 0.50000000
vt 0.50000000 0.50000000
vt 0.50000000 0.50000000
vt 0.50000000 0.50000000
vt 0.50000000 0.50000000
vt 0.50000000 0.50000000
vt 0.50000000 0.50000000
vt 0.50000000 0.50000000
vt 0.50000000 0.50000000
vt 0.50000000 0.50000000
vt 0.50000000 0.50000000
vt 0.50000000 0.50000000
vt 0.50000000 0.50000000
vt 0.50000000 0.50000000
vt 0.50000000 0.50000000
vt 0.50000000 0.50000000
vt 0.50000000 0.50000000
vt 0.50000000 0.50000000
vt 0.50000000 0.50000000
vt 0.50000000 0.50000000
vt 0.50000000 0.50000000
vt 0.50000000 0.50000000
vt 0.50000000 0.50000000
vt 0.50000000 0.50000000
vt 0.50000000 0.50000000
vt 0.50000000 0.50000000
vt 0.50000000 0.50000000
vt 0.50000000 0.50000000
vt 0.50000000 0.50000000
vt 0.50000000 0.50000000
vt 0.50000000 0.50000000
vt 0.50000000 0.50000000
vt 0.50000000 0.50000000
vt 0.50000000 0.50000000
vt 0.50000000 0.50000000
vt 0.50000000 0.50000000
vt 0.50000000 0.50000000
vt 0.50000000 0.50000000
vt 0.50000000 0.50000000
vt 0.50000000 0.50000000
vt 0.50000000 0.50000000
vt 0.50000000 0.50000000
vt 0.50000000 0.50000000
vt 0.50000000 0.50000000
vt 0.50000000 0.50000000
vt 0.50000000 0.50000000
vt 0.50000000 0.50000000
vt 0.50000000 0.50000000
vt 0.50000000 0.50000000
vt 0.50000000 0.50000000
vt 0.50000000 0.50000000
vt 0.50000000 0.50000000
vt 0.50000000 0.50000000
vt 0.50000000 0.50000000
vt 0.50000000 0.50000000
vt 0.50000000 0.50000000
vt 0.50000000 0.50000000
vt 0.50000000 0.50000000
vt 0.50000000 0.50000000
vt 0.50000000 0.50000000
vt 0.50000000 0.50000000
vt 0.50000000 0.50000000
vt 0.50000000 0.50000000
vt 0.50000000 0.50000000
vt 0.50000000 0.50000000
vt 0.50000000 0.50000000
vt 0.50000000 0.50000000
vt 0.50000000 0.50000000
vt 0.50000000 0.50000000
vt 0.50000000 0.50000000
vt 0.50000000 0.50000000
vt 0.50000000 0.50000000
vt 0.50000000 0.50000000
vt 0.50000000 0.50000000
vt 0.50000000 0.50000000
vt 0.50000000 0.50000000
vt 0.50000000 0.50000000
vt 0.50000000 0.50000000
vt 0.50000000 0.50000000
vt 0.50000000 0.50000000
vt 0.50000000 0.50000000
vt 0.50000000 0.50000000
vt 0.50000000 0.50000000
vt 0.50000000 0.50000000
vt 0.50000000 0.50000000
vt 0.50000000 0.50000000
vt 0.50000000 0.50000000
vt 0.50000000 0.50000000
vt 0.50000000 0.50000000
vt 0.50000000 0.50000000
vt 0.50000000 0.50000000
vt 0.50000000 0.50000000
vt 0.50000000 0.50000000
vt 0.50000000 0.50000000
vt 0.50000000 0.50000000
vt 0.50000000 0.50000000
vt 0.50000000 0.50000000
vt 0.50000000 0.50000000
vt 0.50000000 0.50000000
vt 0.50000000 0.50000000
vt 0.50000000 0.50000000
vt 0.50000000 0.50000000
vt 0.50000000 0.50000000
vt 0.50000000 0.50000000
vt 0.50000000 0.50000000
vt 0.50000000 0.50000000
vt 0.50000000 0.50000000
vt 0.50000000 0.50000000
vt 0.50000000 0.50000000
vt 0.50000000 0.50000000
vt 0.50000000 0.50000000
vt 0.50000000 0.50000000
vt 0.50000000 0.50000000
vt 0.50000000 0.50000000
vt 0.50000000 0.50000000
vt 0.50000000 0.50000000
vt 0.50000000 0.50000000
vt 0.50000000 0.50000000
vt 0.50000000 0.50000000
vt 0.50000000 0.50000000
vt 0.50000000 0.50000000
vt 0.50000000 0.50000000
vt 0.50000000 0.50000000
vt 0.50000000 0.50000000
vt 0.50000000 0.50000000
vt 0.50000000 0.50000000
vt 0.50000000 0.50000000
vt 0.50000000 0.50000000
vt 0.50000000 0.50000000
vt 0.50000000 0.50000000
vt 0.50000000 0.50000000
vt 0.50000000 0.50000000
vt 0.50000000 0.50000000
vt 0.50000000 0.50000000
vt 0.50000000 0.50000000
vt 0.50000000 0.50000000
vt 0.50000000 0.50000000
vt 0.50000000 0.50000000
vt 0.50000000 0.50000000
vt 0.50000000 0.50000000
vt 0.50000000 0.50000000
vt 0.50000000 0.50000000
vt 0.50000000 0.50000000
vt 0.50000000 0.50000000
vt 0.50000000 0.50000000
vt 0.50000000 0.50000000
vt 0.50000000 0.50000000
vt 0.50000000 0.50000000
vt 0.50000000 0.50000000
vt 0.50000000 0.50000000
vt 0.50000000 0.50000000
vt 0.50000000 0.50000000
vt 0.50000000 0.50000000
vt 0.50000000 0.50000000
vt 0.50000000 0.50000000
vt 0.50000000 0.50000000
vt 0.50000000 0.50000000
vt 0.50000000 0.50000000
vt 0.50000000 0.50000000
vt 0.50000000 0.50000000
vt 0.50000000 0.50000000
vt 0.50000000 0.50000000
vt 0.50000000 0.50000000
vt 0.50000000 0.50000000
vt 0.50000000 0.50000000
vt 0.50000000 0.50000000
vt 0.50000000 0.50000000
vt 0.50000000 0.50000000
vt 0.50000000 0.50000000
vt 0.50000000 0.50000000
vt 0.50000000 0.50000000
vt 0.50000000 0.50000000
vt 0.50000000 0.50000000
vt 0.50000000 0.50000000
vt 0.50000000 0.50000000
vt 0.50000000 0.50000000
vt 0.50000000 0.50000000
vt 0.50000000 0.50000000
vt 0.50000000 0.50000000
vt 0.50000000 0.50000000
vt 0.50000000 0.50000000
vt 0.50000000 0.50000000
vt 0.50000000 0.50000000
vt 0.50000000 0.50000000
vt 0.50000000 0.50000000
vt 0.50000000 0.50000000
vt 0.50000000 0.50000000
vt 0.50000000 0.50000000
vt 0.50000000 0.50000000
vt 0.50000000 0.50000000
vt 0.50000000 0.50000000
vt 0.50000000 0.50000000
vt 0.50000000 0.50000000
vt 0.50000000 0.50000000
vt 0.50000000 0.50000000
vt 0.50000000 0.50000000
vt 0.50000000 0.50000000
vt 0.50000000 0.50000000
vt 0.50000000 0.50000000
vt 0.50000000 0.50000000
vt 0.50000000 0.50000000
vt 0.50000000 0.50000000
vt 0.50000000 0.50000000
vt 0.50000000 0.50000000
vt 0.50000000 0.50000000
vt 0.50000000 0.50000000
vt 0.50000000 0.50000000
vt 0.50000000 0.50000000
vt 0.50000000 0.50000000
vt 0.50000000 0.50000000
vt 0.50000000 0.50000000
vt 0.50000000 0.50000000
vt 0.50000000 0.50000000
vt 0.50000000 0.50000000
vt 0.50000000 0.50000000
vt 0.50000000 0.50000000
vt 0.50000000 0.50000000
vt 0.50000000 0.50000000
vt 0.50000000 0.50000000
vt 0.50000000 0.50000000
vt 0.50000000 0.50000000
vt 0.50000000 0.50000000
vt 0.50000000 0.50000000
vt 0.50000000 0.50000000
vt 0.50000000 0.50000000
vt 0.50000000 0.50000000
vt 0.50000000 0.50000000
vt 0.50000000 0.50000000
vt 0.50000000 0.50000000
vt 0.50000000 0.50000000
vt 0.50000000 0.50000000
vt 0.50000000 0.50000000
vt 0.50000000 0.50000000
vt 0.50000000 0.50000000
vt 0.50000000 0.50000000
vt 0.50000000 0.50000000
vt 0.50000000 0.50000000
vt 0.50000000 0.50000000
vt 0.50000000 0.50000000
vt 0.50000000 0.50000000
vt 0.50000000 0.50000000
vt 0.50000000 0.50000000
vt 0.50000000 0.50000000
vt 0.50000000 0.50000000
vt 0.50000000 0.50000000
vt 0.50000000 0.50000000
vt 0.50000000 0.50000000
vt 0.50000000 0.50000000
vt 0.50000000 0.50000000
vt 0.50000000 0.50000000
vt 0.50000000 0.50000000
vt 0.50000000 0.50000000
vt 0.50000000 0.50000000
vt 0.50000000 0.50000000
vt 0.50000000 0.50000000
vt 0.50000000 0.50000000
vt 0.50000000 0.50000000
vt 0.50000000 0.50000000
vt 0.50000000 0.50000000
vt 0.50000000 0.50000000
vt 0.50000000 0.50000000
vt 0.50000000 0.50000000
vt 0.50000000 0.50000000
vt 0.50000000 0.50000000
vt 0.50000000 0.50000000
vt 0.50000000 0.50000000
vt 0.50000000 0.50000000
vt 0.50000000 0.50000000
vt 0.50000000 0.50000000
vt 0.50000000 0.50000000
vt 0.50000000 0.50000000
vt 0.50000000 0.50000000
vt 0.50000000 0.50000000
vt 0.50000000 0.50000000
vt 0.50000000 0.50000000
vt 0.50000000 0.50000000
vt 0.50000000 0.50000000
vt 0.50000000 0.50000000
vt 0.50000000 0.50000000
vt 0.50000000 0.50000000
vt 0.50000000 0.50000000
vt 0.50000000 0.50000000
vt 0.50000000 0.50000000
vt 0.50000000 0.50000000
vt 0.50000000 0.50000000
vt 0.50000000 0.50000000
vt 0.50000000 0.50000000
vt 0.50000000 0.50000000
vt 0.50000000 0.50000000
vt 0.50000000 0.50000000
vt 0.50000000 0.50000000
vt 0.50000000 0.50000000
vt 0.50000000 0.50000000
vt 0.50000000 0.50000000
vt 0.50000000 0.50000000
vt 0.50000000 0.50000000
vt 0.50000000 0.50000000
vt 0.50000000 0.50000000
vt 0.50000000 0.50000000
vt 0.50000000 0.50000000
vt 0.50000000 0.50000000
vt 0.50000000 0.50000000
vt 0.50000000 0.50000000
vt 0.50000000 0.50000000
vt 0.50000000 0.50000000
vt 0.50000000 0.50000000
vt 0.50000000 0.50000000
vt 0.50000000 0.50000000
vt 0.50000000 0.50000000
vt 0.50000000 0.50000000
vt 0.50000000 0.50000000
vt 0.50000000 0.50000000
vt 0.50000000 0.50000000
vt 0.50000000 0.50000000
vt 0.50000000 0.50000000
vt 0.50000000 0.50000000
vt 0.50000000 0.50000000
vt 0.50000000 0.50000000
vt 0.50000000 0.50000000
vt 0.50000000 0.50000000
vt 0.50000000 0.50000000
vt 0.50000000 0.50000000
vt 0.50000000 0.50000000
vt 0.50000000 0.50000000
vt 0.50000000 0.50000000
vt 0.50000000 0.50000000
vt 0.50000000 0.50000000
vt 0.50000000 0.50000000
vt 0.50000000 0.50000000
vt 0.50000000 0.50000000
vt 0.50000000 0.50000000
vt 0.50000000 0.50000000
vt 0.50000000 0.50000000
vt 0.50000000 0.50000000
vt 0.50000000 0.50000000
vt 0.50000000 0.50000000
vt 0.50000000 0.50000000
vt 0.50000000 0.50000000
vt 0.50000000 0.50000000
vt 0.50000000 0.50000000
vt 0.50000000 0.50000000
vt 0.50000000 0.50000000
vt 0.50000000 0.50000000
vt 0.50000000 0.50000000
vt 0.50000000 0.50000000
vt 0.50000000 0.50000000
vt 0.50000000 0.50000000
vt 0.50000000 0.50000000
vt 0.50000000 0.50000000
vt 0.50000000 0.50000000
vt 0.50000000 0.50000000
vt 0.50000000 0.50000000
vt 0.50000000 0.50000000
vt 0.50000000 0.50000000
vt 0.50000000 0.50000000
vt 0.50000000 0.50000000
vt 0.50000000 0.50000000
vt 0.50000000 0.50000000
vt 0.50000000 0.50000000
vt 0.50000000 0.50000000
vt 0.50000000 0.50000000
vt 0.50000000 0.50000000
vt 0.50000000 0.50000000
vt 0.50000000 0.50000000
vt 0.50000000 0.50000000
vt 0.50000000 0.50000000
vt 0.50000000 0.50000000
vt 0.50000000 0.50000000
vt 0.50000000 0.50000000
vt 0.50000000 0.50000000
vt 0.50000000 0.50000000
vt 0.50000000 0.50000000
vt 0.50000000 0.50000000
vt 0.50000000 0.50000000
vt 0.50000000 0.50000000
vt 0.50000000 0.50000000
vt 0.50000000 0.50000000
vt 0.50000000 0.50000000
vt 0.50000000 0.50000000
vt 0.50000000 0.50000000
vt 0.50000000 0.50000000
vt 0.50000000 0.50000000
vt 0.50000000 0.50000000
vt 0.50000000 0.50000000
vt 0.50000000 0.50000000
vt 0.50000000 0.50000000
vt 0.50000000 0.50000000
vt 0.50000000 0.50000000
vt 0.50000000 0.50000000
vt 0.50000000 0.50000000
vt 0.50000000 0.50000000
vt 0.50000000 0.50000000
vt 0.50000000 0.50000000
vt 0.50000000 0.50000000
vt 0.50000000 0.50000000
vt 0.50000000 0.50000000
vt 0.50000000 0.50000000
vt 0.50000000 0.50000000
vt 0.50000000 0.50000000
vt 0.50000000 0.50000000
vt 0.50000000 0.50000000
vt 0.50000000 0.50000000
vt 0.50000000 0.50000000
vt 0.50000000 0.50000000
vt 0.50000000 0.50000000
vt 0.50000000 0.50000000
vt 0.50000000 0.50000000
vt 0.50000000 0.50000000
vt 0.50000000 0.50000000
vt 0.50000000 0.50000000
vt 0.50000000 0.50000000
vt 0.50000000 0.50000000
vt 0.50000000 0.50000000
vt 0.50000000 0.50000000
vt 0.50000000 0.50000000
vt 0.50000000 0.50000000
vt 0.50000000 0.50000000
vt 0.50000000 0.50000000
vt 0.50000000 0.50000000
vt 0.50000000 0.50000000
vt 0.50000000 0.50000000
vt 0.50000000 0.50000000
vt 0.50000000 0.50000000
vt 0.50000000 0.50000000
vt 0.50000000 0.50000000
vt 0.50000000 0.50000000
vt 0.50000000 0.50000000
vt 0.50000000 0.50000000
vt 0.50000000 0.50000000
vt 0.50000000 0.50000000
vt 0.50000000 0.50000000
vt 0.50000000 0.50000000
vt 0.50000000 0.50000000
vt 0.50000000 0.50000000
vt 0.50000000 0.50000000
vt 0.50000000 0.50000000
vt 0.50000000 0.50000000
vt 0.50000000 0.50000000
vt 0.50000000 0.50000000
vt 0.50000000 0.50000000
vt 0.50000000 0.50000000
vt 0.50000000 0.50000000
vt 0.50000000 0.50000000
vt 0.50000000 0.50000000
vt 0.50000000 0.50000000
vt 0.50000000 0.50000000
vt 0.50000000 0.50000000
vt 0.50000000 0.50000000
vt 0.50000000 0.50000000
vt 0.50000000 0.50000000
vt 0.50000000 0.50000000
vt 0.50000000 0.50000000
vt 0.50000000 0.50000000
vt 0.50000000 0.50000000
vt 0.50000000 0.50000000
vt 0.50000000 0.50000000
vt 0.50000000 0.50000000
vt 0.50000000 0.50000000
vt 0.50000000 0.50000000
vt 0.50000000 0.50000000
vt 0.50000000 0.50000000
vt 0.50000000 0.50000000
vt 0.50000000 0.50000000
vt 0.50000000 0.50000000
vt 0.50000000 0.50000000
vt 0.50000000 0.50000000
vt 0.50000000 0.50000000
vt 0.50000000 0.50000000
vt 0.50000000 0.50000000
vt 0.50000000 0.50000000
vt 0.50000000 0.50000000
vt 0.50000000 0.50000000
vt 0.50000000 0.50000000
vt 0.50000000 0.50000000
vt 0.50000000 0.50000000
vt 0.50000000 0.50000000
vt 0.50000000 0.50000000
vt 0.50000000 0.50000000
vt 0.50000000 0.50000000
vt 0.50000000 0.50000000
vt 0.50000000 0.50000000
vt 0.50000000 0.50000000
vt 0.50000000 0.50000000
vt 0.50000000 0.50000000
vt 0.50000000 0.50000000
vt 0.50000000 0.50000000
vt 0.50000000 0.50000000
vt 0.50000000 0.50000000
vt 0.50000000 0.50000000
vt 0.50000000 0.50000000
vt 0.50000000 0.50000000
vt 0.50000000 0.50000000
vt 0.50000000 0.50000000
vt 0.50000000 0.50000000
vt 0.50000000 0.50000000
vt 0.50000000 0.50000000
vt 0.50000000 0.50000000
vt 0.50000000 0.50000000
vt 0.50000000 0.50000000
vt 0.50000000 0.50000000
vt 0.50000000 0.50000000
vt 0.50000000 0.50000000
vt 0.50000000 0.50000000
vt 0.50000000 0.50000000
vt 0.50000000 0.50000000
vt 0.50000000 0.50000000
vt 0.50000000 0.50000000
vt 0.50000000 0.50000000
vt 0.50000000 0.50000000
vt 0.50000000 0.50000000
vt 0.50000000 0.50000000
vt 0.50000000 0.50000000
vt 0.50000000 0.50000000
vt 0.50000000 0.50000000
vt 0.50000000 0.50000000
vt 0.50000000 0.50000000
vt 0.50000000 0.50000000
vt 0.50000000 0.50000000
vt 0.50000000 0.50000000
vt 0.50000000 0.50000000
vt 0.50000000 0.50000000
vt 0.50000000 0.50000000
vt 0.50000000 0.50000000
vt 0.50000000 0.50000000
vt 0.50000000 0.50000000
vt 0.50000000 0.50000000
vt 0.50000000 0.50000000
vt 0.50000000 0.50000000
vt 0.50000000 0.50000000
vt 0.50000000 0.50000000
vt 0.50000000 0.50000000
f 1/1 2/2 3/3
f 4/4 3/3 5/5
f 6/6 7/7 8/8
f 6/6 5/5 7/7
f 9/9 10/10 11/11
f 9/9 8/8 10/10
f 11/11 12/12 9/9
f 8/8 9/9 6/6
f 5/5 6/6 4/4
f 3/3 4/4 1/1
f 13/13 14/14 15/15
f 15/15 16/16 13/13
f 17/17 13/13 18/18
f 18/18 19/19 17/17
f 20/20 17/17 21/21
f 22/22 20/20 23/23
f 23/23 24/24 22/22
f 21/21 23/23 20/20
f 19/19 21/21 17/17
f 16/16 18/18 13/13
f 25/25 26/26 27/27
f 27/27 28/28 25/25
f 29/29 30/30 31/31
f 31/31 32/32 29/29
f 33/33 34/34 35/35
f 36/36 37/37 33/33
f 34/34 38/38 35/35
f 39/39 40/40 41/41
f 36/36 42/42 37/37
f 36/36 43/43 44/44
f 34/34 45/45 38/38
f 34/34 46/46 47/47
f 46/46 48/48 49/49
f 46/46 50/50 51/51
f 41/41 52/52 50/50
f 39/39 53/53 54/54
f 41/41 55/55 39/39
f 43/43 36/36 56/56
f 44/44 42/42 36/36
f 35/35 57/57 33/33
f 47/47 58/58 34/34
f 51/51 48/48 46/46
f 41/41 40/40 52/52
f 55/55 53/53 39/39
f 33/33 59/59 36/36
f 58/58 45/45 34/34
f 50/50 46/46 41/41
f 60/60 56/56 39/39
f 57/57 59/59 33/33
f 54/54 60/60 39/39
f 49/49 47/47 46/46
f 56/56 60/60 43/43
f 61/61 62/62 63/63
f 64/64 63/63 65/65
f 66/66 67/67 68/68
f 66/66 65/65 67/67
f 68/68 69/69 66/66
f 70/70 71/71 72/72
f 72/72 73/73 70/70
f 69/69 68/68 70/70
f 73/73 69/69 70/70
f 66/66 74/74 65/65
f 65/65 74/74 64/64
f 63/63 64/64 61/61
f 75/75 76/76 77/77
f 76/76 78/78 77/77
f 76/76 79/79 78/78
f 80/80 81/81 82/82
f 83/83 84/84 85/85
f 86/86 87/87 88/88
f 76/76 89/89 79/79
f 82/82 76/76 80/80
f 84/84 90/90 85/85
f 88/88 84/84 86/86
f 82/82 89/89 76/76
f 87/87 86/86 75/75
f 84/84 91/91 90/90
f 88/88 92/92 84/84
f 75/75 93/93 87/87
f 92/92 91/91 84/84
f 85/85 94/94 83/83
f 77/77 93/93 75/75
f 95/95 96/96 97/97
f 98/98 97/97 99/99
f 100/100 101/101 102/102
f 100/100 99/99 101/101
f 103/103 104/104 105/105
f 103/103 102/102 104/104
f 105/105 106/106 103/103
f 102/102 103/103 100/100
f 99/99 100/100 98/98
f 97/97 98/98 95/95
f 107/107 108/108 109/109
f 107/107 110/110 108/108
f 109/109 111/111 107/107
f 112/112 110/110 113/113
f 113/113 114/114 112/112
f 115/115 116/116 112/112
f 117/117 118/118 116/116
f 119/119 120/120 118/118
f 118/118 117/117 119/119
f 116/116 115/115 117/117
f 114/114 115/115 112/112
f 107/107 113/113 110/110
f 121/121 122/122 123/123
f 123/123 124/124 121/121
f 125/125 126/126 127/127
f 128/128 129/129 130/130
f 127/127 131/131 125/125
f 125/125 132/132 133/133
f 134/134 135/135 136/136
f 130/130 137/137 128/128
f 128/128 138/138 139/139
f 140/140 133/133 141/141
f 133/133 126/126 125/125
f 134/134 142/142 135/135
f 139/139 129/129 128/128
f 133/133 132/132 141/141
f 143/143 144/144 125/125
f 134/134 145/145 142/142
f 139/139 146/146 147/147
f 137/137 140/140 128/128
f 131/131 143/143 125/125
f 143/143 148/148 149/149
f 148/148 150/150 151/151
f 148/148 136/136 152/152
f 134/134 147/147 145/145
f 138/138 146/146 139/139
f 149/149 144/144 143/143
f 152/152 150/150 148/148
f 147/147 134/134 139/139
f 151/151 149/149 148/148
f 141/141 128/128 140/140
f 136/136 148/148 134/134
f 153/153 154/154 155/155
f 155/155 156/156 153/153
f 157/157 153/153 158/158
f 158/158 159/159 157/157
f 160/160 157/157 161/161
f 162/162 160/160 163/163
f 163/163 164/164 162/162
f 161/161 163/163 160/160
f 159/159 161/161 157/157
f 156/156 158/158 153/153
f 165/165 166/166 167/167
f 166/166 168/168 167/167
f 169/169 170/170 171/171
f 172/172 173/173 174/174
f 166/166 175/175 168/168
f 176/176 177/177 178/178
f 170/170 179/179 171/171
f 174/174 170/170 172/172
f 166/166 180/180 175/175
f 178/178 166/166 176/176
f 170/170 181/181 179/179
f 174/174 182/182 170/170
f 183/183 177/177 176/176
f 178/178 180/180 166/166
f 182/182 181/181 170/170
f 167/167 184/184 165/165
f 176/176 169/169 183/183
f 171/171 183/183 169/169
f 185/185 186/186 187/187
f 188/188 185/185 189/189
f 190/190 188/188 191/191
f 192/192 190/190 193/193
f 194/194 192/192 195/195
f 196/196 194/194 197/197
f 198/198 196/196 199/199
f 200/200 198/198 201/201
f 202/202 200/200 203/203
f 204/204 202/202 205/205
f 206/206 204/204 207/207
f 208/208 206/206 209/209
f 210/210 208/208 211/211
f 212/212 210/210 213/213
f 214/214 212/212 215/215
f 186/186 214/214 216/216
f 216/216 187/187 186/186
f 215/215 216/216 214/214
f 213/213 215/215 212/212
f 211/211 213/213 210/210
f 209/209 211/211 208/208
f 207/207 209/209 206/206
f 205/205 207/207 204/204
f 203/203 205/205 202/202
f 201/201 203/203 200/200
f 199/199 201/201 198/198
f 197/197 199/199 196/196
f 195/195 197/197 194/194
f 193/193 195/195 192/192
f 191/191 193/193 190/190
f 189/189 191/191 188/188
f 187/187 189/189 185/185
f 217/217 218/218 219/219
f 219/219 220/220 217/217
f 221/221 222/222 223/223
f 224/224 225/225 222/222
f 226/226 225/225 224/224
f 224/224 227/227 226/226
f 228/228 229/229 226/226
f 230/230 231/231 229/229
f 229/229 228/228 230/230
f 232/232 233/233 231/231
f 230/230 232/232 231/231
f 227/227 228/228 226/226
f 222/222 221/221 224/224
f 223/223 234/234 221/221
f 235/235 236/236 237/237
f 237/237 238/238 235/235
f 239/239 238/238 240/240
f 237/237 241/241 238/238
f 242/242 239/239 243/243
f 239/239 244/244 245/245
f 240/240 246/246 239/239
f 238/238 247/247 248/248
f 235/235 249/249 236/236
f 235/235 242/242 250/250
f 243/243 251/251 242/242
f 246/246 244/244 239/239
f 241/241 247/247 238/238
f 250/250 252/252 235/235
f 242/242 253/253 254/254
f 245/245 243/243 239/239
f 252/252 249/249 235/235
f 251/251 253/253 242/242
f 254/254 250/250 242/242
f 248/248 240/240 238/238
f 255/255 256/256 257/257
f 255/255 258/258 256/256
f 259/259 260/260 261/261
f 259/259 257/257 260/260
f 262/262 261/261 263/263
f 264/264 263/263 265/265
f 265/265 266/266 264/264
f 263/263 264/264 262/262
f 261/261 262/262 259/259
f 257/257 259/259 255/255
f 267/267 268/268 269/269
f 270/270 269/269 271/271
f 272/272 271/271 273/273
f 274/274 273/273 275/275
f 276/276 267/267 270/270
f 277/277 270/270 272/272
f 278/278 272/272 274/274
f 279/279 274/274 280/280
f 281/281 276/276 277/277
f 282/282 277/277 278/278
f 283/283 278/278 279/279
f 284/284 279/279 285/285
f 286/286 281/281 282/282
f 287/287 282/282 283/283
f 288/288 283/283 284/284
f 289/289 284/284 290/290
f 290/290 291/291 289/289
f 284/284 289/289 288/288
f 283/283 288/288 287/287
f 282/282 287/287 286/286
f 285/285 290/290 284/284
f 279/279 284/284 283/283
f 278/278 283/283 282/282
f 277/277 282/282 281/281
f 280/280 285/285 279/279
f 274/274 279/279 278/278
f 272/272 278/278 277/277
f 270/270 277/277 276/276
f 275/275 280/280 274/274
f 273/273 274/274 272/272
f 271/271 272/272 270/270
f 269/269 270/270 267/267
f 292/292 293/293 294/294
f 295/295 292/292 296/296
f 297/297 295/295 298/298
f 298/298 299/299 297/297
f 300/300 297/297 301/301
f 301/301 302/302 300/300
f 302/302 303/303 300/300
f 299/299 301/301 297/297
f 296/296 298/298 295/295
f 294/294 296/296 292/292
f 304/304 305/305 306/306
f 307/307 304/304 308/308
f 309/309 307/307 310/310
f 311/311 309/309 312/312
f 312/312 313/313 311/311
f 310/310 312/312 309/309
f 308/308 310/310 307/307
f 306/306 308/308 304/304
f 314/314 315/315 316/316
f 317/317 316/316 318/318
f 319/319 318/318 320/320
f 321/321 320/320 322/322
f 322/322 323/323 321/321
f 320/320 321/321 319/319
f 318/318 319/319 317/317
f 316/316 317/317 314/314
f 324/324 325/325 326/326
f 327/327 326/326 328/328
f 329/329 328/328 330/330
f 331/331 330/330 332/332
f 333/333 324/324 327/327
f 334/334 327/327 329/329
f 335/335 329/329 331/331
f 336/336 331/331 337/337
f 338/338 333/333 334/334
f 339/339 334/334 335/335
f 340/340 335/335 336/336
f 341/341 336/336 342/342
f 343/343 338/338 339/339
f 344/344 339/339 340/340
f 345/345 340/340 341/341
f 346/346 341/341 347/347
f 347/347 348/348 346/346
f 341/341 346/346 345/345
f 340/340 345/345 344/344
f 339/339 344/344 343/343
f 342/342 347/347 341/341
f 336/336 341/341 340/340
f 335/335 340/340 339/339
f 334/334 339/339 338/338
f 337/337 342/342 336/336
f 331/331 336/336 335/335
f 329/329 335/335 334/334
f 327/327 334/334 333/333
f 332/332 337/337 331/331
f 330/330 331/331 329/329
f 328/328 329/329 327/327
f 326/326 327/327 324/324
f 349/349 350/350 351/351
f 351/351 352/352 349/349
f 353/353 354/354 355/355
f 356/356 355/355 357/357
f 358/358 357/357 359/359
f 360/360 359/359 361/361
f 362/362 353/353 356/356
f 363/363 356/356 358/358
f 364/364 358/358 360/360
f 365/365 360/360 366/366
f 367/367 362/362 363/363
f 368/368 363/363 364/364
f 369/369 364/364 365/365
f 370/370 365/365 371/371
f 372/372 370/370 373/373
f 372/372 369/369 370/370
f 372/372 368/368 369/369
f 372/372 367/367 368/368
f 371/371 373/373 370/370
f 365/365 370/370 369/369
f 364/364 369/369 368/368
f 363/363 368/368 367/367
f 366/366 371/371 365/365
f 360/360 365/365 364/364
f 358/358 364/364 363/363
f 356/356 363/363 362/362
f 361/361 366/366 360/360
f 359/359 360/360 358/358
f 357/357 358/358 356/356
f 355/355 356/356 353/353
f 374/374 375/375 376/376
f 377/377 376/376 378/378
f 379/379 378/378 380/380
f 381/381 380/380 382/382
f 382/382 383/383 381/381
f 380/380 381/381 379/379
f 378/378 379/379 377/377
f 376/376 377/377 374/374
f 384/384 385/385 386/386
f 387/387 386/386 388/388
f 389/389 388/388 390/390
f 391/391 390/390 392/392
f 393/393 384/384 387/387
f 394/394 387/387 389/389
f 395/395 389/389 391/391
f 396/396 391/391 397/397
f 398/398 393/393 394/394
f 399/399 394/394 395/395
f 400/400 395/395 396/396
f 401/401 396/396 402/402
f 403/403 401/401 404/404
f 403/403 400/400 401/401
f 403/403 399/399 400/400
f 403/403 398/398 399/399
f 402/402 404/404 401/401
f 396/396 401/401 400/400
f 395/395 400/400 399/399
f 394/394 399/399 398/398
f 397/397 402/402 396/396
f 391/391 396/396 395/395
f 389/389 395/395 394/394
f 387/387 394/394 393/393
f 392/392 397/397 391/391
f 390/390 391/391 389/389
f 388/388 389/389 387/387
f 386/386 387/387 384/384
f 405/405 406/406 407/407
f 408/408 407/407 409/409
f 410/410 409/409 411/411
f 412/412 411/411 413/413
f 413/413 414/414 412/412
f 411/411 412/412 410/410
f 409/409 410/410 408/408
f 407/407 408/408 405/405
f 415/415 416/416 417/417
f 418/418 417/417 419/419
f 420/420 419/419 421/421
f 422/422 421/421 423/423
f 423/423 424/424 422/422
f 421/421 422/422 420/420
f 419/419 420/420 418/418
f 417/417 418/418 415/415
f 425/425 426/426 427/427
f 427/427 428/428 425/425
f 429/429 430/430 431/431
f 432/432 431/431 433/433
f 434/434 433/433 435/435
f 436/436 435/435 437/437
f 438/438 429/429 432/432
f 439/439 432/432 434/434
f 440/440 434/434 436/436
f 441/441 436/436 442/442
f 443/443 438/438 439/439
f 444/444 439/439 440/440
f 445/445 440/440 441/441
f 446/446 441/441 447/447
f 448/448 446/446 449/449
f 448/448 445/445 446/446
f 448/448 444/444 445/445
f 448/448 443/443 444/444
f 447/447 449/449 446/446
f 441/441 446/446 445/445
f 440/440 445/445 444/444
f 439/439 444/444 443/443
f 442/442 447/447 441/441
f 436/436 441/441 440/440
f 434/434 440/440 439/439
f 432/432 439/439 438/438
f 437/437 442/442 436/436
f 435/435 436/436 434/434
f 433/433 434/434 432/432
f 431/431 432/432 429/429
f 450/450 451/451 452/452
f 453/453 452/452 454/454
f 455/455 454/454 456/456
f 457/457 456/456 458/458
f 458/458 459/459 457/457
f 456/456 457/457 455/455
f 454/454 455/455 453/453
f 452/452 453/453 450/450
f 460/460 461/461 462/462
f 463/463 462/462 464/464
f 465/465 464/464 466/466
f 467/467 466/466 468/468
f 469/469 460/460 463/463
f 470/470 463/463 465/465
f 471/471 465/465 467/467
f 472/472 467/467 473/473
f 474/474 469/469 470/470
f 475/475 470/470 471/471
f 476/476 471/471 472/472
f 477/477 472/472 478/478
f 479/479 477/477 480/480
f 479/479 476/476 477/477
f 479/479 475/475 476/476
f 479/479 474/474 475/475
f 478/478 480/480 477/477
f 472/472 477/477 476/476
f 471/471 476/476 475/475
f 470/470 475/475 474/474
f 473/473 478/478 472/472
f 467/467 472/472 471/471
f 465/465 471/471 470/470
f 463/463 470/470 469/469
f 468/468 473/473 467/467
f 466/466 467/467 465/465
f 464/464 465/465 463/463
f 462/462 463/463 460/460
f 481/481 482/482 483/483
f 484/484 483/483 485/485
f 486/486 485/485 487/487
f 488/488 487/487 489/489
f 489/489 490/490 488/488
f 487/487 488/488 486/486
f 485/485 486/486 484/484
f 483/483 484/484 481/481
f 491/491 492/492 493/493
f 494/494 493/493 495/495
f 496/496 495/495 497/497
f 498/498 497/497 499/499
f 499/499 500/500 498/498
f 497/497 498/498 496/496
f 495/495 496/496 494/494
f 493/493 494/494 491/491
f 501/501 502/502 503/503
f 503/503 504/504 501/501
f 505/505 506/506 507/507
f 508/508 507/507 509/509
f 510/510 509/509 511/511
f 512/512 511/511 513/513
f 514/514 505/505 508/508
f 515/515 508/508 510/510
f 516/516 510/510 512/512
f 517/517 512/512 518/518
f 519/519 514/514 515/515
f 520/520 515/515 516/516
f 521/521 516/516 517/517
f 522/522 517/517 523/523
f 524/524 519/519 520/520
f 525/525 520/520 521/521
f 526/526 521/521 522/522
f 527/527 522/522 528/528
f 528/528 529/529 527/527
f 522/522 527/527 526/526
f 521/521 526/526 525/525
f 520/520 525/525 524/524
f 523/523 528/528 522/522
f 517/517 522/522 521/521
f 516/516 521/521 520/520
f 515/515 520/520 519/519
f 518/518 523/523 517/517
f 512/512 517/517 516/516
f 510/510 516/516 515/515
f 508/508 515/515 514/514
f 513/513 518/518 512/512
f 511/511 512/512 510/510
f 509/509 510/510 508/508
f 507/507 508/508 505/505
f 530/530 531/531 532/532
f 533/533 532/532 534/534
f 535/535 534/534 536/536
f 537/537 536/536 538/538
f 538/538 539/539 537/537
f 536/536 537/537 535/535
f 534/534 535/535 533/533
f 532/532 533/533 530/530
f 540/540 541/541 542/542
f 543/543 540/540 544/544
f 545/545 543/543 546/546
f 547/547 545/545 548/548
f 548/548 549/549 547/547
f 546/546 548/548 545/545
f 544/544 546/546 543/543
f 542/542 544/544 540/540
f 550/550 551/551 552/552
f 553/553 550/550 554/554
f 555/555 553/553 556/556
f 556/556 557/557 555/555
f 558/558 555/555 559/559
f 559/559 560/560 558/558
f 560/560 561/561 558/558
f 557/557 559/559 555/555
f 554/554 556/556 553/553
f 552/552 554/554 550/550
f 562/562 563/563 564/564
f 565/565 564/564 566/566
f 567/567 566/566 568/568
f 569/569 568/568 570/570
f 571/571 562/562 565/565
f 572/572 565/565 567/567
f 573/573 567/567 569/569
f 574/574 569/569 575/575
f 576/576 571/571 572/572
f 577/577 572/572 573/573
f 578/578 573/573 574/574
f 579/579 574/574 580/580
f 581/581 576/576 577/577
f 582/582 577/577 578/578
f 583/583 578/578 579/579
f 584/584 579/579 585/585
f 585/585 586/586 584/584
f 579/579 584/584 583/583
f 578/578 583/583 582/582
f 577/577 582/582 581/581
f 580/580 585/585 579/579
f 574/574 579/579 578/578
f 573/573 578/578 577/577
f 572/572 577/577 576/576
f 575/575 580/580 574/574
f 569/569 574/574 573/573
f 567/567 573/573 572/572
f 565/565 572/572 571/571
f 570/570 575/575 569/569
f 568/568 569/569 567/567
f 566/566 567/567 565/565
f 564/564 565/565 562/562
f 587/587 588/588 589/589
f 587/587 590/590 588/588
f 591/591 592/592 593/593
f 591/591 589/589 592/592
f 594/594 593/593 595/595
f 596/596 595/595 597/597
f 597/597 598/598 596/596
f 595/595 596/596 594/594
f 593/593 594/594 591/591
f 589/589 591/591 587/587
f 599/599 600/600 601/601
f 601/601 602/602 599/599
f 603/603 604/604 605/605
f 605/605 606/606 603/603
f 607/607 608/608 604/604
f 609/609 610/610 611/611
f 609/609 605/605 610/610
f 611/611 612/612 609/609
f 612/612 611/611 613/613
f 613/613 614/614 615/615
f 615/615 616/616 613/613
f 613/613 616/616 612/612
f 609/609 606/606 605/605
f 603/603 607/607 604/604
f 617/617 618/618 619/619
f 617/617 620/620 621/621
f 620/620 622/622 623/623
f 617/617 624/624 625/625
f 621/621 618/618 617/617
f 620/620 626/626 622/622
f 627/627 628/628 626/626
f 619/619 624/624 617/617
f 623/623 629/629 620/620
f 627/627 630/630 628/628
f 627/627 631/631 632/632
f 629/629 621/621 620/620
f 632/632 630/630 627/627
f 626/626 620/620 627/627
f 633/633 634/634 635/635
f 627/627 635/635 631/631
f 633/633 636/636 634/634
f 635/635 627/627 633/633
f 633/633 625/625 636/636
f 625/625 633/633 617/617
f 637/637 638/638 639/639
f 640/640 637/637 641/641
f 642/642 640/640 643/643
f 644/644 642/642 645/645
f 646/646 644/644 647/647
f 648/648 646/646 649/649
f 650/650 648/648 651/651
f 652/652 650/650 653/653
f 654/654 652/652 655/655
f 656/656 654/654 657/657
f 658/658 656/656 659/659
f 660/660 658/658 661/661
f 662/662 660/660 663/663
f 664/664 662/662 665/665
f 666/666 664/664 667/667
f 638/638 666/666 668/668
f 668/668 639/639 638/638
f 667/667 668/668 666/666
f 665/665 667/667 664/664
f 663/663 665/665 662/662
f 661/661 663/663 660/660
f 659/659 661/661 658/658
f 657/657 659/659 656/656
f 655/655 657/657 654/654
f 653/653 655/655 652/652
f 651/651 653/653 650/650
f 649/649 651/651 648/648
f 647/647 649/649 646/646
f 645/645 647/647 644/644
f 643/643 645/645 642/642
f 641/641 643/643 640/640
f 639/639 641/641 637/637

