# https://github.com/mikedh/trimesh
mtllib material.mtl
usemtl 0.647059_0.647059_0.647059_0.000000_0.000000
v 0.00254067 0.03924762 0.00500000
v 0.00275000 0.04030000 0.00500000
v 0.00275000 0.04030000 0.00000000
v 0.00194454 0.03835545 0.00500000
v 0.00254067 0.03924762 0.00000000
v 0.00105238 0.03775933 0.00500000
v 0.00194454 0.03835545 0.00000000
v -0.00000000 0.03755000 0.00500000
v 0.00105238 0.03775933 0.00000000
v -0.00105238 0.03775933 0.00500000
v -0.00000000 0.03755000 0.00000000
v -0.00194454 0.03835545 0.00500000
v -0.00105238 0.03775933 0.00000000
v -0.00254067 0.03924762 0.00500000
v -0.00194454 0.03835545 0.00000000
v -0.00275000 0.04030000 0.00500000
v -0.00254067 0.03924762 0.00000000
v -0.00254067 0.04135238 0.00500000
v -0.00275000 0.04030000 0.00000000
v -0.00194454 0.04224454 0.00500000
v -0.00254067 0.04135238 0.00000000
v -0.00105238 0.04284067 0.00500000
v -0.00194454 0.04224454 0.00000000
v -0.00000000 0.04305000 0.00500000
v -0.00105238 0.04284067 0.00000000
v 0.00105238 0.04284067 0.00500000
v -0.00000000 0.04305000 0.00000000
v 0.00194454 0.04224454 0.00500000
v 0.00105238 0.04284067 0.00000000
v 0.00254067 0.04135238 0.00500000
v 0.00194454 0.04224454 0.00000000
v 0.00254067 0.04135238 0.00000000
v 0.02622841 0.03155101 0.00500000
v 0.02643775 0.03260338 0.00500000
v 0.02643775 0.03260338 0.00000000
v 0.02563229 0.03065884 0.00500000
v 0.02622841 0.03155101 0.00000000
v 0.02474013 0.03006272 0.00500000
v 0.02563229 0.03065884 0.00000000
v 0.02368775 0.02985338 0.00500000
v 0.02474013 0.03006272 0.00000000
v 0.02263537 0.03006272 0.00500000
v 0.02368775 0.02985338 0.00000000
v 0.02174320 0.03065884 0.00500000
v 0.02263537 0.03006272 0.00000000
v 0.02114708 0.03155101 0.00500000
v 0.02174320 0.03065884 0.00000000
v 0.02093775 0.03260338 0.00500000
v 0.02114708 0.03155101 0.00000000
v 0.02114708 0.03365576 0.00500000
v 0.02095233 0.03267669 0.00500000
v 0.02095233 0.03267669 0.00000000
v 0.02093775 0.03260338 0.00000000
v 0.02174320 0.03454793 0.00500000
v 0.02114708 0.03365576 0.00000000
v 0.02263537 0.03514405 0.00500000
v 0.02174320 0.03454793 0.00000000
v 0.02368775 0.03535338 0.00500000
v 0.02263537 0.03514405 0.00000000
v 0.02474013 0.03514405 0.00500000
v 0.02368775 0.03535338 0.00000000
v 0.02563229 0.03454793 0.00500000
v 0.02474013 0.03514405 0.00000000
v 0.02622841 0.03365576 0.00500000
v 0.02563229 0.03454793 0.00000000
v 0.02642316 0.03267669 0.00500000
v 0.02642316 0.03267669 0.00000000
v 0.02622841 0.03365576 0.00000000
v 0.04086825 0.01140101 0.00500000
v 0.04107758 0.01245338 0.00500000
v 0.04107758 0.01245338 0.00000000
v 0.04027212 0.01050884 0.00500000
v 0.04086825 0.01140101 0.00000000
v 0.03937996 0.00991272 0.00500000
v 0.04027212 0.01050884 0.00000000
v 0.03832758 0.00970338 0.00500000
v 0.03937996 0.00991272 0.00000000
v 0.03727520 0.00991272 0.00500000
v 0.03832758 0.00970338 0.00000000
v 0.03638303 0.01050884 0.00500000
v 0.03727520 0.00991272 0.00000000
v 0.03578691 0.01140101 0.00500000
v 0.03638303 0.01050884 0.00000000
v 0.03557758 0.01245338 0.00500000
v 0.03578691 0.01140101 0.00000000
v 0.03578691 0.01350576 0.00500000
v 0.03557758 0.01245338 0.00000000
v 0.03638303 0.01439793 0.00500000
v 0.03578691 0.01350576 0.00000000
v 0.03727520 0.01499405 0.00500000
v 0.03638303 0.01439793 0.00000000
v 0.03832758 0.01520338 0.00500000
v 0.03727520 0.01499405 0.00000000
v 0.03937996 0.01499405 0.00500000
v 0.03832758 0.01520338 0.00000000
v 0.04027212 0.01439793 0.00500000
v 0.03937996 0.01499405 0.00000000
v 0.04086825 0.01350576 0.00500000
v 0.04027212 0.01439793 0.00000000
v 0.04086825 0.01350576 0.00000000
v 0.04086825 -0.01350576 0.00500000
v 0.04107758 -0.01245338 0.00500000
v 0.04107758 -0.01245338 0.00000000
v 0.04027212 -0.01439793 0.00500000
v 0.04086825 -0.01350576 0.00000000
v 0.03937996 -0.01499405 0.00500000
v 0.04027212 -0.01439793 0.00000000
v 0.03832758 -0.01520338 0.00500000
v 0.03937996 -0.01499405 0.00000000
v 0.03727520 -0.01499405 0.00500000
v 0.03832758 -0.01520338 0.00000000
v 0.03638303 -0.01439793 0.00500000
v 0.03727520 -0.01499405 0.00000000
v 0.03578691 -0.01350576 0.00500000
v 0.03638303 -0.01439793 0.00000000
v 0.03557758 -0.01245338 0.00500000
v 0.03578691 -0.01350576 0.00000000
v 0.03578691 -0.01140101 0.00500000
v 0.03557758 -0.01245338 0.00000000
v 0.03638303 -0.01050884 0.00500000
v 0.03578691 -0.01140101 0.00000000
v 0.03727520 -0.00991272 0.00500000
v 0.03638303 -0.01050884 0.00000000
v 0.03832758 -0.00970338 0.00500000
v 0.03727520 -0.00991272 0.00000000
v 0.03937996 -0.00991272 0.00500000
v 0.03832758 -0.00970338 0.00000000
v 0.04027212 -0.01050884 0.00500000
v 0.03937996 -0.00991272 0.00000000
v 0.04086825 -0.01140101 0.00500000
v 0.04027212 -0.01050884 0.00000000
v 0.04086825 -0.01140101 0.00000000
v 0.02622841 -0.03365576 0.00500000
v 0.02642316 -0.03267669 0.00500000
v 0.02642316 -0.03267669 0.00000000
v 0.02643775 -0.03260338 0.00000000
v 0.02643775 -0.03260338 0.00500000
v 0.02563229 -0.03454793 0.00500000
v 0.02622841 -0.03365576 0.00000000
v 0.02474013 -0.03514405 0.00500000
v 0.02563229 -0.03454793 0.00000000
v 0.02368775 -0.03535338 0.00500000
v 0.02474013 -0.03514405 0.00000000
v 0.02263537 -0.03514405 0.00500000
v 0.02368775 -0.03535338 0.00000000
v 0.02174320 -0.03454793 0.00500000
v 0.02263537 -0.03514405 0.00000000
v 0.02114708 -0.03365576 0.00500000
v 0.02174320 -0.03454793 0.00000000
v 0.02093775 -0.03260338 0.00500000
v 0.02095233 -0.03267669 0.00500000
v 0.02095233 -0.03267669 0.00000000
v 0.02114708 -0.03365576 0.00000000
v 0.02114708 -0.03155101 0.00500000
v 0.02093775 -0.03260338 0.00000000
v 0.02174320 -0.03065884 0.00500000
v 0.02114708 -0.03155101 0.00000000
v 0.02263537 -0.03006272 0.00500000
v 0.02174320 -0.03065884 0.00000000
v 0.02368775 -0.02985338 0.00500000
v 0.02263537 -0.03006272 0.00000000
v 0.02474013 -0.03006272 0.00500000
v 0.02368775 -0.02985338 0.00000000
v 0.02563229 -0.03065884 0.00500000
v 0.02474013 -0.03006272 0.00000000
v 0.02622841 -0.03155101 0.00500000
v 0.02563229 -0.03065884 0.00000000
v 0.02622841 -0.03155101 0.00000000
v 0.00254067 -0.04135238 0.00500000
v 0.00275000 -0.04030000 0.00500000
v 0.00275000 -0.04030000 0.00000000
v 0.00194454 -0.04224454 0.00500000
v 0.00254067 -0.04135238 0.00000000
v 0.00105238 -0.04284067 0.00500000
v 0.00194454 -0.04224454 0.00000000
v -0.00000000 -0.04305000 0.00500000
v 0.00105238 -0.04284067 0.00000000
v -0.00105238 -0.04284067 0.00500000
v -0.00000000 -0.04305000 0.00000000
v -0.00194454 -0.04224454 0.00500000
v -0.00105238 -0.04284067 0.00000000
v -0.00254067 -0.04135238 0.00500000
v -0.00194454 -0.04224454 0.00000000
v -0.00275000 -0.04030000 0.00500000
v -0.00254067 -0.04135238 0.00000000
v -0.00254067 -0.03924762 0.00500000
v -0.00275000 -0.04030000 0.00000000
v -0.00194454 -0.03835545 0.00500000
v -0.00254067 -0.03924762 0.00000000
v -0.00105238 -0.03775933 0.00500000
v -0.00194454 -0.03835545 0.00000000
v -0.00000000 -0.03755000 0.00500000
v -0.00105238 -0.03775933 0.00000000
v 0.00105238 -0.03775933 0.00500000
v -0.00000000 -0.03755000 0.00000000
v 0.00194454 -0.03835545 0.00500000
v 0.00105238 -0.03775933 0.00000000
v 0.00254067 -0.03924762 0.00500000
v 0.00194454 -0.03835545 0.00000000
v 0.00254067 -0.03924762 0.00000000
v -0.02114708 -0.03365576 0.00500000
v -0.02095233 -0.03267669 0.00500000
v -0.02095233 -0.03267669 0.00000000
v -0.02093775 -0.03260338 0.00000000
v -0.02093775 -0.03260338 0.00500000
v -0.02174320 -0.03454793 0.00500000
v -0.02114708 -0.03365576 0.00000000
v -0.02263537 -0.03514405 0.00500000
v -0.02174320 -0.03454793 0.00000000
v -0.02368775 -0.03535338 0.00500000
v -0.02263537 -0.03514405 0.00000000
v -0.02474013 -0.03514405 0.00500000
v -0.02368775 -0.03535338 0.00000000
v -0.02563229 -0.03454793 0.00500000
v -0.02474013 -0.03514405 0.00000000
v -0.02622841 -0.03365576 0.00500000
v -0.02563229 -0.03454793 0.00000000
v -0.02643775 -0.03260338 0.00500000
v -0.02642316 -0.03267669 0.00500000
v -0.02642316 -0.03267669 0.00000000
v -0.02622841 -0.03365576 0.00000000
v -0.02622841 -0.03155101 0.00500000
v -0.02643775 -0.03260338 0.00000000
v -0.02563229 -0.03065884 0.00500000
v -0.02622841 -0.03155101 0.00000000
v -0.02474013 -0.03006272 0.00500000
v -0.02563229 -0.03065884 0.00000000
v -0.02368775 -0.02985338 0.00500000
v -0.02474013 -0.03006272 0.00000000
v -0.02263537 -0.03006272 0.00500000
v -0.02368775 -0.02985338 0.00000000
v -0.02174320 -0.03065884 0.00500000
v -0.02263537 -0.03006272 0.00000000
v -0.02114708 -0.03155101 0.00500000
v -0.02174320 -0.03065884 0.00000000
v -0.02114708 -0.03155101 0.00000000
v -0.03578691 -0.01350576 0.00500000
v -0.03557758 -0.01245338 0.00500000
v -0.03557758 -0.01245338 0.00000000
v -0.03638303 -0.01439793 0.00500000
v -0.03578691 -0.01350576 0.00000000
v -0.03727520 -0.01499405 0.00500000
v -0.03638303 -0.01439793 0.00000000
v -0.03832758 -0.01520338 0.00500000
v -0.03727520 -0.01499405 0.00000000
v -0.03937996 -0.01499405 0.00500000
v -0.03832758 -0.01520338 0.00000000
v -0.04027212 -0.01439793 0.00500000
v -0.03937996 -0.01499405 0.00000000
v -0.04086825 -0.01350576 0.00500000
v -0.04027212 -0.01439793 0.00000000
v -0.04107758 -0.01245338 0.00500000
v -0.04086825 -0.01350576 0.00000000
v -0.04086825 -0.01140101 0.00500000
v -0.04107758 -0.01245338 0.00000000
v -0.04027212 -0.01050884 0.00500000
v -0.04086825 -0.01140101 0.00000000
v -0.03937996 -0.00991272 0.00500000
v -0.04027212 -0.01050884 0.00000000
v -0.03832758 -0.00970338 0.00500000
v -0.03937996 -0.00991272 0.00000000
v -0.03727520 -0.00991272 0.00500000
v -0.03832758 -0.00970338 0.00000000
v -0.03638303 -0.01050884 0.00500000
v -0.03727520 -0.00991272 0.00000000
v -0.03578691 -0.01140101 0.00500000
v -0.03638303 -0.01050884 0.00000000
v -0.03578691 -0.01140101 0.00000000
v -0.03578691 0.01140101 0.00500000
v -0.03557758 0.01245338 0.00500000
v -0.03557758 0.01245338 0.00000000
v -0.03638303 0.01050884 0.00500000
v -0.03578691 0.01140101 0.00000000
v -0.03727520 0.00991272 0.00500000
v -0.03638303 0.01050884 0.00000000
v -0.03832758 0.00970338 0.00500000
v -0.03727520 0.00991272 0.00000000
v -0.03937996 0.00991272 0.00500000
v -0.03832758 0.00970338 0.00000000
v -0.04027212 0.01050884 0.00500000
v -0.03937996 0.00991272 0.00000000
v -0.04086825 0.01140101 0.00500000
v -0.04027212 0.01050884 0.00000000
v -0.04107758 0.01245338 0.00500000
v -0.04086825 0.01140101 0.00000000
v -0.04086825 0.01350576 0.00500000
v -0.04107758 0.01245338 0.00000000
v -0.04027212 0.01439793 0.00500000
v -0.04086825 0.01350576 0.00000000
v -0.03937996 0.01499405 0.00500000
v -0.04027212 0.01439793 0.00000000
v -0.03832758 0.01520338 0.00500000
v -0.03937996 0.01499405 0.00000000
v -0.03727520 0.01499405 0.00500000
v -0.03832758 0.01520338 0.00000000
v -0.03638303 0.01439793 0.00500000
v -0.03727520 0.01499405 0.00000000
v -0.03578691 0.01350576 0.00500000
v -0.03638303 0.01439793 0.00000000
v -0.03578691 0.01350576 0.00000000
v -0.02114708 0.03155101 0.00500000
v -0.02093775 0.03260338 0.00500000
v -0.02093775 0.03260338 0.00000000
v -0.02174320 0.03065884 0.00500000
v -0.02114708 0.03155101 0.00000000
v -0.02263537 0.03006272 0.00500000
v -0.02174320 0.03065884 0.00000000
v -0.02368775 0.02985338 0.00500000
v -0.02263537 0.03006272 0.00000000
v -0.02474013 0.03006272 0.00500000
v -0.02368775 0.02985338 0.00000000
v -0.02563229 0.03065884 0.00500000
v -0.02474013 0.03006272 0.00000000
v -0.02622841 0.03155101 0.00500000
v -0.02563229 0.03065884 0.00000000
v -0.02643775 0.03260338 0.00500000
v -0.02622841 0.03155101 0.00000000
v -0.02622841 0.03365576 0.00500000
v -0.02642316 0.03267669 0.00500000
v -0.02642316 0.03267669 0.00000000
v -0.02643775 0.03260338 0.00000000
v -0.02563229 0.03454793 0.00500000
v -0.02622841 0.03365576 0.00000000
v -0.02474013 0.03514405 0.00500000
v -0.02563229 0.03454793 0.00000000
v -0.02368775 0.03535338 0.00500000
v -0.02474013 0.03514405 0.00000000
v -0.02263537 0.03514405 0.00500000
v -0.02368775 0.03535338 0.00000000
v -0.02174320 0.03454793 0.00500000
v -0.02263537 0.03514405 0.00000000
v -0.02114708 0.03365576 0.00500000
v -0.02174320 0.03454793 0.00000000
v -0.02095233 0.03267669 0.00500000
v -0.02095233 0.03267669 0.00000000
v -0.02114708 0.03365576 0.00000000
v -0.06005217 0.02487442 0.00000000
v -0.06051883 0.02252839 0.00000000
v -0.06051883 0.02252839 0.00500000
v -0.06500000 0.00000000 0.00500000
v -0.06500000 0.00000000 0.00000000
v -0.04596194 0.04596194 0.00000000
v -0.05303879 0.03537069 0.00000000
v -0.05303879 0.03537069 0.00500000
v -0.05483886 0.03267669 0.00500000
v -0.05483886 0.03267669 0.00000000
v -0.06005217 0.02487442 0.00500000
v -0.02487442 0.06005217 0.00000000
v -0.03278879 0.05476396 0.00000000
v -0.03278879 0.05476396 0.00500000
v -0.04596194 0.04596194 0.00500000
v 0.00000000 0.06500000 0.00000000
v -0.01184387 0.06264411 0.00000000
v -0.01184387 0.06264411 0.00500000
v -0.02487442 0.06005217 0.00500000
v 0.02487442 0.06005217 0.00000000
v 0.01184387 0.06264411 0.00000000
v 0.01184387 0.06264411 0.00500000
v 0.00000000 0.06500000 0.00500000
v 0.04596194 0.04596194 0.00000000
v 0.03278879 0.05476396 0.00000000
v 0.03278879 0.05476396 0.00500000
v 0.02487442 0.06005217 0.00500000
v 0.06005217 0.02487442 0.00000000
v 0.05483886 0.03267669 0.00000000
v 0.05483886 0.03267669 0.00500000
v 0.04596194 0.04596194 0.00500000
v 0.06500000 0.00000000 0.00000000
v 0.06051883 0.02252839 0.00000000
v 0.06051883 0.02252839 0.00500000
v 0.06005217 0.02487442 0.00500000
v 0.06005217 -0.02487442 0.00000000
v 0.06051883 -0.02252839 0.00000000
v 0.06051883 -0.02252839 0.00500000
v 0.06500000 0.00000000 0.00500000
v 0.04596194 -0.04596194 0.00000000
v 0.05483886 -0.03267669 0.00000000
v 0.05483886 -0.03267669 0.00500000
v 0.06005217 -0.02487442 0.00500000
v 0.02487442 -0.06005217 0.00500000
v 0.02487442 -0.06005217 0.00000000
v 0.03278879 -0.05476396 0.00000000
v 0.04596194 -0.04596194 0.00500000
v 0.03278879 -0.05476396 0.00500000
v 0.00000000 -0.06500000 0.00000000
v 0.01184387 -0.06264411 0.00000000
v 0.01184387 -0.06264411 0.00500000
v -0.02487442 -0.06005217 0.00500000
v -0.02487442 -0.06005217 0.00000000
v -0.01184387 -0.06264411 0.00000000
v 0.00000000 -0.06500000 0.00500000
v -0.01184387 -0.06264411 0.00500000
v -0.04596194 -0.04596194 0.00000000
v -0.03278879 -0.05476396 0.00000000
v -0.03278879 -0.05476396 0.00500000
v -0.06005217 -0.02487442 0.00000000
v -0.05483886 -0.03267669 0.00000000
v -0.05483886 -0.03267669 0.00500000
v -0.05303879 -0.03537069 0.00500000
v -0.05303879 -0.03537069 0.00000000
v -0.04596194 -0.04596194 0.00500000
v -0.06051883 -0.02252839 0.00000000
v -0.06051883 -0.02252839 0.00500000
v -0.06005217 -0.02487442 0.00500000
v -0.05303879 0.03267669 0.00000000
v -0.03278879 0.03267669 0.00000000
v -0.03278879 0.02252839 0.00000000
v -0.03832758 0.01520338 0.00000000
v -0.03937996 0.01499405 0.00000000
v -0.05303879 0.02252839 0.00000000
v -0.03278879 0.00000000 0.00000000
v -0.03832758 0.00970338 0.00000000
v -0.03727520 0.00991272 0.00000000
v -0.05303879 0.00000000 0.00000000
v -0.03937996 0.00991272 0.00000000
v -0.03727520 0.01499405 0.00000000
v -0.04107758 0.01245338 0.00000000
v -0.03638303 0.01439793 0.00000000
v -0.03557758 0.01245338 0.00000000
v -0.03578691 0.01350576 0.00000000
v -0.03578691 0.01140101 0.00000000
v -0.04027212 0.01050884 0.00000000
v -0.04086825 0.01140101 0.00000000
v -0.04027212 0.01439793 0.00000000
v -0.04086825 0.01350576 0.00000000
v -0.03638303 0.01050884 0.00000000
v -0.03832758 -0.00970338 0.00000000
v -0.03937996 -0.00991272 0.00000000
v -0.03278879 -0.02252839 0.00000000
v -0.03832758 -0.01520338 0.00000000
v -0.03727520 -0.01499405 0.00000000
v -0.05303879 -0.02252839 0.00000000
v -0.03937996 -0.01499405 0.00000000
v -0.03727520 -0.00991272 0.00000000
v -0.03557758 -0.01245338 0.00000000
v -0.04086825 -0.01140101 0.00000000
v -0.04107758 -0.01245338 0.00000000
v -0.03638303 -0.01050884 0.00000000
v -0.03578691 -0.01140101 0.00000000
v -0.04027212 -0.01439793 0.00000000
v -0.04086825 -0.01350576 0.00000000
v -0.04027212 -0.01050884 0.00000000
v -0.03638303 -0.01439793 0.00000000
v -0.03578691 -0.01350576 0.00000000
v -0.03278879 -0.03267669 0.00000000
v 0.03278879 0.00000000 0.00000000
v 0.03000000 0.00000000 0.00000000
v 0.02771639 0.01148050 0.00000000
v 0.03278879 0.02252839 0.00000000
v 0.02121320 0.02121320 0.00000000
v 0.03278879 0.03267669 0.00000000
v 0.02622841 0.03155101 0.00000000
v 0.02643775 0.03260338 0.00000000
v 0.02563229 0.03065884 0.00000000
v 0.02474013 0.03006272 0.00000000
v 0.01924490 0.02252839 0.00000000
v 0.02368775 0.02985338 0.00000000
v 0.01184387 0.02747359 0.00000000
v 0.02174320 0.03065884 0.00000000
v 0.01184387 0.03267669 0.00000000
v 0.02093775 0.03260338 0.00000000
v 0.02114708 0.03155101 0.00000000
v 0.02263537 0.03006272 0.00000000
v 0.02095233 0.03267669 0.00000000
v -0.01184387 0.03267669 0.00000000
v 0.00000000 0.03000000 0.00000000
v 0.01148050 0.02771639 0.00000000
v -0.01148050 0.02771639 0.00000000
v -0.01184387 0.02747359 0.00000000
v -0.02114708 0.03155101 0.00000000
v -0.02093775 0.03260338 0.00000000
v -0.02174320 0.03065884 0.00000000
v -0.01924490 0.02252839 0.00000000
v -0.02263537 0.03006272 0.00000000
v -0.02474013 0.03006272 0.00000000
v -0.02368775 0.02985338 0.00000000
v -0.02643775 0.03260338 0.00000000
v -0.02622841 0.03155101 0.00000000
v -0.02563229 0.03065884 0.00000000
v -0.02642316 0.03267669 0.00000000
v -0.02771639 0.01148050 0.00000000
v -0.02121320 0.02121320 0.00000000
v -0.02771639 -0.01148050 0.00000000
v -0.02121320 -0.02121320 0.00000000
v -0.03000000 0.00000000 0.00000000
v -0.02622841 -0.03155101 0.00000000
v -0.02563229 -0.03065884 0.00000000
v -0.02474013 -0.03006272 0.00000000
v -0.01924490 -0.02252839 0.00000000
v -0.02368775 -0.02985338 0.00000000
v -0.01184387 -0.02747359 0.00000000
v -0.02174320 -0.03065884 0.00000000
v -0.02263537 -0.03006272 0.00000000
v -0.01184387 -0.03267669 0.00000000
v -0.02093775 -0.03260338 0.00000000
v -0.02114708 -0.03155101 0.00000000
v -0.02643775 -0.03260338 0.00000000
v -0.02095233 -0.03267669 0.00000000
v 0.01184387 -0.03267669 0.00000000
v 0.00000000 -0.03000000 0.00000000
v 0.01148050 -0.02771639 0.00000000
v -0.01148050 -0.02771639 0.00000000
v 0.01924490 -0.02252839 0.00000000
v 0.02263537 -0.03006272 0.00000000
v 0.02174320 -0.03065884 0.00000000
v 0.03278879 -0.02252839 0.00000000
v 0.02474013 -0.03006272 0.00000000
v 0.02368775 -0.02985338 0.00000000
v 0.01184387 -0.02747359 0.00000000
v 0.02114708 -0.03155101 0.00000000
v 0.02563229 -0.03065884 0.00000000
v 0.03278879 -0.03267669 0.00000000
v 0.02643775 -0.03260338 0.00000000
v 0.02622841 -0.03155101 0.00000000
v 0.02093775 -0.03260338 0.00000000
v 0.02642316 -0.03267669 0.00000000
v 0.02771639 -0.01148050 0.00000000
v 0.02121320 -0.02121320 0.00000000
v 0.03578691 -0.01140101 0.00000000
v 0.03557758 -0.01245338 0.00000000
v 0.06500000 0.00000000 0.00000000
v 0.03937996 -0.00991272 0.00000000
v 0.06051883 -0.02252839 0.00000000
v 0.04107758 -0.01245338 0.00000000
v 0.03638303 -0.01439793 0.00000000
v 0.03727520 -0.01499405 0.00000000
v 0.03578691 -0.01350576 0.00000000
v 0.03638303 -0.01050884 0.00000000
v 0.03832758 -0.00970338 0.00000000
v 0.03727520 -0.00991272 0.00000000
v 0.04027212 -0.01050884 0.00000000
v 0.04086825 -0.01140101 0.00000000
v 0.04027212 -0.01439793 0.00000000
v 0.04086825 -0.01350576 0.00000000
v 0.03832758 -0.01520338 0.00000000
v 0.03937996 -0.01499405 0.00000000
v 0.06005217 -0.02487442 0.00000000
v 0.05483886 -0.03267669 0.00000000
v 0.04596194 -0.04596194 0.00000000
v 0.02368775 -0.03535338 0.00000000
v 0.02474013 -0.03514405 0.00000000
v 0.03278879 -0.05476396 0.00000000
v 0.02563229 -0.03454793 0.00000000
v 0.02622841 -0.03365576 0.00000000
v 0.02487442 -0.06005217 0.00000000
v 0.01184387 -0.06264411 0.00000000
v 0.02263537 -0.03514405 0.00000000
v 0.02114708 -0.03365576 0.00000000
v 0.02174320 -0.03454793 0.00000000
v 0.02095233 -0.03267669 0.00000000
v 0.00194454 -0.03835545 0.00000000
v 0.00105238 -0.03775933 0.00000000
v 0.00254067 -0.03924762 0.00000000
v 0.00000000 -0.06500000 0.00000000
v -0.00000000 -0.04305000 0.00000000
v 0.00105238 -0.04284067 0.00000000
v -0.01184387 -0.06264411 0.00000000
v -0.00105238 -0.04284067 0.00000000
v -0.00000000 -0.03755000 0.00000000
v 0.00275000 -0.04030000 0.00000000
v 0.00254067 -0.04135238 0.00000000
v -0.00194454 -0.04224454 0.00000000
v -0.00105238 -0.03775933 0.00000000
v 0.00194454 -0.04224454 0.00000000
v -0.00254067 -0.04135238 0.00000000
v -0.00275000 -0.04030000 0.00000000
v -0.00194454 -0.03835545 0.00000000
v -0.00254067 -0.03924762 0.00000000
v -0.02487442 -0.06005217 0.00000000
v -0.02368775 -0.03535338 0.00000000
v -0.02174320 -0.03454793 0.00000000
v -0.02114708 -0.03365576 0.00000000
v -0.02263537 -0.03514405 0.00000000
v -0.03278879 -0.05476396 0.00000000
v -0.02622841 -0.03365576 0.00000000
v -0.02563229 -0.03454793 0.00000000
v -0.02474013 -0.03514405 0.00000000
v -0.02642316 -0.03267669 0.00000000
v -0.04596194 -0.04596194 0.00000000
v -0.05303879 -0.03537069 0.00000000
v -0.05303879 -0.03267669 0.00000000
v -0.05483886 -0.03267669 0.00000000
v -0.06005217 -0.02487442 0.00000000
v -0.06051883 -0.02252839 0.00000000
v -0.06500000 0.00000000 0.00000000
v -0.06051883 0.02252839 0.00000000
v -0.06005217 0.02487442 0.00000000
v -0.05483886 0.03267669 0.00000000
v -0.05303879 0.03537069 0.00000000
v -0.04596194 0.04596194 0.00000000
v -0.03278879 0.05476396 0.00000000
v -0.02563229 0.03454793 0.00000000
v -0.02622841 0.03365576 0.00000000
v -0.02368775 0.03535338 0.00000000
v -0.02474013 0.03514405 0.00000000
v -0.01184387 0.06264411 0.00000000
v -0.02263537 0.03514405 0.00000000
v -0.02114708 0.03365576 0.00000000
v -0.02487442 0.06005217 0.00000000
v -0.02174320 0.03454793 0.00000000
v -0.02095233 0.03267669 0.00000000
v 0.00000000 0.06500000 0.00000000
v 0.01184387 0.06264411 0.00000000
v 0.00105238 0.04284067 0.00000000
v 0.00194454 0.04224454 0.00000000
v 0.00254067 0.04135238 0.00000000
v 0.00275000 0.04030000 0.00000000
v -0.00000000 0.03755000 0.00000000
v 0.00105238 0.03775933 0.00000000
v -0.00194454 0.03835545 0.00000000
v -0.00105238 0.03775933 0.00000000
v -0.00254067 0.04135238 0.00000000
v -0.00000000 0.04305000 0.00000000
v -0.00105238 0.04284067 0.00000000
v 0.00254067 0.03924762 0.00000000
v 0.00194454 0.03835545 0.00000000
v -0.00254067 0.03924762 0.00000000
v -0.00194454 0.04224454 0.00000000
v -0.00275000 0.04030000 0.00000000
v 0.02174320 0.03454793 0.00000000
v 0.02114708 0.03365576 0.00000000
v 0.02487442 0.06005217 0.00000000
v 0.02368775 0.03535338 0.00000000
v 0.03278879 0.05476396 0.00000000
v 0.02622841 0.03365576 0.00000000
v 0.02263537 0.03514405 0.00000000
v 0.02563229 0.03454793 0.00000000
v 0.02474013 0.03514405 0.00000000
v 0.02642316 0.03267669 0.00000000
v 0.04596194 0.04596194 0.00000000
v 0.05483886 0.03267669 0.00000000
v 0.06005217 0.02487442 0.00000000
v 0.03832758 0.00970338 0.00000000
v 0.03937996 0.00991272 0.00000000
v 0.03832758 0.01520338 0.00000000
v 0.03727520 0.01499405 0.00000000
v 0.06051883 0.02252839 0.00000000
v 0.03937996 0.01499405 0.00000000
v 0.03727520 0.00991272 0.00000000
v 0.03557758 0.01245338 0.00000000
v 0.04027212 0.01439793 0.00000000
v 0.04107758 0.01245338 0.00000000
v 0.04086825 0.01350576 0.00000000
v 0.04086825 0.01140101 0.00000000
v 0.03638303 0.01050884 0.00000000
v 0.03578691 0.01140101 0.00000000
v 0.03638303 0.01439793 0.00000000
v 0.03578691 0.01350576 0.00000000
v 0.04027212 0.01050884 0.00000000
v -0.05303879 -0.02252839 0.00500000
v -0.05303879 -0.03267669 0.00500000
v -0.03278879 -0.03267669 0.00500000
v -0.03278879 -0.02252839 0.00500000
v -0.03832758 -0.01520338 0.00500000
v -0.03937996 -0.01499405 0.00500000
v -0.03278879 0.00000000 0.00500000
v -0.03832758 -0.00970338 0.00500000
v -0.03727520 -0.00991272 0.00500000
v -0.05303879 0.00000000 0.00500000
v -0.03937996 -0.00991272 0.00500000
v -0.03578691 -0.01140101 0.00500000
v -0.03557758 -0.01245338 0.00500000
v -0.03727520 -0.01499405 0.00500000
v -0.03638303 -0.01050884 0.00500000
v -0.04027212 -0.01050884 0.00500000
v -0.04107758 -0.01245338 0.00500000
v -0.04027212 -0.01439793 0.00500000
v -0.04086825 -0.01350576 0.00500000
v -0.03638303 -0.01439793 0.00500000
v -0.04086825 -0.01140101 0.00500000
v -0.03578691 -0.01350576 0.00500000
v -0.03832758 0.00970338 0.00500000
v -0.03937996 0.00991272 0.00500000
v -0.03278879 0.02252839 0.00500000
v -0.03832758 0.01520338 0.00500000
v -0.03727520 0.01499405 0.00500000
v -0.05303879 0.02252839 0.00500000
v -0.03937996 0.01499405 0.00500000
v -0.04086825 0.01140101 0.00500000
v -0.04107758 0.01245338 0.00500000
v -0.03727520 0.00991272 0.00500000
v -0.03638303 0.01439793 0.00500000
v -0.03578691 0.01350576 0.00500000
v -0.04027212 0.01439793 0.00500000
v -0.04027212 0.01050884 0.00500000
v -0.03638303 0.01050884 0.00500000
v -0.03557758 0.01245338 0.00500000
v -0.04086825 0.01350576 0.00500000
v -0.03578691 0.01140101 0.00500000
v -0.05303879 0.03267669 0.00500000
v 0.03278879 0.00000000 0.00500000
v 0.03000000 0.00000000 0.00500000
v 0.02771639 -0.01148050 0.00500000
v 0.03278879 -0.02252839 0.00500000
v 0.02121320 -0.02121320 0.00500000
v 0.01924490 -0.02252839 0.00500000
v 0.02368775 -0.02985338 0.00500000
v 0.01184387 -0.02747359 0.00500000
v 0.02174320 -0.03065884 0.00500000
v 0.03278879 -0.03267669 0.00500000
v 0.02622841 -0.03155101 0.00500000
v 0.02474013 -0.03006272 0.00500000
v 0.02263537 -0.03006272 0.00500000
v 0.02563229 -0.03065884 0.00500000
v 0.01184387 -0.03267669 0.00500000
v 0.02093775 -0.03260338 0.00500000
v 0.02114708 -0.03155101 0.00500000
v 0.02643775 -0.03260338 0.00500000
v 0.02095233 -0.03267669 0.00500000
v -0.01184387 -0.03267669 0.00500000
v 0.00000000 -0.03000000 0.00500000
v 0.01148050 -0.02771639 0.00500000
v -0.01148050 -0.02771639 0.00500000
v -0.02474013 -0.03006272 0.00500000
v -0.02368775 -0.02985338 0.00500000
v -0.02563229 -0.03065884 0.00500000
v -0.01924490 -0.02252839 0.00500000
v -0.02263537 -0.03006272 0.00500000
v -0.02174320 -0.03065884 0.00500000
v -0.02622841 -0.03155101 0.00500000
v -0.02643775 -0.03260338 0.00500000
v -0.01184387 -0.02747359 0.00500000
v -0.02114708 -0.03155101 0.00500000
v -0.02093775 -0.03260338 0.00500000
v -0.02642316 -0.03267669 0.00500000
v -0.02771639 -0.01148050 0.00500000
v -0.02121320 -0.02121320 0.00500000
v -0.03000000 0.00000000 0.00500000
v -0.02771639 0.01148050 0.00500000
v -0.02121320 0.02121320 0.00500000
v -0.01924490 0.02252839 0.00500000
v -0.01184387 0.02747359 0.00500000
v -0.02174320 0.03065884 0.00500000
v -0.02263537 0.03006272 0.00500000
v -0.01184387 0.03267669 0.00500000
v -0.02093775 0.03260338 0.00500000
v -0.02114708 0.03155101 0.00500000
v -0.03278879 0.03267669 0.00500000
v -0.02622841 0.03155101 0.00500000
v -0.02368775 0.02985338 0.00500000
v -0.02095233 0.03267669 0.00500000
v -0.02643775 0.03260338 0.00500000
v -0.02474013 0.03006272 0.00500000
v -0.02563229 0.03065884 0.00500000
v -0.01148050 0.02771639 0.00500000
v 0.00000000 0.03000000 0.00500000
v 0.01184387 0.03267669 0.00500000
v 0.01148050 0.02771639 0.00500000
v 0.03278879 0.02252839 0.00500000
v 0.02474013 0.03006272 0.00500000
v 0.02368775 0.02985338 0.00500000
v 0.02563229 0.03065884 0.00500000
v 0.03278879 0.03267669 0.00500000
v 0.02643775 0.03260338 0.00500000
v 0.02622841 0.03155101 0.00500000
v 0.01184387 0.02747359 0.00500000
v 0.02114708 0.03155101 0.00500000
v 0.01924490 0.02252839 0.00500000
v 0.02263537 0.03006272 0.00500000
v 0.02174320 0.03065884 0.00500000
v 0.02642316 0.03267669 0.00500000
v 0.02093775 0.03260338 0.00500000
v 0.02771639 0.01148050 0.00500000
v 0.02121320 0.02121320 0.00500000
v 0.03832758 0.01520338 0.00500000
v 0.03937996 0.01499405 0.00500000
v 0.06051883 0.02252839 0.00500000
v 0.03832758 0.00970338 0.00500000
v 0.03727520 0.00991272 0.00500000
v 0.06500000 0.00000000 0.00500000
v 0.03937996 0.00991272 0.00500000
v 0.03727520 0.01499405 0.00500000
v 0.03578691 0.01140101 0.00500000
v 0.03557758 0.01245338 0.00500000
v 0.04027212 0.01439793 0.00500000
v 0.04086825 0.01350576 0.00500000
v 0.03638303 0.01439793 0.00500000
v 0.03638303 0.01050884 0.00500000
v 0.04027212 0.01050884 0.00500000
v 0.04107758 0.01245338 0.00500000
v 0.03578691 0.01350576 0.00500000
v 0.04086825 0.01140101 0.00500000
v 0.06005217 0.02487442 0.00500000
v 0.05483886 0.03267669 0.00500000
v 0.04596194 0.04596194 0.00500000
v 0.03278879 0.05476396 0.00500000
v 0.02563229 0.03454793 0.00500000
v 0.02622841 0.03365576 0.00500000
v 0.02368775 0.03535338 0.00500000
v 0.02474013 0.03514405 0.00500000
v 0.01184387 0.06264411 0.00500000
v 0.02263537 0.03514405 0.00500000
v 0.02114708 0.03365576 0.00500000
v 0.02487442 0.06005217 0.00500000
v 0.02174320 0.03454793 0.00500000
v 0.02095233 0.03267669 0.00500000
v 0.00000000 0.06500000 0.00500000
v -0.01184387 0.06264411 0.00500000
v -0.00105238 0.04284067 0.00500000
v -0.00194454 0.04224454 0.00500000
v -0.00254067 0.04135238 0.00500000
v -0.00275000 0.04030000 0.00500000
v -0.00000000 0.04305000 0.00500000
v 0.00105238 0.04284067 0.00500000
v -0.00254067 0.03924762 0.00500000
v 0.00105238 0.03775933 0.00500000
v -0.00000000 0.03755000 0.00500000
v 0.00254067 0.04135238 0.00500000
v 0.00194454 0.04224454 0.00500000
v -0.00194454 0.03835545 0.00500000
v -0.00105238 0.03775933 0.00500000
v 0.00194454 0.03835545 0.00500000
v 0.00254067 0.03924762 0.00500000
v 0.00275000 0.04030000 0.00500000
v -0.02174320 0.03454793 0.00500000
v -0.02114708 0.03365576 0.00500000
v -0.02487442 0.06005217 0.00500000
v -0.02368775 0.03535338 0.00500000
v -0.03278879 0.05476396 0.00500000
v -0.02622841 0.03365576 0.00500000
v -0.02263537 0.03514405 0.00500000
v -0.02563229 0.03454793 0.00500000
v -0.02474013 0.03514405 0.00500000
v -0.02642316 0.03267669 0.00500000
v -0.04596194 0.04596194 0.00500000
v -0.05303879 0.03537069 0.00500000
v -0.05483886 0.03267669 0.00500000
v -0.06005217 0.02487442 0.00500000
v -0.06051883 0.02252839 0.00500000
v -0.06500000 0.00000000 0.00500000
v -0.06051883 -0.02252839 0.00500000
v -0.06005217 -0.02487442 0.00500000
v -0.05483886 -0.03267669 0.00500000
v -0.05303879 -0.03537069 0.00500000
v -0.04596194 -0.04596194 0.00500000
v -0.01184387 -0.06264411 0.00500000
v -0.02263537 -0.03514405 0.00500000
v -0.02368775 -0.03535338 0.00500000
v -0.03278879 -0.05476396 0.00500000
v -0.02563229 -0.03454793 0.00500000
v -0.02622841 -0.03365576 0.00500000
v -0.02474013 -0.03514405 0.00500000
v -0.02174320 -0.03454793 0.00500000
v -0.02114708 -0.03365576 0.00500000
v -0.02487442 -0.06005217 0.00500000
v -0.02095233 -0.03267669 0.00500000
v -0.00194454 -0.03835545 0.00500000
v -0.00105238 -0.03775933 0.00500000
v -0.00254067 -0.03924762 0.00500000
v 0.00000000 -0.06500000 0.00500000
v -0.00000000 -0.04305000 0.00500000
v -0.00105238 -0.04284067 0.00500000
v -0.00000000 -0.03755000 0.00500000
v -0.00275000 -0.04030000 0.00500000
v -0.00254067 -0.04135238 0.00500000
v 0.01184387 -0.06264411 0.00500000
v 0.00105238 -0.04284067 0.00500000
v 0.00194454 -0.03835545 0.00500000
v 0.00254067 -0.03924762 0.00500000
v 0.00105238 -0.03775933 0.00500000
v -0.00194454 -0.04224454 0.00500000
v 0.00194454 -0.04224454 0.00500000
v 0.00254067 -0.04135238 0.00500000
v 0.00275000 -0.04030000 0.00500000
v 0.02368775 -0.03535338 0.00500000
v 0.02487442 -0.06005217 0.00500000
v 0.03278879 -0.05476396 0.00500000
v 0.02174320 -0.03454793 0.00500000
v 0.02114708 -0.03365576 0.00500000
v 0.02563229 -0.03454793 0.00500000
v 0.02474013 -0.03514405 0.00500000
v 0.02622841 -0.03365576 0.00500000
v 0.02263537 -0.03514405 0.00500000
v 0.02642316 -0.03267669 0.00500000
v 0.04596194 -0.04596194 0.00500000
v 0.05483886 -0.03267669 0.00500000
v 0.06005217 -0.02487442 0.00500000
v 0.04086825 -0.01140101 0.00500000
v 0.04107758 -0.01245338 0.00500000
v 0.03832758 -0.00970338 0.00500000
v 0.03937996 -0.00991272 0.00500000
v 0.03557758 -0.01245338 0.00500000
v 0.03638303 -0.01439793 0.00500000
v 0.03578691 -0.01350576 0.00500000
v 0.03832758 -0.01520338 0.00500000
v 0.03727520 -0.01499405 0.00500000
v 0.04027212 -0.01050884 0.00500000
v 0.03638303 -0.01050884 0.00500000
v 0.03727520 -0.00991272 0.00500000
v 0.03578691 -0.01140101 0.00500000
v 0.06051883 -0.02252839 0.00500000
v 0.03937996 -0.01499405 0.00500000
v 0.04086825 -0.01350576 0.00500000
v 0.04027212 -0.01439793 0.00500000
v -0.02771639 -0.01148050 0.00000000
v -0.03000000 0.00000000 0.00000000
v -0.03000000 0.00000000 0.00500000
v -0.02121320 -0.02121320 0.00000000
v -0.02771639 -0.01148050 0.00500000
v -0.01148050 -0.02771639 0.00000000
v -0.01184387 -0.02747359 0.00000000
v -0.01184387 -0.02747359 0.00500000
v -0.01924490 -0.02252839 0.00500000
v -0.01924490 -0.02252839 0.00000000
v -0.02121320 -0.02121320 0.00500000
v 0.00000000 -0.03000000 0.00000000
v -0.01148050 -0.02771639 0.00500000
v 0.01148050 -0.02771639 0.00000000
v 0.00000000 -0.03000000 0.00500000
v 0.02121320 -0.02121320 0.00000000
v 0.01924490 -0.02252839 0.00000000
v 0.01924490 -0.02252839 0.00500000
v 0.01184387 -0.02747359 0.00000000
v 0.01184387 -0.02747359 0.00500000
v 0.01148050 -0.02771639 0.00500000
v 0.02771639 -0.01148050 0.00000000
v 0.02121320 -0.02121320 0.00500000
v 0.03000000 0.00000000 0.00000000
v 0.02771639 -0.01148050 0.00500000
v 0.02771639 0.01148050 0.00000000
v 0.03000000 0.00000000 0.00500000
v 0.02121320 0.02121320 0.00000000
v 0.02771639 0.01148050 0.00500000
v 0.01148050 0.02771639 0.00000000
v 0.01184387 0.02747359 0.00000000
v 0.01184387 0.02747359 0.00500000
v 0.01924490 0.02252839 0.00000000
v 0.01924490 0.02252839 0.00500000
v 0.02121320 0.02121320 0.00500000
v 0.00000000 0.03000000 0.00000000
v 0.01148050 0.02771639 0.00500000
v -0.01148050 0.02771639 0.00000000
v 0.00000000 0.03000000 0.00500000
v -0.02121320 0.02121320 0.00000000
v -0.01924490 0.02252839 0.00000000
v -0.01924490 0.02252839 0.00500000
v -0.01184387 0.02747359 0.00500000
v -0.01184387 0.02747359 0.00000000
v -0.01148050 0.02771639 0.00500000
v -0.02771639 0.01148050 0.00000000
v -0.02121320 0.02121320 0.00500000
v -0.02771639 0.01148050 0.00500000
vt 0.50000000 0.50000000
vt 0.50000000 0.50000000
vt 0.50000000 0.50000000
vt 0.50000000 0.50000000
vt 0.50000000 0.50000000
vt 0.50000000 0.50000000
vt 0.50000000 0.50000000
vt 0.50000000 0.50000000
vt 0.50000000 0.50000000
vt 0.50000000 0.50000000
vt 0.50000000 0.50000000
vt 0.50000000 0.50000000
vt 0.50000000 0.50000000
vt 0.50000000 0.50000000
vt 0.50000000 0.50000000
vt 0.50000000 0.50000000
vt 0.50000000 0.50000000
vt 0.50000000 0.50000000
vt 0.50000000 0.50000000
vt 0.50000000 0.50000000
vt 0.50000000 0.50000000
vt 0.50000000 0.50000000
vt 0.50000000 0.50000000
vt 0.50000000 0.50000000
vt 0.50000000 0.50000000
vt 0.50000000 0.50000000
vt 0.50000000 0.50000000
vt 0.50000000 0.50000000
vt 0.50000000 0.50000000
vt 0.50000000 0.50000000
vt 0.50000000 0.50000000
vt 0.50000000 0.50000000
vt 0.50000000 0.50000000
vt 0.50000000 0.50000000
vt 0.50000000 0.50000000
vt 0.50000000 0.50000000
vt 0.50000000 0.50000000
vt 0.50000000 0.50000000
vt 0.50000000 0.50000000
vt 0.50000000 0.50000000
vt 0.50000000 0.50000000
vt 0.50000000 0.50000000
vt 0.50000000 0.50000000
vt 0.50000000 0.50000000
vt 0.50000000 0.50000000
vt 0.50000000 0.50000000
vt 0.50000000 0.50000000
vt 0.50000000 0.50000000
vt 0.50000000 0.50000000
vt 0.50000000 0.50000000
vt 0.50000000 0.50000000
vt 0.50000000 0.50000000
vt 0.50000000 0.50000000
vt 0.50000000 0.50000000
vt 0.50000000 0.50000000
vt 0.50000000 0.50000000
vt 0.50000000 0.50000000
vt 0.50000000 0.50000000
vt 0.50000000 0.50000000
vt 0.50000000 0.50000000
vt 0.50000000 0.50000000
vt 0.50000000 0.50000000
vt 0.50000000 0.50000000
vt 0.50000000 0.50000000
vt 0.50000000 0.50000000
vt 0.50000000 0.50000000
vt 0.50000000 0.50000000
vt 0.50000000 0.50000000
vt 0.50000000 0.50000000
vt 0.50000000 0.50000000
vt 0.50000000 0.50000000
vt 0.50000000 0.50000000
vt 0.50000000 0.50000000
vt 0.50000000 0.50000000
vt 0.50000000 0.50000000
vt 0.50000000 0.50000000
vt 0.50000000 0.50000000
vt 0.50000000 0.50000000
vt 0.50000000 0.50000000
vt 0.50000000 0.50000000
vt 0.50000000 0.50000000
vt 0.50000000 0.50000000
vt 0.50000000 0.50000000
vt 0.50000000 0.50000000
vt 0.50000000 0.50000000
vt 0.50000000 0.50000000
vt 0.50000000 0.50000000
vt 0.50000000 0.50000000
vt 0.50000000 0.50000000
vt 0.50000000 0.50000000
vt 0.50000000 0.50000000
vt 0.50000000 0.50000000
vt 0.50000000 0.50000000
vt 0.50000000 0.50000000
vt 0.50000000 0.50000000
vt 0.50000000 0.50000000
vt 0.50000000 0.50000000
vt 0.50000000 0.50000000
vt 0.50000000 0.50000000
vt 0.50000000 0.50000000
vt 0.50000000 0.50000000
vt 0.50000000 0.50000000
vt 0.50000000 0.50000000
vt 0.50000000 0.50000000
vt 0.50000000 0.50000000
vt 0.50000000 0.50000000
vt 0.50000000 0.50000000
vt 0.50000000 0.50000000
vt 0.50000000 0.50000000
vt 0.50000000 0.50000000
vt 0.50000000 0.50000000
vt 0.50000000 0.50000000
vt 0.50000000 0.50000000
vt 0.50000000 0.50000000
vt 0.50000000 0.50000000
vt 0.50000000 0.50000000
vt 0.50000000 0.50000000
vt 0.50000000 0.50000000
vt 0.50000000 0.50000000
vt 0.50000000 0.50000000
vt 0.50000000 0.50000000
vt 0.50000000 0.50000000
vt 0.50000000 0.50000000
vt 0.50000000 0.50000000
vt 0.50000000 0.50000000
vt 0.50000000 0.50000000
vt 0.50000000 0.50000000
vt 0.50000000 0.50000000
vt 0.50000000 0.50000000
vt 0.50000000 0.50000000
vt 0.50000000 0.50000000
vt 0.50000000 0.50000000
vt 0.50000000 0.50000000
vt 0.50000000 0.50000000
vt 0.50000000 0.50000000
vt 0.50000000 0.50000000
vt 0.50000000 0.50000000
vt 0.50000000 0.50000000
vt 0.50000000 0.50000000
vt 0.50000000 0.50000000
vt 0.50000000 0.50000000
vt 0.50000000 0.50000000
vt 0.50000000 0.50000000
vt 0.50000000 0.50000000
vt 0.50000000 0.50000000
vt 0.50000000 0.50000000
vt 0.50000000 0.50000000
vt 0.50000000 0.50000000
vt 0.50000000 0.50000000
vt 0.50000000 0.50000000
vt 0.50000000 0.50000000
vt 0.50000000 0.50000000
vt 0.50000000 0.50000000
vt 0.50000000 0.50000000
vt 0.50000000 0.50000000
vt 0.50000000 0.50000000
vt 0.50000000 0.50000000
vt 0.50000000 0.50000000
vt 0.50000000 0.50000000
vt 0.50000000 0.50000000
vt 0.50000000 0.50000000
vt 0.50000000 0.50000000
vt 0.50000000 0.50000000
vt 0.50000000 0.50000000
vt 0.50000000 0.50000000
vt 0.50000000 0.50000000
vt 0.50000000 0.50000000
vt 0.50000000 0.50000000
vt 0.50000000 0.50000000
vt 0.50000000 0.50000000
vt 0.50000000 0.50000000
vt 0.50000000 0.50000000
vt 0.50000000 0.50000000
vt 0.50000000 0.50000000
vt 0.50000000 0.50000000
vt 0.50000000 0.50000000
vt 0.50000000 0.50000000
vt 0.50000000 0.50000000
vt 0.50000000 0.50000000
vt 0.50000000 0.50000000
vt 0.50000000 0.50000000
vt 0.50000000 0.50000000
vt 0.50000000 0.50000000
vt 0.50000000 0.50000000
vt 0.50000000 0.50000000
vt 0.50000000 0.50000000
vt 0.50000000 0.50000000
vt 0.50000000 0.50000000
vt 0.50000000 0.50000000
vt 0.50000000 0.50000000
vt 0.50000000 0.50000000
vt 0.50000000 0.50000000
vt 0.50000000 0.50000000
vt 0.50000000 0.50000000
vt 0.50000000 0.50000000
vt 0.50000000 0.50000000
vt 0.50000000 0.50000000
vt 0.50000000 0.50000000
vt 0.50000000 0.50000000
vt 0.50000000 0.50000000
vt 0.50000000 0.50000000
vt 0.50000000 0.50000000
vt 0.50000000 0.50000000
vt 0.50000000 0.50000000
vt 0.50000000 0.50000000
vt 0.50000000 0.50000000
vt 0.50000000 0.50000000
vt 0.50000000 0.50000000
vt 0.50000000 0.50000000
vt 0.50000000 0.50000000
vt 0.50000000 0.50000000
vt 0.50000000 0.50000000
vt 0.50000000 0.50000000
vt 0.50000000 0.50000000
vt 0.50000000 0.50000000
vt 0.50000000 0.50000000
vt 0.50000000 0.50000000
vt 0.50000000 0.50000000
vt 0.50000000 0.50000000
vt 0.50000000 0.50000000
vt 0.50000000 0.50000000
vt 0.50000000 0.50000000
vt 0.50000000 0.50000000
vt 0.50000000 0.50000000
vt 0.50000000 0.50000000
vt 0.50000000 0.50000000
vt 0.50000000 0.50000000
vt 0.50000000 0.50000000
vt 0.50000000 0.50000000
vt 0.50000000 0.50000000
vt 0.50000000 0.50000000
vt 0.50000000 0.50000000
vt 0.50000000 0.50000000
vt 0.50000000 0.50000000
vt 0.50000000 0.50000000
vt 0.50000000 0.50000000
vt 0.50000000 0.50000000
vt 0.50000000 0.50000000
vt 0.50000000 0.50000000
vt 0.50000000 0.50000000
vt 0.50000000 0.50000000
vt 0.50000000 0.50000000
vt 0.50000000 0.50000000
vt 0.50000000 0.50000000
vt 0.50000000 0.50000000
vt 0.50000000 0.50000000
vt 0.50000000 0.50000000
vt 0.50000000 0.50000000
vt 0.50000000 0.50000000
vt 0.50000000 0.50000000
vt 0.50000000 0.50000000
vt 0.50000000 0.50000000
vt 0.50000000 0.50000000
vt 0.50000000 0.50000000
vt 0.50000000 0.50000000
vt 0.50000000 0.50000000
vt 0.50000000 0.50000000
vt 0.50000000 0.50000000
vt 0.50000000 0.50000000
vt 0.50000000 0.50000000
vt 0.50000000 0.50000000
vt 0.50000000 0.50000000
vt 0.50000000 0.50000000
vt 0.50000000 0.50000000
vt 0.50000000 0.50000000
vt 0.50000000 0.50000000
vt 0.50000000 0.50000000
vt 0.50000000 0.50000000
vt 0.50000000 0.50000000
vt 0.50000000 0.50000000
vt 0.50000000 0.50000000
vt 0.50000000 0.50000000
vt 0.50000000 0.50000000
vt 0.50000000 0.50000000
vt 0.50000000 0.50000000
vt 0.50000000 0.50000000
vt 0.50000000 0.50000000
vt 0.50000000 0.50000000
vt 0.50000000 0.50000000
vt 0.50000000 0.50000000
vt 0.50000000 0.50000000
vt 0.50000000 0.50000000
vt 0.50000000 0.50000000
vt 0.50000000 0.50000000
vt 0.50000000 0.50000000
vt 0.50000000 0.50000000
vt 0.50000000 0.50000000
vt 0.50000000 0.50000000
vt 0.50000000 0.50000000
vt 0.50000000 0.50000000
vt 0.50000000 0.50000000
vt 0.50000000 0.50000000
vt 0.50000000 0.50000000
vt 0.50000000 0.50000000
vt 0.50000000 0.50000000
vt 0.50000000 0.50000000
vt 0.50000000 0.50000000
vt 0.50000000 0.50000000
vt 0.50000000 0.50000000
vt 0.50000000 0.50000000
vt 0.50000000 0.50000000
vt 0.50000000 0.50000000
vt 0.50000000 0.50000000
vt 0.50000000 0.50000000
vt 0.50000000 0.50000000
vt 0.50000000 0.50000000
vt 0.50000000 0.50000000
vt 0.50000000 0.50000000
vt 0.50000000 0.50000000
vt 0.50000000 0.50000000
vt 0.50000000 0.50000000
vt 0.50000000 0.50000000
vt 0.50000000 0.50000000
vt 0.50000000 0.50000000
vt 0.50000000 0.50000000
vt 0.50000000 0.50000000
vt 0.50000000 0.50000000
vt 0.50000000 0.50000000
vt 0.50000000 0.50000000
vt 0.50000000 0.50000000
vt 0.50000000 0.50000000
vt 0.50000000 0.50000000
vt 0.50000000 0.50000000
vt 0.50000000 0.50000000
vt 0.50000000 0.50000000
vt 0.50000000 0.50000000
vt 0.50000000 0.50000000
vt 0.50000000 0.50000000
vt 0.50000000 0.50000000
vt 0.50000000 0.50000000
vt 0.50000000 0.50000000
vt 0.50000000 0.50000000
vt 0.50000000 0.50000000
vt 0.50000000 0.50000000
vt 0.50000000 0.50000000
vt 0.50000000 0.50000000
vt 0.50000000 0.50000000
vt 0.50000000 0.50000000
vt 0.50000000 0.50000000
vt 0.50000000 0.50000000
vt 0.50000000 0.50000000
vt 0.50000000 0.50000000
vt 0.50000000 0.50000000
vt 0.50000000 0.50000000
vt 0.50000000 0.50000000
vt 0.50000000 0.50000000
vt 0.50000000 0.50000000
vt 0.50000000 0.50000000
vt 0.50000000 0.50000000
vt 0.50000000 0.50000000
vt 0.50000000 0.50000000
vt 0.50000000 0.50000000
vt 0.50000000 0.50000000
vt 0.50000000 0.50000000
vt 0.50000000 0.50000000
vt 0.50000000 0.50000000
vt 0.50000000 0.50000000
vt 0.50000000 0.50000000
vt 0.50000000 0.50000000
vt 0.50000000 0.50000000
vt 0.50000000 0.50000000
vt 0.50000000 0.50000000
vt 0.50000000 0.50000000
vt 0.50000000 0.50000000
vt 0.50000000 0.50000000
vt 0.50000000 0.50000000
vt 0.50000000 0.50000000
vt 0.50000000 0.50000000
vt 0.50000000 0.50000000
vt 0.50000000 0.50000000
vt 0.50000000 0.50000000
vt 0.50000000 0.50000000
vt 0.50000000 0.50000000
vt 0.50000000 0.50000000
vt 0.50000000 0.50000000
vt 0.50000000 0.50000000
vt 0.50000000 0.50000000
vt 0.50000000 0.50000000
vt 0.50000000 0.50000000
vt 0.50000000 0.50000000
vt 0.50000000 0.50000000
vt 0.50000000 0.50000000
vt 0.50000000 0.50000000
vt 0.50000000 0.50000000
vt 0.50000000 0.50000000
vt 0.50000000 0.50000000
vt 0.50000000 0.50000000
vt 0.50000000 0.50000000
vt 0.50000000 0.50000000
vt 0.50000000 0.50000000
vt 0.50000000 0.50000000
vt 0.50000000 0.50000000
vt 0.50000000 0.50000000
vt 0.50000000 0.50000000
vt 0.50000000 0.50000000
vt 0.50000000 0.50000000
vt 0.50000000 0.50000000
vt 0.50000000 0.50000000
vt 0.50000000 0.50000000
vt 0.50000000 0.50000000
vt 0.50000000 0.50000000
vt 0.50000000 0.50000000
vt 0.50000000 0.50000000
vt 0.50000000 0.50000000
vt 0.50000000 0.50000000
vt 0.50000000 0.50000000
vt 0.50000000 0.50000000
vt 0.50000000 0.50000000
vt 0.50000000 0.50000000
vt 0.50000000 0.50000000
vt 0.50000000 0.50000000
vt 0.50000000 0.50000000
vt 0.50000000 0.50000000
vt 0.50000000 0.50000000
vt 0.50000000 0.50000000
vt 0.50000000 0.50000000
vt 0.50000000 0.50000000
vt 0.50000000 0.50000000
vt 0.50000000 0.50000000
vt 0.50000000 0.50000000
vt 0.50000000 0.50000000
vt 0.50000000 0.50000000
vt 0.50000000 0.50000000
vt 0.50000000 0.50000000
vt 0.50000000 0.50000000
vt 0.50000000 0.50000000
vt 0.50000000 0.50000000
vt 0.50000000 0.50000000
vt 0.50000000 0.50000000
vt 0.50000000 0.50000000
vt 0.50000000 0.50000000
vt 0.50000000 0.50000000
vt 0.50000000 0.50000000
vt 0.50000000 0.50000000
vt 0.50000000 0.50000000
vt 0.50000000 0.50000000
vt 0.50000000 0.50000000
vt 0.50000000 0.50000000
vt 0.50000000 0.50000000
vt 0.50000000 0.50000000
vt 0.50000000 0.50000000
vt 0.50000000 0.50000000
vt 0.50000000 0.50000000
vt 0.50000000 0.50000000
vt 0.50000000 0.50000000
vt 0.50000000 0.50000000
vt 0.50000000 0.50000000
vt 0.50000000 0.50000000
vt 0.50000000 0.50000000
vt 0.50000000 0.50000000
vt 0.50000000 0.50000000
vt 0.50000000 0.50000000
vt 0.50000000 0.50000000
vt 0.50000000 0.50000000
vt 0.50000000 0.50000000
vt 0.50000000 0.50000000
vt 0.50000000 0.50000000
vt 0.50000000 0.50000000
vt 0.50000000 0.50000000
vt 0.50000000 0.50000000
vt 0.50000000 0.50000000
vt 0.50000000 0.50000000
vt 0.50000000 0.50000000
vt 0.50000000 0.50000000
vt 0.50000000 0.50000000
vt 0.50000000 0.50000000
vt 0.50000000 0.50000000
vt 0.50000000 0.50000000
vt 0.50000000 0.50000000
vt 0.50000000 0.50000000
vt 0.50000000 0.50000000
vt 0.50000000 0.50000000
vt 0.50000000 0.50000000
vt 0.50000000 0.50000000
vt 0.50000000 0.50000000
vt 0.50000000 0.50000000
vt 0.50000000 0.50000000
vt 0.50000000 0.50000000
vt 0.50000000 0.50000000
vt 0.50000000 0.50000000
vt 0.50000000 0.50000000
vt 0.50000000 0.50000000
vt 0.50000000 0.50000000
vt 0.50000000 0.50000000
vt 0.50000000 0.50000000
vt 0.50000000 0.50000000
vt 0.50000000 0.50000000
vt 0.50000000 0.50000000
vt 0.50000000 0.50000000
vt 0.50000000 0.50000000
vt 0.50000000 0.50000000
vt 0.50000000 0.50000000
vt 0.50000000 0.50000000
vt 0.50000000 0.50000000
vt 0.50000000 0.50000000
vt 0.50000000 0.50000000
vt 0.50000000 0.50000000
vt 0.50000000 0.50000000
vt 0.50000000 0.50000000
vt 0.50000000 0.50000000
vt 0.50000000 0.50000000
vt 0.50000000 0.50000000
vt 0.50000000 0.50000000
vt 0.50000000 0.50000000
vt 0.50000000 0.50000000
vt 0.50000000 0.50000000
vt 0.50000000 0.50000000
vt 0.50000000 0.50000000
vt 0.50000000 0.50000000
vt 0.50000000 0.50000000
vt 0.50000000 0.50000000
vt 0.50000000 0.50000000
vt 0.50000000 0.50000000
vt 0.50000000 0.50000000
vt 0.50000000 0.50000000
vt 0.50000000 0.50000000
vt 0.50000000 0.50000000
vt 0.50000000 0.50000000
vt 0.50000000 0.50000000
vt 0.50000000 0.50000000
vt 0.50000000 0.50000000
vt 0.50000000 0.50000000
vt 0.50000000 0.50000000
vt 0.50000000 0.50000000
vt 0.50000000 0.50000000
vt 0.50000000 0.50000000
vt 0.50000000 0.50000000
vt 0.50000000 0.50000000
vt 0.50000000 0.50000000
vt 0.50000000 0.50000000
vt 0.50000000 0.50000000
vt 0.50000000 0.50000000
vt 0.50000000 0.50000000
vt 0.50000000 0.50000000
vt 0.50000000 0.50000000
vt 0.50000000 0.50000000
vt 0.50000000 0.50000000
vt 0.50000000 0.50000000
vt 0.50000000 0.50000000
vt 0.50000000 0.50000000
vt 0.50000000 0.50000000
vt 0.50000000 0.50000000
vt 0.50000000 0.50000000
vt 0.50000000 0.50000000
vt 0.50000000 0.50000000
vt 0.50000000 0.50000000
vt 0.50000000 0.50000000
vt 0.50000000 0.50000000
vt 0.50000000 0.50000000
vt 0.50000000 0.50000000
vt 0.50000000 0.50000000
vt 0.50000000 0.50000000
vt 0.50000000 0.50000000
vt 0.50000000 0.50000000
vt 0.50000000 0.50000000
vt 0.50000000 0.50000000
vt 0.50000000 0.50000000
vt 0.50000000 0.50000000
vt 0.50000000 0.50000000
vt 0.50000000 0.50000000
vt 0.50000000 0.50000000
vt 0.50000000 0.50000000
vt 0.50000000 0.50000000
vt 0.50000000 0.50000000
vt 0.50000000 0.50000000
vt 0.50000000 0.50000000
vt 0.50000000 0.50000000
vt 0.50000000 0.50000000
vt 0.50000000 0.50000000
vt 0.50000000 0.50000000
vt 0.50000000 0.50000000
vt 0.50000000 0.50000000
vt 0.50000000 0.50000000
vt 0.50000000 0.50000000
vt 0.50000000 0.50000000
vt 0.50000000 0.50000000
vt 0.50000000 0.50000000
vt 0.50000000 0.50000000
vt 0.50000000 0.50000000
vt 0.50000000 0.50000000
vt 0.50000000 0.50000000
vt 0.50000000 0.50000000
vt 0.50000000 0.50000000
vt 0.50000000 0.50000000
vt 0.50000000 0.50000000
vt 0.50000000 0.50000000
vt 0.50000000 0.50000000
vt 0.50000000 0.50000000
vt 0.50000000 0.50000000
vt 0.50000000 0.50000000
vt 0.50000000 0.50000000
vt 0.50000000 0.50000000
vt 0.50000000 0.50000000
vt 0.50000000 0.50000000
vt 0.50000000 0.50000000
vt 0.50000000 0.50000000
vt 0.50000000 0.50000000
vt 0.50000000 0.50000000
vt 0.50000000 0.50000000
vt 0.50000000 0.50000000
vt 0.50000000 0.50000000
vt 0.50000000 0.50000000
vt 0.50000000 0.50000000
vt 0.50000000 0.50000000
vt 0.50000000 0.50000000
vt 0.50000000 0.50000000
vt 0.50000000 0.50000000
vt 0.50000000 0.50000000
vt 0.50000000 0.50000000
vt 0.50000000 0.50000000
vt 0.50000000 0.50000000
vt 0.50000000 0.50000000
vt 0.50000000 0.50000000
vt 0.50000000 0.50000000
vt 0.50000000 0.50000000
vt 0.50000000 0.50000000
vt 0.50000000 0.50000000
vt 0.50000000 0.50000000
vt 0.50000000 0.50000000
vt 0.50000000 0.50000000
vt 0.50000000 0.50000000
vt 0.50000000 0.50000000
vt 0.50000000 0.50000000
vt 0.50000000 0.50000000
vt 0.50000000 0.50000000
vt 0.50000000 0.50000000
vt 0.50000000 0.50000000
vt 0.50000000 0.50000000
vt 0.50000000 0.50000000
vt 0.50000000 0.50000000
vt 0.50000000 0.50000000
vt 0.50000000 0.50000000
vt 0.50000000 0.50000000
vt 0.50000000 0.50000000
vt 0.50000000 0.50000000
vt 0.50000000 0.50000000
vt 0.50000000 0.50000000
vt 0.50000000 0.50000000
vt 0.50000000 0.50000000
vt 0.50000000 0.50000000
vt 0.50000000 0.50000000
vt 0.50000000 0.50000000
vt 0.50000000 0.50000000
vt 0.50000000 0.50000000
vt 0.50000000 0.50000000
vt 0.50000000 0.50000000
vt 0.50000000 0.50000000
vt 0.50000000 0.50000000
vt 0.50000000 0.50000000
vt 0.50000000 0.50000000
vt 0.50000000 0.50000000
vt 0.50000000 0.50000000
vt 0.50000000 0.50000000
vt 0.50000000 0.50000000
vt 0.50000000 0.50000000
vt 0.50000000 0.50000000
vt 0.50000000 0.50000000
vt 0.50000000 0.50000000
vt 0.50000000 0.50000000
vt 0.50000000 0.50000000
vt 0.50000000 0.50000000
vt 0.50000000 0.50000000
vt 0.50000000 0.50000000
vt 0.50000000 0.50000000
vt 0.50000000 0.50000000
vt 0.50000000 0.50000000
vt 0.50000000 0.50000000
vt 0.50000000 0.50000000
vt 0.50000000 0.50000000
vt 0.50000000 0.50000000
vt 0.50000000 0.50000000
vt 0.50000000 0.50000000
vt 0.50000000 0.50000000
vt 0.50000000 0.50000000
vt 0.50000000 0.50000000
vt 0.50000000 0.50000000
vt 0.50000000 0.50000000
vt 0.50000000 0.50000000
vt 0.50000000 0.50000000
vt 0.50000000 0.50000000
vt 0.50000000 0.50000000
vt 0.50000000 0.50000000
vt 0.50000000 0.50000000
vt 0.50000000 0.50000000
vt 0.50000000 0.50000000
vt 0.50000000 0.50000000
vt 0.50000000 0.50000000
vt 0.50000000 0.50000000
vt 0.50000000 0.50000000
vt 0.50000000 0.50000000
vt 0.50000000 0.50000000
vt 0.50000000 0.50000000
vt 0.50000000 0.50000000
vt 0.50000000 0.50000000
vt 0.50000000 0.50000000
vt 0.50000000 0.50000000
vt 0.50000000 0.50000000
vt 0.50000000 0.50000000
vt 0.50000000 0.50000000
vt 0.50000000 0.50000000
vt 0.50000000 0.50000000
vt 0.50000000 0.50000000
vt 0.50000000 0.50000000
vt 0.50000000 0.50000000
vt 0.50000000 0.50000000
vt 0.50000000 0.50000000
vt 0.50000000 0.50000000
vt 0.50000000 0.50000000
vt 0.50000000 0.50000000
vt 0.50000000 0.50000000
vt 0.50000000 0.50000000
vt 0.50000000 0.50000000
vt 0.50000000 0.50000000
vt 0.50000000 0.50000000
vt 0.50000000 0.50000000
vt 0.50000000 0.50000000
vt 0.50000000 0.50000000
vt 0.50000000 0.50000000
vt 0.50000000 0.50000000
vt 0.50000000 0.50000000
vt 0.50000000 0.50000000
vt 0.50000000 0.50000000
vt 0.50000000 0.50000000
vt 0.50000000 0.50000000
vt 0.50000000 0.50000000
vt 0.50000000 0.50000000
vt 0.50000000 0.50000000
vt 0.50000000 0.50000000
vt 0.50000000 0.50000000
vt 0.50000000 0.50000000
vt 0.50000000 0.50000000
vt 0.50000000 0.50000000
vt 0.50000000 0.50000000
vt 0.50000000 0.50000000
vt 0.50000000 0.50000000
vt 0.50000000 0.50000000
vt 0.50000000 0.50000000
vt 0.50000000 0.50000000
vt 0.50000000 0.50000000
vt 0.50000000 0.50000000
vt 0.50000000 0.50000000
vt 0.50000000 0.50000000
vt 0.50000000 0.50000000
vt 0.50000000 0.50000000
vt 0.50000000 0.50000000
vt 0.50000000 0.50000000
vt 0.50000000 0.50000000
vt 0.50000000 0.50000000
vt 0.50000000 0.50000000
vt 0.50000000 0.50000000
vt 0.50000000 0.50000000
vt 0.50000000 0.50000000
vt 0.50000000 0.50000000
vt 0.50000000 0.50000000
vt 0.50000000 0.50000000
vt 0.50000000 0.50000000
vt 0.50000000 0.50000000
vt 0.50000000 0.50000000
vt 0.50000000 0.50000000
vt 0.50000000 0.50000000
vt 0.50000000 0.50000000
vt 0.50000000 0.50000000
vt 0.50000000 0.50000000
vt 0.50000000 0.50000000
vt 0.50000000 0.50000000
vt 0.50000000 0.50000000
vt 0.50000000 0.50000000
vt 0.50000000 0.50000000
vt 0.50000000 0.50000000
vt 0.50000000 0.50000000
vt 0.50000000 0.50000000
vt 0.50000000 0.50000000
vt 0.50000000 0.50000000
vt 0.50000000 0.50000000
vt 0.50000000 0.50000000
vt 0.50000000 0.50000000
vt 0.50000000 0.50000000
vt 0.50000000 0.50000000
vt 0.50000000 0.50000000
vt 0.50000000 0.50000000
vt 0.50000000 0.50000000
vt 0.50000000 0.50000000
vt 0.50000000 0.50000000
vt 0.50000000 0.50000000
vt 0.50000000 0.50000000
vt 0.50000000 0.50000000
vt 0.50000000 0.50000000
vt 0.50000000 0.50000000
vt 0.50000000 0.50000000
vt 0.50000000 0.50000000
vt 0.50000000 0.50000000
vt 0.50000000 0.50000000
vt 0.50000000 0.50000000
vt 0.50000000 0.50000000
vt 0.50000000 0.50000000
vt 0.50000000 0.50000000
vt 0.50000000 0.50000000
vt 0.50000000 0.50000000
vt 0.50000000 0.50000000
vt 0.50000000 0.50000000
vt 0.50000000 0.50000000
vt 0.50000000 0.50000000
vt 0.50000000 0.50000000
vt 0.50000000 0.50000000
vt 0.50000000 0.50000000
vt 0.50000000 0.50000000
vt 0.50000000 0.50000000
vt 0.50000000 0.50000000
vt 0.50000000 0.50000000
vt 0.50000000 0.50000000
vt 0.50000000 0.50000000
vt 0.50000000 0.50000000
vt 0.50000000 0.50000000
vt 0.50000000 0.50000000
vt 0.50000000 0.50000000
vt 0.50000000 0.50000000
vt 0.50000000 0.50000000
vt 0.50000000 0.50000000
vt 0.50000000 0.50000000
vt 0.50000000 0.50000000
vt 0.50000000 0.50000000
vt 0.50000000 0.50000000
vt 0.50000000 0.50000000
vt 0.50000000 0.50000000
vt 0.50000000 0.50000000
vt 0.50000000 0.50000000
vt 0.50000000 0.50000000
vt 0.50000000 0.50000000
vt 0.50000000 0.50000000
vt 0.50000000 0.50000000
vt 0.50000000 0.50000000
vt 0.50000000 0.50000000
vt 0.50000000 0.50000000
vt 0.50000000 0.50000000
vt 0.50000000 0.50000000
vt 0.50000000 0.50000000
vt 0.50000000 0.50000000
vt 0.50000000 0.50000000
vt 0.50000000 0.50000000
vt 0.50000000 0.50000000
vt 0.50000000 0.50000000
vt 0.50000000 0.50000000
vt 0.50000000 0.50000000
vt 0.50000000 0.50000000
vt 0.50000000 0.50000000
vt 0.50000000 0.50000000
vt 0.50000000 0.50000000
vt 0.50000000 0.50000000
vt 0.50000000 0.50000000
vt 0.50000000 0.50000000
vt 0.50000000 0.50000000
vt 0.50000000 0.50000000
vt 0.50000000 0.50000000
vt 0.50000000 0.50000000
vt 0.50000000 0.50000000
vt 0.50000000 0.50000000
vt 0.50000000 0.50000000
vt 0.50000000 0.50000000
vt 0.50000000 0.50000000
vt 0.50000000 0.50000000
vt 0.50000000 0.50000000
vt 0.50000000 0.50000000
vt 0.50000000 0.50000000
vt 0.50000000 0.50000000
vt 0.50000000 0.50000000
vt 0.50000000 0.50000000
vt 0.50000000 0.50000000
vt 0.50000000 0.50000000
vt 0.50000000 0.50000000
vt 0.50000000 0.50000000
vt 0.50000000 0.50000000
vt 0.50000000 0.50000000
vt 0.50000000 0.50000000
vt 0.50000000 0.50000000
vt 0.50000000 0.50000000
vt 0.50000000 0.50000000
vt 0.50000000 0.50000000
vt 0.50000000 0.50000000
vt 0.50000000 0.50000000
vt 0.50000000 0.50000000
vt 0.50000000 0.50000000
vt 0.50000000 0.50000000
vt 0.50000000 0.50000000
vt 0.50000000 0.50000000
vt 0.50000000 0.50000000
vt 0.50000000 0.50000000
vt 0.50000000 0.50000000
vt 0.50000000 0.50000000
vt 0.50000000 0.50000000
vt 0.50000000 0.50000000
vt 0.50000000 0.50000000
vt 0.50000000 0.50000000
vt 0.50000000 0.50000000
vt 0.50000000 0.50000000
vt 0.50000000 0.50000000
vt 0.50000000 0.50000000
vt 0.50000000 0.50000000
vt 0.50000000 0.50000000
vt 0.50000000 0.50000000
vt 0.50000000 0.50000000
vt 0.50000000 0.50000000
vt 0.50000000 0.50000000
vt 0.50000000 0.50000000
vt 0.50000000 0.50000000
vt 0.50000000 0.50000000
vt 0.50000000 0.50000000
vt 0.50000000 0.50000000
vt 0.50000000 0.50000000
vt 0.50000000 0.50000000
vt 0.50000000 0.50000000
vt 0.50000000 0.50000000
vt 0.50000000 0.50000000
vt 0.50000000 0.50000000
vt 0.50000000 0.50000000
vt 0.50000000 0.50000000
vt 0.50000000 0.50000000
vt 0.50000000 0.50000000
vt 0.50000000 0.50000000
vt 0.50000000 0.50000000
vt 0.50000000 0.50000000
vt 0.50000000 0.50000000
vt 0.50000000 0.50000000
vt 0.50000000 0.50000000
vt 0.50000000 0.50000000
vt 0.50000000 0.50000000
vt 0.50000000 0.50000000
vt 0.50000000 0.50000000
vt 0.50000000 0.50000000
vt 0.50000000 0.50000000
vt 0.50000000 0.50000000
vt 0.50000000 0.50000000
vt 0.50000000 0.50000000
vt 0.50000000 0.50000000
vt 0.50000000 0.50000000
vt 0.50000000 0.50000000
vt 0.50000000 0.50000000
vt 0.50000000 0.50000000
vt 0.50000000 0.50000000
vt 0.50000000 0.50000000
vt 0.50000000 0.50000000
vt 0.50000000 0.50000000
vt 0.50000000 0.50000000
f 1/1 2/2 3/3
f 4/4 1/1 5/5
f 6/6 4/4 7/7
f 8/8 6/6 9/9
f 10/10 8/8 11/11
f 12/12 10/10 13/13
f 14/14 12/12 15/15
f 16/16 14/14 17/17
f 18/18 16/16 19/19
f 20/20 18/18 21/21
f 22/22 20/20 23/23
f 24/24 22/22 25/25
f 26/26 24/24 27/27
f 28/28 26/26 29/29
f 30/30 28/28 31/31
f 2/2 30/30 32/32
f 32/32 3/3 2/2
f 31/31 32/32 30/30
f 29/29 31/31 28/28
f 27/27 29/29 26/26
f 25/25 27/27 24/24
f 23/23 25/25 22/22
f 21/21 23/23 20/20
f 19/19 21/21 18/18
f 17/17 19/19 16/16
f 15/15 17/17 14/14
f 13/13 15/15 12/12
f 11/11 13/13 10/10
f 9/9 11/11 8/8
f 7/7 9/9 6/6
f 5/5 7/7 4/4
f 3/3 5/5 1/1
f 33/33 34/34 35/35
f 36/36 33/33 37/37
f 38/38 36/36 39/39
f 40/40 38/38 41/41
f 42/42 40/40 43/43
f 44/44 42/42 45/45
f 46/46 44/44 47/47
f 48/48 46/46 49/49
f 50/50 51/51 52/52
f 53/53 52/52 51/51
f 51/51 48/48 53/53
f 54/54 50/50 55/55
f 56/56 54/54 57/57
f 58/58 56/56 59/59
f 60/60 58/58 61/61
f 62/62 60/60 63/63
f 64/64 62/62 65/65
f 34/34 66/66 67/67
f 68/68 67/67 66/66
f 66/66 64/64 68/68
f 67/67 35/35 34/34
f 65/65 68/68 64/64
f 63/63 65/65 62/62
f 61/61 63/63 60/60
f 59/59 61/61 58/58
f 57/57 59/59 56/56
f 55/55 57/57 54/54
f 52/52 55/55 50/50
f 49/49 53/53 48/48
f 47/47 49/49 46/46
f 45/45 47/47 44/44
f 43/43 45/45 42/42
f 41/41 43/43 40/40
f 39/39 41/41 38/38
f 37/37 39/39 36/36
f 35/35 37/37 33/33
f 69/69 70/70 71/71
f 72/72 69/69 73/73
f 74/74 72/72 75/75
f 76/76 74/74 77/77
f 78/78 76/76 79/79
f 80/80 78/78 81/81
f 82/82 80/80 83/83
f 84/84 82/82 85/85
f 86/86 84/84 87/87
f 88/88 86/86 89/89
f 90/90 88/88 91/91
f 92/92 90/90 93/93
f 94/94 92/92 95/95
f 96/96 94/94 97/97
f 98/98 96/96 99/99
f 70/70 98/98 100/100
f 100/100 71/71 70/70
f 99/99 100/100 98/98
f 97/97 99/99 96/96
f 95/95 97/97 94/94
f 93/93 95/95 92/92
f 91/91 93/93 90/90
f 89/89 91/91 88/88
f 87/87 89/89 86/86
f 85/85 87/87 84/84
f 83/83 85/85 82/82
f 81/81 83/83 80/80
f 79/79 81/81 78/78
f 77/77 79/79 76/76
f 75/75 77/77 74/74
f 73/73 75/75 72/72
f 71/71 73/73 69/69
f 101/101 102/102 103/103
f 104/104 101/101 105/105
f 106/106 104/104 107/107
f 108/108 106/106 109/109
f 110/110 108/108 111/111
f 112/112 110/110 113/113
f 114/114 112/112 115/115
f 116/116 114/114 117/117
f 118/118 116/116 119/119
f 120/120 118/118 121/121
f 122/122 120/120 123/123
f 124/124 122/122 125/125
f 126/126 124/124 127/127
f 128/128 126/126 129/129
f 130/130 128/128 131/131
f 102/102 130/130 132/132
f 132/132 103/103 102/102
f 131/131 132/132 130/130
f 129/129 131/131 128/128
f 127/127 129/129 126/126
f 125/125 127/127 124/124
f 123/123 125/125 122/122
f 121/121 123/123 120/120
f 119/119 121/121 118/118
f 117/117 119/119 116/116
f 115/115 117/117 114/114
f 113/113 115/115 112/112
f 111/111 113/113 110/110
f 109/109 111/111 108/108
f 107/107 109/109 106/106
f 105/105 107/107 104/104
f 103/103 105/105 101/101
f 133/133 134/134 135/135
f 136/136 135/135 134/134
f 134/134 137/137 136/136
f 138/138 133/133 139/139
f 140/140 138/138 141/141
f 142/142 140/140 143/143
f 144/144 142/142 145/145
f 146/146 144/144 147/147
f 148/148 146/146 149/149
f 150/150 151/151 152/152
f 153/153 152/152 151/151
f 151/151 148/148 153/153
f 154/154 150/150 155/155
f 156/156 154/154 157/157
f 158/158 156/156 159/159
f 160/160 158/158 161/161
f 162/162 160/160 163/163
f 164/164 162/162 165/165
f 166/166 164/164 167/167
f 137/137 166/166 168/168
f 168/168 136/136 137/137
f 167/167 168/168 166/166
f 165/165 167/167 164/164
f 163/163 165/165 162/162
f 161/161 163/163 160/160
f 159/159 161/161 158/158
f 157/157 159/159 156/156
f 155/155 157/157 154/154
f 152/152 155/155 150/150
f 149/149 153/153 148/148
f 147/147 149/149 146/146
f 145/145 147/147 144/144
f 143/143 145/145 142/142
f 141/141 143/143 140/140
f 139/139 141/141 138/138
f 135/135 139/139 133/133
f 169/169 170/170 171/171
f 172/172 169/169 173/173
f 174/174 172/172 175/175
f 176/176 174/174 177/177
f 178/178 176/176 179/179
f 180/180 178/178 181/181
f 182/182 180/180 183/183
f 184/184 182/182 185/185
f 186/186 184/184 187/187
f 188/188 186/186 189/189
f 190/190 188/188 191/191
f 192/192 190/190 193/193
f 194/194 192/192 195/195
f 196/196 194/194 197/197
f 198/198 196/196 199/199
f 170/170 198/198 200/200
f 200/200 171/171 170/170
f 199/199 200/200 198/198
f 197/197 199/199 196/196
f 195/195 197/197 194/194
f 193/193 195/195 192/192
f 191/191 193/193 190/190
f 189/189 191/191 188/188
f 187/187 189/189 186/186
f 185/185 187/187 184/184
f 183/183 185/185 182/182
f 181/181 183/183 180/180
f 179/179 181/181 178/178
f 177/177 179/179 176/176
f 175/175 177/177 174/174
f 173/173 175/175 172/172
f 171/171 173/173 169/169
f 201/201 202/202 203/203
f 204/204 203/203 202/202
f 202/202 205/205 204/204
f 206/206 201/201 207/207
f 208/208 206/206 209/209
f 210/210 208/208 211/211
f 212/212 210/210 213/213
f 214/214 212/212 215/215
f 216/216 214/214 217/217
f 218/218 219/219 220/220
f 221/221 220/220 219/219
f 219/219 216/216 221/221
f 222/222 218/218 223/223
f 224/224 222/222 225/225
f 226/226 224/224 227/227
f 228/228 226/226 229/229
f 230/230 228/228 231/231
f 232/232 230/230 233/233
f 234/234 232/232 235/235
f 205/205 234/234 236/236
f 236/236 204/204 205/205
f 235/235 236/236 234/234
f 233/233 235/235 232/232
f 231/231 233/233 230/230
f 229/229 231/231 228/228
f 227/227 229/229 226/226
f 225/225 227/227 224/224
f 223/223 225/225 222/222
f 220/220 223/223 218/218
f 217/217 221/221 216/216
f 215/215 217/217 214/214
f 213/213 215/215 212/212
f 211/211 213/213 210/210
f 209/209 211/211 208/208
f 207/207 209/209 206/206
f 203/203 207/207 201/201
f 237/237 238/238 239/239
f 240/240 237/237 241/241
f 242/242 240/240 243/243
f 244/244 242/242 245/245
f 246/246 244/244 247/247
f 248/248 246/246 249/249
f 250/250 248/248 251/251
f 252/252 250/250 253/253
f 254/254 252/252 255/255
f 256/256 254/254 257/257
f 258/258 256/256 259/259
f 260/260 258/258 261/261
f 262/262 260/260 263/263
f 264/264 262/262 265/265
f 266/266 264/264 267/267
f 238/238 266/266 268/268
f 268/268 239/239 238/238
f 267/267 268/268 266/266
f 265/265 267/267 264/264
f 263/263 265/265 262/262
f 261/261 263/263 260/260
f 259/259 261/261 258/258
f 257/257 259/259 256/256
f 255/255 257/257 254/254
f 253/253 255/255 252/252
f 251/251 253/253 250/250
f 249/249 251/251 248/248
f 247/247 249/249 246/246
f 245/245 247/247 244/244
f 243/243 245/245 242/242
f 241/241 243/243 240/240
f 239/239 241/241 237/237
f 269/269 270/270 271/271
f 272/272 269/269 273/273
f 274/274 272/272 275/275
f 276/276 274/274 277/277
f 278/278 276/276 279/279
f 280/280 278/278 281/281
f 282/282 280/280 283/283
f 284/284 282/282 285/285
f 286/286 284/284 287/287
f 288/288 286/286 289/289
f 290/290 288/288 291/291
f 292/292 290/290 293/293
f 294/294 292/292 295/295
f 296/296 294/294 297/297
f 298/298 296/296 299/299
f 270/270 298/298 300/300
f 300/300 271/271 270/270
f 299/299 300/300 298/298
f 297/297 299/299 296/296
f 295/295 297/297 294/294
f 293/293 295/295 292/292
f 291/291 293/293 290/290
f 289/289 291/291 288/288
f 287/287 289/289 286/286
f 285/285 287/287 284/284
f 283/283 285/285 282/282
f 281/281 283/283 280/280
f 279/279 281/281 278/278
f 277/277 279/279 276/276
f 275/275 277/277 274/274
f 273/273 275/275 272/272
f 271/271 273/273 269/269
f 301/301 302/302 303/303
f 304/304 301/301 305/305
f 306/306 304/304 307/307
f 308/308 306/306 309/309
f 310/310 308/308 311/311
f 312/312 310/310 313/313
f 314/314 312/312 315/315
f 316/316 314/314 317/317
f 318/318 319/319 320/320
f 321/321 320/320 319/319
f 319/319 316/316 321/321
f 322/322 318/318 323/323
f 324/324 322/322 325/325
f 326/326 324/324 327/327
f 328/328 326/326 329/329
f 330/330 328/328 331/331
f 332/332 330/330 333/333
f 302/302 334/334 335/335
f 336/336 335/335 334/334
f 334/334 332/332 336/336
f 335/335 303/303 302/302
f 333/333 336/336 332/332
f 331/331 333/333 330/330
f 329/329 331/331 328/328
f 327/327 329/329 326/326
f 325/325 327/327 324/324
f 323/323 325/325 322/322
f 320/320 323/323 318/318
f 317/317 321/321 316/316
f 315/315 317/317 314/314
f 313/313 315/315 312/312
f 311/311 313/313 310/310
f 309/309 311/311 308/308
f 307/307 309/309 306/306
f 305/305 307/307 304/304
f 303/303 305/305 301/301
f 337/337 338/338 339/339
f 340/340 339/339 338/338
f 338/338 341/341 340/340
f 342/342 343/343 344/344
f 345/345 344/344 343/343
f 343/343 346/346 345/345
f 347/347 345/345 346/346
f 346/346 337/337 347/347
f 348/348 349/349 350/350
f 351/351 350/350 349/349
f 349/349 342/342 351/351
f 352/352 353/353 354/354
f 355/355 354/354 353/353
f 353/353 348/348 355/355
f 356/356 357/357 358/358
f 359/359 358/358 357/357
f 357/357 352/352 359/359
f 360/360 361/361 362/362
f 363/363 362/362 361/361
f 361/361 356/356 363/363
f 364/364 365/365 366/366
f 367/367 366/366 365/365
f 365/365 360/360 367/367
f 368/368 369/369 370/370
f 371/371 370/370 369/369
f 369/369 364/364 371/371
f 372/372 373/373 374/374
f 375/375 374/374 373/373
f 373/373 368/368 375/375
f 376/376 377/377 378/378
f 379/379 378/378 377/377
f 377/377 372/372 379/379
f 380/380 381/381 382/382
f 376/376 383/383 384/384
f 384/384 382/382 376/376
f 385/385 386/386 387/387
f 380/380 387/387 386/386
f 386/386 381/381 380/380
f 388/388 389/389 390/390
f 385/385 391/391 392/392
f 392/392 390/390 385/385
f 393/393 394/394 395/395
f 388/388 395/395 394/394
f 394/394 389/389 388/388
f 396/396 397/397 398/398
f 399/399 398/398 397/397
f 397/397 400/400 399/399
f 401/401 399/399 400/400
f 400/400 393/393 401/401
f 341/341 402/402 403/403
f 404/404 403/403 402/402
f 402/402 396/396 404/404
f 403/403 340/340 341/341
f 398/398 404/404 396/396
f 395/395 401/401 393/393
f 390/390 392/392 388/388
f 387/387 391/391 385/385
f 382/382 384/384 380/380
f 378/378 383/383 376/376
f 374/374 379/379 372/372
f 370/370 375/375 368/368
f 366/366 371/371 364/364
f 362/362 367/367 360/360
f 358/358 363/363 356/356
f 354/354 359/359 352/352
f 350/350 355/355 348/348
f 344/344 351/351 342/342
f 339/339 347/347 337/337
f 405/405 406/406 407/407
f 407/407 408/408 409/409
f 409/409 410/410 407/407
f 411/411 412/412 413/413
f 411/411 414/414 415/415
f 407/407 416/416 408/408
f 415/415 412/412 411/411
f 414/414 410/410 417/417
f 407/407 418/418 416/416
f 407/407 419/419 420/420
f 411/411 421/421 419/419
f 414/414 422/422 415/415
f 417/417 423/423 414/414
f 410/410 424/424 425/425
f 420/420 418/418 407/407
f 411/411 426/426 421/421
f 423/423 422/422 414/414
f 409/409 424/424 410/410
f 413/413 426/426 411/411
f 419/419 407/407 411/411
f 411/411 427/427 428/428
f 428/428 414/414 411/411
f 429/429 430/430 431/431
f 429/429 432/432 433/433
f 411/411 434/434 427/427
f 411/411 429/429 435/435
f 433/433 430/430 429/429
f 414/414 436/436 437/437
f 411/411 438/438 434/434
f 435/435 439/439 411/411
f 432/432 440/440 433/433
f 432/432 437/437 441/441
f 414/414 442/442 436/436
f 439/439 438/438 411/411
f 429/429 443/443 444/444
f 441/441 440/440 432/432
f 428/428 442/442 414/414
f 431/431 443/443 429/429
f 444/444 435/435 429/429
f 432/432 429/429 445/445
f 446/446 447/447 448/448
f 448/448 449/449 446/446
f 448/448 450/450 449/449
f 451/451 449/449 452/452
f 452/452 453/453 451/451
f 449/449 454/454 452/452
f 449/449 455/455 454/454
f 449/449 456/456 457/457
f 456/456 458/458 459/459
f 460/460 461/461 462/462
f 457/457 455/455 449/449
f 459/459 463/463 456/456
f 460/460 464/464 461/461
f 463/463 457/457 456/456
f 462/462 458/458 460/460
f 462/462 459/459 458/458
f 465/465 460/460 466/466
f 460/460 467/467 466/466
f 460/460 458/458 467/467
f 466/466 468/468 465/465
f 465/465 469/469 470/470
f 470/470 471/471 465/465
f 469/469 472/472 470/470
f 473/473 474/474 472/472
f 472/472 469/469 473/473
f 407/407 475/475 476/476
f 406/406 477/477 478/478
f 473/473 476/476 474/474
f 407/407 479/479 475/475
f 406/406 480/480 477/477
f 476/476 473/473 407/407
f 478/478 407/407 406/406
f 478/478 479/479 407/407
f 411/411 407/407 481/481
f 407/407 482/482 481/481
f 407/407 473/473 482/482
f 429/429 483/483 484/484
f 411/411 485/485 483/483
f 483/483 429/429 411/411
f 445/445 429/429 486/486
f 429/429 487/487 486/486
f 429/429 488/488 487/487
f 429/429 489/489 490/490
f 489/489 491/491 492/492
f 490/490 488/488 429/429
f 492/492 493/493 489/489
f 494/494 495/495 496/496
f 493/493 490/490 489/489
f 496/496 491/491 494/494
f 496/496 492/492 491/491
f 486/486 497/497 445/445
f 494/494 498/498 495/495
f 499/499 500/500 501/501
f 494/494 502/502 500/500
f 500/500 499/499 494/494
f 494/494 491/491 502/502
f 503/503 504/504 505/505
f 506/506 507/507 508/508
f 499/499 509/509 510/510
f 503/503 508/508 504/504
f 506/506 511/511 507/507
f 509/509 505/505 510/510
f 508/508 503/503 506/506
f 512/512 513/513 514/514
f 505/505 509/509 503/503
f 514/514 506/506 512/512
f 514/514 511/511 506/506
f 510/510 515/515 499/499
f 512/512 516/516 513/513
f 446/446 506/506 517/517
f 506/506 518/518 517/517
f 506/506 503/503 518/518
f 446/446 519/519 520/520
f 446/446 521/521 522/522
f 521/521 523/523 524/524
f 506/506 525/525 526/526
f 506/506 520/520 527/527
f 446/446 528/528 519/519
f 446/446 529/529 530/530
f 521/521 531/531 522/522
f 524/524 532/532 521/521
f 523/523 533/533 534/534
f 506/506 535/535 536/536
f 527/527 525/525 506/506
f 530/530 528/528 446/446
f 532/532 531/531 521/521
f 523/523 536/536 533/533
f 526/526 535/535 506/506
f 522/522 529/529 446/446
f 536/536 523/523 506/506
f 534/534 524/524 523/523
f 506/506 537/537 538/538
f 506/506 523/523 537/537
f 512/512 538/538 539/539
f 540/540 541/541 542/542
f 542/542 543/543 544/544
f 542/542 545/545 540/540
f 546/546 547/547 540/540
f 546/546 499/499 548/548
f 541/541 543/543 542/542
f 546/546 549/549 547/547
f 499/499 550/550 548/548
f 544/544 512/512 542/542
f 548/548 549/549 546/546
f 540/540 545/545 546/546
f 499/499 551/551 552/552
f 499/499 553/553 551/551
f 554/554 555/555 556/556
f 554/554 557/557 558/558
f 494/494 499/499 559/559
f 499/499 560/560 553/553
f 499/499 546/546 561/561
f 556/556 546/546 554/554
f 557/557 562/562 558/558
f 559/559 563/563 494/494
f 561/561 560/560 499/499
f 556/556 564/564 546/546
f 557/557 565/565 562/562
f 494/494 566/566 565/565
f 563/563 567/567 494/494
f 564/564 561/561 546/546
f 565/565 557/557 494/494
f 567/567 568/568 494/494
f 558/558 555/555 554/554
f 552/552 559/559 499/499
f 557/557 569/569 570/570
f 557/557 571/571 572/572
f 570/570 573/573 557/557
f 570/570 569/569 574/574
f 574/574 445/445 575/575
f 573/573 571/571 557/557
f 574/574 576/576 577/577
f 445/445 578/578 575/575
f 572/572 494/494 557/557
f 575/575 576/576 574/574
f 574/574 577/577 570/570
f 445/445 579/579 580/580
f 445/445 574/574 579/579
f 432/432 581/581 582/582
f 582/582 583/583 432/432
f 414/414 432/432 584/584
f 414/414 585/585 586/586
f 410/410 587/587 588/588
f 410/410 586/586 587/587
f 406/406 405/405 589/589
f 589/589 590/590 406/406
f 591/591 592/592 593/593
f 594/594 595/595 591/591
f 596/596 597/597 594/594
f 596/596 465/465 598/598
f 593/593 406/406 591/591
f 591/591 599/599 594/594
f 596/596 600/600 597/597
f 465/465 601/601 598/598
f 595/595 592/592 591/591
f 598/598 600/600 596/596
f 594/594 599/599 596/596
f 602/602 603/603 604/604
f 603/603 605/605 604/604
f 603/603 606/606 605/605
f 460/460 607/607 606/606
f 460/460 465/465 608/608
f 606/606 603/603 460/460
f 608/608 609/609 460/460
f 465/465 610/610 611/611
f 465/465 596/596 612/612
f 602/602 613/613 614/614
f 460/460 615/615 607/607
f 609/609 616/616 460/460
f 465/465 617/617 610/610
f 596/596 618/618 612/612
f 614/614 596/596 602/602
f 616/616 615/615 460/460
f 465/465 619/619 617/617
f 614/614 618/618 596/596
f 611/611 608/608 465/465
f 604/604 613/613 602/602
f 603/603 620/620 621/621
f 603/603 622/622 623/623
f 623/623 622/622 624/624
f 624/624 451/451 625/625
f 621/621 460/460 603/603
f 623/623 626/626 603/603
f 624/624 627/627 628/628
f 451/451 629/629 625/625
f 626/626 620/620 603/603
f 625/625 627/627 624/624
f 624/624 628/628 623/623
f 451/451 624/624 630/630
f 449/449 451/451 631/631
f 631/631 632/632 449/449
f 446/446 633/633 634/634
f 449/449 635/635 636/636
f 449/449 637/637 638/638
f 634/634 521/521 446/446
f 638/638 635/635 449/449
f 446/446 639/639 633/633
f 446/446 449/449 640/640
f 637/637 641/641 638/638
f 637/637 642/642 643/643
f 521/521 644/644 642/642
f 446/446 645/645 639/639
f 640/640 646/646 446/446
f 449/449 647/647 648/648
f 643/643 641/641 637/637
f 521/521 649/649 644/644
f 646/646 645/645 446/446
f 636/636 647/647 449/449
f 634/634 649/649 521/521
f 642/642 637/637 521/521
f 648/648 640/640 449/449
f 632/632 637/637 449/449
f 630/630 631/631 451/451
f 621/621 464/464 460/460
f 612/612 619/619 465/465
f 593/593 480/480 406/406
f 590/590 591/591 406/406
f 589/589 405/405 588/588
f 588/588 405/405 410/410
f 586/586 410/410 414/414
f 584/584 585/585 414/414
f 583/583 584/584 432/432
f 582/582 581/581 580/580
f 580/580 581/581 445/445
f 572/572 498/498 494/494
f 568/568 566/566 494/494
f 544/544 516/516 512/512
f 539/539 542/542 512/512
f 538/538 512/512 506/506
f 520/520 506/506 446/446
f 517/517 447/447 446/446
f 515/515 550/550 499/499
f 501/501 509/509 499/499
f 497/497 578/578 445/445
f 484/484 489/489 429/429
f 481/481 485/485 411/411
f 471/471 601/601 465/465
f 468/468 469/469 465/465
f 453/453 629/629 451/451
f 450/450 456/456 449/449
f 445/445 581/581 432/432
f 437/437 432/432 414/414
f 425/425 417/417 410/410
f 407/407 410/410 405/405
f 650/650 651/651 652/652
f 653/653 654/654 655/655
f 656/656 657/657 658/658
f 656/656 659/659 660/660
f 655/655 650/650 653/653
f 656/656 661/661 662/662
f 660/660 657/657 656/656
f 653/653 663/663 654/654
f 656/656 664/664 661/661
f 659/659 665/665 660/660
f 659/659 650/650 666/666
f 650/650 667/667 668/668
f 653/653 669/669 663/663
f 658/658 664/664 656/656
f 666/666 670/670 659/659
f 655/655 667/667 650/650
f 653/653 662/662 671/671
f 670/670 665/665 659/659
f 671/671 669/669 653/653
f 668/668 666/666 650/650
f 656/656 672/672 673/673
f 674/674 675/675 676/676
f 674/674 677/677 678/678
f 673/673 659/659 656/656
f 678/678 675/675 674/674
f 659/659 679/679 680/680
f 656/656 681/681 672/672
f 674/674 682/682 683/683
f 677/677 684/684 678/678
f 659/659 685/685 679/679
f 656/656 686/686 681/681
f 656/656 674/674 687/687
f 676/676 682/682 674/674
f 677/677 680/680 688/688
f 673/673 685/685 659/659
f 687/687 689/689 656/656
f 688/688 684/684 677/677
f 689/689 686/686 656/656
f 680/680 677/677 659/659
f 690/690 677/677 674/674
f 691/691 692/692 693/693
f 693/693 694/694 691/691
f 693/693 695/695 694/694
f 694/694 696/696 697/697
f 696/696 698/698 699/699
f 700/700 694/694 701/701
f 697/697 702/702 694/694
f 699/699 703/703 696/696
f 694/694 704/704 701/701
f 703/703 697/697 696/696
f 705/705 706/706 707/707
f 702/702 704/704 694/694
f 707/707 698/698 705/705
f 707/707 699/699 698/698
f 701/701 708/708 700/700
f 705/705 709/709 706/706
f 710/710 705/705 711/711
f 705/705 712/712 711/711
f 705/705 698/698 712/712
f 711/711 713/713 710/710
f 653/653 714/714 715/715
f 653/653 716/716 714/714
f 717/717 718/718 719/719
f 653/653 720/720 716/716
f 652/652 721/721 720/720
f 710/710 722/722 723/723
f 717/717 715/715 718/718
f 720/720 653/653 652/652
f 722/722 719/719 723/723
f 715/715 717/717 653/653
f 719/719 722/722 717/717
f 723/723 724/724 710/710
f 652/652 725/725 721/721
f 656/656 653/653 726/726
f 653/653 727/727 726/726
f 653/653 717/717 727/727
f 656/656 728/728 729/729
f 729/729 674/674 656/656
f 729/729 730/730 674/674
f 731/731 732/732 733/733
f 733/733 734/734 731/731
f 735/735 736/736 737/737
f 738/738 674/674 739/739
f 674/674 731/731 740/740
f 732/732 737/737 733/733
f 735/735 741/741 736/736
f 739/739 742/742 738/738
f 740/740 743/743 674/674
f 737/737 732/732 735/735
f 674/674 744/744 739/739
f 734/734 740/740 731/731
f 743/743 744/744 674/674
f 735/735 745/745 746/746
f 746/746 747/747 735/735
f 746/746 748/748 747/747
f 735/735 732/732 745/745
f 749/749 750/750 751/751
f 749/749 752/752 750/750
f 753/753 754/754 755/755
f 747/747 756/756 757/757
f 758/758 759/759 760/760
f 749/749 755/755 752/752
f 753/753 761/761 754/754
f 757/757 762/762 747/747
f 758/758 751/751 759/759
f 755/755 749/749 753/753
f 756/756 760/760 757/757
f 751/751 758/758 749/749
f 760/760 756/756 758/758
f 691/691 749/749 763/763
f 749/749 764/764 763/763
f 749/749 758/758 764/764
f 749/749 765/765 766/766
f 766/766 767/767 749/749
f 691/691 768/768 769/769
f 691/691 770/770 771/771
f 749/749 772/772 765/765
f 691/691 773/773 774/774
f 771/771 768/768 691/691
f 767/767 775/775 776/776
f 749/749 777/777 772/772
f 691/691 778/778 773/773
f 770/770 779/779 771/771
f 770/770 767/767 780/780
f 766/766 775/775 767/767
f 749/749 774/774 781/781
f 769/769 778/778 691/691
f 780/780 782/782 770/770
f 781/781 777/777 749/749
f 782/782 779/779 770/770
f 774/774 749/749 691/691
f 749/749 783/783 784/784
f 749/749 767/767 783/783
f 753/753 784/784 785/785
f 786/786 787/787 788/788
f 789/789 790/790 786/786
f 791/791 792/792 789/789
f 791/791 747/747 793/793
f 788/788 753/753 786/786
f 786/786 794/794 789/789
f 791/791 795/795 792/792
f 747/747 796/796 793/793
f 790/790 787/787 786/786
f 793/793 795/795 791/791
f 789/789 794/794 791/791
f 797/797 798/798 799/799
f 798/798 800/800 799/799
f 798/798 801/801 800/800
f 735/735 802/802 801/801
f 797/797 803/803 804/804
f 801/801 798/798 735/735
f 804/804 791/791 797/797
f 735/735 805/805 802/802
f 747/747 806/806 807/807
f 747/747 791/791 808/808
f 804/804 809/809 791/791
f 735/735 810/810 805/805
f 735/735 807/807 811/811
f 747/747 812/812 806/806
f 809/809 808/808 791/791
f 811/811 810/810 735/735
f 747/747 813/813 812/812
f 799/799 803/803 797/797
f 747/747 814/814 813/813
f 807/807 735/735 747/747
f 798/798 815/815 816/816
f 798/798 817/817 818/818
f 818/818 817/817 819/819
f 819/819 738/738 820/820
f 816/816 735/735 798/798
f 818/818 821/821 798/798
f 819/819 822/822 823/823
f 738/738 824/824 820/820
f 821/821 815/815 798/798
f 820/820 822/822 819/819
f 819/819 823/823 818/818
f 738/738 825/825 826/826
f 738/738 819/819 825/825
f 677/677 690/690 827/827
f 827/827 828/828 677/677
f 659/659 677/677 829/829
f 659/659 830/830 831/831
f 650/650 832/832 833/833
f 650/650 831/831 832/832
f 652/652 651/651 834/834
f 834/834 835/835 652/652
f 836/836 837/837 838/838
f 839/839 840/840 841/841
f 838/838 842/842 839/839
f 836/836 843/843 837/837
f 836/836 710/710 844/844
f 841/841 652/652 839/839
f 839/839 845/845 838/838
f 844/844 843/843 836/836
f 842/842 840/840 839/839
f 710/710 846/846 844/844
f 838/838 845/845 836/836
f 710/710 847/847 848/848
f 710/710 849/849 847/847
f 850/850 851/851 852/852
f 705/705 710/710 853/853
f 710/710 854/854 849/849
f 710/710 836/836 855/855
f 852/852 836/836 850/850
f 850/850 856/856 857/857
f 705/705 858/858 859/859
f 853/853 860/860 705/705
f 855/855 854/854 710/710
f 852/852 861/861 836/836
f 856/856 862/862 857/857
f 860/860 858/858 705/705
f 861/861 855/855 836/836
f 856/856 863/863 862/862
f 705/705 864/864 863/863
f 848/848 853/853 710/710
f 863/863 856/856 705/705
f 857/857 851/851 850/850
f 865/865 866/866 867/867
f 856/856 868/868 869/869
f 856/856 866/866 865/865
f 867/867 870/870 871/871
f 867/867 700/700 872/872
f 869/869 705/705 856/856
f 865/865 873/873 856/856
f 872/872 870/870 867/867
f 873/873 868/868 856/856
f 700/700 874/874 872/872
f 867/867 871/871 865/865
f 700/700 867/867 875/875
f 694/694 700/700 876/876
f 876/876 877/877 694/694
f 770/770 878/878 879/879
f 691/691 880/880 881/881
f 691/691 694/694 882/882
f 694/694 883/883 884/884
f 694/694 885/885 886/886
f 770/770 887/887 878/878
f 881/881 770/770 691/691
f 691/691 888/888 889/889
f 882/882 890/890 691/691
f 886/886 883/883 694/694
f 694/694 891/891 892/892
f 891/891 879/879 893/893
f 881/881 887/887 770/770
f 890/890 888/888 691/691
f 892/892 885/885 694/694
f 893/893 894/894 891/891
f 889/889 880/880 691/691
f 894/894 892/892 891/891
f 884/884 882/882 694/694
f 879/879 891/891 770/770
f 877/877 891/891 694/694
f 875/875 876/876 700/700
f 869/869 709/709 705/705
f 859/859 864/864 705/705
f 841/841 725/725 652/652
f 835/835 839/839 652/652
f 834/834 651/651 833/833
f 833/833 651/651 650/650
f 831/831 650/650 659/659
f 829/829 830/830 659/659
f 828/828 829/829 677/677
f 827/827 690/690 826/826
f 826/826 690/690 738/738
f 816/816 741/741 735/735
f 808/808 814/814 747/747
f 788/788 761/761 753/753
f 785/785 786/786 753/753
f 784/784 753/753 749/749
f 776/776 780/780 767/767
f 763/763 692/692 691/691
f 762/762 796/796 747/747
f 748/748 756/756 747/747
f 742/742 824/824 738/738
f 730/730 731/731 674/674
f 726/726 728/728 656/656
f 724/724 846/846 710/710
f 713/713 722/722 710/710
f 708/708 874/874 700/700
f 695/695 696/696 694/694
f 674/674 738/738 690/690
f 683/683 687/687 674/674
f 662/662 653/653 656/656
f 652/652 653/653 650/650
f 895/895 896/896 897/897
f 898/898 895/895 899/899
f 900/900 901/901 902/902
f 903/903 902/902 901/901
f 901/901 904/904 903/903
f 905/905 903/903 904/904
f 904/904 898/898 905/905
f 906/906 900/900 907/907
f 908/908 906/906 909/909
f 910/910 911/911 912/912
f 911/911 913/913 914/914
f 914/914 912/912 911/911
f 915/915 914/914 913/913
f 913/913 908/908 915/915
f 916/916 910/910 917/917
f 918/918 916/916 919/919
f 920/920 918/918 921/921
f 922/922 920/920 923/923
f 924/924 925/925 926/926
f 926/926 925/925 927/927
f 927/927 928/928 926/926
f 922/922 929/929 928/928
f 928/928 927/927 922/922
f 930/930 924/924 931/931
f 932/932 930/930 933/933
f 934/934 935/935 936/936
f 937/937 936/936 935/935
f 935/935 938/938 937/937
f 939/939 937/937 938/938
f 938/938 932/932 939/939
f 940/940 934/934 941/941
f 896/896 940/940 942/942
f 942/942 897/897 896/896
f 941/941 942/942 940/940
f 936/936 941/941 934/934
f 933/933 939/939 932/932
f 931/931 933/933 930/930
f 926/926 931/931 924/924
f 923/923 929/929 922/922
f 921/921 923/923 920/920
f 919/919 921/921 918/918
f 917/917 919/919 916/916
f 912/912 917/917 910/910
f 909/909 915/915 908/908
f 907/907 909/909 906/906
f 902/902 907/907 900/900
f 899/899 905/905 898/898
f 897/897 899/899 895/895

