# https://github.com/mikedh/trimesh
mtllib material.mtl
usemtl 0.298039_0.298039_0.298039_0.000000_0.000000
v -0.00850000 -0.00325000 0.00260000
v -0.00870933 -0.00219762 0.00260000
v -0.00991037 -0.00269511 0.00130000
v -0.00930546 -0.00130546 0.00260000
v -0.01022470 -0.00222470 0.00130000
v -0.01019762 -0.00070933 0.00260000
v -0.01069511 -0.00191037 0.00130000
v -0.01125000 -0.00050000 0.00260000
v -0.01125000 -0.00180000 0.00130000
v -0.01230238 -0.00070933 0.00260000
v -0.01180489 -0.00191037 0.00130000
v -0.01319454 -0.00130546 0.00260000
v -0.01227530 -0.00222470 0.00130000
v -0.01379067 -0.00219762 0.00260000
v -0.01258963 -0.00269511 0.00130000
v -0.01400000 -0.00325000 0.00260000
v -0.01270000 -0.00325000 0.00130000
v -0.01379067 -0.00430238 0.00260000
v -0.01258963 -0.00380489 0.00130000
v -0.01319454 -0.00519454 0.00260000
v -0.01227530 -0.00427530 0.00130000
v -0.01230238 -0.00579067 0.00260000
v -0.01180489 -0.00458963 0.00130000
v -0.01125000 -0.00600000 0.00260000
v -0.01125000 -0.00470000 0.00130000
v -0.01019762 -0.00579067 0.00260000
v -0.01069511 -0.00458963 0.00130000
v -0.00930546 -0.00519454 0.00260000
v -0.01022470 -0.00427530 0.00130000
v -0.00870933 -0.00430238 0.00260000
v -0.00991037 -0.00380489 0.00130000
v -0.00980000 -0.00325000 0.00130000
v -0.00991037 -0.00380489 0.00130000
v -0.00980000 -0.00325000 0.00130000
v -0.00980000 -0.00325000 0.00000000
v -0.01022470 -0.00427530 0.00130000
v -0.00991037 -0.00380489 0.00000000
v -0.01069511 -0.00458963 0.00130000
v -0.01022470 -0.00427530 0.00000000
v -0.01125000 -0.00470000 0.00130000
v -0.01069511 -0.00458963 0.00000000
v -0.01180489 -0.00458963 0.00130000
v -0.01125000 -0.00470000 0.00000000
v -0.01227530 -0.00427530 0.00130000
v -0.01180489 -0.00458963 0.00000000
v -0.01258963 -0.00380489 0.00130000
v -0.01227530 -0.00427530 0.00000000
v -0.01270000 -0.00325000 0.00130000
v -0.01258963 -0.00380489 0.00000000
v -0.01258963 -0.00269511 0.00130000
v -0.01270000 -0.00325000 0.00000000
v -0.01227530 -0.00222470 0.00130000
v -0.01258963 -0.00269511 0.00000000
v -0.01180489 -0.00191037 0.00130000
v -0.01227530 -0.00222470 0.00000000
v -0.01125000 -0.00180000 0.00130000
v -0.01180489 -0.00191037 0.00000000
v -0.01069511 -0.00191037 0.00130000
v -0.01125000 -0.00180000 0.00000000
v -0.01022470 -0.00222470 0.00130000
v -0.01069511 -0.00191037 0.00000000
v -0.00991037 -0.00269511 0.00130000
v -0.01022470 -0.00222470 0.00000000
v -0.00991037 -0.00269511 0.00000000
v 0.00025000 0.00000000 0.00000000
v 0.01230000 0.00000000 0.00000000
v 0.01125000 -0.00180000 0.00000000
v 0.01180489 -0.00191037 0.00000000
v 0.01450000 -0.00220000 0.00000000
v 0.01227530 -0.00222470 0.00000000
v 0.01258963 -0.00380489 0.00000000
v 0.01270000 -0.00325000 0.00000000
v 0.01180489 -0.00458963 0.00000000
v 0.01450000 -0.04430000 0.00000000
v 0.01270000 -0.04325000 0.00000000
v 0.00991037 -0.04269511 0.00000000
v 0.00980000 -0.04325000 0.00000000
v -0.00980000 -0.04325000 0.00000000
v 0.01258963 -0.00269511 0.00000000
v 0.01227530 -0.00427530 0.00000000
v 0.01258963 -0.04380489 0.00000000
v -0.01450000 -0.00220000 0.00000000
v -0.01069511 -0.04191038 0.00000000
v -0.01125000 -0.04180000 0.00000000
v -0.00991037 -0.04380489 0.00000000
v 0.01069511 -0.00458963 0.00000000
v 0.01125000 -0.00470000 0.00000000
v 0.01230000 -0.04650000 0.00000000
v 0.01180489 -0.04458962 0.00000000
v 0.01227530 -0.04427531 0.00000000
v 0.01069511 -0.04458962 0.00000000
v 0.01125000 -0.04470000 0.00000000
v 0.00991037 -0.04380489 0.00000000
v -0.01230000 -0.04650000 0.00000000
v -0.01125000 -0.04470000 0.00000000
v -0.01227530 -0.04222469 0.00000000
v -0.01258963 -0.04269511 0.00000000
v -0.01180489 -0.04191038 0.00000000
v 0.01022470 -0.04222469 0.00000000
v -0.01022470 -0.04222469 0.00000000
v -0.00991037 -0.04269511 0.00000000
v 0.01022470 -0.04427531 0.00000000
v -0.01180489 -0.04458962 0.00000000
v 0.01258963 -0.04269511 0.00000000
v -0.01450000 -0.04430000 0.00000000
v -0.01022470 -0.04427531 0.00000000
v -0.01227530 -0.04427531 0.00000000
v 0.01022470 -0.00427530 0.00000000
v -0.01125000 -0.00470000 0.00000000
v -0.01069511 -0.04458962 0.00000000
v 0.01125000 -0.04180000 0.00000000
v 0.01069511 -0.04191038 0.00000000
v 0.01227530 -0.04222469 0.00000000
v 0.01180489 -0.04191038 0.00000000
v -0.01180489 -0.00458963 0.00000000
v -0.01258963 -0.00380489 0.00000000
v -0.01227530 -0.00427530 0.00000000
v 0.00980000 -0.00325000 0.00000000
v -0.01069511 -0.00458963 0.00000000
v -0.01230000 0.00000000 0.00000000
v -0.01180489 -0.00191037 0.00000000
v -0.01227530 -0.00222470 0.00000000
v -0.00025000 -0.00000000 0.00000000
v -0.01069511 -0.00191037 0.00000000
v -0.01270000 -0.04325000 0.00000000
v -0.01258963 -0.04380489 0.00000000
v 0.00991037 -0.00380489 0.00000000
v 0.00991037 -0.00269511 0.00000000
v -0.01125000 -0.00180000 0.00000000
v -0.00991037 -0.00269511 0.00000000
v -0.00025000 -0.00020000 0.00000000
v -0.01270000 -0.00325000 0.00000000
v 0.00025000 -0.00020000 0.00000000
v 0.01069511 -0.00191037 0.00000000
v 0.01022470 -0.00222470 0.00000000
v -0.01258963 -0.00269511 0.00000000
v -0.01022470 -0.00222470 0.00000000
v -0.00991037 -0.00380489 0.00000000
v -0.00980000 -0.00325000 0.00000000
v -0.01022470 -0.00427530 0.00000000
v 0.01258963 -0.00380489 0.00130000
v 0.01270000 -0.00325000 0.00130000
v 0.01270000 -0.00325000 0.00000000
v 0.01227530 -0.00427530 0.00130000
v 0.01258963 -0.00380489 0.00000000
v 0.01180489 -0.00458963 0.00130000
v 0.01227530 -0.00427530 0.00000000
v 0.01125000 -0.00470000 0.00130000
v 0.01180489 -0.00458963 0.00000000
v 0.01069511 -0.00458963 0.00130000
v 0.01125000 -0.00470000 0.00000000
v 0.01022470 -0.00427530 0.00130000
v 0.01069511 -0.00458963 0.00000000
v 0.00991037 -0.00380489 0.00130000
v 0.01022470 -0.00427530 0.00000000
v 0.00980000 -0.00325000 0.00130000
v 0.00991037 -0.00380489 0.00000000
v 0.00991037 -0.00269511 0.00130000
v 0.00980000 -0.00325000 0.00000000
v 0.01022470 -0.00222470 0.00130000
v 0.00991037 -0.00269511 0.00000000
v 0.01069511 -0.00191037 0.00130000
v 0.01022470 -0.00222470 0.00000000
v 0.01125000 -0.00180000 0.00130000
v 0.01069511 -0.00191037 0.00000000
v 0.01180489 -0.00191037 0.00130000
v 0.01125000 -0.00180000 0.00000000
v 0.01227530 -0.00222470 0.00130000
v 0.01180489 -0.00191037 0.00000000
v 0.01258963 -0.00269511 0.00130000
v 0.01227530 -0.00222470 0.00000000
v 0.01258963 -0.00269511 0.00000000
v 0.01400000 -0.00325000 0.00260000
v 0.01379067 -0.00219762 0.00260000
v 0.01258963 -0.00269511 0.00130000
v 0.01319454 -0.00130546 0.00260000
v 0.01227530 -0.00222470 0.00130000
v 0.01230238 -0.00070933 0.00260000
v 0.01180489 -0.00191037 0.00130000
v 0.01125000 -0.00050000 0.00260000
v 0.01125000 -0.00180000 0.00130000
v 0.01019762 -0.00070933 0.00260000
v 0.01069511 -0.00191037 0.00130000
v 0.00930546 -0.00130546 0.00260000
v 0.01022470 -0.00222470 0.00130000
v 0.00870933 -0.00219762 0.00260000
v 0.00991037 -0.00269511 0.00130000
v 0.00850000 -0.00325000 0.00260000
v 0.00980000 -0.00325000 0.00130000
v 0.00870933 -0.00430238 0.00260000
v 0.00991037 -0.00380489 0.00130000
v 0.00930546 -0.00519454 0.00260000
v 0.01022470 -0.00427530 0.00130000
v 0.01019762 -0.00579067 0.00260000
v 0.01069511 -0.00458963 0.00130000
v 0.01125000 -0.00600000 0.00260000
v 0.01125000 -0.00470000 0.00130000
v 0.01230238 -0.00579067 0.00260000
v 0.01180489 -0.00458963 0.00130000
v 0.01319454 -0.00519454 0.00260000
v 0.01227530 -0.00427530 0.00130000
v 0.01379067 -0.00430238 0.00260000
v 0.01258963 -0.00380489 0.00130000
v 0.01270000 -0.00325000 0.00130000
v -0.00800000 0.00000000 0.00260000
v -0.01230000 0.00000000 0.00260000
v -0.01125000 -0.00050000 0.00260000
v -0.01450000 -0.00220000 0.00260000
v -0.01379067 -0.00219762 0.00260000
v -0.01319454 -0.00130546 0.00260000
v -0.01230238 -0.00070933 0.00260000
v -0.01019762 -0.00070933 0.00260000
v -0.00930546 -0.00130546 0.00260000
v -0.01450000 -0.00650000 0.00260000
v -0.01379067 -0.00430238 0.00260000
v -0.01400000 -0.00325000 0.00260000
v -0.01016061 -0.00623358 0.00260000
v -0.01019762 -0.00579067 0.00260000
v -0.01125000 -0.00600000 0.00260000
v -0.00902513 -0.00547487 0.00260000
v -0.00930546 -0.00519454 0.00260000
v -0.01230238 -0.00579067 0.00260000
v -0.01319454 -0.00519454 0.00260000
v -0.01150000 -0.00650000 0.00260000
v -0.00826642 -0.00433939 0.00260000
v -0.00870933 -0.00430238 0.00260000
v -0.00800000 -0.00300000 0.00260000
v -0.00870933 -0.00219762 0.00260000
v -0.00850000 -0.00325000 0.00260000
v -0.00392604 -0.00131554 0.00570000
v -0.00727685 -0.00350000 0.00570000
v -0.00727685 -0.00350000 0.00350000
v -0.00000000 -0.00055000 0.00570000
v -0.00392604 -0.00131554 0.00350000
v 0.00392604 -0.00131554 0.00570000
v -0.00000000 -0.00055000 0.00350000
v 0.00727685 -0.00350000 0.00570000
v 0.00392604 -0.00131554 0.00350000
v 0.00727685 -0.00350000 0.00350000
v 0.00727685 -0.00350000 0.00570000
v 0.00727685 -0.00350000 0.00350000
v 0.00803590 -0.00350000 0.00350000
v 0.00803590 -0.00350000 0.00570000
v -0.00727685 -0.00350000 0.00350000
v -0.00727685 -0.00350000 0.00570000
v -0.00803590 -0.00350000 0.00570000
v -0.00803590 -0.00350000 0.00350000
v -0.00800000 -0.00300000 0.00570000
v -0.00803590 -0.00350000 0.00570000
v -0.00727685 -0.00350000 0.00570000
v -0.00025000 -0.00000000 0.00570000
v -0.00800000 0.00000000 0.00570000
v -0.00392604 -0.00131554 0.00570000
v -0.00000000 -0.00055000 0.00570000
v 0.00392604 -0.00131554 0.00570000
v 0.00025000 -0.00020000 0.00570000
v 0.00800000 -0.00300000 0.00570000
v 0.00727685 -0.00350000 0.00570000
v -0.00025000 -0.00020000 0.00570000
v 0.00803590 -0.00350000 0.00570000
v 0.00025000 0.00000000 0.00570000
v 0.00800000 0.00000000 0.00570000
v 0.01236171 -0.01271221 0.00350000
v 0.01345999 -0.01003515 0.00350000
v 0.01298452 -0.00955321 0.00350000
v 0.00616854 -0.01943514 0.00350000
v -0.00818381 -0.01749829 0.00350000
v -0.00516444 -0.02008466 0.00350000
v 0.01236171 -0.00928779 0.00350000
v 0.01345999 -0.01196485 0.00350000
v 0.01371695 -0.01133850 0.00350000
v -0.00139756 -0.02135612 0.00350000
v 0.01371695 -0.01066150 0.00350000
v 0.01298452 -0.01244679 0.00350000
v -0.01001866 -0.01397135 0.00350000
v 0.00887265 -0.01652074 0.00350000
v 0.00257159 -0.02112864 0.00350000
v 0.01087302 -0.00959845 0.00350000
v 0.01087302 -0.01240155 0.00350000
v 0.01105500 -0.01247291 0.00350000
v 0.01067758 -0.01240542 0.00350000
v 0.01105500 -0.00952709 0.00350000
v 0.01168477 -0.01272137 0.00350000
v 0.01168477 -0.00927863 0.00350000
v 0.01029253 -0.01280727 0.00350000
v -0.01040341 -0.01001434 0.00350000
v 0.01067758 -0.00959458 0.00350000
v -0.00928238 -0.00620000 0.00350000
v 0.01036332 -0.00937493 0.00350000
v 0.01029253 -0.00919273 0.00350000
v -0.00000000 -0.00055000 0.00350000
v 0.01036332 -0.01262507 0.00350000
v -0.00727685 -0.00350000 0.00350000
v -0.00826642 -0.00433939 0.00350000
v -0.00902513 -0.00547487 0.00350000
v 0.00727685 -0.00350000 0.00350000
v 0.00928238 -0.00620000 0.00350000
v 0.00902513 -0.00547487 0.00350000
v 0.01049856 -0.00951607 0.00350000
v 0.01049856 -0.01248393 0.00350000
v -0.00803590 -0.00350000 0.00350000
v 0.00826642 -0.00433939 0.00350000
v -0.00392604 -0.00131554 0.00350000
v 0.01008226 -0.00620000 0.00350000
v 0.00803590 -0.00350000 0.00350000
v -0.01008226 -0.00620000 0.00350000
v 0.00392604 -0.00131554 0.00350000
v -0.01150000 -0.00650000 0.00570000
v -0.01016061 -0.00623358 0.00570000
v -0.01016061 -0.00623358 0.00260000
v -0.00902513 -0.00547487 0.00350000
v -0.00826642 -0.00433939 0.00350000
v -0.00826642 -0.00433939 0.00260000
v -0.00800000 -0.00300000 0.00570000
v -0.00800000 -0.00300000 0.00260000
v -0.00803590 -0.00350000 0.00350000
v -0.00902513 -0.00547487 0.00260000
v -0.01008226 -0.00620000 0.00350000
v -0.01008226 -0.00620000 0.00570000
v -0.00803590 -0.00350000 0.00570000
v -0.01150000 -0.00650000 0.00260000
v -0.00800000 -0.00300000 0.00260000
v -0.00800000 -0.00300000 0.00570000
v -0.00800000 0.00000000 0.00570000
v -0.00800000 0.00000000 0.00260000
v -0.00025000 -0.00000000 0.00570000
v -0.00025000 -0.00000000 0.00000000
v -0.00800000 0.00000000 0.00260000
v -0.01230000 0.00000000 0.00000000
v -0.01230000 0.00000000 0.00260000
v -0.00800000 0.00000000 0.00570000
v -0.00025000 -0.00000000 0.00000000
v -0.00025000 -0.00000000 0.00570000
v -0.00025000 -0.00020000 0.00570000
v -0.00025000 -0.00020000 0.00000000
v -0.00025000 -0.00020000 0.00000000
v -0.00025000 -0.00020000 0.00570000
v 0.00025000 -0.00020000 0.00570000
v 0.00025000 -0.00020000 0.00000000
v 0.00025000 -0.00020000 0.00000000
v 0.00025000 -0.00020000 0.00570000
v 0.00025000 0.00000000 0.00570000
v 0.00025000 0.00000000 0.00000000
v 0.01230000 0.00000000 0.00000000
v 0.00025000 0.00000000 0.00000000
v 0.00800000 0.00000000 0.00260000
v 0.00025000 0.00000000 0.00570000
v 0.00800000 0.00000000 0.00570000
v 0.01230000 0.00000000 0.00260000
v 0.01016061 -0.00623358 0.00570000
v 0.01150000 -0.00650000 0.00570000
v 0.01150000 -0.00650000 0.00260000
v 0.00826642 -0.00433939 0.00260000
v 0.00800000 -0.00300000 0.00260000
v 0.00803590 -0.00350000 0.00350000
v 0.00800000 -0.00300000 0.00570000
v 0.00803590 -0.00350000 0.00570000
v 0.00826642 -0.00433939 0.00350000
v 0.00902513 -0.00547487 0.00350000
v 0.00902513 -0.00547487 0.00260000
v 0.01016061 -0.00623358 0.00260000
v 0.01008226 -0.00620000 0.00350000
v 0.01008226 -0.00620000 0.00570000
v 0.00800000 -0.00300000 0.00260000
v 0.00800000 0.00000000 0.00260000
v 0.00800000 0.00000000 0.00570000
v 0.00800000 -0.00300000 0.00570000
v 0.00800000 0.00000000 0.00260000
v 0.01019762 -0.00070933 0.00260000
v 0.01125000 -0.00050000 0.00260000
v 0.01450000 -0.00220000 0.00260000
v 0.01230000 0.00000000 0.00260000
v 0.01319454 -0.00130546 0.00260000
v 0.00870933 -0.00219762 0.00260000
v 0.00930546 -0.00130546 0.00260000
v 0.01230238 -0.00070933 0.00260000
v 0.00800000 -0.00300000 0.00260000
v 0.00850000 -0.00325000 0.00260000
v 0.00826642 -0.00433939 0.00260000
v 0.00870933 -0.00430238 0.00260000
v 0.00902513 -0.00547487 0.00260000
v 0.00930546 -0.00519454 0.00260000
v 0.01016061 -0.00623358 0.00260000
v 0.01019762 -0.00579067 0.00260000
v 0.01150000 -0.00650000 0.00260000
v 0.01450000 -0.00650000 0.00260000
v 0.01230238 -0.00579067 0.00260000
v 0.01125000 -0.00600000 0.00260000
v 0.01319454 -0.00519454 0.00260000
v 0.01379067 -0.00430238 0.00260000
v 0.01379067 -0.00219762 0.00260000
v 0.01400000 -0.00325000 0.00260000
v 0.01258963 -0.04380489 0.00130000
v 0.01270000 -0.04325000 0.00130000
v 0.01270000 -0.04325000 0.00000000
v 0.01227530 -0.04427531 0.00130000
v 0.01258963 -0.04380489 0.00000000
v 0.01180489 -0.04458962 0.00130000
v 0.01227530 -0.04427531 0.00000000
v 0.01125000 -0.04470000 0.00130000
v 0.01180489 -0.04458962 0.00000000
v 0.01069511 -0.04458962 0.00130000
v 0.01125000 -0.04470000 0.00000000
v 0.01022470 -0.04427531 0.00130000
v 0.01069511 -0.04458962 0.00000000
v 0.00991037 -0.04380489 0.00130000
v 0.01022470 -0.04427531 0.00000000
v 0.00980000 -0.04325000 0.00130000
v 0.00991037 -0.04380489 0.00000000
v 0.00991037 -0.04269511 0.00130000
v 0.00980000 -0.04325000 0.00000000
v 0.01022470 -0.04222469 0.00130000
v 0.00991037 -0.04269511 0.00000000
v 0.01069511 -0.04191038 0.00130000
v 0.01022470 -0.04222469 0.00000000
v 0.01125000 -0.04180000 0.00130000
v 0.01069511 -0.04191038 0.00000000
v 0.01180489 -0.04191038 0.00130000
v 0.01125000 -0.04180000 0.00000000
v 0.01227530 -0.04222469 0.00130000
v 0.01180489 -0.04191038 0.00000000
v 0.01258963 -0.04269511 0.00130000
v 0.01227530 -0.04222469 0.00000000
v 0.01258963 -0.04269511 0.00000000
v 0.01400000 -0.04325000 0.00260000
v 0.01379067 -0.04219762 0.00260000
v 0.01258963 -0.04269511 0.00130000
v 0.01319454 -0.04130546 0.00260000
v 0.01227530 -0.04222469 0.00130000
v 0.01230238 -0.04070933 0.00260000
v 0.01180489 -0.04191038 0.00130000
v 0.01125000 -0.04050000 0.00260000
v 0.01125000 -0.04180000 0.00130000
v 0.01019762 -0.04070933 0.00260000
v 0.01069511 -0.04191038 0.00130000
v 0.00930546 -0.04130546 0.00260000
v 0.01022470 -0.04222469 0.00130000
v 0.00870933 -0.04219762 0.00260000
v 0.00991037 -0.04269511 0.00130000
v 0.00850000 -0.04325000 0.00260000
v 0.00980000 -0.04325000 0.00130000
v 0.00870933 -0.04430238 0.00260000
v 0.00991037 -0.04380489 0.00130000
v 0.00930546 -0.04519454 0.00260000
v 0.01022470 -0.04427531 0.00130000
v 0.01019762 -0.04579067 0.00260000
v 0.01069511 -0.04458962 0.00130000
v 0.01125000 -0.04600000 0.00260000
v 0.01125000 -0.04470000 0.00130000
v 0.01230238 -0.04579067 0.00260000
v 0.01180489 -0.04458962 0.00130000
v 0.01319454 -0.04519454 0.00260000
v 0.01227530 -0.04427531 0.00130000
v 0.01379067 -0.04430238 0.00260000
v 0.01258963 -0.04380489 0.00130000
v 0.01270000 -0.04325000 0.00130000
v -0.00991037 -0.04380489 0.00130000
v -0.00980000 -0.04325000 0.00130000
v -0.00980000 -0.04325000 0.00000000
v -0.01022470 -0.04427531 0.00130000
v -0.00991037 -0.04380489 0.00000000
v -0.01069511 -0.04458962 0.00130000
v -0.01022470 -0.04427531 0.00000000
v -0.01125000 -0.04470000 0.00130000
v -0.01069511 -0.04458962 0.00000000
v -0.01180489 -0.04458962 0.00130000
v -0.01125000 -0.04470000 0.00000000
v -0.01227530 -0.04427531 0.00130000
v -0.01180489 -0.04458962 0.00000000
v -0.01258963 -0.04380489 0.00130000
v -0.01227530 -0.04427531 0.00000000
v -0.01270000 -0.04325000 0.00130000
v -0.01258963 -0.04380489 0.00000000
v -0.01258963 -0.04269511 0.00130000
v -0.01270000 -0.04325000 0.00000000
v -0.01227530 -0.04222469 0.00130000
v -0.01258963 -0.04269511 0.00000000
v -0.01180489 -0.04191038 0.00130000
v -0.01227530 -0.04222469 0.00000000
v -0.01125000 -0.04180000 0.00130000
v -0.01180489 -0.04191038 0.00000000
v -0.01069511 -0.04191038 0.00130000
v -0.01125000 -0.04180000 0.00000000
v -0.01022470 -0.04222469 0.00130000
v -0.01069511 -0.04191038 0.00000000
v -0.00991037 -0.04269511 0.00130000
v -0.01022470 -0.04222469 0.00000000
v -0.00991037 -0.04269511 0.00000000
v -0.00850000 -0.04325000 0.00260000
v -0.00870933 -0.04219762 0.00260000
v -0.00991037 -0.04269511 0.00130000
v -0.00930546 -0.04130546 0.00260000
v -0.01022470 -0.04222469 0.00130000
v -0.01019762 -0.04070933 0.00260000
v -0.01069511 -0.04191038 0.00130000
v -0.01125000 -0.04050000 0.00260000
v -0.01125000 -0.04180000 0.00130000
v -0.01230238 -0.04070933 0.00260000
v -0.01180489 -0.04191038 0.00130000
v -0.01319454 -0.04130546 0.00260000
v -0.01227530 -0.04222469 0.00130000
v -0.01379067 -0.04219762 0.00260000
v -0.01258963 -0.04269511 0.00130000
v -0.01400000 -0.04325000 0.00260000
v -0.01270000 -0.04325000 0.00130000
v -0.01379067 -0.04430238 0.00260000
v -0.01258963 -0.04380489 0.00130000
v -0.01319454 -0.04519454 0.00260000
v -0.01227530 -0.04427531 0.00130000
v -0.01230238 -0.04579067 0.00260000
v -0.01180489 -0.04458962 0.00130000
v -0.01125000 -0.04600000 0.00260000
v -0.01125000 -0.04470000 0.00130000
v -0.01019762 -0.04579067 0.00260000
v -0.01069511 -0.04458962 0.00130000
v -0.00930546 -0.04519454 0.00260000
v -0.01022470 -0.04427531 0.00130000
v -0.00870933 -0.04430238 0.00260000
v -0.00991037 -0.04380489 0.00130000
v -0.00980000 -0.04325000 0.00130000
v 0.01450000 -0.00220000 0.00000000
v 0.01230000 0.00000000 0.00000000
v 0.01230000 0.00000000 0.00260000
v 0.01450000 -0.00220000 0.00260000
v -0.01450000 -0.00220000 0.00260000
v -0.01230000 0.00000000 0.00260000
v -0.01230000 0.00000000 0.00000000
v -0.01450000 -0.00220000 0.00000000
v 0.01016061 -0.04026642 0.00260000
v 0.01019762 -0.04070933 0.00260000
v 0.01125000 -0.04050000 0.00260000
v 0.00902513 -0.04102512 0.00260000
v 0.00930546 -0.04130546 0.00260000
v 0.00826642 -0.04216061 0.00260000
v 0.00870933 -0.04219762 0.00260000
v 0.00800000 -0.04350000 0.00260000
v 0.00850000 -0.04325000 0.00260000
v 0.00800000 -0.04650000 0.00260000
v 0.00870933 -0.04430238 0.00260000
v 0.01230000 -0.04650000 0.00260000
v 0.01125000 -0.04600000 0.00260000
v 0.01150000 -0.04000000 0.00260000
v 0.01230238 -0.04070933 0.00260000
v 0.01019762 -0.04579067 0.00260000
v 0.01450000 -0.04430000 0.00260000
v 0.01319454 -0.04519454 0.00260000
v 0.01450000 -0.04000000 0.00260000
v 0.00930546 -0.04519454 0.00260000
v 0.01230238 -0.04579067 0.00260000
v 0.01400000 -0.04325000 0.00260000
v 0.01379067 -0.04430238 0.00260000
v 0.01379067 -0.04219762 0.00260000
v 0.01319454 -0.04130546 0.00260000
v 0.01450000 -0.04000000 0.00570000
v 0.01450000 -0.04000000 0.00260000
v 0.01450000 -0.00650000 0.00260000
v 0.01450000 -0.00220000 0.00000000
v 0.01450000 -0.00220000 0.00260000
v 0.01450000 -0.04430000 0.00000000
v 0.01450000 -0.00650000 0.00570000
v 0.01450000 -0.04430000 0.00260000
v -0.01450000 -0.00220000 0.00000000
v -0.01450000 -0.04000000 0.00260000
v -0.01450000 -0.00650000 0.00260000
v -0.01450000 -0.00650000 0.00570000
v -0.01450000 -0.04000000 0.00570000
v -0.01450000 -0.04430000 0.00000000
v -0.01450000 -0.04430000 0.00260000
v -0.01450000 -0.00220000 0.00260000
v 0.01450000 -0.04430000 0.00000000
v 0.01450000 -0.04430000 0.00260000
v 0.01230000 -0.04650000 0.00260000
v 0.01230000 -0.04650000 0.00000000
v -0.00800000 -0.04650000 0.00570000
v -0.00800000 -0.04650000 0.00260000
v 0.00800000 -0.04650000 0.00260000
v 0.01230000 -0.04650000 0.00000000
v 0.01230000 -0.04650000 0.00260000
v -0.01230000 -0.04650000 0.00000000
v 0.00800000 -0.04650000 0.00570000
v -0.01230000 -0.04650000 0.00260000
v -0.01230000 -0.04650000 0.00000000
v -0.01230000 -0.04650000 0.00260000
v -0.01450000 -0.04430000 0.00260000
v -0.01450000 -0.04430000 0.00000000
v -0.01150000 -0.04000000 0.00260000
v -0.01450000 -0.04000000 0.00260000
v -0.01230238 -0.04070933 0.00260000
v -0.01319454 -0.04130546 0.00260000
v -0.01450000 -0.04430000 0.00260000
v -0.01400000 -0.04325000 0.00260000
v -0.00902513 -0.04102512 0.00260000
v -0.01016061 -0.04026642 0.00260000
v -0.01019762 -0.04070933 0.00260000
v -0.01125000 -0.04050000 0.00260000
v -0.01379067 -0.04219762 0.00260000
v -0.01379067 -0.04430238 0.00260000
v -0.01230000 -0.04650000 0.00260000
v -0.01319454 -0.04519454 0.00260000
v -0.01125000 -0.04600000 0.00260000
v -0.01230238 -0.04579067 0.00260000
v -0.00800000 -0.04650000 0.00260000
v -0.01019762 -0.04579067 0.00260000
v -0.00800000 -0.04350000 0.00260000
v -0.00850000 -0.04325000 0.00260000
v -0.00870933 -0.04430238 0.00260000
v -0.00930546 -0.04130546 0.00260000
v -0.00870933 -0.04219762 0.00260000
v -0.00930546 -0.04519454 0.00260000
v -0.00826642 -0.04216061 0.00260000
v 0.01100000 -0.01950000 0.00270000
v 0.01197007 -0.01909818 0.00270000
v 0.01174246 -0.01875754 0.00270000
v 0.01140182 -0.01852993 0.00270000
v 0.01100000 -0.01845000 0.00270000
v 0.01059818 -0.01852993 0.00270000
v 0.01025754 -0.01875754 0.00270000
v 0.01002993 -0.01909818 0.00270000
v 0.00995000 -0.01950000 0.00270000
v 0.01002993 -0.01990182 0.00270000
v 0.01025754 -0.02024246 0.00270000
v 0.01059818 -0.02047007 0.00270000
v 0.01100000 -0.02055000 0.00270000
v 0.01140182 -0.02047007 0.00270000
v 0.01174246 -0.02024246 0.00270000
v 0.01197007 -0.01990182 0.00270000
v 0.01205000 -0.01950000 0.00270000
v 0.01197007 -0.01990182 0.00570000
v 0.01205000 -0.01950000 0.00570000
v 0.01205000 -0.01950000 0.00270000
v 0.01174246 -0.02024246 0.00570000
v 0.01197007 -0.01990182 0.00270000
v 0.01140182 -0.02047007 0.00570000
v 0.01174246 -0.02024246 0.00270000
v 0.01100000 -0.02055000 0.00570000
v 0.01140182 -0.02047007 0.00270000
v 0.01059818 -0.02047007 0.00570000
v 0.01100000 -0.02055000 0.00270000
v 0.01025754 -0.02024246 0.00570000
v 0.01059818 -0.02047007 0.00270000
v 0.01002993 -0.01990182 0.00570000
v 0.01025754 -0.02024246 0.00270000
v 0.00995000 -0.01950000 0.00570000
v 0.01002993 -0.01990182 0.00270000
v 0.01002993 -0.01909818 0.00570000
v 0.00995000 -0.01950000 0.00270000
v 0.01025754 -0.01875754 0.00570000
v 0.01002993 -0.01909818 0.00270000
v 0.01059818 -0.01852993 0.00570000
v 0.01025754 -0.01875754 0.00270000
v 0.01100000 -0.01845000 0.00570000
v 0.01059818 -0.01852993 0.00270000
v 0.01140182 -0.01852993 0.00570000
v 0.01100000 -0.01845000 0.00270000
v 0.01174246 -0.01875754 0.00570000
v 0.01140182 -0.01852993 0.00270000
v 0.01197007 -0.01909818 0.00570000
v 0.01174246 -0.01875754 0.00270000
v 0.01197007 -0.01909818 0.00270000
v -0.01150000 -0.00650000 0.00570000
v -0.01150000 -0.00650000 0.00260000
v -0.01450000 -0.00650000 0.00260000
v -0.01450000 -0.00650000 0.00570000
v 0.01450000 -0.00650000 0.00570000
v 0.01450000 -0.00650000 0.00260000
v 0.01150000 -0.00650000 0.00260000
v 0.01150000 -0.00650000 0.00570000
v 0.00826642 -0.04216061 0.00570000
v 0.00800000 -0.04350000 0.00570000
v 0.00800000 -0.04350000 0.00260000
v 0.00902513 -0.04102512 0.00570000
v 0.00826642 -0.04216061 0.00260000
v 0.01016061 -0.04026642 0.00570000
v 0.00902513 -0.04102512 0.00260000
v 0.01150000 -0.04000000 0.00570000
v 0.01016061 -0.04026642 0.00260000
v 0.01150000 -0.04000000 0.00260000
v 0.01150000 -0.04000000 0.00570000
v 0.01150000 -0.04000000 0.00260000
v 0.01450000 -0.04000000 0.00260000
v 0.01450000 -0.04000000 0.00570000
v 0.00800000 -0.04650000 0.00570000
v 0.00800000 -0.04650000 0.00260000
v 0.00800000 -0.04350000 0.00260000
v 0.00800000 -0.04350000 0.00570000
v -0.01016061 -0.04026642 0.00570000
v -0.01150000 -0.04000000 0.00570000
v -0.01150000 -0.04000000 0.00260000
v -0.00902513 -0.04102512 0.00570000
v -0.01016061 -0.04026642 0.00260000
v -0.00826642 -0.04216061 0.00570000
v -0.00902513 -0.04102512 0.00260000
v -0.00800000 -0.04350000 0.00570000
v -0.00826642 -0.04216061 0.00260000
v -0.00800000 -0.04350000 0.00260000
v -0.00800000 -0.04350000 0.00570000
v -0.00800000 -0.04350000 0.00260000
v -0.00800000 -0.04650000 0.00260000
v -0.00800000 -0.04650000 0.00570000
v -0.01450000 -0.04000000 0.00570000
v -0.01450000 -0.04000000 0.00260000
v -0.01150000 -0.04000000 0.00260000
v -0.01150000 -0.04000000 0.00570000
v 0.01168477 -0.00927863 0.00570000
v 0.01105500 -0.00952709 0.00570000
v 0.01105500 -0.00952709 0.00350000
v 0.01236171 -0.00928779 0.00570000
v 0.01168477 -0.00927863 0.00350000
v 0.01298452 -0.00955321 0.00570000
v 0.01236171 -0.00928779 0.00350000
v 0.01345999 -0.01003515 0.00570000
v 0.01298452 -0.00955321 0.00350000
v 0.01371695 -0.01066150 0.00570000
v 0.01345999 -0.01003515 0.00350000
v 0.01371695 -0.01133850 0.00570000
v 0.01371695 -0.01066150 0.00350000
v 0.01345999 -0.01196485 0.00570000
v 0.01371695 -0.01133850 0.00350000
v 0.01298452 -0.01244679 0.00570000
v 0.01345999 -0.01196485 0.00350000
v 0.01236171 -0.01271221 0.00570000
v 0.01298452 -0.01244679 0.00350000
v 0.01168477 -0.01272137 0.00570000
v 0.01236171 -0.01271221 0.00350000
v 0.01105500 -0.01247291 0.00570000
v 0.01168477 -0.01272137 0.00350000
v 0.01105500 -0.01247291 0.00350000
v 0.01029253 -0.00919273 0.00570000
v 0.00928238 -0.00620000 0.00570000
v 0.00928238 -0.00620000 0.00350000
v 0.01029253 -0.00919273 0.00350000
v 0.00887265 -0.01652074 0.00570000
v 0.01029253 -0.01280727 0.00570000
v 0.01029253 -0.01280727 0.00350000
v 0.00616854 -0.01943514 0.00570000
v 0.00887265 -0.01652074 0.00350000
v 0.00257159 -0.02112864 0.00570000
v 0.00616854 -0.01943514 0.00350000
v -0.00139756 -0.02135612 0.00570000
v 0.00257159 -0.02112864 0.00350000
v -0.00516444 -0.02008466 0.00570000
v -0.00139756 -0.02135612 0.00350000
v -0.00818381 -0.01749829 0.00570000
v -0.00516444 -0.02008466 0.00350000
v -0.01001866 -0.01397135 0.00570000
v -0.00818381 -0.01749829 0.00350000
v -0.01040341 -0.01001434 0.00570000
v -0.01001866 -0.01397135 0.00350000
v -0.00928238 -0.00620000 0.00570000
v -0.01040341 -0.01001434 0.00350000
v -0.00928238 -0.00620000 0.00350000
v 0.00928238 -0.00620000 0.00350000
v 0.00928238 -0.00620000 0.00570000
v 0.01008226 -0.00620000 0.00570000
v 0.01008226 -0.00620000 0.00350000
v -0.00928238 -0.00620000 0.00570000
v -0.00928238 -0.00620000 0.00350000
v -0.01008226 -0.00620000 0.00350000
v -0.01008226 -0.00620000 0.00570000
v 0.01029253 -0.01280727 0.00350000
v 0.01029253 -0.01280727 0.00570000
v 0.01036332 -0.01262507 0.00570000
v 0.01036332 -0.01262507 0.00350000
v 0.01049856 -0.01248393 0.00570000
v 0.01049856 -0.01248393 0.00350000
v 0.01067758 -0.01240542 0.00570000
v 0.01067758 -0.01240542 0.00350000
v 0.01087302 -0.01240155 0.00570000
v 0.01087302 -0.01240155 0.00350000
v 0.01105500 -0.01247291 0.00570000
v 0.01105500 -0.01247291 0.00350000
v 0.01029253 -0.00919273 0.00570000
v 0.01029253 -0.00919273 0.00350000
v 0.01036332 -0.00937493 0.00350000
v 0.01036332 -0.00937493 0.00570000
v 0.01049856 -0.00951607 0.00350000
v 0.01049856 -0.00951607 0.00570000
v 0.01067758 -0.00959458 0.00350000
v 0.01067758 -0.00959458 0.00570000
v 0.01087302 -0.00959845 0.00350000
v 0.01087302 -0.00959845 0.00570000
v 0.01105500 -0.00952709 0.00350000
v 0.01105500 -0.00952709 0.00570000
v -0.00650615 -0.04523910 0.00570000
v -0.00620000 -0.04530000 0.00570000
v -0.00620000 -0.04530000 0.00550000
v -0.00676569 -0.04506569 0.00570000
v -0.00650615 -0.04523910 0.00550000
v -0.00693910 -0.04480615 0.00570000
v -0.00676569 -0.04506569 0.00550000
v -0.00700000 -0.04450000 0.00570000
v -0.00693910 -0.04480615 0.00550000
v -0.00700000 -0.04450000 0.00550000
v -0.00700000 -0.03810000 0.00550000
v -0.00700000 -0.03810000 0.00570000
v -0.00700000 -0.04450000 0.00570000
v -0.00700000 -0.04450000 0.00550000
v -0.00693910 -0.03779385 0.00570000
v -0.00700000 -0.03810000 0.00570000
v -0.00700000 -0.03810000 0.00550000
v -0.00676569 -0.03753432 0.00570000
v -0.00693910 -0.03779385 0.00550000
v -0.00650615 -0.03736090 0.00570000
v -0.00676569 -0.03753432 0.00550000
v -0.00620000 -0.03730000 0.00570000
v -0.00650615 -0.03736090 0.00550000
v -0.00620000 -0.03730000 0.00550000
v 0.00620000 -0.03730000 0.00550000
v 0.00620000 -0.03730000 0.00570000
v -0.00620000 -0.03730000 0.00570000
v -0.00620000 -0.03730000 0.00550000
v 0.00650615 -0.03736090 0.00570000
v 0.00620000 -0.03730000 0.00570000
v 0.00620000 -0.03730000 0.00550000
v 0.00676569 -0.03753432 0.00570000
v 0.00650615 -0.03736090 0.00550000
v 0.00693910 -0.03779385 0.00570000
v 0.00676569 -0.03753432 0.00550000
v 0.00700000 -0.03810000 0.00570000
v 0.00693910 -0.03779385 0.00550000
v 0.00700000 -0.03810000 0.00550000
v 0.00700000 -0.04450000 0.00550000
v 0.00700000 -0.04450000 0.00570000
v 0.00700000 -0.03810000 0.00570000
v 0.00700000 -0.03810000 0.00550000
v 0.00693910 -0.04480615 0.00570000
v 0.00700000 -0.04450000 0.00570000
v 0.00700000 -0.04450000 0.00550000
v 0.00676569 -0.04506569 0.00570000
v 0.00693910 -0.04480615 0.00550000
v 0.00650615 -0.04523910 0.00570000
v 0.00676569 -0.04506569 0.00550000
v 0.00620000 -0.04530000 0.00570000
v 0.00650615 -0.04523910 0.00550000
v 0.00620000 -0.04530000 0.00550000
v 0.00650615 -0.04523910 0.00550000
v 0.00676569 -0.04506569 0.00550000
v 0.00693910 -0.04480615 0.00550000
v 0.00700000 -0.04450000 0.00550000
v 0.00620000 -0.04530000 0.00550000
v -0.00700000 -0.04450000 0.00550000
v -0.00620000 -0.04530000 0.00550000
v -0.00650615 -0.04523910 0.00550000
v -0.00693910 -0.04480615 0.00550000
v -0.00650615 -0.03736090 0.00550000
v -0.00676569 -0.03753432 0.00550000
v -0.00693910 -0.03779385 0.00550000
v -0.00676569 -0.04506569 0.00550000
v -0.00700000 -0.03810000 0.00550000
v -0.00620000 -0.03730000 0.00550000
v 0.00700000 -0.03810000 0.00550000
v 0.00620000 -0.03730000 0.00550000
v 0.00650615 -0.03736090 0.00550000
v 0.00693910 -0.03779385 0.00550000
v 0.00676569 -0.03753432 0.00550000
v -0.00620000 -0.04530000 0.00550000
v -0.00620000 -0.04530000 0.00570000
v 0.00620000 -0.04530000 0.00570000
v 0.00620000 -0.04530000 0.00550000
v 0.01087302 -0.01240155 0.00570000
v 0.01067758 -0.01240542 0.00570000
v 0.01049856 -0.01248393 0.00570000
v 0.01036332 -0.01262507 0.00570000
v 0.01036332 -0.00937493 0.00570000
v 0.01049856 -0.00951607 0.00570000
v 0.01067758 -0.00959458 0.00570000
v 0.01029253 -0.01280727 0.00570000
v 0.01105500 -0.01247291 0.00570000
v 0.01168477 -0.01272137 0.00570000
v 0.00887265 -0.01652074 0.00570000
v 0.01087302 -0.00959845 0.00570000
v 0.01025754 -0.01875754 0.00570000
v 0.01059818 -0.01852993 0.00570000
v 0.01298452 -0.01244679 0.00570000
v 0.01236171 -0.01271221 0.00570000
v 0.01025754 -0.02024246 0.00570000
v 0.01002993 -0.01990182 0.00570000
v 0.00257159 -0.02112864 0.00570000
v 0.01105500 -0.00952709 0.00570000
v 0.01029253 -0.00919273 0.00570000
v 0.01345999 -0.01196485 0.00570000
v -0.00139756 -0.02135612 0.00570000
v -0.01002993 -0.01990182 0.00570000
v -0.01025754 -0.02024246 0.00570000
v -0.00676569 -0.03753432 0.00570000
v -0.00700000 -0.04450000 0.00570000
v -0.00700000 -0.03810000 0.00570000
v -0.00826642 -0.04216061 0.00570000
v 0.01197007 -0.01990182 0.00570000
v 0.00676569 -0.03753432 0.00570000
v 0.00693910 -0.03779385 0.00570000
v 0.01450000 -0.04000000 0.00570000
v 0.01371695 -0.01133850 0.00570000
v 0.01205000 -0.01950000 0.00570000
v 0.01016061 -0.00623358 0.00570000
v 0.01168477 -0.00927863 0.00570000
v 0.00616854 -0.01943514 0.00570000
v 0.01002993 -0.01909818 0.00570000
v -0.01197007 -0.01990182 0.00570000
v 0.01450000 -0.00650000 0.00570000
v 0.01371695 -0.01066150 0.00570000
v 0.01008226 -0.00620000 0.00570000
v -0.01100000 -0.02055000 0.00570000
v -0.01140182 -0.02047007 0.00570000
v -0.01059818 -0.02047007 0.00570000
v 0.00995000 -0.01950000 0.00570000
v 0.01059818 -0.02047007 0.00570000
v -0.00650615 -0.03736090 0.00570000
v -0.00620000 -0.03730000 0.00570000
v 0.00620000 -0.03730000 0.00570000
v 0.00650615 -0.03736090 0.00570000
v -0.00800000 -0.04350000 0.00570000
v -0.00800000 -0.04650000 0.00570000
v -0.00693910 -0.04480615 0.00570000
v 0.01150000 -0.00650000 0.00570000
v 0.01236171 -0.00928779 0.00570000
v -0.00995000 -0.01950000 0.00570000
v 0.01100000 -0.02055000 0.00570000
v -0.01016061 -0.04026642 0.00570000
v -0.00902513 -0.04102512 0.00570000
v 0.01345999 -0.01003515 0.00570000
v 0.00928238 -0.00620000 0.00570000
v -0.01174246 -0.02024246 0.00570000
v 0.01174246 -0.02024246 0.00570000
v 0.01140182 -0.02047007 0.00570000
v -0.00693910 -0.03779385 0.00570000
v -0.01205000 -0.01950000 0.00570000
v 0.01298452 -0.00955321 0.00570000
v -0.01450000 -0.00650000 0.00570000
v -0.01197007 -0.01909818 0.00570000
v -0.01174246 -0.01875754 0.00570000
v -0.00676569 -0.04506569 0.00570000
v 0.00800000 -0.04650000 0.00570000
v 0.00620000 -0.04530000 0.00570000
v -0.00620000 -0.04530000 0.00570000
v 0.00800000 -0.04350000 0.00570000
v 0.00700000 -0.04450000 0.00570000
v 0.00826642 -0.04216061 0.00570000
v -0.01040341 -0.01001434 0.00570000
v -0.00928238 -0.00620000 0.00570000
v -0.01008226 -0.00620000 0.00570000
v -0.01100000 -0.01845000 0.00570000
v -0.01059818 -0.01852993 0.00570000
v -0.01001866 -0.01397135 0.00570000
v -0.01450000 -0.04000000 0.00570000
v -0.01150000 -0.04000000 0.00570000
v 0.00650615 -0.04523910 0.00570000
v 0.00700000 -0.03810000 0.00570000
v -0.00516444 -0.02008466 0.00570000
v -0.00818381 -0.01749829 0.00570000
v -0.01002993 -0.01909818 0.00570000
v -0.01016061 -0.00623358 0.00570000
v -0.00650615 -0.04523910 0.00570000
v 0.00902513 -0.04102512 0.00570000
v 0.00693910 -0.04480615 0.00570000
v -0.01025754 -0.01875754 0.00570000
v -0.01150000 -0.00650000 0.00570000
v -0.01140182 -0.01852993 0.00570000
v 0.00676569 -0.04506569 0.00570000
v 0.01016061 -0.04026642 0.00570000
v 0.01150000 -0.04000000 0.00570000
v 0.01140182 -0.01852993 0.00570000
v 0.01174246 -0.01875754 0.00570000
v 0.01197007 -0.01909818 0.00570000
v 0.01100000 -0.01845000 0.00570000
v -0.01002993 -0.01990182 0.00570000
v -0.00995000 -0.01950000 0.00570000
v -0.00995000 -0.01950000 0.00270000
v -0.01025754 -0.02024246 0.00570000
v -0.01002993 -0.01990182 0.00270000
v -0.01059818 -0.02047007 0.00570000
v -0.01025754 -0.02024246 0.00270000
v -0.01100000 -0.02055000 0.00570000
v -0.01059818 -0.02047007 0.00270000
v -0.01140182 -0.02047007 0.00570000
v -0.01100000 -0.02055000 0.00270000
v -0.01174246 -0.02024246 0.00570000
v -0.01140182 -0.02047007 0.00270000
v -0.01197007 -0.01990182 0.00570000
v -0.01174246 -0.02024246 0.00270000
v -0.01205000 -0.01950000 0.00570000
v -0.01197007 -0.01990182 0.00270000
v -0.01197007 -0.01909818 0.00570000
v -0.01205000 -0.01950000 0.00270000
v -0.01174246 -0.01875754 0.00570000
v -0.01197007 -0.01909818 0.00270000
v -0.01140182 -0.01852993 0.00570000
v -0.01174246 -0.01875754 0.00270000
v -0.01100000 -0.01845000 0.00570000
v -0.01140182 -0.01852993 0.00270000
v -0.01059818 -0.01852993 0.00570000
v -0.01100000 -0.01845000 0.00270000
v -0.01025754 -0.01875754 0.00570000
v -0.01059818 -0.01852993 0.00270000
v -0.01002993 -0.01909818 0.00570000
v -0.01025754 -0.01875754 0.00270000
v -0.01002993 -0.01909818 0.00270000
v -0.01100000 -0.01950000 0.00270000
v -0.01002993 -0.01909818 0.00270000
v -0.01025754 -0.01875754 0.00270000
v -0.01059818 -0.01852993 0.00270000
v -0.01100000 -0.01845000 0.00270000
v -0.01140182 -0.01852993 0.00270000
v -0.01174246 -0.01875754 0.00270000
v -0.01197007 -0.01909818 0.00270000
v -0.01205000 -0.01950000 0.00270000
v -0.01197007 -0.01990182 0.00270000
v -0.01174246 -0.02024246 0.00270000
v -0.01140182 -0.02047007 0.00270000
v -0.01100000 -0.02055000 0.00270000
v -0.01059818 -0.02047007 0.00270000
v -0.01025754 -0.02024246 0.00270000
v -0.01002993 -0.01990182 0.00270000
v -0.00995000 -0.01950000 0.00270000
vt 0.50000000 0.50000000
vt 0.50000000 0.50000000
vt 0.50000000 0.50000000
vt 0.50000000 0.50000000
vt 0.50000000 0.50000000
vt 0.50000000 0.50000000
vt 0.50000000 0.50000000
vt 0.50000000 0.50000000
vt 0.50000000 0.50000000
vt 0.50000000 0.50000000
vt 0.50000000 0.50000000
vt 0.50000000 0.50000000
vt 0.50000000 0.50000000
vt 0.50000000 0.50000000
vt 0.50000000 0.50000000
vt 0.50000000 0.50000000
vt 0.50000000 0.50000000
vt 0.50000000 0.50000000
vt 0.50000000 0.50000000
vt 0.50000000 0.50000000
vt 0.50000000 0.50000000
vt 0.50000000 0.50000000
vt 0.50000000 0.50000000
vt 0.50000000 0.50000000
vt 0.50000000 0.50000000
vt 0.50000000 0.50000000
vt 0.50000000 0.50000000
vt 0.50000000 0.50000000
vt 0.50000000 0.50000000
vt 0.50000000 0.50000000
vt 0.50000000 0.50000000
vt 0.50000000 0.50000000
vt 0.50000000 0.50000000
vt 0.50000000 0.50000000
vt 0.50000000 0.50000000
vt 0.50000000 0.50000000
vt 0.50000000 0.50000000
vt 0.50000000 0.50000000
vt 0.50000000 0.50000000
vt 0.50000000 0.50000000
vt 0.50000000 0.50000000
vt 0.50000000 0.50000000
vt 0.50000000 0.50000000
vt 0.50000000 0.50000000
vt 0.50000000 0.50000000
vt 0.50000000 0.50000000
vt 0.50000000 0.50000000
vt 0.50000000 0.50000000
vt 0.50000000 0.50000000
vt 0.50000000 0.50000000
vt 0.50000000 0.50000000
vt 0.50000000 0.50000000
vt 0.50000000 0.50000000
vt 0.50000000 0.50000000
vt 0.50000000 0.50000000
vt 0.50000000 0.50000000
vt 0.50000000 0.50000000
vt 0.50000000 0.50000000
vt 0.50000000 0.50000000
vt 0.50000000 0.50000000
vt 0.50000000 0.50000000
vt 0.50000000 0.50000000
vt 0.50000000 0.50000000
vt 0.50000000 0.50000000
vt 0.50000000 0.50000000
vt 0.50000000 0.50000000
vt 0.50000000 0.50000000
vt 0.50000000 0.50000000
vt 0.50000000 0.50000000
vt 0.50000000 0.50000000
vt 0.50000000 0.50000000
vt 0.50000000 0.50000000
vt 0.50000000 0.50000000
vt 0.50000000 0.50000000
vt 0.50000000 0.50000000
vt 0.50000000 0.50000000
vt 0.50000000 0.50000000
vt 0.50000000 0.50000000
vt 0.50000000 0.50000000
vt 0.50000000 0.50000000
vt 0.50000000 0.50000000
vt 0.50000000 0.50000000
vt 0.50000000 0.50000000
vt 0.50000000 0.50000000
vt 0.50000000 0.50000000
vt 0.50000000 0.50000000
vt 0.50000000 0.50000000
vt 0.50000000 0.50000000
vt 0.50000000 0.50000000
vt 0.50000000 0.50000000
vt 0.50000000 0.50000000
vt 0.50000000 0.50000000
vt 0.50000000 0.50000000
vt 0.50000000 0.50000000
vt 0.50000000 0.50000000
vt 0.50000000 0.50000000
vt 0.50000000 0.50000000
vt 0.50000000 0.50000000
vt 0.50000000 0.50000000
vt 0.50000000 0.50000000
vt 0.50000000 0.50000000
vt 0.50000000 0.50000000
vt 0.50000000 0.50000000
vt 0.50000000 0.50000000
vt 0.50000000 0.50000000
vt 0.50000000 0.50000000
vt 0.50000000 0.50000000
vt 0.50000000 0.50000000
vt 0.50000000 0.50000000
vt 0.50000000 0.50000000
vt 0.50000000 0.50000000
vt 0.50000000 0.50000000
vt 0.50000000 0.50000000
vt 0.50000000 0.50000000
vt 0.50000000 0.50000000
vt 0.50000000 0.50000000
vt 0.50000000 0.50000000
vt 0.50000000 0.50000000
vt 0.50000000 0.50000000
vt 0.50000000 0.50000000
vt 0.50000000 0.50000000
vt 0.50000000 0.50000000
vt 0.50000000 0.50000000
vt 0.50000000 0.50000000
vt 0.50000000 0.50000000
vt 0.50000000 0.50000000
vt 0.50000000 0.50000000
vt 0.50000000 0.50000000
vt 0.50000000 0.50000000
vt 0.50000000 0.50000000
vt 0.50000000 0.50000000
vt 0.50000000 0.50000000
vt 0.50000000 0.50000000
vt 0.50000000 0.50000000
vt 0.50000000 0.50000000
vt 0.50000000 0.50000000
vt 0.50000000 0.50000000
vt 0.50000000 0.50000000
vt 0.50000000 0.50000000
vt 0.50000000 0.50000000
vt 0.50000000 0.50000000
vt 0.50000000 0.50000000
vt 0.50000000 0.50000000
vt 0.50000000 0.50000000
vt 0.50000000 0.50000000
vt 0.50000000 0.50000000
vt 0.50000000 0.50000000
vt 0.50000000 0.50000000
vt 0.50000000 0.50000000
vt 0.50000000 0.50000000
vt 0.50000000 0.50000000
vt 0.50000000 0.50000000
vt 0.50000000 0.50000000
vt 0.50000000 0.50000000
vt 0.50000000 0.50000000
vt 0.50000000 0.50000000
vt 0.50000000 0.50000000
vt 0.50000000 0.50000000
vt 0.50000000 0.50000000
vt 0.50000000 0.50000000
vt 0.50000000 0.50000000
vt 0.50000000 0.50000000
vt 0.50000000 0.50000000
vt 0.50000000 0.50000000
vt 0.50000000 0.50000000
vt 0.50000000 0.50000000
vt 0.50000000 0.50000000
vt 0.50000000 0.50000000
vt 0.50000000 0.50000000
vt 0.50000000 0.50000000
vt 0.50000000 0.50000000
vt 0.50000000 0.50000000
vt 0.50000000 0.50000000
vt 0.50000000 0.50000000
vt 0.50000000 0.50000000
vt 0.50000000 0.50000000
vt 0.50000000 0.50000000
vt 0.50000000 0.50000000
vt 0.50000000 0.50000000
vt 0.50000000 0.50000000
vt 0.50000000 0.50000000
vt 0.50000000 0.50000000
vt 0.50000000 0.50000000
vt 0.50000000 0.50000000
vt 0.50000000 0.50000000
vt 0.50000000 0.50000000
vt 0.50000000 0.50000000
vt 0.50000000 0.50000000
vt 0.50000000 0.50000000
vt 0.50000000 0.50000000
vt 0.50000000 0.50000000
vt 0.50000000 0.50000000
vt 0.50000000 0.50000000
vt 0.50000000 0.50000000
vt 0.50000000 0.50000000
vt 0.50000000 0.50000000
vt 0.50000000 0.50000000
vt 0.50000000 0.50000000
vt 0.50000000 0.50000000
vt 0.50000000 0.50000000
vt 0.50000000 0.50000000
vt 0.50000000 0.50000000
vt 0.50000000 0.50000000
vt 0.50000000 0.50000000
vt 0.50000000 0.50000000
vt 0.50000000 0.50000000
vt 0.50000000 0.50000000
vt 0.50000000 0.50000000
vt 0.50000000 0.50000000
vt 0.50000000 0.50000000
vt 0.50000000 0.50000000
vt 0.50000000 0.50000000
vt 0.50000000 0.50000000
vt 0.50000000 0.50000000
vt 0.50000000 0.50000000
vt 0.50000000 0.50000000
vt 0.50000000 0.50000000
vt 0.50000000 0.50000000
vt 0.50000000 0.50000000
vt 0.50000000 0.50000000
vt 0.50000000 0.50000000
vt 0.50000000 0.50000000
vt 0.50000000 0.50000000
vt 0.50000000 0.50000000
vt 0.50000000 0.50000000
vt 0.50000000 0.50000000
vt 0.50000000 0.50000000
vt 0.50000000 0.50000000
vt 0.50000000 0.50000000
vt 0.50000000 0.50000000
vt 0.50000000 0.50000000
vt 0.50000000 0.50000000
vt 0.50000000 0.50000000
vt 0.50000000 0.50000000
vt 0.50000000 0.50000000
vt 0.50000000 0.50000000
vt 0.50000000 0.50000000
vt 0.50000000 0.50000000
vt 0.50000000 0.50000000
vt 0.50000000 0.50000000
vt 0.50000000 0.50000000
vt 0.50000000 0.50000000
vt 0.50000000 0.50000000
vt 0.50000000 0.50000000
vt 0.50000000 0.50000000
vt 0.50000000 0.50000000
vt 0.50000000 0.50000000
vt 0.50000000 0.50000000
vt 0.50000000 0.50000000
vt 0.50000000 0.50000000
vt 0.50000000 0.50000000
vt 0.50000000 0.50000000
vt 0.50000000 0.50000000
vt 0.50000000 0.50000000
vt 0.50000000 0.50000000
vt 0.50000000 0.50000000
vt 0.50000000 0.50000000
vt 0.50000000 0.50000000
vt 0.50000000 0.50000000
vt 0.50000000 0.50000000
vt 0.50000000 0.50000000
vt 0.50000000 0.50000000
vt 0.50000000 0.50000000
vt 0.50000000 0.50000000
vt 0.50000000 0.50000000
vt 0.50000000 0.50000000
vt 0.50000000 0.50000000
vt 0.50000000 0.50000000
vt 0.50000000 0.50000000
vt 0.50000000 0.50000000
vt 0.50000000 0.50000000
vt 0.50000000 0.50000000
vt 0.50000000 0.50000000
vt 0.50000000 0.50000000
vt 0.50000000 0.50000000
vt 0.50000000 0.50000000
vt 0.50000000 0.50000000
vt 0.50000000 0.50000000
vt 0.50000000 0.50000000
vt 0.50000000 0.50000000
vt 0.50000000 0.50000000
vt 0.50000000 0.50000000
vt 0.50000000 0.50000000
vt 0.50000000 0.50000000
vt 0.50000000 0.50000000
vt 0.50000000 0.50000000
vt 0.50000000 0.50000000
vt 0.50000000 0.50000000
vt 0.50000000 0.50000000
vt 0.50000000 0.50000000
vt 0.50000000 0.50000000
vt 0.50000000 0.50000000
vt 0.50000000 0.50000000
vt 0.50000000 0.50000000
vt 0.50000000 0.50000000
vt 0.50000000 0.50000000
vt 0.50000000 0.50000000
vt 0.50000000 0.50000000
vt 0.50000000 0.50000000
vt 0.50000000 0.50000000
vt 0.50000000 0.50000000
vt 0.50000000 0.50000000
vt 0.50000000 0.50000000
vt 0.50000000 0.50000000
vt 0.50000000 0.50000000
vt 0.50000000 0.50000000
vt 0.50000000 0.50000000
vt 0.50000000 0.50000000
vt 0.50000000 0.50000000
vt 0.50000000 0.50000000
vt 0.50000000 0.50000000
vt 0.50000000 0.50000000
vt 0.50000000 0.50000000
vt 0.50000000 0.50000000
vt 0.50000000 0.50000000
vt 0.50000000 0.50000000
vt 0.50000000 0.50000000
vt 0.50000000 0.50000000
vt 0.50000000 0.50000000
vt 0.50000000 0.50000000
vt 0.50000000 0.50000000
vt 0.50000000 0.50000000
vt 0.50000000 0.50000000
vt 0.50000000 0.50000000
vt 0.50000000 0.50000000
vt 0.50000000 0.50000000
vt 0.50000000 0.50000000
vt 0.50000000 0.50000000
vt 0.50000000 0.50000000
vt 0.50000000 0.50000000
vt 0.50000000 0.50000000
vt 0.50000000 0.50000000
vt 0.50000000 0.50000000
vt 0.50000000 0.50000000
vt 0.50000000 0.50000000
vt 0.50000000 0.50000000
vt 0.50000000 0.50000000
vt 0.50000000 0.50000000
vt 0.50000000 0.50000000
vt 0.50000000 0.50000000
vt 0.50000000 0.50000000
vt 0.50000000 0.50000000
vt 0.50000000 0.50000000
vt 0.50000000 0.50000000
vt 0.50000000 0.50000000
vt 0.50000000 0.50000000
vt 0.50000000 0.50000000
vt 0.50000000 0.50000000
vt 0.50000000 0.50000000
vt 0.50000000 0.50000000
vt 0.50000000 0.50000000
vt 0.50000000 0.50000000
vt 0.50000000 0.50000000
vt 0.50000000 0.50000000
vt 0.50000000 0.50000000
vt 0.50000000 0.50000000
vt 0.50000000 0.50000000
vt 0.50000000 0.50000000
vt 0.50000000 0.50000000
vt 0.50000000 0.50000000
vt 0.50000000 0.50000000
vt 0.50000000 0.50000000
vt 0.50000000 0.50000000
vt 0.50000000 0.50000000
vt 0.50000000 0.50000000
vt 0.50000000 0.50000000
vt 0.50000000 0.50000000
vt 0.50000000 0.50000000
vt 0.50000000 0.50000000
vt 0.50000000 0.50000000
vt 0.50000000 0.50000000
vt 0.50000000 0.50000000
vt 0.50000000 0.50000000
vt 0.50000000 0.50000000
vt 0.50000000 0.50000000
vt 0.50000000 0.50000000
vt 0.50000000 0.50000000
vt 0.50000000 0.50000000
vt 0.50000000 0.50000000
vt 0.50000000 0.50000000
vt 0.50000000 0.50000000
vt 0.50000000 0.50000000
vt 0.50000000 0.50000000
vt 0.50000000 0.50000000
vt 0.50000000 0.50000000
vt 0.50000000 0.50000000
vt 0.50000000 0.50000000
vt 0.50000000 0.50000000
vt 0.50000000 0.50000000
vt 0.50000000 0.50000000
vt 0.50000000 0.50000000
vt 0.50000000 0.50000000
vt 0.50000000 0.50000000
vt 0.50000000 0.50000000
vt 0.50000000 0.50000000
vt 0.50000000 0.50000000
vt 0.50000000 0.50000000
vt 0.50000000 0.50000000
vt 0.50000000 0.50000000
vt 0.50000000 0.50000000
vt 0.50000000 0.50000000
vt 0.50000000 0.50000000
vt 0.50000000 0.50000000
vt 0.50000000 0.50000000
vt 0.50000000 0.50000000
vt 0.50000000 0.50000000
vt 0.50000000 0.50000000
vt 0.50000000 0.50000000
vt 0.50000000 0.50000000
vt 0.50000000 0.50000000
vt 0.50000000 0.50000000
vt 0.50000000 0.50000000
vt 0.50000000 0.50000000
vt 0.50000000 0.50000000
vt 0.50000000 0.50000000
vt 0.50000000 0.50000000
vt 0.50000000 0.50000000
vt 0.50000000 0.50000000
vt 0.50000000 0.50000000
vt 0.50000000 0.50000000
vt 0.50000000 0.50000000
vt 0.50000000 0.50000000
vt 0.50000000 0.50000000
vt 0.50000000 0.50000000
vt 0.50000000 0.50000000
vt 0.50000000 0.50000000
vt 0.50000000 0.50000000
vt 0.50000000 0.50000000
vt 0.50000000 0.50000000
vt 0.50000000 0.50000000
vt 0.50000000 0.50000000
vt 0.50000000 0.50000000
vt 0.50000000 0.50000000
vt 0.50000000 0.50000000
vt 0.50000000 0.50000000
vt 0.50000000 0.50000000
vt 0.50000000 0.50000000
vt 0.50000000 0.50000000
vt 0.50000000 0.50000000
vt 0.50000000 0.50000000
vt 0.50000000 0.50000000
vt 0.50000000 0.50000000
vt 0.50000000 0.50000000
vt 0.50000000 0.50000000
vt 0.50000000 0.50000000
vt 0.50000000 0.50000000
vt 0.50000000 0.50000000
vt 0.50000000 0.50000000
vt 0.50000000 0.50000000
vt 0.50000000 0.50000000
vt 0.50000000 0.50000000
vt 0.50000000 0.50000000
vt 0.50000000 0.50000000
vt 0.50000000 0.50000000
vt 0.50000000 0.50000000
vt 0.50000000 0.50000000
vt 0.50000000 0.50000000
vt 0.50000000 0.50000000
vt 0.50000000 0.50000000
vt 0.50000000 0.50000000
vt 0.50000000 0.50000000
vt 0.50000000 0.50000000
vt 0.50000000 0.50000000
vt 0.50000000 0.50000000
vt 0.50000000 0.50000000
vt 0.50000000 0.50000000
vt 0.50000000 0.50000000
vt 0.50000000 0.50000000
vt 0.50000000 0.50000000
vt 0.50000000 0.50000000
vt 0.50000000 0.50000000
vt 0.50000000 0.50000000
vt 0.50000000 0.50000000
vt 0.50000000 0.50000000
vt 0.50000000 0.50000000
vt 0.50000000 0.50000000
vt 0.50000000 0.50000000
vt 0.50000000 0.50000000
vt 0.50000000 0.50000000
vt 0.50000000 0.50000000
vt 0.50000000 0.50000000
vt 0.50000000 0.50000000
vt 0.50000000 0.50000000
vt 0.50000000 0.50000000
vt 0.50000000 0.50000000
vt 0.50000000 0.50000000
vt 0.50000000 0.50000000
vt 0.50000000 0.50000000
vt 0.50000000 0.50000000
vt 0.50000000 0.50000000
vt 0.50000000 0.50000000
vt 0.50000000 0.50000000
vt 0.50000000 0.50000000
vt 0.50000000 0.50000000
vt 0.50000000 0.50000000
vt 0.50000000 0.50000000
vt 0.50000000 0.50000000
vt 0.50000000 0.50000000
vt 0.50000000 0.50000000
vt 0.50000000 0.50000000
vt 0.50000000 0.50000000
vt 0.50000000 0.50000000
vt 0.50000000 0.50000000
vt 0.50000000 0.50000000
vt 0.50000000 0.50000000
vt 0.50000000 0.50000000
vt 0.50000000 0.50000000
vt 0.50000000 0.50000000
vt 0.50000000 0.50000000
vt 0.50000000 0.50000000
vt 0.50000000 0.50000000
vt 0.50000000 0.50000000
vt 0.50000000 0.50000000
vt 0.50000000 0.50000000
vt 0.50000000 0.50000000
vt 0.50000000 0.50000000
vt 0.50000000 0.50000000
vt 0.50000000 0.50000000
vt 0.50000000 0.50000000
vt 0.50000000 0.50000000
vt 0.50000000 0.50000000
vt 0.50000000 0.50000000
vt 0.50000000 0.50000000
vt 0.50000000 0.50000000
vt 0.50000000 0.50000000
vt 0.50000000 0.50000000
vt 0.50000000 0.50000000
vt 0.50000000 0.50000000
vt 0.50000000 0.50000000
vt 0.50000000 0.50000000
vt 0.50000000 0.50000000
vt 0.50000000 0.50000000
vt 0.50000000 0.50000000
vt 0.50000000 0.50000000
vt 0.50000000 0.50000000
vt 0.50000000 0.50000000
vt 0.50000000 0.50000000
vt 0.50000000 0.50000000
vt 0.50000000 0.50000000
vt 0.50000000 0.50000000
vt 0.50000000 0.50000000
vt 0.50000000 0.50000000
vt 0.50000000 0.50000000
vt 0.50000000 0.50000000
vt 0.50000000 0.50000000
vt 0.50000000 0.50000000
vt 0.50000000 0.50000000
vt 0.50000000 0.50000000
vt 0.50000000 0.50000000
vt 0.50000000 0.50000000
vt 0.50000000 0.50000000
vt 0.50000000 0.50000000
vt 0.50000000 0.50000000
vt 0.50000000 0.50000000
vt 0.50000000 0.50000000
vt 0.50000000 0.50000000
vt 0.50000000 0.50000000
vt 0.50000000 0.50000000
vt 0.50000000 0.50000000
vt 0.50000000 0.50000000
vt 0.50000000 0.50000000
vt 0.50000000 0.50000000
vt 0.50000000 0.50000000
vt 0.50000000 0.50000000
vt 0.50000000 0.50000000
vt 0.50000000 0.50000000
vt 0.50000000 0.50000000
vt 0.50000000 0.50000000
vt 0.50000000 0.50000000
vt 0.50000000 0.50000000
vt 0.50000000 0.50000000
vt 0.50000000 0.50000000
vt 0.50000000 0.50000000
vt 0.50000000 0.50000000
vt 0.50000000 0.50000000
vt 0.50000000 0.50000000
vt 0.50000000 0.50000000
vt 0.50000000 0.50000000
vt 0.50000000 0.50000000
vt 0.50000000 0.50000000
vt 0.50000000 0.50000000
vt 0.50000000 0.50000000
vt 0.50000000 0.50000000
vt 0.50000000 0.50000000
vt 0.50000000 0.50000000
vt 0.50000000 0.50000000
vt 0.50000000 0.50000000
vt 0.50000000 0.50000000
vt 0.50000000 0.50000000
vt 0.50000000 0.50000000
vt 0.50000000 0.50000000
vt 0.50000000 0.50000000
vt 0.50000000 0.50000000
vt 0.50000000 0.50000000
vt 0.50000000 0.50000000
vt 0.50000000 0.50000000
vt 0.50000000 0.50000000
vt 0.50000000 0.50000000
vt 0.50000000 0.50000000
vt 0.50000000 0.50000000
vt 0.50000000 0.50000000
vt 0.50000000 0.50000000
vt 0.50000000 0.50000000
vt 0.50000000 0.50000000
vt 0.50000000 0.50000000
vt 0.50000000 0.50000000
vt 0.50000000 0.50000000
vt 0.50000000 0.50000000
vt 0.50000000 0.50000000
vt 0.50000000 0.50000000
vt 0.50000000 0.50000000
vt 0.50000000 0.50000000
vt 0.50000000 0.50000000
vt 0.50000000 0.50000000
vt 0.50000000 0.50000000
vt 0.50000000 0.50000000
vt 0.50000000 0.50000000
vt 0.50000000 0.50000000
vt 0.50000000 0.50000000
vt 0.50000000 0.50000000
vt 0.50000000 0.50000000
vt 0.50000000 0.50000000
vt 0.50000000 0.50000000
vt 0.50000000 0.50000000
vt 0.50000000 0.50000000
vt 0.50000000 0.50000000
vt 0.50000000 0.50000000
vt 0.50000000 0.50000000
vt 0.50000000 0.50000000
vt 0.50000000 0.50000000
vt 0.50000000 0.50000000
vt 0.50000000 0.50000000
vt 0.50000000 0.50000000
vt 0.50000000 0.50000000
vt 0.50000000 0.50000000
vt 0.50000000 0.50000000
vt 0.50000000 0.50000000
vt 0.50000000 0.50000000
vt 0.50000000 0.50000000
vt 0.50000000 0.50000000
vt 0.50000000 0.50000000
vt 0.50000000 0.50000000
vt 0.50000000 0.50000000
vt 0.50000000 0.50000000
vt 0.50000000 0.50000000
vt 0.50000000 0.50000000
vt 0.50000000 0.50000000
vt 0.50000000 0.50000000
vt 0.50000000 0.50000000
vt 0.50000000 0.50000000
vt 0.50000000 0.50000000
vt 0.50000000 0.50000000
vt 0.50000000 0.50000000
vt 0.50000000 0.50000000
vt 0.50000000 0.50000000
vt 0.50000000 0.50000000
vt 0.50000000 0.50000000
vt 0.50000000 0.50000000
vt 0.50000000 0.50000000
vt 0.50000000 0.50000000
vt 0.50000000 0.50000000
vt 0.50000000 0.50000000
vt 0.50000000 0.50000000
vt 0.50000000 0.50000000
vt 0.50000000 0.50000000
vt 0.50000000 0.50000000
vt 0.50000000 0.50000000
vt 0.50000000 0.50000000
vt 0.50000000 0.50000000
vt 0.50000000 0.50000000
vt 0.50000000 0.50000000
vt 0.50000000 0.50000000
vt 0.50000000 0.50000000
vt 0.50000000 0.50000000
vt 0.50000000 0.50000000
vt 0.50000000 0.50000000
vt 0.50000000 0.50000000
vt 0.50000000 0.50000000
vt 0.50000000 0.50000000
vt 0.50000000 0.50000000
vt 0.50000000 0.50000000
vt 0.50000000 0.50000000
vt 0.50000000 0.50000000
vt 0.50000000 0.50000000
vt 0.50000000 0.50000000
vt 0.50000000 0.50000000
vt 0.50000000 0.50000000
vt 0.50000000 0.50000000
vt 0.50000000 0.50000000
vt 0.50000000 0.50000000
vt 0.50000000 0.50000000
vt 0.50000000 0.50000000
vt 0.50000000 0.50000000
vt 0.50000000 0.50000000
vt 0.50000000 0.50000000
vt 0.50000000 0.50000000
vt 0.50000000 0.50000000
vt 0.50000000 0.50000000
vt 0.50000000 0.50000000
vt 0.50000000 0.50000000
vt 0.50000000 0.50000000
vt 0.50000000 0.50000000
vt 0.50000000 0.50000000
vt 0.50000000 0.50000000
vt 0.50000000 0.50000000
vt 0.50000000 0.50000000
vt 0.50000000 0.50000000
vt 0.50000000 0.50000000
vt 0.50000000 0.50000000
vt 0.50000000 0.50000000
vt 0.50000000 0.50000000
vt 0.50000000 0.50000000
vt 0.50000000 0.50000000
vt 0.50000000 0.50000000
vt 0.50000000 0.50000000
vt 0.50000000 0.50000000
vt 0.50000000 0.50000000
vt 0.50000000 0.50000000
vt 0.50000000 0.50000000
vt 0.50000000 0.50000000
vt 0.50000000 0.50000000
vt 0.50000000 0.50000000
vt 0.50000000 0.50000000
vt 0.50000000 0.50000000
vt 0.50000000 0.50000000
vt 0.50000000 0.50000000
vt 0.50000000 0.50000000
vt 0.50000000 0.50000000
vt 0.50000000 0.50000000
vt 0.50000000 0.50000000
vt 0.50000000 0.50000000
vt 0.50000000 0.50000000
vt 0.50000000 0.50000000
vt 0.50000000 0.50000000
vt 0.50000000 0.50000000
vt 0.50000000 0.50000000
vt 0.50000000 0.50000000
vt 0.50000000 0.50000000
vt 0.50000000 0.50000000
vt 0.50000000 0.50000000
vt 0.50000000 0.50000000
vt 0.50000000 0.50000000
vt 0.50000000 0.50000000
vt 0.50000000 0.50000000
vt 0.50000000 0.50000000
vt 0.50000000 0.50000000
vt 0.50000000 0.50000000
vt 0.50000000 0.50000000
vt 0.50000000 0.50000000
vt 0.50000000 0.50000000
vt 0.50000000 0.50000000
vt 0.50000000 0.50000000
vt 0.50000000 0.50000000
vt 0.50000000 0.50000000
vt 0.50000000 0.50000000
vt 0.50000000 0.50000000
vt 0.50000000 0.50000000
vt 0.50000000 0.50000000
vt 0.50000000 0.50000000
vt 0.50000000 0.50000000
vt 0.50000000 0.50000000
vt 0.50000000 0.50000000
vt 0.50000000 0.50000000
vt 0.50000000 0.50000000
vt 0.50000000 0.50000000
vt 0.50000000 0.50000000
vt 0.50000000 0.50000000
vt 0.50000000 0.50000000
vt 0.50000000 0.50000000
vt 0.50000000 0.50000000
vt 0.50000000 0.50000000
vt 0.50000000 0.50000000
vt 0.50000000 0.50000000
vt 0.50000000 0.50000000
vt 0.50000000 0.50000000
vt 0.50000000 0.50000000
vt 0.50000000 0.50000000
vt 0.50000000 0.50000000
vt 0.50000000 0.50000000
vt 0.50000000 0.50000000
vt 0.50000000 0.50000000
vt 0.50000000 0.50000000
vt 0.50000000 0.50000000
vt 0.50000000 0.50000000
vt 0.50000000 0.50000000
vt 0.50000000 0.50000000
vt 0.50000000 0.50000000
vt 0.50000000 0.50000000
vt 0.50000000 0.50000000
vt 0.50000000 0.50000000
vt 0.50000000 0.50000000
vt 0.50000000 0.50000000
vt 0.50000000 0.50000000
vt 0.50000000 0.50000000
vt 0.50000000 0.50000000
vt 0.50000000 0.50000000
vt 0.50000000 0.50000000
vt 0.50000000 0.50000000
vt 0.50000000 0.50000000
vt 0.50000000 0.50000000
vt 0.50000000 0.50000000
vt 0.50000000 0.50000000
vt 0.50000000 0.50000000
vt 0.50000000 0.50000000
vt 0.50000000 0.50000000
vt 0.50000000 0.50000000
vt 0.50000000 0.50000000
vt 0.50000000 0.50000000
vt 0.50000000 0.50000000
vt 0.50000000 0.50000000
vt 0.50000000 0.50000000
vt 0.50000000 0.50000000
vt 0.50000000 0.50000000
vt 0.50000000 0.50000000
vt 0.50000000 0.50000000
vt 0.50000000 0.50000000
vt 0.50000000 0.50000000
vt 0.50000000 0.50000000
vt 0.50000000 0.50000000
vt 0.50000000 0.50000000
vt 0.50000000 0.50000000
vt 0.50000000 0.50000000
vt 0.50000000 0.50000000
vt 0.50000000 0.50000000
vt 0.50000000 0.50000000
vt 0.50000000 0.50000000
vt 0.50000000 0.50000000
vt 0.50000000 0.50000000
vt 0.50000000 0.50000000
vt 0.50000000 0.50000000
vt 0.50000000 0.50000000
vt 0.50000000 0.50000000
vt 0.50000000 0.50000000
vt 0.50000000 0.50000000
vt 0.50000000 0.50000000
vt 0.50000000 0.50000000
vt 0.50000000 0.50000000
vt 0.50000000 0.50000000
vt 0.50000000 0.50000000
vt 0.50000000 0.50000000
vt 0.50000000 0.50000000
vt 0.50000000 0.50000000
vt 0.50000000 0.50000000
vt 0.50000000 0.50000000
vt 0.50000000 0.50000000
vt 0.50000000 0.50000000
vt 0.50000000 0.50000000
vt 0.50000000 0.50000000
vt 0.50000000 0.50000000
vt 0.50000000 0.50000000
vt 0.50000000 0.50000000
vt 0.50000000 0.50000000
vt 0.50000000 0.50000000
vt 0.50000000 0.50000000
vt 0.50000000 0.50000000
vt 0.50000000 0.50000000
vt 0.50000000 0.50000000
vt 0.50000000 0.50000000
vt 0.50000000 0.50000000
vt 0.50000000 0.50000000
vt 0.50000000 0.50000000
vt 0.50000000 0.50000000
vt 0.50000000 0.50000000
vt 0.50000000 0.50000000
vt 0.50000000 0.50000000
vt 0.50000000 0.50000000
vt 0.50000000 0.50000000
vt 0.50000000 0.50000000
vt 0.50000000 0.50000000
vt 0.50000000 0.50000000
vt 0.50000000 0.50000000
vt 0.50000000 0.50000000
vt 0.50000000 0.50000000
vt 0.50000000 0.50000000
vt 0.50000000 0.50000000
vt 0.50000000 0.50000000
vt 0.50000000 0.50000000
vt 0.50000000 0.50000000
vt 0.50000000 0.50000000
vt 0.50000000 0.50000000
vt 0.50000000 0.50000000
vt 0.50000000 0.50000000
vt 0.50000000 0.50000000
vt 0.50000000 0.50000000
vt 0.50000000 0.50000000
vt 0.50000000 0.50000000
vt 0.50000000 0.50000000
vt 0.50000000 0.50000000
vt 0.50000000 0.50000000
vt 0.50000000 0.50000000
vt 0.50000000 0.50000000
vt 0.50000000 0.50000000
vt 0.50000000 0.50000000
vt 0.50000000 0.50000000
vt 0.50000000 0.50000000
vt 0.50000000 0.50000000
vt 0.50000000 0.50000000
vt 0.50000000 0.50000000
vt 0.50000000 0.50000000
vt 0.50000000 0.50000000
vt 0.50000000 0.50000000
vt 0.50000000 0.50000000
vt 0.50000000 0.50000000
vt 0.50000000 0.50000000
vt 0.50000000 0.50000000
vt 0.50000000 0.50000000
vt 0.50000000 0.50000000
vt 0.50000000 0.50000000
vt 0.50000000 0.50000000
vt 0.50000000 0.50000000
vt 0.50000000 0.50000000
vt 0.50000000 0.50000000
vt 0.50000000 0.50000000
vt 0.50000000 0.50000000
vt 0.50000000 0.50000000
vt 0.50000000 0.50000000
vt 0.50000000 0.50000000
vt 0.50000000 0.50000000
vt 0.50000000 0.50000000
vt 0.50000000 0.50000000
vt 0.50000000 0.50000000
vt 0.50000000 0.50000000
vt 0.50000000 0.50000000
vt 0.50000000 0.50000000
vt 0.50000000 0.50000000
vt 0.50000000 0.50000000
vt 0.50000000 0.50000000
vt 0.50000000 0.50000000
vt 0.50000000 0.50000000
vt 0.50000000 0.50000000
vt 0.50000000 0.50000000
vt 0.50000000 0.50000000
vt 0.50000000 0.50000000
vt 0.50000000 0.50000000
vt 0.50000000 0.50000000
vt 0.50000000 0.50000000
vt 0.50000000 0.50000000
vt 0.50000000 0.50000000
vt 0.50000000 0.50000000
vt 0.50000000 0.50000000
vt 0.50000000 0.50000000
vt 0.50000000 0.50000000
vt 0.50000000 0.50000000
vt 0.50000000 0.50000000
vt 0.50000000 0.50000000
vt 0.50000000 0.50000000
vt 0.50000000 0.50000000
vt 0.50000000 0.50000000
vt 0.50000000 0.50000000
vt 0.50000000 0.50000000
vt 0.50000000 0.50000000
vt 0.50000000 0.50000000
vt 0.50000000 0.50000000
vt 0.50000000 0.50000000
vt 0.50000000 0.50000000
vt 0.50000000 0.50000000
vt 0.50000000 0.50000000
vt 0.50000000 0.50000000
vt 0.50000000 0.50000000
vt 0.50000000 0.50000000
vt 0.50000000 0.50000000
vt 0.50000000 0.50000000
vt 0.50000000 0.50000000
vt 0.50000000 0.50000000
vt 0.50000000 0.50000000
vt 0.50000000 0.50000000
vt 0.50000000 0.50000000
vt 0.50000000 0.50000000
vt 0.50000000 0.50000000
vt 0.50000000 0.50000000
vt 0.50000000 0.50000000
vt 0.50000000 0.50000000
vt 0.50000000 0.50000000
vt 0.50000000 0.50000000
vt 0.50000000 0.50000000
vt 0.50000000 0.50000000
vt 0.50000000 0.50000000
vt 0.50000000 0.50000000
vt 0.50000000 0.50000000
vt 0.50000000 0.50000000
vt 0.50000000 0.50000000
vt 0.50000000 0.50000000
vt 0.50000000 0.50000000
vt 0.50000000 0.50000000
vt 0.50000000 0.50000000
vt 0.50000000 0.50000000
vt 0.50000000 0.50000000
vt 0.50000000 0.50000000
vt 0.50000000 0.50000000
vt 0.50000000 0.50000000
vt 0.50000000 0.50000000
vt 0.50000000 0.50000000
vt 0.50000000 0.50000000
vt 0.50000000 0.50000000
vt 0.50000000 0.50000000
vt 0.50000000 0.50000000
vt 0.50000000 0.50000000
vt 0.50000000 0.50000000
vt 0.50000000 0.50000000
vt 0.50000000 0.50000000
vt 0.50000000 0.50000000
vt 0.50000000 0.50000000
vt 0.50000000 0.50000000
vt 0.50000000 0.50000000
vt 0.50000000 0.50000000
vt 0.50000000 0.50000000
vt 0.50000000 0.50000000
vt 0.50000000 0.50000000
vt 0.50000000 0.50000000
vt 0.50000000 0.50000000
vt 0.50000000 0.50000000
vt 0.50000000 0.50000000
vt 0.50000000 0.50000000
vt 0.50000000 0.50000000
f 1/1 2/2 3/3
f 2/2 4/4 5/5
f 4/4 6/6 7/7
f 6/6 8/8 9/9
f 8/8 10/10 11/11
f 10/10 12/12 13/13
f 12/12 14/14 15/15
f 14/14 16/16 17/17
f 16/16 18/18 19/19
f 18/18 20/20 21/21
f 20/20 22/22 23/23
f 22/22 24/24 25/25
f 24/24 26/26 27/27
f 26/26 28/28 29/29
f 28/28 30/30 31/31
f 30/30 1/1 32/32
f 32/32 31/31 30/30
f 31/31 29/29 28/28
f 29/29 27/27 26/26
f 27/27 25/25 24/24
f 25/25 23/23 22/22
f 23/23 21/21 20/20
f 21/21 19/19 18/18
f 19/19 17/17 16/16
f 17/17 15/15 14/14
f 15/15 13/13 12/12
f 13/13 11/11 10/10
f 11/11 9/9 8/8
f 9/9 7/7 6/6
f 7/7 5/5 4/4
f 5/5 3/3 2/2
f 3/3 32/32 1/1
f 33/33 34/34 35/35
f 36/36 33/33 37/37
f 38/38 36/36 39/39
f 40/40 38/38 41/41
f 42/42 40/40 43/43
f 44/44 42/42 45/45
f 46/46 44/44 47/47
f 48/48 46/46 49/49
f 50/50 48/48 51/51
f 52/52 50/50 53/53
f 54/54 52/52 55/55
f 56/56 54/54 57/57
f 58/58 56/56 59/59
f 60/60 58/58 61/61
f 62/62 60/60 63/63
f 34/34 62/62 64/64
f 64/64 35/35 34/34
f 63/63 64/64 62/62
f 61/61 63/63 60/60
f 59/59 61/61 58/58
f 57/57 59/59 56/56
f 55/55 57/57 54/54
f 53/53 55/55 52/52
f 51/51 53/53 50/50
f 49/49 51/51 48/48
f 47/47 49/49 46/46
f 45/45 47/47 44/44
f 43/43 45/45 42/42
f 41/41 43/43 40/40
f 39/39 41/41 38/38
f 37/37 39/39 36/36
f 35/35 37/37 33/33
f 65/65 66/66 67/67
f 66/66 68/68 67/67
f 66/66 69/69 70/70
f 69/69 71/71 72/72
f 73/73 74/74 75/75
f 76/76 77/77 78/78
f 70/70 68/68 66/66
f 72/72 79/79 69/69
f 74/74 80/80 71/71
f 74/74 81/81 75/75
f 82/82 83/83 84/84
f 77/77 85/85 78/78
f 79/79 70/70 69/69
f 74/74 73/73 80/80
f 75/75 86/86 87/87
f 88/88 89/89 90/90
f 88/88 91/91 92/92
f 93/93 94/94 95/95
f 82/82 96/96 97/97
f 84/84 98/98 82/82
f 82/82 99/99 100/100
f 78/78 101/101 76/76
f 71/71 69/69 74/74
f 74/74 90/90 81/81
f 92/92 89/89 88/88
f 94/94 102/102 91/91
f 94/94 103/103 95/95
f 86/86 75/75 104/104
f 97/97 105/105 82/82
f 100/100 83/83 82/82
f 77/77 106/106 85/85
f 75/75 87/87 73/73
f 91/91 88/88 94/94
f 95/95 77/77 93/93
f 94/94 105/105 107/107
f 104/104 108/108 86/86
f 98/98 96/96 82/82
f 100/100 99/99 76/76
f 90/90 74/74 88/88
f 107/107 103/103 94/94
f 104/104 109/109 108/108
f 101/101 100/100 76/76
f 77/77 95/95 110/110
f 82/82 111/111 112/112
f 82/82 113/113 114/114
f 115/115 104/104 113/113
f 82/82 116/116 117/117
f 118/118 109/109 119/119
f 120/120 121/121 122/122
f 120/120 123/123 124/124
f 93/93 102/102 94/94
f 105/105 125/125 126/126
f 109/109 127/127 108/108
f 110/110 106/106 77/77
f 114/114 111/111 82/82
f 117/117 113/113 82/82
f 119/119 128/128 118/118
f 122/122 82/82 120/120
f 124/124 129/129 120/120
f 130/130 123/123 131/131
f 126/126 107/107 105/105
f 109/109 118/118 127/127
f 112/112 99/99 82/82
f 82/82 132/132 116/116
f 119/119 133/133 128/128
f 133/133 134/134 135/135
f 122/122 136/136 82/82
f 123/123 137/137 124/124
f 131/131 138/138 139/139
f 104/104 115/115 109/109
f 113/113 117/117 115/115
f 135/135 128/128 133/133
f 129/129 121/121 120/120
f 131/131 139/139 130/130
f 97/97 125/125 105/105
f 133/133 67/67 134/134
f 130/130 137/137 123/123
f 131/131 119/119 140/140
f 119/119 131/131 133/133
f 140/140 138/138 131/131
f 136/136 132/132 82/82
f 67/67 133/133 65/65
f 141/141 142/142 143/143
f 144/144 141/141 145/145
f 146/146 144/144 147/147
f 148/148 146/146 149/149
f 150/150 148/148 151/151
f 152/152 150/150 153/153
f 154/154 152/152 155/155
f 156/156 154/154 157/157
f 158/158 156/156 159/159
f 160/160 158/158 161/161
f 162/162 160/160 163/163
f 164/164 162/162 165/165
f 166/166 164/164 167/167
f 168/168 166/166 169/169
f 170/170 168/168 171/171
f 142/142 170/170 172/172
f 172/172 143/143 142/142
f 171/171 172/172 170/170
f 169/169 171/171 168/168
f 167/167 169/169 166/166
f 165/165 167/167 164/164
f 163/163 165/165 162/162
f 161/161 163/163 160/160
f 159/159 161/161 158/158
f 157/157 159/159 156/156
f 155/155 157/157 154/154
f 153/153 155/155 152/152
f 151/151 153/153 150/150
f 149/149 151/151 148/148
f 147/147 149/149 146/146
f 145/145 147/147 144/144
f 143/143 145/145 141/141
f 173/173 174/174 175/175
f 174/174 176/176 177/177
f 176/176 178/178 179/179
f 178/178 180/180 181/181
f 180/180 182/182 183/183
f 182/182 184/184 185/185
f 184/184 186/186 187/187
f 186/186 188/188 189/189
f 188/188 190/190 191/191
f 190/190 192/192 193/193
f 192/192 194/194 195/195
f 194/194 196/196 197/197
f 196/196 198/198 199/199
f 198/198 200/200 201/201
f 200/200 202/202 203/203
f 202/202 173/173 204/204
f 204/204 203/203 202/202
f 203/203 201/201 200/200
f 201/201 199/199 198/198
f 199/199 197/197 196/196
f 197/197 195/195 194/194
f 195/195 193/193 192/192
f 193/193 191/191 190/190
f 191/191 189/189 188/188
f 189/189 187/187 186/186
f 187/187 185/185 184/184
f 185/185 183/183 182/182
f 183/183 181/181 180/180
f 181/181 179/179 178/178
f 179/179 177/177 176/176
f 177/177 175/175 174/174
f 175/175 204/204 173/173
f 205/205 206/206 207/207
f 208/208 209/209 210/210
f 206/206 211/211 207/207
f 210/210 206/206 208/208
f 205/205 212/212 213/213
f 210/210 211/211 206/206
f 214/214 215/215 216/216
f 217/217 218/218 219/219
f 220/220 221/221 218/218
f 207/207 212/212 205/205
f 216/216 208/208 214/214
f 214/214 222/222 223/223
f 224/224 219/219 222/222
f 218/218 217/217 220/220
f 220/220 225/225 226/226
f 227/227 205/205 228/228
f 216/216 209/209 208/208
f 222/222 214/214 224/224
f 226/226 221/221 220/220
f 213/213 228/228 205/205
f 219/219 224/224 217/217
f 223/223 215/215 214/214
f 225/225 227/227 229/229
f 229/229 226/226 225/225
f 228/228 229/229 227/227
f 230/230 231/231 232/232
f 233/233 230/230 234/234
f 235/235 233/233 236/236
f 237/237 235/235 238/238
f 238/238 239/239 237/237
f 236/236 238/238 235/235
f 234/234 236/236 233/233
f 232/232 234/234 230/230
f 240/240 241/241 242/242
f 242/242 243/243 240/240
f 244/244 245/245 246/246
f 246/246 247/247 244/244
f 248/248 249/249 250/250
f 251/251 252/252 253/253
f 253/253 252/252 248/248
f 254/254 255/255 256/256
f 257/257 255/255 258/258
f 250/250 253/253 248/248
f 259/259 253/253 254/254
f 258/258 260/260 257/257
f 261/261 256/256 255/255
f 256/256 259/259 254/254
f 255/255 262/262 261/261
f 257/257 262/262 255/255
f 253/253 259/259 251/251
f 263/263 264/264 265/265
f 266/266 267/267 268/268
f 265/265 269/269 263/263
f 263/263 270/270 271/271
f 268/268 272/272 266/266
f 263/263 273/273 264/264
f 263/263 274/274 270/270
f 275/275 266/266 276/276
f 266/266 275/275 267/267
f 271/271 273/273 263/263
f 272/272 277/277 266/266
f 278/278 279/279 280/280
f 281/281 279/279 278/278
f 282/282 278/278 283/283
f 269/269 284/284 263/263
f 285/285 286/286 275/275
f 278/278 287/287 281/281
f 284/284 282/282 263/263
f 285/285 288/288 286/286
f 281/281 289/289 290/290
f 283/283 263/263 282/282
f 291/291 288/288 292/292
f 276/276 285/285 275/275
f 293/293 294/294 295/295
f 296/296 297/297 298/298
f 281/281 299/299 289/289
f 280/280 283/283 278/278
f 300/300 281/281 297/297
f 285/285 292/292 288/288
f 293/293 301/301 294/294
f 298/298 302/302 296/296
f 287/287 299/299 281/281
f 292/292 300/300 291/291
f 295/295 288/288 293/293
f 291/291 303/303 293/293
f 291/291 297/297 296/296
f 297/297 304/304 298/298
f 297/297 291/291 300/300
f 293/293 288/288 291/291
f 302/302 305/305 296/296
f 295/295 306/306 288/288
f 290/290 297/297 281/281
f 296/296 307/307 291/291
f 308/308 309/309 310/310
f 311/311 312/312 313/313
f 314/314 315/315 316/316
f 313/313 312/312 316/316
f 316/316 315/315 313/313
f 317/317 310/310 318/318
f 309/309 319/319 318/318
f 318/318 310/310 309/309
f 318/318 311/311 317/317
f 316/316 320/320 314/314
f 313/313 317/317 311/311
f 310/310 321/321 308/308
f 322/322 323/323 324/324
f 324/324 325/325 322/322
f 326/326 327/327 328/328
f 329/329 330/330 328/328
f 328/328 327/327 329/329
f 328/328 331/331 326/326
f 332/332 333/333 334/334
f 334/334 335/335 332/332
f 336/336 337/337 338/338
f 338/338 339/339 336/336
f 340/340 341/341 342/342
f 342/342 343/343 340/340
f 344/344 345/345 346/346
f 347/347 348/348 346/346
f 346/346 345/345 347/347
f 346/346 349/349 344/344
f 350/350 351/351 352/352
f 353/353 354/354 355/355
f 356/356 357/357 355/355
f 355/355 354/354 356/356
f 358/358 359/359 360/360
f 350/350 361/361 362/362
f 360/360 359/359 362/362
f 362/362 361/361 360/360
f 362/362 363/363 350/350
f 360/360 353/353 358/358
f 355/355 358/358 353/353
f 352/352 361/361 350/350
f 364/364 365/365 366/366
f 366/366 367/367 364/364
f 368/368 369/369 370/370
f 371/371 372/372 373/373
f 370/370 372/372 368/368
f 368/368 374/374 375/375
f 372/372 376/376 373/373
f 375/375 369/369 368/368
f 377/377 378/378 374/374
f 379/379 380/380 378/378
f 381/381 382/382 380/380
f 381/381 383/383 384/384
f 385/385 386/386 387/387
f 370/370 376/376 372/372
f 378/378 377/377 379/379
f 384/384 382/382 381/381
f 383/383 385/385 388/388
f 386/386 389/389 387/387
f 374/374 368/368 377/377
f 388/388 384/384 383/383
f 386/386 390/390 389/389
f 373/373 391/391 371/371
f 387/387 388/388 385/385
f 380/380 379/379 381/381
f 386/386 371/371 392/392
f 392/392 390/390 386/386
f 391/391 392/392 371/371
f 393/393 394/394 395/395
f 396/396 393/393 397/397
f 398/398 396/396 399/399
f 400/400 398/398 401/401
f 402/402 400/400 403/403
f 404/404 402/402 405/405
f 406/406 404/404 407/407
f 408/408 406/406 409/409
f 410/410 408/408 411/411
f 412/412 410/410 413/413
f 414/414 412/412 415/415
f 416/416 414/414 417/417
f 418/418 416/416 419/419
f 420/420 418/418 421/421
f 422/422 420/420 423/423
f 394/394 422/422 424/424
f 424/424 395/395 394/394
f 423/423 424/424 422/422
f 421/421 423/423 420/420
f 419/419 421/421 418/418
f 417/417 419/419 416/416
f 415/415 417/417 414/414
f 413/413 415/415 412/412
f 411/411 413/413 410/410
f 409/409 411/411 408/408
f 407/407 409/409 406/406
f 405/405 407/407 404/404
f 403/403 405/405 402/402
f 401/401 403/403 400/400
f 399/399 401/401 398/398
f 397/397 399/399 396/396
f 395/395 397/397 393/393
f 425/425 426/426 427/427
f 426/426 428/428 429/429
f 428/428 430/430 431/431
f 430/430 432/432 433/433
f 432/432 434/434 435/435
f 434/434 436/436 437/437
f 436/436 438/438 439/439
f 438/438 440/440 441/441
f 440/440 442/442 443/443
f 442/442 444/444 445/445
f 444/444 446/446 447/447
f 446/446 448/448 449/449
f 448/448 450/450 451/451
f 450/450 452/452 453/453
f 452/452 454/454 455/455
f 454/454 425/425 456/456
f 456/456 455/455 454/454
f 455/455 453/453 452/452
f 453/453 451/451 450/450
f 451/451 449/449 448/448
f 449/449 447/447 446/446
f 447/447 445/445 444/444
f 445/445 443/443 442/442
f 443/443 441/441 440/440
f 441/441 439/439 438/438
f 439/439 437/437 436/436
f 437/437 435/435 434/434
f 435/435 433/433 432/432
f 433/433 431/431 430/430
f 431/431 429/429 428/428
f 429/429 427/427 426/426
f 427/427 456/456 425/425
f 457/457 458/458 459/459
f 460/460 457/457 461/461
f 462/462 460/460 463/463
f 464/464 462/462 465/465
f 466/466 464/464 467/467
f 468/468 466/466 469/469
f 470/470 468/468 471/471
f 472/472 470/470 473/473
f 474/474 472/472 475/475
f 476/476 474/474 477/477
f 478/478 476/476 479/479
f 480/480 478/478 481/481
f 482/482 480/480 483/483
f 484/484 482/482 485/485
f 486/486 484/484 487/487
f 458/458 486/486 488/488
f 488/488 459/459 458/458
f 487/487 488/488 486/486
f 485/485 487/487 484/484
f 483/483 485/485 482/482
f 481/481 483/483 480/480
f 479/479 481/481 478/478
f 477/477 479/479 476/476
f 475/475 477/477 474/474
f 473/473 475/475 472/472
f 471/471 473/473 470/470
f 469/469 471/471 468/468
f 467/467 469/469 466/466
f 465/465 467/467 464/464
f 463/463 465/465 462/462
f 461/461 463/463 460/460
f 459/459 461/461 457/457
f 489/489 490/490 491/491
f 490/490 492/492 493/493
f 492/492 494/494 495/495
f 494/494 496/496 497/497
f 496/496 498/498 499/499
f 498/498 500/500 501/501
f 500/500 502/502 503/503
f 502/502 504/504 505/505
f 504/504 506/506 507/507
f 506/506 508/508 509/509
f 508/508 510/510 511/511
f 510/510 512/512 513/513
f 512/512 514/514 515/515
f 514/514 516/516 517/517
f 516/516 518/518 519/519
f 518/518 489/489 520/520
f 520/520 519/519 518/518
f 519/519 517/517 516/516
f 517/517 515/515 514/514
f 515/515 513/513 512/512
f 513/513 511/511 510/510
f 511/511 509/509 508/508
f 509/509 507/507 506/506
f 507/507 505/505 504/504
f 505/505 503/503 502/502
f 503/503 501/501 500/500
f 501/501 499/499 498/498
f 499/499 497/497 496/496
f 497/497 495/495 494/494
f 495/495 493/493 492/492
f 493/493 491/491 490/490
f 491/491 520/520 489/489
f 521/521 522/522 523/523
f 523/523 524/524 521/521
f 525/525 526/526 527/527
f 527/527 528/528 525/525
f 529/529 530/530 531/531
f 532/532 533/533 530/530
f 530/530 529/529 532/532
f 532/532 534/534 535/535
f 534/534 536/536 537/537
f 536/536 538/538 539/539
f 538/538 540/540 541/541
f 542/542 531/531 543/543
f 535/535 533/533 532/532
f 539/539 537/537 536/536
f 541/541 544/544 538/538
f 540/540 545/545 546/546
f 543/543 547/547 542/542
f 537/537 535/535 534/534
f 544/544 548/548 538/538
f 546/546 549/549 540/540
f 545/545 550/550 551/551
f 547/547 552/552 550/550
f 543/543 553/553 547/547
f 548/548 539/539 538/538
f 551/551 546/546 545/545
f 553/553 552/552 547/547
f 549/549 541/541 540/540
f 531/531 542/542 529/529
f 550/550 545/545 547/547
f 554/554 555/555 556/556
f 557/557 558/558 556/556
f 559/559 557/557 555/555
f 556/556 555/555 557/557
f 556/556 560/560 554/554
f 555/555 561/561 559/559
f 562/562 563/563 564/564
f 565/565 564/564 563/563
f 563/563 566/566 565/565
f 567/567 568/568 563/563
f 563/563 562/562 567/567
f 564/564 569/569 562/562
f 570/570 571/571 572/572
f 572/572 573/573 570/570
f 574/574 575/575 576/576
f 577/577 578/578 576/576
f 579/579 577/577 575/575
f 576/576 575/575 577/577
f 576/576 580/580 574/574
f 575/575 581/581 579/579
f 582/582 583/583 584/584
f 584/584 585/585 582/582
f 586/586 587/587 588/588
f 587/587 589/589 588/588
f 587/587 590/590 591/591
f 592/592 593/593 594/594
f 593/593 586/586 595/595
f 587/587 596/596 589/589
f 590/590 597/597 591/591
f 590/590 598/598 599/599
f 598/598 600/600 601/601
f 602/602 603/603 600/600
f 604/604 605/605 606/606
f 592/592 607/607 608/608
f 595/595 594/594 593/593
f 591/591 596/596 587/587
f 601/601 599/599 598/598
f 602/602 609/609 603/603
f 606/606 602/602 604/604
f 610/610 608/608 605/605
f 594/594 607/607 592/592
f 599/599 597/597 590/590
f 606/606 609/609 602/602
f 608/608 610/610 592/592
f 600/600 598/598 602/602
f 588/588 595/595 586/586
f 605/605 604/604 610/610
f 611/611 612/612 613/613
f 613/613 614/614 611/611
f 614/614 615/615 611/611
f 615/615 616/616 611/611
f 616/616 617/617 611/611
f 617/617 618/618 611/611
f 618/618 619/619 611/611
f 619/619 620/620 611/611
f 620/620 621/621 611/611
f 621/621 622/622 611/611
f 622/622 623/623 611/611
f 623/623 624/624 611/611
f 624/624 625/625 611/611
f 625/625 626/626 611/611
f 626/626 627/627 611/611
f 627/627 612/612 611/611
f 628/628 629/629 630/630
f 631/631 628/628 632/632
f 633/633 631/631 634/634
f 635/635 633/633 636/636
f 637/637 635/635 638/638
f 639/639 637/637 640/640
f 641/641 639/639 642/642
f 643/643 641/641 644/644
f 645/645 643/643 646/646
f 647/647 645/645 648/648
f 649/649 647/647 650/650
f 651/651 649/649 652/652
f 653/653 651/651 654/654
f 655/655 653/653 656/656
f 657/657 655/655 658/658
f 629/629 657/657 659/659
f 659/659 630/630 629/629
f 658/658 659/659 657/657
f 656/656 658/658 655/655
f 654/654 656/656 653/653
f 652/652 654/654 651/651
f 650/650 652/652 649/649
f 648/648 650/650 647/647
f 646/646 648/648 645/645
f 644/644 646/646 643/643
f 642/642 644/644 641/641
f 640/640 642/642 639/639
f 638/638 640/640 637/637
f 636/636 638/638 635/635
f 634/634 636/636 633/633
f 632/632 634/634 631/631
f 630/630 632/632 628/628
f 660/660 661/661 662/662
f 662/662 663/663 660/660
f 664/664 665/665 666/666
f 666/666 667/667 664/664
f 668/668 669/669 670/670
f 671/671 668/668 672/672
f 673/673 671/671 674/674
f 675/675 673/673 676/676
f 676/676 677/677 675/675
f 674/674 676/676 673/673
f 672/672 674/674 671/671
f 670/670 672/672 668/668
f 678/678 679/679 680/680
f 680/680 681/681 678/678
f 682/682 683/683 684/684
f 684/684 685/685 682/682
f 686/686 687/687 688/688
f 689/689 686/686 690/690
f 691/691 689/689 692/692
f 693/693 691/691 694/694
f 694/694 695/695 693/693
f 692/692 694/694 691/691
f 690/690 692/692 689/689
f 688/688 690/690 686/686
f 696/696 697/697 698/698
f 698/698 699/699 696/696
f 700/700 701/701 702/702
f 702/702 703/703 700/700
f 704/704 705/705 706/706
f 707/707 704/704 708/708
f 709/709 707/707 710/710
f 711/711 709/709 712/712
f 713/713 711/711 714/714
f 715/715 713/713 716/716
f 717/717 715/715 718/718
f 719/719 717/717 720/720
f 721/721 719/719 722/722
f 723/723 721/721 724/724
f 725/725 723/723 726/726
f 726/726 727/727 725/725
f 724/724 726/726 723/723
f 722/722 724/724 721/721
f 720/720 722/722 719/719
f 718/718 720/720 717/717
f 716/716 718/718 715/715
f 714/714 716/716 713/713
f 712/712 714/714 711/711
f 710/710 712/712 709/709
f 708/708 710/710 707/707
f 706/706 708/708 704/704
f 728/728 729/729 730/730
f 730/730 731/731 728/728
f 732/732 733/733 734/734
f 735/735 732/732 736/736
f 737/737 735/735 738/738
f 739/739 737/737 740/740
f 741/741 739/739 742/742
f 743/743 741/741 744/744
f 745/745 743/743 746/746
f 747/747 745/745 748/748
f 749/749 747/747 750/750
f 750/750 751/751 749/749
f 748/748 750/750 747/747
f 746/746 748/748 745/745
f 744/744 746/746 743/743
f 742/742 744/744 741/741
f 740/740 742/742 739/739
f 738/738 740/740 737/737
f 736/736 738/738 735/735
f 734/734 736/736 732/732
f 752/752 753/753 754/754
f 754/754 755/755 752/752
f 756/756 757/757 758/758
f 758/758 759/759 756/756
f 760/760 761/761 762/762
f 763/763 762/762 764/764
f 765/765 764/764 766/766
f 767/767 766/766 768/768
f 769/769 768/768 770/770
f 770/770 771/771 769/769
f 768/768 769/769 767/767
f 766/766 767/767 765/765
f 764/764 765/765 763/763
f 762/762 763/763 760/760
f 772/772 773/773 774/774
f 775/775 774/774 776/776
f 777/777 776/776 778/778
f 779/779 778/778 780/780
f 781/781 780/780 782/782
f 782/782 783/783 781/781
f 780/780 781/781 779/779
f 778/778 779/779 777/777
f 776/776 777/777 775/775
f 774/774 775/775 772/772
f 784/784 785/785 786/786
f 787/787 784/784 788/788
f 789/789 787/787 790/790
f 791/791 789/789 792/792
f 792/792 793/793 791/791
f 790/790 792/792 789/789
f 788/788 790/790 787/787
f 786/786 788/788 784/784
f 794/794 795/795 796/796
f 796/796 797/797 794/794
f 798/798 799/799 800/800
f 801/801 798/798 802/802
f 803/803 801/801 804/804
f 805/805 803/803 806/806
f 806/806 807/807 805/805
f 804/804 806/806 803/803
f 802/802 804/804 801/801
f 800/800 802/802 798/798
f 808/808 809/809 810/810
f 810/810 811/811 808/808
f 812/812 813/813 814/814
f 815/815 812/812 816/816
f 817/817 815/815 818/818
f 819/819 817/817 820/820
f 820/820 821/821 819/819
f 818/818 820/820 817/817
f 816/816 818/818 815/815
f 814/814 816/816 812/812
f 822/822 823/823 824/824
f 824/824 825/825 822/822
f 826/826 827/827 828/828
f 829/829 826/826 830/830
f 831/831 829/829 832/832
f 833/833 831/831 834/834
f 834/834 835/835 833/833
f 832/832 834/834 831/831
f 830/830 832/832 829/829
f 828/828 830/830 826/826
f 836/836 837/837 838/838
f 839/839 840/840 836/836
f 839/839 841/841 842/842
f 843/843 841/841 844/844
f 845/845 846/846 847/847
f 842/842 840/840 839/839
f 844/844 848/848 843/843
f 849/849 850/850 845/845
f 849/849 851/851 852/852
f 853/853 851/851 854/854
f 843/843 842/842 841/841
f 849/849 841/841 839/839
f 852/852 850/850 849/849
f 854/854 855/855 853/853
f 839/839 851/851 849/849
f 853/853 852/852 851/851
f 847/847 849/849 845/845
f 838/838 839/839 836/836
f 856/856 857/857 858/858
f 858/858 859/859 856/856
f 860/860 861/861 862/862
f 862/862 863/863 860/860
f 864/864 865/865 866/866
f 867/867 868/868 860/860
f 869/869 868/868 870/870
f 866/866 871/871 864/864
f 863/863 867/867 860/860
f 870/870 872/872 873/873
f 873/873 874/874 875/875
f 876/876 877/877 878/878
f 879/879 880/880 864/864
f 870/870 873/873 869/869
f 873/873 881/881 874/874
f 882/882 883/883 884/884
f 878/878 885/885 876/876
f 886/886 887/887 888/888
f 889/889 890/890 891/891
f 892/892 893/893 894/894
f 895/895 879/879 896/896
f 879/879 895/895 880/880
f 875/875 869/869 873/873
f 870/870 897/897 898/898
f 878/878 882/882 885/885
f 887/887 899/899 888/888
f 894/894 889/889 892/892
f 900/900 901/901 893/893
f 880/880 895/895 902/902
f 871/871 879/879 864/864
f 885/885 903/903 904/904
f 885/885 884/884 905/905
f 898/898 872/872 870/870
f 906/906 898/898 897/897
f 884/884 885/885 882/882
f 907/907 908/908 909/909
f 876/876 885/885 908/908
f 907/907 910/910 911/911
f 888/888 912/912 886/886
f 913/913 914/914 886/886
f 893/893 892/892 900/900
f 915/915 896/896 916/916
f 896/896 915/915 895/895
f 905/905 903/903 885/885
f 897/897 878/878 906/906
f 882/882 917/917 883/883
f 908/908 907/907 876/876
f 911/911 918/918 907/907
f 886/886 912/912 913/913
f 919/919 920/920 899/899
f 900/900 921/921 901/901
f 902/902 922/922 880/880
f 904/904 923/923 885/885
f 877/877 906/906 878/878
f 911/911 890/890 918/918
f 890/890 924/924 925/925
f 887/887 926/926 899/899
f 899/899 927/927 919/919
f 900/900 928/928 921/921
f 916/916 900/900 915/915
f 867/867 870/870 868/868
f 925/925 918/918 890/890
f 929/929 930/930 931/931
f 913/913 932/932 914/914
f 927/927 929/929 919/919
f 913/913 933/933 934/934
f 916/916 928/928 900/900
f 909/909 910/910 907/907
f 929/929 927/927 930/930
f 920/920 888/888 899/899
f 934/934 935/935 913/913
f 933/933 936/936 937/937
f 937/937 936/936 938/938
f 939/939 940/940 941/941
f 942/942 943/943 944/944
f 891/891 892/892 889/889
f 890/890 889/889 924/924
f 926/926 885/885 899/899
f 929/929 945/945 946/946
f 933/933 947/947 934/934
f 938/938 948/948 937/937
f 949/949 950/950 951/951
f 950/950 944/944 943/943
f 941/941 952/952 939/939
f 944/944 939/939 942/942
f 923/923 899/899 885/885
f 946/946 919/919 929/929
f 935/935 953/953 913/913
f 948/948 938/938 954/954
f 937/937 955/955 933/933
f 917/917 882/882 949/949
f 943/943 956/956 950/950
f 939/939 957/957 942/942
f 929/929 958/958 942/942
f 931/931 958/958 929/929
f 933/933 959/959 947/947
f 948/948 960/960 961/961
f 955/955 959/959 933/933
f 893/893 962/962 963/963
f 962/962 893/893 881/881
f 956/956 951/951 950/950
f 942/942 957/957 929/929
f 953/953 932/932 913/913
f 954/954 960/960 948/948
f 963/963 964/964 893/893
f 881/881 873/873 965/965
f 952/952 957/957 939/939
f 961/961 892/892 948/948
f 881/881 965/965 962/962
f 891/891 948/948 892/892
f 951/951 917/917 949/949
f 964/964 894/894 893/893
f 966/966 967/967 968/968
f 969/969 966/966 970/970
f 971/971 969/969 972/972
f 973/973 971/971 974/974
f 975/975 973/973 976/976
f 977/977 975/975 978/978
f 979/979 977/977 980/980
f 981/981 979/979 982/982
f 983/983 981/981 984/984
f 985/985 983/983 986/986
f 987/987 985/985 988/988
f 989/989 987/987 990/990
f 991/991 989/989 992/992
f 993/993 991/991 994/994
f 995/995 993/993 996/996
f 967/967 995/995 997/997
f 997/997 968/968 967/967
f 996/996 997/997 995/995
f 994/994 996/996 993/993
f 992/992 994/994 991/991
f 990/990 992/992 989/989
f 988/988 990/990 987/987
f 986/986 988/988 985/985
f 984/984 986/986 983/983
f 982/982 984/984 981/981
f 980/980 982/982 979/979
f 978/978 980/980 977/977
f 976/976 978/978 975/975
f 974/974 976/976 973/973
f 972/972 974/974 971/971
f 970/970 972/972 969/969
f 968/968 970/970 966/966
f 998/998 999/999 1000/1000
f 1000/1000 1001/1001 998/998
f 1001/1001 1002/1002 998/998
f 1002/1002 1003/1003 998/998
f 1003/1003 1004/1004 998/998
f 1004/1004 1005/1005 998/998
f 1005/1005 1006/1006 998/998
f 1006/1006 1007/1007 998/998
f 1007/1007 1008/1008 998/998
f 1008/1008 1009/1009 998/998
f 1009/1009 1010/1010 998/998
f 1010/1010 1011/1011 998/998
f 1011/1011 1012/1012 998/998
f 1012/1012 1013/1013 998/998
f 1013/1013 1014/1014 998/998
f 1014/1014 999/999 998/998

