# https://github.com/mikedh/trimesh
mtllib material.mtl
usemtl 0.023529_0.298039_0.568627_0.000000_0.000000
v -0.01050000 -0.16538750 0.19447500
v -0.04450000 -0.16538750 0.19447500
v -0.04450000 -0.16538750 0.17630000
v -0.01050000 -0.16538750 0.17630000
v -0.01050000 -0.14221250 0.19447500
v -0.04450000 -0.14221250 0.19447500
v -0.04450000 -0.14221250 0.17630000
v -0.01050000 -0.14221250 0.17630000
v -0.04564805 -0.16561586 0.17630000
v -0.04450000 -0.16538750 0.17630000
v -0.04450000 -0.16538750 0.19447500
v -0.04662132 -0.16626617 0.17630000
v -0.04564805 -0.16561586 0.19447500
v -0.04727164 -0.16723944 0.17630000
v -0.04662132 -0.16626617 0.19447500
v -0.04750000 -0.16838750 0.17630000
v -0.04727164 -0.16723944 0.19447500
v -0.04750000 -0.16838750 0.19447500
v -0.04750000 -0.16838750 0.19447500
v -0.04750000 -0.20238750 0.19447500
v -0.04750000 -0.20238750 0.17630000
v -0.04750000 -0.16838750 0.17630000
v -0.04727164 -0.20353556 0.17630000
v -0.04750000 -0.20238750 0.17630000
v -0.04750000 -0.20238750 0.19447500
v -0.04662132 -0.20450883 0.17630000
v -0.04727164 -0.20353556 0.19447500
v -0.04564805 -0.20515914 0.17630000
v -0.04662132 -0.20450883 0.19447500
v -0.04450000 -0.20538750 0.17630000
v -0.04564805 -0.20515914 0.19447500
v -0.04450000 -0.20538750 0.19447500
v -0.04450000 -0.20538750 0.19447500
v -0.01050000 -0.20538750 0.19447500
v -0.01050000 -0.20538750 0.17630000
v -0.04450000 -0.20538750 0.17630000
v -0.00935195 -0.20515914 0.17630000
v -0.01050000 -0.20538750 0.17630000
v -0.01050000 -0.20538750 0.19447500
v -0.00837868 -0.20450883 0.17630000
v -0.00935195 -0.20515914 0.19447500
v -0.00772836 -0.20353556 0.17630000
v -0.00837868 -0.20450883 0.19447500
v -0.00750000 -0.20238750 0.17630000
v -0.00772836 -0.20353556 0.19447500
v -0.00750000 -0.20238750 0.19447500
v -0.00750000 -0.20238750 0.19447500
v -0.00750000 -0.16838750 0.19447500
v -0.00750000 -0.16838750 0.17630000
v -0.00750000 -0.20238750 0.17630000
v -0.00772836 -0.16723944 0.17630000
v -0.00750000 -0.16838750 0.17630000
v -0.00750000 -0.16838750 0.19447500
v -0.00837868 -0.16626617 0.17630000
v -0.00772836 -0.16723944 0.19447500
v -0.00935195 -0.16561586 0.17630000
v -0.00837868 -0.16626617 0.19447500
v -0.01050000 -0.16538750 0.17630000
v -0.00935195 -0.16561586 0.19447500
v -0.01050000 -0.16538750 0.19447500
v -0.04564805 -0.14244086 0.17630000
v -0.04450000 -0.14221250 0.17630000
v -0.04450000 -0.14221250 0.19447500
v -0.04662132 -0.14309119 0.17630000
v -0.04564805 -0.14244086 0.19447500
v -0.04727164 -0.14406446 0.17630000
v -0.04662132 -0.14309119 0.19447500
v -0.04750000 -0.14521250 0.17630000
v -0.04727164 -0.14406446 0.19447500
v -0.04750000 -0.14521250 0.19447500
v -0.04750000 -0.14521250 0.19447500
v -0.04750000 -0.15921250 0.19447500
v -0.04750000 -0.15921250 0.17630000
v -0.04750000 -0.14521250 0.17630000
v -0.04727164 -0.16036054 0.17630000
v -0.04750000 -0.15921250 0.17630000
v -0.04750000 -0.15921250 0.19447500
v -0.04662132 -0.16133381 0.17630000
v -0.04727164 -0.16036054 0.19447500
v -0.04564805 -0.16198415 0.17630000
v -0.04662132 -0.16133381 0.19447500
v -0.04450000 -0.16221251 0.17630000
v -0.04564805 -0.16198415 0.19447500
v -0.04450000 -0.16221251 0.19447500
v -0.04450000 -0.16221251 0.19447500
v -0.01050000 -0.16221251 0.19447500
v -0.01050000 -0.16221251 0.17630000
v -0.04450000 -0.16221251 0.17630000
v -0.00935195 -0.16198415 0.17630000
v -0.01050000 -0.16221251 0.17630000
v -0.01050000 -0.16221251 0.19447500
v -0.00837868 -0.16133381 0.17630000
v -0.00935195 -0.16198415 0.19447500
v -0.00772836 -0.16036054 0.17630000
v -0.00837868 -0.16133381 0.19447500
v -0.00750000 -0.15921250 0.17630000
v -0.00772836 -0.16036054 0.19447500
v -0.00750000 -0.15921250 0.19447500
v -0.00750000 -0.15921250 0.19447500
v -0.00750000 -0.14521250 0.19447500
v -0.00750000 -0.14521250 0.17630000
v -0.00750000 -0.15921250 0.17630000
v -0.00772836 -0.14406446 0.17630000
v -0.00750000 -0.14521250 0.17630000
v -0.00750000 -0.14521250 0.19447500
v -0.00837868 -0.14309119 0.17630000
v -0.00772836 -0.14406446 0.19447500
v -0.00935195 -0.14244086 0.17630000
v -0.00837868 -0.14309119 0.19447500
v -0.01050000 -0.14221250 0.17630000
v -0.00935195 -0.14244086 0.19447500
v -0.01050000 -0.14221250 0.19447500
v -0.00813693 -0.20809245 0.17630000
v -0.01050000 -0.20856249 0.17630000
v -0.01050000 -0.20538750 0.17630000
v -0.04450000 -0.20856249 0.17630000
v -0.05067500 -0.14521250 0.17630000
v -0.04750000 -0.14521250 0.17630000
v -0.04750000 -0.15921250 0.17630000
v -0.04450000 -0.20538750 0.17630000
v -0.04686307 -0.20809245 0.17630000
v -0.04564805 -0.20515914 0.17630000
v -0.05067500 -0.20238750 0.17630000
v -0.04727164 -0.16036054 0.17630000
v -0.04750000 -0.16838750 0.17630000
v -0.05020496 -0.14284943 0.17630000
v -0.04727164 -0.14406446 0.17630000
v -0.00935195 -0.16561586 0.17630000
v -0.01050000 -0.16538750 0.17630000
v -0.01050000 -0.16221251 0.17630000
v -0.04886638 -0.20675388 0.17630000
v -0.04662132 -0.20450883 0.17630000
v -0.05020496 -0.20475057 0.17630000
v -0.04750000 -0.20238750 0.17630000
v -0.04662132 -0.16133381 0.17630000
v -0.04886638 -0.14084612 0.17630000
v -0.04662132 -0.14309119 0.17630000
v -0.00479504 -0.14284943 0.17630000
v -0.00432500 -0.14521250 0.17630000
v -0.00750000 -0.14521250 0.17630000
v -0.04450000 -0.16221251 0.17630000
v -0.00613362 -0.20675388 0.17630000
v -0.00935195 -0.20515914 0.17630000
v -0.00750000 -0.15921250 0.17630000
v -0.00837868 -0.16626617 0.17630000
v -0.00772836 -0.16036054 0.17630000
v -0.00935195 -0.16198415 0.17630000
v -0.00432500 -0.20238750 0.17630000
v -0.00750000 -0.20238750 0.17630000
v -0.00750000 -0.16838750 0.17630000
v -0.04727164 -0.20353556 0.17630000
v -0.04564805 -0.16198415 0.17630000
v -0.04727164 -0.16723944 0.17630000
v -0.00772836 -0.14406446 0.17630000
v -0.00837868 -0.14309119 0.17630000
v -0.00479504 -0.20475057 0.17630000
v -0.00772836 -0.20353556 0.17630000
v -0.00813693 -0.13950755 0.17630000
v -0.00935195 -0.14244086 0.17630000
v -0.01050000 -0.14221250 0.17630000
v -0.00613362 -0.14084612 0.17630000
v -0.00837868 -0.16133381 0.17630000
v -0.00837868 -0.20450883 0.17630000
v -0.04450000 -0.16538750 0.17630000
v -0.00772836 -0.16723944 0.17630000
v -0.04686307 -0.13950755 0.17630000
v -0.04450000 -0.13903750 0.17630000
v -0.04450000 -0.14221250 0.17630000
v -0.04564805 -0.14244086 0.17630000
v -0.01050000 -0.13903750 0.17630000
v -0.04564805 -0.16561586 0.17630000
v -0.04662132 -0.16626617 0.17630000
v -0.05415000 -0.21590000 0.19447500
v -0.05415000 -0.21879999 0.19447500
v 0.00000000 -0.21879999 0.19447500
v 0.00000000 -0.21590000 0.19447500
v 0.05415000 -0.21879999 0.19447500
v -0.06092941 -0.21195056 0.19447500
v -0.06129792 -0.21250208 0.19447500
v -0.05415000 -0.20749375 0.19447500
v -0.06080000 -0.21130000 0.19447500
v -0.06184944 -0.20972940 0.19447500
v -0.06129792 -0.21009792 0.19447500
v -0.06092941 -0.21064943 0.19447500
v -0.06710000 -0.21590000 0.19447500
v -0.06407060 -0.21195056 0.19447500
v -0.06420000 -0.21130000 0.19447500
v -0.06184944 -0.21287060 0.19447500
v -0.06250000 -0.21300000 0.19447500
v -0.06710000 -0.20749375 0.19447500
v -0.06250000 -0.20960000 0.19447500
v -0.06407060 -0.21064943 0.19447500
v -0.06370208 -0.21009792 0.19447500
v -0.06315056 -0.20972940 0.19447500
v -0.06315056 -0.21287060 0.19447500
v -0.06370208 -0.21250208 0.19447500
v 0.00000000 -0.20749375 0.19447500
v 0.05415000 -0.21590000 0.19447500
v -0.07000000 -0.16380000 0.19447500
v -0.07000000 -0.20749375 0.19447500
v -0.06710000 -0.16380000 0.19447500
v 0.00000000 -0.16380000 0.19447500
v -0.00750000 -0.16838750 0.19447500
v -0.00750000 -0.20238750 0.19447500
v -0.05415000 -0.16380000 0.19447500
v -0.04450000 -0.16538750 0.19447500
v -0.01050000 -0.16538750 0.19447500
v -0.04564805 -0.16561586 0.19447500
v -0.04750000 -0.20238750 0.19447500
v -0.01050000 -0.20538750 0.19447500
v -0.00837868 -0.20450883 0.19447500
v -0.00935195 -0.20515914 0.19447500
v -0.00772836 -0.16723944 0.19447500
v -0.04750000 -0.16838750 0.19447500
v -0.04450000 -0.20538750 0.19447500
v -0.00772836 -0.20353556 0.19447500
v -0.00837868 -0.16626617 0.19447500
v -0.00935195 -0.16561586 0.19447500
v -0.04727164 -0.20353556 0.19447500
v -0.04564805 -0.20515914 0.19447500
v -0.04662132 -0.16626617 0.19447500
v -0.04727164 -0.16723944 0.19447500
v -0.04662132 -0.20450883 0.19447500
v 0.05415000 -0.16380000 0.19447500
v 0.04750000 -0.16838750 0.19447500
v 0.04750000 -0.20238750 0.19447500
v 0.01050000 -0.16538750 0.19447500
v 0.00750000 -0.20238750 0.19447500
v 0.05415000 -0.20749375 0.19447500
v 0.04450000 -0.20538750 0.19447500
v 0.01050000 -0.20538750 0.19447500
v 0.04450000 -0.16538750 0.19447500
v 0.00750000 -0.16838750 0.19447500
v 0.04727164 -0.16723944 0.19447500
v 0.00935195 -0.16561586 0.19447500
v 0.00772836 -0.20353556 0.19447500
v 0.00935195 -0.20515914 0.19447500
v 0.04727164 -0.20353556 0.19447500
v 0.00837868 -0.16626617 0.19447500
v 0.00772836 -0.16723944 0.19447500
v 0.00837868 -0.20450883 0.19447500
v 0.04662132 -0.20450883 0.19447500
v 0.04564805 -0.20515914 0.19447500
v 0.04662132 -0.16626617 0.19447500
v 0.04564805 -0.16561586 0.19447500
v 0.07000000 -0.20749375 0.19447500
v -0.07000000 -0.14010625 0.19447500
v -0.06710000 -0.14010625 0.19447500
v 0.00000000 -0.14010625 0.19447500
v -0.00750000 -0.14521250 0.19447500
v -0.05415000 -0.14010625 0.19447500
v -0.04450000 -0.14221250 0.19447500
v -0.01050000 -0.14221250 0.19447500
v -0.00750000 -0.15921250 0.19447500
v -0.04564805 -0.14244086 0.19447500
v -0.00837868 -0.16133381 0.19447500
v -0.00935195 -0.16198415 0.19447500
v -0.00772836 -0.14406446 0.19447500
v -0.04750000 -0.15921250 0.19447500
v -0.04750000 -0.14521250 0.19447500
v -0.00772836 -0.16036054 0.19447500
v -0.00837868 -0.14309119 0.19447500
v -0.00935195 -0.14244086 0.19447500
v -0.04727164 -0.16036054 0.19447500
v -0.04662132 -0.14309119 0.19447500
v -0.01050000 -0.16221251 0.19447500
v -0.04727164 -0.14406446 0.19447500
v -0.04564805 -0.16198415 0.19447500
v -0.04662132 -0.16133381 0.19447500
v -0.04450000 -0.16221251 0.19447500
v 0.05415000 -0.14010625 0.19447500
v 0.04750000 -0.14521250 0.19447500
v 0.01050000 -0.14221250 0.19447500
v 0.00750000 -0.15921250 0.19447500
v 0.00750000 -0.14521250 0.19447500
v 0.04450000 -0.16221251 0.19447500
v 0.01050000 -0.16221251 0.19447500
v 0.04750000 -0.15921250 0.19447500
v 0.04450000 -0.14221250 0.19447500
v 0.04727164 -0.14406446 0.19447500
v 0.00935195 -0.14244086 0.19447500
v 0.00772836 -0.16036054 0.19447500
v 0.00935195 -0.16198415 0.19447500
v 0.04662132 -0.14309119 0.19447500
v 0.00837868 -0.14309119 0.19447500
v 0.00772836 -0.14406446 0.19447500
v 0.00837868 -0.16133381 0.19447500
v 0.04727164 -0.16036054 0.19447500
v 0.04564805 -0.14244086 0.19447500
v 0.04662132 -0.16133381 0.19447500
v 0.04564805 -0.16198415 0.19447500
v 0.07000000 -0.16380000 0.19447500
v -0.05415000 -0.12880000 0.19447500
v 0.00000000 -0.12880000 0.19447500
v -0.07000000 -0.21380000 0.19447500
v -0.06961939 -0.21571341 0.19447500
v -0.06949472 -0.21590000 0.19447500
v -0.06853554 -0.21733554 0.19447500
v -0.06500000 -0.21879999 0.19447500
v -0.06710000 -0.21829472 0.19447500
v -0.06691342 -0.21841940 0.19447500
v 0.06949472 -0.21590000 0.19447500
v 0.06500000 -0.21879999 0.19447500
v 0.06691342 -0.21841940 0.19447500
v 0.06961939 -0.21571341 0.19447500
v 0.07000000 -0.21380000 0.19447500
v 0.06407060 -0.21195056 0.19447500
v 0.06370208 -0.21250208 0.19447500
v 0.06407060 -0.21064943 0.19447500
v 0.06420000 -0.21130000 0.19447500
v 0.06092941 -0.21064943 0.19447500
v 0.06129792 -0.21009792 0.19447500
v 0.06092941 -0.21195056 0.19447500
v 0.06080000 -0.21130000 0.19447500
v 0.06184944 -0.21287060 0.19447500
v 0.06129792 -0.21250208 0.19447500
v 0.06184944 -0.20972940 0.19447500
v 0.06250000 -0.20960000 0.19447500
v 0.06315056 -0.20972940 0.19447500
v 0.06370208 -0.21009792 0.19447500
v 0.06250000 -0.21300000 0.19447500
v 0.06315056 -0.21287060 0.19447500
v 0.07000000 -0.14010625 0.19447500
v 0.07000000 -0.13380000 0.19447500
v 0.06420000 -0.13630000 0.19447500
v 0.06961939 -0.13188659 0.19447500
v 0.06370208 -0.13509792 0.19447500
v 0.06407060 -0.13564944 0.19447500
v 0.06691342 -0.12918060 0.19447500
v 0.06500000 -0.12880000 0.19447500
v 0.06315056 -0.13472940 0.19447500
v 0.05415000 -0.12880000 0.19447500
v 0.06092941 -0.13564944 0.19447500
v 0.06129792 -0.13509792 0.19447500
v 0.06080000 -0.13630000 0.19447500
v 0.06184944 -0.13787059 0.19447500
v 0.06129792 -0.13750207 0.19447500
v 0.06407060 -0.13695057 0.19447500
v 0.06370208 -0.13750207 0.19447500
v 0.06853554 -0.13026446 0.19447500
v 0.06184944 -0.13472940 0.19447500
v 0.06092941 -0.13695057 0.19447500
v 0.06250000 -0.13460000 0.19447500
v 0.06250000 -0.13800000 0.19447500
v 0.06315056 -0.13787059 0.19447500
v -0.06092941 -0.13695057 0.19447500
v -0.06129792 -0.13750207 0.19447500
v -0.06092941 -0.13564944 0.19447500
v -0.06080000 -0.13630000 0.19447500
v -0.06184944 -0.13472940 0.19447500
v -0.06129792 -0.13509792 0.19447500
v -0.06691342 -0.12918060 0.19447500
v -0.06370208 -0.13509792 0.19447500
v -0.06315056 -0.13472940 0.19447500
v -0.06500000 -0.12880000 0.19447500
v -0.06710000 -0.12930527 0.19447500
v -0.06420000 -0.13630000 0.19447500
v -0.06184944 -0.13787059 0.19447500
v -0.06250000 -0.13800000 0.19447500
v -0.06250000 -0.13460000 0.19447500
v -0.06407060 -0.13564944 0.19447500
v -0.06407060 -0.13695057 0.19447500
v -0.06315056 -0.13787059 0.19447500
v -0.06370208 -0.13750207 0.19447500
v -0.06853554 -0.13026446 0.19447500
v -0.06961939 -0.13188659 0.19447500
v -0.07000000 -0.13380000 0.19447500
v 0.06853554 -0.21733554 0.19447500
v 0.04564805 -0.16198415 0.17630000
v 0.04450000 -0.16221251 0.17630000
v 0.04450000 -0.16221251 0.19447500
v 0.04662132 -0.16133381 0.17630000
v 0.04564805 -0.16198415 0.19447500
v 0.04727164 -0.16036054 0.17630000
v 0.04662132 -0.16133381 0.19447500
v 0.04750000 -0.15921250 0.17630000
v 0.04727164 -0.16036054 0.19447500
v 0.04750000 -0.15921250 0.19447500
v 0.04450000 -0.16538750 0.19447500
v 0.01050000 -0.16538750 0.19447500
v 0.01050000 -0.16538750 0.17630000
v 0.04450000 -0.16538750 0.17630000
v 0.04750000 -0.15921250 0.19447500
v 0.04750000 -0.14521250 0.19447500
v 0.04750000 -0.14521250 0.17630000
v 0.04750000 -0.15921250 0.17630000
v 0.04727164 -0.14406446 0.17630000
v 0.04750000 -0.14521250 0.17630000
v 0.04750000 -0.14521250 0.19447500
v 0.04662132 -0.14309119 0.17630000
v 0.04727164 -0.14406446 0.19447500
v 0.04564805 -0.14244086 0.17630000
v 0.04662132 -0.14309119 0.19447500
v 0.04450000 -0.14221250 0.17630000
v 0.04564805 -0.14244086 0.19447500
v 0.04450000 -0.14221250 0.19447500
v 0.04450000 -0.14221250 0.19447500
v 0.01050000 -0.14221250 0.19447500
v 0.01050000 -0.14221250 0.17630000
v 0.04450000 -0.14221250 0.17630000
v 0.00935195 -0.14244086 0.17630000
v 0.01050000 -0.14221250 0.17630000
v 0.01050000 -0.14221250 0.19447500
v 0.00837868 -0.14309119 0.17630000
v 0.00935195 -0.14244086 0.19447500
v 0.00772836 -0.14406446 0.17630000
v 0.00837868 -0.14309119 0.19447500
v 0.00750000 -0.14521250 0.17630000
v 0.00772836 -0.14406446 0.19447500
v 0.00750000 -0.14521250 0.19447500
v 0.00750000 -0.14521250 0.19447500
v 0.00750000 -0.15921250 0.19447500
v 0.00750000 -0.15921250 0.17630000
v 0.00750000 -0.14521250 0.17630000
v 0.00772836 -0.16036054 0.17630000
v 0.00750000 -0.15921250 0.17630000
v 0.00750000 -0.15921250 0.19447500
v 0.00837868 -0.16133381 0.17630000
v 0.00772836 -0.16036054 0.19447500
v 0.00935195 -0.16198415 0.17630000
v 0.00837868 -0.16133381 0.19447500
v 0.01050000 -0.16221251 0.17630000
v 0.00935195 -0.16198415 0.19447500
v 0.01050000 -0.16221251 0.19447500
v 0.01050000 -0.16221251 0.19447500
v 0.04450000 -0.16221251 0.19447500
v 0.04450000 -0.16221251 0.17630000
v 0.01050000 -0.16221251 0.17630000
v 0.00935195 -0.16561586 0.17630000
v 0.01050000 -0.16538750 0.17630000
v 0.01050000 -0.16538750 0.19447500
v 0.00837868 -0.16626617 0.17630000
v 0.00935195 -0.16561586 0.19447500
v 0.00772836 -0.16723944 0.17630000
v 0.00837868 -0.16626617 0.19447500
v 0.00750000 -0.16838750 0.17630000
v 0.00772836 -0.16723944 0.19447500
v 0.00750000 -0.16838750 0.19447500
v 0.00750000 -0.16838750 0.19447500
v 0.00750000 -0.20238750 0.19447500
v 0.00750000 -0.20238750 0.17630000
v 0.00750000 -0.16838750 0.17630000
v 0.00772836 -0.20353556 0.17630000
v 0.00750000 -0.20238750 0.17630000
v 0.00750000 -0.20238750 0.19447500
v 0.00837868 -0.20450883 0.17630000
v 0.00772836 -0.20353556 0.19447500
v 0.00935195 -0.20515914 0.17630000
v 0.00837868 -0.20450883 0.19447500
v 0.01050000 -0.20538750 0.17630000
v 0.00935195 -0.20515914 0.19447500
v 0.01050000 -0.20538750 0.19447500
v 0.01050000 -0.20538750 0.19447500
v 0.04450000 -0.20538750 0.19447500
v 0.04450000 -0.20538750 0.17630000
v 0.01050000 -0.20538750 0.17630000
v 0.04564805 -0.20515914 0.17630000
v 0.04450000 -0.20538750 0.17630000
v 0.04450000 -0.20538750 0.19447500
v 0.04662132 -0.20450883 0.17630000
v 0.04564805 -0.20515914 0.19447500
v 0.04727164 -0.20353556 0.17630000
v 0.04662132 -0.20450883 0.19447500
v 0.04750000 -0.20238750 0.17630000
v 0.04727164 -0.20353556 0.19447500
v 0.04750000 -0.20238750 0.19447500
v 0.04750000 -0.20238750 0.19447500
v 0.04750000 -0.16838750 0.19447500
v 0.04750000 -0.16838750 0.17630000
v 0.04750000 -0.20238750 0.17630000
v 0.04727164 -0.16723944 0.17630000
v 0.04750000 -0.16838750 0.17630000
v 0.04750000 -0.16838750 0.19447500
v 0.04662132 -0.16626617 0.17630000
v 0.04727164 -0.16723944 0.19447500
v 0.04564805 -0.16561586 0.17630000
v 0.04662132 -0.16626617 0.19447500
v 0.04450000 -0.16538750 0.17630000
v 0.04564805 -0.16561586 0.19447500
v 0.04450000 -0.16538750 0.19447500
v 0.04686307 -0.20809245 0.17630000
v 0.04450000 -0.20856249 0.17630000
v 0.04450000 -0.20538750 0.17630000
v 0.01050000 -0.20856249 0.17630000
v 0.01050000 -0.20538750 0.17630000
v 0.00813693 -0.20809245 0.17630000
v 0.00935195 -0.20515914 0.17630000
v 0.01050000 -0.16538750 0.17630000
v 0.01050000 -0.16221251 0.17630000
v 0.04450000 -0.16221251 0.17630000
v 0.00613362 -0.20675388 0.17630000
v 0.00837868 -0.20450883 0.17630000
v 0.00479504 -0.20475057 0.17630000
v 0.00432500 -0.20238750 0.17630000
v 0.00750000 -0.20238750 0.17630000
v 0.00772836 -0.16036054 0.17630000
v 0.00750000 -0.16838750 0.17630000
v 0.00935195 -0.16198415 0.17630000
v 0.04450000 -0.16538750 0.17630000
v 0.04886638 -0.20675388 0.17630000
v 0.04564805 -0.20515914 0.17630000
v 0.04564805 -0.16198415 0.17630000
v 0.05067500 -0.20238750 0.17630000
v 0.04750000 -0.20238750 0.17630000
v 0.04750000 -0.16838750 0.17630000
v 0.00772836 -0.20353556 0.17630000
v 0.00772836 -0.16723944 0.17630000
v 0.00935195 -0.16561586 0.17630000
v 0.00432500 -0.14521250 0.17630000
v 0.00750000 -0.14521250 0.17630000
v 0.00750000 -0.15921250 0.17630000
v 0.04727164 -0.16036054 0.17630000
v 0.05020496 -0.20475057 0.17630000
v 0.04727164 -0.20353556 0.17630000
v 0.00837868 -0.16626617 0.17630000
v 0.00837868 -0.16133381 0.17630000
v 0.00479504 -0.14284943 0.17630000
v 0.00772836 -0.14406446 0.17630000
v 0.05067500 -0.14521250 0.17630000
v 0.04750000 -0.15921250 0.17630000
v 0.04564805 -0.16561586 0.17630000
v 0.00613362 -0.14084612 0.17630000
v 0.00837868 -0.14309119 0.17630000
v 0.00813693 -0.13950755 0.17630000
v 0.01050000 -0.13903750 0.17630000
v 0.01050000 -0.14221250 0.17630000
v 0.04450000 -0.14221250 0.17630000
v 0.05020496 -0.14284943 0.17630000
v 0.04750000 -0.14521250 0.17630000
v 0.04662132 -0.16133381 0.17630000
v 0.04662132 -0.16626617 0.17630000
v 0.04727164 -0.16723944 0.17630000
v 0.04662132 -0.20450883 0.17630000
v 0.00935195 -0.14244086 0.17630000
v 0.04450000 -0.13903750 0.17630000
v 0.04686307 -0.13950755 0.17630000
v 0.04564805 -0.14244086 0.17630000
v 0.04886638 -0.14084612 0.17630000
v 0.04662132 -0.14309119 0.17630000
v 0.04727164 -0.14406446 0.17630000
v -0.01050000 -0.20856249 0.19130000
v -0.01050000 -0.20856249 0.17630000
v -0.00813693 -0.20809245 0.17630000
v -0.00813693 -0.20809245 0.19130000
v -0.00613362 -0.20675388 0.17630000
v -0.00613362 -0.20675388 0.19130000
v -0.00479504 -0.20475057 0.17630000
v -0.00479504 -0.20475057 0.19130000
v -0.00432500 -0.20238750 0.17630000
v -0.00432500 -0.20238750 0.19130000
v -0.01050000 -0.20856249 0.17630000
v -0.01050000 -0.20856249 0.19130000
v -0.04450000 -0.20856249 0.19130000
v -0.04450000 -0.20856249 0.17630000
v -0.05067500 -0.20238750 0.19130000
v -0.05067500 -0.20238750 0.17630000
v -0.05020496 -0.20475057 0.17630000
v -0.05020496 -0.20475057 0.19130000
v -0.04886638 -0.20675388 0.17630000
v -0.04886638 -0.20675388 0.19130000
v -0.04686307 -0.20809245 0.17630000
v -0.04686307 -0.20809245 0.19130000
v -0.04450000 -0.20856249 0.17630000
v -0.04450000 -0.20856249 0.19130000
v -0.05067500 -0.20238750 0.17630000
v -0.05067500 -0.20238750 0.19130000
v -0.05067500 -0.14521250 0.19130000
v -0.05067500 -0.14521250 0.17630000
v -0.04450000 -0.13903750 0.19130000
v -0.04450000 -0.13903750 0.17630000
v -0.04686307 -0.13950755 0.17630000
v -0.04686307 -0.13950755 0.19130000
v -0.04886638 -0.14084612 0.17630000
v -0.04886638 -0.14084612 0.19130000
v -0.05020496 -0.14284943 0.17630000
v -0.05020496 -0.14284943 0.19130000
v -0.05067500 -0.14521250 0.17630000
v -0.05067500 -0.14521250 0.19130000
v -0.04450000 -0.13903750 0.17630000
v -0.04450000 -0.13903750 0.19130000
v -0.01050000 -0.13903750 0.19130000
v -0.01050000 -0.13903750 0.17630000
v -0.00432500 -0.14521250 0.19130000
v -0.00432500 -0.14521250 0.17630000
v -0.00479504 -0.14284943 0.17630000
v -0.00479504 -0.14284943 0.19130000
v -0.00613362 -0.14084612 0.17630000
v -0.00613362 -0.14084612 0.19130000
v -0.00813693 -0.13950755 0.17630000
v -0.00813693 -0.13950755 0.19130000
v -0.01050000 -0.13903750 0.17630000
v -0.01050000 -0.13903750 0.19130000
v -0.00432500 -0.14521250 0.17630000
v -0.00432500 -0.14521250 0.19130000
v -0.00432500 -0.20238750 0.19130000
v -0.00432500 -0.20238750 0.17630000
v 0.04450000 -0.20856249 0.19130000
v 0.04450000 -0.20856249 0.17630000
v 0.04686307 -0.20809245 0.17630000
v 0.04686307 -0.20809245 0.19130000
v 0.04886638 -0.20675388 0.17630000
v 0.04886638 -0.20675388 0.19130000
v 0.05020496 -0.20475057 0.17630000
v 0.05020496 -0.20475057 0.19130000
v 0.05067500 -0.20238750 0.17630000
v 0.05067500 -0.20238750 0.19130000
v 0.04450000 -0.20856249 0.17630000
v 0.04450000 -0.20856249 0.19130000
v 0.01050000 -0.20856249 0.19130000
v 0.01050000 -0.20856249 0.17630000
v 0.00432500 -0.20238750 0.19130000
v 0.00432500 -0.20238750 0.17630000
v 0.00479504 -0.20475057 0.17630000
v 0.00479504 -0.20475057 0.19130000
v 0.00613362 -0.20675388 0.17630000
v 0.00613362 -0.20675388 0.19130000
v 0.00813693 -0.20809245 0.17630000
v 0.00813693 -0.20809245 0.19130000
v 0.01050000 -0.20856249 0.17630000
v 0.01050000 -0.20856249 0.19130000
v 0.00432500 -0.20238750 0.17630000
v 0.00432500 -0.20238750 0.19130000
v 0.00432500 -0.14521250 0.19130000
v 0.00432500 -0.14521250 0.17630000
v 0.01050000 -0.13903750 0.19130000
v 0.01050000 -0.13903750 0.17630000
v 0.00813693 -0.13950755 0.17630000
v 0.00813693 -0.13950755 0.19130000
v 0.00613362 -0.14084612 0.17630000
v 0.00613362 -0.14084612 0.19130000
v 0.00479504 -0.14284943 0.17630000
v 0.00479504 -0.14284943 0.19130000
v 0.00432500 -0.14521250 0.17630000
v 0.00432500 -0.14521250 0.19130000
v 0.01050000 -0.13903750 0.17630000
v 0.01050000 -0.13903750 0.19130000
v 0.04450000 -0.13903750 0.19130000
v 0.04450000 -0.13903750 0.17630000
v 0.05067500 -0.14521250 0.19130000
v 0.05067500 -0.14521250 0.17630000
v 0.05020496 -0.14284943 0.17630000
v 0.05020496 -0.14284943 0.19130000
v 0.04886638 -0.14084612 0.17630000
v 0.04886638 -0.14084612 0.19130000
v 0.04686307 -0.13950755 0.17630000
v 0.04686307 -0.13950755 0.19130000
v 0.04450000 -0.13903750 0.17630000
v 0.04450000 -0.13903750 0.19130000
v 0.05067500 -0.14521250 0.17630000
v 0.05067500 -0.14521250 0.19130000
v 0.05067500 -0.20238750 0.19130000
v 0.05067500 -0.20238750 0.17630000
v -0.06315056 -0.21287060 0.19447500
v -0.06250000 -0.21300000 0.19447500
v -0.06250000 -0.21300000 0.19130000
v -0.06370208 -0.21250208 0.19447500
v -0.06315056 -0.21287060 0.19130000
v -0.06407060 -0.21195056 0.19447500
v -0.06370208 -0.21250208 0.19130000
v -0.06420000 -0.21130000 0.19447500
v -0.06407060 -0.21195056 0.19130000
v -0.06407060 -0.21064943 0.19447500
v -0.06420000 -0.21130000 0.19130000
v -0.06370208 -0.21009792 0.19447500
v -0.06407060 -0.21064943 0.19130000
v -0.06315056 -0.20972940 0.19447500
v -0.06370208 -0.21009792 0.19130000
v -0.06250000 -0.20960000 0.19447500
v -0.06315056 -0.20972940 0.19130000
v -0.06184944 -0.20972940 0.19447500
v -0.06250000 -0.20960000 0.19130000
v -0.06129792 -0.21009792 0.19447500
v -0.06184944 -0.20972940 0.19130000
v -0.06092941 -0.21064943 0.19447500
v -0.06129792 -0.21009792 0.19130000
v -0.06080000 -0.21130000 0.19447500
v -0.06092941 -0.21064943 0.19130000
v -0.06092941 -0.21195056 0.19447500
v -0.06080000 -0.21130000 0.19130000
v -0.06129792 -0.21250208 0.19447500
v -0.06092941 -0.21195056 0.19130000
v -0.06184944 -0.21287060 0.19447500
v -0.06129792 -0.21250208 0.19130000
v -0.06184944 -0.21287060 0.19130000
v 0.06184944 -0.21287060 0.19447500
v 0.06250000 -0.21300000 0.19447500
v 0.06250000 -0.21300000 0.19130000
v 0.06129792 -0.21250208 0.19447500
v 0.06184944 -0.21287060 0.19130000
v 0.06092941 -0.21195056 0.19447500
v 0.06129792 -0.21250208 0.19130000
v 0.06080000 -0.21130000 0.19447500
v 0.06092941 -0.21195056 0.19130000
v 0.06092941 -0.21064943 0.19447500
v 0.06080000 -0.21130000 0.19130000
v 0.06129792 -0.21009792 0.19447500
v 0.06092941 -0.21064943 0.19130000
v 0.06184944 -0.20972940 0.19447500
v 0.06129792 -0.21009792 0.19130000
v 0.06250000 -0.20960000 0.19447500
v 0.06184944 -0.20972940 0.19130000
v 0.06315056 -0.20972940 0.19447500
v 0.06250000 -0.20960000 0.19130000
v 0.06370208 -0.21009792 0.19447500
v 0.06315056 -0.20972940 0.19130000
v 0.06407060 -0.21064943 0.19447500
v 0.06370208 -0.21009792 0.19130000
v 0.06420000 -0.21130000 0.19447500
v 0.06407060 -0.21064943 0.19130000
v 0.06407060 -0.21195056 0.19447500
v 0.06420000 -0.21130000 0.19130000
v 0.06370208 -0.21250208 0.19447500
v 0.06407060 -0.21195056 0.19130000
v 0.06315056 -0.21287060 0.19447500
v 0.06370208 -0.21250208 0.19130000
v 0.06315056 -0.21287060 0.19130000
v 0.06184944 -0.13787059 0.19447500
v 0.06250000 -0.13800000 0.19447500
v 0.06250000 -0.13800000 0.19130000
v 0.06129792 -0.13750207 0.19447500
v 0.06184944 -0.13787059 0.19130000
v 0.06092941 -0.13695057 0.19447500
v 0.06129792 -0.13750207 0.19130000
v 0.06080000 -0.13630000 0.19447500
v 0.06092941 -0.13695057 0.19130000
v 0.06092941 -0.13564944 0.19447500
v 0.06080000 -0.13630000 0.19130000
v 0.06129792 -0.13509792 0.19447500
v 0.06092941 -0.13564944 0.19130000
v 0.06184944 -0.13472940 0.19447500
v 0.06129792 -0.13509792 0.19130000
v 0.06250000 -0.13460000 0.19447500
v 0.06184944 -0.13472940 0.19130000
v 0.06315056 -0.13472940 0.19447500
v 0.06250000 -0.13460000 0.19130000
v 0.06370208 -0.13509792 0.19447500
v 0.06315056 -0.13472940 0.19130000
v 0.06407060 -0.13564944 0.19447500
v 0.06370208 -0.13509792 0.19130000
v 0.06420000 -0.13630000 0.19447500
v 0.06407060 -0.13564944 0.19130000
v 0.06407060 -0.13695057 0.19447500
v 0.06420000 -0.13630000 0.19130000
v 0.06370208 -0.13750207 0.19447500
v 0.06407060 -0.13695057 0.19130000
v 0.06315056 -0.13787059 0.19447500
v 0.06370208 -0.13750207 0.19130000
v 0.06315056 -0.13787059 0.19130000
v -0.07000000 -0.13380000 0.19130000
v -0.07000000 -0.13380000 0.19447500
v -0.06961939 -0.13188659 0.19447500
v -0.06961939 -0.13188659 0.19130000
v -0.06853554 -0.13026446 0.19447500
v -0.06691342 -0.12918060 0.19130000
v -0.06710000 -0.12930527 0.19130000
v -0.06710000 -0.12930527 0.19447500
v -0.06853554 -0.13026446 0.19130000
v -0.06691342 -0.12918060 0.19447500
v -0.06500000 -0.12880000 0.19447500
v -0.06500000 -0.12880000 0.19130000
v -0.06500000 -0.12880000 0.19447500
v -0.05415000 -0.12880000 0.19447500
v -0.05573750 -0.12880000 0.19130000
v 0.00000000 -0.12880000 0.19130000
v 0.00000000 -0.12880000 0.19447500
v 0.05415000 -0.12880000 0.19447500
v 0.05573750 -0.12880000 0.19130000
v 0.06500000 -0.12880000 0.19447500
v 0.06500000 -0.12880000 0.19130000
v -0.06500000 -0.12880000 0.19130000
v 0.06500000 -0.12880000 0.19130000
v 0.06500000 -0.12880000 0.19447500
v 0.06691342 -0.12918060 0.19447500
v 0.06691342 -0.12918060 0.19130000
v 0.06853554 -0.13026446 0.19447500
v 0.06853554 -0.13026446 0.19130000
v 0.06961939 -0.13188659 0.19447500
v 0.06961939 -0.13188659 0.19130000
v 0.07000000 -0.13380000 0.19447500
v 0.07000000 -0.13380000 0.19130000
v 0.07000000 -0.20908125 0.19130000
v 0.07000000 -0.13851875 0.19130000
v 0.07000000 -0.16380000 0.19447500
v 0.07000000 -0.13380000 0.19447500
v 0.07000000 -0.14010625 0.19447500
v 0.07000000 -0.21380000 0.19447500
v 0.07000000 -0.21380000 0.19130000
v 0.07000000 -0.20749375 0.19447500
v 0.07000000 -0.13380000 0.19130000
v 0.07000000 -0.21380000 0.19130000
v 0.07000000 -0.21380000 0.19447500
v 0.06961939 -0.21571341 0.19447500
v 0.06853554 -0.21733554 0.19130000
v 0.06949472 -0.21590000 0.19130000
v 0.06949472 -0.21590000 0.19447500
v 0.06961939 -0.21571341 0.19130000
v 0.06853554 -0.21733554 0.19447500
v 0.06691342 -0.21841940 0.19447500
v 0.06691342 -0.21841940 0.19130000
v 0.06500000 -0.21879999 0.19447500
v 0.06500000 -0.21879999 0.19130000
v 0.00000000 -0.21879999 0.19130000
v 0.05573750 -0.21879999 0.19130000
v 0.05415000 -0.21879999 0.19447500
v 0.06500000 -0.21879999 0.19447500
v 0.06500000 -0.21879999 0.19130000
v 0.00000000 -0.21879999 0.19447500
v -0.05415000 -0.21879999 0.19447500
v -0.06500000 -0.21879999 0.19447500
v -0.06500000 -0.21879999 0.19130000
v -0.05573750 -0.21879999 0.19130000
v -0.06500000 -0.21879999 0.19130000
v -0.06500000 -0.21879999 0.19447500
v -0.06691342 -0.21841940 0.19447500
v -0.06853554 -0.21733554 0.19130000
v -0.06710000 -0.21829472 0.19130000
v -0.06710000 -0.21829472 0.19447500
v -0.06691342 -0.21841940 0.19130000
v -0.06961939 -0.21571341 0.19130000
v -0.06949472 -0.21590000 0.19130000
v -0.06949472 -0.21590000 0.19447500
v -0.06853554 -0.21733554 0.19447500
v -0.06961939 -0.21571341 0.19447500
v -0.07000000 -0.21380000 0.19447500
v -0.07000000 -0.21380000 0.19130000
v -0.07000000 -0.20908125 0.19130000
v -0.07000000 -0.20749375 0.19447500
v -0.07000000 -0.16380000 0.19447500
v -0.07000000 -0.13851875 0.19130000
v -0.07000000 -0.21380000 0.19447500
v -0.07000000 -0.21380000 0.19130000
v -0.07000000 -0.13380000 0.19447500
v -0.07000000 -0.13380000 0.19130000
v -0.07000000 -0.14010625 0.19447500
v -0.05573750 -0.12880000 0.19130000
v 0.00000000 -0.12880000 0.19130000
v 0.00000000 -0.13851875 0.19130000
v 0.05573750 -0.12880000 0.19130000
v 0.05573750 -0.13851875 0.19130000
v -0.07000000 -0.13851875 0.19130000
v -0.06710000 -0.13851875 0.19130000
v -0.06710000 -0.20908125 0.19130000
v -0.05573750 -0.13851875 0.19130000
v -0.05573750 -0.20908125 0.19130000
v 0.00000000 -0.20908125 0.19130000
v -0.04450000 -0.20856249 0.19130000
v -0.05067500 -0.14521250 0.19130000
v -0.01050000 -0.20856249 0.19130000
v -0.05067500 -0.20238750 0.19130000
v -0.00432500 -0.20238750 0.19130000
v -0.04686307 -0.20809245 0.19130000
v -0.05020496 -0.14284943 0.19130000
v -0.00432500 -0.14521250 0.19130000
v -0.04886638 -0.20675388 0.19130000
v -0.05020496 -0.20475057 0.19130000
v -0.01050000 -0.13903750 0.19130000
v -0.04450000 -0.13903750 0.19130000
v -0.00479504 -0.20475057 0.19130000
v -0.00813693 -0.20809245 0.19130000
v -0.04886638 -0.14084612 0.19130000
v -0.00479504 -0.14284943 0.19130000
v -0.04686307 -0.13950755 0.19130000
v -0.00613362 -0.20675388 0.19130000
v -0.00613362 -0.14084612 0.19130000
v -0.00813693 -0.13950755 0.19130000
v 0.05573750 -0.20908125 0.19130000
v 0.05067500 -0.20238750 0.19130000
v 0.05067500 -0.14521250 0.19130000
v 0.05020496 -0.20475057 0.19130000
v 0.01050000 -0.20856249 0.19130000
v 0.04450000 -0.20856249 0.19130000
v 0.00432500 -0.14521250 0.19130000
v 0.05020496 -0.14284943 0.19130000
v 0.00432500 -0.20238750 0.19130000
v 0.04886638 -0.20675388 0.19130000
v 0.00813693 -0.20809245 0.19130000
v 0.00479504 -0.14284943 0.19130000
v 0.04450000 -0.13903750 0.19130000
v 0.04686307 -0.20809245 0.19130000
v 0.00613362 -0.20675388 0.19130000
v 0.00479504 -0.20475057 0.19130000
v 0.01050000 -0.13903750 0.19130000
v 0.04886638 -0.14084612 0.19130000
v 0.04686307 -0.13950755 0.19130000
v 0.00613362 -0.14084612 0.19130000
v 0.00813693 -0.13950755 0.19130000
v 0.07000000 -0.13851875 0.19130000
v 0.07000000 -0.20908125 0.19130000
v -0.06092941 -0.21064943 0.19130000
v -0.06129792 -0.21009792 0.19130000
v -0.05573750 -0.21590000 0.19130000
v -0.06092941 -0.21195056 0.19130000
v -0.06080000 -0.21130000 0.19130000
v -0.06184944 -0.21287060 0.19130000
v -0.06129792 -0.21250208 0.19130000
v -0.06710000 -0.21590000 0.19130000
v -0.06250000 -0.21300000 0.19130000
v -0.06420000 -0.21130000 0.19130000
v -0.06315056 -0.21287060 0.19130000
v -0.06407060 -0.21195056 0.19130000
v -0.06370208 -0.21250208 0.19130000
v -0.06407060 -0.21064943 0.19130000
v -0.06184944 -0.20972940 0.19130000
v -0.06250000 -0.20960000 0.19130000
v -0.06315056 -0.20972940 0.19130000
v -0.06370208 -0.21009792 0.19130000
v 0.00000000 -0.21590000 0.19130000
v 0.05573750 -0.21590000 0.19130000
v 0.00000000 -0.21879999 0.19130000
v 0.05573750 -0.21879999 0.19130000
v -0.07000000 -0.13380000 0.19130000
v -0.06961939 -0.13188659 0.19130000
v -0.06853554 -0.13026446 0.19130000
v -0.06092941 -0.13564944 0.19130000
v -0.06129792 -0.13509792 0.19130000
v -0.06080000 -0.13630000 0.19130000
v -0.06184944 -0.13787059 0.19130000
v -0.06129792 -0.13750207 0.19130000
v -0.06092941 -0.13695057 0.19130000
v -0.06250000 -0.13800000 0.19130000
v -0.06710000 -0.12930527 0.19130000
v -0.06407060 -0.13564944 0.19130000
v -0.06691342 -0.12918060 0.19130000
v -0.06500000 -0.12880000 0.19130000
v -0.06315056 -0.13472940 0.19130000
v -0.06315056 -0.13787059 0.19130000
v -0.06407060 -0.13695057 0.19130000
v -0.06370208 -0.13750207 0.19130000
v -0.06420000 -0.13630000 0.19130000
v -0.06370208 -0.13509792 0.19130000
v -0.06184944 -0.13472940 0.19130000
v -0.06250000 -0.13460000 0.19130000
v 0.06691342 -0.12918060 0.19130000
v 0.06370208 -0.13509792 0.19130000
v 0.06315056 -0.13472940 0.19130000
v 0.06961939 -0.13188659 0.19130000
v 0.07000000 -0.13380000 0.19130000
v 0.06407060 -0.13564944 0.19130000
v 0.06500000 -0.12880000 0.19130000
v 0.06853554 -0.13026446 0.19130000
v 0.06420000 -0.13630000 0.19130000
v 0.06092941 -0.13695057 0.19130000
v 0.06129792 -0.13750207 0.19130000
v 0.06092941 -0.13564944 0.19130000
v 0.06184944 -0.13472940 0.19130000
v 0.06129792 -0.13509792 0.19130000
v 0.06407060 -0.13695057 0.19130000
v 0.06080000 -0.13630000 0.19130000
v 0.06315056 -0.13787059 0.19130000
v 0.06370208 -0.13750207 0.19130000
v 0.06250000 -0.13800000 0.19130000
v 0.06250000 -0.13460000 0.19130000
v 0.06184944 -0.13787059 0.19130000
v 0.07000000 -0.21380000 0.19130000
v 0.06407060 -0.21195056 0.19130000
v 0.06420000 -0.21130000 0.19130000
v 0.06961939 -0.21571341 0.19130000
v 0.06370208 -0.21250208 0.19130000
v 0.06092941 -0.21195056 0.19130000
v 0.06129792 -0.21250208 0.19130000
v 0.06080000 -0.21130000 0.19130000
v 0.06184944 -0.20972940 0.19130000
v 0.06129792 -0.21009792 0.19130000
v 0.06407060 -0.21064943 0.19130000
v 0.06370208 -0.21009792 0.19130000
v 0.06092941 -0.21064943 0.19130000
v 0.06949472 -0.21590000 0.19130000
v 0.06315056 -0.21287060 0.19130000
v 0.06250000 -0.21300000 0.19130000
v 0.06315056 -0.20972940 0.19130000
v 0.06250000 -0.20960000 0.19130000
v 0.06184944 -0.21287060 0.19130000
v 0.06500000 -0.21879999 0.19130000
v 0.06853554 -0.21733554 0.19130000
v 0.06691342 -0.21841940 0.19130000
v -0.06500000 -0.21879999 0.19130000
v -0.06691342 -0.21841940 0.19130000
v -0.05573750 -0.21879999 0.19130000
v -0.06710000 -0.21829472 0.19130000
v -0.06853554 -0.21733554 0.19130000
v -0.07000000 -0.21380000 0.19130000
v -0.06949472 -0.21590000 0.19130000
v -0.06961939 -0.21571341 0.19130000
v -0.07000000 -0.20908125 0.19130000
v -0.06315056 -0.13787059 0.19447500
v -0.06250000 -0.13800000 0.19447500
v -0.06250000 -0.13800000 0.19130000
v -0.06370208 -0.13750207 0.19447500
v -0.06315056 -0.13787059 0.19130000
v -0.06407060 -0.13695057 0.19447500
v -0.06370208 -0.13750207 0.19130000
v -0.06420000 -0.13630000 0.19447500
v -0.06407060 -0.13695057 0.19130000
v -0.06407060 -0.13564944 0.19447500
v -0.06420000 -0.13630000 0.19130000
v -0.06370208 -0.13509792 0.19447500
v -0.06407060 -0.13564944 0.19130000
v -0.06315056 -0.13472940 0.19447500
v -0.06370208 -0.13509792 0.19130000
v -0.06250000 -0.13460000 0.19447500
v -0.06315056 -0.13472940 0.19130000
v -0.06184944 -0.13472940 0.19447500
v -0.06250000 -0.13460000 0.19130000
v -0.06129792 -0.13509792 0.19447500
v -0.06184944 -0.13472940 0.19130000
v -0.06092941 -0.13564944 0.19447500
v -0.06129792 -0.13509792 0.19130000
v -0.06080000 -0.13630000 0.19447500
v -0.06092941 -0.13564944 0.19130000
v -0.06092941 -0.13695057 0.19447500
v -0.06080000 -0.13630000 0.19130000
v -0.06129792 -0.13750207 0.19447500
v -0.06092941 -0.13695057 0.19130000
v -0.06184944 -0.13787059 0.19447500
v -0.06129792 -0.13750207 0.19130000
v -0.06184944 -0.13787059 0.19130000
vt 0.50000000 0.50000000
vt 0.50000000 0.50000000
vt 0.50000000 0.50000000
vt 0.50000000 0.50000000
vt 0.50000000 0.50000000
vt 0.50000000 0.50000000
vt 0.50000000 0.50000000
vt 0.50000000 0.50000000
vt 0.50000000 0.50000000
vt 0.50000000 0.50000000
vt 0.50000000 0.50000000
vt 0.50000000 0.50000000
vt 0.50000000 0.50000000
vt 0.50000000 0.50000000
vt 0.50000000 0.50000000
vt 0.50000000 0.50000000
vt 0.50000000 0.50000000
vt 0.50000000 0.50000000
vt 0.50000000 0.50000000
vt 0.50000000 0.50000000
vt 0.50000000 0.50000000
vt 0.50000000 0.50000000
vt 0.50000000 0.50000000
vt 0.50000000 0.50000000
vt 0.50000000 0.50000000
vt 0.50000000 0.50000000
vt 0.50000000 0.50000000
vt 0.50000000 0.50000000
vt 0.50000000 0.50000000
vt 0.50000000 0.50000000
vt 0.50000000 0.50000000
vt 0.50000000 0.50000000
vt 0.50000000 0.50000000
vt 0.50000000 0.50000000
vt 0.50000000 0.50000000
vt 0.50000000 0.50000000
vt 0.50000000 0.50000000
vt 0.50000000 0.50000000
vt 0.50000000 0.50000000
vt 0.50000000 0.50000000
vt 0.50000000 0.50000000
vt 0.50000000 0.50000000
vt 0.50000000 0.50000000
vt 0.50000000 0.50000000
vt 0.50000000 0.50000000
vt 0.50000000 0.50000000
vt 0.50000000 0.50000000
vt 0.50000000 0.50000000
vt 0.50000000 0.50000000
vt 0.50000000 0.50000000
vt 0.50000000 0.50000000
vt 0.50000000 0.50000000
vt 0.50000000 0.50000000
vt 0.50000000 0.50000000
vt 0.50000000 0.50000000
vt 0.50000000 0.50000000
vt 0.50000000 0.50000000
vt 0.50000000 0.50000000
vt 0.50000000 0.50000000
vt 0.50000000 0.50000000
vt 0.50000000 0.50000000
vt 0.50000000 0.50000000
vt 0.50000000 0.50000000
vt 0.50000000 0.50000000
vt 0.50000000 0.50000000
vt 0.50000000 0.50000000
vt 0.50000000 0.50000000
vt 0.50000000 0.50000000
vt 0.50000000 0.50000000
vt 0.50000000 0.50000000
vt 0.50000000 0.50000000
vt 0.50000000 0.50000000
vt 0.50000000 0.50000000
vt 0.50000000 0.50000000
vt 0.50000000 0.50000000
vt 0.50000000 0.50000000
vt 0.50000000 0.50000000
vt 0.50000000 0.50000000
vt 0.50000000 0.50000000
vt 0.50000000 0.50000000
vt 0.50000000 0.50000000
vt 0.50000000 0.50000000
vt 0.50000000 0.50000000
vt 0.50000000 0.50000000
vt 0.50000000 0.50000000
vt 0.50000000 0.50000000
vt 0.50000000 0.50000000
vt 0.50000000 0.50000000
vt 0.50000000 0.50000000
vt 0.50000000 0.50000000
vt 0.50000000 0.50000000
vt 0.50000000 0.50000000
vt 0.50000000 0.50000000
vt 0.50000000 0.50000000
vt 0.50000000 0.50000000
vt 0.50000000 0.50000000
vt 0.50000000 0.50000000
vt 0.50000000 0.50000000
vt 0.50000000 0.50000000
vt 0.50000000 0.50000000
vt 0.50000000 0.50000000
vt 0.50000000 0.50000000
vt 0.50000000 0.50000000
vt 0.50000000 0.50000000
vt 0.50000000 0.50000000
vt 0.50000000 0.50000000
vt 0.50000000 0.50000000
vt 0.50000000 0.50000000
vt 0.50000000 0.50000000
vt 0.50000000 0.50000000
vt 0.50000000 0.50000000
vt 0.50000000 0.50000000
vt 0.50000000 0.50000000
vt 0.50000000 0.50000000
vt 0.50000000 0.50000000
vt 0.50000000 0.50000000
vt 0.50000000 0.50000000
vt 0.50000000 0.50000000
vt 0.50000000 0.50000000
vt 0.50000000 0.50000000
vt 0.50000000 0.50000000
vt 0.50000000 0.50000000
vt 0.50000000 0.50000000
vt 0.50000000 0.50000000
vt 0.50000000 0.50000000
vt 0.50000000 0.50000000
vt 0.50000000 0.50000000
vt 0.50000000 0.50000000
vt 0.50000000 0.50000000
vt 0.50000000 0.50000000
vt 0.50000000 0.50000000
vt 0.50000000 0.50000000
vt 0.50000000 0.50000000
vt 0.50000000 0.50000000
vt 0.50000000 0.50000000
vt 0.50000000 0.50000000
vt 0.50000000 0.50000000
vt 0.50000000 0.50000000
vt 0.50000000 0.50000000
vt 0.50000000 0.50000000
vt 0.50000000 0.50000000
vt 0.50000000 0.50000000
vt 0.50000000 0.50000000
vt 0.50000000 0.50000000
vt 0.50000000 0.50000000
vt 0.50000000 0.50000000
vt 0.50000000 0.50000000
vt 0.50000000 0.50000000
vt 0.50000000 0.50000000
vt 0.50000000 0.50000000
vt 0.50000000 0.50000000
vt 0.50000000 0.50000000
vt 0.50000000 0.50000000
vt 0.50000000 0.50000000
vt 0.50000000 0.50000000
vt 0.50000000 0.50000000
vt 0.50000000 0.50000000
vt 0.50000000 0.50000000
vt 0.50000000 0.50000000
vt 0.50000000 0.50000000
vt 0.50000000 0.50000000
vt 0.50000000 0.50000000
vt 0.50000000 0.50000000
vt 0.50000000 0.50000000
vt 0.50000000 0.50000000
vt 0.50000000 0.50000000
vt 0.50000000 0.50000000
vt 0.50000000 0.50000000
vt 0.50000000 0.50000000
vt 0.50000000 0.50000000
vt 0.50000000 0.50000000
vt 0.50000000 0.50000000
vt 0.50000000 0.50000000
vt 0.50000000 0.50000000
vt 0.50000000 0.50000000
vt 0.50000000 0.50000000
vt 0.50000000 0.50000000
vt 0.50000000 0.50000000
vt 0.50000000 0.50000000
vt 0.50000000 0.50000000
vt 0.50000000 0.50000000
vt 0.50000000 0.50000000
vt 0.50000000 0.50000000
vt 0.50000000 0.50000000
vt 0.50000000 0.50000000
vt 0.50000000 0.50000000
vt 0.50000000 0.50000000
vt 0.50000000 0.50000000
vt 0.50000000 0.50000000
vt 0.50000000 0.50000000
vt 0.50000000 0.50000000
vt 0.50000000 0.50000000
vt 0.50000000 0.50000000
vt 0.50000000 0.50000000
vt 0.50000000 0.50000000
vt 0.50000000 0.50000000
vt 0.50000000 0.50000000
vt 0.50000000 0.50000000
vt 0.50000000 0.50000000
vt 0.50000000 0.50000000
vt 0.50000000 0.50000000
vt 0.50000000 0.50000000
vt 0.50000000 0.50000000
vt 0.50000000 0.50000000
vt 0.50000000 0.50000000
vt 0.50000000 0.50000000
vt 0.50000000 0.50000000
vt 0.50000000 0.50000000
vt 0.50000000 0.50000000
vt 0.50000000 0.50000000
vt 0.50000000 0.50000000
vt 0.50000000 0.50000000
vt 0.50000000 0.50000000
vt 0.50000000 0.50000000
vt 0.50000000 0.50000000
vt 0.50000000 0.50000000
vt 0.50000000 0.50000000
vt 0.50000000 0.50000000
vt 0.50000000 0.50000000
vt 0.50000000 0.50000000
vt 0.50000000 0.50000000
vt 0.50000000 0.50000000
vt 0.50000000 0.50000000
vt 0.50000000 0.50000000
vt 0.50000000 0.50000000
vt 0.50000000 0.50000000
vt 0.50000000 0.50000000
vt 0.50000000 0.50000000
vt 0.50000000 0.50000000
vt 0.50000000 0.50000000
vt 0.50000000 0.50000000
vt 0.50000000 0.50000000
vt 0.50000000 0.50000000
vt 0.50000000 0.50000000
vt 0.50000000 0.50000000
vt 0.50000000 0.50000000
vt 0.50000000 0.50000000
vt 0.50000000 0.50000000
vt 0.50000000 0.50000000
vt 0.50000000 0.50000000
vt 0.50000000 0.50000000
vt 0.50000000 0.50000000
vt 0.50000000 0.50000000
vt 0.50000000 0.50000000
vt 0.50000000 0.50000000
vt 0.50000000 0.50000000
vt 0.50000000 0.50000000
vt 0.50000000 0.50000000
vt 0.50000000 0.50000000
vt 0.50000000 0.50000000
vt 0.50000000 0.50000000
vt 0.50000000 0.50000000
vt 0.50000000 0.50000000
vt 0.50000000 0.50000000
vt 0.50000000 0.50000000
vt 0.50000000 0.50000000
vt 0.50000000 0.50000000
vt 0.50000000 0.50000000
vt 0.50000000 0.50000000
vt 0.50000000 0.50000000
vt 0.50000000 0.50000000
vt 0.50000000 0.50000000
vt 0.50000000 0.50000000
vt 0.50000000 0.50000000
vt 0.50000000 0.50000000
vt 0.50000000 0.50000000
vt 0.50000000 0.50000000
vt 0.50000000 0.50000000
vt 0.50000000 0.50000000
vt 0.50000000 0.50000000
vt 0.50000000 0.50000000
vt 0.50000000 0.50000000
vt 0.50000000 0.50000000
vt 0.50000000 0.50000000
vt 0.50000000 0.50000000
vt 0.50000000 0.50000000
vt 0.50000000 0.50000000
vt 0.50000000 0.50000000
vt 0.50000000 0.50000000
vt 0.50000000 0.50000000
vt 0.50000000 0.50000000
vt 0.50000000 0.50000000
vt 0.50000000 0.50000000
vt 0.50000000 0.50000000
vt 0.50000000 0.50000000
vt 0.50000000 0.50000000
vt 0.50000000 0.50000000
vt 0.50000000 0.50000000
vt 0.50000000 0.50000000
vt 0.50000000 0.50000000
vt 0.50000000 0.50000000
vt 0.50000000 0.50000000
vt 0.50000000 0.50000000
vt 0.50000000 0.50000000
vt 0.50000000 0.50000000
vt 0.50000000 0.50000000
vt 0.50000000 0.50000000
vt 0.50000000 0.50000000
vt 0.50000000 0.50000000
vt 0.50000000 0.50000000
vt 0.50000000 0.50000000
vt 0.50000000 0.50000000
vt 0.50000000 0.50000000
vt 0.50000000 0.50000000
vt 0.50000000 0.50000000
vt 0.50000000 0.50000000
vt 0.50000000 0.50000000
vt 0.50000000 0.50000000
vt 0.50000000 0.50000000
vt 0.50000000 0.50000000
vt 0.50000000 0.50000000
vt 0.50000000 0.50000000
vt 0.50000000 0.50000000
vt 0.50000000 0.50000000
vt 0.50000000 0.50000000
vt 0.50000000 0.50000000
vt 0.50000000 0.50000000
vt 0.50000000 0.50000000
vt 0.50000000 0.50000000
vt 0.50000000 0.50000000
vt 0.50000000 0.50000000
vt 0.50000000 0.50000000
vt 0.50000000 0.50000000
vt 0.50000000 0.50000000
vt 0.50000000 0.50000000
vt 0.50000000 0.50000000
vt 0.50000000 0.50000000
vt 0.50000000 0.50000000
vt 0.50000000 0.50000000
vt 0.50000000 0.50000000
vt 0.50000000 0.50000000
vt 0.50000000 0.50000000
vt 0.50000000 0.50000000
vt 0.50000000 0.50000000
vt 0.50000000 0.50000000
vt 0.50000000 0.50000000
vt 0.50000000 0.50000000
vt 0.50000000 0.50000000
vt 0.50000000 0.50000000
vt 0.50000000 0.50000000
vt 0.50000000 0.50000000
vt 0.50000000 0.50000000
vt 0.50000000 0.50000000
vt 0.50000000 0.50000000
vt 0.50000000 0.50000000
vt 0.50000000 0.50000000
vt 0.50000000 0.50000000
vt 0.50000000 0.50000000
vt 0.50000000 0.50000000
vt 0.50000000 0.50000000
vt 0.50000000 0.50000000
vt 0.50000000 0.50000000
vt 0.50000000 0.50000000
vt 0.50000000 0.50000000
vt 0.50000000 0.50000000
vt 0.50000000 0.50000000
vt 0.50000000 0.50000000
vt 0.50000000 0.50000000
vt 0.50000000 0.50000000
vt 0.50000000 0.50000000
vt 0.50000000 0.50000000
vt 0.50000000 0.50000000
vt 0.50000000 0.50000000
vt 0.50000000 0.50000000
vt 0.50000000 0.50000000
vt 0.50000000 0.50000000
vt 0.50000000 0.50000000
vt 0.50000000 0.50000000
vt 0.50000000 0.50000000
vt 0.50000000 0.50000000
vt 0.50000000 0.50000000
vt 0.50000000 0.50000000
vt 0.50000000 0.50000000
vt 0.50000000 0.50000000
vt 0.50000000 0.50000000
vt 0.50000000 0.50000000
vt 0.50000000 0.50000000
vt 0.50000000 0.50000000
vt 0.50000000 0.50000000
vt 0.50000000 0.50000000
vt 0.50000000 0.50000000
vt 0.50000000 0.50000000
vt 0.50000000 0.50000000
vt 0.50000000 0.50000000
vt 0.50000000 0.50000000
vt 0.50000000 0.50000000
vt 0.50000000 0.50000000
vt 0.50000000 0.50000000
vt 0.50000000 0.50000000
vt 0.50000000 0.50000000
vt 0.50000000 0.50000000
vt 0.50000000 0.50000000
vt 0.50000000 0.50000000
vt 0.50000000 0.50000000
vt 0.50000000 0.50000000
vt 0.50000000 0.50000000
vt 0.50000000 0.50000000
vt 0.50000000 0.50000000
vt 0.50000000 0.50000000
vt 0.50000000 0.50000000
vt 0.50000000 0.50000000
vt 0.50000000 0.50000000
vt 0.50000000 0.50000000
vt 0.50000000 0.50000000
vt 0.50000000 0.50000000
vt 0.50000000 0.50000000
vt 0.50000000 0.50000000
vt 0.50000000 0.50000000
vt 0.50000000 0.50000000
vt 0.50000000 0.50000000
vt 0.50000000 0.50000000
vt 0.50000000 0.50000000
vt 0.50000000 0.50000000
vt 0.50000000 0.50000000
vt 0.50000000 0.50000000
vt 0.50000000 0.50000000
vt 0.50000000 0.50000000
vt 0.50000000 0.50000000
vt 0.50000000 0.50000000
vt 0.50000000 0.50000000
vt 0.50000000 0.50000000
vt 0.50000000 0.50000000
vt 0.50000000 0.50000000
vt 0.50000000 0.50000000
vt 0.50000000 0.50000000
vt 0.50000000 0.50000000
vt 0.50000000 0.50000000
vt 0.50000000 0.50000000
vt 0.50000000 0.50000000
vt 0.50000000 0.50000000
vt 0.50000000 0.50000000
vt 0.50000000 0.50000000
vt 0.50000000 0.50000000
vt 0.50000000 0.50000000
vt 0.50000000 0.50000000
vt 0.50000000 0.50000000
vt 0.50000000 0.50000000
vt 0.50000000 0.50000000
vt 0.50000000 0.50000000
vt 0.50000000 0.50000000
vt 0.50000000 0.50000000
vt 0.50000000 0.50000000
vt 0.50000000 0.50000000
vt 0.50000000 0.50000000
vt 0.50000000 0.50000000
vt 0.50000000 0.50000000
vt 0.50000000 0.50000000
vt 0.50000000 0.50000000
vt 0.50000000 0.50000000
vt 0.50000000 0.50000000
vt 0.50000000 0.50000000
vt 0.50000000 0.50000000
vt 0.50000000 0.50000000
vt 0.50000000 0.50000000
vt 0.50000000 0.50000000
vt 0.50000000 0.50000000
vt 0.50000000 0.50000000
vt 0.50000000 0.50000000
vt 0.50000000 0.50000000
vt 0.50000000 0.50000000
vt 0.50000000 0.50000000
vt 0.50000000 0.50000000
vt 0.50000000 0.50000000
vt 0.50000000 0.50000000
vt 0.50000000 0.50000000
vt 0.50000000 0.50000000
vt 0.50000000 0.50000000
vt 0.50000000 0.50000000
vt 0.50000000 0.50000000
vt 0.50000000 0.50000000
vt 0.50000000 0.50000000
vt 0.50000000 0.50000000
vt 0.50000000 0.50000000
vt 0.50000000 0.50000000
vt 0.50000000 0.50000000
vt 0.50000000 0.50000000
vt 0.50000000 0.50000000
vt 0.50000000 0.50000000
vt 0.50000000 0.50000000
vt 0.50000000 0.50000000
vt 0.50000000 0.50000000
vt 0.50000000 0.50000000
vt 0.50000000 0.50000000
vt 0.50000000 0.50000000
vt 0.50000000 0.50000000
vt 0.50000000 0.50000000
vt 0.50000000 0.50000000
vt 0.50000000 0.50000000
vt 0.50000000 0.50000000
vt 0.50000000 0.50000000
vt 0.50000000 0.50000000
vt 0.50000000 0.50000000
vt 0.50000000 0.50000000
vt 0.50000000 0.50000000
vt 0.50000000 0.50000000
vt 0.50000000 0.50000000
vt 0.50000000 0.50000000
vt 0.50000000 0.50000000
vt 0.50000000 0.50000000
vt 0.50000000 0.50000000
vt 0.50000000 0.50000000
vt 0.50000000 0.50000000
vt 0.50000000 0.50000000
vt 0.50000000 0.50000000
vt 0.50000000 0.50000000
vt 0.50000000 0.50000000
vt 0.50000000 0.50000000
vt 0.50000000 0.50000000
vt 0.50000000 0.50000000
vt 0.50000000 0.50000000
vt 0.50000000 0.50000000
vt 0.50000000 0.50000000
vt 0.50000000 0.50000000
vt 0.50000000 0.50000000
vt 0.50000000 0.50000000
vt 0.50000000 0.50000000
vt 0.50000000 0.50000000
vt 0.50000000 0.50000000
vt 0.50000000 0.50000000
vt 0.50000000 0.50000000
vt 0.50000000 0.50000000
vt 0.50000000 0.50000000
vt 0.50000000 0.50000000
vt 0.50000000 0.50000000
vt 0.50000000 0.50000000
vt 0.50000000 0.50000000
vt 0.50000000 0.50000000
vt 0.50000000 0.50000000
vt 0.50000000 0.50000000
vt 0.50000000 0.50000000
vt 0.50000000 0.50000000
vt 0.50000000 0.50000000
vt 0.50000000 0.50000000
vt 0.50000000 0.50000000
vt 0.50000000 0.50000000
vt 0.50000000 0.50000000
vt 0.50000000 0.50000000
vt 0.50000000 0.50000000
vt 0.50000000 0.50000000
vt 0.50000000 0.50000000
vt 0.50000000 0.50000000
vt 0.50000000 0.50000000
vt 0.50000000 0.50000000
vt 0.50000000 0.50000000
vt 0.50000000 0.50000000
vt 0.50000000 0.50000000
vt 0.50000000 0.50000000
vt 0.50000000 0.50000000
vt 0.50000000 0.50000000
vt 0.50000000 0.50000000
vt 0.50000000 0.50000000
vt 0.50000000 0.50000000
vt 0.50000000 0.50000000
vt 0.50000000 0.50000000
vt 0.50000000 0.50000000
vt 0.50000000 0.50000000
vt 0.50000000 0.50000000
vt 0.50000000 0.50000000
vt 0.50000000 0.50000000
vt 0.50000000 0.50000000
vt 0.50000000 0.50000000
vt 0.50000000 0.50000000
vt 0.50000000 0.50000000
vt 0.50000000 0.50000000
vt 0.50000000 0.50000000
vt 0.50000000 0.50000000
vt 0.50000000 0.50000000
vt 0.50000000 0.50000000
vt 0.50000000 0.50000000
vt 0.50000000 0.50000000
vt 0.50000000 0.50000000
vt 0.50000000 0.50000000
vt 0.50000000 0.50000000
vt 0.50000000 0.50000000
vt 0.50000000 0.50000000
vt 0.50000000 0.50000000
vt 0.50000000 0.50000000
vt 0.50000000 0.50000000
vt 0.50000000 0.50000000
vt 0.50000000 0.50000000
vt 0.50000000 0.50000000
vt 0.50000000 0.50000000
vt 0.50000000 0.50000000
vt 0.50000000 0.50000000
vt 0.50000000 0.50000000
vt 0.50000000 0.50000000
vt 0.50000000 0.50000000
vt 0.50000000 0.50000000
vt 0.50000000 0.50000000
vt 0.50000000 0.50000000
vt 0.50000000 0.50000000
vt 0.50000000 0.50000000
vt 0.50000000 0.50000000
vt 0.50000000 0.50000000
vt 0.50000000 0.50000000
vt 0.50000000 0.50000000
vt 0.50000000 0.50000000
vt 0.50000000 0.50000000
vt 0.50000000 0.50000000
vt 0.50000000 0.50000000
vt 0.50000000 0.50000000
vt 0.50000000 0.50000000
vt 0.50000000 0.50000000
vt 0.50000000 0.50000000
vt 0.50000000 0.50000000
vt 0.50000000 0.50000000
vt 0.50000000 0.50000000
vt 0.50000000 0.50000000
vt 0.50000000 0.50000000
vt 0.50000000 0.50000000
vt 0.50000000 0.50000000
vt 0.50000000 0.50000000
vt 0.50000000 0.50000000
vt 0.50000000 0.50000000
vt 0.50000000 0.50000000
vt 0.50000000 0.50000000
vt 0.50000000 0.50000000
vt 0.50000000 0.50000000
vt 0.50000000 0.50000000
vt 0.50000000 0.50000000
vt 0.50000000 0.50000000
vt 0.50000000 0.50000000
vt 0.50000000 0.50000000
vt 0.50000000 0.50000000
vt 0.50000000 0.50000000
vt 0.50000000 0.50000000
vt 0.50000000 0.50000000
vt 0.50000000 0.50000000
vt 0.50000000 0.50000000
vt 0.50000000 0.50000000
vt 0.50000000 0.50000000
vt 0.50000000 0.50000000
vt 0.50000000 0.50000000
vt 0.50000000 0.50000000
vt 0.50000000 0.50000000
vt 0.50000000 0.50000000
vt 0.50000000 0.50000000
vt 0.50000000 0.50000000
vt 0.50000000 0.50000000
vt 0.50000000 0.50000000
vt 0.50000000 0.50000000
vt 0.50000000 0.50000000
vt 0.50000000 0.50000000
vt 0.50000000 0.50000000
vt 0.50000000 0.50000000
vt 0.50000000 0.50000000
vt 0.50000000 0.50000000
vt 0.50000000 0.50000000
vt 0.50000000 0.50000000
vt 0.50000000 0.50000000
vt 0.50000000 0.50000000
vt 0.50000000 0.50000000
vt 0.50000000 0.50000000
vt 0.50000000 0.50000000
vt 0.50000000 0.50000000
vt 0.50000000 0.50000000
vt 0.50000000 0.50000000
vt 0.50000000 0.50000000
vt 0.50000000 0.50000000
vt 0.50000000 0.50000000
vt 0.50000000 0.50000000
vt 0.50000000 0.50000000
vt 0.50000000 0.50000000
vt 0.50000000 0.50000000
vt 0.50000000 0.50000000
vt 0.50000000 0.50000000
vt 0.50000000 0.50000000
vt 0.50000000 0.50000000
vt 0.50000000 0.50000000
vt 0.50000000 0.50000000
vt 0.50000000 0.50000000
vt 0.50000000 0.50000000
vt 0.50000000 0.50000000
vt 0.50000000 0.50000000
vt 0.50000000 0.50000000
vt 0.50000000 0.50000000
vt 0.50000000 0.50000000
vt 0.50000000 0.50000000
vt 0.50000000 0.50000000
vt 0.50000000 0.50000000
vt 0.50000000 0.50000000
vt 0.50000000 0.50000000
vt 0.50000000 0.50000000
vt 0.50000000 0.50000000
vt 0.50000000 0.50000000
vt 0.50000000 0.50000000
vt 0.50000000 0.50000000
vt 0.50000000 0.50000000
vt 0.50000000 0.50000000
vt 0.50000000 0.50000000
vt 0.50000000 0.50000000
vt 0.50000000 0.50000000
vt 0.50000000 0.50000000
vt 0.50000000 0.50000000
vt 0.50000000 0.50000000
vt 0.50000000 0.50000000
vt 0.50000000 0.50000000
vt 0.50000000 0.50000000
vt 0.50000000 0.50000000
vt 0.50000000 0.50000000
vt 0.50000000 0.50000000
vt 0.50000000 0.50000000
vt 0.50000000 0.50000000
vt 0.50000000 0.50000000
vt 0.50000000 0.50000000
vt 0.50000000 0.50000000
vt 0.50000000 0.50000000
vt 0.50000000 0.50000000
vt 0.50000000 0.50000000
vt 0.50000000 0.50000000
vt 0.50000000 0.50000000
vt 0.50000000 0.50000000
vt 0.50000000 0.50000000
vt 0.50000000 0.50000000
vt 0.50000000 0.50000000
vt 0.50000000 0.50000000
vt 0.50000000 0.50000000
vt 0.50000000 0.50000000
vt 0.50000000 0.50000000
vt 0.50000000 0.50000000
vt 0.50000000 0.50000000
vt 0.50000000 0.50000000
vt 0.50000000 0.50000000
vt 0.50000000 0.50000000
vt 0.50000000 0.50000000
vt 0.50000000 0.50000000
vt 0.50000000 0.50000000
vt 0.50000000 0.50000000
vt 0.50000000 0.50000000
vt 0.50000000 0.50000000
vt 0.50000000 0.50000000
vt 0.50000000 0.50000000
vt 0.50000000 0.50000000
vt 0.50000000 0.50000000
vt 0.50000000 0.50000000
vt 0.50000000 0.50000000
vt 0.50000000 0.50000000
vt 0.50000000 0.50000000
vt 0.50000000 0.50000000
vt 0.50000000 0.50000000
vt 0.50000000 0.50000000
vt 0.50000000 0.50000000
vt 0.50000000 0.50000000
vt 0.50000000 0.50000000
vt 0.50000000 0.50000000
vt 0.50000000 0.50000000
vt 0.50000000 0.50000000
vt 0.50000000 0.50000000
vt 0.50000000 0.50000000
vt 0.50000000 0.50000000
vt 0.50000000 0.50000000
vt 0.50000000 0.50000000
vt 0.50000000 0.50000000
vt 0.50000000 0.50000000
vt 0.50000000 0.50000000
vt 0.50000000 0.50000000
vt 0.50000000 0.50000000
vt 0.50000000 0.50000000
vt 0.50000000 0.50000000
vt 0.50000000 0.50000000
vt 0.50000000 0.50000000
vt 0.50000000 0.50000000
vt 0.50000000 0.50000000
vt 0.50000000 0.50000000
vt 0.50000000 0.50000000
vt 0.50000000 0.50000000
vt 0.50000000 0.50000000
vt 0.50000000 0.50000000
vt 0.50000000 0.50000000
vt 0.50000000 0.50000000
vt 0.50000000 0.50000000
vt 0.50000000 0.50000000
vt 0.50000000 0.50000000
vt 0.50000000 0.50000000
vt 0.50000000 0.50000000
vt 0.50000000 0.50000000
vt 0.50000000 0.50000000
vt 0.50000000 0.50000000
vt 0.50000000 0.50000000
vt 0.50000000 0.50000000
vt 0.50000000 0.50000000
vt 0.50000000 0.50000000
vt 0.50000000 0.50000000
vt 0.50000000 0.50000000
vt 0.50000000 0.50000000
vt 0.50000000 0.50000000
vt 0.50000000 0.50000000
vt 0.50000000 0.50000000
vt 0.50000000 0.50000000
vt 0.50000000 0.50000000
vt 0.50000000 0.50000000
vt 0.50000000 0.50000000
vt 0.50000000 0.50000000
vt 0.50000000 0.50000000
vt 0.50000000 0.50000000
vt 0.50000000 0.50000000
vt 0.50000000 0.50000000
vt 0.50000000 0.50000000
vt 0.50000000 0.50000000
vt 0.50000000 0.50000000
vt 0.50000000 0.50000000
vt 0.50000000 0.50000000
vt 0.50000000 0.50000000
vt 0.50000000 0.50000000
vt 0.50000000 0.50000000
vt 0.50000000 0.50000000
vt 0.50000000 0.50000000
vt 0.50000000 0.50000000
vt 0.50000000 0.50000000
vt 0.50000000 0.50000000
vt 0.50000000 0.50000000
vt 0.50000000 0.50000000
vt 0.50000000 0.50000000
vt 0.50000000 0.50000000
vt 0.50000000 0.50000000
vt 0.50000000 0.50000000
vt 0.50000000 0.50000000
vt 0.50000000 0.50000000
vt 0.50000000 0.50000000
vt 0.50000000 0.50000000
vt 0.50000000 0.50000000
vt 0.50000000 0.50000000
vt 0.50000000 0.50000000
vt 0.50000000 0.50000000
vt 0.50000000 0.50000000
vt 0.50000000 0.50000000
vt 0.50000000 0.50000000
vt 0.50000000 0.50000000
vt 0.50000000 0.50000000
vt 0.50000000 0.50000000
vt 0.50000000 0.50000000
vt 0.50000000 0.50000000
vt 0.50000000 0.50000000
vt 0.50000000 0.50000000
vt 0.50000000 0.50000000
vt 0.50000000 0.50000000
vt 0.50000000 0.50000000
vt 0.50000000 0.50000000
vt 0.50000000 0.50000000
vt 0.50000000 0.50000000
vt 0.50000000 0.50000000
vt 0.50000000 0.50000000
vt 0.50000000 0.50000000
vt 0.50000000 0.50000000
vt 0.50000000 0.50000000
vt 0.50000000 0.50000000
vt 0.50000000 0.50000000
vt 0.50000000 0.50000000
vt 0.50000000 0.50000000
vt 0.50000000 0.50000000
vt 0.50000000 0.50000000
vt 0.50000000 0.50000000
vt 0.50000000 0.50000000
vt 0.50000000 0.50000000
vt 0.50000000 0.50000000
vt 0.50000000 0.50000000
vt 0.50000000 0.50000000
vt 0.50000000 0.50000000
vt 0.50000000 0.50000000
vt 0.50000000 0.50000000
vt 0.50000000 0.50000000
vt 0.50000000 0.50000000
vt 0.50000000 0.50000000
vt 0.50000000 0.50000000
vt 0.50000000 0.50000000
vt 0.50000000 0.50000000
vt 0.50000000 0.50000000
vt 0.50000000 0.50000000
vt 0.50000000 0.50000000
vt 0.50000000 0.50000000
vt 0.50000000 0.50000000
vt 0.50000000 0.50000000
vt 0.50000000 0.50000000
vt 0.50000000 0.50000000
vt 0.50000000 0.50000000
vt 0.50000000 0.50000000
vt 0.50000000 0.50000000
vt 0.50000000 0.50000000
vt 0.50000000 0.50000000
vt 0.50000000 0.50000000
vt 0.50000000 0.50000000
vt 0.50000000 0.50000000
vt 0.50000000 0.50000000
vt 0.50000000 0.50000000
vt 0.50000000 0.50000000
vt 0.50000000 0.50000000
vt 0.50000000 0.50000000
vt 0.50000000 0.50000000
vt 0.50000000 0.50000000
vt 0.50000000 0.50000000
vt 0.50000000 0.50000000
vt 0.50000000 0.50000000
vt 0.50000000 0.50000000
vt 0.50000000 0.50000000
vt 0.50000000 0.50000000
vt 0.50000000 0.50000000
vt 0.50000000 0.50000000
vt 0.50000000 0.50000000
vt 0.50000000 0.50000000
vt 0.50000000 0.50000000
vt 0.50000000 0.50000000
vt 0.50000000 0.50000000
vt 0.50000000 0.50000000
vt 0.50000000 0.50000000
vt 0.50000000 0.50000000
vt 0.50000000 0.50000000
vt 0.50000000 0.50000000
vt 0.50000000 0.50000000
vt 0.50000000 0.50000000
vt 0.50000000 0.50000000
vt 0.50000000 0.50000000
vt 0.50000000 0.50000000
vt 0.50000000 0.50000000
vt 0.50000000 0.50000000
vt 0.50000000 0.50000000
vt 0.50000000 0.50000000
vt 0.50000000 0.50000000
vt 0.50000000 0.50000000
vt 0.50000000 0.50000000
vt 0.50000000 0.50000000
vt 0.50000000 0.50000000
vt 0.50000000 0.50000000
vt 0.50000000 0.50000000
vt 0.50000000 0.50000000
vt 0.50000000 0.50000000
vt 0.50000000 0.50000000
vt 0.50000000 0.50000000
vt 0.50000000 0.50000000
vt 0.50000000 0.50000000
vt 0.50000000 0.50000000
vt 0.50000000 0.50000000
vt 0.50000000 0.50000000
vt 0.50000000 0.50000000
vt 0.50000000 0.50000000
vt 0.50000000 0.50000000
vt 0.50000000 0.50000000
vt 0.50000000 0.50000000
vt 0.50000000 0.50000000
vt 0.50000000 0.50000000
vt 0.50000000 0.50000000
vt 0.50000000 0.50000000
vt 0.50000000 0.50000000
vt 0.50000000 0.50000000
vt 0.50000000 0.50000000
vt 0.50000000 0.50000000
vt 0.50000000 0.50000000
vt 0.50000000 0.50000000
vt 0.50000000 0.50000000
vt 0.50000000 0.50000000
vt 0.50000000 0.50000000
vt 0.50000000 0.50000000
vt 0.50000000 0.50000000
vt 0.50000000 0.50000000
vt 0.50000000 0.50000000
vt 0.50000000 0.50000000
vt 0.50000000 0.50000000
vt 0.50000000 0.50000000
vt 0.50000000 0.50000000
vt 0.50000000 0.50000000
vt 0.50000000 0.50000000
vt 0.50000000 0.50000000
vt 0.50000000 0.50000000
vt 0.50000000 0.50000000
vt 0.50000000 0.50000000
vt 0.50000000 0.50000000
vt 0.50000000 0.50000000
vt 0.50000000 0.50000000
vt 0.50000000 0.50000000
vt 0.50000000 0.50000000
vt 0.50000000 0.50000000
vt 0.50000000 0.50000000
vt 0.50000000 0.50000000
vt 0.50000000 0.50000000
vt 0.50000000 0.50000000
vt 0.50000000 0.50000000
vt 0.50000000 0.50000000
vt 0.50000000 0.50000000
vt 0.50000000 0.50000000
vt 0.50000000 0.50000000
vt 0.50000000 0.50000000
vt 0.50000000 0.50000000
vt 0.50000000 0.50000000
vt 0.50000000 0.50000000
vt 0.50000000 0.50000000
vt 0.50000000 0.50000000
vt 0.50000000 0.50000000
vt 0.50000000 0.50000000
vt 0.50000000 0.50000000
vt 0.50000000 0.50000000
vt 0.50000000 0.50000000
vt 0.50000000 0.50000000
vt 0.50000000 0.50000000
vt 0.50000000 0.50000000
vt 0.50000000 0.50000000
vt 0.50000000 0.50000000
vt 0.50000000 0.50000000
vt 0.50000000 0.50000000
vt 0.50000000 0.50000000
vt 0.50000000 0.50000000
vt 0.50000000 0.50000000
vt 0.50000000 0.50000000
vt 0.50000000 0.50000000
vt 0.50000000 0.50000000
vt 0.50000000 0.50000000
vt 0.50000000 0.50000000
vt 0.50000000 0.50000000
vt 0.50000000 0.50000000
vt 0.50000000 0.50000000
vt 0.50000000 0.50000000
vt 0.50000000 0.50000000
vt 0.50000000 0.50000000
vt 0.50000000 0.50000000
vt 0.50000000 0.50000000
vt 0.50000000 0.50000000
vt 0.50000000 0.50000000
vt 0.50000000 0.50000000
f 1/1 2/2 3/3
f 3/3 4/4 1/1
f 5/5 6/6 7/7
f 7/7 8/8 5/5
f 9/9 10/10 11/11
f 12/12 9/9 13/13
f 14/14 12/12 15/15
f 16/16 14/14 17/17
f 17/17 18/18 16/16
f 15/15 17/17 14/14
f 13/13 15/15 12/12
f 11/11 13/13 9/9
f 19/19 20/20 21/21
f 21/21 22/22 19/19
f 23/23 24/24 25/25
f 26/26 23/23 27/27
f 28/28 26/26 29/29
f 30/30 28/28 31/31
f 31/31 32/32 30/30
f 29/29 31/31 28/28
f 27/27 29/29 26/26
f 25/25 27/27 23/23
f 33/33 34/34 35/35
f 35/35 36/36 33/33
f 37/37 38/38 39/39
f 40/40 37/37 41/41
f 42/42 40/40 43/43
f 44/44 42/42 45/45
f 45/45 46/46 44/44
f 43/43 45/45 42/42
f 41/41 43/43 40/40
f 39/39 41/41 37/37
f 47/47 48/48 49/49
f 49/49 50/50 47/47
f 51/51 52/52 53/53
f 54/54 51/51 55/55
f 56/56 54/54 57/57
f 58/58 56/56 59/59
f 59/59 60/60 58/58
f 57/57 59/59 56/56
f 55/55 57/57 54/54
f 53/53 55/55 51/51
f 61/61 62/62 63/63
f 64/64 61/61 65/65
f 66/66 64/64 67/67
f 68/68 66/66 69/69
f 69/69 70/70 68/68
f 67/67 69/69 66/66
f 65/65 67/67 64/64
f 63/63 65/65 61/61
f 71/71 72/72 73/73
f 73/73 74/74 71/71
f 75/75 76/76 77/77
f 78/78 75/75 79/79
f 80/80 78/78 81/81
f 82/82 80/80 83/83
f 83/83 84/84 82/82
f 81/81 83/83 80/80
f 79/79 81/81 78/78
f 77/77 79/79 75/75
f 85/85 86/86 87/87
f 87/87 88/88 85/85
f 89/89 90/90 91/91
f 92/92 89/89 93/93
f 94/94 92/92 95/95
f 96/96 94/94 97/97
f 97/97 98/98 96/96
f 95/95 97/97 94/94
f 93/93 95/95 92/92
f 91/91 93/93 89/89
f 99/99 100/100 101/101
f 101/101 102/102 99/99
f 103/103 104/104 105/105
f 106/106 103/103 107/107
f 108/108 106/106 109/109
f 110/110 108/108 111/111
f 111/111 112/112 110/110
f 109/109 111/111 108/108
f 107/107 109/109 106/106
f 105/105 107/107 103/103
f 113/113 114/114 115/115
f 115/115 114/114 116/116
f 117/117 118/118 119/119
f 116/116 120/120 115/115
f 121/121 122/122 120/120
f 123/123 124/124 125/125
f 119/119 123/123 117/117
f 126/126 127/127 118/118
f 128/128 129/129 130/130
f 120/120 116/116 121/121
f 131/131 132/132 122/122
f 133/133 123/123 134/134
f 124/124 135/135 125/125
f 118/118 117/117 126/126
f 126/126 136/136 137/137
f 138/138 139/139 140/140
f 129/129 141/141 130/130
f 142/142 113/113 143/143
f 122/122 121/121 131/131
f 125/125 134/134 123/123
f 137/137 127/127 126/126
f 139/139 144/144 140/140
f 145/145 146/146 144/144
f 147/147 145/145 128/128
f 148/148 149/149 150/150
f 115/115 143/143 113/113
f 131/131 133/133 151/151
f 135/135 152/152 153/153
f 119/119 124/124 123/123
f 138/138 154/154 155/155
f 144/144 139/139 145/145
f 130/130 147/147 128/128
f 150/150 139/139 148/148
f 156/156 157/157 149/149
f 151/151 132/132 131/131
f 134/134 151/151 133/133
f 158/158 159/159 160/160
f 161/161 155/155 159/159
f 140/140 154/154 138/138
f 147/147 162/162 145/145
f 149/149 148/148 156/156
f 142/142 163/163 157/157
f 153/153 125/125 135/135
f 152/152 141/141 164/164
f 159/159 158/158 161/161
f 162/162 146/146 145/145
f 150/150 165/165 139/139
f 143/143 163/163 142/142
f 166/166 167/167 168/168
f 160/160 168/168 167/167
f 141/141 129/129 164/164
f 155/155 161/161 138/138
f 157/157 156/156 142/142
f 136/136 166/166 169/169
f 167/167 170/170 160/160
f 164/164 171/171 152/152
f 165/165 145/145 139/139
f 168/168 169/169 166/166
f 171/171 172/172 152/152
f 169/169 137/137 136/136
f 160/160 170/170 158/158
f 172/172 153/153 152/152
f 173/173 174/174 175/175
f 176/176 175/175 177/177
f 173/173 178/178 179/179
f 173/173 180/180 181/181
f 180/180 182/182 183/183
f 181/181 178/178 173/173
f 183/183 184/184 180/180
f 185/185 186/186 187/187
f 173/173 188/188 189/189
f 184/184 181/181 180/180
f 180/180 190/190 191/191
f 190/190 192/192 193/193
f 187/187 190/190 185/185
f 179/179 188/188 173/173
f 190/190 194/194 191/191
f 187/187 192/192 190/190
f 185/185 195/195 196/196
f 191/191 182/182 180/180
f 196/196 186/186 185/185
f 193/193 194/194 190/190
f 185/185 189/189 195/195
f 180/180 173/173 176/176
f 197/197 176/176 198/198
f 199/199 200/200 190/190
f 201/201 190/190 180/180
f 202/202 203/203 204/204
f 205/205 206/206 207/207
f 204/204 197/197 202/202
f 205/205 208/208 206/206
f 205/205 180/180 209/209
f 180/180 197/197 210/210
f 197/197 211/211 212/212
f 202/202 213/213 203/203
f 207/207 202/202 205/205
f 209/209 214/214 205/205
f 210/210 215/215 180/180
f 197/197 216/216 211/211
f 202/202 217/217 213/213
f 207/207 218/218 202/202
f 180/180 219/219 209/209
f 215/215 220/220 180/180
f 204/204 216/216 197/197
f 205/205 221/221 208/208
f 214/214 222/222 205/205
f 220/220 223/223 180/180
f 218/218 217/217 202/202
f 223/223 219/219 180/180
f 222/222 221/221 205/205
f 224/224 225/225 226/226
f 224/224 202/202 227/227
f 202/202 197/197 228/228
f 229/229 230/230 231/231
f 226/226 229/229 224/224
f 227/227 232/232 224/224
f 228/228 233/233 202/202
f 231/231 197/197 229/229
f 224/224 234/234 225/225
f 202/202 235/235 227/227
f 197/197 236/236 228/228
f 231/231 237/237 197/197
f 226/226 238/238 229/229
f 202/202 239/239 235/235
f 233/233 240/240 202/202
f 237/237 241/241 197/197
f 229/229 242/242 243/243
f 224/224 244/244 234/234
f 232/232 245/245 224/224
f 241/241 236/236 197/197
f 238/238 242/242 229/229
f 240/240 239/239 202/202
f 245/245 244/244 224/224
f 224/224 229/229 246/246
f 247/247 199/199 201/201
f 248/248 201/201 205/205
f 202/202 249/249 250/250
f 251/251 252/252 253/253
f 250/250 254/254 202/202
f 251/251 255/255 252/252
f 202/202 256/256 257/257
f 249/249 258/258 250/250
f 253/253 249/249 251/251
f 205/205 259/259 260/260
f 202/202 261/261 256/256
f 249/249 262/262 258/258
f 253/253 263/263 249/249
f 205/205 264/264 259/259
f 254/254 261/261 202/202
f 251/251 265/265 255/255
f 260/260 251/251 205/205
f 205/205 202/202 266/266
f 263/263 262/262 249/249
f 260/260 267/267 251/251
f 205/205 268/268 269/269
f 266/266 270/270 205/205
f 267/267 265/265 251/251
f 270/270 268/268 205/205
f 269/269 264/264 205/205
f 224/224 271/271 272/272
f 271/271 249/249 273/273
f 202/202 274/274 275/275
f 224/224 276/276 277/277
f 272/272 278/278 224/224
f 273/273 279/279 271/271
f 275/275 249/249 202/202
f 277/277 202/202 224/224
f 271/271 280/280 272/272
f 249/249 281/281 273/273
f 202/202 282/282 274/274
f 277/277 283/283 202/202
f 271/271 284/284 280/280
f 249/249 285/285 281/281
f 275/275 286/286 249/249
f 283/283 287/287 202/202
f 278/278 288/288 224/224
f 279/279 289/289 271/271
f 287/287 282/282 202/202
f 288/288 290/290 224/224
f 286/286 285/285 249/249
f 289/289 284/284 271/271
f 290/290 291/291 224/224
f 271/271 224/224 292/292
f 293/293 251/251 249/249
f 294/294 249/249 271/271
f 185/185 295/295 296/296
f 190/190 200/200 295/295
f 295/295 185/185 190/190
f 185/185 297/297 298/298
f 173/173 185/185 299/299
f 185/185 300/300 301/301
f 301/301 299/299 185/185
f 302/302 303/303 304/304
f 198/198 177/177 303/303
f 303/303 302/302 198/198
f 305/305 306/306 307/307
f 308/308 302/302 305/305
f 246/246 309/309 310/310
f 229/229 311/311 312/312
f 198/198 313/313 314/314
f 198/198 315/315 316/316
f 307/307 308/308 305/305
f 310/310 306/306 246/246
f 229/229 317/317 318/318
f 229/229 314/314 311/311
f 316/316 313/313 198/198
f 310/310 307/307 306/306
f 246/246 319/319 320/320
f 318/318 246/246 229/229
f 314/314 229/229 198/198
f 320/320 309/309 246/246
f 312/312 317/317 229/229
f 198/198 302/302 321/321
f 308/308 322/322 302/302
f 321/321 315/315 198/198
f 318/318 319/319 246/246
f 323/323 324/324 325/325
f 326/326 327/327 328/328
f 329/329 330/330 331/331
f 332/332 333/333 334/334
f 332/332 271/271 335/335
f 271/271 336/336 337/337
f 323/323 338/338 339/339
f 324/324 328/328 325/325
f 328/328 324/324 326/326
f 327/327 340/340 329/329
f 330/330 332/332 341/341
f 335/335 333/333 332/332
f 337/337 342/342 271/271
f 325/325 338/338 323/323
f 331/331 327/327 329/329
f 341/341 343/343 330/330
f 342/342 335/335 271/271
f 326/326 340/340 327/327
f 334/334 341/341 332/332
f 271/271 323/323 344/344
f 339/339 345/345 323/323
f 344/344 336/336 271/271
f 343/343 331/331 330/330
f 251/251 346/346 347/347
f 293/293 348/348 349/349
f 293/293 350/350 351/351
f 352/352 353/353 354/354
f 251/251 349/349 346/346
f 351/351 348/348 293/293
f 354/354 355/355 352/352
f 356/356 248/248 357/357
f 251/251 358/358 359/359
f 349/349 251/251 293/293
f 355/355 360/360 350/350
f 356/356 361/361 353/353
f 248/248 362/362 357/357
f 347/347 358/358 251/251
f 355/355 354/354 360/360
f 357/357 361/361 356/356
f 248/248 363/363 364/364
f 350/350 293/293 355/355
f 364/364 362/362 248/248
f 352/352 356/356 353/353
f 248/248 359/359 363/363
f 248/248 365/365 366/366
f 248/248 356/356 365/365
f 366/366 367/367 248/248
f 367/367 247/247 248/248
f 359/359 248/248 251/251
f 345/345 344/344 323/323
f 322/322 321/321 302/302
f 304/304 368/368 302/302
f 299/299 174/174 173/173
f 298/298 300/300 185/185
f 296/296 297/297 185/185
f 271/271 332/332 294/294
f 249/249 294/294 293/293
f 292/292 323/323 271/271
f 291/291 276/276 224/224
f 257/257 266/266 202/202
f 205/205 251/251 248/248
f 201/201 248/248 247/247
f 246/246 292/292 224/224
f 243/243 230/230 229/229
f 212/212 210/210 197/197
f 180/180 205/205 201/201
f 190/190 201/201 199/199
f 198/198 229/229 197/197
f 176/176 197/197 180/180
f 189/189 185/185 173/173
f 177/177 198/198 176/176
f 175/175 176/176 173/173
f 369/369 370/370 371/371
f 372/372 369/369 373/373
f 374/374 372/372 375/375
f 376/376 374/374 377/377
f 377/377 378/378 376/376
f 375/375 377/377 374/374
f 373/373 375/375 372/372
f 371/371 373/373 369/369
f 379/379 380/380 381/381
f 381/381 382/382 379/379
f 383/383 384/384 385/385
f 385/385 386/386 383/383
f 387/387 388/388 389/389
f 390/390 387/387 391/391
f 392/392 390/390 393/393
f 394/394 392/392 395/395
f 395/395 396/396 394/394
f 393/393 395/395 392/392
f 391/391 393/393 390/390
f 389/389 391/391 387/387
f 397/397 398/398 399/399
f 399/399 400/400 397/397
f 401/401 402/402 403/403
f 404/404 401/401 405/405
f 406/406 404/404 407/407
f 408/408 406/406 409/409
f 409/409 410/410 408/408
f 407/407 409/409 406/406
f 405/405 407/407 404/404
f 403/403 405/405 401/401
f 411/411 412/412 413/413
f 413/413 414/414 411/411
f 415/415 416/416 417/417
f 418/418 415/415 419/419
f 420/420 418/418 421/421
f 422/422 420/420 423/423
f 423/423 424/424 422/422
f 421/421 423/423 420/420
f 419/419 421/421 418/418
f 417/417 419/419 415/415
f 425/425 426/426 427/427
f 427/427 428/428 425/425
f 429/429 430/430 431/431
f 432/432 429/429 433/433
f 434/434 432/432 435/435
f 436/436 434/434 437/437
f 437/437 438/438 436/436
f 435/435 437/437 434/434
f 433/433 435/435 432/432
f 431/431 433/433 429/429
f 439/439 440/440 441/441
f 441/441 442/442 439/439
f 443/443 444/444 445/445
f 446/446 443/443 447/447
f 448/448 446/446 449/449
f 450/450 448/448 451/451
f 451/451 452/452 450/450
f 449/449 451/451 448/448
f 447/447 449/449 446/446
f 445/445 447/447 443/443
f 453/453 454/454 455/455
f 455/455 456/456 453/453
f 457/457 458/458 459/459
f 460/460 457/457 461/461
f 462/462 460/460 463/463
f 464/464 462/462 465/465
f 465/465 466/466 464/464
f 463/463 465/465 462/462
f 461/461 463/463 460/460
f 459/459 461/461 457/457
f 467/467 468/468 469/469
f 469/469 470/470 467/467
f 471/471 472/472 473/473
f 474/474 471/471 475/475
f 476/476 474/474 477/477
f 478/478 476/476 479/479
f 479/479 480/480 478/478
f 477/477 479/479 476/476
f 475/475 477/477 474/474
f 473/473 475/475 471/471
f 481/481 482/482 483/483
f 482/482 484/484 485/485
f 485/485 483/483 482/482
f 486/486 487/487 485/485
f 488/488 489/489 490/490
f 485/485 484/484 486/486
f 491/491 492/492 487/487
f 493/493 494/494 495/495
f 494/494 496/496 497/497
f 498/498 489/489 488/488
f 490/490 499/499 488/488
f 500/500 481/481 501/501
f 487/487 486/486 491/491
f 497/497 495/495 494/494
f 490/490 502/502 499/499
f 503/503 504/504 505/505
f 483/483 501/501 481/481
f 491/491 493/493 506/506
f 496/496 507/507 497/497
f 488/488 508/508 498/498
f 509/509 510/510 511/511
f 505/505 512/512 503/503
f 513/513 514/514 504/504
f 506/506 492/492 491/491
f 496/496 515/515 507/507
f 515/515 516/516 498/498
f 511/511 494/494 509/509
f 517/517 518/518 510/510
f 519/519 503/503 520/520
f 521/521 499/499 502/502
f 504/504 503/503 513/513
f 495/495 506/506 493/493
f 515/515 496/496 516/516
f 510/510 509/509 517/517
f 517/517 522/522 523/523
f 524/524 525/525 526/526
f 527/527 526/526 525/525
f 528/528 519/519 529/529
f 503/503 512/512 520/520
f 530/530 531/531 521/521
f 505/505 532/532 512/512
f 513/513 500/500 533/533
f 508/508 515/515 498/498
f 523/523 518/518 517/517
f 522/522 524/524 534/534
f 525/525 535/535 527/527
f 536/536 537/537 527/527
f 538/538 539/539 537/537
f 528/528 540/540 539/539
f 520/520 529/529 519/519
f 502/502 530/530 521/521
f 533/533 514/514 513/513
f 511/511 496/496 494/494
f 526/526 534/534 524/524
f 537/537 536/536 538/538
f 529/529 540/540 528/528
f 532/532 531/531 512/512
f 534/534 523/523 522/522
f 539/539 538/538 528/528
f 501/501 533/533 500/500
f 530/530 512/512 531/531
f 527/527 535/535 536/536
f 541/541 542/542 543/543
f 544/544 543/543 545/545
f 546/546 545/545 547/547
f 548/548 547/547 549/549
f 549/549 550/550 548/548
f 547/547 548/548 546/546
f 545/545 546/546 544/544
f 543/543 544/544 541/541
f 551/551 552/552 553/553
f 553/553 554/554 551/551
f 555/555 556/556 557/557
f 558/558 557/557 559/559
f 560/560 559/559 561/561
f 562/562 561/561 563/563
f 563/563 564/564 562/562
f 561/561 562/562 560/560
f 559/559 560/560 558/558
f 557/557 558/558 555/555
f 565/565 566/566 567/567
f 567/567 568/568 565/565
f 569/569 570/570 571/571
f 572/572 571/571 573/573
f 574/574 573/573 575/575
f 576/576 575/575 577/577
f 577/577 578/578 576/576
f 575/575 576/576 574/574
f 573/573 574/574 572/572
f 571/571 572/572 569/569
f 579/579 580/580 581/581
f 581/581 582/582 579/579
f 583/583 584/584 585/585
f 586/586 585/585 587/587
f 588/588 587/587 589/589
f 590/590 589/589 591/591
f 591/591 592/592 590/590
f 589/589 590/590 588/588
f 587/587 588/588 586/586
f 585/585 586/586 583/583
f 593/593 594/594 595/595
f 595/595 596/596 593/593
f 597/597 598/598 599/599
f 600/600 599/599 601/601
f 602/602 601/601 603/603
f 604/604 603/603 605/605
f 605/605 606/606 604/604
f 603/603 604/604 602/602
f 601/601 602/602 600/600
f 599/599 600/600 597/597
f 607/607 608/608 609/609
f 609/609 610/610 607/607
f 611/611 612/612 613/613
f 614/614 613/613 615/615
f 616/616 615/615 617/617
f 618/618 617/617 619/619
f 619/619 620/620 618/618
f 617/617 618/618 616/616
f 615/615 616/616 614/614
f 613/613 614/614 611/611
f 621/621 622/622 623/623
f 623/623 624/624 621/621
f 625/625 626/626 627/627
f 628/628 627/627 629/629
f 630/630 629/629 631/631
f 632/632 631/631 633/633
f 633/633 634/634 632/632
f 631/631 632/632 630/630
f 629/629 630/630 628/628
f 627/627 628/628 625/625
f 635/635 636/636 637/637
f 637/637 638/638 635/635
f 639/639 640/640 641/641
f 642/642 641/641 643/643
f 644/644 643/643 645/645
f 646/646 645/645 647/647
f 647/647 648/648 646/646
f 645/645 646/646 644/644
f 643/643 644/644 642/642
f 641/641 642/642 639/639
f 649/649 650/650 651/651
f 651/651 652/652 649/649
f 653/653 654/654 655/655
f 656/656 653/653 657/657
f 658/658 656/656 659/659
f 660/660 658/658 661/661
f 662/662 660/660 663/663
f 664/664 662/662 665/665
f 666/666 664/664 667/667
f 668/668 666/666 669/669
f 670/670 668/668 671/671
f 672/672 670/670 673/673
f 674/674 672/672 675/675
f 676/676 674/674 677/677
f 678/678 676/676 679/679
f 680/680 678/678 681/681
f 682/682 680/680 683/683
f 654/654 682/682 684/684
f 684/684 655/655 654/654
f 683/683 684/684 682/682
f 681/681 683/683 680/680
f 679/679 681/681 678/678
f 677/677 679/679 676/676
f 675/675 677/677 674/674
f 673/673 675/675 672/672
f 671/671 673/673 670/670
f 669/669 671/671 668/668
f 667/667 669/669 666/666
f 665/665 667/667 664/664
f 663/663 665/665 662/662
f 661/661 663/663 660/660
f 659/659 661/661 658/658
f 657/657 659/659 656/656
f 655/655 657/657 653/653
f 685/685 686/686 687/687
f 688/688 685/685 689/689
f 690/690 688/688 691/691
f 692/692 690/690 693/693
f 694/694 692/692 695/695
f 696/696 694/694 697/697
f 698/698 696/696 699/699
f 700/700 698/698 701/701
f 702/702 700/700 703/703
f 704/704 702/702 705/705
f 706/706 704/704 707/707
f 708/708 706/706 709/709
f 710/710 708/708 711/711
f 712/712 710/710 713/713
f 714/714 712/712 715/715
f 686/686 714/714 716/716
f 716/716 687/687 686/686
f 715/715 716/716 714/714
f 713/713 715/715 712/712
f 711/711 713/713 710/710
f 709/709 711/711 708/708
f 707/707 709/709 706/706
f 705/705 707/707 704/704
f 703/703 705/705 702/702
f 701/701 703/703 700/700
f 699/699 701/701 698/698
f 697/697 699/699 696/696
f 695/695 697/697 694/694
f 693/693 695/695 692/692
f 691/691 693/693 690/690
f 689/689 691/691 688/688
f 687/687 689/689 685/685
f 717/717 718/718 719/719
f 720/720 717/717 721/721
f 722/722 720/720 723/723
f 724/724 722/722 725/725
f 726/726 724/724 727/727
f 728/728 726/726 729/729
f 730/730 728/728 731/731
f 732/732 730/730 733/733
f 734/734 732/732 735/735
f 736/736 734/734 737/737
f 738/738 736/736 739/739
f 740/740 738/738 741/741
f 742/742 740/740 743/743
f 744/744 742/742 745/745
f 746/746 744/744 747/747
f 718/718 746/746 748/748
f 748/748 719/719 718/718
f 747/747 748/748 746/746
f 745/745 747/747 744/744
f 743/743 745/745 742/742
f 741/741 743/743 740/740
f 739/739 741/741 738/738
f 737/737 739/739 736/736
f 735/735 737/737 734/734
f 733/733 735/735 732/732
f 731/731 733/733 730/730
f 729/729 731/731 728/728
f 727/727 729/729 726/726
f 725/725 727/727 724/724
f 723/723 725/725 722/722
f 721/721 723/723 720/720
f 719/719 721/721 717/717
f 749/749 750/750 751/751
f 752/752 751/751 753/753
f 754/754 755/755 756/756
f 753/753 756/756 755/755
f 755/755 757/757 753/753
f 754/754 758/758 759/759
f 759/759 760/760 754/754
f 756/756 758/758 754/754
f 753/753 757/757 752/752
f 751/751 752/752 749/749
f 761/761 762/762 763/763
f 764/764 763/763 762/762
f 762/762 765/765 764/764
f 764/764 765/765 766/766
f 766/766 767/767 764/764
f 768/768 769/769 767/767
f 767/767 766/766 768/768
f 763/763 770/770 761/761
f 771/771 772/772 773/773
f 774/774 773/773 775/775
f 776/776 775/775 777/777
f 778/778 777/777 779/779
f 779/779 780/780 778/778
f 777/777 778/778 776/776
f 775/775 776/776 774/774
f 773/773 774/774 771/771
f 781/781 782/782 783/783
f 784/784 785/785 782/782
f 782/782 785/785 783/783
f 786/786 787/787 781/781
f 783/783 788/788 781/781
f 782/782 789/789 784/784
f 781/781 788/788 786/786
f 790/790 791/791 792/792
f 793/793 794/794 795/795
f 795/795 794/794 796/796
f 796/796 792/792 795/795
f 793/793 797/797 798/798
f 799/799 798/798 800/800
f 800/800 801/801 799/799
f 798/798 799/799 793/793
f 795/795 797/797 793/793
f 792/792 796/796 790/790
f 802/802 803/803 804/804
f 805/805 804/804 803/803
f 803/803 806/806 805/805
f 802/802 807/807 808/808
f 809/809 810/810 811/811
f 808/808 811/811 802/802
f 804/804 807/807 802/802
f 811/811 808/808 809/809
f 812/812 813/813 814/814
f 815/815 816/816 817/817
f 817/817 816/816 818/818
f 818/818 814/814 817/817
f 819/819 820/820 821/821
f 821/821 820/820 815/815
f 815/815 822/822 821/821
f 819/819 823/823 824/824
f 824/824 825/825 819/819
f 821/821 823/823 819/819
f 817/817 822/822 815/815
f 814/814 818/818 812/812
f 826/826 827/827 828/828
f 828/828 829/829 826/826
f 830/830 827/827 826/826
f 826/826 831/831 830/830
f 832/832 833/833 829/829
f 829/829 834/834 832/832
f 828/828 834/834 829/829
f 835/835 836/836 837/837
f 836/836 838/838 839/839
f 840/840 841/841 842/842
f 841/841 843/843 844/844
f 845/845 844/844 846/846
f 844/844 843/843 847/847
f 846/846 848/848 845/845
f 847/847 849/849 844/844
f 837/837 845/845 850/850
f 844/844 851/851 846/846
f 843/843 852/852 847/847
f 850/850 853/853 837/837
f 844/844 854/854 851/851
f 849/849 855/855 844/844
f 837/837 856/856 857/857
f 845/845 858/858 850/850
f 848/848 859/859 845/845
f 843/843 860/860 852/852
f 857/857 843/843 837/837
f 853/853 861/861 837/837
f 855/855 854/854 844/844
f 857/857 862/862 843/843
f 845/845 863/863 858/858
f 862/862 860/860 843/843
f 837/837 864/864 865/865
f 859/859 863/863 845/845
f 861/861 864/864 837/837
f 839/839 866/866 867/867
f 867/867 868/868 839/839
f 866/866 869/869 867/867
f 845/845 870/870 871/871
f 845/845 837/837 872/872
f 868/868 873/873 839/839
f 871/871 866/866 845/845
f 872/872 874/874 845/845
f 866/866 875/875 869/869
f 845/845 876/876 870/870
f 837/837 877/877 872/872
f 837/837 839/839 878/878
f 866/866 879/879 875/875
f 845/845 880/880 876/876
f 874/874 881/881 845/845
f 878/878 882/882 837/837
f 839/839 883/883 884/884
f 871/871 879/879 866/866
f 837/837 885/885 877/877
f 882/882 886/886 837/837
f 873/873 883/883 839/839
f 886/886 885/885 837/837
f 881/881 880/880 845/845
f 839/839 887/887 888/888
f 844/844 889/889 890/890
f 891/891 892/892 893/893
f 891/891 894/894 895/895
f 844/844 893/893 889/889
f 895/895 892/892 891/891
f 891/891 896/896 897/897
f 896/896 842/842 898/898
f 893/893 844/844 891/891
f 896/896 899/899 897/897
f 896/896 900/900 901/901
f 842/842 902/902 898/898
f 844/844 903/903 904/904
f 897/897 894/894 891/891
f 898/898 900/900 896/896
f 842/842 905/905 906/906
f 890/890 903/903 844/844
f 906/906 902/902 842/842
f 901/901 899/899 896/896
f 842/842 904/904 905/905
f 844/844 845/845 907/907
f 845/845 866/866 908/908
f 891/891 907/907 909/909
f 907/907 908/908 910/910
f 841/841 911/911 912/912
f 912/912 913/913 841/841
f 841/841 840/840 911/911
f 835/835 914/914 915/915
f 843/843 916/916 914/914
f 843/843 917/917 918/918
f 914/914 835/835 843/843
f 918/918 919/919 843/843
f 843/843 841/841 920/920
f 841/841 921/921 922/922
f 923/923 924/924 925/925
f 919/919 916/916 843/843
f 841/841 926/926 920/920
f 841/841 927/927 928/928
f 922/922 929/929 841/841
f 930/930 921/921 923/923
f 924/924 835/835 931/931
f 920/920 917/917 843/843
f 929/929 927/927 841/841
f 925/925 930/930 923/923
f 915/915 931/931 835/835
f 930/930 922/922 921/921
f 928/928 926/926 841/841
f 924/924 932/932 925/925
f 933/933 934/934 935/935
f 936/936 937/937 938/938
f 935/935 939/939 933/933
f 934/934 940/940 936/936
f 937/937 887/887 941/941
f 839/839 942/942 943/943
f 839/839 838/838 944/944
f 838/838 945/945 946/946
f 938/938 934/934 936/936
f 887/887 947/947 941/941
f 839/839 948/948 942/942
f 946/946 944/944 838/838
f 941/941 938/938 937/937
f 887/887 949/949 950/950
f 887/887 839/839 951/951
f 944/944 948/948 839/839
f 939/939 952/952 945/945
f 950/950 947/947 887/887
f 839/839 953/953 951/951
f 945/945 838/838 939/939
f 933/933 940/940 934/934
f 943/943 953/953 839/839
f 951/951 949/949 887/887
f 954/954 955/955 956/956
f 957/957 958/958 955/955
f 908/908 959/959 960/960
f 908/908 866/866 961/961
f 866/866 962/962 963/963
f 888/888 964/964 965/965
f 956/956 888/888 954/954
f 955/955 954/954 957/957
f 961/961 959/959 908/908
f 963/963 966/966 866/866
f 956/956 964/964 888/888
f 967/967 968/968 958/958
f 967/967 908/908 969/969
f 966/966 961/961 866/866
f 888/888 970/970 971/971
f 957/957 967/967 958/958
f 908/908 972/972 969/969
f 866/866 971/971 962/962
f 965/965 970/970 888/888
f 960/960 972/972 908/908
f 969/969 968/968 967/967
f 908/908 967/967 973/973
f 967/967 974/974 975/975
f 975/975 973/973 967/967
f 896/896 976/976 977/977
f 891/891 978/978 976/976
f 976/976 896/896 891/891
f 896/896 979/979 980/980
f 842/842 896/896 981/981
f 896/896 982/982 983/983
f 983/983 981/981 896/896
f 981/981 984/984 842/842
f 980/980 982/982 896/896
f 977/977 979/979 896/896
f 973/973 910/910 908/908
f 971/971 866/866 888/888
f 935/935 952/952 939/939
f 931/931 932/932 924/924
f 913/913 921/921 841/841
f 910/910 909/909 907/907
f 909/909 978/978 891/891
f 908/908 907/907 845/845
f 907/907 891/891 844/844
f 904/904 842/842 844/844
f 888/888 866/866 839/839
f 884/884 878/878 839/839
f 865/865 856/856 837/837
f 844/844 842/842 841/841
f 842/842 984/984 840/840
f 839/839 837/837 836/836
f 837/837 843/843 835/835
f 985/985 986/986 987/987
f 988/988 985/985 989/989
f 990/990 988/988 991/991
f 992/992 990/990 993/993
f 994/994 992/992 995/995
f 996/996 994/994 997/997
f 998/998 996/996 999/999
f 1000/1000 998/998 1001/1001
f 1002/1002 1000/1000 1003/1003
f 1004/1004 1002/1002 1005/1005
f 1006/1006 1004/1004 1007/1007
f 1008/1008 1006/1006 1009/1009
f 1010/1010 1008/1008 1011/1011
f 1012/1012 1010/1010 1013/1013
f 1014/1014 1012/1012 1015/1015
f 986/986 1014/1014 1016/1016
f 1016/1016 987/987 986/986
f 1015/1015 1016/1016 1014/1014
f 1013/1013 1015/1015 1012/1012
f 1011/1011 1013/1013 1010/1010
f 1009/1009 1011/1011 1008/1008
f 1007/1007 1009/1009 1006/1006
f 1005/1005 1007/1007 1004/1004
f 1003/1003 1005/1005 1002/1002
f 1001/1001 1003/1003 1000/1000
f 999/999 1001/1001 998/998
f 997/997 999/999 996/996
f 995/995 997/997 994/994
f 993/993 995/995 992/992
f 991/991 993/993 990/990
f 989/989 991/991 988/988
f 987/987 989/989 985/985

