# https://github.com/mikedh/trimesh
mtllib material.mtl
usemtl 0.301961_0.301961_0.301961_0.000000_0.000000
v -0.01149429 0.03793896 0.00000000
v -0.01166556 0.03880000 0.00000000
v -0.01166556 0.03880000 0.00500000
v -0.01100656 0.03720901 0.00000000
v -0.01149429 0.03793896 0.00500000
v -0.01027660 0.03672127 0.00000000
v -0.01100656 0.03720901 0.00500000
v -0.00941557 0.03655000 -0.00000000
v -0.01027660 0.03672127 0.00500000
v -0.00855453 0.03672127 -0.00000000
v -0.00941557 0.03655000 0.00500000
v -0.00782457 0.03720901 -0.00000000
v -0.00855453 0.03672127 0.00500000
v -0.00733684 0.03793896 -0.00000000
v -0.00782457 0.03720901 0.00500000
v -0.00716557 0.03880000 -0.00000000
v -0.00733684 0.03793896 0.00500000
v -0.00733684 0.03966104 -0.00000000
v -0.00716557 0.03880000 0.00500000
v -0.00782457 0.04039099 -0.00000000
v -0.00733684 0.03966104 0.00500000
v -0.00855453 0.04087873 -0.00000000
v -0.00782457 0.04039099 0.00500000
v -0.00941557 0.04105000 0.00000000
v -0.00855453 0.04087873 0.00500000
v -0.01027660 0.04087873 0.00000000
v -0.00941557 0.04105000 0.00500000
v -0.01100656 0.04039099 0.00000000
v -0.01027660 0.04087873 0.00500000
v -0.01149429 0.03966104 0.00000000
v -0.01100656 0.04039099 0.00500000
v -0.01149429 0.03966104 0.00500000
v 0.00733684 0.03793896 0.00000000
v 0.00716557 0.03880000 0.00000000
v 0.00716557 0.03880000 0.00500000
v 0.00782457 0.03720901 0.00000000
v 0.00733684 0.03793896 0.00500000
v 0.00855453 0.03672127 0.00000000
v 0.00782457 0.03720901 0.00500000
v 0.00941557 0.03655000 -0.00000000
v 0.00855453 0.03672127 0.00500000
v 0.01027660 0.03672127 -0.00000000
v 0.00941557 0.03655000 0.00500000
v 0.01100656 0.03720901 -0.00000000
v 0.01027660 0.03672127 0.00500000
v 0.01149429 0.03793896 -0.00000000
v 0.01100656 0.03720901 0.00500000
v 0.01166556 0.03880000 -0.00000000
v 0.01149429 0.03793896 0.00500000
v 0.01149429 0.03966104 -0.00000000
v 0.01166556 0.03880000 0.00500000
v 0.01100656 0.04039099 -0.00000000
v 0.01149429 0.03966104 0.00500000
v 0.01027660 0.04087873 -0.00000000
v 0.01100656 0.04039099 0.00500000
v 0.00941557 0.04105000 0.00000000
v 0.01027660 0.04087873 0.00500000
v 0.00855453 0.04087873 0.00000000
v 0.00941557 0.04105000 0.00500000
v 0.00782457 0.04039099 0.00000000
v 0.00855453 0.04087873 0.00500000
v 0.00733684 0.03966104 0.00000000
v 0.00782457 0.04039099 0.00500000
v 0.00733684 0.03966104 0.00500000
v 0.00733684 0.03966104 0.00500000
v -0.00733684 0.03966104 0.00500000
v -0.00716557 0.03880000 0.00500000
v -0.00782457 0.04039099 0.00500000
v 0.00782457 0.03720901 0.00500000
v 0.00733684 0.03793896 0.00500000
v 0.00941557 0.03655000 0.00500000
v 0.00855453 0.03672127 0.00500000
v 0.00782457 0.04039099 0.00500000
v 0.00855453 0.04087873 0.00500000
v 0.00716557 0.03880000 0.00500000
v -0.02091250 0.02288750 0.00500000
v -0.01149429 0.03793896 0.00500000
v -0.01166556 0.03880000 0.00500000
v -0.00733684 0.03793896 0.00500000
v 0.02091250 0.02288750 0.00500000
v 0.02091250 0.05471250 0.00500000
v -0.02091250 0.05471250 0.00500000
v -0.00941557 0.04105000 0.00500000
v -0.00855453 0.04087873 0.00500000
v -0.01100656 0.03720901 0.00500000
v -0.00941557 0.03655000 0.00500000
v -0.01027660 0.03672127 0.00500000
v 0.01027660 0.03672127 0.00500000
v 0.01100656 0.04039099 0.00500000
v 0.01149429 0.03966104 0.00500000
v 0.00941557 0.04105000 0.00500000
v 0.01027660 0.04087873 0.00500000
v -0.01149429 0.03966104 0.00500000
v 0.01100656 0.03720901 0.00500000
v 0.01166556 0.03880000 0.00500000
v -0.01100656 0.04039099 0.00500000
v -0.01027660 0.04087873 0.00500000
v -0.00855453 0.03672127 0.00500000
v 0.01149429 0.03793896 0.00500000
v -0.00782457 0.03720901 0.00500000
v -0.00733684 0.03966104 -0.00000000
v 0.00733684 0.03966104 0.00000000
v 0.00716557 0.03880000 0.00000000
v 0.00782457 0.04039099 0.00000000
v 0.02509170 0.00000000 0.00000000
v 0.02287248 0.01995418 0.00000000
v 0.02408750 0.01971250 0.00000000
v 0.01149429 0.03793896 -0.00000000
v 0.02091250 0.02288750 0.00000000
v 0.02115418 0.02167248 0.00000000
v 0.01166556 0.03880000 -0.00000000
v -0.00716557 0.03880000 -0.00000000
v -0.00782457 0.03720901 -0.00000000
v -0.00733684 0.03793896 -0.00000000
v -0.00782457 0.04039099 -0.00000000
v 0.02091250 0.05471250 0.00000000
v 0.00855453 0.04087873 0.00000000
v 0.02184244 0.02064244 0.00000000
v 0.01149429 0.03966104 -0.00000000
v 0.01027660 0.03672127 -0.00000000
v 0.00906511 0.00906511 0.00000000
v 0.00490600 0.01184414 0.00000000
v 0.00000000 0.01282000 0.00000000
v 0.00855453 0.03672127 0.00000000
v 0.00733684 0.03793896 0.00000000
v -0.02115418 0.02167248 0.00000000
v -0.00941557 0.03655000 -0.00000000
v -0.02091250 0.05471250 0.00000000
v -0.01149429 0.03966104 0.00000000
v -0.01166556 0.03880000 0.00000000
v -0.00855453 0.04087873 -0.00000000
v 0.00941557 0.04105000 0.00000000
v 0.01184414 0.00490600 0.00000000
v 0.00782457 0.03720901 0.00000000
v -0.00490600 0.01184414 0.00000000
v -0.01027660 0.03672127 0.00000000
v -0.02091250 0.02288750 0.00000000
v 0.01100656 0.04039099 -0.00000000
v 0.00941557 0.03655000 -0.00000000
v -0.00906511 0.00906511 0.00000000
v -0.02184244 0.02064244 0.00000000
v -0.01100656 0.03720901 0.00000000
v -0.01100656 0.04039099 0.00000000
v -0.00941557 0.04105000 0.00000000
v -0.01027660 0.04087873 0.00000000
v -0.00855453 0.03672127 -0.00000000
v 0.01100656 0.03720901 -0.00000000
v 0.01282000 0.00000000 0.00000000
v -0.01184414 0.00490600 0.00000000
v -0.02287248 0.01995418 0.00000000
v -0.02509170 0.01971250 0.00000000
v -0.02408750 0.01971250 0.00000000
v 0.01027660 0.04087873 -0.00000000
v -0.01149429 0.03793896 0.00000000
v -0.02509170 0.00000000 0.00000000
v 0.02509170 0.01971250 0.00000000
v -0.01282000 0.00000000 0.00000000
v -0.02237916 0.05532001 0.00341250
v -0.02250000 0.05471250 0.00341250
v -0.02237916 0.05471250 0.00402001
v -0.02226752 0.05532001 0.00397377
v -0.02203503 0.05471250 0.00453503
v -0.02194958 0.05532001 0.00444958
v -0.02152001 0.05471250 0.00487916
v -0.02147377 0.05532001 0.00476752
v -0.02091250 0.05471250 0.00500000
v -0.02203503 0.05583503 0.00341250
v -0.02194958 0.05583503 0.00384207
v -0.02170625 0.05583503 0.00420625
v -0.02134207 0.05583503 0.00444958
v -0.02091250 0.05532001 0.00487916
v -0.02152001 0.05617916 0.00341250
v -0.02147377 0.05617916 0.00364498
v -0.02134207 0.05617916 0.00384207
v -0.02114498 0.05617916 0.00397377
v -0.02091250 0.05583503 0.00453503
v -0.02091250 0.05630000 0.00341250
v -0.02091250 0.05617916 0.00402001
v -0.02091250 0.02288750 0.00500000
v -0.02091250 0.05471250 0.00500000
v -0.02152001 0.05471250 0.00487916
v -0.02152001 0.02288750 0.00487916
v -0.02203503 0.05471250 0.00453503
v -0.02203503 0.02288750 0.00453503
v -0.02237916 0.05471250 0.00402001
v -0.02237916 0.02288750 0.00402001
v -0.02250000 0.05471250 0.00341250
v -0.02250000 0.02288750 0.00341250
v -0.02091250 0.05471250 0.00500000
v 0.02091250 0.05471250 0.00500000
v 0.02091250 0.05532001 0.00487916
v -0.02091250 0.05532001 0.00487916
v 0.02091250 0.05583503 0.00453503
v -0.02091250 0.05583503 0.00453503
v 0.02091250 0.05617916 0.00402001
v -0.02091250 0.05617916 0.00402001
v 0.02091250 0.05630000 0.00341250
v -0.02091250 0.05630000 0.00341250
v -0.02250000 0.05471250 0.00158750
v -0.02250000 0.05471250 0.00341250
v -0.02237916 0.05532001 0.00341250
v -0.02237916 0.05532001 0.00158750
v -0.02203503 0.05583503 0.00341250
v -0.02203503 0.05583503 0.00158750
v -0.02152001 0.05617916 0.00341250
v -0.02152001 0.05617916 0.00158750
v -0.02091250 0.05630000 0.00341250
v -0.02091250 0.05630000 0.00158750
v 0.02091250 0.05532001 0.00487916
v 0.02091250 0.05471250 0.00500000
v 0.02152001 0.05471250 0.00487916
v 0.02147377 0.05532001 0.00476752
v 0.02203503 0.05471250 0.00453503
v 0.02194958 0.05532001 0.00444958
v 0.02237916 0.05471250 0.00402001
v 0.02226752 0.05532001 0.00397377
v 0.02250000 0.05471250 0.00341250
v 0.02091250 0.05583503 0.00453503
v 0.02134207 0.05583503 0.00444958
v 0.02170625 0.05583503 0.00420625
v 0.02194958 0.05583503 0.00384207
v 0.02237916 0.05532001 0.00341250
v 0.02091250 0.05617916 0.00402001
v 0.02114498 0.05617916 0.00397377
v 0.02134207 0.05617916 0.00384207
v 0.02147377 0.05617916 0.00364498
v 0.02203503 0.05583503 0.00341250
v 0.02091250 0.05630000 0.00341250
v 0.02152001 0.05617916 0.00341250
v -0.02091250 0.05630000 0.00158750
v -0.02091250 0.05630000 0.00341250
v 0.02091250 0.05630000 0.00341250
v 0.02091250 0.05630000 0.00158750
v -0.02237916 0.05471250 0.00097999
v -0.02250000 0.05471250 0.00158750
v -0.02237916 0.05532001 0.00158750
v -0.02226752 0.05527377 0.00097999
v -0.02203503 0.05583503 0.00158750
v -0.02194958 0.05574958 0.00097999
v -0.02152001 0.05617916 0.00158750
v -0.02147377 0.05606752 0.00097999
v -0.02091250 0.05630000 0.00158750
v -0.02203503 0.05471250 0.00046497
v -0.02194958 0.05514207 0.00046497
v -0.02170625 0.05550625 0.00046497
v -0.02134207 0.05574958 0.00046497
v -0.02091250 0.05617916 0.00097999
v -0.02152001 0.05471250 0.00012084
v -0.02147377 0.05494498 0.00012084
v -0.02134207 0.05514207 0.00012084
v -0.02114498 0.05527377 0.00012084
v -0.02091250 0.05583503 0.00046497
v -0.02091250 0.05471250 0.00000000
v -0.02091250 0.05532001 0.00012084
v -0.02250000 0.05471250 0.00158750
v -0.02250000 0.02288750 0.00158750
v -0.02250000 0.02288750 0.00341250
v -0.02250000 0.05471250 0.00341250
v -0.02408750 0.02130000 0.00341250
v -0.02384582 0.02130000 0.00462752
v -0.02328455 0.02142084 0.00439504
v -0.02315756 0.02130000 0.00565756
v -0.02272799 0.02142084 0.00522799
v -0.02212752 0.02130000 0.00634582
v -0.02189504 0.02142084 0.00578455
v -0.02091250 0.02130000 0.00658750
v -0.02091250 0.02142084 0.00597999
v -0.02347999 0.02142084 0.00341250
v -0.02280873 0.02176497 0.00419795
v -0.02236381 0.02176497 0.00486381
v -0.02169795 0.02176497 0.00530873
v -0.02091250 0.02176497 0.00546497
v -0.02296497 0.02176497 0.00341250
v -0.02249080 0.02227999 0.00406625
v -0.02212048 0.02227999 0.00462048
v -0.02156625 0.02227999 0.00499080
v -0.02091250 0.02227999 0.00512084
v -0.02262084 0.02227999 0.00341250
v -0.02237916 0.02288750 0.00402001
v -0.02203503 0.02288750 0.00453503
v -0.02152001 0.02288750 0.00487916
v -0.02091250 0.02288750 0.00500000
v -0.02250000 0.02288750 0.00341250
v 0.02091250 0.02227999 0.00512084
v 0.02091250 0.02288750 0.00500000
v -0.02091250 0.02288750 0.00500000
v 0.02091250 0.02176497 0.00546497
v -0.02091250 0.02227999 0.00512084
v 0.02091250 0.02142084 0.00597999
v -0.02091250 0.02176497 0.00546497
v 0.02091250 0.02130000 0.00658750
v -0.02091250 0.02142084 0.00597999
v -0.02091250 0.02130000 0.00658750
v 0.02250000 0.02288750 0.00341250
v 0.02250000 0.05471250 0.00341250
v 0.02237916 0.05471250 0.00402001
v 0.02237916 0.02288750 0.00402001
v 0.02203503 0.05471250 0.00453503
v 0.02203503 0.02288750 0.00453503
v 0.02152001 0.05471250 0.00487916
v 0.02152001 0.02288750 0.00487916
v 0.02091250 0.05471250 0.00500000
v 0.02091250 0.02288750 0.00500000
v 0.02250000 0.05471250 0.00341250
v 0.02250000 0.05471250 0.00158750
v 0.02237916 0.05532001 0.00158750
v 0.02237916 0.05532001 0.00341250
v 0.02203503 0.05583503 0.00158750
v 0.02203503 0.05583503 0.00341250
v 0.02152001 0.05617916 0.00158750
v 0.02152001 0.05617916 0.00341250
v 0.02091250 0.05630000 0.00158750
v 0.02091250 0.05630000 0.00341250
v -0.02091250 0.05630000 0.00158750
v 0.02091250 0.05630000 0.00158750
v 0.02091250 0.05617916 0.00097999
v -0.02091250 0.05617916 0.00097999
v 0.02091250 0.05583503 0.00046497
v -0.02091250 0.05583503 0.00046497
v 0.02091250 0.05532001 0.00012084
v -0.02091250 0.05532001 0.00012084
v 0.02091250 0.05471250 0.00000000
v -0.02091250 0.05471250 0.00000000
v -0.02091250 0.05471250 0.00000000
v -0.02091250 0.02288750 0.00000000
v -0.02152001 0.02288750 0.00012084
v -0.02152001 0.05471250 0.00012084
v -0.02203503 0.02288750 0.00046497
v -0.02203503 0.05471250 0.00046497
v -0.02237916 0.02288750 0.00097999
v -0.02237916 0.05471250 0.00097999
v -0.02250000 0.02288750 0.00158750
v -0.02250000 0.05471250 0.00158750
v -0.02262084 0.02227999 0.00341250
v -0.02250000 0.02288750 0.00341250
v -0.02250000 0.02288750 0.00158750
v -0.02296497 0.02176497 0.00341250
v -0.02262084 0.02227999 0.00158750
v -0.02347999 0.02142084 0.00341250
v -0.02296497 0.02176497 0.00158750
v -0.02408750 0.02130000 0.00341250
v -0.02347999 0.02142084 0.00158750
v -0.02408750 0.02130000 0.00158750
v -0.02408750 0.02117916 0.00097999
v -0.02408750 0.02130000 0.00158750
v -0.02347999 0.02142084 0.00158750
v -0.02343375 0.02130920 0.00097999
v -0.02296497 0.02176497 0.00158750
v -0.02287952 0.02167952 0.00097999
v -0.02262084 0.02227999 0.00158750
v -0.02250920 0.02223375 0.00097999
v -0.02250000 0.02288750 0.00158750
v -0.02408750 0.02083503 0.00046497
v -0.02330205 0.02099127 0.00046497
v -0.02263619 0.02143619 0.00046497
v -0.02219127 0.02210205 0.00046497
v -0.02237916 0.02288750 0.00097999
v -0.02408750 0.02032001 0.00012084
v -0.02310496 0.02051545 0.00012084
v -0.02227201 0.02107201 0.00012084
v -0.02171545 0.02190496 0.00012084
v -0.02203503 0.02288750 0.00046497
v -0.02408750 0.01971250 0.00000000
v -0.02287248 0.01995418 0.00000000
v -0.02184244 0.02064244 0.00000000
v -0.02115418 0.02167248 0.00000000
v -0.02152001 0.02288750 0.00012084
v -0.02091250 0.02288750 0.00000000
v -0.02091250 0.02130000 0.00658750
v -0.01974960 0.02130000 0.00920000
v 0.01841021 0.02130000 0.00946642
v 0.02509170 0.02130000 0.00158750
v 0.02408750 0.02130000 0.00341250
v 0.02384582 0.02130000 0.00462752
v 0.02108899 0.02130000 0.00946642
v 0.02212752 0.02130000 0.00634582
v 0.02091250 0.02130000 0.00658750
v -0.02108899 0.02130000 0.00946642
v 0.02298318 0.02130000 0.01136061
v 0.02324960 0.02130000 0.01270000
v 0.02408750 0.02130000 0.00158750
v 0.02315756 0.02130000 0.00565756
v -0.02212752 0.02130000 0.00634582
v -0.01651602 0.02130000 0.01136061
v -0.01624960 0.02130000 0.01270000
v 0.01624960 0.02130000 0.01270000
v -0.01651602 0.02130000 0.01403939
v 0.01651602 0.02130000 0.01403939
v 0.02509170 0.02130000 0.02381250
v 0.02298318 0.02130000 0.01403939
v 0.02222447 0.02130000 0.01022513
v 0.01727473 0.02130000 0.01022513
v 0.01651602 0.02130000 0.01136061
v -0.01727473 0.02130000 0.01517487
v 0.01841021 0.02130000 0.01593358
v 0.01974960 0.02130000 0.00920000
v -0.02222447 0.02130000 0.01022513
v -0.02315756 0.02130000 0.00565756
v -0.01727473 0.02130000 0.01022513
v -0.01841021 0.02130000 0.00946642
v 0.01727473 0.02130000 0.01517487
v 0.01974960 0.02130000 0.01620000
v -0.02509170 0.02130000 0.02381250
v -0.01841021 0.02130000 0.01593358
v 0.02222447 0.02130000 0.01517487
v 0.02108899 0.02130000 0.01593358
v -0.02384582 0.02130000 0.00462752
v -0.02324960 0.02130000 0.01270000
v -0.02222447 0.02130000 0.01517487
v -0.02298318 0.02130000 0.01403939
v -0.01974960 0.02130000 0.01620000
v -0.02108899 0.02130000 0.01593358
v -0.02298318 0.02130000 0.01136061
v -0.02509170 0.02130000 0.00158750
v -0.02408750 0.02130000 0.00341250
v -0.02408750 0.02130000 0.00158750
v 0.02237916 0.05532001 0.00158750
v 0.02250000 0.05471250 0.00158750
v 0.02237916 0.05471250 0.00097999
v 0.02226752 0.05532001 0.00102623
v 0.02203503 0.05471250 0.00046497
v 0.02194958 0.05532001 0.00055042
v 0.02152001 0.05471250 0.00012084
v 0.02147377 0.05532001 0.00023248
v 0.02091250 0.05471250 0.00000000
v 0.02203503 0.05583503 0.00158750
v 0.02194958 0.05583503 0.00115793
v 0.02170625 0.05583503 0.00079375
v 0.02134207 0.05583503 0.00055042
v 0.02091250 0.05532001 0.00012084
v 0.02152001 0.05617916 0.00158750
v 0.02147377 0.05617916 0.00135502
v 0.02134207 0.05617916 0.00115793
v 0.02114498 0.05617916 0.00102623
v 0.02091250 0.05583503 0.00046497
v 0.02091250 0.05630000 0.00158750
v 0.02091250 0.05617916 0.00097999
v 0.02091250 0.02130000 0.00658750
v 0.02212752 0.02130000 0.00634582
v 0.02189504 0.02142084 0.00578455
v 0.02315756 0.02130000 0.00565756
v 0.02272799 0.02142084 0.00522799
v 0.02384582 0.02130000 0.00462752
v 0.02328455 0.02142084 0.00439504
v 0.02408750 0.02130000 0.00341250
v 0.02347999 0.02142084 0.00341250
v 0.02091250 0.02142084 0.00597999
v 0.02169795 0.02176497 0.00530873
v 0.02236381 0.02176497 0.00486381
v 0.02280873 0.02176497 0.00419795
v 0.02296497 0.02176497 0.00341250
v 0.02091250 0.02176497 0.00546497
v 0.02156625 0.02227999 0.00499080
v 0.02212048 0.02227999 0.00462048
v 0.02249080 0.02227999 0.00406625
v 0.02262084 0.02227999 0.00341250
v 0.02091250 0.02227999 0.00512084
v 0.02152001 0.02288750 0.00487916
v 0.02203503 0.02288750 0.00453503
v 0.02237916 0.02288750 0.00402001
v 0.02250000 0.02288750 0.00341250
v 0.02091250 0.02288750 0.00500000
v 0.02250000 0.02288750 0.00158750
v 0.02250000 0.05471250 0.00158750
v 0.02250000 0.05471250 0.00341250
v 0.02250000 0.02288750 0.00341250
v 0.02262084 0.02227999 0.00158750
v 0.02250000 0.02288750 0.00158750
v 0.02250000 0.02288750 0.00341250
v 0.02296497 0.02176497 0.00158750
v 0.02262084 0.02227999 0.00341250
v 0.02347999 0.02142084 0.00158750
v 0.02296497 0.02176497 0.00341250
v 0.02408750 0.02130000 0.00158750
v 0.02347999 0.02142084 0.00341250
v 0.02408750 0.02130000 0.00341250
v 0.02250000 0.05471250 0.00158750
v 0.02250000 0.02288750 0.00158750
v 0.02237916 0.02288750 0.00097999
v 0.02237916 0.05471250 0.00097999
v 0.02203503 0.02288750 0.00046497
v 0.02203503 0.05471250 0.00046497
v 0.02152001 0.02288750 0.00012084
v 0.02152001 0.05471250 0.00012084
v 0.02091250 0.02288750 0.00000000
v 0.02091250 0.05471250 0.00000000
v 0.02237916 0.02288750 0.00097999
v 0.02250000 0.02288750 0.00158750
v 0.02262084 0.02227999 0.00158750
v 0.02250920 0.02223375 0.00097999
v 0.02296497 0.02176497 0.00158750
v 0.02287952 0.02167952 0.00097999
v 0.02347999 0.02142084 0.00158750
v 0.02343375 0.02130920 0.00097999
v 0.02408750 0.02130000 0.00158750
v 0.02203503 0.02288750 0.00046497
v 0.02219127 0.02210205 0.00046497
v 0.02263619 0.02143619 0.00046497
v 0.02330205 0.02099127 0.00046497
v 0.02408750 0.02117916 0.00097999
v 0.02152001 0.02288750 0.00012084
v 0.02171545 0.02190496 0.00012084
v 0.02227201 0.02107201 0.00012084
v 0.02310496 0.02051545 0.00012084
v 0.02408750 0.02083503 0.00046497
v 0.02091250 0.02288750 0.00000000
v 0.02115418 0.02167248 0.00000000
v 0.02184244 0.02064244 0.00000000
v 0.02287248 0.01995418 0.00000000
v 0.02408750 0.02032001 0.00012084
v 0.02408750 0.01971250 0.00000000
v 0.01841021 0.02130000 0.01593358
v 0.01974960 0.02130000 0.01620000
v 0.01974960 0.01330000 0.01620000
v 0.01727473 0.02130000 0.01517487
v 0.01841021 0.01330000 0.01593358
v 0.01651602 0.02130000 0.01403939
v 0.01727473 0.01330000 0.01517487
v 0.01624960 0.02130000 0.01270000
v 0.01651602 0.01330000 0.01403939
v 0.01651602 0.02130000 0.01136061
v 0.01624960 0.01330000 0.01270000
v 0.01727473 0.02130000 0.01022513
v 0.01651602 0.01330000 0.01136061
v 0.01841021 0.02130000 0.00946642
v 0.01727473 0.01330000 0.01022513
v 0.01974960 0.02130000 0.00920000
v 0.01841021 0.01330000 0.00946642
v 0.02108899 0.02130000 0.00946642
v 0.01974960 0.01330000 0.00920000
v 0.02222447 0.02130000 0.01022513
v 0.02108899 0.01330000 0.00946642
v 0.02298318 0.02130000 0.01136061
v 0.02222447 0.01330000 0.01022513
v 0.02324960 0.02130000 0.01270000
v 0.02298318 0.01330000 0.01136061
v 0.02298318 0.02130000 0.01403939
v 0.02324960 0.01330000 0.01270000
v 0.02222447 0.02130000 0.01517487
v 0.02298318 0.01330000 0.01403939
v 0.02108899 0.02130000 0.01593358
v 0.02222447 0.01330000 0.01517487
v 0.02108899 0.01330000 0.01593358
v 0.01974960 0.01330000 0.01620000
v 0.02108899 0.01330000 0.01593358
v 0.02040016 0.01330000 0.01427060
v 0.02222447 0.01330000 0.01517487
v 0.02095168 0.01330000 0.01390208
v 0.02298318 0.01330000 0.01136061
v 0.02222447 0.01330000 0.01022513
v 0.02095168 0.01330000 0.01149792
v 0.02108899 0.01330000 0.00946642
v 0.02040016 0.01330000 0.01112940
v 0.02298318 0.01330000 0.01403939
v 0.02132020 0.01330000 0.01335056
v 0.02324960 0.01330000 0.01270000
v 0.02144960 0.01330000 0.01270000
v 0.02132020 0.01330000 0.01204944
v 0.01974960 0.01330000 0.00920000
v 0.01974960 0.01330000 0.01100000
v 0.01841021 0.01330000 0.00946642
v 0.01909904 0.01330000 0.01112940
v 0.01727473 0.01330000 0.01022513
v 0.01854752 0.01330000 0.01149792
v 0.01624960 0.01330000 0.01270000
v 0.01804960 0.01330000 0.01270000
v 0.01817901 0.01330000 0.01204944
v 0.01651602 0.01330000 0.01403939
v 0.01817901 0.01330000 0.01335056
v 0.01651602 0.01330000 0.01136061
v 0.01727473 0.01330000 0.01517487
v 0.01854752 0.01330000 0.01390208
v 0.01841021 0.01330000 0.01593358
v 0.01909904 0.01330000 0.01427060
v 0.01974960 0.01330000 0.01440000
v 0.01909904 0.00000000 0.01112940
v 0.01974960 0.00000000 0.01100000
v 0.01974960 0.01330000 0.01100000
v 0.01854752 0.00000000 0.01149792
v 0.01909904 0.01330000 0.01112940
v 0.01817901 0.00000000 0.01204944
v 0.01854752 0.01330000 0.01149792
v 0.01804960 0.00000000 0.01270000
v 0.01817901 0.01330000 0.01204944
v 0.01817901 0.00000000 0.01335056
v 0.01804960 0.01330000 0.01270000
v 0.01854752 0.00000000 0.01390208
v 0.01817901 0.01330000 0.01335056
v 0.01909904 0.00000000 0.01427060
v 0.01854752 0.01330000 0.01390208
v 0.01974960 0.00000000 0.01440000
v 0.01909904 0.01330000 0.01427060
v 0.02040016 0.00000000 0.01427060
v 0.01974960 0.01330000 0.01440000
v 0.02095168 0.00000000 0.01390208
v 0.02040016 0.01330000 0.01427060
v 0.02132020 0.00000000 0.01335056
v 0.02095168 0.01330000 0.01390208
v 0.02144960 0.00000000 0.01270000
v 0.02132020 0.01330000 0.01335056
v 0.02132020 0.00000000 0.01204944
v 0.02144960 0.01330000 0.01270000
v 0.02095168 0.00000000 0.01149792
v 0.02132020 0.01330000 0.01204944
v 0.02040016 0.00000000 0.01112940
v 0.02095168 0.01330000 0.01149792
v 0.02040016 0.01330000 0.01112940
v -0.02509170 0.02130000 0.00158750
v -0.02408750 0.02130000 0.00158750
v -0.02408750 0.02117916 0.00097999
v -0.02509170 0.02117916 0.00097999
v -0.02408750 0.02083503 0.00046497
v -0.02509170 0.02083503 0.00046497
v -0.02408750 0.02032001 0.00012084
v -0.02509170 0.02032001 0.00012084
v -0.02408750 0.01971250 0.00000000
v -0.02509170 0.01971250 0.00000000
v -0.02569921 0.02117916 0.00158750
v -0.02509170 0.02130000 0.00158750
v -0.02509170 0.02117916 0.00097999
v -0.02569921 0.02106752 0.00102623
v -0.02509170 0.02083503 0.00046497
v -0.02569921 0.02074958 0.00055042
v -0.02509170 0.02032001 0.00012084
v -0.02569921 0.02027377 0.00023248
v -0.02509170 0.01971250 0.00000000
v -0.02621423 0.02083503 0.00158750
v -0.02621423 0.02074958 0.00115793
v -0.02621423 0.02050625 0.00079375
v -0.02621423 0.02014207 0.00055042
v -0.02569921 0.01971250 0.00012084
v -0.02655836 0.02032001 0.00158750
v -0.02655836 0.02027377 0.00135502
v -0.02655836 0.02014207 0.00115793
v -0.02655836 0.01994498 0.00102623
v -0.02621423 0.01971250 0.00046497
v -0.02667920 0.01971250 0.00158750
v -0.02655836 0.01971250 0.00097999
v 0.02408750 0.02130000 0.00158750
v 0.02509170 0.02130000 0.00158750
v 0.02509170 0.02117916 0.00097999
v 0.02408750 0.02117916 0.00097999
v 0.02509170 0.02083503 0.00046497
v 0.02408750 0.02083503 0.00046497
v 0.02509170 0.02032001 0.00012084
v 0.02408750 0.02032001 0.00012084
v 0.02509170 0.01971250 0.00000000
v 0.02408750 0.01971250 0.00000000
v 0.02569921 0.01971250 0.00012084
v 0.02509170 0.01971250 0.00000000
v 0.02509170 0.02032001 0.00012084
v 0.02569921 0.02027377 0.00023248
v 0.02509170 0.02083503 0.00046497
v 0.02569921 0.02074958 0.00055042
v 0.02509170 0.02117916 0.00097999
v 0.02569921 0.02106752 0.00102623
v 0.02509170 0.02130000 0.00158750
v 0.02621423 0.01971250 0.00046497
v 0.02621423 0.02014207 0.00055042
v 0.02621423 0.02050625 0.00079375
v 0.02621423 0.02074958 0.00115793
v 0.02569921 0.02117916 0.00158750
v 0.02655836 0.01971250 0.00097999
v 0.02655836 0.01994498 0.00102623
v 0.02655836 0.02014207 0.00115793
v 0.02655836 0.02027377 0.00135502
v 0.02621423 0.02083503 0.00158750
v 0.02667920 0.01971250 0.00158750
v 0.02655836 0.02032001 0.00158750
v 0.02509170 0.02130000 0.00158750
v 0.02509170 0.02130000 0.02381250
v 0.02569921 0.02117916 0.02381250
v 0.02569921 0.02117916 0.00158750
v 0.02621423 0.02083503 0.02381250
v 0.02621423 0.02083503 0.00158750
v 0.02655836 0.02032001 0.02381250
v 0.02655836 0.02032001 0.00158750
v 0.02667920 0.01971250 0.02381250
v 0.02667920 0.01971250 0.00158750
v 0.02667920 0.01971250 0.00158750
v 0.02667920 0.00000000 0.00158750
v 0.02655836 0.00000000 0.00097999
v 0.02655836 0.01971250 0.00097999
v 0.02621423 0.00000000 0.00046497
v 0.02621423 0.01971250 0.00046497
v 0.02569921 0.00000000 0.00012084
v 0.02569921 0.01971250 0.00012084
v 0.02509170 0.00000000 0.00000000
v 0.02509170 0.01971250 0.00000000
v 0.02040016 0.00000000 0.01112940
v 0.02655836 0.00000000 0.00097999
v 0.02667920 0.00000000 0.00158750
v 0.02621423 0.00000000 0.00046497
v 0.02509170 0.00000000 0.00000000
v 0.02569921 0.00000000 0.00012084
v 0.02040016 0.00000000 0.01427060
v 0.02095168 0.00000000 0.01390208
v 0.02667920 0.00000000 0.02381250
v 0.02621423 0.00000000 0.02493503
v 0.02569921 0.00000000 0.02527916
v 0.02655836 0.00000000 0.02442001
v 0.01282000 0.00000000 0.02540000
v 0.01282000 0.00000000 0.00000000
v 0.01804960 0.00000000 0.01270000
v 0.02095168 0.00000000 0.01149792
v 0.02144960 0.00000000 0.01270000
v 0.01909904 0.00000000 0.01427060
v 0.01974960 0.00000000 0.01440000
v 0.01817901 0.00000000 0.01204944
v 0.02132020 0.00000000 0.01204944
v 0.02132020 0.00000000 0.01335056
v 0.02509170 0.00000000 0.02540000
v 0.01817901 0.00000000 0.01335056
v 0.01854752 0.00000000 0.01390208
v 0.01854752 0.00000000 0.01149792
v 0.01974960 0.00000000 0.01100000
v 0.01909904 0.00000000 0.01112940
v 0.02667920 0.01971250 0.02381250
v 0.02667920 0.00000000 0.02381250
v 0.02667920 0.00000000 0.00158750
v 0.02667920 0.01971250 0.00158750
v 0.02655836 0.01971250 0.02442001
v 0.02667920 0.01971250 0.02381250
v 0.02655836 0.02032001 0.02381250
v 0.02644672 0.02027377 0.02442001
v 0.02621423 0.02083503 0.02381250
v 0.02612878 0.02074958 0.02442001
v 0.02569921 0.02117916 0.02381250
v 0.02565297 0.02106752 0.02442001
v 0.02509170 0.02130000 0.02381250
v 0.02621423 0.01971250 0.02493503
v 0.02612878 0.02014207 0.02493503
v 0.02588545 0.02050625 0.02493503
v 0.02552127 0.02074958 0.02493503
v 0.02509170 0.02117916 0.02442001
v 0.02569921 0.01971250 0.02527916
v 0.02565297 0.01994498 0.02527916
v 0.02552127 0.02014207 0.02527916
v 0.02532418 0.02027377 0.02527916
v 0.02509170 0.02083503 0.02493503
v 0.02509170 0.01971250 0.02540000
v 0.02509170 0.02032001 0.02527916
v 0.02667920 0.00000000 0.02381250
v 0.02667920 0.01971250 0.02381250
v 0.02655836 0.01971250 0.02442001
v 0.02655836 0.00000000 0.02442001
v 0.02621423 0.01971250 0.02493503
v 0.02621423 0.00000000 0.02493503
v 0.02569921 0.01971250 0.02527916
v 0.02569921 0.00000000 0.02527916
v 0.02509170 0.01971250 0.02540000
v 0.02509170 0.00000000 0.02540000
v 0.02509170 0.02130000 0.02381250
v -0.02509170 0.02130000 0.02381250
v -0.02509170 0.02117916 0.02442001
v 0.02509170 0.02117916 0.02442001
v -0.02509170 0.02083503 0.02493503
v 0.02509170 0.02083503 0.02493503
v -0.02509170 0.02032001 0.02527916
v 0.02509170 0.02032001 0.02527916
v -0.02509170 0.01971250 0.02540000
v 0.02509170 0.01971250 0.02540000
v 0.02509170 0.00000000 0.02540000
v 0.02509170 0.01971250 0.02540000
v 0.01184414 0.00490600 0.02540000
v 0.00906511 0.00906511 0.02540000
v 0.00490600 0.01184414 0.02540000
v 0.00000000 0.01282000 0.02540000
v -0.02509170 0.01971250 0.02540000
v -0.00490600 0.01184414 0.02540000
v -0.00906511 0.00906511 0.02540000
v -0.01184414 0.00490600 0.02540000
v -0.02509170 0.00000000 0.02540000
v -0.01282000 0.00000000 0.02540000
v 0.01282000 0.00000000 0.02540000
v -0.02509170 0.02117916 0.02442001
v -0.02509170 0.02130000 0.02381250
v -0.02569921 0.02117916 0.02381250
v -0.02565297 0.02106752 0.02442001
v -0.02621423 0.02083503 0.02381250
v -0.02612878 0.02074958 0.02442001
v -0.02655836 0.02032001 0.02381250
v -0.02644672 0.02027377 0.02442001
v -0.02667920 0.01971250 0.02381250
v -0.02509170 0.02083503 0.02493503
v -0.02552127 0.02074958 0.02493503
v -0.02588545 0.02050625 0.02493503
v -0.02612878 0.02014207 0.02493503
v -0.02655836 0.01971250 0.02442001
v -0.02509170 0.02032001 0.02527916
v -0.02532418 0.02027377 0.02527916
v -0.02552127 0.02014207 0.02527916
v -0.02565297 0.01994498 0.02527916
v -0.02621423 0.01971250 0.02493503
v -0.02509170 0.01971250 0.02540000
v -0.02569921 0.01971250 0.02527916
v -0.02667920 -0.00000000 0.00158750
v -0.02667920 0.01971250 0.00158750
v -0.02655836 0.01971250 0.00097999
v -0.02655836 -0.00000000 0.00097999
v -0.02621423 0.01971250 0.00046497
v -0.02621423 -0.00000000 0.00046497
v -0.02569921 0.01971250 0.00012084
v -0.02569921 -0.00000000 0.00012084
v -0.02509170 0.01971250 0.00000000
v -0.02509170 0.00000000 0.00000000
v -0.02667920 0.01971250 0.00158750
v -0.02667920 0.01971250 0.02381250
v -0.02655836 0.02032001 0.02381250
v -0.02655836 0.02032001 0.00158750
v -0.02621423 0.02083503 0.02381250
v -0.02621423 0.02083503 0.00158750
v -0.02569921 0.02117916 0.02381250
v -0.02569921 0.02117916 0.00158750
v -0.02509170 0.02130000 0.02381250
v -0.02509170 0.02130000 0.00158750
v -0.02667920 0.01971250 0.02381250
v -0.02667920 -0.00000000 0.02381250
v -0.02655836 0.00000000 0.02442001
v -0.02655836 0.01971250 0.02442001
v -0.02621423 0.00000000 0.02493503
v -0.02621423 0.01971250 0.02493503
v -0.02569921 0.00000000 0.02527916
v -0.02569921 0.01971250 0.02527916
v -0.02509170 0.00000000 0.02540000
v -0.02509170 0.01971250 0.02540000
v -0.02667920 0.01971250 0.00158750
v -0.02667920 -0.00000000 0.00158750
v -0.02667920 -0.00000000 0.02381250
v -0.02667920 0.01971250 0.02381250
v 0.01184414 0.00490600 0.00000000
v 0.01282000 0.00000000 0.00000000
v 0.01282000 0.00000000 0.02540000
v 0.00906511 0.00906511 0.00000000
v 0.01184414 0.00490600 0.02540000
v 0.00490600 0.01184414 0.00000000
v 0.00906511 0.00906511 0.02540000
v 0.00000000 0.01282000 0.00000000
v 0.00490600 0.01184414 0.02540000
v -0.00490600 0.01184414 0.00000000
v 0.00000000 0.01282000 0.02540000
v -0.00906511 0.00906511 0.00000000
v -0.00490600 0.01184414 0.02540000
v -0.01184414 0.00490600 0.00000000
v -0.00906511 0.00906511 0.02540000
v -0.01282000 0.00000000 0.00000000
v -0.01184414 0.00490600 0.02540000
v -0.01282000 0.00000000 0.02540000
v -0.02040016 0.00000000 0.01427060
v -0.02655836 0.00000000 0.02442001
v -0.02667920 -0.00000000 0.02381250
v -0.01282000 0.00000000 0.00000000
v -0.01909904 0.00000000 0.01112940
v -0.01974960 0.00000000 0.01100000
v -0.02621423 0.00000000 0.02493503
v -0.02509170 0.00000000 0.02540000
v -0.02569921 0.00000000 0.02527916
v -0.02667920 -0.00000000 0.00158750
v -0.02144960 0.00000000 0.01270000
v -0.02095168 0.00000000 0.01149792
v -0.02655836 -0.00000000 0.00097999
v -0.01854752 0.00000000 0.01149792
v -0.01282000 0.00000000 0.02540000
v -0.01817901 0.00000000 0.01335056
v -0.01804960 0.00000000 0.01270000
v -0.01974960 0.00000000 0.01440000
v -0.02132020 0.00000000 0.01204944
v -0.02569921 -0.00000000 0.00012084
v -0.02509170 0.00000000 0.00000000
v -0.02621423 -0.00000000 0.00046497
v -0.01817901 0.00000000 0.01204944
v -0.01909904 0.00000000 0.01427060
v -0.01854752 0.00000000 0.01390208
v -0.02132020 0.00000000 0.01335056
v -0.02095168 0.00000000 0.01390208
v -0.02040016 0.00000000 0.01112940
v -0.02108899 0.02130000 0.01593358
v -0.01974960 0.02130000 0.01620000
v -0.01974960 0.01330000 0.01620000
v -0.02222447 0.02130000 0.01517487
v -0.02108899 0.01330000 0.01593358
v -0.02298318 0.02130000 0.01403939
v -0.02222447 0.01330000 0.01517487
v -0.02324960 0.02130000 0.01270000
v -0.02298318 0.01330000 0.01403939
v -0.02298318 0.02130000 0.01136061
v -0.02324960 0.01330000 0.01270000
v -0.02222447 0.02130000 0.01022513
v -0.02298318 0.01330000 0.01136061
v -0.02108899 0.02130000 0.00946642
v -0.02222447 0.01330000 0.01022513
v -0.01974960 0.02130000 0.00920000
v -0.02108899 0.01330000 0.00946642
v -0.01841021 0.02130000 0.00946642
v -0.01974960 0.01330000 0.00920000
v -0.01727473 0.02130000 0.01022513
v -0.01841021 0.01330000 0.00946642
v -0.01651602 0.02130000 0.01136061
v -0.01727473 0.01330000 0.01022513
v -0.01624960 0.02130000 0.01270000
v -0.01651602 0.01330000 0.01136061
v -0.01651602 0.02130000 0.01403939
v -0.01624960 0.01330000 0.01270000
v -0.01727473 0.02130000 0.01517487
v -0.01651602 0.01330000 0.01403939
v -0.01841021 0.02130000 0.01593358
v -0.01727473 0.01330000 0.01517487
v -0.01841021 0.01330000 0.01593358
v -0.01974960 0.01330000 0.01620000
v -0.01841021 0.01330000 0.01593358
v -0.01909904 0.01330000 0.01427060
v -0.01727473 0.01330000 0.01517487
v -0.01854752 0.01330000 0.01390208
v -0.01651602 0.01330000 0.01136061
v -0.01727473 0.01330000 0.01022513
v -0.01854752 0.01330000 0.01149792
v -0.01841021 0.01330000 0.00946642
v -0.01909904 0.01330000 0.01112940
v -0.01651602 0.01330000 0.01403939
v -0.01817901 0.01330000 0.01335056
v -0.01624960 0.01330000 0.01270000
v -0.01804960 0.01330000 0.01270000
v -0.01817901 0.01330000 0.01204944
v -0.01974960 0.01330000 0.00920000
v -0.01974960 0.01330000 0.01100000
v -0.02108899 0.01330000 0.00946642
v -0.02040016 0.01330000 0.01112940
v -0.02222447 0.01330000 0.01022513
v -0.02095168 0.01330000 0.01149792
v -0.02324960 0.01330000 0.01270000
v -0.02144960 0.01330000 0.01270000
v -0.02132020 0.01330000 0.01204944
v -0.02298318 0.01330000 0.01403939
v -0.02132020 0.01330000 0.01335056
v -0.02298318 0.01330000 0.01136061
v -0.02222447 0.01330000 0.01517487
v -0.02095168 0.01330000 0.01390208
v -0.02108899 0.01330000 0.01593358
v -0.02040016 0.01330000 0.01427060
v -0.01974960 0.01330000 0.01440000
v -0.02040016 0.00000000 0.01112940
v -0.01974960 0.00000000 0.01100000
v -0.01974960 0.01330000 0.01100000
v -0.02095168 0.00000000 0.01149792
v -0.02040016 0.01330000 0.01112940
v -0.02132020 0.00000000 0.01204944
v -0.02095168 0.01330000 0.01149792
v -0.02144960 0.00000000 0.01270000
v -0.02132020 0.01330000 0.01204944
v -0.02132020 0.00000000 0.01335056
v -0.02144960 0.01330000 0.01270000
v -0.02095168 0.00000000 0.01390208
v -0.02132020 0.01330000 0.01335056
v -0.02040016 0.00000000 0.01427060
v -0.02095168 0.01330000 0.01390208
v -0.01974960 0.00000000 0.01440000
v -0.02040016 0.01330000 0.01427060
v -0.01909904 0.00000000 0.01427060
v -0.01974960 0.01330000 0.01440000
v -0.01854752 0.00000000 0.01390208
v -0.01909904 0.01330000 0.01427060
v -0.01817901 0.00000000 0.01335056
v -0.01854752 0.01330000 0.01390208
v -0.01804960 0.00000000 0.01270000
v -0.01817901 0.01330000 0.01335056
v -0.01817901 0.00000000 0.01204944
v -0.01804960 0.01330000 0.01270000
v -0.01854752 0.00000000 0.01149792
v -0.01817901 0.01330000 0.01204944
v -0.01909904 0.00000000 0.01112940
v -0.01854752 0.01330000 0.01149792
v -0.01909904 0.01330000 0.01112940
vt 0.50000000 0.50000000
vt 0.50000000 0.50000000
vt 0.50000000 0.50000000
vt 0.50000000 0.50000000
vt 0.50000000 0.50000000
vt 0.50000000 0.50000000
vt 0.50000000 0.50000000
vt 0.50000000 0.50000000
vt 0.50000000 0.50000000
vt 0.50000000 0.50000000
vt 0.50000000 0.50000000
vt 0.50000000 0.50000000
vt 0.50000000 0.50000000
vt 0.50000000 0.50000000
vt 0.50000000 0.50000000
vt 0.50000000 0.50000000
vt 0.50000000 0.50000000
vt 0.50000000 0.50000000
vt 0.50000000 0.50000000
vt 0.50000000 0.50000000
vt 0.50000000 0.50000000
vt 0.50000000 0.50000000
vt 0.50000000 0.50000000
vt 0.50000000 0.50000000
vt 0.50000000 0.50000000
vt 0.50000000 0.50000000
vt 0.50000000 0.50000000
vt 0.50000000 0.50000000
vt 0.50000000 0.50000000
vt 0.50000000 0.50000000
vt 0.50000000 0.50000000
vt 0.50000000 0.50000000
vt 0.50000000 0.50000000
vt 0.50000000 0.50000000
vt 0.50000000 0.50000000
vt 0.50000000 0.50000000
vt 0.50000000 0.50000000
vt 0.50000000 0.50000000
vt 0.50000000 0.50000000
vt 0.50000000 0.50000000
vt 0.50000000 0.50000000
vt 0.50000000 0.50000000
vt 0.50000000 0.50000000
vt 0.50000000 0.50000000
vt 0.50000000 0.50000000
vt 0.50000000 0.50000000
vt 0.50000000 0.50000000
vt 0.50000000 0.50000000
vt 0.50000000 0.50000000
vt 0.50000000 0.50000000
vt 0.50000000 0.50000000
vt 0.50000000 0.50000000
vt 0.50000000 0.50000000
vt 0.50000000 0.50000000
vt 0.50000000 0.50000000
vt 0.50000000 0.50000000
vt 0.50000000 0.50000000
vt 0.50000000 0.50000000
vt 0.50000000 0.50000000
vt 0.50000000 0.50000000
vt 0.50000000 0.50000000
vt 0.50000000 0.50000000
vt 0.50000000 0.50000000
vt 0.50000000 0.50000000
vt 0.50000000 0.50000000
vt 0.50000000 0.50000000
vt 0.50000000 0.50000000
vt 0.50000000 0.50000000
vt 0.50000000 0.50000000
vt 0.50000000 0.50000000
vt 0.50000000 0.50000000
vt 0.50000000 0.50000000
vt 0.50000000 0.50000000
vt 0.50000000 0.50000000
vt 0.50000000 0.50000000
vt 0.50000000 0.50000000
vt 0.50000000 0.50000000
vt 0.50000000 0.50000000
vt 0.50000000 0.50000000
vt 0.50000000 0.50000000
vt 0.50000000 0.50000000
vt 0.50000000 0.50000000
vt 0.50000000 0.50000000
vt 0.50000000 0.50000000
vt 0.50000000 0.50000000
vt 0.50000000 0.50000000
vt 0.50000000 0.50000000
vt 0.50000000 0.50000000
vt 0.50000000 0.50000000
vt 0.50000000 0.50000000
vt 0.50000000 0.50000000
vt 0.50000000 0.50000000
vt 0.50000000 0.50000000
vt 0.50000000 0.50000000
vt 0.50000000 0.50000000
vt 0.50000000 0.50000000
vt 0.50000000 0.50000000
vt 0.50000000 0.50000000
vt 0.50000000 0.50000000
vt 0.50000000 0.50000000
vt 0.50000000 0.50000000
vt 0.50000000 0.50000000
vt 0.50000000 0.50000000
vt 0.50000000 0.50000000
vt 0.50000000 0.50000000
vt 0.50000000 0.50000000
vt 0.50000000 0.50000000
vt 0.50000000 0.50000000
vt 0.50000000 0.50000000
vt 0.50000000 0.50000000
vt 0.50000000 0.50000000
vt 0.50000000 0.50000000
vt 0.50000000 0.50000000
vt 0.50000000 0.50000000
vt 0.50000000 0.50000000
vt 0.50000000 0.50000000
vt 0.50000000 0.50000000
vt 0.50000000 0.50000000
vt 0.50000000 0.50000000
vt 0.50000000 0.50000000
vt 0.50000000 0.50000000
vt 0.50000000 0.50000000
vt 0.50000000 0.50000000
vt 0.50000000 0.50000000
vt 0.50000000 0.50000000
vt 0.50000000 0.50000000
vt 0.50000000 0.50000000
vt 0.50000000 0.50000000
vt 0.50000000 0.50000000
vt 0.50000000 0.50000000
vt 0.50000000 0.50000000
vt 0.50000000 0.50000000
vt 0.50000000 0.50000000
vt 0.50000000 0.50000000
vt 0.50000000 0.50000000
vt 0.50000000 0.50000000
vt 0.50000000 0.50000000
vt 0.50000000 0.50000000
vt 0.50000000 0.50000000
vt 0.50000000 0.50000000
vt 0.50000000 0.50000000
vt 0.50000000 0.50000000
vt 0.50000000 0.50000000
vt 0.50000000 0.50000000
vt 0.50000000 0.50000000
vt 0.50000000 0.50000000
vt 0.50000000 0.50000000
vt 0.50000000 0.50000000
vt 0.50000000 0.50000000
vt 0.50000000 0.50000000
vt 0.50000000 0.50000000
vt 0.50000000 0.50000000
vt 0.50000000 0.50000000
vt 0.50000000 0.50000000
vt 0.50000000 0.50000000
vt 0.50000000 0.50000000
vt 0.50000000 0.50000000
vt 0.50000000 0.50000000
vt 0.50000000 0.50000000
vt 0.50000000 0.50000000
vt 0.50000000 0.50000000
vt 0.50000000 0.50000000
vt 0.50000000 0.50000000
vt 0.50000000 0.50000000
vt 0.50000000 0.50000000
vt 0.50000000 0.50000000
vt 0.50000000 0.50000000
vt 0.50000000 0.50000000
vt 0.50000000 0.50000000
vt 0.50000000 0.50000000
vt 0.50000000 0.50000000
vt 0.50000000 0.50000000
vt 0.50000000 0.50000000
vt 0.50000000 0.50000000
vt 0.50000000 0.50000000
vt 0.50000000 0.50000000
vt 0.50000000 0.50000000
vt 0.50000000 0.50000000
vt 0.50000000 0.50000000
vt 0.50000000 0.50000000
vt 0.50000000 0.50000000
vt 0.50000000 0.50000000
vt 0.50000000 0.50000000
vt 0.50000000 0.50000000
vt 0.50000000 0.50000000
vt 0.50000000 0.50000000
vt 0.50000000 0.50000000
vt 0.50000000 0.50000000
vt 0.50000000 0.50000000
vt 0.50000000 0.50000000
vt 0.50000000 0.50000000
vt 0.50000000 0.50000000
vt 0.50000000 0.50000000
vt 0.50000000 0.50000000
vt 0.50000000 0.50000000
vt 0.50000000 0.50000000
vt 0.50000000 0.50000000
vt 0.50000000 0.50000000
vt 0.50000000 0.50000000
vt 0.50000000 0.50000000
vt 0.50000000 0.50000000
vt 0.50000000 0.50000000
vt 0.50000000 0.50000000
vt 0.50000000 0.50000000
vt 0.50000000 0.50000000
vt 0.50000000 0.50000000
vt 0.50000000 0.50000000
vt 0.50000000 0.50000000
vt 0.50000000 0.50000000
vt 0.50000000 0.50000000
vt 0.50000000 0.50000000
vt 0.50000000 0.50000000
vt 0.50000000 0.50000000
vt 0.50000000 0.50000000
vt 0.50000000 0.50000000
vt 0.50000000 0.50000000
vt 0.50000000 0.50000000
vt 0.50000000 0.50000000
vt 0.50000000 0.50000000
vt 0.50000000 0.50000000
vt 0.50000000 0.50000000
vt 0.50000000 0.50000000
vt 0.50000000 0.50000000
vt 0.50000000 0.50000000
vt 0.50000000 0.50000000
vt 0.50000000 0.50000000
vt 0.50000000 0.50000000
vt 0.50000000 0.50000000
vt 0.50000000 0.50000000
vt 0.50000000 0.50000000
vt 0.50000000 0.50000000
vt 0.50000000 0.50000000
vt 0.50000000 0.50000000
vt 0.50000000 0.50000000
vt 0.50000000 0.50000000
vt 0.50000000 0.50000000
vt 0.50000000 0.50000000
vt 0.50000000 0.50000000
vt 0.50000000 0.50000000
vt 0.50000000 0.50000000
vt 0.50000000 0.50000000
vt 0.50000000 0.50000000
vt 0.50000000 0.50000000
vt 0.50000000 0.50000000
vt 0.50000000 0.50000000
vt 0.50000000 0.50000000
vt 0.50000000 0.50000000
vt 0.50000000 0.50000000
vt 0.50000000 0.50000000
vt 0.50000000 0.50000000
vt 0.50000000 0.50000000
vt 0.50000000 0.50000000
vt 0.50000000 0.50000000
vt 0.50000000 0.50000000
vt 0.50000000 0.50000000
vt 0.50000000 0.50000000
vt 0.50000000 0.50000000
vt 0.50000000 0.50000000
vt 0.50000000 0.50000000
vt 0.50000000 0.50000000
vt 0.50000000 0.50000000
vt 0.50000000 0.50000000
vt 0.50000000 0.50000000
vt 0.50000000 0.50000000
vt 0.50000000 0.50000000
vt 0.50000000 0.50000000
vt 0.50000000 0.50000000
vt 0.50000000 0.50000000
vt 0.50000000 0.50000000
vt 0.50000000 0.50000000
vt 0.50000000 0.50000000
vt 0.50000000 0.50000000
vt 0.50000000 0.50000000
vt 0.50000000 0.50000000
vt 0.50000000 0.50000000
vt 0.50000000 0.50000000
vt 0.50000000 0.50000000
vt 0.50000000 0.50000000
vt 0.50000000 0.50000000
vt 0.50000000 0.50000000
vt 0.50000000 0.50000000
vt 0.50000000 0.50000000
vt 0.50000000 0.50000000
vt 0.50000000 0.50000000
vt 0.50000000 0.50000000
vt 0.50000000 0.50000000
vt 0.50000000 0.50000000
vt 0.50000000 0.50000000
vt 0.50000000 0.50000000
vt 0.50000000 0.50000000
vt 0.50000000 0.50000000
vt 0.50000000 0.50000000
vt 0.50000000 0.50000000
vt 0.50000000 0.50000000
vt 0.50000000 0.50000000
vt 0.50000000 0.50000000
vt 0.50000000 0.50000000
vt 0.50000000 0.50000000
vt 0.50000000 0.50000000
vt 0.50000000 0.50000000
vt 0.50000000 0.50000000
vt 0.50000000 0.50000000
vt 0.50000000 0.50000000
vt 0.50000000 0.50000000
vt 0.50000000 0.50000000
vt 0.50000000 0.50000000
vt 0.50000000 0.50000000
vt 0.50000000 0.50000000
vt 0.50000000 0.50000000
vt 0.50000000 0.50000000
vt 0.50000000 0.50000000
vt 0.50000000 0.50000000
vt 0.50000000 0.50000000
vt 0.50000000 0.50000000
vt 0.50000000 0.50000000
vt 0.50000000 0.50000000
vt 0.50000000 0.50000000
vt 0.50000000 0.50000000
vt 0.50000000 0.50000000
vt 0.50000000 0.50000000
vt 0.50000000 0.50000000
vt 0.50000000 0.50000000
vt 0.50000000 0.50000000
vt 0.50000000 0.50000000
vt 0.50000000 0.50000000
vt 0.50000000 0.50000000
vt 0.50000000 0.50000000
vt 0.50000000 0.50000000
vt 0.50000000 0.50000000
vt 0.50000000 0.50000000
vt 0.50000000 0.50000000
vt 0.50000000 0.50000000
vt 0.50000000 0.50000000
vt 0.50000000 0.50000000
vt 0.50000000 0.50000000
vt 0.50000000 0.50000000
vt 0.50000000 0.50000000
vt 0.50000000 0.50000000
vt 0.50000000 0.50000000
vt 0.50000000 0.50000000
vt 0.50000000 0.50000000
vt 0.50000000 0.50000000
vt 0.50000000 0.50000000
vt 0.50000000 0.50000000
vt 0.50000000 0.50000000
vt 0.50000000 0.50000000
vt 0.50000000 0.50000000
vt 0.50000000 0.50000000
vt 0.50000000 0.50000000
vt 0.50000000 0.50000000
vt 0.50000000 0.50000000
vt 0.50000000 0.50000000
vt 0.50000000 0.50000000
vt 0.50000000 0.50000000
vt 0.50000000 0.50000000
vt 0.50000000 0.50000000
vt 0.50000000 0.50000000
vt 0.50000000 0.50000000
vt 0.50000000 0.50000000
vt 0.50000000 0.50000000
vt 0.50000000 0.50000000
vt 0.50000000 0.50000000
vt 0.50000000 0.50000000
vt 0.50000000 0.50000000
vt 0.50000000 0.50000000
vt 0.50000000 0.50000000
vt 0.50000000 0.50000000
vt 0.50000000 0.50000000
vt 0.50000000 0.50000000
vt 0.50000000 0.50000000
vt 0.50000000 0.50000000
vt 0.50000000 0.50000000
vt 0.50000000 0.50000000
vt 0.50000000 0.50000000
vt 0.50000000 0.50000000
vt 0.50000000 0.50000000
vt 0.50000000 0.50000000
vt 0.50000000 0.50000000
vt 0.50000000 0.50000000
vt 0.50000000 0.50000000
vt 0.50000000 0.50000000
vt 0.50000000 0.50000000
vt 0.50000000 0.50000000
vt 0.50000000 0.50000000
vt 0.50000000 0.50000000
vt 0.50000000 0.50000000
vt 0.50000000 0.50000000
vt 0.50000000 0.50000000
vt 0.50000000 0.50000000
vt 0.50000000 0.50000000
vt 0.50000000 0.50000000
vt 0.50000000 0.50000000
vt 0.50000000 0.50000000
vt 0.50000000 0.50000000
vt 0.50000000 0.50000000
vt 0.50000000 0.50000000
vt 0.50000000 0.50000000
vt 0.50000000 0.50000000
vt 0.50000000 0.50000000
vt 0.50000000 0.50000000
vt 0.50000000 0.50000000
vt 0.50000000 0.50000000
vt 0.50000000 0.50000000
vt 0.50000000 0.50000000
vt 0.50000000 0.50000000
vt 0.50000000 0.50000000
vt 0.50000000 0.50000000
vt 0.50000000 0.50000000
vt 0.50000000 0.50000000
vt 0.50000000 0.50000000
vt 0.50000000 0.50000000
vt 0.50000000 0.50000000
vt 0.50000000 0.50000000
vt 0.50000000 0.50000000
vt 0.50000000 0.50000000
vt 0.50000000 0.50000000
vt 0.50000000 0.50000000
vt 0.50000000 0.50000000
vt 0.50000000 0.50000000
vt 0.50000000 0.50000000
vt 0.50000000 0.50000000
vt 0.50000000 0.50000000
vt 0.50000000 0.50000000
vt 0.50000000 0.50000000
vt 0.50000000 0.50000000
vt 0.50000000 0.50000000
vt 0.50000000 0.50000000
vt 0.50000000 0.50000000
vt 0.50000000 0.50000000
vt 0.50000000 0.50000000
vt 0.50000000 0.50000000
vt 0.50000000 0.50000000
vt 0.50000000 0.50000000
vt 0.50000000 0.50000000
vt 0.50000000 0.50000000
vt 0.50000000 0.50000000
vt 0.50000000 0.50000000
vt 0.50000000 0.50000000
vt 0.50000000 0.50000000
vt 0.50000000 0.50000000
vt 0.50000000 0.50000000
vt 0.50000000 0.50000000
vt 0.50000000 0.50000000
vt 0.50000000 0.50000000
vt 0.50000000 0.50000000
vt 0.50000000 0.50000000
vt 0.50000000 0.50000000
vt 0.50000000 0.50000000
vt 0.50000000 0.50000000
vt 0.50000000 0.50000000
vt 0.50000000 0.50000000
vt 0.50000000 0.50000000
vt 0.50000000 0.50000000
vt 0.50000000 0.50000000
vt 0.50000000 0.50000000
vt 0.50000000 0.50000000
vt 0.50000000 0.50000000
vt 0.50000000 0.50000000
vt 0.50000000 0.50000000
vt 0.50000000 0.50000000
vt 0.50000000 0.50000000
vt 0.50000000 0.50000000
vt 0.50000000 0.50000000
vt 0.50000000 0.50000000
vt 0.50000000 0.50000000
vt 0.50000000 0.50000000
vt 0.50000000 0.50000000
vt 0.50000000 0.50000000
vt 0.50000000 0.50000000
vt 0.50000000 0.50000000
vt 0.50000000 0.50000000
vt 0.50000000 0.50000000
vt 0.50000000 0.50000000
vt 0.50000000 0.50000000
vt 0.50000000 0.50000000
vt 0.50000000 0.50000000
vt 0.50000000 0.50000000
vt 0.50000000 0.50000000
vt 0.50000000 0.50000000
vt 0.50000000 0.50000000
vt 0.50000000 0.50000000
vt 0.50000000 0.50000000
vt 0.50000000 0.50000000
vt 0.50000000 0.50000000
vt 0.50000000 0.50000000
vt 0.50000000 0.50000000
vt 0.50000000 0.50000000
vt 0.50000000 0.50000000
vt 0.50000000 0.50000000
vt 0.50000000 0.50000000
vt 0.50000000 0.50000000
vt 0.50000000 0.50000000
vt 0.50000000 0.50000000
vt 0.50000000 0.50000000
vt 0.50000000 0.50000000
vt 0.50000000 0.50000000
vt 0.50000000 0.50000000
vt 0.50000000 0.50000000
vt 0.50000000 0.50000000
vt 0.50000000 0.50000000
vt 0.50000000 0.50000000
vt 0.50000000 0.50000000
vt 0.50000000 0.50000000
vt 0.50000000 0.50000000
vt 0.50000000 0.50000000
vt 0.50000000 0.50000000
vt 0.50000000 0.50000000
vt 0.50000000 0.50000000
vt 0.50000000 0.50000000
vt 0.50000000 0.50000000
vt 0.50000000 0.50000000
vt 0.50000000 0.50000000
vt 0.50000000 0.50000000
vt 0.50000000 0.50000000
vt 0.50000000 0.50000000
vt 0.50000000 0.50000000
vt 0.50000000 0.50000000
vt 0.50000000 0.50000000
vt 0.50000000 0.50000000
vt 0.50000000 0.50000000
vt 0.50000000 0.50000000
vt 0.50000000 0.50000000
vt 0.50000000 0.50000000
vt 0.50000000 0.50000000
vt 0.50000000 0.50000000
vt 0.50000000 0.50000000
vt 0.50000000 0.50000000
vt 0.50000000 0.50000000
vt 0.50000000 0.50000000
vt 0.50000000 0.50000000
vt 0.50000000 0.50000000
vt 0.50000000 0.50000000
vt 0.50000000 0.50000000
vt 0.50000000 0.50000000
vt 0.50000000 0.50000000
vt 0.50000000 0.50000000
vt 0.50000000 0.50000000
vt 0.50000000 0.50000000
vt 0.50000000 0.50000000
vt 0.50000000 0.50000000
vt 0.50000000 0.50000000
vt 0.50000000 0.50000000
vt 0.50000000 0.50000000
vt 0.50000000 0.50000000
vt 0.50000000 0.50000000
vt 0.50000000 0.50000000
vt 0.50000000 0.50000000
vt 0.50000000 0.50000000
vt 0.50000000 0.50000000
vt 0.50000000 0.50000000
vt 0.50000000 0.50000000
vt 0.50000000 0.50000000
vt 0.50000000 0.50000000
vt 0.50000000 0.50000000
vt 0.50000000 0.50000000
vt 0.50000000 0.50000000
vt 0.50000000 0.50000000
vt 0.50000000 0.50000000
vt 0.50000000 0.50000000
vt 0.50000000 0.50000000
vt 0.50000000 0.50000000
vt 0.50000000 0.50000000
vt 0.50000000 0.50000000
vt 0.50000000 0.50000000
vt 0.50000000 0.50000000
vt 0.50000000 0.50000000
vt 0.50000000 0.50000000
vt 0.50000000 0.50000000
vt 0.50000000 0.50000000
vt 0.50000000 0.50000000
vt 0.50000000 0.50000000
vt 0.50000000 0.50000000
vt 0.50000000 0.50000000
vt 0.50000000 0.50000000
vt 0.50000000 0.50000000
vt 0.50000000 0.50000000
vt 0.50000000 0.50000000
vt 0.50000000 0.50000000
vt 0.50000000 0.50000000
vt 0.50000000 0.50000000
vt 0.50000000 0.50000000
vt 0.50000000 0.50000000
vt 0.50000000 0.50000000
vt 0.50000000 0.50000000
vt 0.50000000 0.50000000
vt 0.50000000 0.50000000
vt 0.50000000 0.50000000
vt 0.50000000 0.50000000
vt 0.50000000 0.50000000
vt 0.50000000 0.50000000
vt 0.50000000 0.50000000
vt 0.50000000 0.50000000
vt 0.50000000 0.50000000
vt 0.50000000 0.50000000
vt 0.50000000 0.50000000
vt 0.50000000 0.50000000
vt 0.50000000 0.50000000
vt 0.50000000 0.50000000
vt 0.50000000 0.50000000
vt 0.50000000 0.50000000
vt 0.50000000 0.50000000
vt 0.50000000 0.50000000
vt 0.50000000 0.50000000
vt 0.50000000 0.50000000
vt 0.50000000 0.50000000
vt 0.50000000 0.50000000
vt 0.50000000 0.50000000
vt 0.50000000 0.50000000
vt 0.50000000 0.50000000
vt 0.50000000 0.50000000
vt 0.50000000 0.50000000
vt 0.50000000 0.50000000
vt 0.50000000 0.50000000
vt 0.50000000 0.50000000
vt 0.50000000 0.50000000
vt 0.50000000 0.50000000
vt 0.50000000 0.50000000
vt 0.50000000 0.50000000
vt 0.50000000 0.50000000
vt 0.50000000 0.50000000
vt 0.50000000 0.50000000
vt 0.50000000 0.50000000
vt 0.50000000 0.50000000
vt 0.50000000 0.50000000
vt 0.50000000 0.50000000
vt 0.50000000 0.50000000
vt 0.50000000 0.50000000
vt 0.50000000 0.50000000
vt 0.50000000 0.50000000
vt 0.50000000 0.50000000
vt 0.50000000 0.50000000
vt 0.50000000 0.50000000
vt 0.50000000 0.50000000
vt 0.50000000 0.50000000
vt 0.50000000 0.50000000
vt 0.50000000 0.50000000
vt 0.50000000 0.50000000
vt 0.50000000 0.50000000
vt 0.50000000 0.50000000
vt 0.50000000 0.50000000
vt 0.50000000 0.50000000
vt 0.50000000 0.50000000
vt 0.50000000 0.50000000
vt 0.50000000 0.50000000
vt 0.50000000 0.50000000
vt 0.50000000 0.50000000
vt 0.50000000 0.50000000
vt 0.50000000 0.50000000
vt 0.50000000 0.50000000
vt 0.50000000 0.50000000
vt 0.50000000 0.50000000
vt 0.50000000 0.50000000
vt 0.50000000 0.50000000
vt 0.50000000 0.50000000
vt 0.50000000 0.50000000
vt 0.50000000 0.50000000
vt 0.50000000 0.50000000
vt 0.50000000 0.50000000
vt 0.50000000 0.50000000
vt 0.50000000 0.50000000
vt 0.50000000 0.50000000
vt 0.50000000 0.50000000
vt 0.50000000 0.50000000
vt 0.50000000 0.50000000
vt 0.50000000 0.50000000
vt 0.50000000 0.50000000
vt 0.50000000 0.50000000
vt 0.50000000 0.50000000
vt 0.50000000 0.50000000
vt 0.50000000 0.50000000
vt 0.50000000 0.50000000
vt 0.50000000 0.50000000
vt 0.50000000 0.50000000
vt 0.50000000 0.50000000
vt 0.50000000 0.50000000
vt 0.50000000 0.50000000
vt 0.50000000 0.50000000
vt 0.50000000 0.50000000
vt 0.50000000 0.50000000
vt 0.50000000 0.50000000
vt 0.50000000 0.50000000
vt 0.50000000 0.50000000
vt 0.50000000 0.50000000
vt 0.50000000 0.50000000
vt 0.50000000 0.50000000
vt 0.50000000 0.50000000
vt 0.50000000 0.50000000
vt 0.50000000 0.50000000
vt 0.50000000 0.50000000
vt 0.50000000 0.50000000
vt 0.50000000 0.50000000
vt 0.50000000 0.50000000
vt 0.50000000 0.50000000
vt 0.50000000 0.50000000
vt 0.50000000 0.50000000
vt 0.50000000 0.50000000
vt 0.50000000 0.50000000
vt 0.50000000 0.50000000
vt 0.50000000 0.50000000
vt 0.50000000 0.50000000
vt 0.50000000 0.50000000
vt 0.50000000 0.50000000
vt 0.50000000 0.50000000
vt 0.50000000 0.50000000
vt 0.50000000 0.50000000
vt 0.50000000 0.50000000
vt 0.50000000 0.50000000
vt 0.50000000 0.50000000
vt 0.50000000 0.50000000
vt 0.50000000 0.50000000
vt 0.50000000 0.50000000
vt 0.50000000 0.50000000
vt 0.50000000 0.50000000
vt 0.50000000 0.50000000
vt 0.50000000 0.50000000
vt 0.50000000 0.50000000
vt 0.50000000 0.50000000
vt 0.50000000 0.50000000
vt 0.50000000 0.50000000
vt 0.50000000 0.50000000
vt 0.50000000 0.50000000
vt 0.50000000 0.50000000
vt 0.50000000 0.50000000
vt 0.50000000 0.50000000
vt 0.50000000 0.50000000
vt 0.50000000 0.50000000
vt 0.50000000 0.50000000
vt 0.50000000 0.50000000
vt 0.50000000 0.50000000
vt 0.50000000 0.50000000
vt 0.50000000 0.50000000
vt 0.50000000 0.50000000
vt 0.50000000 0.50000000
vt 0.50000000 0.50000000
vt 0.50000000 0.50000000
vt 0.50000000 0.50000000
vt 0.50000000 0.50000000
vt 0.50000000 0.50000000
vt 0.50000000 0.50000000
vt 0.50000000 0.50000000
vt 0.50000000 0.50000000
vt 0.50000000 0.50000000
vt 0.50000000 0.50000000
vt 0.50000000 0.50000000
vt 0.50000000 0.50000000
vt 0.50000000 0.50000000
vt 0.50000000 0.50000000
vt 0.50000000 0.50000000
vt 0.50000000 0.50000000
vt 0.50000000 0.50000000
vt 0.50000000 0.50000000
vt 0.50000000 0.50000000
vt 0.50000000 0.50000000
vt 0.50000000 0.50000000
vt 0.50000000 0.50000000
vt 0.50000000 0.50000000
vt 0.50000000 0.50000000
vt 0.50000000 0.50000000
vt 0.50000000 0.50000000
vt 0.50000000 0.50000000
vt 0.50000000 0.50000000
vt 0.50000000 0.50000000
vt 0.50000000 0.50000000
vt 0.50000000 0.50000000
vt 0.50000000 0.50000000
vt 0.50000000 0.50000000
vt 0.50000000 0.50000000
vt 0.50000000 0.50000000
vt 0.50000000 0.50000000
vt 0.50000000 0.50000000
vt 0.50000000 0.50000000
vt 0.50000000 0.50000000
vt 0.50000000 0.50000000
vt 0.50000000 0.50000000
vt 0.50000000 0.50000000
vt 0.50000000 0.50000000
vt 0.50000000 0.50000000
vt 0.50000000 0.50000000
vt 0.50000000 0.50000000
vt 0.50000000 0.50000000
vt 0.50000000 0.50000000
vt 0.50000000 0.50000000
vt 0.50000000 0.50000000
vt 0.50000000 0.50000000
vt 0.50000000 0.50000000
vt 0.50000000 0.50000000
vt 0.50000000 0.50000000
vt 0.50000000 0.50000000
vt 0.50000000 0.50000000
vt 0.50000000 0.50000000
vt 0.50000000 0.50000000
vt 0.50000000 0.50000000
vt 0.50000000 0.50000000
vt 0.50000000 0.50000000
vt 0.50000000 0.50000000
vt 0.50000000 0.50000000
vt 0.50000000 0.50000000
vt 0.50000000 0.50000000
vt 0.50000000 0.50000000
vt 0.50000000 0.50000000
vt 0.50000000 0.50000000
vt 0.50000000 0.50000000
vt 0.50000000 0.50000000
vt 0.50000000 0.50000000
vt 0.50000000 0.50000000
vt 0.50000000 0.50000000
vt 0.50000000 0.50000000
vt 0.50000000 0.50000000
vt 0.50000000 0.50000000
vt 0.50000000 0.50000000
vt 0.50000000 0.50000000
vt 0.50000000 0.50000000
vt 0.50000000 0.50000000
vt 0.50000000 0.50000000
vt 0.50000000 0.50000000
vt 0.50000000 0.50000000
vt 0.50000000 0.50000000
vt 0.50000000 0.50000000
vt 0.50000000 0.50000000
vt 0.50000000 0.50000000
vt 0.50000000 0.50000000
vt 0.50000000 0.50000000
vt 0.50000000 0.50000000
vt 0.50000000 0.50000000
vt 0.50000000 0.50000000
vt 0.50000000 0.50000000
vt 0.50000000 0.50000000
vt 0.50000000 0.50000000
vt 0.50000000 0.50000000
vt 0.50000000 0.50000000
vt 0.50000000 0.50000000
vt 0.50000000 0.50000000
vt 0.50000000 0.50000000
vt 0.50000000 0.50000000
vt 0.50000000 0.50000000
vt 0.50000000 0.50000000
vt 0.50000000 0.50000000
vt 0.50000000 0.50000000
vt 0.50000000 0.50000000
vt 0.50000000 0.50000000
vt 0.50000000 0.50000000
vt 0.50000000 0.50000000
vt 0.50000000 0.50000000
vt 0.50000000 0.50000000
vt 0.50000000 0.50000000
vt 0.50000000 0.50000000
vt 0.50000000 0.50000000
vt 0.50000000 0.50000000
vt 0.50000000 0.50000000
vt 0.50000000 0.50000000
vt 0.50000000 0.50000000
vt 0.50000000 0.50000000
vt 0.50000000 0.50000000
vt 0.50000000 0.50000000
vt 0.50000000 0.50000000
vt 0.50000000 0.50000000
vt 0.50000000 0.50000000
vt 0.50000000 0.50000000
vt 0.50000000 0.50000000
vt 0.50000000 0.50000000
vt 0.50000000 0.50000000
vt 0.50000000 0.50000000
vt 0.50000000 0.50000000
vt 0.50000000 0.50000000
vt 0.50000000 0.50000000
vt 0.50000000 0.50000000
vt 0.50000000 0.50000000
vt 0.50000000 0.50000000
vt 0.50000000 0.50000000
vt 0.50000000 0.50000000
vt 0.50000000 0.50000000
vt 0.50000000 0.50000000
vt 0.50000000 0.50000000
vt 0.50000000 0.50000000
vt 0.50000000 0.50000000
vt 0.50000000 0.50000000
vt 0.50000000 0.50000000
vt 0.50000000 0.50000000
vt 0.50000000 0.50000000
vt 0.50000000 0.50000000
vt 0.50000000 0.50000000
vt 0.50000000 0.50000000
vt 0.50000000 0.50000000
vt 0.50000000 0.50000000
vt 0.50000000 0.50000000
vt 0.50000000 0.50000000
vt 0.50000000 0.50000000
vt 0.50000000 0.50000000
vt 0.50000000 0.50000000
vt 0.50000000 0.50000000
vt 0.50000000 0.50000000
vt 0.50000000 0.50000000
vt 0.50000000 0.50000000
vt 0.50000000 0.50000000
vt 0.50000000 0.50000000
vt 0.50000000 0.50000000
vt 0.50000000 0.50000000
vt 0.50000000 0.50000000
vt 0.50000000 0.50000000
vt 0.50000000 0.50000000
vt 0.50000000 0.50000000
vt 0.50000000 0.50000000
vt 0.50000000 0.50000000
vt 0.50000000 0.50000000
vt 0.50000000 0.50000000
vt 0.50000000 0.50000000
vt 0.50000000 0.50000000
vt 0.50000000 0.50000000
vt 0.50000000 0.50000000
vt 0.50000000 0.50000000
vt 0.50000000 0.50000000
vt 0.50000000 0.50000000
vt 0.50000000 0.50000000
vt 0.50000000 0.50000000
vt 0.50000000 0.50000000
vt 0.50000000 0.50000000
vt 0.50000000 0.50000000
vt 0.50000000 0.50000000
vt 0.50000000 0.50000000
vt 0.50000000 0.50000000
vt 0.50000000 0.50000000
vt 0.50000000 0.50000000
vt 0.50000000 0.50000000
vt 0.50000000 0.50000000
vt 0.50000000 0.50000000
vt 0.50000000 0.50000000
vt 0.50000000 0.50000000
vt 0.50000000 0.50000000
vt 0.50000000 0.50000000
vt 0.50000000 0.50000000
vt 0.50000000 0.50000000
vt 0.50000000 0.50000000
vt 0.50000000 0.50000000
vt 0.50000000 0.50000000
vt 0.50000000 0.50000000
vt 0.50000000 0.50000000
vt 0.50000000 0.50000000
vt 0.50000000 0.50000000
vt 0.50000000 0.50000000
vt 0.50000000 0.50000000
vt 0.50000000 0.50000000
vt 0.50000000 0.50000000
vt 0.50000000 0.50000000
vt 0.50000000 0.50000000
vt 0.50000000 0.50000000
vt 0.50000000 0.50000000
vt 0.50000000 0.50000000
vt 0.50000000 0.50000000
vt 0.50000000 0.50000000
vt 0.50000000 0.50000000
vt 0.50000000 0.50000000
vt 0.50000000 0.50000000
vt 0.50000000 0.50000000
vt 0.50000000 0.50000000
vt 0.50000000 0.50000000
vt 0.50000000 0.50000000
vt 0.50000000 0.50000000
vt 0.50000000 0.50000000
vt 0.50000000 0.50000000
vt 0.50000000 0.50000000
vt 0.50000000 0.50000000
vt 0.50000000 0.50000000
vt 0.50000000 0.50000000
vt 0.50000000 0.50000000
vt 0.50000000 0.50000000
vt 0.50000000 0.50000000
vt 0.50000000 0.50000000
vt 0.50000000 0.50000000
vt 0.50000000 0.50000000
vt 0.50000000 0.50000000
vt 0.50000000 0.50000000
vt 0.50000000 0.50000000
f 1/1 2/2 3/3
f 4/4 1/1 5/5
f 6/6 4/4 7/7
f 8/8 6/6 9/9
f 10/10 8/8 11/11
f 12/12 10/10 13/13
f 14/14 12/12 15/15
f 16/16 14/14 17/17
f 18/18 16/16 19/19
f 20/20 18/18 21/21
f 22/22 20/20 23/23
f 24/24 22/22 25/25
f 26/26 24/24 27/27
f 28/28 26/26 29/29
f 30/30 28/28 31/31
f 2/2 30/30 32/32
f 32/32 3/3 2/2
f 31/31 32/32 30/30
f 29/29 31/31 28/28
f 27/27 29/29 26/26
f 25/25 27/27 24/24
f 23/23 25/25 22/22
f 21/21 23/23 20/20
f 19/19 21/21 18/18
f 17/17 19/19 16/16
f 15/15 17/17 14/14
f 13/13 15/15 12/12
f 11/11 13/13 10/10
f 9/9 11/11 8/8
f 7/7 9/9 6/6
f 5/5 7/7 4/4
f 3/3 5/5 1/1
f 33/33 34/34 35/35
f 36/36 33/33 37/37
f 38/38 36/36 39/39
f 40/40 38/38 41/41
f 42/42 40/40 43/43
f 44/44 42/42 45/45
f 46/46 44/44 47/47
f 48/48 46/46 49/49
f 50/50 48/48 51/51
f 52/52 50/50 53/53
f 54/54 52/52 55/55
f 56/56 54/54 57/57
f 58/58 56/56 59/59
f 60/60 58/58 61/61
f 62/62 60/60 63/63
f 34/34 62/62 64/64
f 64/64 35/35 34/34
f 63/63 64/64 62/62
f 61/61 63/63 60/60
f 59/59 61/61 58/58
f 57/57 59/59 56/56
f 55/55 57/57 54/54
f 53/53 55/55 52/52
f 51/51 53/53 50/50
f 49/49 51/51 48/48
f 47/47 49/49 46/46
f 45/45 47/47 44/44
f 43/43 45/45 42/42
f 41/41 43/43 40/40
f 39/39 41/41 38/38
f 37/37 39/39 36/36
f 35/35 37/37 33/33
f 65/65 66/66 67/67
f 65/65 68/68 66/66
f 67/67 69/69 70/70
f 67/67 71/71 72/72
f 68/68 73/73 74/74
f 67/67 75/75 65/65
f 72/72 69/69 67/67
f 76/76 77/77 78/78
f 79/79 80/80 71/71
f 74/74 81/81 68/68
f 70/70 75/75 67/67
f 82/82 83/83 84/84
f 76/76 85/85 77/77
f 76/76 86/86 87/87
f 80/80 88/88 71/71
f 81/81 89/89 90/90
f 81/81 91/91 92/92
f 65/65 73/73 68/68
f 84/84 81/81 82/82
f 82/82 78/78 93/93
f 87/87 85/85 76/76
f 80/80 94/94 88/88
f 80/80 81/81 95/95
f 92/92 89/89 81/81
f 84/84 68/68 81/81
f 82/82 96/96 97/97
f 78/78 82/82 76/76
f 76/76 80/80 98/98
f 71/71 67/67 79/79
f 95/95 99/99 80/80
f 74/74 91/91 81/81
f 93/93 96/96 82/82
f 80/80 100/100 98/98
f 99/99 94/94 80/80
f 97/97 83/83 82/82
f 79/79 100/100 80/80
f 98/98 86/86 76/76
f 90/90 95/95 81/81
f 101/101 102/102 103/103
f 101/101 104/104 102/102
f 105/105 106/106 107/107
f 108/108 109/109 110/110
f 109/109 108/108 111/111
f 103/103 112/112 101/101
f 103/103 113/113 114/114
f 115/115 116/116 117/117
f 105/105 118/118 106/106
f 116/116 111/111 119/119
f 111/111 116/116 109/109
f 120/120 105/105 121/121
f 122/122 123/123 124/124
f 125/125 126/126 127/127
f 128/128 129/129 130/130
f 128/128 116/116 131/131
f 114/114 112/112 103/103
f 116/116 132/132 117/117
f 105/105 110/110 118/118
f 110/110 105/105 108/108
f 105/105 133/133 121/121
f 134/134 123/123 135/135
f 123/123 134/134 124/124
f 126/126 125/125 134/134
f 126/126 136/136 127/127
f 130/130 126/126 137/137
f 116/116 115/115 131/131
f 117/117 104/104 115/115
f 119/119 138/138 116/116
f 121/121 139/139 120/120
f 124/124 139/139 122/122
f 140/140 141/141 126/126
f 126/126 142/142 136/136
f 128/128 143/143 129/129
f 128/128 144/144 145/145
f 101/101 115/115 104/104
f 103/103 127/127 146/146
f 105/105 147/147 108/108
f 105/105 148/148 133/133
f 139/139 121/121 122/122
f 127/127 103/103 125/125
f 149/149 150/150 141/141
f 149/149 151/151 152/152
f 145/145 143/143 128/128
f 146/146 113/113 103/103
f 116/116 138/138 153/153
f 120/120 147/147 105/105
f 134/134 140/140 126/126
f 126/126 130/130 154/154
f 155/155 151/151 149/149
f 152/152 150/150 149/149
f 131/131 144/144 128/128
f 107/107 156/156 105/105
f 154/154 142/142 126/126
f 141/141 140/140 149/149
f 153/153 132/132 116/116
f 149/149 157/157 155/155
f 135/135 140/140 134/134
f 130/130 137/137 128/128
f 158/158 159/159 160/160
f 161/161 160/160 162/162
f 163/163 162/162 164/164
f 165/165 164/164 166/166
f 167/167 158/158 161/161
f 168/168 161/161 163/163
f 169/169 163/163 165/165
f 170/170 165/165 171/171
f 172/172 167/167 168/168
f 173/173 168/168 169/169
f 174/174 169/169 170/170
f 175/175 170/170 176/176
f 177/177 175/175 178/178
f 177/177 174/174 175/175
f 177/177 173/173 174/174
f 177/177 172/172 173/173
f 176/176 178/178 175/175
f 170/170 175/175 174/174
f 169/169 174/174 173/173
f 168/168 173/173 172/172
f 171/171 176/176 170/170
f 165/165 170/170 169/169
f 163/163 169/169 168/168
f 161/161 168/168 167/167
f 166/166 171/171 165/165
f 164/164 165/165 163/163
f 162/162 163/163 161/161
f 160/160 161/161 158/158
f 179/179 180/180 181/181
f 182/182 181/181 183/183
f 184/184 183/183 185/185
f 186/186 185/185 187/187
f 187/187 188/188 186/186
f 185/185 186/186 184/184
f 183/183 184/184 182/182
f 181/181 182/182 179/179
f 189/189 190/190 191/191
f 192/192 191/191 193/193
f 194/194 193/193 195/195
f 196/196 195/195 197/197
f 197/197 198/198 196/196
f 195/195 196/196 194/194
f 193/193 194/194 192/192
f 191/191 192/192 189/189
f 199/199 200/200 201/201
f 202/202 201/201 203/203
f 204/204 203/203 205/205
f 206/206 205/205 207/207
f 207/207 208/208 206/206
f 205/205 206/206 204/204
f 203/203 204/204 202/202
f 201/201 202/202 199/199
f 209/209 210/210 211/211
f 212/212 211/211 213/213
f 214/214 213/213 215/215
f 216/216 215/215 217/217
f 218/218 209/209 212/212
f 219/219 212/212 214/214
f 220/220 214/214 216/216
f 221/221 216/216 222/222
f 223/223 218/218 219/219
f 224/224 219/219 220/220
f 225/225 220/220 221/221
f 226/226 221/221 227/227
f 228/228 226/226 229/229
f 228/228 225/225 226/226
f 228/228 224/224 225/225
f 228/228 223/223 224/224
f 227/227 229/229 226/226
f 221/221 226/226 225/225
f 220/220 225/225 224/224
f 219/219 224/224 223/223
f 222/222 227/227 221/221
f 216/216 221/221 220/220
f 214/214 220/220 219/219
f 212/212 219/219 218/218
f 217/217 222/222 216/216
f 215/215 216/216 214/214
f 213/213 214/214 212/212
f 211/211 212/212 209/209
f 230/230 231/231 232/232
f 232/232 233/233 230/230
f 234/234 235/235 236/236
f 237/237 236/236 238/238
f 239/239 238/238 240/240
f 241/241 240/240 242/242
f 243/243 234/234 237/237
f 244/244 237/237 239/239
f 245/245 239/239 241/241
f 246/246 241/241 247/247
f 248/248 243/243 244/244
f 249/249 244/244 245/245
f 250/250 245/245 246/246
f 251/251 246/246 252/252
f 253/253 251/251 254/254
f 253/253 250/250 251/251
f 253/253 249/249 250/250
f 253/253 248/248 249/249
f 252/252 254/254 251/251
f 246/246 251/251 250/250
f 245/245 250/250 249/249
f 244/244 249/249 248/248
f 247/247 252/252 246/246
f 241/241 246/246 245/245
f 239/239 245/245 244/244
f 237/237 244/244 243/243
f 242/242 247/247 241/241
f 240/240 241/241 239/239
f 238/238 239/239 237/237
f 236/236 237/237 234/234
f 255/255 256/256 257/257
f 257/257 258/258 255/255
f 259/259 260/260 261/261
f 260/260 262/262 263/263
f 262/262 264/264 265/265
f 264/264 266/266 267/267
f 268/268 261/261 269/269
f 261/261 263/263 270/270
f 263/263 265/265 271/271
f 265/265 267/267 272/272
f 273/273 269/269 274/274
f 269/269 270/270 275/275
f 270/270 271/271 276/276
f 271/271 272/272 277/277
f 278/278 274/274 279/279
f 274/274 275/275 280/280
f 275/275 276/276 281/281
f 276/276 277/277 282/282
f 282/282 281/281 276/276
f 281/281 280/280 275/275
f 280/280 279/279 274/274
f 279/279 283/283 278/278
f 277/277 276/276 271/271
f 276/276 275/275 270/270
f 275/275 274/274 269/269
f 274/274 278/278 273/273
f 272/272 271/271 265/265
f 271/271 270/270 263/263
f 270/270 269/269 261/261
f 269/269 273/273 268/268
f 267/267 265/265 264/264
f 265/265 263/263 262/262
f 263/263 261/261 260/260
f 261/261 268/268 259/259
f 284/284 285/285 286/286
f 287/287 284/284 288/288
f 289/289 287/287 290/290
f 291/291 289/289 292/292
f 292/292 293/293 291/291
f 290/290 292/292 289/289
f 288/288 290/290 287/287
f 286/286 288/288 284/284
f 294/294 295/295 296/296
f 297/297 296/296 298/298
f 299/299 298/298 300/300
f 301/301 300/300 302/302
f 302/302 303/303 301/301
f 300/300 301/301 299/299
f 298/298 299/299 297/297
f 296/296 297/297 294/294
f 304/304 305/305 306/306
f 307/307 306/306 308/308
f 309/309 308/308 310/310
f 311/311 310/310 312/312
f 312/312 313/313 311/311
f 310/310 311/311 309/309
f 308/308 309/309 307/307
f 306/306 307/307 304/304
f 314/314 315/315 316/316
f 317/317 316/316 318/318
f 319/319 318/318 320/320
f 321/321 320/320 322/322
f 322/322 323/323 321/321
f 320/320 321/321 319/319
f 318/318 319/319 317/317
f 316/316 317/317 314/314
f 324/324 325/325 326/326
f 327/327 326/326 328/328
f 329/329 328/328 330/330
f 331/331 330/330 332/332
f 332/332 333/333 331/331
f 330/330 331/331 329/329
f 328/328 329/329 327/327
f 326/326 327/327 324/324
f 334/334 335/335 336/336
f 337/337 334/334 338/338
f 339/339 337/337 340/340
f 341/341 339/339 342/342
f 342/342 343/343 341/341
f 340/340 342/342 339/339
f 338/338 340/340 337/337
f 336/336 338/338 334/334
f 344/344 345/345 346/346
f 347/347 346/346 348/348
f 349/349 348/348 350/350
f 351/351 350/350 352/352
f 353/353 344/344 347/347
f 354/354 347/347 349/349
f 355/355 349/349 351/351
f 356/356 351/351 357/357
f 358/358 353/353 354/354
f 359/359 354/354 355/355
f 360/360 355/355 356/356
f 361/361 356/356 362/362
f 363/363 358/358 359/359
f 364/364 359/359 360/360
f 365/365 360/360 361/361
f 366/366 361/361 367/367
f 367/367 368/368 366/366
f 361/361 366/366 365/365
f 360/360 365/365 364/364
f 359/359 364/364 363/363
f 362/362 367/367 361/361
f 356/356 361/361 360/360
f 355/355 360/360 359/359
f 354/354 359/359 358/358
f 357/357 362/362 356/356
f 351/351 356/356 355/355
f 349/349 355/355 354/354
f 347/347 354/354 353/353
f 352/352 357/357 351/351
f 350/350 351/351 349/349
f 348/348 349/349 347/347
f 346/346 347/347 344/344
f 369/369 370/370 371/371
f 372/372 373/373 374/374
f 375/375 376/376 377/377
f 371/371 377/377 369/369
f 378/378 370/370 369/369
f 372/372 379/379 380/380
f 372/372 381/381 373/373
f 375/375 382/382 376/376
f 369/369 383/383 378/378
f 384/384 385/385 386/386
f 387/387 388/388 386/386
f 389/389 380/380 390/390
f 372/372 391/391 379/379
f 374/374 391/391 372/372
f 375/375 374/374 382/382
f 370/370 392/392 371/371
f 386/386 393/393 384/384
f 386/386 385/385 387/387
f 394/394 389/389 395/395
f 380/380 389/389 372/372
f 377/377 396/396 375/375
f 397/397 383/383 398/398
f 383/383 397/397 378/378
f 392/392 399/399 384/384
f 392/392 370/370 400/400
f 394/394 401/401 388/388
f 389/389 402/402 395/395
f 374/374 375/375 391/391
f 371/371 396/396 377/377
f 403/403 389/389 404/404
f 400/400 399/399 392/392
f 395/395 401/401 394/394
f 389/389 405/405 406/406
f 398/398 407/407 397/397
f 389/389 394/394 404/404
f 387/387 394/394 388/388
f 407/407 403/403 408/408
f 403/403 409/409 410/410
f 403/403 411/411 412/412
f 390/390 405/405 389/389
f 393/393 392/392 384/384
f 408/408 413/413 407/407
f 412/412 409/409 403/403
f 414/414 403/403 407/407
f 404/404 411/411 403/403
f 410/410 408/408 403/403
f 407/407 415/415 414/414
f 413/413 397/397 407/407
f 406/406 402/402 389/389
f 415/415 416/416 414/414
f 417/417 418/418 419/419
f 420/420 419/419 421/421
f 422/422 421/421 423/423
f 424/424 423/423 425/425
f 426/426 417/417 420/420
f 427/427 420/420 422/422
f 428/428 422/422 424/424
f 429/429 424/424 430/430
f 431/431 426/426 427/427
f 432/432 427/427 428/428
f 433/433 428/428 429/429
f 434/434 429/429 435/435
f 436/436 434/434 437/437
f 436/436 433/433 434/434
f 436/436 432/432 433/433
f 436/436 431/431 432/432
f 435/435 437/437 434/434
f 429/429 434/434 433/433
f 428/428 433/433 432/432
f 427/427 432/432 431/431
f 430/430 435/435 429/429
f 424/424 429/429 428/428
f 422/422 428/428 427/427
f 420/420 427/427 426/426
f 425/425 430/430 424/424
f 423/423 424/424 422/422
f 421/421 422/422 420/420
f 419/419 420/420 417/417
f 438/438 439/439 440/440
f 439/439 441/441 442/442
f 441/441 443/443 444/444
f 443/443 445/445 446/446
f 447/447 440/440 448/448
f 440/440 442/442 449/449
f 442/442 444/444 450/450
f 444/444 446/446 451/451
f 452/452 448/448 453/453
f 448/448 449/449 454/454
f 449/449 450/450 455/455
f 450/450 451/451 456/456
f 457/457 453/453 458/458
f 453/453 454/454 459/459
f 454/454 455/455 460/460
f 455/455 456/456 461/461
f 461/461 460/460 455/455
f 460/460 459/459 454/454
f 459/459 458/458 453/453
f 458/458 462/462 457/457
f 456/456 455/455 450/450
f 455/455 454/454 449/449
f 454/454 453/453 448/448
f 453/453 457/457 452/452
f 451/451 450/450 444/444
f 450/450 449/449 442/442
f 449/449 448/448 440/440
f 448/448 452/452 447/447
f 446/446 444/444 443/443
f 444/444 442/442 441/441
f 442/442 440/440 439/439
f 440/440 447/447 438/438
f 463/463 464/464 465/465
f 465/465 466/466 463/463
f 467/467 468/468 469/469
f 470/470 467/467 471/471
f 472/472 470/470 473/473
f 474/474 472/472 475/475
f 475/475 476/476 474/474
f 473/473 475/475 472/472
f 471/471 473/473 470/470
f 469/469 471/471 467/467
f 477/477 478/478 479/479
f 480/480 479/479 481/481
f 482/482 481/481 483/483
f 484/484 483/483 485/485
f 485/485 486/486 484/484
f 483/483 484/484 482/482
f 481/481 482/482 480/480
f 479/479 480/480 477/477
f 487/487 488/488 489/489
f 490/490 489/489 491/491
f 492/492 491/491 493/493
f 494/494 493/493 495/495
f 496/496 487/487 490/490
f 497/497 490/490 492/492
f 498/498 492/492 494/494
f 499/499 494/494 500/500
f 501/501 496/496 497/497
f 502/502 497/497 498/498
f 503/503 498/498 499/499
f 504/504 499/499 505/505
f 506/506 501/501 502/502
f 507/507 502/502 503/503
f 508/508 503/503 504/504
f 509/509 504/504 510/510
f 510/510 511/511 509/509
f 504/504 509/509 508/508
f 503/503 508/508 507/507
f 502/502 507/507 506/506
f 505/505 510/510 504/504
f 499/499 504/504 503/503
f 498/498 503/503 502/502
f 497/497 502/502 501/501
f 500/500 505/505 499/499
f 494/494 499/499 498/498
f 492/492 498/498 497/497
f 490/490 497/497 496/496
f 495/495 500/500 494/494
f 493/493 494/494 492/492
f 491/491 492/492 490/490
f 489/489 490/490 487/487
f 512/512 513/513 514/514
f 515/515 512/512 516/516
f 517/517 515/515 518/518
f 519/519 517/517 520/520
f 521/521 519/519 522/522
f 523/523 521/521 524/524
f 525/525 523/523 526/526
f 527/527 525/525 528/528
f 529/529 527/527 530/530
f 531/531 529/529 532/532
f 533/533 531/531 534/534
f 535/535 533/533 536/536
f 537/537 535/535 538/538
f 539/539 537/537 540/540
f 541/541 539/539 542/542
f 513/513 541/541 543/543
f 543/543 514/514 513/513
f 542/542 543/543 541/541
f 540/540 542/542 539/539
f 538/538 540/540 537/537
f 536/536 538/538 535/535
f 534/534 536/536 533/533
f 532/532 534/534 531/531
f 530/530 532/532 529/529
f 528/528 530/530 527/527
f 526/526 528/528 525/525
f 524/524 526/526 523/523
f 522/522 524/524 521/521
f 520/520 522/522 519/519
f 518/518 520/520 517/517
f 516/516 518/518 515/515
f 514/514 516/516 512/512
f 544/544 545/545 546/546
f 545/545 547/547 548/548
f 549/549 550/550 551/551
f 550/550 552/552 553/553
f 548/548 546/546 545/545
f 547/547 554/554 555/555
f 556/556 557/557 555/555
f 556/556 549/549 558/558
f 553/553 551/551 550/550
f 552/552 559/559 560/560
f 559/559 561/561 562/562
f 561/561 563/563 564/564
f 555/555 548/548 547/547
f 558/558 557/557 556/556
f 560/560 553/553 552/552
f 564/564 562/562 561/561
f 565/565 566/566 567/567
f 565/565 568/568 569/569
f 555/555 554/554 556/556
f 562/562 560/560 559/559
f 570/570 567/567 564/564
f 569/569 566/566 565/565
f 551/551 558/558 549/549
f 567/567 570/570 565/565
f 568/568 571/571 572/572
f 571/571 573/573 574/574
f 564/564 563/563 570/570
f 574/574 572/572 571/571
f 572/572 569/569 568/568
f 544/544 575/575 574/574
f 574/574 573/573 544/544
f 546/546 575/575 544/544
f 576/576 577/577 578/578
f 579/579 576/576 580/580
f 581/581 579/579 582/582
f 583/583 581/581 584/584
f 585/585 583/583 586/586
f 587/587 585/585 588/588
f 589/589 587/587 590/590
f 591/591 589/589 592/592
f 593/593 591/591 594/594
f 595/595 593/593 596/596
f 597/597 595/595 598/598
f 599/599 597/597 600/600
f 601/601 599/599 602/602
f 603/603 601/601 604/604
f 605/605 603/603 606/606
f 577/577 605/605 607/607
f 607/607 578/578 577/577
f 606/606 607/607 605/605
f 604/604 606/606 603/603
f 602/602 604/604 601/601
f 600/600 602/602 599/599
f 598/598 600/600 597/597
f 596/596 598/598 595/595
f 594/594 596/596 593/593
f 592/592 594/594 591/591
f 590/590 592/592 589/589
f 588/588 590/590 587/587
f 586/586 588/588 585/585
f 584/584 586/586 583/583
f 582/582 584/584 581/581
f 580/580 582/582 579/579
f 578/578 580/580 576/576
f 608/608 609/609 610/610
f 611/611 610/610 612/612
f 613/613 612/612 614/614
f 615/615 614/614 616/616
f 616/616 617/617 615/615
f 614/614 615/615 613/613
f 612/612 613/613 611/611
f 610/610 611/611 608/608
f 618/618 619/619 620/620
f 621/621 620/620 622/622
f 623/623 622/622 624/624
f 625/625 624/624 626/626
f 627/627 618/618 621/621
f 628/628 621/621 623/623
f 629/629 623/623 625/625
f 630/630 625/625 631/631
f 632/632 627/627 628/628
f 633/633 628/628 629/629
f 634/634 629/629 630/630
f 635/635 630/630 636/636
f 637/637 635/635 638/638
f 637/637 634/634 635/635
f 637/637 633/633 634/634
f 637/637 632/632 633/633
f 636/636 638/638 635/635
f 630/630 635/635 634/634
f 629/629 634/634 633/633
f 628/628 633/633 632/632
f 631/631 636/636 630/630
f 625/625 630/630 629/629
f 623/623 629/629 628/628
f 621/621 628/628 627/627
f 626/626 631/631 625/625
f 624/624 625/625 623/623
f 622/622 623/623 621/621
f 620/620 621/621 618/618
f 639/639 640/640 641/641
f 642/642 641/641 643/643
f 644/644 643/643 645/645
f 646/646 645/645 647/647
f 647/647 648/648 646/646
f 645/645 646/646 644/644
f 643/643 644/644 642/642
f 641/641 642/642 639/639
f 649/649 650/650 651/651
f 652/652 651/651 653/653
f 654/654 653/653 655/655
f 656/656 655/655 657/657
f 658/658 649/649 652/652
f 659/659 652/652 654/654
f 660/660 654/654 656/656
f 661/661 656/656 662/662
f 663/663 658/658 659/659
f 664/664 659/659 660/660
f 665/665 660/660 661/661
f 666/666 661/661 667/667
f 668/668 666/666 669/669
f 668/668 665/665 666/666
f 668/668 664/664 665/665
f 668/668 663/663 664/664
f 667/667 669/669 666/666
f 661/661 666/666 665/665
f 660/660 665/665 664/664
f 659/659 664/664 663/663
f 662/662 667/667 661/661
f 656/656 661/661 660/660
f 654/654 660/660 659/659
f 652/652 659/659 658/658
f 657/657 662/662 656/656
f 655/655 656/656 654/654
f 653/653 654/654 652/652
f 651/651 652/652 649/649
f 670/670 671/671 672/672
f 673/673 672/672 674/674
f 675/675 674/674 676/676
f 677/677 676/676 678/678
f 678/678 679/679 677/677
f 676/676 677/677 675/675
f 674/674 675/675 673/673
f 672/672 673/673 670/670
f 680/680 681/681 682/682
f 683/683 682/682 684/684
f 685/685 684/684 686/686
f 687/687 686/686 688/688
f 688/688 689/689 687/687
f 686/686 687/687 685/685
f 684/684 685/685 683/683
f 682/682 683/683 680/680
f 690/690 691/691 692/692
f 690/690 693/693 691/691
f 690/690 694/694 695/695
f 696/696 697/697 698/698
f 695/695 693/693 690/690
f 696/696 699/699 700/700
f 698/698 701/701 696/696
f 702/702 703/703 704/704
f 692/692 705/705 690/690
f 692/692 698/698 706/706
f 701/701 699/699 696/696
f 702/702 707/707 708/708
f 703/703 709/709 704/704
f 692/692 710/710 705/705
f 698/698 711/711 706/706
f 700/700 712/712 696/696
f 708/708 712/712 702/702
f 702/702 713/713 714/714
f 703/703 715/715 709/709
f 703/703 694/694 716/716
f 706/706 710/710 692/692
f 708/708 696/696 712/712
f 704/704 713/713 702/702
f 716/716 717/717 703/703
f 697/697 711/711 698/698
f 717/717 715/715 703/703
f 714/714 707/707 702/702
f 690/690 716/716 694/694
f 718/718 719/719 720/720
f 720/720 721/721 718/718
f 722/722 723/723 724/724
f 725/725 724/724 726/726
f 727/727 726/726 728/728
f 729/729 728/728 730/730
f 731/731 722/722 725/725
f 732/732 725/725 727/727
f 733/733 727/727 729/729
f 734/734 729/729 735/735
f 736/736 731/731 732/732
f 737/737 732/732 733/733
f 738/738 733/733 734/734
f 739/739 734/734 740/740
f 741/741 739/739 742/742
f 741/741 738/738 739/739
f 741/741 737/737 738/738
f 741/741 736/736 737/737
f 740/740 742/742 739/739
f 734/734 739/739 738/738
f 733/733 738/738 737/737
f 732/732 737/737 736/736
f 735/735 740/740 734/734
f 729/729 734/734 733/733
f 727/727 733/733 732/732
f 725/725 732/732 731/731
f 730/730 735/735 729/729
f 728/728 729/729 727/727
f 726/726 727/727 725/725
f 724/724 725/725 722/722
f 743/743 744/744 745/745
f 746/746 745/745 747/747
f 748/748 747/747 749/749
f 750/750 749/749 751/751
f 751/751 752/752 750/750
f 749/749 750/750 748/748
f 747/747 748/748 746/746
f 745/745 746/746 743/743
f 753/753 754/754 755/755
f 756/756 755/755 757/757
f 758/758 757/757 759/759
f 760/760 759/759 761/761
f 761/761 762/762 760/760
f 759/759 760/760 758/758
f 757/757 758/758 756/756
f 755/755 756/756 753/753
f 763/763 764/764 765/765
f 764/764 766/766 765/765
f 764/764 767/767 766/766
f 764/764 768/768 767/767
f 769/769 770/770 768/768
f 768/768 764/764 769/769
f 769/769 771/771 770/770
f 769/769 772/772 771/771
f 773/773 774/774 772/772
f 772/772 769/769 773/773
f 765/765 775/775 763/763
f 776/776 777/777 778/778
f 779/779 778/778 780/780
f 781/781 780/780 782/782
f 783/783 782/782 784/784
f 785/785 776/776 779/779
f 786/786 779/779 781/781
f 787/787 781/781 783/783
f 788/788 783/783 789/789
f 790/790 785/785 786/786
f 791/791 786/786 787/787
f 792/792 787/787 788/788
f 793/793 788/788 794/794
f 795/795 793/793 796/796
f 795/795 792/792 793/793
f 795/795 791/791 792/792
f 795/795 790/790 791/791
f 794/794 796/796 793/793
f 788/788 793/793 792/792
f 787/787 792/792 791/791
f 786/786 791/791 790/790
f 789/789 794/794 788/788
f 783/783 788/788 787/787
f 781/781 787/787 786/786
f 779/779 786/786 785/785
f 784/784 789/789 783/783
f 782/782 783/783 781/781
f 780/780 781/781 779/779
f 778/778 779/779 776/776
f 797/797 798/798 799/799
f 800/800 799/799 801/801
f 802/802 801/801 803/803
f 804/804 803/803 805/805
f 805/805 806/806 804/804
f 803/803 804/804 802/802
f 801/801 802/802 800/800
f 799/799 800/800 797/797
f 807/807 808/808 809/809
f 810/810 809/809 811/811
f 812/812 811/811 813/813
f 814/814 813/813 815/815
f 815/815 816/816 814/814
f 813/813 814/814 812/812
f 811/811 812/812 810/810
f 809/809 810/810 807/807
f 817/817 818/818 819/819
f 820/820 819/819 821/821
f 822/822 821/821 823/823
f 824/824 823/823 825/825
f 825/825 826/826 824/824
f 823/823 824/824 822/822
f 821/821 822/822 820/820
f 819/819 820/820 817/817
f 827/827 828/828 829/829
f 829/829 830/830 827/827
f 831/831 832/832 833/833
f 834/834 831/831 835/835
f 836/836 834/834 837/837
f 838/838 836/836 839/839
f 840/840 838/838 841/841
f 842/842 840/840 843/843
f 844/844 842/842 845/845
f 846/846 844/844 847/847
f 847/847 848/848 846/846
f 845/845 847/847 844/844
f 843/843 845/845 842/842
f 841/841 843/843 840/840
f 839/839 841/841 838/838
f 837/837 839/839 836/836
f 835/835 837/837 834/834
f 833/833 835/835 831/831
f 849/849 850/850 851/851
f 852/852 853/853 854/854
f 849/849 855/855 850/850
f 849/849 856/856 857/857
f 851/851 858/858 859/859
f 860/860 858/858 861/861
f 852/852 862/862 853/853
f 863/863 864/864 865/865
f 863/863 856/856 866/866
f 857/857 855/855 849/849
f 858/858 867/867 859/859
f 860/860 868/868 869/869
f 861/861 870/870 860/860
f 852/852 871/871 862/862
f 865/865 852/852 863/863
f 863/863 872/872 873/873
f 856/856 849/849 866/866
f 851/851 874/874 875/875
f 858/858 860/860 867/867
f 870/870 868/868 860/860
f 865/865 871/871 852/852
f 866/866 872/872 863/863
f 859/859 874/874 851/851
f 869/869 854/854 876/876
f 873/873 864/864 863/863
f 869/869 876/876 860/860
f 851/851 875/875 849/849
f 854/854 869/869 852/852
f 877/877 878/878 879/879
f 880/880 877/877 881/881
f 882/882 880/880 883/883
f 884/884 882/882 885/885
f 886/886 884/884 887/887
f 888/888 886/886 889/889
f 890/890 888/888 891/891
f 892/892 890/890 893/893
f 894/894 892/892 895/895
f 896/896 894/894 897/897
f 898/898 896/896 899/899
f 900/900 898/898 901/901
f 902/902 900/900 903/903
f 904/904 902/902 905/905
f 906/906 904/904 907/907
f 878/878 906/906 908/908
f 908/908 879/879 878/878
f 907/907 908/908 906/906
f 905/905 907/907 904/904
f 903/903 905/905 902/902
f 901/901 903/903 900/900
f 899/899 901/901 898/898
f 897/897 899/899 896/896
f 895/895 897/897 894/894
f 893/893 895/895 892/892
f 891/891 893/893 890/890
f 889/889 891/891 888/888
f 887/887 889/889 886/886
f 885/885 887/887 884/884
f 883/883 885/885 882/882
f 881/881 883/883 880/880
f 879/879 881/881 877/877
f 909/909 910/910 911/911
f 910/910 912/912 913/913
f 914/914 915/915 916/916
f 915/915 917/917 918/918
f 913/913 911/911 910/910
f 912/912 919/919 920/920
f 921/921 922/922 920/920
f 921/921 914/914 923/923
f 918/918 916/916 915/915
f 917/917 924/924 925/925
f 924/924 926/926 927/927
f 926/926 928/928 929/929
f 920/920 913/913 912/912
f 923/923 922/922 921/921
f 925/925 918/918 917/917
f 929/929 927/927 926/926
f 930/930 931/931 932/932
f 930/930 933/933 934/934
f 920/920 919/919 921/921
f 927/927 925/925 924/924
f 935/935 932/932 929/929
f 934/934 931/931 930/930
f 916/916 923/923 914/914
f 932/932 935/935 930/930
f 933/933 936/936 937/937
f 936/936 938/938 939/939
f 929/929 928/928 935/935
f 939/939 937/937 936/936
f 937/937 934/934 933/933
f 909/909 940/940 939/939
f 939/939 938/938 909/909
f 911/911 940/940 909/909
f 941/941 942/942 943/943
f 944/944 941/941 945/945
f 946/946 944/944 947/947
f 948/948 946/946 949/949
f 950/950 948/948 951/951
f 952/952 950/950 953/953
f 954/954 952/952 955/955
f 956/956 954/954 957/957
f 958/958 956/956 959/959
f 960/960 958/958 961/961
f 962/962 960/960 963/963
f 964/964 962/962 965/965
f 966/966 964/964 967/967
f 968/968 966/966 969/969
f 970/970 968/968 971/971
f 942/942 970/970 972/972
f 972/972 943/943 942/942
f 971/971 972/972 970/970
f 969/969 971/971 968/968
f 967/967 969/969 966/966
f 965/965 967/967 964/964
f 963/963 965/965 962/962
f 961/961 963/963 960/960
f 959/959 961/961 958/958
f 957/957 959/959 956/956
f 955/955 957/957 954/954
f 953/953 955/955 952/952
f 951/951 953/953 950/950
f 949/949 951/951 948/948
f 947/947 949/949 946/946
f 945/945 947/947 944/944
f 943/943 945/945 941/941

