# https://github.com/mikedh/trimesh
mtllib material.mtl
usemtl material_0
v -0.00214794 0.00000000 0.00018617
v -0.00208861 0.00000000 0.00010065
v -0.00208861 0.00003852 0.00009299
v -0.00214794 0.00007125 0.00017200
v -0.00208861 0.00007117 0.00007117
v -0.00214794 0.00013164 0.00013164
v -0.00208861 0.00009299 0.00003852
v -0.00214794 0.00017200 0.00007125
v -0.00208861 0.00010065 0.00000000
v -0.00214794 0.00018617 0.00000000
v -0.00208861 0.00009299 -0.00003852
v -0.00214794 0.00017200 -0.00007125
v -0.00208861 0.00007117 -0.00007117
v -0.00214794 0.00013164 -0.00013164
v -0.00208861 0.00003852 -0.00009299
v -0.00214794 0.00007125 -0.00017200
v -0.00208861 -0.00000000 -0.00010065
v -0.00214794 -0.00000000 -0.00018617
v -0.00208861 -0.00003852 -0.00009299
v -0.00214794 -0.00007125 -0.00017200
v -0.00208861 -0.00007117 -0.00007117
v -0.00214794 -0.00013164 -0.00013164
v -0.00208861 -0.00009299 -0.00003852
v -0.00214794 -0.00017200 -0.00007125
v -0.00208861 -0.00010065 0.00000000
v -0.00214794 -0.00018617 0.00000000
v -0.00208861 -0.00009299 0.00003852
v -0.00214794 -0.00017200 0.00007125
v -0.00208861 -0.00007117 0.00007117
v -0.00214794 -0.00013164 0.00013164
v -0.00208861 -0.00003852 0.00009299
v -0.00214794 -0.00007125 0.00017200
v -0.00223293 0.00000000 0.00024627
v -0.00223293 0.00009425 0.00022753
v -0.00223293 0.00017414 0.00017414
v -0.00223293 0.00022753 0.00009425
v -0.00223293 0.00024627 0.00000000
v -0.00223293 0.00022753 -0.00009425
v -0.00223293 0.00017414 -0.00017414
v -0.00223293 0.00009425 -0.00022753
v -0.00223293 0.00000000 -0.00024627
v -0.00223293 -0.00009425 -0.00022753
v -0.00223293 -0.00017414 -0.00017414
v -0.00223293 -0.00022753 -0.00009425
v -0.00223293 -0.00024627 0.00000000
v -0.00223293 -0.00022753 0.00009425
v -0.00223293 -0.00017414 0.00017414
v -0.00223293 -0.00009425 0.00022753
v -0.00206207 0.00000000 0.00000000
v -0.00206207 0.00000000 0.00000000
v -0.00206207 0.00000000 0.00000000
v -0.00206207 0.00000000 0.00000000
v -0.00206207 0.00000000 0.00000000
v -0.00206207 0.00000000 0.00000000
v -0.00206207 0.00000000 0.00000000
v -0.00206207 0.00000000 0.00000000
v -0.00206207 0.00000000 0.00000000
v -0.00206207 0.00000000 0.00000000
v -0.00206207 0.00000000 0.00000000
v -0.00206207 0.00000000 0.00000000
v -0.00206207 0.00000000 0.00000000
v -0.00206207 0.00000000 0.00000000
v -0.00206207 0.00000000 0.00000000
v -0.00206207 0.00000000 0.00000000
v -0.00385847 0.00000000 0.00082500
v -0.00223293 0.00000000 0.00024627
v -0.00223293 0.00009425 0.00022753
v -0.00385847 0.00031571 0.00076220
v -0.00223293 0.00017414 0.00017414
v -0.00385847 0.00058336 0.00058336
v -0.00223293 0.00022753 0.00009425
v -0.00385847 0.00076220 0.00031571
v -0.00223293 0.00024627 0.00000000
v -0.00385847 0.00082500 0.00000000
v -0.00223293 0.00022753 -0.00009425
v -0.00385847 0.00076220 -0.00031571
v -0.00223293 0.00017414 -0.00017414
v -0.00385847 0.00058336 -0.00058336
v -0.00223293 0.00009425 -0.00022753
v -0.00385847 0.00031571 -0.00076220
v -0.00223293 0.00000000 -0.00024627
v -0.00385847 0.00000000 -0.00082500
v -0.00223293 -0.00009425 -0.00022753
v -0.00385847 -0.00031571 -0.00076220
v -0.00223293 -0.00017414 -0.00017414
v -0.00385847 -0.00058336 -0.00058336
v -0.00223293 -0.00022753 -0.00009425
v -0.00385847 -0.00076220 -0.00031571
v -0.00223293 -0.00024627 0.00000000
v -0.00385847 -0.00082500 -0.00000000
v -0.00223293 -0.00022753 0.00009425
v -0.00385847 -0.00076220 0.00031571
v -0.00223293 -0.00017414 0.00017414
v -0.00385847 -0.00058336 0.00058336
v -0.00223293 -0.00009425 0.00022753
v -0.00385847 -0.00031571 0.00076220
v -0.00680846 0.00000000 0.00082500
v -0.00385847 0.00000000 0.00082500
v -0.00385847 0.00031571 0.00076220
v -0.00680846 0.00031571 0.00076220
v -0.00385847 0.00058336 0.00058336
v -0.00680846 0.00058336 0.00058336
v -0.00385847 0.00076220 0.00031571
v -0.00680846 0.00076220 0.00031571
v -0.00385847 0.00082500 0.00000000
v -0.00680846 0.00082500 0.00000000
v -0.00385847 0.00076220 -0.00031571
v -0.00680846 0.00076220 -0.00031571
v -0.00385847 0.00058336 -0.00058336
v -0.00680846 0.00058336 -0.00058336
v -0.00385847 0.00031571 -0.00076220
v -0.00680846 0.00031571 -0.00076220
v -0.00385847 0.00000000 -0.00082500
v -0.00680846 0.00000000 -0.00082500
v -0.00385847 -0.00031571 -0.00076220
v -0.00680846 -0.00031571 -0.00076220
v -0.00385847 -0.00058336 -0.00058336
v -0.00680846 -0.00058336 -0.00058336
v -0.00385847 -0.00076220 -0.00031571
v -0.00680846 -0.00076220 -0.00031571
v -0.00385847 -0.00082500 -0.00000000
v -0.00680846 -0.00082500 0.00000000
v -0.00385847 -0.00076220 0.00031571
v -0.00680846 -0.00076220 0.00031571
v -0.00385847 -0.00058336 0.00058336
v -0.00680846 -0.00058336 0.00058336
v -0.00385847 -0.00031571 0.00076220
v -0.00680846 -0.00031571 0.00076220
v -0.00680846 0.00133555 -0.00322430
v -0.00680846 0.00031571 -0.00076220
v -0.00680846 0.00000000 -0.00082500
v -0.00680846 0.00246777 -0.00246777
v -0.00680846 0.00058336 -0.00058336
v -0.00680846 0.00322430 -0.00133555
v -0.00680846 0.00076220 -0.00031571
v -0.00680846 -0.00322430 0.00133555
v -0.00680846 -0.00076220 0.00031571
v -0.00680846 -0.00058336 0.00058336
v -0.00680846 -0.00348996 -0.00000000
v -0.00680846 -0.00082500 0.00000000
v -0.00680846 0.00348996 -0.00000000
v -0.00680846 0.00082500 0.00000000
v -0.00680846 -0.00322430 -0.00133555
v -0.00680846 -0.00076220 -0.00031571
v -0.00680846 0.00322430 0.00133555
v -0.00680846 0.00076220 0.00031571
v -0.00680846 -0.00246777 -0.00246777
v -0.00680846 -0.00058336 -0.00058336
v -0.00680846 -0.00133555 -0.00322430
v -0.00680846 -0.00031571 -0.00076220
v -0.00680846 0.00000000 -0.00348996
v -0.00680846 0.00246777 0.00246777
v -0.00680846 0.00058336 0.00058336
v -0.00680846 0.00133555 0.00322430
v -0.00680846 0.00031571 0.00076220
v -0.00680846 -0.00000000 0.00348996
v -0.00680846 0.00000000 0.00082500
v -0.00680846 -0.00133555 0.00322430
v -0.00680846 -0.00031571 0.00076220
v -0.00680846 -0.00246777 0.00246777
v -0.00680846 -0.00133555 0.00322430
v -0.00680846 -0.00000000 0.00348996
v -0.00132842 0.00000000 0.00348996
v -0.00680846 -0.00246777 0.00246777
v -0.00132842 -0.00133555 0.00322430
v -0.00680846 -0.00322430 0.00133555
v -0.00132842 -0.00246777 0.00246777
v -0.00680846 -0.00348996 -0.00000000
v -0.00132842 -0.00322430 0.00133555
v -0.00680846 -0.00322430 -0.00133555
v -0.00132842 -0.00348996 -0.00000000
v -0.00680846 -0.00246777 -0.00246777
v -0.00132842 -0.00322430 -0.00133555
v -0.00680846 -0.00133555 -0.00322430
v -0.00132842 -0.00246777 -0.00246777
v -0.00680846 0.00000000 -0.00348996
v -0.00132842 -0.00133555 -0.00322430
v -0.00680846 0.00133555 -0.00322430
v -0.00132842 0.00000000 -0.00348996
v -0.00680846 0.00246777 -0.00246777
v -0.00132842 0.00133555 -0.00322430
v -0.00680846 0.00322430 -0.00133555
v -0.00132842 0.00246777 -0.00246777
v -0.00680846 0.00348996 -0.00000000
v -0.00132842 0.00322430 -0.00133555
v -0.00680846 0.00322430 0.00133555
v -0.00132842 0.00348996 -0.00000000
v -0.00680846 0.00246777 0.00246777
v -0.00132842 0.00322430 0.00133555
v -0.00680846 0.00133555 0.00322430
v -0.00132842 0.00246777 0.00246777
v -0.00132842 0.00133555 0.00322430
v -0.00132842 0.00153073 0.00369551
v -0.00132842 0.00133555 0.00322430
v -0.00132842 0.00246777 0.00246777
v -0.00132842 -0.00000000 0.00399999
v -0.00132842 0.00000000 0.00348996
v -0.00132842 -0.00153073 0.00369551
v -0.00132842 -0.00133555 0.00322430
v -0.00132842 -0.00282842 0.00282842
v -0.00132842 -0.00246777 0.00246777
v -0.00132842 -0.00369551 0.00153073
v -0.00132842 -0.00322430 0.00133555
v -0.00132842 0.00153073 -0.00369551
v -0.00132842 0.00133555 -0.00322430
v -0.00132842 0.00000000 -0.00348996
v -0.00132842 0.00282842 -0.00282842
v -0.00132842 0.00246777 -0.00246777
v -0.00132842 -0.00399999 -0.00000000
v -0.00132842 -0.00348996 -0.00000000
v -0.00132842 0.00369551 -0.00153073
v -0.00132842 0.00322430 -0.00133555
v -0.00132842 -0.00369551 -0.00153073
v -0.00132842 -0.00322430 -0.00133555
v -0.00132842 0.00399999 -0.00000000
v -0.00132842 0.00348996 -0.00000000
v -0.00132842 -0.00282842 -0.00282842
v -0.00132842 -0.00246777 -0.00246777
v -0.00132842 0.00369551 0.00153073
v -0.00132842 0.00322430 0.00133555
v -0.00132842 -0.00153073 -0.00369551
v -0.00132842 -0.00133555 -0.00322430
v -0.00132842 0.00282842 0.00282842
v -0.00132842 0.00000000 -0.00399999
v -0.00912961 0.00000000 0.00399999
v -0.00132842 -0.00000000 0.00399999
v -0.00132842 0.00153073 0.00369551
v -0.00912961 0.00153073 0.00369551
v -0.00132842 0.00282842 0.00282842
v -0.00912961 0.00282842 0.00282842
v -0.00132842 0.00369551 0.00153073
v -0.00912961 0.00369551 0.00153073
v -0.00132842 0.00399999 -0.00000000
v -0.00912961 0.00399999 -0.00000000
v -0.00132842 0.00369551 -0.00153073
v -0.00912961 0.00369551 -0.00153073
v -0.00132842 0.00282842 -0.00282842
v -0.00912961 0.00282842 -0.00282842
v -0.00132842 0.00153073 -0.00369551
v -0.00912961 0.00153073 -0.00369551
v -0.00132842 0.00000000 -0.00399999
v -0.00912961 0.00000000 -0.00399999
v -0.00132842 -0.00153073 -0.00369551
v -0.00912961 -0.00153073 -0.00369551
v -0.00132842 -0.00282842 -0.00282842
v -0.00912961 -0.00282842 -0.00282842
v -0.00132842 -0.00369551 -0.00153073
v -0.00912961 -0.00369551 -0.00153073
v -0.00132842 -0.00399999 -0.00000000
v -0.00912961 -0.00399999 -0.00000000
v -0.00132842 -0.00369551 0.00153073
v -0.00912961 -0.00369551 0.00153073
v -0.00132842 -0.00282842 0.00282842
v -0.00912961 -0.00282842 0.00282842
v -0.00132842 -0.00153073 0.00369551
v -0.00912961 -0.00153073 0.00369551
v -0.00912961 0.00873634 -0.00000000
v -0.00912961 0.00399999 -0.00000000
v -0.00912961 0.00369551 -0.00153073
v -0.00912961 0.00807133 0.00334325
v -0.00912961 0.00369551 0.00153073
v -0.00912961 -0.00617753 0.00617753
v -0.00912961 -0.00807133 0.00334325
v -0.00912961 -0.00369551 0.00153073
v -0.00912961 -0.00873634 -0.00000000
v -0.00912961 -0.00399999 -0.00000000
v -0.00912961 0.00617753 0.00617753
v -0.00912961 0.00282842 0.00282842
v -0.00912961 -0.00807133 -0.00334325
v -0.00912961 -0.00369551 -0.00153073
v -0.00912961 0.00334325 0.00807133
v -0.00912961 0.00153073 0.00369551
v -0.00912961 -0.00617753 -0.00617753
v -0.00912961 -0.00282842 -0.00282842
v -0.00912961 -0.00000000 0.00873634
v -0.00912961 0.00000000 0.00399999
v -0.00912961 -0.00334325 0.00807133
v -0.00912961 -0.00153073 0.00369551
v -0.00912961 -0.00282842 0.00282842
v -0.00912961 -0.00334325 -0.00807133
v -0.00912961 -0.00153073 -0.00369551
v -0.00912961 0.00334325 -0.00807133
v -0.00912961 0.00153073 -0.00369551
v -0.00912961 0.00000000 -0.00399999
v -0.00912961 0.00617753 -0.00617753
v -0.00912961 0.00282842 -0.00282842
v -0.00912961 0.00000000 -0.00873634
v -0.00912961 0.00807133 -0.00334325
v -0.00912961 -0.00334325 0.00807133
v -0.00912961 -0.00000000 0.00873634
v -0.00876300 0.00000000 0.00873634
v -0.00912961 -0.00617753 0.00617753
v -0.00876300 -0.00334325 0.00807133
v -0.00912961 -0.00807133 0.00334325
v -0.00876300 -0.00617753 0.00617753
v -0.00912961 -0.00873634 -0.00000000
v -0.00876300 -0.00807133 0.00334325
v -0.00912961 -0.00807133 -0.00334325
v -0.00876300 -0.00873634 -0.00000000
v -0.00912961 -0.00617753 -0.00617753
v -0.00876300 -0.00807133 -0.00334325
v -0.00912961 -0.00334325 -0.00807133
v -0.00876300 -0.00617753 -0.00617753
v -0.00912961 0.00000000 -0.00873634
v -0.00876300 -0.00334325 -0.00807133
v -0.00912961 0.00334325 -0.00807133
v -0.00876300 0.00000000 -0.00873634
v -0.00912961 0.00617753 -0.00617753
v -0.00876300 0.00334325 -0.00807133
v -0.00912961 0.00807133 -0.00334325
v -0.00876300 0.00617753 -0.00617753
v -0.00912961 0.00873634 -0.00000000
v -0.00876300 0.00807133 -0.00334325
v -0.00912961 0.00807133 0.00334325
v -0.00876300 0.00873634 -0.00000000
v -0.00912961 0.00617753 0.00617753
v -0.00876300 0.00807133 0.00334325
v -0.00912961 0.00334325 0.00807133
v -0.00876300 0.00617753 0.00617753
v -0.00876300 0.00334325 0.00807133
v -0.00876300 0.00334325 0.00807133
v -0.00876300 0.00300860 0.00726340
v -0.00876300 0.00000000 0.00786185
v -0.00876300 0.00617753 0.00617753
v -0.00876300 0.00555917 0.00555917
v -0.00876300 0.00807133 0.00334325
v -0.00876300 0.00726340 0.00300860
v -0.00876300 0.00873634 -0.00000000
v -0.00876300 0.00786185 -0.00000000
v -0.00876300 0.00807133 -0.00334325
v -0.00876300 0.00726340 -0.00300860
v -0.00876300 0.00617753 -0.00617753
v -0.00876300 0.00555917 -0.00555917
v -0.00876300 0.00334325 -0.00807133
v -0.00876300 0.00300860 -0.00726340
v -0.00876300 0.00000000 -0.00873634
v -0.00876300 0.00000000 -0.00786185
v -0.00876300 -0.00334325 -0.00807133
v -0.00876300 -0.00300860 -0.00726340
v -0.00876300 -0.00617753 -0.00617753
v -0.00876300 -0.00555917 -0.00555917
v -0.00876300 -0.00807133 -0.00334325
v -0.00876300 -0.00726340 -0.00300860
v -0.00876300 -0.00617753 0.00617753
v -0.00876300 -0.00555917 0.00555917
v -0.00876300 -0.00726340 0.00300860
v -0.00876300 -0.00334325 0.00807133
v -0.00876300 -0.00300860 0.00726340
v -0.00876300 -0.00873634 -0.00000000
v -0.00876300 -0.00786185 0.00000000
v -0.00876300 -0.00807133 0.00334325
v -0.00876300 0.00000000 0.00873634
v -0.00862707 0.00000000 -0.00809729
v -0.00862707 0.00309870 -0.00748092
v -0.00876300 0.00300860 -0.00726340
v -0.00862707 0.00572565 -0.00572565
v -0.00876300 0.00555917 -0.00555917
v -0.00862707 0.00748092 -0.00309870
v -0.00876300 0.00726340 -0.00300860
v -0.00862707 0.00809729 -0.00000000
v -0.00876300 0.00786185 -0.00000000
v -0.00862707 0.00748092 0.00309870
v -0.00876300 0.00726340 0.00300860
v -0.00862707 0.00572565 0.00572565
v -0.00876300 0.00555917 0.00555917
v -0.00862707 0.00309870 0.00748092
v -0.00876300 0.00300860 0.00726340
v -0.00862707 0.00000000 0.00809729
v -0.00876300 0.00000000 0.00786185
v -0.00862707 -0.00309870 0.00748092
v -0.00876300 -0.00300860 0.00726340
v -0.00862707 -0.00572565 0.00572565
v -0.00876300 -0.00555917 0.00555917
v -0.00862707 -0.00748092 0.00309870
v -0.00876300 -0.00726340 0.00300860
v -0.00862707 -0.00809729 0.00000000
v -0.00876300 -0.00786185 0.00000000
v -0.00862707 -0.00748092 -0.00309870
v -0.00876300 -0.00726340 -0.00300860
v -0.00862707 -0.00572565 -0.00572565
v -0.00876300 -0.00555917 -0.00555917
v -0.00862707 -0.00309870 -0.00748092
v -0.00876300 -0.00300860 -0.00726340
v -0.00876300 0.00000000 -0.00786185
v -0.00862707 0.00000000 0.00809729
v -0.00862707 0.00309870 0.00748092
v -0.00818185 0.00280360 0.00676849
v -0.00862707 0.00572565 0.00572565
v -0.00818185 0.00518038 0.00518038
v -0.00862707 0.00748092 0.00309870
v -0.00818185 0.00676849 0.00280360
v -0.00862707 0.00809729 -0.00000000
v -0.00818185 0.00732616 0.00000000
v -0.00862707 0.00748092 -0.00309870
v -0.00818185 0.00676849 -0.00280360
v -0.00862707 0.00572565 -0.00572565
v -0.00818185 0.00518038 -0.00518038
v -0.00862707 0.00309870 -0.00748092
v -0.00818185 0.00280360 -0.00676849
v -0.00862707 0.00000000 -0.00809729
v -0.00818185 0.00000000 -0.00732616
v -0.00862707 -0.00309870 -0.00748092
v -0.00818185 -0.00280360 -0.00676849
v -0.00862707 -0.00572565 -0.00572565
v -0.00818185 -0.00518038 -0.00518038
v -0.00862707 -0.00748092 -0.00309870
v -0.00818185 -0.00676849 -0.00280360
v -0.00862707 -0.00809729 0.00000000
v -0.00818185 -0.00732616 -0.00000000
v -0.00862707 -0.00748092 0.00309870
v -0.00818185 -0.00676849 0.00280360
v -0.00862707 -0.00572565 0.00572565
v -0.00818185 -0.00518038 0.00518038
v -0.00862707 -0.00309870 0.00748092
v -0.00818185 -0.00280360 0.00676849
v -0.00818185 0.00000000 0.00732616
v -0.00773664 0.00000000 -0.00809729
v -0.00773664 0.00309870 -0.00748092
v -0.00818185 0.00280360 -0.00676849
v -0.00773664 0.00572565 -0.00572565
v -0.00818185 0.00518038 -0.00518038
v -0.00773664 0.00748092 -0.00309870
v -0.00818185 0.00676849 -0.00280360
v -0.00773664 0.00809729 -0.00000000
v -0.00818185 0.00732616 0.00000000
v -0.00773664 0.00748092 0.00309870
v -0.00818185 0.00676849 0.00280360
v -0.00773664 0.00572565 0.00572565
v -0.00818185 0.00518038 0.00518038
v -0.00773664 0.00309870 0.00748092
v -0.00818185 0.00280360 0.00676849
v -0.00773664 0.00000000 0.00809729
v -0.00818185 0.00000000 0.00732616
v -0.00773664 -0.00309870 0.00748092
v -0.00818185 -0.00280360 0.00676849
v -0.00773664 -0.00572565 0.00572565
v -0.00818185 -0.00518038 0.00518038
v -0.00773664 -0.00748092 0.00309870
v -0.00818185 -0.00676849 0.00280360
v -0.00773664 -0.00809729 0.00000000
v -0.00818185 -0.00732616 -0.00000000
v -0.00773664 -0.00748092 -0.00309870
v -0.00818185 -0.00676849 -0.00280360
v -0.00773664 -0.00572565 -0.00572565
v -0.00818185 -0.00518038 -0.00518038
v -0.00773664 -0.00309870 -0.00748092
v -0.00818185 -0.00280360 -0.00676849
v -0.00818185 0.00000000 -0.00732616
v -0.00773664 0.00000000 0.00809729
v -0.00773664 0.00309870 0.00748092
v -0.00729143 0.00280360 0.00676849
v -0.00773664 0.00572565 0.00572565
v -0.00729143 0.00518038 0.00518038
v -0.00773664 0.00748092 0.00309870
v -0.00729143 0.00676849 0.00280360
v -0.00773664 0.00809729 -0.00000000
v -0.00729143 0.00732616 0.00000000
v -0.00773664 0.00748092 -0.00309870
v -0.00729143 0.00676849 -0.00280360
v -0.00773664 0.00572565 -0.00572565
v -0.00729143 0.00518038 -0.00518038
v -0.00773664 0.00309870 -0.00748092
v -0.00729143 0.00280360 -0.00676849
v -0.00773664 0.00000000 -0.00809729
v -0.00729143 0.00000000 -0.00732616
v -0.00773664 -0.00309870 -0.00748092
v -0.00729143 -0.00280360 -0.00676849
v -0.00773664 -0.00572565 -0.00572565
v -0.00729143 -0.00518038 -0.00518038
v -0.00773664 -0.00748092 -0.00309870
v -0.00729143 -0.00676849 -0.00280360
v -0.00773664 -0.00809729 0.00000000
v -0.00729143 -0.00732616 -0.00000000
v -0.00773664 -0.00748092 0.00309870
v -0.00729143 -0.00676849 0.00280360
v -0.00773664 -0.00572565 0.00572565
v -0.00729143 -0.00518038 0.00518038
v -0.00773664 -0.00309870 0.00748092
v -0.00729143 -0.00280360 0.00676849
v -0.00729143 0.00000000 0.00732616
v -0.00684622 0.00000000 -0.00809729
v -0.00684622 0.00309870 -0.00748092
v -0.00729143 0.00280360 -0.00676849
v -0.00684622 0.00572565 -0.00572565
v -0.00729143 0.00518038 -0.00518038
v -0.00684622 0.00748092 -0.00309870
v -0.00729143 0.00676849 -0.00280360
v -0.00684622 0.00809729 -0.00000000
v -0.00729143 0.00732616 0.00000000
v -0.00684622 0.00748092 0.00309870
v -0.00729143 0.00676849 0.00280360
v -0.00684622 0.00572565 0.00572565
v -0.00729143 0.00518038 0.00518038
v -0.00684622 0.00309870 0.00748092
v -0.00729143 0.00280360 0.00676849
v -0.00684622 0.00000000 0.00809729
v -0.00729143 0.00000000 0.00732616
v -0.00684622 -0.00309870 0.00748092
v -0.00729143 -0.00280360 0.00676849
v -0.00684622 -0.00572565 0.00572565
v -0.00729143 -0.00518038 0.00518038
v -0.00684622 -0.00748092 0.00309870
v -0.00729143 -0.00676849 0.00280360
v -0.00684622 -0.00809729 0.00000000
v -0.00729143 -0.00732616 -0.00000000
v -0.00684622 -0.00748092 -0.00309870
v -0.00729143 -0.00676849 -0.00280360
v -0.00684622 -0.00572565 -0.00572565
v -0.00729143 -0.00518038 -0.00518038
v -0.00684622 -0.00309870 -0.00748092
v -0.00729143 -0.00280360 -0.00676849
v -0.00729143 0.00000000 -0.00732616
v -0.00684622 0.00000000 0.00809729
v -0.00684622 0.00309870 0.00748092
v -0.00640101 0.00280360 0.00676849
v -0.00684622 0.00572565 0.00572565
v -0.00640101 0.00518038 0.00518038
v -0.00684622 0.00748092 0.00309870
v -0.00640101 0.00676849 0.00280360
v -0.00684622 0.00809729 -0.00000000
v -0.00640101 0.00732616 0.00000000
v -0.00684622 0.00748092 -0.00309870
v -0.00640101 0.00676849 -0.00280360
v -0.00684622 0.00572565 -0.00572565
v -0.00640101 0.00518038 -0.00518038
v -0.00684622 0.00309870 -0.00748092
v -0.00640101 0.00280360 -0.00676849
v -0.00684622 0.00000000 -0.00809729
v -0.00640101 0.00000000 -0.00732616
v -0.00684622 -0.00309870 -0.00748092
v -0.00640101 -0.00280360 -0.00676849
v -0.00684622 -0.00572565 -0.00572565
v -0.00640101 -0.00518038 -0.00518038
v -0.00684622 -0.00748092 -0.00309870
v -0.00640101 -0.00676849 -0.00280360
v -0.00684622 -0.00809729 0.00000000
v -0.00640101 -0.00732616 -0.00000000
v -0.00684622 -0.00748092 0.00309870
v -0.00640101 -0.00676849 0.00280360
v -0.00684622 -0.00572565 0.00572565
v -0.00640101 -0.00518038 0.00518038
v -0.00684622 -0.00309870 0.00748092
v -0.00640101 -0.00280360 0.00676849
v -0.00640101 0.00000000 0.00732616
v -0.00595579 0.00000000 -0.00809729
v -0.00595579 0.00309870 -0.00748092
v -0.00640101 0.00280360 -0.00676849
v -0.00595579 0.00572565 -0.00572565
v -0.00640101 0.00518038 -0.00518038
v -0.00595579 0.00748092 -0.00309870
v -0.00640101 0.00676849 -0.00280360
v -0.00595579 0.00809729 -0.00000000
v -0.00640101 0.00732616 0.00000000
v -0.00595579 0.00748092 0.00309870
v -0.00640101 0.00676849 0.00280360
v -0.00595579 0.00572565 0.00572565
v -0.00640101 0.00518038 0.00518038
v -0.00595579 0.00309870 0.00748092
v -0.00640101 0.00280360 0.00676849
v -0.00595579 0.00000000 0.00809729
v -0.00640101 0.00000000 0.00732616
v -0.00595579 -0.00309870 0.00748092
v -0.00640101 -0.00280360 0.00676849
v -0.00595579 -0.00572565 0.00572565
v -0.00640101 -0.00518038 0.00518038
v -0.00595579 -0.00748092 0.00309870
v -0.00640101 -0.00676849 0.00280360
v -0.00595579 -0.00809729 0.00000000
v -0.00640101 -0.00732616 -0.00000000
v -0.00595579 -0.00748092 -0.00309870
v -0.00640101 -0.00676849 -0.00280360
v -0.00595579 -0.00572565 -0.00572565
v -0.00640101 -0.00518038 -0.00518038
v -0.00595579 -0.00309870 -0.00748092
v -0.00640101 -0.00280360 -0.00676849
v -0.00640101 0.00000000 -0.00732616
v -0.00595579 0.00000000 0.00809729
v -0.00595579 0.00309870 0.00748092
v -0.00551058 0.00280360 0.00676849
v -0.00595579 0.00572565 0.00572565
v -0.00551058 0.00518038 0.00518038
v -0.00595579 0.00748092 0.00309870
v -0.00551058 0.00676849 0.00280360
v -0.00595579 0.00809729 -0.00000000
v -0.00551058 0.00732616 0.00000000
v -0.00595579 0.00748092 -0.00309870
v -0.00551058 0.00676849 -0.00280360
v -0.00595579 0.00572565 -0.00572565
v -0.00551058 0.00518038 -0.00518038
v -0.00595579 0.00309870 -0.00748092
v -0.00551058 0.00280360 -0.00676849
v -0.00595579 0.00000000 -0.00809729
v -0.00551058 0.00000000 -0.00732616
v -0.00595579 -0.00309870 -0.00748092
v -0.00551058 -0.00280360 -0.00676849
v -0.00595579 -0.00572565 -0.00572565
v -0.00551058 -0.00518038 -0.00518038
v -0.00595579 -0.00748092 -0.00309870
v -0.00551058 -0.00676849 -0.00280360
v -0.00595579 -0.00809729 0.00000000
v -0.00551058 -0.00732616 -0.00000000
v -0.00595579 -0.00748092 0.00309870
v -0.00551058 -0.00676849 0.00280360
v -0.00595579 -0.00572565 0.00572565
v -0.00551058 -0.00518038 0.00518038
v -0.00595579 -0.00309870 0.00748092
v -0.00551058 -0.00280360 0.00676849
v -0.00551058 0.00000000 0.00732616
v -0.00506537 0.00000000 -0.00809729
v -0.00506537 0.00309870 -0.00748092
v -0.00551058 0.00280360 -0.00676849
v -0.00506537 0.00572565 -0.00572565
v -0.00551058 0.00518038 -0.00518038
v -0.00506537 0.00748092 -0.00309870
v -0.00551058 0.00676849 -0.00280360
v -0.00506537 0.00809729 -0.00000000
v -0.00551058 0.00732616 0.00000000
v -0.00506537 0.00748092 0.00309870
v -0.00551058 0.00676849 0.00280360
v -0.00506537 0.00572565 0.00572565
v -0.00551058 0.00518038 0.00518038
v -0.00506537 0.00309870 0.00748092
v -0.00551058 0.00280360 0.00676849
v -0.00506537 0.00000000 0.00809729
v -0.00551058 0.00000000 0.00732616
v -0.00506537 -0.00309870 0.00748092
v -0.00551058 -0.00280360 0.00676849
v -0.00506537 -0.00572565 0.00572565
v -0.00551058 -0.00518038 0.00518038
v -0.00506537 -0.00748092 0.00309870
v -0.00551058 -0.00676849 0.00280360
v -0.00506537 -0.00809729 0.00000000
v -0.00551058 -0.00732616 -0.00000000
v -0.00506537 -0.00748092 -0.00309870
v -0.00551058 -0.00676849 -0.00280360
v -0.00506537 -0.00572565 -0.00572565
v -0.00551058 -0.00518038 -0.00518038
v -0.00506537 -0.00309870 -0.00748092
v -0.00551058 -0.00280360 -0.00676849
v -0.00551058 0.00000000 -0.00732616
v -0.00506537 0.00000000 0.00809729
v -0.00506537 0.00309870 0.00748092
v -0.00462016 0.00280360 0.00676849
v -0.00506537 0.00572565 0.00572565
v -0.00462016 0.00518038 0.00518038
v -0.00506537 0.00748092 0.00309870
v -0.00462016 0.00676849 0.00280360
v -0.00506537 0.00809729 -0.00000000
v -0.00462016 0.00732616 0.00000000
v -0.00506537 0.00748092 -0.00309870
v -0.00462016 0.00676849 -0.00280360
v -0.00506537 0.00572565 -0.00572565
v -0.00462016 0.00518038 -0.00518038
v -0.00506537 0.00309870 -0.00748092
v -0.00462016 0.00280360 -0.00676849
v -0.00506537 0.00000000 -0.00809729
v -0.00462016 0.00000000 -0.00732616
v -0.00506537 -0.00309870 -0.00748092
v -0.00462016 -0.00280360 -0.00676849
v -0.00506537 -0.00572565 -0.00572565
v -0.00462016 -0.00518038 -0.00518038
v -0.00506537 -0.00748092 -0.00309870
v -0.00462016 -0.00676849 -0.00280360
v -0.00506537 -0.00809729 0.00000000
v -0.00462016 -0.00732616 -0.00000000
v -0.00506537 -0.00748092 0.00309870
v -0.00462016 -0.00676849 0.00280360
v -0.00506537 -0.00572565 0.00572565
v -0.00462016 -0.00518038 0.00518038
v -0.00506537 -0.00309870 0.00748092
v -0.00462016 -0.00280360 0.00676849
v -0.00462016 0.00000000 0.00732616
v -0.00426720 0.00000000 -0.00793750
v -0.00426720 0.00303755 -0.00733329
v -0.00462016 0.00280360 -0.00676849
v -0.00426720 0.00561266 -0.00561266
v -0.00462016 0.00518038 -0.00518038
v -0.00426720 0.00733329 -0.00303755
v -0.00462016 0.00676849 -0.00280360
v -0.00426720 0.00793750 -0.00000000
v -0.00462016 0.00732616 0.00000000
v -0.00426720 0.00733329 0.00303755
v -0.00462016 0.00676849 0.00280360
v -0.00426720 0.00561266 0.00561266
v -0.00462016 0.00518038 0.00518038
v -0.00426720 0.00303755 0.00733329
v -0.00462016 0.00280360 0.00676849
v -0.00426720 0.00000000 0.00793750
v -0.00462016 0.00000000 0.00732616
v -0.00426720 -0.00303755 0.00733329
v -0.00462016 -0.00280360 0.00676849
v -0.00426720 -0.00561266 0.00561266
v -0.00462016 -0.00518038 0.00518038
v -0.00426720 -0.00733329 0.00303755
v -0.00462016 -0.00676849 0.00280360
v -0.00426720 -0.00793750 0.00000000
v -0.00462016 -0.00732616 -0.00000000
v -0.00426720 -0.00733329 -0.00303755
v -0.00462016 -0.00676849 -0.00280360
v -0.00426720 -0.00561266 -0.00561266
v -0.00462016 -0.00518038 -0.00518038
v -0.00426720 -0.00303755 -0.00733329
v -0.00462016 -0.00280360 -0.00676849
v -0.00462016 0.00000000 -0.00732616
v -0.00426720 -0.00303755 0.00733329
v -0.00426720 0.00000000 0.00793750
v 0.00000000 0.00000000 0.00793750
v -0.00426720 -0.00561266 0.00561266
v 0.00000000 -0.00303755 0.00733329
v -0.00426720 -0.00733329 0.00303755
v 0.00000000 -0.00561266 0.00561266
v -0.00426720 -0.00793750 0.00000000
v 0.00000000 -0.00733329 0.00303755
v -0.00426720 -0.00733329 -0.00303755
v 0.00000000 -0.00793750 -0.00000000
v -0.00426720 -0.00561266 -0.00561266
v 0.00000000 -0.00733329 -0.00303755
v -0.00426720 -0.00303755 -0.00733329
v 0.00000000 -0.00561266 -0.00561266
v -0.00426720 0.00000000 -0.00793750
v 0.00000000 -0.00303755 -0.00733329
v -0.00426720 0.00303755 -0.00733329
v 0.00000000 0.00000000 -0.00793750
v -0.00426720 0.00561266 -0.00561266
v 0.00000000 0.00303755 -0.00733329
v -0.00426720 0.00733329 -0.00303755
v 0.00000000 0.00561266 -0.00561266
v -0.00426720 0.00793750 -0.00000000
v 0.00000000 0.00733329 -0.00303755
v -0.00426720 0.00733329 0.00303755
v 0.00000000 0.00793750 -0.00000000
v -0.00426720 0.00561266 0.00561266
v 0.00000000 0.00733329 0.00303755
v -0.00426720 0.00303755 0.00733329
v 0.00000000 0.00561266 0.00561266
v 0.00000000 0.00303755 0.00733329
v 0.00000000 0.00859208 -0.00355896
v 0.00000000 0.00930000 0.00000000
v 0.00000000 0.00793750 -0.00000000
v 0.00000000 0.00859208 0.00355896
v 0.00000000 0.00733329 0.00303755
v 0.00000000 0.00657609 0.00657609
v 0.00000000 0.00561266 0.00561266
v 0.00000000 0.00355896 0.00859208
v 0.00000000 0.00303755 0.00733329
v 0.00000000 -0.00859208 0.00355896
v 0.00000000 -0.00733329 0.00303755
v 0.00000000 -0.00561266 0.00561266
v 0.00000000 -0.00930000 -0.00000000
v 0.00000000 -0.00793750 -0.00000000
v 0.00000000 -0.00859208 -0.00355896
v 0.00000000 -0.00733329 -0.00303755
v 0.00000000 -0.00657609 -0.00657609
v 0.00000000 -0.00561266 -0.00561266
v 0.00000000 -0.00000000 0.00930000
v 0.00000000 0.00000000 0.00793750
v 0.00000000 -0.00355896 0.00859208
v 0.00000000 -0.00303755 0.00733329
v 0.00000000 -0.00657609 0.00657609
v 0.00000000 -0.00355896 -0.00859208
v 0.00000000 -0.00303755 -0.00733329
v 0.00000000 0.00000000 -0.00930000
v 0.00000000 0.00355896 -0.00859208
v 0.00000000 0.00303755 -0.00733329
v 0.00000000 0.00657609 -0.00657609
v 0.00000000 0.00561266 -0.00561266
v 0.00000000 0.00000000 -0.00793750
v 0.00000000 0.00733329 -0.00303755
v -0.00030000 0.00000000 0.00960000
v 0.00000000 -0.00000000 0.00930000
v 0.00000000 0.00355896 0.00859208
v -0.00030000 0.00367376 0.00886924
v 0.00000000 0.00657609 0.00657609
v -0.00030000 0.00678822 0.00678822
v 0.00000000 0.00859208 0.00355896
v -0.00030000 0.00886924 0.00367376
v 0.00000000 0.00930000 0.00000000
v -0.00030000 0.00960000 0.00000000
v 0.00000000 0.00859208 -0.00355896
v -0.00030000 0.00886924 -0.00367376
v 0.00000000 0.00657609 -0.00657609
v -0.00030000 0.00678822 -0.00678822
v 0.00000000 0.00355896 -0.00859208
v -0.00030000 0.00367376 -0.00886924
v 0.00000000 0.00000000 -0.00930000
v -0.00030000 0.00000000 -0.00960000
v 0.00000000 -0.00355896 -0.00859208
v -0.00030000 -0.00367376 -0.00886924
v 0.00000000 -0.00657609 -0.00657609
v -0.00030000 -0.00678822 -0.00678822
v 0.00000000 -0.00859208 -0.00355896
v -0.00030000 -0.00886924 -0.00367376
v 0.00000000 -0.00930000 -0.00000000
v -0.00030000 -0.00960000 -0.00000000
v 0.00000000 -0.00859208 0.00355896
v -0.00030000 -0.00886924 0.00367376
v 0.00000000 -0.00657609 0.00657609
v -0.00030000 -0.00678822 0.00678822
v 0.00000000 -0.00355896 0.00859208
v -0.00030000 -0.00367376 0.00886924
v -0.00420000 -0.00000000 0.00960000
v -0.00030000 0.00000000 0.00960000
v -0.00030000 0.00367376 0.00886924
v -0.00420000 0.00367376 0.00886924
v -0.00030000 0.00678822 0.00678822
v -0.00420000 0.00678822 0.00678822
v -0.00030000 0.00886924 0.00367376
v -0.00420000 0.00886924 0.00367376
v -0.00030000 0.00960000 0.00000000
v -0.00420000 0.00960000 0.00000000
v -0.00030000 0.00886924 -0.00367376
v -0.00420000 0.00886924 -0.00367376
v -0.00030000 0.00678822 -0.00678822
v -0.00420000 0.00678822 -0.00678822
v -0.00030000 0.00367376 -0.00886924
v -0.00420000 0.00367376 -0.00886924
v -0.00030000 0.00000000 -0.00960000
v -0.00420000 0.00000000 -0.00960000
v -0.00030000 -0.00367376 -0.00886924
v -0.00420000 -0.00367376 -0.00886924
v -0.00030000 -0.00678822 -0.00678822
v -0.00420000 -0.00678822 -0.00678822
v -0.00030000 -0.00886924 -0.00367376
v -0.00420000 -0.00886924 -0.00367376
v -0.00030000 -0.00960000 -0.00000000
v -0.00420000 -0.00960000 -0.00000000
v -0.00030000 -0.00886924 0.00367376
v -0.00420000 -0.00886924 0.00367376
v -0.00030000 -0.00678822 0.00678822
v -0.00420000 -0.00678822 0.00678822
v -0.00030000 -0.00367376 0.00886924
v -0.00420000 -0.00367376 0.00886924
v -0.00460000 0.00000000 0.01000000
v -0.00420000 -0.00000000 0.00960000
v -0.00420000 0.00367376 0.00886924
v -0.00460000 0.00382683 0.00923879
v -0.00420000 0.00678822 0.00678822
v -0.00460000 0.00707107 0.00707107
v -0.00420000 0.00886924 0.00367376
v -0.00460000 0.00923879 0.00382683
v -0.00420000 0.00960000 0.00000000
v -0.00460000 0.01000000 0.00000000
v -0.00420000 0.00886924 -0.00367376
v -0.00460000 0.00923879 -0.00382683
v -0.00420000 0.00678822 -0.00678822
v -0.00460000 0.00707107 -0.00707107
v -0.00420000 0.00367376 -0.00886924
v -0.00460000 0.00382683 -0.00923879
v -0.00420000 0.00000000 -0.00960000
v -0.00460000 0.00000000 -0.01000000
v -0.00420000 -0.00367376 -0.00886924
v -0.00460000 -0.00382683 -0.00923879
v -0.00420000 -0.00678822 -0.00678822
v -0.00460000 -0.00707107 -0.00707107
v -0.00420000 -0.00886924 -0.00367376
v -0.00460000 -0.00923879 -0.00382683
v -0.00420000 -0.00960000 -0.00000000
v -0.00460000 -0.01000000 -0.00000000
v -0.00420000 -0.00886924 0.00367376
v -0.00460000 -0.00923879 0.00382683
v -0.00420000 -0.00678822 0.00678822
v -0.00460000 -0.00707107 0.00707107
v -0.00420000 -0.00367376 0.00886924
v -0.00460000 -0.00382683 0.00923879
v -0.01360000 0.00000000 0.01000000
v -0.00460000 0.00000000 0.01000000
v -0.00460000 0.00382683 0.00923879
v -0.01360000 0.00382683 0.00923879
v -0.00460000 0.00707107 0.00707107
v -0.01360000 0.00707107 0.00707107
v -0.00460000 0.00923879 0.00382683
v -0.01360000 0.00923879 0.00382683
v -0.00460000 0.01000000 0.00000000
v -0.01360000 0.01000000 -0.00000000
v -0.00460000 0.00923879 -0.00382683
v -0.01360000 0.00923879 -0.00382683
v -0.00460000 0.00707107 -0.00707107
v -0.01360000 0.00707107 -0.00707107
v -0.00460000 0.00382683 -0.00923879
v -0.01360000 0.00382683 -0.00923879
v -0.00460000 0.00000000 -0.01000000
v -0.01360000 0.00000000 -0.01000000
v -0.00460000 -0.00382683 -0.00923879
v -0.01360000 -0.00382683 -0.00923879
v -0.00460000 -0.00707107 -0.00707107
v -0.01360000 -0.00707107 -0.00707107
v -0.00460000 -0.00923879 -0.00382683
v -0.01360000 -0.00923879 -0.00382683
v -0.00460000 -0.01000000 -0.00000000
v -0.01360000 -0.01000000 -0.00000000
v -0.00460000 -0.00923879 0.00382683
v -0.01360000 -0.00923879 0.00382683
v -0.00460000 -0.00707107 0.00707107
v -0.01360000 -0.00707107 0.00707107
v -0.00460000 -0.00382683 0.00923879
v -0.01360000 -0.00382683 0.00923879
v -0.01360000 0.00000000 0.00000000
v -0.01360000 0.00382683 0.00923879
v -0.01360000 0.00707107 0.00707107
v -0.01360000 0.00923879 0.00382683
v -0.01360000 0.01000000 -0.00000000
v -0.01360000 0.00923879 -0.00382683
v -0.01360000 0.00707107 -0.00707107
v -0.01360000 0.00382683 -0.00923879
v -0.01360000 0.00000000 -0.01000000
v -0.01360000 -0.00382683 -0.00923879
v -0.01360000 -0.00707107 -0.00707107
v -0.01360000 -0.00923879 -0.00382683
v -0.01360000 -0.01000000 -0.00000000
v -0.01360000 -0.00923879 0.00382683
v -0.01360000 -0.00707107 0.00707107
v -0.01360000 -0.00382683 0.00923879
v -0.01360000 0.00000000 0.01000000
vt 0.85433468 0.34821429
vt 0.85433468 0.34821429
vt 0.85433468 0.34821429
vt 0.85433468 0.34821429
vt 0.85433468 0.34821429
vt 0.85433468 0.34821429
vt 0.85433468 0.34821429
vt 0.85433468 0.34821429
vt 0.85433468 0.34821429
vt 0.85433468 0.34821429
vt 0.85433468 0.34821429
vt 0.85433468 0.34821429
vt 0.85433468 0.34821429
vt 0.85433468 0.34821429
vt 0.85433468 0.34821429
vt 0.85433468 0.34821429
vt 0.85433468 0.34821429
vt 0.85433468 0.34821429
vt 0.85433468 0.34821429
vt 0.85433468 0.34821429
vt 0.85433468 0.34821429
vt 0.85433468 0.34821429
vt 0.85433468 0.34821429
vt 0.85433468 0.34821429
vt 0.85433468 0.34821429
vt 0.85433468 0.34821429
vt 0.85433468 0.34821429
vt 0.85433468 0.34821429
vt 0.85433468 0.34821429
vt 0.85433468 0.34821429
vt 0.85433468 0.34821429
vt 0.85433468 0.34821429
vt 0.85433468 0.34821429
vt 0.85433468 0.34821429
vt 0.85433468 0.34821429
vt 0.85433468 0.34821429
vt 0.85433468 0.34821429
vt 0.85433468 0.34821429
vt 0.85433468 0.34821429
vt 0.85433468 0.34821429
vt 0.85433468 0.34821429
vt 0.85433468 0.34821429
vt 0.85433468 0.34821429
vt 0.85433468 0.34821429
vt 0.85433468 0.34821429
vt 0.85433468 0.34821429
vt 0.85433468 0.34821429
vt 0.85433468 0.34821429
vt 0.85433468 0.34821429
vt 0.85433468 0.34821429
vt 0.85433468 0.34821429
vt 0.85433468 0.34821429
vt 0.85433468 0.34821429
vt 0.85433468 0.34821429
vt 0.85433468 0.34821429
vt 0.85433468 0.34821429
vt 0.85433468 0.34821429
vt 0.85433468 0.34821429
vt 0.85433468 0.34821429
vt 0.85433468 0.34821429
vt 0.85433468 0.34821429
vt 0.85433468 0.34821429
vt 0.85433468 0.34821429
vt 0.85433468 0.34821429
vt 0.85433468 0.34821429
vt 0.85433468 0.34821429
vt 0.85433468 0.34821429
vt 0.85433468 0.34821429
vt 0.85433468 0.34821429
vt 0.85433468 0.34821429
vt 0.85433468 0.34821429
vt 0.85433468 0.34821429
vt 0.85433468 0.34821429
vt 0.85433468 0.34821429
vt 0.85433468 0.34821429
vt 0.85433468 0.34821429
vt 0.85433468 0.34821429
vt 0.85433468 0.34821429
vt 0.85433468 0.34821429
vt 0.85433468 0.34821429
vt 0.85433468 0.34821429
vt 0.85433468 0.34821429
vt 0.85433468 0.34821429
vt 0.85433468 0.34821429
vt 0.85433468 0.34821429
vt 0.85433468 0.34821429
vt 0.85433468 0.34821429
vt 0.85433468 0.34821429
vt 0.85433468 0.34821429
vt 0.85433468 0.34821429
vt 0.85433468 0.34821429
vt 0.85433468 0.34821429
vt 0.85433468 0.34821429
vt 0.85433468 0.34821429
vt 0.85433468 0.34821429
vt 0.85433468 0.34821429
vt 0.85433468 0.34821429
vt 0.85433468 0.34821429
vt 0.85433468 0.34821429
vt 0.85433468 0.34821429
vt 0.85433468 0.34821429
vt 0.85433468 0.34821429
vt 0.85433468 0.34821429
vt 0.85433468 0.34821429
vt 0.85433468 0.34821429
vt 0.85433468 0.34821429
vt 0.85433468 0.34821429
vt 0.85433468 0.34821429
vt 0.85433468 0.34821429
vt 0.85433468 0.34821429
vt 0.85433468 0.34821429
vt 0.85433468 0.34821429
vt 0.85433468 0.34821429
vt 0.85433468 0.34821429
vt 0.85433468 0.34821429
vt 0.85433468 0.34821429
vt 0.85433468 0.34821429
vt 0.85433468 0.34821429
vt 0.85433468 0.34821429
vt 0.85433468 0.34821429
vt 0.85433468 0.34821429
vt 0.85433468 0.34821429
vt 0.85433468 0.34821429
vt 0.85433468 0.34821429
vt 0.85433468 0.34821429
vt 0.85433468 0.34821429
vt 0.85433468 0.34821429
vt 0.85433468 0.34821429
vt 0.66078629 0.34821429
vt 0.66078629 0.34821429
vt 0.66078629 0.34821429
vt 0.66078629 0.34821429
vt 0.66078629 0.34821429
vt 0.66078629 0.34821429
vt 0.66078629 0.34821429
vt 0.66078629 0.34821429
vt 0.66078629 0.34821429
vt 0.66078629 0.34821429
vt 0.66078629 0.34821429
vt 0.66078629 0.34821429
vt 0.66078629 0.34821429
vt 0.66078629 0.34821429
vt 0.66078629 0.34821429
vt 0.66078629 0.34821429
vt 0.66078629 0.34821429
vt 0.66078629 0.34821429
vt 0.66078629 0.34821429
vt 0.66078629 0.34821429
vt 0.66078629 0.34821429
vt 0.66078629 0.34821429
vt 0.66078629 0.34821429
vt 0.66078629 0.34821429
vt 0.66078629 0.34821429
vt 0.66078629 0.34821429
vt 0.66078629 0.34821429
vt 0.66078629 0.34821429
vt 0.66078629 0.34821429
vt 0.66078629 0.34821429
vt 0.66078629 0.34821429
vt 0.66078629 0.34821429
vt 0.46723790 0.34821429
vt 0.46723790 0.34821429
vt 0.46723790 0.34821429
vt 0.46723790 0.34821429
vt 0.46723790 0.34821429
vt 0.46723790 0.34821429
vt 0.46723790 0.34821429
vt 0.46723790 0.34821429
vt 0.46723790 0.34821429
vt 0.46723790 0.34821429
vt 0.46723790 0.34821429
vt 0.46723790 0.34821429
vt 0.46723790 0.34821429
vt 0.46723790 0.34821429
vt 0.46723790 0.34821429
vt 0.46723790 0.34821429
vt 0.46723790 0.34821429
vt 0.46723790 0.34821429
vt 0.46723790 0.34821429
vt 0.46723790 0.34821429
vt 0.46723790 0.34821429
vt 0.46723790 0.34821429
vt 0.46723790 0.34821429
vt 0.46723790 0.34821429
vt 0.46723790 0.34821429
vt 0.46723790 0.34821429
vt 0.46723790 0.34821429
vt 0.46723790 0.34821429
vt 0.46723790 0.34821429
vt 0.46723790 0.34821429
vt 0.46723790 0.34821429
vt 0.46723790 0.34821429
vt 0.46723790 0.34821429
vt 0.46723790 0.34821429
vt 0.46723790 0.34821429
vt 0.46723790 0.34821429
vt 0.46723790 0.34821429
vt 0.46723790 0.34821429
vt 0.46723790 0.34821429
vt 0.46723790 0.34821429
vt 0.46723790 0.34821429
vt 0.46723790 0.34821429
vt 0.46723790 0.34821429
vt 0.46723790 0.34821429
vt 0.46723790 0.34821429
vt 0.46723790 0.34821429
vt 0.46723790 0.34821429
vt 0.46723790 0.34821429
vt 0.46723790 0.34821429
vt 0.46723790 0.34821429
vt 0.46723790 0.34821429
vt 0.46723790 0.34821429
vt 0.46723790 0.34821429
vt 0.46723790 0.34821429
vt 0.46723790 0.34821429
vt 0.46723790 0.34821429
vt 0.46723790 0.34821429
vt 0.46723790 0.34821429
vt 0.46723790 0.34821429
vt 0.46723790 0.34821429
vt 0.46723790 0.34821429
vt 0.46723790 0.34821429
vt 0.46723790 0.34821429
vt 0.46723790 0.34821429
vt 0.46723790 0.34821429
vt 0.46723790 0.34821429
vt 0.46723790 0.34821429
vt 0.46723790 0.34821429
vt 0.46723790 0.34821429
vt 0.46723790 0.34821429
vt 0.46723790 0.34821429
vt 0.46723790 0.34821429
vt 0.46723790 0.34821429
vt 0.46723790 0.34821429
vt 0.46723790 0.34821429
vt 0.46723790 0.34821429
vt 0.46723790 0.34821429
vt 0.46723790 0.34821429
vt 0.46723790 0.34821429
vt 0.46723790 0.34821429
vt 0.46723790 0.34821429
vt 0.46723790 0.34821429
vt 0.46723790 0.34821429
vt 0.46723790 0.34821429
vt 0.46723790 0.34821429
vt 0.46723790 0.34821429
vt 0.46723790 0.34821429
vt 0.46723790 0.34821429
vt 0.46723790 0.34821429
vt 0.46723790 0.34821429
vt 0.46723790 0.34821429
vt 0.46723790 0.34821429
vt 0.46723790 0.34821429
vt 0.46723790 0.34821429
vt 0.46723790 0.34821429
vt 0.46723790 0.34821429
vt 0.27368952 0.34821429
vt 0.27368952 0.34821429
vt 0.27368952 0.34821429
vt 0.27368952 0.34821429
vt 0.27368952 0.34821429
vt 0.27368952 0.34821429
vt 0.27368952 0.34821429
vt 0.27368952 0.34821429
vt 0.27368952 0.34821429
vt 0.27368952 0.34821429
vt 0.27368952 0.34821429
vt 0.27368952 0.34821429
vt 0.27368952 0.34821429
vt 0.27368952 0.34821429
vt 0.27368952 0.34821429
vt 0.27368952 0.34821429
vt 0.27368952 0.34821429
vt 0.27368952 0.34821429
vt 0.27368952 0.34821429
vt 0.27368952 0.34821429
vt 0.27368952 0.34821429
vt 0.27368952 0.34821429
vt 0.27368952 0.34821429
vt 0.27368952 0.34821429
vt 0.27368952 0.34821429
vt 0.27368952 0.34821429
vt 0.27368952 0.34821429
vt 0.27368952 0.34821429
vt 0.27368952 0.34821429
vt 0.27368952 0.34821429
vt 0.27368952 0.34821429
vt 0.27368952 0.34821429
vt 0.08014113 0.34821429
vt 0.08014113 0.34821429
vt 0.08014113 0.34821429
vt 0.08014113 0.34821429
vt 0.08014113 0.34821429
vt 0.08014113 0.34821429
vt 0.08014113 0.34821429
vt 0.08014113 0.34821429
vt 0.08014113 0.34821429
vt 0.08014113 0.34821429
vt 0.08014113 0.34821429
vt 0.08014113 0.34821429
vt 0.08014113 0.34821429
vt 0.08014113 0.34821429
vt 0.08014113 0.34821429
vt 0.08014113 0.34821429
vt 0.08014113 0.34821429
vt 0.08014113 0.34821429
vt 0.08014113 0.34821429
vt 0.08014113 0.34821429
vt 0.08014113 0.34821429
vt 0.08014113 0.34821429
vt 0.08014113 0.34821429
vt 0.08014113 0.34821429
vt 0.08014113 0.34821429
vt 0.08014113 0.34821429
vt 0.08014113 0.34821429
vt 0.08014113 0.34821429
vt 0.08014113 0.34821429
vt 0.08014113 0.34821429
vt 0.08014113 0.34821429
vt 0.08014113 0.34821429
vt 0.08014113 0.34821429
vt 0.08014113 0.34821429
vt 0.08014113 0.34821429
vt 0.08014113 0.34821429
vt 0.08014113 0.34821429
vt 0.08014113 0.34821429
vt 0.08014113 0.34821429
vt 0.08014113 0.34821429
vt 0.08014113 0.34821429
vt 0.08014113 0.34821429
vt 0.08014113 0.34821429
vt 0.08014113 0.34821429
vt 0.08014113 0.34821429
vt 0.08014113 0.34821429
vt 0.08014113 0.34821429
vt 0.08014113 0.34821429
vt 0.08014113 0.34821429
vt 0.08014113 0.34821429
vt 0.08014113 0.34821429
vt 0.08014113 0.34821429
vt 0.08014113 0.34821429
vt 0.08014113 0.34821429
vt 0.08014113 0.34821429
vt 0.08014113 0.34821429
vt 0.08014113 0.34821429
vt 0.08014113 0.34821429
vt 0.08014113 0.34821429
vt 0.08014113 0.34821429
vt 0.08014113 0.34821429
vt 0.08014113 0.34821429
vt 0.08014113 0.34821429
vt 0.08014113 0.34821429
vt 0.08014113 0.34821429
vt 0.08014113 0.34821429
vt 0.08014113 0.34821429
vt 0.08014113 0.34821429
vt 0.08014113 0.34821429
vt 0.08014113 0.34821429
vt 0.08014113 0.34821429
vt 0.08014113 0.34821429
vt 0.08014113 0.34821429
vt 0.08014113 0.34821429
vt 0.08014113 0.34821429
vt 0.08014113 0.34821429
vt 0.08014113 0.34821429
vt 0.08014113 0.34821429
vt 0.08014113 0.34821429
vt 0.08014113 0.34821429
vt 0.08014113 0.34821429
vt 0.08014113 0.34821429
vt 0.08014113 0.34821429
vt 0.08014113 0.34821429
vt 0.08014113 0.34821429
vt 0.08014113 0.34821429
vt 0.08014113 0.34821429
vt 0.08014113 0.34821429
vt 0.08014113 0.34821429
vt 0.08014113 0.34821429
vt 0.08014113 0.34821429
vt 0.08014113 0.34821429
vt 0.08014113 0.34821429
vt 0.08014113 0.34821429
vt 0.08014113 0.34821429
vt 0.08014113 0.34821429
vt 0.08014113 0.34821429
vt 0.08014113 0.34821429
vt 0.08014113 0.34821429
vt 0.08014113 0.34821429
vt 0.08014113 0.34821429
vt 0.08014113 0.34821429
vt 0.08014113 0.34821429
vt 0.08014113 0.34821429
vt 0.08014113 0.34821429
vt 0.08014113 0.34821429
vt 0.08014113 0.34821429
vt 0.08014113 0.34821429
vt 0.08014113 0.34821429
vt 0.08014113 0.34821429
vt 0.08014113 0.34821429
vt 0.08014113 0.34821429
vt 0.08014113 0.34821429
vt 0.08014113 0.34821429
vt 0.08014113 0.34821429
vt 0.08014113 0.34821429
vt 0.08014113 0.34821429
vt 0.08014113 0.34821429
vt 0.08014113 0.34821429
vt 0.08014113 0.34821429
vt 0.08014113 0.34821429
vt 0.08014113 0.34821429
vt 0.08014113 0.34821429
vt 0.08014113 0.34821429
vt 0.08014113 0.34821429
vt 0.08014113 0.34821429
vt 0.08014113 0.34821429
vt 0.08014113 0.34821429
vt 0.46723790 0.34821429
vt 0.46723790 0.34821429
vt 0.46723790 0.34821429
vt 0.46723790 0.34821429
vt 0.46723790 0.34821429
vt 0.46723790 0.34821429
vt 0.46723790 0.34821429
vt 0.46723790 0.34821429
vt 0.46723790 0.34821429
vt 0.46723790 0.34821429
vt 0.46723790 0.34821429
vt 0.46723790 0.34821429
vt 0.46723790 0.34821429
vt 0.46723790 0.34821429
vt 0.46723790 0.34821429
vt 0.46723790 0.34821429
vt 0.46723790 0.34821429
vt 0.46723790 0.34821429
vt 0.46723790 0.34821429
vt 0.46723790 0.34821429
vt 0.46723790 0.34821429
vt 0.46723790 0.34821429
vt 0.46723790 0.34821429
vt 0.46723790 0.34821429
vt 0.46723790 0.34821429
vt 0.46723790 0.34821429
vt 0.46723790 0.34821429
vt 0.46723790 0.34821429
vt 0.46723790 0.34821429
vt 0.46723790 0.34821429
vt 0.46723790 0.34821429
vt 0.46723790 0.34821429
vt 0.08014113 0.34821429
vt 0.08014113 0.34821429
vt 0.08014113 0.34821429
vt 0.08014113 0.34821429
vt 0.08014113 0.34821429
vt 0.08014113 0.34821429
vt 0.08014113 0.34821429
vt 0.08014113 0.34821429
vt 0.08014113 0.34821429
vt 0.08014113 0.34821429
vt 0.08014113 0.34821429
vt 0.08014113 0.34821429
vt 0.08014113 0.34821429
vt 0.08014113 0.34821429
vt 0.08014113 0.34821429
vt 0.08014113 0.34821429
vt 0.08014113 0.34821429
vt 0.08014113 0.34821429
vt 0.08014113 0.34821429
vt 0.08014113 0.34821429
vt 0.08014113 0.34821429
vt 0.08014113 0.34821429
vt 0.08014113 0.34821429
vt 0.08014113 0.34821429
vt 0.08014113 0.34821429
vt 0.08014113 0.34821429
vt 0.08014113 0.34821429
vt 0.08014113 0.34821429
vt 0.08014113 0.34821429
vt 0.08014113 0.34821429
vt 0.08014113 0.34821429
vt 0.08014113 0.34821429
vt 0.46723790 0.34821429
vt 0.46723790 0.34821429
vt 0.46723790 0.34821429
vt 0.46723790 0.34821429
vt 0.46723790 0.34821429
vt 0.46723790 0.34821429
vt 0.46723790 0.34821429
vt 0.46723790 0.34821429
vt 0.46723790 0.34821429
vt 0.46723790 0.34821429
vt 0.46723790 0.34821429
vt 0.46723790 0.34821429
vt 0.46723790 0.34821429
vt 0.46723790 0.34821429
vt 0.46723790 0.34821429
vt 0.46723790 0.34821429
vt 0.46723790 0.34821429
vt 0.46723790 0.34821429
vt 0.46723790 0.34821429
vt 0.46723790 0.34821429
vt 0.46723790 0.34821429
vt 0.46723790 0.34821429
vt 0.46723790 0.34821429
vt 0.46723790 0.34821429
vt 0.46723790 0.34821429
vt 0.46723790 0.34821429
vt 0.46723790 0.34821429
vt 0.46723790 0.34821429
vt 0.46723790 0.34821429
vt 0.46723790 0.34821429
vt 0.46723790 0.34821429
vt 0.46723790 0.34821429
vt 0.08014113 0.34821429
vt 0.08014113 0.34821429
vt 0.08014113 0.34821429
vt 0.08014113 0.34821429
vt 0.08014113 0.34821429
vt 0.08014113 0.34821429
vt 0.08014113 0.34821429
vt 0.08014113 0.34821429
vt 0.08014113 0.34821429
vt 0.08014113 0.34821429
vt 0.08014113 0.34821429
vt 0.08014113 0.34821429
vt 0.08014113 0.34821429
vt 0.08014113 0.34821429
vt 0.08014113 0.34821429
vt 0.08014113 0.34821429
vt 0.08014113 0.34821429
vt 0.08014113 0.34821429
vt 0.08014113 0.34821429
vt 0.08014113 0.34821429
vt 0.08014113 0.34821429
vt 0.08014113 0.34821429
vt 0.08014113 0.34821429
vt 0.08014113 0.34821429
vt 0.08014113 0.34821429
vt 0.08014113 0.34821429
vt 0.08014113 0.34821429
vt 0.08014113 0.34821429
vt 0.08014113 0.34821429
vt 0.08014113 0.34821429
vt 0.08014113 0.34821429
vt 0.08014113 0.34821429
vt 0.46723790 0.34821429
vt 0.46723790 0.34821429
vt 0.46723790 0.34821429
vt 0.46723790 0.34821429
vt 0.46723790 0.34821429
vt 0.46723790 0.34821429
vt 0.46723790 0.34821429
vt 0.46723790 0.34821429
vt 0.46723790 0.34821429
vt 0.46723790 0.34821429
vt 0.46723790 0.34821429
vt 0.46723790 0.34821429
vt 0.46723790 0.34821429
vt 0.46723790 0.34821429
vt 0.46723790 0.34821429
vt 0.46723790 0.34821429
vt 0.46723790 0.34821429
vt 0.46723790 0.34821429
vt 0.46723790 0.34821429
vt 0.46723790 0.34821429
vt 0.46723790 0.34821429
vt 0.46723790 0.34821429
vt 0.46723790 0.34821429
vt 0.46723790 0.34821429
vt 0.46723790 0.34821429
vt 0.46723790 0.34821429
vt 0.46723790 0.34821429
vt 0.46723790 0.34821429
vt 0.46723790 0.34821429
vt 0.46723790 0.34821429
vt 0.46723790 0.34821429
vt 0.46723790 0.34821429
vt 0.46723790 0.34821429
vt 0.46723790 0.34821429
vt 0.46723790 0.34821429
vt 0.46723790 0.34821429
vt 0.46723790 0.34821429
vt 0.46723790 0.34821429
vt 0.46723790 0.34821429
vt 0.46723790 0.34821429
vt 0.46723790 0.34821429
vt 0.46723790 0.34821429
vt 0.46723790 0.34821429
vt 0.46723790 0.34821429
vt 0.46723790 0.34821429
vt 0.46723790 0.34821429
vt 0.46723790 0.34821429
vt 0.46723790 0.34821429
vt 0.46723790 0.34821429
vt 0.46723790 0.34821429
vt 0.46723790 0.34821429
vt 0.46723790 0.34821429
vt 0.46723790 0.34821429
vt 0.46723790 0.34821429
vt 0.46723790 0.34821429
vt 0.46723790 0.34821429
vt 0.46723790 0.34821429
vt 0.46723790 0.34821429
vt 0.46723790 0.34821429
vt 0.46723790 0.34821429
vt 0.46723790 0.34821429
vt 0.46723790 0.34821429
vt 0.46723790 0.34821429
vt 0.46723790 0.34821429
vt 0.46723790 0.34821429
vt 0.46723790 0.34821429
vt 0.46723790 0.34821429
vt 0.46723790 0.34821429
vt 0.46723790 0.34821429
vt 0.46723790 0.34821429
vt 0.46723790 0.34821429
vt 0.46723790 0.34821429
vt 0.46723790 0.34821429
vt 0.46723790 0.34821429
vt 0.46723790 0.34821429
vt 0.46723790 0.34821429
vt 0.46723790 0.34821429
vt 0.46723790 0.34821429
vt 0.46723790 0.34821429
vt 0.46723790 0.34821429
vt 0.46723790 0.34821429
vt 0.46723790 0.34821429
vt 0.46723790 0.34821429
vt 0.46723790 0.34821429
vt 0.46723790 0.34821429
vt 0.46723790 0.34821429
vt 0.46723790 0.34821429
vt 0.46723790 0.34821429
vt 0.46723790 0.34821429
vt 0.46723790 0.34821429
vt 0.46723790 0.34821429
vt 0.46723790 0.34821429
vt 0.46723790 0.34821429
vt 0.46723790 0.34821429
vt 0.46723790 0.34821429
vt 0.46723790 0.34821429
vt 0.46723790 0.34821429
vt 0.46723790 0.34821429
vt 0.46723790 0.34821429
vt 0.46723790 0.34821429
vt 0.46723790 0.34821429
vt 0.46723790 0.34821429
vt 0.46723790 0.34821429
vt 0.46723790 0.34821429
vt 0.46723790 0.34821429
vt 0.46723790 0.34821429
vt 0.46723790 0.34821429
vt 0.46723790 0.34821429
vt 0.46723790 0.34821429
vt 0.46723790 0.34821429
vt 0.46723790 0.34821429
vt 0.46723790 0.34821429
vt 0.46723790 0.34821429
vt 0.46723790 0.34821429
vt 0.46723790 0.34821429
vt 0.46723790 0.34821429
vt 0.46723790 0.34821429
vt 0.46723790 0.34821429
vt 0.46723790 0.34821429
vt 0.46723790 0.34821429
vt 0.46723790 0.34821429
vt 0.46723790 0.34821429
vt 0.46723790 0.34821429
vt 0.46723790 0.34821429
vt 0.46723790 0.34821429
vt 0.46723790 0.34821429
vt 0.46723790 0.34821429
vt 0.46723790 0.34821429
vt 0.46723790 0.34821429
vt 0.46723790 0.34821429
vt 0.46723790 0.34821429
vt 0.46723790 0.34821429
vt 0.46723790 0.34821429
vt 0.46723790 0.34821429
vt 0.46723790 0.34821429
vt 0.46723790 0.34821429
vt 0.46723790 0.34821429
vt 0.46723790 0.34821429
vt 0.46723790 0.34821429
vt 0.46723790 0.34821429
vt 0.46723790 0.34821429
vt 0.46723790 0.34821429
vt 0.46723790 0.34821429
vt 0.46723790 0.34821429
vt 0.46723790 0.34821429
vt 0.46723790 0.34821429
vt 0.46723790 0.34821429
vt 0.46723790 0.34821429
vt 0.46723790 0.34821429
vt 0.46723790 0.34821429
vt 0.46723790 0.34821429
vt 0.46723790 0.34821429
vt 0.46723790 0.34821429
vt 0.46723790 0.34821429
vt 0.46723790 0.34821429
vt 0.46723790 0.34821429
vt 0.46723790 0.34821429
vt 0.46723790 0.34821429
vt 0.46723790 0.34821429
vt 0.46723790 0.34821429
vt 0.46723790 0.34821429
vt 0.46723790 0.34821429
vt 0.46723790 0.34821429
vt 0.46723790 0.34821429
vt 0.46723790 0.34821429
vt 0.46723790 0.34821429
vt 0.46723790 0.34821429
vt 0.46723790 0.34821429
vt 0.46723790 0.34821429
vt 0.46723790 0.34821429
vt 0.46723790 0.34821429
vt 0.46723790 0.34821429
vt 0.46723790 0.34821429
vt 0.46723790 0.34821429
vt 0.46723790 0.34821429
vt 0.46723790 0.34821429
vt 0.46723790 0.34821429
vt 0.46723790 0.34821429
vt 0.46723790 0.34821429
vt 0.46723790 0.34821429
vt 0.46723790 0.34821429
vt 0.46723790 0.34821429
vt 0.46723790 0.34821429
vt 0.46723790 0.34821429
vt 0.46723790 0.34821429
vt 0.46723790 0.34821429
vt 0.46723790 0.34821429
vt 0.46723790 0.34821429
vt 0.46723790 0.34821429
vt 0.46723790 0.34821429
vt 0.46723790 0.34821429
vt 0.46723790 0.34821429
vt 0.46723790 0.34821429
vt 0.46723790 0.34821429
vt 0.46723790 0.34821429
vt 0.46723790 0.34821429
vt 0.46723790 0.34821429
vt 0.46723790 0.34821429
vt 0.46723790 0.34821429
vt 0.46723790 0.34821429
vt 0.46723790 0.34821429
vt 0.46723790 0.34821429
vt 0.46723790 0.34821429
vt 0.46723790 0.34821429
vt 0.46723790 0.34821429
vt 0.46723790 0.34821429
vt 0.46723790 0.34821429
vt 0.46723790 0.34821429
vt 0.46723790 0.34821429
vt 0.46723790 0.34821429
vt 0.46723790 0.34821429
vt 0.46723790 0.34821429
vt 0.46723790 0.34821429
vt 0.46723790 0.34821429
vt 0.46723790 0.34821429
vt 0.46723790 0.34821429
vt 0.46723790 0.34821429
vt 0.46723790 0.34821429
vt 0.46723790 0.34821429
vt 0.46723790 0.34821429
vt 0.46723790 0.34821429
vt 0.46723790 0.34821429
vt 0.46723790 0.34821429
vt 0.46723790 0.34821429
vt 0.46723790 0.34821429
vt 0.46723790 0.34821429
vt 0.46723790 0.34821429
vt 0.46723790 0.34821429
vt 0.46723790 0.34821429
vt 0.46723790 0.34821429
vt 0.46723790 0.34821429
vt 0.46723790 0.34821429
vt 0.46723790 0.34821429
vt 0.46723790 0.34821429
vt 0.46723790 0.34821429
vt 0.46723790 0.34821429
vt 0.46723790 0.34821429
vt 0.46723790 0.34821429
vt 0.46723790 0.34821429
vt 0.46723790 0.34821429
vt 0.46723790 0.34821429
vt 0.46723790 0.34821429
vt 0.46723790 0.34821429
vt 0.46723790 0.34821429
vt 0.46723790 0.34821429
vt 0.46723790 0.34821429
vt 0.46723790 0.34821429
vt 0.46723790 0.34821429
vt 0.46723790 0.34821429
vt 0.46723790 0.34821429
vt 0.46723790 0.34821429
vt 0.46723790 0.34821429
vt 0.46723790 0.34821429
vt 0.46723790 0.34821429
vt 0.46723790 0.34821429
vt 0.46723790 0.34821429
vt 0.46723790 0.34821429
vt 0.46723790 0.34821429
vt 0.46723790 0.34821429
vt 0.46723790 0.34821429
vt 0.46723790 0.34821429
vt 0.46723790 0.34821429
vt 0.46723790 0.34821429
vt 0.46723790 0.34821429
vt 0.46723790 0.34821429
vt 0.46723790 0.34821429
vt 0.46723790 0.34821429
vt 0.46723790 0.34821429
vt 0.46723790 0.34821429
vt 0.46723790 0.34821429
vt 0.46723790 0.34821429
vt 0.46723790 0.34821429
vt 0.46723790 0.34821429
vt 0.46723790 0.34821429
vt 0.46723790 0.34821429
vt 0.46723790 0.34821429
vt 0.46723790 0.34821429
vt 0.46723790 0.34821429
vt 0.46723790 0.34821429
vt 0.46723790 0.34821429
vt 0.46723790 0.34821429
vt 0.46723790 0.34821429
vt 0.46723790 0.34821429
vt 0.46723790 0.34821429
vt 0.46723790 0.34821429
vt 0.46723790 0.34821429
vt 0.46723790 0.34821429
vt 0.46723790 0.34821429
vt 0.46723790 0.34821429
vt 0.46723790 0.34821429
vt 0.46723790 0.34821429
vt 0.46723790 0.34821429
vt 0.46723790 0.34821429
vt 0.46723790 0.34821429
vt 0.46723790 0.34821429
vt 0.46723790 0.34821429
vt 0.46723790 0.34821429
vt 0.46723790 0.34821429
vt 0.46723790 0.34821429
vt 0.46723790 0.34821429
vt 0.46723790 0.34821429
vt 0.46723790 0.34821429
vt 0.46723790 0.34821429
vt 0.46723790 0.34821429
vt 0.46723790 0.34821429
vt 0.46723790 0.34821429
vt 0.46723790 0.34821429
vt 0.46723790 0.34821429
vt 0.46723790 0.34821429
vt 0.46723790 0.34821429
vt 0.46723790 0.34821429
vt 0.46723790 0.34821429
vt 0.46723790 0.34821429
vt 0.46723790 0.34821429
vt 0.46723790 0.34821429
vt 0.46723790 0.34821429
vt 0.46723790 0.34821429
vt 0.46723790 0.34821429
vt 0.46723790 0.34821429
vt 0.46723790 0.34821429
vt 0.46723790 0.34821429
vt 0.46723790 0.34821429
vt 0.46723790 0.34821429
vt 0.46723790 0.34821429
vt 0.46723790 0.34821429
vt 0.46723790 0.34821429
vt 0.46723790 0.34821429
vt 0.46723790 0.34821429
vt 0.46723790 0.34821429
vt 0.46723790 0.34821429
vt 0.46723790 0.34821429
vt 0.46723790 0.34821429
vt 0.46723790 0.34821429
vt 0.46723790 0.34821429
vt 0.46723790 0.34821429
vt 0.46723790 0.34821429
vt 0.46723790 0.34821429
vt 0.46723790 0.34821429
vt 0.46723790 0.34821429
vt 0.46723790 0.34821429
vt 0.46723790 0.34821429
vt 0.46723790 0.34821429
vt 0.46723790 0.34821429
vt 0.46723790 0.34821429
vt 0.46723790 0.34821429
vt 0.46723790 0.34821429
vt 0.46723790 0.34821429
vt 0.46723790 0.34821429
vt 0.46723790 0.34821429
vt 0.46723790 0.34821429
vt 0.46723790 0.34821429
vt 0.46723790 0.34821429
vt 0.08014113 0.34821429
vt 0.08014113 0.34821429
vt 0.08014113 0.34821429
vt 0.08014113 0.34821429
vt 0.08014113 0.34821429
vt 0.08014113 0.34821429
vt 0.08014113 0.34821429
vt 0.08014113 0.34821429
vt 0.08014113 0.34821429
vt 0.08014113 0.34821429
vt 0.08014113 0.34821429
vt 0.08014113 0.34821429
vt 0.08014113 0.34821429
vt 0.08014113 0.34821429
vt 0.08014113 0.34821429
vt 0.08014113 0.34821429
vt 0.08014113 0.34821429
f 1/1 2/2 3/3
f 4/4 3/3 5/5
f 6/6 5/5 7/7
f 8/8 7/7 9/9
f 10/10 9/9 11/11
f 12/12 11/11 13/13
f 14/14 13/13 15/15
f 16/16 15/15 17/17
f 18/18 17/17 19/19
f 20/20 19/19 21/21
f 22/22 21/21 23/23
f 24/24 23/23 25/25
f 26/26 25/25 27/27
f 28/28 27/27 29/29
f 30/30 29/29 31/31
f 32/32 31/31 2/2
f 33/33 1/1 4/4
f 34/34 4/4 6/6
f 35/35 6/6 8/8
f 36/36 8/8 10/10
f 37/37 10/10 12/12
f 38/38 12/12 14/14
f 39/39 14/14 16/16
f 40/40 16/16 18/18
f 41/41 18/18 20/20
f 42/42 20/20 22/22
f 43/43 22/22 24/24
f 44/44 24/24 26/26
f 45/45 26/26 28/28
f 46/46 28/28 30/30
f 47/47 30/30 32/32
f 48/48 32/32 1/1
f 1/1 33/33 48/48
f 32/32 48/48 47/47
f 30/30 47/47 46/46
f 28/28 46/46 45/45
f 26/26 45/45 44/44
f 24/24 44/44 43/43
f 22/22 43/43 42/42
f 20/20 42/42 41/41
f 18/18 41/41 40/40
f 16/16 40/40 39/39
f 14/14 39/39 38/38
f 12/12 38/38 37/37
f 10/10 37/37 36/36
f 8/8 36/36 35/35
f 6/6 35/35 34/34
f 4/4 34/34 33/33
f 2/2 1/1 32/32
f 31/31 32/32 30/30
f 29/29 30/30 28/28
f 27/27 28/28 26/26
f 25/25 26/26 24/24
f 23/23 24/24 22/22
f 21/21 22/22 20/20
f 19/19 20/20 18/18
f 17/17 18/18 16/16
f 15/15 16/16 14/14
f 13/13 14/14 12/12
f 11/11 12/12 10/10
f 9/9 10/10 8/8
f 7/7 8/8 6/6
f 5/5 6/6 4/4
f 3/3 4/4 1/1
f 2/2 31/31 49/49
f 31/31 29/29 50/50
f 29/29 27/27 51/51
f 27/27 25/25 52/52
f 25/25 23/23 53/53
f 23/23 21/21 54/54
f 21/21 19/19 55/55
f 19/19 17/17 56/56
f 17/17 15/15 57/57
f 15/15 13/13 58/58
f 13/13 11/11 59/59
f 11/11 9/9 60/60
f 9/9 7/7 61/61
f 7/7 5/5 62/62
f 5/5 3/3 63/63
f 3/3 2/2 64/64
f 65/65 66/66 67/67
f 68/68 67/67 69/69
f 70/70 69/69 71/71
f 72/72 71/71 73/73
f 74/74 73/73 75/75
f 76/76 75/75 77/77
f 78/78 77/77 79/79
f 80/80 79/79 81/81
f 82/82 81/81 83/83
f 84/84 83/83 85/85
f 86/86 85/85 87/87
f 88/88 87/87 89/89
f 90/90 89/89 91/91
f 92/92 91/91 93/93
f 94/94 93/93 95/95
f 96/96 95/95 66/66
f 66/66 65/65 96/96
f 95/95 96/96 94/94
f 93/93 94/94 92/92
f 91/91 92/92 90/90
f 89/89 90/90 88/88
f 87/87 88/88 86/86
f 85/85 86/86 84/84
f 83/83 84/84 82/82
f 81/81 82/82 80/80
f 79/79 80/80 78/78
f 77/77 78/78 76/76
f 75/75 76/76 74/74
f 73/73 74/74 72/72
f 71/71 72/72 70/70
f 69/69 70/70 68/68
f 67/67 68/68 65/65
f 97/97 98/98 99/99
f 100/100 99/99 101/101
f 102/102 101/101 103/103
f 104/104 103/103 105/105
f 106/106 105/105 107/107
f 108/108 107/107 109/109
f 110/110 109/109 111/111
f 112/112 111/111 113/113
f 114/114 113/113 115/115
f 116/116 115/115 117/117
f 118/118 117/117 119/119
f 120/120 119/119 121/121
f 122/122 121/121 123/123
f 124/124 123/123 125/125
f 126/126 125/125 127/127
f 128/128 127/127 98/98
f 98/98 97/97 128/128
f 127/127 128/128 126/126
f 125/125 126/126 124/124
f 123/123 124/124 122/122
f 121/121 122/122 120/120
f 119/119 120/120 118/118
f 117/117 118/118 116/116
f 115/115 116/116 114/114
f 113/113 114/114 112/112
f 111/111 112/112 110/110
f 109/109 110/110 108/108
f 107/107 108/108 106/106
f 105/105 106/106 104/104
f 103/103 104/104 102/102
f 101/101 102/102 100/100
f 99/99 100/100 97/97
f 129/129 130/130 131/131
f 132/132 133/133 130/130
f 130/130 129/129 132/132
f 134/134 135/135 133/133
f 136/136 137/137 138/138
f 136/136 139/139 140/140
f 133/133 132/132 134/134
f 134/134 141/141 142/142
f 140/140 137/137 136/136
f 143/143 144/144 140/140
f 142/142 135/135 134/134
f 141/141 145/145 146/146
f 140/140 139/139 143/143
f 143/143 147/147 148/148
f 149/149 150/150 148/148
f 149/149 151/151 131/131
f 146/146 142/142 141/141
f 145/145 152/152 153/153
f 154/154 155/155 153/153
f 154/154 156/156 157/157
f 158/158 159/159 157/157
f 158/158 160/160 138/138
f 148/148 144/144 143/143
f 131/131 150/150 149/149
f 153/153 146/146 145/145
f 157/157 155/155 154/154
f 138/138 159/159 158/158
f 148/148 147/147 149/149
f 153/153 152/152 154/154
f 138/138 160/160 136/136
f 157/157 156/156 158/158
f 131/131 151/151 129/129
f 161/161 162/162 163/163
f 164/164 161/161 165/165
f 166/166 164/164 167/167
f 168/168 166/166 169/169
f 170/170 168/168 171/171
f 172/172 170/170 173/173
f 174/174 172/172 175/175
f 176/176 174/174 177/177
f 178/178 176/176 179/179
f 180/180 178/178 181/181
f 182/182 180/180 183/183
f 184/184 182/182 185/185
f 186/186 184/184 187/187
f 188/188 186/186 189/189
f 190/190 188/188 191/191
f 162/162 190/190 192/192
f 192/192 163/163 162/162
f 191/191 192/192 190/190
f 189/189 191/191 188/188
f 187/187 189/189 186/186
f 185/185 187/187 184/184
f 183/183 185/185 182/182
f 181/181 183/183 180/180
f 179/179 181/181 178/178
f 177/177 179/179 176/176
f 175/175 177/177 174/174
f 173/173 175/175 172/172
f 171/171 173/173 170/170
f 169/169 171/171 168/168
f 167/167 169/169 166/166
f 165/165 167/167 164/164
f 163/163 165/165 161/161
f 193/193 194/194 195/195
f 196/196 197/197 194/194
f 198/198 199/199 197/197
f 200/200 201/201 199/199
f 194/194 193/193 196/196
f 199/199 198/198 200/200
f 197/197 196/196 198/198
f 202/202 203/203 201/201
f 204/204 205/205 206/206
f 204/204 207/207 208/208
f 201/201 200/200 202/202
f 209/209 210/210 203/203
f 208/208 205/205 204/204
f 207/207 211/211 212/212
f 203/203 202/202 209/209
f 213/213 214/214 210/210
f 212/212 208/208 207/207
f 215/215 216/216 212/212
f 210/210 209/209 213/213
f 217/217 218/218 214/214
f 212/212 211/211 215/215
f 215/215 219/219 220/220
f 214/214 213/213 217/217
f 221/221 222/222 218/218
f 220/220 216/216 215/215
f 219/219 223/223 195/195
f 218/218 217/217 221/221
f 224/224 206/206 222/222
f 195/195 220/220 219/219
f 222/222 221/221 224/224
f 195/195 223/223 193/193
f 206/206 224/224 204/204
f 225/225 226/226 227/227
f 228/228 227/227 229/229
f 230/230 229/229 231/231
f 232/232 231/231 233/233
f 234/234 233/233 235/235
f 236/236 235/235 237/237
f 238/238 237/237 239/239
f 240/240 239/239 241/241
f 242/242 241/241 243/243
f 244/244 243/243 245/245
f 246/246 245/245 247/247
f 248/248 247/247 249/249
f 250/250 249/249 251/251
f 252/252 251/251 253/253
f 254/254 253/253 255/255
f 256/256 255/255 226/226
f 226/226 225/225 256/256
f 255/255 256/256 254/254
f 253/253 254/254 252/252
f 251/251 252/252 250/250
f 249/249 250/250 248/248
f 247/247 248/248 246/246
f 245/245 246/246 244/244
f 243/243 244/244 242/242
f 241/241 242/242 240/240
f 239/239 240/240 238/238
f 237/237 238/238 236/236
f 235/235 236/236 234/234
f 233/233 234/234 232/232
f 231/231 232/232 230/230
f 229/229 230/230 228/228
f 227/227 228/228 225/225
f 257/257 258/258 259/259
f 260/260 261/261 258/258
f 262/262 263/263 264/264
f 263/263 265/265 266/266
f 258/258 257/257 260/260
f 267/267 268/268 261/261
f 266/266 264/264 263/263
f 265/265 269/269 270/270
f 261/261 260/260 267/267
f 267/267 271/271 272/272
f 270/270 266/266 265/265
f 269/269 273/273 274/274
f 272/272 268/268 267/267
f 275/275 276/276 272/272
f 277/277 278/278 276/276
f 277/277 262/262 279/279
f 274/274 270/270 269/269
f 273/273 280/280 281/281
f 282/282 283/283 284/284
f 282/282 285/285 286/286
f 272/272 271/271 275/275
f 279/279 278/278 277/277
f 281/281 274/274 273/273
f 280/280 287/287 284/284
f 286/286 283/283 282/282
f 285/285 288/288 259/259
f 276/276 275/275 277/277
f 284/284 281/281 280/280
f 259/259 286/286 285/285
f 264/264 279/279 262/262
f 259/259 288/288 257/257
f 284/284 287/287 282/282
f 289/289 290/290 291/291
f 292/292 289/289 293/293
f 294/294 292/292 295/295
f 296/296 294/294 297/297
f 298/298 296/296 299/299
f 300/300 298/298 301/301
f 302/302 300/300 303/303
f 304/304 302/302 305/305
f 306/306 304/304 307/307
f 308/308 306/306 309/309
f 310/310 308/308 311/311
f 312/312 310/310 313/313
f 314/314 312/312 315/315
f 316/316 314/314 317/317
f 318/318 316/316 319/319
f 290/290 318/318 320/320
f 320/320 291/291 290/290
f 319/319 320/320 318/318
f 317/317 319/319 316/316
f 315/315 317/317 314/314
f 313/313 315/315 312/312
f 311/311 313/313 310/310
f 309/309 311/311 308/308
f 307/307 309/309 306/306
f 305/305 307/307 304/304
f 303/303 305/305 302/302
f 301/301 303/303 300/300
f 299/299 301/301 298/298
f 297/297 299/299 296/296
f 295/295 297/297 294/294
f 293/293 295/295 292/292
f 291/291 293/293 289/289
f 321/321 322/322 323/323
f 324/324 325/325 322/322
f 322/322 321/321 324/324
f 324/324 326/326 327/327
f 327/327 325/325 324/324
f 326/326 328/328 329/329
f 329/329 327/327 326/326
f 328/328 330/330 331/331
f 330/330 332/332 333/333
f 332/332 334/334 335/335
f 334/334 336/336 337/337
f 336/336 338/338 339/339
f 331/331 329/329 328/328
f 335/335 333/333 332/332
f 339/339 337/337 336/336
f 338/338 340/340 341/341
f 333/333 331/331 330/330
f 341/341 339/339 338/338
f 337/337 335/335 334/334
f 340/340 342/342 343/343
f 344/344 345/345 346/346
f 347/347 348/348 345/345
f 343/343 341/341 340/340
f 342/342 349/349 350/350
f 351/351 346/346 350/350
f 345/345 344/344 347/347
f 350/350 343/343 342/342
f 346/346 351/351 344/344
f 350/350 349/349 351/351
f 352/352 323/323 348/348
f 348/348 347/347 352/352
f 323/323 352/352 321/321
f 353/353 354/354 355/355
f 354/354 356/356 357/357
f 356/356 358/358 359/359
f 358/358 360/360 361/361
f 360/360 362/362 363/363
f 362/362 364/364 365/365
f 364/364 366/366 367/367
f 366/366 368/368 369/369
f 368/368 370/370 371/371
f 370/370 372/372 373/373
f 372/372 374/374 375/375
f 374/374 376/376 377/377
f 376/376 378/378 379/379
f 378/378 380/380 381/381
f 380/380 382/382 383/383
f 382/382 353/353 384/384
f 384/384 383/383 382/382
f 383/383 381/381 380/380
f 381/381 379/379 378/378
f 379/379 377/377 376/376
f 377/377 375/375 374/374
f 375/375 373/373 372/372
f 373/373 371/371 370/370
f 371/371 369/369 368/368
f 369/369 367/367 366/366
f 367/367 365/365 364/364
f 365/365 363/363 362/362
f 363/363 361/361 360/360
f 361/361 359/359 358/358
f 359/359 357/357 356/356
f 357/357 355/355 354/354
f 355/355 384/384 353/353
f 385/385 386/386 387/387
f 386/386 388/388 389/389
f 388/388 390/390 391/391
f 390/390 392/392 393/393
f 392/392 394/394 395/395
f 394/394 396/396 397/397
f 396/396 398/398 399/399
f 398/398 400/400 401/401
f 400/400 402/402 403/403
f 402/402 404/404 405/405
f 404/404 406/406 407/407
f 406/406 408/408 409/409
f 408/408 410/410 411/411
f 410/410 412/412 413/413
f 412/412 414/414 415/415
f 414/414 385/385 416/416
f 416/416 415/415 414/414
f 415/415 413/413 412/412
f 413/413 411/411 410/410
f 411/411 409/409 408/408
f 409/409 407/407 406/406
f 407/407 405/405 404/404
f 405/405 403/403 402/402
f 403/403 401/401 400/400
f 401/401 399/399 398/398
f 399/399 397/397 396/396
f 397/397 395/395 394/394
f 395/395 393/393 392/392
f 393/393 391/391 390/390
f 391/391 389/389 388/388
f 389/389 387/387 386/386
f 387/387 416/416 385/385
f 417/417 418/418 419/419
f 418/418 420/420 421/421
f 420/420 422/422 423/423
f 422/422 424/424 425/425
f 424/424 426/426 427/427
f 426/426 428/428 429/429
f 428/428 430/430 431/431
f 430/430 432/432 433/433
f 432/432 434/434 435/435
f 434/434 436/436 437/437
f 436/436 438/438 439/439
f 438/438 440/440 441/441
f 440/440 442/442 443/443
f 442/442 444/444 445/445
f 444/444 446/446 447/447
f 446/446 417/417 448/448
f 448/448 447/447 446/446
f 447/447 445/445 444/444
f 445/445 443/443 442/442
f 443/443 441/441 440/440
f 441/441 439/439 438/438
f 439/439 437/437 436/436
f 437/437 435/435 434/434
f 435/435 433/433 432/432
f 433/433 431/431 430/430
f 431/431 429/429 428/428
f 429/429 427/427 426/426
f 427/427 425/425 424/424
f 425/425 423/423 422/422
f 423/423 421/421 420/420
f 421/421 419/419 418/418
f 419/419 448/448 417/417
f 449/449 450/450 451/451
f 450/450 452/452 453/453
f 452/452 454/454 455/455
f 454/454 456/456 457/457
f 456/456 458/458 459/459
f 458/458 460/460 461/461
f 460/460 462/462 463/463
f 462/462 464/464 465/465
f 464/464 466/466 467/467
f 466/466 468/468 469/469
f 468/468 470/470 471/471
f 470/470 472/472 473/473
f 472/472 474/474 475/475
f 474/474 476/476 477/477
f 476/476 478/478 479/479
f 478/478 449/449 480/480
f 480/480 479/479 478/478
f 479/479 477/477 476/476
f 477/477 475/475 474/474
f 475/475 473/473 472/472
f 473/473 471/471 470/470
f 471/471 469/469 468/468
f 469/469 467/467 466/466
f 467/467 465/465 464/464
f 465/465 463/463 462/462
f 463/463 461/461 460/460
f 461/461 459/459 458/458
f 459/459 457/457 456/456
f 457/457 455/455 454/454
f 455/455 453/453 452/452
f 453/453 451/451 450/450
f 451/451 480/480 449/449
f 481/481 482/482 483/483
f 482/482 484/484 485/485
f 484/484 486/486 487/487
f 486/486 488/488 489/489
f 488/488 490/490 491/491
f 490/490 492/492 493/493
f 492/492 494/494 495/495
f 494/494 496/496 497/497
f 496/496 498/498 499/499
f 498/498 500/500 501/501
f 500/500 502/502 503/503
f 502/502 504/504 505/505
f 504/504 506/506 507/507
f 506/506 508/508 509/509
f 508/508 510/510 511/511
f 510/510 481/481 512/512
f 512/512 511/511 510/510
f 511/511 509/509 508/508
f 509/509 507/507 506/506
f 507/507 505/505 504/504
f 505/505 503/503 502/502
f 503/503 501/501 500/500
f 501/501 499/499 498/498
f 499/499 497/497 496/496
f 497/497 495/495 494/494
f 495/495 493/493 492/492
f 493/493 491/491 490/490
f 491/491 489/489 488/488
f 489/489 487/487 486/486
f 487/487 485/485 484/484
f 485/485 483/483 482/482
f 483/483 512/512 481/481
f 513/513 514/514 515/515
f 514/514 516/516 517/517
f 516/516 518/518 519/519
f 518/518 520/520 521/521
f 520/520 522/522 523/523
f 522/522 524/524 525/525
f 524/524 526/526 527/527
f 526/526 528/528 529/529
f 528/528 530/530 531/531
f 530/530 532/532 533/533
f 532/532 534/534 535/535
f 534/534 536/536 537/537
f 536/536 538/538 539/539
f 538/538 540/540 541/541
f 540/540 542/542 543/543
f 542/542 513/513 544/544
f 544/544 543/543 542/542
f 543/543 541/541 540/540
f 541/541 539/539 538/538
f 539/539 537/537 536/536
f 537/537 535/535 534/534
f 535/535 533/533 532/532
f 533/533 531/531 530/530
f 531/531 529/529 528/528
f 529/529 527/527 526/526
f 527/527 525/525 524/524
f 525/525 523/523 522/522
f 523/523 521/521 520/520
f 521/521 519/519 518/518
f 519/519 517/517 516/516
f 517/517 515/515 514/514
f 515/515 544/544 513/513
f 545/545 546/546 547/547
f 546/546 548/548 549/549
f 548/548 550/550 551/551
f 550/550 552/552 553/553
f 552/552 554/554 555/555
f 554/554 556/556 557/557
f 556/556 558/558 559/559
f 558/558 560/560 561/561
f 560/560 562/562 563/563
f 562/562 564/564 565/565
f 564/564 566/566 567/567
f 566/566 568/568 569/569
f 568/568 570/570 571/571
f 570/570 572/572 573/573
f 572/572 574/574 575/575
f 574/574 545/545 576/576
f 576/576 575/575 574/574
f 575/575 573/573 572/572
f 573/573 571/571 570/570
f 571/571 569/569 568/568
f 569/569 567/567 566/566
f 567/567 565/565 564/564
f 565/565 563/563 562/562
f 563/563 561/561 560/560
f 561/561 559/559 558/558
f 559/559 557/557 556/556
f 557/557 555/555 554/554
f 555/555 553/553 552/552
f 553/553 551/551 550/550
f 551/551 549/549 548/548
f 549/549 547/547 546/546
f 547/547 576/576 545/545
f 577/577 578/578 579/579
f 578/578 580/580 581/581
f 580/580 582/582 583/583
f 582/582 584/584 585/585
f 584/584 586/586 587/587
f 586/586 588/588 589/589
f 588/588 590/590 591/591
f 590/590 592/592 593/593
f 592/592 594/594 595/595
f 594/594 596/596 597/597
f 596/596 598/598 599/599
f 598/598 600/600 601/601
f 600/600 602/602 603/603
f 602/602 604/604 605/605
f 604/604 606/606 607/607
f 606/606 577/577 608/608
f 608/608 607/607 606/606
f 607/607 605/605 604/604
f 605/605 603/603 602/602
f 603/603 601/601 600/600
f 601/601 599/599 598/598
f 599/599 597/597 596/596
f 597/597 595/595 594/594
f 595/595 593/593 592/592
f 593/593 591/591 590/590
f 591/591 589/589 588/588
f 589/589 587/587 586/586
f 587/587 585/585 584/584
f 585/585 583/583 582/582
f 583/583 581/581 580/580
f 581/581 579/579 578/578
f 579/579 608/608 577/577
f 609/609 610/610 611/611
f 610/610 612/612 613/613
f 612/612 614/614 615/615
f 614/614 616/616 617/617
f 616/616 618/618 619/619
f 618/618 620/620 621/621
f 620/620 622/622 623/623
f 622/622 624/624 625/625
f 624/624 626/626 627/627
f 626/626 628/628 629/629
f 628/628 630/630 631/631
f 630/630 632/632 633/633
f 632/632 634/634 635/635
f 634/634 636/636 637/637
f 636/636 638/638 639/639
f 638/638 609/609 640/640
f 640/640 639/639 638/638
f 639/639 637/637 636/636
f 637/637 635/635 634/634
f 635/635 633/633 632/632
f 633/633 631/631 630/630
f 631/631 629/629 628/628
f 629/629 627/627 626/626
f 627/627 625/625 624/624
f 625/625 623/623 622/622
f 623/623 621/621 620/620
f 621/621 619/619 618/618
f 619/619 617/617 616/616
f 617/617 615/615 614/614
f 615/615 613/613 612/612
f 613/613 611/611 610/610
f 611/611 640/640 609/609
f 641/641 642/642 643/643
f 642/642 644/644 645/645
f 644/644 646/646 647/647
f 646/646 648/648 649/649
f 648/648 650/650 651/651
f 650/650 652/652 653/653
f 652/652 654/654 655/655
f 654/654 656/656 657/657
f 656/656 658/658 659/659
f 658/658 660/660 661/661
f 660/660 662/662 663/663
f 662/662 664/664 665/665
f 664/664 666/666 667/667
f 666/666 668/668 669/669
f 668/668 670/670 671/671
f 670/670 641/641 672/672
f 672/672 671/671 670/670
f 671/671 669/669 668/668
f 669/669 667/667 666/666
f 667/667 665/665 664/664
f 665/665 663/663 662/662
f 663/663 661/661 660/660
f 661/661 659/659 658/658
f 659/659 657/657 656/656
f 657/657 655/655 654/654
f 655/655 653/653 652/652
f 653/653 651/651 650/650
f 651/651 649/649 648/648
f 649/649 647/647 646/646
f 647/647 645/645 644/644
f 645/645 643/643 642/642
f 643/643 672/672 641/641
f 673/673 674/674 675/675
f 674/674 676/676 677/677
f 676/676 678/678 679/679
f 678/678 680/680 681/681
f 680/680 682/682 683/683
f 682/682 684/684 685/685
f 684/684 686/686 687/687
f 686/686 688/688 689/689
f 688/688 690/690 691/691
f 690/690 692/692 693/693
f 692/692 694/694 695/695
f 694/694 696/696 697/697
f 696/696 698/698 699/699
f 698/698 700/700 701/701
f 700/700 702/702 703/703
f 702/702 673/673 704/704
f 704/704 703/703 702/702
f 703/703 701/701 700/700
f 701/701 699/699 698/698
f 699/699 697/697 696/696
f 697/697 695/695 694/694
f 695/695 693/693 692/692
f 693/693 691/691 690/690
f 691/691 689/689 688/688
f 689/689 687/687 686/686
f 687/687 685/685 684/684
f 685/685 683/683 682/682
f 683/683 681/681 680/680
f 681/681 679/679 678/678
f 679/679 677/677 676/676
f 677/677 675/675 674/674
f 675/675 704/704 673/673
f 705/705 706/706 707/707
f 708/708 705/705 709/709
f 710/710 708/708 711/711
f 712/712 710/710 713/713
f 714/714 712/712 715/715
f 716/716 714/714 717/717
f 718/718 716/716 719/719
f 720/720 718/718 721/721
f 722/722 720/720 723/723
f 724/724 722/722 725/725
f 726/726 724/724 727/727
f 728/728 726/726 729/729
f 730/730 728/728 731/731
f 732/732 730/730 733/733
f 734/734 732/732 735/735
f 706/706 734/734 736/736
f 736/736 707/707 706/706
f 735/735 736/736 734/734
f 733/733 735/735 732/732
f 731/731 733/733 730/730
f 729/729 731/731 728/728
f 727/727 729/729 726/726
f 725/725 727/727 724/724
f 723/723 725/725 722/722
f 721/721 723/723 720/720
f 719/719 721/721 718/718
f 717/717 719/719 716/716
f 715/715 717/717 714/714
f 713/713 715/715 712/712
f 711/711 713/713 710/710
f 709/709 711/711 708/708
f 707/707 709/709 705/705
f 737/737 738/738 739/739
f 738/738 740/740 741/741
f 740/740 742/742 743/743
f 742/742 744/744 745/745
f 746/746 747/747 748/748
f 746/746 749/749 750/750
f 749/749 751/751 752/752
f 751/751 753/753 754/754
f 741/741 739/739 738/738
f 745/745 743/743 742/742
f 750/750 747/747 746/746
f 754/754 752/752 751/751
f 743/743 741/741 740/740
f 755/755 756/756 745/745
f 757/757 758/758 756/756
f 759/759 748/748 758/758
f 752/752 750/750 749/749
f 760/760 761/761 754/754
f 762/762 763/763 764/764
f 763/763 765/765 766/766
f 745/745 744/744 755/755
f 758/758 757/757 759/759
f 754/754 753/753 760/760
f 762/762 767/767 761/761
f 766/766 764/764 763/763
f 765/765 737/737 768/768
f 756/756 755/755 757/757
f 761/761 760/760 762/762
f 768/768 766/766 765/765
f 748/748 759/759 746/746
f 739/739 768/768 737/737
f 764/764 767/767 762/762
f 769/769 770/770 771/771
f 772/772 771/771 773/773
f 774/774 773/773 775/775
f 776/776 775/775 777/777
f 778/778 777/777 779/779
f 780/780 779/779 781/781
f 782/782 781/781 783/783
f 784/784 783/783 785/785
f 786/786 785/785 787/787
f 788/788 787/787 789/789
f 790/790 789/789 791/791
f 792/792 791/791 793/793
f 794/794 793/793 795/795
f 796/796 795/795 797/797
f 798/798 797/797 799/799
f 800/800 799/799 770/770
f 770/770 769/769 800/800
f 799/799 800/800 798/798
f 797/797 798/798 796/796
f 795/795 796/796 794/794
f 793/793 794/794 792/792
f 791/791 792/792 790/790
f 789/789 790/790 788/788
f 787/787 788/788 786/786
f 785/785 786/786 784/784
f 783/783 784/784 782/782
f 781/781 782/782 780/780
f 779/779 780/780 778/778
f 777/777 778/778 776/776
f 775/775 776/776 774/774
f 773/773 774/774 772/772
f 771/771 772/772 769/769
f 801/801 802/802 803/803
f 804/804 803/803 805/805
f 806/806 805/805 807/807
f 808/808 807/807 809/809
f 810/810 809/809 811/811
f 812/812 811/811 813/813
f 814/814 813/813 815/815
f 816/816 815/815 817/817
f 818/818 817/817 819/819
f 820/820 819/819 821/821
f 822/822 821/821 823/823
f 824/824 823/823 825/825
f 826/826 825/825 827/827
f 828/828 827/827 829/829
f 830/830 829/829 831/831
f 832/832 831/831 802/802
f 802/802 801/801 832/832
f 831/831 832/832 830/830
f 829/829 830/830 828/828
f 827/827 828/828 826/826
f 825/825 826/826 824/824
f 823/823 824/824 822/822
f 821/821 822/822 820/820
f 819/819 820/820 818/818
f 817/817 818/818 816/816
f 815/815 816/816 814/814
f 813/813 814/814 812/812
f 811/811 812/812 810/810
f 809/809 810/810 808/808
f 807/807 808/808 806/806
f 805/805 806/806 804/804
f 803/803 804/804 801/801
f 833/833 834/834 835/835
f 836/836 835/835 837/837
f 838/838 837/837 839/839
f 840/840 839/839 841/841
f 842/842 841/841 843/843
f 844/844 843/843 845/845
f 846/846 845/845 847/847
f 848/848 847/847 849/849
f 850/850 849/849 851/851
f 852/852 851/851 853/853
f 854/854 853/853 855/855
f 856/856 855/855 857/857
f 858/858 857/857 859/859
f 860/860 859/859 861/861
f 862/862 861/861 863/863
f 864/864 863/863 834/834
f 834/834 833/833 864/864
f 863/863 864/864 862/862
f 861/861 862/862 860/860
f 859/859 860/860 858/858
f 857/857 858/858 856/856
f 855/855 856/856 854/854
f 853/853 854/854 852/852
f 851/851 852/852 850/850
f 849/849 850/850 848/848
f 847/847 848/848 846/846
f 845/845 846/846 844/844
f 843/843 844/844 842/842
f 841/841 842/842 840/840
f 839/839 840/840 838/838
f 837/837 838/838 836/836
f 835/835 836/836 833/833
f 865/865 866/866 867/867
f 868/868 867/867 869/869
f 870/870 869/869 871/871
f 872/872 871/871 873/873
f 874/874 873/873 875/875
f 876/876 875/875 877/877
f 878/878 877/877 879/879
f 880/880 879/879 881/881
f 882/882 881/881 883/883
f 884/884 883/883 885/885
f 886/886 885/885 887/887
f 888/888 887/887 889/889
f 890/890 889/889 891/891
f 892/892 891/891 893/893
f 894/894 893/893 895/895
f 896/896 895/895 866/866
f 866/866 865/865 896/896
f 895/895 896/896 894/894
f 893/893 894/894 892/892
f 891/891 892/892 890/890
f 889/889 890/890 888/888
f 887/887 888/888 886/886
f 885/885 886/886 884/884
f 883/883 884/884 882/882
f 881/881 882/882 880/880
f 879/879 880/880 878/878
f 877/877 878/878 876/876
f 875/875 876/876 874/874
f 873/873 874/874 872/872
f 871/871 872/872 870/870
f 869/869 870/870 868/868
f 867/867 868/868 865/865
f 897/897 898/898 899/899
f 899/899 900/900 897/897
f 900/900 901/901 897/897
f 901/901 902/902 897/897
f 902/902 903/903 897/897
f 903/903 904/904 897/897
f 904/904 905/905 897/897
f 905/905 906/906 897/897
f 906/906 907/907 897/897
f 907/907 908/908 897/897
f 908/908 909/909 897/897
f 909/909 910/910 897/897
f 910/910 911/911 897/897
f 911/911 912/912 897/897
f 912/912 913/913 897/897
f 913/913 898/898 897/897

