# https://github.com/mikedh/trimesh
mtllib material.mtl
usemtl 0.301961_0.301961_0.301961_0.000000_0.000000
v -0.01347697 -0.00847240 -0.00019030
v -0.01380617 -0.00831847 -0.00019030
v -0.01360841 -0.00753189 -0.00073223
v -0.01416902 -0.00829841 -0.00019030
v -0.01427887 -0.00749483 -0.00073223
v -0.01451317 -0.00841512 -0.00019030
v -0.01491479 -0.00771048 -0.00073223
v -0.01478898 -0.00865176 -0.00019030
v -0.01542440 -0.00814772 -0.00073223
v -0.01495663 -0.00897418 -0.00019030
v -0.01573419 -0.00874348 -0.00073223
v -0.01499195 -0.00933586 -0.00019030
v -0.01579944 -0.00941179 -0.00073223
v -0.01300014 -0.00781632 -0.00073223
v -0.01347627 -0.00700631 -0.00154329
v -0.01435227 -0.00695789 -0.00154329
v -0.01518314 -0.00723965 -0.00154329
v -0.01584898 -0.00781094 -0.00154329
v -0.01625373 -0.00858934 -0.00154329
v -0.01633899 -0.00946252 -0.00154329
v -0.01268153 -0.00737794 -0.00154329
v -0.01342987 -0.00682176 -0.00250000
v -0.01437805 -0.00676934 -0.00250000
v -0.01527737 -0.00707432 -0.00250000
v -0.01599807 -0.00769268 -0.00250000
v -0.01643617 -0.00853521 -0.00250000
v -0.01652846 -0.00948034 -0.00250000
v -0.01256965 -0.00722400 -0.00250000
v -0.01403944 -0.00924630 0.00000000
v -0.00666725 -0.01044329 -0.00154329
v -0.01268153 -0.00737794 -0.00154329
v -0.01066685 -0.00819382 -0.00250000
v -0.01256965 -0.00722400 -0.00250000
v 0.00000000 -0.01149955 -0.00154329
v -0.00373791 -0.01071707 -0.00250000
v -0.00660843 -0.01026230 -0.00250000
v -0.00000000 -0.01130925 -0.00250000
v 0.00363221 -0.01073381 -0.00250000
v 0.00666725 -0.01044329 -0.00154329
v 0.00660843 -0.01026230 -0.00250000
v 0.01057162 -0.00824235 -0.00250000
v 0.01268153 -0.00737794 -0.00154329
v -0.00683476 -0.01095868 -0.00073223
v 0.00000000 -0.01204148 -0.00073223
v 0.00683476 -0.01095868 -0.00073223
v 0.01300014 -0.00781632 -0.00073223
v -0.01300014 -0.00781632 -0.00073223
v -0.00708545 -0.01173002 -0.00019030
v 0.00000000 -0.01285254 -0.00019030
v 0.00708545 -0.01173002 -0.00019030
v 0.01347697 -0.00847240 -0.00019030
v -0.01347697 -0.00847240 -0.00019030
v -0.00738116 -0.01263988 0.00000000
v 0.00000000 -0.01380925 0.00000000
v 0.00738116 -0.01263988 0.00000000
v 0.01403944 -0.00924630 0.00000000
v -0.01403944 -0.00924630 0.00000000
v 0.01256965 -0.00722400 -0.00250000
v -0.01403944 -0.00924630 0.00000000
v -0.01297921 -0.02860734 -0.00011732
v -0.01318566 -0.02843637 -0.00021155
v -0.01215481 -0.02929003 0.00000000
v -0.01499195 -0.00933586 -0.00019030
v -0.01372623 -0.02798872 -0.00045828
v -0.01408616 -0.02763315 -0.00073223
v -0.01579944 -0.00941179 -0.00073223
v -0.01473317 -0.02654111 -0.00154329
v -0.01633899 -0.00946252 -0.00154329
v -0.01504938 -0.02521094 -0.00250000
v -0.01652846 -0.00948034 -0.00250000
v -0.01342987 -0.00682176 -0.00250000
v -0.01437805 -0.00676934 -0.00250000
v -0.01437804 -0.00677357 -0.01561309
v -0.01362926 -0.00678018 -0.01599889
v -0.01256965 -0.00722400 -0.00250000
v -0.01344412 -0.00685735 -0.01612571
v -0.01318801 -0.00696409 -0.01630113
v -0.01257678 -0.00721884 -0.01671981
v -0.01643617 -0.00853521 -0.00250000
v -0.01652846 -0.00948034 -0.00250000
v -0.01652846 -0.00948034 -0.01366445
v -0.01599807 -0.00769268 -0.00250000
v -0.01643617 -0.00853521 -0.01432325
v -0.01527737 -0.00707432 -0.00250000
v -0.01599807 -0.00769268 -0.01488700
v -0.01566735 -0.00734896 -0.01510693
v -0.01519197 -0.00702782 -0.01530141
v -0.01452135 -0.00681067 -0.01555505
v -0.01527737 -0.00707432 -0.01527435
v -0.01440601 -0.00677332 -0.01559868
v -0.01256965 -0.00722400 -0.01672560
v 0.01499195 -0.00933586 -0.00019030
v 0.01495663 -0.00897418 -0.00019030
v 0.01573419 -0.00874348 -0.00073223
v 0.01478898 -0.00865176 -0.00019030
v 0.01542440 -0.00814772 -0.00073223
v 0.01451317 -0.00841512 -0.00019030
v 0.01491479 -0.00771048 -0.00073223
v 0.01416902 -0.00829841 -0.00019030
v 0.01427887 -0.00749483 -0.00073223
v 0.01380617 -0.00831847 -0.00019030
v 0.01360841 -0.00753189 -0.00073223
v 0.01347697 -0.00847240 -0.00019030
v 0.01300014 -0.00781632 -0.00073223
v 0.01579944 -0.00941179 -0.00073223
v 0.01625373 -0.00858934 -0.00154329
v 0.01584898 -0.00781094 -0.00154329
v 0.01518314 -0.00723965 -0.00154329
v 0.01435227 -0.00695789 -0.00154329
v 0.01347627 -0.00700631 -0.00154329
v 0.01268153 -0.00737794 -0.00154329
v 0.01633899 -0.00946252 -0.00154329
v 0.01643617 -0.00853521 -0.00250000
v 0.01599807 -0.00769268 -0.00250000
v 0.01527737 -0.00707432 -0.00250000
v 0.01437805 -0.00676934 -0.00250000
v 0.01342987 -0.00682176 -0.00250000
v 0.01256965 -0.00722400 -0.00250000
v 0.01652846 -0.00948034 -0.00250000
v 0.01403944 -0.00924630 0.00000000
v 0.01527737 -0.00707432 -0.00250000
v 0.01566735 -0.00734896 -0.01516076
v 0.01599807 -0.00769268 -0.01494004
v 0.01527206 -0.00708223 -0.01532283
v 0.01599807 -0.00769268 -0.00250000
v 0.01643617 -0.00853521 -0.01437429
v 0.01643617 -0.00853521 -0.00250000
v 0.01652846 -0.00948034 -0.01371314
v 0.01342987 -0.00682176 -0.00250000
v 0.01257678 -0.00721883 -0.01677215
v 0.01318728 -0.00696390 -0.01635442
v 0.01256965 -0.00722400 -0.00250000
v 0.01256965 -0.00722400 -0.01677792
v 0.01362593 -0.00678074 -0.01605429
v 0.01437805 -0.00677314 -0.01566697
v 0.01344390 -0.00685675 -0.01617884
v 0.01440307 -0.00677289 -0.01565409
v 0.01451939 -0.00681041 -0.01561009
v 0.01518960 -0.00702659 -0.01535664
v 0.01437805 -0.00676934 -0.00250000
v 0.01652846 -0.00948034 -0.00250000
v 0.01403944 -0.00924630 0.00000000
v 0.01499195 -0.00933586 -0.00019030
v 0.01318545 -0.02843867 -0.00021149
v 0.01298117 -0.02860783 -0.00011796
v 0.01633899 -0.00946252 -0.00154329
v 0.01652846 -0.00948034 -0.00250000
v 0.01504820 -0.02522344 -0.00250000
v 0.01579944 -0.00941179 -0.00073223
v 0.01473244 -0.02654883 -0.00154329
v 0.01408582 -0.02763682 -0.00073223
v 0.01372974 -0.02798793 -0.00046070
v 0.01215459 -0.02929233 0.00000000
v 0.01652846 -0.00948034 -0.00250000
v 0.01652846 -0.00948034 -0.01371314
v 0.01504820 -0.02522344 -0.00250000
v 0.01776582 -0.02836743 -0.00046070
v 0.01504820 -0.02522344 -0.00250000
v 0.01652846 -0.00948034 -0.01371314
v 0.02031476 -0.00125845 -0.01976926
v 0.01566735 -0.00734896 -0.01516076
v 0.01527206 -0.00708223 -0.01532283
v 0.01473244 -0.02654883 -0.00154329
v 0.01599807 -0.00769268 -0.01494004
v 0.01372974 -0.02798793 -0.00046070
v 0.01408582 -0.02763682 -0.00073223
v 0.01643617 -0.00853521 -0.01437429
v 0.01518960 -0.00702659 -0.01535664
v -0.01652846 -0.00948034 -0.00250000
v -0.01504938 -0.02521094 -0.00250000
v -0.01652846 -0.00948034 -0.01366445
v -0.01776571 -0.02836853 -0.00045828
v -0.02031444 -0.00126186 -0.01969665
v -0.01652846 -0.00948034 -0.01366445
v -0.01504938 -0.02521094 -0.00250000
v -0.01519197 -0.00702782 -0.01530141
v -0.01527737 -0.00707432 -0.01527435
v -0.01473317 -0.02654111 -0.00154329
v -0.01408616 -0.02763315 -0.00073223
v -0.01643617 -0.00853521 -0.01432325
v -0.01566735 -0.00734896 -0.01510693
v -0.01599807 -0.00769268 -0.01488700
v -0.01372623 -0.02798872 -0.00045828
v -0.01893764 -0.00015469 -0.02178952
v -0.02067613 0.00390731 -0.02500000
v -0.02003395 0.00260447 -0.02500000
v -0.01257678 -0.00721884 -0.01671981
v -0.01610309 -0.00326767 -0.02009542
v -0.01859974 -0.00047220 -0.02247648
v -0.01256965 -0.00722400 -0.01672560
v -0.01344412 -0.00685735 -0.01612571
v -0.01362926 -0.00678018 -0.01599889
v -0.01318801 -0.00696409 -0.01630113
v -0.01947742 -0.00000757 -0.02117806
v -0.01440601 -0.00677332 -0.01559868
v -0.01452135 -0.00681067 -0.01555505
v -0.01437804 -0.00677357 -0.01561309
v -0.01519197 -0.00702782 -0.01530141
v -0.02031444 -0.00126186 -0.01969665
v -0.02015977 -0.00004699 -0.02070930
v -0.02050118 0.00072416 -0.02161833
v -0.02082979 0.00421906 -0.02500000
v -0.02040978 -0.00024788 -0.02067778
v 0.01067828 -0.00845163 -0.02500000
v 0.01057162 -0.00824235 -0.00250000
v 0.00660843 -0.01026230 -0.00250000
v 0.00367301 -0.01099138 -0.02500000
v -0.00377842 -0.01097273 -0.02500000
v -0.00000000 -0.01130925 -0.00250000
v 0.00363221 -0.01073381 -0.00250000
v -0.01077088 -0.00839794 -0.02500000
v -0.00660843 -0.01026230 -0.00250000
v -0.00373791 -0.01071707 -0.00250000
v -0.01256965 -0.00722400 -0.01672560
v -0.01610309 -0.00326767 -0.02009542
v -0.01066685 -0.00819382 -0.00250000
v -0.01256965 -0.00722400 -0.00250000
v -0.01645502 -0.00357977 -0.02500000
v -0.01859974 -0.00047220 -0.02247648
v 0.01638647 -0.00366199 -0.02500000
v 0.01999632 0.00250426 -0.02500000
v 0.01860258 -0.00046720 -0.02255346
v 0.01256965 -0.00722400 -0.01677792
v 0.01603140 -0.00334688 -0.02009198
v 0.01256965 -0.00722400 -0.00250000
v -0.02003395 0.00260447 -0.02500000
v 0.01948080 -0.00000047 -0.02125680
v 0.01440307 -0.00677289 -0.01565409
v 0.01437805 -0.00677314 -0.01566697
v 0.02016324 -0.00003887 -0.02078856
v 0.01451939 -0.00681041 -0.01561009
v 0.01894081 -0.00014867 -0.02186745
v 0.01362593 -0.00678074 -0.01605429
v 0.01344390 -0.00685675 -0.01617884
v 0.01318728 -0.00696390 -0.01635442
v 0.01257678 -0.00721883 -0.01677215
v 0.01603140 -0.00334688 -0.02009198
v 0.01860258 -0.00046720 -0.02255346
v 0.01999632 0.00250426 -0.02500000
v 0.02064580 0.00379582 -0.02500000
v 0.02082315 0.00414850 -0.02500000
v 0.02050122 0.00072463 -0.02168772
v 0.02031476 -0.00125845 -0.01976926
v 0.02041078 -0.00023725 -0.02075719
v 0.01518960 -0.00702659 -0.01535664
v 0.01256965 -0.00722400 -0.01677792
v -0.00679919 -0.02221506 0.00000000
v -0.01403944 -0.00924630 0.00000000
v -0.00738116 -0.01263988 0.00000000
v 0.01635729 -0.03578966 0.00000000
v 0.00679919 -0.03581344 0.00000000
v 0.01215459 -0.02929233 0.00000000
v -0.01215481 -0.02929003 0.00000000
v -0.00888356 -0.02533456 0.00000000
v -0.00367969 -0.02013069 0.00000000
v 0.00000000 -0.01380925 0.00000000
v 0.00000000 -0.01939875 0.00000000
v 0.00738116 -0.01263988 0.00000000
v 0.00367969 -0.02013069 0.00000000
v 0.00961550 -0.02901425 0.00000000
v 0.00888356 -0.02533456 0.00000000
v 0.01768699 -0.02981252 0.00000000
v 0.00677541 -0.04537154 0.00000000
v 0.00367969 -0.03789781 0.00000000
v 0.00000000 -0.04671925 0.00000000
v 0.00000000 -0.03862975 0.00000000
v -0.00677541 -0.04537154 0.00000000
v -0.00367969 -0.03789781 0.00000000
v -0.01251933 -0.04153357 0.00000000
v -0.00679919 -0.03581344 0.00000000
v -0.01635729 -0.03578966 0.00000000
v -0.00888356 -0.03269394 0.00000000
v -0.01768710 -0.02981021 0.00000000
v 0.01403944 -0.00924630 0.00000000
v 0.01251933 -0.04153357 0.00000000
v 0.00679919 -0.02221506 0.00000000
v 0.00888356 -0.03269394 0.00000000
v -0.00961550 -0.02901425 0.00000000
v 0.01768699 -0.02981252 0.00000000
v 0.01215459 -0.02929233 0.00000000
v 0.01298117 -0.02860783 -0.00011796
v 0.01770500 -0.02901425 -0.00013026
v 0.01318545 -0.02843867 -0.00021149
v 0.01372974 -0.02798793 -0.00046070
v 0.01776582 -0.02836743 -0.00046070
v 0.01770413 -0.02905290 -0.00012395
v 0.01744284 0.00284569 -0.02500000
v 0.01888000 0.01007075 -0.02500000
v 0.02100528 0.00608544 -0.02500000
v 0.02082315 0.00414850 -0.02500000
v 0.02093999 0.01438600 -0.02500000
v 0.02064580 0.00379582 -0.02500000
v 0.01999632 0.00250426 -0.02500000
v 0.01638647 -0.00366199 -0.02500000
v 0.01335018 -0.00327943 -0.02500000
v 0.01067828 -0.00845163 -0.02500000
v 0.00722506 -0.00737210 -0.02500000
v 0.00367301 -0.01099138 -0.02500000
v -0.00000000 -0.00880925 -0.02500000
v -0.01744284 0.00284569 -0.02500000
v -0.02082979 0.00421906 -0.02500000
v -0.02100528 0.00608544 -0.02500000
v 0.01182560 0.02788253 -0.02500000
v 0.01771821 0.02203609 -0.02500000
v 0.01335018 0.02342093 -0.02500000
v 0.01744284 0.01729581 -0.02500000
v -0.02067613 0.00390731 -0.02500000
v -0.01771821 0.02203609 -0.02500000
v -0.01335018 0.02342093 -0.02500000
v -0.01744284 0.01729581 -0.02500000
v -0.01182560 0.02788253 -0.02500000
v -0.00722506 0.02751360 -0.02500000
v -0.00415041 0.03104403 -0.02500000
v -0.00000000 0.02895075 -0.02500000
v -0.00377842 -0.01097273 -0.02500000
v -0.01077088 -0.00839794 -0.02500000
v -0.00722506 -0.00737210 -0.02500000
v -0.01645502 -0.00357977 -0.02500000
v -0.02003395 0.00260447 -0.02500000
v -0.02093999 0.01438600 -0.02500000
v -0.01888000 0.01007075 -0.02500000
v 0.00415041 0.03104403 -0.02500000
v 0.00722506 0.02751360 -0.02500000
v -0.01335018 -0.00327943 -0.02500000
v 0.02094446 0.00543862 0.01046070
v 0.01833893 -0.02227220 0.03019793
v 0.01776582 -0.02836743 -0.00046070
v 0.02100528 0.00608544 0.01013026
v 0.02050122 0.00072463 -0.02168772
v 0.02082315 0.00414850 -0.02500000
v 0.02031476 -0.00125845 -0.01976926
v 0.02041078 -0.00023725 -0.02075719
v 0.01770500 -0.02901425 -0.00013026
v 0.01816997 -0.02406913 0.03197260
v 0.01788175 -0.02713449 0.03500000
v 0.02100528 0.00608544 -0.02500000
v 0.01770500 -0.02901425 0.03500000
v -0.01768710 -0.02981021 0.00000000
v -0.01770414 -0.02905257 -0.00012325
v -0.01297921 -0.02860734 -0.00011732
v -0.01770500 -0.02901425 -0.00012948
v -0.01776571 -0.02836853 -0.00045828
v -0.01372623 -0.02798872 -0.00045828
v -0.01318566 -0.02843637 -0.00021155
v -0.01215481 -0.02929003 0.00000000
v -0.02094446 0.00543862 0.01046070
v -0.02031444 -0.00126186 -0.01969665
v -0.01776571 -0.02836853 -0.00045828
v -0.01833893 -0.02227220 0.03019793
v -0.02100528 0.00608544 0.01013026
v -0.02050118 0.00072416 -0.02161833
v -0.02040978 -0.00024788 -0.02067778
v -0.02100528 0.00608544 -0.02500000
v -0.02082979 0.00421906 -0.02500000
v -0.01770500 -0.02901425 -0.00012948
v -0.01770500 -0.02901425 0.03500000
v -0.01788175 -0.02713449 0.03500000
v -0.01816997 -0.02406913 0.03197260
v -0.01635729 -0.03578966 0.03500000
v -0.01770500 -0.02901425 0.03500000
v -0.01768710 -0.02981021 0.00000000
v -0.01770500 -0.02901425 -0.00012948
v -0.01770414 -0.02905257 -0.00012325
v -0.01251933 -0.04153357 0.00000000
v -0.01251933 -0.04153357 0.03500000
v -0.00677541 -0.04537154 0.00000000
v -0.00677541 -0.04537154 0.03500000
v 0.00000000 -0.04671925 0.00000000
v 0.00000000 -0.04671925 0.03500000
v 0.00677541 -0.04537154 0.00000000
v 0.00677541 -0.04537154 0.03500000
v 0.01251933 -0.04153357 0.00000000
v 0.01251933 -0.04153357 0.03500000
v 0.01635729 -0.03578966 0.00000000
v 0.01635729 -0.03578966 0.03500000
v 0.01770500 -0.02901425 0.03500000
v 0.01768699 -0.02981252 0.00000000
v 0.01770413 -0.02905290 -0.00012395
v 0.01770500 -0.02901425 -0.00013026
v -0.01635729 -0.03578966 0.00000000
v -0.00888356 -0.03269394 0.00000000
v -0.00961550 -0.02901425 0.00000000
v -0.00961550 -0.02901425 0.01000000
v -0.00679919 -0.03581344 0.00000000
v -0.00888356 -0.03269394 0.01000000
v -0.00367969 -0.03789781 0.00000000
v -0.00679919 -0.03581344 0.01000000
v 0.00000000 -0.03862975 0.00000000
v -0.00367969 -0.03789781 0.01000000
v 0.00367969 -0.03789781 0.00000000
v 0.00000000 -0.03862975 0.01000000
v 0.00679919 -0.03581344 0.00000000
v 0.00367969 -0.03789781 0.01000000
v 0.00888356 -0.03269394 0.00000000
v 0.00679919 -0.03581344 0.01000000
v 0.00961550 -0.02901425 0.00000000
v 0.00888356 -0.03269394 0.01000000
v 0.00888356 -0.02533456 0.00000000
v 0.00961550 -0.02901425 0.01000000
v 0.00679919 -0.02221506 0.00000000
v 0.00888356 -0.02533456 0.01000000
v 0.00367969 -0.02013069 0.00000000
v 0.00679919 -0.02221506 0.01000000
v 0.00000000 -0.01939875 0.00000000
v 0.00367969 -0.02013069 0.01000000
v -0.00367969 -0.02013069 0.00000000
v 0.00000000 -0.01939875 0.01000000
v -0.00679919 -0.02221506 0.00000000
v -0.00367969 -0.02013069 0.01000000
v -0.00888356 -0.02533456 0.00000000
v -0.00679919 -0.02221506 0.01000000
v -0.00888356 -0.02533456 0.01000000
v 0.00000000 -0.01640925 0.01000000
v 0.00000000 -0.01939875 0.01000000
v 0.00367969 -0.02013069 0.01000000
v -0.00482372 -0.01736875 0.01000000
v -0.00367969 -0.02013069 0.01000000
v 0.00891308 -0.02010117 0.01000000
v 0.00482372 -0.01736875 0.01000000
v -0.00891308 -0.02010117 0.01000000
v -0.00679919 -0.02221506 0.01000000
v -0.01164550 -0.02419052 0.01000000
v -0.00888356 -0.02533456 0.01000000
v -0.01260500 -0.02901425 0.01000000
v -0.00961550 -0.02901425 0.01000000
v -0.01164550 -0.03383797 0.01000000
v -0.00888356 -0.03269394 0.01000000
v 0.01164550 -0.02419052 0.01000000
v 0.00888356 -0.02533456 0.01000000
v 0.00961550 -0.02901425 0.01000000
v 0.00679919 -0.02221506 0.01000000
v 0.00000000 -0.04161925 0.01000000
v 0.00000000 -0.03862975 0.01000000
v -0.00367969 -0.03789781 0.01000000
v 0.00482372 -0.04065975 0.01000000
v 0.00367969 -0.03789781 0.01000000
v -0.00891308 -0.03792733 0.01000000
v -0.00679919 -0.03581344 0.01000000
v -0.00482372 -0.04065975 0.01000000
v 0.00891308 -0.03792733 0.01000000
v 0.00679919 -0.03581344 0.01000000
v 0.01164550 -0.03383797 0.01000000
v 0.00888356 -0.03269394 0.01000000
v 0.01260500 -0.02901425 0.01000000
v -0.01164550 -0.03383797 0.01000000
v -0.01260500 -0.02901425 0.01000000
v -0.01260500 -0.02901425 0.03250000
v -0.00891308 -0.03792733 0.01000000
v -0.01164550 -0.03383797 0.03250000
v -0.00482372 -0.04065975 0.01000000
v -0.00891308 -0.03792733 0.03250000
v 0.00000000 -0.04161925 0.01000000
v -0.00482372 -0.04065975 0.03250000
v 0.00482372 -0.04065975 0.01000000
v -0.00000000 -0.04161925 0.03250000
v 0.00891308 -0.03792733 0.01000000
v 0.00482372 -0.04065975 0.03250000
v 0.01164550 -0.03383797 0.01000000
v 0.00891308 -0.03792733 0.03250000
v 0.01260500 -0.02901425 0.01000000
v 0.01164550 -0.03383797 0.03250000
v 0.01164550 -0.02419052 0.01000000
v 0.01260500 -0.02901425 0.03250000
v 0.00891308 -0.02010117 0.01000000
v 0.01164550 -0.02419052 0.03250000
v 0.00482372 -0.01736875 0.01000000
v 0.00891308 -0.02010117 0.03250000
v 0.00000000 -0.01640925 0.01000000
v 0.00482372 -0.01736875 0.03250000
v -0.00482372 -0.01736875 0.01000000
v 0.00000000 -0.01640925 0.03250000
v -0.00891308 -0.02010117 0.01000000
v -0.00482372 -0.01736875 0.03250000
v -0.01164550 -0.02419052 0.01000000
v -0.00891308 -0.02010117 0.03250000
v -0.01164550 -0.02419052 0.03250000
v 0.01414829 -0.02901425 0.03480970
v 0.01510500 -0.02901425 0.03500000
v 0.01395520 -0.02323382 0.03500000
v 0.01307132 -0.02359993 0.03480970
v 0.01068085 -0.01833340 0.03500000
v 0.01000435 -0.01900990 0.03480970
v 0.00578043 -0.01505905 0.03500000
v 0.00541432 -0.01594293 0.03480970
v 0.00000000 -0.01390925 0.03500000
v -0.00000000 -0.01486596 0.03480970
v -0.00578043 -0.01505905 0.03500000
v -0.00541432 -0.01594293 0.03480970
v -0.01068085 -0.01833340 0.03500000
v -0.01000435 -0.01900990 0.03480970
v -0.01395520 -0.02323382 0.03500000
v -0.01307132 -0.02359993 0.03480970
v -0.01510500 -0.02901425 0.03500000
v -0.01414829 -0.02901425 0.03480970
v -0.01395520 -0.03479468 0.03500000
v -0.01307132 -0.03442857 0.03480970
v -0.01068085 -0.03969510 0.03500000
v -0.01000435 -0.03901860 0.03480970
v -0.00578043 -0.04296945 0.03500000
v -0.00541432 -0.04208557 0.03480970
v -0.00000000 -0.04411925 0.03500000
v 0.00000000 -0.04316254 0.03480970
v 0.00578043 -0.04296945 0.03500000
v 0.00541432 -0.04208557 0.03480970
v 0.01068085 -0.03969510 0.03500000
v 0.01000435 -0.03901860 0.03480970
v 0.01395520 -0.03479468 0.03500000
v 0.01307132 -0.03442857 0.03480970
v 0.01333723 -0.02901425 0.03426777
v 0.01232200 -0.02391031 0.03426777
v 0.00943085 -0.01958340 0.03426777
v 0.00510394 -0.01669225 0.03426777
v -0.00000000 -0.01567702 0.03426777
v -0.00510394 -0.01669225 0.03426777
v -0.00943085 -0.01958340 0.03426777
v -0.01232200 -0.02391031 0.03426777
v -0.01333723 -0.02901425 0.03426777
v -0.01232200 -0.03411819 0.03426777
v -0.00943085 -0.03844510 0.03426777
v -0.00510394 -0.04133625 0.03426777
v 0.00000000 -0.04235148 0.03426777
v 0.00510394 -0.04133625 0.03426777
v 0.00943085 -0.03844510 0.03426777
v 0.01232200 -0.03411819 0.03426777
v 0.01279530 -0.02901425 0.03345671
v 0.01182132 -0.02411770 0.03345671
v 0.00904764 -0.01996661 0.03345671
v 0.00489655 -0.01719293 0.03345671
v -0.00000000 -0.01621895 0.03345671
v -0.00489655 -0.01719293 0.03345671
v -0.00904764 -0.01996661 0.03345671
v -0.01182132 -0.02411770 0.03345671
v -0.01279530 -0.02901425 0.03345671
v -0.01182132 -0.03391080 0.03345671
v -0.00904764 -0.03806189 0.03345671
v -0.00489655 -0.04083557 0.03345671
v 0.00000000 -0.04180955 0.03345671
v 0.00489655 -0.04083557 0.03345671
v 0.00904764 -0.03806189 0.03345671
v 0.01182132 -0.03391080 0.03345671
v 0.01260500 -0.02901425 0.03250000
v 0.01164550 -0.02419052 0.03250000
v 0.00891308 -0.02010117 0.03250000
v 0.00482372 -0.01736875 0.03250000
v 0.00000000 -0.01640925 0.03250000
v -0.00482372 -0.01736875 0.03250000
v -0.00891308 -0.02010117 0.03250000
v -0.01164550 -0.02419052 0.03250000
v -0.01260500 -0.02901425 0.03250000
v -0.01164550 -0.03383797 0.03250000
v -0.00891308 -0.03792733 0.03250000
v -0.00482372 -0.04065975 0.03250000
v -0.00000000 -0.04161925 0.03250000
v 0.00482372 -0.04065975 0.03250000
v 0.00891308 -0.03792733 0.03250000
v 0.01164550 -0.03383797 0.03250000
v 0.01476345 -0.01924146 0.03500000
v 0.00987443 -0.01431858 0.03500000
v 0.01068085 -0.01833340 0.03500000
v -0.01476345 -0.01924146 0.03500000
v -0.01395520 -0.02323382 0.03500000
v -0.01068085 -0.01833340 0.03500000
v 0.01510500 -0.02901425 0.03500000
v 0.01775534 -0.02673407 0.03500000
v 0.01732819 -0.02538095 0.03500000
v 0.01770500 -0.02901425 0.03500000
v 0.01788175 -0.02713449 0.03500000
v 0.01395520 -0.02323382 0.03500000
v 0.00346905 -0.01165243 0.03500000
v 0.00578043 -0.01505905 0.03500000
v -0.00346905 -0.01165243 0.03500000
v 0.00000000 -0.01390925 0.03500000
v -0.00987443 -0.01431858 0.03500000
v -0.00578043 -0.01505905 0.03500000
v -0.01510500 -0.02901425 0.03500000
v -0.01775534 -0.02673407 0.03500000
v -0.01788175 -0.02713449 0.03500000
v -0.01732819 -0.02538095 0.03500000
v -0.01770500 -0.02901425 0.03500000
v -0.01635729 -0.03578966 0.03500000
v -0.01395520 -0.03479468 0.03500000
v -0.01251933 -0.04153357 0.03500000
v -0.01068085 -0.03969510 0.03500000
v -0.00677541 -0.04537154 0.03500000
v -0.00578043 -0.04296945 0.03500000
v 0.00000000 -0.04671925 0.03500000
v -0.00000000 -0.04411925 0.03500000
v 0.00677541 -0.04537154 0.03500000
v 0.00578043 -0.04296945 0.03500000
v 0.01251933 -0.04153357 0.03500000
v 0.01635729 -0.03578966 0.03500000
v 0.01395520 -0.03479468 0.03500000
v 0.01068085 -0.03969510 0.03500000
v 0.01268650 -0.01639192 0.01250000
v 0.01191211 -0.01591581 0.02777408
v 0.01246407 -0.01623502 0.02735095
v 0.01190573 -0.01591003 0.01250000
v 0.01190573 -0.01591003 0.02778000
v 0.01358224 -0.01655967 0.02665459
v 0.01358838 -0.01655865 0.02665216
v 0.01281329 -0.01643698 0.02708323
v 0.01269841 -0.01637055 0.02717130
v 0.01358854 -0.01655967 0.01250000
v 0.01440299 -0.01642271 0.02632938
v 0.01449035 -0.01639071 0.02630099
v 0.01372843 -0.01653527 0.02659666
v 0.01449035 -0.01639071 0.01250000
v 0.01527047 -0.01590777 0.02590824
v 0.01527047 -0.01590777 0.01250000
v 0.01582382 -0.01517591 0.02535480
v 0.01582382 -0.01517591 0.01250000
v 0.01607588 -0.01429371 0.02471522
v 0.01607588 -0.01429371 0.01250000
v 0.01758269 -0.02234231 0.03045382
v 0.01831354 -0.02221512 0.03015932
v 0.01440299 -0.01642271 0.02632938
v 0.01694013 -0.02230978 0.03092618
v 0.01372843 -0.01653527 0.02659666
v 0.01358838 -0.01655865 0.02665216
v 0.01358224 -0.01655967 0.02665459
v 0.01645136 -0.02212084 0.03152823
v 0.01281329 -0.01643698 0.02708323
v 0.01269841 -0.01637055 0.02717130
v 0.01246407 -0.01623502 0.02735095
v 0.01191211 -0.01591581 0.02777408
v 0.01447016 -0.01945212 0.03043961
v 0.01616620 -0.02179476 0.03219861
v 0.01732819 -0.02538095 0.03500000
v 0.01775534 -0.02673407 0.03500000
v 0.01788175 -0.02713449 0.03500000
v 0.01816997 -0.02406913 0.03197260
v 0.01833893 -0.02227220 0.03019793
v 0.01190573 -0.01591003 0.02778000
v 0.02094446 0.00543862 0.01046070
v 0.01768842 0.00285631 0.01250000
v 0.01607588 -0.01429371 0.02471522
v 0.01762526 0.00421733 0.01154329
v 0.01833893 -0.02227220 0.03019793
v 0.01690838 0.00581811 0.01046070
v 0.01719277 0.00540678 0.01073223
v 0.01582382 -0.01517591 0.02535480
v 0.01527047 -0.01590777 0.02590824
v 0.01831354 -0.02221512 0.03015932
v 0.01449035 -0.01639071 0.02630099
v 0.01440299 -0.01642271 0.02632938
v -0.00987443 -0.01431858 0.03500000
v -0.00346905 -0.01165243 0.03500000
v -0.00638188 -0.01249945 0.01250000
v -0.00341430 -0.01194601 0.01250000
v 0.00346905 -0.01165243 0.03500000
v 0.00000000 -0.01130925 0.01250000
v 0.00341430 -0.01194601 0.01250000
v 0.00987443 -0.01431858 0.03500000
v 0.00972367 -0.01456276 0.01250000
v 0.00638188 -0.01249945 0.01250000
v -0.01190573 -0.01591003 0.02778000
v -0.01447016 -0.01945212 0.03043961
v -0.00972367 -0.01456276 0.01250000
v -0.01190573 -0.01591003 0.01250000
v -0.01476345 -0.01924146 0.03500000
v -0.01616620 -0.02179476 0.03219861
v 0.01476345 -0.01924146 0.03500000
v 0.01732819 -0.02538095 0.03500000
v 0.01616620 -0.02179476 0.03219861
v 0.01190573 -0.01591003 0.02778000
v 0.01447016 -0.01945212 0.03043961
v 0.01190573 -0.01591003 0.01250000
v -0.01732819 -0.02538095 0.03500000
v 0.01453936 -0.01414923 0.01019030
v 0.01444291 -0.01448684 0.01019030
v 0.01516863 -0.01484897 0.01073223
v 0.01423115 -0.01476691 0.01019030
v 0.01477735 -0.01536647 0.01073223
v 0.01393261 -0.01495172 0.01019030
v 0.01422572 -0.01570796 0.01073223
v 0.01358750 -0.01501638 0.01019030
v 0.01358805 -0.01582744 0.01073223
v 0.01324231 -0.01495219 0.01019030
v 0.01295021 -0.01570882 0.01073223
v 0.01294352 -0.01476778 0.01019030
v 0.01239812 -0.01536807 0.01073223
v 0.01534686 -0.01422516 0.01073223
v 0.01565355 -0.01509094 0.01154329
v 0.01514231 -0.01576709 0.01154329
v 0.01442158 -0.01621327 0.01154329
v 0.01358841 -0.01636937 0.01154329
v 0.01275504 -0.01621439 0.01154329
v 0.01203370 -0.01576918 0.01154329
v 0.01588641 -0.01427589 0.01154329
v 0.01582382 -0.01517591 0.01250000
v 0.01527047 -0.01590777 0.01250000
v 0.01449035 -0.01639071 0.01250000
v 0.01358854 -0.01655967 0.01250000
v 0.01268650 -0.01639192 0.01250000
v 0.01190573 -0.01591003 0.01250000
v 0.01607588 -0.01429371 0.01250000
v 0.01358686 -0.01405967 0.01000000
v 0.01607588 -0.01429371 0.01250000
v 0.01607588 -0.01429371 0.02471522
v 0.01768842 0.00285631 0.01250000
v 0.01358686 -0.01405967 0.01000000
v 0.01453936 -0.01414923 0.01019030
v 0.01645765 0.00636241 0.01021149
v 0.01628848 0.00656668 0.01011796
v 0.01588641 -0.01427589 0.01154329
v 0.01607588 -0.01429371 0.01250000
v 0.01768842 0.00285631 0.01250000
v 0.01534686 -0.01422516 0.01073223
v 0.01762526 0.00421733 0.01154329
v 0.01719277 0.00540678 0.01073223
v 0.01690838 0.00581811 0.01046070
v 0.01560399 0.00739326 0.01000000
v 0.01358686 -0.01405967 0.01000000
v 0.00728302 -0.01016751 0.01000000
v 0.00693817 -0.01105990 0.01019030
v 0.00000000 -0.00880925 0.01000000
v 0.00000000 -0.00976596 0.01019030
v -0.00728302 -0.01016751 0.01000000
v -0.00693817 -0.01105990 0.01019030
v -0.01358686 -0.01405967 0.01000000
v -0.01294352 -0.01476778 0.01019030
v 0.01294352 -0.01476778 0.01019030
v 0.00664582 -0.01181644 0.01073223
v 0.00000000 -0.01057702 0.01073223
v -0.00664582 -0.01181644 0.01073223
v -0.01239812 -0.01536807 0.01073223
v 0.01239812 -0.01536807 0.01073223
v 0.00645048 -0.01232194 0.01154329
v 0.00000000 -0.01111895 0.01154329
v -0.00645048 -0.01232194 0.01154329
v -0.01203370 -0.01576918 0.01154329
v 0.00638188 -0.01249945 0.01250000
v 0.00972367 -0.01456276 0.01250000
v 0.01203370 -0.01576918 0.01154329
v 0.00000000 -0.01130925 0.01250000
v 0.00341430 -0.01194601 0.01250000
v -0.00341430 -0.01194601 0.01250000
v -0.00638188 -0.01249945 0.01250000
v -0.00972367 -0.01456276 0.01250000
v -0.01190573 -0.01591003 0.01250000
v 0.01190573 -0.01591003 0.01250000
v -0.01645136 -0.02212084 0.03152823
v -0.01775534 -0.02673407 0.03500000
v -0.01732819 -0.02538095 0.03500000
v -0.01191211 -0.01591581 0.02777408
v -0.01447016 -0.01945212 0.03043961
v -0.01616620 -0.02179476 0.03219861
v -0.01190573 -0.01591003 0.02778000
v -0.01269841 -0.01637055 0.02717130
v -0.01281329 -0.01643698 0.02708323
v -0.01246407 -0.01623502 0.02735095
v -0.01694013 -0.02230978 0.03092618
v -0.01358224 -0.01655967 0.02665459
v -0.01358838 -0.01655865 0.02665216
v -0.01758269 -0.02234231 0.03045382
v -0.01372843 -0.01653527 0.02659666
v -0.01440299 -0.01642271 0.02632938
v -0.01831354 -0.02221512 0.03015932
v -0.01833893 -0.02227220 0.03019793
v -0.01816997 -0.02406913 0.03197260
v -0.01788175 -0.02713449 0.03500000
v -0.01268650 -0.01639192 0.01250000
v -0.01358854 -0.01655967 0.01250000
v -0.01358838 -0.01655865 0.02665216
v -0.01358224 -0.01655967 0.02665459
v -0.01281329 -0.01643698 0.02708323
v -0.01190573 -0.01591003 0.01250000
v -0.01269841 -0.01637055 0.02717130
v -0.01246407 -0.01623502 0.02735095
v -0.01191211 -0.01591581 0.02777408
v -0.01582382 -0.01517591 0.01250000
v -0.01607588 -0.01429371 0.01250000
v -0.01607588 -0.01429371 0.02471522
v -0.01527047 -0.01590777 0.01250000
v -0.01582382 -0.01517591 0.02535480
v -0.01449035 -0.01639071 0.01250000
v -0.01527047 -0.01590777 0.02590824
v -0.01440299 -0.01642271 0.02632938
v -0.01372843 -0.01653527 0.02659666
v -0.01449035 -0.01639071 0.02630099
v -0.01190573 -0.01591003 0.02778000
v -0.02094446 0.00543862 0.01046070
v -0.01833893 -0.02227220 0.03019793
v -0.01607588 -0.01429371 0.02471522
v -0.01768842 0.00285631 0.01250000
v -0.01762526 0.00421733 0.01154329
v -0.01719277 0.00540678 0.01073223
v -0.01582382 -0.01517591 0.02535480
v -0.01831354 -0.02221512 0.03015932
v -0.01527047 -0.01590777 0.02590824
v -0.01440299 -0.01642271 0.02632938
v -0.01449035 -0.01639071 0.02630099
v -0.01690838 0.00581811 0.01046070
v -0.01294352 -0.01476778 0.01019030
v -0.01324231 -0.01495219 0.01019030
v -0.01295021 -0.01570882 0.01073223
v -0.01358750 -0.01501638 0.01019030
v -0.01358805 -0.01582744 0.01073223
v -0.01393261 -0.01495172 0.01019030
v -0.01422572 -0.01570796 0.01073223
v -0.01423115 -0.01476691 0.01019030
v -0.01477735 -0.01536647 0.01073223
v -0.01444291 -0.01448684 0.01019030
v -0.01516863 -0.01484897 0.01073223
v -0.01453936 -0.01414923 0.01019030
v -0.01534686 -0.01422516 0.01073223
v -0.01239812 -0.01536807 0.01073223
v -0.01275504 -0.01621439 0.01154329
v -0.01358841 -0.01636937 0.01154329
v -0.01442158 -0.01621327 0.01154329
v -0.01514231 -0.01576709 0.01154329
v -0.01565355 -0.01509094 0.01154329
v -0.01588641 -0.01427589 0.01154329
v -0.01203370 -0.01576918 0.01154329
v -0.01268650 -0.01639192 0.01250000
v -0.01358854 -0.01655967 0.01250000
v -0.01449035 -0.01639071 0.01250000
v -0.01527047 -0.01590777 0.01250000
v -0.01582382 -0.01517591 0.01250000
v -0.01607588 -0.01429371 0.01250000
v -0.01190573 -0.01591003 0.01250000
v -0.01358686 -0.01405967 0.01000000
v -0.01607588 -0.01429371 0.02471522
v -0.01607588 -0.01429371 0.01250000
v -0.01768842 0.00285631 0.01250000
v -0.01534686 -0.01422516 0.01073223
v -0.01719277 0.00540678 0.01073223
v -0.01762526 0.00421733 0.01154329
v -0.01588641 -0.01427589 0.01154329
v -0.01768842 0.00285631 0.01250000
v -0.01358686 -0.01405967 0.01000000
v -0.01628226 0.00657419 0.01014958
v -0.01646693 0.00635119 0.01019030
v -0.01560399 0.00739326 0.01000000
v -0.01453936 -0.01414923 0.01019030
v -0.01690838 0.00581811 0.01046070
v -0.01607588 -0.01429371 0.01250000
v 0.02113947 0.00687278 0.01000000
v 0.01560399 0.00739326 0.01000000
v 0.01628848 0.00656668 0.01011796
v 0.02100528 0.00608544 0.01013026
v 0.01645765 0.00636241 0.01021149
v 0.01690838 0.00581811 0.01046070
v 0.02094446 0.00543862 0.01046070
v 0.02101178 0.00612356 0.01012395
v -0.02113947 0.00687278 0.01000000
v -0.02101178 0.00612356 0.01012395
v -0.01628226 0.00657419 0.01014958
v -0.02100528 0.00608544 0.01013026
v -0.02094446 0.00543862 0.01046070
v -0.01690838 0.00581811 0.01046070
v -0.01646693 0.00635119 0.01019030
v -0.01560399 0.00739326 0.01000000
v -0.02093999 0.01438600 -0.02500000
v -0.02100528 0.00608544 -0.02500000
v -0.02113947 0.00687278 0.01000000
v -0.02100528 0.00608544 0.01013026
v -0.02101178 0.00612356 0.01012395
v -0.02093999 0.01438600 0.01000000
v -0.01771821 0.02203609 0.01000000
v -0.01771821 0.02203609 -0.02500000
v -0.01182560 0.02788253 0.01000000
v -0.01182560 0.02788253 -0.02500000
v -0.00415041 0.03104403 0.01000000
v -0.00415041 0.03104403 -0.02500000
v 0.00415041 0.03104403 0.01000000
v 0.00415041 0.03104403 -0.02500000
v 0.01182560 0.02788253 0.01000000
v 0.01182560 0.02788253 -0.02500000
v 0.01771821 0.02203609 0.01000000
v 0.01771821 0.02203609 -0.02500000
v 0.02093999 0.01438600 0.01000000
v 0.02100528 0.00608544 -0.02500000
v 0.02113947 0.00687278 0.01000000
v 0.02101178 0.00612356 0.01012395
v 0.02093999 0.01438600 -0.02500000
v 0.02100528 0.00608544 0.01013026
v -0.01560399 0.00739326 0.01000000
v -0.00749266 0.01317431 0.01000000
v -0.00573464 0.01580539 0.01000000
v 0.01771821 0.02203609 0.01000000
v 0.00573464 0.01580539 0.01000000
v 0.00749266 0.01317431 0.01000000
v 0.01182560 0.02788253 0.01000000
v 0.00310356 0.01756341 0.01000000
v 0.00415041 0.03104403 0.01000000
v 0.00000000 0.01818075 0.01000000
v -0.00811000 0.01007075 0.01000000
v -0.01358686 -0.01405967 0.01000000
v -0.00573464 0.00433611 0.01000000
v -0.00749266 0.00696719 0.01000000
v -0.00728302 -0.01016751 0.01000000
v 0.00728302 -0.01016751 0.01000000
v 0.00310356 0.00257809 0.01000000
v 0.00000000 0.00196075 0.01000000
v 0.00573464 0.00433611 0.01000000
v 0.02093999 0.01438600 0.01000000
v 0.00811000 0.01007075 0.01000000
v -0.00310356 0.01756341 0.01000000
v -0.00310356 0.00257809 0.01000000
v 0.00000000 -0.00880925 0.01000000
v 0.01358686 -0.01405967 0.01000000
v -0.00415041 0.03104403 0.01000000
v -0.01182560 0.02788253 0.01000000
v 0.01560399 0.00739326 0.01000000
v 0.00749266 0.00696719 0.01000000
v -0.01771821 0.02203609 0.01000000
v -0.02093999 0.01438600 0.01000000
v -0.02113947 0.00687278 0.01000000
v 0.02113947 0.00687278 0.01000000
v -0.01792329 0.01007075 -0.02480970
v -0.01888000 0.01007075 -0.02500000
v -0.01744284 0.01729581 -0.02500000
v -0.01655896 0.01692970 -0.02480970
v -0.01335018 0.02342093 -0.02500000
v -0.01267368 0.02274443 -0.02480970
v -0.00722506 0.02751360 -0.02500000
v -0.00685895 0.02662971 -0.02480970
v -0.00000000 0.02895075 -0.02500000
v -0.00000000 0.02799404 -0.02480970
v 0.00722506 0.02751360 -0.02500000
v 0.00685895 0.02662971 -0.02480970
v 0.01335018 0.02342093 -0.02500000
v 0.01267368 0.02274443 -0.02480970
v 0.01744284 0.01729581 -0.02500000
v 0.01655896 0.01692970 -0.02480970
v 0.01888000 0.01007075 -0.02500000
v 0.01792329 0.01007075 -0.02480970
v 0.01744284 0.00284569 -0.02500000
v 0.01655896 0.00321180 -0.02480970
v 0.01335018 -0.00327943 -0.02500000
v 0.01267368 -0.00260293 -0.02480970
v 0.00722506 -0.00737210 -0.02500000
v 0.00685895 -0.00648821 -0.02480970
v -0.00000000 -0.00880925 -0.02500000
v -0.00000000 -0.00785254 -0.02480970
v -0.00722506 -0.00737210 -0.02500000
v -0.00685895 -0.00648821 -0.02480970
v -0.01335018 -0.00327943 -0.02500000
v -0.01267368 -0.00260293 -0.02480970
v -0.01744284 0.00284569 -0.02500000
v -0.01655896 0.00321180 -0.02480970
v -0.01711223 0.01007075 -0.02426777
v -0.01580964 0.01661932 -0.02426777
v -0.01210018 0.02217093 -0.02426777
v -0.00654857 0.02588039 -0.02426777
v -0.00000000 0.02718298 -0.02426777
v 0.00654857 0.02588039 -0.02426777
v 0.01210018 0.02217093 -0.02426777
v 0.01580964 0.01661932 -0.02426777
v 0.01711223 0.01007075 -0.02426777
v 0.01580964 0.00352218 -0.02426777
v 0.01210018 -0.00202943 -0.02426777
v 0.00654857 -0.00573889 -0.02426777
v -0.00000000 -0.00704148 -0.02426777
v -0.00654857 -0.00573889 -0.02426777
v -0.01210018 -0.00202943 -0.02426777
v -0.01580964 0.00352218 -0.02426777
v -0.01657030 0.01007075 -0.02345671
v -0.01530896 0.01641193 -0.02345671
v -0.01171697 0.02178772 -0.02345671
v -0.00634118 0.02537971 -0.02345671
v -0.00000000 0.02664105 -0.02345671
v 0.00634118 0.02537971 -0.02345671
v 0.01171697 0.02178772 -0.02345671
v 0.01530896 0.01641193 -0.02345671
v 0.01657030 0.01007075 -0.02345671
v 0.01530896 0.00372957 -0.02345671
v 0.01171697 -0.00164622 -0.02345671
v 0.00634118 -0.00523821 -0.02345671
v -0.00000000 -0.00649955 -0.02345671
v -0.00634118 -0.00523821 -0.02345671
v -0.01171697 -0.00164622 -0.02345671
v -0.01530896 0.00372957 -0.02345671
v -0.01638000 0.01007075 -0.02250000
v -0.01513315 0.01633910 -0.02250000
v -0.01158241 0.02165316 -0.02250000
v -0.00626835 0.02520390 -0.02250000
v -0.00000000 0.02645075 -0.02250000
v 0.00626835 0.02520390 -0.02250000
v 0.01158241 0.02165316 -0.02250000
v 0.01513315 0.01633910 -0.02250000
v 0.01638000 0.01007075 -0.02250000
v 0.01513315 0.00380240 -0.02250000
v 0.01158241 -0.00151166 -0.02250000
v 0.00626835 -0.00506240 -0.02250000
v -0.00000000 -0.00630925 -0.02250000
v -0.00626835 -0.00506240 -0.02250000
v -0.01158241 -0.00151166 -0.02250000
v -0.01513315 0.00380240 -0.02250000
v 0.01513315 0.00380240 0.00000000
v 0.01638000 0.01007075 0.00000000
v 0.01638000 0.01007075 -0.02250000
v 0.01158241 -0.00151166 0.00000000
v 0.01513315 0.00380240 -0.02250000
v 0.00626835 -0.00506240 0.00000000
v 0.01158241 -0.00151166 -0.02250000
v -0.00000000 -0.00630925 0.00000000
v 0.00626835 -0.00506240 -0.02250000
v -0.00626835 -0.00506240 0.00000000
v -0.00000000 -0.00630925 -0.02250000
v -0.01158241 -0.00151166 0.00000000
v -0.00626835 -0.00506240 -0.02250000
v -0.01513315 0.00380240 0.00000000
v -0.01158241 -0.00151166 -0.02250000
v -0.01638000 0.01007075 0.00000000
v -0.01513315 0.00380240 -0.02250000
v -0.01513315 0.01633910 0.00000000
v -0.01638000 0.01007075 -0.02250000
v -0.01158241 0.02165316 0.00000000
v -0.01513315 0.01633910 -0.02250000
v -0.00626835 0.02520390 0.00000000
v -0.01158241 0.02165316 -0.02250000
v -0.00000000 0.02645075 0.00000000
v -0.00626835 0.02520390 -0.02250000
v 0.00626835 0.02520390 0.00000000
v -0.00000000 0.02645075 -0.02250000
v 0.01158241 0.02165316 0.00000000
v 0.00626835 0.02520390 -0.02250000
v 0.01513315 0.01633910 0.00000000
v 0.01158241 0.02165316 -0.02250000
v 0.01513315 0.01633910 -0.02250000
v -0.00749266 0.00696719 0.00000000
v -0.00811000 0.01007075 0.00000000
v -0.00811000 0.01007075 0.01000000
v -0.00573464 0.00433611 0.00000000
v -0.00749266 0.00696719 0.01000000
v -0.00310356 0.00257809 0.00000000
v -0.00573464 0.00433611 0.01000000
v 0.00000000 0.00196075 0.00000000
v -0.00310356 0.00257809 0.01000000
v 0.00310356 0.00257809 0.00000000
v 0.00000000 0.00196075 0.01000000
v 0.00573464 0.00433611 0.00000000
v 0.00310356 0.00257809 0.01000000
v 0.00749266 0.00696719 0.00000000
v 0.00573464 0.00433611 0.01000000
v 0.00811000 0.01007075 0.00000000
v 0.00749266 0.00696719 0.01000000
v 0.00749266 0.01317431 0.00000000
v 0.00811000 0.01007075 0.01000000
v 0.00573464 0.01580539 0.00000000
v 0.00749266 0.01317431 0.01000000
v 0.00310356 0.01756341 0.00000000
v 0.00573464 0.01580539 0.01000000
v 0.00000000 0.01818075 0.00000000
v 0.00310356 0.01756341 0.01000000
v -0.00310356 0.01756341 0.00000000
v 0.00000000 0.01818075 0.01000000
v -0.00573464 0.01580539 0.00000000
v -0.00310356 0.01756341 0.01000000
v -0.00749266 0.01317431 0.00000000
v -0.00573464 0.01580539 0.01000000
v -0.00749266 0.01317431 0.01000000
v 0.01638000 0.01007075 0.00000000
v 0.00811000 0.01007075 0.00000000
v 0.00749266 0.01317431 0.00000000
v 0.01513315 0.00380240 0.00000000
v 0.00749266 0.00696719 0.00000000
v 0.01158241 -0.00151166 0.00000000
v 0.00626835 -0.00506240 0.00000000
v 0.00310356 0.00257809 0.00000000
v -0.00000000 -0.00630925 0.00000000
v 0.00000000 0.00196075 0.00000000
v -0.00626835 -0.00506240 0.00000000
v -0.01158241 -0.00151166 0.00000000
v -0.00573464 0.00433611 0.00000000
v -0.01513315 0.00380240 0.00000000
v -0.00749266 0.00696719 0.00000000
v -0.00000000 0.02645075 0.00000000
v 0.00000000 0.01818075 0.00000000
v -0.00310356 0.01756341 0.00000000
v 0.00626835 0.02520390 0.00000000
v 0.00310356 0.01756341 0.00000000
v 0.01158241 0.02165316 0.00000000
v 0.00573464 0.01580539 0.00000000
v 0.01513315 0.01633910 0.00000000
v 0.00573464 0.00433611 0.00000000
v -0.00310356 0.00257809 0.00000000
v -0.01638000 0.01007075 0.00000000
v -0.00811000 0.01007075 0.00000000
v -0.01513315 0.01633910 0.00000000
v -0.00749266 0.01317431 0.00000000
v -0.01158241 0.02165316 0.00000000
v -0.00573464 0.01580539 0.00000000
v -0.00626835 0.02520390 0.00000000
vt 0.50000000 0.50000000
vt 0.50000000 0.50000000
vt 0.50000000 0.50000000
vt 0.50000000 0.50000000
vt 0.50000000 0.50000000
vt 0.50000000 0.50000000
vt 0.50000000 0.50000000
vt 0.50000000 0.50000000
vt 0.50000000 0.50000000
vt 0.50000000 0.50000000
vt 0.50000000 0.50000000
vt 0.50000000 0.50000000
vt 0.50000000 0.50000000
vt 0.50000000 0.50000000
vt 0.50000000 0.50000000
vt 0.50000000 0.50000000
vt 0.50000000 0.50000000
vt 0.50000000 0.50000000
vt 0.50000000 0.50000000
vt 0.50000000 0.50000000
vt 0.50000000 0.50000000
vt 0.50000000 0.50000000
vt 0.50000000 0.50000000
vt 0.50000000 0.50000000
vt 0.50000000 0.50000000
vt 0.50000000 0.50000000
vt 0.50000000 0.50000000
vt 0.50000000 0.50000000
vt 0.50000000 0.50000000
vt 0.50000000 0.50000000
vt 0.50000000 0.50000000
vt 0.50000000 0.50000000
vt 0.50000000 0.50000000
vt 0.50000000 0.50000000
vt 0.50000000 0.50000000
vt 0.50000000 0.50000000
vt 0.50000000 0.50000000
vt 0.50000000 0.50000000
vt 0.50000000 0.50000000
vt 0.50000000 0.50000000
vt 0.50000000 0.50000000
vt 0.50000000 0.50000000
vt 0.50000000 0.50000000
vt 0.50000000 0.50000000
vt 0.50000000 0.50000000
vt 0.50000000 0.50000000
vt 0.50000000 0.50000000
vt 0.50000000 0.50000000
vt 0.50000000 0.50000000
vt 0.50000000 0.50000000
vt 0.50000000 0.50000000
vt 0.50000000 0.50000000
vt 0.50000000 0.50000000
vt 0.50000000 0.50000000
vt 0.50000000 0.50000000
vt 0.50000000 0.50000000
vt 0.50000000 0.50000000
vt 0.50000000 0.50000000
vt 0.50000000 0.50000000
vt 0.50000000 0.50000000
vt 0.50000000 0.50000000
vt 0.50000000 0.50000000
vt 0.50000000 0.50000000
vt 0.50000000 0.50000000
vt 0.50000000 0.50000000
vt 0.50000000 0.50000000
vt 0.50000000 0.50000000
vt 0.50000000 0.50000000
vt 0.50000000 0.50000000
vt 0.50000000 0.50000000
vt 0.50000000 0.50000000
vt 0.50000000 0.50000000
vt 0.50000000 0.50000000
vt 0.50000000 0.50000000
vt 0.50000000 0.50000000
vt 0.50000000 0.50000000
vt 0.50000000 0.50000000
vt 0.50000000 0.50000000
vt 0.50000000 0.50000000
vt 0.50000000 0.50000000
vt 0.50000000 0.50000000
vt 0.50000000 0.50000000
vt 0.50000000 0.50000000
vt 0.50000000 0.50000000
vt 0.50000000 0.50000000
vt 0.50000000 0.50000000
vt 0.50000000 0.50000000
vt 0.50000000 0.50000000
vt 0.50000000 0.50000000
vt 0.50000000 0.50000000
vt 0.50000000 0.50000000
vt 0.50000000 0.50000000
vt 0.50000000 0.50000000
vt 0.50000000 0.50000000
vt 0.50000000 0.50000000
vt 0.50000000 0.50000000
vt 0.50000000 0.50000000
vt 0.50000000 0.50000000
vt 0.50000000 0.50000000
vt 0.50000000 0.50000000
vt 0.50000000 0.50000000
vt 0.50000000 0.50000000
vt 0.50000000 0.50000000
vt 0.50000000 0.50000000
vt 0.50000000 0.50000000
vt 0.50000000 0.50000000
vt 0.50000000 0.50000000
vt 0.50000000 0.50000000
vt 0.50000000 0.50000000
vt 0.50000000 0.50000000
vt 0.50000000 0.50000000
vt 0.50000000 0.50000000
vt 0.50000000 0.50000000
vt 0.50000000 0.50000000
vt 0.50000000 0.50000000
vt 0.50000000 0.50000000
vt 0.50000000 0.50000000
vt 0.50000000 0.50000000
vt 0.50000000 0.50000000
vt 0.50000000 0.50000000
vt 0.50000000 0.50000000
vt 0.50000000 0.50000000
vt 0.50000000 0.50000000
vt 0.50000000 0.50000000
vt 0.50000000 0.50000000
vt 0.50000000 0.50000000
vt 0.50000000 0.50000000
vt 0.50000000 0.50000000
vt 0.50000000 0.50000000
vt 0.50000000 0.50000000
vt 0.50000000 0.50000000
vt 0.50000000 0.50000000
vt 0.50000000 0.50000000
vt 0.50000000 0.50000000
vt 0.50000000 0.50000000
vt 0.50000000 0.50000000
vt 0.50000000 0.50000000
vt 0.50000000 0.50000000
vt 0.50000000 0.50000000
vt 0.50000000 0.50000000
vt 0.50000000 0.50000000
vt 0.50000000 0.50000000
vt 0.50000000 0.50000000
vt 0.50000000 0.50000000
vt 0.50000000 0.50000000
vt 0.50000000 0.50000000
vt 0.50000000 0.50000000
vt 0.50000000 0.50000000
vt 0.50000000 0.50000000
vt 0.50000000 0.50000000
vt 0.50000000 0.50000000
vt 0.50000000 0.50000000
vt 0.50000000 0.50000000
vt 0.50000000 0.50000000
vt 0.50000000 0.50000000
vt 0.50000000 0.50000000
vt 0.50000000 0.50000000
vt 0.50000000 0.50000000
vt 0.50000000 0.50000000
vt 0.50000000 0.50000000
vt 0.50000000 0.50000000
vt 0.50000000 0.50000000
vt 0.50000000 0.50000000
vt 0.50000000 0.50000000
vt 0.50000000 0.50000000
vt 0.50000000 0.50000000
vt 0.50000000 0.50000000
vt 0.50000000 0.50000000
vt 0.50000000 0.50000000
vt 0.50000000 0.50000000
vt 0.50000000 0.50000000
vt 0.50000000 0.50000000
vt 0.50000000 0.50000000
vt 0.50000000 0.50000000
vt 0.50000000 0.50000000
vt 0.50000000 0.50000000
vt 0.50000000 0.50000000
vt 0.50000000 0.50000000
vt 0.50000000 0.50000000
vt 0.50000000 0.50000000
vt 0.50000000 0.50000000
vt 0.50000000 0.50000000
vt 0.50000000 0.50000000
vt 0.50000000 0.50000000
vt 0.50000000 0.50000000
vt 0.50000000 0.50000000
vt 0.50000000 0.50000000
vt 0.50000000 0.50000000
vt 0.50000000 0.50000000
vt 0.50000000 0.50000000
vt 0.50000000 0.50000000
vt 0.50000000 0.50000000
vt 0.50000000 0.50000000
vt 0.50000000 0.50000000
vt 0.50000000 0.50000000
vt 0.50000000 0.50000000
vt 0.50000000 0.50000000
vt 0.50000000 0.50000000
vt 0.50000000 0.50000000
vt 0.50000000 0.50000000
vt 0.50000000 0.50000000
vt 0.50000000 0.50000000
vt 0.50000000 0.50000000
vt 0.50000000 0.50000000
vt 0.50000000 0.50000000
vt 0.50000000 0.50000000
vt 0.50000000 0.50000000
vt 0.50000000 0.50000000
vt 0.50000000 0.50000000
vt 0.50000000 0.50000000
vt 0.50000000 0.50000000
vt 0.50000000 0.50000000
vt 0.50000000 0.50000000
vt 0.50000000 0.50000000
vt 0.50000000 0.50000000
vt 0.50000000 0.50000000
vt 0.50000000 0.50000000
vt 0.50000000 0.50000000
vt 0.50000000 0.50000000
vt 0.50000000 0.50000000
vt 0.50000000 0.50000000
vt 0.50000000 0.50000000
vt 0.50000000 0.50000000
vt 0.50000000 0.50000000
vt 0.50000000 0.50000000
vt 0.50000000 0.50000000
vt 0.50000000 0.50000000
vt 0.50000000 0.50000000
vt 0.50000000 0.50000000
vt 0.50000000 0.50000000
vt 0.50000000 0.50000000
vt 0.50000000 0.50000000
vt 0.50000000 0.50000000
vt 0.50000000 0.50000000
vt 0.50000000 0.50000000
vt 0.50000000 0.50000000
vt 0.50000000 0.50000000
vt 0.50000000 0.50000000
vt 0.50000000 0.50000000
vt 0.50000000 0.50000000
vt 0.50000000 0.50000000
vt 0.50000000 0.50000000
vt 0.50000000 0.50000000
vt 0.50000000 0.50000000
vt 0.50000000 0.50000000
vt 0.50000000 0.50000000
vt 0.50000000 0.50000000
vt 0.50000000 0.50000000
vt 0.50000000 0.50000000
vt 0.50000000 0.50000000
vt 0.50000000 0.50000000
vt 0.50000000 0.50000000
vt 0.50000000 0.50000000
vt 0.50000000 0.50000000
vt 0.50000000 0.50000000
vt 0.50000000 0.50000000
vt 0.50000000 0.50000000
vt 0.50000000 0.50000000
vt 0.50000000 0.50000000
vt 0.50000000 0.50000000
vt 0.50000000 0.50000000
vt 0.50000000 0.50000000
vt 0.50000000 0.50000000
vt 0.50000000 0.50000000
vt 0.50000000 0.50000000
vt 0.50000000 0.50000000
vt 0.50000000 0.50000000
vt 0.50000000 0.50000000
vt 0.50000000 0.50000000
vt 0.50000000 0.50000000
vt 0.50000000 0.50000000
vt 0.50000000 0.50000000
vt 0.50000000 0.50000000
vt 0.50000000 0.50000000
vt 0.50000000 0.50000000
vt 0.50000000 0.50000000
vt 0.50000000 0.50000000
vt 0.50000000 0.50000000
vt 0.50000000 0.50000000
vt 0.50000000 0.50000000
vt 0.50000000 0.50000000
vt 0.50000000 0.50000000
vt 0.50000000 0.50000000
vt 0.50000000 0.50000000
vt 0.50000000 0.50000000
vt 0.50000000 0.50000000
vt 0.50000000 0.50000000
vt 0.50000000 0.50000000
vt 0.50000000 0.50000000
vt 0.50000000 0.50000000
vt 0.50000000 0.50000000
vt 0.50000000 0.50000000
vt 0.50000000 0.50000000
vt 0.50000000 0.50000000
vt 0.50000000 0.50000000
vt 0.50000000 0.50000000
vt 0.50000000 0.50000000
vt 0.50000000 0.50000000
vt 0.50000000 0.50000000
vt 0.50000000 0.50000000
vt 0.50000000 0.50000000
vt 0.50000000 0.50000000
vt 0.50000000 0.50000000
vt 0.50000000 0.50000000
vt 0.50000000 0.50000000
vt 0.50000000 0.50000000
vt 0.50000000 0.50000000
vt 0.50000000 0.50000000
vt 0.50000000 0.50000000
vt 0.50000000 0.50000000
vt 0.50000000 0.50000000
vt 0.50000000 0.50000000
vt 0.50000000 0.50000000
vt 0.50000000 0.50000000
vt 0.50000000 0.50000000
vt 0.50000000 0.50000000
vt 0.50000000 0.50000000
vt 0.50000000 0.50000000
vt 0.50000000 0.50000000
vt 0.50000000 0.50000000
vt 0.50000000 0.50000000
vt 0.50000000 0.50000000
vt 0.50000000 0.50000000
vt 0.50000000 0.50000000
vt 0.50000000 0.50000000
vt 0.50000000 0.50000000
vt 0.50000000 0.50000000
vt 0.50000000 0.50000000
vt 0.50000000 0.50000000
vt 0.50000000 0.50000000
vt 0.50000000 0.50000000
vt 0.50000000 0.50000000
vt 0.50000000 0.50000000
vt 0.50000000 0.50000000
vt 0.50000000 0.50000000
vt 0.50000000 0.50000000
vt 0.50000000 0.50000000
vt 0.50000000 0.50000000
vt 0.50000000 0.50000000
vt 0.50000000 0.50000000
vt 0.50000000 0.50000000
vt 0.50000000 0.50000000
vt 0.50000000 0.50000000
vt 0.50000000 0.50000000
vt 0.50000000 0.50000000
vt 0.50000000 0.50000000
vt 0.50000000 0.50000000
vt 0.50000000 0.50000000
vt 0.50000000 0.50000000
vt 0.50000000 0.50000000
vt 0.50000000 0.50000000
vt 0.50000000 0.50000000
vt 0.50000000 0.50000000
vt 0.50000000 0.50000000
vt 0.50000000 0.50000000
vt 0.50000000 0.50000000
vt 0.50000000 0.50000000
vt 0.50000000 0.50000000
vt 0.50000000 0.50000000
vt 0.50000000 0.50000000
vt 0.50000000 0.50000000
vt 0.50000000 0.50000000
vt 0.50000000 0.50000000
vt 0.50000000 0.50000000
vt 0.50000000 0.50000000
vt 0.50000000 0.50000000
vt 0.50000000 0.50000000
vt 0.50000000 0.50000000
vt 0.50000000 0.50000000
vt 0.50000000 0.50000000
vt 0.50000000 0.50000000
vt 0.50000000 0.50000000
vt 0.50000000 0.50000000
vt 0.50000000 0.50000000
vt 0.50000000 0.50000000
vt 0.50000000 0.50000000
vt 0.50000000 0.50000000
vt 0.50000000 0.50000000
vt 0.50000000 0.50000000
vt 0.50000000 0.50000000
vt 0.50000000 0.50000000
vt 0.50000000 0.50000000
vt 0.50000000 0.50000000
vt 0.50000000 0.50000000
vt 0.50000000 0.50000000
vt 0.50000000 0.50000000
vt 0.50000000 0.50000000
vt 0.50000000 0.50000000
vt 0.50000000 0.50000000
vt 0.50000000 0.50000000
vt 0.50000000 0.50000000
vt 0.50000000 0.50000000
vt 0.50000000 0.50000000
vt 0.50000000 0.50000000
vt 0.50000000 0.50000000
vt 0.50000000 0.50000000
vt 0.50000000 0.50000000
vt 0.50000000 0.50000000
vt 0.50000000 0.50000000
vt 0.50000000 0.50000000
vt 0.50000000 0.50000000
vt 0.50000000 0.50000000
vt 0.50000000 0.50000000
vt 0.50000000 0.50000000
vt 0.50000000 0.50000000
vt 0.50000000 0.50000000
vt 0.50000000 0.50000000
vt 0.50000000 0.50000000
vt 0.50000000 0.50000000
vt 0.50000000 0.50000000
vt 0.50000000 0.50000000
vt 0.50000000 0.50000000
vt 0.50000000 0.50000000
vt 0.50000000 0.50000000
vt 0.50000000 0.50000000
vt 0.50000000 0.50000000
vt 0.50000000 0.50000000
vt 0.50000000 0.50000000
vt 0.50000000 0.50000000
vt 0.50000000 0.50000000
vt 0.50000000 0.50000000
vt 0.50000000 0.50000000
vt 0.50000000 0.50000000
vt 0.50000000 0.50000000
vt 0.50000000 0.50000000
vt 0.50000000 0.50000000
vt 0.50000000 0.50000000
vt 0.50000000 0.50000000
vt 0.50000000 0.50000000
vt 0.50000000 0.50000000
vt 0.50000000 0.50000000
vt 0.50000000 0.50000000
vt 0.50000000 0.50000000
vt 0.50000000 0.50000000
vt 0.50000000 0.50000000
vt 0.50000000 0.50000000
vt 0.50000000 0.50000000
vt 0.50000000 0.50000000
vt 0.50000000 0.50000000
vt 0.50000000 0.50000000
vt 0.50000000 0.50000000
vt 0.50000000 0.50000000
vt 0.50000000 0.50000000
vt 0.50000000 0.50000000
vt 0.50000000 0.50000000
vt 0.50000000 0.50000000
vt 0.50000000 0.50000000
vt 0.50000000 0.50000000
vt 0.50000000 0.50000000
vt 0.50000000 0.50000000
vt 0.50000000 0.50000000
vt 0.50000000 0.50000000
vt 0.50000000 0.50000000
vt 0.50000000 0.50000000
vt 0.50000000 0.50000000
vt 0.50000000 0.50000000
vt 0.50000000 0.50000000
vt 0.50000000 0.50000000
vt 0.50000000 0.50000000
vt 0.50000000 0.50000000
vt 0.50000000 0.50000000
vt 0.50000000 0.50000000
vt 0.50000000 0.50000000
vt 0.50000000 0.50000000
vt 0.50000000 0.50000000
vt 0.50000000 0.50000000
vt 0.50000000 0.50000000
vt 0.50000000 0.50000000
vt 0.50000000 0.50000000
vt 0.50000000 0.50000000
vt 0.50000000 0.50000000
vt 0.50000000 0.50000000
vt 0.50000000 0.50000000
vt 0.50000000 0.50000000
vt 0.50000000 0.50000000
vt 0.50000000 0.50000000
vt 0.50000000 0.50000000
vt 0.50000000 0.50000000
vt 0.50000000 0.50000000
vt 0.50000000 0.50000000
vt 0.50000000 0.50000000
vt 0.50000000 0.50000000
vt 0.50000000 0.50000000
vt 0.50000000 0.50000000
vt 0.50000000 0.50000000
vt 0.50000000 0.50000000
vt 0.50000000 0.50000000
vt 0.50000000 0.50000000
vt 0.50000000 0.50000000
vt 0.50000000 0.50000000
vt 0.50000000 0.50000000
vt 0.50000000 0.50000000
vt 0.50000000 0.50000000
vt 0.50000000 0.50000000
vt 0.50000000 0.50000000
vt 0.50000000 0.50000000
vt 0.50000000 0.50000000
vt 0.50000000 0.50000000
vt 0.50000000 0.50000000
vt 0.50000000 0.50000000
vt 0.50000000 0.50000000
vt 0.50000000 0.50000000
vt 0.50000000 0.50000000
vt 0.50000000 0.50000000
vt 0.50000000 0.50000000
vt 0.50000000 0.50000000
vt 0.50000000 0.50000000
vt 0.50000000 0.50000000
vt 0.50000000 0.50000000
vt 0.50000000 0.50000000
vt 0.50000000 0.50000000
vt 0.50000000 0.50000000
vt 0.50000000 0.50000000
vt 0.50000000 0.50000000
vt 0.50000000 0.50000000
vt 0.50000000 0.50000000
vt 0.50000000 0.50000000
vt 0.50000000 0.50000000
vt 0.50000000 0.50000000
vt 0.50000000 0.50000000
vt 0.50000000 0.50000000
vt 0.50000000 0.50000000
vt 0.50000000 0.50000000
vt 0.50000000 0.50000000
vt 0.50000000 0.50000000
vt 0.50000000 0.50000000
vt 0.50000000 0.50000000
vt 0.50000000 0.50000000
vt 0.50000000 0.50000000
vt 0.50000000 0.50000000
vt 0.50000000 0.50000000
vt 0.50000000 0.50000000
vt 0.50000000 0.50000000
vt 0.50000000 0.50000000
vt 0.50000000 0.50000000
vt 0.50000000 0.50000000
vt 0.50000000 0.50000000
vt 0.50000000 0.50000000
vt 0.50000000 0.50000000
vt 0.50000000 0.50000000
vt 0.50000000 0.50000000
vt 0.50000000 0.50000000
vt 0.50000000 0.50000000
vt 0.50000000 0.50000000
vt 0.50000000 0.50000000
vt 0.50000000 0.50000000
vt 0.50000000 0.50000000
vt 0.50000000 0.50000000
vt 0.50000000 0.50000000
vt 0.50000000 0.50000000
vt 0.50000000 0.50000000
vt 0.50000000 0.50000000
vt 0.50000000 0.50000000
vt 0.50000000 0.50000000
vt 0.50000000 0.50000000
vt 0.50000000 0.50000000
vt 0.50000000 0.50000000
vt 0.50000000 0.50000000
vt 0.50000000 0.50000000
vt 0.50000000 0.50000000
vt 0.50000000 0.50000000
vt 0.50000000 0.50000000
vt 0.50000000 0.50000000
vt 0.50000000 0.50000000
vt 0.50000000 0.50000000
vt 0.50000000 0.50000000
vt 0.50000000 0.50000000
vt 0.50000000 0.50000000
vt 0.50000000 0.50000000
vt 0.50000000 0.50000000
vt 0.50000000 0.50000000
vt 0.50000000 0.50000000
vt 0.50000000 0.50000000
vt 0.50000000 0.50000000
vt 0.50000000 0.50000000
vt 0.50000000 0.50000000
vt 0.50000000 0.50000000
vt 0.50000000 0.50000000
vt 0.50000000 0.50000000
vt 0.50000000 0.50000000
vt 0.50000000 0.50000000
vt 0.50000000 0.50000000
vt 0.50000000 0.50000000
vt 0.50000000 0.50000000
vt 0.50000000 0.50000000
vt 0.50000000 0.50000000
vt 0.50000000 0.50000000
vt 0.50000000 0.50000000
vt 0.50000000 0.50000000
vt 0.50000000 0.50000000
vt 0.50000000 0.50000000
vt 0.50000000 0.50000000
vt 0.50000000 0.50000000
vt 0.50000000 0.50000000
vt 0.50000000 0.50000000
vt 0.50000000 0.50000000
vt 0.50000000 0.50000000
vt 0.50000000 0.50000000
vt 0.50000000 0.50000000
vt 0.50000000 0.50000000
vt 0.50000000 0.50000000
vt 0.50000000 0.50000000
vt 0.50000000 0.50000000
vt 0.50000000 0.50000000
vt 0.50000000 0.50000000
vt 0.50000000 0.50000000
vt 0.50000000 0.50000000
vt 0.50000000 0.50000000
vt 0.50000000 0.50000000
vt 0.50000000 0.50000000
vt 0.50000000 0.50000000
vt 0.50000000 0.50000000
vt 0.50000000 0.50000000
vt 0.50000000 0.50000000
vt 0.50000000 0.50000000
vt 0.50000000 0.50000000
vt 0.50000000 0.50000000
vt 0.50000000 0.50000000
vt 0.50000000 0.50000000
vt 0.50000000 0.50000000
vt 0.50000000 0.50000000
vt 0.50000000 0.50000000
vt 0.50000000 0.50000000
vt 0.50000000 0.50000000
vt 0.50000000 0.50000000
vt 0.50000000 0.50000000
vt 0.50000000 0.50000000
vt 0.50000000 0.50000000
vt 0.50000000 0.50000000
vt 0.50000000 0.50000000
vt 0.50000000 0.50000000
vt 0.50000000 0.50000000
vt 0.50000000 0.50000000
vt 0.50000000 0.50000000
vt 0.50000000 0.50000000
vt 0.50000000 0.50000000
vt 0.50000000 0.50000000
vt 0.50000000 0.50000000
vt 0.50000000 0.50000000
vt 0.50000000 0.50000000
vt 0.50000000 0.50000000
vt 0.50000000 0.50000000
vt 0.50000000 0.50000000
vt 0.50000000 0.50000000
vt 0.50000000 0.50000000
vt 0.50000000 0.50000000
vt 0.50000000 0.50000000
vt 0.50000000 0.50000000
vt 0.50000000 0.50000000
vt 0.50000000 0.50000000
vt 0.50000000 0.50000000
vt 0.50000000 0.50000000
vt 0.50000000 0.50000000
vt 0.50000000 0.50000000
vt 0.50000000 0.50000000
vt 0.50000000 0.50000000
vt 0.50000000 0.50000000
vt 0.50000000 0.50000000
vt 0.50000000 0.50000000
vt 0.50000000 0.50000000
vt 0.50000000 0.50000000
vt 0.50000000 0.50000000
vt 0.50000000 0.50000000
vt 0.50000000 0.50000000
vt 0.50000000 0.50000000
vt 0.50000000 0.50000000
vt 0.50000000 0.50000000
vt 0.50000000 0.50000000
vt 0.50000000 0.50000000
vt 0.50000000 0.50000000
vt 0.50000000 0.50000000
vt 0.50000000 0.50000000
vt 0.50000000 0.50000000
vt 0.50000000 0.50000000
vt 0.50000000 0.50000000
vt 0.50000000 0.50000000
vt 0.50000000 0.50000000
vt 0.50000000 0.50000000
vt 0.50000000 0.50000000
vt 0.50000000 0.50000000
vt 0.50000000 0.50000000
vt 0.50000000 0.50000000
vt 0.50000000 0.50000000
vt 0.50000000 0.50000000
vt 0.50000000 0.50000000
vt 0.50000000 0.50000000
vt 0.50000000 0.50000000
vt 0.50000000 0.50000000
vt 0.50000000 0.50000000
vt 0.50000000 0.50000000
vt 0.50000000 0.50000000
vt 0.50000000 0.50000000
vt 0.50000000 0.50000000
vt 0.50000000 0.50000000
vt 0.50000000 0.50000000
vt 0.50000000 0.50000000
vt 0.50000000 0.50000000
vt 0.50000000 0.50000000
vt 0.50000000 0.50000000
vt 0.50000000 0.50000000
vt 0.50000000 0.50000000
vt 0.50000000 0.50000000
vt 0.50000000 0.50000000
vt 0.50000000 0.50000000
vt 0.50000000 0.50000000
vt 0.50000000 0.50000000
vt 0.50000000 0.50000000
vt 0.50000000 0.50000000
vt 0.50000000 0.50000000
vt 0.50000000 0.50000000
vt 0.50000000 0.50000000
vt 0.50000000 0.50000000
vt 0.50000000 0.50000000
vt 0.50000000 0.50000000
vt 0.50000000 0.50000000
vt 0.50000000 0.50000000
vt 0.50000000 0.50000000
vt 0.50000000 0.50000000
vt 0.50000000 0.50000000
vt 0.50000000 0.50000000
vt 0.50000000 0.50000000
vt 0.50000000 0.50000000
vt 0.50000000 0.50000000
vt 0.50000000 0.50000000
vt 0.50000000 0.50000000
vt 0.50000000 0.50000000
vt 0.50000000 0.50000000
vt 0.50000000 0.50000000
vt 0.50000000 0.50000000
vt 0.50000000 0.50000000
vt 0.50000000 0.50000000
vt 0.50000000 0.50000000
vt 0.50000000 0.50000000
vt 0.50000000 0.50000000
vt 0.50000000 0.50000000
vt 0.50000000 0.50000000
vt 0.50000000 0.50000000
vt 0.50000000 0.50000000
vt 0.50000000 0.50000000
vt 0.50000000 0.50000000
vt 0.50000000 0.50000000
vt 0.50000000 0.50000000
vt 0.50000000 0.50000000
vt 0.50000000 0.50000000
vt 0.50000000 0.50000000
vt 0.50000000 0.50000000
vt 0.50000000 0.50000000
vt 0.50000000 0.50000000
vt 0.50000000 0.50000000
vt 0.50000000 0.50000000
vt 0.50000000 0.50000000
vt 0.50000000 0.50000000
vt 0.50000000 0.50000000
vt 0.50000000 0.50000000
vt 0.50000000 0.50000000
vt 0.50000000 0.50000000
vt 0.50000000 0.50000000
vt 0.50000000 0.50000000
vt 0.50000000 0.50000000
vt 0.50000000 0.50000000
vt 0.50000000 0.50000000
vt 0.50000000 0.50000000
vt 0.50000000 0.50000000
vt 0.50000000 0.50000000
vt 0.50000000 0.50000000
vt 0.50000000 0.50000000
vt 0.50000000 0.50000000
vt 0.50000000 0.50000000
vt 0.50000000 0.50000000
vt 0.50000000 0.50000000
vt 0.50000000 0.50000000
vt 0.50000000 0.50000000
vt 0.50000000 0.50000000
vt 0.50000000 0.50000000
vt 0.50000000 0.50000000
vt 0.50000000 0.50000000
vt 0.50000000 0.50000000
vt 0.50000000 0.50000000
vt 0.50000000 0.50000000
vt 0.50000000 0.50000000
vt 0.50000000 0.50000000
vt 0.50000000 0.50000000
vt 0.50000000 0.50000000
vt 0.50000000 0.50000000
vt 0.50000000 0.50000000
vt 0.50000000 0.50000000
vt 0.50000000 0.50000000
vt 0.50000000 0.50000000
vt 0.50000000 0.50000000
vt 0.50000000 0.50000000
vt 0.50000000 0.50000000
vt 0.50000000 0.50000000
vt 0.50000000 0.50000000
vt 0.50000000 0.50000000
vt 0.50000000 0.50000000
vt 0.50000000 0.50000000
vt 0.50000000 0.50000000
vt 0.50000000 0.50000000
vt 0.50000000 0.50000000
vt 0.50000000 0.50000000
vt 0.50000000 0.50000000
vt 0.50000000 0.50000000
vt 0.50000000 0.50000000
vt 0.50000000 0.50000000
vt 0.50000000 0.50000000
vt 0.50000000 0.50000000
vt 0.50000000 0.50000000
vt 0.50000000 0.50000000
vt 0.50000000 0.50000000
vt 0.50000000 0.50000000
vt 0.50000000 0.50000000
vt 0.50000000 0.50000000
vt 0.50000000 0.50000000
vt 0.50000000 0.50000000
vt 0.50000000 0.50000000
vt 0.50000000 0.50000000
vt 0.50000000 0.50000000
vt 0.50000000 0.50000000
vt 0.50000000 0.50000000
vt 0.50000000 0.50000000
vt 0.50000000 0.50000000
vt 0.50000000 0.50000000
vt 0.50000000 0.50000000
vt 0.50000000 0.50000000
vt 0.50000000 0.50000000
vt 0.50000000 0.50000000
vt 0.50000000 0.50000000
vt 0.50000000 0.50000000
vt 0.50000000 0.50000000
vt 0.50000000 0.50000000
vt 0.50000000 0.50000000
vt 0.50000000 0.50000000
vt 0.50000000 0.50000000
vt 0.50000000 0.50000000
vt 0.50000000 0.50000000
vt 0.50000000 0.50000000
vt 0.50000000 0.50000000
vt 0.50000000 0.50000000
vt 0.50000000 0.50000000
vt 0.50000000 0.50000000
vt 0.50000000 0.50000000
vt 0.50000000 0.50000000
vt 0.50000000 0.50000000
vt 0.50000000 0.50000000
vt 0.50000000 0.50000000
vt 0.50000000 0.50000000
vt 0.50000000 0.50000000
vt 0.50000000 0.50000000
vt 0.50000000 0.50000000
vt 0.50000000 0.50000000
vt 0.50000000 0.50000000
vt 0.50000000 0.50000000
vt 0.50000000 0.50000000
vt 0.50000000 0.50000000
vt 0.50000000 0.50000000
vt 0.50000000 0.50000000
vt 0.50000000 0.50000000
vt 0.50000000 0.50000000
vt 0.50000000 0.50000000
vt 0.50000000 0.50000000
vt 0.50000000 0.50000000
vt 0.50000000 0.50000000
vt 0.50000000 0.50000000
vt 0.50000000 0.50000000
vt 0.50000000 0.50000000
vt 0.50000000 0.50000000
vt 0.50000000 0.50000000
vt 0.50000000 0.50000000
vt 0.50000000 0.50000000
vt 0.50000000 0.50000000
vt 0.50000000 0.50000000
vt 0.50000000 0.50000000
vt 0.50000000 0.50000000
vt 0.50000000 0.50000000
vt 0.50000000 0.50000000
vt 0.50000000 0.50000000
vt 0.50000000 0.50000000
vt 0.50000000 0.50000000
vt 0.50000000 0.50000000
vt 0.50000000 0.50000000
vt 0.50000000 0.50000000
vt 0.50000000 0.50000000
vt 0.50000000 0.50000000
vt 0.50000000 0.50000000
vt 0.50000000 0.50000000
vt 0.50000000 0.50000000
vt 0.50000000 0.50000000
vt 0.50000000 0.50000000
vt 0.50000000 0.50000000
vt 0.50000000 0.50000000
vt 0.50000000 0.50000000
vt 0.50000000 0.50000000
vt 0.50000000 0.50000000
vt 0.50000000 0.50000000
vt 0.50000000 0.50000000
vt 0.50000000 0.50000000
vt 0.50000000 0.50000000
vt 0.50000000 0.50000000
vt 0.50000000 0.50000000
vt 0.50000000 0.50000000
vt 0.50000000 0.50000000
vt 0.50000000 0.50000000
vt 0.50000000 0.50000000
vt 0.50000000 0.50000000
vt 0.50000000 0.50000000
vt 0.50000000 0.50000000
vt 0.50000000 0.50000000
vt 0.50000000 0.50000000
vt 0.50000000 0.50000000
vt 0.50000000 0.50000000
vt 0.50000000 0.50000000
vt 0.50000000 0.50000000
vt 0.50000000 0.50000000
vt 0.50000000 0.50000000
vt 0.50000000 0.50000000
vt 0.50000000 0.50000000
vt 0.50000000 0.50000000
vt 0.50000000 0.50000000
vt 0.50000000 0.50000000
vt 0.50000000 0.50000000
vt 0.50000000 0.50000000
vt 0.50000000 0.50000000
vt 0.50000000 0.50000000
vt 0.50000000 0.50000000
vt 0.50000000 0.50000000
vt 0.50000000 0.50000000
vt 0.50000000 0.50000000
vt 0.50000000 0.50000000
vt 0.50000000 0.50000000
vt 0.50000000 0.50000000
vt 0.50000000 0.50000000
vt 0.50000000 0.50000000
vt 0.50000000 0.50000000
vt 0.50000000 0.50000000
vt 0.50000000 0.50000000
vt 0.50000000 0.50000000
vt 0.50000000 0.50000000
vt 0.50000000 0.50000000
vt 0.50000000 0.50000000
vt 0.50000000 0.50000000
vt 0.50000000 0.50000000
vt 0.50000000 0.50000000
vt 0.50000000 0.50000000
vt 0.50000000 0.50000000
vt 0.50000000 0.50000000
vt 0.50000000 0.50000000
vt 0.50000000 0.50000000
vt 0.50000000 0.50000000
vt 0.50000000 0.50000000
vt 0.50000000 0.50000000
vt 0.50000000 0.50000000
vt 0.50000000 0.50000000
vt 0.50000000 0.50000000
vt 0.50000000 0.50000000
vt 0.50000000 0.50000000
vt 0.50000000 0.50000000
vt 0.50000000 0.50000000
vt 0.50000000 0.50000000
vt 0.50000000 0.50000000
vt 0.50000000 0.50000000
vt 0.50000000 0.50000000
vt 0.50000000 0.50000000
vt 0.50000000 0.50000000
vt 0.50000000 0.50000000
vt 0.50000000 0.50000000
vt 0.50000000 0.50000000
vt 0.50000000 0.50000000
vt 0.50000000 0.50000000
vt 0.50000000 0.50000000
vt 0.50000000 0.50000000
vt 0.50000000 0.50000000
vt 0.50000000 0.50000000
vt 0.50000000 0.50000000
vt 0.50000000 0.50000000
vt 0.50000000 0.50000000
vt 0.50000000 0.50000000
vt 0.50000000 0.50000000
vt 0.50000000 0.50000000
vt 0.50000000 0.50000000
vt 0.50000000 0.50000000
vt 0.50000000 0.50000000
vt 0.50000000 0.50000000
vt 0.50000000 0.50000000
vt 0.50000000 0.50000000
vt 0.50000000 0.50000000
vt 0.50000000 0.50000000
vt 0.50000000 0.50000000
vt 0.50000000 0.50000000
vt 0.50000000 0.50000000
vt 0.50000000 0.50000000
vt 0.50000000 0.50000000
vt 0.50000000 0.50000000
vt 0.50000000 0.50000000
vt 0.50000000 0.50000000
vt 0.50000000 0.50000000
vt 0.50000000 0.50000000
vt 0.50000000 0.50000000
vt 0.50000000 0.50000000
vt 0.50000000 0.50000000
vt 0.50000000 0.50000000
vt 0.50000000 0.50000000
vt 0.50000000 0.50000000
vt 0.50000000 0.50000000
vt 0.50000000 0.50000000
vt 0.50000000 0.50000000
vt 0.50000000 0.50000000
vt 0.50000000 0.50000000
vt 0.50000000 0.50000000
vt 0.50000000 0.50000000
vt 0.50000000 0.50000000
vt 0.50000000 0.50000000
vt 0.50000000 0.50000000
vt 0.50000000 0.50000000
vt 0.50000000 0.50000000
vt 0.50000000 0.50000000
vt 0.50000000 0.50000000
vt 0.50000000 0.50000000
vt 0.50000000 0.50000000
vt 0.50000000 0.50000000
vt 0.50000000 0.50000000
vt 0.50000000 0.50000000
vt 0.50000000 0.50000000
vt 0.50000000 0.50000000
vt 0.50000000 0.50000000
vt 0.50000000 0.50000000
vt 0.50000000 0.50000000
vt 0.50000000 0.50000000
vt 0.50000000 0.50000000
vt 0.50000000 0.50000000
vt 0.50000000 0.50000000
vt 0.50000000 0.50000000
vt 0.50000000 0.50000000
vt 0.50000000 0.50000000
vt 0.50000000 0.50000000
vt 0.50000000 0.50000000
vt 0.50000000 0.50000000
vt 0.50000000 0.50000000
vt 0.50000000 0.50000000
vt 0.50000000 0.50000000
vt 0.50000000 0.50000000
vt 0.50000000 0.50000000
vt 0.50000000 0.50000000
vt 0.50000000 0.50000000
vt 0.50000000 0.50000000
vt 0.50000000 0.50000000
vt 0.50000000 0.50000000
vt 0.50000000 0.50000000
vt 0.50000000 0.50000000
vt 0.50000000 0.50000000
vt 0.50000000 0.50000000
vt 0.50000000 0.50000000
vt 0.50000000 0.50000000
vt 0.50000000 0.50000000
vt 0.50000000 0.50000000
vt 0.50000000 0.50000000
vt 0.50000000 0.50000000
vt 0.50000000 0.50000000
vt 0.50000000 0.50000000
vt 0.50000000 0.50000000
vt 0.50000000 0.50000000
vt 0.50000000 0.50000000
vt 0.50000000 0.50000000
vt 0.50000000 0.50000000
vt 0.50000000 0.50000000
vt 0.50000000 0.50000000
vt 0.50000000 0.50000000
vt 0.50000000 0.50000000
vt 0.50000000 0.50000000
vt 0.50000000 0.50000000
vt 0.50000000 0.50000000
vt 0.50000000 0.50000000
vt 0.50000000 0.50000000
vt 0.50000000 0.50000000
vt 0.50000000 0.50000000
vt 0.50000000 0.50000000
vt 0.50000000 0.50000000
vt 0.50000000 0.50000000
vt 0.50000000 0.50000000
vt 0.50000000 0.50000000
vt 0.50000000 0.50000000
vt 0.50000000 0.50000000
vt 0.50000000 0.50000000
vt 0.50000000 0.50000000
vt 0.50000000 0.50000000
vt 0.50000000 0.50000000
vt 0.50000000 0.50000000
f 1/1 2/2 3/3
f 2/2 4/4 5/5
f 4/4 6/6 7/7
f 6/6 8/8 9/9
f 8/8 10/10 11/11
f 10/10 12/12 13/13
f 14/14 3/3 15/15
f 3/3 5/5 16/16
f 5/5 7/7 17/17
f 7/7 9/9 18/18
f 9/9 11/11 19/19
f 11/11 13/13 20/20
f 21/21 15/15 22/22
f 15/15 16/16 23/23
f 16/16 17/17 24/24
f 17/17 18/18 25/25
f 18/18 19/19 26/26
f 19/19 20/20 27/27
f 27/27 26/26 19/19
f 26/26 25/25 18/18
f 25/25 24/24 17/17
f 24/24 23/23 16/16
f 23/23 22/22 15/15
f 22/22 28/28 21/21
f 20/20 19/19 11/11
f 19/19 18/18 9/9
f 18/18 17/17 7/7
f 17/17 16/16 5/5
f 16/16 15/15 3/3
f 15/15 21/21 14/14
f 13/13 11/11 10/10
f 11/11 9/9 8/8
f 9/9 7/7 6/6
f 7/7 5/5 4/4
f 5/5 3/3 2/2
f 3/3 14/14 1/1
f 12/12 10/10 29/29
f 10/10 8/8 29/29
f 8/8 6/6 29/29
f 6/6 4/4 29/29
f 4/4 2/2 29/29
f 2/2 1/1 29/29
f 30/30 31/31 32/32
f 31/31 33/33 32/32
f 34/34 30/30 35/35
f 30/30 36/36 35/35
f 34/34 37/37 38/38
f 38/38 39/39 34/34
f 39/39 40/40 41/41
f 41/41 42/42 39/39
f 31/31 30/30 43/43
f 30/30 34/34 44/44
f 34/34 39/39 45/45
f 39/39 42/42 46/46
f 47/47 43/43 48/48
f 43/43 44/44 49/49
f 44/44 45/45 50/50
f 45/45 46/46 51/51
f 52/52 48/48 53/53
f 48/48 49/49 54/54
f 49/49 50/50 55/55
f 50/50 51/51 56/56
f 56/56 55/55 50/50
f 55/55 54/54 49/49
f 54/54 53/53 48/48
f 53/53 57/57 52/52
f 51/51 50/50 45/45
f 50/50 49/49 44/44
f 49/49 48/48 43/43
f 48/48 52/52 47/47
f 46/46 45/45 39/39
f 45/45 44/44 34/34
f 44/44 43/43 30/30
f 43/43 47/47 31/31
f 41/41 58/58 42/42
f 38/38 40/40 39/39
f 35/35 37/37 34/34
f 32/32 36/36 30/30
f 59/59 60/60 61/61
f 59/59 62/62 60/60
f 63/63 64/64 65/65
f 63/63 61/61 64/64
f 66/66 65/65 67/67
f 68/68 67/67 69/69
f 69/69 70/70 68/68
f 67/67 68/68 66/66
f 65/65 66/66 63/63
f 61/61 63/63 59/59
f 71/71 72/72 73/73
f 73/73 74/74 71/71
f 75/75 71/71 76/76
f 76/76 77/77 75/75
f 77/77 78/78 75/75
f 79/79 80/80 81/81
f 82/82 79/79 83/83
f 84/84 82/82 85/85
f 85/85 86/86 84/84
f 72/72 87/87 88/88
f 72/72 84/84 89/89
f 89/89 87/87 72/72
f 88/88 90/90 72/72
f 90/90 73/73 72/72
f 86/86 89/89 84/84
f 83/83 85/85 82/82
f 81/81 83/83 79/79
f 78/78 91/91 75/75
f 74/74 76/76 71/71
f 92/92 93/93 94/94
f 93/93 95/95 96/96
f 95/95 97/97 98/98
f 97/97 99/99 100/100
f 99/99 101/101 102/102
f 101/101 103/103 104/104
f 105/105 94/94 106/106
f 94/94 96/96 107/107
f 96/96 98/98 108/108
f 98/98 100/100 109/109
f 100/100 102/102 110/110
f 102/102 104/104 111/111
f 112/112 106/106 113/113
f 106/106 107/107 114/114
f 107/107 108/108 115/115
f 108/108 109/109 116/116
f 109/109 110/110 117/117
f 110/110 111/111 118/118
f 118/118 117/117 110/110
f 117/117 116/116 109/109
f 116/116 115/115 108/108
f 115/115 114/114 107/107
f 114/114 113/113 106/106
f 113/113 119/119 112/112
f 111/111 110/110 102/102
f 110/110 109/109 100/100
f 109/109 108/108 98/98
f 108/108 107/107 96/96
f 107/107 106/106 94/94
f 106/106 112/112 105/105
f 104/104 102/102 101/101
f 102/102 100/100 99/99
f 100/100 98/98 97/97
f 98/98 96/96 95/95
f 96/96 94/94 93/93
f 94/94 105/105 92/92
f 103/103 101/101 120/120
f 101/101 99/99 120/120
f 99/99 97/97 120/120
f 97/97 95/95 120/120
f 95/95 93/93 120/120
f 93/93 92/92 120/120
f 121/121 122/122 123/123
f 121/121 124/124 122/122
f 125/125 123/123 126/126
f 127/127 126/126 128/128
f 129/129 130/130 131/131
f 132/132 133/133 130/130
f 130/130 129/129 132/132
f 129/129 134/134 135/135
f 129/129 136/136 134/134
f 121/121 137/137 138/138
f 138/138 139/139 121/121
f 140/140 135/135 137/137
f 137/137 121/121 140/140
f 139/139 124/124 121/121
f 135/135 140/140 129/129
f 131/131 136/136 129/129
f 128/128 141/141 127/127
f 126/126 127/127 125/125
f 123/123 125/125 121/121
f 142/142 143/143 144/144
f 144/144 145/145 142/142
f 146/146 147/147 148/148
f 149/149 146/146 150/150
f 143/143 149/149 151/151
f 151/151 152/152 143/143
f 152/152 144/144 143/143
f 150/150 151/151 149/149
f 148/148 150/150 146/146
f 145/145 153/153 142/142
f 154/154 155/155 156/156
f 157/157 158/158 159/159
f 160/160 161/161 162/162
f 157/157 163/163 158/158
f 160/160 164/164 161/161
f 159/159 160/160 157/157
f 157/157 165/165 166/166
f 160/160 167/167 164/164
f 166/166 163/163 157/157
f 159/159 167/167 160/160
f 162/162 168/168 160/160
f 169/169 170/170 171/171
f 172/172 173/173 174/174
f 174/174 175/175 172/172
f 173/173 176/176 177/177
f 172/172 178/178 179/179
f 173/173 180/180 174/174
f 177/177 181/181 173/173
f 175/175 178/178 172/172
f 181/181 182/182 173/173
f 182/182 180/180 173/173
f 179/179 183/183 172/172
f 184/184 185/185 186/186
f 187/187 184/184 188/188
f 184/184 189/189 188/188
f 188/188 190/190 187/187
f 184/184 191/191 192/192
f 184/184 193/193 191/191
f 194/194 195/195 196/196
f 194/194 192/192 197/197
f 197/197 195/195 194/194
f 196/196 198/198 199/199
f 199/199 200/200 196/196
f 194/194 200/200 201/201
f 194/194 202/202 185/185
f 185/185 184/184 194/194
f 201/201 202/202 194/194
f 201/201 200/200 203/203
f 199/199 203/203 200/200
f 196/196 200/200 194/194
f 192/192 194/194 184/184
f 187/187 193/193 184/184
f 186/186 189/189 184/184
f 204/204 205/205 206/206
f 206/206 207/207 204/204
f 208/208 207/207 209/209
f 207/207 210/210 209/209
f 211/211 208/208 212/212
f 208/208 213/213 212/212
f 211/211 214/214 215/215
f 216/216 217/217 214/214
f 214/214 211/211 216/216
f 218/218 215/215 219/219
f 220/220 221/221 222/222
f 205/205 204/204 223/223
f 204/204 220/220 224/224
f 224/224 223/223 204/204
f 223/223 225/225 205/205
f 222/222 224/224 220/220
f 219/219 226/226 218/218
f 215/215 218/218 211/211
f 212/212 216/216 211/211
f 209/209 213/213 208/208
f 206/206 210/210 207/207
f 227/227 228/228 229/229
f 227/227 230/230 231/231
f 231/231 228/228 227/227
f 232/232 227/227 233/233
f 233/233 234/234 232/232
f 235/235 236/236 237/237
f 237/237 232/232 235/235
f 237/237 238/238 232/232
f 232/232 238/238 239/239
f 227/227 232/232 240/240
f 227/227 241/241 242/242
f 231/231 230/230 243/243
f 230/230 244/244 243/243
f 243/243 245/245 231/231
f 244/244 230/230 242/242
f 242/242 230/230 227/227
f 240/240 241/241 227/227
f 239/239 240/240 232/232
f 236/236 246/246 237/237
f 234/234 235/235 232/232
f 229/229 233/233 227/227
f 247/247 248/248 249/249
f 250/250 251/251 252/252
f 253/253 248/248 254/254
f 249/249 255/255 247/247
f 256/256 257/257 255/255
f 256/256 258/258 259/259
f 252/252 260/260 261/261
f 252/252 262/262 250/250
f 263/263 264/264 251/251
f 265/265 266/266 264/264
f 267/267 268/268 266/266
f 269/269 270/270 268/268
f 271/271 272/272 270/270
f 271/271 273/273 253/253
f 247/247 254/254 248/248
f 259/259 257/257 256/256
f 261/261 274/274 252/252
f 251/251 275/275 263/263
f 266/266 265/265 267/267
f 270/270 269/269 271/271
f 253/253 272/272 271/271
f 255/255 249/249 256/256
f 276/276 259/259 258/258
f 252/252 277/277 260/260
f 264/264 263/263 265/265
f 253/253 278/278 272/272
f 258/258 274/274 276/276
f 252/252 251/251 277/277
f 268/268 267/267 269/269
f 261/261 276/276 274/274
f 254/254 278/278 253/253
f 250/250 275/275 251/251
f 279/279 280/280 281/281
f 282/282 283/283 284/284
f 282/282 281/281 283/283
f 284/284 285/285 282/282
f 282/282 286/286 281/281
f 281/281 286/286 279/279
f 287/287 288/288 289/289
f 289/289 290/290 287/287
f 291/291 289/289 288/288
f 290/290 292/292 287/287
f 292/292 293/293 287/287
f 294/294 295/295 287/287
f 296/296 297/297 295/295
f 298/298 299/299 297/297
f 300/300 301/301 302/302
f 303/303 304/304 305/305
f 304/304 291/291 306/306
f 287/287 293/293 294/294
f 297/297 296/296 298/298
f 300/300 307/307 301/301
f 308/308 309/309 310/310
f 311/311 312/312 309/309
f 313/313 314/314 312/312
f 306/306 305/305 304/304
f 295/295 294/294 296/296
f 315/315 316/316 317/317
f 318/318 319/319 300/300
f 300/300 319/319 307/307
f 320/320 310/310 321/321
f 309/309 308/308 311/311
f 313/313 322/322 314/314
f 322/322 303/303 323/323
f 288/288 306/306 291/291
f 317/317 299/299 315/315
f 316/316 318/318 324/324
f 302/302 321/321 300/300
f 310/310 320/320 308/308
f 323/323 314/314 322/322
f 299/299 298/298 315/315
f 300/300 324/324 318/318
f 312/312 311/311 313/313
f 324/324 317/317 316/316
f 305/305 323/323 303/303
f 321/321 302/302 320/320
f 325/325 326/326 327/327
f 328/328 329/329 330/330
f 328/328 331/331 332/332
f 326/326 333/333 327/327
f 333/333 334/334 335/335
f 332/332 329/329 328/328
f 331/331 328/328 325/325
f 333/333 326/326 334/334
f 327/327 331/331 325/325
f 330/330 336/336 328/328
f 335/335 337/337 333/333
f 338/338 339/339 340/340
f 341/341 342/342 343/343
f 343/343 344/344 341/341
f 340/340 339/339 341/341
f 344/344 340/340 341/341
f 340/340 345/345 338/338
f 346/346 347/347 348/348
f 348/348 349/349 346/346
f 350/350 351/351 352/352
f 350/350 353/353 354/354
f 348/348 355/355 349/349
f 354/354 351/351 350/350
f 355/355 356/356 357/357
f 352/352 347/347 350/350
f 357/357 358/358 355/355
f 358/358 349/349 355/355
f 346/346 350/350 347/347
f 359/359 360/360 361/361
f 360/360 362/362 363/363
f 363/363 361/361 360/360
f 364/364 365/365 359/359
f 366/366 367/367 365/365
f 368/368 369/369 367/367
f 370/370 371/371 369/369
f 372/372 373/373 371/371
f 374/374 375/375 373/373
f 376/376 377/377 378/378
f 375/375 374/374 377/377
f 377/377 376/376 375/375
f 378/378 379/379 376/376
f 373/373 372/372 374/374
f 371/371 370/370 372/372
f 369/369 368/368 370/370
f 367/367 366/366 368/368
f 365/365 364/364 366/366
f 359/359 380/380 364/364
f 361/361 380/380 359/359
f 381/381 382/382 383/383
f 384/384 381/381 385/385
f 386/386 384/384 387/387
f 388/388 386/386 389/389
f 390/390 388/388 391/391
f 392/392 390/390 393/393
f 394/394 392/392 395/395
f 396/396 394/394 397/397
f 398/398 396/396 399/399
f 400/400 398/398 401/401
f 402/402 400/400 403/403
f 404/404 402/402 405/405
f 406/406 404/404 407/407
f 408/408 406/406 409/409
f 410/410 408/408 411/411
f 382/382 410/410 412/412
f 412/412 383/383 382/382
f 411/411 412/412 410/410
f 409/409 411/411 408/408
f 407/407 409/409 406/406
f 405/405 407/407 404/404
f 403/403 405/405 402/402
f 401/401 403/403 400/400
f 399/399 401/401 398/398
f 397/397 399/399 396/396
f 395/395 397/397 394/394
f 393/393 395/395 392/392
f 391/391 393/393 390/390
f 389/389 391/391 388/388
f 387/387 389/389 386/386
f 385/385 387/387 384/384
f 383/383 385/385 381/381
f 413/413 414/414 415/415
f 413/413 416/416 417/417
f 418/418 419/419 415/415
f 417/417 414/414 413/413
f 420/420 421/421 417/417
f 420/420 422/422 423/423
f 415/415 419/419 413/413
f 423/423 421/421 420/420
f 422/422 424/424 425/425
f 426/426 427/427 425/425
f 428/428 429/429 430/430
f 428/428 418/418 431/431
f 417/417 416/416 420/420
f 425/425 424/424 426/426
f 432/432 433/433 434/434
f 432/432 435/435 436/436
f 431/431 429/429 428/428
f 425/425 423/423 422/422
f 437/437 438/438 427/427
f 437/437 439/439 434/434
f 436/436 433/433 432/432
f 440/440 441/441 436/436
f 440/440 442/442 443/443
f 442/442 444/444 430/430
f 415/415 431/431 418/418
f 434/434 438/438 437/437
f 436/436 435/435 440/440
f 430/430 443/443 442/442
f 427/427 426/426 437/437
f 443/443 441/441 440/440
f 434/434 439/439 432/432
f 430/430 444/444 428/428
f 445/445 446/446 447/447
f 448/448 445/445 449/449
f 450/450 448/448 451/451
f 452/452 450/450 453/453
f 454/454 452/452 455/455
f 456/456 454/454 457/457
f 458/458 456/456 459/459
f 460/460 458/458 461/461
f 462/462 460/460 463/463
f 464/464 462/462 465/465
f 466/466 464/464 467/467
f 468/468 466/466 469/469
f 470/470 468/468 471/471
f 472/472 470/470 473/473
f 474/474 472/472 475/475
f 446/446 474/474 476/476
f 476/476 447/447 446/446
f 475/475 476/476 474/474
f 473/473 475/475 472/472
f 471/471 473/473 470/470
f 469/469 471/471 468/468
f 467/467 469/469 466/466
f 465/465 467/467 464/464
f 463/463 465/465 462/462
f 461/461 463/463 460/460
f 459/459 461/461 458/458
f 457/457 459/459 456/456
f 455/455 457/457 454/454
f 453/453 455/455 452/452
f 451/451 453/453 450/450
f 449/449 451/451 448/448
f 447/447 449/449 445/445
f 477/477 478/478 479/479
f 480/480 479/479 481/481
f 482/482 481/481 483/483
f 484/484 483/483 485/485
f 486/486 485/485 487/487
f 488/488 487/487 489/489
f 490/490 489/489 491/491
f 492/492 491/491 493/493
f 494/494 493/493 495/495
f 496/496 495/495 497/497
f 498/498 497/497 499/499
f 500/500 499/499 501/501
f 502/502 501/501 503/503
f 504/504 503/503 505/505
f 506/506 505/505 507/507
f 508/508 507/507 478/478
f 509/509 477/477 480/480
f 510/510 480/480 482/482
f 511/511 482/482 484/484
f 512/512 484/484 486/486
f 513/513 486/486 488/488
f 514/514 488/488 490/490
f 515/515 490/490 492/492
f 516/516 492/492 494/494
f 517/517 494/494 496/496
f 518/518 496/496 498/498
f 519/519 498/498 500/500
f 520/520 500/500 502/502
f 521/521 502/502 504/504
f 522/522 504/504 506/506
f 523/523 506/506 508/508
f 524/524 508/508 477/477
f 525/525 509/509 510/510
f 526/526 510/510 511/511
f 527/527 511/511 512/512
f 528/528 512/512 513/513
f 529/529 513/513 514/514
f 530/530 514/514 515/515
f 531/531 515/515 516/516
f 532/532 516/516 517/517
f 533/533 517/517 518/518
f 534/534 518/518 519/519
f 535/535 519/519 520/520
f 536/536 520/520 521/521
f 537/537 521/521 522/522
f 538/538 522/522 523/523
f 539/539 523/523 524/524
f 540/540 524/524 509/509
f 541/541 525/525 526/526
f 542/542 526/526 527/527
f 543/543 527/527 528/528
f 544/544 528/528 529/529
f 545/545 529/529 530/530
f 546/546 530/530 531/531
f 547/547 531/531 532/532
f 548/548 532/532 533/533
f 549/549 533/533 534/534
f 550/550 534/534 535/535
f 551/551 535/535 536/536
f 552/552 536/536 537/537
f 553/553 537/537 538/538
f 554/554 538/538 539/539
f 555/555 539/539 540/540
f 556/556 540/540 525/525
f 525/525 541/541 556/556
f 540/540 556/556 555/555
f 539/539 555/555 554/554
f 538/538 554/554 553/553
f 537/537 553/553 552/552
f 536/536 552/552 551/551
f 535/535 551/551 550/550
f 534/534 550/550 549/549
f 533/533 549/549 548/548
f 532/532 548/548 547/547
f 531/531 547/547 546/546
f 530/530 546/546 545/545
f 529/529 545/545 544/544
f 528/528 544/544 543/543
f 527/527 543/543 542/542
f 526/526 542/542 541/541
f 509/509 525/525 540/540
f 524/524 540/540 539/539
f 523/523 539/539 538/538
f 522/522 538/538 537/537
f 521/521 537/537 536/536
f 520/520 536/536 535/535
f 519/519 535/535 534/534
f 518/518 534/534 533/533
f 517/517 533/533 532/532
f 516/516 532/532 531/531
f 515/515 531/531 530/530
f 514/514 530/530 529/529
f 513/513 529/529 528/528
f 512/512 528/528 527/527
f 511/511 527/527 526/526
f 510/510 526/526 525/525
f 477/477 509/509 524/524
f 508/508 524/524 523/523
f 506/506 523/523 522/522
f 504/504 522/522 521/521
f 502/502 521/521 520/520
f 500/500 520/520 519/519
f 498/498 519/519 518/518
f 496/496 518/518 517/517
f 494/494 517/517 516/516
f 492/492 516/516 515/515
f 490/490 515/515 514/514
f 488/488 514/514 513/513
f 486/486 513/513 512/512
f 484/484 512/512 511/511
f 482/482 511/511 510/510
f 480/480 510/510 509/509
f 478/478 477/477 508/508
f 507/507 508/508 506/506
f 505/505 506/506 504/504
f 503/503 504/504 502/502
f 501/501 502/502 500/500
f 499/499 500/500 498/498
f 497/497 498/498 496/496
f 495/495 496/496 494/494
f 493/493 494/494 492/492
f 491/491 492/492 490/490
f 489/489 490/490 488/488
f 487/487 488/488 486/486
f 485/485 486/486 484/484
f 483/483 484/484 482/482
f 481/481 482/482 480/480
f 479/479 480/480 477/477
f 557/557 558/558 559/559
f 560/560 561/561 562/562
f 563/563 564/564 565/565
f 563/563 566/566 567/567
f 568/568 565/565 557/557
f 558/558 569/569 570/570
f 569/569 571/571 572/572
f 573/573 562/562 574/574
f 562/562 573/573 560/560
f 575/575 576/576 577/577
f 575/575 561/561 578/578
f 567/567 564/564 563/563
f 570/570 559/559 558/558
f 571/571 574/574 572/572
f 560/560 578/578 561/561
f 578/578 576/576 575/575
f 579/579 580/580 581/581
f 559/559 568/568 557/557
f 574/574 571/571 573/573
f 581/581 575/575 579/579
f 580/580 582/582 583/583
f 582/582 584/584 585/585
f 584/584 586/586 587/587
f 572/572 570/570 569/569
f 583/583 581/581 580/580
f 587/587 585/585 584/584
f 586/586 588/588 589/589
f 590/590 591/591 592/592
f 591/591 566/566 563/563
f 577/577 579/579 575/575
f 589/589 587/587 586/586
f 588/588 590/590 593/593
f 563/563 592/592 591/591
f 585/585 583/583 582/582
f 592/592 593/593 590/590
f 593/593 589/589 588/588
f 565/565 568/568 563/563
f 594/594 595/595 596/596
f 597/597 598/598 595/595
f 595/595 594/594 597/597
f 594/594 599/599 600/600
f 594/594 601/601 599/599
f 594/594 602/602 601/601
f 603/603 604/604 605/605
f 603/603 600/600 606/606
f 606/606 604/604 603/603
f 607/607 605/605 608/608
f 609/609 608/608 610/610
f 611/611 610/610 612/612
f 612/612 613/613 611/611
f 610/610 611/611 609/609
f 608/608 609/609 607/607
f 605/605 607/607 603/603
f 600/600 603/603 594/594
f 596/596 602/602 594/594
f 614/614 615/615 616/616
f 617/617 614/614 618/618
f 618/618 619/619 617/617
f 619/619 620/620 617/617
f 621/621 617/617 622/622
f 622/622 623/623 621/621
f 624/624 625/625 626/626
f 626/626 621/621 624/624
f 626/626 627/627 621/621
f 621/621 627/627 628/628
f 617/617 621/621 629/629
f 617/617 630/630 631/631
f 614/614 631/631 632/632
f 632/632 615/615 614/614
f 631/631 614/614 617/617
f 629/629 630/630 617/617
f 628/628 629/629 621/621
f 625/625 633/633 626/626
f 623/623 624/624 621/621
f 620/620 622/622 617/617
f 616/616 618/618 614/614
f 634/634 635/635 636/636
f 634/634 637/637 635/635
f 636/636 638/638 634/634
f 634/634 639/639 640/640
f 641/641 642/642 643/643
f 640/640 637/637 634/634
f 643/643 642/642 644/644
f 636/636 641/641 638/638
f 643/643 638/638 641/641
f 644/644 645/645 643/643
f 646/646 647/647 648/648
f 647/647 649/649 648/648
f 647/647 650/650 651/651
f 650/650 652/652 651/651
f 653/653 654/654 655/655
f 655/655 650/650 653/653
f 646/646 656/656 657/657
f 658/658 659/659 656/656
f 656/656 646/646 658/658
f 660/660 657/657 661/661
f 662/662 663/663 664/664
f 654/654 653/653 665/665
f 653/653 662/662 666/666
f 666/666 665/665 653/653
f 665/665 667/667 654/654
f 664/664 666/666 662/662
f 661/661 668/668 660/660
f 657/657 660/660 646/646
f 655/655 652/652 650/650
f 651/651 649/649 647/647
f 648/648 658/658 646/646
f 669/669 670/670 671/671
f 670/670 672/672 673/673
f 672/672 674/674 675/675
f 674/674 676/676 677/677
f 676/676 678/678 679/679
f 678/678 680/680 681/681
f 682/682 671/671 683/683
f 671/671 673/673 684/684
f 673/673 675/675 685/685
f 675/675 677/677 686/686
f 677/677 679/679 687/687
f 679/679 681/681 688/688
f 689/689 683/683 690/690
f 683/683 684/684 691/691
f 684/684 685/685 692/692
f 685/685 686/686 693/693
f 686/686 687/687 694/694
f 687/687 688/688 695/695
f 695/695 694/694 687/687
f 694/694 693/693 686/686
f 693/693 692/692 685/685
f 692/692 691/691 684/684
f 691/691 690/690 683/683
f 690/690 696/696 689/689
f 688/688 687/687 679/679
f 687/687 686/686 677/677
f 686/686 685/685 675/675
f 685/685 684/684 673/673
f 684/684 683/683 671/671
f 683/683 689/689 682/682
f 681/681 679/679 678/678
f 679/679 677/677 676/676
f 677/677 675/675 674/674
f 675/675 673/673 672/672
f 673/673 671/671 670/670
f 671/671 682/682 669/669
f 680/680 678/678 697/697
f 678/678 676/676 697/697
f 676/676 674/674 697/697
f 674/674 672/672 697/697
f 672/672 670/670 697/697
f 670/670 669/669 697/697
f 698/698 699/699 700/700
f 701/701 702/702 703/703
f 703/703 704/704 701/701
f 705/705 706/706 707/707
f 708/708 705/705 709/709
f 702/702 708/708 710/710
f 710/710 711/711 702/702
f 711/711 703/703 702/702
f 709/709 710/710 708/708
f 707/707 709/709 705/705
f 704/704 712/712 701/701
f 713/713 714/714 715/715
f 714/714 716/716 717/717
f 716/716 718/718 719/719
f 718/718 720/720 721/721
f 722/722 715/715 723/723
f 715/715 717/717 724/724
f 717/717 719/719 725/725
f 719/719 721/721 726/726
f 727/727 723/723 728/728
f 723/723 724/724 729/729
f 724/724 725/725 730/730
f 725/725 726/726 731/731
f 728/728 732/732 733/733
f 733/733 734/734 728/728
f 729/729 735/735 736/736
f 736/736 728/728 729/729
f 729/729 730/730 737/737
f 730/730 738/738 737/737
f 730/730 731/731 739/739
f 731/731 740/740 739/739
f 739/739 738/738 730/730
f 737/737 735/735 729/729
f 736/736 732/732 728/728
f 733/733 741/741 734/734
f 731/731 730/730 725/725
f 730/730 729/729 724/724
f 729/729 728/728 723/723
f 728/728 734/734 727/727
f 726/726 725/725 719/719
f 725/725 724/724 717/717
f 724/724 723/723 715/715
f 723/723 727/727 722/722
f 721/721 719/719 718/718
f 719/719 717/717 716/716
f 717/717 715/715 714/714
f 715/715 722/722 713/713
f 742/742 743/743 744/744
f 745/745 742/742 746/746
f 742/742 747/747 746/746
f 746/746 748/748 745/745
f 742/742 749/749 750/750
f 742/742 751/751 749/749
f 752/752 753/753 754/754
f 754/754 755/755 752/752
f 752/752 750/750 753/753
f 755/755 756/756 757/757
f 755/755 758/758 759/759
f 752/752 755/755 760/760
f 752/752 761/761 743/743
f 743/743 742/742 752/752
f 760/760 761/761 752/752
f 759/759 760/760 755/755
f 757/757 758/758 755/755
f 754/754 756/756 755/755
f 750/750 752/752 742/742
f 745/745 751/751 742/742
f 744/744 747/747 742/742
f 762/762 763/763 764/764
f 764/764 765/765 762/762
f 765/765 766/766 762/762
f 767/767 762/762 768/768
f 768/768 769/769 767/767
f 769/769 770/770 767/767
f 771/771 772/772 773/773
f 774/774 771/771 775/775
f 776/776 774/774 777/777
f 763/763 778/778 779/779
f 763/763 776/776 780/780
f 780/780 778/778 763/763
f 779/779 764/764 763/763
f 777/777 780/780 776/776
f 775/775 777/777 774/774
f 773/773 775/775 771/771
f 770/770 781/781 767/767
f 766/766 768/768 762/762
f 782/782 783/783 784/784
f 784/784 785/785 782/782
f 782/782 786/786 787/787
f 783/783 788/788 784/784
f 785/785 786/786 782/782
f 788/788 783/783 789/789
f 789/789 790/790 788/788
f 789/789 791/791 792/792
f 792/792 790/790 789/789
f 787/787 793/793 782/782
f 794/794 795/795 796/796
f 795/795 797/797 798/798
f 797/797 799/799 800/800
f 799/799 801/801 802/802
f 801/801 803/803 804/804
f 803/803 805/805 806/806
f 807/807 796/796 808/808
f 796/796 798/798 809/809
f 798/798 800/800 810/810
f 800/800 802/802 811/811
f 802/802 804/804 812/812
f 804/804 806/806 813/813
f 814/814 808/808 815/815
f 808/808 809/809 816/816
f 809/809 810/810 817/817
f 810/810 811/811 818/818
f 811/811 812/812 819/819
f 812/812 813/813 820/820
f 820/820 819/819 812/812
f 819/819 818/818 811/811
f 818/818 817/817 810/810
f 817/817 816/816 809/809
f 816/816 815/815 808/808
f 815/815 821/821 814/814
f 813/813 812/812 804/804
f 812/812 811/811 802/802
f 811/811 810/810 800/800
f 810/810 809/809 798/798
f 809/809 808/808 796/796
f 808/808 814/814 807/807
f 806/806 804/804 803/803
f 804/804 802/802 801/801
f 802/802 800/800 799/799
f 800/800 798/798 797/797
f 798/798 796/796 795/795
f 796/796 807/807 794/794
f 805/805 803/803 822/822
f 803/803 801/801 822/822
f 801/801 799/799 822/822
f 799/799 797/797 822/822
f 797/797 795/795 822/822
f 795/795 794/794 822/822
f 823/823 824/824 825/825
f 826/826 827/827 828/828
f 829/829 828/828 830/830
f 831/831 832/832 833/833
f 831/831 834/834 832/832
f 835/835 836/836 827/827
f 835/835 833/833 836/836
f 827/827 826/826 835/835
f 833/833 835/835 831/831
f 830/830 837/837 829/829
f 828/828 829/829 826/826
f 838/838 839/839 840/840
f 841/841 842/842 843/843
f 841/841 840/840 842/842
f 843/843 844/844 841/841
f 841/841 845/845 840/840
f 840/840 845/845 838/838
f 846/846 847/847 848/848
f 849/849 850/850 851/851
f 851/851 852/852 849/849
f 848/848 847/847 849/849
f 852/852 848/848 849/849
f 848/848 853/853 846/846
f 854/854 855/855 856/856
f 855/855 857/857 858/858
f 858/858 856/856 855/855
f 854/854 859/859 860/860
f 861/861 860/860 862/862
f 863/863 862/862 864/864
f 865/865 864/864 866/866
f 867/867 866/866 868/868
f 869/869 868/868 870/870
f 871/871 870/870 872/872
f 873/873 874/874 875/875
f 876/876 872/872 874/874
f 874/874 873/873 876/876
f 875/875 877/877 873/873
f 872/872 876/876 871/871
f 870/870 871/871 869/869
f 868/868 869/869 867/867
f 866/866 867/867 865/865
f 864/864 865/865 863/863
f 862/862 863/863 861/861
f 860/860 861/861 854/854
f 856/856 859/859 854/854
f 878/878 879/879 880/880
f 881/881 882/882 883/883
f 884/884 885/885 882/882
f 886/886 887/887 885/885
f 878/878 888/888 879/879
f 889/889 890/890 891/891
f 890/890 889/889 892/892
f 893/893 894/894 895/895
f 896/896 894/894 893/893
f 897/897 883/883 898/898
f 882/882 881/881 884/884
f 886/886 899/899 887/887
f 878/878 891/891 888/888
f 892/892 900/900 890/890
f 892/892 901/901 895/895
f 893/893 902/902 896/896
f 883/883 897/897 881/881
f 886/886 880/880 899/899
f 891/891 878/878 889/889
f 895/895 901/901 893/893
f 878/878 903/903 904/904
f 885/885 884/884 886/886
f 895/895 900/900 892/892
f 902/902 905/905 906/906
f 904/904 907/907 878/878
f 880/880 886/886 878/878
f 905/905 898/898 906/906
f 878/878 886/886 903/903
f 906/906 896/896 902/902
f 907/907 908/908 878/878
f 908/908 909/909 878/878
f 898/898 910/910 897/897
f 905/905 910/910 898/898
f 911/911 912/912 913/913
f 914/914 913/913 915/915
f 916/916 915/915 917/917
f 918/918 917/917 919/919
f 920/920 919/919 921/921
f 922/922 921/921 923/923
f 924/924 923/923 925/925
f 926/926 925/925 927/927
f 928/928 927/927 929/929
f 930/930 929/929 931/931
f 932/932 931/931 933/933
f 934/934 933/933 935/935
f 936/936 935/935 937/937
f 938/938 937/937 939/939
f 940/940 939/939 941/941
f 942/942 941/941 912/912
f 943/943 911/911 914/914
f 944/944 914/914 916/916
f 945/945 916/916 918/918
f 946/946 918/918 920/920
f 947/947 920/920 922/922
f 948/948 922/922 924/924
f 949/949 924/924 926/926
f 950/950 926/926 928/928
f 951/951 928/928 930/930
f 952/952 930/930 932/932
f 953/953 932/932 934/934
f 954/954 934/934 936/936
f 955/955 936/936 938/938
f 956/956 938/938 940/940
f 957/957 940/940 942/942
f 958/958 942/942 911/911
f 959/959 943/943 944/944
f 960/960 944/944 945/945
f 961/961 945/945 946/946
f 962/962 946/946 947/947
f 963/963 947/947 948/948
f 964/964 948/948 949/949
f 965/965 949/949 950/950
f 966/966 950/950 951/951
f 967/967 951/951 952/952
f 968/968 952/952 953/953
f 969/969 953/953 954/954
f 970/970 954/954 955/955
f 971/971 955/955 956/956
f 972/972 956/956 957/957
f 973/973 957/957 958/958
f 974/974 958/958 943/943
f 975/975 959/959 960/960
f 976/976 960/960 961/961
f 977/977 961/961 962/962
f 978/978 962/962 963/963
f 979/979 963/963 964/964
f 980/980 964/964 965/965
f 981/981 965/965 966/966
f 982/982 966/966 967/967
f 983/983 967/967 968/968
f 984/984 968/968 969/969
f 985/985 969/969 970/970
f 986/986 970/970 971/971
f 987/987 971/971 972/972
f 988/988 972/972 973/973
f 989/989 973/973 974/974
f 990/990 974/974 959/959
f 959/959 975/975 990/990
f 974/974 990/990 989/989
f 973/973 989/989 988/988
f 972/972 988/988 987/987
f 971/971 987/987 986/986
f 970/970 986/986 985/985
f 969/969 985/985 984/984
f 968/968 984/984 983/983
f 967/967 983/983 982/982
f 966/966 982/982 981/981
f 965/965 981/981 980/980
f 964/964 980/980 979/979
f 963/963 979/979 978/978
f 962/962 978/978 977/977
f 961/961 977/977 976/976
f 960/960 976/976 975/975
f 943/943 959/959 974/974
f 958/958 974/974 973/973
f 957/957 973/973 972/972
f 956/956 972/972 971/971
f 955/955 971/971 970/970
f 954/954 970/970 969/969
f 953/953 969/969 968/968
f 952/952 968/968 967/967
f 951/951 967/967 966/966
f 950/950 966/966 965/965
f 949/949 965/965 964/964
f 948/948 964/964 963/963
f 947/947 963/963 962/962
f 946/946 962/962 961/961
f 945/945 961/961 960/960
f 944/944 960/960 959/959
f 911/911 943/943 958/958
f 942/942 958/958 957/957
f 940/940 957/957 956/956
f 938/938 956/956 955/955
f 936/936 955/955 954/954
f 934/934 954/954 953/953
f 932/932 953/953 952/952
f 930/930 952/952 951/951
f 928/928 951/951 950/950
f 926/926 950/950 949/949
f 924/924 949/949 948/948
f 922/922 948/948 947/947
f 920/920 947/947 946/946
f 918/918 946/946 945/945
f 916/916 945/945 944/944
f 914/914 944/944 943/943
f 912/912 911/911 942/942
f 941/941 942/942 940/940
f 939/939 940/940 938/938
f 937/937 938/938 936/936
f 935/935 936/936 934/934
f 933/933 934/934 932/932
f 931/931 932/932 930/930
f 929/929 930/930 928/928
f 927/927 928/928 926/926
f 925/925 926/926 924/924
f 923/923 924/924 922/922
f 921/921 922/922 920/920
f 919/919 920/920 918/918
f 917/917 918/918 916/916
f 915/915 916/916 914/914
f 913/913 914/914 911/911
f 991/991 992/992 993/993
f 994/994 991/991 995/995
f 996/996 994/994 997/997
f 998/998 996/996 999/999
f 1000/1000 998/998 1001/1001
f 1002/1002 1000/1000 1003/1003
f 1004/1004 1002/1002 1005/1005
f 1006/1006 1004/1004 1007/1007
f 1008/1008 1006/1006 1009/1009
f 1010/1010 1008/1008 1011/1011
f 1012/1012 1010/1010 1013/1013
f 1014/1014 1012/1012 1015/1015
f 1016/1016 1014/1014 1017/1017
f 1018/1018 1016/1016 1019/1019
f 1020/1020 1018/1018 1021/1021
f 992/992 1020/1020 1022/1022
f 1022/1022 993/993 992/992
f 1021/1021 1022/1022 1020/1020
f 1019/1019 1021/1021 1018/1018
f 1017/1017 1019/1019 1016/1016
f 1015/1015 1017/1017 1014/1014
f 1013/1013 1015/1015 1012/1012
f 1011/1011 1013/1013 1010/1010
f 1009/1009 1011/1011 1008/1008
f 1007/1007 1009/1009 1006/1006
f 1005/1005 1007/1007 1004/1004
f 1003/1003 1005/1005 1002/1002
f 1001/1001 1003/1003 1000/1000
f 999/999 1001/1001 998/998
f 997/997 999/999 996/996
f 995/995 997/997 994/994
f 993/993 995/995 991/991
f 1023/1023 1024/1024 1025/1025
f 1026/1026 1023/1023 1027/1027
f 1028/1028 1026/1026 1029/1029
f 1030/1030 1028/1028 1031/1031
f 1032/1032 1030/1030 1033/1033
f 1034/1034 1032/1032 1035/1035
f 1036/1036 1034/1034 1037/1037
f 1038/1038 1036/1036 1039/1039
f 1040/1040 1038/1038 1041/1041
f 1042/1042 1040/1040 1043/1043
f 1044/1044 1042/1042 1045/1045
f 1046/1046 1044/1044 1047/1047
f 1048/1048 1046/1046 1049/1049
f 1050/1050 1048/1048 1051/1051
f 1052/1052 1050/1050 1053/1053
f 1024/1024 1052/1052 1054/1054
f 1054/1054 1025/1025 1024/1024
f 1053/1053 1054/1054 1052/1052
f 1051/1051 1053/1053 1050/1050
f 1049/1049 1051/1051 1048/1048
f 1047/1047 1049/1049 1046/1046
f 1045/1045 1047/1047 1044/1044
f 1043/1043 1045/1045 1042/1042
f 1041/1041 1043/1043 1040/1040
f 1039/1039 1041/1041 1038/1038
f 1037/1037 1039/1039 1036/1036
f 1035/1035 1037/1037 1034/1034
f 1033/1033 1035/1035 1032/1032
f 1031/1031 1033/1033 1030/1030
f 1029/1029 1031/1031 1028/1028
f 1027/1027 1029/1029 1026/1026
f 1025/1025 1027/1027 1023/1023
f 1055/1055 1056/1056 1057/1057
f 1055/1055 1058/1058 1059/1059
f 1060/1060 1061/1061 1062/1062
f 1061/1061 1063/1063 1064/1064
f 1065/1065 1066/1066 1067/1067
f 1066/1066 1068/1068 1069/1069
f 1070/1070 1071/1071 1072/1072
f 1073/1073 1074/1074 1071/1071
f 1075/1075 1076/1076 1074/1074
f 1077/1077 1057/1057 1076/1076
f 1059/1059 1056/1056 1055/1055
f 1058/1058 1060/1060 1078/1078
f 1064/1064 1062/1062 1061/1061
f 1063/1063 1065/1065 1079/1079
f 1069/1069 1067/1067 1066/1066
f 1068/1068 1080/1080 1081/1081
f 1082/1082 1083/1083 1081/1081
f 1084/1084 1085/1085 1083/1083
f 1086/1086 1072/1072 1085/1085
f 1071/1071 1070/1070 1073/1073
f 1076/1076 1075/1075 1077/1077
f 1078/1078 1059/1059 1058/1058
f 1079/1079 1064/1064 1063/1063
f 1081/1081 1069/1069 1068/1068
f 1083/1083 1082/1082 1084/1084
f 1072/1072 1086/1086 1070/1070
f 1057/1057 1077/1077 1055/1055
f 1067/1067 1079/1079 1065/1065
f 1085/1085 1084/1084 1086/1086
f 1062/1062 1078/1078 1060/1060
f 1074/1074 1073/1073 1075/1075
f 1081/1081 1080/1080 1082/1082

