# https://github.com/mikedh/trimesh
mtllib material.mtl
usemtl 0.262745_0.282353_0.301961_0.000000_0.000000
v 0.03126906 -0.06635000 0.07549020
v 0.02130722 -0.06635000 0.07747173
v 0.02130722 -0.07270000 0.07747173
v 0.00000000 -0.07270000 0.08171000
v 0.00000000 -0.06635000 0.08171000
v 0.05777770 -0.06635000 0.05777770
v 0.04610541 -0.06635000 0.06557687
v 0.04610541 -0.07270000 0.06557687
v 0.03126906 -0.07270000 0.07549020
v 0.07549020 -0.06635000 0.03126906
v 0.06994745 -0.06635000 0.03956437
v 0.06994745 -0.07270000 0.03956437
v 0.06008830 -0.07270000 0.05431963
v 0.06008830 -0.06635000 0.05431963
v 0.05967421 -0.07270000 0.05493937
v 0.05967421 -0.06635000 0.05493937
v 0.05777770 -0.07270000 0.05777770
v 0.07549020 -0.07270000 0.03126906
v 0.08171000 -0.07270000 -0.00000000
v 0.08171000 -0.06635000 -0.00000000
v 0.07549020 -0.07270000 -0.03126906
v 0.05777770 -0.07270000 -0.05777770
v 0.05777770 -0.06635000 -0.05777770
v 0.05967421 -0.06635000 -0.05493937
v 0.06008830 -0.06635000 -0.05431963
v 0.06008830 -0.07270000 -0.05431963
v 0.05967421 -0.07270000 -0.05493937
v 0.07549020 -0.06635000 -0.03126906
v 0.03126906 -0.06635000 -0.07549020
v 0.04610541 -0.06635000 -0.06557687
v 0.04610541 -0.07270000 -0.06557687
v 0.00000000 -0.06635000 -0.08171000
v 0.02130722 -0.06635000 -0.07747173
v 0.02130722 -0.07270000 -0.07747173
v 0.03126906 -0.07270000 -0.07549020
v -0.03126906 -0.06635000 -0.07549020
v -0.02130722 -0.06635000 -0.07747173
v -0.02130722 -0.07270000 -0.07747173
v 0.00000000 -0.07270000 -0.08171000
v -0.05777770 -0.06635000 -0.05777770
v -0.04610541 -0.06635000 -0.06557687
v -0.04610541 -0.07270000 -0.06557687
v -0.03126906 -0.07270000 -0.07549020
v -0.07549020 -0.07270000 -0.03126906
v -0.07549020 -0.06635000 -0.03126906
v -0.06008830 -0.06635000 -0.05431963
v -0.05967421 -0.06635000 -0.05493937
v -0.05967421 -0.07270000 -0.05493937
v -0.06008830 -0.07270000 -0.05431963
v -0.05777770 -0.07270000 -0.05777770
v -0.08171000 -0.06635000 -0.00000000
v -0.07670580 -0.06635000 -0.02515782
v -0.07670580 -0.07270000 -0.02515782
v -0.07549020 -0.06635000 0.03126906
v -0.07670580 -0.06635000 0.02515782
v -0.07670580 -0.07270000 0.02515782
v -0.08171000 -0.07270000 -0.00000000
v -0.05777770 -0.06635000 0.05777770
v -0.05967421 -0.06635000 0.05493937
v -0.05967421 -0.07270000 0.05493937
v -0.06008830 -0.07270000 0.05431963
v -0.06008830 -0.06635000 0.05431963
v -0.06994745 -0.07270000 0.03956437
v -0.06994745 -0.06635000 0.03956437
v -0.07549020 -0.07270000 0.03126906
v -0.03126906 -0.06635000 0.07549020
v -0.04610541 -0.06635000 0.06557687
v -0.04610541 -0.07270000 0.06557687
v -0.05777770 -0.07270000 0.05777770
v -0.02130722 -0.06635000 0.07747173
v -0.02130722 -0.07270000 0.07747173
v -0.03126906 -0.07270000 0.07549020
v -0.02065534 -0.06635000 0.04986640
v 0.00000000 -0.06635000 0.05397500
v 0.00000000 -0.07270000 0.05397500
v -0.03816609 -0.06635000 0.03816609
v -0.03607342 -0.06635000 0.03956437
v -0.03607342 -0.07270000 0.03956437
v -0.02130722 -0.06635000 0.04943083
v -0.02130722 -0.07270000 0.04943083
v -0.02065534 -0.07270000 0.04986640
v -0.04986640 -0.06635000 0.02065534
v -0.03816609 -0.07270000 0.03816609
v -0.05397500 -0.06635000 -0.00000000
v -0.04986640 -0.07270000 0.02065534
v -0.04986640 -0.06635000 -0.02065534
v -0.05397500 -0.07270000 -0.00000000
v -0.03816609 -0.06635000 -0.03816609
v -0.04986640 -0.07270000 -0.02065534
v -0.02065534 -0.06635000 -0.04986640
v -0.02130722 -0.06635000 -0.04943083
v -0.02130722 -0.07270000 -0.04943083
v -0.03816609 -0.07270000 -0.03816609
v 0.00000000 -0.06635000 -0.05397500
v -0.02065534 -0.07270000 -0.04986640
v 0.02065534 -0.06635000 -0.04986640
v 0.00000000 -0.07270000 -0.05397500
v 0.03816609 -0.06635000 -0.03816609
v 0.02130722 -0.06635000 -0.04943083
v 0.02130722 -0.07270000 -0.04943083
v 0.02065534 -0.07270000 -0.04986640
v 0.04986640 -0.06635000 -0.02065534
v 0.03816609 -0.07270000 -0.03816609
v 0.05397500 -0.06635000 -0.00000000
v 0.04986640 -0.07270000 -0.02065534
v 0.04986640 -0.06635000 0.02065534
v 0.05397500 -0.07270000 -0.00000000
v 0.03816609 -0.06635000 0.03816609
v 0.04986640 -0.07270000 0.02065534
v 0.02065534 -0.06635000 0.04986640
v 0.02130722 -0.06635000 0.04943083
v 0.02130722 -0.07270000 0.04943083
v 0.03607342 -0.07270000 0.03956437
v 0.03607342 -0.06635000 0.03956437
v 0.03816609 -0.07270000 0.03816609
v 0.02065534 -0.07270000 0.04986640
v 0.04156205 -0.06635000 0.06119440
v 0.04261443 -0.06635000 0.06140373
v 0.04261443 -0.07270000 0.06140373
v 0.04066989 -0.06635000 0.06059828
v 0.04156205 -0.07270000 0.06119440
v 0.04007376 -0.06635000 0.05970611
v 0.04066989 -0.07270000 0.06059828
v 0.03986443 -0.06635000 0.05865373
v 0.04007376 -0.07270000 0.05970611
v 0.04007376 -0.06635000 0.05760135
v 0.03986443 -0.07270000 0.05865373
v 0.04066989 -0.06635000 0.05670919
v 0.04007376 -0.07270000 0.05760135
v 0.04156205 -0.06635000 0.05611306
v 0.04066989 -0.07270000 0.05670919
v 0.04261443 -0.06635000 0.05590373
v 0.04156205 -0.07270000 0.05611306
v 0.04366681 -0.06635000 0.05611306
v 0.04261443 -0.07270000 0.05590373
v 0.04455898 -0.06635000 0.05670919
v 0.04366681 -0.07270000 0.05611306
v 0.04515510 -0.06635000 0.05760135
v 0.04455898 -0.07270000 0.05670919
v 0.04536443 -0.06635000 0.05865373
v 0.04515510 -0.07270000 0.05760135
v 0.04515510 -0.06635000 0.05970611
v 0.04536443 -0.07270000 0.05865373
v 0.04455898 -0.06635000 0.06059828
v 0.04515510 -0.07270000 0.05970611
v 0.04366681 -0.06635000 0.06119440
v 0.04455898 -0.07270000 0.06059828
v 0.04366681 -0.07270000 0.06119440
v 0.06789922 -0.06635000 0.02494440
v 0.06895160 -0.06635000 0.02515373
v 0.06895160 -0.07270000 0.02515373
v 0.06700706 -0.06635000 0.02434828
v 0.06789922 -0.07270000 0.02494440
v 0.06641093 -0.06635000 0.02345611
v 0.06700706 -0.07270000 0.02434828
v 0.06620160 -0.06635000 0.02240373
v 0.06641093 -0.07270000 0.02345611
v 0.06641093 -0.06635000 0.02135135
v 0.06620160 -0.07270000 0.02240373
v 0.06700706 -0.06635000 0.02045919
v 0.06641093 -0.07270000 0.02135135
v 0.06789922 -0.06635000 0.01986306
v 0.06700706 -0.07270000 0.02045919
v 0.06895160 -0.06635000 0.01965373
v 0.06789922 -0.07270000 0.01986306
v 0.07000398 -0.06635000 0.01986306
v 0.06895160 -0.07270000 0.01965373
v 0.07089614 -0.06635000 0.02045919
v 0.07000398 -0.07270000 0.01986306
v 0.07149227 -0.06635000 0.02135135
v 0.07089614 -0.07270000 0.02045919
v 0.07170160 -0.06635000 0.02240373
v 0.07149227 -0.07270000 0.02135135
v 0.07149227 -0.06635000 0.02345611
v 0.07170160 -0.07270000 0.02240373
v 0.07089614 -0.06635000 0.02434828
v 0.07149227 -0.07270000 0.02345611
v 0.07000398 -0.06635000 0.02494440
v 0.07089614 -0.07270000 0.02434828
v 0.07000398 -0.07270000 0.02494440
v 0.06789922 -0.06635000 -0.01986306
v 0.06895160 -0.06635000 -0.01965373
v 0.06895160 -0.07270000 -0.01965373
v 0.06700706 -0.06635000 -0.02045919
v 0.06789922 -0.07270000 -0.01986306
v 0.06641093 -0.06635000 -0.02135135
v 0.06700706 -0.07270000 -0.02045919
v 0.06620160 -0.06635000 -0.02240373
v 0.06641093 -0.07270000 -0.02135135
v 0.06641093 -0.06635000 -0.02345611
v 0.06620160 -0.07270000 -0.02240373
v 0.06700706 -0.06635000 -0.02434828
v 0.06641093 -0.07270000 -0.02345611
v 0.06789922 -0.06635000 -0.02494440
v 0.06700706 -0.07270000 -0.02434828
v 0.06895160 -0.06635000 -0.02515373
v 0.06789922 -0.07270000 -0.02494440
v 0.07000398 -0.06635000 -0.02494440
v 0.06895160 -0.07270000 -0.02515373
v 0.07089614 -0.06635000 -0.02434828
v 0.07000398 -0.07270000 -0.02494440
v 0.07149227 -0.06635000 -0.02345611
v 0.07089614 -0.07270000 -0.02434828
v 0.07170160 -0.06635000 -0.02240373
v 0.07149227 -0.07270000 -0.02345611
v 0.07149227 -0.06635000 -0.02135135
v 0.07170160 -0.07270000 -0.02240373
v 0.07089614 -0.06635000 -0.02045919
v 0.07149227 -0.07270000 -0.02135135
v 0.07000398 -0.06635000 -0.01986306
v 0.07089614 -0.07270000 -0.02045919
v 0.07000398 -0.07270000 -0.01986306
v 0.04156205 -0.06635000 -0.05611306
v 0.04261443 -0.06635000 -0.05590373
v 0.04261443 -0.07270000 -0.05590373
v 0.04066989 -0.06635000 -0.05670919
v 0.04156205 -0.07270000 -0.05611306
v 0.04007376 -0.06635000 -0.05760135
v 0.04066989 -0.07270000 -0.05670919
v 0.03986443 -0.06635000 -0.05865373
v 0.04007376 -0.07270000 -0.05760135
v 0.04007376 -0.06635000 -0.05970611
v 0.03986443 -0.07270000 -0.05865373
v 0.04066989 -0.06635000 -0.06059828
v 0.04007376 -0.07270000 -0.05970611
v 0.04156205 -0.06635000 -0.06119440
v 0.04066989 -0.07270000 -0.06059828
v 0.04261443 -0.06635000 -0.06140373
v 0.04156205 -0.07270000 -0.06119440
v 0.04366681 -0.06635000 -0.06119440
v 0.04261443 -0.07270000 -0.06140373
v 0.04455898 -0.06635000 -0.06059828
v 0.04366681 -0.07270000 -0.06119440
v 0.04515510 -0.06635000 -0.05970611
v 0.04455898 -0.07270000 -0.06059828
v 0.04536443 -0.06635000 -0.05865373
v 0.04515510 -0.07270000 -0.05970611
v 0.04515510 -0.06635000 -0.05760135
v 0.04536443 -0.07270000 -0.05865373
v 0.04455898 -0.06635000 -0.05670919
v 0.04515510 -0.07270000 -0.05760135
v 0.04366681 -0.06635000 -0.05611306
v 0.04455898 -0.07270000 -0.05670919
v 0.04366681 -0.07270000 -0.05611306
v -0.00105238 -0.06635000 -0.06995933
v -0.00000000 -0.06635000 -0.06975000
v -0.00000000 -0.07270000 -0.06975000
v -0.00194454 -0.06635000 -0.07055546
v -0.00105238 -0.07270000 -0.06995933
v -0.00254067 -0.06635000 -0.07144762
v -0.00194454 -0.07270000 -0.07055546
v -0.00275000 -0.06635000 -0.07250000
v -0.00254067 -0.07270000 -0.07144762
v -0.00254067 -0.06635000 -0.07355238
v -0.00275000 -0.07270000 -0.07250000
v -0.00194454 -0.06635000 -0.07444455
v -0.00254067 -0.07270000 -0.07355238
v -0.00105238 -0.06635000 -0.07504067
v -0.00194454 -0.07270000 -0.07444455
v -0.00000000 -0.06635000 -0.07525000
v -0.00105238 -0.07270000 -0.07504067
v 0.00105238 -0.06635000 -0.07504067
v -0.00000000 -0.07270000 -0.07525000
v 0.00194454 -0.06635000 -0.07444455
v 0.00105238 -0.07270000 -0.07504067
v 0.00254067 -0.06635000 -0.07355238
v 0.00194454 -0.07270000 -0.07444455
v 0.00275000 -0.06635000 -0.07250000
v 0.00254067 -0.07270000 -0.07355238
v 0.00254067 -0.06635000 -0.07144762
v 0.00275000 -0.07270000 -0.07250000
v 0.00194454 -0.06635000 -0.07055546
v 0.00254067 -0.07270000 -0.07144762
v 0.00105238 -0.06635000 -0.06995933
v 0.00194454 -0.07270000 -0.07055546
v 0.00105238 -0.07270000 -0.06995933
v -0.04366681 -0.06635000 -0.05611306
v -0.04261443 -0.06635000 -0.05590373
v -0.04261443 -0.07270000 -0.05590373
v -0.04455898 -0.06635000 -0.05670919
v -0.04366681 -0.07270000 -0.05611306
v -0.04515510 -0.06635000 -0.05760135
v -0.04455898 -0.07270000 -0.05670919
v -0.04536443 -0.06635000 -0.05865373
v -0.04515510 -0.07270000 -0.05760135
v -0.04515510 -0.06635000 -0.05970611
v -0.04536443 -0.07270000 -0.05865373
v -0.04455898 -0.06635000 -0.06059828
v -0.04515510 -0.07270000 -0.05970611
v -0.04366681 -0.06635000 -0.06119440
v -0.04455898 -0.07270000 -0.06059828
v -0.04261443 -0.06635000 -0.06140373
v -0.04366681 -0.07270000 -0.06119440
v -0.04156205 -0.06635000 -0.06119440
v -0.04261443 -0.07270000 -0.06140373
v -0.04066989 -0.06635000 -0.06059828
v -0.04156205 -0.07270000 -0.06119440
v -0.04007376 -0.06635000 -0.05970611
v -0.04066989 -0.07270000 -0.06059828
v -0.03986443 -0.06635000 -0.05865373
v -0.04007376 -0.07270000 -0.05970611
v -0.04007376 -0.06635000 -0.05760135
v -0.03986443 -0.07270000 -0.05865373
v -0.04066989 -0.06635000 -0.05670919
v -0.04007376 -0.07270000 -0.05760135
v -0.04156205 -0.06635000 -0.05611306
v -0.04066989 -0.07270000 -0.05670919
v -0.04156205 -0.07270000 -0.05611306
v -0.07000398 -0.06635000 -0.01986306
v -0.06895160 -0.06635000 -0.01965373
v -0.06895160 -0.07270000 -0.01965373
v -0.07089614 -0.06635000 -0.02045919
v -0.07000398 -0.07270000 -0.01986306
v -0.07149227 -0.06635000 -0.02135135
v -0.07089614 -0.07270000 -0.02045919
v -0.07170160 -0.06635000 -0.02240373
v -0.07149227 -0.07270000 -0.02135135
v -0.07149227 -0.06635000 -0.02345611
v -0.07170160 -0.07270000 -0.02240373
v -0.07089614 -0.06635000 -0.02434828
v -0.07149227 -0.07270000 -0.02345611
v -0.07000398 -0.06635000 -0.02494440
v -0.07089614 -0.07270000 -0.02434828
v -0.06895160 -0.06635000 -0.02515373
v -0.07000398 -0.07270000 -0.02494440
v -0.06789922 -0.06635000 -0.02494440
v -0.06895160 -0.07270000 -0.02515373
v -0.06700706 -0.06635000 -0.02434828
v -0.06789922 -0.07270000 -0.02494440
v -0.06641093 -0.06635000 -0.02345611
v -0.06700706 -0.07270000 -0.02434828
v -0.06620160 -0.06635000 -0.02240373
v -0.06641093 -0.07270000 -0.02345611
v -0.06641093 -0.06635000 -0.02135135
v -0.06620160 -0.07270000 -0.02240373
v -0.06700706 -0.06635000 -0.02045919
v -0.06641093 -0.07270000 -0.02135135
v -0.06789922 -0.06635000 -0.01986306
v -0.06700706 -0.07270000 -0.02045919
v -0.06789922 -0.07270000 -0.01986306
v -0.07000398 -0.06635000 0.02494440
v -0.06895160 -0.06635000 0.02515373
v -0.06895160 -0.07270000 0.02515373
v -0.07089614 -0.06635000 0.02434828
v -0.07000398 -0.07270000 0.02494440
v -0.07149227 -0.06635000 0.02345611
v -0.07089614 -0.07270000 0.02434828
v -0.07170160 -0.06635000 0.02240373
v -0.07149227 -0.07270000 0.02345611
v -0.07149227 -0.06635000 0.02135135
v -0.07170160 -0.07270000 0.02240373
v -0.07089614 -0.06635000 0.02045919
v -0.07149227 -0.07270000 0.02135135
v -0.07000398 -0.06635000 0.01986306
v -0.07089614 -0.07270000 0.02045919
v -0.06895160 -0.06635000 0.01965373
v -0.07000398 -0.07270000 0.01986306
v -0.06789922 -0.06635000 0.01986306
v -0.06895160 -0.07270000 0.01965373
v -0.06700706 -0.06635000 0.02045919
v -0.06789922 -0.07270000 0.01986306
v -0.06641093 -0.06635000 0.02135135
v -0.06700706 -0.07270000 0.02045919
v -0.06620160 -0.06635000 0.02240373
v -0.06641093 -0.07270000 0.02135135
v -0.06641093 -0.06635000 0.02345611
v -0.06620160 -0.07270000 0.02240373
v -0.06700706 -0.06635000 0.02434828
v -0.06641093 -0.07270000 0.02345611
v -0.06789922 -0.06635000 0.02494440
v -0.06700706 -0.07270000 0.02434828
v -0.06789922 -0.07270000 0.02494440
v -0.04366681 -0.06635000 0.06119440
v -0.04261443 -0.06635000 0.06140373
v -0.04261443 -0.07270000 0.06140373
v -0.04455898 -0.06635000 0.06059828
v -0.04366681 -0.07270000 0.06119440
v -0.04515510 -0.06635000 0.05970611
v -0.04455898 -0.07270000 0.06059828
v -0.04536443 -0.06635000 0.05865373
v -0.04515510 -0.07270000 0.05970611
v -0.04515510 -0.06635000 0.05760135
v -0.04536443 -0.07270000 0.05865373
v -0.04455898 -0.06635000 0.05670919
v -0.04515510 -0.07270000 0.05760135
v -0.04366681 -0.06635000 0.05611306
v -0.04455898 -0.07270000 0.05670919
v -0.04261443 -0.06635000 0.05590373
v -0.04366681 -0.07270000 0.05611306
v -0.04156205 -0.06635000 0.05611306
v -0.04261443 -0.07270000 0.05590373
v -0.04066989 -0.06635000 0.05670919
v -0.04156205 -0.07270000 0.05611306
v -0.04007376 -0.06635000 0.05760135
v -0.04066989 -0.07270000 0.05670919
v -0.03986443 -0.06635000 0.05865373
v -0.04007376 -0.07270000 0.05760135
v -0.04007376 -0.06635000 0.05970611
v -0.03986443 -0.07270000 0.05865373
v -0.04066989 -0.06635000 0.06059828
v -0.04007376 -0.07270000 0.05970611
v -0.04156205 -0.06635000 0.06119440
v -0.04066989 -0.07270000 0.06059828
v -0.04156205 -0.07270000 0.06119440
v -0.02130722 -0.06635000 0.06557687
v 0.02130722 -0.06635000 0.06557687
v 0.02130722 -0.06635000 0.05493937
v -0.02130722 -0.06635000 -0.05493937
v 0.02130722 -0.06635000 -0.05493937
v 0.02130722 -0.06635000 -0.06557687
v 0.06008830 -0.06635000 0.03956437
v 0.04986640 -0.06635000 0.02065534
v 0.03816609 -0.06635000 0.03816609
v 0.06008830 -0.06635000 0.00000000
v 0.05397500 -0.06635000 -0.00000000
v -0.02130722 -0.06635000 0.05493937
v 0.00000000 -0.06635000 0.05397500
v -0.02065534 -0.06635000 0.04986640
v 0.02065534 -0.06635000 0.04986640
v 0.02130722 -0.06635000 0.04943083
v -0.06008830 -0.06635000 0.00000000
v -0.06008830 -0.06635000 0.03956437
v -0.04986640 -0.06635000 0.02065534
v -0.03607342 -0.06635000 0.03956437
v -0.03816609 -0.06635000 0.03816609
v 0.00000000 -0.06635000 -0.05397500
v 0.02065534 -0.06635000 -0.04986640
v -0.02065534 -0.06635000 -0.04986640
v -0.02130722 -0.06635000 -0.04943083
v -0.02130722 -0.06635000 -0.06557687
v -0.02130722 -0.06635000 -0.07747173
v -0.03126906 -0.06635000 -0.07549020
v -0.04156205 -0.06635000 -0.05611306
v -0.04261443 -0.06635000 -0.05590373
v -0.04007376 -0.06635000 -0.05970611
v -0.03986443 -0.06635000 -0.05865373
v -0.04610541 -0.06635000 -0.06557687
v -0.04261443 -0.06635000 -0.06140373
v -0.04156205 -0.06635000 -0.06119440
v -0.05777770 -0.06635000 -0.05777770
v -0.04515510 -0.06635000 -0.05970611
v -0.04515510 -0.06635000 -0.05760135
v -0.04536443 -0.06635000 -0.05865373
v -0.04066989 -0.06635000 -0.05670919
v -0.04007376 -0.06635000 -0.05760135
v -0.04066989 -0.06635000 -0.06059828
v -0.04455898 -0.06635000 -0.06059828
v -0.04366681 -0.06635000 -0.06119440
v -0.05967421 -0.06635000 -0.05493937
v -0.04455898 -0.06635000 -0.05670919
v -0.04366681 -0.06635000 -0.05611306
v -0.03816609 -0.06635000 -0.03816609
v -0.06008830 -0.06635000 -0.05431963
v -0.05397500 -0.06635000 -0.00000000
v -0.04986640 -0.06635000 -0.02065534
v -0.07549020 -0.06635000 -0.03126906
v -0.07000398 -0.06635000 -0.02494440
v -0.06789922 -0.06635000 -0.02494440
v -0.06700706 -0.06635000 -0.02434828
v -0.06895160 -0.06635000 -0.02515373
v -0.07670580 -0.06635000 -0.02515782
v -0.07149227 -0.06635000 -0.02345611
v -0.07089614 -0.06635000 -0.02434828
v -0.07670580 -0.06635000 0.00000000
v -0.07149227 -0.06635000 -0.02135135
v -0.06789922 -0.06635000 -0.01986306
v -0.06895160 -0.06635000 -0.01965373
v -0.06641093 -0.06635000 -0.02135135
v -0.06700706 -0.06635000 -0.02045919
v -0.06641093 -0.06635000 -0.02345611
v -0.06620160 -0.06635000 -0.02240373
v -0.07170160 -0.06635000 -0.02240373
v -0.07000398 -0.06635000 -0.01986306
v -0.07089614 -0.06635000 -0.02045919
v -0.06895160 -0.06635000 0.01965373
v -0.06789922 -0.06635000 0.01986306
v -0.06700706 -0.06635000 0.02045919
v -0.07000398 -0.06635000 0.01986306
v -0.07149227 -0.06635000 0.02135135
v -0.07089614 -0.06635000 0.02045919
v -0.07670580 -0.06635000 0.02515782
v -0.07170160 -0.06635000 0.02240373
v -0.07549020 -0.06635000 0.03126906
v -0.07089614 -0.06635000 0.02434828
v -0.06994745 -0.06635000 0.03956437
v -0.06789922 -0.06635000 0.02494440
v -0.06641093 -0.06635000 0.02345611
v -0.06700706 -0.06635000 0.02434828
v -0.06641093 -0.06635000 0.02135135
v -0.06620160 -0.06635000 0.02240373
v -0.07149227 -0.06635000 0.02345611
v -0.07000398 -0.06635000 0.02494440
v -0.06895160 -0.06635000 0.02515373
v -0.06008830 -0.06635000 0.05431963
v -0.05967421 -0.06635000 0.05493937
v -0.02130722 -0.06635000 0.04943083
v -0.04610541 -0.06635000 0.06557687
v -0.04156205 -0.06635000 0.06119440
v -0.03986443 -0.06635000 0.05865373
v -0.04261443 -0.06635000 0.05590373
v -0.04515510 -0.06635000 0.05760135
v -0.05777770 -0.06635000 0.05777770
v -0.04455898 -0.06635000 0.06059828
v -0.04515510 -0.06635000 0.05970611
v -0.04066989 -0.06635000 0.06059828
v -0.04007376 -0.06635000 0.05970611
v -0.04066989 -0.06635000 0.05670919
v -0.04007376 -0.06635000 0.05760135
v -0.04156205 -0.06635000 0.05611306
v -0.04455898 -0.06635000 0.05670919
v -0.04366681 -0.06635000 0.05611306
v -0.04536443 -0.06635000 0.05865373
v -0.04261443 -0.06635000 0.06140373
v -0.04366681 -0.06635000 0.06119440
v -0.03126906 -0.06635000 0.07549020
v 0.00000000 -0.06635000 0.08171000
v 0.02130722 -0.06635000 0.07747173
v 0.00194454 -0.06635000 0.07444455
v 0.00254067 -0.06635000 0.07144762
v 0.00275000 -0.06635000 0.07250000
v -0.00254067 -0.06635000 0.07144762
v -0.00194454 -0.06635000 0.07055546
v -0.02130722 -0.06635000 0.07747173
v -0.00275000 -0.06635000 0.07250000
v 0.00254067 -0.06635000 0.07355238
v -0.00194454 -0.06635000 0.07444455
v -0.00254067 -0.06635000 0.07355238
v 0.00105238 -0.06635000 0.06995933
v 0.00194454 -0.06635000 0.07055546
v -0.00105238 -0.06635000 0.06995933
v -0.00000000 -0.06635000 0.06975000
v -0.00105238 -0.06635000 0.07504067
v -0.00000000 -0.06635000 0.07525000
v 0.00105238 -0.06635000 0.07504067
v 0.03126906 -0.06635000 0.07549020
v 0.04610541 -0.06635000 0.06557687
v 0.05777770 -0.06635000 0.05777770
v 0.04515510 -0.06635000 0.05970611
v 0.04515510 -0.06635000 0.05760135
v 0.04536443 -0.06635000 0.05865373
v 0.04156205 -0.06635000 0.05611306
v 0.04261443 -0.06635000 0.05590373
v 0.04007376 -0.06635000 0.05970611
v 0.03986443 -0.06635000 0.05865373
v 0.04261443 -0.06635000 0.06140373
v 0.04156205 -0.06635000 0.06119440
v 0.04455898 -0.06635000 0.06059828
v 0.04366681 -0.06635000 0.06119440
v 0.05967421 -0.06635000 0.05493937
v 0.04455898 -0.06635000 0.05670919
v 0.04366681 -0.06635000 0.05611306
v 0.04066989 -0.06635000 0.05670919
v 0.04007376 -0.06635000 0.05760135
v 0.04066989 -0.06635000 0.06059828
v 0.03607342 -0.06635000 0.03956437
v 0.06008830 -0.06635000 0.05431963
v 0.08171000 -0.06635000 -0.00000000
v 0.06895160 -0.06635000 0.01965373
v 0.07000398 -0.06635000 0.01986306
v 0.07089614 -0.06635000 0.02045919
v 0.06789922 -0.06635000 0.01986306
v 0.06641093 -0.06635000 0.02135135
v 0.06700706 -0.06635000 0.02045919
v 0.06620160 -0.06635000 0.02240373
v 0.06994745 -0.06635000 0.03956437
v 0.07549020 -0.06635000 0.03126906
v 0.07000398 -0.06635000 0.02494440
v 0.07149227 -0.06635000 0.02345611
v 0.07089614 -0.06635000 0.02434828
v 0.07170160 -0.06635000 0.02240373
v 0.06641093 -0.06635000 0.02345611
v 0.06789922 -0.06635000 0.02494440
v 0.06700706 -0.06635000 0.02434828
v 0.06895160 -0.06635000 0.02515373
v 0.07149227 -0.06635000 0.02135135
v 0.06008830 -0.06635000 -0.05431963
v 0.06895160 -0.06635000 -0.02515373
v 0.07000398 -0.06635000 -0.02494440
v 0.07549020 -0.06635000 -0.03126906
v 0.07089614 -0.06635000 -0.02434828
v 0.06789922 -0.06635000 -0.02494440
v 0.06641093 -0.06635000 -0.02345611
v 0.06700706 -0.06635000 -0.02434828
v 0.06620160 -0.06635000 -0.02240373
v 0.07000398 -0.06635000 -0.01986306
v 0.06895160 -0.06635000 -0.01965373
v 0.07149227 -0.06635000 -0.02135135
v 0.07089614 -0.06635000 -0.02045919
v 0.07149227 -0.06635000 -0.02345611
v 0.07170160 -0.06635000 -0.02240373
v 0.06641093 -0.06635000 -0.02135135
v 0.06789922 -0.06635000 -0.01986306
v 0.06700706 -0.06635000 -0.02045919
v 0.03816609 -0.06635000 -0.03816609
v 0.04986640 -0.06635000 -0.02065534
v 0.05967421 -0.06635000 -0.05493937
v 0.02130722 -0.06635000 -0.04943083
v 0.04515510 -0.06635000 -0.05760135
v 0.05777770 -0.06635000 -0.05777770
v 0.04610541 -0.06635000 -0.06557687
v 0.04455898 -0.06635000 -0.06059828
v 0.04515510 -0.06635000 -0.05970611
v 0.04156205 -0.06635000 -0.06119440
v 0.03986443 -0.06635000 -0.05865373
v 0.04261443 -0.06635000 -0.05590373
v 0.04455898 -0.06635000 -0.05670919
v 0.04366681 -0.06635000 -0.05611306
v 0.04536443 -0.06635000 -0.05865373
v 0.04261443 -0.06635000 -0.06140373
v 0.04366681 -0.06635000 -0.06119440
v 0.04066989 -0.06635000 -0.06059828
v 0.04007376 -0.06635000 -0.05970611
v 0.04066989 -0.06635000 -0.05670919
v 0.04007376 -0.06635000 -0.05760135
v 0.04156205 -0.06635000 -0.05611306
v 0.03126906 -0.06635000 -0.07549020
v 0.00000000 -0.06635000 -0.08171000
v -0.00194454 -0.06635000 -0.07444455
v 0.02130722 -0.06635000 -0.07747173
v 0.00275000 -0.06635000 -0.07250000
v -0.00254067 -0.06635000 -0.07355238
v -0.00254067 -0.06635000 -0.07144762
v -0.00275000 -0.06635000 -0.07250000
v 0.00254067 -0.06635000 -0.07144762
v 0.00194454 -0.06635000 -0.07055546
v 0.00254067 -0.06635000 -0.07355238
v 0.00105238 -0.06635000 -0.07504067
v 0.00194454 -0.06635000 -0.07444455
v -0.00194454 -0.06635000 -0.07055546
v -0.00105238 -0.06635000 -0.07504067
v -0.00000000 -0.06635000 -0.07525000
v -0.00105238 -0.06635000 -0.06995933
v -0.00000000 -0.06635000 -0.06975000
v 0.00105238 -0.06635000 -0.06995933
v -0.08171000 -0.06635000 -0.00000000
v -0.02130722 -0.07270000 -0.05493937
v -0.02130722 -0.07270000 -0.06557687
v 0.02130722 -0.07270000 -0.06557687
v -0.02130722 -0.07270000 0.06557687
v -0.02130722 -0.07270000 0.05493937
v 0.02130722 -0.07270000 0.05493937
v -0.06008830 -0.07270000 0.03956437
v -0.04986640 -0.07270000 0.02065534
v -0.03816609 -0.07270000 0.03816609
v -0.06008830 -0.07270000 0.00000000
v -0.05397500 -0.07270000 -0.00000000
v -0.02065534 -0.07270000 0.04986640
v 0.00000000 -0.07270000 0.05397500
v -0.02130722 -0.07270000 0.04943083
v 0.02065534 -0.07270000 0.04986640
v 0.06008830 -0.07270000 0.00000000
v 0.06008830 -0.07270000 0.03956437
v 0.04986640 -0.07270000 0.02065534
v 0.03816609 -0.07270000 0.03816609
v 0.03607342 -0.07270000 0.03956437
v 0.02130722 -0.07270000 -0.05493937
v 0.00000000 -0.07270000 -0.05397500
v 0.02130722 -0.07270000 -0.04943083
v 0.02065534 -0.07270000 -0.04986640
v -0.02065534 -0.07270000 -0.04986640
v 0.02130722 -0.07270000 -0.07747173
v 0.03126906 -0.07270000 -0.07549020
v 0.04610541 -0.07270000 -0.06557687
v 0.05777770 -0.07270000 -0.05777770
v 0.04515510 -0.07270000 -0.05970611
v 0.04515510 -0.07270000 -0.05760135
v 0.04536443 -0.07270000 -0.05865373
v 0.04455898 -0.07270000 -0.06059828
v 0.04366681 -0.07270000 -0.06119440
v 0.05967421 -0.07270000 -0.05493937
v 0.04455898 -0.07270000 -0.05670919
v 0.04261443 -0.07270000 -0.05590373
v 0.04366681 -0.07270000 -0.05611306
v 0.04156205 -0.07270000 -0.05611306
v 0.04066989 -0.07270000 -0.05670919
v 0.03986443 -0.07270000 -0.05865373
v 0.04007376 -0.07270000 -0.05760135
v 0.04007376 -0.07270000 -0.05970611
v 0.04261443 -0.07270000 -0.06140373
v 0.04156205 -0.07270000 -0.06119440
v 0.04066989 -0.07270000 -0.06059828
v 0.03816609 -0.07270000 -0.03816609
v 0.06008830 -0.07270000 -0.05431963
v 0.04986640 -0.07270000 -0.02065534
v 0.05397500 -0.07270000 -0.00000000
v 0.08171000 -0.07270000 -0.00000000
v 0.06895160 -0.07270000 -0.01965373
v 0.07000398 -0.07270000 -0.01986306
v 0.07089614 -0.07270000 -0.02045919
v 0.06789922 -0.07270000 -0.01986306
v 0.07549020 -0.07270000 -0.03126906
v 0.07170160 -0.07270000 -0.02240373
v 0.06641093 -0.07270000 -0.02135135
v 0.06700706 -0.07270000 -0.02045919
v 0.07000398 -0.07270000 -0.02494440
v 0.07149227 -0.07270000 -0.02345611
v 0.07089614 -0.07270000 -0.02434828
v 0.07149227 -0.07270000 -0.02135135
v 0.06641093 -0.07270000 -0.02345611
v 0.06620160 -0.07270000 -0.02240373
v 0.06789922 -0.07270000 -0.02494440
v 0.06700706 -0.07270000 -0.02434828
v 0.06895160 -0.07270000 -0.02515373
v 0.06994745 -0.07270000 0.03956437
v 0.06895160 -0.07270000 0.02515373
v 0.07000398 -0.07270000 0.02494440
v 0.06789922 -0.07270000 0.02494440
v 0.07549020 -0.07270000 0.03126906
v 0.07089614 -0.07270000 0.02434828
v 0.07149227 -0.07270000 0.02345611
v 0.07170160 -0.07270000 0.02240373
v 0.06641093 -0.07270000 0.02345611
v 0.06700706 -0.07270000 0.02434828
v 0.07000398 -0.07270000 0.01986306
v 0.06895160 -0.07270000 0.01965373
v 0.07149227 -0.07270000 0.02135135
v 0.07089614 -0.07270000 0.02045919
v 0.06641093 -0.07270000 0.02135135
v 0.06620160 -0.07270000 0.02240373
v 0.06789922 -0.07270000 0.01986306
v 0.06700706 -0.07270000 0.02045919
v 0.06008830 -0.07270000 0.05431963
v 0.05967421 -0.07270000 0.05493937
v 0.02130722 -0.07270000 0.04943083
v 0.04515510 -0.07270000 0.05760135
v 0.05777770 -0.07270000 0.05777770
v 0.04610541 -0.07270000 0.06557687
v 0.04455898 -0.07270000 0.06059828
v 0.04515510 -0.07270000 0.05970611
v 0.04455898 -0.07270000 0.05670919
v 0.04366681 -0.07270000 0.05611306
v 0.04536443 -0.07270000 0.05865373
v 0.04261443 -0.07270000 0.06140373
v 0.04366681 -0.07270000 0.06119440
v 0.02130722 -0.07270000 0.06557687
v 0.04156205 -0.07270000 0.06119440
v 0.03986443 -0.07270000 0.05865373
v 0.04066989 -0.07270000 0.06059828
v 0.04007376 -0.07270000 0.05970611
v 0.04261443 -0.07270000 0.05590373
v 0.04066989 -0.07270000 0.05670919
v 0.04007376 -0.07270000 0.05760135
v 0.04156205 -0.07270000 0.05611306
v 0.03126906 -0.07270000 0.07549020
v 0.00000000 -0.07270000 0.08171000
v -0.02130722 -0.07270000 0.07747173
v -0.00194454 -0.07270000 0.07444455
v -0.00275000 -0.07270000 0.07250000
v -0.00254067 -0.07270000 0.07355238
v 0.02130722 -0.07270000 0.07747173
v 0.00275000 -0.07270000 0.07250000
v -0.00254067 -0.07270000 0.07144762
v 0.00254067 -0.07270000 0.07144762
v 0.00194454 -0.07270000 0.07055546
v 0.00254067 -0.07270000 0.07355238
v 0.00105238 -0.07270000 0.07504067
v 0.00194454 -0.07270000 0.07444455
v -0.00105238 -0.07270000 0.06995933
v -0.00194454 -0.07270000 0.07055546
v -0.00105238 -0.07270000 0.07504067
v -0.00000000 -0.07270000 0.07525000
v -0.00000000 -0.07270000 0.06975000
v 0.00105238 -0.07270000 0.06995933
v -0.03126906 -0.07270000 0.07549020
v -0.04156205 -0.07270000 0.05611306
v -0.04261443 -0.07270000 0.05590373
v -0.04007376 -0.07270000 0.05970611
v -0.03986443 -0.07270000 0.05865373
v -0.04610541 -0.07270000 0.06557687
v -0.04261443 -0.07270000 0.06140373
v -0.04156205 -0.07270000 0.06119440
v -0.04066989 -0.07270000 0.05670919
v -0.04007376 -0.07270000 0.05760135
v -0.04066989 -0.07270000 0.06059828
v -0.05777770 -0.07270000 0.05777770
v -0.04515510 -0.07270000 0.05970611
v -0.04455898 -0.07270000 0.06059828
v -0.04366681 -0.07270000 0.06119440
v -0.04536443 -0.07270000 0.05865373
v -0.04515510 -0.07270000 0.05760135
v -0.05967421 -0.07270000 0.05493937
v -0.04455898 -0.07270000 0.05670919
v -0.04366681 -0.07270000 0.05611306
v -0.03607342 -0.07270000 0.03956437
v -0.06008830 -0.07270000 0.05431963
v -0.06994745 -0.07270000 0.03956437
v -0.06895160 -0.07270000 0.02515373
v -0.06789922 -0.07270000 0.02494440
v -0.07549020 -0.07270000 0.03126906
v -0.07000398 -0.07270000 0.02494440
v -0.06700706 -0.07270000 0.02434828
v -0.07670580 -0.07270000 0.02515782
v -0.07149227 -0.07270000 0.02345611
v -0.07089614 -0.07270000 0.02434828
v -0.06620160 -0.07270000 0.02240373
v -0.06789922 -0.07270000 0.01986306
v -0.06895160 -0.07270000 0.01965373
v -0.06641093 -0.07270000 0.02135135
v -0.06700706 -0.07270000 0.02045919
v -0.06641093 -0.07270000 0.02345611
v -0.07670580 -0.07270000 0.00000000
v -0.07149227 -0.07270000 0.02135135
v -0.07000398 -0.07270000 0.01986306
v -0.07089614 -0.07270000 0.02045919
v -0.07170160 -0.07270000 0.02240373
v -0.06895160 -0.07270000 -0.01965373
v -0.06789922 -0.07270000 -0.01986306
v -0.06700706 -0.07270000 -0.02045919
v -0.07000398 -0.07270000 -0.01986306
v -0.06008830 -0.07270000 -0.05431963
v -0.06620160 -0.07270000 -0.02240373
v -0.07149227 -0.07270000 -0.02135135
v -0.07089614 -0.07270000 -0.02045919
v -0.07670580 -0.07270000 -0.02515782
v -0.07549020 -0.07270000 -0.03126906
v -0.07089614 -0.07270000 -0.02434828
v -0.06641093 -0.07270000 -0.02345611
v -0.06700706 -0.07270000 -0.02434828
v -0.06641093 -0.07270000 -0.02135135
v -0.07170160 -0.07270000 -0.02240373
v -0.07000398 -0.07270000 -0.02494440
v -0.06895160 -0.07270000 -0.02515373
v -0.06789922 -0.07270000 -0.02494440
v -0.07149227 -0.07270000 -0.02345611
v -0.04986640 -0.07270000 -0.02065534
v -0.03816609 -0.07270000 -0.03816609
v -0.05967421 -0.07270000 -0.05493937
v -0.02130722 -0.07270000 -0.04943083
v -0.04610541 -0.07270000 -0.06557687
v -0.04156205 -0.07270000 -0.06119440
v -0.03986443 -0.07270000 -0.05865373
v -0.04261443 -0.07270000 -0.05590373
v -0.04066989 -0.07270000 -0.06059828
v -0.04007376 -0.07270000 -0.05970611
v -0.04066989 -0.07270000 -0.05670919
v -0.04007376 -0.07270000 -0.05760135
v -0.04156205 -0.07270000 -0.05611306
v -0.04515510 -0.07270000 -0.05760135
v -0.05777770 -0.07270000 -0.05777770
v -0.04455898 -0.07270000 -0.05670919
v -0.04366681 -0.07270000 -0.05611306
v -0.04536443 -0.07270000 -0.05865373
v -0.04455898 -0.07270000 -0.06059828
v -0.04515510 -0.07270000 -0.05970611
v -0.04261443 -0.07270000 -0.06140373
v -0.04366681 -0.07270000 -0.06119440
v -0.03126906 -0.07270000 -0.07549020
v -0.02130722 -0.07270000 -0.07747173
v -0.00275000 -0.07270000 -0.07250000
v -0.00254067 -0.07270000 -0.07144762
v 0.00000000 -0.07270000 -0.08171000
v 0.00194454 -0.07270000 -0.07444455
v 0.00254067 -0.07270000 -0.07144762
v 0.00275000 -0.07270000 -0.07250000
v -0.00194454 -0.07270000 -0.07055546
v -0.00105238 -0.07270000 -0.07504067
v -0.00194454 -0.07270000 -0.07444455
v 0.00254067 -0.07270000 -0.07355238
v -0.00105238 -0.07270000 -0.06995933
v -0.00000000 -0.07270000 -0.06975000
v -0.00254067 -0.07270000 -0.07355238
v 0.00105238 -0.07270000 -0.06995933
v 0.00194454 -0.07270000 -0.07055546
v 0.00105238 -0.07270000 -0.07504067
v -0.00000000 -0.07270000 -0.07525000
v -0.08171000 -0.07270000 -0.00000000
v -0.00105238 -0.06635000 0.07504067
v -0.00000000 -0.06635000 0.07525000
v -0.00000000 -0.07270000 0.07525000
v -0.00194454 -0.06635000 0.07444455
v -0.00105238 -0.07270000 0.07504067
v -0.00254067 -0.06635000 0.07355238
v -0.00194454 -0.07270000 0.07444455
v -0.00275000 -0.06635000 0.07250000
v -0.00254067 -0.07270000 0.07355238
v -0.00254067 -0.06635000 0.07144762
v -0.00275000 -0.07270000 0.07250000
v -0.00194454 -0.06635000 0.07055546
v -0.00254067 -0.07270000 0.07144762
v -0.00105238 -0.06635000 0.06995933
v -0.00194454 -0.07270000 0.07055546
v -0.00000000 -0.06635000 0.06975000
v -0.00105238 -0.07270000 0.06995933
v 0.00105238 -0.06635000 0.06995933
v -0.00000000 -0.07270000 0.06975000
v 0.00194454 -0.06635000 0.07055546
v 0.00105238 -0.07270000 0.06995933
v 0.00254067 -0.06635000 0.07144762
v 0.00194454 -0.07270000 0.07055546
v 0.00275000 -0.06635000 0.07250000
v 0.00254067 -0.07270000 0.07144762
v 0.00254067 -0.06635000 0.07355238
v 0.00275000 -0.07270000 0.07250000
v 0.00194454 -0.06635000 0.07444455
v 0.00254067 -0.07270000 0.07355238
v 0.00105238 -0.06635000 0.07504067
v 0.00194454 -0.07270000 0.07444455
v 0.00105238 -0.07270000 0.07504067
vt 0.50000000 0.50000000
vt 0.50000000 0.50000000
vt 0.50000000 0.50000000
vt 0.50000000 0.50000000
vt 0.50000000 0.50000000
vt 0.50000000 0.50000000
vt 0.50000000 0.50000000
vt 0.50000000 0.50000000
vt 0.50000000 0.50000000
vt 0.50000000 0.50000000
vt 0.50000000 0.50000000
vt 0.50000000 0.50000000
vt 0.50000000 0.50000000
vt 0.50000000 0.50000000
vt 0.50000000 0.50000000
vt 0.50000000 0.50000000
vt 0.50000000 0.50000000
vt 0.50000000 0.50000000
vt 0.50000000 0.50000000
vt 0.50000000 0.50000000
vt 0.50000000 0.50000000
vt 0.50000000 0.50000000
vt 0.50000000 0.50000000
vt 0.50000000 0.50000000
vt 0.50000000 0.50000000
vt 0.50000000 0.50000000
vt 0.50000000 0.50000000
vt 0.50000000 0.50000000
vt 0.50000000 0.50000000
vt 0.50000000 0.50000000
vt 0.50000000 0.50000000
vt 0.50000000 0.50000000
vt 0.50000000 0.50000000
vt 0.50000000 0.50000000
vt 0.50000000 0.50000000
vt 0.50000000 0.50000000
vt 0.50000000 0.50000000
vt 0.50000000 0.50000000
vt 0.50000000 0.50000000
vt 0.50000000 0.50000000
vt 0.50000000 0.50000000
vt 0.50000000 0.50000000
vt 0.50000000 0.50000000
vt 0.50000000 0.50000000
vt 0.50000000 0.50000000
vt 0.50000000 0.50000000
vt 0.50000000 0.50000000
vt 0.50000000 0.50000000
vt 0.50000000 0.50000000
vt 0.50000000 0.50000000
vt 0.50000000 0.50000000
vt 0.50000000 0.50000000
vt 0.50000000 0.50000000
vt 0.50000000 0.50000000
vt 0.50000000 0.50000000
vt 0.50000000 0.50000000
vt 0.50000000 0.50000000
vt 0.50000000 0.50000000
vt 0.50000000 0.50000000
vt 0.50000000 0.50000000
vt 0.50000000 0.50000000
vt 0.50000000 0.50000000
vt 0.50000000 0.50000000
vt 0.50000000 0.50000000
vt 0.50000000 0.50000000
vt 0.50000000 0.50000000
vt 0.50000000 0.50000000
vt 0.50000000 0.50000000
vt 0.50000000 0.50000000
vt 0.50000000 0.50000000
vt 0.50000000 0.50000000
vt 0.50000000 0.50000000
vt 0.50000000 0.50000000
vt 0.50000000 0.50000000
vt 0.50000000 0.50000000
vt 0.50000000 0.50000000
vt 0.50000000 0.50000000
vt 0.50000000 0.50000000
vt 0.50000000 0.50000000
vt 0.50000000 0.50000000
vt 0.50000000 0.50000000
vt 0.50000000 0.50000000
vt 0.50000000 0.50000000
vt 0.50000000 0.50000000
vt 0.50000000 0.50000000
vt 0.50000000 0.50000000
vt 0.50000000 0.50000000
vt 0.50000000 0.50000000
vt 0.50000000 0.50000000
vt 0.50000000 0.50000000
vt 0.50000000 0.50000000
vt 0.50000000 0.50000000
vt 0.50000000 0.50000000
vt 0.50000000 0.50000000
vt 0.50000000 0.50000000
vt 0.50000000 0.50000000
vt 0.50000000 0.50000000
vt 0.50000000 0.50000000
vt 0.50000000 0.50000000
vt 0.50000000 0.50000000
vt 0.50000000 0.50000000
vt 0.50000000 0.50000000
vt 0.50000000 0.50000000
vt 0.50000000 0.50000000
vt 0.50000000 0.50000000
vt 0.50000000 0.50000000
vt 0.50000000 0.50000000
vt 0.50000000 0.50000000
vt 0.50000000 0.50000000
vt 0.50000000 0.50000000
vt 0.50000000 0.50000000
vt 0.50000000 0.50000000
vt 0.50000000 0.50000000
vt 0.50000000 0.50000000
vt 0.50000000 0.50000000
vt 0.50000000 0.50000000
vt 0.50000000 0.50000000
vt 0.50000000 0.50000000
vt 0.50000000 0.50000000
vt 0.50000000 0.50000000
vt 0.50000000 0.50000000
vt 0.50000000 0.50000000
vt 0.50000000 0.50000000
vt 0.50000000 0.50000000
vt 0.50000000 0.50000000
vt 0.50000000 0.50000000
vt 0.50000000 0.50000000
vt 0.50000000 0.50000000
vt 0.50000000 0.50000000
vt 0.50000000 0.50000000
vt 0.50000000 0.50000000
vt 0.50000000 0.50000000
vt 0.50000000 0.50000000
vt 0.50000000 0.50000000
vt 0.50000000 0.50000000
vt 0.50000000 0.50000000
vt 0.50000000 0.50000000
vt 0.50000000 0.50000000
vt 0.50000000 0.50000000
vt 0.50000000 0.50000000
vt 0.50000000 0.50000000
vt 0.50000000 0.50000000
vt 0.50000000 0.50000000
vt 0.50000000 0.50000000
vt 0.50000000 0.50000000
vt 0.50000000 0.50000000
vt 0.50000000 0.50000000
vt 0.50000000 0.50000000
vt 0.50000000 0.50000000
vt 0.50000000 0.50000000
vt 0.50000000 0.50000000
vt 0.50000000 0.50000000
vt 0.50000000 0.50000000
vt 0.50000000 0.50000000
vt 0.50000000 0.50000000
vt 0.50000000 0.50000000
vt 0.50000000 0.50000000
vt 0.50000000 0.50000000
vt 0.50000000 0.50000000
vt 0.50000000 0.50000000
vt 0.50000000 0.50000000
vt 0.50000000 0.50000000
vt 0.50000000 0.50000000
vt 0.50000000 0.50000000
vt 0.50000000 0.50000000
vt 0.50000000 0.50000000
vt 0.50000000 0.50000000
vt 0.50000000 0.50000000
vt 0.50000000 0.50000000
vt 0.50000000 0.50000000
vt 0.50000000 0.50000000
vt 0.50000000 0.50000000
vt 0.50000000 0.50000000
vt 0.50000000 0.50000000
vt 0.50000000 0.50000000
vt 0.50000000 0.50000000
vt 0.50000000 0.50000000
vt 0.50000000 0.50000000
vt 0.50000000 0.50000000
vt 0.50000000 0.50000000
vt 0.50000000 0.50000000
vt 0.50000000 0.50000000
vt 0.50000000 0.50000000
vt 0.50000000 0.50000000
vt 0.50000000 0.50000000
vt 0.50000000 0.50000000
vt 0.50000000 0.50000000
vt 0.50000000 0.50000000
vt 0.50000000 0.50000000
vt 0.50000000 0.50000000
vt 0.50000000 0.50000000
vt 0.50000000 0.50000000
vt 0.50000000 0.50000000
vt 0.50000000 0.50000000
vt 0.50000000 0.50000000
vt 0.50000000 0.50000000
vt 0.50000000 0.50000000
vt 0.50000000 0.50000000
vt 0.50000000 0.50000000
vt 0.50000000 0.50000000
vt 0.50000000 0.50000000
vt 0.50000000 0.50000000
vt 0.50000000 0.50000000
vt 0.50000000 0.50000000
vt 0.50000000 0.50000000
vt 0.50000000 0.50000000
vt 0.50000000 0.50000000
vt 0.50000000 0.50000000
vt 0.50000000 0.50000000
vt 0.50000000 0.50000000
vt 0.50000000 0.50000000
vt 0.50000000 0.50000000
vt 0.50000000 0.50000000
vt 0.50000000 0.50000000
vt 0.50000000 0.50000000
vt 0.50000000 0.50000000
vt 0.50000000 0.50000000
vt 0.50000000 0.50000000
vt 0.50000000 0.50000000
vt 0.50000000 0.50000000
vt 0.50000000 0.50000000
vt 0.50000000 0.50000000
vt 0.50000000 0.50000000
vt 0.50000000 0.50000000
vt 0.50000000 0.50000000
vt 0.50000000 0.50000000
vt 0.50000000 0.50000000
vt 0.50000000 0.50000000
vt 0.50000000 0.50000000
vt 0.50000000 0.50000000
vt 0.50000000 0.50000000
vt 0.50000000 0.50000000
vt 0.50000000 0.50000000
vt 0.50000000 0.50000000
vt 0.50000000 0.50000000
vt 0.50000000 0.50000000
vt 0.50000000 0.50000000
vt 0.50000000 0.50000000
vt 0.50000000 0.50000000
vt 0.50000000 0.50000000
vt 0.50000000 0.50000000
vt 0.50000000 0.50000000
vt 0.50000000 0.50000000
vt 0.50000000 0.50000000
vt 0.50000000 0.50000000
vt 0.50000000 0.50000000
vt 0.50000000 0.50000000
vt 0.50000000 0.50000000
vt 0.50000000 0.50000000
vt 0.50000000 0.50000000
vt 0.50000000 0.50000000
vt 0.50000000 0.50000000
vt 0.50000000 0.50000000
vt 0.50000000 0.50000000
vt 0.50000000 0.50000000
vt 0.50000000 0.50000000
vt 0.50000000 0.50000000
vt 0.50000000 0.50000000
vt 0.50000000 0.50000000
vt 0.50000000 0.50000000
vt 0.50000000 0.50000000
vt 0.50000000 0.50000000
vt 0.50000000 0.50000000
vt 0.50000000 0.50000000
vt 0.50000000 0.50000000
vt 0.50000000 0.50000000
vt 0.50000000 0.50000000
vt 0.50000000 0.50000000
vt 0.50000000 0.50000000
vt 0.50000000 0.50000000
vt 0.50000000 0.50000000
vt 0.50000000 0.50000000
vt 0.50000000 0.50000000
vt 0.50000000 0.50000000
vt 0.50000000 0.50000000
vt 0.50000000 0.50000000
vt 0.50000000 0.50000000
vt 0.50000000 0.50000000
vt 0.50000000 0.50000000
vt 0.50000000 0.50000000
vt 0.50000000 0.50000000
vt 0.50000000 0.50000000
vt 0.50000000 0.50000000
vt 0.50000000 0.50000000
vt 0.50000000 0.50000000
vt 0.50000000 0.50000000
vt 0.50000000 0.50000000
vt 0.50000000 0.50000000
vt 0.50000000 0.50000000
vt 0.50000000 0.50000000
vt 0.50000000 0.50000000
vt 0.50000000 0.50000000
vt 0.50000000 0.50000000
vt 0.50000000 0.50000000
vt 0.50000000 0.50000000
vt 0.50000000 0.50000000
vt 0.50000000 0.50000000
vt 0.50000000 0.50000000
vt 0.50000000 0.50000000
vt 0.50000000 0.50000000
vt 0.50000000 0.50000000
vt 0.50000000 0.50000000
vt 0.50000000 0.50000000
vt 0.50000000 0.50000000
vt 0.50000000 0.50000000
vt 0.50000000 0.50000000
vt 0.50000000 0.50000000
vt 0.50000000 0.50000000
vt 0.50000000 0.50000000
vt 0.50000000 0.50000000
vt 0.50000000 0.50000000
vt 0.50000000 0.50000000
vt 0.50000000 0.50000000
vt 0.50000000 0.50000000
vt 0.50000000 0.50000000
vt 0.50000000 0.50000000
vt 0.50000000 0.50000000
vt 0.50000000 0.50000000
vt 0.50000000 0.50000000
vt 0.50000000 0.50000000
vt 0.50000000 0.50000000
vt 0.50000000 0.50000000
vt 0.50000000 0.50000000
vt 0.50000000 0.50000000
vt 0.50000000 0.50000000
vt 0.50000000 0.50000000
vt 0.50000000 0.50000000
vt 0.50000000 0.50000000
vt 0.50000000 0.50000000
vt 0.50000000 0.50000000
vt 0.50000000 0.50000000
vt 0.50000000 0.50000000
vt 0.50000000 0.50000000
vt 0.50000000 0.50000000
vt 0.50000000 0.50000000
vt 0.50000000 0.50000000
vt 0.50000000 0.50000000
vt 0.50000000 0.50000000
vt 0.50000000 0.50000000
vt 0.50000000 0.50000000
vt 0.50000000 0.50000000
vt 0.50000000 0.50000000
vt 0.50000000 0.50000000
vt 0.50000000 0.50000000
vt 0.50000000 0.50000000
vt 0.50000000 0.50000000
vt 0.50000000 0.50000000
vt 0.50000000 0.50000000
vt 0.50000000 0.50000000
vt 0.50000000 0.50000000
vt 0.50000000 0.50000000
vt 0.50000000 0.50000000
vt 0.50000000 0.50000000
vt 0.50000000 0.50000000
vt 0.50000000 0.50000000
vt 0.50000000 0.50000000
vt 0.50000000 0.50000000
vt 0.50000000 0.50000000
vt 0.50000000 0.50000000
vt 0.50000000 0.50000000
vt 0.50000000 0.50000000
vt 0.50000000 0.50000000
vt 0.50000000 0.50000000
vt 0.50000000 0.50000000
vt 0.50000000 0.50000000
vt 0.50000000 0.50000000
vt 0.50000000 0.50000000
vt 0.50000000 0.50000000
vt 0.50000000 0.50000000
vt 0.50000000 0.50000000
vt 0.50000000 0.50000000
vt 0.50000000 0.50000000
vt 0.50000000 0.50000000
vt 0.50000000 0.50000000
vt 0.50000000 0.50000000
vt 0.50000000 0.50000000
vt 0.50000000 0.50000000
vt 0.50000000 0.50000000
vt 0.50000000 0.50000000
vt 0.50000000 0.50000000
vt 0.50000000 0.50000000
vt 0.50000000 0.50000000
vt 0.50000000 0.50000000
vt 0.50000000 0.50000000
vt 0.50000000 0.50000000
vt 0.50000000 0.50000000
vt 0.50000000 0.50000000
vt 0.50000000 0.50000000
vt 0.50000000 0.50000000
vt 0.50000000 0.50000000
vt 0.50000000 0.50000000
vt 0.50000000 0.50000000
vt 0.50000000 0.50000000
vt 0.50000000 0.50000000
vt 0.50000000 0.50000000
vt 0.50000000 0.50000000
vt 0.50000000 0.50000000
vt 0.50000000 0.50000000
vt 0.50000000 0.50000000
vt 0.50000000 0.50000000
vt 0.50000000 0.50000000
vt 0.50000000 0.50000000
vt 0.50000000 0.50000000
vt 0.50000000 0.50000000
vt 0.50000000 0.50000000
vt 0.50000000 0.50000000
vt 0.50000000 0.50000000
vt 0.50000000 0.50000000
vt 0.50000000 0.50000000
vt 0.50000000 0.50000000
vt 0.50000000 0.50000000
vt 0.50000000 0.50000000
vt 0.50000000 0.50000000
vt 0.50000000 0.50000000
vt 0.50000000 0.50000000
vt 0.50000000 0.50000000
vt 0.50000000 0.50000000
vt 0.50000000 0.50000000
vt 0.50000000 0.50000000
vt 0.50000000 0.50000000
vt 0.50000000 0.50000000
vt 0.50000000 0.50000000
vt 0.50000000 0.50000000
vt 0.50000000 0.50000000
vt 0.50000000 0.50000000
vt 0.50000000 0.50000000
vt 0.50000000 0.50000000
vt 0.50000000 0.50000000
vt 0.50000000 0.50000000
vt 0.50000000 0.50000000
vt 0.50000000 0.50000000
vt 0.50000000 0.50000000
vt 0.50000000 0.50000000
vt 0.50000000 0.50000000
vt 0.50000000 0.50000000
vt 0.50000000 0.50000000
vt 0.50000000 0.50000000
vt 0.50000000 0.50000000
vt 0.50000000 0.50000000
vt 0.50000000 0.50000000
vt 0.50000000 0.50000000
vt 0.50000000 0.50000000
vt 0.50000000 0.50000000
vt 0.50000000 0.50000000
vt 0.50000000 0.50000000
vt 0.50000000 0.50000000
vt 0.50000000 0.50000000
vt 0.50000000 0.50000000
vt 0.50000000 0.50000000
vt 0.50000000 0.50000000
vt 0.50000000 0.50000000
vt 0.50000000 0.50000000
vt 0.50000000 0.50000000
vt 0.50000000 0.50000000
vt 0.50000000 0.50000000
vt 0.50000000 0.50000000
vt 0.50000000 0.50000000
vt 0.50000000 0.50000000
vt 0.50000000 0.50000000
vt 0.50000000 0.50000000
vt 0.50000000 0.50000000
vt 0.50000000 0.50000000
vt 0.50000000 0.50000000
vt 0.50000000 0.50000000
vt 0.50000000 0.50000000
vt 0.50000000 0.50000000
vt 0.50000000 0.50000000
vt 0.50000000 0.50000000
vt 0.50000000 0.50000000
vt 0.50000000 0.50000000
vt 0.50000000 0.50000000
vt 0.50000000 0.50000000
vt 0.50000000 0.50000000
vt 0.50000000 0.50000000
vt 0.50000000 0.50000000
vt 0.50000000 0.50000000
vt 0.50000000 0.50000000
vt 0.50000000 0.50000000
vt 0.50000000 0.50000000
vt 0.50000000 0.50000000
vt 0.50000000 0.50000000
vt 0.50000000 0.50000000
vt 0.50000000 0.50000000
vt 0.50000000 0.50000000
vt 0.50000000 0.50000000
vt 0.50000000 0.50000000
vt 0.50000000 0.50000000
vt 0.50000000 0.50000000
vt 0.50000000 0.50000000
vt 0.50000000 0.50000000
vt 0.50000000 0.50000000
vt 0.50000000 0.50000000
vt 0.50000000 0.50000000
vt 0.50000000 0.50000000
vt 0.50000000 0.50000000
vt 0.50000000 0.50000000
vt 0.50000000 0.50000000
vt 0.50000000 0.50000000
vt 0.50000000 0.50000000
vt 0.50000000 0.50000000
vt 0.50000000 0.50000000
vt 0.50000000 0.50000000
vt 0.50000000 0.50000000
vt 0.50000000 0.50000000
vt 0.50000000 0.50000000
vt 0.50000000 0.50000000
vt 0.50000000 0.50000000
vt 0.50000000 0.50000000
vt 0.50000000 0.50000000
vt 0.50000000 0.50000000
vt 0.50000000 0.50000000
vt 0.50000000 0.50000000
vt 0.50000000 0.50000000
vt 0.50000000 0.50000000
vt 0.50000000 0.50000000
vt 0.50000000 0.50000000
vt 0.50000000 0.50000000
vt 0.50000000 0.50000000
vt 0.50000000 0.50000000
vt 0.50000000 0.50000000
vt 0.50000000 0.50000000
vt 0.50000000 0.50000000
vt 0.50000000 0.50000000
vt 0.50000000 0.50000000
vt 0.50000000 0.50000000
vt 0.50000000 0.50000000
vt 0.50000000 0.50000000
vt 0.50000000 0.50000000
vt 0.50000000 0.50000000
vt 0.50000000 0.50000000
vt 0.50000000 0.50000000
vt 0.50000000 0.50000000
vt 0.50000000 0.50000000
vt 0.50000000 0.50000000
vt 0.50000000 0.50000000
vt 0.50000000 0.50000000
vt 0.50000000 0.50000000
vt 0.50000000 0.50000000
vt 0.50000000 0.50000000
vt 0.50000000 0.50000000
vt 0.50000000 0.50000000
vt 0.50000000 0.50000000
vt 0.50000000 0.50000000
vt 0.50000000 0.50000000
vt 0.50000000 0.50000000
vt 0.50000000 0.50000000
vt 0.50000000 0.50000000
vt 0.50000000 0.50000000
vt 0.50000000 0.50000000
vt 0.50000000 0.50000000
vt 0.50000000 0.50000000
vt 0.50000000 0.50000000
vt 0.50000000 0.50000000
vt 0.50000000 0.50000000
vt 0.50000000 0.50000000
vt 0.50000000 0.50000000
vt 0.50000000 0.50000000
vt 0.50000000 0.50000000
vt 0.50000000 0.50000000
vt 0.50000000 0.50000000
vt 0.50000000 0.50000000
vt 0.50000000 0.50000000
vt 0.50000000 0.50000000
vt 0.50000000 0.50000000
vt 0.50000000 0.50000000
vt 0.50000000 0.50000000
vt 0.50000000 0.50000000
vt 0.50000000 0.50000000
vt 0.50000000 0.50000000
vt 0.50000000 0.50000000
vt 0.50000000 0.50000000
vt 0.50000000 0.50000000
vt 0.50000000 0.50000000
vt 0.50000000 0.50000000
vt 0.50000000 0.50000000
vt 0.50000000 0.50000000
vt 0.50000000 0.50000000
vt 0.50000000 0.50000000
vt 0.50000000 0.50000000
vt 0.50000000 0.50000000
vt 0.50000000 0.50000000
vt 0.50000000 0.50000000
vt 0.50000000 0.50000000
vt 0.50000000 0.50000000
vt 0.50000000 0.50000000
vt 0.50000000 0.50000000
vt 0.50000000 0.50000000
vt 0.50000000 0.50000000
vt 0.50000000 0.50000000
vt 0.50000000 0.50000000
vt 0.50000000 0.50000000
vt 0.50000000 0.50000000
vt 0.50000000 0.50000000
vt 0.50000000 0.50000000
vt 0.50000000 0.50000000
vt 0.50000000 0.50000000
vt 0.50000000 0.50000000
vt 0.50000000 0.50000000
vt 0.50000000 0.50000000
vt 0.50000000 0.50000000
vt 0.50000000 0.50000000
vt 0.50000000 0.50000000
vt 0.50000000 0.50000000
vt 0.50000000 0.50000000
vt 0.50000000 0.50000000
vt 0.50000000 0.50000000
vt 0.50000000 0.50000000
vt 0.50000000 0.50000000
vt 0.50000000 0.50000000
vt 0.50000000 0.50000000
vt 0.50000000 0.50000000
vt 0.50000000 0.50000000
vt 0.50000000 0.50000000
vt 0.50000000 0.50000000
vt 0.50000000 0.50000000
vt 0.50000000 0.50000000
vt 0.50000000 0.50000000
vt 0.50000000 0.50000000
vt 0.50000000 0.50000000
vt 0.50000000 0.50000000
vt 0.50000000 0.50000000
vt 0.50000000 0.50000000
vt 0.50000000 0.50000000
vt 0.50000000 0.50000000
vt 0.50000000 0.50000000
vt 0.50000000 0.50000000
vt 0.50000000 0.50000000
vt 0.50000000 0.50000000
vt 0.50000000 0.50000000
vt 0.50000000 0.50000000
vt 0.50000000 0.50000000
vt 0.50000000 0.50000000
vt 0.50000000 0.50000000
vt 0.50000000 0.50000000
vt 0.50000000 0.50000000
vt 0.50000000 0.50000000
vt 0.50000000 0.50000000
vt 0.50000000 0.50000000
vt 0.50000000 0.50000000
vt 0.50000000 0.50000000
vt 0.50000000 0.50000000
vt 0.50000000 0.50000000
vt 0.50000000 0.50000000
vt 0.50000000 0.50000000
vt 0.50000000 0.50000000
vt 0.50000000 0.50000000
vt 0.50000000 0.50000000
vt 0.50000000 0.50000000
vt 0.50000000 0.50000000
vt 0.50000000 0.50000000
vt 0.50000000 0.50000000
vt 0.50000000 0.50000000
vt 0.50000000 0.50000000
vt 0.50000000 0.50000000
vt 0.50000000 0.50000000
vt 0.50000000 0.50000000
vt 0.50000000 0.50000000
vt 0.50000000 0.50000000
vt 0.50000000 0.50000000
vt 0.50000000 0.50000000
vt 0.50000000 0.50000000
vt 0.50000000 0.50000000
vt 0.50000000 0.50000000
vt 0.50000000 0.50000000
vt 0.50000000 0.50000000
vt 0.50000000 0.50000000
vt 0.50000000 0.50000000
vt 0.50000000 0.50000000
vt 0.50000000 0.50000000
vt 0.50000000 0.50000000
vt 0.50000000 0.50000000
vt 0.50000000 0.50000000
vt 0.50000000 0.50000000
vt 0.50000000 0.50000000
vt 0.50000000 0.50000000
vt 0.50000000 0.50000000
vt 0.50000000 0.50000000
vt 0.50000000 0.50000000
vt 0.50000000 0.50000000
vt 0.50000000 0.50000000
vt 0.50000000 0.50000000
vt 0.50000000 0.50000000
vt 0.50000000 0.50000000
vt 0.50000000 0.50000000
vt 0.50000000 0.50000000
vt 0.50000000 0.50000000
vt 0.50000000 0.50000000
vt 0.50000000 0.50000000
vt 0.50000000 0.50000000
vt 0.50000000 0.50000000
vt 0.50000000 0.50000000
vt 0.50000000 0.50000000
vt 0.50000000 0.50000000
vt 0.50000000 0.50000000
vt 0.50000000 0.50000000
vt 0.50000000 0.50000000
vt 0.50000000 0.50000000
vt 0.50000000 0.50000000
vt 0.50000000 0.50000000
vt 0.50000000 0.50000000
vt 0.50000000 0.50000000
vt 0.50000000 0.50000000
vt 0.50000000 0.50000000
vt 0.50000000 0.50000000
vt 0.50000000 0.50000000
vt 0.50000000 0.50000000
vt 0.50000000 0.50000000
vt 0.50000000 0.50000000
vt 0.50000000 0.50000000
vt 0.50000000 0.50000000
vt 0.50000000 0.50000000
vt 0.50000000 0.50000000
vt 0.50000000 0.50000000
vt 0.50000000 0.50000000
vt 0.50000000 0.50000000
vt 0.50000000 0.50000000
vt 0.50000000 0.50000000
vt 0.50000000 0.50000000
vt 0.50000000 0.50000000
vt 0.50000000 0.50000000
vt 0.50000000 0.50000000
vt 0.50000000 0.50000000
vt 0.50000000 0.50000000
vt 0.50000000 0.50000000
vt 0.50000000 0.50000000
vt 0.50000000 0.50000000
vt 0.50000000 0.50000000
vt 0.50000000 0.50000000
vt 0.50000000 0.50000000
vt 0.50000000 0.50000000
vt 0.50000000 0.50000000
vt 0.50000000 0.50000000
vt 0.50000000 0.50000000
vt 0.50000000 0.50000000
vt 0.50000000 0.50000000
vt 0.50000000 0.50000000
vt 0.50000000 0.50000000
vt 0.50000000 0.50000000
vt 0.50000000 0.50000000
vt 0.50000000 0.50000000
vt 0.50000000 0.50000000
vt 0.50000000 0.50000000
vt 0.50000000 0.50000000
vt 0.50000000 0.50000000
vt 0.50000000 0.50000000
vt 0.50000000 0.50000000
vt 0.50000000 0.50000000
vt 0.50000000 0.50000000
vt 0.50000000 0.50000000
vt 0.50000000 0.50000000
vt 0.50000000 0.50000000
vt 0.50000000 0.50000000
vt 0.50000000 0.50000000
vt 0.50000000 0.50000000
vt 0.50000000 0.50000000
vt 0.50000000 0.50000000
vt 0.50000000 0.50000000
vt 0.50000000 0.50000000
vt 0.50000000 0.50000000
vt 0.50000000 0.50000000
vt 0.50000000 0.50000000
vt 0.50000000 0.50000000
vt 0.50000000 0.50000000
vt 0.50000000 0.50000000
vt 0.50000000 0.50000000
vt 0.50000000 0.50000000
vt 0.50000000 0.50000000
vt 0.50000000 0.50000000
vt 0.50000000 0.50000000
vt 0.50000000 0.50000000
vt 0.50000000 0.50000000
vt 0.50000000 0.50000000
vt 0.50000000 0.50000000
vt 0.50000000 0.50000000
vt 0.50000000 0.50000000
vt 0.50000000 0.50000000
vt 0.50000000 0.50000000
vt 0.50000000 0.50000000
vt 0.50000000 0.50000000
vt 0.50000000 0.50000000
vt 0.50000000 0.50000000
vt 0.50000000 0.50000000
vt 0.50000000 0.50000000
vt 0.50000000 0.50000000
vt 0.50000000 0.50000000
vt 0.50000000 0.50000000
vt 0.50000000 0.50000000
vt 0.50000000 0.50000000
vt 0.50000000 0.50000000
vt 0.50000000 0.50000000
vt 0.50000000 0.50000000
vt 0.50000000 0.50000000
vt 0.50000000 0.50000000
vt 0.50000000 0.50000000
vt 0.50000000 0.50000000
vt 0.50000000 0.50000000
vt 0.50000000 0.50000000
vt 0.50000000 0.50000000
vt 0.50000000 0.50000000
vt 0.50000000 0.50000000
vt 0.50000000 0.50000000
vt 0.50000000 0.50000000
vt 0.50000000 0.50000000
vt 0.50000000 0.50000000
vt 0.50000000 0.50000000
vt 0.50000000 0.50000000
vt 0.50000000 0.50000000
vt 0.50000000 0.50000000
vt 0.50000000 0.50000000
vt 0.50000000 0.50000000
vt 0.50000000 0.50000000
vt 0.50000000 0.50000000
vt 0.50000000 0.50000000
vt 0.50000000 0.50000000
vt 0.50000000 0.50000000
vt 0.50000000 0.50000000
vt 0.50000000 0.50000000
vt 0.50000000 0.50000000
vt 0.50000000 0.50000000
vt 0.50000000 0.50000000
vt 0.50000000 0.50000000
vt 0.50000000 0.50000000
vt 0.50000000 0.50000000
vt 0.50000000 0.50000000
vt 0.50000000 0.50000000
vt 0.50000000 0.50000000
vt 0.50000000 0.50000000
vt 0.50000000 0.50000000
vt 0.50000000 0.50000000
vt 0.50000000 0.50000000
vt 0.50000000 0.50000000
vt 0.50000000 0.50000000
vt 0.50000000 0.50000000
vt 0.50000000 0.50000000
vt 0.50000000 0.50000000
vt 0.50000000 0.50000000
vt 0.50000000 0.50000000
vt 0.50000000 0.50000000
vt 0.50000000 0.50000000
vt 0.50000000 0.50000000
vt 0.50000000 0.50000000
vt 0.50000000 0.50000000
vt 0.50000000 0.50000000
vt 0.50000000 0.50000000
vt 0.50000000 0.50000000
vt 0.50000000 0.50000000
vt 0.50000000 0.50000000
vt 0.50000000 0.50000000
vt 0.50000000 0.50000000
vt 0.50000000 0.50000000
vt 0.50000000 0.50000000
vt 0.50000000 0.50000000
vt 0.50000000 0.50000000
vt 0.50000000 0.50000000
vt 0.50000000 0.50000000
vt 0.50000000 0.50000000
vt 0.50000000 0.50000000
vt 0.50000000 0.50000000
vt 0.50000000 0.50000000
vt 0.50000000 0.50000000
vt 0.50000000 0.50000000
vt 0.50000000 0.50000000
vt 0.50000000 0.50000000
vt 0.50000000 0.50000000
vt 0.50000000 0.50000000
vt 0.50000000 0.50000000
vt 0.50000000 0.50000000
vt 0.50000000 0.50000000
vt 0.50000000 0.50000000
vt 0.50000000 0.50000000
vt 0.50000000 0.50000000
vt 0.50000000 0.50000000
vt 0.50000000 0.50000000
vt 0.50000000 0.50000000
vt 0.50000000 0.50000000
vt 0.50000000 0.50000000
vt 0.50000000 0.50000000
vt 0.50000000 0.50000000
vt 0.50000000 0.50000000
vt 0.50000000 0.50000000
vt 0.50000000 0.50000000
vt 0.50000000 0.50000000
vt 0.50000000 0.50000000
vt 0.50000000 0.50000000
vt 0.50000000 0.50000000
vt 0.50000000 0.50000000
vt 0.50000000 0.50000000
vt 0.50000000 0.50000000
vt 0.50000000 0.50000000
vt 0.50000000 0.50000000
vt 0.50000000 0.50000000
vt 0.50000000 0.50000000
vt 0.50000000 0.50000000
vt 0.50000000 0.50000000
vt 0.50000000 0.50000000
vt 0.50000000 0.50000000
vt 0.50000000 0.50000000
vt 0.50000000 0.50000000
f 1/1 2/2 3/3
f 4/4 3/3 2/2
f 2/2 5/5 4/4
f 6/6 7/7 8/8
f 9/9 8/8 7/7
f 7/7 1/1 9/9
f 10/10 11/11 12/12
f 13/13 12/12 11/11
f 11/11 14/14 13/13
f 15/15 13/13 14/14
f 14/14 16/16 15/15
f 17/17 15/15 16/16
f 16/16 6/6 17/17
f 10/10 18/18 19/19
f 20/20 19/19 21/21
f 22/22 23/23 24/24
f 24/24 25/25 26/26
f 26/26 27/27 24/24
f 21/21 26/26 25/25
f 25/25 28/28 21/21
f 29/29 30/30 31/31
f 22/22 31/31 30/30
f 30/30 23/23 22/22
f 32/32 33/33 34/34
f 35/35 34/34 33/33
f 33/33 29/29 35/35
f 36/36 37/37 38/38
f 39/39 38/38 37/37
f 37/37 32/32 39/39
f 40/40 41/41 42/42
f 43/43 42/42 41/41
f 41/41 36/36 43/43
f 44/44 45/45 46/46
f 47/47 48/48 49/49
f 49/49 46/46 47/47
f 50/50 48/48 47/47
f 47/47 40/40 50/50
f 51/51 52/52 53/53
f 44/44 53/53 52/52
f 52/52 45/45 44/44
f 54/54 55/55 56/56
f 57/57 56/56 55/55
f 55/55 51/51 57/57
f 58/58 59/59 60/60
f 61/61 60/60 59/59
f 59/59 62/62 61/61
f 63/63 61/61 62/62
f 62/62 64/64 63/63
f 65/65 63/63 64/64
f 64/64 54/54 65/65
f 66/66 67/67 68/68
f 69/69 68/68 67/67
f 67/67 58/58 69/69
f 5/5 70/70 71/71
f 72/72 71/71 70/70
f 70/70 66/66 72/72
f 71/71 4/4 5/5
f 68/68 72/72 66/66
f 60/60 69/69 58/58
f 56/56 65/65 54/54
f 53/53 57/57 51/51
f 46/46 49/49 44/44
f 42/42 50/50 40/40
f 38/38 43/43 36/36
f 34/34 39/39 32/32
f 31/31 35/35 29/29
f 24/24 27/27 22/22
f 21/21 28/28 20/20
f 19/19 20/20 10/10
f 12/12 18/18 10/10
f 8/8 17/17 6/6
f 3/3 9/9 1/1
f 73/73 74/74 75/75
f 76/76 77/77 78/78
f 77/77 79/79 80/80
f 80/80 78/78 77/77
f 81/81 80/80 79/79
f 79/79 73/73 81/81
f 82/82 76/76 83/83
f 84/84 82/82 85/85
f 86/86 84/84 87/87
f 88/88 86/86 89/89
f 90/90 91/91 92/92
f 93/93 92/92 91/91
f 91/91 88/88 93/93
f 94/94 90/90 95/95
f 96/96 94/94 97/97
f 98/98 99/99 100/100
f 101/101 100/100 99/99
f 99/99 96/96 101/101
f 102/102 98/98 103/103
f 104/104 102/102 105/105
f 106/106 104/104 107/107
f 108/108 106/106 109/109
f 110/110 111/111 112/112
f 113/113 112/112 111/111
f 111/111 114/114 113/113
f 115/115 113/113 114/114
f 114/114 108/108 115/115
f 74/74 110/110 116/116
f 116/116 75/75 74/74
f 112/112 116/116 110/110
f 109/109 115/115 108/108
f 107/107 109/109 106/106
f 105/105 107/107 104/104
f 103/103 105/105 102/102
f 100/100 103/103 98/98
f 97/97 101/101 96/96
f 95/95 97/97 94/94
f 92/92 95/95 90/90
f 89/89 93/93 88/88
f 87/87 89/89 86/86
f 85/85 87/87 84/84
f 83/83 85/85 82/82
f 78/78 83/83 76/76
f 75/75 81/81 73/73
f 117/117 118/118 119/119
f 120/120 117/117 121/121
f 122/122 120/120 123/123
f 124/124 122/122 125/125
f 126/126 124/124 127/127
f 128/128 126/126 129/129
f 130/130 128/128 131/131
f 132/132 130/130 133/133
f 134/134 132/132 135/135
f 136/136 134/134 137/137
f 138/138 136/136 139/139
f 140/140 138/138 141/141
f 142/142 140/140 143/143
f 144/144 142/142 145/145
f 146/146 144/144 147/147
f 118/118 146/146 148/148
f 148/148 119/119 118/118
f 147/147 148/148 146/146
f 145/145 147/147 144/144
f 143/143 145/145 142/142
f 141/141 143/143 140/140
f 139/139 141/141 138/138
f 137/137 139/139 136/136
f 135/135 137/137 134/134
f 133/133 135/135 132/132
f 131/131 133/133 130/130
f 129/129 131/131 128/128
f 127/127 129/129 126/126
f 125/125 127/127 124/124
f 123/123 125/125 122/122
f 121/121 123/123 120/120
f 119/119 121/121 117/117
f 149/149 150/150 151/151
f 152/152 149/149 153/153
f 154/154 152/152 155/155
f 156/156 154/154 157/157
f 158/158 156/156 159/159
f 160/160 158/158 161/161
f 162/162 160/160 163/163
f 164/164 162/162 165/165
f 166/166 164/164 167/167
f 168/168 166/166 169/169
f 170/170 168/168 171/171
f 172/172 170/170 173/173
f 174/174 172/172 175/175
f 176/176 174/174 177/177
f 178/178 176/176 179/179
f 150/150 178/178 180/180
f 180/180 151/151 150/150
f 179/179 180/180 178/178
f 177/177 179/179 176/176
f 175/175 177/177 174/174
f 173/173 175/175 172/172
f 171/171 173/173 170/170
f 169/169 171/171 168/168
f 167/167 169/169 166/166
f 165/165 167/167 164/164
f 163/163 165/165 162/162
f 161/161 163/163 160/160
f 159/159 161/161 158/158
f 157/157 159/159 156/156
f 155/155 157/157 154/154
f 153/153 155/155 152/152
f 151/151 153/153 149/149
f 181/181 182/182 183/183
f 184/184 181/181 185/185
f 186/186 184/184 187/187
f 188/188 186/186 189/189
f 190/190 188/188 191/191
f 192/192 190/190 193/193
f 194/194 192/192 195/195
f 196/196 194/194 197/197
f 198/198 196/196 199/199
f 200/200 198/198 201/201
f 202/202 200/200 203/203
f 204/204 202/202 205/205
f 206/206 204/204 207/207
f 208/208 206/206 209/209
f 210/210 208/208 211/211
f 182/182 210/210 212/212
f 212/212 183/183 182/182
f 211/211 212/212 210/210
f 209/209 211/211 208/208
f 207/207 209/209 206/206
f 205/205 207/207 204/204
f 203/203 205/205 202/202
f 201/201 203/203 200/200
f 199/199 201/201 198/198
f 197/197 199/199 196/196
f 195/195 197/197 194/194
f 193/193 195/195 192/192
f 191/191 193/193 190/190
f 189/189 191/191 188/188
f 187/187 189/189 186/186
f 185/185 187/187 184/184
f 183/183 185/185 181/181
f 213/213 214/214 215/215
f 216/216 213/213 217/217
f 218/218 216/216 219/219
f 220/220 218/218 221/221
f 222/222 220/220 223/223
f 224/224 222/222 225/225
f 226/226 224/224 227/227
f 228/228 226/226 229/229
f 230/230 228/228 231/231
f 232/232 230/230 233/233
f 234/234 232/232 235/235
f 236/236 234/234 237/237
f 238/238 236/236 239/239
f 240/240 238/238 241/241
f 242/242 240/240 243/243
f 214/214 242/242 244/244
f 244/244 215/215 214/214
f 243/243 244/244 242/242
f 241/241 243/243 240/240
f 239/239 241/241 238/238
f 237/237 239/239 236/236
f 235/235 237/237 234/234
f 233/233 235/235 232/232
f 231/231 233/233 230/230
f 229/229 231/231 228/228
f 227/227 229/229 226/226
f 225/225 227/227 224/224
f 223/223 225/225 222/222
f 221/221 223/223 220/220
f 219/219 221/221 218/218
f 217/217 219/219 216/216
f 215/215 217/217 213/213
f 245/245 246/246 247/247
f 248/248 245/245 249/249
f 250/250 248/248 251/251
f 252/252 250/250 253/253
f 254/254 252/252 255/255
f 256/256 254/254 257/257
f 258/258 256/256 259/259
f 260/260 258/258 261/261
f 262/262 260/260 263/263
f 264/264 262/262 265/265
f 266/266 264/264 267/267
f 268/268 266/266 269/269
f 270/270 268/268 271/271
f 272/272 270/270 273/273
f 274/274 272/272 275/275
f 246/246 274/274 276/276
f 276/276 247/247 246/246
f 275/275 276/276 274/274
f 273/273 275/275 272/272
f 271/271 273/273 270/270
f 269/269 271/271 268/268
f 267/267 269/269 266/266
f 265/265 267/267 264/264
f 263/263 265/265 262/262
f 261/261 263/263 260/260
f 259/259 261/261 258/258
f 257/257 259/259 256/256
f 255/255 257/257 254/254
f 253/253 255/255 252/252
f 251/251 253/253 250/250
f 249/249 251/251 248/248
f 247/247 249/249 245/245
f 277/277 278/278 279/279
f 280/280 277/277 281/281
f 282/282 280/280 283/283
f 284/284 282/282 285/285
f 286/286 284/284 287/287
f 288/288 286/286 289/289
f 290/290 288/288 291/291
f 292/292 290/290 293/293
f 294/294 292/292 295/295
f 296/296 294/294 297/297
f 298/298 296/296 299/299
f 300/300 298/298 301/301
f 302/302 300/300 303/303
f 304/304 302/302 305/305
f 306/306 304/304 307/307
f 278/278 306/306 308/308
f 308/308 279/279 278/278
f 307/307 308/308 306/306
f 305/305 307/307 304/304
f 303/303 305/305 302/302
f 301/301 303/303 300/300
f 299/299 301/301 298/298
f 297/297 299/299 296/296
f 295/295 297/297 294/294
f 293/293 295/295 292/292
f 291/291 293/293 290/290
f 289/289 291/291 288/288
f 287/287 289/289 286/286
f 285/285 287/287 284/284
f 283/283 285/285 282/282
f 281/281 283/283 280/280
f 279/279 281/281 277/277
f 309/309 310/310 311/311
f 312/312 309/309 313/313
f 314/314 312/312 315/315
f 316/316 314/314 317/317
f 318/318 316/316 319/319
f 320/320 318/318 321/321
f 322/322 320/320 323/323
f 324/324 322/322 325/325
f 326/326 324/324 327/327
f 328/328 326/326 329/329
f 330/330 328/328 331/331
f 332/332 330/330 333/333
f 334/334 332/332 335/335
f 336/336 334/334 337/337
f 338/338 336/336 339/339
f 310/310 338/338 340/340
f 340/340 311/311 310/310
f 339/339 340/340 338/338
f 337/337 339/339 336/336
f 335/335 337/337 334/334
f 333/333 335/335 332/332
f 331/331 333/333 330/330
f 329/329 331/331 328/328
f 327/327 329/329 326/326
f 325/325 327/327 324/324
f 323/323 325/325 322/322
f 321/321 323/323 320/320
f 319/319 321/321 318/318
f 317/317 319/319 316/316
f 315/315 317/317 314/314
f 313/313 315/315 312/312
f 311/311 313/313 309/309
f 341/341 342/342 343/343
f 344/344 341/341 345/345
f 346/346 344/344 347/347
f 348/348 346/346 349/349
f 350/350 348/348 351/351
f 352/352 350/350 353/353
f 354/354 352/352 355/355
f 356/356 354/354 357/357
f 358/358 356/356 359/359
f 360/360 358/358 361/361
f 362/362 360/360 363/363
f 364/364 362/362 365/365
f 366/366 364/364 367/367
f 368/368 366/366 369/369
f 370/370 368/368 371/371
f 342/342 370/370 372/372
f 372/372 343/343 342/342
f 371/371 372/372 370/370
f 369/369 371/371 368/368
f 367/367 369/369 366/366
f 365/365 367/367 364/364
f 363/363 365/365 362/362
f 361/361 363/363 360/360
f 359/359 361/361 358/358
f 357/357 359/359 356/356
f 355/355 357/357 354/354
f 353/353 355/355 352/352
f 351/351 353/353 350/350
f 349/349 351/351 348/348
f 347/347 349/349 346/346
f 345/345 347/347 344/344
f 343/343 345/345 341/341
f 373/373 374/374 375/375
f 376/376 373/373 377/377
f 378/378 376/376 379/379
f 380/380 378/378 381/381
f 382/382 380/380 383/383
f 384/384 382/382 385/385
f 386/386 384/384 387/387
f 388/388 386/386 389/389
f 390/390 388/388 391/391
f 392/392 390/390 393/393
f 394/394 392/392 395/395
f 396/396 394/394 397/397
f 398/398 396/396 399/399
f 400/400 398/398 401/401
f 402/402 400/400 403/403
f 374/374 402/402 404/404
f 404/404 375/375 374/374
f 403/403 404/404 402/402
f 401/401 403/403 400/400
f 399/399 401/401 398/398
f 397/397 399/399 396/396
f 395/395 397/397 394/394
f 393/393 395/395 392/392
f 391/391 393/393 390/390
f 389/389 391/391 388/388
f 387/387 389/389 386/386
f 385/385 387/387 384/384
f 383/383 385/385 382/382
f 381/381 383/383 380/380
f 379/379 381/381 378/378
f 377/377 379/379 376/376
f 375/375 377/377 373/373
f 405/405 406/406 407/407
f 408/408 409/409 410/410
f 411/411 412/412 413/413
f 414/414 415/415 412/412
f 412/412 411/411 414/414
f 416/416 407/407 417/417
f 417/417 418/418 416/416
f 407/407 419/419 417/417
f 407/407 420/420 419/419
f 421/421 422/422 423/423
f 422/422 424/424 425/425
f 425/425 423/423 422/422
f 409/409 426/426 427/427
f 408/408 428/428 426/426
f 426/426 409/409 408/408
f 408/408 429/429 428/428
f 430/430 431/431 432/432
f 408/408 433/433 434/434
f 430/430 435/435 436/436
f 437/437 438/438 439/439
f 437/437 440/440 441/441
f 442/442 443/443 440/440
f 408/408 444/444 433/433
f 408/408 436/436 445/445
f 430/430 446/446 435/435
f 439/439 430/430 437/437
f 437/437 447/447 448/448
f 440/440 443/443 441/441
f 449/449 450/450 442/442
f 449/449 434/434 451/451
f 445/445 444/444 408/408
f 439/439 446/446 430/430
f 441/441 447/447 437/437
f 451/451 450/450 449/449
f 436/436 408/408 430/430
f 440/440 449/449 442/442
f 448/448 438/438 437/437
f 452/452 449/449 453/453
f 421/421 454/454 455/455
f 449/449 452/452 429/429
f 455/455 453/453 421/421
f 453/453 455/455 452/452
f 453/453 456/456 457/457
f 453/453 458/458 459/459
f 457/457 460/460 453/453
f 461/461 462/462 463/463
f 460/460 458/458 453/453
f 463/463 456/456 461/461
f 461/461 464/464 465/465
f 421/421 466/466 467/467
f 421/421 468/468 469/469
f 453/453 470/470 471/471
f 463/463 457/457 456/456
f 465/465 472/472 461/461
f 464/464 473/473 474/474
f 469/469 466/466 421/421
f 471/471 421/421 453/453
f 472/472 462/462 461/461
f 464/464 467/467 473/473
f 471/471 468/468 421/421
f 474/474 465/465 464/464
f 459/459 470/470 453/453
f 421/421 464/464 475/475
f 421/421 476/476 477/477
f 464/464 478/478 475/475
f 475/475 476/476 421/421
f 464/464 479/479 480/480
f 481/481 482/482 479/479
f 481/481 483/483 484/484
f 485/485 422/422 486/486
f 422/422 487/487 488/488
f 421/421 489/489 490/490
f 480/480 478/478 464/464
f 481/481 491/491 482/482
f 483/483 492/492 484/484
f 485/485 493/493 492/492
f 488/488 486/486 422/422
f 490/490 422/422 421/421
f 479/479 464/464 481/481
f 492/492 483/483 485/485
f 490/490 487/487 422/422
f 484/484 491/491 481/481
f 477/477 489/489 421/421
f 424/424 422/422 494/494
f 495/495 416/416 496/496
f 496/496 424/424 495/495
f 497/497 405/405 498/498
f 405/405 416/416 499/499
f 416/416 495/495 500/500
f 501/501 495/495 502/502
f 497/497 503/503 504/504
f 405/405 505/505 498/498
f 499/499 506/506 405/405
f 416/416 507/507 508/508
f 500/500 509/509 416/416
f 495/495 510/510 511/511
f 502/502 512/512 501/501
f 504/504 502/502 497/497
f 497/497 513/513 514/514
f 506/506 505/505 405/405
f 509/509 507/507 416/416
f 501/501 510/510 495/495
f 514/514 503/503 497/497
f 508/508 499/499 416/416
f 504/504 512/512 502/502
f 511/511 500/500 495/495
f 405/405 497/497 515/515
f 516/516 517/517 518/518
f 406/406 519/519 520/520
f 405/405 521/521 522/522
f 405/405 523/523 524/524
f 517/517 525/525 518/518
f 520/520 517/517 406/406
f 524/524 521/521 405/405
f 523/523 526/526 527/527
f 520/520 525/525 517/517
f 406/406 528/528 529/529
f 405/405 530/530 531/531
f 527/527 524/524 523/523
f 516/516 532/532 526/526
f 529/529 519/519 406/406
f 531/531 406/406 405/405
f 526/526 523/523 516/516
f 531/531 528/528 406/406
f 516/516 533/533 532/532
f 522/522 530/530 405/405
f 518/518 534/534 516/516
f 406/406 517/517 535/535
f 536/536 537/537 538/538
f 539/539 540/540 537/537
f 407/407 541/541 542/542
f 406/406 543/543 544/544
f 536/536 545/545 546/546
f 536/536 547/547 548/548
f 537/537 540/540 538/538
f 549/549 550/550 539/539
f 549/549 542/542 551/551
f 407/407 552/552 541/541
f 407/407 544/544 553/553
f 406/406 554/554 543/543
f 546/546 406/406 536/536
f 538/538 547/547 536/536
f 551/551 550/550 549/549
f 553/553 552/552 407/407
f 546/546 554/554 406/406
f 537/537 549/549 539/539
f 544/544 407/407 406/406
f 542/542 549/549 407/407
f 549/549 555/555 420/420
f 555/555 549/549 556/556
f 556/556 411/411 555/555
f 557/557 414/414 558/558
f 557/557 559/559 560/560
f 414/414 561/561 558/558
f 558/558 559/559 557/557
f 414/414 562/562 563/563
f 414/414 411/411 564/564
f 565/565 566/566 567/567
f 566/566 568/568 569/569
f 566/566 557/557 570/570
f 563/563 561/561 414/414
f 411/411 571/571 564/564
f 411/411 572/572 573/573
f 565/565 574/574 572/572
f 569/569 567/567 566/566
f 557/557 575/575 570/570
f 564/564 562/562 414/414
f 572/572 411/411 565/565
f 570/570 568/568 566/566
f 573/573 571/571 411/411
f 560/560 575/575 557/557
f 576/576 577/577 578/578
f 579/579 578/578 580/580
f 576/576 581/581 577/577
f 578/578 579/579 576/576
f 576/576 582/582 583/583
f 576/576 414/414 584/584
f 557/557 585/585 586/586
f 557/557 587/587 588/588
f 579/579 589/589 590/590
f 583/583 581/581 576/576
f 414/414 591/591 584/584
f 414/414 592/592 593/593
f 588/588 585/585 557/557
f 590/590 557/557 579/579
f 584/584 582/582 576/576
f 414/414 586/586 592/592
f 590/590 587/587 557/557
f 593/593 591/591 414/414
f 580/580 589/589 579/579
f 594/594 595/595 576/576
f 596/596 409/409 597/597
f 414/414 576/576 595/595
f 597/597 594/594 596/596
f 576/576 596/596 594/594
f 598/598 596/596 599/599
f 600/600 601/601 602/602
f 600/600 410/410 603/603
f 410/410 409/409 604/604
f 409/409 596/596 605/605
f 596/596 606/606 607/607
f 599/599 608/608 598/598
f 602/602 599/599 600/600
f 600/600 609/609 610/610
f 410/410 611/611 603/603
f 604/604 612/612 410/410
f 409/409 613/613 614/614
f 605/605 615/615 409/409
f 598/598 606/606 596/596
f 610/610 601/601 600/600
f 612/612 611/611 410/410
f 615/615 613/613 409/409
f 602/602 608/608 599/599
f 614/614 604/604 409/409
f 603/603 609/609 600/600
f 410/410 600/600 616/616
f 617/617 431/431 618/618
f 410/410 619/619 620/620
f 431/431 621/621 618/618
f 430/430 622/622 623/623
f 410/410 624/624 625/625
f 619/619 626/626 620/620
f 617/617 627/627 628/628
f 431/431 623/623 621/621
f 430/430 629/629 622/622
f 620/620 624/624 410/410
f 628/628 619/619 617/617
f 623/623 431/431 430/430
f 628/628 626/626 619/619
f 617/617 630/630 631/631
f 430/430 632/632 629/629
f 631/631 627/627 617/617
f 430/430 633/633 632/632
f 410/410 634/634 633/633
f 618/618 630/630 617/617
f 625/625 634/634 410/410
f 633/633 430/430 410/410
f 616/616 619/619 410/410
f 607/607 605/605 596/596
f 595/595 415/415 414/414
f 586/586 414/414 557/557
f 567/567 574/574 565/565
f 565/565 411/411 556/556
f 420/420 407/407 549/549
f 548/548 545/545 536/536
f 535/535 536/536 406/406
f 534/534 533/533 516/516
f 515/515 523/523 405/405
f 498/498 513/513 497/497
f 494/494 495/495 424/424
f 494/494 422/422 485/485
f 486/486 493/493 485/485
f 481/481 464/464 635/635
f 635/635 464/464 461/461
f 467/467 464/464 421/421
f 429/429 408/408 449/449
f 434/434 449/449 408/408
f 432/432 437/437 430/430
f 427/427 597/597 409/409
f 423/423 454/454 421/421
f 418/418 496/496 416/416
f 413/413 555/555 411/411
f 410/410 430/430 408/408
f 407/407 416/416 405/405
f 636/636 637/637 638/638
f 639/639 640/640 641/641
f 642/642 643/643 644/644
f 645/645 646/646 643/643
f 643/643 642/642 645/645
f 640/640 647/647 648/648
f 640/640 649/649 647/647
f 648/648 641/641 640/640
f 648/648 650/650 641/641
f 651/651 652/652 653/653
f 652/652 654/654 653/653
f 652/652 655/655 654/654
f 636/636 656/656 657/657
f 656/656 658/658 659/659
f 659/659 657/657 656/656
f 657/657 660/660 636/636
f 638/638 661/661 662/662
f 663/663 664/664 665/665
f 666/666 667/667 664/664
f 663/663 668/668 669/669
f 664/664 667/667 665/665
f 670/670 671/671 666/666
f 670/670 672/672 673/673
f 656/656 674/674 672/672
f 665/665 668/668 663/663
f 673/673 671/671 670/670
f 656/656 675/675 674/674
f 656/656 676/676 677/677
f 638/638 678/678 676/676
f 663/663 679/679 680/680
f 664/664 670/670 666/666
f 677/677 675/675 656/656
f 638/638 681/681 678/678
f 680/680 638/638 663/663
f 672/672 670/670 656/656
f 680/680 681/681 638/638
f 676/676 656/656 638/638
f 670/670 682/682 658/658
f 682/682 670/670 683/683
f 683/683 684/684 682/682
f 651/651 685/685 684/684
f 684/684 683/683 651/651
f 686/686 651/651 687/687
f 686/686 688/688 689/689
f 651/651 690/690 687/687
f 691/691 686/686 692/692
f 687/687 688/688 686/686
f 651/651 693/693 694/694
f 683/683 691/691 695/695
f 691/691 696/696 697/697
f 686/686 698/698 692/692
f 694/694 690/690 651/651
f 683/683 699/699 700/700
f 683/683 701/701 702/702
f 697/697 695/695 691/691
f 689/689 698/698 686/686
f 700/700 651/651 683/683
f 683/683 703/703 701/701
f 692/692 696/696 691/691
f 702/702 699/699 683/683
f 700/700 693/693 651/651
f 704/704 705/705 706/706
f 704/704 652/652 707/707
f 708/708 706/706 709/709
f 707/707 705/705 704/704
f 708/708 710/710 711/711
f 706/706 708/708 704/704
f 652/652 712/712 713/713
f 686/686 714/714 715/715
f 686/686 716/716 717/717
f 711/711 686/686 708/708
f 713/713 707/707 652/652
f 651/651 718/718 719/719
f 651/651 720/720 721/721
f 717/717 714/714 686/686
f 709/709 710/710 708/708
f 719/719 652/652 651/651
f 651/651 715/715 720/720
f 711/711 716/716 686/686
f 721/721 718/718 651/651
f 719/719 712/712 652/652
f 655/655 652/652 722/722
f 723/723 641/641 724/724
f 724/724 655/655 723/723
f 725/725 723/723 726/726
f 727/727 728/728 729/729
f 723/723 730/730 731/731
f 726/726 732/732 725/725
f 729/729 726/726 727/727
f 727/727 733/733 734/734
f 727/727 735/735 736/736
f 735/735 641/641 737/737
f 725/725 730/730 723/723
f 734/734 728/728 727/727
f 735/735 738/738 736/736
f 737/737 739/739 735/735
f 641/641 723/723 740/740
f 729/729 732/732 726/726
f 739/739 738/738 735/735
f 641/641 741/741 742/742
f 740/740 743/743 641/641
f 736/736 733/733 727/727
f 743/743 741/741 641/641
f 742/742 737/737 641/641
f 735/735 727/727 744/744
f 745/745 746/746 747/747
f 746/746 748/748 749/749
f 735/735 750/750 751/751
f 749/749 747/747 746/746
f 639/639 752/752 748/748
f 735/735 753/753 754/754
f 750/750 755/755 751/751
f 745/745 756/756 757/757
f 748/748 746/746 639/639
f 639/639 758/758 759/759
f 751/751 753/753 735/735
f 757/757 750/750 745/745
f 745/745 760/760 761/761
f 759/759 752/752 639/639
f 757/757 755/755 750/750
f 747/747 760/760 745/745
f 639/639 735/735 762/762
f 754/754 763/763 735/735
f 762/762 758/758 639/639
f 761/761 756/756 745/745
f 639/639 746/746 764/764
f 640/640 765/765 766/766
f 639/639 767/767 768/768
f 769/769 770/770 771/771
f 640/640 772/772 765/765
f 640/640 768/768 773/773
f 639/639 774/774 767/767
f 771/771 639/639 769/769
f 769/769 775/775 776/776
f 773/773 772/772 640/640
f 771/771 774/774 639/639
f 769/769 777/777 778/778
f 775/775 779/779 776/776
f 780/780 779/779 775/775
f 768/768 640/640 639/639
f 776/776 777/777 769/769
f 781/781 782/782 780/780
f 781/781 766/766 783/783
f 778/778 770/770 769/769
f 783/783 782/782 781/781
f 775/775 781/781 780/780
f 781/781 784/784 649/649
f 784/784 781/781 785/785
f 785/785 642/642 784/784
f 786/786 787/787 788/788
f 786/786 789/789 790/790
f 642/642 788/788 791/791
f 790/790 787/787 786/786
f 792/792 793/793 794/794
f 645/645 642/642 795/795
f 788/788 642/642 786/786
f 794/794 789/789 792/792
f 645/645 796/796 797/797
f 645/645 798/798 799/799
f 642/642 800/800 795/795
f 794/794 790/790 789/789
f 792/792 801/801 802/802
f 801/801 803/803 804/804
f 799/799 796/796 645/645
f 791/791 800/800 642/642
f 802/802 805/805 792/792
f 801/801 797/797 803/803
f 795/795 798/798 645/645
f 804/804 802/802 801/801
f 805/805 793/793 792/792
f 645/645 801/801 806/806
f 645/645 807/807 808/808
f 801/801 809/809 806/806
f 810/810 645/645 811/811
f 806/806 807/807 645/645
f 801/801 812/812 813/813
f 814/814 815/815 816/816
f 810/810 817/817 818/818
f 645/645 819/819 811/811
f 813/813 809/809 801/801
f 814/814 820/820 812/812
f 815/815 821/821 816/816
f 810/810 822/822 821/821
f 818/818 823/823 810/810
f 808/808 819/819 645/645
f 814/814 824/824 820/820
f 821/821 815/815 810/810
f 811/811 817/817 810/810
f 816/816 824/824 814/814
f 812/812 801/801 814/814
f 645/645 810/810 825/825
f 826/826 825/825 810/810
f 810/810 827/827 826/826
f 827/827 636/636 828/828
f 828/828 826/826 827/827
f 829/829 637/637 830/830
f 637/637 636/636 831/831
f 636/636 827/827 832/832
f 637/637 833/833 830/830
f 831/831 834/834 637/637
f 636/636 835/835 836/836
f 832/832 837/837 636/636
f 838/838 827/827 839/839
f 834/834 833/833 637/637
f 837/837 835/835 636/636
f 827/827 840/840 841/841
f 839/839 842/842 838/838
f 829/829 843/843 844/844
f 836/836 831/831 636/636
f 838/838 840/840 827/827
f 844/844 839/839 829/829
f 829/829 845/845 846/846
f 841/841 832/832 827/827
f 846/846 843/843 829/829
f 844/844 842/842 839/839
f 637/637 829/829 847/847
f 637/637 848/848 849/849
f 849/849 850/850 637/637
f 851/851 661/661 852/852
f 638/638 853/853 854/854
f 850/850 855/855 637/637
f 851/851 856/856 857/857
f 661/661 858/858 852/852
f 854/854 661/661 638/638
f 637/637 859/859 860/860
f 848/848 861/861 849/849
f 857/857 848/848 851/851
f 854/854 858/858 661/661
f 638/638 862/862 863/863
f 860/860 638/638 637/637
f 857/857 861/861 848/848
f 863/863 853/853 638/638
f 855/855 859/859 637/637
f 852/852 864/864 851/851
f 851/851 865/865 856/856
f 860/860 862/862 638/638
f 864/864 865/865 851/851
f 847/847 848/848 637/637
f 830/830 845/845 829/829
f 825/825 646/646 645/645
f 823/823 822/822 810/810
f 814/814 801/801 866/866
f 866/866 801/801 792/792
f 797/797 801/801 645/645
f 786/786 642/642 785/785
f 649/649 640/640 781/781
f 766/766 781/781 640/640
f 764/764 769/769 639/639
f 763/763 762/762 735/735
f 744/744 750/750 735/735
f 731/731 740/740 723/723
f 722/722 723/723 655/655
f 722/722 652/652 704/704
f 715/715 651/651 686/686
f 695/695 703/703 683/683
f 658/658 656/656 670/670
f 669/669 679/679 663/663
f 662/662 663/663 638/638
f 660/660 828/828 636/636
f 653/653 685/685 651/651
f 650/650 724/724 641/641
f 644/644 784/784 642/642
f 641/641 735/735 639/639
f 638/638 656/656 636/636
f 867/867 868/868 869/869
f 870/870 867/867 871/871
f 872/872 870/870 873/873
f 874/874 872/872 875/875
f 876/876 874/874 877/877
f 878/878 876/876 879/879
f 880/880 878/878 881/881
f 882/882 880/880 883/883
f 884/884 882/882 885/885
f 886/886 884/884 887/887
f 888/888 886/886 889/889
f 890/890 888/888 891/891
f 892/892 890/890 893/893
f 894/894 892/892 895/895
f 896/896 894/894 897/897
f 868/868 896/896 898/898
f 898/898 869/869 868/868
f 897/897 898/898 896/896
f 895/895 897/897 894/894
f 893/893 895/895 892/892
f 891/891 893/893 890/890
f 889/889 891/891 888/888
f 887/887 889/889 886/886
f 885/885 887/887 884/884
f 883/883 885/885 882/882
f 881/881 883/883 880/880
f 879/879 881/881 878/878
f 877/877 879/879 876/876
f 875/875 877/877 874/874
f 873/873 875/875 872/872
f 871/871 873/873 870/870
f 869/869 871/871 867/867

