# https://github.com/mikedh/trimesh
mtllib material.mtl
usemtl 0.910000_0.910000_0.910000_0.000000_0.000000
v 0.02625299 0.03413466 0.01777680
v 0.02677784 0.03353090 0.01777680
v 0.02581323 0.03342114 0.01777680
v 0.02496653 0.03195636 0.01777680
v 0.02520947 0.03289629 0.01777680
v 0.02444169 0.03256012 0.01777680
v 0.02504545 0.03308497 0.01777680
v 0.02564922 0.03360982 0.01777680
v 0.02496653 0.03195636 0.01837680
v 0.02677784 0.03353090 0.01837680
v 0.02581323 0.03342114 0.01837680
v 0.02625299 0.03413466 0.01837680
v 0.02564922 0.03360982 0.01837680
v 0.02444169 0.03256012 0.01837680
v 0.02520947 0.03289629 0.01837680
v 0.02504545 0.03308497 0.01837680
v 0.02625299 0.03413466 0.01777680
v 0.02625299 0.03413466 0.01837680
v 0.02677784 0.03353090 0.01837680
v 0.02677784 0.03353090 0.01777680
v 0.02775896 0.03438377 0.02067680
v 0.02775896 0.03438377 0.01547680
v 0.02677784 0.03353090 0.01777680
v 0.02111751 0.02861045 0.01547680
v 0.02496653 0.03195636 0.01777680
v 0.02111751 0.02861045 0.02067680
v 0.02496653 0.03195636 0.01837680
v 0.02677784 0.03353090 0.01837680
v 0.03162825 0.02078714 0.01607680
v 0.03540180 0.02406743 0.01607680
v 0.03382726 0.02587874 0.01607680
v 0.03005371 0.02259844 0.01607680
v 0.03540180 0.02406743 0.02007679
v 0.03162825 0.02078714 0.02007679
v 0.03005371 0.02259844 0.02007679
v 0.03382726 0.02587874 0.02007679
v 0.03540180 0.02406743 0.02007679
v 0.03540180 0.02406743 0.01607680
v 0.03162825 0.02078714 0.01607680
v 0.03162825 0.02078714 0.02007679
v 0.03546741 0.02399196 0.02017679
v 0.03540180 0.02406743 0.02007679
v 0.03382726 0.02587874 0.02007679
v 0.03546741 0.02399196 0.01597680
v 0.03540180 0.02406743 0.01607680
v 0.03376165 0.02595421 0.01597680
v 0.03382726 0.02587874 0.01607680
v 0.03376165 0.02595421 0.02017679
v 0.03607117 0.02451681 0.01597680
v 0.03436542 0.02647905 0.01597680
v 0.03376165 0.02595421 0.01597680
v 0.03546741 0.02399196 0.01597680
v 0.03376165 0.02595421 0.02017679
v 0.03436542 0.02647905 0.02017679
v 0.03607117 0.02451681 0.02017679
v 0.03546741 0.02399196 0.02017679
v 0.03546741 0.02399196 0.02017679
v 0.03607117 0.02451681 0.02017679
v 0.03607117 0.02451681 0.01597680
v 0.03546741 0.02399196 0.01597680
v 0.03635333 0.02449708 0.02037680
v 0.03635333 0.02449708 0.01577680
v 0.03607117 0.02451681 0.01597680
v 0.03607117 0.02451681 0.02017679
v 0.03438515 0.02676121 0.01577680
v 0.03436542 0.02647905 0.01597680
v 0.03607117 0.02451681 0.01597680
v 0.03635333 0.02449708 0.01577680
v 0.03635333 0.02449708 0.02037680
v 0.03607117 0.02451681 0.02017679
v 0.03436542 0.02647905 0.02017679
v 0.03438515 0.02676121 0.02037680
v 0.03362651 0.02199419 0.01547680
v 0.03023032 0.01904193 0.01547680
v 0.02806532 0.02153247 0.01547680
v 0.02775896 0.03438377 0.01547680
v 0.03687818 0.02389331 0.01547680
v 0.03461405 0.02192513 0.01547680
v 0.02111751 0.02861045 0.01547680
v 0.02761250 0.02113883 0.01547680
v 0.03438515 0.02676121 0.02037680
v 0.03436542 0.02647905 0.02017679
v 0.03436542 0.02647905 0.01597680
v 0.03438515 0.02676121 0.01577680
v 0.03438515 0.02676121 0.02037680
v 0.03345541 0.02783075 0.02027680
v 0.03090804 0.03076117 0.02027680
v 0.03418833 0.02698762 0.01915964
v 0.03418833 0.02698762 0.01699395
v 0.03687818 0.02389331 0.02067680
v 0.03635333 0.02449708 0.02037680
v 0.03438515 0.02676121 0.01577680
v 0.03345541 0.02783075 0.01587680
v 0.02775896 0.03438377 0.01547680
v 0.02802138 0.03408189 0.01587680
v 0.03064562 0.03106305 0.02027680
v 0.03090804 0.03076117 0.01992680
v 0.02775896 0.03438377 0.02067680
v 0.02802138 0.03408189 0.02027680
v 0.03064562 0.03106305 0.01992680
v 0.03687818 0.02389331 0.01547680
v 0.03635333 0.02449708 0.01577680
v 0.02651099 0.02667387 0.02007679
v 0.03088831 0.03047901 0.02007679
v 0.03325012 0.02776206 0.02007679
v 0.02887281 0.02395692 0.02007679
v 0.03325012 0.02776206 0.02007679
v 0.03390618 0.02700735 0.01907680
v 0.02952887 0.02320221 0.01907680
v 0.02887281 0.02395692 0.02007679
v 0.03345541 0.02783075 0.02027680
v 0.03325012 0.02776206 0.02007679
v 0.03088831 0.03047901 0.02007679
v 0.03090804 0.03076117 0.02027680
v 0.03345541 0.02783075 0.02027680
v 0.03418833 0.02698762 0.01915964
v 0.03390618 0.02700735 0.01907680
v 0.03325012 0.02776206 0.02007679
v 0.03418833 0.02698762 0.01915964
v 0.03418833 0.02698762 0.01699395
v 0.03390618 0.02700735 0.01707680
v 0.03390618 0.02700735 0.01907680
v 0.03345541 0.02783075 0.01587680
v 0.03325012 0.02776206 0.01607680
v 0.03390618 0.02700735 0.01707680
v 0.03418833 0.02698762 0.01699395
v 0.02952887 0.02320221 0.01707680
v 0.03390618 0.02700735 0.01707680
v 0.03325012 0.02776206 0.01607680
v 0.02887281 0.02395692 0.01607680
v 0.02362434 0.02999459 0.01607680
v 0.02887281 0.02395692 0.01607680
v 0.03325012 0.02776206 0.01607680
v 0.02800165 0.03379973 0.01607680
v 0.03345541 0.02783075 0.01587680
v 0.02802138 0.03408189 0.01587680
v 0.02800165 0.03379973 0.01607680
v 0.03325012 0.02776206 0.01607680
v 0.02802138 0.03408189 0.02027680
v 0.02800165 0.03379973 0.02007679
v 0.02800165 0.03379973 0.01607680
v 0.02802138 0.03408189 0.01587680
v 0.03036346 0.03108278 0.02007679
v 0.03064562 0.03106305 0.02027680
v 0.03064562 0.03106305 0.01992680
v 0.03036346 0.03108278 0.01972680
v 0.02802138 0.03408189 0.02027680
v 0.03064562 0.03106305 0.02027680
v 0.03036346 0.03108278 0.02007679
v 0.02800165 0.03379973 0.02007679
v 0.02362434 0.02999459 0.02007679
v 0.02800165 0.03379973 0.02007679
v 0.03036346 0.03108278 0.02007679
v 0.02598615 0.02727764 0.02007679
vt 0.50000000 0.50000000
vt 0.50000000 0.50000000
vt 0.50000000 0.50000000
vt 0.50000000 0.50000000
vt 0.50000000 0.50000000
vt 0.50000000 0.50000000
vt 0.50000000 0.50000000
vt 0.50000000 0.50000000
vt 0.50000000 0.50000000
vt 0.50000000 0.50000000
vt 0.50000000 0.50000000
vt 0.50000000 0.50000000
vt 0.50000000 0.50000000
vt 0.50000000 0.50000000
vt 0.50000000 0.50000000
vt 0.50000000 0.50000000
vt 0.50000000 0.50000000
vt 0.50000000 0.50000000
vt 0.50000000 0.50000000
vt 0.50000000 0.50000000
vt 0.50000000 0.50000000
vt 0.50000000 0.50000000
vt 0.50000000 0.50000000
vt 0.50000000 0.50000000
vt 0.50000000 0.50000000
vt 0.50000000 0.50000000
vt 0.50000000 0.50000000
vt 0.50000000 0.50000000
vt 0.50000000 0.50000000
vt 0.50000000 0.50000000
vt 0.50000000 0.50000000
vt 0.50000000 0.50000000
vt 0.50000000 0.50000000
vt 0.50000000 0.50000000
vt 0.50000000 0.50000000
vt 0.50000000 0.50000000
vt 0.50000000 0.50000000
vt 0.50000000 0.50000000
vt 0.50000000 0.50000000
vt 0.50000000 0.50000000
vt 0.50000000 0.50000000
vt 0.50000000 0.50000000
vt 0.50000000 0.50000000
vt 0.50000000 0.50000000
vt 0.50000000 0.50000000
vt 0.50000000 0.50000000
vt 0.50000000 0.50000000
vt 0.50000000 0.50000000
vt 0.50000000 0.50000000
vt 0.50000000 0.50000000
vt 0.50000000 0.50000000
vt 0.50000000 0.50000000
vt 0.50000000 0.50000000
vt 0.50000000 0.50000000
vt 0.50000000 0.50000000
vt 0.50000000 0.50000000
vt 0.50000000 0.50000000
vt 0.50000000 0.50000000
vt 0.50000000 0.50000000
vt 0.50000000 0.50000000
vt 0.50000000 0.50000000
vt 0.50000000 0.50000000
vt 0.50000000 0.50000000
vt 0.50000000 0.50000000
vt 0.50000000 0.50000000
vt 0.50000000 0.50000000
vt 0.50000000 0.50000000
vt 0.50000000 0.50000000
vt 0.50000000 0.50000000
vt 0.50000000 0.50000000
vt 0.50000000 0.50000000
vt 0.50000000 0.50000000
vt 0.50000000 0.50000000
vt 0.50000000 0.50000000
vt 0.50000000 0.50000000
vt 0.50000000 0.50000000
vt 0.50000000 0.50000000
vt 0.50000000 0.50000000
vt 0.50000000 0.50000000
vt 0.50000000 0.50000000
vt 0.50000000 0.50000000
vt 0.50000000 0.50000000
vt 0.50000000 0.50000000
vt 0.50000000 0.50000000
vt 0.50000000 0.50000000
vt 0.50000000 0.50000000
vt 0.50000000 0.50000000
vt 0.50000000 0.50000000
vt 0.50000000 0.50000000
vt 0.50000000 0.50000000
vt 0.50000000 0.50000000
vt 0.50000000 0.50000000
vt 0.50000000 0.50000000
vt 0.50000000 0.50000000
vt 0.50000000 0.50000000
vt 0.50000000 0.50000000
vt 0.50000000 0.50000000
vt 0.50000000 0.50000000
vt 0.50000000 0.50000000
vt 0.50000000 0.50000000
vt 0.50000000 0.50000000
vt 0.50000000 0.50000000
vt 0.50000000 0.50000000
vt 0.50000000 0.50000000
vt 0.50000000 0.50000000
vt 0.50000000 0.50000000
vt 0.50000000 0.50000000
vt 0.50000000 0.50000000
vt 0.50000000 0.50000000
vt 0.50000000 0.50000000
vt 0.50000000 0.50000000
vt 0.50000000 0.50000000
vt 0.50000000 0.50000000
vt 0.50000000 0.50000000
vt 0.50000000 0.50000000
vt 0.50000000 0.50000000
vt 0.50000000 0.50000000
vt 0.50000000 0.50000000
vt 0.50000000 0.50000000
vt 0.50000000 0.50000000
vt 0.50000000 0.50000000
vt 0.50000000 0.50000000
vt 0.50000000 0.50000000
vt 0.50000000 0.50000000
vt 0.50000000 0.50000000
vt 0.50000000 0.50000000
vt 0.50000000 0.50000000
vt 0.50000000 0.50000000
vt 0.50000000 0.50000000
vt 0.50000000 0.50000000
vt 0.50000000 0.50000000
vt 0.50000000 0.50000000
vt 0.50000000 0.50000000
vt 0.50000000 0.50000000
vt 0.50000000 0.50000000
vt 0.50000000 0.50000000
vt 0.50000000 0.50000000
vt 0.50000000 0.50000000
vt 0.50000000 0.50000000
vt 0.50000000 0.50000000
vt 0.50000000 0.50000000
vt 0.50000000 0.50000000
vt 0.50000000 0.50000000
vt 0.50000000 0.50000000
vt 0.50000000 0.50000000
vt 0.50000000 0.50000000
vt 0.50000000 0.50000000
vt 0.50000000 0.50000000
vt 0.50000000 0.50000000
vt 0.50000000 0.50000000
vt 0.50000000 0.50000000
vt 0.50000000 0.50000000
vt 0.50000000 0.50000000
vt 0.50000000 0.50000000
f 1/1 2/2 3/3
f 4/4 5/5 3/3
f 3/3 2/2 4/4
f 6/6 7/7 5/5
f 5/5 4/4 6/6
f 3/3 8/8 1/1
f 9/9 10/10 11/11
f 12/12 13/13 11/11
f 14/14 9/9 15/15
f 11/11 10/10 12/12
f 11/11 15/15 9/9
f 15/15 16/16 14/14
f 17/17 18/18 19/19
f 19/19 20/20 17/17
f 21/21 22/22 23/23
f 22/22 24/24 25/25
f 25/25 23/23 22/22
f 26/26 27/27 25/25
f 21/21 28/28 27/27
f 25/25 24/24 26/26
f 23/23 28/28 21/21
f 27/27 26/26 21/21
f 29/29 30/30 31/31
f 31/31 32/32 29/29
f 33/33 34/34 35/35
f 35/35 36/36 33/33
f 37/37 38/38 39/39
f 39/39 40/40 37/37
f 41/41 42/42 43/43
f 44/44 45/45 42/42
f 42/42 41/41 44/44
f 44/44 46/46 47/47
f 47/47 45/45 44/44
f 46/46 48/48 43/43
f 43/43 47/47 46/46
f 43/43 48/48 41/41
f 49/49 50/50 51/51
f 51/51 52/52 49/49
f 53/53 54/54 55/55
f 55/55 56/56 53/53
f 57/57 58/58 59/59
f 59/59 60/60 57/57
f 61/61 62/62 63/63
f 63/63 64/64 61/61
f 65/65 66/66 67/67
f 67/67 68/68 65/65
f 69/69 70/70 71/71
f 71/71 72/72 69/69
f 73/73 74/74 75/75
f 76/76 77/77 78/78
f 79/79 76/76 75/75
f 78/78 73/73 76/76
f 75/75 76/76 73/73
f 75/75 80/80 79/79
f 81/81 82/82 83/83
f 83/83 84/84 81/81
f 85/85 86/86 87/87
f 85/85 88/88 86/86
f 85/85 89/89 88/88
f 90/90 91/91 85/85
f 92/92 93/93 89/89
f 94/94 95/95 93/93
f 96/96 87/87 97/97
f 85/85 96/96 90/90
f 93/93 92/92 94/94
f 94/94 98/98 99/99
f 98/98 90/90 96/96
f 87/87 96/96 85/85
f 99/99 95/95 94/94
f 97/97 100/100 96/96
f 96/96 99/99 98/98
f 90/90 101/101 102/102
f 102/102 91/91 90/90
f 101/101 94/94 92/92
f 92/92 102/102 101/101
f 89/89 85/85 92/92
f 103/103 104/104 105/105
f 105/105 106/106 103/103
f 107/107 108/108 109/109
f 109/109 110/110 107/107
f 111/111 112/112 113/113
f 113/113 114/114 111/111
f 115/115 116/116 117/117
f 117/117 118/118 115/115
f 119/119 120/120 121/121
f 121/121 122/122 119/119
f 123/123 124/124 125/125
f 125/125 126/126 123/123
f 127/127 128/128 129/129
f 129/129 130/130 127/127
f 131/131 132/132 133/133
f 133/133 134/134 131/131
f 135/135 136/136 137/137
f 137/137 138/138 135/135
f 139/139 140/140 141/141
f 141/141 142/142 139/139
f 143/143 144/144 145/145
f 145/145 146/146 143/143
f 147/147 148/148 149/149
f 149/149 150/150 147/147
f 151/151 152/152 153/153
f 153/153 154/154 151/151

