# https://github.com/mikedh/trimesh
mtllib material.mtl
usemtl 0.910000_0.910000_0.910000_0.000000_0.000000
v -0.05793961 0.04667306 0.03010533
v -0.05793961 0.04789636 0.03132862
v -0.05793961 0.04775494 0.03147005
v -0.05793961 0.04653164 0.03024675
v -0.05793961 0.04789636 0.03132862
v -0.05801241 0.04798631 0.03152152
v -0.05801241 0.04794783 0.03155999
v -0.05793961 0.04775494 0.03147005
vt 0.50000000 0.50000000
vt 0.50000000 0.50000000
vt 0.50000000 0.50000000
vt 0.50000000 0.50000000
vt 0.50000000 0.50000000
vt 0.50000000 0.50000000
vt 0.50000000 0.50000000
vt 0.50000000 0.50000000
f 1/1 2/2 3/3
f 3/3 4/4 1/1
f 5/5 6/6 7/7
f 7/7 8/8 5/5

