# https://github.com/mikedh/trimesh

o depth_camera_mount.stl
v -0.02100000 0.01400000 -0.02800000
v -0.02100000 0.01400000 -0.02300000
v -0.02097336 0.01461009 -0.02300000
v -0.02097336 0.01461009 -0.02800000
v -0.02089365 0.01521554 -0.02300000
v -0.02089365 0.01521554 -0.02800000
v -0.02076148 0.01581173 -0.02300000
v -0.02076148 0.01581173 -0.02800000
v -0.02057785 0.01639414 -0.02300000
v -0.02057785 0.01639414 -0.02800000
v -0.02034415 0.01695833 -0.02300000
v -0.02034415 0.01695833 -0.02800000
v -0.02006218 0.01750000 -0.02300000
v -0.02006218 0.01750000 -0.02800000
v -0.01973406 0.01801503 -0.02300000
v -0.01973406 0.01801503 -0.02800000
v -0.01936231 0.01849951 -0.02300000
v -0.01936231 0.01849951 -0.02800000
v -0.01894975 0.01894975 -0.02300000
v -0.01894975 0.01894975 -0.02800000
v -0.01849951 0.01936231 -0.02300000
v -0.01849951 0.01936231 -0.02800000
v -0.01801503 0.01973406 -0.02300000
v -0.01801503 0.01973406 -0.02800000
v -0.01750000 0.02006218 -0.02300000
v -0.01750000 0.02006218 -0.02800000
v -0.01695833 0.02034415 -0.02300000
v -0.01695833 0.02034415 -0.02800000
v -0.01639414 0.02057785 -0.02300000
v -0.01639414 0.02057785 -0.02800000
v -0.01581173 0.02076148 -0.02300000
v -0.01581173 0.02076148 -0.02800000
v -0.01521554 0.02089365 -0.02300000
v -0.01521554 0.02089365 -0.02800000
v -0.01461009 0.02097336 -0.02300000
v -0.01461009 0.02097336 -0.02800000
v -0.01400000 0.02100000 -0.02300000
v -0.01400000 0.02100000 -0.02800000
v 0.02100000 0.01400000 -0.02300000
v 0.02100000 0.01400000 -0.02800000
v 0.02097336 0.01461009 -0.02800000
v 0.02097336 0.01461009 -0.02300000
v 0.02089365 0.01521554 -0.02800000
v 0.02089365 0.01521554 -0.02300000
v 0.02076148 0.01581173 -0.02800000
v 0.02076148 0.01581173 -0.02300000
v 0.02057785 0.01639414 -0.02800000
v 0.02057785 0.01639414 -0.02300000
v 0.02034415 0.01695833 -0.02800000
v 0.02034415 0.01695833 -0.02300000
v 0.02006218 0.01750000 -0.02800000
v 0.02006218 0.01750000 -0.02300000
v 0.01973406 0.01801503 -0.02800000
v 0.01973406 0.01801503 -0.02300000
v 0.01936231 0.01849951 -0.02800000
v 0.01936231 0.01849951 -0.02300000
v 0.01894975 0.01894975 -0.02800000
v 0.01894975 0.01894975 -0.02300000
v 0.01849951 0.01936231 -0.02800000
v 0.01849951 0.01936231 -0.02300000
v 0.01801503 0.01973406 -0.02800000
v 0.01801503 0.01973406 -0.02300000
v 0.01750000 0.02006218 -0.02800000
v 0.01750000 0.02006218 -0.02300000
v 0.01695833 0.02034415 -0.02800000
v 0.01695833 0.02034415 -0.02300000
v 0.01639414 0.02057785 -0.02800000
v 0.01639414 0.02057785 -0.02300000
v 0.01581173 0.02076148 -0.02800000
v 0.01581173 0.02076148 -0.02300000
v 0.01521554 0.02089365 -0.02800000
v 0.01521554 0.02089365 -0.02300000
v 0.01461009 0.02097336 -0.02800000
v 0.01461009 0.02097336 -0.02300000
v 0.01400000 0.02100000 -0.02800000
v 0.01400000 0.02100000 -0.02300000
v -0.02100000 -0.08745334 0.06731160
v -0.02100000 -0.09098887 0.06377607
v -0.02097336 -0.09142027 0.06420746
v -0.02097336 -0.08788473 0.06774300
v -0.02089365 -0.09184838 0.06463558
v -0.02089365 -0.08831285 0.06817111
v -0.02076148 -0.09226996 0.06505716
v -0.02076148 -0.08873443 0.06859269
v -0.02057785 -0.09268178 0.06546898
v -0.02057785 -0.08914625 0.06900451
v -0.02034415 -0.09308072 0.06586792
v -0.02034415 -0.08954519 0.06940345
v -0.02006218 -0.09346374 0.06625094
v -0.02006218 -0.08992821 0.06978647
v -0.01973406 -0.09382793 0.06661513
v -0.01973406 -0.09029239 0.07015066
v -0.01936231 -0.09417050 0.06695770
v -0.01936231 -0.09063497 0.07049324
v -0.01894975 -0.09448887 0.06727607
v -0.01894975 -0.09095334 0.07081160
v -0.01849951 -0.09478059 0.06756780
v -0.01849951 -0.09124506 0.07110333
v -0.01801503 -0.09504347 0.06783067
v -0.01801503 -0.09150793 0.07136620
v -0.01750000 -0.09527548 0.06806268
v -0.01750000 -0.09173995 0.07159821
v -0.01695833 -0.09547486 0.06826206
v -0.01695833 -0.09193933 0.07179759
v -0.01639414 -0.09564011 0.06842731
v -0.01639414 -0.09210458 0.07196284
v -0.01581173 -0.09576996 0.06855716
v -0.01581173 -0.09223443 0.07209269
v -0.01521554 -0.09586342 0.06865062
v -0.01521554 -0.09232789 0.07218615
v -0.01461009 -0.09591978 0.06870698
v -0.01461009 -0.09238425 0.07224251
v -0.01400000 -0.09593862 0.06872582
v -0.01400000 -0.09240308 0.07226135
v 0.02110635 -0.06065199 0.04051026
v 0.02110635 -0.06446844 0.03669380
v 0.02108992 -0.06058328 0.04044155
v 0.02104167 -0.06422868 0.03629305
v 0.02102664 -0.06035469 0.03995133
v 0.02102659 -0.06415009 0.03615525
v 0.02100000 -0.06008030 0.03936291
v 0.02100666 -0.06399741 0.03587741
v 0.02100000 -0.06384935 0.03559386
v 0.02123852 -0.06107356 0.04093183
v 0.02142215 -0.06148539 0.04134366
v 0.02142215 -0.06514101 0.03768804
v 0.02130391 -0.06493177 0.03739670
v 0.02123839 -0.06479974 0.03720499
v 0.02116566 -0.06463213 0.03695205
v 0.02165585 -0.06188433 0.04174260
v 0.02193782 -0.06226735 0.04212562
v 0.02193782 -0.06583382 0.03855914
v 0.02184690 -0.06572839 0.03843486
v 0.02165585 -0.06548712 0.03813980
v 0.02153292 -0.06531382 0.03791803
v 0.02226594 -0.06263153 0.04248980
v 0.02263769 -0.06297411 0.04283238
v 0.02263768 -0.06651013 0.03929634
v 0.02244655 -0.06634472 0.03912498
v 0.02226594 -0.06617642 0.03894491
v 0.02209577 -0.06600542 0.03875570
v 0.02800000 -0.06474222 0.04460049
v 0.02800000 -0.06827775 0.04106496
v 0.02738991 -0.06472339 0.04458166
v 0.02738991 -0.06825892 0.04104612
v 0.02678446 -0.06466702 0.04452529
v 0.02678446 -0.06820256 0.04098976
v 0.02618827 -0.06457356 0.04443183
v 0.02618827 -0.06810910 0.04089630
v 0.02560586 -0.06444371 0.04430198
v 0.02560586 -0.06797925 0.04076645
v 0.02504167 -0.06427847 0.04413674
v 0.02504167 -0.06781400 0.04060120
v 0.02450000 -0.06407908 0.04393735
v 0.02450000 -0.06761461 0.04040182
v 0.02398496 -0.06384707 0.04370534
v 0.02398496 -0.06738260 0.04016980
v 0.02350049 -0.06358420 0.04344247
v 0.02350049 -0.06711973 0.03990693
v 0.02305025 -0.06329247 0.04315074
v 0.02305025 -0.06682801 0.03961521
v 0.02276313 -0.06661245 0.03939965
v -0.02100000 -0.06661245 0.03939965
v -0.02100000 -0.06572839 0.03843486
v -0.02100000 -0.06493177 0.03739670
v -0.02100000 -0.06362443 0.03513232
v 0.02100000 -0.06362443 0.03513232
v -0.02100000 -0.06422868 0.03629305
v 0.03600000 -0.06969197 0.04955024
v 0.03600000 -0.07322750 0.04601470
v 0.03597336 -0.07279611 0.04558330
v 0.03597336 -0.06926057 0.04911884
v 0.03589365 -0.07236799 0.04515519
v 0.03589365 -0.06883246 0.04869072
v 0.03576148 -0.07194641 0.04473361
v 0.03576148 -0.06841088 0.04826915
v 0.03557785 -0.07153459 0.04432179
v 0.03557785 -0.06799906 0.04785732
v 0.03534415 -0.07113565 0.04392285
v 0.03534415 -0.06760012 0.04745838
v 0.03506218 -0.07075263 0.04353983
v 0.03506218 -0.06721710 0.04707536
v 0.03473406 -0.07038844 0.04317565
v 0.03473406 -0.06685291 0.04671118
v 0.03436231 -0.07004587 0.04283307
v 0.03436231 -0.06651033 0.04636860
v 0.03394975 -0.06972750 0.04251470
v 0.03394975 -0.06619197 0.04605024
v 0.03349951 -0.06943578 0.04222298
v 0.03349951 -0.06590024 0.04575851
v 0.03301504 -0.06917291 0.04196011
v 0.03301504 -0.06563737 0.04549564
v 0.03250000 -0.06894090 0.04172809
v 0.03250000 -0.06540536 0.04526363
v 0.03195833 -0.06874151 0.04152871
v 0.03195833 -0.06520598 0.04506424
v 0.03139414 -0.06857626 0.04136346
v 0.03139414 -0.06504073 0.04489899
v 0.03081173 -0.06844641 0.04123361
v 0.03081173 -0.06491088 0.04476915
v 0.03021554 -0.06835295 0.04114015
v 0.03021554 -0.06481742 0.04467569
v 0.02961009 -0.06829659 0.04108379
v 0.02961009 -0.06476106 0.04461933
v 0.02900000 -0.06827775 0.04106496
v 0.02900000 -0.06474222 0.04460049
v -0.02100000 -0.03503856 -0.01433927
v 0.02100000 -0.03503856 -0.01433927
v -0.02100000 -0.03443433 -0.01550000
v 0.02100000 -0.03443433 -0.01550000
v -0.02100000 -0.03373123 -0.01660365
v 0.02100000 -0.03373123 -0.01660365
v -0.02100000 -0.03293461 -0.01764181
v 0.02100000 -0.03293461 -0.01764181
v -0.02100000 -0.03205055 -0.01860660
v 0.02100000 -0.03205055 -0.01860660
v -0.02100000 -0.03108576 -0.01949067
v 0.02100000 -0.03108576 -0.01949067
v -0.02100000 -0.03004759 -0.02028728
v 0.02100000 -0.03004759 -0.02028728
v -0.02100000 -0.02894395 -0.02099038
v 0.02100000 -0.02894395 -0.02099038
v -0.02100000 -0.02778322 -0.02159462
v 0.02100000 -0.02778322 -0.02159462
v -0.02100000 -0.02657425 -0.02209539
v 0.02100000 -0.02657425 -0.02209539
v -0.02100000 -0.02532623 -0.02248889
v 0.02100000 -0.02532623 -0.02248889
v -0.02100000 -0.02404867 -0.02277212
v 0.02100000 -0.02404867 -0.02277212
v -0.02100000 -0.02275128 -0.02294292
v 0.02100000 -0.02275128 -0.02294292
v -0.02100000 -0.02144395 -0.02300000
v 0.02100000 -0.02144395 -0.02300000
v 0.03600000 -0.09098887 0.06377607
v 0.03600000 -0.08745334 0.06731160
v 0.03597336 -0.08788473 0.06774300
v 0.03597336 -0.09142027 0.06420746
v 0.03589365 -0.08831285 0.06817111
v 0.03589365 -0.09184838 0.06463558
v 0.03576148 -0.08873443 0.06859269
v 0.03576148 -0.09226996 0.06505716
v 0.03557785 -0.08914625 0.06900451
v 0.03557785 -0.09268178 0.06546898
v 0.03534415 -0.08954519 0.06940345
v 0.03534415 -0.09308072 0.06586792
v 0.03506218 -0.08992821 0.06978647
v 0.03506218 -0.09346374 0.06625094
v 0.03473406 -0.09029239 0.07015066
v 0.03473406 -0.09382793 0.06661513
v 0.03436231 -0.09063497 0.07049324
v 0.03436231 -0.09417050 0.06695770
v 0.03394975 -0.09095334 0.07081160
v 0.03394975 -0.09448887 0.06727607
v 0.03349951 -0.09124506 0.07110333
v 0.03349951 -0.09478059 0.06756780
v 0.03301504 -0.09150793 0.07136620
v 0.03301504 -0.09504347 0.06783067
v 0.03250000 -0.09173995 0.07159821
v 0.03250000 -0.09527548 0.06806268
v 0.03195833 -0.09193933 0.07179759
v 0.03195833 -0.09547486 0.06826206
v 0.03139414 -0.09210458 0.07196284
v 0.03139414 -0.09564011 0.06842731
v 0.03081173 -0.09223443 0.07209269
v 0.03081173 -0.09576996 0.06855716
v 0.03021554 -0.09232789 0.07218615
v 0.03021554 -0.09586342 0.06865062
v 0.02961009 -0.09238425 0.07224251
v 0.02961009 -0.09591978 0.06870698
v 0.02900000 -0.09240308 0.07226135
v 0.02900000 -0.09593862 0.06872582
v 0.02100000 -0.03822391 -0.01933927
v -0.02100000 -0.03822391 -0.01933927
v -0.02100000 -0.03761968 -0.02050000
v 0.02100000 -0.03761968 -0.02050000
v -0.02100000 -0.03691658 -0.02160365
v 0.02100000 -0.03691658 -0.02160365
v -0.02100000 -0.03611996 -0.02264181
v 0.02100000 -0.03611996 -0.02264181
v -0.02100000 -0.03523590 -0.02360660
v 0.02100000 -0.03523590 -0.02360660
v -0.02100000 -0.03427111 -0.02449067
v 0.02100000 -0.03427111 -0.02449067
v -0.02100000 -0.03323294 -0.02528728
v 0.02100000 -0.03323294 -0.02528728
v -0.02100000 -0.03212930 -0.02599038
v 0.02100000 -0.03212930 -0.02599038
v -0.02100000 -0.03096857 -0.02659462
v 0.02100000 -0.03096857 -0.02659462
v -0.02100000 -0.02975960 -0.02709539
v 0.02100000 -0.02975960 -0.02709539
v -0.02100000 -0.02851158 -0.02748889
v 0.02100000 -0.02851158 -0.02748889
v -0.02100000 -0.02723402 -0.02777212
v 0.02100000 -0.02723402 -0.02777212
v -0.02100000 -0.02593663 -0.02794292
v 0.02100000 -0.02593663 -0.02794292
v -0.02100000 -0.02462930 -0.02800000
v 0.02100000 -0.02462930 -0.02800000
v -0.01135160 -0.00094640 -0.02300000
v -0.01142894 -0.00082500 -0.02300000
v -0.01149541 -0.00069732 -0.02300000
v -0.01155049 -0.00056433 -0.02300000
v -0.01159378 -0.00042705 -0.02300000
v -0.01164372 0.00014381 -0.02300000
v -0.01162493 0.00028652 -0.02300000
v 0.00844951 -0.00056433 -0.02300000
v 0.00840622 -0.00042705 -0.02300000
v -0.00835628 -0.00014381 -0.02300000
v -0.01094640 -0.00135160 -0.02300000
v -0.01106060 -0.00126397 -0.02300000
v -0.01159378 0.00042705 -0.02300000
v -0.01155049 0.00056433 -0.02300000
v -0.01149541 0.00069732 -0.02300000
v -0.01142894 0.00082500 -0.02300000
v -0.01135160 0.00094640 -0.02300000
v -0.01126397 0.00106060 -0.02300000
v 0.01014381 -0.00164372 -0.02300000
v 0.01000000 -0.00165000 -0.02300000
v 0.00985619 -0.00164372 -0.02300000
v -0.01014381 -0.00164372 -0.02300000
v -0.01028652 -0.00162493 -0.02300000
v -0.01042705 -0.00159378 -0.02300000
v -0.01056433 -0.00155049 -0.02300000
v -0.01069732 -0.00149541 -0.02300000
v -0.01082500 -0.00142894 -0.02300000
v 0.00873603 -0.00106060 -0.02300000
v 0.00864840 -0.00094640 -0.02300000
v -0.00837507 -0.00028652 -0.02300000
v -0.00840622 -0.00042705 -0.02300000
v -0.00844951 -0.00056433 -0.02300000
v -0.00850459 -0.00069732 -0.02300000
v -0.00857106 -0.00082500 -0.02300000
v -0.00864840 -0.00094640 -0.02300000
v -0.00873603 -0.00106060 -0.02300000
v -0.00957295 -0.00159378 -0.02300000
v -0.00971348 -0.00162493 -0.02300000
v -0.01116673 -0.00116673 -0.02300000
v -0.01126397 -0.00106060 -0.02300000
v -0.01162493 -0.00028652 -0.02300000
v -0.01164372 -0.00014381 -0.02300000
v -0.01165000 -0.00000000 -0.02300000
v -0.00930268 0.00149541 -0.02300000
v -0.00917500 0.00142894 -0.02300000
v -0.00850459 0.00069732 -0.02300000
v 0.01149541 -0.00069732 -0.02300000
v 0.01142894 -0.00082500 -0.02300000
v 0.01135160 -0.00094640 -0.02300000
v 0.01126397 -0.00106060 -0.02300000
v 0.00957295 -0.00159378 -0.02300000
v 0.00943567 -0.00155049 -0.02300000
v 0.00930268 -0.00149541 -0.02300000
v 0.00917500 -0.00142894 -0.02300000
v 0.00905360 -0.00135160 -0.02300000
v 0.00857106 -0.00082500 -0.02300000
v 0.00850459 -0.00069732 -0.02300000
v -0.00985619 -0.00164372 -0.02300000
v -0.01000000 -0.00165000 -0.02300000
v -0.01082500 0.00142894 -0.02300000
v -0.00857106 0.00082500 -0.02300000
v 0.01094640 0.00135160 -0.02300000
v 0.01106060 0.00126397 -0.02300000
v 0.01116673 0.00116673 -0.02300000
v 0.01126397 0.00106060 -0.02300000
v 0.01116673 -0.00116673 -0.02300000
v 0.01106060 -0.00126397 -0.02300000
v 0.01094640 -0.00135160 -0.02300000
v -0.00835628 0.00014381 -0.02300000
v 0.00864840 0.00094640 -0.02300000
v 0.00873603 0.00106060 -0.02300000
v 0.00905360 0.00135160 -0.02300000
v 0.00917500 0.00142894 -0.02300000
v 0.00930268 0.00149541 -0.02300000
v 0.00943567 0.00155049 -0.02300000
v 0.00957295 0.00159378 -0.02300000
v 0.00971348 0.00162493 -0.02300000
v 0.00985619 0.00164372 -0.02300000
v -0.01116673 0.00116673 -0.02300000
v -0.01106060 0.00126397 -0.02300000
v -0.01094640 0.00135160 -0.02300000
v -0.00864840 0.00094640 -0.02300000
v -0.00905360 0.00135160 -0.02300000
v -0.00893940 0.00126397 -0.02300000
v -0.00883327 0.00116673 -0.02300000
v -0.00873603 0.00106060 -0.02300000
v 0.01000000 0.00165000 -0.02300000
v 0.01014381 0.00164372 -0.02300000
v 0.01135160 0.00094640 -0.02300000
v 0.01142894 0.00082500 -0.02300000
v 0.01149541 0.00069732 -0.02300000
v 0.01155049 0.00056433 -0.02300000
v 0.01159378 0.00042705 -0.02300000
v 0.01162493 0.00028652 -0.02300000
v 0.01082500 -0.00142894 -0.02300000
v 0.01069732 -0.00149541 -0.02300000
v 0.01056433 -0.00155049 -0.02300000
v 0.00971348 -0.00162493 -0.02300000
v 0.00893940 -0.00126397 -0.02300000
v 0.00883327 -0.00116673 -0.02300000
v 0.00844951 0.00056433 -0.02300000
v 0.00840622 0.00042705 -0.02300000
v 0.00837507 0.00028652 -0.02300000
v 0.00850459 0.00069732 -0.02300000
v 0.00857106 0.00082500 -0.02300000
v 0.00883327 0.00116673 -0.02300000
v 0.00893940 0.00126397 -0.02300000
v -0.00883327 -0.00116673 -0.02300000
v -0.00893940 -0.00126397 -0.02300000
v -0.00905360 -0.00135160 -0.02300000
v -0.00917500 -0.00142894 -0.02300000
v -0.00930268 -0.00149541 -0.02300000
v -0.00943567 -0.00155049 -0.02300000
v -0.01042705 0.00159378 -0.02300000
v -0.00844951 0.00056433 -0.02300000
v -0.00840622 0.00042705 -0.02300000
v -0.00837507 0.00028652 -0.02300000
v 0.01028652 0.00162493 -0.02300000
v 0.01042705 0.00159378 -0.02300000
v 0.01056433 0.00155049 -0.02300000
v 0.01162493 -0.00028652 -0.02300000
v 0.01159378 -0.00042705 -0.02300000
v 0.01155049 -0.00056433 -0.02300000
v 0.01042705 -0.00159378 -0.02300000
v 0.01028652 -0.00162493 -0.02300000
v -0.01000000 0.00165000 -0.02300000
v -0.00985619 0.00164372 -0.02300000
v 0.01069732 0.00149541 -0.02300000
v 0.01082500 0.00142894 -0.02300000
v 0.00837507 -0.00028652 -0.02300000
v 0.00835628 -0.00014381 -0.02300000
v -0.00835000 0.00000000 -0.02300000
v 0.00835000 -0.00000000 -0.02300000
v 0.00835628 0.00014381 -0.02300000
v -0.01069732 0.00149541 -0.02300000
v -0.01056433 0.00155049 -0.02300000
v -0.01028652 0.00162493 -0.02300000
v -0.01014381 0.00164372 -0.02300000
v -0.00971348 0.00162493 -0.02300000
v -0.00957295 0.00159378 -0.02300000
v -0.00943567 0.00155049 -0.02300000
v 0.01164372 0.00014381 -0.02300000
v 0.01165000 0.00000000 -0.02300000
v 0.01164372 -0.00014381 -0.02300000
v -0.02100000 -0.06058328 0.04044155
v -0.01000000 0.00165000 -0.02800000
v -0.00985619 0.00164372 -0.02800000
v -0.00971348 0.00162493 -0.02800000
v -0.00957295 0.00159378 -0.02800000
v -0.00943567 0.00155049 -0.02800000
v -0.00930268 0.00149541 -0.02800000
v -0.00917500 0.00142894 -0.02800000
v -0.00905360 0.00135160 -0.02800000
v -0.00893940 0.00126397 -0.02800000
v -0.00883327 0.00116673 -0.02800000
v -0.00873603 0.00106060 -0.02800000
v -0.00864840 0.00094640 -0.02800000
v -0.00857106 0.00082500 -0.02800000
v -0.00850459 0.00069732 -0.02800000
v -0.00844951 0.00056433 -0.02800000
v -0.00840622 0.00042705 -0.02800000
v -0.00837507 0.00028652 -0.02800000
v -0.00835628 0.00014381 -0.02800000
v -0.00835000 0.00000000 -0.02800000
v -0.00835628 -0.00014381 -0.02800000
v -0.00837507 -0.00028652 -0.02800000
v -0.00840622 -0.00042705 -0.02800000
v -0.00844951 -0.00056433 -0.02800000
v -0.00850459 -0.00069732 -0.02800000
v -0.00857106 -0.00082500 -0.02800000
v -0.00864840 -0.00094640 -0.02800000
v -0.00873603 -0.00106060 -0.02800000
v -0.00883327 -0.00116673 -0.02800000
v -0.00893940 -0.00126397 -0.02800000
v -0.00905360 -0.00135160 -0.02800000
v -0.00917500 -0.00142894 -0.02800000
v -0.00930268 -0.00149541 -0.02800000
v -0.00943567 -0.00155049 -0.02800000
v -0.00957295 -0.00159378 -0.02800000
v -0.00971348 -0.00162493 -0.02800000
v -0.00985619 -0.00164372 -0.02800000
v -0.01000000 -0.00165000 -0.02800000
v -0.01014381 -0.00164372 -0.02800000
v -0.01028652 -0.00162493 -0.02800000
v -0.01042705 -0.00159378 -0.02800000
v -0.01056433 -0.00155049 -0.02800000
v -0.01069732 -0.00149541 -0.02800000
v -0.01082500 -0.00142894 -0.02800000
v -0.01094640 -0.00135160 -0.02800000
v -0.01106060 -0.00126397 -0.02800000
v -0.01116673 -0.00116673 -0.02800000
v -0.01126397 -0.00106060 -0.02800000
v -0.01135160 -0.00094640 -0.02800000
v -0.01142894 -0.00082500 -0.02800000
v -0.01149541 -0.00069732 -0.02800000
v -0.01155049 -0.00056433 -0.02800000
v -0.01159378 -0.00042705 -0.02800000
v -0.01162493 -0.00028652 -0.02800000
v -0.01164372 -0.00014381 -0.02800000
v -0.01165000 0.00000000 -0.02800000
v -0.01164372 0.00014381 -0.02800000
v -0.01162493 0.00028652 -0.02800000
v -0.01159378 0.00042705 -0.02800000
v -0.01155049 0.00056433 -0.02800000
v -0.01149541 0.00069732 -0.02800000
v -0.01142894 0.00082500 -0.02800000
v -0.01135160 0.00094640 -0.02800000
v -0.01126397 0.00106060 -0.02800000
v -0.01116673 0.00116673 -0.02800000
v -0.01106060 0.00126397 -0.02800000
v -0.01094640 0.00135160 -0.02800000
v -0.01082500 0.00142894 -0.02800000
v -0.01069732 0.00149541 -0.02800000
v -0.01056433 0.00155049 -0.02800000
v -0.01042705 0.00159378 -0.02800000
v -0.01028652 0.00162493 -0.02800000
v -0.01014381 0.00164372 -0.02800000
v 0.00985619 0.00164372 -0.02800000
v 0.00837507 -0.00028652 -0.02800000
v 0.00840622 -0.00042705 -0.02800000
v 0.00844951 -0.00056433 -0.02800000
v 0.00850459 -0.00069732 -0.02800000
v 0.00943567 -0.00155049 -0.02800000
v 0.00957295 -0.00159378 -0.02800000
v 0.00985619 -0.00164372 -0.02800000
v 0.00971348 -0.00162493 -0.02800000
v 0.01000000 0.00165000 -0.02800000
v 0.01135160 0.00094640 -0.02800000
v 0.01126397 0.00106060 -0.02800000
v 0.01042705 0.00159378 -0.02800000
v 0.00971348 0.00162493 -0.02800000
v 0.00957295 0.00159378 -0.02800000
v 0.00943567 0.00155049 -0.02800000
v 0.00930268 0.00149541 -0.02800000
v 0.00917500 0.00142894 -0.02800000
v 0.00883327 0.00116673 -0.02800000
v 0.00873603 0.00106060 -0.02800000
v 0.00864840 0.00094640 -0.02800000
v 0.00857106 0.00082500 -0.02800000
v 0.00857106 -0.00082500 -0.02800000
v 0.00864840 -0.00094640 -0.02800000
v 0.00873603 -0.00106060 -0.02800000
v 0.00883327 -0.00116673 -0.02800000
v 0.00893940 -0.00126397 -0.02800000
v 0.00905360 -0.00135160 -0.02800000
v 0.01106060 -0.00126397 -0.02800000
v 0.01094640 -0.00135160 -0.02800000
v 0.01082500 -0.00142894 -0.02800000
v 0.01116673 -0.00116673 -0.02800000
v 0.01126397 -0.00106060 -0.02800000
v 0.01135160 -0.00094640 -0.02800000
v 0.00905360 0.00135160 -0.02800000
v 0.00893940 0.00126397 -0.02800000
v 0.00850459 0.00069732 -0.02800000
v 0.00844951 0.00056433 -0.02800000
v 0.00840622 0.00042705 -0.02800000
v 0.00917500 -0.00142894 -0.02800000
v 0.00930268 -0.00149541 -0.02800000
v 0.01142894 -0.00082500 -0.02800000
v 0.01149541 -0.00069732 -0.02800000
v 0.01155049 -0.00056433 -0.02800000
v 0.01069732 0.00149541 -0.02800000
v 0.01082500 0.00142894 -0.02800000
v 0.01028652 0.00162493 -0.02800000
v 0.01014381 0.00164372 -0.02800000
v 0.00837507 0.00028652 -0.02800000
v 0.00835628 0.00014381 -0.02800000
v 0.00835000 0.00000000 -0.02800000
v 0.00835628 -0.00014381 -0.02800000
v 0.01000000 -0.00165000 -0.02800000
v 0.01014381 -0.00164372 -0.02800000
v 0.01028652 -0.00162493 -0.02800000
v 0.01042705 -0.00159378 -0.02800000
v 0.01056433 -0.00155049 -0.02800000
v 0.01069732 -0.00149541 -0.02800000
v 0.01165000 0.00000000 -0.02800000
v 0.01164372 0.00014381 -0.02800000
v 0.01162493 0.00028652 -0.02800000
v 0.01159378 0.00042705 -0.02800000
v 0.01155049 0.00056433 -0.02800000
v 0.01149541 0.00069732 -0.02800000
v 0.01142894 0.00082500 -0.02800000
v 0.01116673 0.00116673 -0.02800000
v 0.01106060 0.00126397 -0.02800000
v 0.01094640 0.00135160 -0.02800000
v 0.01056433 0.00155049 -0.02800000
v 0.01159378 -0.00042705 -0.02800000
v 0.01162493 -0.00028652 -0.02800000
v 0.01164372 -0.00014381 -0.02800000
v 0.00580826 -0.08405330 0.06391157
v 0.02600000 -0.08405922 0.06391749
v 0.02580826 -0.08405330 0.06391157
v 0.00600000 -0.08405922 0.06391749
v 0.00638203 -0.08403559 0.06389385
v 0.00619174 -0.08405330 0.06391157
v 0.00561797 -0.08403559 0.06389385
v 0.00543060 -0.08400622 0.06386448
v 0.00524756 -0.08396541 0.06382368
v 0.00790526 -0.08172577 0.06158404
v 0.00799388 -0.08184615 0.06170442
v 0.02524756 -0.08396541 0.06382368
v 0.02656940 -0.08400622 0.06386448
v 0.02638203 -0.08403559 0.06389385
v 0.02619174 -0.08405330 0.06391157
v 0.00741413 -0.08369528 0.06355354
v 0.00726187 -0.08377789 0.06363615
v 0.00710000 -0.08385081 0.06370907
v 0.00692976 -0.08391348 0.06377174
v 0.00710000 -0.08115637 0.06101464
v 0.00692976 -0.08109371 0.06095197
v 0.00675244 -0.08104177 0.06090004
v 0.00726187 -0.08122928 0.06108755
v 0.00741413 -0.08131190 0.06117017
v 0.00755563 -0.08140359 0.06126186
v 0.00799388 -0.08316103 0.06301930
v 0.00790526 -0.08328141 0.06313967
v 0.00780213 -0.08339586 0.06325413
v 0.00675244 -0.08396541 0.06382368
v 0.00656940 -0.08400622 0.06386448
v 0.00561797 -0.08097158 0.06082986
v 0.00580826 -0.08095387 0.06081214
v 0.00768530 -0.08150364 0.06136191
v 0.00780213 -0.08161131 0.06146958
v 0.00768530 -0.08350353 0.06336180
v 0.00755563 -0.08360359 0.06346186
v 0.00444436 -0.08360359 0.06346186
v 0.00458587 -0.08369528 0.06355354
v 0.00473813 -0.08377789 0.06363615
v 0.00600000 -0.08094795 0.06080622
v 0.00619174 -0.08095387 0.06081214
v 0.00638203 -0.08097158 0.06082986
v 0.00507024 -0.08391348 0.06377174
v 0.00490000 -0.08385081 0.06370907
v 0.02507024 -0.08109371 0.06095197
v 0.02524756 -0.08104177 0.06090004
v 0.00431470 -0.08350353 0.06336180
v 0.00419787 -0.08339586 0.06325413
v 0.00409474 -0.08328141 0.06313967
v 0.00387496 -0.08290622 0.06276448
v 0.00383342 -0.08277372 0.06263199
v 0.00458587 -0.08131190 0.06117017
v 0.00473813 -0.08122928 0.06108755
v 0.00490000 -0.08115637 0.06101464
v 0.00507024 -0.08109371 0.06095197
v 0.00524756 -0.08104177 0.06090004
v 0.00543060 -0.08100096 0.06085923
v 0.02561797 -0.08097158 0.06082986
v 0.02790526 -0.08172577 0.06158404
v 0.02799388 -0.08184615 0.06170442
v 0.02741413 -0.08369528 0.06355354
v 0.02490000 -0.08385081 0.06370907
v 0.02473813 -0.08377789 0.06363615
v 0.00656940 -0.08100096 0.06085923
v 0.02458587 -0.08369528 0.06355354
v 0.02444437 -0.08360359 0.06346186
v 0.02600000 -0.08094795 0.06080622
v 0.02580826 -0.08095387 0.06081214
v 0.02543060 -0.08100096 0.06085923
v 0.02619174 -0.08095387 0.06081214
v 0.02638203 -0.08097158 0.06082986
v 0.02755564 -0.08360359 0.06346186
v 0.02726187 -0.08377789 0.06363615
v 0.02710000 -0.08385081 0.06370907
v 0.00806732 -0.08197153 0.06182980
v 0.00812504 -0.08210096 0.06195923
v 0.00816658 -0.08223346 0.06209172
v 0.00380837 -0.08263917 0.06249744
v 0.00380000 -0.08250359 0.06236186
v 0.00380837 -0.08236801 0.06222627
v 0.00419787 -0.08161131 0.06146958
v 0.00409474 -0.08172577 0.06158404
v 0.00400612 -0.08184615 0.06170442
v 0.00431470 -0.08150364 0.06136191
v 0.00444436 -0.08140359 0.06126186
v 0.02507024 -0.08391348 0.06377174
v 0.02393268 -0.08197153 0.06182980
v 0.02400612 -0.08184615 0.06170442
v 0.02409474 -0.08172577 0.06158404
v 0.02458587 -0.08131190 0.06117017
v 0.02473813 -0.08122928 0.06108755
v 0.02490000 -0.08115637 0.06101464
v 0.02710000 -0.08115637 0.06101464
v 0.02726187 -0.08122928 0.06108755
v 0.02741413 -0.08131190 0.06117017
v 0.02755564 -0.08140359 0.06126186
v 0.02692976 -0.08391348 0.06377174
v 0.02675244 -0.08396541 0.06382368
v 0.00819163 -0.08236801 0.06222627
v 0.00820000 -0.08250359 0.06236186
v 0.02543060 -0.08400622 0.06386448
v 0.00819163 -0.08263917 0.06249744
v 0.02561797 -0.08403559 0.06389385
v 0.00816658 -0.08277372 0.06263199
v 0.00812504 -0.08290622 0.06276448
v 0.00806732 -0.08303565 0.06289391
v 0.00400612 -0.08316103 0.06301930
v 0.00393268 -0.08303565 0.06289391
v 0.00383342 -0.08223346 0.06209172
v 0.00387496 -0.08210096 0.06195923
v 0.00393268 -0.08197153 0.06182980
v 0.02656940 -0.08100096 0.06085923
v 0.02675244 -0.08104177 0.06090004
v 0.02768530 -0.08150364 0.06136191
v 0.02780213 -0.08161131 0.06146958
v 0.02819163 -0.08236801 0.06222627
v 0.02820000 -0.08250359 0.06236186
v 0.02819163 -0.08263917 0.06249744
v 0.02816658 -0.08277372 0.06263199
v 0.02812504 -0.08290622 0.06276448
v 0.02806732 -0.08303565 0.06289391
v 0.02799388 -0.08316103 0.06301930
v 0.02790526 -0.08328141 0.06313967
v 0.02780213 -0.08339586 0.06325413
v 0.02768530 -0.08350353 0.06336180
v 0.02431470 -0.08350353 0.06336180
v 0.02419787 -0.08339586 0.06325413
v 0.02409474 -0.08328141 0.06313967
v 0.02419787 -0.08161131 0.06146958
v 0.02431470 -0.08150364 0.06136191
v 0.02444437 -0.08140359 0.06126186
v 0.02692976 -0.08109371 0.06095197
v 0.02387496 -0.08290622 0.06276448
v 0.02383342 -0.08277372 0.06263199
v 0.02380837 -0.08263917 0.06249744
v 0.02380000 -0.08250359 0.06236186
v 0.02806732 -0.08197153 0.06182980
v 0.02812504 -0.08210096 0.06195923
v 0.02816658 -0.08223346 0.06209172
v 0.02400612 -0.08316103 0.06301930
v 0.02393268 -0.08303565 0.06289391
v 0.02380837 -0.08236801 0.06222627
v 0.02383342 -0.08223346 0.06209172
v 0.02387496 -0.08210096 0.06195923
v 0.00600000 -0.08448349 0.05727069
v 0.00619174 -0.08448941 0.05727661
v 0.00638203 -0.08450712 0.05729432
v 0.00656940 -0.08453649 0.05732369
v 0.00675244 -0.08457731 0.05736450
v 0.00692976 -0.08462924 0.05741644
v 0.00710000 -0.08469190 0.05747910
v 0.00726187 -0.08476482 0.05755202
v 0.00741413 -0.08484744 0.05763464
v 0.00755563 -0.08493912 0.05772632
v 0.00768530 -0.08503918 0.05782638
v 0.00780213 -0.08514684 0.05793405
v 0.00790526 -0.08526131 0.05804851
v 0.00799388 -0.08538168 0.05816888
v 0.00806732 -0.08550707 0.05829426
v 0.00812504 -0.08563650 0.05842369
v 0.00816658 -0.08576899 0.05855619
v 0.00819163 -0.08590354 0.05869074
v 0.00820000 -0.08603913 0.05882632
v 0.00819163 -0.08617470 0.05896191
v 0.00816658 -0.08630925 0.05909646
v 0.00812504 -0.08644175 0.05922895
v 0.00806732 -0.08657118 0.05935838
v 0.00799388 -0.08669657 0.05948376
v 0.00790526 -0.08681694 0.05960414
v 0.00780213 -0.08693140 0.05971860
v 0.00768530 -0.08703907 0.05982627
v 0.00755563 -0.08713912 0.05992632
v 0.00741413 -0.08723081 0.06001801
v 0.00726187 -0.08731342 0.06010062
v 0.00710000 -0.08738634 0.06017354
v 0.00692976 -0.08744901 0.06023620
v 0.00675244 -0.08750094 0.06028814
v 0.00656940 -0.08754175 0.06032895
v 0.00638203 -0.08757112 0.06035832
v 0.00619174 -0.08758884 0.06037604
v 0.00600000 -0.08759475 0.06038196
v 0.00580826 -0.08758884 0.06037604
v 0.00561797 -0.08757112 0.06035832
v 0.00543060 -0.08754175 0.06032895
v 0.00524756 -0.08750094 0.06028814
v 0.00507024 -0.08744901 0.06023620
v 0.00490000 -0.08738634 0.06017354
v 0.00473813 -0.08731342 0.06010062
v 0.00458587 -0.08723081 0.06001801
v 0.00444436 -0.08713912 0.05992632
v 0.00431470 -0.08703907 0.05982627
v 0.00419787 -0.08693140 0.05971860
v 0.00409474 -0.08681694 0.05960414
v 0.00400612 -0.08669657 0.05948376
v 0.00393268 -0.08657118 0.05935838
v 0.00387496 -0.08644175 0.05922895
v 0.00383342 -0.08630925 0.05909646
v 0.00380837 -0.08617470 0.05896191
v 0.00380000 -0.08603913 0.05882632
v 0.00380837 -0.08590354 0.05869074
v 0.00383342 -0.08576899 0.05855619
v 0.00387496 -0.08563650 0.05842369
v 0.00393268 -0.08550707 0.05829426
v 0.00400612 -0.08538168 0.05816888
v 0.00409474 -0.08526131 0.05804851
v 0.00419787 -0.08514684 0.05793405
v 0.00431470 -0.08503918 0.05782638
v 0.00444436 -0.08493912 0.05772632
v 0.00458587 -0.08484744 0.05763464
v 0.00473813 -0.08476482 0.05755202
v 0.00490000 -0.08469190 0.05747910
v 0.00507024 -0.08462924 0.05741644
v 0.00524756 -0.08457731 0.05736450
v 0.00543060 -0.08453649 0.05732369
v 0.00561797 -0.08450712 0.05729432
v 0.00580826 -0.08448941 0.05727661
v 0.02580826 -0.08448941 0.05727661
v 0.02561797 -0.08450712 0.05729432
v 0.02543060 -0.08453649 0.05732369
v 0.02524756 -0.08457731 0.05736450
v 0.02600000 -0.08448349 0.05727069
v 0.02675244 -0.08457731 0.05736450
v 0.02692976 -0.08462924 0.05741644
v 0.02638203 -0.08450712 0.05729432
v 0.02619174 -0.08448941 0.05727661
v 0.02543060 -0.08754175 0.06032895
v 0.02561797 -0.08757112 0.06035832
v 0.02580826 -0.08758884 0.06037604
v 0.02600000 -0.08759475 0.06038196
v 0.02656940 -0.08453649 0.05732369
v 0.02741413 -0.08484744 0.05763464
v 0.02726187 -0.08476482 0.05755202
v 0.02710000 -0.08469190 0.05747910
v 0.02806732 -0.08550707 0.05829426
v 0.02799388 -0.08538168 0.05816888
v 0.02790526 -0.08526131 0.05804851
v 0.02780213 -0.08514684 0.05793405
v 0.02768530 -0.08503918 0.05782638
v 0.02755564 -0.08493912 0.05772632
v 0.02619174 -0.08758884 0.06037604
v 0.02638203 -0.08757112 0.06035832
v 0.02656940 -0.08754175 0.06032895
v 0.02675244 -0.08750094 0.06028814
v 0.02710000 -0.08738634 0.06017354
v 0.02692976 -0.08744901 0.06023620
v 0.02507024 -0.08462924 0.05741644
v 0.02490000 -0.08469190 0.05747910
v 0.02473813 -0.08476482 0.05755202
v 0.02490000 -0.08738634 0.06017354
v 0.02507024 -0.08744901 0.06023620
v 0.02524756 -0.08750094 0.06028814
v 0.02806732 -0.08657118 0.05935838
v 0.02812504 -0.08644175 0.05922895
v 0.02409474 -0.08526131 0.05804851
v 0.02419787 -0.08514684 0.05793405
v 0.02726187 -0.08731342 0.06010062
v 0.02458587 -0.08484744 0.05763464
v 0.02444437 -0.08493912 0.05772632
v 0.02431470 -0.08503918 0.05782638
v 0.02741413 -0.08723081 0.06001801
v 0.02755564 -0.08713912 0.05992632
v 0.02780213 -0.08693140 0.05971860
v 0.02790526 -0.08681694 0.05960414
v 0.02799388 -0.08669657 0.05948376
v 0.02816658 -0.08630925 0.05909646
v 0.02819163 -0.08617470 0.05896191
v 0.02820000 -0.08603913 0.05882632
v 0.02819163 -0.08590354 0.05869074
v 0.02816658 -0.08576899 0.05855619
v 0.02812504 -0.08563650 0.05842369
v 0.02768530 -0.08703907 0.05982627
v 0.02431470 -0.08703907 0.05982627
v 0.02419787 -0.08693140 0.05971860
v 0.02393268 -0.08550707 0.05829426
v 0.02387496 -0.08563650 0.05842369
v 0.02409474 -0.08681694 0.05960414
v 0.02400612 -0.08669657 0.05948376
v 0.02444437 -0.08713912 0.05992632
v 0.02458587 -0.08723081 0.06001801
v 0.02473813 -0.08731342 0.06010062
v 0.02400612 -0.08538168 0.05816888
v 0.02383342 -0.08576899 0.05855619
v 0.02380837 -0.08590354 0.05869074
v 0.02383342 -0.08630925 0.05909646
v 0.02387496 -0.08644175 0.05922895
v 0.02393268 -0.08657118 0.05935838
v 0.02380000 -0.08603913 0.05882632
v 0.02380837 -0.08617470 0.05896191
f 1 2 3
f 1 3 4
f 3 5 4
f 4 5 6
f 5 7 6
f 6 7 8
f 7 9 8
f 8 9 10
f 9 11 10
f 10 11 12
f 11 13 12
f 12 13 14
f 13 15 14
f 14 15 16
f 15 17 16
f 16 17 18
f 17 19 18
f 18 19 20
f 19 21 20
f 20 21 22
f 21 23 22
f 22 23 24
f 23 25 24
f 24 25 26
f 25 27 26
f 26 27 28
f 27 29 28
f 28 29 30
f 29 31 30
f 30 31 32
f 31 33 32
f 32 33 34
f 33 35 34
f 34 35 36
f 35 37 36
f 36 37 38
f 39 40 41
f 39 41 42
f 41 43 42
f 42 43 44
f 43 45 44
f 44 45 46
f 45 47 46
f 46 47 48
f 47 49 48
f 48 49 50
f 49 51 50
f 50 51 52
f 51 53 52
f 52 53 54
f 53 55 54
f 54 55 56
f 55 57 56
f 56 57 58
f 57 59 58
f 58 59 60
f 59 61 60
f 60 61 62
f 61 63 62
f 62 63 64
f 63 65 64
f 64 65 66
f 65 67 66
f 66 67 68
f 67 69 68
f 68 69 70
f 69 71 70
f 70 71 72
f 71 73 72
f 72 73 74
f 73 75 74
f 74 75 76
f 77 78 79
f 77 79 80
f 79 81 80
f 80 81 82
f 81 83 82
f 82 83 84
f 83 85 84
f 84 85 86
f 85 87 86
f 86 87 88
f 87 89 88
f 88 89 90
f 89 91 90
f 90 91 92
f 91 93 92
f 92 93 94
f 93 95 94
f 94 95 96
f 95 97 96
f 96 97 98
f 97 99 98
f 98 99 100
f 99 101 100
f 100 101 102
f 101 103 102
f 102 103 104
f 103 105 104
f 104 105 106
f 105 107 106
f 106 107 108
f 107 109 108
f 108 109 110
f 109 111 110
f 110 111 112
f 111 113 112
f 112 113 114
f 115 116 117
f 116 118 117
f 117 118 119
f 118 120 119
f 119 120 121
f 120 122 121
f 121 122 123
f 124 125 126
f 126 127 124
f 127 128 124
f 124 128 115
f 128 129 115
f 115 129 116
f 130 131 132
f 132 133 130
f 133 134 130
f 130 134 125
f 134 135 125
f 125 135 126
f 136 137 138
f 138 139 136
f 139 140 136
f 136 140 131
f 140 141 131
f 131 141 132
f 142 143 144
f 143 145 144
f 144 145 146
f 145 147 146
f 146 147 148
f 147 149 148
f 148 149 150
f 149 151 150
f 150 151 152
f 151 153 152
f 152 153 154
f 153 155 154
f 154 155 156
f 155 157 156
f 156 157 158
f 157 159 158
f 158 159 160
f 159 161 160
f 160 161 137
f 161 162 137
f 137 162 138
f 141 140 163
f 140 139 163
f 139 138 163
f 163 138 162
f 135 134 164
f 134 133 164
f 164 133 163
f 133 132 163
f 163 132 141
f 129 128 165
f 128 127 165
f 165 127 164
f 127 126 164
f 164 126 135
f 166 167 168
f 167 123 168
f 168 123 122
f 122 120 168
f 120 118 168
f 168 118 165
f 118 116 165
f 165 116 129
f 169 170 171
f 169 171 172
f 171 173 172
f 172 173 174
f 173 175 174
f 174 175 176
f 175 177 176
f 176 177 178
f 177 179 178
f 178 179 180
f 179 181 180
f 180 181 182
f 181 183 182
f 182 183 184
f 183 185 184
f 184 185 186
f 185 187 186
f 186 187 188
f 187 189 188
f 188 189 190
f 189 191 190
f 190 191 192
f 191 193 192
f 192 193 194
f 193 195 194
f 194 195 196
f 195 197 196
f 196 197 198
f 197 199 198
f 198 199 200
f 199 201 200
f 200 201 202
f 201 203 202
f 202 203 204
f 203 205 204
f 204 205 206
f 207 208 209
f 208 210 209
f 209 210 211
f 210 212 211
f 211 212 213
f 212 214 213
f 213 214 215
f 214 216 215
f 215 216 217
f 216 218 217
f 217 218 219
f 218 220 219
f 219 220 221
f 220 222 221
f 221 222 223
f 222 224 223
f 223 224 225
f 224 226 225
f 225 226 227
f 226 228 227
f 227 228 229
f 228 230 229
f 229 230 231
f 230 232 231
f 231 232 233
f 232 234 233
f 235 236 237
f 235 237 238
f 237 239 238
f 238 239 240
f 239 241 240
f 240 241 242
f 241 243 242
f 242 243 244
f 243 245 244
f 244 245 246
f 245 247 246
f 246 247 248
f 247 249 248
f 248 249 250
f 249 251 250
f 250 251 252
f 251 253 252
f 252 253 254
f 253 255 254
f 254 255 256
f 255 257 256
f 256 257 258
f 257 259 258
f 258 259 260
f 259 261 260
f 260 261 262
f 261 263 262
f 262 263 264
f 263 265 264
f 264 265 266
f 265 267 266
f 266 267 268
f 267 269 268
f 268 269 270
f 269 271 270
f 270 271 272
f 273 274 275
f 273 275 276
f 275 277 276
f 276 277 278
f 277 279 278
f 278 279 280
f 279 281 280
f 280 281 282
f 281 283 282
f 282 283 284
f 283 285 284
f 284 285 286
f 285 287 286
f 286 287 288
f 287 289 288
f 288 289 290
f 289 291 290
f 290 291 292
f 291 293 292
f 292 293 294
f 293 295 294
f 294 295 296
f 295 297 296
f 296 297 298
f 297 299 298
f 298 299 300
f 233 301 302
f 302 303 233
f 303 304 233
f 233 304 305
f 306 307 2
f 308 309 310
f 233 311 312
f 307 313 2
f 313 314 2
f 2 314 315
f 315 316 2
f 316 317 2
f 2 317 318
f 319 320 234
f 320 321 234
f 322 323 233
f 323 324 233
f 233 324 325
f 325 326 233
f 326 327 233
f 233 327 311
f 328 329 310
f 330 331 321
f 331 332 321
f 321 332 234
f 332 333 234
f 333 334 234
f 334 335 234
f 234 335 336
f 337 338 233
f 312 339 233
f 339 340 233
f 233 340 301
f 305 341 233
f 341 342 233
f 233 342 2
f 342 343 2
f 2 343 306
f 344 345 76
f 39 42 346
f 347 348 234
f 348 349 234
f 234 349 350
f 351 352 310
f 352 353 310
f 353 354 310
f 310 354 355
f 329 356 310
f 356 357 310
f 310 357 308
f 338 358 233
f 358 359 233
f 233 359 322
f 360 13 11
f 46 48 361
f 48 50 361
f 362 363 39
f 363 364 39
f 39 364 365
f 350 366 234
f 366 367 234
f 234 367 368
f 369 370 371
f 372 373 369
f 373 374 369
f 369 374 375
f 375 376 369
f 376 377 369
f 369 377 378
f 318 379 2
f 379 380 2
f 2 380 3
f 380 381 3
f 382 64 66
f 345 383 76
f 383 384 76
f 76 384 74
f 384 385 74
f 74 385 72
f 385 386 72
f 72 386 70
f 386 382 70
f 70 382 68
f 382 66 68
f 50 52 361
f 52 54 361
f 361 54 56
f 56 58 361
f 58 60 361
f 361 60 382
f 60 62 382
f 382 62 64
f 346 42 361
f 42 44 361
f 361 44 46
f 378 387 39
f 387 388 39
f 365 389 39
f 389 390 39
f 39 390 391
f 391 392 39
f 392 393 39
f 39 393 394
f 368 395 234
f 395 396 234
f 234 396 397
f 330 321 310
f 321 398 310
f 310 398 351
f 355 399 310
f 399 400 310
f 310 400 328
f 401 369 402
f 369 403 402
f 401 404 369
f 404 405 369
f 369 405 370
f 371 406 369
f 406 407 369
f 369 407 372
f 336 408 234
f 408 409 234
f 234 409 410
f 410 411 234
f 411 412 234
f 234 412 233
f 412 413 233
f 233 413 337
f 11 9 360
f 9 7 360
f 360 7 381
f 7 5 381
f 381 5 3
f 33 31 414
f 346 415 39
f 415 416 39
f 39 416 378
f 416 417 378
f 378 417 369
f 388 418 39
f 418 419 39
f 39 419 420
f 421 422 234
f 422 423 234
f 234 423 347
f 397 424 234
f 424 425 234
f 234 425 319
f 426 427 37
f 420 428 39
f 428 429 39
f 39 429 362
f 309 430 310
f 430 431 310
f 310 431 432
f 431 433 432
f 432 433 369
f 433 434 369
f 369 434 403
f 13 360 15
f 360 435 15
f 15 435 17
f 25 436 27
f 436 414 27
f 27 414 29
f 414 31 29
f 33 414 35
f 414 437 35
f 35 437 37
f 437 438 37
f 37 438 426
f 25 23 436
f 23 21 436
f 436 21 435
f 21 19 435
f 435 19 17
f 427 439 37
f 439 440 37
f 37 440 76
f 440 441 76
f 76 441 344
f 394 442 39
f 442 443 39
f 39 443 234
f 443 444 234
f 234 444 421
f 208 207 121
f 207 445 121
f 121 445 119
f 445 117 119
f 426 446 427
f 446 447 427
f 427 447 439
f 447 448 439
f 439 448 440
f 448 449 440
f 440 449 441
f 449 450 441
f 441 450 344
f 450 451 344
f 344 451 345
f 451 452 345
f 345 452 383
f 452 453 383
f 383 453 384
f 453 454 384
f 384 454 385
f 454 455 385
f 385 455 386
f 455 456 386
f 386 456 382
f 456 457 382
f 382 457 361
f 457 458 361
f 361 458 346
f 458 459 346
f 346 459 415
f 459 460 415
f 415 460 416
f 460 461 416
f 416 461 417
f 461 462 417
f 417 462 369
f 462 463 369
f 369 463 432
f 463 464 432
f 432 464 310
f 464 465 310
f 310 465 330
f 465 466 330
f 330 466 331
f 466 467 331
f 331 467 332
f 467 468 332
f 332 468 333
f 468 469 333
f 333 469 334
f 469 470 334
f 334 470 335
f 470 471 335
f 335 471 336
f 471 472 336
f 336 472 408
f 472 473 408
f 408 473 409
f 473 474 409
f 409 474 410
f 474 475 410
f 410 475 411
f 475 476 411
f 411 476 412
f 476 477 412
f 412 477 413
f 477 478 413
f 413 478 337
f 478 479 337
f 337 479 338
f 479 480 338
f 338 480 358
f 480 481 358
f 358 481 359
f 481 482 359
f 359 482 322
f 482 483 322
f 322 483 323
f 483 484 323
f 323 484 324
f 484 485 324
f 324 485 325
f 485 486 325
f 325 486 326
f 486 487 326
f 326 487 327
f 487 488 327
f 327 488 311
f 488 489 311
f 311 489 312
f 489 490 312
f 312 490 339
f 490 491 339
f 339 491 340
f 491 492 340
f 340 492 301
f 492 493 301
f 301 493 302
f 493 494 302
f 302 494 303
f 494 495 303
f 303 495 304
f 495 496 304
f 304 496 305
f 496 497 305
f 305 497 341
f 497 498 341
f 341 498 342
f 498 499 342
f 342 499 343
f 499 500 343
f 343 500 306
f 500 501 306
f 306 501 307
f 501 502 307
f 307 502 313
f 502 503 313
f 313 503 314
f 503 504 314
f 314 504 315
f 504 505 315
f 315 505 316
f 505 506 316
f 316 506 317
f 506 507 317
f 317 507 318
f 507 508 318
f 318 508 379
f 508 509 379
f 379 509 380
f 509 510 380
f 380 510 381
f 510 511 381
f 381 511 360
f 511 512 360
f 360 512 435
f 512 513 435
f 435 513 436
f 513 514 436
f 436 514 414
f 514 515 414
f 414 515 437
f 515 516 437
f 437 516 438
f 516 517 438
f 438 517 426
f 517 446 426
f 222 220 286
f 286 220 284
f 220 218 284
f 284 218 282
f 282 218 280
f 218 216 280
f 280 216 278
f 216 214 278
f 278 214 276
f 214 212 276
f 276 212 273
f 212 210 273
f 210 208 273
f 273 208 167
f 208 121 167
f 167 121 123
f 40 39 300
f 39 234 300
f 286 288 222
f 288 290 222
f 222 290 224
f 290 292 224
f 224 292 226
f 292 294 226
f 226 294 228
f 234 232 300
f 232 230 300
f 300 230 298
f 230 228 298
f 298 228 296
f 228 294 296
f 447 446 38
f 1 508 507
f 497 496 299
f 496 495 299
f 299 495 494
f 10 12 512
f 511 510 1
f 510 509 1
f 1 509 508
f 507 506 1
f 506 505 1
f 1 505 504
f 504 503 1
f 503 502 1
f 1 502 501
f 1 4 511
f 4 6 511
f 511 6 512
f 6 8 512
f 512 8 10
f 501 500 1
f 500 499 1
f 1 499 299
f 499 498 299
f 299 498 497
f 462 461 518
f 18 513 16
f 513 512 16
f 16 512 14
f 512 12 14
f 519 520 465
f 520 521 465
f 465 521 522
f 446 517 38
f 517 516 38
f 38 516 36
f 516 515 36
f 36 515 34
f 514 26 515
f 26 28 515
f 28 30 515
f 30 32 515
f 515 32 34
f 18 20 513
f 20 22 513
f 513 22 514
f 22 24 514
f 514 24 26
f 494 493 299
f 493 492 299
f 299 492 491
f 523 524 465
f 457 456 75
f 456 455 75
f 75 455 454
f 491 490 299
f 490 489 299
f 299 489 488
f 467 466 525
f 466 465 525
f 525 465 526
f 465 524 526
f 75 527 518
f 488 487 299
f 487 486 299
f 299 486 485
f 478 477 300
f 477 476 300
f 476 475 300
f 300 475 474
f 474 473 300
f 473 472 300
f 300 472 471
f 40 528 529
f 71 69 530
f 462 518 463
f 518 531 463
f 463 531 532
f 532 533 463
f 533 534 463
f 463 534 535
f 536 537 463
f 537 538 463
f 463 538 539
f 522 540 465
f 540 541 465
f 465 541 542
f 542 543 465
f 543 544 465
f 465 544 545
f 461 460 518
f 460 459 518
f 518 459 75
f 459 458 75
f 75 458 457
f 546 300 547
f 300 548 547
f 546 549 300
f 549 550 300
f 300 550 551
f 535 552 463
f 552 553 463
f 463 553 536
f 539 554 463
f 554 555 463
f 463 555 556
f 545 557 465
f 557 558 465
f 465 558 523
f 450 449 38
f 449 448 38
f 38 448 447
f 485 484 299
f 484 483 299
f 299 483 482
f 482 481 299
f 481 480 299
f 299 480 300
f 480 479 300
f 300 479 478
f 551 559 300
f 559 560 300
f 300 560 561
f 57 55 562
f 55 53 562
f 562 53 563
f 53 51 563
f 563 51 49
f 71 530 73
f 530 564 73
f 73 564 75
f 564 565 75
f 75 565 527
f 556 566 463
f 566 567 463
f 463 567 464
f 567 568 464
f 464 568 465
f 568 569 465
f 465 569 519
f 454 453 75
f 453 452 75
f 75 452 38
f 452 451 38
f 38 451 450
f 525 570 300
f 570 571 300
f 571 572 300
f 300 572 573
f 573 574 300
f 574 575 300
f 300 575 548
f 576 577 40
f 577 578 40
f 578 579 40
f 40 579 580
f 580 581 40
f 581 582 40
f 40 582 528
f 529 583 40
f 583 584 40
f 40 584 41
f 584 585 41
f 49 47 563
f 47 45 563
f 563 45 585
f 45 43 585
f 585 43 41
f 57 562 59
f 562 586 59
f 59 586 61
f 69 67 530
f 67 65 530
f 530 65 586
f 65 63 586
f 586 63 61
f 561 587 300
f 587 588 300
f 300 588 40
f 588 589 40
f 40 589 576
f 471 470 300
f 470 469 300
f 300 469 525
f 469 468 525
f 525 468 467
f 75 38 76
f 38 37 76
f 273 167 274
f 167 166 274
f 106 108 590
f 271 591 592
f 90 92 590
f 92 94 590
f 114 593 112
f 593 590 112
f 112 590 110
f 590 108 110
f 271 594 114
f 594 595 114
f 114 595 593
f 94 96 590
f 96 98 590
f 590 98 100
f 100 102 590
f 102 104 590
f 590 104 106
f 590 596 77
f 596 597 77
f 77 597 598
f 599 600 601
f 602 603 271
f 603 604 271
f 271 604 591
f 77 80 590
f 80 82 590
f 590 82 84
f 605 606 271
f 606 607 271
f 271 607 608
f 84 86 590
f 86 88 590
f 590 88 90
f 609 601 610
f 601 611 610
f 609 612 601
f 612 613 601
f 601 613 614
f 615 616 271
f 616 617 271
f 608 618 271
f 618 619 271
f 271 619 594
f 445 620 117
f 620 621 117
f 614 622 601
f 622 623 601
f 601 623 599
f 617 624 271
f 624 625 271
f 271 625 605
f 626 77 627
f 77 628 627
f 621 629 117
f 629 630 117
f 117 630 631
f 598 632 77
f 632 633 77
f 77 633 628
f 634 635 117
f 626 636 77
f 636 637 77
f 77 637 638
f 639 640 77
f 641 642 445
f 642 643 445
f 445 643 644
f 644 645 445
f 645 646 445
f 445 646 620
f 154 156 647
f 156 158 647
f 647 158 160
f 648 649 169
f 650 247 245
f 651 652 653
f 652 654 653
f 653 654 655
f 144 146 656
f 146 148 656
f 656 148 657
f 148 150 657
f 657 150 647
f 150 152 647
f 647 152 154
f 160 137 647
f 137 136 647
f 647 136 131
f 635 658 117
f 658 647 117
f 117 647 115
f 647 124 115
f 144 656 142
f 656 659 142
f 142 659 206
f 659 660 206
f 206 660 204
f 650 245 661
f 247 650 249
f 650 662 249
f 249 662 251
f 251 662 253
f 662 663 253
f 253 663 255
f 600 664 601
f 664 665 601
f 601 665 666
f 640 667 77
f 667 668 77
f 77 668 669
f 670 445 671
f 445 672 671
f 670 673 445
f 673 674 445
f 445 674 641
f 611 601 653
f 601 675 653
f 653 675 651
f 676 677 631
f 677 678 631
f 679 680 117
f 680 681 117
f 117 681 634
f 682 683 169
f 683 684 169
f 169 684 685
f 686 259 663
f 259 257 663
f 663 257 255
f 687 263 686
f 263 261 686
f 686 261 259
f 271 269 602
f 269 267 602
f 602 267 687
f 267 265 687
f 687 265 263
f 666 688 601
f 688 689 601
f 601 689 690
f 689 691 690
f 690 691 692
f 691 693 692
f 692 693 592
f 693 694 592
f 592 694 271
f 694 695 271
f 271 695 615
f 638 696 77
f 696 697 77
f 77 697 639
f 669 698 77
f 698 699 77
f 77 699 445
f 699 700 445
f 445 700 672
f 131 130 647
f 130 125 647
f 647 125 124
f 198 660 196
f 660 701 196
f 198 200 660
f 200 202 660
f 660 202 204
f 190 701 188
f 701 702 188
f 190 192 701
f 192 194 701
f 701 194 196
f 182 184 702
f 184 186 702
f 702 186 188
f 685 703 169
f 703 704 169
f 169 704 648
f 705 706 236
f 706 707 236
f 236 707 708
f 708 709 236
f 709 710 236
f 236 710 711
f 711 712 236
f 712 713 236
f 236 713 237
f 713 714 237
f 245 243 661
f 243 241 661
f 661 241 714
f 241 239 714
f 714 239 237
f 655 715 653
f 715 716 653
f 653 716 717
f 678 718 631
f 718 719 631
f 631 719 117
f 719 720 117
f 117 720 679
f 174 176 721
f 176 178 721
f 721 178 702
f 178 180 702
f 702 180 182
f 722 723 653
f 723 724 653
f 653 724 725
f 682 169 721
f 169 172 721
f 721 172 174
f 649 726 169
f 726 727 169
f 169 727 236
f 727 728 236
f 236 728 705
f 717 729 653
f 729 730 653
f 653 730 722
f 725 731 653
f 731 732 653
f 653 732 631
f 732 733 631
f 631 733 676
f 629 734 630
f 734 735 630
f 630 735 631
f 735 736 631
f 631 736 653
f 736 737 653
f 653 737 611
f 737 738 611
f 611 738 610
f 738 739 610
f 610 739 609
f 739 740 609
f 609 740 612
f 740 741 612
f 612 741 613
f 741 742 613
f 613 742 614
f 742 743 614
f 614 743 622
f 743 744 622
f 622 744 623
f 744 745 623
f 623 745 599
f 745 746 599
f 599 746 600
f 746 747 600
f 600 747 664
f 747 748 664
f 664 748 665
f 748 749 665
f 665 749 666
f 749 750 666
f 666 750 688
f 750 751 688
f 688 751 689
f 751 752 689
f 689 752 691
f 752 753 691
f 691 753 693
f 753 754 693
f 693 754 694
f 754 755 694
f 694 755 695
f 755 756 695
f 695 756 615
f 756 757 615
f 615 757 616
f 757 758 616
f 616 758 617
f 758 759 617
f 617 759 624
f 759 760 624
f 624 760 625
f 760 761 625
f 625 761 605
f 761 762 605
f 605 762 606
f 762 763 606
f 606 763 607
f 763 764 607
f 607 764 608
f 764 765 608
f 608 765 618
f 765 766 618
f 618 766 619
f 766 767 619
f 619 767 594
f 767 768 594
f 594 768 595
f 768 769 595
f 595 769 593
f 769 770 593
f 593 770 590
f 770 771 590
f 590 771 596
f 771 772 596
f 596 772 597
f 772 773 597
f 597 773 598
f 773 774 598
f 598 774 632
f 774 775 632
f 632 775 633
f 775 776 633
f 633 776 628
f 776 777 628
f 628 777 627
f 777 778 627
f 627 778 626
f 778 779 626
f 626 779 636
f 779 780 636
f 636 780 637
f 780 781 637
f 637 781 638
f 781 782 638
f 638 782 696
f 782 783 696
f 696 783 697
f 783 784 697
f 697 784 639
f 784 785 639
f 639 785 640
f 785 786 640
f 640 786 667
f 786 787 667
f 667 787 668
f 787 788 668
f 668 788 669
f 788 789 669
f 669 789 698
f 789 790 698
f 698 790 699
f 790 791 699
f 699 791 700
f 791 792 700
f 700 792 672
f 792 793 672
f 672 793 671
f 793 794 671
f 671 794 670
f 794 795 670
f 670 795 673
f 795 796 673
f 673 796 674
f 796 797 674
f 674 797 641
f 797 798 641
f 641 798 642
f 798 799 642
f 642 799 643
f 799 800 643
f 643 800 644
f 800 801 644
f 644 801 645
f 801 802 645
f 645 802 646
f 802 803 646
f 646 803 620
f 803 804 620
f 620 804 621
f 804 805 621
f 621 805 629
f 805 734 629
f 162 734 805
f 801 163 802
f 163 803 802
f 162 805 163
f 805 804 163
f 163 804 803
f 155 806 157
f 806 159 157
f 159 806 161
f 806 807 161
f 161 807 162
f 807 808 162
f 162 808 809
f 798 797 163
f 737 162 738
f 162 739 738
f 737 736 162
f 736 735 162
f 162 735 734
f 149 810 151
f 810 806 151
f 151 806 153
f 806 155 153
f 183 181 811
f 181 179 811
f 811 179 812
f 179 177 812
f 812 177 175
f 203 201 813
f 201 199 813
f 149 147 810
f 147 145 810
f 810 145 814
f 145 143 814
f 814 143 813
f 143 205 813
f 813 205 203
f 815 816 272
f 816 817 272
f 272 817 818
f 191 189 819
f 189 187 819
f 819 187 811
f 187 185 811
f 811 185 183
f 199 197 813
f 197 195 813
f 813 195 819
f 195 193 819
f 819 193 191
f 801 800 163
f 800 799 163
f 163 799 798
f 162 743 742
f 820 821 170
f 821 822 170
f 170 822 171
f 822 812 171
f 171 812 173
f 812 175 173
f 797 796 163
f 796 795 163
f 163 795 794
f 769 272 770
f 272 113 770
f 770 113 771
f 742 741 162
f 741 740 162
f 162 740 739
f 823 824 170
f 824 825 170
f 170 825 826
f 826 827 170
f 827 828 170
f 170 828 820
f 778 777 113
f 818 829 272
f 829 830 272
f 272 830 270
f 830 831 270
f 270 831 268
f 831 832 268
f 256 258 833
f 258 260 833
f 833 260 834
f 777 776 113
f 776 775 113
f 113 775 774
f 774 773 113
f 773 772 113
f 113 772 771
f 809 835 162
f 835 836 162
f 162 836 837
f 761 272 762
f 272 763 762
f 838 839 272
f 839 840 272
f 272 840 815
f 260 262 834
f 262 264 834
f 834 264 832
f 264 266 832
f 832 266 268
f 841 842 235
f 781 780 113
f 780 779 113
f 113 779 778
f 769 768 272
f 768 767 272
f 272 767 766
f 745 744 843
f 744 743 843
f 843 743 844
f 256 833 254
f 833 845 254
f 254 845 252
f 794 793 163
f 793 792 163
f 163 792 78
f 792 791 78
f 78 791 790
f 766 765 272
f 765 764 272
f 272 764 763
f 837 846 162
f 846 847 162
f 162 847 743
f 847 848 743
f 743 848 844
f 252 845 250
f 845 849 250
f 250 849 248
f 248 849 246
f 849 850 246
f 246 850 244
f 851 852 235
f 852 853 235
f 235 853 841
f 842 854 235
f 854 855 235
f 235 855 856
f 856 857 235
f 857 858 235
f 235 858 170
f 858 859 170
f 170 859 823
f 790 789 78
f 789 788 78
f 78 788 787
f 783 99 97
f 244 850 242
f 850 860 242
f 242 860 240
f 782 103 783
f 103 101 783
f 783 101 99
f 781 113 782
f 113 111 782
f 782 111 109
f 109 107 782
f 107 105 782
f 782 105 103
f 749 748 843
f 861 761 862
f 761 760 862
f 862 760 759
f 851 235 860
f 235 238 860
f 860 238 240
f 89 87 784
f 87 85 784
f 784 85 83
f 97 95 783
f 95 93 783
f 783 93 784
f 93 91 784
f 784 91 89
f 863 864 750
f 759 758 862
f 758 757 862
f 862 757 865
f 757 866 865
f 861 867 761
f 867 868 761
f 761 868 272
f 868 869 272
f 272 869 838
f 787 786 78
f 786 785 78
f 78 785 79
f 785 784 79
f 79 784 81
f 784 83 81
f 748 747 843
f 747 746 843
f 843 746 745
f 749 843 750
f 843 870 750
f 750 870 863
f 864 871 750
f 871 872 750
f 750 872 751
f 873 757 756
f 873 874 757
f 874 875 757
f 757 875 866
f 756 755 873
f 755 754 873
f 873 754 753
f 751 872 752
f 872 876 752
f 752 876 753
f 876 877 753
f 753 877 873
f 213 215 279
f 445 168 165
f 78 77 163
f 77 445 163
f 163 445 164
f 445 165 164
f 279 215 281
f 215 217 281
f 281 217 283
f 217 219 283
f 283 219 285
f 2 1 233
f 1 299 233
f 285 219 287
f 219 221 287
f 287 221 289
f 221 223 289
f 289 223 291
f 207 209 274
f 209 211 274
f 274 211 275
f 211 213 275
f 275 213 277
f 213 279 277
f 207 274 445
f 274 166 445
f 445 166 168
f 291 223 293
f 223 225 293
f 293 225 295
f 225 227 295
f 295 227 297
f 227 229 297
f 297 229 299
f 229 231 299
f 299 231 233
f 387 527 388
f 527 565 388
f 388 565 418
f 565 564 418
f 418 564 419
f 564 530 419
f 419 530 420
f 530 586 420
f 420 586 428
f 586 562 428
f 428 562 429
f 562 563 429
f 429 563 362
f 563 585 362
f 362 585 363
f 585 584 363
f 363 584 364
f 584 583 364
f 364 583 365
f 583 529 365
f 365 529 389
f 529 528 389
f 389 528 390
f 528 582 390
f 390 582 391
f 582 581 391
f 391 581 392
f 581 580 392
f 392 580 393
f 580 579 393
f 393 579 394
f 579 578 394
f 394 578 442
f 578 577 442
f 442 577 443
f 577 576 443
f 443 576 444
f 576 589 444
f 444 589 421
f 589 588 421
f 421 588 422
f 588 587 422
f 422 587 423
f 587 561 423
f 423 561 347
f 561 560 347
f 347 560 348
f 560 559 348
f 348 559 349
f 559 551 349
f 349 551 350
f 551 550 350
f 350 550 366
f 550 549 366
f 366 549 367
f 549 546 367
f 367 546 368
f 546 547 368
f 368 547 395
f 547 548 395
f 395 548 396
f 548 575 396
f 396 575 397
f 575 574 397
f 397 574 424
f 574 573 424
f 424 573 425
f 573 572 425
f 425 572 319
f 572 571 319
f 319 571 320
f 571 570 320
f 320 570 321
f 570 525 321
f 321 525 398
f 525 526 398
f 398 526 351
f 526 524 351
f 351 524 352
f 524 523 352
f 352 523 353
f 523 558 353
f 353 558 354
f 558 557 354
f 354 557 355
f 557 545 355
f 355 545 399
f 545 544 399
f 399 544 400
f 544 543 400
f 400 543 328
f 543 542 328
f 328 542 329
f 542 541 329
f 329 541 356
f 541 540 356
f 356 540 357
f 540 522 357
f 357 522 308
f 522 521 308
f 308 521 309
f 521 520 309
f 309 520 430
f 520 519 430
f 430 519 431
f 519 569 431
f 431 569 433
f 569 568 433
f 433 568 434
f 568 567 434
f 434 567 403
f 567 566 403
f 403 566 402
f 566 556 402
f 402 556 401
f 556 555 401
f 401 555 404
f 555 554 404
f 404 554 405
f 554 539 405
f 405 539 370
f 539 538 370
f 370 538 371
f 538 537 371
f 371 537 406
f 537 536 406
f 406 536 407
f 536 553 407
f 407 553 372
f 553 552 372
f 372 552 373
f 552 535 373
f 373 535 374
f 535 534 374
f 374 534 375
f 534 533 375
f 375 533 376
f 533 532 376
f 376 532 377
f 532 531 377
f 377 531 378
f 531 518 378
f 378 518 387
f 518 527 387
f 142 206 143
f 206 205 143
f 169 236 170
f 236 235 170
f 271 114 272
f 114 113 272
f 656 810 659
f 810 814 659
f 659 814 660
f 814 813 660
f 660 813 701
f 813 819 701
f 701 819 702
f 819 811 702
f 702 811 721
f 811 812 721
f 721 812 682
f 812 822 682
f 682 822 683
f 822 821 683
f 683 821 684
f 821 820 684
f 684 820 685
f 820 828 685
f 685 828 703
f 828 827 703
f 703 827 704
f 827 826 704
f 704 826 648
f 826 825 648
f 648 825 649
f 825 824 649
f 649 824 726
f 824 823 726
f 726 823 727
f 823 859 727
f 727 859 728
f 859 858 728
f 728 858 705
f 858 857 705
f 705 857 706
f 857 856 706
f 706 856 707
f 856 855 707
f 707 855 708
f 855 854 708
f 708 854 709
f 854 842 709
f 709 842 710
f 842 841 710
f 710 841 711
f 841 853 711
f 711 853 712
f 853 852 712
f 712 852 713
f 852 851 713
f 713 851 714
f 851 860 714
f 714 860 661
f 860 850 661
f 661 850 650
f 850 849 650
f 650 849 662
f 849 845 662
f 662 845 663
f 845 833 663
f 663 833 686
f 833 834 686
f 686 834 687
f 834 832 687
f 687 832 602
f 832 831 602
f 602 831 603
f 831 830 603
f 603 830 604
f 830 829 604
f 604 829 591
f 829 818 591
f 591 818 592
f 818 817 592
f 592 817 692
f 817 816 692
f 692 816 690
f 816 815 690
f 690 815 601
f 815 840 601
f 601 840 675
f 840 839 675
f 675 839 651
f 839 838 651
f 651 838 652
f 838 869 652
f 652 869 654
f 869 868 654
f 654 868 655
f 868 867 655
f 655 867 715
f 867 861 715
f 715 861 716
f 861 862 716
f 716 862 717
f 862 865 717
f 717 865 729
f 865 866 729
f 729 866 730
f 866 875 730
f 730 875 722
f 875 874 722
f 722 874 723
f 874 873 723
f 723 873 724
f 873 877 724
f 724 877 725
f 877 876 725
f 725 876 731
f 876 872 731
f 731 872 732
f 872 871 732
f 732 871 733
f 871 864 733
f 733 864 676
f 864 863 676
f 676 863 677
f 863 870 677
f 677 870 678
f 870 843 678
f 678 843 718
f 843 844 718
f 718 844 719
f 844 848 719
f 719 848 720
f 848 847 720
f 720 847 679
f 847 846 679
f 679 846 680
f 846 837 680
f 680 837 681
f 837 836 681
f 681 836 634
f 836 835 634
f 634 835 635
f 835 809 635
f 635 809 658
f 809 808 658
f 658 808 647
f 808 807 647
f 647 807 657
f 807 806 657
f 657 806 656
f 806 810 656

