# https://github.com/mikedh/trimesh

o part_1.stl
v -0.01206299 0.00000000 -0.00811679
v -0.01008225 0.00000000 -0.00600000
v -0.01203633 0.00000000 -0.01103367
v -0.01004343 0.00000000 -0.01024797
v -0.01203633 0.00000000 -0.01354486
v -0.01004343 0.00000000 -0.01361171
v -0.01017061 0.00000000 -0.01670925
v -0.00821712 0.00000000 -0.01670925
v -0.01499717 0.00000000 -0.00344146
v -0.01467852 0.00000000 -0.00385673
v -0.01432490 0.00000000 -0.00424264
v -0.01393898 0.00000000 -0.00459627
v -0.01352371 0.00000000 -0.00491491
v -0.01308225 0.00000000 -0.00519615
v -0.01261796 0.00000000 -0.00543785
v -0.01213438 0.00000000 -0.00563816
v -0.01163517 0.00000000 -0.00579556
v -0.01112414 0.00000000 -0.00590885
v -0.01060519 0.00000000 -0.00597717
v -0.00974412 0.00000000 0.01401053
v -0.01196673 0.00000000 0.01536329
v -0.01192785 0.00000000 0.01553234
v 0.01017061 0.00000000 -0.01670925
v 0.00821712 0.00000000 -0.01670925
v 0.01203633 0.00000000 -0.01354486
v 0.01004343 0.00000000 -0.01361171
v 0.01203633 0.00000000 -0.01103367
v 0.01004343 0.00000000 -0.01024797
v 0.01206299 0.00000000 -0.00811679
v 0.01008225 0.00000000 -0.00600000
v 0.01060519 0.00000000 -0.00597717
v 0.00836349 0.00000000 0.01496997
v 0.01000000 0.00000000 0.01700000
v 0.00853289 0.00000000 0.01493264
v 0.00869842 0.00000000 0.01488077
v -0.00853289 0.00000000 0.01493264
v -0.01000000 0.00000000 0.01700000
v -0.00836349 0.00000000 0.01496997
v -0.00819150 0.00000000 0.01499248
v -0.01172593 0.00000000 0.01601053
v -0.01163187 0.00000000 0.01615628
v -0.00954374 0.00000000 0.01429334
v -0.01152554 0.00000000 0.01629334
v -0.00942593 0.00000000 0.01442066
v -0.00965007 0.00000000 0.01415628
v -0.01187448 0.00000000 0.01569738
v -0.01180700 0.00000000 0.01585718
v 0.01199992 0.00000000 0.01501828
v 0.01206299 0.00000000 0.00811679
v 0.01001811 0.00000000 0.01301828
v -0.01114132 0.00000000 0.01664237
v -0.00929754 0.00000000 0.01453730
v -0.01127934 0.00000000 0.01653730
v -0.01140774 0.00000000 0.01642066
v -0.01199081 0.00000000 0.01519150
v -0.00982519 0.00000000 0.01385718
v -0.01199992 0.00000000 0.01501828
v -0.00989267 0.00000000 0.01369738
v -0.00994605 0.00000000 0.01353234
v -0.00998492 0.00000000 0.01336328
v 0.01112414 0.00000000 0.00590885
v 0.01060519 0.00000000 0.00597717
v 0.01008225 0.00000000 0.00600000
v 0.01000901 0.00000000 0.01319150
v 0.00998492 0.00000000 0.01336328
v 0.00994605 0.00000000 0.01353234
v 0.00885883 0.00000000 0.01481476
v 0.01017330 0.00000000 0.01699248
v 0.00901291 0.00000000 0.01473509
v -0.00869842 0.00000000 0.01488077
v -0.00885883 0.00000000 0.01481476
v -0.01017330 0.00000000 0.01699248
v -0.00901291 0.00000000 0.01473509
v -0.00915952 0.00000000 0.01464237
v -0.01051470 0.00000000 0.01693264
v -0.01034530 0.00000000 0.01696997
v -0.01000901 0.00000000 0.01319150
v -0.01001811 0.00000000 0.01301828
v -0.01206299 0.00000000 0.00811679
v -0.01008225 0.00000000 0.00600000
v -0.01060519 0.00000000 0.00597717
v -0.01619220 0.00000000 -0.00533774
v -0.01662194 0.00000000 -0.00475825
v -0.01527841 0.00000000 -0.00300000
v -0.01700088 0.00000000 -0.00414435
v -0.01552010 0.00000000 -0.00253571
v -0.01732628 0.00000000 -0.00350046
v -0.01572041 0.00000000 -0.00205212
v -0.01759579 0.00000000 -0.00283124
v -0.01587781 0.00000000 -0.00155291
v -0.01780746 0.00000000 -0.00214155
v -0.01599110 0.00000000 -0.00104189
v -0.01795975 0.00000000 -0.00143637
v -0.01605942 0.00000000 -0.00052293
v -0.01805157 0.00000000 -0.00072079
v -0.01608225 0.00000000 -0.00000000
v -0.01808225 0.00000000 -0.00000000
v -0.01605942 0.00000000 0.00052293
v -0.01805157 0.00000000 0.00072079
v -0.01599110 0.00000000 0.00104189
v -0.01795975 0.00000000 0.00143637
v -0.01587781 0.00000000 0.00155291
v -0.01780746 0.00000000 0.00214155
v -0.01572041 0.00000000 0.00205212
v -0.01759579 0.00000000 0.00283124
v -0.01552010 0.00000000 0.00253571
v -0.01732628 0.00000000 0.00350046
v -0.01527841 0.00000000 0.00300000
v -0.01700088 0.00000000 0.00414435
v -0.01499717 0.00000000 0.00344146
v -0.01662194 0.00000000 0.00475825
v -0.01467852 0.00000000 0.00385673
v -0.01619220 0.00000000 0.00533774
v -0.01432490 0.00000000 0.00424264
v -0.01571478 0.00000000 0.00587862
v -0.01393898 0.00000000 0.00459627
v -0.01519312 0.00000000 0.00637696
v -0.01352371 0.00000000 0.00491491
v -0.01463100 0.00000000 0.00682918
v -0.01308225 0.00000000 0.00519615
v -0.01403248 0.00000000 0.00723199
v -0.01261796 0.00000000 0.00543785
v -0.01340190 0.00000000 0.00758249
v -0.01213438 0.00000000 0.00563816
v -0.01274382 0.00000000 0.00787814
v -0.01163517 0.00000000 0.00579556
v -0.01112414 0.00000000 0.00590885
v -0.01340190 0.00000000 -0.00758249
v -0.01403248 0.00000000 -0.00723199
v -0.01463100 0.00000000 -0.00682918
v 0.01034530 0.00000000 0.01696997
v 0.01051470 0.00000000 0.01693264
v 0.00915952 0.00000000 0.01464237
v 0.00819150 0.00000000 0.01499248
v 0.00801819 0.00000000 0.01500000
v -0.00801819 0.00000000 0.01500000
v -0.01099472 0.00000000 0.01673509
v -0.01084063 0.00000000 0.01681476
v -0.01068022 0.00000000 0.01688077
v -0.01274382 0.00000000 -0.00787814
v 0.01163187 0.00000000 0.01615628
v 0.00954374 0.00000000 0.01429334
v 0.01152554 0.00000000 0.01629334
v 0.00942593 0.00000000 0.01442066
v 0.01140774 0.00000000 0.01642066
v 0.01127934 0.00000000 0.01653730
v 0.00929754 0.00000000 0.01453730
v 0.01114132 0.00000000 0.01664237
v 0.01112414 0.00000000 -0.00590885
v 0.01163517 0.00000000 -0.00579556
v 0.01274382 0.00000000 -0.00787814
v 0.01213438 0.00000000 -0.00563816
v 0.01340190 0.00000000 -0.00758249
v 0.01261796 0.00000000 -0.00543785
v 0.01403248 0.00000000 -0.00723199
v 0.01308225 0.00000000 -0.00519615
v 0.01463100 0.00000000 -0.00682918
v 0.01352371 0.00000000 -0.00491491
v 0.01519312 0.00000000 -0.00637696
v 0.01393898 0.00000000 -0.00459627
v 0.01571478 0.00000000 -0.00587862
v 0.01432490 0.00000000 -0.00424264
v 0.01619220 0.00000000 -0.00533774
v 0.01467852 0.00000000 -0.00385673
v 0.01662194 0.00000000 -0.00475825
v 0.01499717 0.00000000 -0.00344146
v 0.01700088 0.00000000 -0.00414435
v 0.01527841 0.00000000 -0.00300000
v 0.01732628 0.00000000 -0.00350046
v 0.01552010 0.00000000 -0.00253571
v 0.01759579 0.00000000 -0.00283124
v 0.01572041 0.00000000 -0.00205212
v 0.01780746 0.00000000 -0.00214155
v 0.01587781 0.00000000 -0.00155291
v 0.01795975 0.00000000 -0.00143637
v 0.01599110 0.00000000 -0.00104189
v 0.01805157 0.00000000 -0.00072079
v 0.01605942 0.00000000 -0.00052293
v 0.01808225 0.00000000 -0.00000000
v 0.01608225 0.00000000 0.00000000
v 0.01805157 0.00000000 0.00072079
v 0.01605942 0.00000000 0.00052293
v 0.01795975 0.00000000 0.00143637
v 0.01599110 0.00000000 0.00104189
v 0.01780746 0.00000000 0.00214155
v 0.01587781 0.00000000 0.00155291
v 0.01759579 0.00000000 0.00283124
v 0.01572041 0.00000000 0.00205212
v 0.01732628 0.00000000 0.00350046
v 0.01552010 0.00000000 0.00253571
v 0.01700088 0.00000000 0.00414435
v 0.01527841 0.00000000 0.00300000
v 0.01662194 0.00000000 0.00475825
v 0.01499717 0.00000000 0.00344146
v 0.01619220 0.00000000 0.00533774
v 0.01467852 0.00000000 0.00385673
v 0.01571478 0.00000000 0.00587862
v 0.01432490 0.00000000 0.00424264
v 0.01519312 0.00000000 0.00637696
v 0.01393898 0.00000000 0.00459627
v 0.01463100 0.00000000 0.00682918
v 0.01352371 0.00000000 0.00491491
v 0.01403248 0.00000000 0.00723199
v 0.01308225 0.00000000 0.00519615
v 0.01340190 0.00000000 0.00758249
v 0.01261796 0.00000000 0.00543785
v 0.01274382 0.00000000 0.00787814
v 0.01213438 0.00000000 0.00563816
v 0.01163517 0.00000000 0.00579556
v -0.01519312 0.00000000 -0.00637696
v -0.01571478 0.00000000 -0.00587862
v 0.01068022 0.00000000 0.01688077
v 0.01084063 0.00000000 0.01681476
v 0.01099472 0.00000000 0.01673509
v 0.00989267 0.00000000 0.01369738
v 0.00982519 0.00000000 0.01385718
v 0.01199081 0.00000000 0.01519150
v 0.00974412 0.00000000 0.01401053
v 0.00965007 0.00000000 0.01415628
v 0.01192785 0.00000000 0.01553234
v 0.01196673 0.00000000 0.01536329
v 0.01172593 0.00000000 0.01601053
v 0.01180700 0.00000000 0.01585718
v 0.01187448 0.00000000 0.01569738
v 0.00998492 -0.02000000 0.01336328
v 0.01000901 -0.02000000 0.01319150
v 0.01206299 -0.02000000 0.00811679
v 0.00821712 -0.02000000 -0.01670925
v 0.01017061 -0.02000000 -0.01670925
v 0.01004343 -0.02000000 -0.01361171
v 0.01203633 -0.02000000 -0.01354486
v 0.01004343 -0.02000000 -0.01024797
v 0.01203633 -0.02000000 -0.01103367
v 0.01008225 -0.02000000 -0.00600000
v 0.01206299 -0.02000000 -0.00811679
v 0.01060519 -0.02000000 -0.00597717
v 0.01112414 -0.02000000 -0.00590885
v 0.00819150 -0.02000000 0.01499248
v 0.00836349 -0.02000000 0.01496997
v 0.01000000 -0.02000000 0.01700000
v 0.00853289 -0.02000000 0.01493264
v -0.01017061 -0.02000000 -0.01670925
v -0.00821712 -0.02000000 -0.01670925
v -0.01203633 -0.02000000 -0.01354486
v -0.01004343 -0.02000000 -0.01361171
v -0.01203633 -0.02000000 -0.01103367
v -0.01004343 -0.02000000 -0.01024797
v -0.01206299 -0.02000000 -0.00811679
v -0.01008225 -0.02000000 -0.00600000
v -0.01060519 -0.02000000 -0.00597717
v 0.01001811 -0.02000000 0.01301828
v 0.01008225 -0.02000000 0.00600000
v 0.01060519 -0.02000000 0.00597717
v -0.00965007 -0.02000000 0.01415628
v -0.01187448 -0.02000000 0.01569738
v -0.01192785 -0.02000000 0.01553234
v -0.01000000 -0.02000000 0.01700000
v -0.00853289 -0.02000000 0.01493264
v -0.00836349 -0.02000000 0.01496997
v -0.01112414 -0.02000000 0.00590885
v -0.01060519 -0.02000000 0.00597717
v -0.01206299 -0.02000000 0.00811679
v -0.01008225 -0.02000000 0.00600000
v -0.01199992 -0.02000000 0.01501828
v -0.01001811 -0.02000000 0.01301828
v -0.01000901 -0.02000000 0.01319150
v -0.00998492 -0.02000000 0.01336328
v -0.00994605 -0.02000000 0.01353234
v -0.00974412 -0.02000000 0.01401053
v -0.01034530 -0.02000000 0.01696997
v -0.01051470 -0.02000000 0.01693264
v -0.00901291 -0.02000000 0.01473509
v -0.00915952 -0.02000000 0.01464237
v -0.01017330 -0.02000000 0.01699248
v -0.00885883 -0.02000000 0.01481476
v -0.00869842 -0.02000000 0.01488077
v 0.00869842 -0.02000000 0.01488077
v 0.00885883 -0.02000000 0.01481476
v 0.01017330 -0.02000000 0.01699248
v 0.00901291 -0.02000000 0.01473509
v -0.01180700 -0.02000000 0.01585718
v -0.00954374 -0.02000000 0.01429334
v -0.01172593 -0.02000000 0.01601053
v -0.01114132 -0.02000000 0.01664237
v -0.01127934 -0.02000000 0.01653730
v -0.00929754 -0.02000000 0.01453730
v -0.00942593 -0.02000000 0.01442066
v -0.01068022 -0.02000000 0.01688077
v -0.01084063 -0.02000000 0.01681476
v -0.01099472 -0.02000000 0.01673509
v -0.00819150 -0.02000000 0.01499248
v -0.00801819 -0.02000000 0.01500000
v 0.00801819 -0.02000000 0.01500000
v 0.01172593 -0.02000000 0.01601053
v 0.01163187 -0.02000000 0.01615628
v 0.00954374 -0.02000000 0.01429334
v 0.01152554 -0.02000000 0.01629334
v 0.00942593 -0.02000000 0.01442066
v -0.01140774 -0.02000000 0.01642066
v -0.01152554 -0.02000000 0.01629334
v -0.01163187 -0.02000000 0.01615628
v 0.00915952 -0.02000000 0.01464237
v 0.01051470 -0.02000000 0.01693264
v 0.01034530 -0.02000000 0.01696997
v 0.01112414 -0.02000000 0.00590885
v 0.01163517 -0.02000000 0.00579556
v 0.01274382 -0.02000000 0.00787814
v 0.01213438 -0.02000000 0.00563816
v 0.01340190 -0.02000000 0.00758249
v 0.01261796 -0.02000000 0.00543785
v 0.01403248 -0.02000000 0.00723199
v 0.01308225 -0.02000000 0.00519615
v 0.01463100 -0.02000000 0.00682918
v 0.01352371 -0.02000000 0.00491491
v 0.01519312 -0.02000000 0.00637696
v 0.01393898 -0.02000000 0.00459627
v 0.01571478 -0.02000000 0.00587862
v 0.01432490 -0.02000000 0.00424264
v 0.01619220 -0.02000000 0.00533774
v 0.01467852 -0.02000000 0.00385673
v 0.01662194 -0.02000000 0.00475825
v 0.01499717 -0.02000000 0.00344146
v 0.01700088 -0.02000000 0.00414435
v 0.01527841 -0.02000000 0.00300000
v 0.01732628 -0.02000000 0.00350046
v 0.01552010 -0.02000000 0.00253571
v 0.01759579 -0.02000000 0.00283124
v 0.01572041 -0.02000000 0.00205212
v 0.01780746 -0.02000000 0.00214155
v 0.01587781 -0.02000000 0.00155291
v 0.01795975 -0.02000000 0.00143637
v 0.01599110 -0.02000000 0.00104189
v 0.01805157 -0.02000000 0.00072079
v 0.01605942 -0.02000000 0.00052293
v 0.01808225 -0.02000000 -0.00000000
v 0.01608225 -0.02000000 0.00000000
v 0.01805157 -0.02000000 -0.00072079
v 0.01605942 -0.02000000 -0.00052293
v 0.01795975 -0.02000000 -0.00143637
v 0.01599110 -0.02000000 -0.00104189
v 0.01780746 -0.02000000 -0.00214155
v 0.01587781 -0.02000000 -0.00155291
v 0.01759579 -0.02000000 -0.00283124
v 0.01572041 -0.02000000 -0.00205212
v 0.01732628 -0.02000000 -0.00350046
v 0.01552010 -0.02000000 -0.00253571
v 0.01700088 -0.02000000 -0.00414435
v 0.01527841 -0.02000000 -0.00300000
v 0.01662194 -0.02000000 -0.00475825
v 0.01499717 -0.02000000 -0.00344146
v 0.01619220 -0.02000000 -0.00533774
v 0.01467852 -0.02000000 -0.00385673
v 0.01571478 -0.02000000 -0.00587862
v 0.01432490 -0.02000000 -0.00424264
v 0.01519312 -0.02000000 -0.00637696
v 0.01393898 -0.02000000 -0.00459627
v 0.01463100 -0.02000000 -0.00682918
v 0.01352371 -0.02000000 -0.00491491
v 0.01403248 -0.02000000 -0.00723199
v 0.01308225 -0.02000000 -0.00519615
v 0.01340190 -0.02000000 -0.00758249
v 0.01261796 -0.02000000 -0.00543785
v 0.01274382 -0.02000000 -0.00787814
v 0.01213438 -0.02000000 -0.00563816
v 0.01163517 -0.02000000 -0.00579556
v -0.00989267 -0.02000000 0.01369738
v -0.00982519 -0.02000000 0.01385718
v -0.01199081 -0.02000000 0.01519150
v -0.01196673 -0.02000000 0.01536329
v 0.01114132 -0.02000000 0.01664237
v 0.00929754 -0.02000000 0.01453730
v 0.01127934 -0.02000000 0.01653730
v 0.01140774 -0.02000000 0.01642066
v 0.01180700 -0.02000000 0.01585718
v 0.00965007 -0.02000000 0.01415628
v 0.01187448 -0.02000000 0.01569738
v 0.01192785 -0.02000000 0.01553234
v 0.00974412 -0.02000000 0.01401053
v 0.01196673 -0.02000000 0.01536329
v 0.01199081 -0.02000000 0.01519150
v 0.00982519 -0.02000000 0.01385718
v 0.01199992 -0.02000000 0.01501828
v 0.00989267 -0.02000000 0.01369738
v 0.00994605 -0.02000000 0.01353234
v 0.01099472 -0.02000000 0.01673509
v 0.01084063 -0.02000000 0.01681476
v 0.01068022 -0.02000000 0.01688077
v -0.01112414 -0.02000000 -0.00590885
v -0.01163517 -0.02000000 -0.00579556
v -0.01274382 -0.02000000 -0.00787814
v -0.01213438 -0.02000000 -0.00563816
v -0.01340190 -0.02000000 -0.00758249
v -0.01261796 -0.02000000 -0.00543785
v -0.01403248 -0.02000000 -0.00723199
v -0.01308225 -0.02000000 -0.00519615
v -0.01463100 -0.02000000 -0.00682918
v -0.01352371 -0.02000000 -0.00491491
v -0.01519312 -0.02000000 -0.00637696
v -0.01393898 -0.02000000 -0.00459627
v -0.01571478 -0.02000000 -0.00587862
v -0.01432490 -0.02000000 -0.00424264
v -0.01619220 -0.02000000 -0.00533774
v -0.01467852 -0.02000000 -0.00385673
v -0.01662194 -0.02000000 -0.00475825
v -0.01499717 -0.02000000 -0.00344146
v -0.01700088 -0.02000000 -0.00414435
v -0.01527841 -0.02000000 -0.00300000
v -0.01732628 -0.02000000 -0.00350046
v -0.01552010 -0.02000000 -0.00253571
v -0.01759579 -0.02000000 -0.00283124
v -0.01572041 -0.02000000 -0.00205212
v -0.01780746 -0.02000000 -0.00214155
v -0.01587781 -0.02000000 -0.00155291
v -0.01795975 -0.02000000 -0.00143637
v -0.01599110 -0.02000000 -0.00104189
v -0.01805157 -0.02000000 -0.00072079
v -0.01605942 -0.02000000 -0.00052293
v -0.01808225 -0.02000000 -0.00000000
v -0.01608225 -0.02000000 -0.00000000
v -0.01805157 -0.02000000 0.00072079
v -0.01605942 -0.02000000 0.00052293
v -0.01795975 -0.02000000 0.00143637
v -0.01599110 -0.02000000 0.00104189
v -0.01780746 -0.02000000 0.00214155
v -0.01587781 -0.02000000 0.00155291
v -0.01759579 -0.02000000 0.00283124
v -0.01572041 -0.02000000 0.00205212
v -0.01732628 -0.02000000 0.00350046
v -0.01552010 -0.02000000 0.00253571
v -0.01700088 -0.02000000 0.00414435
v -0.01527841 -0.02000000 0.00300000
v -0.01662194 -0.02000000 0.00475825
v -0.01499717 -0.02000000 0.00344146
v -0.01619220 -0.02000000 0.00533774
v -0.01467852 -0.02000000 0.00385673
v -0.01571478 -0.02000000 0.00587862
v -0.01432490 -0.02000000 0.00424264
v -0.01519312 -0.02000000 0.00637696
v -0.01393898 -0.02000000 0.00459627
v -0.01463100 -0.02000000 0.00682918
v -0.01352371 -0.02000000 0.00491491
v -0.01403248 -0.02000000 0.00723199
v -0.01308225 -0.02000000 0.00519615
v -0.01340190 -0.02000000 0.00758249
v -0.01261796 -0.02000000 0.00543785
v -0.01274382 -0.02000000 0.00787814
v -0.01213438 -0.02000000 0.00563816
v -0.01163517 -0.02000000 0.00579556
f 1 2 3
f 2 4 3
f 3 4 5
f 4 6 5
f 5 6 7
f 6 8 7
f 9 10 1
f 10 11 1
f 11 12 1
f 12 13 1
f 1 13 14
f 14 15 1
f 15 16 1
f 1 16 17
f 17 18 1
f 18 19 1
f 1 19 2
f 20 21 22
f 23 24 25
f 24 26 25
f 25 26 27
f 26 28 27
f 27 28 29
f 28 30 29
f 29 30 31
f 32 33 34
f 33 35 34
f 36 37 38
f 37 39 38
f 40 41 42
f 41 43 42
f 42 43 44
f 20 22 45
f 22 46 45
f 45 46 42
f 46 47 42
f 42 47 40
f 48 49 50
f 51 52 53
f 52 44 53
f 53 44 54
f 44 43 54
f 21 20 55
f 20 56 55
f 55 56 57
f 56 58 57
f 58 59 57
f 57 59 60
f 61 62 49
f 62 63 49
f 49 63 50
f 50 64 48
f 64 65 48
f 48 65 66
f 35 33 67
f 33 68 67
f 67 68 69
f 36 70 37
f 70 71 37
f 37 71 72
f 71 73 72
f 74 75 73
f 75 76 73
f 73 76 72
f 60 77 57
f 77 78 57
f 57 78 79
f 78 80 79
f 79 80 81
f 82 83 84
f 83 85 84
f 84 85 86
f 85 87 86
f 86 87 88
f 87 89 88
f 88 89 90
f 89 91 90
f 90 91 92
f 91 93 92
f 92 93 94
f 93 95 94
f 94 95 96
f 95 97 96
f 96 97 98
f 97 99 98
f 98 99 100
f 99 101 100
f 100 101 102
f 101 103 102
f 102 103 104
f 103 105 104
f 104 105 106
f 105 107 106
f 106 107 108
f 107 109 108
f 108 109 110
f 109 111 110
f 110 111 112
f 111 113 112
f 112 113 114
f 113 115 114
f 114 115 116
f 115 117 116
f 116 117 118
f 117 119 118
f 118 119 120
f 119 121 120
f 120 121 122
f 121 123 122
f 122 123 124
f 123 125 124
f 124 125 126
f 125 79 126
f 126 79 127
f 79 81 127
f 128 129 84
f 129 130 84
f 68 131 69
f 131 132 69
f 69 132 133
f 32 134 33
f 134 135 33
f 33 135 37
f 135 136 37
f 37 136 39
f 51 137 52
f 137 138 52
f 52 138 74
f 138 139 74
f 74 139 75
f 9 1 84
f 1 140 84
f 84 140 128
f 141 142 143
f 142 144 143
f 143 144 145
f 145 144 146
f 144 147 146
f 146 147 148
f 31 149 29
f 149 150 29
f 29 150 151
f 150 152 151
f 151 152 153
f 152 154 153
f 153 154 155
f 154 156 155
f 155 156 157
f 156 158 157
f 157 158 159
f 158 160 159
f 159 160 161
f 160 162 161
f 161 162 163
f 162 164 163
f 163 164 165
f 164 166 165
f 165 166 167
f 166 168 167
f 167 168 169
f 168 170 169
f 169 170 171
f 170 172 171
f 171 172 173
f 172 174 173
f 173 174 175
f 174 176 175
f 175 176 177
f 176 178 177
f 177 178 179
f 178 180 179
f 179 180 181
f 180 182 181
f 181 182 183
f 182 184 183
f 183 184 185
f 184 186 185
f 185 186 187
f 186 188 187
f 187 188 189
f 188 190 189
f 189 190 191
f 190 192 191
f 191 192 193
f 192 194 193
f 193 194 195
f 194 196 195
f 195 196 197
f 196 198 197
f 197 198 199
f 198 200 199
f 199 200 201
f 200 202 201
f 201 202 203
f 202 204 203
f 203 204 205
f 204 206 205
f 205 206 207
f 206 208 207
f 207 208 49
f 208 209 49
f 49 209 61
f 130 210 84
f 210 211 84
f 84 211 82
f 132 212 133
f 212 213 133
f 133 213 147
f 213 214 147
f 147 214 148
f 66 215 48
f 215 216 48
f 48 216 217
f 216 218 217
f 219 220 218
f 220 221 218
f 218 221 217
f 141 222 142
f 222 223 142
f 142 223 219
f 223 224 219
f 219 224 220
f 225 226 227
f 228 229 230
f 229 231 230
f 230 231 232
f 231 233 232
f 232 233 234
f 233 235 234
f 234 235 236
f 235 237 236
f 238 239 240
f 239 241 240
f 242 243 244
f 243 245 244
f 244 245 246
f 245 247 246
f 246 247 248
f 247 249 248
f 248 249 250
f 226 251 227
f 251 252 227
f 227 252 253
f 254 255 256
f 257 258 259
f 260 261 262
f 261 263 262
f 262 263 264
f 263 265 264
f 265 266 264
f 266 267 264
f 264 267 268
f 254 256 269
f 270 271 272
f 271 273 272
f 270 272 274
f 272 275 274
f 274 275 257
f 275 276 257
f 257 276 258
f 241 277 240
f 277 278 240
f 240 278 279
f 278 280 279
f 255 254 281
f 254 282 281
f 281 282 283
f 284 285 286
f 285 287 286
f 271 288 273
f 288 289 273
f 273 289 286
f 289 290 286
f 286 290 284
f 259 291 257
f 291 292 257
f 257 292 240
f 292 293 240
f 240 293 238
f 294 295 296
f 295 297 296
f 296 297 298
f 285 299 287
f 299 300 287
f 287 300 282
f 300 301 282
f 282 301 283
f 302 303 280
f 303 304 280
f 280 304 279
f 253 305 227
f 305 306 227
f 227 306 307
f 306 308 307
f 307 308 309
f 308 310 309
f 309 310 311
f 310 312 311
f 311 312 313
f 312 314 313
f 313 314 315
f 314 316 315
f 315 316 317
f 316 318 317
f 317 318 319
f 318 320 319
f 319 320 321
f 320 322 321
f 321 322 323
f 322 324 323
f 323 324 325
f 324 326 325
f 325 326 327
f 326 328 327
f 327 328 329
f 328 330 329
f 329 330 331
f 330 332 331
f 331 332 333
f 332 334 333
f 333 334 335
f 334 336 335
f 335 336 337
f 336 338 337
f 337 338 339
f 338 340 339
f 339 340 341
f 340 342 341
f 341 342 343
f 342 344 343
f 343 344 345
f 344 346 345
f 345 346 347
f 346 348 347
f 347 348 349
f 348 350 349
f 349 350 351
f 350 352 351
f 351 352 353
f 352 354 353
f 353 354 355
f 354 356 355
f 355 356 357
f 356 358 357
f 357 358 359
f 358 360 359
f 359 360 361
f 360 362 361
f 361 362 363
f 362 364 363
f 363 364 235
f 364 365 235
f 235 365 237
f 268 366 264
f 366 367 264
f 264 367 368
f 367 269 368
f 368 269 369
f 269 256 369
f 370 371 372
f 371 298 372
f 372 298 373
f 298 297 373
f 294 296 374
f 296 375 374
f 374 375 376
f 376 375 377
f 375 378 377
f 377 378 379
f 379 378 380
f 378 381 380
f 380 381 382
f 381 383 382
f 382 383 227
f 383 384 227
f 227 384 225
f 370 385 371
f 385 386 371
f 371 386 302
f 386 387 302
f 302 387 303
f 250 388 248
f 388 389 248
f 248 389 390
f 389 391 390
f 390 391 392
f 391 393 392
f 392 393 394
f 393 395 394
f 394 395 396
f 395 397 396
f 396 397 398
f 397 399 398
f 398 399 400
f 399 401 400
f 400 401 402
f 401 403 402
f 402 403 404
f 403 405 404
f 404 405 406
f 405 407 406
f 406 407 408
f 407 409 408
f 408 409 410
f 409 411 410
f 410 411 412
f 411 413 412
f 412 413 414
f 413 415 414
f 414 415 416
f 415 417 416
f 416 417 418
f 417 419 418
f 418 419 420
f 419 421 420
f 420 421 422
f 421 423 422
f 422 423 424
f 423 425 424
f 424 425 426
f 425 427 426
f 426 427 428
f 427 429 428
f 428 429 430
f 429 431 430
f 430 431 432
f 431 433 432
f 432 433 434
f 433 435 434
f 434 435 436
f 435 437 436
f 436 437 438
f 437 439 438
f 438 439 440
f 439 441 440
f 440 441 442
f 441 443 442
f 442 443 444
f 443 445 444
f 444 445 446
f 445 447 446
f 446 447 262
f 447 448 262
f 262 448 260
f 243 242 8
f 242 7 8
f 242 244 7
f 244 5 7
f 244 246 5
f 246 3 5
f 246 248 3
f 248 1 3
f 262 79 125
f 262 125 446
f 125 123 446
f 446 123 444
f 123 121 444
f 444 121 442
f 121 119 442
f 442 119 440
f 119 117 440
f 440 117 438
f 117 115 438
f 438 115 436
f 115 113 436
f 436 113 434
f 113 111 434
f 434 111 432
f 111 109 432
f 432 109 430
f 109 107 430
f 430 107 428
f 107 105 428
f 428 105 426
f 105 103 426
f 426 103 424
f 103 101 424
f 424 101 422
f 101 99 422
f 422 99 420
f 99 97 420
f 420 97 418
f 97 95 418
f 418 95 416
f 95 93 416
f 416 93 414
f 93 91 414
f 414 91 412
f 91 89 412
f 412 89 410
f 89 87 410
f 410 87 408
f 87 85 408
f 408 85 406
f 85 83 406
f 406 83 404
f 83 82 404
f 404 82 402
f 82 211 402
f 402 211 400
f 211 210 400
f 400 210 398
f 210 130 398
f 398 130 396
f 130 129 396
f 396 129 394
f 129 128 394
f 394 128 392
f 128 140 392
f 392 140 390
f 140 1 390
f 390 1 248
f 262 264 79
f 264 57 79
f 257 37 72
f 257 72 274
f 72 76 274
f 274 76 270
f 76 75 270
f 270 75 271
f 75 139 271
f 271 139 288
f 139 138 288
f 288 138 289
f 138 137 289
f 289 137 290
f 137 51 290
f 290 51 284
f 51 53 284
f 284 53 285
f 53 54 285
f 285 54 299
f 54 43 299
f 299 43 300
f 43 41 300
f 300 41 301
f 41 40 301
f 301 40 283
f 40 47 283
f 283 47 281
f 47 46 281
f 281 46 255
f 46 22 255
f 255 22 256
f 22 21 256
f 256 21 369
f 21 55 369
f 369 55 368
f 55 57 368
f 368 57 264
f 257 240 37
f 240 33 37
f 382 48 217
f 382 217 380
f 217 221 380
f 380 221 379
f 221 220 379
f 379 220 377
f 220 224 377
f 377 224 376
f 224 223 376
f 376 223 374
f 223 222 374
f 374 222 294
f 222 141 294
f 294 141 295
f 141 143 295
f 295 143 297
f 143 145 297
f 297 145 373
f 145 146 373
f 373 146 372
f 146 148 372
f 372 148 370
f 148 214 370
f 370 214 385
f 214 213 385
f 385 213 386
f 213 212 386
f 386 212 387
f 212 132 387
f 387 132 303
f 132 131 303
f 303 131 304
f 131 68 304
f 304 68 279
f 68 33 279
f 279 33 240
f 382 227 48
f 227 49 48
f 235 29 151
f 235 151 363
f 151 153 363
f 363 153 361
f 153 155 361
f 361 155 359
f 155 157 359
f 359 157 357
f 157 159 357
f 357 159 355
f 159 161 355
f 355 161 353
f 161 163 353
f 353 163 351
f 163 165 351
f 351 165 349
f 165 167 349
f 349 167 347
f 167 169 347
f 347 169 345
f 169 171 345
f 345 171 343
f 171 173 343
f 343 173 341
f 173 175 341
f 341 175 339
f 175 177 339
f 339 177 337
f 177 179 337
f 337 179 335
f 179 181 335
f 335 181 333
f 181 183 333
f 333 183 331
f 183 185 331
f 331 185 329
f 185 187 329
f 329 187 327
f 187 189 327
f 327 189 325
f 189 191 325
f 325 191 323
f 191 193 323
f 323 193 321
f 193 195 321
f 321 195 319
f 195 197 319
f 319 197 317
f 197 199 317
f 317 199 315
f 199 201 315
f 315 201 313
f 201 203 313
f 313 203 311
f 203 205 311
f 311 205 309
f 205 207 309
f 309 207 307
f 207 49 307
f 307 49 227
f 235 233 29
f 233 27 29
f 249 2 250
f 2 19 250
f 250 19 388
f 19 18 388
f 388 18 389
f 18 17 389
f 389 17 391
f 17 16 391
f 391 16 393
f 16 15 393
f 393 15 395
f 15 14 395
f 395 14 397
f 14 13 397
f 397 13 399
f 13 12 399
f 399 12 401
f 12 11 401
f 401 11 403
f 11 10 403
f 403 10 405
f 10 9 405
f 405 9 407
f 9 84 407
f 407 84 409
f 84 86 409
f 409 86 411
f 86 88 411
f 411 88 413
f 88 90 413
f 413 90 415
f 90 92 415
f 415 92 417
f 92 94 417
f 417 94 419
f 94 96 419
f 419 96 421
f 96 98 421
f 421 98 423
f 98 100 423
f 423 100 425
f 100 102 425
f 425 102 427
f 102 104 427
f 427 104 429
f 104 106 429
f 429 106 431
f 106 108 431
f 431 108 433
f 108 110 433
f 433 110 435
f 110 112 435
f 435 112 437
f 112 114 437
f 437 114 439
f 114 116 439
f 439 116 441
f 116 118 441
f 441 118 443
f 118 120 443
f 443 120 445
f 120 122 445
f 445 122 447
f 122 124 447
f 447 124 448
f 124 126 448
f 448 126 260
f 126 127 260
f 260 127 261
f 127 81 261
f 261 81 263
f 81 80 263
f 245 243 6
f 243 8 6
f 265 263 78
f 263 80 78
f 247 245 4
f 245 6 4
f 249 247 2
f 247 4 2
f 293 292 135
f 292 136 135
f 265 78 266
f 78 77 266
f 266 77 267
f 77 60 267
f 267 60 268
f 60 59 268
f 268 59 366
f 59 58 366
f 366 58 367
f 58 56 367
f 367 56 269
f 56 20 269
f 269 20 254
f 20 45 254
f 254 45 282
f 45 42 282
f 282 42 287
f 42 44 287
f 287 44 286
f 44 52 286
f 286 52 273
f 52 74 273
f 273 74 272
f 74 73 272
f 272 73 275
f 73 71 275
f 275 71 276
f 71 70 276
f 276 70 258
f 70 36 258
f 258 36 259
f 36 38 259
f 259 38 291
f 38 39 291
f 291 39 292
f 39 136 292
f 293 135 238
f 135 134 238
f 238 134 239
f 134 32 239
f 239 32 241
f 32 34 241
f 241 34 277
f 34 35 277
f 277 35 278
f 35 67 278
f 278 67 280
f 67 69 280
f 280 69 302
f 69 133 302
f 302 133 371
f 133 147 371
f 371 147 298
f 147 144 298
f 298 144 296
f 144 142 296
f 296 142 375
f 142 219 375
f 375 219 378
f 219 218 378
f 378 218 381
f 218 216 381
f 381 216 383
f 216 215 383
f 383 215 384
f 215 66 384
f 384 66 225
f 66 65 225
f 225 65 226
f 65 64 226
f 226 64 251
f 64 50 251
f 252 251 63
f 251 50 63
f 232 234 28
f 234 30 28
f 252 63 253
f 63 62 253
f 253 62 305
f 62 61 305
f 305 61 306
f 61 209 306
f 306 209 308
f 209 208 308
f 308 208 310
f 208 206 310
f 310 206 312
f 206 204 312
f 312 204 314
f 204 202 314
f 314 202 316
f 202 200 316
f 316 200 318
f 200 198 318
f 318 198 320
f 198 196 320
f 320 196 322
f 196 194 322
f 322 194 324
f 194 192 324
f 324 192 326
f 192 190 326
f 326 190 328
f 190 188 328
f 328 188 330
f 188 186 330
f 330 186 332
f 186 184 332
f 332 184 334
f 184 182 334
f 334 182 336
f 182 180 336
f 336 180 338
f 180 178 338
f 338 178 340
f 178 176 340
f 340 176 342
f 176 174 342
f 342 174 344
f 174 172 344
f 344 172 346
f 172 170 346
f 346 170 348
f 170 168 348
f 348 168 350
f 168 166 350
f 350 166 352
f 166 164 352
f 352 164 354
f 164 162 354
f 354 162 356
f 162 160 356
f 356 160 358
f 160 158 358
f 358 158 360
f 158 156 360
f 360 156 362
f 156 154 362
f 362 154 364
f 154 152 364
f 364 152 365
f 152 150 365
f 365 150 237
f 150 149 237
f 237 149 236
f 149 31 236
f 236 31 234
f 31 30 234
f 233 231 27
f 231 25 27
f 230 232 26
f 232 28 26
f 228 230 24
f 230 26 24
f 229 228 23
f 228 24 23
f 231 229 25
f 229 23 25

