# https://github.com/mikedh/trimesh

o tm25_221_p18_m_four_bar_insert_fixed.stl
v -0.00900000 -0.02054730 0.10426250
v -0.00900000 -0.03554730 0.10426250
v -0.00898097 -0.02054730 0.10382672
v -0.00898097 -0.03554730 0.10382672
v -0.00892404 -0.02054730 0.10339426
v -0.00892404 -0.03554730 0.10339426
v -0.00882963 -0.02054730 0.10296840
v -0.00882963 -0.03554730 0.10296840
v -0.00869846 -0.02054730 0.10255240
v -0.00869846 -0.03554730 0.10255240
v -0.00853154 -0.02054730 0.10214941
v -0.00853154 -0.03554730 0.10214941
v -0.00833013 -0.02054730 0.10176250
v -0.00833013 -0.03554730 0.10176250
v -0.00809576 -0.02054730 0.10139462
v -0.00809576 -0.03554730 0.10139462
v -0.00783022 -0.02054730 0.10104856
v -0.00783022 -0.03554730 0.10104856
v -0.00753553 -0.02054730 0.10072697
v -0.00753553 -0.03554730 0.10072697
v -0.00721394 -0.02054730 0.10043228
v -0.00721394 -0.03554730 0.10043228
v -0.00686788 -0.02054730 0.10016674
v -0.00686788 -0.03554730 0.10016674
v -0.00650000 -0.02054730 0.09993237
v -0.00650000 -0.03554730 0.09993237
v -0.00611309 -0.02054730 0.09973096
v -0.00611309 -0.03554730 0.09973096
v -0.00571010 -0.02054730 0.09956404
v -0.00571010 -0.03554730 0.09956404
v -0.00529410 -0.02054730 0.09943287
v -0.00529410 -0.03554730 0.09943287
v -0.00486824 -0.02054730 0.09933846
v -0.00486824 -0.03554730 0.09933846
v -0.00443578 -0.02054730 0.09928153
v -0.00443578 -0.03554730 0.09928153
v -0.00400000 -0.02054730 0.09926250
v -0.00400000 -0.03554730 0.09926250
v 0.00900000 -0.03554730 0.10426250
v 0.00900000 -0.02054730 0.10426250
v 0.00898097 -0.03554730 0.10382672
v 0.00898097 -0.02054730 0.10382672
v 0.00892404 -0.03554730 0.10339426
v 0.00892404 -0.02054730 0.10339426
v 0.00882963 -0.03554730 0.10296840
v 0.00882963 -0.02054730 0.10296840
v 0.00869846 -0.03554730 0.10255240
v 0.00869846 -0.02054730 0.10255240
v 0.00853154 -0.03554730 0.10214941
v 0.00853154 -0.02054730 0.10214941
v 0.00833013 -0.03554730 0.10176250
v 0.00833013 -0.02054730 0.10176250
v 0.00809576 -0.03554730 0.10139462
v 0.00809576 -0.02054730 0.10139462
v 0.00783022 -0.03554730 0.10104856
v 0.00783022 -0.02054730 0.10104856
v 0.00753553 -0.03554730 0.10072697
v 0.00753553 -0.02054730 0.10072697
v 0.00721394 -0.03554730 0.10043228
v 0.00721394 -0.02054730 0.10043228
v 0.00686788 -0.03554730 0.10016674
v 0.00686788 -0.02054730 0.10016674
v 0.00650000 -0.03554730 0.09993237
v 0.00650000 -0.02054730 0.09993237
v 0.00611309 -0.03554730 0.09973096
v 0.00611309 -0.02054730 0.09973096
v 0.00571010 -0.03554730 0.09956404
v 0.00571010 -0.02054730 0.09956404
v 0.00529410 -0.03554730 0.09943287
v 0.00529410 -0.02054730 0.09943287
v 0.00486824 -0.03554730 0.09933846
v 0.00486824 -0.02054730 0.09933846
v 0.00443578 -0.03554730 0.09928153
v 0.00443578 -0.02054730 0.09928153
v 0.00400000 -0.03554730 0.09926250
v 0.00400000 -0.02054730 0.09926250
v 0.00900000 -0.02054730 0.12626250
v 0.00900000 -0.03554730 0.12626250
v 0.00898097 -0.02054730 0.12669829
v 0.00898097 -0.03554730 0.12669829
v 0.00892404 -0.02054730 0.12713075
v 0.00892404 -0.03554730 0.12713075
v 0.00882963 -0.02054730 0.12755659
v 0.00882963 -0.03554730 0.12755659
v 0.00869846 -0.02054730 0.12797260
v 0.00869846 -0.03554730 0.12797260
v 0.00853154 -0.02054730 0.12837559
v 0.00853154 -0.03554730 0.12837559
v 0.00833013 -0.02054730 0.12876250
v 0.00833013 -0.03554730 0.12876250
v 0.00809576 -0.02054730 0.12913038
v 0.00809576 -0.03554730 0.12913038
v 0.00783022 -0.02054730 0.12947644
v 0.00783022 -0.03554730 0.12947644
v 0.00753553 -0.02054730 0.12979804
v 0.00753553 -0.03554730 0.12979804
v 0.00721394 -0.02054730 0.13009273
v 0.00721394 -0.03554730 0.13009273
v 0.00686788 -0.02054730 0.13035826
v 0.00686788 -0.03554730 0.13035826
v 0.00650000 -0.02054730 0.13059263
v 0.00650000 -0.03554730 0.13059263
v 0.00611309 -0.02054730 0.13079403
v 0.00611309 -0.03554730 0.13079403
v 0.00571010 -0.02054730 0.13096096
v 0.00571010 -0.03554730 0.13096096
v 0.00529410 -0.02054730 0.13109213
v 0.00529410 -0.03554730 0.13109213
v 0.00486824 -0.02054730 0.13118654
v 0.00486824 -0.03554730 0.13118654
v 0.00443578 -0.02054730 0.13124347
v 0.00443578 -0.03554730 0.13124347
v 0.00400000 -0.02054730 0.13126250
v 0.00400000 -0.03554730 0.13126250
v -0.01428942 -0.02054730 0.06276250
v -0.01428942 -0.03554730 0.06276250
v -0.01409332 -0.02054730 0.06277106
v -0.01409332 -0.03554730 0.06277106
v -0.01389871 -0.02054730 0.06279668
v -0.01389871 -0.03554730 0.06279668
v -0.01370708 -0.02054730 0.06283917
v -0.01370708 -0.03554730 0.06283917
v -0.01351987 -0.02054730 0.06289819
v -0.01351987 -0.03554730 0.06289819
v -0.01333853 -0.02054730 0.06297331
v -0.01333853 -0.03554730 0.06297331
v -0.01316442 -0.02054730 0.06306394
v -0.01316442 -0.03554730 0.06306394
v -0.01299887 -0.02054730 0.06316940
v -0.01299887 -0.03554730 0.06316940
v -0.01284315 -0.02054730 0.06328890
v -0.01284315 -0.03554730 0.06328890
v -0.01269843 -0.02054730 0.06342151
v -0.01269843 -0.03554730 0.06342151
v -0.01256582 -0.02054730 0.06356623
v -0.01256582 -0.03554730 0.06356623
v -0.01244633 -0.02054730 0.06372195
v -0.01244633 -0.03554730 0.06372195
v -0.01234086 -0.02054730 0.06388750
v -0.01234086 -0.03554730 0.06388750
v -0.01225023 -0.02054730 0.06406161
v -0.01225023 -0.03554730 0.06406161
v -0.01217511 -0.02054730 0.06424295
v -0.01217511 -0.03554730 0.06424295
v -0.01211609 -0.02054730 0.06443015
v -0.01211609 -0.03554730 0.06443015
v -0.01207360 -0.02054730 0.06462179
v -0.01207360 -0.03554730 0.06462179
v -0.01204798 -0.02054730 0.06481640
v -0.01204798 -0.03554730 0.06481640
v -0.01203942 -0.02054730 0.06501250
v -0.01203942 -0.03554730 0.06501250
v -0.01204798 -0.02054730 0.06520860
v -0.01204798 -0.03554730 0.06520860
v -0.01207360 -0.02054730 0.06540321
v -0.01207360 -0.03554730 0.06540321
v -0.01211609 -0.02054730 0.06559484
v -0.01211609 -0.03554730 0.06559484
v -0.01217511 -0.02054730 0.06578205
v -0.01217511 -0.03554730 0.06578205
v -0.01225023 -0.02054730 0.06596339
v -0.01225023 -0.03554730 0.06596339
v -0.01234086 -0.02054730 0.06613750
v -0.01234086 -0.03554730 0.06613750
v -0.01244633 -0.02054730 0.06630304
v -0.01244633 -0.03554730 0.06630304
v -0.01256582 -0.02054730 0.06645877
v -0.01256582 -0.03554730 0.06645877
v -0.01269843 -0.02054730 0.06660349
v -0.01269843 -0.03554730 0.06660349
v -0.01284315 -0.02054730 0.06673610
v -0.01284315 -0.03554730 0.06673610
v -0.01299887 -0.02054730 0.06685559
v -0.01299887 -0.03554730 0.06685559
v -0.01316442 -0.02054730 0.06696106
v -0.01316442 -0.03554730 0.06696106
v -0.01333853 -0.02054730 0.06705169
v -0.01333853 -0.03554730 0.06705169
v -0.01351987 -0.02054730 0.06712681
v -0.01351987 -0.03554730 0.06712681
v -0.01370708 -0.02054730 0.06718583
v -0.01370708 -0.03554730 0.06718583
v -0.01389871 -0.02054730 0.06722832
v -0.01389871 -0.03554730 0.06722832
v -0.01409332 -0.02054730 0.06725394
v -0.01409332 -0.03554730 0.06725394
v -0.01428942 -0.02054730 0.06726250
v -0.01428942 -0.03554730 0.06726250
v -0.01448552 -0.02054730 0.06725394
v -0.01448552 -0.03554730 0.06725394
v -0.01468013 -0.02054730 0.06722832
v -0.01468013 -0.03554730 0.06722832
v -0.01487176 -0.02054730 0.06718583
v -0.01487176 -0.03554730 0.06718583
v -0.01505896 -0.02054730 0.06712681
v -0.01505896 -0.03554730 0.06712681
v -0.01524031 -0.02054730 0.06705169
v -0.01524031 -0.03554730 0.06705169
v -0.01541442 -0.02054730 0.06696106
v -0.01541442 -0.03554730 0.06696106
v -0.01557997 -0.02054730 0.06685559
v -0.01557997 -0.03554730 0.06685559
v -0.01573569 -0.02054730 0.06673610
v -0.01573569 -0.03554730 0.06673610
v -0.01588041 -0.02054730 0.06660349
v -0.01588041 -0.03554730 0.06660349
v -0.01601302 -0.02054730 0.06645877
v -0.01601302 -0.03554730 0.06645877
v -0.01613251 -0.02054730 0.06630304
v -0.01613251 -0.03554730 0.06630304
v -0.01623798 -0.02054730 0.06613750
v -0.01623798 -0.03554730 0.06613750
v -0.01632861 -0.02054730 0.06596339
v -0.01632861 -0.03554730 0.06596339
v -0.01640373 -0.02054730 0.06578205
v -0.01640373 -0.03554730 0.06578205
v -0.01646275 -0.02054730 0.06559484
v -0.01646275 -0.03554730 0.06559484
v -0.01650524 -0.02054730 0.06540321
v -0.01650524 -0.03554730 0.06540321
v -0.01653086 -0.02054730 0.06520860
v -0.01653086 -0.03554730 0.06520860
v -0.01653942 -0.02054730 0.06501250
v -0.01653942 -0.03554730 0.06501250
v -0.01653086 -0.02054730 0.06481640
v -0.01653086 -0.03554730 0.06481640
v -0.01650524 -0.02054730 0.06462179
v -0.01650524 -0.03554730 0.06462179
v -0.01646275 -0.02054730 0.06443015
v -0.01646275 -0.03554730 0.06443015
v -0.01640373 -0.02054730 0.06424295
v -0.01640373 -0.03554730 0.06424295
v -0.01632861 -0.02054730 0.06406161
v -0.01632861 -0.03554730 0.06406161
v -0.01623798 -0.02054730 0.06388750
v -0.01623798 -0.03554730 0.06388750
v -0.01613251 -0.02054730 0.06372195
v -0.01613251 -0.03554730 0.06372195
v -0.01601302 -0.02054730 0.06356623
v -0.01601302 -0.03554730 0.06356623
v -0.01588041 -0.02054730 0.06342151
v -0.01588041 -0.03554730 0.06342151
v -0.01573569 -0.02054730 0.06328890
v -0.01573569 -0.03554730 0.06328890
v -0.01557997 -0.02054730 0.06316940
v -0.01557997 -0.03554730 0.06316940
v -0.01541442 -0.02054730 0.06306394
v -0.01541442 -0.03554730 0.06306394
v -0.01524031 -0.02054730 0.06297331
v -0.01524031 -0.03554730 0.06297331
v -0.01505896 -0.02054730 0.06289819
v -0.01505896 -0.03554730 0.06289819
v -0.01487176 -0.02054730 0.06283917
v -0.01487176 -0.03554730 0.06283917
v -0.01468013 -0.02054730 0.06279668
v -0.01468013 -0.03554730 0.06279668
v -0.01448552 -0.02054730 0.06277106
v -0.01448552 -0.03554730 0.06277106
v 0.01300000 -0.02054730 0.09526250
v 0.01300000 -0.02054730 0.13526250
v 0.01300000 -0.03554730 0.09526250
v 0.01300000 -0.03554730 0.13526250
v 0.01500000 -0.02054730 0.09526250
v 0.01500000 -0.03554730 0.09526250
v -0.00900000 -0.03554730 0.12626250
v -0.00900000 -0.02054730 0.12626250
v -0.00898097 -0.03554730 0.12669829
v -0.00898097 -0.02054730 0.12669829
v -0.00892404 -0.03554730 0.12713075
v -0.00892404 -0.02054730 0.12713075
v -0.00882963 -0.03554730 0.12755659
v -0.00882963 -0.02054730 0.12755659
v -0.00869846 -0.03554730 0.12797260
v -0.00869846 -0.02054730 0.12797260
v -0.00853154 -0.03554730 0.12837559
v -0.00853154 -0.02054730 0.12837559
v -0.00833013 -0.03554730 0.12876250
v -0.00833013 -0.02054730 0.12876250
v -0.00809576 -0.03554730 0.12913038
v -0.00809576 -0.02054730 0.12913038
v -0.00783022 -0.03554730 0.12947644
v -0.00783022 -0.02054730 0.12947644
v -0.00753553 -0.03554730 0.12979804
v -0.00753553 -0.02054730 0.12979804
v -0.00721394 -0.03554730 0.13009273
v -0.00721394 -0.02054730 0.13009273
v -0.00686788 -0.03554730 0.13035826
v -0.00686788 -0.02054730 0.13035826
v -0.00650000 -0.03554730 0.13059263
v -0.00650000 -0.02054730 0.13059263
v -0.00611309 -0.03554730 0.13079403
v -0.00611309 -0.02054730 0.13079403
v -0.00571010 -0.03554730 0.13096096
v -0.00571010 -0.02054730 0.13096096
v -0.00529410 -0.03554730 0.13109213
v -0.00529410 -0.02054730 0.13109213
v -0.00486824 -0.03554730 0.13118654
v -0.00486824 -0.02054730 0.13118654
v -0.00443578 -0.03554730 0.13124347
v -0.00443578 -0.02054730 0.13124347
v -0.00400000 -0.03554730 0.13126250
v -0.00400000 -0.02054730 0.13126250
v -0.00000000 -0.02054730 0.06241250
v -0.00000000 -0.03554730 0.06241250
v 0.00094564 -0.02054730 0.06245379
v 0.00094564 -0.03554730 0.06245379
v 0.00188408 -0.02054730 0.06257734
v 0.00188408 -0.03554730 0.06257734
v 0.00280819 -0.02054730 0.06278221
v 0.00280819 -0.03554730 0.06278221
v 0.00371092 -0.02054730 0.06306683
v 0.00371092 -0.03554730 0.06306683
v 0.00458541 -0.02054730 0.06342906
v 0.00458541 -0.03554730 0.06342906
v 0.00542500 -0.02054730 0.06386612
v 0.00542500 -0.03554730 0.06386612
v 0.00622330 -0.02054730 0.06437470
v 0.00622330 -0.03554730 0.06437470
v 0.00697425 -0.02054730 0.06495092
v 0.00697425 -0.03554730 0.06495092
v 0.00767211 -0.02054730 0.06559039
v 0.00767211 -0.03554730 0.06559039
v 0.00831158 -0.02054730 0.06628826
v 0.00831158 -0.03554730 0.06628826
v 0.00888780 -0.02054730 0.06703920
v 0.00888780 -0.03554730 0.06703920
v 0.00939638 -0.02054730 0.06783750
v 0.00939638 -0.03554730 0.06783750
v 0.00983344 -0.02054730 0.06867709
v 0.00983344 -0.03554730 0.06867709
v 0.01019567 -0.02054730 0.06955158
v 0.01019567 -0.03554730 0.06955158
v 0.01048029 -0.02054730 0.07045431
v 0.01048029 -0.03554730 0.07045431
v 0.01068516 -0.02054730 0.07137842
v 0.01068516 -0.03554730 0.07137842
v 0.01080871 -0.02054730 0.07231686
v 0.01080871 -0.03554730 0.07231686
v 0.01085000 -0.02054730 0.07326250
v 0.01085000 -0.03554730 0.07326250
v 0.01080871 -0.02054730 0.07420814
v 0.01080871 -0.03554730 0.07420814
v 0.01068516 -0.02054730 0.07514659
v 0.01068516 -0.03554730 0.07514659
v 0.01048029 -0.02054730 0.07607069
v 0.01048029 -0.03554730 0.07607069
v 0.01019567 -0.02054730 0.07697342
v 0.01019567 -0.03554730 0.07697342
v 0.00983344 -0.02054730 0.07784791
v 0.00983344 -0.03554730 0.07784791
v 0.00939638 -0.02054730 0.07868750
v 0.00939638 -0.03554730 0.07868750
v 0.00888780 -0.02054730 0.07948580
v 0.00888780 -0.03554730 0.07948580
v 0.00831158 -0.02054730 0.08023675
v 0.00831158 -0.03554730 0.08023675
v 0.00767211 -0.02054730 0.08093461
v 0.00767211 -0.03554730 0.08093461
v 0.00697425 -0.02054730 0.08157408
v 0.00697425 -0.03554730 0.08157408
v 0.00622330 -0.02054730 0.08215030
v 0.00622330 -0.03554730 0.08215030
v 0.00542500 -0.02054730 0.08265887
v 0.00542500 -0.03554730 0.08265887
v 0.00458541 -0.02054730 0.08309594
v 0.00458541 -0.03554730 0.08309594
v 0.00371092 -0.02054730 0.08345816
v 0.00371092 -0.03554730 0.08345816
v 0.00280819 -0.02054730 0.08374280
v 0.00280819 -0.03554730 0.08374280
v 0.00188408 -0.02054730 0.08394767
v 0.00188408 -0.03554730 0.08394767
v 0.00094564 -0.02054730 0.08407121
v 0.00094564 -0.03554730 0.08407121
v 0.00000000 -0.02054730 0.08411250
v 0.00000000 -0.03554730 0.08411250
v -0.00094564 -0.02054730 0.08407121
v -0.00094564 -0.03554730 0.08407121
v -0.00188408 -0.02054730 0.08394767
v -0.00188408 -0.03554730 0.08394767
v -0.00280819 -0.02054730 0.08374280
v -0.00280819 -0.03554730 0.08374280
v -0.00371092 -0.02054730 0.08345816
v -0.00371092 -0.03554730 0.08345816
v -0.00458541 -0.02054730 0.08309594
v -0.00458541 -0.03554730 0.08309594
v -0.00542500 -0.02054730 0.08265887
v -0.00542500 -0.03554730 0.08265887
v -0.00622330 -0.02054730 0.08215030
v -0.00622330 -0.03554730 0.08215030
v -0.00697425 -0.02054730 0.08157408
v -0.00697425 -0.03554730 0.08157408
v -0.00767211 -0.02054730 0.08093461
v -0.00767211 -0.03554730 0.08093461
v -0.00831158 -0.02054730 0.08023675
v -0.00831158 -0.03554730 0.08023675
v -0.00888780 -0.02054730 0.07948580
v -0.00888780 -0.03554730 0.07948580
v -0.00939638 -0.02054730 0.07868750
v -0.00939638 -0.03554730 0.07868750
v -0.00983344 -0.02054730 0.07784791
v -0.00983344 -0.03554730 0.07784791
v -0.00993221 -0.02054730 0.07762985
v -0.00993221 -0.03554730 0.07762985
v -0.01019567 -0.02054730 0.07697342
v -0.01019567 -0.03554730 0.07697342
v -0.01048029 -0.02054730 0.07607069
v -0.01048029 -0.03554730 0.07607069
v -0.01068516 -0.02054730 0.07514659
v -0.01068516 -0.03554730 0.07514659
v -0.01080871 -0.02054730 0.07420814
v -0.01080871 -0.03554730 0.07420814
v -0.01085000 -0.02054730 0.07326250
v -0.01085000 -0.03554730 0.07326250
v -0.01080871 -0.02054730 0.07231686
v -0.01080871 -0.03554730 0.07231686
v -0.01068516 -0.02054730 0.07137842
v -0.01068516 -0.03554730 0.07137842
v -0.01048029 -0.02054730 0.07045431
v -0.01048029 -0.03554730 0.07045431
v -0.01019567 -0.02054730 0.06955158
v -0.01019567 -0.03554730 0.06955158
v -0.00993221 -0.02054730 0.06889515
v -0.00993221 -0.03554730 0.06889515
v -0.00983344 -0.02054730 0.06867709
v -0.00983344 -0.03554730 0.06867709
v -0.00939638 -0.02054730 0.06783750
v -0.00939638 -0.03554730 0.06783750
v -0.00888780 -0.02054730 0.06703920
v -0.00888780 -0.03554730 0.06703920
v -0.00831158 -0.02054730 0.06628826
v -0.00831158 -0.03554730 0.06628826
v -0.00767211 -0.02054730 0.06559039
v -0.00767211 -0.03554730 0.06559039
v -0.00697425 -0.02054730 0.06495092
v -0.00697425 -0.03554730 0.06495092
v -0.00622330 -0.02054730 0.06437470
v -0.00622330 -0.03554730 0.06437470
v -0.00542500 -0.02054730 0.06386612
v -0.00542500 -0.03554730 0.06386612
v -0.00458541 -0.02054730 0.06342906
v -0.00458541 -0.03554730 0.06342906
v -0.00371092 -0.02054730 0.06306683
v -0.00371092 -0.03554730 0.06306683
v -0.00280819 -0.02054730 0.06278221
v -0.00280819 -0.03554730 0.06278221
v -0.00188408 -0.02054730 0.06257734
v -0.00188408 -0.03554730 0.06257734
v -0.00094564 -0.02054730 0.06245379
v -0.00094564 -0.03554730 0.06245379
v 0.01500000 -0.02054730 0.08935598
v 0.01500000 -0.03554730 0.08935598
v -0.00992500 -0.03554730 0.13526250
v -0.00992500 -0.02054730 0.13526250
v -0.01300000 -0.03554730 0.13526250
v -0.01300000 -0.02054730 0.13526250
v -0.00000000 -0.02054730 0.08751250
v -0.00000000 -0.03554730 0.08751250
v 0.00019610 -0.02054730 0.08752106
v 0.00019610 -0.03554730 0.08752106
v 0.00039071 -0.02054730 0.08754668
v 0.00039071 -0.03554730 0.08754668
v 0.00058234 -0.02054730 0.08758917
v 0.00058234 -0.03554730 0.08758917
v 0.00076955 -0.02054730 0.08764819
v 0.00076955 -0.03554730 0.08764819
v 0.00095089 -0.02054730 0.08772331
v 0.00095089 -0.03554730 0.08772331
v 0.00112500 -0.02054730 0.08781394
v 0.00112500 -0.03554730 0.08781394
v 0.00129055 -0.02054730 0.08791941
v 0.00129055 -0.03554730 0.08791941
v 0.00144627 -0.02054730 0.08803890
v 0.00144627 -0.03554730 0.08803890
v 0.00159099 -0.02054730 0.08817151
v 0.00159099 -0.03554730 0.08817151
v 0.00172360 -0.02054730 0.08831622
v 0.00172360 -0.03554730 0.08831622
v 0.00184309 -0.02054730 0.08847196
v 0.00184309 -0.03554730 0.08847196
v 0.00194856 -0.02054730 0.08863750
v 0.00194856 -0.03554730 0.08863750
v 0.00203919 -0.02054730 0.08881161
v 0.00203919 -0.03554730 0.08881161
v 0.00211431 -0.02054730 0.08899295
v 0.00211431 -0.03554730 0.08899295
v 0.00217333 -0.02054730 0.08918016
v 0.00217333 -0.03554730 0.08918016
v 0.00221582 -0.02054730 0.08937179
v 0.00221582 -0.03554730 0.08937179
v 0.00224144 -0.02054730 0.08956640
v 0.00224144 -0.03554730 0.08956640
v 0.00225000 -0.02054730 0.08976250
v 0.00225000 -0.03554730 0.08976250
v 0.00224144 -0.02054730 0.08995860
v 0.00224144 -0.03554730 0.08995860
v 0.00221582 -0.02054730 0.09015321
v 0.00221582 -0.03554730 0.09015321
v 0.00217333 -0.02054730 0.09034485
v 0.00217333 -0.03554730 0.09034485
v 0.00211431 -0.02054730 0.09053204
v 0.00211431 -0.03554730 0.09053204
v 0.00203919 -0.02054730 0.09071339
v 0.00203919 -0.03554730 0.09071339
v 0.00194856 -0.02054730 0.09088750
v 0.00194856 -0.03554730 0.09088750
v 0.00184309 -0.02054730 0.09105305
v 0.00184309 -0.03554730 0.09105305
v 0.00172360 -0.02054730 0.09120877
v 0.00172360 -0.03554730 0.09120877
v 0.00159099 -0.02054730 0.09135349
v 0.00159099 -0.03554730 0.09135349
v 0.00144627 -0.02054730 0.09148610
v 0.00144627 -0.03554730 0.09148610
v 0.00129055 -0.02054730 0.09160559
v 0.00129055 -0.03554730 0.09160559
v 0.00112500 -0.02054730 0.09171106
v 0.00112500 -0.03554730 0.09171106
v 0.00095089 -0.02054730 0.09180170
v 0.00095089 -0.03554730 0.09180170
v 0.00076955 -0.02054730 0.09187680
v 0.00076955 -0.03554730 0.09187680
v 0.00058234 -0.02054730 0.09193584
v 0.00058234 -0.03554730 0.09193584
v 0.00039071 -0.02054730 0.09197832
v 0.00039071 -0.03554730 0.09197832
v 0.00019610 -0.02054730 0.09200394
v 0.00019610 -0.03554730 0.09200394
v 0.00000000 -0.02054730 0.09201250
v 0.00000000 -0.03554730 0.09201250
v -0.00019610 -0.02054730 0.09200394
v -0.00019610 -0.03554730 0.09200394
v -0.00039071 -0.02054730 0.09197832
v -0.00039071 -0.03554730 0.09197832
v -0.00058234 -0.02054730 0.09193584
v -0.00058234 -0.03554730 0.09193584
v -0.00076955 -0.02054730 0.09187680
v -0.00076955 -0.03554730 0.09187680
v -0.00095089 -0.02054730 0.09180170
v -0.00095089 -0.03554730 0.09180170
v -0.00112500 -0.02054730 0.09171106
v -0.00112500 -0.03554730 0.09171106
v -0.00129055 -0.02054730 0.09160559
v -0.00129055 -0.03554730 0.09160559
v -0.00144627 -0.02054730 0.09148610
v -0.00144627 -0.03554730 0.09148610
v -0.00159099 -0.02054730 0.09135349
v -0.00159099 -0.03554730 0.09135349
v -0.00172360 -0.02054730 0.09120877
v -0.00172360 -0.03554730 0.09120877
v -0.00184309 -0.02054730 0.09105305
v -0.00184309 -0.03554730 0.09105305
v -0.00194856 -0.02054730 0.09088750
v -0.00194856 -0.03554730 0.09088750
v -0.00203919 -0.02054730 0.09071339
v -0.00203919 -0.03554730 0.09071339
v -0.00211431 -0.02054730 0.09053204
v -0.00211431 -0.03554730 0.09053204
v -0.00217333 -0.02054730 0.09034485
v -0.00217333 -0.03554730 0.09034485
v -0.00221582 -0.02054730 0.09015321
v -0.00221582 -0.03554730 0.09015321
v -0.00224144 -0.02054730 0.08995860
v -0.00224144 -0.03554730 0.08995860
v -0.00225000 -0.02054730 0.08976250
v -0.00225000 -0.03554730 0.08976250
v -0.00224144 -0.02054730 0.08956640
v -0.00224144 -0.03554730 0.08956640
v -0.00221582 -0.02054730 0.08937179
v -0.00221582 -0.03554730 0.08937179
v -0.00217333 -0.02054730 0.08918016
v -0.00217333 -0.03554730 0.08918016
v -0.00211431 -0.02054730 0.08899295
v -0.00211431 -0.03554730 0.08899295
v -0.00203919 -0.02054730 0.08881161
v -0.00203919 -0.03554730 0.08881161
v -0.00194856 -0.02054730 0.08863750
v -0.00194856 -0.03554730 0.08863750
v -0.00184309 -0.02054730 0.08847196
v -0.00184309 -0.03554730 0.08847196
v -0.00172360 -0.02054730 0.08831622
v -0.00172360 -0.03554730 0.08831622
v -0.00159099 -0.02054730 0.08817151
v -0.00159099 -0.03554730 0.08817151
v -0.00144627 -0.02054730 0.08803890
v -0.00144627 -0.03554730 0.08803890
v -0.00129055 -0.02054730 0.08791941
v -0.00129055 -0.03554730 0.08791941
v -0.00112500 -0.02054730 0.08781394
v -0.00112500 -0.03554730 0.08781394
v -0.00095089 -0.02054730 0.08772331
v -0.00095089 -0.03554730 0.08772331
v -0.00076955 -0.02054730 0.08764819
v -0.00076955 -0.03554730 0.08764819
v -0.00058234 -0.02054730 0.08758917
v -0.00058234 -0.03554730 0.08758917
v -0.00039071 -0.02054730 0.08754668
v -0.00039071 -0.03554730 0.08754668
v -0.00019610 -0.02054730 0.08752106
v -0.00019610 -0.03554730 0.08752106
v -0.01300000 -0.02054730 0.09526250
v -0.01300000 -0.03554730 0.09526250
v -0.01500000 -0.02054730 0.09526250
v -0.01500000 -0.03554730 0.09526250
v -0.01500000 -0.02054730 0.08935598
v -0.01500000 -0.03554730 0.08935598
v 0.01428942 -0.02054730 0.06276250
v 0.01428942 -0.03554730 0.06276250
v 0.01448552 -0.02054730 0.06277106
v 0.01448552 -0.03554730 0.06277106
v 0.01468013 -0.02054730 0.06279668
v 0.01468013 -0.03554730 0.06279668
v 0.01487176 -0.02054730 0.06283917
v 0.01487176 -0.03554730 0.06283917
v 0.01505896 -0.02054730 0.06289819
v 0.01505896 -0.03554730 0.06289819
v 0.01524031 -0.02054730 0.06297331
v 0.01524031 -0.03554730 0.06297331
v 0.01541442 -0.02054730 0.06306394
v 0.01541442 -0.03554730 0.06306394
v 0.01557997 -0.02054730 0.06316940
v 0.01557997 -0.03554730 0.06316940
v 0.01573569 -0.02054730 0.06328890
v 0.01573569 -0.03554730 0.06328890
v 0.01588041 -0.02054730 0.06342151
v 0.01588041 -0.03554730 0.06342151
v 0.01601302 -0.02054730 0.06356623
v 0.01601302 -0.03554730 0.06356623
v 0.01613251 -0.02054730 0.06372195
v 0.01613251 -0.03554730 0.06372195
v 0.01623798 -0.02054730 0.06388750
v 0.01623798 -0.03554730 0.06388750
v 0.01632861 -0.02054730 0.06406161
v 0.01632861 -0.03554730 0.06406161
v 0.01640373 -0.02054730 0.06424295
v 0.01640373 -0.03554730 0.06424295
v 0.01646275 -0.02054730 0.06443015
v 0.01646275 -0.03554730 0.06443015
v 0.01650524 -0.02054730 0.06462179
v 0.01650524 -0.03554730 0.06462179
v 0.01653086 -0.02054730 0.06481640
v 0.01653086 -0.03554730 0.06481640
v 0.01653942 -0.02054730 0.06501250
v 0.01653942 -0.03554730 0.06501250
v 0.01653086 -0.02054730 0.06520860
v 0.01653086 -0.03554730 0.06520860
v 0.01650524 -0.02054730 0.06540321
v 0.01650524 -0.03554730 0.06540321
v 0.01646275 -0.02054730 0.06559484
v 0.01646275 -0.03554730 0.06559484
v 0.01640373 -0.02054730 0.06578205
v 0.01640373 -0.03554730 0.06578205
v 0.01632861 -0.02054730 0.06596339
v 0.01632861 -0.03554730 0.06596339
v 0.01623798 -0.02054730 0.06613750
v 0.01623798 -0.03554730 0.06613750
v 0.01613251 -0.02054730 0.06630304
v 0.01613251 -0.03554730 0.06630304
v 0.01601302 -0.02054730 0.06645877
v 0.01601302 -0.03554730 0.06645877
v 0.01588041 -0.02054730 0.06660349
v 0.01588041 -0.03554730 0.06660349
v 0.01573569 -0.02054730 0.06673610
v 0.01573569 -0.03554730 0.06673610
v 0.01557997 -0.02054730 0.06685559
v 0.01557997 -0.03554730 0.06685559
v 0.01541442 -0.02054730 0.06696106
v 0.01541442 -0.03554730 0.06696106
v 0.01524031 -0.02054730 0.06705169
v 0.01524031 -0.03554730 0.06705169
v 0.01505896 -0.02054730 0.06712681
v 0.01505896 -0.03554730 0.06712681
v 0.01487176 -0.02054730 0.06718583
v 0.01487176 -0.03554730 0.06718583
v 0.01468013 -0.02054730 0.06722832
v 0.01468013 -0.03554730 0.06722832
v 0.01448552 -0.02054730 0.06725394
v 0.01448552 -0.03554730 0.06725394
v 0.01428942 -0.02054730 0.06726250
v 0.01428942 -0.03554730 0.06726250
v 0.01409332 -0.02054730 0.06725394
v 0.01409332 -0.03554730 0.06725394
v 0.01389871 -0.02054730 0.06722832
v 0.01389871 -0.03554730 0.06722832
v 0.01370708 -0.02054730 0.06718583
v 0.01370708 -0.03554730 0.06718583
v 0.01351987 -0.02054730 0.06712681
v 0.01351987 -0.03554730 0.06712681
v 0.01333853 -0.02054730 0.06705169
v 0.01333853 -0.03554730 0.06705169
v 0.01316442 -0.02054730 0.06696106
v 0.01316442 -0.03554730 0.06696106
v 0.01299887 -0.02054730 0.06685559
v 0.01299887 -0.03554730 0.06685559
v 0.01284315 -0.02054730 0.06673610
v 0.01284315 -0.03554730 0.06673610
v 0.01269843 -0.02054730 0.06660349
v 0.01269843 -0.03554730 0.06660349
v 0.01256582 -0.02054730 0.06645877
v 0.01256582 -0.03554730 0.06645877
v 0.01244633 -0.02054730 0.06630304
v 0.01244633 -0.03554730 0.06630304
v 0.01234086 -0.02054730 0.06613750
v 0.01234086 -0.03554730 0.06613750
v 0.01225023 -0.02054730 0.06596339
v 0.01225023 -0.03554730 0.06596339
v 0.01217511 -0.02054730 0.06578205
v 0.01217511 -0.03554730 0.06578205
v 0.01211609 -0.02054730 0.06559484
v 0.01211609 -0.03554730 0.06559484
v 0.01207360 -0.02054730 0.06540321
v 0.01207360 -0.03554730 0.06540321
v 0.01204798 -0.02054730 0.06520860
v 0.01204798 -0.03554730 0.06520860
v 0.01203942 -0.02054730 0.06501250
v 0.01203942 -0.03554730 0.06501250
v 0.01204798 -0.02054730 0.06481640
v 0.01204798 -0.03554730 0.06481640
v 0.01207360 -0.02054730 0.06462179
v 0.01207360 -0.03554730 0.06462179
v 0.01211609 -0.02054730 0.06443015
v 0.01211609 -0.03554730 0.06443015
v 0.01217511 -0.02054730 0.06424295
v 0.01217511 -0.03554730 0.06424295
v 0.01225023 -0.02054730 0.06406161
v 0.01225023 -0.03554730 0.06406161
v 0.01234086 -0.02054730 0.06388750
v 0.01234086 -0.03554730 0.06388750
v 0.01244633 -0.02054730 0.06372195
v 0.01244633 -0.03554730 0.06372195
v 0.01256582 -0.02054730 0.06356623
v 0.01256582 -0.03554730 0.06356623
v 0.01269843 -0.02054730 0.06342151
v 0.01269843 -0.03554730 0.06342151
v 0.01284315 -0.02054730 0.06328890
v 0.01284315 -0.03554730 0.06328890
v 0.01299887 -0.02054730 0.06316940
v 0.01299887 -0.03554730 0.06316940
v 0.01316442 -0.02054730 0.06306394
v 0.01316442 -0.03554730 0.06306394
v 0.01333853 -0.02054730 0.06297331
v 0.01333853 -0.03554730 0.06297331
v 0.01351987 -0.02054730 0.06289819
v 0.01351987 -0.03554730 0.06289819
v 0.01370708 -0.02054730 0.06283917
v 0.01370708 -0.03554730 0.06283917
v 0.01389871 -0.02054730 0.06279668
v 0.01389871 -0.03554730 0.06279668
v 0.01409332 -0.02054730 0.06277106
v 0.01409332 -0.03554730 0.06277106
v 0.01634102 -0.03554730 0.08799244
v 0.01634102 -0.02054730 0.08799244
v 0.01755855 -0.03554730 0.08651759
v 0.01755855 -0.02054730 0.08651759
v 0.01806113 -0.02054730 0.08582416
v 0.01806113 -0.03554730 0.08582416
v 0.01864339 -0.02054730 0.08494257
v 0.01864339 -0.03554730 0.08494257
v 0.01958734 -0.03554730 0.08327929
v 0.01958734 -0.02054730 0.08327929
v 0.02038327 -0.03554730 0.08154031
v 0.02038327 -0.02054730 0.08154031
v 0.02102517 -0.03554730 0.07973877
v 0.02102517 -0.02054730 0.07973877
v 0.02150819 -0.03554730 0.07788830
v 0.02150819 -0.02054730 0.07788830
v 0.02182866 -0.03554730 0.07600287
v 0.02182866 -0.02054730 0.07600287
v 0.02198418 -0.03554730 0.07409672
v 0.02198418 -0.02054730 0.07409672
v 0.02197356 -0.03554730 0.07218428
v 0.02197356 -0.02054730 0.07218428
v 0.02179689 -0.03554730 0.07027998
v 0.02179689 -0.02054730 0.07027998
v 0.02145551 -0.03554730 0.06839822
v 0.02145551 -0.02054730 0.06839822
v 0.02095198 -0.03554730 0.06655322
v 0.02095198 -0.02054730 0.06655322
v 0.02029013 -0.03554730 0.06475892
v 0.02029013 -0.02054730 0.06475892
v 0.01947494 -0.03554730 0.06302889
v 0.01947494 -0.02054730 0.06302889
v 0.01851257 -0.03554730 0.06137618
v 0.01851257 -0.02054730 0.06137618
v 0.01741032 -0.03554730 0.05981331
v 0.01741032 -0.02054730 0.05981331
v 0.01617649 -0.03554730 0.05835206
v 0.01617649 -0.02054730 0.05835206
v 0.01482042 -0.03554730 0.05700349
v 0.01482042 -0.02054730 0.05700349
v 0.01335235 -0.03554730 0.05577780
v 0.01335235 -0.02054730 0.05577780
v 0.01178338 -0.03554730 0.05468423
v 0.01178338 -0.02054730 0.05468423
v 0.01012536 -0.03554730 0.05373106
v 0.01012536 -0.02054730 0.05373106
v 0.00839082 -0.03554730 0.05292549
v 0.00839082 -0.02054730 0.05292549
v 0.00659288 -0.03554730 0.05227360
v 0.00659288 -0.02054730 0.05227360
v 0.00474511 -0.03554730 0.05178032
v 0.00474511 -0.02054730 0.05178032
v 0.00286149 -0.03554730 0.05144939
v 0.00286149 -0.02054730 0.05144939
v 0.00095624 -0.03554730 0.05128329
v 0.00095624 -0.02054730 0.05128329
v -0.00095624 -0.03554730 0.05128329
v -0.00095624 -0.02054730 0.05128329
v -0.00286149 -0.03554730 0.05144939
v -0.00286149 -0.02054730 0.05144939
v -0.00474511 -0.03554730 0.05178032
v -0.00474511 -0.02054730 0.05178032
v -0.00659288 -0.03554730 0.05227360
v -0.00659288 -0.02054730 0.05227360
v -0.00839082 -0.03554730 0.05292549
v -0.00839082 -0.02054730 0.05292549
v -0.00992858 -0.02054730 0.05363030
v -0.00992858 -0.03554730 0.05363030
v -0.01012536 -0.02054730 0.05373106
v -0.01012536 -0.03554730 0.05373106
v -0.01178338 -0.03554730 0.05468423
v -0.01178338 -0.02054730 0.05468423
v -0.01335235 -0.03554730 0.05577780
v -0.01335235 -0.02054730 0.05577780
v -0.01482042 -0.03554730 0.05700349
v -0.01482042 -0.02054730 0.05700349
v -0.01617649 -0.03554730 0.05835206
v -0.01617649 -0.02054730 0.05835206
v -0.01741032 -0.03554730 0.05981331
v -0.01741032 -0.02054730 0.05981331
v -0.01851257 -0.03554730 0.06137618
v -0.01851257 -0.02054730 0.06137618
v -0.01947494 -0.03554730 0.06302889
v -0.01947494 -0.02054730 0.06302889
v -0.02029013 -0.03554730 0.06475892
v -0.02029013 -0.02054730 0.06475892
v -0.02095198 -0.03554730 0.06655322
v -0.02095198 -0.02054730 0.06655322
v -0.02145551 -0.03554730 0.06839822
v -0.02145551 -0.02054730 0.06839822
v -0.02179689 -0.03554730 0.07027998
v -0.02179689 -0.02054730 0.07027998
v -0.02197356 -0.03554730 0.07218428
v -0.02197356 -0.02054730 0.07218428
v -0.02198418 -0.03554730 0.07409672
v -0.02198418 -0.02054730 0.07409672
v -0.02182866 -0.03554730 0.07600287
v -0.02182866 -0.02054730 0.07600287
v -0.02150819 -0.03554730 0.07788830
v -0.02150819 -0.02054730 0.07788830
v -0.02102517 -0.03554730 0.07973877
v -0.02102517 -0.02054730 0.07973877
v -0.02038327 -0.03554730 0.08154031
v -0.02038327 -0.02054730 0.08154031
v -0.01958734 -0.03554730 0.08327929
v -0.01958734 -0.02054730 0.08327929
v -0.01864339 -0.03554730 0.08494257
v -0.01864339 -0.02054730 0.08494257
v -0.01755855 -0.03554730 0.08651759
v -0.01755855 -0.02054730 0.08651759
v -0.01634102 -0.03554730 0.08799244
v -0.01634102 -0.02054730 0.08799244
v -0.00992500 -0.02054730 0.08581250
v -0.00992500 -0.03554730 0.08581250
f 1 2 3
f 2 4 3
f 3 4 5
f 4 6 5
f 5 6 7
f 6 8 7
f 7 8 9
f 8 10 9
f 9 10 11
f 10 12 11
f 11 12 13
f 12 14 13
f 13 14 15
f 14 16 15
f 15 16 17
f 16 18 17
f 17 18 19
f 18 20 19
f 19 20 21
f 20 22 21
f 21 22 23
f 22 24 23
f 23 24 25
f 24 26 25
f 25 26 27
f 26 28 27
f 27 28 29
f 28 30 29
f 29 30 31
f 30 32 31
f 31 32 33
f 32 34 33
f 33 34 35
f 34 36 35
f 35 36 37
f 36 38 37
f 39 40 41
f 40 42 41
f 41 42 43
f 42 44 43
f 43 44 45
f 44 46 45
f 45 46 47
f 46 48 47
f 47 48 49
f 48 50 49
f 49 50 51
f 50 52 51
f 51 52 53
f 52 54 53
f 53 54 55
f 54 56 55
f 55 56 57
f 56 58 57
f 57 58 59
f 58 60 59
f 59 60 61
f 60 62 61
f 61 62 63
f 62 64 63
f 63 64 65
f 64 66 65
f 65 66 67
f 66 68 67
f 67 68 69
f 68 70 69
f 69 70 71
f 70 72 71
f 71 72 73
f 72 74 73
f 73 74 75
f 74 76 75
f 77 78 79
f 78 80 79
f 79 80 81
f 80 82 81
f 81 82 83
f 82 84 83
f 83 84 85
f 84 86 85
f 85 86 87
f 86 88 87
f 87 88 89
f 88 90 89
f 89 90 91
f 90 92 91
f 91 92 93
f 92 94 93
f 93 94 95
f 94 96 95
f 95 96 97
f 96 98 97
f 97 98 99
f 98 100 99
f 99 100 101
f 100 102 101
f 101 102 103
f 102 104 103
f 103 104 105
f 104 106 105
f 105 106 107
f 106 108 107
f 107 108 109
f 108 110 109
f 109 110 111
f 110 112 111
f 111 112 113
f 112 114 113
f 115 116 117
f 116 118 117
f 117 118 119
f 118 120 119
f 119 120 121
f 120 122 121
f 121 122 123
f 122 124 123
f 123 124 125
f 124 126 125
f 125 126 127
f 126 128 127
f 127 128 129
f 128 130 129
f 129 130 131
f 130 132 131
f 131 132 133
f 132 134 133
f 133 134 135
f 134 136 135
f 135 136 137
f 136 138 137
f 137 138 139
f 138 140 139
f 139 140 141
f 140 142 141
f 141 142 143
f 142 144 143
f 143 144 145
f 144 146 145
f 145 146 147
f 146 148 147
f 147 148 149
f 148 150 149
f 149 150 151
f 150 152 151
f 151 152 153
f 152 154 153
f 153 154 155
f 154 156 155
f 155 156 157
f 156 158 157
f 157 158 159
f 158 160 159
f 159 160 161
f 160 162 161
f 161 162 163
f 162 164 163
f 163 164 165
f 164 166 165
f 165 166 167
f 166 168 167
f 167 168 169
f 168 170 169
f 169 170 171
f 170 172 171
f 171 172 173
f 172 174 173
f 173 174 175
f 174 176 175
f 175 176 177
f 176 178 177
f 177 178 179
f 178 180 179
f 179 180 181
f 180 182 181
f 181 182 183
f 182 184 183
f 183 184 185
f 184 186 185
f 185 186 187
f 186 188 187
f 187 188 189
f 188 190 189
f 189 190 191
f 190 192 191
f 191 192 193
f 192 194 193
f 193 194 195
f 194 196 195
f 195 196 197
f 196 198 197
f 197 198 199
f 198 200 199
f 199 200 201
f 200 202 201
f 201 202 203
f 202 204 203
f 203 204 205
f 204 206 205
f 205 206 207
f 206 208 207
f 207 208 209
f 208 210 209
f 209 210 211
f 210 212 211
f 211 212 213
f 212 214 213
f 213 214 215
f 214 216 215
f 215 216 217
f 216 218 217
f 217 218 219
f 218 220 219
f 219 220 221
f 220 222 221
f 221 222 223
f 222 224 223
f 223 224 225
f 224 226 225
f 225 226 227
f 226 228 227
f 227 228 229
f 228 230 229
f 229 230 231
f 230 232 231
f 231 232 233
f 232 234 233
f 233 234 235
f 234 236 235
f 235 236 237
f 236 238 237
f 237 238 239
f 238 240 239
f 239 240 241
f 240 242 241
f 241 242 243
f 242 244 243
f 243 244 245
f 244 246 245
f 245 246 247
f 246 248 247
f 247 248 249
f 248 250 249
f 249 250 251
f 250 252 251
f 251 252 253
f 252 254 253
f 253 254 255
f 254 256 255
f 255 256 257
f 256 258 257
f 257 258 115
f 258 116 115
f 259 260 261
f 260 262 261
f 263 259 264
f 259 261 264
f 76 37 75
f 37 38 75
f 265 266 267
f 266 268 267
f 267 268 269
f 268 270 269
f 269 270 271
f 270 272 271
f 271 272 273
f 272 274 273
f 273 274 275
f 274 276 275
f 275 276 277
f 276 278 277
f 277 278 279
f 278 280 279
f 279 280 281
f 280 282 281
f 281 282 283
f 282 284 283
f 283 284 285
f 284 286 285
f 285 286 287
f 286 288 287
f 287 288 289
f 288 290 289
f 289 290 291
f 290 292 291
f 291 292 293
f 292 294 293
f 293 294 295
f 294 296 295
f 295 296 297
f 296 298 297
f 297 298 299
f 298 300 299
f 299 300 301
f 300 302 301
f 303 304 305
f 304 306 305
f 305 306 307
f 306 308 307
f 307 308 309
f 308 310 309
f 309 310 311
f 310 312 311
f 311 312 313
f 312 314 313
f 313 314 315
f 314 316 315
f 315 316 317
f 316 318 317
f 317 318 319
f 318 320 319
f 319 320 321
f 320 322 321
f 321 322 323
f 322 324 323
f 323 324 325
f 324 326 325
f 325 326 327
f 326 328 327
f 327 328 329
f 328 330 329
f 329 330 331
f 330 332 331
f 331 332 333
f 332 334 333
f 333 334 335
f 334 336 335
f 335 336 337
f 336 338 337
f 337 338 339
f 338 340 339
f 339 340 341
f 340 342 341
f 341 342 343
f 342 344 343
f 343 344 345
f 344 346 345
f 345 346 347
f 346 348 347
f 347 348 349
f 348 350 349
f 349 350 351
f 350 352 351
f 351 352 353
f 352 354 353
f 353 354 355
f 354 356 355
f 355 356 357
f 356 358 357
f 357 358 359
f 358 360 359
f 359 360 361
f 360 362 361
f 361 362 363
f 362 364 363
f 363 364 365
f 364 366 365
f 365 366 367
f 366 368 367
f 367 368 369
f 368 370 369
f 369 370 371
f 370 372 371
f 371 372 373
f 372 374 373
f 373 374 375
f 374 376 375
f 375 376 377
f 376 378 377
f 377 378 379
f 378 380 379
f 379 380 381
f 380 382 381
f 381 382 383
f 382 384 383
f 383 384 385
f 384 386 385
f 385 386 387
f 386 388 387
f 387 388 389
f 388 390 389
f 389 390 391
f 390 392 391
f 391 392 393
f 392 394 393
f 393 394 395
f 394 396 395
f 395 396 397
f 396 398 397
f 397 398 399
f 398 400 399
f 399 400 401
f 400 402 401
f 401 402 403
f 402 404 403
f 403 404 405
f 404 406 405
f 405 406 407
f 406 408 407
f 407 408 409
f 408 410 409
f 409 410 411
f 410 412 411
f 411 412 413
f 412 414 413
f 413 414 415
f 414 416 415
f 415 416 417
f 416 418 417
f 417 418 419
f 418 420 419
f 419 420 421
f 420 422 421
f 421 422 423
f 422 424 423
f 423 424 425
f 424 426 425
f 425 426 427
f 426 428 427
f 427 428 429
f 428 430 429
f 429 430 431
f 430 432 431
f 431 432 433
f 432 434 433
f 433 434 435
f 434 436 435
f 435 436 437
f 436 438 437
f 437 438 439
f 438 440 439
f 439 440 441
f 440 442 441
f 441 442 443
f 442 444 443
f 443 444 445
f 444 446 445
f 445 446 447
f 446 448 447
f 447 448 449
f 448 450 449
f 449 450 303
f 450 304 303
f 302 113 301
f 113 114 301
f 451 263 452
f 263 264 452
f 77 40 78
f 40 39 78
f 262 260 453
f 260 454 453
f 453 454 455
f 454 456 455
f 457 458 459
f 458 460 459
f 459 460 461
f 460 462 461
f 461 462 463
f 462 464 463
f 463 464 465
f 464 466 465
f 465 466 467
f 466 468 467
f 467 468 469
f 468 470 469
f 469 470 471
f 470 472 471
f 471 472 473
f 472 474 473
f 473 474 475
f 474 476 475
f 475 476 477
f 476 478 477
f 477 478 479
f 478 480 479
f 479 480 481
f 480 482 481
f 481 482 483
f 482 484 483
f 483 484 485
f 484 486 485
f 485 486 487
f 486 488 487
f 487 488 489
f 488 490 489
f 489 490 491
f 490 492 491
f 491 492 493
f 492 494 493
f 493 494 495
f 494 496 495
f 495 496 497
f 496 498 497
f 497 498 499
f 498 500 499
f 499 500 501
f 500 502 501
f 501 502 503
f 502 504 503
f 503 504 505
f 504 506 505
f 505 506 507
f 506 508 507
f 507 508 509
f 508 510 509
f 509 510 511
f 510 512 511
f 511 512 513
f 512 514 513
f 513 514 515
f 514 516 515
f 515 516 517
f 516 518 517
f 517 518 519
f 518 520 519
f 519 520 521
f 520 522 521
f 521 522 523
f 522 524 523
f 523 524 525
f 524 526 525
f 525 526 527
f 526 528 527
f 527 528 529
f 528 530 529
f 529 530 531
f 530 532 531
f 531 532 533
f 532 534 533
f 533 534 535
f 534 536 535
f 535 536 537
f 536 538 537
f 537 538 539
f 538 540 539
f 539 540 541
f 540 542 541
f 541 542 543
f 542 544 543
f 543 544 545
f 544 546 545
f 545 546 547
f 546 548 547
f 547 548 549
f 548 550 549
f 549 550 551
f 550 552 551
f 551 552 553
f 552 554 553
f 553 554 555
f 554 556 555
f 555 556 557
f 556 558 557
f 557 558 559
f 558 560 559
f 559 560 561
f 560 562 561
f 561 562 563
f 562 564 563
f 563 564 565
f 564 566 565
f 565 566 567
f 566 568 567
f 567 568 569
f 568 570 569
f 569 570 571
f 570 572 571
f 571 572 573
f 572 574 573
f 573 574 575
f 574 576 575
f 575 576 577
f 576 578 577
f 577 578 579
f 578 580 579
f 579 580 581
f 580 582 581
f 581 582 583
f 582 584 583
f 583 584 585
f 584 586 585
f 585 586 587
f 586 588 587
f 587 588 589
f 588 590 589
f 589 590 591
f 590 592 591
f 591 592 593
f 592 594 593
f 593 594 595
f 594 596 595
f 595 596 597
f 596 598 597
f 597 598 599
f 598 600 599
f 599 600 457
f 600 458 457
f 456 601 455
f 601 602 455
f 601 603 602
f 603 604 602
f 603 605 604
f 605 606 604
f 607 608 609
f 608 610 609
f 609 610 611
f 610 612 611
f 611 612 613
f 612 614 613
f 613 614 615
f 614 616 615
f 615 616 617
f 616 618 617
f 617 618 619
f 618 620 619
f 619 620 621
f 620 622 621
f 621 622 623
f 622 624 623
f 623 624 625
f 624 626 625
f 625 626 627
f 626 628 627
f 627 628 629
f 628 630 629
f 629 630 631
f 630 632 631
f 631 632 633
f 632 634 633
f 633 634 635
f 634 636 635
f 635 636 637
f 636 638 637
f 637 638 639
f 638 640 639
f 639 640 641
f 640 642 641
f 641 642 643
f 642 644 643
f 643 644 645
f 644 646 645
f 645 646 647
f 646 648 647
f 647 648 649
f 648 650 649
f 649 650 651
f 650 652 651
f 651 652 653
f 652 654 653
f 653 654 655
f 654 656 655
f 655 656 657
f 656 658 657
f 657 658 659
f 658 660 659
f 659 660 661
f 660 662 661
f 661 662 663
f 662 664 663
f 663 664 665
f 664 666 665
f 665 666 667
f 666 668 667
f 667 668 669
f 668 670 669
f 669 670 671
f 670 672 671
f 671 672 673
f 672 674 673
f 673 674 675
f 674 676 675
f 675 676 677
f 676 678 677
f 677 678 679
f 678 680 679
f 679 680 681
f 680 682 681
f 681 682 683
f 682 684 683
f 683 684 685
f 684 686 685
f 685 686 687
f 686 688 687
f 687 688 689
f 688 690 689
f 689 690 691
f 690 692 691
f 691 692 693
f 692 694 693
f 693 694 695
f 694 696 695
f 695 696 697
f 696 698 697
f 697 698 699
f 698 700 699
f 699 700 701
f 700 702 701
f 701 702 703
f 702 704 703
f 703 704 705
f 704 706 705
f 705 706 707
f 706 708 707
f 707 708 709
f 708 710 709
f 709 710 711
f 710 712 711
f 711 712 713
f 712 714 713
f 713 714 715
f 714 716 715
f 715 716 717
f 716 718 717
f 717 718 719
f 718 720 719
f 719 720 721
f 720 722 721
f 721 722 723
f 722 724 723
f 723 724 725
f 724 726 725
f 725 726 727
f 726 728 727
f 727 728 729
f 728 730 729
f 729 730 731
f 730 732 731
f 731 732 733
f 732 734 733
f 733 734 735
f 734 736 735
f 735 736 737
f 736 738 737
f 737 738 739
f 738 740 739
f 739 740 741
f 740 742 741
f 741 742 743
f 742 744 743
f 743 744 745
f 744 746 745
f 745 746 747
f 746 748 747
f 747 748 749
f 748 750 749
f 749 750 607
f 750 608 607
f 265 2 266
f 2 1 266
f 451 452 751
f 451 751 752
f 751 753 752
f 752 753 754
f 754 753 755
f 753 756 755
f 755 756 757
f 756 758 757
f 758 759 757
f 757 759 760
f 759 761 760
f 760 761 762
f 761 763 762
f 762 763 764
f 763 765 764
f 764 765 766
f 765 767 766
f 766 767 768
f 767 769 768
f 768 769 770
f 769 771 770
f 770 771 772
f 771 773 772
f 772 773 774
f 773 775 774
f 774 775 776
f 775 777 776
f 776 777 778
f 777 779 778
f 778 779 780
f 779 781 780
f 780 781 782
f 781 783 782
f 782 783 784
f 783 785 784
f 784 785 786
f 785 787 786
f 786 787 788
f 787 789 788
f 788 789 790
f 789 791 790
f 790 791 792
f 791 793 792
f 792 793 794
f 793 795 794
f 794 795 796
f 795 797 796
f 796 797 798
f 797 799 798
f 798 799 800
f 799 801 800
f 800 801 802
f 801 803 802
f 802 803 804
f 803 805 804
f 804 805 806
f 805 807 806
f 806 807 808
f 807 809 808
f 808 809 810
f 809 811 810
f 810 811 812
f 811 813 812
f 812 813 814
f 813 815 814
f 814 815 816
f 816 815 817
f 815 818 817
f 817 818 819
f 818 820 819
f 820 821 819
f 819 821 822
f 821 823 822
f 822 823 824
f 823 825 824
f 824 825 826
f 825 827 826
f 826 827 828
f 827 829 828
f 828 829 830
f 829 831 830
f 830 831 832
f 831 833 832
f 832 833 834
f 833 835 834
f 834 835 836
f 835 837 836
f 836 837 838
f 837 839 838
f 838 839 840
f 839 841 840
f 840 841 842
f 841 843 842
f 842 843 844
f 843 845 844
f 844 845 846
f 845 847 846
f 846 847 848
f 847 849 848
f 848 849 850
f 849 851 850
f 850 851 852
f 851 853 852
f 852 853 854
f 853 855 854
f 854 855 856
f 855 857 856
f 856 857 858
f 857 859 858
f 858 859 860
f 859 861 860
f 860 861 862
f 861 606 862
f 862 606 605
f 601 456 454
f 185 187 860
f 794 747 792
f 747 749 792
f 792 749 790
f 611 788 609
f 788 790 609
f 609 790 607
f 790 749 607
f 371 755 369
f 755 367 369
f 755 359 361
f 371 373 755
f 373 375 755
f 755 375 863
f 375 377 863
f 863 377 379
f 379 381 863
f 381 383 863
f 863 383 385
f 335 337 687
f 337 339 687
f 435 437 817
f 347 349 755
f 349 351 755
f 755 351 353
f 353 355 755
f 355 357 755
f 755 357 359
f 361 363 755
f 363 365 755
f 755 365 367
f 385 387 863
f 387 389 863
f 863 389 391
f 391 393 863
f 393 395 863
f 863 395 397
f 339 341 687
f 341 343 687
f 687 343 685
f 343 345 685
f 685 345 683
f 345 347 683
f 683 347 681
f 347 755 681
f 681 755 679
f 397 399 863
f 399 401 863
f 863 401 403
f 429 431 817
f 431 433 817
f 817 433 435
f 307 309 806
f 611 613 788
f 613 615 788
f 788 615 786
f 615 617 786
f 786 617 619
f 641 643 780
f 643 645 780
f 780 645 778
f 423 425 817
f 425 427 817
f 817 427 429
f 723 725 309
f 633 635 782
f 635 637 782
f 782 637 780
f 637 639 780
f 780 639 641
f 625 784 623
f 784 786 623
f 623 786 621
f 786 619 621
f 729 731 806
f 731 733 806
f 806 733 804
f 733 735 804
f 804 735 802
f 735 737 802
f 802 737 800
f 737 739 800
f 800 739 798
f 739 741 798
f 798 741 796
f 741 743 796
f 796 743 794
f 743 745 794
f 794 745 747
f 625 627 784
f 627 629 784
f 784 629 782
f 629 631 782
f 782 631 633
f 645 647 778
f 647 649 778
f 778 649 776
f 649 651 776
f 437 439 817
f 439 441 817
f 817 441 816
f 441 443 816
f 816 443 814
f 443 445 814
f 814 445 812
f 445 447 812
f 812 447 810
f 447 449 810
f 810 449 808
f 449 303 808
f 808 303 806
f 303 305 806
f 806 305 307
f 309 725 806
f 725 727 806
f 806 727 729
f 651 653 776
f 653 655 776
f 776 655 774
f 655 657 774
f 774 657 772
f 657 659 772
f 659 661 772
f 772 661 770
f 661 663 770
f 770 663 768
f 663 665 768
f 768 665 766
f 665 667 766
f 766 667 764
f 667 669 764
f 764 669 762
f 669 671 762
f 762 671 760
f 671 673 760
f 760 673 757
f 673 675 757
f 757 675 755
f 675 677 755
f 755 677 679
f 329 331 697
f 687 689 335
f 689 691 335
f 335 691 333
f 691 693 333
f 333 693 331
f 693 695 331
f 331 695 697
f 723 309 721
f 309 311 721
f 721 311 313
f 697 699 329
f 699 701 329
f 329 701 327
f 701 703 327
f 327 703 325
f 703 705 325
f 705 707 325
f 325 707 323
f 717 317 715
f 317 319 715
f 715 319 321
f 313 315 721
f 315 317 721
f 721 317 719
f 317 717 719
f 707 709 323
f 709 711 323
f 323 711 321
f 711 713 321
f 321 713 715
f 253 255 828
f 187 189 860
f 189 191 860
f 860 191 858
f 863 183 185
f 828 255 826
f 177 179 415
f 245 247 830
f 247 249 830
f 830 249 828
f 249 251 828
f 828 251 253
f 255 257 826
f 257 115 826
f 826 115 824
f 115 117 824
f 824 117 822
f 117 119 822
f 119 121 822
f 822 121 819
f 121 123 819
f 819 123 817
f 123 125 817
f 415 179 413
f 403 405 863
f 405 407 863
f 863 407 409
f 858 191 856
f 191 193 856
f 856 193 854
f 193 195 854
f 854 195 852
f 195 197 852
f 852 197 850
f 197 199 850
f 850 199 848
f 199 201 848
f 848 201 846
f 201 203 846
f 846 203 844
f 213 215 840
f 125 127 817
f 127 129 817
f 817 129 131
f 183 863 181
f 863 409 181
f 181 409 179
f 409 411 179
f 179 411 413
f 840 215 838
f 231 233 834
f 233 235 834
f 834 235 832
f 235 237 832
f 237 239 832
f 239 241 832
f 832 241 830
f 241 243 830
f 830 243 245
f 131 133 817
f 133 135 817
f 817 135 137
f 215 217 838
f 217 219 838
f 838 219 836
f 219 221 836
f 836 221 223
f 223 225 836
f 225 227 836
f 836 227 834
f 227 229 834
f 834 229 231
f 151 153 423
f 165 167 423
f 203 205 844
f 205 207 844
f 844 207 842
f 207 209 842
f 842 209 840
f 209 211 840
f 840 211 213
f 423 167 421
f 177 415 175
f 415 417 175
f 175 417 419
f 137 139 817
f 139 141 817
f 817 141 143
f 143 145 817
f 145 147 817
f 817 147 423
f 147 149 423
f 423 149 151
f 153 155 423
f 155 157 423
f 423 157 159
f 167 169 421
f 169 171 421
f 421 171 419
f 171 173 419
f 419 173 175
f 159 161 423
f 161 163 423
f 423 163 165
f 56 54 515
f 521 523 76
f 533 535 17
f 451 752 863
f 752 754 863
f 863 754 755
f 107 109 260
f 529 31 33
f 535 537 17
f 537 539 17
f 17 539 15
f 585 587 863
f 469 471 259
f 471 473 259
f 515 54 513
f 19 529 17
f 529 531 17
f 17 531 533
f 109 111 260
f 111 113 260
f 260 113 454
f 113 302 454
f 302 300 454
f 300 298 454
f 454 298 296
f 260 93 95
f 95 97 260
f 97 99 260
f 260 99 101
f 101 103 260
f 103 105 260
f 260 105 107
f 19 21 529
f 21 23 529
f 529 23 25
f 25 27 529
f 27 29 529
f 529 29 31
f 473 475 259
f 475 477 259
f 259 477 479
f 68 66 515
f 66 64 515
f 515 64 62
f 62 60 515
f 60 58 515
f 515 58 56
f 523 525 76
f 525 527 76
f 76 527 37
f 527 529 37
f 37 529 35
f 529 33 35
f 296 294 454
f 294 292 454
f 454 292 290
f 521 76 519
f 76 74 519
f 519 74 517
f 74 72 517
f 517 72 515
f 72 70 515
f 515 70 68
f 539 541 15
f 541 543 15
f 15 543 545
f 587 589 863
f 589 591 863
f 863 591 593
f 451 463 465
f 593 595 863
f 595 597 863
f 863 597 599
f 259 263 469
f 263 451 469
f 469 451 467
f 451 465 467
f 579 581 863
f 581 583 863
f 863 583 585
f 599 457 863
f 457 459 863
f 863 459 451
f 459 461 451
f 451 461 463
f 259 52 50
f 50 48 259
f 48 46 259
f 259 46 44
f 479 481 259
f 481 483 259
f 259 483 485
f 485 487 259
f 487 489 259
f 259 489 491
f 290 288 454
f 288 286 454
f 454 286 284
f 260 79 81
f 284 282 454
f 282 280 454
f 454 280 278
f 553 555 13
f 491 493 259
f 493 495 259
f 259 495 497
f 497 499 259
f 499 501 259
f 259 501 503
f 503 505 259
f 505 507 259
f 259 507 52
f 507 509 52
f 52 509 54
f 509 511 54
f 54 511 513
f 44 42 259
f 42 40 259
f 259 40 260
f 40 77 260
f 260 77 79
f 545 547 15
f 547 549 15
f 15 549 13
f 549 551 13
f 13 551 553
f 81 83 260
f 83 85 260
f 260 85 87
f 87 89 260
f 89 91 260
f 260 91 93
f 278 276 454
f 276 274 454
f 454 274 272
f 1 3 863
f 3 5 863
f 863 5 7
f 567 863 565
f 863 563 565
f 567 569 863
f 569 571 863
f 863 571 573
f 272 270 454
f 270 268 454
f 454 268 266
f 7 9 863
f 9 11 863
f 863 11 13
f 573 575 863
f 575 577 863
f 863 577 579
f 555 557 13
f 557 559 13
f 13 559 863
f 559 561 863
f 863 561 563
f 185 860 863
f 860 862 863
f 863 862 605
f 266 1 454
f 1 863 454
f 454 863 601
f 863 605 601
f 601 605 603
f 614 612 787
f 684 348 346
f 374 372 756
f 787 612 789
f 612 610 789
f 610 608 789
f 789 608 791
f 608 750 791
f 791 750 793
f 340 338 688
f 338 336 688
f 688 336 690
f 684 346 686
f 346 344 686
f 686 344 688
f 344 342 688
f 688 342 340
f 374 756 376
f 372 370 756
f 370 368 756
f 756 368 366
f 440 438 818
f 438 436 818
f 400 398 864
f 382 864 384
f 864 386 384
f 382 380 864
f 380 378 864
f 864 378 376
f 779 646 644
f 728 726 811
f 436 434 818
f 434 432 818
f 818 432 430
f 400 864 402
f 398 396 864
f 396 394 864
f 864 394 392
f 392 390 864
f 390 388 864
f 864 388 386
f 366 364 756
f 364 362 756
f 756 362 360
f 360 358 756
f 358 356 756
f 756 356 354
f 354 352 756
f 352 350 756
f 756 350 348
f 430 428 818
f 428 426 818
f 818 426 424
f 684 682 348
f 682 680 348
f 348 680 756
f 680 678 756
f 756 678 676
f 646 779 648
f 779 777 648
f 648 777 650
f 628 626 783
f 622 620 785
f 620 618 785
f 785 618 787
f 618 616 787
f 787 616 614
f 811 726 310
f 310 308 811
f 308 306 811
f 811 306 304
f 771 769 664
f 650 777 652
f 777 775 652
f 652 775 654
f 644 642 779
f 642 640 779
f 779 640 781
f 640 638 781
f 781 638 636
f 750 748 793
f 748 746 793
f 793 746 795
f 746 744 795
f 795 744 797
f 744 742 797
f 797 742 799
f 742 740 799
f 799 740 801
f 740 738 801
f 801 738 803
f 738 736 803
f 803 736 805
f 736 734 805
f 805 734 807
f 734 732 807
f 807 732 809
f 809 732 811
f 732 730 811
f 811 730 728
f 726 724 310
f 724 722 310
f 310 722 312
f 304 450 811
f 450 448 811
f 811 448 813
f 448 446 813
f 813 446 815
f 446 444 815
f 815 444 818
f 444 442 818
f 818 442 440
f 664 769 666
f 769 767 666
f 666 767 668
f 767 765 668
f 668 765 670
f 765 763 670
f 670 763 672
f 763 761 672
f 672 761 674
f 761 759 674
f 674 759 676
f 759 758 676
f 676 758 756
f 664 662 771
f 662 660 771
f 771 660 773
f 660 658 773
f 773 658 775
f 658 656 775
f 775 656 654
f 783 626 785
f 626 624 785
f 785 624 622
f 636 634 781
f 634 632 781
f 781 632 783
f 632 630 783
f 783 630 628
f 332 330 700
f 700 698 332
f 698 696 332
f 332 696 334
f 696 694 334
f 334 694 336
f 694 692 336
f 336 692 690
f 326 706 328
f 706 704 328
f 328 704 330
f 704 702 330
f 330 702 700
f 318 316 722
f 316 314 722
f 722 314 312
f 324 710 326
f 710 708 326
f 326 708 706
f 722 720 318
f 720 718 318
f 318 718 320
f 718 716 320
f 320 716 322
f 716 714 322
f 322 714 324
f 714 712 324
f 324 712 710
f 256 827 258
f 827 825 258
f 188 186 864
f 410 408 864
f 821 120 823
f 120 118 823
f 823 118 825
f 118 116 825
f 825 116 258
f 408 406 864
f 406 404 864
f 864 404 402
f 256 254 827
f 254 252 827
f 827 252 829
f 252 250 829
f 829 250 248
f 186 184 864
f 184 182 864
f 864 182 410
f 182 180 410
f 410 180 412
f 242 831 244
f 831 829 244
f 244 829 246
f 829 248 246
f 166 164 424
f 818 134 132
f 818 126 820
f 126 124 820
f 820 124 821
f 124 122 821
f 821 122 120
f 172 170 422
f 132 130 818
f 130 128 818
f 818 128 126
f 156 154 424
f 242 240 831
f 240 238 831
f 831 238 833
f 238 236 833
f 833 236 234
f 226 224 835
f 224 222 835
f 835 222 837
f 190 859 192
f 859 857 192
f 192 857 194
f 857 855 194
f 194 855 196
f 855 853 196
f 196 853 198
f 853 851 198
f 198 851 200
f 851 849 200
f 200 849 202
f 849 847 202
f 202 847 204
f 847 845 204
f 204 845 206
f 845 843 206
f 422 170 424
f 170 168 424
f 424 168 166
f 156 424 158
f 140 138 818
f 138 136 818
f 818 136 134
f 234 232 833
f 232 230 833
f 833 230 835
f 230 228 835
f 835 228 226
f 216 839 218
f 839 837 218
f 218 837 220
f 837 222 220
f 216 214 839
f 214 212 839
f 839 212 841
f 212 210 841
f 841 210 843
f 210 208 843
f 843 208 206
f 172 422 174
f 422 420 174
f 174 420 176
f 420 418 176
f 176 418 178
f 418 416 178
f 178 416 180
f 416 414 180
f 180 414 412
f 164 162 424
f 162 160 424
f 424 160 158
f 154 152 424
f 152 150 424
f 424 150 818
f 150 148 818
f 818 148 146
f 146 144 818
f 144 142 818
f 818 142 140
f 751 452 864
f 376 756 864
f 756 753 864
f 864 753 751
f 468 466 452
f 522 520 75
f 520 518 75
f 466 464 452
f 464 462 452
f 452 462 864
f 462 460 864
f 864 460 458
f 518 516 75
f 516 514 75
f 75 514 512
f 264 261 452
f 261 470 452
f 452 470 468
f 20 18 544
f 18 16 544
f 544 16 546
f 295 297 453
f 528 526 75
f 526 524 75
f 75 524 522
f 864 596 594
f 287 289 453
f 512 510 75
f 510 508 75
f 75 508 506
f 458 600 864
f 600 598 864
f 864 598 596
f 584 864 586
f 864 588 586
f 289 291 453
f 291 293 453
f 453 293 295
f 112 110 262
f 110 108 262
f 262 108 106
f 106 104 262
f 104 102 262
f 262 102 100
f 478 476 261
f 536 534 38
f 534 532 38
f 38 532 75
f 532 530 75
f 75 530 528
f 506 504 75
f 504 502 75
f 75 502 500
f 500 498 75
f 498 496 75
f 75 496 494
f 594 592 864
f 592 590 864
f 864 590 588
f 32 544 34
f 544 542 34
f 34 542 36
f 542 540 36
f 36 540 38
f 540 538 38
f 38 538 536
f 297 299 453
f 299 301 453
f 453 301 262
f 301 114 262
f 262 114 112
f 100 98 262
f 98 96 262
f 262 96 94
f 53 55 261
f 476 474 261
f 474 472 261
f 261 472 470
f 32 30 544
f 30 28 544
f 544 28 26
f 26 24 544
f 24 22 544
f 544 22 20
f 55 57 261
f 57 59 261
f 261 59 61
f 584 582 864
f 582 580 864
f 864 580 578
f 554 552 14
f 552 550 14
f 14 550 16
f 550 548 16
f 16 548 546
f 277 279 453
f 279 281 453
f 494 492 75
f 492 490 75
f 75 490 73
f 490 488 73
f 73 488 71
f 281 283 453
f 283 285 453
f 453 285 287
f 47 49 261
f 49 51 261
f 261 51 53
f 61 63 261
f 63 65 261
f 261 65 67
f 484 482 261
f 482 480 261
f 261 480 478
f 94 92 262
f 92 90 262
f 262 90 88
f 88 86 262
f 86 84 262
f 262 84 82
f 41 43 261
f 43 45 261
f 261 45 47
f 484 261 486
f 261 67 486
f 486 67 488
f 67 69 488
f 488 69 71
f 568 864 570
f 864 572 570
f 568 566 864
f 566 564 864
f 864 564 562
f 265 267 453
f 267 269 453
f 453 269 271
f 578 576 864
f 576 574 864
f 864 574 572
f 271 273 453
f 273 275 453
f 453 275 277
f 82 80 262
f 80 78 262
f 262 78 261
f 78 39 261
f 261 39 41
f 14 12 864
f 12 10 864
f 864 10 8
f 8 6 864
f 6 4 864
f 864 4 2
f 562 560 864
f 560 558 864
f 864 558 14
f 558 556 14
f 14 556 554
f 455 864 453
f 864 2 453
f 453 2 265
f 455 602 864
f 602 604 864
f 864 604 606
f 190 188 859
f 188 864 859
f 859 864 861
f 864 606 861

