# https://github.com/mikedh/trimesh

o tm25_2407_wrist_attachment_spacer.stl
v 0.08132704 -0.01500000 -0.00600000
v 0.05432704 -0.01500000 -0.00600000
v 0.08132704 -0.01499619 -0.00591284
v 0.05432704 -0.01499619 -0.00591284
v 0.08132704 -0.01498481 -0.00582635
v 0.05432704 -0.01498481 -0.00582635
v 0.08132704 -0.01496593 -0.00574118
v 0.05432704 -0.01496593 -0.00574118
v 0.08132704 -0.01493969 -0.00565798
v 0.05432704 -0.01493969 -0.00565798
v 0.08132704 -0.01490631 -0.00557738
v 0.05432704 -0.01490631 -0.00557738
v 0.08132704 -0.01486603 -0.00550000
v 0.05432704 -0.01486603 -0.00550000
v 0.08132704 -0.01481915 -0.00542642
v 0.05432704 -0.01481915 -0.00542642
v 0.08132704 -0.01476604 -0.00535721
v 0.05432704 -0.01476604 -0.00535721
v 0.08132704 -0.01470711 -0.00529289
v 0.05432704 -0.01470711 -0.00529289
v 0.08132704 -0.01464279 -0.00523396
v 0.05432704 -0.01464279 -0.00523396
v 0.08132704 -0.01457358 -0.00518085
v 0.05432704 -0.01457358 -0.00518085
v 0.08132704 -0.01450000 -0.00513397
v 0.05432704 -0.01450000 -0.00513397
v 0.08132704 -0.01442262 -0.00509369
v 0.05432704 -0.01442262 -0.00509369
v 0.08132704 -0.01434202 -0.00506031
v 0.05432704 -0.01434202 -0.00506031
v 0.08132704 -0.01425882 -0.00503407
v 0.05432704 -0.01425882 -0.00503407
v 0.08132704 -0.01417365 -0.00501519
v 0.05432704 -0.01417365 -0.00501519
v 0.08132704 -0.01408716 -0.00500381
v 0.05432704 -0.01408716 -0.00500381
v 0.08132704 -0.01400000 -0.00500000
v 0.05432704 -0.01400000 -0.00500000
v 0.05432704 0.01500000 -0.00600000
v 0.08132704 0.01500000 -0.00600000
v 0.05432704 0.01499619 -0.00591284
v 0.08132704 0.01499619 -0.00591284
v 0.05432704 0.01498481 -0.00582635
v 0.08132704 0.01498481 -0.00582635
v 0.05432704 0.01496593 -0.00574118
v 0.08132704 0.01496593 -0.00574118
v 0.05432704 0.01493969 -0.00565798
v 0.08132704 0.01493969 -0.00565798
v 0.05432704 0.01490631 -0.00557738
v 0.08132704 0.01490631 -0.00557738
v 0.05432704 0.01486603 -0.00550000
v 0.08132704 0.01486603 -0.00550000
v 0.05432704 0.01481915 -0.00542642
v 0.08132704 0.01481915 -0.00542642
v 0.05432704 0.01476604 -0.00535721
v 0.08132704 0.01476604 -0.00535721
v 0.05432704 0.01470711 -0.00529289
v 0.08132704 0.01470711 -0.00529289
v 0.05432704 0.01464279 -0.00523396
v 0.08132704 0.01464279 -0.00523396
v 0.05432704 0.01457358 -0.00518085
v 0.08132704 0.01457358 -0.00518085
v 0.05432704 0.01450000 -0.00513397
v 0.08132704 0.01450000 -0.00513397
v 0.05432704 0.01442262 -0.00509369
v 0.08132704 0.01442262 -0.00509369
v 0.05432704 0.01434202 -0.00506031
v 0.08132704 0.01434202 -0.00506031
v 0.05432704 0.01425882 -0.00503407
v 0.08132704 0.01425882 -0.00503407
v 0.05432704 0.01417365 -0.00501519
v 0.08132704 0.01417365 -0.00501519
v 0.05432704 0.01408716 -0.00500381
v 0.08132704 0.01408716 -0.00500381
v 0.05432704 0.01400000 -0.00500000
v 0.08132704 0.01400000 -0.00500000
v 0.08132704 -0.01500000 0.00000000
v 0.05432704 -0.01500000 0.00000000
v 0.05432704 -0.01543578 -0.00001903
v 0.08132704 -0.01543578 -0.00001903
v 0.05432704 -0.01586824 -0.00007596
v 0.08132704 -0.01586824 -0.00007596
v 0.05432704 -0.01629410 -0.00017037
v 0.08132704 -0.01629410 -0.00017037
v 0.05432704 -0.01671010 -0.00030154
v 0.08132704 -0.01671010 -0.00030154
v 0.05432704 -0.01711309 -0.00046846
v 0.08132704 -0.01711309 -0.00046846
v 0.05432704 -0.01750000 -0.00066987
v 0.08132704 -0.01750000 -0.00066987
v 0.05432704 -0.01786788 -0.00090424
v 0.08132704 -0.01786788 -0.00090424
v 0.05432704 -0.01821394 -0.00116978
v 0.08132704 -0.01821394 -0.00116978
v 0.05432704 -0.01853553 -0.00146447
v 0.08132704 -0.01853553 -0.00146447
v 0.05432704 -0.01883022 -0.00178606
v 0.08132704 -0.01883022 -0.00178606
v 0.05432704 -0.01909576 -0.00213212
v 0.08132704 -0.01909576 -0.00213212
v 0.05432704 -0.01933013 -0.00250000
v 0.08132704 -0.01933013 -0.00250000
v 0.05432704 -0.01953154 -0.00288691
v 0.08132704 -0.01953154 -0.00288691
v 0.05432704 -0.01969846 -0.00328990
v 0.08132704 -0.01969846 -0.00328990
v 0.05432704 -0.01982963 -0.00370590
v 0.08132704 -0.01982963 -0.00370590
v 0.05432704 -0.01992404 -0.00413176
v 0.08132704 -0.01992404 -0.00413176
v 0.05432704 -0.01998097 -0.00456422
v 0.08132704 -0.01998097 -0.00456422
v 0.05432704 -0.02000000 -0.00500000
v 0.08132704 -0.02000000 -0.00500000
v 0.05432704 0.01500000 0.00000000
v 0.08132704 0.01500000 0.00000000
v 0.08132704 0.01543578 -0.00001903
v 0.05432704 0.01543578 -0.00001903
v 0.08132704 0.01586824 -0.00007596
v 0.05432704 0.01586824 -0.00007596
v 0.08132704 0.01629410 -0.00017037
v 0.05432704 0.01629410 -0.00017037
v 0.08132704 0.01671010 -0.00030154
v 0.05432704 0.01671010 -0.00030154
v 0.08132704 0.01711309 -0.00046846
v 0.05432704 0.01711309 -0.00046846
v 0.08132704 0.01750000 -0.00066987
v 0.05432704 0.01750000 -0.00066987
v 0.08132704 0.01786788 -0.00090424
v 0.05432704 0.01786788 -0.00090424
v 0.08132704 0.01821394 -0.00116978
v 0.05432704 0.01821394 -0.00116978
v 0.08132704 0.01853553 -0.00146447
v 0.05432704 0.01853553 -0.00146447
v 0.08132704 0.01883022 -0.00178606
v 0.05432704 0.01883022 -0.00178606
v 0.08132704 0.01909576 -0.00213212
v 0.05432704 0.01909576 -0.00213212
v 0.08132704 0.01933013 -0.00250000
v 0.05432704 0.01933013 -0.00250000
v 0.08132704 0.01953154 -0.00288691
v 0.05432704 0.01953154 -0.00288691
v 0.08132704 0.01969846 -0.00328990
v 0.05432704 0.01969846 -0.00328990
v 0.08132704 0.01982963 -0.00370590
v 0.05432704 0.01982963 -0.00370590
v 0.08132704 0.01992404 -0.00413176
v 0.05432704 0.01992404 -0.00413176
v 0.08132704 0.01998097 -0.00456422
v 0.05432704 0.01998097 -0.00456422
v 0.08132704 0.02000000 -0.00500000
v 0.05432704 0.02000000 -0.00500000
v 0.05432704 -0.01400000 0.00000000
v 0.08337849 -0.00112500 0.00000000
v 0.08328785 -0.00095089 0.00000000
v 0.05257704 -0.00000000 0.00000000
v 0.08348395 0.00129055 0.00000000
v 0.05032704 0.00225000 0.00000000
v 0.08337849 0.00112500 0.00000000
v 0.05052314 0.00224144 0.00000000
v 0.08328785 0.00095089 0.00000000
v 0.08321273 0.00076955 0.00000000
v 0.08315371 0.00058234 0.00000000
v 0.05205064 0.00144627 0.00000000
v 0.05217014 0.00129055 0.00000000
v 0.05227560 0.00112500 0.00000000
v 0.05236623 0.00095089 0.00000000
v 0.05244135 0.00076955 0.00000000
v 0.05256848 0.00019610 0.00000000
v 0.08311123 0.00039071 0.00000000
v 0.05254286 0.00039071 0.00000000
v 0.05250038 0.00058234 0.00000000
v 0.09527377 0.00122018 0.00000000
v 0.08756848 0.00019610 0.00000000
v 0.09532704 0.00000000 0.00000000
v 0.08757704 0.00000000 0.00000000
v 0.09527377 -0.00122018 0.00000000
v 0.08321273 -0.00076955 0.00000000
v 0.08315371 -0.00058234 0.00000000
v 0.08311123 -0.00039071 0.00000000
v 0.08132704 0.01400000 0.00000000
v 0.04955750 0.00211431 0.00000000
v 0.04974470 0.00217333 0.00000000
v 0.09279517 0.00803007 0.00000000
v 0.08691803 0.00159099 0.00000000
v 0.09345140 0.00700000 0.00000000
v 0.08705065 0.00144627 0.00000000
v 0.09401535 0.00591666 0.00000000
v 0.08717014 0.00129055 0.00000000
v 0.09448274 0.00478828 0.00000000
v 0.08727560 0.00112500 0.00000000
v 0.08736624 0.00095089 0.00000000
v 0.09485000 0.00362347 0.00000000
v 0.08744135 0.00076955 0.00000000
v 0.09511435 0.00243107 0.00000000
v 0.08750038 0.00058234 0.00000000
v 0.08754286 0.00039071 0.00000000
v 0.08132704 -0.01400000 0.00000000
v 0.05256848 -0.00019610 0.00000000
v 0.04038032 -0.00122018 0.00000000
v 0.04808560 -0.00019610 0.00000000
v 0.04032704 0.00000000 0.00000000
v 0.04807704 0.00000000 0.00000000
v 0.04038032 0.00122018 0.00000000
v 0.08308560 -0.00019610 0.00000000
v 0.08307704 0.00000000 0.00000000
v 0.08308560 0.00019610 0.00000000
v 0.05090939 0.00217333 0.00000000
v 0.05109659 0.00211431 0.00000000
v 0.05127794 0.00203919 0.00000000
v 0.05145204 0.00194856 0.00000000
v 0.05161759 0.00184309 0.00000000
v 0.04993634 0.00221582 0.00000000
v 0.05013094 0.00224144 0.00000000
v 0.08360344 0.00144627 0.00000000
v 0.08373605 0.00159099 0.00000000
v 0.08388077 0.00172360 0.00000000
v 0.08756848 -0.00019610 0.00000000
v 0.08754286 -0.00039071 0.00000000
v 0.09511435 -0.00243107 0.00000000
v 0.08750038 -0.00058234 0.00000000
v 0.09485000 -0.00362347 0.00000000
v 0.08744135 -0.00076955 0.00000000
v 0.09448274 -0.00478828 0.00000000
v 0.05071775 0.00221582 0.00000000
v 0.05177332 0.00172360 0.00000000
v 0.05191803 0.00159099 0.00000000
v 0.04808560 0.00019610 0.00000000
v 0.04811123 0.00039071 0.00000000
v 0.04053973 0.00243107 0.00000000
v 0.04815371 0.00058234 0.00000000
v 0.04080408 0.00362347 0.00000000
v 0.04821274 0.00076955 0.00000000
v 0.04117135 0.00478828 0.00000000
v 0.08736624 -0.00095089 0.00000000
v 0.08727560 -0.00112500 0.00000000
v 0.09401535 -0.00591666 0.00000000
v 0.08717014 -0.00129055 0.00000000
v 0.09345140 -0.00700000 0.00000000
v 0.08705065 -0.00144627 0.00000000
v 0.09279517 -0.00803007 0.00000000
v 0.05254286 -0.00039071 0.00000000
v 0.05250038 -0.00058234 0.00000000
v 0.05244135 -0.00076955 0.00000000
v 0.05236623 -0.00095089 0.00000000
v 0.05227560 -0.00112500 0.00000000
v 0.05217014 -0.00129055 0.00000000
v 0.04828785 0.00095089 0.00000000
v 0.04837849 0.00112500 0.00000000
v 0.04163874 0.00591666 0.00000000
v 0.04848395 0.00129055 0.00000000
v 0.04220269 0.00700000 0.00000000
v 0.04860345 0.00144627 0.00000000
v 0.04285891 0.00803007 0.00000000
v 0.08388077 -0.00172360 0.00000000
v 0.08373605 -0.00159099 0.00000000
v 0.08360344 -0.00144627 0.00000000
v 0.08348395 -0.00129055 0.00000000
v 0.08403650 0.00184309 0.00000000
v 0.08420204 0.00194856 0.00000000
v 0.08437615 0.00203919 0.00000000
v 0.04117135 -0.00478828 0.00000000
v 0.04828785 -0.00095089 0.00000000
v 0.04080408 -0.00362347 0.00000000
v 0.04821274 -0.00076955 0.00000000
v 0.04053973 -0.00243107 0.00000000
v 0.04815371 -0.00058234 0.00000000
v 0.04811123 -0.00039071 0.00000000
v 0.08455750 -0.00211431 0.00000000
v 0.08437615 -0.00203919 0.00000000
v 0.08455750 0.00211431 0.00000000
v 0.08474470 0.00217333 0.00000000
v 0.08254723 0.01394673 0.00000000
v 0.08493634 0.00221582 0.00000000
v 0.08375812 0.01378731 0.00000000
v 0.08513094 0.00224144 0.00000000
v 0.08495051 0.01352296 0.00000000
v 0.08532704 0.00225000 0.00000000
v 0.08611532 0.01315570 0.00000000
v 0.08552314 0.00224144 0.00000000
v 0.08724370 0.01268831 0.00000000
v 0.08571775 0.00221582 0.00000000
v 0.08832704 0.01212436 0.00000000
v 0.08590939 0.00217333 0.00000000
v 0.08935712 0.01146813 0.00000000
v 0.08609659 0.00211431 0.00000000
v 0.09032607 0.01072462 0.00000000
v 0.08627793 0.00203919 0.00000000
v 0.09122654 0.00989950 0.00000000
v 0.08645204 0.00194856 0.00000000
v 0.09205166 0.00899903 0.00000000
v 0.08661759 0.00184309 0.00000000
v 0.08677331 0.00172360 0.00000000
v 0.05205064 -0.00144627 0.00000000
v 0.05191803 -0.00159099 0.00000000
v 0.05177332 -0.00172360 0.00000000
v 0.08420204 -0.00194856 0.00000000
v 0.08403650 -0.00184309 0.00000000
v 0.04285891 -0.00803007 0.00000000
v 0.04873605 -0.00159099 0.00000000
v 0.04220269 -0.00700000 0.00000000
v 0.04860345 -0.00144627 0.00000000
v 0.04163874 -0.00591666 0.00000000
v 0.04848395 -0.00129055 0.00000000
v 0.04837849 -0.00112500 0.00000000
v 0.05432704 0.01400000 0.00000000
v 0.05310686 0.01394673 0.00000000
v 0.05189597 0.01378731 0.00000000
v 0.04873605 0.00159099 0.00000000
v 0.04888077 0.00172360 0.00000000
v 0.04360242 0.00899903 0.00000000
v 0.04903650 0.00184309 0.00000000
v 0.04442755 0.00989950 0.00000000
v 0.04920204 0.00194856 0.00000000
v 0.04532802 0.01072462 0.00000000
v 0.04937615 0.00203919 0.00000000
v 0.04629697 0.01146813 0.00000000
v 0.04732704 0.01212436 0.00000000
v 0.04841039 0.01268831 0.00000000
v 0.05161759 -0.00184309 0.00000000
v 0.05145204 -0.00194856 0.00000000
v 0.05127794 -0.00203919 0.00000000
v 0.05070358 0.01352296 0.00000000
v 0.04953876 0.01315570 0.00000000
v 0.08691803 -0.00159099 0.00000000
v 0.08677331 -0.00172360 0.00000000
v 0.09205166 -0.00899903 0.00000000
v 0.08661759 -0.00184309 0.00000000
v 0.09122654 -0.00989950 0.00000000
v 0.08645204 -0.00194856 0.00000000
v 0.09032607 -0.01072462 0.00000000
v 0.08627793 -0.00203919 0.00000000
v 0.08935712 -0.01146813 0.00000000
v 0.08609659 -0.00211431 0.00000000
v 0.08832704 -0.01212436 0.00000000
v 0.08590939 -0.00217333 0.00000000
v 0.08724370 -0.01268831 0.00000000
v 0.08571775 -0.00221582 0.00000000
v 0.08611532 -0.01315570 0.00000000
v 0.08552314 -0.00224144 0.00000000
v 0.08495051 -0.01352296 0.00000000
v 0.08532704 -0.00225000 0.00000000
v 0.08375812 -0.01378731 0.00000000
v 0.08513094 -0.00224144 0.00000000
v 0.08254723 -0.01394673 0.00000000
v 0.08493634 -0.00221582 0.00000000
v 0.08474470 -0.00217333 0.00000000
v 0.05109659 -0.00211431 0.00000000
v 0.05090939 -0.00217333 0.00000000
v 0.05310686 -0.01394673 0.00000000
v 0.05071775 -0.00221582 0.00000000
v 0.05189597 -0.01378731 0.00000000
v 0.05052314 -0.00224144 0.00000000
v 0.05070358 -0.01352296 0.00000000
v 0.05032704 -0.00225000 0.00000000
v 0.04953876 -0.01315570 0.00000000
v 0.05013094 -0.00224144 0.00000000
v 0.04841039 -0.01268831 0.00000000
v 0.04993634 -0.00221582 0.00000000
v 0.04732704 -0.01212436 0.00000000
v 0.04974470 -0.00217333 0.00000000
v 0.04629697 -0.01146813 0.00000000
v 0.04955750 -0.00211431 0.00000000
v 0.04532802 -0.01072462 0.00000000
v 0.04937615 -0.00203919 0.00000000
v 0.04442755 -0.00989950 0.00000000
v 0.04920204 -0.00194856 0.00000000
v 0.04360242 -0.00899903 0.00000000
v 0.04903650 -0.00184309 0.00000000
v 0.04888077 -0.00172360 0.00000000
v 0.08321273 -0.00076955 -0.00500000
v 0.04953876 -0.01315570 -0.00500000
v 0.08315371 -0.00058234 -0.00500000
v 0.04841039 -0.01268831 -0.00500000
v 0.08328785 -0.00095089 -0.00500000
v 0.05310686 -0.01394673 -0.00500000
v 0.04732704 -0.01212436 -0.00500000
v 0.04629697 -0.01146813 -0.00500000
v 0.04532802 -0.01072462 -0.00500000
v 0.05189597 -0.01378731 -0.00500000
v 0.05070358 -0.01352296 -0.00500000
v 0.08337849 -0.00112500 -0.00500000
v 0.08348395 -0.00129055 -0.00500000
v 0.08360344 -0.00144627 -0.00500000
v 0.09279517 -0.00803007 -0.00500000
v 0.08691803 -0.00159099 -0.00500000
v 0.09345140 -0.00700000 -0.00500000
v 0.08705065 -0.00144627 -0.00500000
v 0.09401535 -0.00591666 -0.00500000
v 0.08717014 -0.00129055 -0.00500000
v 0.09448274 -0.00478828 -0.00500000
v 0.08727560 -0.00112500 -0.00500000
v 0.08736624 -0.00095089 -0.00500000
v 0.09485000 -0.00362347 -0.00500000
v 0.08744135 -0.00076955 -0.00500000
v 0.09511435 -0.00243107 -0.00500000
v 0.08750038 -0.00058234 -0.00500000
v 0.09527377 -0.00122018 -0.00500000
v 0.08348395 0.00129055 -0.00500000
v 0.08360344 0.00144627 -0.00500000
v 0.08373605 0.00159099 -0.00500000
v 0.08315371 0.00058234 -0.00500000
v 0.04532802 0.01072462 -0.00500000
v 0.04629697 0.01146813 -0.00500000
v 0.09527377 0.00122018 -0.00500000
v 0.08754286 0.00039071 -0.00500000
v 0.09511435 0.00243107 -0.00500000
v 0.08750038 0.00058234 -0.00500000
v 0.09485000 0.00362347 -0.00500000
v 0.08744135 0.00076955 -0.00500000
v 0.09448274 0.00478828 -0.00500000
v 0.08337849 0.00112500 -0.00500000
v 0.08328785 0.00095089 -0.00500000
v 0.05310686 0.01394673 -0.00500000
v 0.08321273 0.00076955 -0.00500000
v 0.05189597 0.01378731 -0.00500000
v 0.05070358 0.01352296 -0.00500000
v 0.04732704 0.01212436 -0.00500000
v 0.04841039 0.01268831 -0.00500000
v 0.04953876 0.01315570 -0.00500000
v 0.04038032 0.00122018 -0.00500000
v 0.04808560 0.00019610 -0.00500000
v 0.04032704 0.00000000 -0.00500000
v 0.04807704 0.00000000 -0.00500000
v 0.04038032 -0.00122018 -0.00500000
v 0.05205064 -0.00144627 -0.00500000
v 0.05217014 -0.00129055 -0.00500000
v 0.05254286 0.00039071 -0.00500000
v 0.08308560 0.00019610 -0.00500000
v 0.05256848 0.00019610 -0.00500000
v 0.08307704 0.00000000 -0.00500000
v 0.05257704 0.00000000 -0.00500000
v 0.05256848 -0.00019610 -0.00500000
v 0.08420204 -0.00194856 -0.00500000
v 0.08437615 -0.00203919 -0.00500000
v 0.08754286 -0.00039071 -0.00500000
v 0.08756848 -0.00019610 -0.00500000
v 0.09532704 0.00000000 -0.00500000
v 0.08757704 0.00000000 -0.00500000
v 0.08756848 0.00019610 -0.00500000
v 0.08736624 0.00095089 -0.00500000
v 0.08727560 0.00112500 -0.00500000
v 0.09401535 0.00591666 -0.00500000
v 0.08717014 0.00129055 -0.00500000
v 0.09345140 0.00700000 -0.00500000
v 0.08705065 0.00144627 -0.00500000
v 0.09279517 0.00803007 -0.00500000
v 0.05227560 -0.00112500 -0.00500000
v 0.05236623 -0.00095089 -0.00500000
v 0.05244135 -0.00076955 -0.00500000
v 0.05250038 -0.00058234 -0.00500000
v 0.05254286 -0.00039071 -0.00500000
v 0.08311123 -0.00039071 -0.00500000
v 0.08308560 -0.00019610 -0.00500000
v 0.08373605 -0.00159099 -0.00500000
v 0.08388077 -0.00172360 -0.00500000
v 0.08403650 -0.00184309 -0.00500000
v 0.05250038 0.00058234 -0.00500000
v 0.08311123 0.00039071 -0.00500000
v 0.05244135 0.00076955 -0.00500000
v 0.05236623 0.00095089 -0.00500000
v 0.05227560 0.00112500 -0.00500000
v 0.04117135 0.00478828 -0.00500000
v 0.04828785 0.00095089 -0.00500000
v 0.04080408 0.00362347 -0.00500000
v 0.04821274 0.00076955 -0.00500000
v 0.04053973 0.00243107 -0.00500000
v 0.04815371 0.00058234 -0.00500000
v 0.04811123 0.00039071 -0.00500000
v 0.04808560 -0.00019610 -0.00500000
v 0.04811123 -0.00039071 -0.00500000
v 0.04053973 -0.00243107 -0.00500000
v 0.04815371 -0.00058234 -0.00500000
v 0.04080408 -0.00362347 -0.00500000
v 0.04821274 -0.00076955 -0.00500000
v 0.04117135 -0.00478828 -0.00500000
v 0.05161759 -0.00184309 -0.00500000
v 0.05177332 -0.00172360 -0.00500000
v 0.05191803 -0.00159099 -0.00500000
v 0.05052314 0.00224144 -0.00500000
v 0.05032704 0.00225000 -0.00500000
v 0.08403650 0.00184309 -0.00500000
v 0.08388077 0.00172360 -0.00500000
v 0.04285891 0.00803007 -0.00500000
v 0.04873605 0.00159099 -0.00500000
v 0.04220269 0.00700000 -0.00500000
v 0.04860345 0.00144627 -0.00500000
v 0.04163874 0.00591666 -0.00500000
v 0.04848395 0.00129055 -0.00500000
v 0.04837849 0.00112500 -0.00500000
v 0.04828785 -0.00095089 -0.00500000
v 0.04837849 -0.00112500 -0.00500000
v 0.04163874 -0.00591666 -0.00500000
v 0.04848395 -0.00129055 -0.00500000
v 0.04220269 -0.00700000 -0.00500000
v 0.04860345 -0.00144627 -0.00500000
v 0.04285891 -0.00803007 -0.00500000
v 0.08455750 0.00211431 -0.00500000
v 0.08437615 0.00203919 -0.00500000
v 0.08420204 0.00194856 -0.00500000
v 0.04955750 -0.00211431 -0.00500000
v 0.04974470 -0.00217333 -0.00500000
v 0.08455750 -0.00211431 -0.00500000
v 0.08474470 -0.00217333 -0.00500000
v 0.08254723 -0.01394673 -0.00500000
v 0.08493634 -0.00221582 -0.00500000
v 0.08375812 -0.01378731 -0.00500000
v 0.08513094 -0.00224144 -0.00500000
v 0.08495051 -0.01352296 -0.00500000
v 0.08532704 -0.00225000 -0.00500000
v 0.08611532 -0.01315570 -0.00500000
v 0.08552314 -0.00224144 -0.00500000
v 0.08724370 -0.01268831 -0.00500000
v 0.08571775 -0.00221582 -0.00500000
v 0.08832704 -0.01212436 -0.00500000
v 0.08590939 -0.00217333 -0.00500000
v 0.08935712 -0.01146813 -0.00500000
v 0.08609659 -0.00211431 -0.00500000
v 0.09032607 -0.01072462 -0.00500000
v 0.08627793 -0.00203919 -0.00500000
v 0.09122654 -0.00989950 -0.00500000
v 0.08645204 -0.00194856 -0.00500000
v 0.09205166 -0.00899903 -0.00500000
v 0.08661759 -0.00184309 -0.00500000
v 0.08677331 -0.00172360 -0.00500000
v 0.08691803 0.00159099 -0.00500000
v 0.08677331 0.00172360 -0.00500000
v 0.09205166 0.00899903 -0.00500000
v 0.08661759 0.00184309 -0.00500000
v 0.09122654 0.00989950 -0.00500000
v 0.08645204 0.00194856 -0.00500000
v 0.09032607 0.01072462 -0.00500000
v 0.08627793 0.00203919 -0.00500000
v 0.08935712 0.01146813 -0.00500000
v 0.08609659 0.00211431 -0.00500000
v 0.08832704 0.01212436 -0.00500000
v 0.08590939 0.00217333 -0.00500000
v 0.08724370 0.01268831 -0.00500000
v 0.08571775 0.00221582 -0.00500000
v 0.08611532 0.01315570 -0.00500000
v 0.08552314 0.00224144 -0.00500000
v 0.08495051 0.01352296 -0.00500000
v 0.08532704 0.00225000 -0.00500000
v 0.08375812 0.01378731 -0.00500000
v 0.08513094 0.00224144 -0.00500000
v 0.08254723 0.01394673 -0.00500000
v 0.08493634 0.00221582 -0.00500000
v 0.08474470 0.00217333 -0.00500000
v 0.05217014 0.00129055 -0.00500000
v 0.05205064 0.00144627 -0.00500000
v 0.05191803 0.00159099 -0.00500000
v 0.05177332 0.00172360 -0.00500000
v 0.05161759 0.00184309 -0.00500000
v 0.04873605 -0.00159099 -0.00500000
v 0.04888077 -0.00172360 -0.00500000
v 0.04360242 -0.00899903 -0.00500000
v 0.04903650 -0.00184309 -0.00500000
v 0.04442755 -0.00989950 -0.00500000
v 0.04920204 -0.00194856 -0.00500000
v 0.04937615 -0.00203919 -0.00500000
v 0.04993634 -0.00221582 -0.00500000
v 0.05013094 -0.00224144 -0.00500000
v 0.05032704 -0.00225000 -0.00500000
v 0.05145204 0.00194856 -0.00500000
v 0.05127794 0.00203919 -0.00500000
v 0.05109659 0.00211431 -0.00500000
v 0.05013094 0.00224144 -0.00500000
v 0.04993634 0.00221582 -0.00500000
v 0.04974470 0.00217333 -0.00500000
v 0.05090939 0.00217333 -0.00500000
v 0.05071775 0.00221582 -0.00500000
v 0.05052314 -0.00224144 -0.00500000
v 0.05071775 -0.00221582 -0.00500000
v 0.05090939 -0.00217333 -0.00500000
v 0.04955750 0.00211431 -0.00500000
v 0.04937615 0.00203919 -0.00500000
v 0.04442755 0.00989950 -0.00500000
v 0.04920204 0.00194856 -0.00500000
v 0.04360242 0.00899903 -0.00500000
v 0.04903650 0.00184309 -0.00500000
v 0.04888077 0.00172360 -0.00500000
v 0.05109659 -0.00211431 -0.00500000
v 0.05127794 -0.00203919 -0.00500000
v 0.05145204 -0.00194856 -0.00500000
v 0.08132704 -0.02000000 -0.01100000
v 0.08132704 -0.01500000 -0.01100000
v 0.05432704 -0.02000000 -0.01100000
v 0.05432704 -0.01500000 -0.01100000
v 0.08132704 0.01500000 -0.01100000
v 0.08132704 0.02000000 -0.01100000
v 0.05432704 0.02000000 -0.01100000
v 0.05432704 0.01500000 -0.01100000
f 1 2 3
f 2 4 3
f 3 4 5
f 4 6 5
f 5 6 7
f 6 8 7
f 7 8 9
f 8 10 9
f 9 10 11
f 10 12 11
f 11 12 13
f 12 14 13
f 13 14 15
f 14 16 15
f 15 16 17
f 16 18 17
f 17 18 19
f 18 20 19
f 19 20 21
f 20 22 21
f 21 22 23
f 22 24 23
f 23 24 25
f 24 26 25
f 25 26 27
f 26 28 27
f 27 28 29
f 28 30 29
f 29 30 31
f 30 32 31
f 31 32 33
f 32 34 33
f 33 34 35
f 34 36 35
f 35 36 37
f 36 38 37
f 39 40 41
f 40 42 41
f 41 42 43
f 42 44 43
f 43 44 45
f 44 46 45
f 45 46 47
f 46 48 47
f 47 48 49
f 48 50 49
f 49 50 51
f 50 52 51
f 51 52 53
f 52 54 53
f 53 54 55
f 54 56 55
f 55 56 57
f 56 58 57
f 57 58 59
f 58 60 59
f 59 60 61
f 60 62 61
f 61 62 63
f 62 64 63
f 63 64 65
f 64 66 65
f 65 66 67
f 66 68 67
f 67 68 69
f 68 70 69
f 69 70 71
f 70 72 71
f 71 72 73
f 72 74 73
f 73 74 75
f 74 76 75
f 77 78 79
f 77 79 80
f 79 81 80
f 80 81 82
f 81 83 82
f 82 83 84
f 83 85 84
f 84 85 86
f 85 87 86
f 86 87 88
f 87 89 88
f 88 89 90
f 89 91 90
f 90 91 92
f 91 93 92
f 92 93 94
f 93 95 94
f 94 95 96
f 95 97 96
f 96 97 98
f 97 99 98
f 98 99 100
f 99 101 100
f 100 101 102
f 101 103 102
f 102 103 104
f 103 105 104
f 104 105 106
f 105 107 106
f 106 107 108
f 107 109 108
f 108 109 110
f 109 111 110
f 110 111 112
f 111 113 112
f 112 113 114
f 115 116 117
f 115 117 118
f 117 119 118
f 118 119 120
f 119 121 120
f 120 121 122
f 121 123 122
f 122 123 124
f 123 125 124
f 124 125 126
f 125 127 126
f 126 127 128
f 127 129 128
f 128 129 130
f 129 131 130
f 130 131 132
f 131 133 132
f 132 133 134
f 133 135 134
f 134 135 136
f 135 137 136
f 136 137 138
f 137 139 138
f 138 139 140
f 139 141 140
f 140 141 142
f 141 143 142
f 142 143 144
f 143 145 144
f 144 145 146
f 145 147 146
f 146 147 148
f 147 149 148
f 148 149 150
f 149 151 150
f 150 151 152
f 153 78 77
f 154 155 156
f 157 158 159
f 158 160 159
f 159 160 161
f 160 162 161
f 163 164 165
f 165 166 163
f 166 167 163
f 163 167 168
f 169 170 171
f 170 163 171
f 171 163 172
f 163 168 172
f 173 174 175
f 174 176 175
f 175 176 177
f 155 178 156
f 178 179 156
f 156 179 180
f 181 182 183
f 184 185 186
f 185 187 186
f 186 187 188
f 187 189 188
f 188 189 190
f 189 191 190
f 191 192 190
f 190 192 193
f 192 194 193
f 193 194 195
f 194 196 195
f 195 196 173
f 196 197 173
f 173 197 174
f 77 198 153
f 198 156 153
f 153 156 199
f 200 201 202
f 201 203 202
f 202 203 204
f 180 205 156
f 205 206 156
f 156 206 169
f 206 207 169
f 169 207 170
f 208 209 163
f 209 210 163
f 210 211 163
f 163 211 212
f 183 213 181
f 213 214 181
f 181 214 158
f 157 215 158
f 215 216 158
f 158 216 181
f 216 217 181
f 176 218 177
f 218 219 177
f 177 219 220
f 219 221 220
f 220 221 222
f 221 223 222
f 222 223 224
f 162 160 163
f 160 225 163
f 163 225 208
f 212 226 163
f 226 227 163
f 163 227 164
f 203 228 204
f 228 229 204
f 204 229 230
f 229 231 230
f 230 231 232
f 231 233 232
f 232 233 234
f 223 235 224
f 235 236 224
f 224 236 237
f 236 238 237
f 237 238 239
f 238 240 239
f 239 240 241
f 199 242 153
f 242 243 153
f 153 243 244
f 244 245 153
f 245 246 153
f 153 246 247
f 233 248 234
f 248 249 234
f 234 249 250
f 249 251 250
f 250 251 252
f 251 253 252
f 252 253 254
f 255 256 198
f 256 257 198
f 198 257 156
f 257 258 156
f 156 258 154
f 217 259 181
f 259 260 181
f 181 260 261
f 262 263 264
f 263 265 264
f 264 265 266
f 265 267 266
f 266 267 200
f 267 268 200
f 200 268 201
f 269 270 198
f 261 271 181
f 271 272 181
f 181 272 273
f 272 274 273
f 273 274 275
f 274 276 275
f 275 276 277
f 276 278 277
f 277 278 279
f 278 280 279
f 279 280 281
f 280 282 281
f 281 282 283
f 282 284 283
f 283 284 285
f 284 286 285
f 285 286 287
f 286 288 287
f 287 288 289
f 288 290 289
f 289 290 291
f 290 292 291
f 291 292 184
f 292 293 184
f 184 293 185
f 247 294 153
f 294 295 153
f 153 295 296
f 270 297 198
f 297 298 198
f 198 298 255
f 299 300 301
f 300 302 301
f 301 302 303
f 302 304 303
f 303 304 262
f 304 305 262
f 262 305 263
f 116 115 181
f 115 306 181
f 181 306 182
f 306 307 182
f 182 307 308
f 253 309 254
f 309 310 254
f 254 310 311
f 310 312 311
f 311 312 313
f 312 314 313
f 313 314 315
f 314 316 315
f 315 316 317
f 316 182 317
f 317 182 318
f 182 319 318
f 296 320 153
f 320 321 153
f 153 321 322
f 308 323 182
f 323 324 182
f 182 324 319
f 240 325 241
f 325 326 241
f 241 326 327
f 326 328 327
f 327 328 329
f 328 330 329
f 329 330 331
f 330 332 331
f 331 332 333
f 332 334 333
f 333 334 335
f 334 336 335
f 335 336 337
f 336 338 337
f 337 338 339
f 338 340 339
f 339 340 341
f 340 342 341
f 341 342 343
f 342 344 343
f 343 344 345
f 344 346 345
f 345 346 198
f 346 347 198
f 198 347 269
f 322 348 153
f 348 349 153
f 153 349 350
f 349 351 350
f 350 351 352
f 351 353 352
f 352 353 354
f 353 355 354
f 354 355 356
f 355 357 356
f 356 357 358
f 357 359 358
f 358 359 360
f 359 361 360
f 360 361 362
f 361 363 362
f 362 363 364
f 363 365 364
f 364 365 366
f 365 367 366
f 366 367 368
f 367 369 368
f 368 369 299
f 369 370 299
f 299 370 300
f 371 372 373
f 372 374 373
f 375 38 371
f 38 376 371
f 374 377 373
f 377 378 373
f 373 378 379
f 376 380 371
f 380 381 371
f 371 381 372
f 375 382 38
f 382 383 38
f 38 383 384
f 385 386 387
f 386 388 387
f 387 388 389
f 388 390 389
f 389 390 391
f 390 392 391
f 392 393 391
f 391 393 394
f 393 395 394
f 394 395 396
f 395 397 396
f 396 397 398
f 399 75 400
f 75 401 400
f 402 403 404
f 405 406 407
f 406 408 407
f 407 408 409
f 408 410 409
f 409 410 411
f 399 412 75
f 412 413 75
f 75 413 414
f 413 415 414
f 414 415 416
f 415 417 416
f 404 418 402
f 418 419 402
f 402 419 415
f 419 420 415
f 415 420 417
f 421 422 423
f 422 424 423
f 423 424 425
f 426 427 373
f 428 429 430
f 429 431 430
f 430 431 432
f 431 433 432
f 434 435 37
f 397 436 398
f 436 437 398
f 398 437 438
f 437 439 438
f 438 439 405
f 439 440 405
f 405 440 406
f 410 441 411
f 441 442 411
f 411 442 443
f 442 444 443
f 443 444 445
f 444 446 445
f 445 446 447
f 427 448 373
f 448 449 373
f 373 449 450
f 450 451 373
f 451 452 373
f 373 452 453
f 452 433 453
f 453 433 454
f 433 431 454
f 384 455 38
f 455 456 38
f 38 456 37
f 456 457 37
f 37 457 434
f 458 402 428
f 402 459 428
f 428 459 429
f 458 460 402
f 460 461 402
f 402 461 462
f 463 464 465
f 464 466 465
f 465 466 467
f 466 468 467
f 467 468 421
f 468 469 421
f 421 469 422
f 424 470 425
f 470 471 425
f 425 471 472
f 471 473 472
f 472 473 474
f 473 475 474
f 474 475 476
f 477 478 373
f 478 479 373
f 373 479 426
f 480 481 403
f 76 482 75
f 482 483 75
f 75 483 401
f 484 485 486
f 485 487 486
f 486 487 488
f 487 489 488
f 488 489 463
f 489 490 463
f 463 490 464
f 475 491 476
f 491 492 476
f 476 492 493
f 492 494 493
f 493 494 495
f 494 496 495
f 495 496 497
f 498 499 76
f 499 500 76
f 76 500 482
f 379 501 502
f 435 503 37
f 503 504 37
f 37 504 505
f 504 506 505
f 505 506 507
f 506 508 507
f 507 508 509
f 508 510 509
f 509 510 511
f 510 512 511
f 511 512 513
f 512 514 513
f 513 514 515
f 514 516 515
f 515 516 517
f 516 518 517
f 517 518 519
f 518 520 519
f 519 520 521
f 520 522 521
f 521 522 523
f 522 524 523
f 523 524 385
f 524 525 385
f 385 525 386
f 446 526 447
f 526 527 447
f 447 527 528
f 527 529 528
f 528 529 530
f 529 531 530
f 530 531 532
f 531 533 532
f 532 533 534
f 533 535 534
f 534 535 536
f 535 537 536
f 536 537 538
f 537 539 538
f 538 539 540
f 539 541 540
f 540 541 542
f 541 543 542
f 542 543 544
f 543 545 544
f 544 545 546
f 545 547 546
f 546 547 76
f 547 548 76
f 76 548 498
f 462 549 402
f 549 550 402
f 402 550 551
f 551 552 402
f 552 553 402
f 402 553 403
f 496 554 497
f 554 555 497
f 497 555 556
f 555 557 556
f 556 557 558
f 557 559 558
f 558 559 379
f 559 560 379
f 379 560 501
f 502 561 379
f 561 562 379
f 379 562 563
f 553 564 403
f 564 565 403
f 403 565 566
f 481 567 403
f 567 568 403
f 403 568 569
f 566 570 403
f 570 571 403
f 403 571 480
f 563 572 379
f 572 573 379
f 379 573 574
f 569 575 403
f 575 576 403
f 403 576 577
f 576 578 577
f 577 578 579
f 578 580 579
f 579 580 484
f 580 581 484
f 484 581 485
f 574 582 379
f 582 583 379
f 379 583 373
f 583 584 373
f 373 584 477
f 439 176 440
f 176 174 440
f 440 174 406
f 174 197 406
f 406 197 408
f 197 196 408
f 408 196 410
f 196 194 410
f 410 194 441
f 194 192 441
f 441 192 442
f 192 191 442
f 442 191 444
f 191 189 444
f 444 189 446
f 189 187 446
f 446 187 526
f 187 185 526
f 526 185 527
f 185 293 527
f 527 293 529
f 293 292 529
f 529 292 531
f 292 290 531
f 531 290 533
f 290 288 533
f 533 288 535
f 288 286 535
f 535 286 537
f 286 284 537
f 537 284 539
f 284 282 539
f 539 282 541
f 282 280 541
f 541 280 543
f 280 278 543
f 543 278 545
f 278 276 545
f 545 276 547
f 276 274 547
f 547 274 548
f 274 272 548
f 548 272 498
f 272 271 498
f 498 271 499
f 271 261 499
f 499 261 500
f 261 260 500
f 500 260 482
f 260 259 482
f 482 259 483
f 259 217 483
f 483 217 401
f 217 216 401
f 401 216 400
f 216 215 400
f 400 215 399
f 215 157 399
f 399 157 412
f 157 159 412
f 412 159 413
f 159 161 413
f 413 161 415
f 161 162 415
f 415 162 402
f 162 163 402
f 402 163 459
f 163 170 459
f 459 170 429
f 170 207 429
f 429 207 431
f 207 206 431
f 431 206 454
f 206 205 454
f 454 205 453
f 205 180 453
f 453 180 373
f 180 179 373
f 373 179 371
f 179 178 371
f 371 178 375
f 178 155 375
f 375 155 382
f 155 154 382
f 382 154 383
f 154 258 383
f 383 258 384
f 258 257 384
f 384 257 455
f 257 256 455
f 455 256 456
f 256 255 456
f 456 255 457
f 255 298 457
f 457 298 434
f 298 297 434
f 434 297 435
f 297 270 435
f 435 270 503
f 270 269 503
f 503 269 504
f 269 347 504
f 504 347 506
f 347 346 506
f 506 346 508
f 346 344 508
f 508 344 510
f 344 342 510
f 510 342 512
f 342 340 512
f 512 340 514
f 340 338 514
f 514 338 516
f 338 336 516
f 516 336 518
f 336 334 518
f 518 334 520
f 334 332 520
f 520 332 522
f 332 330 522
f 522 330 524
f 330 328 524
f 524 328 525
f 328 326 525
f 525 326 386
f 326 325 386
f 386 325 388
f 325 240 388
f 388 240 390
f 240 238 390
f 390 238 392
f 238 236 392
f 392 236 393
f 236 235 393
f 393 235 395
f 235 223 395
f 395 223 397
f 223 221 397
f 397 221 436
f 221 219 436
f 436 219 437
f 219 218 437
f 437 218 439
f 218 176 439
f 432 156 430
f 156 169 430
f 430 169 428
f 169 171 428
f 428 171 458
f 171 172 458
f 458 172 460
f 172 168 460
f 460 168 461
f 168 167 461
f 461 167 462
f 167 166 462
f 462 166 549
f 166 165 549
f 549 165 550
f 165 164 550
f 550 164 551
f 164 227 551
f 551 227 552
f 227 226 552
f 552 226 553
f 226 212 553
f 553 212 564
f 212 211 564
f 564 211 565
f 211 210 565
f 565 210 566
f 210 209 566
f 566 209 570
f 209 208 570
f 570 208 571
f 208 225 571
f 571 225 480
f 225 160 480
f 480 160 481
f 160 158 481
f 481 158 567
f 158 214 567
f 567 214 568
f 214 213 568
f 568 213 569
f 213 183 569
f 569 183 575
f 183 182 575
f 575 182 576
f 182 316 576
f 576 316 578
f 316 314 578
f 578 314 580
f 314 312 580
f 580 312 581
f 312 310 581
f 581 310 485
f 310 309 485
f 485 309 487
f 309 253 487
f 487 253 489
f 253 251 489
f 489 251 490
f 251 249 490
f 490 249 464
f 249 248 464
f 464 248 466
f 248 233 466
f 466 233 468
f 233 231 468
f 468 231 469
f 231 229 469
f 469 229 422
f 229 228 422
f 422 228 424
f 228 203 424
f 424 203 470
f 203 201 470
f 470 201 471
f 201 268 471
f 471 268 473
f 268 267 473
f 473 267 475
f 267 265 475
f 475 265 491
f 265 263 491
f 491 263 492
f 263 305 492
f 492 305 494
f 305 304 494
f 494 304 496
f 304 302 496
f 496 302 554
f 302 300 554
f 554 300 555
f 300 370 555
f 555 370 557
f 370 369 557
f 557 369 559
f 369 367 559
f 559 367 560
f 367 365 560
f 560 365 501
f 365 363 501
f 501 363 502
f 363 361 502
f 502 361 561
f 361 359 561
f 561 359 562
f 359 357 562
f 562 357 563
f 357 355 563
f 563 355 572
f 355 353 572
f 572 353 573
f 353 351 573
f 573 351 574
f 351 349 574
f 574 349 582
f 349 348 582
f 582 348 583
f 348 322 583
f 583 322 584
f 322 321 584
f 584 321 477
f 321 320 477
f 477 320 478
f 320 296 478
f 478 296 479
f 296 295 479
f 479 295 426
f 295 294 426
f 426 294 427
f 294 247 427
f 427 247 448
f 247 246 448
f 448 246 449
f 246 245 449
f 449 245 450
f 245 244 450
f 450 244 451
f 244 243 451
f 451 243 452
f 243 242 452
f 452 242 433
f 242 199 433
f 433 199 432
f 199 156 432
f 38 153 350
f 38 350 376
f 350 352 376
f 376 352 380
f 352 354 380
f 380 354 381
f 354 356 381
f 381 356 372
f 356 358 372
f 372 358 374
f 358 360 374
f 374 360 377
f 360 362 377
f 377 362 378
f 362 364 378
f 378 364 379
f 364 366 379
f 379 366 558
f 366 368 558
f 558 368 556
f 368 299 556
f 556 299 497
f 299 301 497
f 497 301 495
f 301 303 495
f 495 303 493
f 303 262 493
f 493 262 476
f 262 264 476
f 476 264 474
f 264 266 474
f 474 266 472
f 266 200 472
f 472 200 425
f 200 202 425
f 425 202 423
f 202 204 423
f 423 204 421
f 204 230 421
f 421 230 467
f 230 232 467
f 467 232 465
f 232 234 465
f 465 234 463
f 234 250 463
f 463 250 488
f 250 252 488
f 488 252 486
f 252 254 486
f 486 254 484
f 254 311 484
f 484 311 579
f 311 313 579
f 579 313 577
f 313 315 577
f 577 315 403
f 315 317 403
f 403 317 404
f 317 318 404
f 404 318 418
f 318 319 418
f 418 319 419
f 319 324 419
f 419 324 420
f 324 323 420
f 420 323 417
f 323 308 417
f 417 308 416
f 308 307 416
f 416 307 414
f 307 306 414
f 414 306 75
f 76 181 273
f 76 273 546
f 273 275 546
f 546 275 544
f 275 277 544
f 544 277 542
f 277 279 542
f 542 279 540
f 279 281 540
f 540 281 538
f 281 283 538
f 538 283 536
f 283 285 536
f 536 285 534
f 285 287 534
f 534 287 532
f 287 289 532
f 532 289 530
f 289 291 530
f 530 291 528
f 291 184 528
f 528 184 447
f 184 186 447
f 447 186 445
f 186 188 445
f 445 188 443
f 188 190 443
f 443 190 411
f 190 193 411
f 411 193 409
f 193 195 409
f 409 195 407
f 195 173 407
f 407 173 405
f 173 175 405
f 405 175 438
f 175 177 438
f 438 177 398
f 177 220 398
f 398 220 396
f 220 222 396
f 396 222 394
f 222 224 394
f 394 224 391
f 224 237 391
f 391 237 389
f 237 239 389
f 389 239 387
f 239 241 387
f 387 241 385
f 241 327 385
f 385 327 523
f 327 329 523
f 523 329 521
f 329 331 521
f 521 331 519
f 331 333 519
f 519 333 517
f 333 335 517
f 517 335 515
f 335 337 515
f 515 337 513
f 337 339 513
f 513 339 511
f 339 341 511
f 511 341 509
f 341 343 509
f 509 343 507
f 343 345 507
f 507 345 505
f 345 198 505
f 505 198 37
f 585 586 114
f 586 1 114
f 1 3 114
f 3 5 114
f 114 5 112
f 5 7 112
f 112 7 110
f 7 9 110
f 23 92 21
f 92 94 21
f 21 94 19
f 94 96 19
f 19 96 17
f 37 198 35
f 198 77 35
f 35 77 33
f 77 31 33
f 96 98 17
f 98 100 17
f 17 100 15
f 100 102 15
f 15 102 13
f 102 104 13
f 13 104 11
f 104 106 11
f 11 106 9
f 106 108 9
f 9 108 110
f 77 80 31
f 80 82 31
f 31 82 29
f 82 84 29
f 29 84 27
f 84 86 27
f 27 86 25
f 86 88 25
f 25 88 23
f 88 90 23
f 23 90 92
f 113 587 114
f 587 585 114
f 585 587 586
f 587 588 586
f 1 586 2
f 586 588 2
f 8 6 113
f 588 587 2
f 587 113 2
f 2 113 4
f 113 6 4
f 78 153 38
f 113 111 8
f 111 109 8
f 8 109 10
f 109 107 10
f 10 107 12
f 107 105 12
f 12 105 14
f 105 103 14
f 14 103 16
f 103 101 16
f 101 99 16
f 16 99 18
f 99 97 18
f 18 97 20
f 97 95 20
f 20 95 22
f 95 93 22
f 93 91 22
f 22 91 24
f 91 89 24
f 24 89 26
f 89 87 26
f 26 87 28
f 87 85 28
f 28 85 30
f 38 36 78
f 36 34 78
f 78 34 79
f 34 32 79
f 79 32 81
f 32 30 81
f 81 30 83
f 30 85 83
f 46 44 151
f 589 590 40
f 590 151 40
f 40 151 42
f 151 44 42
f 116 181 76
f 54 137 56
f 137 135 56
f 56 135 58
f 135 133 58
f 58 133 60
f 151 149 46
f 149 147 46
f 46 147 48
f 147 145 48
f 48 145 50
f 145 143 50
f 50 143 52
f 143 141 52
f 52 141 54
f 141 139 54
f 54 139 137
f 133 131 60
f 131 129 60
f 60 129 62
f 129 127 62
f 62 127 64
f 127 125 64
f 64 125 66
f 125 123 66
f 66 123 68
f 76 74 116
f 74 72 116
f 116 72 117
f 72 70 117
f 117 70 119
f 70 68 119
f 119 68 121
f 68 123 121
f 151 590 152
f 590 591 152
f 591 592 152
f 592 39 152
f 39 41 152
f 41 43 152
f 152 43 150
f 43 45 150
f 150 45 148
f 45 47 148
f 61 130 59
f 130 132 59
f 59 132 57
f 132 134 57
f 57 134 55
f 75 306 73
f 306 115 73
f 73 115 71
f 115 69 71
f 134 136 55
f 136 138 55
f 55 138 53
f 138 140 53
f 53 140 51
f 140 142 51
f 51 142 49
f 142 144 49
f 49 144 47
f 144 146 47
f 47 146 148
f 115 118 69
f 118 120 69
f 69 120 67
f 120 122 67
f 67 122 65
f 122 124 65
f 65 124 63
f 124 126 63
f 63 126 61
f 126 128 61
f 61 128 130
f 589 592 590
f 592 591 590
f 39 592 40
f 592 589 40

