# https://github.com/mikedh/trimesh

o tm25_235s_p09_clevis_side.stl
v 0.00476250 -0.03727046 0.22327723
v 0.00000000 -0.03727046 0.22327723
v 0.00476250 -0.03737564 0.22320610
v 0.00000000 -0.03737564 0.22320610
v 0.00476250 -0.03748646 0.22314411
v 0.00000000 -0.03748646 0.22314411
v 0.00476250 -0.03760213 0.22309174
v 0.00000000 -0.03760213 0.22309174
v 0.00476250 -0.03772181 0.22304933
v 0.00000000 -0.03772181 0.22304933
v 0.00476250 -0.03784464 0.22301719
v 0.00000000 -0.03784464 0.22301719
v 0.00476250 -0.03796976 0.22299555
v 0.00000000 -0.03796976 0.22299555
v 0.00476250 -0.03809625 0.22298458
v 0.00000000 -0.03809625 0.22298458
v 0.00476250 -0.03822322 0.22298434
v 0.00000000 -0.03822322 0.22298434
v 0.00476250 -0.03834976 0.22299485
v 0.00000000 -0.03834976 0.22299485
v 0.00476250 -0.03847495 0.22301601
v 0.00000000 -0.03847495 0.22301601
v 0.00476250 -0.03859791 0.22304769
v 0.00000000 -0.03859791 0.22304769
v 0.00476250 -0.03871775 0.22308965
v 0.00000000 -0.03871775 0.22308965
v 0.00476250 -0.03883361 0.22314160
v 0.00000000 -0.03883361 0.22314160
v 0.00476250 -0.03894466 0.22320315
v 0.00000000 -0.03894466 0.22320315
v 0.00476250 -0.03905010 0.22327387
v 0.00000000 -0.03905010 0.22327387
v 0.00476250 -0.03914919 0.22335328
v 0.00000000 -0.03914919 0.22335328
v 0.00476250 -0.03924121 0.22344077
v 0.00000000 -0.03924121 0.22344077
v 0.00476250 -0.03932550 0.22353572
v 0.00000000 -0.03932550 0.22353572
v 0.00476250 -0.03940145 0.22363748
v 0.00000000 -0.03940145 0.22363748
v 0.00476250 -0.03946853 0.22374527
v 0.00000000 -0.03946853 0.22374527
v 0.00476250 -0.03952625 0.22385837
v 0.00000000 -0.03952625 0.22385837
v 0.00476250 -0.03957421 0.22397594
v 0.00000000 -0.03957421 0.22397594
v 0.00476250 -0.03961204 0.22409715
v 0.00000000 -0.03961204 0.22409715
v 0.00476250 -0.03963949 0.22422111
v 0.00000000 -0.03963949 0.22422111
v 0.00476250 -0.03965636 0.22434695
v 0.00000000 -0.03965636 0.22434695
v 0.00476250 -0.03966252 0.22447377
v 0.00000000 -0.03966252 0.22447377
v 0.00476250 -0.03965794 0.22460067
v 0.00000000 -0.03965794 0.22460067
v 0.00476250 -0.03964264 0.22472671
v 0.00000000 -0.03964264 0.22472671
v 0.00476250 -0.03961673 0.22485101
v 0.00000000 -0.03961673 0.22485101
v 0.00476250 -0.03958041 0.22497268
v 0.00000000 -0.03958041 0.22497268
v 0.00476250 -0.03953393 0.22509083
v 0.00000000 -0.03953393 0.22509083
v 0.00476250 -0.03947762 0.22520463
v 0.00000000 -0.03947762 0.22520463
v 0.00476250 -0.02588522 0.22672415
v 0.00000000 -0.02588522 0.22672415
v 0.00476250 -0.02577783 0.22679664
v 0.00000000 -0.02577783 0.22679664
v 0.00476250 -0.02566459 0.22685958
v 0.00000000 -0.02566459 0.22685958
v 0.00476250 -0.02554634 0.22691251
v 0.00000000 -0.02554634 0.22691251
v 0.00476250 -0.02542397 0.22695506
v 0.00000000 -0.02542397 0.22695506
v 0.00476250 -0.02529838 0.22698687
v 0.00000000 -0.02529838 0.22698687
v 0.00476250 -0.02517051 0.22700773
v 0.00000000 -0.02517051 0.22700773
v 0.00476250 -0.02504133 0.22701749
v 0.00000000 -0.02504133 0.22701749
v 0.00476250 -0.02491178 0.22701605
v 0.00000000 -0.02491178 0.22701605
v 0.00476250 -0.02478283 0.22700344
v 0.00000000 -0.02478283 0.22700344
v 0.00476250 -0.02465546 0.22697976
v 0.00000000 -0.02465546 0.22697976
v 0.00476250 -0.02453061 0.22694518
v 0.00000000 -0.02453061 0.22694518
v 0.00476250 -0.02440920 0.22689994
v 0.00000000 -0.02440920 0.22689994
v 0.00476250 -0.02429216 0.22684440
v 0.00000000 -0.02429216 0.22684440
v 0.00476250 -0.02418034 0.22677897
v 0.00000000 -0.02418034 0.22677897
v 0.00476250 -0.02407458 0.22670412
v 0.00000000 -0.02407458 0.22670412
v 0.00476250 -0.02397568 0.22662044
v 0.00000000 -0.02397568 0.22662044
v 0.00476250 -0.02388437 0.22652854
v 0.00000000 -0.02388437 0.22652854
v 0.00476250 -0.02380132 0.22642909
v 0.00000000 -0.02380132 0.22642909
v 0.00476250 -0.02372717 0.22632284
v 0.00000000 -0.02372717 0.22632284
v 0.00476250 -0.02366247 0.22621061
v 0.00000000 -0.02366247 0.22621061
v 0.00476250 -0.02360769 0.22609320
v 0.00000000 -0.02360769 0.22609320
v 0.00476250 -0.02356324 0.22597151
v 0.00000000 -0.02356324 0.22597151
v 0.00476250 -0.02352947 0.22584644
v 0.00000000 -0.02352947 0.22584644
v 0.00476250 -0.02350661 0.22571892
v 0.00000000 -0.02350661 0.22571892
v 0.00476250 -0.02349484 0.22558989
v 0.00000000 -0.02349484 0.22558989
v 0.00476250 -0.02349425 0.22546034
v 0.00000000 -0.02349425 0.22546034
v 0.00476250 -0.02350484 0.22533122
v 0.00000000 -0.02350484 0.22533122
v 0.00476250 -0.02352653 0.22520348
v 0.00000000 -0.02352653 0.22520348
v 0.00476250 -0.02754268 0.19485852
v 0.00000000 -0.02754268 0.19485852
v 0.00476250 -0.02755510 0.19472855
v 0.00000000 -0.02755510 0.19472855
v 0.00476250 -0.02757877 0.19460018
v 0.00000000 -0.02757877 0.19460018
v 0.00476250 -0.02761352 0.19447434
v 0.00000000 -0.02761352 0.19447434
v 0.00476250 -0.02765907 0.19435199
v 0.00000000 -0.02765907 0.19435199
v 0.00476250 -0.02771509 0.19423407
v 0.00000000 -0.02771509 0.19423407
v 0.00476250 -0.02778115 0.19412148
v 0.00000000 -0.02778115 0.19412148
v 0.00476250 -0.02785676 0.19401504
v 0.00000000 -0.02785676 0.19401504
v 0.00476250 -0.02794133 0.19391559
v 0.00000000 -0.02794133 0.19391559
v 0.00476250 -0.02803422 0.19382387
v 0.00000000 -0.02803422 0.19382387
v 0.00476250 -0.02813474 0.19374058
v 0.00000000 -0.02813474 0.19374058
v 0.00476250 -0.02824213 0.19366632
v 0.00000000 -0.02824213 0.19366632
v 0.00476250 -0.02835556 0.19360170
v 0.00000000 -0.02835556 0.19360170
v 0.00476250 -0.02847418 0.19354719
v 0.00000000 -0.02847418 0.19354719
v 0.00476250 -0.02859709 0.19350319
v 0.00000000 -0.02859709 0.19350319
v 0.00476250 -0.02872336 0.19347005
v 0.00000000 -0.02872336 0.19347005
v 0.00476250 -0.02885203 0.19344801
v 0.00000000 -0.02885203 0.19344801
v 0.00476250 -0.02898214 0.19343725
v 0.00000000 -0.02898214 0.19343725
v 0.00476250 -0.02911269 0.19343783
v 0.00000000 -0.02911269 0.19343783
v 0.00476250 -0.02924269 0.19344977
v 0.00000000 -0.02924269 0.19344977
v 0.00476250 -0.02937116 0.19347297
v 0.00000000 -0.02937116 0.19347297
v 0.00476250 -0.02949713 0.19350724
v 0.00000000 -0.02949713 0.19350724
v 0.00476250 -0.02961964 0.19355233
v 0.00000000 -0.02961964 0.19355233
v 0.00476250 -0.02973776 0.19360791
v 0.00000000 -0.02973776 0.19360791
v 0.00476250 -0.02985061 0.19367357
v 0.00000000 -0.02985061 0.19367357
v 0.00476250 -0.02995732 0.19374877
v 0.00000000 -0.02995732 0.19374877
v 0.00476250 -0.03005708 0.19383296
v 0.00000000 -0.03005708 0.19383296
v 0.00476250 -0.03014915 0.19392551
v 0.00000000 -0.03014915 0.19392551
v 0.00476250 -0.03023282 0.19402573
v 0.00000000 -0.03023282 0.19402573
v 0.00476250 -0.03030747 0.19413283
v 0.00000000 -0.03030747 0.19413283
v 0.00476250 -0.03037251 0.19424602
v 0.00000000 -0.03037251 0.19424602
v 0.00476250 -0.04594705 0.21003747
v 0.00000000 -0.04594705 0.21003747
v 0.00476250 -0.04590413 0.21015629
v 0.00000000 -0.04590413 0.21015629
v 0.00476250 -0.04585135 0.21027108
v 0.00000000 -0.04585135 0.21027108
v 0.00476250 -0.04578911 0.21038102
v 0.00000000 -0.04578911 0.21038102
v 0.00476250 -0.04571784 0.21048534
v 0.00000000 -0.04571784 0.21048534
v 0.00476250 -0.04563804 0.21058328
v 0.00000000 -0.04563804 0.21058328
v 0.00476250 -0.04555028 0.21067417
v 0.00000000 -0.04555028 0.21067417
v 0.00476250 -0.04545518 0.21075733
v 0.00000000 -0.04545518 0.21075733
v 0.00476250 -0.04535342 0.21083221
v 0.00000000 -0.04535342 0.21083221
v 0.00476250 -0.04524573 0.21089827
v 0.00000000 -0.04524573 0.21089827
v 0.00476250 -0.04513285 0.21095501
v 0.00000000 -0.04513285 0.21095501
v 0.00476250 -0.04501560 0.21100207
v 0.00000000 -0.04501560 0.21100207
v 0.00476250 -0.04489481 0.21103908
v 0.00000000 -0.04489481 0.21103908
v 0.00476250 -0.04477133 0.21106581
v 0.00000000 -0.04477133 0.21106581
v 0.00476250 -0.04464604 0.21108204
v 0.00000000 -0.04464604 0.21108204
v 0.00476250 -0.04451983 0.21108769
v 0.00000000 -0.04451983 0.21108769
v 0.00476250 -0.04439359 0.21108268
v 0.00000000 -0.04439359 0.21108268
v 0.00476250 -0.04426822 0.21106707
v 0.00000000 -0.04426822 0.21106707
v 0.00476250 -0.04414461 0.21104097
v 0.00000000 -0.04414461 0.21104097
v 0.00476250 -0.04402364 0.21100456
v 0.00000000 -0.04402364 0.21100456
v 0.00476250 -0.04390615 0.21095809
v 0.00000000 -0.04390615 0.21095809
v 0.00476250 -0.04379300 0.21090190
v 0.00000000 -0.04379300 0.21090190
v 0.00476250 -0.04368497 0.21083640
v 0.00000000 -0.04368497 0.21083640
v 0.00476250 -0.04358284 0.21076202
v 0.00000000 -0.04358284 0.21076202
v 0.00476250 -0.04348733 0.21067934
v 0.00000000 -0.04348733 0.21067934
v 0.00476250 -0.04339911 0.21058889
v 0.00000000 -0.04339911 0.21058889
v 0.00476250 -0.04331882 0.21049134
v 0.00000000 -0.04331882 0.21049134
v 0.00476250 -0.04324703 0.21038739
v 0.00000000 -0.04324703 0.21038739
v 0.00476250 -0.04318423 0.21027777
v 0.00000000 -0.04318423 0.21027777
v 0.00476250 -0.03362802 0.23439321
v 0.00000000 -0.03362802 0.23439321
v 0.00476250 -0.03349592 0.23455848
v 0.00000000 -0.03349592 0.23455848
v 0.00476250 -0.03335032 0.23471199
v 0.00000000 -0.03335032 0.23471199
v 0.00476250 -0.03319226 0.23485263
v 0.00000000 -0.03319226 0.23485263
v 0.00476250 -0.03302287 0.23497941
v 0.00000000 -0.03302287 0.23497941
v 0.00476250 -0.03284338 0.23509140
v 0.00000000 -0.03284338 0.23509140
v 0.00476250 -0.03265505 0.23518781
v 0.00000000 -0.03265505 0.23518781
v 0.00476250 -0.03245925 0.23526797
v 0.00000000 -0.03245925 0.23526797
v 0.00476250 -0.03225737 0.23533128
v 0.00000000 -0.03225737 0.23533128
v 0.00476250 -0.03205086 0.23537728
v 0.00000000 -0.03205086 0.23537728
v 0.00476250 -0.03184120 0.23540567
v 0.00000000 -0.03184120 0.23540567
v 0.00476250 -0.03162990 0.23541623
v 0.00000000 -0.03162990 0.23541623
v 0.00476250 -0.03141845 0.23540889
v 0.00000000 -0.03141845 0.23540889
v 0.00476250 -0.03120839 0.23538369
v 0.00000000 -0.03120839 0.23538369
v 0.00476250 -0.03100120 0.23534082
v 0.00000000 -0.03100120 0.23534082
v 0.00476250 -0.03079839 0.23528059
v 0.00000000 -0.03079839 0.23528059
v 0.00476250 -0.03060139 0.23520342
v 0.00000000 -0.03060139 0.23520342
v 0.00476250 -0.03041162 0.23510987
v 0.00000000 -0.03041162 0.23510987
v 0.00476250 -0.03023045 0.23500061
v 0.00000000 -0.03023045 0.23500061
v 0.00476250 -0.03005916 0.23487642
v 0.00000000 -0.03005916 0.23487642
v 0.00476250 -0.02989898 0.23473820
v 0.00000000 -0.02989898 0.23473820
v 0.00476250 -0.02975106 0.23458692
v 0.00000000 -0.02975106 0.23458692
v 0.00476250 -0.02868027 0.23359424
v 0.00000000 -0.02868027 0.23359424
v 0.00476250 -0.02851941 0.23345925
v 0.00000000 -0.02851941 0.23345925
v 0.00476250 -0.02837045 0.23331124
v 0.00000000 -0.02837045 0.23331124
v 0.00476250 -0.02823444 0.23315124
v 0.00000000 -0.02823444 0.23315124
v 0.00476250 -0.02811233 0.23298040
v 0.00000000 -0.02811233 0.23298040
v 0.00476250 -0.02800499 0.23279992
v 0.00000000 -0.02800499 0.23279992
v 0.00476250 -0.02791318 0.23261106
v 0.00000000 -0.02791318 0.23261106
v 0.00476250 -0.02783754 0.23241515
v 0.00000000 -0.02783754 0.23241515
v 0.00476250 -0.02777861 0.23221360
v 0.00000000 -0.02777861 0.23221360
v 0.00476250 -0.02773680 0.23200780
v 0.00000000 -0.02773680 0.23200780
v 0.00476250 -0.02771241 0.23179923
v 0.00000000 -0.02771241 0.23179923
v 0.00476250 -0.02770561 0.23158935
v 0.00000000 -0.02770561 0.23158935
v 0.00476250 -0.02771645 0.23137964
v 0.00000000 -0.02771645 0.23137964
v 0.00476250 -0.02774485 0.23117158
v 0.00000000 -0.02774485 0.23117158
v 0.00476250 -0.02779062 0.23096663
v 0.00000000 -0.02779062 0.23096663
v 0.00476250 -0.02785341 0.23076624
v 0.00000000 -0.02785341 0.23076624
v 0.00476250 -0.02793281 0.23057184
v 0.00000000 -0.02793281 0.23057184
v 0.00476250 -0.02802824 0.23038478
v 0.00000000 -0.02802824 0.23038478
v 0.00476250 -0.02813903 0.23020639
v 0.00000000 -0.02813903 0.23020639
v 0.00476250 -0.02826441 0.23003793
v 0.00000000 -0.02826441 0.23003793
v 0.00476250 -0.02840348 0.22988059
v 0.00000000 -0.02840348 0.22988059
v 0.00476250 -0.02855526 0.22973546
v 0.00000000 -0.02855526 0.22973546
v 0.00476250 -0.02871869 0.22960359
v 0.00000000 -0.02871869 0.22960359
v 0.00476250 -0.04726106 0.18493290
v 0.00000000 -0.04726106 0.18493290
v 0.00476250 -0.04747155 0.18494177
v 0.00000000 -0.04747155 0.18494177
v 0.00476250 -0.04768054 0.18496834
v 0.00000000 -0.04768054 0.18496834
v 0.00476250 -0.04788655 0.18501242
v 0.00000000 -0.04788655 0.18501242
v 0.00476250 -0.04808812 0.18507366
v 0.00000000 -0.04808812 0.18507366
v 0.00476250 -0.04828382 0.18515168
v 0.00000000 -0.04828382 0.18515168
v 0.00476250 -0.04847225 0.18524589
v 0.00000000 -0.04847225 0.18524589
v 0.00476250 -0.04865208 0.18535562
v 0.00000000 -0.04865208 0.18535562
v 0.00476250 -0.04882203 0.18548012
v 0.00000000 -0.04882203 0.18548012
v 0.00476250 -0.04898091 0.18561848
v 0.00000000 -0.04898091 0.18561848
v 0.00476250 -0.04912756 0.18576972
v 0.00000000 -0.04912756 0.18576972
v 0.00476250 -0.04926097 0.18593277
v 0.00000000 -0.04926097 0.18593277
v 0.00476250 -0.04938016 0.18610647
v 0.00000000 -0.04938016 0.18610647
v 0.00476250 -0.04948432 0.18628959
v 0.00000000 -0.04948432 0.18628959
v 0.00476250 -0.04957268 0.18648085
v 0.00000000 -0.04957268 0.18648085
v 0.00476250 -0.04964463 0.18667886
v 0.00000000 -0.04964463 0.18667886
v 0.00476250 -0.04969966 0.18688221
v 0.00000000 -0.04969966 0.18688221
v 0.00476250 -0.04973736 0.18708947
v 0.00000000 -0.04973736 0.18708947
v 0.00476250 -0.04975748 0.18729919
v 0.00000000 -0.04975748 0.18729919
v 0.00476250 -0.04975988 0.18750985
v 0.00000000 -0.04975988 0.18750985
v 0.00000000 -0.03958087 0.21659248
v 0.00476250 -0.03958087 0.21659248
v 0.00000000 -0.03974248 0.21646221
v 0.00476250 -0.03974248 0.21646221
v 0.00000000 -0.03989272 0.21631898
v 0.00476250 -0.03989272 0.21631898
v 0.00000000 -0.04003057 0.21616378
v 0.00476250 -0.04003057 0.21616378
v 0.00000000 -0.04015506 0.21599768
v 0.00476250 -0.04015506 0.21599768
v 0.00000000 -0.04026534 0.21582182
v 0.00476250 -0.04026534 0.21582182
v 0.00000000 -0.04036066 0.21563742
v 0.00476250 -0.04036066 0.21563742
v 0.00000000 -0.04044035 0.21544576
v 0.00476250 -0.04044035 0.21544576
v 0.00000000 -0.04050386 0.21524814
v 0.00476250 -0.04050386 0.21524814
v 0.00000000 -0.04055076 0.21504593
v 0.00476250 -0.04055076 0.21504593
v 0.00000000 -0.04058072 0.21484052
v 0.00476250 -0.04058072 0.21484052
v 0.00000000 -0.04059355 0.21463335
v 0.00476250 -0.04059355 0.21463335
v 0.00000000 -0.04058913 0.21442582
v 0.00476250 -0.04058913 0.21442582
v 0.00000000 -0.04056752 0.21421936
v 0.00476250 -0.04056752 0.21421936
v 0.00000000 -0.04052886 0.21401542
v 0.00476250 -0.04052886 0.21401542
v 0.00000000 -0.04047341 0.21381539
v 0.00476250 -0.04047341 0.21381539
v 0.00000000 -0.04040155 0.21362065
v 0.00476250 -0.04040155 0.21362065
v 0.00000000 -0.04031379 0.21343254
v 0.00476250 -0.04031379 0.21343254
v 0.00000000 -0.03416308 0.18493290
v 0.00476250 -0.03416308 0.18493290
v 0.00000000 -0.03394991 0.18494201
v 0.00476250 -0.03394991 0.18494201
v 0.00000000 -0.03373830 0.18496925
v 0.00476250 -0.03373830 0.18496925
v 0.00000000 -0.03352978 0.18501444
v 0.00476250 -0.03352978 0.18501444
v 0.00000000 -0.03332588 0.18507725
v 0.00476250 -0.03332588 0.18507725
v 0.00000000 -0.03312808 0.18515721
v 0.00476250 -0.03312808 0.18515721
v 0.00000000 -0.03293781 0.18525374
v 0.00476250 -0.03293781 0.18525374
v 0.00000000 -0.03275646 0.18536615
v 0.00476250 -0.03275646 0.18536615
v 0.00000000 -0.03258536 0.18549362
v 0.00476250 -0.03258536 0.18549362
v 0.00000000 -0.03242576 0.18563519
v 0.00476250 -0.03242576 0.18563519
v 0.00000000 -0.03227880 0.18578988
v 0.00476250 -0.03227880 0.18578988
v 0.00000000 -0.03214557 0.18595652
v 0.00476250 -0.03214557 0.18595652
v 0.00000000 -0.03202704 0.18613392
v 0.00476250 -0.03202704 0.18613392
v 0.00000000 -0.03192406 0.18632078
v 0.00476250 -0.03192406 0.18632078
v 0.00000000 -0.03183739 0.18651573
v 0.00476250 -0.03183739 0.18651573
v 0.00000000 -0.03176766 0.18671738
v 0.00476250 -0.03176766 0.18671738
v 0.00000000 -0.03171537 0.18692423
v 0.00476250 -0.03171537 0.18692423
v 0.00000000 -0.03168091 0.18713479
v 0.00476250 -0.03168091 0.18713479
v 0.00000000 -0.03166454 0.18734752
v 0.00476250 -0.03166454 0.18734752
v 0.00000000 -0.03166635 0.18756087
v 0.00476250 -0.03166635 0.18756087
v 0.00000000 -0.03168635 0.18777329
v 0.00476250 -0.03168635 0.18777329
v 0.00000000 -0.03172440 0.18798321
v 0.00476250 -0.03172440 0.18798321
v 0.00000000 -0.03178020 0.18818915
v 0.00476250 -0.03178020 0.18818915
v 0.00000000 -0.03185336 0.18838957
v 0.00476250 -0.03185336 0.18838957
v 0.00000000 -0.03194334 0.18858303
v 0.00476250 -0.03194334 0.18858303
v 0.00000000 -0.04012831 0.18493290
v 0.00000000 -0.04012831 0.18355790
v 0.00000000 -0.02844954 0.22482713
v 0.00000000 -0.04915530 0.18355790
v 0.00000000 -0.04290368 0.22726910
v 0.00000000 -0.04012831 0.21703540
v 0.00000000 -0.04618374 0.22067881
v 0.00000000 -0.03474703 0.23951042
v 0.00000000 -0.03660605 0.23564960
v 0.00000000 -0.03908247 0.23356108
v 0.00000000 -0.02172899 0.24766031
v 0.00000000 -0.02177455 0.24344030
v 0.00000000 -0.02208794 0.24360344
v 0.00000000 -0.02612253 0.23661533
v 0.00000000 -0.02582454 0.23642549
v 0.00000000 -0.02844954 0.23564960
v 0.00000000 -0.02309627 0.23594442
v 0.00000000 -0.02275133 0.23602089
v 0.00000000 -0.02162134 0.23564960
v 0.00000000 -0.02241436 0.23612714
v 0.00000000 -0.02241436 0.24373865
v 0.00000000 -0.02275133 0.24384490
v 0.00000000 -0.02241036 0.24781136
v 0.00000000 -0.02309627 0.24392137
v 0.00000000 -0.02310230 0.24790245
v 0.00000000 -0.02344656 0.24396749
v 0.00000000 -0.02379955 0.24793290
v 0.00000000 -0.02379955 0.24398290
v 0.00000000 -0.02449679 0.24790245
v 0.00000000 -0.02415253 0.24396749
v 0.00000000 -0.02518873 0.24781136
v 0.00000000 -0.02450282 0.24392137
v 0.00000000 -0.02587010 0.24766031
v 0.00000000 -0.02484776 0.24384490
v 0.00000000 -0.02653571 0.24745044
v 0.00000000 -0.02518473 0.24373865
v 0.00000000 -0.02718049 0.24718335
v 0.00000000 -0.02551115 0.24360344
v 0.00000000 -0.02779954 0.24686110
v 0.00000000 -0.02582454 0.24344030
v 0.00000000 -0.02838816 0.24648611
v 0.00000000 -0.02612253 0.24325046
v 0.00000000 -0.02640283 0.24303538
v 0.00000000 -0.02484776 0.23602089
v 0.00000000 -0.02450282 0.23594442
v 0.00000000 -0.02415253 0.23589832
v 0.00000000 -0.02379955 0.23588289
v 0.00000000 -0.02344656 0.23589832
v 0.00000000 -0.02208794 0.23626235
v 0.00000000 -0.02177455 0.23642549
v 0.00000000 -0.02147656 0.23661533
v 0.00000000 -0.02666333 0.24279667
v 0.00000000 -0.02690203 0.24253619
v 0.00000000 -0.02711711 0.24225588
v 0.00000000 -0.02730695 0.24195790
v 0.00000000 -0.02747009 0.24164450
v 0.00000000 -0.02760530 0.24131808
v 0.00000000 -0.02551115 0.23626235
v 0.00000000 -0.02518473 0.23612714
v 0.00000000 -0.02760530 0.23854771
v 0.00000000 -0.02747009 0.23822129
v 0.00000000 -0.02690203 0.23732960
v 0.00000000 -0.02666333 0.23706912
v 0.00000000 -0.02640283 0.23683041
v 0.00000000 -0.02771154 0.23888467
v 0.00000000 -0.02730695 0.23790790
v 0.00000000 -0.02711711 0.23760991
v 0.00000000 -0.02771154 0.24098112
v 0.00000000 -0.02778802 0.24063617
v 0.00000000 -0.02783413 0.24028587
v 0.00000000 -0.02784955 0.23993289
v 0.00000000 -0.02783413 0.23957992
v 0.00000000 -0.02778802 0.23922962
v 0.00000000 -0.02147656 0.24325046
v 0.00000000 -0.02106338 0.24745044
v 0.00000000 -0.02041860 0.24718335
v 0.00000000 -0.02119626 0.23683041
v 0.00000000 -0.01687134 0.23593290
v 0.00000000 -0.02093576 0.23706912
v 0.00000000 -0.02069706 0.23732960
v 0.00000000 -0.01979955 0.24686110
v 0.00000000 -0.01921093 0.24648611
v 0.00000000 -0.02119626 0.24303538
v 0.00000000 -0.01865724 0.24606125
v 0.00000000 -0.02093576 0.24279667
v 0.00000000 -0.01814269 0.24558975
v 0.00000000 -0.02069706 0.24253619
v 0.00000000 -0.01767119 0.24507520
v 0.00000000 -0.02048198 0.24225588
v 0.00000000 -0.01724633 0.24452151
v 0.00000000 -0.02029214 0.24195790
v 0.00000000 -0.01687134 0.24393290
v 0.00000000 -0.02012900 0.24164450
v 0.00000000 -0.01654908 0.24331385
v 0.00000000 -0.01999379 0.24131808
v 0.00000000 -0.01628200 0.24266906
v 0.00000000 -0.01988755 0.24098112
v 0.00000000 -0.01607214 0.24200346
v 0.00000000 -0.01981107 0.24063617
v 0.00000000 -0.01592108 0.24132209
v 0.00000000 -0.01976496 0.24028587
v 0.00000000 -0.01582999 0.24063015
v 0.00000000 -0.01974954 0.23993289
v 0.00000000 -0.01579954 0.23993289
v 0.00000000 -0.01976496 0.23957992
v 0.00000000 -0.01582999 0.23923565
v 0.00000000 -0.01981107 0.23922962
v 0.00000000 -0.01592108 0.23854372
v 0.00000000 -0.01988755 0.23888467
v 0.00000000 -0.01607214 0.23786235
v 0.00000000 -0.01999379 0.23854771
v 0.00000000 -0.01628200 0.23719673
v 0.00000000 -0.02012900 0.23822129
v 0.00000000 -0.01654908 0.23655196
v 0.00000000 -0.02029214 0.23790790
v 0.00000000 -0.02048198 0.23760991
v 0.00000000 -0.02379955 0.18355790
v 0.00000000 -0.02844954 0.18355790
v 0.00000000 -0.02379955 0.18493290
v 0.00000000 -0.02844954 0.18918450
v 0.00000000 -0.02352079 0.19525291
v 0.00000000 -0.01935577 0.22591253
v 0.00000000 -0.02162134 0.21703540
v 0.00000000 -0.02129566 0.21577264
v 0.00000000 -0.02268536 0.20554283
v 0.00000000 -0.02992790 0.24507520
v 0.00000000 -0.02945640 0.24558975
v 0.00000000 -0.02894185 0.24606125
v 0.00000000 -0.03898215 0.21703540
v 0.00000000 -0.03660605 0.21879317
v 0.00000000 -0.04889952 0.21383664
v 0.00000000 -0.04747686 0.20451675
v 0.00000000 -0.04862555 0.19890434
v 0.00000000 -0.04938775 0.19322650
v 0.00000000 -0.05103191 0.20679080
v 0.00000000 -0.05256586 0.19959097
v 0.00000000 -0.05349058 0.19228785
v 0.00000000 -0.05379954 0.18493290
v 0.00000000 -0.05379954 0.18355790
v 0.00000000 -0.03670241 0.22989416
v 0.00000000 -0.02905715 0.23390317
v 0.00000000 -0.02941452 0.23423448
v 0.00000000 -0.02674323 0.20504001
v 0.00000000 -0.02540325 0.21516456
v 0.00000000 -0.03225499 0.18918450
v 0.00000000 -0.03660605 0.18355790
v 0.00000000 -0.03660605 0.18493290
v 0.00000000 -0.04012831 0.20437987
v 0.00000000 -0.03660605 0.19758198
v 0.00000000 -0.04915530 0.17493290
v 0.00000000 -0.04915530 0.17630790
v 0.00000000 -0.04012831 0.17493290
v 0.00000000 -0.04012831 0.17630790
v 0.00000000 -0.03660605 0.17493290
v 0.00000000 -0.03660605 0.17630790
v 0.00000000 -0.02844954 0.17493290
v 0.00000000 -0.02844954 0.17630790
v 0.00000000 -0.02379955 0.17493290
v 0.00000000 -0.02379955 0.17630790
v 0.00000000 -0.03206909 0.17781858
v 0.00000000 -0.03188189 0.17775956
v 0.00000000 -0.03149565 0.18217434
v 0.00000000 -0.03129955 0.18218289
v 0.00000000 -0.03225044 0.17789370
v 0.00000000 -0.03169025 0.18214871
v 0.00000000 -0.03188189 0.18210623
v 0.00000000 -0.03206909 0.18204720
v 0.00000000 -0.03225044 0.18197209
v 0.00000000 -0.03242455 0.18188146
v 0.00000000 -0.03259009 0.18177599
v 0.00000000 -0.03129955 0.17768289
v 0.00000000 -0.03149565 0.17769146
v 0.00000000 -0.03169025 0.17771707
v 0.00000000 -0.03110345 0.17769146
v 0.00000000 -0.03090884 0.17771707
v 0.00000000 -0.03071720 0.17775956
v 0.00000000 -0.03053000 0.17781858
v 0.00000000 -0.03034865 0.17789370
v 0.00000000 -0.03017455 0.17798434
v 0.00000000 -0.03289054 0.17834191
v 0.00000000 -0.03274582 0.17820929
v 0.00000000 -0.03017455 0.18188146
v 0.00000000 -0.03000900 0.18177599
v 0.00000000 -0.02985327 0.18165649
v 0.00000000 -0.03034865 0.18197209
v 0.00000000 -0.03053000 0.18204720
v 0.00000000 -0.03071720 0.18210623
v 0.00000000 -0.03090884 0.18214871
v 0.00000000 -0.03110345 0.18217434
v 0.00000000 -0.03274582 0.18165649
v 0.00000000 -0.03289054 0.18152389
v 0.00000000 -0.03302315 0.18137917
v 0.00000000 -0.03333874 0.18088380
v 0.00000000 -0.03341385 0.18070245
v 0.00000000 -0.03259009 0.17808981
v 0.00000000 -0.03242455 0.17798434
v 0.00000000 -0.03314264 0.18122344
v 0.00000000 -0.03324810 0.18105790
v 0.00000000 -0.03347288 0.18051524
v 0.00000000 -0.03351536 0.18032360
v 0.00000000 -0.03354098 0.18012899
v 0.00000000 -0.03354954 0.17993289
v 0.00000000 -0.03354098 0.17973679
v 0.00000000 -0.03351536 0.17954218
v 0.00000000 -0.03347288 0.17935055
v 0.00000000 -0.03341385 0.17916335
v 0.00000000 -0.03333874 0.17898200
v 0.00000000 -0.03324810 0.17880790
v 0.00000000 -0.03000900 0.17808981
v 0.00000000 -0.02985327 0.17820929
v 0.00000000 -0.02970855 0.17834191
v 0.00000000 -0.02912621 0.17935055
v 0.00000000 -0.02908373 0.17954218
v 0.00000000 -0.02905811 0.17973679
v 0.00000000 -0.02904955 0.17993289
v 0.00000000 -0.02905811 0.18012899
v 0.00000000 -0.02908373 0.18032360
v 0.00000000 -0.02912621 0.18051524
v 0.00000000 -0.02918524 0.18070245
v 0.00000000 -0.03314264 0.17864235
v 0.00000000 -0.03302315 0.17848663
v 0.00000000 -0.02935099 0.17880790
v 0.00000000 -0.02926035 0.17898200
v 0.00000000 -0.02918524 0.17916335
v 0.00000000 -0.02957595 0.17848663
v 0.00000000 -0.02945645 0.17864235
v 0.00000000 -0.02926035 0.18088380
v 0.00000000 -0.02935099 0.18105790
v 0.00000000 -0.02945645 0.18122344
v 0.00000000 -0.02957595 0.18137917
v 0.00000000 -0.02970855 0.18152389
v 0.00000000 -0.04610344 0.18217434
v 0.00000000 -0.04629955 0.18218289
v 0.00000000 -0.04649565 0.18217434
v 0.00000000 -0.04590884 0.18214871
v 0.00000000 -0.04725043 0.17789370
v 0.00000000 -0.04706909 0.17781858
v 0.00000000 -0.04669026 0.18214871
v 0.00000000 -0.04688189 0.18210623
v 0.00000000 -0.04706909 0.18204720
v 0.00000000 -0.04534866 0.18197209
v 0.00000000 -0.04553000 0.18204720
v 0.00000000 -0.04571720 0.18210623
v 0.00000000 -0.04725043 0.18197209
v 0.00000000 -0.04742454 0.18188146
v 0.00000000 -0.04759009 0.18177599
v 0.00000000 -0.04789054 0.17834191
v 0.00000000 -0.04774582 0.17820929
v 0.00000000 -0.04688189 0.17775956
v 0.00000000 -0.04669026 0.17771707
v 0.00000000 -0.04649565 0.17769146
v 0.00000000 -0.04435099 0.17880790
v 0.00000000 -0.04426035 0.17898200
v 0.00000000 -0.04759009 0.17808981
v 0.00000000 -0.04742454 0.17798434
v 0.00000000 -0.04629955 0.17768289
v 0.00000000 -0.04610344 0.17769146
v 0.00000000 -0.04590884 0.17771707
v 0.00000000 -0.04571720 0.17775956
v 0.00000000 -0.04553000 0.17781858
v 0.00000000 -0.04534866 0.17789370
v 0.00000000 -0.04517455 0.17798434
v 0.00000000 -0.04851536 0.17954218
v 0.00000000 -0.04847288 0.17935055
v 0.00000000 -0.04405811 0.17973679
v 0.00000000 -0.04404955 0.17993289
v 0.00000000 -0.04435099 0.18105790
v 0.00000000 -0.04445645 0.18122344
v 0.00000000 -0.04500900 0.17808981
v 0.00000000 -0.04485327 0.17820929
v 0.00000000 -0.04470855 0.17834191
v 0.00000000 -0.04774582 0.18165649
v 0.00000000 -0.04789054 0.18152389
v 0.00000000 -0.04802315 0.18137917
v 0.00000000 -0.04833874 0.18088380
v 0.00000000 -0.04841385 0.18070245
v 0.00000000 -0.04847288 0.18051524
v 0.00000000 -0.04851536 0.18032360
v 0.00000000 -0.04841385 0.17916335
v 0.00000000 -0.04833874 0.17898200
v 0.00000000 -0.04824810 0.17880790
v 0.00000000 -0.04457594 0.17848663
v 0.00000000 -0.04445645 0.17864235
v 0.00000000 -0.04418524 0.17916335
v 0.00000000 -0.04412621 0.17935055
v 0.00000000 -0.04408373 0.17954218
v 0.00000000 -0.04412621 0.18051524
v 0.00000000 -0.04418524 0.18070245
v 0.00000000 -0.04426035 0.18088380
v 0.00000000 -0.04457594 0.18137917
v 0.00000000 -0.04470855 0.18152389
v 0.00000000 -0.04485327 0.18165649
v 0.00000000 -0.04814264 0.18122344
v 0.00000000 -0.04824810 0.18105790
v 0.00000000 -0.04854098 0.18012899
v 0.00000000 -0.04854954 0.17993289
v 0.00000000 -0.04854098 0.17973679
v 0.00000000 -0.04405811 0.18012899
v 0.00000000 -0.04408373 0.18032360
v 0.00000000 -0.04500900 0.18177599
v 0.00000000 -0.04517455 0.18188146
v 0.00000000 -0.04814264 0.17864235
v 0.00000000 -0.04802315 0.17848663
v 0.00000000 -0.05379954 0.17630790
v 0.00000000 -0.05379954 0.17493290
v 0.00476250 -0.01935577 0.22591253
v 0.00476250 -0.01687134 0.23593290
v 0.00476250 -0.02162134 0.23564960
v 0.00476250 -0.04618374 0.22067881
v 0.00476250 -0.04012831 0.21703540
v 0.00476250 -0.04290368 0.22726910
v 0.00476250 -0.02450282 0.23594442
v 0.00476250 -0.02484776 0.23602089
v 0.00476250 -0.02844954 0.23564960
v 0.00476250 -0.02241436 0.24373865
v 0.00476250 -0.02208794 0.24360344
v 0.00476250 -0.02172899 0.24766031
v 0.00476250 -0.02177455 0.24344030
v 0.00476250 -0.02147656 0.24325046
v 0.00476250 -0.02177455 0.23642549
v 0.00476250 -0.02208794 0.23626235
v 0.00476250 -0.02241436 0.23612714
v 0.00476250 -0.02275133 0.23602089
v 0.00476250 -0.02309627 0.23594442
v 0.00476250 -0.02344656 0.23589832
v 0.00476250 -0.02379955 0.23588289
v 0.00476250 -0.02415253 0.23589832
v 0.00476250 -0.02838816 0.24648611
v 0.00476250 -0.02612253 0.24325046
v 0.00476250 -0.02779954 0.24686110
v 0.00476250 -0.02582454 0.24344030
v 0.00476250 -0.02718049 0.24718335
v 0.00476250 -0.02551115 0.24360344
v 0.00476250 -0.02653571 0.24745044
v 0.00476250 -0.02518473 0.24373865
v 0.00476250 -0.02587010 0.24766031
v 0.00476250 -0.02484776 0.24384490
v 0.00476250 -0.02518873 0.24781136
v 0.00476250 -0.02450282 0.24392137
v 0.00476250 -0.02449679 0.24790245
v 0.00476250 -0.02415253 0.24396749
v 0.00476250 -0.02379955 0.24793290
v 0.00476250 -0.02379955 0.24398290
v 0.00476250 -0.02310230 0.24790245
v 0.00476250 -0.02344656 0.24396749
v 0.00476250 -0.02241036 0.24781136
v 0.00476250 -0.02309627 0.24392137
v 0.00476250 -0.02275133 0.24384490
v 0.00476250 -0.02518473 0.23612714
v 0.00476250 -0.02551115 0.23626235
v 0.00476250 -0.02582454 0.23642549
v 0.00476250 -0.02747009 0.24164450
v 0.00476250 -0.02730695 0.24195790
v 0.00476250 -0.02711711 0.24225588
v 0.00476250 -0.02690203 0.24253619
v 0.00476250 -0.02666333 0.24279667
v 0.00476250 -0.02640283 0.24303538
v 0.00476250 -0.02612253 0.23661533
v 0.00476250 -0.02640283 0.23683041
v 0.00476250 -0.02666333 0.23706912
v 0.00476250 -0.02690203 0.23732960
v 0.00476250 -0.02711711 0.23760991
v 0.00476250 -0.02730695 0.23790790
v 0.00476250 -0.02784955 0.23993289
v 0.00476250 -0.02783413 0.24028587
v 0.00476250 -0.02778802 0.24063617
v 0.00476250 -0.02747009 0.23822129
v 0.00476250 -0.02760530 0.23854771
v 0.00476250 -0.02771154 0.23888467
v 0.00476250 -0.02771154 0.24098112
v 0.00476250 -0.02760530 0.24131808
v 0.00476250 -0.02778802 0.23922962
v 0.00476250 -0.02783413 0.23957992
v 0.00476250 -0.01979955 0.24686110
v 0.00476250 -0.01921093 0.24648611
v 0.00476250 -0.02119626 0.24303538
v 0.00476250 -0.02041860 0.24718335
v 0.00476250 -0.02106338 0.24745044
v 0.00476250 -0.02069706 0.23732960
v 0.00476250 -0.02048198 0.23760991
v 0.00476250 -0.02029214 0.23790790
v 0.00476250 -0.02093576 0.23706912
v 0.00476250 -0.02119626 0.23683041
v 0.00476250 -0.02147656 0.23661533
v 0.00476250 -0.02012900 0.23822129
v 0.00476250 -0.01654908 0.23655196
v 0.00476250 -0.01999379 0.23854771
v 0.00476250 -0.01628200 0.23719673
v 0.00476250 -0.01988755 0.23888467
v 0.00476250 -0.01607214 0.23786235
v 0.00476250 -0.01981107 0.23922962
v 0.00476250 -0.01592108 0.23854372
v 0.00476250 -0.01976496 0.23957992
v 0.00476250 -0.01582999 0.23923565
v 0.00476250 -0.01974954 0.23993289
v 0.00476250 -0.01579954 0.23993289
v 0.00476250 -0.01976496 0.24028587
v 0.00476250 -0.01582999 0.24063015
v 0.00476250 -0.01981107 0.24063617
v 0.00476250 -0.01592108 0.24132209
v 0.00476250 -0.01988755 0.24098112
v 0.00476250 -0.01607214 0.24200346
v 0.00476250 -0.01999379 0.24131808
v 0.00476250 -0.01628200 0.24266906
v 0.00476250 -0.02012900 0.24164450
v 0.00476250 -0.01654908 0.24331385
v 0.00476250 -0.02029214 0.24195790
v 0.00476250 -0.01687134 0.24393290
v 0.00476250 -0.02048198 0.24225588
v 0.00476250 -0.01724633 0.24452151
v 0.00476250 -0.02069706 0.24253619
v 0.00476250 -0.01767119 0.24507520
v 0.00476250 -0.02093576 0.24279667
v 0.00476250 -0.01814269 0.24558975
v 0.00476250 -0.01865724 0.24606125
v 0.00476250 -0.05379954 0.18355790
v 0.00476250 -0.05349058 0.19228785
v 0.00476250 -0.05379954 0.18493290
v 0.00476250 -0.04938775 0.19322650
v 0.00476250 -0.05256586 0.19959097
v 0.00476250 -0.05103191 0.20679080
v 0.00476250 -0.04889952 0.21383664
v 0.00476250 -0.04747686 0.20451675
v 0.00476250 -0.04862555 0.19890434
v 0.00476250 -0.03660605 0.21879317
v 0.00476250 -0.03898215 0.21703540
v 0.00476250 -0.02945640 0.24558975
v 0.00476250 -0.02992790 0.24507520
v 0.00476250 -0.03474703 0.23951042
v 0.00476250 -0.03660605 0.23564960
v 0.00476250 -0.03908247 0.23356108
v 0.00476250 -0.02894185 0.24606125
v 0.00476250 -0.02162134 0.21703540
v 0.00476250 -0.02129566 0.21577264
v 0.00476250 -0.02379955 0.18493290
v 0.00476250 -0.02352079 0.19525291
v 0.00476250 -0.02268536 0.20554283
v 0.00476250 -0.02674323 0.20504001
v 0.00476250 -0.02540325 0.21516456
v 0.00476250 -0.02844954 0.18918450
v 0.00476250 -0.02844954 0.18355790
v 0.00476250 -0.02379955 0.18355790
v 0.00476250 -0.02379955 0.17630790
v 0.00476250 -0.02844954 0.17630790
v 0.00476250 -0.02379955 0.17493290
v 0.00476250 -0.02844954 0.22482713
v 0.00476250 -0.03670241 0.22989416
v 0.00476250 -0.02941452 0.23423448
v 0.00476250 -0.02905715 0.23390317
v 0.00476250 -0.04915530 0.18355790
v 0.00476250 -0.04012831 0.18493290
v 0.00476250 -0.03660605 0.18355790
v 0.00476250 -0.03225499 0.18918450
v 0.00476250 -0.03660605 0.19758198
v 0.00476250 -0.04012831 0.20437987
v 0.00476250 -0.03149565 0.17769146
v 0.00476250 -0.03660605 0.17630790
v 0.00476250 -0.03169025 0.17771707
v 0.00476250 -0.03188189 0.17775956
v 0.00476250 -0.03206909 0.17781858
v 0.00476250 -0.03090884 0.17771707
v 0.00476250 -0.03110345 0.17769146
v 0.00476250 -0.03129955 0.17768289
v 0.00476250 -0.03354098 0.17973679
v 0.00476250 -0.03354954 0.17993289
v 0.00476250 -0.03289054 0.18152389
v 0.00476250 -0.03274582 0.18165649
v 0.00476250 -0.03259009 0.18177599
v 0.00476250 -0.03242455 0.18188146
v 0.00476250 -0.03225044 0.18197209
v 0.00476250 -0.03206909 0.18204720
v 0.00476250 -0.03188189 0.18210623
v 0.00476250 -0.03034865 0.17789370
v 0.00476250 -0.03053000 0.17781858
v 0.00476250 -0.03071720 0.17775956
v 0.00476250 -0.03017455 0.18188146
v 0.00476250 -0.03034865 0.18197209
v 0.00476250 -0.03053000 0.18204720
v 0.00476250 -0.03169025 0.18214871
v 0.00476250 -0.03149565 0.18217434
v 0.00476250 -0.03129955 0.18218289
v 0.00476250 -0.03110345 0.18217434
v 0.00476250 -0.03090884 0.18214871
v 0.00476250 -0.03071720 0.18210623
v 0.00476250 -0.02912621 0.18051524
v 0.00476250 -0.02908373 0.18032360
v 0.00476250 -0.02985327 0.17820929
v 0.00476250 -0.03000900 0.17808981
v 0.00476250 -0.03017455 0.17798434
v 0.00476250 -0.03225044 0.17789370
v 0.00476250 -0.03242455 0.17798434
v 0.00476250 -0.03259009 0.17808981
v 0.00476250 -0.03351536 0.17954218
v 0.00476250 -0.03347288 0.18051524
v 0.00476250 -0.03341385 0.18070245
v 0.00476250 -0.03333874 0.18088380
v 0.00476250 -0.03324810 0.18105790
v 0.00476250 -0.03333874 0.17898200
v 0.00476250 -0.03341385 0.17916335
v 0.00476250 -0.03347288 0.17935055
v 0.00476250 -0.03354098 0.18012899
v 0.00476250 -0.03351536 0.18032360
v 0.00476250 -0.03314264 0.18122344
v 0.00476250 -0.03302315 0.18137917
v 0.00476250 -0.03000900 0.18177599
v 0.00476250 -0.02985327 0.18165649
v 0.00476250 -0.02970855 0.18152389
v 0.00476250 -0.03274582 0.17820929
v 0.00476250 -0.03289054 0.17834191
v 0.00476250 -0.03302315 0.17848663
v 0.00476250 -0.02905811 0.17973679
v 0.00476250 -0.02904955 0.17993289
v 0.00476250 -0.02905811 0.18012899
v 0.00476250 -0.02908373 0.17954218
v 0.00476250 -0.02912621 0.17935055
v 0.00476250 -0.02918524 0.17916335
v 0.00476250 -0.03314264 0.17864235
v 0.00476250 -0.03324810 0.17880790
v 0.00476250 -0.02935099 0.18105790
v 0.00476250 -0.02926035 0.18088380
v 0.00476250 -0.02918524 0.18070245
v 0.00476250 -0.02957595 0.18137917
v 0.00476250 -0.02945645 0.18122344
v 0.00476250 -0.02926035 0.17898200
v 0.00476250 -0.02935099 0.17880790
v 0.00476250 -0.02945645 0.17864235
v 0.00476250 -0.02957595 0.17848663
v 0.00476250 -0.02970855 0.17834191
v 0.00476250 -0.04590884 0.18214871
v 0.00476250 -0.04571720 0.18210623
v 0.00476250 -0.04012831 0.18355790
v 0.00476250 -0.04649565 0.17769146
v 0.00476250 -0.04669026 0.17771707
v 0.00476250 -0.04915530 0.17630790
v 0.00476250 -0.04688189 0.17775956
v 0.00476250 -0.04706909 0.17781858
v 0.00476250 -0.04553000 0.17781858
v 0.00476250 -0.04571720 0.17775956
v 0.00476250 -0.04012831 0.17630790
v 0.00476250 -0.04789054 0.18152389
v 0.00476250 -0.04774582 0.18165649
v 0.00476250 -0.04759009 0.18177599
v 0.00476250 -0.04742454 0.18188146
v 0.00476250 -0.04725043 0.18197209
v 0.00476250 -0.04706909 0.18204720
v 0.00476250 -0.04688189 0.18210623
v 0.00476250 -0.04669026 0.18214871
v 0.00476250 -0.04649565 0.18217434
v 0.00476250 -0.04629955 0.18218289
v 0.00476250 -0.04610344 0.18217434
v 0.00476250 -0.04725043 0.17789370
v 0.00476250 -0.04742454 0.17798434
v 0.00476250 -0.04759009 0.17808981
v 0.00476250 -0.03660605 0.18493290
v 0.00476250 -0.04553000 0.18204720
v 0.00476250 -0.04534866 0.18197209
v 0.00476250 -0.04517455 0.18188146
v 0.00476250 -0.04534866 0.17789370
v 0.00476250 -0.04590884 0.17771707
v 0.00476250 -0.04610344 0.17769146
v 0.00476250 -0.04629955 0.17768289
v 0.00476250 -0.04851536 0.18032360
v 0.00476250 -0.04847288 0.18051524
v 0.00476250 -0.04435099 0.17880790
v 0.00476250 -0.04445645 0.17864235
v 0.00476250 -0.04833874 0.17898200
v 0.00476250 -0.04841385 0.17916335
v 0.00476250 -0.04847288 0.17935055
v 0.00476250 -0.04851536 0.17954218
v 0.00476250 -0.04841385 0.18070245
v 0.00476250 -0.04833874 0.18088380
v 0.00476250 -0.04824810 0.18105790
v 0.00476250 -0.04470855 0.18152389
v 0.00476250 -0.04457594 0.18137917
v 0.00476250 -0.04445645 0.18122344
v 0.00476250 -0.04435099 0.18105790
v 0.00476250 -0.04408373 0.17954218
v 0.00476250 -0.04412621 0.17935055
v 0.00476250 -0.04854098 0.17973679
v 0.00476250 -0.04854954 0.17993289
v 0.00476250 -0.04854098 0.18012899
v 0.00476250 -0.04814264 0.18122344
v 0.00476250 -0.04802315 0.18137917
v 0.00476250 -0.04500900 0.18177599
v 0.00476250 -0.04485327 0.18165649
v 0.00476250 -0.04426035 0.18088380
v 0.00476250 -0.04418524 0.18070245
v 0.00476250 -0.04412621 0.18051524
v 0.00476250 -0.04405811 0.17973679
v 0.00476250 -0.04418524 0.17916335
v 0.00476250 -0.04426035 0.17898200
v 0.00476250 -0.04485327 0.17820929
v 0.00476250 -0.04500900 0.17808981
v 0.00476250 -0.04517455 0.17798434
v 0.00476250 -0.04774582 0.17820929
v 0.00476250 -0.04789054 0.17834191
v 0.00476250 -0.04802315 0.17848663
v 0.00476250 -0.04408373 0.18032360
v 0.00476250 -0.04405811 0.18012899
v 0.00476250 -0.04404955 0.17993289
v 0.00476250 -0.04457594 0.17848663
v 0.00476250 -0.04470855 0.17834191
v 0.00476250 -0.04814264 0.17864235
v 0.00476250 -0.04824810 0.17880790
v 0.00476250 -0.05379954 0.17630790
v 0.00476250 -0.02844954 0.17493290
v 0.00476250 -0.03660605 0.17493290
v 0.00476250 -0.04012831 0.17493290
v 0.00476250 -0.04915530 0.17493290
v 0.00476250 -0.05379954 0.17493290
f 1 2 3
f 2 4 3
f 3 4 5
f 4 6 5
f 5 6 7
f 6 8 7
f 7 8 9
f 8 10 9
f 9 10 11
f 10 12 11
f 11 12 13
f 12 14 13
f 13 14 15
f 14 16 15
f 15 16 17
f 16 18 17
f 17 18 19
f 18 20 19
f 19 20 21
f 20 22 21
f 21 22 23
f 22 24 23
f 23 24 25
f 24 26 25
f 25 26 27
f 26 28 27
f 27 28 29
f 28 30 29
f 29 30 31
f 30 32 31
f 31 32 33
f 32 34 33
f 33 34 35
f 34 36 35
f 35 36 37
f 36 38 37
f 37 38 39
f 38 40 39
f 39 40 41
f 40 42 41
f 41 42 43
f 42 44 43
f 43 44 45
f 44 46 45
f 45 46 47
f 46 48 47
f 47 48 49
f 48 50 49
f 49 50 51
f 50 52 51
f 51 52 53
f 52 54 53
f 53 54 55
f 54 56 55
f 55 56 57
f 56 58 57
f 57 58 59
f 58 60 59
f 59 60 61
f 60 62 61
f 61 62 63
f 62 64 63
f 63 64 65
f 64 66 65
f 67 68 69
f 68 70 69
f 69 70 71
f 70 72 71
f 71 72 73
f 72 74 73
f 73 74 75
f 74 76 75
f 75 76 77
f 76 78 77
f 77 78 79
f 78 80 79
f 79 80 81
f 80 82 81
f 81 82 83
f 82 84 83
f 83 84 85
f 84 86 85
f 85 86 87
f 86 88 87
f 87 88 89
f 88 90 89
f 89 90 91
f 90 92 91
f 91 92 93
f 92 94 93
f 93 94 95
f 94 96 95
f 95 96 97
f 96 98 97
f 97 98 99
f 98 100 99
f 99 100 101
f 100 102 101
f 101 102 103
f 102 104 103
f 103 104 105
f 104 106 105
f 105 106 107
f 106 108 107
f 107 108 109
f 108 110 109
f 109 110 111
f 110 112 111
f 111 112 113
f 112 114 113
f 113 114 115
f 114 116 115
f 115 116 117
f 116 118 117
f 117 118 119
f 118 120 119
f 119 120 121
f 120 122 121
f 121 122 123
f 122 124 123
f 125 126 127
f 126 128 127
f 127 128 129
f 128 130 129
f 129 130 131
f 130 132 131
f 131 132 133
f 132 134 133
f 133 134 135
f 134 136 135
f 135 136 137
f 136 138 137
f 137 138 139
f 138 140 139
f 139 140 141
f 140 142 141
f 141 142 143
f 142 144 143
f 143 144 145
f 144 146 145
f 145 146 147
f 146 148 147
f 147 148 149
f 148 150 149
f 149 150 151
f 150 152 151
f 151 152 153
f 152 154 153
f 153 154 155
f 154 156 155
f 155 156 157
f 156 158 157
f 157 158 159
f 158 160 159
f 159 160 161
f 160 162 161
f 161 162 163
f 162 164 163
f 163 164 165
f 164 166 165
f 165 166 167
f 166 168 167
f 167 168 169
f 168 170 169
f 169 170 171
f 170 172 171
f 171 172 173
f 172 174 173
f 173 174 175
f 174 176 175
f 175 176 177
f 176 178 177
f 177 178 179
f 178 180 179
f 179 180 181
f 180 182 181
f 181 182 183
f 182 184 183
f 183 184 185
f 184 186 185
f 187 188 189
f 188 190 189
f 189 190 191
f 190 192 191
f 191 192 193
f 192 194 193
f 193 194 195
f 194 196 195
f 195 196 197
f 196 198 197
f 197 198 199
f 198 200 199
f 199 200 201
f 200 202 201
f 201 202 203
f 202 204 203
f 203 204 205
f 204 206 205
f 205 206 207
f 206 208 207
f 207 208 209
f 208 210 209
f 209 210 211
f 210 212 211
f 211 212 213
f 212 214 213
f 213 214 215
f 214 216 215
f 215 216 217
f 216 218 217
f 217 218 219
f 218 220 219
f 219 220 221
f 220 222 221
f 221 222 223
f 222 224 223
f 223 224 225
f 224 226 225
f 225 226 227
f 226 228 227
f 227 228 229
f 228 230 229
f 229 230 231
f 230 232 231
f 231 232 233
f 232 234 233
f 233 234 235
f 234 236 235
f 235 236 237
f 236 238 237
f 237 238 239
f 238 240 239
f 239 240 241
f 240 242 241
f 241 242 243
f 242 244 243
f 245 246 247
f 246 248 247
f 247 248 249
f 248 250 249
f 249 250 251
f 250 252 251
f 251 252 253
f 252 254 253
f 253 254 255
f 254 256 255
f 255 256 257
f 256 258 257
f 257 258 259
f 258 260 259
f 259 260 261
f 260 262 261
f 261 262 263
f 262 264 263
f 263 264 265
f 264 266 265
f 265 266 267
f 266 268 267
f 267 268 269
f 268 270 269
f 269 270 271
f 270 272 271
f 271 272 273
f 272 274 273
f 273 274 275
f 274 276 275
f 275 276 277
f 276 278 277
f 277 278 279
f 278 280 279
f 279 280 281
f 280 282 281
f 281 282 283
f 282 284 283
f 283 284 285
f 284 286 285
f 285 286 287
f 286 288 287
f 289 290 291
f 290 292 291
f 291 292 293
f 292 294 293
f 293 294 295
f 294 296 295
f 295 296 297
f 296 298 297
f 297 298 299
f 298 300 299
f 299 300 301
f 300 302 301
f 301 302 303
f 302 304 303
f 303 304 305
f 304 306 305
f 305 306 307
f 306 308 307
f 307 308 309
f 308 310 309
f 309 310 311
f 310 312 311
f 311 312 313
f 312 314 313
f 313 314 315
f 314 316 315
f 315 316 317
f 316 318 317
f 317 318 319
f 318 320 319
f 319 320 321
f 320 322 321
f 321 322 323
f 322 324 323
f 323 324 325
f 324 326 325
f 325 326 327
f 326 328 327
f 327 328 329
f 328 330 329
f 329 330 331
f 330 332 331
f 331 332 333
f 332 334 333
f 335 336 337
f 336 338 337
f 337 338 339
f 338 340 339
f 339 340 341
f 340 342 341
f 341 342 343
f 342 344 343
f 343 344 345
f 344 346 345
f 345 346 347
f 346 348 347
f 347 348 349
f 348 350 349
f 349 350 351
f 350 352 351
f 351 352 353
f 352 354 353
f 353 354 355
f 354 356 355
f 355 356 357
f 356 358 357
f 357 358 359
f 358 360 359
f 359 360 361
f 360 362 361
f 361 362 363
f 362 364 363
f 363 364 365
f 364 366 365
f 365 366 367
f 366 368 367
f 367 368 369
f 368 370 369
f 369 370 371
f 370 372 371
f 371 372 373
f 372 374 373
f 375 376 377
f 376 378 377
f 377 378 379
f 378 380 379
f 379 380 381
f 380 382 381
f 381 382 383
f 382 384 383
f 383 384 385
f 384 386 385
f 385 386 387
f 386 388 387
f 387 388 389
f 388 390 389
f 389 390 391
f 390 392 391
f 391 392 393
f 392 394 393
f 393 394 395
f 394 396 395
f 395 396 397
f 396 398 397
f 397 398 399
f 398 400 399
f 399 400 401
f 400 402 401
f 401 402 403
f 402 404 403
f 403 404 405
f 404 406 405
f 405 406 407
f 406 408 407
f 407 408 409
f 408 410 409
f 411 412 413
f 412 414 413
f 413 414 415
f 414 416 415
f 415 416 417
f 416 418 417
f 417 418 419
f 418 420 419
f 419 420 421
f 420 422 421
f 421 422 423
f 422 424 423
f 423 424 425
f 424 426 425
f 425 426 427
f 426 428 427
f 427 428 429
f 428 430 429
f 429 430 431
f 430 432 431
f 431 432 433
f 432 434 433
f 433 434 435
f 434 436 435
f 435 436 437
f 436 438 437
f 437 438 439
f 438 440 439
f 439 440 441
f 440 442 441
f 441 442 443
f 442 444 443
f 443 444 445
f 444 446 445
f 445 446 447
f 446 448 447
f 447 448 449
f 448 450 449
f 449 450 451
f 450 452 451
f 451 452 453
f 452 454 453
f 453 454 455
f 454 456 455
f 455 456 457
f 456 458 457
f 457 458 459
f 458 460 459
f 336 461 462
f 332 330 463
f 358 356 464
f 465 466 467
f 468 469 470
f 471 472 473
f 474 475 476
f 477 478 479
f 478 480 479
f 473 481 471
f 481 482 471
f 471 482 483
f 482 484 483
f 483 484 485
f 484 486 485
f 485 486 487
f 486 488 487
f 487 488 489
f 488 490 489
f 489 490 491
f 490 492 491
f 491 492 493
f 492 494 493
f 493 494 495
f 494 496 495
f 495 496 497
f 496 498 497
f 497 498 499
f 498 500 499
f 499 500 501
f 500 502 501
f 501 502 503
f 476 504 505
f 505 506 476
f 506 507 476
f 476 507 479
f 507 508 479
f 479 508 477
f 480 509 479
f 509 510 479
f 479 510 511
f 503 512 501
f 512 513 501
f 501 513 514
f 514 515 501
f 515 516 501
f 501 516 517
f 475 518 476
f 518 519 476
f 476 519 504
f 520 521 476
f 522 523 476
f 523 524 476
f 476 524 474
f 520 476 525
f 521 526 476
f 526 527 476
f 476 527 522
f 517 528 501
f 528 529 501
f 501 529 530
f 531 532 476
f 532 533 476
f 476 533 525
f 472 471 534
f 471 535 534
f 534 535 536
f 511 537 538
f 537 539 538
f 538 539 540
f 536 541 534
f 541 542 534
f 534 542 543
f 542 544 543
f 543 544 545
f 544 546 545
f 545 546 547
f 546 548 547
f 547 548 549
f 548 550 549
f 549 550 551
f 550 552 551
f 551 552 553
f 552 554 553
f 553 554 555
f 554 556 555
f 555 556 557
f 556 558 557
f 557 558 559
f 558 560 559
f 559 560 561
f 560 562 561
f 561 562 563
f 562 564 563
f 563 564 565
f 564 566 565
f 565 566 567
f 566 568 567
f 567 568 569
f 568 570 569
f 569 570 571
f 570 572 571
f 571 572 573
f 572 574 573
f 573 574 575
f 574 538 575
f 575 538 576
f 538 540 576
f 577 578 579
f 578 580 579
f 148 146 579
f 146 144 579
f 144 142 579
f 579 142 140
f 132 130 581
f 140 138 579
f 138 136 579
f 579 136 581
f 136 134 581
f 581 134 132
f 511 538 479
f 538 582 479
f 479 582 583
f 582 584 583
f 583 584 585
f 469 468 476
f 468 586 476
f 476 586 587
f 530 531 501
f 531 476 501
f 501 476 588
f 476 587 588
f 30 28 466
f 36 34 466
f 34 32 466
f 466 32 30
f 28 26 466
f 26 24 466
f 466 24 22
f 22 20 589
f 20 18 589
f 18 16 589
f 589 16 590
f 16 14 590
f 590 14 12
f 12 10 590
f 10 8 590
f 590 8 6
f 62 60 465
f 60 58 465
f 465 58 56
f 56 54 465
f 54 52 465
f 465 52 50
f 50 48 465
f 48 46 465
f 465 46 466
f 46 44 466
f 466 44 42
f 42 40 466
f 40 38 466
f 466 38 36
f 244 242 409
f 220 218 467
f 218 216 467
f 467 216 214
f 467 208 591
f 208 206 591
f 591 206 204
f 214 212 467
f 212 210 467
f 467 210 208
f 466 230 228
f 228 226 466
f 226 224 466
f 466 224 467
f 224 222 467
f 467 222 220
f 204 202 591
f 202 200 591
f 591 200 198
f 198 196 591
f 196 194 591
f 591 194 192
f 242 240 409
f 240 238 409
f 409 238 407
f 238 236 407
f 407 236 405
f 405 236 403
f 236 234 403
f 403 234 401
f 232 397 234
f 397 399 234
f 234 399 401
f 192 190 591
f 190 188 591
f 591 188 592
f 385 387 232
f 387 389 232
f 232 389 391
f 391 393 232
f 393 395 232
f 232 395 397
f 230 466 232
f 466 383 232
f 232 383 385
f 592 593 591
f 593 594 591
f 591 594 595
f 594 596 595
f 596 594 597
f 594 374 597
f 597 374 598
f 360 358 599
f 374 372 598
f 372 370 598
f 598 370 368
f 368 366 598
f 366 364 598
f 598 364 599
f 364 362 599
f 599 362 360
f 264 262 469
f 288 286 476
f 286 284 476
f 284 282 476
f 282 280 476
f 476 280 278
f 476 292 290
f 278 276 476
f 276 274 476
f 476 274 272
f 262 260 469
f 260 258 469
f 469 258 256
f 469 250 248
f 272 270 476
f 270 268 476
f 476 268 469
f 268 266 469
f 469 266 264
f 256 254 469
f 254 252 469
f 469 252 250
f 248 246 469
f 246 600 469
f 469 600 470
f 600 66 470
f 470 66 465
f 66 64 465
f 465 64 62
f 290 601 476
f 601 602 476
f 476 602 288
f 100 98 479
f 82 80 476
f 80 78 476
f 476 78 76
f 82 476 84
f 476 479 84
f 84 479 86
f 463 330 68
f 330 328 68
f 68 328 70
f 124 122 583
f 314 312 74
f 328 326 70
f 326 324 70
f 70 324 72
f 324 322 72
f 130 128 581
f 128 126 581
f 581 126 585
f 126 603 585
f 585 603 583
f 603 604 583
f 583 604 124
f 106 104 479
f 104 102 479
f 479 102 100
f 92 90 479
f 90 88 479
f 479 88 86
f 298 296 476
f 296 294 476
f 476 294 292
f 312 310 74
f 310 308 74
f 74 308 306
f 306 304 74
f 304 302 74
f 74 302 76
f 114 112 479
f 98 96 479
f 96 94 479
f 479 94 92
f 76 302 476
f 302 300 476
f 476 300 298
f 322 320 72
f 320 318 72
f 72 318 74
f 318 316 74
f 74 316 314
f 122 120 583
f 120 118 583
f 583 118 479
f 118 116 479
f 479 116 114
f 112 110 479
f 110 108 479
f 479 108 106
f 6 4 590
f 4 2 590
f 590 2 463
f 2 334 463
f 463 334 332
f 431 433 578
f 413 415 578
f 415 417 578
f 578 417 419
f 419 421 578
f 421 423 578
f 578 423 425
f 425 427 578
f 427 429 578
f 578 429 431
f 447 449 580
f 433 435 578
f 435 437 578
f 578 437 439
f 449 451 580
f 451 453 580
f 580 453 455
f 455 457 580
f 457 459 580
f 580 459 605
f 439 441 578
f 441 443 578
f 578 443 580
f 443 445 580
f 580 445 447
f 462 461 606
f 461 607 606
f 606 607 411
f 356 354 464
f 354 352 464
f 464 352 350
f 350 348 464
f 348 346 464
f 464 346 344
f 344 342 464
f 342 340 464
f 464 340 338
f 244 409 608
f 409 186 608
f 608 186 609
f 162 160 580
f 160 158 580
f 580 158 156
f 156 154 580
f 154 152 580
f 580 152 579
f 152 150 579
f 579 150 148
f 182 180 605
f 180 178 605
f 605 178 176
f 176 174 605
f 174 172 605
f 605 172 170
f 170 168 605
f 168 166 605
f 605 166 580
f 166 164 580
f 580 164 162
f 609 186 605
f 186 184 605
f 605 184 182
f 22 589 466
f 589 375 466
f 466 375 377
f 377 379 466
f 379 381 466
f 466 381 383
f 610 611 612
f 611 613 612
f 612 613 614
f 613 615 614
f 614 615 616
f 615 617 616
f 616 617 618
f 617 619 618
f 620 621 615
f 411 413 606
f 413 578 606
f 606 578 622
f 578 623 622
f 620 615 624
f 622 625 606
f 625 626 606
f 606 626 627
f 627 628 606
f 628 629 606
f 606 629 630
f 631 617 632
f 617 615 632
f 632 615 633
f 615 621 633
f 631 634 617
f 634 635 617
f 617 635 636
f 636 637 617
f 637 638 617
f 617 638 639
f 640 641 615
f 642 578 643
f 578 644 643
f 642 645 578
f 645 646 578
f 578 646 647
f 647 648 578
f 648 649 578
f 578 649 623
f 630 650 606
f 650 651 606
f 606 651 652
f 606 653 654
f 641 655 615
f 655 656 615
f 615 656 624
f 652 657 606
f 657 658 606
f 606 658 653
f 654 659 606
f 659 660 606
f 606 660 661
f 662 663 615
f 663 664 615
f 615 664 665
f 665 666 615
f 666 667 615
f 615 667 668
f 639 669 617
f 669 670 617
f 617 670 671
f 672 673 617
f 673 674 617
f 578 675 676
f 577 619 578
f 619 617 578
f 578 617 675
f 617 674 675
f 676 677 578
f 677 678 578
f 578 678 679
f 668 680 615
f 680 681 615
f 615 681 640
f 682 683 617
f 683 684 617
f 617 684 672
f 671 685 617
f 685 686 617
f 617 686 682
f 679 687 578
f 687 688 578
f 578 688 689
f 689 690 578
f 690 691 578
f 578 691 644
f 692 693 464
f 693 694 464
f 338 336 464
f 336 462 464
f 464 462 692
f 462 695 692
f 696 697 611
f 694 698 464
f 698 699 464
f 464 699 700
f 701 702 462
f 702 703 462
f 462 703 695
f 700 704 464
f 704 705 464
f 464 705 706
f 707 708 611
f 697 709 611
f 709 710 611
f 611 710 711
f 712 713 613
f 708 714 611
f 714 715 611
f 611 715 696
f 711 716 611
f 716 717 611
f 611 717 613
f 717 718 613
f 613 718 719
f 719 720 613
f 720 721 613
f 613 721 722
f 723 724 611
f 725 726 462
f 727 728 462
f 722 729 613
f 729 730 613
f 613 730 731
f 706 732 464
f 732 733 464
f 464 733 734
f 735 736 464
f 736 737 464
f 464 737 738
f 724 739 611
f 739 740 611
f 611 740 741
f 731 742 613
f 742 743 613
f 613 743 712
f 713 744 613
f 744 745 613
f 613 745 746
f 747 748 462
f 748 749 462
f 462 749 727
f 728 750 462
f 750 751 462
f 462 751 752
f 734 753 464
f 753 754 464
f 464 754 735
f 738 755 464
f 755 756 464
f 464 756 611
f 756 757 611
f 611 757 723
f 726 758 462
f 758 759 462
f 462 759 747
f 752 760 462
f 760 761 462
f 462 761 701
f 746 725 613
f 725 462 613
f 613 462 615
f 462 606 615
f 615 606 662
f 606 661 662
f 741 762 611
f 762 763 611
f 611 763 707
f 358 464 599
f 464 611 599
f 599 611 764
f 611 610 764
f 764 610 765
f 766 767 768
f 769 770 771
f 772 773 774
f 775 776 777
f 776 778 777
f 777 778 779
f 768 780 781
f 781 782 768
f 782 783 768
f 768 783 784
f 784 785 768
f 785 786 768
f 768 786 774
f 786 787 774
f 774 787 772
f 788 789 790
f 789 791 790
f 790 791 792
f 791 793 792
f 792 793 794
f 793 795 794
f 794 795 796
f 795 797 796
f 796 797 798
f 797 799 798
f 798 799 800
f 799 801 800
f 800 801 802
f 801 803 802
f 802 803 804
f 803 805 804
f 804 805 806
f 805 807 806
f 806 807 777
f 807 808 777
f 777 808 775
f 773 809 774
f 809 810 774
f 774 810 811
f 812 813 788
f 813 814 788
f 788 814 815
f 815 816 788
f 816 817 788
f 788 817 789
f 811 818 774
f 818 819 774
f 774 819 820
f 820 821 774
f 821 822 774
f 774 822 823
f 824 825 788
f 825 826 788
f 823 827 774
f 827 828 774
f 774 828 829
f 826 830 788
f 830 831 788
f 788 831 812
f 829 832 774
f 832 833 774
f 774 833 824
f 834 779 835
f 779 836 835
f 834 837 779
f 837 838 779
f 779 838 777
f 839 767 840
f 767 841 840
f 839 842 767
f 842 843 767
f 767 843 768
f 843 844 768
f 768 844 780
f 841 767 845
f 767 846 845
f 845 846 847
f 846 848 847
f 847 848 849
f 848 850 849
f 849 850 851
f 850 852 851
f 851 852 853
f 852 854 853
f 853 854 855
f 854 856 855
f 855 856 857
f 856 858 857
f 857 858 859
f 858 860 859
f 859 860 861
f 860 862 861
f 861 862 863
f 862 864 863
f 863 864 865
f 864 866 865
f 865 866 867
f 866 868 867
f 867 868 869
f 868 870 869
f 869 870 871
f 870 872 871
f 871 872 873
f 872 874 873
f 873 874 836
f 874 875 836
f 836 875 835
f 355 357 876
f 877 878 371
f 365 367 878
f 367 369 878
f 878 369 371
f 357 359 876
f 359 361 876
f 876 361 878
f 361 363 878
f 878 363 365
f 371 373 877
f 373 879 877
f 877 879 880
f 879 881 880
f 203 205 882
f 882 205 769
f 205 207 769
f 769 207 209
f 769 215 217
f 402 400 233
f 187 189 882
f 882 195 197
f 209 211 769
f 211 213 769
f 769 213 215
f 187 882 883
f 197 199 882
f 199 201 882
f 882 201 203
f 217 219 769
f 219 221 769
f 769 221 770
f 221 223 770
f 770 223 225
f 235 237 410
f 189 191 882
f 191 193 882
f 882 193 195
f 233 400 231
f 881 879 882
f 879 884 882
f 882 884 883
f 410 408 235
f 408 406 235
f 235 406 233
f 406 404 233
f 233 404 402
f 237 239 410
f 239 241 410
f 410 241 243
f 400 398 231
f 398 396 231
f 231 396 394
f 394 392 231
f 392 390 231
f 231 390 388
f 225 227 770
f 227 229 770
f 770 229 384
f 229 231 384
f 384 231 386
f 231 388 386
f 19 21 770
f 59 61 771
f 3 5 885
f 5 7 885
f 885 7 9
f 9 11 885
f 11 13 885
f 885 13 886
f 13 15 886
f 886 15 17
f 21 23 770
f 23 25 770
f 770 25 27
f 27 29 770
f 29 31 770
f 770 31 33
f 59 771 57
f 51 771 49
f 771 47 49
f 51 53 771
f 53 55 771
f 771 55 57
f 33 35 770
f 35 37 770
f 770 37 39
f 39 41 770
f 41 43 770
f 770 43 771
f 43 45 771
f 771 45 47
f 887 888 774
f 888 889 774
f 774 889 890
f 889 891 890
f 824 788 774
f 788 892 774
f 774 892 887
f 893 894 766
f 895 137 139
f 139 141 895
f 141 143 895
f 895 143 145
f 896 897 898
f 894 893 897
f 893 899 897
f 897 899 898
f 898 125 896
f 125 127 896
f 896 127 129
f 129 131 896
f 131 133 896
f 896 133 895
f 133 135 895
f 895 135 137
f 900 901 895
f 901 902 895
f 902 901 903
f 901 904 903
f 903 904 905
f 329 331 906
f 331 333 906
f 906 333 885
f 333 1 885
f 885 1 3
f 327 69 325
f 69 323 325
f 329 906 327
f 906 67 327
f 327 67 69
f 85 87 768
f 323 69 321
f 69 71 321
f 321 71 319
f 305 307 73
f 307 309 73
f 73 309 311
f 77 79 774
f 79 81 774
f 774 81 768
f 81 83 768
f 768 83 85
f 766 768 893
f 768 117 893
f 893 117 119
f 291 293 774
f 293 295 774
f 87 89 768
f 89 91 768
f 768 91 93
f 99 101 768
f 101 103 768
f 768 103 105
f 119 121 893
f 121 123 893
f 893 123 899
f 77 774 75
f 774 301 75
f 75 301 73
f 301 303 73
f 73 303 305
f 311 313 73
f 313 315 73
f 73 315 71
f 315 317 71
f 71 317 319
f 295 297 774
f 297 299 774
f 774 299 301
f 93 95 768
f 95 97 768
f 768 97 99
f 105 107 768
f 107 109 768
f 768 109 111
f 111 113 768
f 113 115 768
f 768 115 117
f 277 279 774
f 279 281 774
f 774 281 283
f 61 63 771
f 63 65 771
f 771 65 891
f 65 907 891
f 891 907 890
f 907 245 890
f 257 259 890
f 259 261 890
f 890 261 263
f 271 273 774
f 273 275 774
f 774 275 277
f 245 247 890
f 247 249 890
f 890 249 251
f 263 265 890
f 265 267 890
f 890 267 774
f 267 269 774
f 774 269 271
f 251 253 890
f 253 255 890
f 890 255 257
f 283 285 774
f 285 287 774
f 774 287 908
f 908 909 774
f 909 289 774
f 774 289 291
f 910 339 341
f 341 343 910
f 343 345 910
f 910 345 347
f 347 349 910
f 349 351 910
f 910 351 353
f 911 335 910
f 335 337 910
f 910 337 339
f 912 414 412
f 414 912 416
f 912 901 416
f 416 901 418
f 436 434 901
f 434 432 901
f 901 432 430
f 430 428 901
f 428 426 901
f 901 426 424
f 424 422 901
f 422 420 901
f 901 420 418
f 456 454 900
f 454 452 900
f 900 452 450
f 442 440 901
f 440 438 901
f 901 438 436
f 913 460 900
f 460 458 900
f 900 458 456
f 450 448 900
f 448 446 900
f 900 446 901
f 446 444 901
f 901 444 442
f 181 183 913
f 913 183 914
f 145 147 895
f 147 149 895
f 895 149 900
f 149 151 900
f 900 151 153
f 153 155 900
f 155 157 900
f 900 157 159
f 159 161 900
f 161 163 900
f 900 163 913
f 163 165 913
f 165 167 913
f 913 167 169
f 169 171 913
f 171 173 913
f 913 173 175
f 175 177 913
f 177 179 913
f 913 179 181
f 243 915 410
f 915 914 410
f 410 914 185
f 914 183 185
f 384 382 770
f 382 380 770
f 770 380 378
f 17 19 886
f 19 770 886
f 886 770 376
f 770 378 376
f 916 917 904
f 916 918 917
f 918 919 917
f 917 919 920
f 921 922 904
f 922 923 904
f 904 923 916
f 924 925 912
f 926 927 912
f 927 928 912
f 912 928 929
f 929 930 912
f 930 931 912
f 912 931 932
f 933 934 904
f 934 935 904
f 904 935 921
f 936 901 937
f 901 938 937
f 932 939 912
f 939 940 912
f 912 940 901
f 940 941 901
f 901 941 942
f 942 943 901
f 943 944 901
f 901 944 938
f 945 946 901
f 947 948 904
f 948 949 904
f 904 949 933
f 920 950 917
f 950 951 917
f 917 951 952
f 917 953 924
f 954 955 912
f 955 956 912
f 912 956 957
f 958 959 917
f 959 960 917
f 917 960 953
f 925 961 912
f 961 962 912
f 912 962 954
f 957 963 912
f 963 964 912
f 912 964 926
f 936 965 901
f 965 966 901
f 901 966 967
f 952 968 917
f 968 969 917
f 917 969 970
f 971 904 972
f 904 901 972
f 972 901 973
f 901 946 973
f 971 974 904
f 974 975 904
f 904 975 976
f 970 977 917
f 977 978 917
f 917 978 958
f 979 980 901
f 980 981 901
f 901 981 945
f 967 982 901
f 982 983 901
f 901 983 979
f 976 984 904
f 984 985 904
f 904 985 986
f 986 987 904
f 987 988 904
f 904 988 947
f 989 990 991
f 992 993 994
f 993 995 994
f 994 995 996
f 997 998 999
f 1000 1001 910
f 1001 1002 910
f 910 1002 1003
f 1003 1004 910
f 1004 1005 910
f 910 1005 1006
f 1006 1007 910
f 1007 1008 910
f 910 1008 1009
f 989 991 1010
f 996 1011 994
f 1011 1012 994
f 994 1012 1013
f 1009 1010 910
f 1010 991 910
f 910 991 911
f 991 912 911
f 911 912 1014
f 912 412 1014
f 990 1015 991
f 1015 1016 991
f 991 1016 1017
f 997 999 1018
f 998 1019 999
f 1019 1020 999
f 999 1020 994
f 1020 1021 994
f 994 1021 992
f 1022 1023 910
f 1024 1025 999
f 1026 1027 994
f 1027 1028 994
f 994 1028 1029
f 1023 1030 910
f 1030 1031 910
f 910 1031 1032
f 1033 1034 991
f 1034 1035 991
f 991 1035 1036
f 1037 1038 999
f 1029 1039 994
f 1039 1040 994
f 994 1040 910
f 1040 1041 910
f 910 1041 1022
f 1032 1042 910
f 1042 1043 910
f 910 1043 1000
f 1017 1044 991
f 1044 1045 991
f 991 1045 1033
f 1036 1046 991
f 1046 1047 991
f 991 1047 1048
f 1037 999 1049
f 1038 1050 999
f 1050 1051 999
f 999 1051 1024
f 1052 1053 999
f 1053 1054 999
f 999 1054 1018
f 1013 1055 994
f 1055 1056 994
f 994 1056 1057
f 1048 1058 991
f 1058 1059 991
f 991 1059 1060
f 1025 1061 999
f 1061 1062 999
f 999 1062 1052
f 1057 1063 994
f 1063 1064 994
f 994 1064 1026
f 924 912 917
f 912 991 917
f 917 991 999
f 991 1060 999
f 999 1060 1049
f 353 355 910
f 355 876 910
f 910 876 994
f 876 1065 994
f 905 904 1066
f 904 917 1066
f 1066 917 1067
f 917 999 1067
f 1067 999 1068
f 999 994 1068
f 1068 994 1069
f 994 1065 1069
f 1069 1065 1070
f 1009 693 1010
f 693 692 1010
f 1010 692 989
f 692 695 989
f 989 695 990
f 695 703 990
f 990 703 1015
f 703 702 1015
f 1015 702 1016
f 702 701 1016
f 1016 701 1017
f 701 761 1017
f 1017 761 1044
f 761 760 1044
f 1044 760 1045
f 760 752 1045
f 1045 752 1033
f 752 751 1033
f 1033 751 1034
f 751 750 1034
f 1034 750 1035
f 750 728 1035
f 1035 728 1036
f 728 727 1036
f 1036 727 1046
f 727 749 1046
f 1046 749 1047
f 749 748 1047
f 1047 748 1048
f 748 747 1048
f 1048 747 1058
f 747 759 1058
f 1058 759 1059
f 759 758 1059
f 1059 758 1060
f 758 726 1060
f 1060 726 1049
f 726 725 1049
f 1049 725 1037
f 725 746 1037
f 1037 746 1038
f 746 745 1038
f 1038 745 1050
f 745 744 1050
f 1050 744 1051
f 744 713 1051
f 1051 713 1024
f 713 712 1024
f 1024 712 1025
f 712 743 1025
f 1025 743 1061
f 743 742 1061
f 1061 742 1062
f 742 731 1062
f 1062 731 1052
f 731 730 1052
f 1052 730 1053
f 730 729 1053
f 1053 729 1054
f 729 722 1054
f 1054 722 1018
f 722 721 1018
f 1018 721 997
f 721 720 997
f 997 720 998
f 720 719 998
f 998 719 1019
f 719 718 1019
f 1019 718 1020
f 718 717 1020
f 1020 717 1021
f 717 716 1021
f 1021 716 992
f 716 711 992
f 992 711 993
f 711 710 993
f 993 710 995
f 710 709 995
f 995 709 996
f 709 697 996
f 996 697 1011
f 697 696 1011
f 1011 696 1012
f 696 715 1012
f 1012 715 1013
f 715 714 1013
f 1013 714 1055
f 714 708 1055
f 1055 708 1056
f 708 707 1056
f 1056 707 1057
f 707 763 1057
f 1057 763 1063
f 763 762 1063
f 1063 762 1064
f 762 741 1064
f 1064 741 1026
f 741 740 1026
f 1026 740 1027
f 740 739 1027
f 1027 739 1028
f 739 724 1028
f 1028 724 1029
f 724 723 1029
f 1029 723 1039
f 723 757 1039
f 1039 757 1040
f 757 756 1040
f 1040 756 1041
f 756 755 1041
f 1041 755 1022
f 755 738 1022
f 1022 738 1023
f 738 737 1023
f 1023 737 1030
f 737 736 1030
f 1030 736 1031
f 736 735 1031
f 1031 735 1032
f 735 754 1032
f 1032 754 1042
f 754 753 1042
f 1042 753 1043
f 753 734 1043
f 1043 734 1000
f 734 733 1000
f 1000 733 1001
f 733 732 1001
f 1001 732 1002
f 732 706 1002
f 1002 706 1003
f 706 705 1003
f 1003 705 1004
f 705 704 1004
f 1004 704 1005
f 704 700 1005
f 1005 700 1006
f 700 699 1006
f 1006 699 1007
f 699 698 1007
f 1007 698 1008
f 698 694 1008
f 1008 694 1009
f 694 693 1009
f 186 409 185
f 409 410 185
f 287 288 602
f 287 602 908
f 602 601 908
f 908 601 909
f 601 290 909
f 909 290 289
f 765 1070 764
f 1070 1065 764
f 764 1065 599
f 1065 876 599
f 599 876 598
f 876 878 598
f 767 538 574
f 767 574 846
f 574 572 846
f 846 572 848
f 572 570 848
f 848 570 850
f 570 568 850
f 850 568 852
f 568 566 852
f 852 566 854
f 566 564 854
f 854 564 856
f 564 562 856
f 856 562 858
f 562 560 858
f 858 560 860
f 560 558 860
f 860 558 862
f 558 556 862
f 862 556 864
f 556 554 864
f 864 554 866
f 554 552 866
f 866 552 868
f 552 550 868
f 868 550 870
f 550 548 870
f 870 548 872
f 548 546 872
f 872 546 874
f 546 544 874
f 874 544 875
f 544 542 875
f 875 542 835
f 542 541 835
f 835 541 834
f 541 536 834
f 834 536 837
f 536 535 837
f 837 535 838
f 535 471 838
f 838 471 777
f 471 483 777
f 777 483 806
f 483 485 806
f 806 485 804
f 485 487 804
f 804 487 802
f 487 489 802
f 802 489 800
f 489 491 800
f 800 491 798
f 491 493 798
f 798 493 796
f 493 495 796
f 796 495 794
f 495 497 794
f 794 497 792
f 497 499 792
f 792 499 790
f 499 501 790
f 790 501 788
f 501 588 788
f 788 588 892
f 588 587 892
f 892 587 887
f 587 586 887
f 887 586 888
f 888 586 468
f 888 468 889
f 468 470 889
f 889 470 891
f 470 465 891
f 891 465 771
f 465 467 771
f 771 467 769
f 467 591 769
f 769 591 882
f 591 595 882
f 882 595 881
f 595 596 881
f 881 596 880
f 596 597 880
f 880 597 877
f 597 598 877
f 877 598 878
f 579 895 577
f 895 902 577
f 577 902 619
f 902 903 619
f 619 903 618
f 903 905 618
f 895 579 896
f 579 581 896
f 896 581 897
f 581 585 897
f 897 585 894
f 585 584 894
f 894 584 766
f 584 582 766
f 766 582 767
f 582 538 767
f 1 333 2
f 333 334 2
f 373 374 879
f 374 594 879
f 879 594 884
f 594 593 884
f 884 593 883
f 593 592 883
f 883 592 187
f 592 188 187
f 243 244 915
f 244 608 915
f 915 608 914
f 608 609 914
f 914 609 913
f 609 605 913
f 913 605 460
f 605 459 460
f 376 375 886
f 375 589 886
f 886 589 885
f 589 590 885
f 885 590 906
f 590 463 906
f 906 463 67
f 463 68 67
f 123 124 604
f 123 604 899
f 604 603 899
f 899 603 898
f 603 126 898
f 898 126 125
f 941 623 942
f 623 649 942
f 942 649 943
f 649 648 943
f 943 648 944
f 648 647 944
f 944 647 938
f 647 646 938
f 938 646 937
f 646 645 937
f 937 645 936
f 645 642 936
f 936 642 965
f 642 643 965
f 965 643 966
f 643 644 966
f 966 644 967
f 644 691 967
f 967 691 982
f 691 690 982
f 982 690 983
f 690 689 983
f 983 689 979
f 689 688 979
f 979 688 980
f 688 687 980
f 980 687 981
f 687 679 981
f 981 679 945
f 679 678 945
f 945 678 946
f 678 677 946
f 946 677 973
f 677 676 973
f 973 676 972
f 676 675 972
f 972 675 971
f 675 674 971
f 971 674 974
f 674 673 974
f 974 673 975
f 673 672 975
f 975 672 976
f 672 684 976
f 976 684 984
f 684 683 984
f 984 683 985
f 683 682 985
f 985 682 986
f 682 686 986
f 986 686 987
f 686 685 987
f 987 685 988
f 685 671 988
f 988 671 947
f 671 670 947
f 947 670 948
f 670 669 948
f 948 669 949
f 669 639 949
f 949 639 933
f 639 638 933
f 933 638 934
f 638 637 934
f 934 637 935
f 637 636 935
f 935 636 921
f 636 635 921
f 921 635 922
f 635 634 922
f 922 634 923
f 634 631 923
f 923 631 916
f 631 632 916
f 916 632 918
f 632 633 918
f 918 633 919
f 633 621 919
f 919 621 920
f 621 620 920
f 920 620 950
f 620 624 950
f 950 624 951
f 624 656 951
f 951 656 952
f 656 655 952
f 952 655 968
f 655 641 968
f 968 641 969
f 641 640 969
f 969 640 970
f 640 681 970
f 970 681 977
f 681 680 977
f 977 680 978
f 680 668 978
f 978 668 958
f 668 667 958
f 958 667 959
f 667 666 959
f 959 666 960
f 666 665 960
f 960 665 953
f 665 664 953
f 953 664 924
f 664 663 924
f 924 663 925
f 663 662 925
f 925 662 961
f 662 661 961
f 961 661 962
f 661 660 962
f 962 660 954
f 660 659 954
f 954 659 955
f 659 654 955
f 955 654 956
f 654 653 956
f 956 653 957
f 653 658 957
f 957 658 963
f 658 657 963
f 963 657 964
f 657 652 964
f 964 652 926
f 652 651 926
f 926 651 927
f 651 650 927
f 927 650 928
f 650 630 928
f 928 630 929
f 630 629 929
f 929 629 930
f 629 628 930
f 930 628 931
f 628 627 931
f 931 627 932
f 627 626 932
f 932 626 939
f 626 625 939
f 939 625 940
f 625 622 940
f 940 622 941
f 622 623 941
f 803 488 805
f 488 486 805
f 805 486 807
f 486 484 807
f 807 484 808
f 484 482 808
f 808 482 775
f 482 481 775
f 775 481 776
f 481 473 776
f 776 473 778
f 473 472 778
f 778 472 779
f 472 534 779
f 779 534 836
f 534 543 836
f 836 543 873
f 543 545 873
f 873 545 871
f 545 547 871
f 871 547 869
f 547 549 869
f 869 549 867
f 549 551 867
f 867 551 865
f 551 553 865
f 865 553 863
f 553 555 863
f 863 555 861
f 555 557 861
f 861 557 859
f 557 559 859
f 859 559 857
f 559 561 857
f 857 561 855
f 561 563 855
f 855 563 853
f 563 565 853
f 853 565 851
f 565 567 851
f 851 567 849
f 567 569 849
f 849 569 847
f 569 571 847
f 847 571 845
f 571 573 845
f 845 573 841
f 573 575 841
f 841 575 840
f 575 576 840
f 840 576 839
f 576 540 839
f 839 540 842
f 540 539 842
f 842 539 843
f 539 537 843
f 843 537 844
f 537 511 844
f 844 511 780
f 511 510 780
f 780 510 781
f 510 509 781
f 781 509 782
f 509 480 782
f 782 480 783
f 480 478 783
f 783 478 784
f 478 477 784
f 784 477 785
f 477 508 785
f 785 508 786
f 508 507 786
f 786 507 787
f 507 506 787
f 787 506 772
f 506 505 772
f 772 505 773
f 505 504 773
f 773 504 809
f 504 519 809
f 809 519 810
f 519 518 810
f 810 518 811
f 518 475 811
f 811 475 818
f 475 474 818
f 818 474 819
f 474 524 819
f 819 524 820
f 524 523 820
f 820 523 821
f 523 522 821
f 821 522 822
f 522 527 822
f 822 527 823
f 527 526 823
f 823 526 827
f 526 521 827
f 827 521 828
f 521 520 828
f 828 520 829
f 520 525 829
f 829 525 832
f 525 533 832
f 832 533 833
f 533 532 833
f 833 532 824
f 532 531 824
f 824 531 825
f 531 530 825
f 825 530 826
f 530 529 826
f 826 529 830
f 529 528 830
f 830 528 831
f 528 517 831
f 831 517 812
f 517 516 812
f 812 516 813
f 516 515 813
f 813 515 814
f 515 514 814
f 814 514 815
f 514 513 815
f 815 513 816
f 513 512 816
f 816 512 817
f 512 503 817
f 817 503 789
f 503 502 789
f 789 502 791
f 502 500 791
f 791 500 793
f 500 498 793
f 793 498 795
f 498 496 795
f 795 496 797
f 496 494 797
f 797 494 799
f 494 492 799
f 799 492 801
f 492 490 801
f 801 490 803
f 490 488 803
f 618 905 616
f 905 1066 616
f 616 1066 614
f 1066 1067 614
f 614 1067 612
f 1067 1068 612
f 612 1068 610
f 1068 1069 610
f 610 1069 765
f 1069 1070 765
f 65 66 907
f 66 600 907
f 907 600 245
f 600 246 245
f 412 411 1014
f 411 607 1014
f 1014 607 911
f 607 461 911
f 911 461 335
f 461 336 335

