# https://github.com/mikedh/trimesh

o tm25_235s_p05_bicept_insert.stl
v 0.00000000 -0.10575682 0.08553993
v 0.00000000 -0.10488233 0.08517770
v 0.00000000 -0.11417142 0.07637337
v 0.00000000 -0.09217142 0.04637337
v 0.00000000 -0.09218283 0.04663484
v 0.00000000 -0.08817142 0.07637337
v 0.00000000 -0.09439495 0.07127115
v 0.00000000 -0.09465047 0.07132780
v 0.00000000 -0.09494811 0.08648557
v 0.00000000 -0.09490994 0.07136196
v 0.00000000 -0.09517141 0.07137337
v 0.00000000 -0.10843927 0.07109229
v 0.00000000 -0.10867141 0.07097144
v 0.00000000 -0.10659641 0.08597700
v 0.00000000 -0.09221699 0.04689432
v 0.00000000 -0.09227364 0.04714983
v 0.00000000 -0.09235234 0.04739943
v 0.00000000 -0.09257334 0.04787337
v 0.00000000 -0.09271396 0.04809410
v 0.00000000 -0.09235234 0.05534731
v 0.00000000 -0.09217142 0.06837337
v 0.00000000 -0.09218283 0.06863484
v 0.00000000 -0.09221699 0.06889432
v 0.00000000 -0.10999049 0.06939943
v 0.00000000 -0.10989033 0.06964123
v 0.00000000 -0.10976949 0.06987337
v 0.00000000 -0.10909978 0.04867151
v 0.00000000 -0.10929273 0.04849469
v 0.00000000 -0.10999049 0.05534731
v 0.00000000 -0.11100485 0.09078796
v 0.00000000 -0.11056779 0.08994837
v 0.00000000 -0.11617141 0.07637337
v 0.00000000 -0.11005921 0.08915006
v 0.00000000 -0.10948300 0.08839913
v 0.00000000 -0.08617141 0.07637337
v 0.00000000 -0.09419717 0.08706179
v 0.00000000 -0.09349930 0.08770126
v 0.00000000 -0.09285983 0.08839913
v 0.00000000 -0.09228361 0.08915006
v 0.00000000 -0.09177504 0.08994837
v 0.00000000 -0.09133797 0.09078796
v 0.00000000 -0.09097575 0.09166245
v 0.00000000 -0.08617141 0.09537337
v 0.00000000 -0.09069112 0.09256519
v 0.00000000 -0.09048625 0.09348929
v 0.00000000 -0.09227364 0.06914983
v 0.00000000 -0.09235234 0.06939943
v 0.00000000 -0.09245249 0.06964123
v 0.00000000 -0.09257334 0.06987337
v 0.00000000 -0.09271396 0.07009410
v 0.00000000 -0.09287328 0.07030173
v 0.00000000 -0.09305009 0.07049469
v 0.00000000 -0.09324305 0.07067151
v 0.00000000 -0.09345068 0.07083083
v 0.00000000 -0.09367141 0.07097144
v 0.00000000 -0.09390356 0.07109229
v 0.00000000 -0.09414535 0.07119245
v 0.00000000 -0.10022578 0.08456466
v 0.00000000 -0.09928733 0.08468821
v 0.00000000 -0.09836323 0.08489308
v 0.00000000 -0.09746049 0.08517770
v 0.00000000 -0.09658600 0.08553993
v 0.00000000 -0.09574641 0.08597700
v 0.00000000 -0.10889214 0.07083083
v 0.00000000 -0.10909978 0.07067151
v 0.00000000 -0.10929273 0.07049469
v 0.00000000 -0.10946955 0.07030173
v 0.00000000 -0.10962887 0.07009410
v 0.00000000 -0.09324305 0.03207524
v 0.00000000 -0.09305009 0.03225205
v 0.00000000 -0.08817142 0.02637337
v 0.00000000 -0.11198013 0.09442773
v 0.00000000 -0.11185658 0.09348929
v 0.00000000 -0.11617141 0.09537337
v 0.00000000 -0.11165171 0.09256519
v 0.00000000 -0.11136708 0.09166245
v 0.00000000 -0.09305009 0.04849469
v 0.00000000 -0.09271396 0.05465264
v 0.00000000 -0.09257334 0.05487337
v 0.00000000 -0.09227364 0.05559691
v 0.00000000 -0.09245249 0.04764123
v 0.00000000 -0.09221699 0.05585243
v 0.00000000 -0.09218283 0.05611191
v 0.00000000 -0.09217142 0.05637337
v 0.00000000 -0.11016000 0.06863484
v 0.00000000 -0.11017141 0.06837337
v 0.00000000 -0.10946955 0.04830173
v 0.00000000 -0.10962887 0.04809410
v 0.00000000 -0.10976949 0.04787337
v 0.00000000 -0.11012584 0.04689432
v 0.00000000 -0.11006919 0.04714983
v 0.00000000 -0.10999049 0.04739943
v 0.00000000 -0.09227364 0.03359691
v 0.00000000 -0.09221699 0.03385243
v 0.00000000 -0.09218283 0.03411191
v 0.00000000 -0.09217142 0.03437337
v 0.00000000 -0.10884352 0.08770126
v 0.00000000 -0.10814566 0.08706179
v 0.00000000 -0.10739472 0.08648557
v 0.00000000 -0.09324305 0.04867151
v 0.00000000 -0.09305009 0.05425205
v 0.00000000 -0.09287328 0.05444501
v 0.00000000 -0.09287328 0.04830173
v 0.00000000 -0.09245249 0.05510552
v 0.00000000 -0.11006919 0.06914983
v 0.00000000 -0.11012584 0.06889432
v 0.00000000 -0.11012584 0.05585243
v 0.00000000 -0.11016000 0.05611191
v 0.00000000 -0.11017141 0.05637337
v 0.00000000 -0.10794787 0.04927115
v 0.00000000 -0.10929273 0.05425205
v 0.00000000 -0.10909978 0.05407524
v 0.00000000 -0.11006919 0.05559691
v 0.00000000 -0.10989033 0.04764123
v 0.00000000 -0.11016000 0.04663484
v 0.00000000 -0.11017141 0.04637337
v 0.00000000 -0.11417142 0.02637337
v 0.00000000 -0.11017141 0.03437337
v 0.00000000 -0.11016000 0.03411191
v 0.00000000 -0.11012584 0.03385243
v 0.00000000 -0.11006919 0.03359691
v 0.00000000 -0.10999049 0.03334731
v 0.00000000 -0.09287328 0.03244501
v 0.00000000 -0.09271396 0.03265264
v 0.00000000 -0.09257334 0.03287337
v 0.00000000 -0.09345068 0.04883083
v 0.00000000 -0.09367141 0.04897145
v 0.00000000 -0.09390356 0.04909230
v 0.00000000 -0.09414535 0.04919245
v 0.00000000 -0.09439495 0.04927115
v 0.00000000 -0.09324305 0.05407524
v 0.00000000 -0.10717142 0.07137337
v 0.00000000 -0.10743288 0.07136196
v 0.00000000 -0.10397960 0.08489308
v 0.00000000 -0.10769236 0.07132780
v 0.00000000 -0.10794787 0.07127115
v 0.00000000 -0.10819747 0.07119245
v 0.00000000 -0.10305549 0.08468821
v 0.00000000 -0.10211705 0.08456466
v 0.00000000 -0.10117141 0.08452337
v 0.00000000 -0.10889214 0.05391591
v 0.00000000 -0.10867141 0.05377530
v 0.00000000 -0.10843927 0.05365445
v 0.00000000 -0.09245249 0.03310551
v 0.00000000 -0.09235234 0.03334731
v 0.00000000 -0.09465047 0.04932779
v 0.00000000 -0.09490994 0.04936196
v 0.00000000 -0.10794787 0.05347559
v 0.00000000 -0.09517141 0.04937337
v 0.00000000 -0.10819747 0.05355429
v 0.00000000 -0.10743288 0.05338479
v 0.00000000 -0.10717142 0.05337337
v 0.00000000 -0.10976949 0.05487337
v 0.00000000 -0.10962887 0.05465264
v 0.00000000 -0.10889214 0.04883083
v 0.00000000 -0.10946955 0.05444501
v 0.00000000 -0.10867141 0.04897145
v 0.00000000 -0.10843927 0.04909230
v 0.00000000 -0.10962887 0.03265264
v 0.00000000 -0.10946955 0.03244501
v 0.00000000 -0.10929273 0.03225205
v 0.00000000 -0.10909978 0.03207524
v 0.00000000 -0.09036270 0.09442773
v 0.00000000 -0.09032141 0.09537337
v 0.00000000 -0.08622849 0.09668071
v 0.00000000 -0.09036270 0.09631901
v 0.00000000 -0.08639929 0.09797809
v 0.00000000 -0.09048625 0.09725746
v 0.00000000 -0.08668253 0.09925566
v 0.00000000 -0.09069112 0.09818156
v 0.00000000 -0.08707602 0.10050368
v 0.00000000 -0.09097575 0.09908429
v 0.00000000 -0.08757680 0.10171264
v 0.00000000 -0.09133797 0.09995878
v 0.00000000 -0.08818103 0.10287337
v 0.00000000 -0.09177504 0.10079837
v 0.00000000 -0.08888413 0.10397702
v 0.00000000 -0.09228361 0.10159668
v 0.00000000 -0.08968075 0.10501519
v 0.00000000 -0.09285983 0.10234762
v 0.00000000 -0.09056481 0.10597997
v 0.00000000 -0.09349930 0.10304548
v 0.00000000 -0.09152960 0.10686404
v 0.00000000 -0.09419717 0.10368495
v 0.00000000 -0.09256776 0.10766065
v 0.00000000 -0.09494811 0.10426117
v 0.00000000 -0.09367141 0.10836376
v 0.00000000 -0.09574641 0.10476974
v 0.00000000 -0.09483214 0.10896799
v 0.00000000 -0.09658600 0.10520681
v 0.00000000 -0.09604111 0.10946876
v 0.00000000 -0.09746049 0.10556903
v 0.00000000 -0.09728913 0.10986226
v 0.00000000 -0.09836323 0.10585367
v 0.00000000 -0.09856669 0.11014549
v 0.00000000 -0.09928733 0.10605854
v 0.00000000 -0.09986407 0.11031629
v 0.00000000 -0.10022578 0.10618208
v 0.00000000 -0.10117141 0.11037337
v 0.00000000 -0.10117141 0.10622337
v 0.00000000 -0.10247875 0.11031629
v 0.00000000 -0.10211705 0.10618208
v 0.00000000 -0.10377613 0.11014549
v 0.00000000 -0.10305549 0.10605854
v 0.00000000 -0.10505370 0.10986226
v 0.00000000 -0.10397960 0.10585367
v 0.00000000 -0.10630172 0.10946876
v 0.00000000 -0.10488233 0.10556903
v 0.00000000 -0.10751069 0.10896799
v 0.00000000 -0.10575682 0.10520681
v 0.00000000 -0.10867141 0.10836376
v 0.00000000 -0.10659641 0.10476974
v 0.00000000 -0.10977506 0.10766065
v 0.00000000 -0.10739472 0.10426117
v 0.00000000 -0.11081323 0.10686404
v 0.00000000 -0.10814566 0.10368495
v 0.00000000 -0.11177801 0.10597997
v 0.00000000 -0.10884352 0.10304548
v 0.00000000 -0.11266208 0.10501519
v 0.00000000 -0.10948300 0.10234762
v 0.00000000 -0.11345869 0.10397702
v 0.00000000 -0.11005921 0.10159668
v 0.00000000 -0.11416180 0.10287337
v 0.00000000 -0.11056779 0.10079837
v 0.00000000 -0.11476603 0.10171264
v 0.00000000 -0.11100485 0.09995878
v 0.00000000 -0.11526680 0.10050368
v 0.00000000 -0.11136708 0.09908429
v 0.00000000 -0.11566030 0.09925566
v 0.00000000 -0.11165171 0.09818156
v 0.00000000 -0.11594353 0.09797809
v 0.00000000 -0.11185658 0.09725746
v 0.00000000 -0.11611433 0.09668071
v 0.00000000 -0.11198013 0.09631901
v 0.00000000 -0.11202142 0.09537337
v 0.00000000 -0.09517141 0.05337337
v 0.00000000 -0.09490994 0.05338479
v 0.00000000 -0.09465047 0.05341895
v 0.00000000 -0.09439495 0.05347559
v 0.00000000 -0.09414535 0.05355429
v 0.00000000 -0.09390356 0.05365445
v 0.00000000 -0.09367141 0.05377530
v 0.00000000 -0.09345068 0.05391591
v 0.00000000 -0.10717142 0.04937337
v 0.00000000 -0.10743288 0.04936196
v 0.00000000 -0.10769236 0.04932779
v 0.00000000 -0.10989033 0.05510552
v 0.00000000 -0.10819747 0.04919245
v 0.00000000 -0.10889214 0.03191591
v 0.00000000 -0.10867141 0.03177530
v 0.00000000 -0.10843927 0.03165445
v 0.00000000 -0.10819747 0.03155429
v 0.00000000 -0.10794787 0.03147559
v 0.00000000 -0.10769236 0.03141895
v 0.00000000 -0.09490994 0.03138479
v 0.00000000 -0.09465047 0.03141895
v 0.00000000 -0.09439495 0.03147559
v 0.00000000 -0.09414535 0.03155429
v 0.00000000 -0.09390356 0.03165445
v 0.00000000 -0.09367141 0.03177530
v 0.00000000 -0.09345068 0.03191591
v 0.00000000 -0.10769236 0.05341895
v 0.00000000 -0.10989033 0.03310551
v 0.00000000 -0.10976949 0.03287337
v 0.00000000 -0.10743288 0.03138479
v 0.00000000 -0.10717142 0.03137337
v 0.00000000 -0.09517141 0.03137337
v 0.01500000 -0.10488233 0.08517770
v 0.01500000 -0.10575682 0.08553993
v 0.01500000 -0.11417142 0.07637337
v 0.01500000 -0.11006919 0.04714983
v 0.01500000 -0.10999049 0.04739943
v 0.01500000 -0.11012584 0.03385243
v 0.01500000 -0.11016000 0.03411191
v 0.01500000 -0.11417142 0.02637337
v 0.01500000 -0.10909978 0.03207524
v 0.01500000 -0.10929273 0.03225205
v 0.01500000 -0.11006919 0.03359691
v 0.01500000 -0.10743288 0.03138479
v 0.01500000 -0.10769236 0.03141895
v 0.01500000 -0.11012584 0.04689432
v 0.01500000 -0.10976949 0.06987337
v 0.01500000 -0.10117141 0.08452337
v 0.01500000 -0.10211705 0.08456466
v 0.01500000 -0.10962887 0.07009410
v 0.01500000 -0.10946955 0.07030173
v 0.01500000 -0.10929273 0.07049469
v 0.01500000 -0.10867141 0.07097144
v 0.01500000 -0.10843927 0.07109229
v 0.01500000 -0.10819747 0.07119245
v 0.01500000 -0.10794787 0.07127115
v 0.01500000 -0.10769236 0.07132780
v 0.01500000 -0.09324305 0.07067151
v 0.01500000 -0.09305009 0.07049469
v 0.01500000 -0.08817142 0.07637337
v 0.01500000 -0.09227364 0.05559691
v 0.01500000 -0.09235234 0.05534731
v 0.01500000 -0.08817142 0.02637337
v 0.01500000 -0.10884352 0.08770126
v 0.01500000 -0.10948300 0.08839913
v 0.01500000 -0.11617141 0.07637337
v 0.01500000 -0.11005921 0.08915006
v 0.01500000 -0.11056779 0.08994837
v 0.01500000 -0.09465047 0.03141895
v 0.01500000 -0.09490994 0.03138479
v 0.01500000 -0.09517141 0.03137337
v 0.01500000 -0.10717142 0.03137337
v 0.01500000 -0.10929273 0.04849469
v 0.01500000 -0.10999049 0.05534731
v 0.01500000 -0.10946955 0.04830173
v 0.01500000 -0.10962887 0.04809410
v 0.01500000 -0.11006919 0.05559691
v 0.01500000 -0.11017141 0.06837337
v 0.01500000 -0.11016000 0.06863484
v 0.01500000 -0.11012584 0.06889432
v 0.01500000 -0.10909978 0.07067151
v 0.01500000 -0.10889214 0.07083083
v 0.01500000 -0.10659641 0.08597700
v 0.01500000 -0.10739472 0.08648557
v 0.01500000 -0.10814566 0.08706179
v 0.01500000 -0.11100485 0.09078796
v 0.01500000 -0.11136708 0.09166245
v 0.01500000 -0.11617141 0.09537337
v 0.01500000 -0.11165171 0.09256519
v 0.01500000 -0.11185658 0.09348929
v 0.01500000 -0.10794787 0.03147559
v 0.01500000 -0.10819747 0.03155429
v 0.01500000 -0.10843927 0.03165445
v 0.01500000 -0.10867141 0.03177530
v 0.01500000 -0.10889214 0.03191591
v 0.01500000 -0.10946955 0.03244501
v 0.01500000 -0.10962887 0.03265264
v 0.01500000 -0.10976949 0.03287337
v 0.01500000 -0.11017141 0.03437337
v 0.01500000 -0.11017141 0.04637337
v 0.01500000 -0.11016000 0.04663484
v 0.01500000 -0.10989033 0.04764123
v 0.01500000 -0.10976949 0.04787337
v 0.01500000 -0.11012584 0.05585243
v 0.01500000 -0.11016000 0.05611191
v 0.01500000 -0.11017141 0.05637337
v 0.01500000 -0.10305549 0.08468821
v 0.01500000 -0.10397960 0.08489308
v 0.01500000 -0.10989033 0.06964123
v 0.01500000 -0.10999049 0.06939943
v 0.01500000 -0.11006919 0.06914983
v 0.01500000 -0.09235234 0.06939943
v 0.01500000 -0.09245249 0.06964123
v 0.01500000 -0.09257334 0.06987337
v 0.01500000 -0.10989033 0.03310551
v 0.01500000 -0.10999049 0.03334731
v 0.01500000 -0.09414535 0.07119245
v 0.01500000 -0.09048625 0.09348929
v 0.01500000 -0.09439495 0.07127115
v 0.01500000 -0.09069112 0.09256519
v 0.01500000 -0.09465047 0.07132780
v 0.01500000 -0.09287328 0.07030173
v 0.01500000 -0.09271396 0.07009410
v 0.01500000 -0.09227364 0.06914983
v 0.01500000 -0.09221699 0.06889432
v 0.01500000 -0.09218283 0.06863484
v 0.01500000 -0.09221699 0.05585243
v 0.01500000 -0.09257334 0.05487337
v 0.01500000 -0.09271396 0.05465264
v 0.01500000 -0.09235234 0.04739943
v 0.01500000 -0.10867141 0.04897145
v 0.01500000 -0.10946955 0.05444501
v 0.01500000 -0.10889214 0.04883083
v 0.01500000 -0.10962887 0.05465264
v 0.01500000 -0.10976949 0.05487337
v 0.01500000 -0.10743288 0.05338479
v 0.01500000 -0.10769236 0.05341895
v 0.01500000 -0.10794787 0.04927115
v 0.01500000 -0.09439495 0.04927115
v 0.01500000 -0.09517141 0.05337337
v 0.01500000 -0.09465047 0.04932779
v 0.01500000 -0.09490994 0.04936196
v 0.01500000 -0.09574641 0.08597700
v 0.01500000 -0.09658600 0.08553993
v 0.01500000 -0.09036270 0.09631901
v 0.01500000 -0.09032141 0.09537337
v 0.01500000 -0.09036270 0.09442773
v 0.01500000 -0.09217142 0.06837337
v 0.01500000 -0.09217142 0.05637337
v 0.01500000 -0.09218283 0.05611191
v 0.01500000 -0.09217142 0.03437337
v 0.01500000 -0.09218283 0.03411191
v 0.01500000 -0.10843927 0.04909230
v 0.01500000 -0.10819747 0.04919245
v 0.01500000 -0.10929273 0.05425205
v 0.01500000 -0.10909978 0.05407524
v 0.01500000 -0.10909978 0.04867151
v 0.01500000 -0.10989033 0.05510552
v 0.01500000 -0.10794787 0.05347559
v 0.01500000 -0.10819747 0.05355429
v 0.01500000 -0.10843927 0.05365445
v 0.01500000 -0.10867141 0.05377530
v 0.01500000 -0.10889214 0.05391591
v 0.01500000 -0.09746049 0.08517770
v 0.01500000 -0.09836323 0.08489308
v 0.01500000 -0.09490994 0.07136196
v 0.01500000 -0.09517141 0.07137337
v 0.01500000 -0.09390356 0.07109229
v 0.01500000 -0.09367141 0.07097144
v 0.01500000 -0.09345068 0.07083083
v 0.01500000 -0.09305009 0.05425205
v 0.01500000 -0.09271396 0.04809410
v 0.01500000 -0.09257334 0.04787337
v 0.01500000 -0.09227364 0.04714983
v 0.01500000 -0.09245249 0.05510552
v 0.01500000 -0.09097575 0.09166245
v 0.01500000 -0.09133797 0.09078796
v 0.01500000 -0.09177504 0.08994837
v 0.01500000 -0.09228361 0.08915006
v 0.01500000 -0.09285983 0.08839913
v 0.01500000 -0.09349930 0.08770126
v 0.01500000 -0.09419717 0.08706179
v 0.01500000 -0.09494811 0.08648557
v 0.01500000 -0.09928733 0.08468821
v 0.01500000 -0.10022578 0.08456466
v 0.01500000 -0.10717142 0.07137337
v 0.01500000 -0.10743288 0.07136196
v 0.01500000 -0.09324305 0.05407524
v 0.01500000 -0.09305009 0.04849469
v 0.01500000 -0.09287328 0.04830173
v 0.01500000 -0.09287328 0.05444501
v 0.01500000 -0.09245249 0.04764123
v 0.01500000 -0.09221699 0.04689432
v 0.01500000 -0.09218283 0.04663484
v 0.01500000 -0.09217142 0.04637337
v 0.01500000 -0.09221699 0.03385243
v 0.01500000 -0.09227364 0.03359691
v 0.01500000 -0.09235234 0.03334731
v 0.01500000 -0.09245249 0.03310551
v 0.01500000 -0.09257334 0.03287337
v 0.01500000 -0.09271396 0.03265264
v 0.01500000 -0.09287328 0.03244501
v 0.01500000 -0.09305009 0.03225205
v 0.01500000 -0.09324305 0.03207524
v 0.01500000 -0.09345068 0.05391591
v 0.01500000 -0.09367141 0.05377530
v 0.01500000 -0.09390356 0.05365445
v 0.01500000 -0.09345068 0.04883083
v 0.01500000 -0.09324305 0.04867151
v 0.01500000 -0.09439495 0.05347559
v 0.01500000 -0.09414535 0.05355429
v 0.01500000 -0.09345068 0.03191591
v 0.01500000 -0.09367141 0.03177530
v 0.01500000 -0.09390356 0.03165445
v 0.01500000 -0.09414535 0.03155429
v 0.01500000 -0.09439495 0.03147559
v 0.01500000 -0.11198013 0.09442773
v 0.01500000 -0.11202142 0.09537337
v 0.01500000 -0.11611433 0.09668071
v 0.01500000 -0.11198013 0.09631901
v 0.01500000 -0.11594353 0.09797809
v 0.01500000 -0.11185658 0.09725746
v 0.01500000 -0.11566030 0.09925566
v 0.01500000 -0.11165171 0.09818156
v 0.01500000 -0.11526680 0.10050368
v 0.01500000 -0.11136708 0.09908429
v 0.01500000 -0.11476603 0.10171264
v 0.01500000 -0.11100485 0.09995878
v 0.01500000 -0.11416180 0.10287337
v 0.01500000 -0.11056779 0.10079837
v 0.01500000 -0.11345869 0.10397702
v 0.01500000 -0.11005921 0.10159668
v 0.01500000 -0.11266208 0.10501519
v 0.01500000 -0.10948300 0.10234762
v 0.01500000 -0.11177801 0.10597997
v 0.01500000 -0.10884352 0.10304548
v 0.01500000 -0.11081323 0.10686404
v 0.01500000 -0.10814566 0.10368495
v 0.01500000 -0.10977506 0.10766065
v 0.01500000 -0.10739472 0.10426117
v 0.01500000 -0.10867141 0.10836376
v 0.01500000 -0.10659641 0.10476974
v 0.01500000 -0.10751069 0.10896799
v 0.01500000 -0.10575682 0.10520681
v 0.01500000 -0.10630172 0.10946876
v 0.01500000 -0.10488233 0.10556903
v 0.01500000 -0.10505370 0.10986226
v 0.01500000 -0.10397960 0.10585367
v 0.01500000 -0.10377613 0.11014549
v 0.01500000 -0.10305549 0.10605854
v 0.01500000 -0.10247875 0.11031629
v 0.01500000 -0.10211705 0.10618208
v 0.01500000 -0.10117141 0.11037337
v 0.01500000 -0.10117141 0.10622337
v 0.01500000 -0.09986407 0.11031629
v 0.01500000 -0.10022578 0.10618208
v 0.01500000 -0.09856669 0.11014549
v 0.01500000 -0.09928733 0.10605854
v 0.01500000 -0.09728913 0.10986226
v 0.01500000 -0.09836323 0.10585367
v 0.01500000 -0.09604111 0.10946876
v 0.01500000 -0.09746049 0.10556903
v 0.01500000 -0.09483214 0.10896799
v 0.01500000 -0.09658600 0.10520681
v 0.01500000 -0.09367141 0.10836376
v 0.01500000 -0.09574641 0.10476974
v 0.01500000 -0.09256776 0.10766065
v 0.01500000 -0.09494811 0.10426117
v 0.01500000 -0.09152960 0.10686404
v 0.01500000 -0.09419717 0.10368495
v 0.01500000 -0.09056481 0.10597997
v 0.01500000 -0.09349930 0.10304548
v 0.01500000 -0.08968075 0.10501519
v 0.01500000 -0.09285983 0.10234762
v 0.01500000 -0.08888413 0.10397702
v 0.01500000 -0.09228361 0.10159668
v 0.01500000 -0.08818103 0.10287337
v 0.01500000 -0.09177504 0.10079837
v 0.01500000 -0.08757680 0.10171264
v 0.01500000 -0.09133797 0.09995878
v 0.01500000 -0.08707602 0.10050368
v 0.01500000 -0.09097575 0.09908429
v 0.01500000 -0.08668253 0.09925566
v 0.01500000 -0.09069112 0.09818156
v 0.01500000 -0.08639929 0.09797809
v 0.01500000 -0.09048625 0.09725746
v 0.01500000 -0.08622849 0.09668071
v 0.01500000 -0.08617141 0.09537337
v 0.01500000 -0.08617141 0.07637337
v 0.01500000 -0.09465047 0.05341895
v 0.01500000 -0.09390356 0.04909230
v 0.01500000 -0.09367141 0.04897145
v 0.01500000 -0.09414535 0.04919245
v 0.01500000 -0.09490994 0.05338479
v 0.01500000 -0.10769236 0.04932779
v 0.01500000 -0.10743288 0.04936196
v 0.01500000 -0.10717142 0.05337337
v 0.01500000 -0.10717142 0.04937337
v 0.01500000 -0.09517141 0.04937337
f 1 2 3
f 4 5 6
f 7 8 9
f 8 10 9
f 9 10 11
f 12 13 3
f 1 3 14
f 5 15 6
f 15 16 6
f 6 16 17
f 18 19 20
f 21 22 6
f 22 23 6
f 24 3 25
f 3 26 25
f 27 28 29
f 30 31 32
f 31 33 32
f 32 33 34
f 6 9 35
f 9 36 35
f 35 36 37
f 37 38 35
f 38 39 35
f 35 39 40
f 40 41 35
f 41 42 35
f 35 42 43
f 42 44 43
f 43 44 45
f 23 46 6
f 46 47 6
f 6 47 48
f 48 49 6
f 49 50 6
f 6 50 51
f 51 52 6
f 52 53 6
f 6 53 54
f 54 55 6
f 55 56 6
f 6 56 9
f 56 57 9
f 9 57 7
f 58 59 11
f 59 60 11
f 11 60 61
f 61 62 11
f 62 63 11
f 11 63 9
f 13 64 3
f 64 65 3
f 3 65 66
f 66 67 3
f 67 68 3
f 3 68 26
f 69 70 71
f 72 73 74
f 73 75 74
f 74 75 32
f 75 76 32
f 32 76 30
f 77 78 79
f 80 17 20
f 17 81 20
f 20 81 18
f 80 82 17
f 82 83 17
f 17 83 6
f 83 84 6
f 6 84 21
f 3 85 86
f 28 87 29
f 87 88 29
f 29 88 89
f 90 3 91
f 3 92 91
f 93 94 71
f 94 95 71
f 71 95 6
f 95 96 6
f 6 96 4
f 34 97 32
f 97 98 32
f 32 98 3
f 98 99 3
f 3 99 14
f 100 101 77
f 101 102 77
f 77 102 78
f 19 103 20
f 103 77 20
f 20 77 104
f 77 79 104
f 24 105 3
f 105 106 3
f 3 106 85
f 107 92 108
f 92 3 108
f 108 3 109
f 3 86 109
f 110 111 112
f 107 113 92
f 113 29 92
f 92 29 114
f 29 89 114
f 90 115 3
f 115 116 3
f 3 116 117
f 116 118 117
f 117 118 119
f 119 120 117
f 120 121 117
f 117 121 122
f 70 123 71
f 123 124 71
f 71 124 125
f 100 126 101
f 126 127 101
f 101 127 128
f 128 129 101
f 129 130 101
f 101 130 131
f 132 133 134
f 133 135 134
f 134 135 2
f 135 136 2
f 2 136 3
f 136 137 3
f 3 137 12
f 134 138 132
f 138 139 132
f 132 139 11
f 139 140 11
f 11 140 58
f 112 141 110
f 141 142 110
f 110 142 143
f 125 144 71
f 144 145 71
f 71 145 93
f 146 147 148
f 147 149 148
f 148 149 150
f 151 152 130
f 153 154 155
f 154 156 155
f 155 156 157
f 156 158 157
f 159 160 117
f 160 161 117
f 117 161 162
f 45 163 43
f 163 164 43
f 43 164 165
f 164 166 165
f 165 166 167
f 166 168 167
f 167 168 169
f 168 170 169
f 169 170 171
f 170 172 171
f 171 172 173
f 172 174 173
f 173 174 175
f 174 176 175
f 175 176 177
f 176 178 177
f 177 178 179
f 178 180 179
f 179 180 181
f 180 182 181
f 181 182 183
f 182 184 183
f 183 184 185
f 184 186 185
f 185 186 187
f 186 188 187
f 187 188 189
f 188 190 189
f 189 190 191
f 190 192 191
f 191 192 193
f 192 194 193
f 193 194 195
f 194 196 195
f 195 196 197
f 196 198 197
f 197 198 199
f 198 200 199
f 199 200 201
f 200 202 201
f 201 202 203
f 202 204 203
f 203 204 205
f 204 206 205
f 205 206 207
f 206 208 207
f 207 208 209
f 208 210 209
f 209 210 211
f 210 212 211
f 211 212 213
f 212 214 213
f 213 214 215
f 214 216 215
f 215 216 217
f 216 218 217
f 217 218 219
f 218 220 219
f 219 220 221
f 220 222 221
f 221 222 223
f 222 224 223
f 223 224 225
f 224 226 225
f 225 226 227
f 226 228 227
f 227 228 229
f 228 230 229
f 229 230 231
f 230 232 231
f 231 232 233
f 232 234 233
f 233 234 74
f 234 235 74
f 74 235 72
f 152 236 130
f 236 237 130
f 130 237 238
f 238 239 130
f 239 240 130
f 130 240 241
f 241 242 130
f 242 243 130
f 130 243 131
f 149 244 150
f 244 245 150
f 150 245 143
f 245 246 143
f 143 246 110
f 27 29 155
f 29 247 155
f 155 247 153
f 111 110 156
f 110 248 156
f 156 248 158
f 162 249 117
f 249 250 117
f 117 250 251
f 251 252 117
f 252 253 117
f 117 253 254
f 71 255 256
f 256 257 71
f 257 258 71
f 71 258 259
f 259 260 71
f 260 261 71
f 71 261 69
f 146 148 130
f 148 262 130
f 130 262 151
f 122 263 117
f 263 264 117
f 117 264 159
f 254 265 117
f 265 266 117
f 117 266 71
f 266 267 71
f 71 267 255
f 268 269 270
f 271 272 270
f 273 274 275
f 276 277 275
f 273 275 278
f 275 279 280
f 271 270 281
f 282 283 284
f 282 285 283
f 285 286 283
f 283 286 287
f 283 288 289
f 289 290 283
f 290 291 283
f 283 291 292
f 293 294 295
f 296 297 298
f 299 300 301
f 300 302 301
f 301 302 303
f 304 305 298
f 305 306 298
f 298 306 275
f 306 307 275
f 275 307 279
f 308 309 310
f 309 311 310
f 272 309 312
f 313 314 270
f 314 315 270
f 287 316 283
f 316 317 283
f 283 317 288
f 269 318 270
f 318 319 270
f 270 319 301
f 319 320 301
f 301 320 299
f 303 321 301
f 321 322 301
f 301 322 323
f 322 324 323
f 323 324 325
f 280 326 275
f 326 327 275
f 275 327 328
f 328 329 275
f 329 330 275
f 275 330 276
f 277 331 275
f 331 332 275
f 275 332 333
f 274 334 275
f 334 335 275
f 275 335 270
f 335 336 270
f 270 336 281
f 272 337 309
f 337 338 309
f 309 338 311
f 312 339 272
f 339 340 272
f 272 340 270
f 340 341 270
f 270 341 313
f 284 342 282
f 342 343 282
f 282 343 344
f 343 268 344
f 344 268 345
f 268 270 345
f 345 270 346
f 270 315 346
f 347 295 348
f 295 349 348
f 333 350 275
f 350 351 275
f 275 351 278
f 352 353 354
f 353 355 354
f 354 355 356
f 294 357 295
f 357 358 295
f 295 358 349
f 347 359 295
f 359 360 295
f 295 360 361
f 296 298 362
f 363 364 365
f 366 367 368
f 367 369 368
f 368 369 370
f 371 372 373
f 374 375 376
f 375 377 376
f 356 378 379
f 380 381 295
f 381 382 295
f 295 382 353
f 361 383 295
f 383 384 295
f 295 384 298
f 384 385 298
f 298 385 362
f 386 387 298
f 366 388 367
f 388 389 367
f 367 389 390
f 389 373 390
f 390 373 391
f 308 392 309
f 392 368 309
f 309 368 393
f 368 370 393
f 372 394 373
f 394 395 373
f 373 395 396
f 396 397 373
f 397 398 373
f 373 398 391
f 379 399 356
f 399 400 356
f 356 400 401
f 400 402 401
f 352 403 353
f 403 404 353
f 353 404 295
f 404 405 295
f 295 405 293
f 406 407 408
f 409 297 365
f 297 410 365
f 365 410 363
f 355 411 356
f 411 412 356
f 356 412 413
f 413 414 356
f 414 415 356
f 356 415 416
f 416 417 356
f 417 418 356
f 356 418 378
f 400 419 402
f 419 420 402
f 402 420 421
f 420 283 421
f 421 283 422
f 283 292 422
f 423 424 406
f 424 425 406
f 406 425 407
f 364 426 365
f 426 406 365
f 365 406 427
f 406 408 427
f 409 428 297
f 428 429 297
f 297 429 298
f 429 430 298
f 298 430 386
f 387 431 298
f 431 432 298
f 298 432 433
f 433 434 298
f 434 435 298
f 298 435 436
f 436 437 298
f 437 438 298
f 298 438 439
f 423 440 424
f 440 441 424
f 424 441 442
f 443 444 445
f 444 424 445
f 445 424 446
f 424 442 446
f 439 447 298
f 447 448 298
f 298 448 449
f 449 450 298
f 450 451 298
f 298 451 304
f 325 452 323
f 452 453 323
f 323 453 454
f 453 455 454
f 454 455 456
f 455 457 456
f 456 457 458
f 457 459 458
f 458 459 460
f 459 461 460
f 460 461 462
f 461 463 462
f 462 463 464
f 463 465 464
f 464 465 466
f 465 467 466
f 466 467 468
f 467 469 468
f 468 469 470
f 469 471 470
f 470 471 472
f 471 473 472
f 472 473 474
f 473 475 474
f 474 475 476
f 475 477 476
f 476 477 478
f 477 479 478
f 478 479 480
f 479 481 480
f 480 481 482
f 481 483 482
f 482 483 484
f 483 485 484
f 484 485 486
f 485 487 486
f 486 487 488
f 487 489 488
f 488 489 490
f 489 491 490
f 490 491 492
f 491 493 492
f 492 493 494
f 493 495 494
f 494 495 496
f 495 497 496
f 496 497 498
f 497 499 498
f 498 499 500
f 499 501 500
f 500 501 502
f 501 503 502
f 502 503 504
f 503 505 504
f 504 505 506
f 505 507 506
f 506 507 508
f 507 509 508
f 508 509 510
f 509 511 510
f 510 511 512
f 511 513 512
f 512 513 514
f 513 515 514
f 514 515 516
f 515 517 516
f 516 517 518
f 517 519 518
f 518 519 520
f 519 521 520
f 520 521 522
f 521 380 522
f 522 380 523
f 380 295 523
f 523 295 524
f 525 526 445
f 526 527 445
f 445 527 443
f 374 528 375
f 528 526 375
f 375 526 529
f 526 525 529
f 373 530 371
f 530 531 371
f 371 531 532
f 531 533 532
f 532 533 375
f 533 534 375
f 375 534 377
f 307 306 266
f 306 267 266
f 524 295 35
f 295 6 35
f 489 200 491
f 200 198 491
f 491 198 493
f 198 196 493
f 493 196 495
f 196 194 495
f 495 194 497
f 194 192 497
f 497 192 499
f 192 190 499
f 499 190 501
f 190 188 501
f 501 188 503
f 188 186 503
f 503 186 505
f 186 184 505
f 505 184 507
f 184 182 507
f 507 182 509
f 182 180 509
f 509 180 511
f 180 178 511
f 511 178 513
f 178 176 513
f 513 176 515
f 176 174 515
f 515 174 517
f 174 172 517
f 517 172 519
f 172 170 519
f 519 170 521
f 170 168 521
f 521 168 380
f 168 166 380
f 380 166 381
f 166 164 381
f 381 164 382
f 164 163 382
f 382 163 353
f 163 45 353
f 353 45 355
f 45 44 355
f 355 44 411
f 44 42 411
f 411 42 412
f 42 41 412
f 412 41 413
f 41 40 413
f 413 40 414
f 40 39 414
f 414 39 415
f 39 38 415
f 415 38 416
f 38 37 416
f 416 37 417
f 37 36 417
f 417 36 418
f 36 9 418
f 418 9 378
f 9 63 378
f 378 63 379
f 63 62 379
f 379 62 399
f 62 61 399
f 399 61 400
f 61 60 400
f 400 60 419
f 60 59 419
f 419 59 420
f 59 58 420
f 420 58 283
f 58 140 283
f 283 140 284
f 140 139 284
f 284 139 342
f 139 138 342
f 342 138 343
f 138 134 343
f 343 134 268
f 134 2 268
f 268 2 269
f 2 1 269
f 269 1 318
f 1 14 318
f 318 14 319
f 14 99 319
f 319 99 320
f 99 98 320
f 320 98 299
f 98 97 299
f 299 97 300
f 97 34 300
f 300 34 302
f 34 33 302
f 302 33 303
f 33 31 303
f 303 31 321
f 31 30 321
f 321 30 322
f 30 76 322
f 322 76 324
f 76 75 324
f 324 75 325
f 75 73 325
f 325 73 452
f 73 72 452
f 452 72 453
f 72 235 453
f 453 235 455
f 235 234 455
f 455 234 457
f 234 232 457
f 457 232 459
f 232 230 459
f 459 230 461
f 230 228 461
f 461 228 463
f 228 226 463
f 463 226 465
f 226 224 465
f 465 224 467
f 224 222 467
f 467 222 469
f 222 220 469
f 469 220 471
f 220 218 471
f 471 218 473
f 218 216 473
f 473 216 475
f 216 214 475
f 475 214 477
f 214 212 477
f 477 212 479
f 212 210 479
f 479 210 481
f 210 208 481
f 481 208 483
f 208 206 483
f 483 206 485
f 206 204 485
f 485 204 487
f 204 202 487
f 487 202 489
f 202 200 489
f 313 341 86
f 341 109 86
f 295 298 6
f 298 71 6
f 298 275 71
f 275 117 71
f 275 270 117
f 270 3 117
f 270 301 3
f 301 32 3
f 301 323 32
f 323 74 32
f 386 430 96
f 430 4 96
f 534 149 377
f 149 147 377
f 377 147 376
f 147 146 376
f 376 146 374
f 146 130 374
f 374 130 528
f 130 129 528
f 528 129 526
f 129 128 526
f 526 128 527
f 128 127 527
f 527 127 443
f 127 126 443
f 443 126 444
f 126 100 444
f 444 100 424
f 100 77 424
f 424 77 425
f 77 103 425
f 425 103 407
f 103 19 407
f 407 19 408
f 19 18 408
f 408 18 427
f 18 81 427
f 427 81 365
f 81 17 365
f 365 17 409
f 17 16 409
f 409 16 428
f 16 15 428
f 428 15 429
f 15 5 429
f 429 5 430
f 5 4 430
f 523 524 43
f 524 35 43
f 534 533 149
f 533 244 149
f 335 116 336
f 116 115 336
f 336 115 281
f 115 90 281
f 281 90 271
f 90 91 271
f 271 91 272
f 91 92 272
f 272 92 337
f 92 114 337
f 337 114 338
f 114 89 338
f 338 89 311
f 89 88 311
f 311 88 310
f 88 87 310
f 310 87 308
f 87 28 308
f 308 28 392
f 28 27 392
f 392 27 368
f 27 155 368
f 368 155 366
f 155 157 366
f 366 157 388
f 157 158 388
f 388 158 389
f 158 248 389
f 389 248 373
f 248 110 373
f 373 110 530
f 110 246 530
f 530 246 531
f 246 245 531
f 531 245 533
f 245 244 533
f 307 266 279
f 266 265 279
f 279 265 280
f 265 254 280
f 280 254 326
f 254 253 326
f 326 253 327
f 253 252 327
f 327 252 328
f 252 251 328
f 328 251 329
f 251 250 329
f 329 250 330
f 250 249 330
f 330 249 276
f 249 162 276
f 276 162 277
f 162 161 277
f 277 161 331
f 161 160 331
f 331 160 332
f 160 159 332
f 332 159 333
f 159 264 333
f 333 264 350
f 264 263 350
f 350 263 351
f 263 122 351
f 351 122 278
f 122 121 278
f 278 121 273
f 121 120 273
f 273 120 274
f 120 119 274
f 274 119 334
f 119 118 334
f 335 334 116
f 334 118 116
f 386 96 387
f 96 95 387
f 387 95 431
f 95 94 431
f 431 94 432
f 94 93 432
f 432 93 433
f 93 145 433
f 433 145 434
f 145 144 434
f 434 144 435
f 144 125 435
f 435 125 436
f 125 124 436
f 436 124 437
f 124 123 437
f 437 123 438
f 123 70 438
f 438 70 439
f 70 69 439
f 439 69 447
f 69 261 447
f 447 261 448
f 261 260 448
f 448 260 449
f 260 259 449
f 449 259 450
f 259 258 450
f 450 258 451
f 258 257 451
f 451 257 304
f 257 256 304
f 304 256 305
f 256 255 305
f 305 255 306
f 255 267 306
f 523 43 165
f 523 165 522
f 165 167 522
f 522 167 520
f 167 169 520
f 520 169 518
f 169 171 518
f 518 171 516
f 171 173 516
f 516 173 514
f 173 175 514
f 514 175 512
f 175 177 512
f 512 177 510
f 177 179 510
f 510 179 508
f 179 181 508
f 508 181 506
f 181 183 506
f 506 183 504
f 183 185 504
f 504 185 502
f 185 187 502
f 502 187 500
f 187 189 500
f 500 189 498
f 189 191 498
f 498 191 496
f 191 193 496
f 496 193 494
f 193 195 494
f 494 195 492
f 195 197 492
f 492 197 490
f 197 199 490
f 490 199 488
f 199 201 488
f 488 201 486
f 201 203 486
f 486 203 484
f 203 205 484
f 484 205 482
f 205 207 482
f 482 207 480
f 207 209 480
f 480 209 478
f 209 211 478
f 478 211 476
f 211 213 476
f 476 213 474
f 213 215 474
f 474 215 472
f 215 217 472
f 472 217 470
f 217 219 470
f 470 219 468
f 219 221 468
f 468 221 466
f 221 223 466
f 466 223 464
f 223 225 464
f 464 225 462
f 225 227 462
f 462 227 460
f 227 229 460
f 460 229 458
f 229 231 458
f 458 231 456
f 231 233 456
f 456 233 454
f 233 74 454
f 454 74 323
f 313 86 314
f 86 85 314
f 314 85 315
f 85 106 315
f 315 106 346
f 106 105 346
f 346 105 345
f 105 24 345
f 345 24 344
f 24 25 344
f 344 25 282
f 25 26 282
f 282 26 285
f 26 68 285
f 285 68 286
f 68 67 286
f 286 67 287
f 67 66 287
f 287 66 316
f 66 65 316
f 316 65 317
f 65 64 317
f 317 64 288
f 64 13 288
f 288 13 289
f 13 12 289
f 289 12 290
f 12 137 290
f 290 137 291
f 137 136 291
f 291 136 292
f 136 135 292
f 292 135 422
f 135 133 422
f 422 133 421
f 133 132 421
f 402 421 11
f 421 132 11
f 402 11 401
f 11 10 401
f 401 10 356
f 10 8 356
f 356 8 354
f 8 7 354
f 354 7 352
f 7 57 352
f 352 57 403
f 57 56 403
f 403 56 404
f 56 55 404
f 404 55 405
f 55 54 405
f 405 54 293
f 54 53 293
f 293 53 294
f 53 52 294
f 294 52 357
f 52 51 357
f 357 51 358
f 51 50 358
f 358 50 349
f 50 49 349
f 349 49 348
f 49 48 348
f 348 48 347
f 48 47 347
f 347 47 359
f 47 46 359
f 359 46 360
f 46 23 360
f 360 23 361
f 23 22 361
f 361 22 383
f 22 21 383
f 384 383 84
f 383 21 84
f 384 84 385
f 84 83 385
f 385 83 362
f 83 82 362
f 362 82 296
f 82 80 296
f 296 80 297
f 80 20 297
f 297 20 410
f 20 104 410
f 410 104 363
f 104 79 363
f 363 79 364
f 79 78 364
f 364 78 426
f 78 102 426
f 426 102 406
f 102 101 406
f 406 101 423
f 101 131 423
f 423 131 440
f 131 243 440
f 440 243 441
f 243 242 441
f 441 242 442
f 242 241 442
f 442 241 446
f 241 240 446
f 446 240 445
f 240 239 445
f 445 239 525
f 239 238 525
f 525 238 529
f 238 237 529
f 529 237 375
f 237 236 375
f 532 375 152
f 375 236 152
f 532 152 371
f 152 151 371
f 371 151 372
f 151 262 372
f 372 262 394
f 262 148 394
f 394 148 395
f 148 150 395
f 395 150 396
f 150 143 396
f 396 143 397
f 143 142 397
f 397 142 398
f 142 141 398
f 398 141 391
f 141 112 391
f 391 112 390
f 112 111 390
f 390 111 367
f 111 156 367
f 367 156 369
f 156 154 369
f 369 154 370
f 154 153 370
f 370 153 393
f 153 247 393
f 393 247 309
f 247 29 309
f 309 29 312
f 29 113 312
f 312 113 339
f 113 107 339
f 339 107 340
f 107 108 340
f 340 108 341
f 108 109 341

