# https://github.com/mikedh/trimesh

o tm25_235s_p02_hockey_stickarm.stl
v -0.01271752 0.05382203 0.00000000
v -0.01471752 0.05582203 0.00000000
v 0.00328248 0.05382203 0.00000000
v 0.00528248 0.05582203 0.00000000
v 0.00328248 0.02782203 0.00000000
v 0.00528248 0.02582203 0.00000000
v -0.01271752 0.02782203 0.00000000
v -0.01471752 0.02582203 0.00000000
v -0.01271752 0.02782203 0.39500001
v -0.01471752 0.02582203 0.39500001
v 0.00328248 0.02782203 0.39500001
v 0.00528248 0.02582203 0.39500001
v 0.00328248 0.05382203 0.39500001
v 0.00528248 0.05582203 0.39500001
v -0.01271752 0.05382203 0.39500001
v -0.01471752 0.05582203 0.39500001
f 1 2 3
f 2 4 3
f 3 4 5
f 4 6 5
f 5 6 7
f 6 8 7
f 7 8 1
f 8 2 1
f 9 10 11
f 10 12 11
f 11 12 13
f 12 14 13
f 13 14 15
f 14 16 15
f 15 16 9
f 16 10 9
f 12 10 6
f 10 8 6
f 9 11 7
f 11 5 7
f 16 14 2
f 14 4 2
f 14 12 4
f 12 6 4
f 10 16 8
f 16 2 8
f 15 9 1
f 9 7 1
f 13 15 3
f 15 1 3
f 11 13 5
f 13 3 5

