# https://github.com/mikedh/trimesh

o tm25_2405_motor_face_spacer.stl
v -0.02349232 -0.00855050 -0.04800000
v -0.02265769 -0.01056546 -0.04800000
v -0.02075000 -0.01041562 -0.04800000
v -0.02462019 -0.00434120 -0.04800000
v -0.02414815 -0.00647048 -0.04800000
v -0.02075000 -0.00617043 -0.04800000
v -0.02462019 0.00434120 -0.04800000
v -0.02490487 0.00217889 -0.04800000
v -0.02075000 0.00617043 -0.04800000
v -0.02500000 0.00000000 -0.04800000
v -0.02490487 -0.00217889 -0.04800000
v -0.02165063 0.01250000 -0.04800000
v -0.02265769 0.01056546 -0.04800000
v -0.02349232 0.00855050 -0.04800000
v -0.02414815 0.00647048 -0.04800000
v -0.01087500 0.01491562 -0.04800000
v -0.01056546 0.02265769 -0.04800000
v -0.01250000 0.02165063 -0.04800000
v -0.02047880 0.01433941 -0.04800000
v -0.01915111 0.01606969 -0.04800000
v -0.01767767 0.01767767 -0.04800000
v -0.01433941 0.02047880 -0.04800000
v -0.01606969 0.01915111 -0.04800000
v -0.00217889 0.02490487 -0.04800000
v -0.00654911 0.01502957 -0.04800000
v -0.00637500 0.01493894 -0.04800000
v 0.00000000 0.02500000 -0.04800000
v -0.00826955 0.01510469 -0.04800000
v -0.00808234 0.01516371 -0.04800000
v -0.00855050 0.02349232 -0.04800000
v -0.00750000 0.01524038 -0.04800000
v -0.00647048 0.02414815 -0.04800000
v -0.00769610 0.01523182 -0.04800000
v -0.00789071 0.01520620 -0.04800000
v -0.00730390 0.01523182 -0.04800000
v -0.00710929 0.01520620 -0.04800000
v -0.00434120 0.02462019 -0.04800000
v -0.00691766 0.01516371 -0.04800000
v -0.00673045 0.01510469 -0.04800000
v -0.00018750 0.01491562 -0.04800000
v 0.00217889 0.02490487 -0.04800000
v 0.00434120 0.02462019 -0.04800000
v 0.01106250 0.01491562 -0.04800000
v 0.00855050 0.02349232 -0.04800000
v 0.00647048 0.02414815 -0.04800000
v 0.02165063 0.01250000 -0.04800000
v 0.02047880 0.01433941 -0.04800000
v 0.01915111 0.01606969 -0.04800000
v 0.01767767 0.01767767 -0.04800000
v 0.01606969 0.01915111 -0.04800000
v 0.01433941 0.02047880 -0.04800000
v 0.01250000 0.02165063 -0.04800000
v 0.01056546 0.02265769 -0.04800000
v 0.02414815 0.00647048 -0.04800000
v 0.02349232 0.00855050 -0.04800000
v 0.01106250 0.00617043 -0.04800000
v 0.02265769 0.01056546 -0.04800000
v 0.01721582 -0.00039071 -0.04800000
v 0.01717333 -0.00058234 -0.04800000
v 0.02490487 -0.00217889 -0.04800000
v 0.02462019 -0.00434120 -0.04800000
v 0.01275000 0.00000000 -0.04800000
v 0.01275856 0.00019610 -0.04800000
v 0.01278418 0.00039071 -0.04800000
v 0.01282667 0.00058234 -0.04800000
v 0.01288569 0.00076955 -0.04800000
v 0.01296081 0.00095089 -0.04800000
v 0.01305144 0.00112500 -0.04800000
v 0.02490487 0.00217889 -0.04800000
v 0.02462019 0.00434120 -0.04800000
v 0.01711431 0.00076955 -0.04800000
v 0.01724144 -0.00019610 -0.04800000
v 0.02500000 0.00000000 -0.04800000
v 0.01725000 -0.00000000 -0.04800000
v 0.01659099 -0.00159099 -0.04800000
v 0.02414815 -0.00647048 -0.04800000
v 0.01672360 -0.00144627 -0.04800000
v 0.01684309 -0.00129055 -0.04800000
v 0.01644627 -0.00172360 -0.04800000
v 0.01629055 -0.00184309 -0.04800000
v 0.01612500 -0.00194856 -0.04800000
v 0.01480390 -0.00224144 -0.04800000
v 0.01460929 -0.00221582 -0.04800000
v 0.01106250 -0.00617043 -0.04800000
v 0.01296081 -0.00095089 -0.04800000
v 0.01288569 -0.00076955 -0.04800000
v 0.01629055 0.00184309 -0.04800000
v 0.01644627 0.00172360 -0.04800000
v 0.01659099 0.00159099 -0.04800000
v 0.01672360 0.00144627 -0.04800000
v 0.01711431 -0.00076955 -0.04800000
v 0.01703919 -0.00095089 -0.04800000
v 0.01694856 -0.00112500 -0.04800000
v 0.01315691 0.00129055 -0.04800000
v 0.01327640 0.00144627 -0.04800000
v 0.01340901 0.00159099 -0.04800000
v 0.01717333 0.00058234 -0.04800000
v 0.01721582 0.00039071 -0.04800000
v 0.01724144 0.00019610 -0.04800000
v 0.01355373 -0.00172360 -0.04800000
v 0.01340901 -0.00159099 -0.04800000
v 0.01327640 -0.00144627 -0.04800000
v 0.01282667 -0.00058234 -0.04800000
v 0.01278418 -0.00039071 -0.04800000
v 0.01275856 -0.00019610 -0.04800000
v 0.01684309 0.00129055 -0.04800000
v 0.01694856 0.00112500 -0.04800000
v 0.01703919 0.00095089 -0.04800000
v 0.01595089 -0.00203919 -0.04800000
v 0.01576954 -0.00211431 -0.04800000
v 0.01558234 -0.00217333 -0.04800000
v 0.01315691 -0.00129055 -0.04800000
v 0.01305144 -0.00112500 -0.04800000
v 0.01576954 0.00211431 -0.04800000
v 0.01558234 0.00217333 -0.04800000
v 0.01539071 0.00221582 -0.04800000
v 0.01595089 0.00203919 -0.04800000
v 0.01612500 0.00194856 -0.04800000
v 0.01539071 -0.00221582 -0.04800000
v 0.01519610 -0.00224144 -0.04800000
v 0.01500000 -0.00225000 -0.04800000
v 0.01355373 0.00172360 -0.04800000
v 0.01370945 0.00184309 -0.04800000
v 0.01387500 0.00194856 -0.04800000
v 0.01441766 -0.00217333 -0.04800000
v 0.01423045 -0.00211431 -0.04800000
v 0.01404911 -0.00203919 -0.04800000
v 0.01404911 0.00203919 -0.04800000
v 0.01423045 0.00211431 -0.04800000
v 0.01441766 0.00217333 -0.04800000
v 0.01519610 0.00224144 -0.04800000
v 0.01500000 0.00225000 -0.04800000
v 0.01387500 -0.00194856 -0.04800000
v 0.01370945 -0.00184309 -0.04800000
v 0.01460929 0.00221582 -0.04800000
v 0.01480390 0.00224144 -0.04800000
v 0.02349232 -0.00855050 -0.04800000
v 0.01106250 -0.01041562 -0.04800000
v 0.01056546 -0.02265769 -0.04800000
v 0.01250000 -0.02165063 -0.04800000
v 0.01433941 -0.02047880 -0.04800000
v 0.01606969 -0.01915111 -0.04800000
v 0.01767767 -0.01767767 -0.04800000
v 0.01915111 -0.01606969 -0.04800000
v 0.02047880 -0.01433941 -0.04800000
v 0.02165063 -0.01250000 -0.04800000
v 0.02265769 -0.01056546 -0.04800000
v 0.00871599 -0.01074987 -0.04800000
v 0.00884860 -0.01089459 -0.04800000
v 0.00896809 -0.01105031 -0.04800000
v 0.00907356 -0.01121586 -0.04800000
v 0.00825000 -0.01039230 -0.04800000
v 0.00841555 -0.01049777 -0.04800000
v 0.00857127 -0.01061726 -0.04800000
v 0.00916419 -0.01138997 -0.04800000
v 0.00923931 -0.01157132 -0.04800000
v 0.00929833 -0.01175852 -0.04800000
v 0.00934082 -0.01195015 -0.04800000
v 0.00936644 -0.01214476 -0.04800000
v 0.00937500 -0.01234086 -0.04800000
v 0.00528191 -0.01105031 -0.04800000
v 0.00540140 -0.01089459 -0.04800000
v -0.00018750 -0.01041562 -0.04800000
v 0.00490918 -0.01273157 -0.04800000
v 0.00488356 -0.01253696 -0.04800000
v 0.00487500 -0.01234086 -0.04800000
v 0.00488356 -0.01214476 -0.04800000
v 0.00517644 -0.01346586 -0.04800000
v 0.00508581 -0.01329175 -0.04800000
v -0.00000000 -0.02500000 -0.04800000
v 0.00501069 -0.01311041 -0.04800000
v 0.00495167 -0.01292321 -0.04800000
v 0.00553401 -0.01074987 -0.04800000
v 0.00567873 -0.01061726 -0.04800000
v 0.00583445 -0.01049777 -0.04800000
v 0.00923931 -0.01311041 -0.04800000
v 0.00916419 -0.01329175 -0.04800000
v 0.00907356 -0.01346586 -0.04800000
v 0.00896809 -0.01363141 -0.04800000
v 0.00490918 -0.01195015 -0.04800000
v 0.00495167 -0.01175852 -0.04800000
v 0.00501069 -0.01157132 -0.04800000
v 0.00508581 -0.01138997 -0.04800000
v 0.00517644 -0.01121586 -0.04800000
v 0.00936644 -0.01253696 -0.04800000
v 0.00934082 -0.01273157 -0.04800000
v 0.00929833 -0.01292321 -0.04800000
v 0.00884860 -0.01378713 -0.04800000
v 0.00871599 -0.01393185 -0.04800000
v 0.00857127 -0.01406446 -0.04800000
v 0.00217889 -0.02490487 -0.04800000
v 0.00434120 -0.02462019 -0.04800000
v 0.00654266 -0.01451419 -0.04800000
v 0.00583445 -0.01418395 -0.04800000
v 0.00567873 -0.01406446 -0.04800000
v 0.00553401 -0.01393185 -0.04800000
v 0.00635545 -0.01445517 -0.04800000
v 0.00617411 -0.01438005 -0.04800000
v 0.00600000 -0.01428942 -0.04800000
v 0.00540140 -0.01378713 -0.04800000
v 0.00528191 -0.01363141 -0.04800000
v 0.00841555 -0.01418395 -0.04800000
v 0.00825000 -0.01428942 -0.04800000
v 0.00807589 -0.01438005 -0.04800000
v 0.00647048 -0.02414815 -0.04800000
v 0.00855050 -0.02349232 -0.04800000
v 0.00732110 -0.01458230 -0.04800000
v 0.00789454 -0.01445517 -0.04800000
v 0.00770734 -0.01451419 -0.04800000
v 0.00751571 -0.01455668 -0.04800000
v 0.00712500 -0.01459086 -0.04800000
v 0.00692890 -0.01458230 -0.04800000
v 0.00673429 -0.01455668 -0.04800000
v -0.00555144 -0.01411538 -0.04800000
v -0.00565691 -0.01428093 -0.04800000
v -0.00528418 -0.01259967 -0.04800000
v -0.00525856 -0.01279428 -0.04800000
v -0.00525000 -0.01299038 -0.04800000
v -0.00525856 -0.01318648 -0.04800000
v -0.00546081 -0.01394127 -0.04800000
v -0.00922360 -0.01443665 -0.04800000
v -0.00934309 -0.01428093 -0.04800000
v -0.01250000 -0.02165063 -0.04800000
v -0.00944856 -0.01411538 -0.04800000
v -0.00974144 -0.01279428 -0.04800000
v -0.00971582 -0.01259967 -0.04800000
v -0.01087500 -0.01041562 -0.04800000
v -0.00967333 -0.01240804 -0.04800000
v -0.00961431 -0.01222084 -0.04800000
v -0.00953919 -0.01394127 -0.04800000
v -0.00961431 -0.01375993 -0.04800000
v -0.00967333 -0.01357272 -0.04800000
v -0.00971582 -0.01338109 -0.04800000
v -0.00974144 -0.01318648 -0.04800000
v -0.00975000 -0.01299038 -0.04800000
v -0.00953919 -0.01203949 -0.04800000
v -0.00944856 -0.01186538 -0.04800000
v -0.00934309 -0.01169983 -0.04800000
v -0.00577640 -0.01443665 -0.04800000
v -0.00590901 -0.01458137 -0.04800000
v -0.00605373 -0.01471398 -0.04800000
v -0.00862500 -0.01493894 -0.04800000
v -0.00879055 -0.01483347 -0.04800000
v -0.00590901 -0.01139939 -0.04800000
v -0.00577640 -0.01154411 -0.04800000
v -0.00565691 -0.01169983 -0.04800000
v -0.00555144 -0.01186538 -0.04800000
v -0.00546081 -0.01203949 -0.04800000
v -0.00538569 -0.01222084 -0.04800000
v -0.00532667 -0.01240804 -0.04800000
v -0.00528418 -0.01338109 -0.04800000
v -0.00532667 -0.01357272 -0.04800000
v -0.00538569 -0.01375993 -0.04800000
v -0.00894627 -0.01471398 -0.04800000
v -0.00909099 -0.01458137 -0.04800000
v -0.00922360 -0.01154411 -0.04800000
v -0.00909099 -0.01139939 -0.04800000
v -0.00894627 -0.01126678 -0.04800000
v -0.00730390 -0.01523182 -0.04800000
v -0.00750000 -0.01524038 -0.04800000
v -0.00647048 -0.02414815 -0.04800000
v -0.00637500 -0.01104182 -0.04800000
v -0.00620945 -0.01114729 -0.04800000
v -0.00605373 -0.01126678 -0.04800000
v -0.00620945 -0.01483347 -0.04800000
v -0.00637500 -0.01493894 -0.04800000
v -0.00217889 -0.02490487 -0.04800000
v -0.01056546 -0.02265769 -0.04800000
v -0.00826955 -0.01510469 -0.04800000
v -0.00845089 -0.01502957 -0.04800000
v -0.00855050 -0.02349232 -0.04800000
v -0.00710929 -0.01077456 -0.04800000
v -0.00691766 -0.01081705 -0.04800000
v -0.00654911 -0.01502957 -0.04800000
v -0.00673045 -0.01510469 -0.04800000
v -0.00434120 -0.02462019 -0.04800000
v -0.00691766 -0.01516371 -0.04800000
v -0.00710929 -0.01520620 -0.04800000
v -0.00879055 -0.01114729 -0.04800000
v -0.00862500 -0.01104182 -0.04800000
v -0.00845089 -0.01095119 -0.04800000
v -0.00826955 -0.01087607 -0.04800000
v -0.00808234 -0.01081705 -0.04800000
v -0.00789071 -0.01077456 -0.04800000
v -0.00673045 -0.01087607 -0.04800000
v -0.00654911 -0.01095119 -0.04800000
v -0.00769610 -0.01523182 -0.04800000
v -0.00789071 -0.01520620 -0.04800000
v -0.00808234 -0.01516371 -0.04800000
v -0.00769610 -0.01074894 -0.04800000
v -0.00750000 -0.01074038 -0.04800000
v -0.00730390 -0.01074894 -0.04800000
v -0.01767767 -0.01767767 -0.04800000
v -0.01606969 -0.01915111 -0.04800000
v -0.01433941 -0.02047880 -0.04800000
v -0.02165063 -0.01250000 -0.04800000
v -0.02047880 -0.01433941 -0.04800000
v -0.01915111 -0.01606969 -0.04800000
v -0.00620945 0.01483347 -0.04800000
v -0.00605373 0.01471398 -0.04800000
v -0.00565691 0.01428093 -0.04800000
v -0.00555144 0.01411538 -0.04800000
v -0.00546081 0.01394127 -0.04800000
v -0.00538569 0.01375993 -0.04800000
v -0.00532667 0.01357272 -0.04800000
v -0.00967333 0.01240804 -0.04800000
v -0.00971582 0.01259967 -0.04800000
v -0.01087500 0.00617043 -0.04800000
v -0.00974144 0.01318648 -0.04800000
v -0.00975000 0.01299038 -0.04800000
v -0.00974144 0.01279428 -0.04800000
v -0.00971582 0.01338109 -0.04800000
v -0.00967333 0.01357272 -0.04800000
v -0.00961431 0.01375993 -0.04800000
v -0.00953919 0.01394127 -0.04800000
v -0.00944856 0.01411538 -0.04800000
v -0.00934309 0.01428093 -0.04800000
v -0.00922360 0.01443665 -0.04800000
v -0.00909099 0.01458137 -0.04800000
v -0.00894627 0.01471398 -0.04800000
v -0.00879055 0.01483347 -0.04800000
v -0.00862500 0.01493894 -0.04800000
v -0.00845089 0.01502957 -0.04800000
v -0.00590901 0.01458137 -0.04800000
v -0.00577640 0.01443665 -0.04800000
v -0.00528418 0.01338109 -0.04800000
v -0.00525856 0.01318648 -0.04800000
v -0.00525000 0.01299038 -0.04800000
v -0.00922360 0.01154411 -0.04800000
v -0.00934309 0.01169983 -0.04800000
v -0.00944856 0.01186538 -0.04800000
v -0.00538569 0.01222084 -0.04800000
v -0.00546081 0.01203949 -0.04800000
v -0.00018750 0.00617043 -0.04800000
v -0.00953919 0.01203949 -0.04800000
v -0.00961431 0.01222084 -0.04800000
v -0.00525856 0.01279428 -0.04800000
v -0.00528418 0.01259967 -0.04800000
v -0.00532667 0.01240804 -0.04800000
v -0.00555144 0.01186538 -0.04800000
v -0.00565691 0.01169983 -0.04800000
v -0.00577640 0.01154411 -0.04800000
v -0.00590901 0.01139939 -0.04800000
v -0.00605373 0.01126678 -0.04800000
v -0.00620945 0.01114729 -0.04800000
v -0.00879055 0.01114729 -0.04800000
v -0.00894627 0.01126678 -0.04800000
v -0.00909099 0.01139939 -0.04800000
v -0.00637500 0.01104182 -0.04800000
v -0.00654911 0.01095119 -0.04800000
v -0.00673045 0.01087607 -0.04800000
v -0.00826955 0.01087607 -0.04800000
v -0.00845089 0.01095119 -0.04800000
v -0.00862500 0.01104182 -0.04800000
v -0.00750000 0.01074038 -0.04800000
v -0.00769610 0.01074894 -0.04800000
v -0.00691766 0.01081705 -0.04800000
v -0.00710929 0.01077456 -0.04800000
v -0.00730390 0.01074894 -0.04800000
v -0.00789071 0.01077456 -0.04800000
v -0.00808234 0.01081705 -0.04800000
v 0.00600000 -0.01039230 -0.04800000
v 0.00617411 -0.01030167 -0.04800000
v -0.00018750 -0.00617043 -0.04800000
v 0.00635545 -0.01022655 -0.04800000
v 0.00654266 -0.01016753 -0.04800000
v 0.00673429 -0.01012504 -0.04800000
v 0.00807589 -0.01030167 -0.04800000
v 0.00789454 -0.01022655 -0.04800000
v 0.00692890 -0.01009942 -0.04800000
v 0.00712500 -0.01009086 -0.04800000
v 0.00732110 -0.01009942 -0.04800000
v 0.00751571 -0.01012504 -0.04800000
v 0.00770734 -0.01016753 -0.04800000
v 0.00937500 0.01234086 -0.04800000
v 0.00936644 0.01214476 -0.04800000
v 0.00508581 0.01138997 -0.04800000
v 0.00501069 0.01157132 -0.04800000
v 0.00517644 0.01121586 -0.04800000
v 0.00487500 0.01234086 -0.04800000
v 0.00488356 0.01253696 -0.04800000
v 0.00807589 0.01438005 -0.04800000
v 0.00825000 0.01428942 -0.04800000
v 0.00934082 0.01195015 -0.04800000
v 0.00929833 0.01175852 -0.04800000
v 0.00923931 0.01157132 -0.04800000
v 0.00916419 0.01138997 -0.04800000
v 0.00907356 0.01121586 -0.04800000
v 0.00896809 0.01105031 -0.04800000
v 0.00495167 0.01175852 -0.04800000
v 0.00490918 0.01195015 -0.04800000
v 0.00488356 0.01214476 -0.04800000
v 0.00907356 0.01346586 -0.04800000
v 0.00916419 0.01329175 -0.04800000
v 0.00923931 0.01311041 -0.04800000
v 0.00929833 0.01292321 -0.04800000
v 0.00934082 0.01273157 -0.04800000
v 0.00936644 0.01253696 -0.04800000
v 0.00884860 0.01089459 -0.04800000
v 0.00871599 0.01074987 -0.04800000
v 0.00857127 0.01061726 -0.04800000
v 0.00654266 0.01016753 -0.04800000
v 0.00635545 0.01022655 -0.04800000
v 0.00617411 0.01030167 -0.04800000
v 0.00600000 0.01039230 -0.04800000
v 0.00583445 0.01049777 -0.04800000
v 0.00567873 0.01061726 -0.04800000
v 0.00553401 0.01074987 -0.04800000
v 0.00871599 0.01393185 -0.04800000
v 0.00884860 0.01378713 -0.04800000
v 0.00896809 0.01363141 -0.04800000
v 0.00807589 0.01030167 -0.04800000
v 0.00789454 0.01022655 -0.04800000
v 0.00540140 0.01089459 -0.04800000
v 0.00528191 0.01105031 -0.04800000
v 0.00490918 0.01273157 -0.04800000
v 0.00495167 0.01292321 -0.04800000
v 0.00501069 0.01311041 -0.04800000
v 0.00508581 0.01329175 -0.04800000
v 0.00517644 0.01346586 -0.04800000
v 0.00528191 0.01363141 -0.04800000
v 0.00540140 0.01378713 -0.04800000
v 0.00553401 0.01393185 -0.04800000
v 0.00567873 0.01406446 -0.04800000
v 0.00617411 0.01438005 -0.04800000
v 0.00635545 0.01445517 -0.04800000
v 0.00654266 0.01451419 -0.04800000
v 0.00673429 0.01455668 -0.04800000
v 0.00751571 0.01455668 -0.04800000
v 0.00770734 0.01451419 -0.04800000
v 0.00789454 0.01445517 -0.04800000
v 0.00841555 0.01418395 -0.04800000
v 0.00857127 0.01406446 -0.04800000
v 0.00841555 0.01049777 -0.04800000
v 0.00825000 0.01039230 -0.04800000
v 0.00770734 0.01016753 -0.04800000
v 0.00751571 0.01012504 -0.04800000
v 0.00732110 0.01009942 -0.04800000
v 0.00583445 0.01418395 -0.04800000
v 0.00600000 0.01428942 -0.04800000
v 0.00712500 0.01009086 -0.04800000
v 0.00692890 0.01009942 -0.04800000
v 0.00673429 0.01012504 -0.04800000
v 0.00692890 0.01458230 -0.04800000
v 0.00712500 0.01459086 -0.04800000
v 0.00732110 0.01458230 -0.04800000
v -0.01200000 -0.00000000 -0.04800000
v -0.01200856 -0.00019610 -0.04800000
v -0.01087500 -0.00617043 -0.04800000
v -0.01200856 0.00019610 -0.04800000
v -0.01240691 -0.00129055 -0.04800000
v -0.01252640 -0.00144627 -0.04800000
v -0.01646582 0.00039071 -0.04800000
v -0.01642333 0.00058234 -0.04800000
v -0.01636431 0.00076955 -0.04800000
v -0.01628919 0.00095089 -0.04800000
v -0.01203418 -0.00039071 -0.04800000
v -0.01207667 -0.00058234 -0.04800000
v -0.01213569 -0.00076955 -0.04800000
v -0.01221081 -0.00095089 -0.04800000
v -0.01230144 -0.00112500 -0.04800000
v -0.01554055 -0.00184309 -0.04800000
v -0.01569627 -0.00172360 -0.04800000
v -0.01584099 -0.00159099 -0.04800000
v -0.01597360 -0.00144627 -0.04800000
v -0.01609309 -0.00129055 -0.04800000
v -0.01619856 -0.00112500 -0.04800000
v -0.01619856 0.00112500 -0.04800000
v -0.01609309 0.00129055 -0.04800000
v -0.01597360 0.00144627 -0.04800000
v -0.01265901 0.00159099 -0.04800000
v -0.01252640 0.00144627 -0.04800000
v -0.01240691 0.00129055 -0.04800000
v -0.01584099 0.00159099 -0.04800000
v -0.01569627 0.00172360 -0.04800000
v -0.01554055 0.00184309 -0.04800000
v -0.01366766 0.00217333 -0.04800000
v -0.01348045 0.00211431 -0.04800000
v -0.01329911 0.00203919 -0.04800000
v -0.01312500 0.00194856 -0.04800000
v -0.01230144 0.00112500 -0.04800000
v -0.01221081 0.00095089 -0.04800000
v -0.01213569 0.00076955 -0.04800000
v -0.01207667 0.00058234 -0.04800000
v -0.01203418 0.00039071 -0.04800000
v -0.01642333 -0.00058234 -0.04800000
v -0.01646582 -0.00039071 -0.04800000
v -0.01649144 -0.00019610 -0.04800000
v -0.01650000 -0.00000000 -0.04800000
v -0.01649144 0.00019610 -0.04800000
v -0.01295945 0.00184309 -0.04800000
v -0.01280373 0.00172360 -0.04800000
v -0.01265901 -0.00159099 -0.04800000
v -0.01280373 -0.00172360 -0.04800000
v -0.01295945 -0.00184309 -0.04800000
v -0.01312500 -0.00194856 -0.04800000
v -0.01329911 -0.00203919 -0.04800000
v -0.01348045 -0.00211431 -0.04800000
v -0.01483234 -0.00217333 -0.04800000
v -0.01501955 -0.00211431 -0.04800000
v -0.01628919 -0.00095089 -0.04800000
v -0.01636431 -0.00076955 -0.04800000
v -0.01537500 0.00194856 -0.04800000
v -0.01520089 0.00203919 -0.04800000
v -0.01501955 0.00211431 -0.04800000
v -0.01425000 0.00225000 -0.04800000
v -0.01405390 0.00224144 -0.04800000
v -0.01385929 0.00221582 -0.04800000
v -0.01520089 -0.00203919 -0.04800000
v -0.01537500 -0.00194856 -0.04800000
v -0.01366766 -0.00217333 -0.04800000
v -0.01385929 -0.00221582 -0.04800000
v -0.01405390 -0.00224144 -0.04800000
v -0.01425000 -0.00225000 -0.04800000
v -0.01444610 -0.00224144 -0.04800000
v -0.01464071 -0.00221582 -0.04800000
v -0.01483234 0.00217333 -0.04800000
v -0.01464071 0.00221582 -0.04800000
v -0.01444610 0.00224144 -0.04800000
v -0.00620945 0.01483347 -0.06360000
v -0.00637500 0.01493894 -0.06360000
v -0.00018750 0.01491562 -0.06360000
v -0.01915111 -0.01606969 -0.06360000
v -0.02047880 -0.01433941 -0.06360000
v -0.02075000 -0.01041562 -0.06360000
v -0.02414815 -0.00647048 -0.06360000
v -0.02462019 -0.00434120 -0.06360000
v -0.02075000 -0.00617043 -0.06360000
v -0.02490487 -0.00217889 -0.06360000
v -0.02075000 0.00617043 -0.06360000
v -0.02500000 0.00000000 -0.06360000
v -0.02490487 0.00217889 -0.06360000
v -0.02165063 -0.01250000 -0.06360000
v -0.02265769 -0.01056546 -0.06360000
v -0.02349232 -0.00855050 -0.06360000
v -0.01433941 -0.02047880 -0.06360000
v -0.01606969 -0.01915111 -0.06360000
v -0.01087500 -0.01041562 -0.06360000
v -0.01767767 -0.01767767 -0.06360000
v -0.01250000 -0.02165063 -0.06360000
v -0.00975000 -0.01299038 -0.06360000
v -0.00974144 -0.01318648 -0.06360000
v -0.00971582 -0.01338109 -0.06360000
v -0.00967333 -0.01357272 -0.06360000
v -0.00961431 -0.01375993 -0.06360000
v -0.00967333 -0.01240804 -0.06360000
v -0.00971582 -0.01259967 -0.06360000
v -0.00974144 -0.01279428 -0.06360000
v -0.00934309 -0.01428093 -0.06360000
v -0.00922360 -0.01443665 -0.06360000
v -0.00953919 -0.01394127 -0.06360000
v -0.00944856 -0.01411538 -0.06360000
v -0.00528418 -0.01338109 -0.06360000
v -0.00525856 -0.01318648 -0.06360000
v -0.00018750 -0.01041562 -0.06360000
v -0.00525000 -0.01299038 -0.06360000
v -0.00525856 -0.01279428 -0.06360000
v -0.00528418 -0.01259967 -0.06360000
v -0.00532667 -0.01240804 -0.06360000
v -0.00909099 -0.01139939 -0.06360000
v -0.00922360 -0.01154411 -0.06360000
v -0.00934309 -0.01169983 -0.06360000
v -0.00944856 -0.01186538 -0.06360000
v -0.00953919 -0.01203949 -0.06360000
v -0.00961431 -0.01222084 -0.06360000
v -0.00909099 -0.01458137 -0.06360000
v -0.00894627 -0.01471398 -0.06360000
v -0.00879055 -0.01483347 -0.06360000
v -0.00538569 -0.01222084 -0.06360000
v -0.00546081 -0.01203949 -0.06360000
v -0.00555144 -0.01186538 -0.06360000
v -0.00590901 -0.01458137 -0.06360000
v -0.00000000 -0.02500000 -0.06360000
v -0.00605373 -0.01471398 -0.06360000
v -0.00620945 -0.01483347 -0.06360000
v -0.00577640 -0.01443665 -0.06360000
v -0.00565691 -0.01428093 -0.06360000
v -0.00555144 -0.01411538 -0.06360000
v -0.00546081 -0.01394127 -0.06360000
v -0.00538569 -0.01375993 -0.06360000
v -0.00532667 -0.01357272 -0.06360000
v -0.00565691 -0.01169983 -0.06360000
v -0.00577640 -0.01154411 -0.06360000
v -0.00590901 -0.01139939 -0.06360000
v -0.00862500 -0.01493894 -0.06360000
v -0.00845089 -0.01502957 -0.06360000
v -0.01056546 -0.02265769 -0.06360000
v -0.00217889 -0.02490487 -0.06360000
v -0.00654911 -0.01502957 -0.06360000
v -0.00637500 -0.01493894 -0.06360000
v -0.00605373 -0.01126678 -0.06360000
v -0.00620945 -0.01114729 -0.06360000
v -0.00637500 -0.01104182 -0.06360000
v -0.00845089 -0.01095119 -0.06360000
v -0.00862500 -0.01104182 -0.06360000
v -0.00750000 -0.01524038 -0.06360000
v -0.00647048 -0.02414815 -0.06360000
v -0.00769610 -0.01523182 -0.06360000
v -0.00855050 -0.02349232 -0.06360000
v -0.00730390 -0.01523182 -0.06360000
v -0.00710929 -0.01520620 -0.06360000
v -0.00434120 -0.02462019 -0.06360000
v -0.00691766 -0.01516371 -0.06360000
v -0.00673045 -0.01510469 -0.06360000
v -0.00654911 -0.01095119 -0.06360000
v -0.00673045 -0.01087607 -0.06360000
v -0.00691766 -0.01081705 -0.06360000
v -0.00789071 -0.01077456 -0.06360000
v -0.00769610 -0.01074894 -0.06360000
v -0.00750000 -0.01074038 -0.06360000
v -0.00808234 -0.01081705 -0.06360000
v -0.00826955 -0.01087607 -0.06360000
v -0.00879055 -0.01114729 -0.06360000
v -0.00894627 -0.01126678 -0.06360000
v -0.00826955 -0.01510469 -0.06360000
v -0.00808234 -0.01516371 -0.06360000
v -0.00789071 -0.01520620 -0.06360000
v -0.00710929 -0.01077456 -0.06360000
v -0.00730390 -0.01074894 -0.06360000
v 0.00487500 -0.01234086 -0.06360000
v 0.00488356 -0.01253696 -0.06360000
v 0.01106250 -0.01041562 -0.06360000
v 0.00936644 -0.01253696 -0.06360000
v 0.00937500 -0.01234086 -0.06360000
v 0.00488356 -0.01214476 -0.06360000
v 0.00907356 -0.01121586 -0.06360000
v 0.00896809 -0.01105031 -0.06360000
v 0.00884860 -0.01089459 -0.06360000
v 0.00617411 -0.01030167 -0.06360000
v 0.00600000 -0.01039230 -0.06360000
v 0.00583445 -0.01049777 -0.06360000
v 0.00567873 -0.01061726 -0.06360000
v 0.00553401 -0.01074987 -0.06360000
v 0.00540140 -0.01089459 -0.06360000
v 0.00528191 -0.01105031 -0.06360000
v 0.00501069 -0.01311041 -0.06360000
v 0.00495167 -0.01292321 -0.06360000
v 0.00490918 -0.01273157 -0.06360000
v 0.00508581 -0.01329175 -0.06360000
v 0.00517644 -0.01346586 -0.06360000
v 0.00528191 -0.01363141 -0.06360000
v 0.00936644 -0.01214476 -0.06360000
v 0.00934082 -0.01195015 -0.06360000
v 0.00929833 -0.01175852 -0.06360000
v 0.00923931 -0.01157132 -0.06360000
v 0.00916419 -0.01138997 -0.06360000
v 0.00871599 -0.01074987 -0.06360000
v 0.00857127 -0.01061726 -0.06360000
v 0.00841555 -0.01049777 -0.06360000
v 0.00517644 -0.01121586 -0.06360000
v 0.00508581 -0.01138997 -0.06360000
v 0.00501069 -0.01157132 -0.06360000
v 0.00495167 -0.01175852 -0.06360000
v 0.00490918 -0.01195015 -0.06360000
v 0.00871599 -0.01393185 -0.06360000
v 0.00884860 -0.01378713 -0.06360000
v 0.01056546 -0.02265769 -0.06360000
v 0.00896809 -0.01363141 -0.06360000
v 0.00907356 -0.01346586 -0.06360000
v 0.00916419 -0.01329175 -0.06360000
v 0.00567873 -0.01406446 -0.06360000
v 0.00583445 -0.01418395 -0.06360000
v 0.00600000 -0.01428942 -0.06360000
v 0.00217889 -0.02490487 -0.06360000
v 0.00923931 -0.01311041 -0.06360000
v 0.00929833 -0.01292321 -0.06360000
v 0.00934082 -0.01273157 -0.06360000
v 0.00540140 -0.01378713 -0.06360000
v 0.00553401 -0.01393185 -0.06360000
v 0.00617411 -0.01438005 -0.06360000
v 0.00635545 -0.01445517 -0.06360000
v 0.00434120 -0.02462019 -0.06360000
v 0.00855050 -0.02349232 -0.06360000
v 0.00647048 -0.02414815 -0.06360000
v 0.00712500 -0.01459086 -0.06360000
v 0.00654266 -0.01451419 -0.06360000
v 0.00673429 -0.01455668 -0.06360000
v 0.00692890 -0.01458230 -0.06360000
v 0.00789454 -0.01445517 -0.06360000
v 0.00807589 -0.01438005 -0.06360000
v 0.00825000 -0.01428942 -0.06360000
v 0.00841555 -0.01418395 -0.06360000
v 0.00857127 -0.01406446 -0.06360000
v 0.00732110 -0.01458230 -0.06360000
v 0.00751571 -0.01455668 -0.06360000
v 0.00770734 -0.01451419 -0.06360000
v 0.02349232 -0.00855050 -0.06360000
v 0.02265769 -0.01056546 -0.06360000
v 0.02165063 -0.01250000 -0.06360000
v 0.02047880 -0.01433941 -0.06360000
v 0.01915111 -0.01606969 -0.06360000
v 0.01767767 -0.01767767 -0.06360000
v 0.01606969 -0.01915111 -0.06360000
v 0.01433941 -0.02047880 -0.06360000
v 0.01250000 -0.02165063 -0.06360000
v 0.01106250 -0.00617043 -0.06360000
v 0.01275000 0.00000000 -0.06360000
v 0.01275856 -0.00019610 -0.06360000
v 0.01725000 -0.00000000 -0.06360000
v 0.01724144 0.00019610 -0.06360000
v 0.02500000 0.00000000 -0.06360000
v 0.02490487 -0.00217889 -0.06360000
v 0.02462019 -0.00434120 -0.06360000
v 0.01711431 -0.00076955 -0.06360000
v 0.01558234 -0.00217333 -0.06360000
v 0.01576954 -0.00211431 -0.06360000
v 0.02414815 -0.00647048 -0.06360000
v 0.02462019 0.00434120 -0.06360000
v 0.02490487 0.00217889 -0.06360000
v 0.01717333 0.00058234 -0.06360000
v 0.01315691 0.00129055 -0.06360000
v 0.01305144 0.00112500 -0.06360000
v 0.01106250 0.00617043 -0.06360000
v 0.01296081 0.00095089 -0.06360000
v 0.01288569 0.00076955 -0.06360000
v 0.01282667 0.00058234 -0.06360000
v 0.01278418 0.00039071 -0.06360000
v 0.01275856 0.00019610 -0.06360000
v 0.01595089 -0.00203919 -0.06360000
v 0.01612500 -0.00194856 -0.06360000
v 0.01629055 -0.00184309 -0.06360000
v 0.01644627 -0.00172360 -0.06360000
v 0.01659099 -0.00159099 -0.06360000
v 0.01672360 -0.00144627 -0.06360000
v 0.01721582 0.00039071 -0.06360000
v 0.01659099 0.00159099 -0.06360000
v 0.02414815 0.00647048 -0.06360000
v 0.01672360 0.00144627 -0.06360000
v 0.01684309 0.00129055 -0.06360000
v 0.01288569 -0.00076955 -0.06360000
v 0.01296081 -0.00095089 -0.06360000
v 0.01305144 -0.00112500 -0.06360000
v 0.01315691 -0.00129055 -0.06360000
v 0.01684309 -0.00129055 -0.06360000
v 0.01694856 -0.00112500 -0.06360000
v 0.01703919 -0.00095089 -0.06360000
v 0.01717333 -0.00058234 -0.06360000
v 0.01721582 -0.00039071 -0.06360000
v 0.01724144 -0.00019610 -0.06360000
v 0.01711431 0.00076955 -0.06360000
v 0.01703919 0.00095089 -0.06360000
v 0.01694856 0.00112500 -0.06360000
v 0.01644627 0.00172360 -0.06360000
v 0.01629055 0.00184309 -0.06360000
v 0.01612500 0.00194856 -0.06360000
v 0.01355373 0.00172360 -0.06360000
v 0.01340901 0.00159099 -0.06360000
v 0.01327640 0.00144627 -0.06360000
v 0.01278418 -0.00039071 -0.06360000
v 0.01282667 -0.00058234 -0.06360000
v 0.01595089 0.00203919 -0.06360000
v 0.01576954 0.00211431 -0.06360000
v 0.01558234 0.00217333 -0.06360000
v 0.01460929 -0.00221582 -0.06360000
v 0.01480390 -0.00224144 -0.06360000
v 0.01423045 0.00211431 -0.06360000
v 0.01404911 0.00203919 -0.06360000
v 0.01327640 -0.00144627 -0.06360000
v 0.01340901 -0.00159099 -0.06360000
v 0.01355373 -0.00172360 -0.06360000
v 0.01539071 0.00221582 -0.06360000
v 0.01519610 0.00224144 -0.06360000
v 0.01500000 0.00225000 -0.06360000
v 0.01480390 0.00224144 -0.06360000
v 0.01387500 0.00194856 -0.06360000
v 0.01370945 0.00184309 -0.06360000
v 0.01370945 -0.00184309 -0.06360000
v 0.01387500 -0.00194856 -0.06360000
v 0.01404911 -0.00203919 -0.06360000
v 0.01500000 -0.00225000 -0.06360000
v 0.01519610 -0.00224144 -0.06360000
v 0.01539071 -0.00221582 -0.06360000
v 0.01460929 0.00221582 -0.06360000
v 0.01441766 0.00217333 -0.06360000
v 0.01423045 -0.00211431 -0.06360000
v 0.01441766 -0.00217333 -0.06360000
v 0.02349232 0.00855050 -0.06360000
v 0.02265769 0.01056546 -0.06360000
v 0.00855050 0.02349232 -0.06360000
v 0.01056546 0.02265769 -0.06360000
v 0.01106250 0.01491562 -0.06360000
v 0.01250000 0.02165063 -0.06360000
v 0.01433941 0.02047880 -0.06360000
v 0.01606969 0.01915111 -0.06360000
v 0.01767767 0.01767767 -0.06360000
v 0.01915111 0.01606969 -0.06360000
v 0.02047880 0.01433941 -0.06360000
v 0.02165063 0.01250000 -0.06360000
v 0.00217889 0.02490487 -0.06360000
v 0.00434120 0.02462019 -0.06360000
v 0.00647048 0.02414815 -0.06360000
v 0.00000000 0.02500000 -0.06360000
v -0.00217889 0.02490487 -0.06360000
v -0.00730390 0.01523182 -0.06360000
v -0.00750000 0.01524038 -0.06360000
v -0.00647048 0.02414815 -0.06360000
v -0.00862500 0.01493894 -0.06360000
v -0.01087500 0.01491562 -0.06360000
v -0.00845089 0.01502957 -0.06360000
v -0.01056546 0.02265769 -0.06360000
v -0.00826955 0.01510469 -0.06360000
v -0.00855050 0.02349232 -0.06360000
v -0.00654911 0.01502957 -0.06360000
v -0.00673045 0.01510469 -0.06360000
v -0.00434120 0.02462019 -0.06360000
v -0.00691766 0.01516371 -0.06360000
v -0.00710929 0.01520620 -0.06360000
v -0.00769610 0.01523182 -0.06360000
v -0.00789071 0.01520620 -0.06360000
v -0.00808234 0.01516371 -0.06360000
v -0.01915111 0.01606969 -0.06360000
v -0.01767767 0.01767767 -0.06360000
v -0.01606969 0.01915111 -0.06360000
v -0.01433941 0.02047880 -0.06360000
v -0.01250000 0.02165063 -0.06360000
v -0.02462019 0.00434120 -0.06360000
v -0.02414815 0.00647048 -0.06360000
v -0.02349232 0.00855050 -0.06360000
v -0.02265769 0.01056546 -0.06360000
v -0.02165063 0.01250000 -0.06360000
v -0.02047880 0.01433941 -0.06360000
v -0.00879055 0.01483347 -0.06360000
v -0.00894627 0.01471398 -0.06360000
v -0.00909099 0.01458137 -0.06360000
v -0.00922360 0.01443665 -0.06360000
v -0.00934309 0.01428093 -0.06360000
v -0.00944856 0.01411538 -0.06360000
v -0.00953919 0.01394127 -0.06360000
v -0.00961431 0.01375993 -0.06360000
v -0.00967333 0.01357272 -0.06360000
v -0.00971582 0.01338109 -0.06360000
v -0.00974144 0.01318648 -0.06360000
v -0.00975000 0.01299038 -0.06360000
v -0.00909099 0.01139939 -0.06360000
v -0.01087500 0.00617043 -0.06360000
v -0.00922360 0.01154411 -0.06360000
v -0.00934309 0.01169983 -0.06360000
v -0.00974144 0.01279428 -0.06360000
v -0.00971582 0.01259967 -0.06360000
v -0.00967333 0.01240804 -0.06360000
v -0.00961431 0.01222084 -0.06360000
v -0.00953919 0.01203949 -0.06360000
v -0.00944856 0.01186538 -0.06360000
v -0.00018750 0.00617043 -0.06360000
v -0.00555144 0.01186538 -0.06360000
v -0.00546081 0.01203949 -0.06360000
v -0.00525856 0.01279428 -0.06360000
v -0.00525000 0.01299038 -0.06360000
v -0.00525856 0.01318648 -0.06360000
v -0.00528418 0.01338109 -0.06360000
v -0.00532667 0.01357272 -0.06360000
v -0.00538569 0.01375993 -0.06360000
v -0.00546081 0.01394127 -0.06360000
v -0.00555144 0.01411538 -0.06360000
v -0.00565691 0.01428093 -0.06360000
v -0.00577640 0.01443665 -0.06360000
v -0.00894627 0.01126678 -0.06360000
v -0.00879055 0.01114729 -0.06360000
v -0.00862500 0.01104182 -0.06360000
v -0.00605373 0.01126678 -0.06360000
v -0.00590901 0.01139939 -0.06360000
v -0.00538569 0.01222084 -0.06360000
v -0.00532667 0.01240804 -0.06360000
v -0.00528418 0.01259967 -0.06360000
v -0.00590901 0.01458137 -0.06360000
v -0.00605373 0.01471398 -0.06360000
v -0.00577640 0.01154411 -0.06360000
v -0.00565691 0.01169983 -0.06360000
v -0.00654911 0.01095119 -0.06360000
v -0.00637500 0.01104182 -0.06360000
v -0.00620945 0.01114729 -0.06360000
v -0.00845089 0.01095119 -0.06360000
v -0.00826955 0.01087607 -0.06360000
v -0.00808234 0.01081705 -0.06360000
v -0.00750000 0.01074038 -0.06360000
v -0.00730390 0.01074894 -0.06360000
v -0.00710929 0.01077456 -0.06360000
v -0.00691766 0.01081705 -0.06360000
v -0.00673045 0.01087607 -0.06360000
v -0.00789071 0.01077456 -0.06360000
v -0.00769610 0.01074894 -0.06360000
v 0.00825000 -0.01039230 -0.06360000
v -0.00018750 -0.00617043 -0.06360000
v 0.00807589 -0.01030167 -0.06360000
v 0.00789454 -0.01022655 -0.06360000
v 0.00770734 -0.01016753 -0.06360000
v 0.00712500 -0.01009086 -0.06360000
v 0.00692890 -0.01009942 -0.06360000
v 0.00673429 -0.01012504 -0.06360000
v 0.00654266 -0.01016753 -0.06360000
v 0.00635545 -0.01022655 -0.06360000
v 0.00751571 -0.01012504 -0.06360000
v 0.00732110 -0.01009942 -0.06360000
v -0.01087500 -0.00617043 -0.06360000
v -0.01537500 0.00194856 -0.06360000
v -0.01554055 0.00184309 -0.06360000
v -0.01609309 -0.00129055 -0.06360000
v -0.01597360 -0.00144627 -0.06360000
v -0.01252640 -0.00144627 -0.06360000
v -0.01240691 -0.00129055 -0.06360000
v -0.01646582 0.00039071 -0.06360000
v -0.01649144 0.00019610 -0.06360000
v -0.01650000 -0.00000000 -0.06360000
v -0.01649144 -0.00019610 -0.06360000
v -0.01584099 -0.00159099 -0.06360000
v -0.01569627 -0.00172360 -0.06360000
v -0.01554055 -0.00184309 -0.06360000
v -0.01200000 -0.00000000 -0.06360000
v -0.01200856 0.00019610 -0.06360000
v -0.01628919 0.00095089 -0.06360000
v -0.01636431 0.00076955 -0.06360000
v -0.01642333 0.00058234 -0.06360000
v -0.01646582 -0.00039071 -0.06360000
v -0.01642333 -0.00058234 -0.06360000
v -0.01636431 -0.00076955 -0.06360000
v -0.01240691 0.00129055 -0.06360000
v -0.01252640 0.00144627 -0.06360000
v -0.01265901 0.00159099 -0.06360000
v -0.01280373 0.00172360 -0.06360000
v -0.01569627 0.00172360 -0.06360000
v -0.01584099 0.00159099 -0.06360000
v -0.01597360 0.00144627 -0.06360000
v -0.01609309 0.00129055 -0.06360000
v -0.01619856 0.00112500 -0.06360000
v -0.01628919 -0.00095089 -0.06360000
v -0.01619856 -0.00112500 -0.06360000
v -0.01366766 -0.00217333 -0.06360000
v -0.01348045 -0.00211431 -0.06360000
v -0.01230144 -0.00112500 -0.06360000
v -0.01221081 -0.00095089 -0.06360000
v -0.01213569 -0.00076955 -0.06360000
v -0.01207667 -0.00058234 -0.06360000
v -0.01203418 -0.00039071 -0.06360000
v -0.01200856 -0.00019610 -0.06360000
v -0.01329911 -0.00203919 -0.06360000
v -0.01312500 -0.00194856 -0.06360000
v -0.01295945 -0.00184309 -0.06360000
v -0.01280373 -0.00172360 -0.06360000
v -0.01265901 -0.00159099 -0.06360000
v -0.01203418 0.00039071 -0.06360000
v -0.01207667 0.00058234 -0.06360000
v -0.01213569 0.00076955 -0.06360000
v -0.01221081 0.00095089 -0.06360000
v -0.01230144 0.00112500 -0.06360000
v -0.01537500 -0.00194856 -0.06360000
v -0.01520089 -0.00203919 -0.06360000
v -0.01501955 -0.00211431 -0.06360000
v -0.01295945 0.00184309 -0.06360000
v -0.01312500 0.00194856 -0.06360000
v -0.01329911 0.00203919 -0.06360000
v -0.01348045 0.00211431 -0.06360000
v -0.01366766 0.00217333 -0.06360000
v -0.01385929 0.00221582 -0.06360000
v -0.01464071 0.00221582 -0.06360000
v -0.01483234 0.00217333 -0.06360000
v -0.01425000 -0.00225000 -0.06360000
v -0.01405390 -0.00224144 -0.06360000
v -0.01385929 -0.00221582 -0.06360000
v -0.01501955 0.00211431 -0.06360000
v -0.01520089 0.00203919 -0.06360000
v -0.01483234 -0.00217333 -0.06360000
v -0.01464071 -0.00221582 -0.06360000
v -0.01444610 -0.00224144 -0.06360000
v -0.01405390 0.00224144 -0.06360000
v -0.01425000 0.00225000 -0.06360000
v -0.01444610 0.00224144 -0.06360000
v 0.00495167 0.01175852 -0.06360000
v 0.00501069 0.01157132 -0.06360000
v 0.00884860 0.01089459 -0.06360000
v 0.00896809 0.01105031 -0.06360000
v 0.00508581 0.01138997 -0.06360000
v 0.00517644 0.01121586 -0.06360000
v 0.00528191 0.01105031 -0.06360000
v 0.00488356 0.01253696 -0.06360000
v 0.00487500 0.01234086 -0.06360000
v 0.00488356 0.01214476 -0.06360000
v 0.00490918 0.01195015 -0.06360000
v 0.00871599 0.01074987 -0.06360000
v 0.00907356 0.01121586 -0.06360000
v 0.00916419 0.01138997 -0.06360000
v 0.00923931 0.01157132 -0.06360000
v 0.00937500 0.01234086 -0.06360000
v 0.00936644 0.01253696 -0.06360000
v 0.00934082 0.01273157 -0.06360000
v 0.00929833 0.01292321 -0.06360000
v 0.00923931 0.01311041 -0.06360000
v 0.00916419 0.01329175 -0.06360000
v 0.00907356 0.01346586 -0.06360000
v 0.00567873 0.01061726 -0.06360000
v 0.00583445 0.01049777 -0.06360000
v 0.00600000 0.01039230 -0.06360000
v 0.00617411 0.01030167 -0.06360000
v 0.00929833 0.01175852 -0.06360000
v 0.00934082 0.01195015 -0.06360000
v 0.00936644 0.01214476 -0.06360000
v 0.00896809 0.01363141 -0.06360000
v 0.00884860 0.01378713 -0.06360000
v 0.00871599 0.01393185 -0.06360000
v 0.00553401 0.01393185 -0.06360000
v 0.00540140 0.01378713 -0.06360000
v 0.00528191 0.01363141 -0.06360000
v 0.00540140 0.01089459 -0.06360000
v 0.00553401 0.01074987 -0.06360000
v 0.00635545 0.01022655 -0.06360000
v 0.00654266 0.01016753 -0.06360000
v 0.00673429 0.01012504 -0.06360000
v 0.00692890 0.01009942 -0.06360000
v 0.00712500 0.01009086 -0.06360000
v 0.00732110 0.01009942 -0.06360000
v 0.00751571 0.01012504 -0.06360000
v 0.00857127 0.01406446 -0.06360000
v 0.00841555 0.01418395 -0.06360000
v 0.00825000 0.01428942 -0.06360000
v 0.00807589 0.01438005 -0.06360000
v 0.00789454 0.01445517 -0.06360000
v 0.00770734 0.01451419 -0.06360000
v 0.00692890 0.01458230 -0.06360000
v 0.00673429 0.01455668 -0.06360000
v 0.00654266 0.01451419 -0.06360000
v 0.00635545 0.01445517 -0.06360000
v 0.00617411 0.01438005 -0.06360000
v 0.00600000 0.01428942 -0.06360000
v 0.00517644 0.01346586 -0.06360000
v 0.00508581 0.01329175 -0.06360000
v 0.00501069 0.01311041 -0.06360000
v 0.00495167 0.01292321 -0.06360000
v 0.00490918 0.01273157 -0.06360000
v 0.00807589 0.01030167 -0.06360000
v 0.00825000 0.01039230 -0.06360000
v 0.00712500 0.01459086 -0.06360000
v 0.00583445 0.01418395 -0.06360000
v 0.00567873 0.01406446 -0.06360000
v 0.00770734 0.01016753 -0.06360000
v 0.00789454 0.01022655 -0.06360000
v 0.00841555 0.01049777 -0.06360000
v 0.00857127 0.01061726 -0.06360000
v 0.00751571 0.01455668 -0.06360000
v 0.00732110 0.01458230 -0.06360000
f 1 2 3
f 4 5 6
f 7 8 9
f 8 10 9
f 9 10 6
f 10 11 6
f 6 11 4
f 12 13 9
f 13 14 9
f 14 15 9
f 9 15 7
f 16 17 18
f 19 16 20
f 16 21 20
f 18 22 16
f 22 23 16
f 16 23 21
f 24 25 26
f 24 26 27
f 17 28 29
f 17 29 30
f 31 32 33
f 32 30 33
f 33 30 34
f 30 29 34
f 31 35 32
f 35 36 32
f 32 36 37
f 36 38 37
f 37 38 24
f 38 39 24
f 24 39 25
f 27 40 41
f 40 42 41
f 43 44 40
f 44 45 40
f 40 45 42
f 46 47 43
f 47 48 43
f 48 49 43
f 49 50 43
f 43 50 51
f 51 52 43
f 52 53 43
f 43 53 44
f 54 55 56
f 55 57 56
f 56 57 46
f 58 59 60
f 60 59 61
f 62 63 56
f 63 64 56
f 56 64 65
f 65 66 56
f 66 67 56
f 56 67 68
f 69 70 71
f 58 60 72
f 60 73 72
f 72 73 74
f 75 76 77
f 76 78 77
f 75 79 76
f 79 80 76
f 76 80 81
f 82 83 84
f 85 86 84
f 87 88 54
f 88 89 54
f 54 89 90
f 59 91 61
f 91 92 61
f 61 92 76
f 92 93 76
f 76 93 78
f 68 94 56
f 94 95 56
f 56 95 96
f 71 97 69
f 97 98 69
f 69 98 73
f 98 99 73
f 73 99 74
f 100 101 84
f 101 102 84
f 86 103 84
f 103 104 84
f 84 104 105
f 90 106 54
f 106 107 54
f 54 107 70
f 107 108 70
f 70 108 71
f 81 109 76
f 109 110 76
f 76 110 111
f 102 112 84
f 112 113 84
f 84 113 85
f 114 54 115
f 54 116 115
f 114 117 54
f 117 118 54
f 54 118 87
f 119 120 84
f 120 121 84
f 84 121 82
f 96 122 56
f 122 123 56
f 56 123 124
f 83 125 84
f 125 126 84
f 84 126 127
f 124 128 56
f 128 129 56
f 56 129 130
f 116 54 131
f 54 56 131
f 131 56 132
f 127 133 84
f 133 134 84
f 84 134 100
f 130 135 56
f 135 136 56
f 56 136 132
f 111 119 76
f 119 84 76
f 76 84 137
f 84 138 137
f 139 140 138
f 140 141 138
f 138 141 142
f 142 143 138
f 143 144 138
f 138 144 145
f 145 146 138
f 146 147 138
f 138 147 137
f 148 149 138
f 149 150 138
f 138 150 151
f 152 153 138
f 153 154 138
f 138 154 148
f 151 155 138
f 155 156 138
f 138 156 157
f 157 158 138
f 158 159 138
f 138 159 160
f 161 162 163
f 164 165 163
f 165 166 163
f 163 166 167
f 168 169 170
f 169 171 170
f 170 171 163
f 171 172 163
f 163 172 164
f 162 173 163
f 173 174 163
f 163 174 175
f 176 177 139
f 177 178 139
f 139 178 179
f 167 180 163
f 180 181 163
f 163 181 182
f 182 183 163
f 183 184 163
f 163 184 161
f 160 185 138
f 185 186 138
f 138 186 139
f 186 187 139
f 139 187 176
f 179 188 139
f 188 189 139
f 139 189 190
f 191 192 193
f 194 195 170
f 195 196 170
f 193 197 191
f 197 198 191
f 191 198 170
f 198 199 170
f 170 199 194
f 196 200 170
f 200 201 170
f 170 201 168
f 190 202 139
f 202 203 139
f 139 203 204
f 205 206 207
f 204 208 139
f 208 209 139
f 139 209 206
f 209 210 206
f 206 210 207
f 207 211 205
f 211 212 205
f 205 212 192
f 212 213 192
f 192 213 193
f 214 215 170
f 216 217 163
f 217 218 163
f 163 218 219
f 214 170 220
f 221 222 223
f 222 224 223
f 225 226 227
f 226 228 227
f 227 228 229
f 224 230 223
f 230 231 223
f 223 231 232
f 232 233 223
f 233 234 223
f 223 234 227
f 234 235 227
f 227 235 225
f 229 236 227
f 236 237 227
f 227 237 238
f 215 239 170
f 239 240 170
f 170 240 241
f 223 242 243
f 244 245 163
f 245 246 163
f 246 247 163
f 163 247 248
f 248 249 163
f 249 250 163
f 163 250 216
f 219 251 163
f 251 252 163
f 163 252 170
f 252 253 170
f 170 253 220
f 243 254 223
f 254 255 223
f 223 255 221
f 238 256 227
f 256 257 227
f 227 257 258
f 259 260 261
f 262 263 163
f 263 264 163
f 163 264 244
f 241 265 170
f 265 266 170
f 170 266 267
f 268 269 223
f 269 270 223
f 223 270 242
f 261 260 271
f 272 273 163
f 266 274 267
f 274 275 267
f 267 275 276
f 275 277 276
f 276 277 261
f 277 278 261
f 261 278 259
f 258 279 227
f 279 280 227
f 227 280 281
f 281 282 227
f 282 283 227
f 227 283 284
f 273 285 163
f 285 286 163
f 163 286 262
f 260 287 271
f 287 288 271
f 271 288 268
f 288 289 268
f 268 289 269
f 284 290 227
f 290 291 227
f 227 291 163
f 291 292 163
f 163 292 272
f 293 294 227
f 294 295 227
f 227 295 223
f 2 296 3
f 296 297 3
f 3 297 227
f 297 298 227
f 227 298 293
f 27 26 40
f 26 299 40
f 40 299 300
f 40 301 302
f 302 303 40
f 303 304 40
f 40 304 305
f 306 307 308
f 309 16 310
f 16 311 310
f 309 312 16
f 312 313 16
f 16 313 314
f 314 315 16
f 315 316 16
f 16 316 317
f 317 318 16
f 318 319 16
f 16 319 320
f 320 321 16
f 321 322 16
f 16 322 17
f 322 323 17
f 17 323 28
f 300 324 40
f 324 325 40
f 40 325 301
f 305 326 40
f 326 327 40
f 40 327 328
f 329 330 308
f 330 331 308
f 12 9 19
f 9 308 19
f 19 308 16
f 308 307 16
f 16 307 311
f 332 333 334
f 331 335 308
f 335 336 308
f 308 336 306
f 328 337 40
f 337 338 40
f 40 338 334
f 338 339 334
f 334 339 332
f 333 340 334
f 340 341 334
f 334 341 342
f 342 343 334
f 343 344 334
f 334 344 345
f 346 347 308
f 347 348 308
f 308 348 329
f 345 349 334
f 349 350 334
f 334 350 351
f 352 353 308
f 353 354 308
f 308 354 346
f 308 355 356
f 351 357 334
f 357 358 334
f 334 358 308
f 358 359 308
f 308 359 355
f 356 360 308
f 360 361 308
f 308 361 352
f 362 363 364
f 363 365 364
f 365 366 364
f 366 367 364
f 364 367 84
f 152 138 368
f 138 84 368
f 368 84 369
f 367 370 84
f 370 371 84
f 84 371 372
f 372 373 84
f 373 374 84
f 84 374 369
f 46 43 56
f 43 375 56
f 56 375 376
f 377 378 334
f 377 334 379
f 40 380 381
f 382 383 43
f 376 384 56
f 384 385 56
f 56 385 386
f 386 387 56
f 387 388 56
f 56 388 389
f 378 390 334
f 390 391 334
f 334 391 40
f 391 392 40
f 40 392 380
f 393 394 43
f 394 395 43
f 43 395 396
f 396 397 43
f 397 398 43
f 43 398 375
f 389 399 56
f 399 400 56
f 56 400 401
f 402 403 334
f 403 404 334
f 334 404 405
f 405 406 334
f 406 407 334
f 334 407 408
f 409 410 43
f 410 411 43
f 43 411 393
f 56 412 413
f 408 414 334
f 414 415 334
f 334 415 379
f 381 416 40
f 416 417 40
f 40 417 418
f 418 419 40
f 419 420 40
f 40 420 421
f 421 422 40
f 422 423 40
f 40 423 424
f 425 426 40
f 426 427 40
f 40 427 428
f 429 430 43
f 430 431 43
f 43 431 382
f 383 432 43
f 432 433 43
f 43 433 409
f 401 434 56
f 434 435 56
f 56 435 412
f 413 436 56
f 436 437 56
f 56 437 438
f 424 439 40
f 439 440 40
f 40 440 425
f 438 441 56
f 441 442 56
f 56 442 334
f 442 443 334
f 334 443 402
f 428 444 40
f 444 445 40
f 40 445 43
f 445 446 43
f 43 446 429
f 447 448 449
f 450 447 308
f 447 449 308
f 308 449 334
f 449 364 334
f 334 364 56
f 364 84 56
f 56 84 62
f 84 105 62
f 451 452 449
f 453 454 9
f 454 455 9
f 9 455 456
f 448 457 449
f 457 458 449
f 449 458 459
f 459 460 449
f 460 461 449
f 449 461 451
f 462 463 6
f 463 464 6
f 464 465 6
f 465 466 6
f 6 466 467
f 456 468 9
f 468 469 9
f 9 469 470
f 471 472 308
f 472 473 308
f 470 474 9
f 474 475 9
f 9 475 476
f 477 478 308
f 478 479 308
f 308 479 480
f 473 481 308
f 481 482 308
f 308 482 483
f 483 484 308
f 484 485 308
f 308 485 450
f 6 486 487
f 487 488 6
f 488 489 6
f 6 489 9
f 489 490 9
f 9 490 453
f 480 491 308
f 491 492 308
f 308 492 471
f 452 493 449
f 493 494 449
f 449 494 495
f 495 496 449
f 496 497 449
f 449 497 498
f 6 499 500
f 467 501 6
f 501 502 6
f 6 502 486
f 476 503 9
f 503 504 9
f 9 504 505
f 506 507 308
f 507 508 308
f 308 508 477
f 500 509 6
f 509 510 6
f 6 510 462
f 498 511 449
f 511 512 449
f 449 512 513
f 513 514 449
f 514 515 449
f 449 515 6
f 515 516 6
f 6 516 499
f 505 517 9
f 517 518 9
f 9 518 308
f 518 519 308
f 308 519 506
f 5 1 6
f 1 3 6
f 6 3 449
f 3 227 449
f 449 227 364
f 227 163 364
f 364 163 362
f 163 175 362
f 520 521 522
f 523 524 525
f 526 527 528
f 527 529 528
f 528 529 530
f 529 531 530
f 530 531 532
f 524 533 525
f 533 534 525
f 525 534 535
f 536 537 538
f 537 539 538
f 538 539 523
f 536 538 540
f 538 541 540
f 540 541 542
f 542 543 540
f 543 544 540
f 540 544 545
f 546 547 538
f 547 548 538
f 538 548 541
f 540 549 550
f 545 551 540
f 551 552 540
f 540 552 549
f 553 554 555
f 554 556 555
f 556 557 555
f 557 558 555
f 555 558 559
f 560 561 538
f 561 562 538
f 538 562 563
f 563 564 538
f 564 565 538
f 538 565 546
f 550 566 540
f 566 567 540
f 540 567 568
f 559 569 555
f 569 570 555
f 555 570 571
f 572 573 574
f 573 575 574
f 572 576 573
f 576 577 573
f 573 577 578
f 578 579 573
f 579 580 573
f 573 580 555
f 580 581 555
f 555 581 553
f 571 582 555
f 582 583 555
f 555 583 584
f 568 585 540
f 585 586 540
f 540 586 587
f 588 589 573
f 589 590 573
f 573 590 575
f 584 591 555
f 591 592 555
f 555 592 593
f 538 594 595
f 596 597 598
f 597 599 598
f 596 600 597
f 600 601 597
f 597 601 602
f 601 603 602
f 602 603 588
f 603 604 588
f 588 604 589
f 593 605 555
f 605 606 555
f 555 606 607
f 608 538 609
f 538 610 609
f 608 611 538
f 611 612 538
f 538 612 594
f 595 613 538
f 613 614 538
f 538 614 560
f 586 615 587
f 615 616 587
f 587 616 599
f 616 617 599
f 599 617 598
f 607 618 555
f 618 619 555
f 555 619 610
f 620 621 555
f 622 623 624
f 620 555 625
f 626 627 622
f 627 628 622
f 629 630 555
f 630 631 555
f 555 631 632
f 632 633 555
f 633 634 555
f 555 634 635
f 636 573 637
f 573 555 637
f 637 555 638
f 555 621 638
f 636 639 573
f 639 640 573
f 573 640 641
f 624 642 622
f 642 643 622
f 622 643 644
f 644 645 622
f 645 646 622
f 622 646 626
f 628 647 622
f 647 648 622
f 622 648 649
f 635 650 555
f 650 651 555
f 555 651 652
f 652 653 555
f 653 654 555
f 555 654 625
f 655 656 657
f 656 658 657
f 658 659 657
f 657 659 660
f 661 662 573
f 662 663 573
f 573 663 664
f 660 665 657
f 665 666 657
f 657 666 622
f 666 667 622
f 622 667 623
f 641 668 573
f 668 669 573
f 573 669 661
f 663 670 664
f 670 671 664
f 664 671 672
f 673 674 675
f 671 676 672
f 676 677 672
f 672 677 674
f 677 678 674
f 674 678 675
f 679 680 657
f 680 681 657
f 681 682 657
f 682 683 657
f 657 683 655
f 675 684 673
f 684 685 673
f 673 685 657
f 685 686 657
f 657 686 679
f 687 688 622
f 688 689 622
f 622 689 690
f 690 691 622
f 691 692 622
f 622 692 693
f 693 694 622
f 694 695 622
f 622 695 657
f 696 697 698
f 699 700 701
f 702 703 704
f 705 706 707
f 708 709 710
f 711 712 713
f 712 714 713
f 713 714 715
f 715 716 713
f 716 717 713
f 713 717 718
f 706 719 707
f 719 720 707
f 707 720 721
f 721 722 707
f 722 723 707
f 707 723 724
f 701 700 709
f 700 725 709
f 709 725 710
f 726 727 728
f 727 729 728
f 730 731 696
f 731 732 696
f 696 732 733
f 724 734 707
f 734 735 707
f 707 735 703
f 735 736 703
f 703 736 704
f 704 737 702
f 737 738 702
f 702 738 701
f 738 739 701
f 701 739 699
f 710 740 708
f 740 741 708
f 708 741 727
f 741 742 727
f 727 742 729
f 726 743 727
f 743 744 727
f 727 744 745
f 746 747 713
f 747 748 713
f 713 748 711
f 698 749 696
f 749 750 696
f 696 750 730
f 745 751 727
f 751 752 727
f 727 752 753
f 696 754 755
f 713 756 757
f 733 758 696
f 758 759 696
f 696 759 760
f 761 762 713
f 762 763 713
f 713 763 764
f 757 765 713
f 765 766 713
f 713 766 746
f 760 767 696
f 767 768 696
f 696 768 769
f 755 770 696
f 770 771 696
f 696 771 707
f 771 772 707
f 707 772 705
f 764 773 713
f 773 774 713
f 713 774 756
f 769 775 696
f 775 776 696
f 696 776 754
f 753 761 727
f 761 713 727
f 727 713 777
f 713 778 777
f 779 780 781
f 780 782 781
f 782 783 781
f 783 784 781
f 781 784 785
f 785 786 781
f 786 787 781
f 781 787 713
f 787 788 713
f 713 788 778
f 789 790 522
f 790 791 522
f 522 791 779
f 789 522 792
f 522 521 792
f 792 521 793
f 794 795 796
f 797 798 799
f 798 800 799
f 799 800 801
f 796 795 802
f 521 803 793
f 803 804 793
f 793 804 805
f 804 806 805
f 805 806 796
f 806 807 796
f 796 807 794
f 795 808 802
f 808 809 802
f 802 809 800
f 809 810 800
f 800 810 801
f 811 812 798
f 812 813 798
f 813 814 798
f 814 815 798
f 798 815 800
f 532 816 530
f 816 817 530
f 530 817 818
f 818 819 530
f 819 820 530
f 530 820 821
f 797 822 798
f 822 823 798
f 798 823 824
f 824 825 798
f 825 826 798
f 798 826 827
f 827 828 798
f 828 829 798
f 798 829 830
f 830 831 798
f 831 832 798
f 798 832 833
f 834 835 836
f 835 837 836
f 833 838 798
f 838 839 798
f 798 839 835
f 839 840 835
f 835 840 841
f 841 842 835
f 842 843 835
f 835 843 837
f 844 845 846
f 847 848 522
f 848 849 522
f 522 849 850
f 850 851 522
f 851 852 522
f 522 852 853
f 853 854 522
f 854 855 522
f 522 855 856
f 834 857 835
f 857 858 835
f 835 858 859
f 860 861 844
f 846 862 844
f 862 863 844
f 844 863 522
f 863 864 522
f 522 864 847
f 856 865 522
f 865 866 522
f 522 866 520
f 861 867 844
f 867 868 844
f 844 868 845
f 869 870 844
f 870 871 844
f 844 871 860
f 859 872 835
f 872 873 835
f 835 873 874
f 835 875 876
f 877 878 844
f 878 879 844
f 844 879 869
f 874 880 835
f 880 881 835
f 835 881 875
f 649 882 622
f 882 696 622
f 622 696 687
f 696 707 687
f 610 538 555
f 538 883 555
f 555 883 629
f 882 884 696
f 884 885 696
f 696 885 886
f 696 887 888
f 889 890 883
f 890 891 883
f 883 891 629
f 718 697 713
f 697 696 713
f 713 696 883
f 696 888 883
f 883 888 889
f 886 892 696
f 892 893 696
f 696 893 887
f 894 525 528
f 525 535 528
f 528 535 526
f 895 896 530
f 897 898 528
f 894 899 900
f 901 902 530
f 902 903 530
f 530 903 528
f 903 904 528
f 898 905 528
f 905 906 528
f 528 906 907
f 908 909 835
f 910 911 530
f 911 912 530
f 530 912 901
f 904 913 528
f 913 914 528
f 528 914 915
f 916 917 835
f 917 918 835
f 835 918 919
f 896 920 530
f 920 921 530
f 530 921 922
f 922 923 530
f 923 924 530
f 530 924 910
f 915 925 528
f 925 926 528
f 528 926 897
f 894 927 928
f 900 929 894
f 929 930 894
f 894 930 931
f 931 932 894
f 932 933 894
f 894 933 934
f 934 908 894
f 908 835 894
f 894 835 844
f 835 876 844
f 844 876 877
f 928 935 894
f 935 936 894
f 894 936 937
f 937 938 894
f 938 939 894
f 894 939 899
f 909 940 835
f 940 941 835
f 835 941 942
f 942 943 835
f 943 944 835
f 835 944 916
f 907 945 528
f 945 946 528
f 528 946 947
f 919 948 835
f 948 949 835
f 835 949 950
f 950 951 835
f 951 952 835
f 835 952 953
f 954 955 530
f 956 957 894
f 957 958 894
f 894 958 927
f 955 959 530
f 959 960 530
f 530 960 895
f 947 961 528
f 961 962 528
f 528 962 894
f 962 963 894
f 894 963 956
f 953 964 835
f 964 965 835
f 835 965 966
f 811 798 821
f 798 835 821
f 821 835 530
f 835 966 530
f 530 966 954
f 967 968 844
f 969 970 713
f 968 971 844
f 971 972 844
f 844 972 973
f 974 975 522
f 975 976 522
f 522 976 844
f 976 977 844
f 844 977 967
f 969 713 978
f 970 979 713
f 979 980 713
f 713 980 981
f 982 983 781
f 983 984 781
f 781 984 985
f 985 986 781
f 986 987 781
f 781 987 988
f 989 990 844
f 990 991 844
f 844 991 992
f 981 993 713
f 993 994 713
f 713 994 781
f 994 995 781
f 781 995 982
f 988 996 781
f 996 997 781
f 781 997 998
f 999 1000 522
f 1000 1001 522
f 973 1002 844
f 1002 1003 844
f 844 1003 989
f 992 1004 844
f 1004 1005 844
f 844 1005 1006
f 1007 1008 713
f 1008 1009 713
f 713 1009 1010
f 998 1011 781
f 1011 1012 781
f 781 1012 1013
f 1013 1014 781
f 1014 1015 781
f 781 1015 1016
f 1017 1018 522
f 1018 1019 522
f 1019 1020 522
f 1020 1021 522
f 522 1021 1022
f 1001 1023 522
f 1023 1024 522
f 522 1024 1025
f 1025 1026 522
f 1026 1027 522
f 522 1027 974
f 523 525 538
f 525 894 538
f 538 894 883
f 894 844 883
f 883 844 713
f 844 1006 713
f 713 1006 1007
f 713 1028 1029
f 779 781 522
f 781 1030 522
f 522 1030 1017
f 1022 1031 522
f 1031 1032 522
f 522 1032 999
f 1010 1033 713
f 1033 1034 713
f 713 1034 1028
f 1029 1035 713
f 1035 1036 713
f 713 1036 978
f 1016 1037 781
f 1037 1038 781
f 781 1038 1030
f 73 709 69
f 709 708 69
f 69 708 70
f 708 727 70
f 70 727 54
f 727 777 54
f 54 777 55
f 777 778 55
f 55 778 57
f 778 788 57
f 57 788 46
f 788 787 46
f 46 787 47
f 787 786 47
f 47 786 48
f 786 785 48
f 48 785 49
f 785 784 49
f 49 784 50
f 784 783 50
f 50 783 51
f 783 782 51
f 51 782 52
f 782 780 52
f 52 780 53
f 780 779 53
f 53 779 44
f 779 791 44
f 44 791 45
f 791 790 45
f 45 790 42
f 790 789 42
f 42 789 41
f 789 792 41
f 41 792 27
f 792 793 27
f 27 793 24
f 793 805 24
f 24 805 37
f 805 796 37
f 37 796 32
f 796 802 32
f 32 802 30
f 802 800 30
f 30 800 17
f 800 815 17
f 17 815 18
f 815 814 18
f 18 814 22
f 814 813 22
f 22 813 23
f 813 812 23
f 23 812 21
f 812 811 21
f 21 811 20
f 811 821 20
f 20 821 19
f 821 820 19
f 19 820 12
f 820 819 12
f 12 819 13
f 819 818 13
f 13 818 14
f 818 817 14
f 14 817 15
f 817 816 15
f 15 816 7
f 816 532 7
f 7 532 8
f 532 531 8
f 8 531 10
f 531 529 10
f 10 529 11
f 529 527 11
f 11 527 4
f 527 526 4
f 4 526 5
f 526 535 5
f 5 535 1
f 535 534 1
f 1 534 2
f 534 533 2
f 2 533 296
f 533 524 296
f 296 524 297
f 524 523 297
f 297 523 298
f 523 539 298
f 298 539 293
f 539 537 293
f 293 537 294
f 537 536 294
f 294 536 295
f 536 540 295
f 295 540 223
f 540 587 223
f 223 587 268
f 587 599 268
f 268 599 271
f 599 597 271
f 271 597 261
f 597 602 261
f 261 602 276
f 602 588 276
f 276 588 267
f 588 573 267
f 267 573 170
f 573 664 170
f 170 664 191
f 664 672 191
f 191 672 192
f 672 674 192
f 192 674 205
f 674 673 205
f 205 673 206
f 673 657 206
f 206 657 139
f 657 695 139
f 139 695 140
f 695 694 140
f 140 694 141
f 694 693 141
f 141 693 142
f 693 692 142
f 142 692 143
f 692 691 143
f 143 691 144
f 691 690 144
f 144 690 145
f 690 689 145
f 145 689 146
f 689 688 146
f 146 688 147
f 688 687 147
f 147 687 137
f 687 707 137
f 137 707 76
f 707 703 76
f 76 703 61
f 703 702 61
f 61 702 60
f 702 701 60
f 60 701 73
f 701 709 73
f 556 218 557
f 218 217 557
f 557 217 558
f 217 216 558
f 558 216 559
f 216 250 559
f 559 250 569
f 250 249 569
f 569 249 570
f 249 248 570
f 570 248 571
f 248 247 571
f 571 247 582
f 247 246 582
f 582 246 583
f 246 245 583
f 583 245 584
f 245 244 584
f 584 244 591
f 244 264 591
f 591 264 592
f 264 263 592
f 592 263 593
f 263 262 593
f 593 262 605
f 262 286 605
f 605 286 606
f 286 285 606
f 606 285 607
f 285 273 607
f 607 273 618
f 273 272 618
f 618 272 619
f 272 292 619
f 619 292 610
f 292 291 610
f 610 291 609
f 291 290 609
f 609 290 608
f 290 284 608
f 608 284 611
f 284 283 611
f 611 283 612
f 283 282 612
f 612 282 594
f 282 281 594
f 594 281 595
f 281 280 595
f 595 280 613
f 280 279 613
f 613 279 614
f 279 258 614
f 614 258 560
f 258 257 560
f 560 257 561
f 257 256 561
f 561 256 562
f 256 238 562
f 562 238 563
f 238 237 563
f 563 237 564
f 237 236 564
f 564 236 565
f 236 229 565
f 565 229 546
f 229 228 546
f 546 228 547
f 228 226 547
f 547 226 548
f 226 225 548
f 548 225 541
f 225 235 541
f 541 235 542
f 235 234 542
f 542 234 543
f 234 233 543
f 543 233 544
f 233 232 544
f 544 232 545
f 232 231 545
f 545 231 551
f 231 230 551
f 551 230 552
f 230 224 552
f 552 224 549
f 224 222 549
f 549 222 550
f 222 221 550
f 550 221 566
f 221 255 566
f 566 255 567
f 255 254 567
f 567 254 568
f 254 243 568
f 568 243 585
f 243 242 585
f 585 242 586
f 242 270 586
f 586 270 615
f 270 269 615
f 615 269 616
f 269 289 616
f 616 289 617
f 289 288 617
f 617 288 598
f 288 287 598
f 598 287 596
f 287 260 596
f 596 260 600
f 260 259 600
f 600 259 601
f 259 278 601
f 601 278 603
f 278 277 603
f 603 277 604
f 277 275 604
f 604 275 589
f 275 274 589
f 589 274 590
f 274 266 590
f 590 266 575
f 266 265 575
f 575 265 574
f 265 241 574
f 574 241 572
f 241 240 572
f 572 240 576
f 240 239 576
f 576 239 577
f 239 215 577
f 577 215 578
f 215 214 578
f 578 214 579
f 214 220 579
f 579 220 580
f 220 253 580
f 580 253 581
f 253 252 581
f 581 252 553
f 252 251 553
f 553 251 554
f 251 219 554
f 554 219 556
f 219 218 556
f 699 74 700
f 74 99 700
f 700 99 725
f 99 98 725
f 725 98 710
f 98 97 710
f 710 97 740
f 97 71 740
f 740 71 741
f 71 108 741
f 741 108 742
f 108 107 742
f 742 107 729
f 107 106 729
f 729 106 728
f 106 90 728
f 728 90 726
f 90 89 726
f 726 89 743
f 89 88 743
f 743 88 744
f 88 87 744
f 744 87 745
f 87 118 745
f 745 118 751
f 118 117 751
f 751 117 752
f 117 114 752
f 752 114 753
f 114 115 753
f 753 115 761
f 115 116 761
f 761 116 762
f 116 131 762
f 762 131 763
f 131 132 763
f 763 132 764
f 132 136 764
f 764 136 773
f 136 135 773
f 773 135 774
f 135 130 774
f 774 130 756
f 130 129 756
f 756 129 757
f 129 128 757
f 757 128 765
f 128 124 765
f 765 124 766
f 124 123 766
f 766 123 746
f 123 122 746
f 746 122 747
f 122 96 747
f 747 96 748
f 96 95 748
f 748 95 711
f 95 94 711
f 711 94 712
f 94 68 712
f 712 68 714
f 68 67 714
f 714 67 715
f 67 66 715
f 715 66 716
f 66 65 716
f 716 65 717
f 65 64 717
f 717 64 718
f 64 63 718
f 718 63 697
f 63 62 697
f 697 62 698
f 62 105 698
f 698 105 749
f 105 104 749
f 749 104 750
f 104 103 750
f 750 103 730
f 103 86 730
f 730 86 731
f 86 85 731
f 731 85 732
f 85 113 732
f 732 113 733
f 113 112 733
f 733 112 758
f 112 102 758
f 758 102 759
f 102 101 759
f 759 101 760
f 101 100 760
f 760 100 767
f 100 134 767
f 767 134 768
f 134 133 768
f 768 133 769
f 133 127 769
f 769 127 775
f 127 126 775
f 775 126 776
f 126 125 776
f 776 125 754
f 125 83 754
f 754 83 755
f 83 82 755
f 755 82 770
f 82 121 770
f 770 121 771
f 121 120 771
f 771 120 772
f 120 119 772
f 772 119 705
f 119 111 705
f 705 111 706
f 111 110 706
f 706 110 719
f 110 109 719
f 719 109 720
f 109 81 720
f 720 81 721
f 81 80 721
f 721 80 722
f 80 79 722
f 722 79 723
f 79 75 723
f 723 75 724
f 75 77 724
f 724 77 734
f 77 78 734
f 734 78 735
f 78 93 735
f 735 93 736
f 93 92 736
f 736 92 704
f 92 91 704
f 704 91 737
f 91 59 737
f 737 59 738
f 59 58 738
f 738 58 739
f 58 72 739
f 739 72 699
f 72 74 699
f 848 328 849
f 328 327 849
f 849 327 850
f 327 326 850
f 850 326 851
f 326 305 851
f 851 305 852
f 305 304 852
f 852 304 853
f 304 303 853
f 853 303 854
f 303 302 854
f 854 302 855
f 302 301 855
f 855 301 856
f 301 325 856
f 856 325 865
f 325 324 865
f 865 324 866
f 324 300 866
f 866 300 520
f 300 299 520
f 520 299 521
f 299 26 521
f 521 26 803
f 26 25 803
f 803 25 804
f 25 39 804
f 804 39 806
f 39 38 806
f 806 38 807
f 38 36 807
f 807 36 794
f 36 35 794
f 794 35 795
f 35 31 795
f 795 31 808
f 31 33 808
f 808 33 809
f 33 34 809
f 809 34 810
f 34 29 810
f 810 29 801
f 29 28 801
f 801 28 799
f 28 323 799
f 799 323 797
f 323 322 797
f 797 322 822
f 322 321 822
f 822 321 823
f 321 320 823
f 823 320 824
f 320 319 824
f 824 319 825
f 319 318 825
f 825 318 826
f 318 317 826
f 826 317 827
f 317 316 827
f 827 316 828
f 316 315 828
f 828 315 829
f 315 314 829
f 829 314 830
f 314 313 830
f 830 313 831
f 313 312 831
f 831 312 832
f 312 309 832
f 832 309 833
f 309 310 833
f 833 310 838
f 310 311 838
f 838 311 839
f 311 307 839
f 839 307 840
f 307 306 840
f 840 306 841
f 306 336 841
f 841 336 842
f 336 335 842
f 842 335 843
f 335 331 843
f 843 331 837
f 331 330 837
f 837 330 836
f 330 329 836
f 836 329 834
f 329 348 834
f 834 348 857
f 348 347 857
f 857 347 858
f 347 346 858
f 858 346 859
f 346 354 859
f 859 354 872
f 354 353 872
f 872 353 873
f 353 352 873
f 873 352 874
f 352 361 874
f 874 361 880
f 361 360 880
f 880 360 881
f 360 356 881
f 881 356 875
f 356 355 875
f 875 355 876
f 355 359 876
f 876 359 877
f 359 358 877
f 877 358 878
f 358 357 878
f 878 357 879
f 357 351 879
f 879 351 869
f 351 350 869
f 869 350 870
f 350 349 870
f 870 349 871
f 349 345 871
f 871 345 860
f 345 344 860
f 860 344 861
f 344 343 861
f 861 343 867
f 343 342 867
f 867 342 868
f 342 341 868
f 868 341 845
f 341 340 845
f 845 340 846
f 340 333 846
f 846 333 862
f 333 332 862
f 862 332 863
f 332 339 863
f 863 339 864
f 339 338 864
f 864 338 847
f 338 337 847
f 847 337 848
f 337 328 848
f 624 160 642
f 160 159 642
f 642 159 643
f 159 158 643
f 643 158 644
f 158 157 644
f 644 157 645
f 157 156 645
f 645 156 646
f 156 155 646
f 646 155 626
f 155 151 626
f 626 151 627
f 151 150 627
f 627 150 628
f 150 149 628
f 628 149 647
f 149 148 647
f 647 148 648
f 148 154 648
f 648 154 649
f 154 153 649
f 649 153 882
f 153 152 882
f 882 152 884
f 152 368 884
f 884 368 885
f 368 369 885
f 885 369 886
f 369 374 886
f 886 374 892
f 374 373 892
f 892 373 893
f 373 372 893
f 893 372 887
f 372 371 887
f 887 371 888
f 371 370 888
f 888 370 889
f 370 367 889
f 889 367 890
f 367 366 890
f 890 366 891
f 366 365 891
f 891 365 629
f 365 363 629
f 629 363 630
f 363 362 630
f 630 362 631
f 362 175 631
f 631 175 632
f 175 174 632
f 632 174 633
f 174 173 633
f 633 173 634
f 173 162 634
f 634 162 635
f 162 161 635
f 635 161 650
f 161 184 650
f 650 184 651
f 184 183 651
f 651 183 652
f 183 182 652
f 652 182 653
f 182 181 653
f 653 181 654
f 181 180 654
f 654 180 625
f 180 167 625
f 625 167 620
f 167 166 620
f 620 166 621
f 166 165 621
f 621 165 638
f 165 164 638
f 638 164 637
f 164 172 637
f 637 172 636
f 172 171 636
f 636 171 639
f 171 169 639
f 639 169 640
f 169 168 640
f 640 168 641
f 168 201 641
f 641 201 668
f 201 200 668
f 668 200 669
f 200 196 669
f 669 196 661
f 196 195 661
f 661 195 662
f 195 194 662
f 662 194 663
f 194 199 663
f 663 199 670
f 199 198 670
f 670 198 671
f 198 197 671
f 671 197 676
f 197 193 676
f 676 193 677
f 193 213 677
f 677 213 678
f 213 212 678
f 678 212 675
f 212 211 675
f 675 211 684
f 211 207 684
f 684 207 685
f 207 210 685
f 685 210 686
f 210 209 686
f 686 209 679
f 209 208 679
f 679 208 680
f 208 204 680
f 680 204 681
f 204 203 681
f 681 203 682
f 203 202 682
f 682 202 683
f 202 190 683
f 683 190 655
f 190 189 655
f 655 189 656
f 189 188 656
f 656 188 658
f 188 179 658
f 658 179 659
f 179 178 659
f 659 178 660
f 178 177 660
f 660 177 665
f 177 176 665
f 665 176 666
f 176 187 666
f 666 187 667
f 187 186 667
f 667 186 623
f 186 185 623
f 623 185 624
f 185 160 624
f 908 447 909
f 447 450 909
f 909 450 940
f 450 485 940
f 940 485 941
f 485 484 941
f 941 484 942
f 484 483 942
f 942 483 943
f 483 482 943
f 943 482 944
f 482 481 944
f 944 481 916
f 481 473 916
f 916 473 917
f 473 472 917
f 917 472 918
f 472 471 918
f 918 471 919
f 471 492 919
f 919 492 948
f 492 491 948
f 948 491 949
f 491 480 949
f 949 480 950
f 480 479 950
f 950 479 951
f 479 478 951
f 951 478 952
f 478 477 952
f 952 477 953
f 477 508 953
f 953 508 964
f 508 507 964
f 964 507 965
f 507 506 965
f 965 506 966
f 506 519 966
f 966 519 954
f 519 518 954
f 954 518 955
f 518 517 955
f 955 517 959
f 517 505 959
f 959 505 960
f 505 504 960
f 960 504 895
f 504 503 895
f 895 503 896
f 503 476 896
f 896 476 920
f 476 475 920
f 920 475 921
f 475 474 921
f 921 474 922
f 474 470 922
f 922 470 923
f 470 469 923
f 923 469 924
f 469 468 924
f 924 468 910
f 468 456 910
f 910 456 911
f 456 455 911
f 911 455 912
f 455 454 912
f 912 454 901
f 454 453 901
f 901 453 902
f 453 490 902
f 902 490 903
f 490 489 903
f 903 489 904
f 489 488 904
f 904 488 913
f 488 487 913
f 913 487 914
f 487 486 914
f 914 486 915
f 486 502 915
f 915 502 925
f 502 501 925
f 925 501 926
f 501 467 926
f 926 467 897
f 467 466 897
f 897 466 898
f 466 465 898
f 898 465 905
f 465 464 905
f 905 464 906
f 464 463 906
f 906 463 907
f 463 462 907
f 907 462 945
f 462 510 945
f 945 510 946
f 510 509 946
f 946 509 947
f 509 500 947
f 947 500 961
f 500 499 961
f 961 499 962
f 499 516 962
f 962 516 963
f 516 515 963
f 963 515 956
f 515 514 956
f 956 514 957
f 514 513 957
f 957 513 958
f 513 512 958
f 958 512 927
f 512 511 927
f 927 511 928
f 511 498 928
f 928 498 935
f 498 497 935
f 935 497 936
f 497 496 936
f 936 496 937
f 496 495 937
f 937 495 938
f 495 494 938
f 938 494 939
f 494 493 939
f 939 493 899
f 493 452 899
f 899 452 900
f 452 451 900
f 900 451 929
f 451 461 929
f 929 461 930
f 461 460 930
f 930 460 931
f 460 459 931
f 931 459 932
f 459 458 932
f 932 458 933
f 458 457 933
f 933 457 934
f 457 448 934
f 934 448 908
f 448 447 908
f 982 375 983
f 375 398 983
f 983 398 984
f 398 397 984
f 984 397 985
f 397 396 985
f 985 396 986
f 396 395 986
f 986 395 987
f 395 394 987
f 987 394 988
f 394 393 988
f 988 393 996
f 393 411 996
f 996 411 997
f 411 410 997
f 997 410 998
f 410 409 998
f 998 409 1011
f 409 433 1011
f 1011 433 1012
f 433 432 1012
f 1012 432 1013
f 432 383 1013
f 1013 383 1014
f 383 382 1014
f 1014 382 1015
f 382 431 1015
f 1015 431 1016
f 431 430 1016
f 1016 430 1037
f 430 429 1037
f 1037 429 1038
f 429 446 1038
f 1038 446 1030
f 446 445 1030
f 1030 445 1017
f 445 444 1017
f 1017 444 1018
f 444 428 1018
f 1018 428 1019
f 428 427 1019
f 1019 427 1020
f 427 426 1020
f 1020 426 1021
f 426 425 1021
f 1021 425 1022
f 425 440 1022
f 1022 440 1031
f 440 439 1031
f 1031 439 1032
f 439 424 1032
f 1032 424 999
f 424 423 999
f 999 423 1000
f 423 422 1000
f 1000 422 1001
f 422 421 1001
f 1001 421 1023
f 421 420 1023
f 1023 420 1024
f 420 419 1024
f 1024 419 1025
f 419 418 1025
f 1025 418 1026
f 418 417 1026
f 1026 417 1027
f 417 416 1027
f 1027 416 974
f 416 381 974
f 974 381 975
f 381 380 975
f 975 380 976
f 380 392 976
f 976 392 977
f 392 391 977
f 977 391 967
f 391 390 967
f 967 390 968
f 390 378 968
f 968 378 971
f 378 377 971
f 971 377 972
f 377 379 972
f 972 379 973
f 379 415 973
f 973 415 1002
f 415 414 1002
f 1002 414 1003
f 414 408 1003
f 1003 408 989
f 408 407 989
f 989 407 990
f 407 406 990
f 990 406 991
f 406 405 991
f 991 405 992
f 405 404 992
f 992 404 1004
f 404 403 1004
f 1004 403 1005
f 403 402 1005
f 1005 402 1006
f 402 443 1006
f 1006 443 1007
f 443 442 1007
f 1007 442 1008
f 442 441 1008
f 1008 441 1009
f 441 438 1009
f 1009 438 1010
f 438 437 1010
f 1010 437 1033
f 437 436 1033
f 1033 436 1034
f 436 413 1034
f 1034 413 1028
f 413 412 1028
f 1028 412 1029
f 412 435 1029
f 1029 435 1035
f 435 434 1035
f 1035 434 1036
f 434 401 1036
f 1036 401 978
f 401 400 978
f 978 400 969
f 400 399 969
f 969 399 970
f 399 389 970
f 970 389 979
f 389 388 979
f 979 388 980
f 388 387 980
f 980 387 981
f 387 386 981
f 981 386 993
f 386 385 993
f 993 385 994
f 385 384 994
f 994 384 995
f 384 376 995
f 995 376 982
f 376 375 982

