# https://github.com/mikedh/trimesh

o tm26_251_p10_p_3180t381_tight_tolerance_high_strength_17_4_ph_stainless_steel_rod.stl
v 0.22540005 0.01096472 0.00948630
v 0.22540005 0.01130541 0.00941077
v 0.22540003 0.00801522 0.01369862
v 0.22540005 0.01165138 0.00936522
v 0.22540006 0.01200000 0.00935000
v 0.22540006 0.01303528 0.01721370
v 0.22540006 0.01269459 0.01728923
v 0.22540008 0.01598478 0.01300138
v 0.22540006 0.01234862 0.01733478
v 0.22540006 0.01200000 0.01735000
v 0.22540005 0.01165138 0.01733478
v 0.22540005 0.01130541 0.01728923
v 0.22540005 0.01096472 0.01721370
v 0.22540006 0.01234862 0.00936522
v 0.22540006 0.01269459 0.00941077
v 0.22540006 0.01303528 0.00948630
v 0.22540005 0.01000000 0.00988590
v 0.22540005 0.01030953 0.00972477
v 0.22540005 0.01063192 0.00959123
v 0.22540006 0.01400000 0.01681410
v 0.22540006 0.01369047 0.01697523
v 0.22540006 0.01336808 0.01710877
v 0.22540005 0.01063192 0.01710877
v 0.22540005 0.01030953 0.01697523
v 0.22540005 0.01000000 0.01681410
v 0.22540006 0.01336808 0.00959123
v 0.22540006 0.01369047 0.00972477
v 0.22540006 0.01400000 0.00988590
v 0.22540005 0.00917157 0.01052157
v 0.22540005 0.00942885 0.01028582
v 0.22540005 0.00970569 0.01007339
v 0.22540006 0.01482843 0.01617843
v 0.22540006 0.01457115 0.01641418
v 0.22540006 0.01429431 0.01662661
v 0.22540005 0.00970569 0.01662661
v 0.22540005 0.00942885 0.01641418
v 0.22540005 0.00917157 0.01617843
v 0.22540006 0.01429431 0.01007339
v 0.22540006 0.01457115 0.01028582
v 0.22540006 0.01482843 0.01052157
v 0.22540005 0.00853590 0.01135000
v 0.22540005 0.00872339 0.01105569
v 0.22540005 0.00893582 0.01077885
v 0.22540008 0.01546410 0.01535000
v 0.22540008 0.01527661 0.01564431
v 0.22540006 0.01506418 0.01592115
v 0.22540005 0.00893582 0.01592115
v 0.22540005 0.00872339 0.01564431
v 0.22540005 0.00853590 0.01535000
v 0.22540006 0.01506418 0.01077885
v 0.22540008 0.01527661 0.01105569
v 0.22540008 0.01546410 0.01135000
v 0.22540003 0.00813630 0.01231472
v 0.22540003 0.00824123 0.01198192
v 0.22540003 0.00837477 0.01165953
v 0.22540008 0.01586370 0.01438528
v 0.22540008 0.01575877 0.01471808
v 0.22540008 0.01562523 0.01504047
v 0.22540003 0.00837477 0.01504047
v 0.22540003 0.00824123 0.01471808
v 0.22540003 0.00813630 0.01438528
v 0.22540008 0.01562523 0.01165953
v 0.22540008 0.01575877 0.01198192
v 0.22540008 0.01586370 0.01231472
v 0.22540003 0.00806077 0.01404459
v 0.22540008 0.01593923 0.01265541
v 0.22540003 0.00800000 0.01335000
v 0.22540003 0.00801522 0.01300138
v 0.22540003 0.00806077 0.01265541
v 0.22540008 0.01593923 0.01404459
v 0.22540008 0.01600000 0.01335000
v 0.22540008 0.01598478 0.01369862
v 0.00524693 0.01009337 0.01340048
v 0.00522888 0.01000000 0.00988590
v 0.00526819 0.01018607 0.00978494
v 0.00561970 0.01100487 0.01336026
v 0.00559455 0.01096472 0.00948630
v 0.00564554 0.01104458 0.00946578
v 0.00588925 0.01135990 0.01335874
v 0.00584171 0.01130541 0.00941077
v 0.00593820 0.01141312 0.00939329
v 0.01022852 0.00800381 0.01352462
v 0.01023606 0.00801522 0.01369862
v 0.01031117 0.00813630 0.01334999
v 0.01024849 0.00803431 0.01387281
v 0.01026534 0.00806077 0.01404459
v 0.01031299 0.00813941 0.01230316
v 0.01031117 0.00813630 0.01231471
v 0.01028641 0.00809482 0.01248421
v 0.01026534 0.00806077 0.01265541
v 0.01024846 0.00803427 0.01282750
v 0.01023606 0.00801522 0.01300138
v 0.01022854 0.00800384 0.01317476
v 0.01022599 0.00800000 0.01335000
v 0.01038226 0.00826566 0.01355936
v 0.01042191 0.00834581 0.01172307
v 0.01036952 0.00824123 0.01198192
v 0.01031117 0.00813630 0.01438528
v 0.01034009 0.00818696 0.01455860
v 0.01028647 0.00809492 0.01421624
v 0.01034002 0.00818683 0.01214179
v 0.01051445 0.00856473 0.01130087
v 0.01050352 0.00853590 0.01135000
v 0.01050903 0.00855030 0.01337456
v 0.01042191 0.00834581 0.01497693
v 0.01043545 0.00837477 0.01504047
v 0.01036952 0.00824123 0.01471808
v 0.01043545 0.00837477 0.01165953
v 0.01050352 0.00853590 0.01535000
v 0.01051445 0.00856473 0.01539913
v 0.01057785 0.00875601 0.01339531
v 0.01056813 0.00872339 0.01105569
v 0.01058716 0.00878875 0.01096508
v 0.01056813 0.00872339 0.01564431
v 0.01058716 0.00878875 0.01573492
v 0.01063238 0.00897693 0.01330247
v 0.01062369 0.00893582 0.01077885
v 0.01064044 0.00901817 0.01068379
v 0.01062369 0.00893582 0.01592115
v 0.01064044 0.00901817 0.01601621
v 0.01066961 0.00921140 0.01338877
v 0.01066474 0.00917157 0.01052157
v 0.01067389 0.00925130 0.01044403
v 0.01066474 0.00917157 0.01617843
v 0.01067389 0.00925130 0.01625597
v 0.01068672 0.00945764 0.01332629
v 0.01068586 0.00942885 0.01028582
v 0.01068727 0.00948645 0.01023840
v 0.01068048 0.00972187 0.01006212
v 0.01068160 0.00970571 0.01007338
v 0.01068106 0.00971369 0.01335556
v 0.01068726 0.00948566 0.01646096
v 0.01068666 0.00959450 0.01654587
v 0.01068586 0.00942885 0.01641418
v 0.01068666 0.00959479 0.01015391
v 0.01068160 0.00970569 0.01662661
v 0.01068050 0.00972167 0.01663774
v 0.01066227 0.00989697 0.01338646
v 0.01066968 0.00983791 0.00998468
v 0.01065365 0.00995536 0.00991206
v 0.01066966 0.00983809 0.01671543
v 0.01065358 0.00995585 0.01678823
v 0.01062809 0.01009368 0.01329937
v 0.01064620 0.01000000 0.00988590
v 0.01060674 0.01018667 0.00978463
v 0.01064620 0.01000000 0.01681410
v 0.01060674 0.01018667 0.01691537
v 0.01055730 0.01036125 0.01332684
v 0.01057325 0.01030953 0.00972477
v 0.01054034 0.01041264 0.00967845
v 0.01057325 0.01030953 0.01697523
v 0.01054034 0.01041264 0.01702155
v 0.01047805 0.01057773 0.01332922
v 0.01050014 0.01052277 0.00963277
v 0.01045483 0.01063210 0.00959116
v 0.01050010 0.01052287 0.01706727
v 0.01045491 0.01063192 0.01710877
v 0.01037869 0.01079118 0.01336666
v 0.01040538 0.01073834 0.00955418
v 0.01035087 0.01084343 0.00952085
v 0.01040530 0.01073851 0.01714587
v 0.01035087 0.01084343 0.01717914
v 0.01025521 0.01100513 0.01336032
v 0.01028053 0.01096472 0.00948630
v 0.01022920 0.01104510 0.00946565
v 0.01028053 0.01096472 0.01721370
v 0.01022920 0.01104510 0.01723435
v 0.01012685 0.01118913 0.01335971
v 0.01016197 0.01114189 0.00944313
v 0.01009083 0.01123548 0.00942374
v 0.01016235 0.01114136 0.01725676
v 0.01009072 0.01123561 0.01727629
v 0.00998563 0.01136013 0.01334123
v 0.01003338 0.01130541 0.00941077
v 0.00993645 0.01141358 0.00939322
v 0.01003338 0.01130541 0.01728923
v 0.00993645 0.01141358 0.01730678
v 0.00981108 0.01153801 0.01334533
v 0.00985393 0.01149726 0.00938172
v 0.00976752 0.01157769 0.00937236
v 0.00985378 0.01149741 0.01731830
v 0.00976752 0.01157769 0.01732764
v 0.00963368 0.01168960 0.01335294
v 0.00968135 0.01165138 0.00936522
v 0.00958516 0.01172675 0.00935934
v 0.00968135 0.01165138 0.01733478
v 0.00958516 0.01172675 0.01734066
v 0.00944032 0.01182804 0.01335139
v 0.00948922 0.01179538 0.00935524
v 0.00939072 0.01185965 0.00935246
v 0.00948955 0.01179515 0.01734475
v 0.00939072 0.01185965 0.01734754
v 0.00918562 0.01197543 0.01734992
v 0.00918562 0.01197543 0.00935008
v 0.00913260 0.01200173 0.00935000
v 0.00913260 0.01200173 0.01735000
v 0.00897137 0.01207324 0.00935067
v 0.00897137 0.01207324 0.01734933
v 0.00874953 0.01215235 0.01734710
v 0.00874953 0.01215235 0.00935290
v 0.00852173 0.01221220 0.01734437
v 0.00852173 0.01221220 0.00935563
v 0.00828965 0.01225233 0.01734203
v 0.00828965 0.01225233 0.00935797
v 0.00805499 0.01227245 0.01734071
v 0.00805499 0.01227245 0.00935929
v 0.00781947 0.01227243 0.01734071
v 0.00781947 0.01227243 0.00935929
v 0.00758481 0.01225225 0.01734204
v 0.00758481 0.01225225 0.00935796
v 0.00735274 0.01221206 0.01734437
v 0.00735274 0.01221206 0.00935563
v 0.00712496 0.01215217 0.01734710
v 0.00712496 0.01215217 0.00935290
v 0.00690314 0.01207300 0.01734933
v 0.00690314 0.01207300 0.00935067
v 0.00674252 0.01200174 0.00935000
v 0.00674252 0.01200174 0.01735000
v 0.00668891 0.01197515 0.00935008
v 0.00628942 0.01172637 0.01734063
v 0.00643430 0.01182774 0.01335139
v 0.00638526 0.01179497 0.01734474
v 0.00648383 0.01185932 0.01734753
v 0.00668891 0.01197515 0.01734992
v 0.00648383 0.01185932 0.00935247
v 0.00619373 0.01165138 0.01733478
v 0.00610710 0.01157727 0.01732760
v 0.00624116 0.01168940 0.01335293
v 0.00628942 0.01172637 0.00935937
v 0.00638546 0.01179511 0.00935525
v 0.00602062 0.01149674 0.01731822
v 0.00593820 0.01141312 0.01730671
v 0.00606350 0.01153754 0.01335468
v 0.00610710 0.01157727 0.00937240
v 0.00619373 0.01165138 0.00936522
v 0.00584171 0.01130541 0.01728923
v 0.00578387 0.01123499 0.01727616
v 0.00602076 0.01149688 0.00938177
v 0.00578397 0.01123512 0.00942381
v 0.00574784 0.01118860 0.01334028
v 0.00571270 0.01114132 0.01725675
v 0.00564554 0.01104458 0.01723422
v 0.00559455 0.01096472 0.01721370
v 0.00552392 0.01084288 0.01717898
v 0.00571276 0.01114139 0.00944324
v 0.00552392 0.01084288 0.00952102
v 0.00549612 0.01079065 0.01333333
v 0.00546946 0.01073783 0.01714565
v 0.00542017 0.01063192 0.01710877
v 0.00537470 0.01052212 0.01706697
v 0.00533455 0.01041205 0.01702130
v 0.00539688 0.01057736 0.01337086
v 0.00542000 0.01063152 0.00959137
v 0.00546954 0.01073801 0.00955429
v 0.00530183 0.01030953 0.01697523
v 0.00526819 0.01018607 0.01691506
v 0.00531769 0.01036095 0.01337303
v 0.00533455 0.01041205 0.00967870
v 0.00537477 0.01052231 0.00963295
v 0.00522888 0.01000000 0.01681410
v 0.00522133 0.00995473 0.01678757
v 0.00530183 0.01030953 0.00972477
v 0.00522141 0.00995524 0.00991213
v 0.00521272 0.00989627 0.01331347
v 0.00520532 0.00983713 0.01671482
v 0.00519456 0.00972125 0.01663744
v 0.00519349 0.00970570 0.01662662
v 0.00519401 0.00971338 0.01334465
v 0.00519454 0.00972106 0.01006269
v 0.00520535 0.00983739 0.00998502
v 0.00518783 0.00948504 0.01023954
v 0.00518841 0.00959405 0.01015447
v 0.00519349 0.00970569 0.01007339
v 0.00518843 0.00959463 0.01654596
v 0.00518782 0.00948582 0.01646109
v 0.00518837 0.00945733 0.01337346
v 0.00518922 0.00942885 0.01028582
v 0.00520126 0.00925068 0.01044462
v 0.00518922 0.00942885 0.01641418
v 0.00520126 0.00925068 0.01625538
v 0.00520551 0.00921109 0.01338848
v 0.00521034 0.00917157 0.01052157
v 0.00523476 0.00901755 0.01068448
v 0.00521034 0.00917157 0.01617843
v 0.00523476 0.00901755 0.01601552
v 0.00524277 0.00897662 0.01330282
v 0.00525139 0.00893582 0.01077885
v 0.00528809 0.00878815 0.01096589
v 0.00525139 0.00893582 0.01592115
v 0.00528809 0.00878815 0.01573411
v 0.00529733 0.00875571 0.01339490
v 0.00530696 0.00872339 0.01105569
v 0.00536085 0.00856414 0.01130186
v 0.00545345 0.00834522 0.01172441
v 0.00543963 0.00837477 0.01165953
v 0.00536617 0.00855001 0.01337407
v 0.00536085 0.00856414 0.01539814
v 0.00537156 0.00853590 0.01535000
v 0.00530696 0.00872339 0.01564431
v 0.00537156 0.00853590 0.01135000
v 0.00545345 0.00834522 0.01497559
v 0.00550556 0.00824123 0.01471808
v 0.00549301 0.00826530 0.01314111
v 0.00553513 0.00818671 0.01455780
v 0.00556241 0.00813887 0.01439485
v 0.00543963 0.00837477 0.01504047
v 0.00550556 0.00824123 0.01198192
v 0.00553524 0.00818652 0.01214278
v 0.00558867 0.00809482 0.01248423
v 0.00556392 0.00813630 0.01231472
v 0.00556392 0.00813630 0.01335001
v 0.00560975 0.00806077 0.01265541
v 0.00564654 0.00800384 0.01317477
v 0.00563903 0.00801522 0.01300138
v 0.00562663 0.00803427 0.01282751
v 0.00556391 0.00813630 0.01438529
v 0.00558869 0.00809480 0.01421567
v 0.00560975 0.00806077 0.01404459
v 0.00562664 0.00803426 0.01387238
v 0.00563903 0.00801522 0.01369862
v 0.00564655 0.00800383 0.01352511
v 0.00564910 0.00800000 0.01335000
v 0.02112194 0.01009338 0.01340048
v 0.02110389 0.01000000 0.00988590
v 0.02114321 0.01018608 0.00978494
v 0.02149474 0.01100486 0.01336026
v 0.02146960 0.01096472 0.00948630
v 0.02152058 0.01104456 0.00946578
v 0.02176430 0.01135988 0.01335874
v 0.02171677 0.01130541 0.00941077
v 0.02181324 0.01141309 0.00939329
v 0.02610357 0.00800381 0.01352462
v 0.02611111 0.00801522 0.01369862
v 0.02618621 0.00813630 0.01334999
v 0.02612353 0.00803431 0.01387281
v 0.02614038 0.00806077 0.01404459
v 0.02618803 0.00813941 0.01230316
v 0.02618621 0.00813630 0.01231471
v 0.02616146 0.00809482 0.01248421
v 0.02614038 0.00806077 0.01265541
v 0.02612351 0.00803427 0.01282750
v 0.02611111 0.00801522 0.01300138
v 0.02610359 0.00800384 0.01317476
v 0.02610104 0.00800000 0.01335000
v 0.02625730 0.00826566 0.01355936
v 0.02629695 0.00834581 0.01172307
v 0.02624456 0.00824123 0.01198192
v 0.02618621 0.00813630 0.01438528
v 0.02621513 0.00818696 0.01455860
v 0.02616152 0.00809492 0.01421624
v 0.02621506 0.00818683 0.01214179
v 0.02638948 0.00856473 0.01130088
v 0.02637855 0.00853590 0.01135000
v 0.02638405 0.00855030 0.01337456
v 0.02629695 0.00834581 0.01497693
v 0.02631048 0.00837477 0.01504047
v 0.02624456 0.00824123 0.01471808
v 0.02631048 0.00837477 0.01165953
v 0.02637855 0.00853590 0.01535000
v 0.02638948 0.00856473 0.01539912
v 0.02645287 0.00875601 0.01339531
v 0.02644315 0.00872339 0.01105569
v 0.02646218 0.00878874 0.01096508
v 0.02644315 0.00872339 0.01564431
v 0.02646218 0.00878874 0.01573492
v 0.02650740 0.00897693 0.01339753
v 0.02649871 0.00893582 0.01077885
v 0.02651545 0.00901816 0.01068380
v 0.02649871 0.00893582 0.01592115
v 0.02651545 0.00901816 0.01601620
v 0.02654462 0.00921140 0.01338877
v 0.02653975 0.00917157 0.01052157
v 0.02654890 0.00925129 0.01044404
v 0.02653975 0.00917157 0.01617843
v 0.02654890 0.00925129 0.01625596
v 0.02656172 0.00945764 0.01332629
v 0.02656087 0.00942885 0.01028582
v 0.02656227 0.00948643 0.01023841
v 0.02655548 0.00972185 0.01006214
v 0.02655659 0.00970571 0.01007338
v 0.02655605 0.00971368 0.01335556
v 0.02656226 0.00948565 0.01646095
v 0.02656166 0.00959450 0.01654587
v 0.02656087 0.00942885 0.01641418
v 0.02656166 0.00959479 0.01015392
v 0.02655659 0.00970569 0.01662661
v 0.02655549 0.00972166 0.01663773
v 0.02653726 0.00989695 0.01338646
v 0.02654467 0.00983789 0.00998469
v 0.02652865 0.00995534 0.00991207
v 0.02654465 0.00983807 0.01671542
v 0.02652857 0.00995583 0.01678822
v 0.02650308 0.01009367 0.01329937
v 0.02652119 0.01000000 0.00988590
v 0.02648173 0.01018665 0.00978465
v 0.02652119 0.01000000 0.01681410
v 0.02648173 0.01018665 0.01691535
v 0.02643228 0.01036123 0.01332685
v 0.02644823 0.01030953 0.00972477
v 0.02641532 0.01041261 0.00967846
v 0.02644823 0.01030953 0.01697523
v 0.02641532 0.01041261 0.01702154
v 0.02635304 0.01057770 0.01332922
v 0.02637511 0.01052275 0.00963278
v 0.02632982 0.01063206 0.00959118
v 0.02637508 0.01052285 0.01706726
v 0.02632988 0.01063192 0.01710877
v 0.02625367 0.01079114 0.01336666
v 0.02628036 0.01073830 0.00955420
v 0.02622585 0.01084339 0.00952087
v 0.02628028 0.01073847 0.01714586
v 0.02622585 0.01084339 0.01717913
v 0.02613018 0.01100511 0.01336032
v 0.02615549 0.01096472 0.00948630
v 0.02610418 0.01104505 0.00946566
v 0.02615549 0.01096472 0.01721370
v 0.02610418 0.01104505 0.01723434
v 0.02600183 0.01118908 0.01335971
v 0.02603695 0.01114184 0.00944314
v 0.02596581 0.01123543 0.00942375
v 0.02603733 0.01114132 0.01725675
v 0.02596571 0.01123556 0.01727627
v 0.02586059 0.01136010 0.01334123
v 0.02590832 0.01130541 0.00941077
v 0.02581144 0.01141352 0.00939323
v 0.02590832 0.01130541 0.01728923
v 0.02581144 0.01141352 0.01730677
v 0.02568607 0.01153795 0.01334533
v 0.02572892 0.01149720 0.00938173
v 0.02564251 0.01157763 0.00937236
v 0.02572877 0.01149735 0.01731829
v 0.02564251 0.01157763 0.01732764
v 0.02550863 0.01168956 0.01335294
v 0.02555626 0.01165138 0.00936522
v 0.02546015 0.01172668 0.00935935
v 0.02555626 0.01165138 0.01733478
v 0.02546015 0.01172668 0.01734065
v 0.02531531 0.01182798 0.01335139
v 0.02536421 0.01179532 0.00935524
v 0.02526571 0.01185959 0.00935247
v 0.02536454 0.01179509 0.01734475
v 0.02526571 0.01185959 0.01734754
v 0.02506062 0.01197536 0.01734992
v 0.02506062 0.01197536 0.00935008
v 0.02500744 0.01200173 0.00935000
v 0.02500744 0.01200173 0.01735000
v 0.02484637 0.01207317 0.00935067
v 0.02484637 0.01207317 0.01734933
v 0.02462453 0.01215228 0.01734710
v 0.02462453 0.01215228 0.00935290
v 0.02439674 0.01221212 0.01734437
v 0.02439674 0.01221212 0.00935563
v 0.02416467 0.01225226 0.01734204
v 0.02416467 0.01225226 0.00935796
v 0.02393001 0.01227238 0.01734072
v 0.02393001 0.01227238 0.00935929
v 0.02369449 0.01227236 0.01734072
v 0.02369449 0.01227236 0.00935928
v 0.02345983 0.01225218 0.01734204
v 0.02345983 0.01225218 0.00935796
v 0.02322777 0.01221200 0.01734438
v 0.02322777 0.01221200 0.00935562
v 0.02299999 0.01215211 0.01734711
v 0.02299999 0.01215211 0.00935289
v 0.02277817 0.01207295 0.01734933
v 0.02277817 0.01207295 0.00935066
v 0.02261767 0.01200174 0.00935000
v 0.02261767 0.01200174 0.01735000
v 0.02256394 0.01197510 0.00935008
v 0.02216446 0.01172633 0.01734063
v 0.02230934 0.01182769 0.01335139
v 0.02226030 0.01179492 0.01734474
v 0.02235887 0.01185927 0.01734752
v 0.02256394 0.01197510 0.01734992
v 0.02235887 0.01185927 0.00935248
v 0.02206882 0.01165138 0.01733478
v 0.02198214 0.01157724 0.01732760
v 0.02211623 0.01168938 0.01335292
v 0.02216446 0.01172633 0.00935937
v 0.02226050 0.01179506 0.00935525
v 0.02189565 0.01149671 0.01731821
v 0.02181324 0.01141309 0.01730671
v 0.02193854 0.01153751 0.01335468
v 0.02198214 0.01157724 0.00937240
v 0.02206882 0.01165138 0.00936522
v 0.02171677 0.01130541 0.01728923
v 0.02165890 0.01123497 0.01727616
v 0.02189580 0.01149685 0.00938177
v 0.02165901 0.01123510 0.00942382
v 0.02162287 0.01118858 0.01334028
v 0.02158774 0.01114130 0.01725674
v 0.02152058 0.01104456 0.01723422
v 0.02146960 0.01096472 0.01721370
v 0.02139895 0.01084287 0.01717898
v 0.02158780 0.01114137 0.00944324
v 0.02139895 0.01084287 0.00952102
v 0.02137115 0.01079064 0.01333333
v 0.02134449 0.01073783 0.01714564
v 0.02129520 0.01063192 0.01710877
v 0.02124972 0.01052212 0.01706697
v 0.02120957 0.01041205 0.01702130
v 0.02127191 0.01057736 0.01337086
v 0.02129503 0.01063152 0.00959137
v 0.02134458 0.01073801 0.00955430
v 0.02117685 0.01030953 0.01697523
v 0.02114321 0.01018608 0.01691506
v 0.02119271 0.01036095 0.01337303
v 0.02120957 0.01041205 0.00967870
v 0.02124980 0.01052231 0.00963295
v 0.02110389 0.01000000 0.01681410
v 0.02109635 0.00995475 0.01678758
v 0.02117685 0.01030953 0.00972477
v 0.02109643 0.00995525 0.00991212
v 0.02108774 0.00989628 0.01331348
v 0.02108033 0.00983714 0.01671483
v 0.02106956 0.00972127 0.01663746
v 0.02106849 0.00970570 0.01662662
v 0.02106901 0.00971339 0.01334465
v 0.02106955 0.00972108 0.01006267
v 0.02108036 0.00983740 0.00998501
v 0.02106283 0.00948506 0.01023952
v 0.02106341 0.00959406 0.01015446
v 0.02106849 0.00970569 0.01007339
v 0.02106343 0.00959464 0.01654597
v 0.02106282 0.00948584 0.01646111
v 0.02106337 0.00945734 0.01337347
v 0.02106422 0.00942885 0.01028582
v 0.02107625 0.00925071 0.01044459
v 0.02106422 0.00942885 0.01641418
v 0.02107625 0.00925071 0.01625541
v 0.02108050 0.00921111 0.01331151
v 0.02108533 0.00917157 0.01052157
v 0.02110974 0.00901758 0.01068445
v 0.02108533 0.00917157 0.01617843
v 0.02110974 0.00901758 0.01601555
v 0.02111775 0.00897664 0.01330280
v 0.02112637 0.00893582 0.01077885
v 0.02116306 0.00878818 0.01096585
v 0.02112637 0.00893582 0.01592115
v 0.02116306 0.00878818 0.01573415
v 0.02117230 0.00875573 0.01339492
v 0.02118194 0.00872339 0.01105569
v 0.02123582 0.00856418 0.01130180
v 0.02132840 0.00834525 0.01172433
v 0.02131460 0.00837477 0.01165953
v 0.02124114 0.00855002 0.01337410
v 0.02123582 0.00856418 0.01539820
v 0.02124654 0.00853590 0.01535000
v 0.02118194 0.00872339 0.01564431
v 0.02124654 0.00853590 0.01135000
v 0.02132840 0.00834525 0.01497567
v 0.02138053 0.00824123 0.01471808
v 0.02136796 0.00826532 0.01314110
v 0.02141009 0.00818672 0.01455786
v 0.02143735 0.00813891 0.01439496
v 0.02131460 0.00837477 0.01504047
v 0.02138053 0.00824123 0.01198192
v 0.02141019 0.00818654 0.01214273
v 0.02146363 0.00809482 0.01248423
v 0.02143887 0.00813630 0.01231472
v 0.02143887 0.00813630 0.01335001
v 0.02148470 0.00806077 0.01265541
v 0.02152150 0.00800384 0.01317477
v 0.02151398 0.00801522 0.01300138
v 0.02150158 0.00803427 0.01282751
v 0.02143887 0.00813630 0.01438529
v 0.02146364 0.00809480 0.01421567
v 0.02148470 0.00806077 0.01404459
v 0.02150159 0.00803426 0.01387238
v 0.02151398 0.00801522 0.01369862
v 0.02152150 0.00800383 0.01352511
v 0.02152405 0.00800000 0.01335000
v 0.22163489 0.00954984 0.01018824
v 0.22162770 0.00970569 0.01007339
v 0.22152486 0.01021948 0.00976813
v 0.22149347 0.01030953 0.00972477
v 0.22156528 0.00896804 0.01595907
v 0.22155677 0.00893572 0.01592103
v 0.21792851 0.01123896 0.01727694
v 0.21801057 0.01130541 0.01728923
v -0.00000000 0.01063192 0.01710877
v -0.00000000 0.01096472 0.01721370
v 0.00000000 0.01234862 0.01733478
v -0.00000000 0.01200000 0.01735000
v -0.00000000 0.01165138 0.01733478
v -0.00000000 0.01130541 0.01728923
v -0.00000000 0.01030953 0.01697523
v -0.00000000 0.00970569 0.01662661
v -0.00000000 0.01000000 0.01681410
v -0.00000000 0.00942885 0.01641418
v -0.00000000 0.00917157 0.01617843
v -0.00000000 0.00893582 0.01592115
v -0.00000000 0.00872339 0.01564431
v -0.00000000 0.00837477 0.01504047
v -0.00000000 0.00853590 0.01535000
v -0.00000000 0.00824123 0.01471808
v -0.00000000 0.00813630 0.01438528
v -0.00000000 0.00806077 0.01404459
v -0.00000000 0.00801522 0.01369862
v -0.00000000 0.00800000 0.01335000
v -0.00000000 0.00801522 0.01300138
v -0.00000000 0.00806077 0.01265541
v -0.00000000 0.00813630 0.01231472
v -0.00000000 0.00824123 0.01198192
v -0.00000000 0.00837477 0.01165953
v -0.00000000 0.00853590 0.01135000
v -0.00000000 0.00872339 0.01105569
v -0.00000000 0.00893582 0.01077885
v -0.00000000 0.00917157 0.01052157
v -0.00000000 0.00942885 0.01028582
v -0.00000000 0.00970569 0.01007339
v -0.00000000 0.01000000 0.00988590
v -0.00000000 0.01030953 0.00972477
v -0.00000000 0.01063192 0.00959123
v -0.00000000 0.01096472 0.00948630
v -0.00000000 0.01130541 0.00941077
v -0.00000000 0.01165138 0.00936522
v 0.00000000 0.01200000 0.00935000
v 0.00000000 0.01234862 0.00936522
v 0.21745069 0.00837477 0.01504047
v 0.21753654 0.00824123 0.01471808
v 0.21754500 0.00822912 0.01468434
v 0.21761397 0.00813630 0.01438528
v 0.21766455 0.00807404 0.01411606
v 0.21767583 0.00806077 0.01404459
v 0.21769884 0.00803431 0.01387281
v 0.21771590 0.00801522 0.01369862
v 0.21772631 0.00800379 0.01352418
v 0.21772979 0.00800000 0.01335000
v 0.21744001 0.00839293 0.01507890
v 0.21736363 0.00853590 0.01535000
v 0.21728234 0.00872332 0.01564421
v 0.21727306 0.00874813 0.01567924
v 0.21734850 0.00856745 0.01540367
v 0.21721359 0.00893470 0.01591981
v 0.21721329 0.00893582 0.01592115
v 0.21717058 0.00912573 0.01613183
v 0.21716282 0.00917157 0.01617843
v 0.21713705 0.00942885 0.01641418
v 0.21713506 0.00951434 0.01648392
v 0.21714433 0.00931977 0.01631924
v 0.21715297 0.00980749 0.01669558
v 0.21716757 0.00990526 0.01675765
v 0.21718596 0.01000000 0.01681410
v 0.21714239 0.00970569 0.01662661
v 0.21714282 0.00971096 0.01663029
v 0.21713667 0.00960965 0.01655721
v 0.21720912 0.01009661 0.01686811
v 0.21723592 0.01019019 0.01691715
v 0.21734121 0.01046489 0.01704370
v 0.21727662 0.01030953 0.01697523
v 0.21726714 0.01028363 0.01696304
v 0.21753509 0.01080472 0.01716724
v 0.21759257 0.01088399 0.01719116
v 0.21748079 0.01072248 0.01714051
v 0.21742672 0.01063192 0.01710877
v 0.21743074 0.01063900 0.01711134
v 0.21738197 0.01054882 0.01707748
v 0.21771926 0.01103651 0.01723223
v 0.21778493 0.01110583 0.01724878
v 0.21785504 0.01117374 0.01726373
v 0.21765685 0.01096480 0.01721372
v 0.21765345 0.01096071 0.01721263
v 0.21808313 0.01135910 0.01729832
v 0.21816432 0.01141408 0.01730685
v 0.21824761 0.01146535 0.01731411
v 0.21833313 0.01151298 0.01732024
v 0.21842071 0.01155689 0.01732538
v 0.21850987 0.01159684 0.01732963
v 0.21860111 0.01163303 0.01733313
v 0.21865235 0.01165138 0.01733478
v 0.21878745 0.01169321 0.01733822
v 0.21888253 0.01171719 0.01733999
v 0.21897830 0.01173695 0.01734134
v 0.21907493 0.01175255 0.01734234
v 0.21917225 0.01176393 0.01734303
v 0.21936780 0.01177395 0.01734361
v 0.21956348 0.01176693 0.01734320
v 0.21975783 0.01174292 0.01734173
v 0.21985395 0.01172461 0.01734051
v 0.21985380 0.01172465 0.00935949
v 0.21975783 0.01174292 0.00935827
v 0.21956348 0.01176693 0.00935680
v 0.21936780 0.01177395 0.00935639
v 0.21917225 0.01176393 0.00935697
v 0.21907479 0.01175252 0.00935766
v 0.21897830 0.01173695 0.00935866
v 0.21888238 0.01171715 0.00936001
v 0.21824761 0.01146535 0.00938589
v 0.21816422 0.01141402 0.00939315
v 0.21833302 0.01151292 0.00937977
v 0.21860111 0.01163303 0.00936687
v 0.21850999 0.01159688 0.00937037
v 0.21842071 0.01155689 0.00937462
v 0.21865235 0.01165138 0.00936522
v 0.21878745 0.01169321 0.00936178
v 0.21801057 0.01130541 0.00941077
v 0.21808313 0.01135910 0.00940168
v 0.21792851 0.01123896 0.00942306
v 0.21785496 0.01117367 0.00943628
v 0.21778493 0.01110583 0.00945122
v 0.21771920 0.01103645 0.00946779
v 0.21765679 0.01096472 0.00948630
v 0.21765344 0.01096070 0.00948738
v 0.21759251 0.01088392 0.00950886
v 0.21753509 0.01080472 0.00953276
v 0.21748099 0.01072280 0.00955938
v 0.21743076 0.01063903 0.00958865
v 0.21742676 0.01063200 0.00959120
v 0.21738191 0.01054869 0.00962258
v 0.21734121 0.01046489 0.00965630
v 0.21727662 0.01030953 0.00972477
v 0.21726708 0.01028345 0.00973705
v 0.21723595 0.01019026 0.00978281
v 0.21718596 0.01000000 0.00988590
v 0.21720912 0.01009661 0.00983189
v 0.21716757 0.00990526 0.00994235
v 0.21715294 0.00980724 0.01000459
v 0.21714282 0.00971102 0.01006967
v 0.21714239 0.00970570 0.01007339
v 0.21713667 0.00960957 0.01014284
v 0.21713506 0.00951536 0.01021526
v 0.21713705 0.00942885 0.01028582
v 0.21714433 0.00931977 0.01038076
v 0.21716282 0.00917157 0.01052157
v 0.21721329 0.00893582 0.01077885
v 0.21721360 0.00893466 0.01078024
v 0.21717058 0.00912573 0.01056817
v 0.21727306 0.00874813 0.01102076
v 0.21728234 0.00872332 0.01105579
v 0.21734850 0.00856745 0.01129633
v 0.21736363 0.00853590 0.01135000
v 0.21761397 0.00813630 0.01231472
v 0.21754500 0.00822912 0.01201566
v 0.21753654 0.00824123 0.01198192
v 0.21745069 0.00837477 0.01165953
v 0.21744001 0.00839293 0.01162110
v 0.21772628 0.00800382 0.01317512
v 0.21771590 0.00801522 0.01300138
v 0.21769892 0.00803423 0.01282785
v 0.21767581 0.00806080 0.01265525
v 0.21766455 0.00807404 0.01258394
v 0.22105418 0.00801522 0.01369862
v 0.22104383 0.00800384 0.01352526
v 0.22107121 0.00803427 0.01387250
v 0.22109425 0.00806077 0.01404459
v 0.22112754 0.00810057 0.01424134
v 0.22115612 0.00813630 0.01438528
v 0.22119348 0.00818534 0.01455349
v 0.22123356 0.00824125 0.01471815
v 0.22124471 0.00825747 0.01476189
v 0.22131939 0.00837477 0.01504047
v 0.22140646 0.00853590 0.01535000
v 0.22134657 0.00842180 0.01513788
v 0.22150868 0.00878059 0.01572390
v 0.22148773 0.00872326 0.01564412
v 0.22143599 0.00859877 0.01545514
v 0.22160727 0.00917157 0.01617843
v 0.22160535 0.00915971 0.01616651
v 0.22163489 0.00954984 0.01651176
v 0.22163303 0.00942885 0.01641418
v 0.22162862 0.00935413 0.01634989
v 0.22158413 0.01000000 0.01681410
v 0.22159651 0.00993861 0.01677793
v 0.22161253 0.00984155 0.01671765
v 0.22162414 0.00974535 0.01665402
v 0.22162770 0.00970569 0.01662661
v 0.22155194 0.01012989 0.01688591
v 0.22152470 0.01022000 0.01693212
v 0.22141422 0.01049610 0.01705652
v 0.22145478 0.01040644 0.01701886
v 0.22149105 0.01031599 0.01697824
v 0.22149345 0.01030957 0.01697525
v 0.22121514 0.01083292 0.01717595
v 0.22127074 0.01075146 0.01715015
v 0.22132201 0.01066884 0.01712201
v 0.22134337 0.01063192 0.01710877
v 0.22088958 0.01119699 0.01726857
v 0.22096074 0.01113016 0.01725428
v 0.22081518 0.01126103 0.01728115
v 0.22102924 0.01105996 0.01723797
v 0.22109441 0.01098708 0.01721962
v 0.22111329 0.01096472 0.01721370
v 0.22022837 0.01160999 0.01733094
v 0.22031811 0.01157143 0.01732697
v 0.22040640 0.01152885 0.01732215
v 0.22049259 0.01148255 0.01731639
v 0.21994933 0.01170211 0.01733889
v 0.22011773 0.01165138 0.01733478
v 0.22013657 0.01164480 0.01733420
v 0.22057669 0.01143255 0.01730954
v 0.22065867 0.01137883 0.01730148
v 0.22075951 0.01130541 0.01728923
v 0.22057657 0.01143262 0.00939044
v 0.22049259 0.01148255 0.00938361
v 0.22040628 0.01152891 0.00937784
v 0.22031811 0.01157143 0.00937303
v 0.22022827 0.01161004 0.00936905
v 0.22013657 0.01164480 0.00936580
v 0.22011773 0.01165138 0.00936522
v 0.21994933 0.01170211 0.00936111
v 0.22088951 0.01119706 0.00943142
v 0.22096074 0.01113016 0.00944572
v 0.22102918 0.01106003 0.00946201
v 0.22081512 0.01126108 0.00941884
v 0.22075951 0.01130541 0.00941077
v 0.22065867 0.01137883 0.00939852
v 0.22127070 0.01075154 0.00954982
v 0.22121514 0.01083292 0.00952405
v 0.22111329 0.01096472 0.00948630
v 0.22109446 0.01098703 0.00948039
v 0.22145472 0.01040656 0.00968108
v 0.22141422 0.01049610 0.00964348
v 0.22134337 0.01063192 0.00959123
v 0.22132210 0.01066870 0.00957805
v 0.22149107 0.01031595 0.00972178
v 0.22162417 0.00974494 0.01004626
v 0.22161250 0.00984176 0.00998221
v 0.22159640 0.00993919 0.00992172
v 0.22158413 0.01000000 0.00988590
v 0.22155194 0.01012989 0.00981409
v 0.22163303 0.00942885 0.01028582
v 0.22162862 0.00935413 0.01035010
v 0.22160727 0.00917157 0.01052157
v 0.22160535 0.00915971 0.01053349
v 0.22156528 0.00896804 0.01074093
v 0.22150868 0.00878059 0.01097610
v 0.22155677 0.00893572 0.01077897
v 0.22143599 0.00859877 0.01124486
v 0.22148773 0.00872326 0.01105588
v 0.22134657 0.00842180 0.01156212
v 0.22140646 0.00853590 0.01135000
v 0.22124390 0.00825629 0.01194122
v 0.22131939 0.00837477 0.01165953
v 0.22119331 0.00818511 0.01214726
v 0.22123355 0.00824123 0.01198192
v 0.22112754 0.00810057 0.01245866
v 0.22115612 0.00813630 0.01231472
v 0.22107126 0.00803433 0.01282708
v 0.22109425 0.00806077 0.01265541
v 0.22104029 0.00800000 0.01335000
v 0.22104381 0.00800383 0.01317501
v 0.22105418 0.00801522 0.01300138
v 0.00000000 0.01269459 0.01728923
v 0.00000000 0.01303528 0.01721370
v 0.00000000 0.01336808 0.01710877
v 0.00000000 0.01369047 0.01697523
v 0.00000000 0.01400000 0.01681410
v 0.00000000 0.01429431 0.01662661
v 0.00000000 0.01457115 0.01641418
v 0.00000000 0.01482843 0.01617843
v 0.00000000 0.01506418 0.01592115
v 0.00000000 0.01527661 0.01564431
v 0.00000000 0.01546410 0.01535000
v 0.00000000 0.01562523 0.01504047
v 0.00000000 0.01575877 0.01471808
v 0.00000000 0.01586370 0.01438528
v 0.00000000 0.01593923 0.01404459
v 0.00000000 0.01598478 0.01369862
v 0.00000000 0.01600000 0.01335000
v 0.00000000 0.01598478 0.01300138
v 0.00000000 0.01593923 0.01265541
v 0.00000000 0.01586370 0.01231472
v 0.00000000 0.01575877 0.01198192
v 0.00000000 0.01562523 0.01165953
v 0.00000000 0.01546410 0.01135000
v 0.00000000 0.01527661 0.01105569
v 0.00000000 0.01506418 0.01077885
v 0.00000000 0.01482843 0.01052157
v 0.00000000 0.01457115 0.01028582
v 0.00000000 0.01429431 0.01007339
v 0.00000000 0.01400000 0.00988590
v 0.00000000 0.01369047 0.00972477
v 0.00000000 0.01336808 0.00959123
v 0.00000000 0.01303528 0.00948630
v 0.00000000 0.01269459 0.00941077
v 0.21725103 0.01023712 0.01337293
v 0.21742873 0.01063548 0.01334871
v 0.21750760 0.01076406 0.01336331
v 0.21771936 0.01103663 0.01336754
v 0.21804659 0.01133262 0.01334545
v 0.22109972 0.00806718 0.01353421
v 0.22123915 0.00824934 0.01337191
v 0.22133313 0.00839820 0.01330130
v 0.22142147 0.00856722 0.01340257
v 0.22149840 0.00875185 0.01331011
v 0.22156107 0.00895186 0.01333098
v 0.22161981 0.00926263 0.01343573
v 0.22163478 0.00948933 0.01339879
v 0.22162600 0.00972553 0.01336371
v 0.22160500 0.00989046 0.01331969
v 0.22156899 0.01006518 0.01338591
v 0.22149226 0.01031276 0.01334852
v 0.22143500 0.01045149 0.01333117
v 0.22133279 0.01065043 0.01335662
v 0.22124340 0.01079249 0.01333710
v 0.22110389 0.01097593 0.01335296
v 0.22099537 0.01109543 0.01334185
v 0.22085270 0.01122944 0.01334371
v 0.22070961 0.01134282 0.01335612
v 0.22053485 0.01145804 0.01335342
v 0.22036242 0.01155065 0.01335241
v 0.22018261 0.01162792 0.01335163
v 0.22003403 0.01167839 0.01335206
v 0.21980591 0.01173430 0.01335061
v 0.21912353 0.01175877 0.01334966
v 0.21893032 0.01172759 0.01334932
v 0.21871957 0.01167335 0.01334828
v 0.21855535 0.01161545 0.01335175
v 0.21837668 0.01153541 0.01334743
v 0.21820569 0.01144017 0.01334637
v 0.21789141 0.01120675 0.01334340
v 0.21762256 0.01092265 0.01336074
v 0.21730746 0.01038781 0.01331576
v 0.21719702 0.01004843 0.01332299
v 0.21715972 0.00985633 0.01338112
v 0.21714261 0.00970836 0.01334814
v 0.21713564 0.00947210 0.01331472
v 0.21715234 0.00924552 0.01342041
v 0.21718988 0.00903031 0.01324466
v 0.21727766 0.00873572 0.01333248
v 0.21735601 0.00855164 0.01337684
v 0.21744533 0.00838384 0.01336921
v 0.21757889 0.00818226 0.01349953
v 0.21767019 0.00806739 0.01331427
v 0.00000000 0.01200000 0.01335000
f 1 2 3
f 2 4 3
f 3 4 5
f 6 7 8
f 7 9 8
f 8 9 10
f 10 11 8
f 11 12 8
f 8 12 13
f 5 14 3
f 14 15 3
f 3 15 16
f 17 18 3
f 18 19 3
f 3 19 1
f 20 21 8
f 21 22 8
f 8 22 6
f 13 23 8
f 23 24 8
f 8 24 25
f 16 26 3
f 26 27 3
f 3 27 28
f 29 30 3
f 30 31 3
f 3 31 17
f 32 33 8
f 33 34 8
f 8 34 20
f 25 35 8
f 35 36 8
f 8 36 37
f 28 38 3
f 38 39 3
f 3 39 40
f 41 42 3
f 42 43 3
f 3 43 29
f 44 45 8
f 45 46 8
f 8 46 32
f 37 47 8
f 47 48 8
f 8 48 49
f 40 50 3
f 50 51 3
f 3 51 52
f 53 54 3
f 54 55 3
f 3 55 41
f 56 57 8
f 57 58 8
f 8 58 44
f 49 59 8
f 59 60 8
f 8 60 61
f 52 62 3
f 62 63 3
f 3 63 64
f 61 65 8
f 65 3 8
f 8 3 66
f 3 64 66
f 67 68 3
f 68 69 3
f 3 69 53
f 56 8 70
f 8 71 70
f 70 71 72
f 73 74 75
f 76 77 78
f 79 80 81
f 82 83 84
f 83 85 84
f 84 85 86
f 87 88 84
f 88 89 84
f 89 90 84
f 90 91 84
f 84 91 92
f 92 93 84
f 93 94 84
f 84 94 82
f 95 96 97
f 95 98 99
f 86 100 84
f 100 98 84
f 84 98 87
f 98 95 87
f 87 95 101
f 95 97 101
f 102 103 104
f 104 105 106
f 99 107 95
f 107 105 95
f 95 105 96
f 105 104 96
f 96 104 108
f 104 103 108
f 106 109 104
f 109 110 104
f 104 110 102
f 110 111 102
f 102 111 112
f 111 113 112
f 110 114 111
f 114 115 111
f 111 115 113
f 115 116 113
f 113 116 117
f 116 118 117
f 115 119 116
f 119 120 116
f 116 120 118
f 120 121 118
f 118 121 122
f 121 123 122
f 120 124 121
f 124 125 121
f 121 125 123
f 125 126 123
f 123 126 127
f 126 128 127
f 129 130 131
f 131 132 133
f 125 134 126
f 134 132 126
f 126 132 128
f 132 131 128
f 128 131 135
f 131 130 135
f 133 136 131
f 136 137 131
f 131 137 129
f 137 138 129
f 129 138 139
f 138 140 139
f 137 141 138
f 141 142 138
f 138 142 140
f 142 143 140
f 140 143 144
f 143 145 144
f 142 146 143
f 146 147 143
f 143 147 145
f 147 148 145
f 145 148 149
f 148 150 149
f 147 151 148
f 151 152 148
f 148 152 150
f 152 153 150
f 150 153 154
f 153 155 154
f 152 156 153
f 156 157 153
f 153 157 155
f 157 158 155
f 155 158 159
f 158 160 159
f 157 161 158
f 161 162 158
f 158 162 160
f 162 163 160
f 160 163 164
f 163 165 164
f 162 166 163
f 166 167 163
f 163 167 165
f 167 168 165
f 165 168 169
f 168 170 169
f 167 171 168
f 171 172 168
f 168 172 170
f 172 173 170
f 170 173 174
f 173 175 174
f 172 176 173
f 176 177 173
f 173 177 175
f 177 178 175
f 175 178 179
f 178 180 179
f 177 181 178
f 181 182 178
f 178 182 180
f 182 183 180
f 180 183 184
f 183 185 184
f 182 186 183
f 186 187 183
f 183 187 185
f 187 188 185
f 185 188 189
f 188 190 189
f 187 191 188
f 191 192 188
f 188 192 190
f 192 193 190
f 190 193 194
f 194 193 195
f 193 196 195
f 195 196 197
f 196 198 197
f 198 199 197
f 197 199 200
f 199 201 200
f 200 201 202
f 201 203 202
f 202 203 204
f 203 205 204
f 204 205 206
f 205 207 206
f 206 207 208
f 207 209 208
f 208 209 210
f 209 211 210
f 210 211 212
f 211 213 212
f 212 213 214
f 213 215 214
f 214 215 216
f 216 215 217
f 215 218 217
f 217 218 219
f 220 221 222
f 221 223 222
f 218 224 219
f 224 223 219
f 219 223 225
f 223 221 225
f 226 227 228
f 226 228 220
f 228 229 220
f 220 229 221
f 229 230 221
f 221 230 225
f 231 232 233
f 231 233 227
f 233 234 227
f 227 234 228
f 234 235 228
f 228 235 229
f 236 237 79
f 236 79 232
f 79 81 232
f 232 81 233
f 81 238 233
f 233 238 234
f 80 79 239
f 79 237 239
f 239 237 240
f 237 241 240
f 240 241 242
f 243 244 76
f 243 76 242
f 76 78 242
f 242 78 240
f 78 245 240
f 240 245 239
f 77 76 246
f 76 244 246
f 246 244 247
f 244 248 247
f 247 248 249
f 250 251 252
f 250 252 249
f 252 253 249
f 249 253 247
f 253 254 247
f 247 254 246
f 255 256 257
f 255 257 251
f 257 258 251
f 251 258 252
f 258 259 252
f 252 259 253
f 260 261 73
f 260 73 256
f 73 75 256
f 256 75 257
f 75 262 257
f 257 262 258
f 74 73 263
f 73 261 263
f 263 261 264
f 261 265 264
f 264 265 266
f 267 268 266
f 268 269 266
f 266 269 264
f 269 270 264
f 264 270 263
f 271 272 268
f 272 273 268
f 268 273 269
f 267 274 268
f 274 275 268
f 268 275 271
f 275 276 271
f 271 276 277
f 276 278 277
f 275 279 276
f 279 280 276
f 276 280 278
f 280 281 278
f 278 281 282
f 281 283 282
f 280 284 281
f 284 285 281
f 281 285 283
f 285 286 283
f 283 286 287
f 286 288 287
f 285 289 286
f 289 290 286
f 286 290 288
f 290 291 288
f 288 291 292
f 291 293 292
f 294 295 296
f 296 297 298
f 290 299 291
f 299 297 291
f 291 297 293
f 297 296 293
f 293 296 300
f 296 295 300
f 301 302 303
f 302 304 303
f 303 304 305
f 298 306 296
f 306 301 296
f 296 301 294
f 301 303 294
f 294 303 307
f 303 308 307
f 309 310 311
f 309 311 312
f 313 314 311
f 314 315 311
f 311 315 312
f 308 303 310
f 303 305 310
f 310 305 311
f 305 316 311
f 311 316 317
f 317 318 311
f 318 319 311
f 311 319 320
f 320 321 311
f 321 322 311
f 311 322 313
f 323 324 325
f 326 327 328
f 329 330 331
f 332 333 334
f 333 335 334
f 334 335 336
f 337 338 334
f 338 339 334
f 339 340 334
f 340 341 334
f 334 341 342
f 342 343 334
f 343 344 334
f 334 344 332
f 345 346 347
f 345 348 349
f 336 350 334
f 350 348 334
f 334 348 337
f 348 345 337
f 337 345 351
f 345 347 351
f 352 353 354
f 354 355 356
f 349 357 345
f 357 355 345
f 345 355 346
f 355 354 346
f 346 354 358
f 354 353 358
f 356 359 354
f 359 360 354
f 354 360 352
f 360 361 352
f 352 361 362
f 361 363 362
f 360 364 361
f 364 365 361
f 361 365 363
f 365 366 363
f 363 366 367
f 366 368 367
f 365 369 366
f 369 370 366
f 366 370 368
f 370 371 368
f 368 371 372
f 371 373 372
f 370 374 371
f 374 375 371
f 371 375 373
f 375 376 373
f 373 376 377
f 376 378 377
f 379 380 381
f 381 382 383
f 375 384 376
f 384 382 376
f 376 382 378
f 382 381 378
f 378 381 385
f 381 380 385
f 383 386 381
f 386 387 381
f 381 387 379
f 387 388 379
f 379 388 389
f 388 390 389
f 387 391 388
f 391 392 388
f 388 392 390
f 392 393 390
f 390 393 394
f 393 395 394
f 392 396 393
f 396 397 393
f 393 397 395
f 397 398 395
f 395 398 399
f 398 400 399
f 397 401 398
f 401 402 398
f 398 402 400
f 402 403 400
f 400 403 404
f 403 405 404
f 402 406 403
f 406 407 403
f 403 407 405
f 407 408 405
f 405 408 409
f 408 410 409
f 407 411 408
f 411 412 408
f 408 412 410
f 412 413 410
f 410 413 414
f 413 415 414
f 412 416 413
f 416 417 413
f 413 417 415
f 417 418 415
f 415 418 419
f 418 420 419
f 417 421 418
f 421 422 418
f 418 422 420
f 422 423 420
f 420 423 424
f 423 425 424
f 422 426 423
f 426 427 423
f 423 427 425
f 427 428 425
f 425 428 429
f 428 430 429
f 427 431 428
f 431 432 428
f 428 432 430
f 432 433 430
f 430 433 434
f 433 435 434
f 432 436 433
f 436 437 433
f 433 437 435
f 437 438 435
f 435 438 439
f 438 440 439
f 437 441 438
f 441 442 438
f 438 442 440
f 442 443 440
f 440 443 444
f 444 443 445
f 443 446 445
f 445 446 447
f 446 448 447
f 448 449 447
f 447 449 450
f 449 451 450
f 450 451 452
f 451 453 452
f 452 453 454
f 453 455 454
f 454 455 456
f 455 457 456
f 456 457 458
f 457 459 458
f 458 459 460
f 459 461 460
f 460 461 462
f 461 463 462
f 462 463 464
f 463 465 464
f 464 465 466
f 466 465 467
f 465 468 467
f 467 468 469
f 470 471 472
f 471 473 472
f 468 474 469
f 474 473 469
f 469 473 475
f 473 471 475
f 476 477 478
f 476 478 470
f 478 479 470
f 470 479 471
f 479 480 471
f 471 480 475
f 481 482 483
f 481 483 477
f 483 484 477
f 477 484 478
f 484 485 478
f 478 485 479
f 486 487 329
f 486 329 482
f 329 331 482
f 482 331 483
f 331 488 483
f 483 488 484
f 330 329 489
f 329 487 489
f 489 487 490
f 487 491 490
f 490 491 492
f 493 494 326
f 493 326 492
f 326 328 492
f 492 328 490
f 328 495 490
f 490 495 489
f 327 326 496
f 326 494 496
f 496 494 497
f 494 498 497
f 497 498 499
f 500 501 502
f 500 502 499
f 502 503 499
f 499 503 497
f 503 504 497
f 497 504 496
f 505 506 507
f 505 507 501
f 507 508 501
f 501 508 502
f 508 509 502
f 502 509 503
f 510 511 323
f 510 323 506
f 323 325 506
f 506 325 507
f 325 512 507
f 507 512 508
f 324 323 513
f 323 511 513
f 513 511 514
f 511 515 514
f 514 515 516
f 517 518 516
f 518 519 516
f 516 519 514
f 519 520 514
f 514 520 513
f 521 522 518
f 522 523 518
f 518 523 519
f 517 524 518
f 524 525 518
f 518 525 521
f 525 526 521
f 521 526 527
f 526 528 527
f 525 529 526
f 529 530 526
f 526 530 528
f 530 531 528
f 528 531 532
f 531 533 532
f 530 534 531
f 534 535 531
f 531 535 533
f 535 536 533
f 533 536 537
f 536 538 537
f 535 539 536
f 539 540 536
f 536 540 538
f 540 541 538
f 538 541 542
f 541 543 542
f 544 545 546
f 546 547 548
f 540 549 541
f 549 547 541
f 541 547 543
f 547 546 543
f 543 546 550
f 546 545 550
f 551 552 553
f 552 554 553
f 553 554 555
f 548 556 546
f 556 551 546
f 546 551 544
f 551 553 544
f 544 553 557
f 553 558 557
f 559 560 561
f 559 561 562
f 563 564 561
f 564 565 561
f 561 565 562
f 558 553 560
f 553 555 560
f 560 555 561
f 555 566 561
f 561 566 567
f 567 568 561
f 568 569 561
f 561 569 570
f 570 571 561
f 571 572 561
f 561 572 563
f 573 574 31
f 575 576 18
f 577 578 47
f 579 580 426
f 250 249 581
f 244 243 582
f 94 571 82
f 571 570 82
f 82 570 83
f 570 569 83
f 83 569 85
f 569 568 85
f 566 98 567
f 98 100 567
f 567 100 568
f 100 86 568
f 568 86 85
f 566 555 98
f 555 554 98
f 98 554 99
f 554 552 99
f 99 552 107
f 107 552 105
f 552 551 105
f 105 551 106
f 551 556 106
f 556 548 106
f 106 548 109
f 109 548 110
f 548 547 110
f 110 547 114
f 547 549 114
f 114 549 115
f 549 540 115
f 115 540 119
f 540 539 119
f 119 539 120
f 539 535 120
f 120 535 124
f 535 534 124
f 124 534 125
f 534 530 125
f 125 530 134
f 530 529 134
f 529 525 134
f 134 525 132
f 525 133 132
f 141 510 142
f 510 146 142
f 525 524 133
f 524 517 133
f 133 517 136
f 517 137 136
f 517 516 137
f 516 515 137
f 137 515 141
f 515 511 141
f 141 511 510
f 505 151 147
f 146 510 147
f 510 506 147
f 147 506 505
f 500 156 152
f 151 505 152
f 505 501 152
f 152 501 500
f 494 162 161
f 156 500 157
f 500 499 157
f 157 499 161
f 499 498 161
f 161 498 494
f 171 486 172
f 486 176 172
f 162 494 166
f 494 493 166
f 166 493 167
f 493 492 167
f 492 491 167
f 167 491 171
f 491 487 171
f 171 487 486
f 476 186 182
f 176 486 177
f 486 482 177
f 177 482 481
f 182 181 476
f 181 177 476
f 476 177 477
f 177 481 477
f 193 192 468
f 472 473 187
f 187 473 191
f 186 476 187
f 476 470 187
f 187 470 472
f 191 473 192
f 473 474 192
f 192 474 468
f 207 205 583
f 213 211 583
f 211 209 583
f 583 209 207
f 463 461 205
f 461 459 205
f 205 459 583
f 459 457 583
f 583 457 455
f 463 205 465
f 205 203 465
f 465 203 468
f 203 201 468
f 468 201 199
f 199 198 468
f 198 196 468
f 468 196 193
f 453 451 10
f 451 449 10
f 222 223 584
f 223 224 584
f 224 218 584
f 584 218 583
f 218 215 583
f 583 215 213
f 231 227 585
f 227 226 585
f 585 226 584
f 226 220 584
f 584 220 222
f 582 243 586
f 243 242 586
f 586 242 241
f 241 237 586
f 237 236 586
f 586 236 585
f 236 232 585
f 585 232 231
f 581 249 582
f 249 248 582
f 582 248 244
f 587 255 581
f 255 251 581
f 581 251 250
f 588 267 589
f 267 266 589
f 589 266 265
f 265 261 589
f 261 260 589
f 589 260 587
f 260 256 587
f 587 256 255
f 590 275 588
f 275 274 588
f 588 274 267
f 591 280 590
f 280 279 590
f 590 279 275
f 592 285 591
f 285 284 591
f 591 284 280
f 593 290 592
f 290 289 592
f 592 289 285
f 594 298 595
f 298 297 595
f 595 297 593
f 297 299 593
f 593 299 290
f 596 301 594
f 301 306 594
f 594 306 298
f 316 305 597
f 305 304 597
f 597 304 596
f 304 302 596
f 596 302 301
f 316 597 317
f 597 598 317
f 317 598 318
f 318 598 319
f 598 599 319
f 319 599 320
f 320 599 321
f 599 600 321
f 321 600 322
f 322 600 313
f 600 601 313
f 313 601 314
f 314 601 315
f 601 602 315
f 315 602 312
f 312 602 309
f 602 603 309
f 309 603 310
f 310 603 308
f 603 604 308
f 308 604 307
f 307 604 294
f 604 605 294
f 294 605 295
f 605 606 295
f 295 606 300
f 607 292 606
f 292 293 606
f 606 293 300
f 608 609 282
f 282 283 608
f 283 287 608
f 608 287 607
f 287 288 607
f 607 288 292
f 610 611 272
f 272 271 610
f 271 277 610
f 610 277 609
f 277 278 609
f 609 278 282
f 263 270 612
f 270 269 612
f 612 269 611
f 269 273 611
f 611 273 272
f 613 75 612
f 75 74 612
f 612 74 263
f 253 259 614
f 259 258 614
f 614 258 613
f 258 262 613
f 613 262 75
f 253 614 254
f 614 615 254
f 254 615 246
f 239 245 616
f 245 78 616
f 616 78 615
f 78 77 615
f 615 77 246
f 234 238 617
f 238 81 617
f 617 81 616
f 81 80 616
f 616 80 239
f 219 225 618
f 225 230 618
f 230 229 618
f 618 229 617
f 229 235 617
f 617 235 234
f 452 454 14
f 452 14 450
f 197 200 458
f 200 202 458
f 458 202 204
f 454 456 14
f 456 458 14
f 14 458 206
f 458 204 206
f 462 464 195
f 197 458 195
f 458 460 195
f 195 460 462
f 619 208 210
f 619 210 618
f 210 212 618
f 618 212 214
f 214 216 618
f 216 217 618
f 618 217 219
f 467 469 190
f 469 475 190
f 190 475 189
f 475 185 189
f 464 466 195
f 466 467 195
f 195 467 194
f 467 190 194
f 330 174 331
f 174 175 331
f 331 175 488
f 179 485 175
f 485 484 175
f 175 484 488
f 475 480 185
f 480 479 185
f 185 479 184
f 479 485 184
f 184 485 180
f 485 179 180
f 330 489 174
f 489 495 174
f 174 495 170
f 495 169 170
f 169 495 165
f 495 328 165
f 165 328 164
f 328 327 164
f 164 327 496
f 324 144 325
f 144 145 325
f 325 145 512
f 145 149 512
f 512 149 508
f 149 150 508
f 508 150 509
f 150 154 509
f 509 154 503
f 154 155 503
f 503 155 504
f 155 159 504
f 504 159 496
f 159 160 496
f 496 160 164
f 139 520 129
f 520 519 129
f 129 519 130
f 324 513 144
f 513 520 144
f 144 520 140
f 520 139 140
f 519 523 130
f 523 522 130
f 130 522 135
f 522 128 135
f 522 521 128
f 521 527 128
f 128 527 127
f 527 123 127
f 527 528 123
f 528 532 123
f 123 532 122
f 532 118 122
f 532 533 118
f 533 537 118
f 118 537 117
f 537 113 117
f 537 538 113
f 538 542 113
f 113 542 112
f 542 102 112
f 88 87 560
f 87 101 560
f 560 101 558
f 101 97 558
f 558 97 557
f 97 96 557
f 557 96 544
f 96 108 544
f 544 108 545
f 108 103 545
f 545 103 550
f 103 102 550
f 550 102 543
f 102 542 543
f 88 560 89
f 560 559 89
f 89 559 90
f 559 562 90
f 90 562 91
f 562 565 91
f 91 565 92
f 565 564 92
f 92 564 93
f 564 563 93
f 93 563 94
f 563 572 94
f 94 572 571
f 359 356 620
f 356 355 620
f 620 355 621
f 355 357 621
f 621 357 622
f 357 349 622
f 622 349 623
f 349 348 623
f 623 348 624
f 348 350 624
f 624 350 625
f 350 336 625
f 625 336 626
f 336 335 626
f 626 335 627
f 335 333 627
f 627 333 628
f 333 332 628
f 628 332 629
f 620 630 359
f 630 631 359
f 359 631 360
f 631 364 360
f 632 633 369
f 631 634 364
f 634 632 364
f 364 632 365
f 632 369 365
f 633 635 369
f 635 636 369
f 369 636 370
f 636 374 370
f 636 637 374
f 637 638 374
f 374 638 375
f 638 384 375
f 383 639 386
f 639 640 386
f 638 641 384
f 641 639 384
f 384 639 382
f 639 383 382
f 642 643 396
f 643 644 396
f 396 644 397
f 392 391 645
f 392 645 396
f 645 646 396
f 396 646 642
f 640 647 386
f 647 645 386
f 386 645 387
f 645 391 387
f 397 644 401
f 644 648 401
f 401 648 649
f 650 407 651
f 407 406 651
f 649 652 401
f 652 651 401
f 401 651 402
f 651 406 402
f 653 654 416
f 653 416 655
f 412 656 416
f 656 657 416
f 416 657 655
f 650 658 407
f 658 656 407
f 407 656 411
f 656 412 411
f 659 660 426
f 660 661 426
f 426 661 579
f 659 426 662
f 426 422 662
f 662 422 421
f 654 663 416
f 663 662 416
f 416 662 417
f 662 421 417
f 432 431 580
f 431 427 580
f 580 427 426
f 432 580 436
f 580 664 436
f 436 664 665
f 665 666 436
f 666 667 436
f 436 667 668
f 668 669 436
f 669 670 436
f 436 670 671
f 443 442 671
f 443 671 446
f 671 672 446
f 446 672 673
f 673 674 446
f 674 675 446
f 446 675 676
f 442 441 671
f 441 437 671
f 671 437 436
f 449 448 10
f 448 446 10
f 10 446 677
f 446 676 677
f 677 678 10
f 678 679 10
f 10 679 680
f 681 682 5
f 434 435 5
f 435 439 5
f 5 439 440
f 440 444 5
f 444 445 5
f 5 445 14
f 445 447 14
f 14 447 450
f 682 683 5
f 683 684 5
f 5 684 434
f 684 685 434
f 685 686 434
f 686 687 434
f 434 687 688
f 689 690 424
f 689 424 691
f 692 693 424
f 693 694 424
f 424 694 691
f 692 424 695
f 424 425 695
f 695 425 429
f 688 696 434
f 696 695 434
f 434 695 430
f 695 429 430
f 415 419 697
f 415 697 414
f 690 698 424
f 698 697 424
f 424 697 420
f 697 419 420
f 697 699 414
f 699 700 414
f 414 700 701
f 701 702 414
f 702 703 414
f 414 703 410
f 704 405 703
f 405 409 703
f 703 409 410
f 704 705 405
f 705 706 405
f 405 706 707
f 707 708 405
f 708 709 405
f 405 709 404
f 710 711 399
f 711 712 399
f 399 712 395
f 710 399 709
f 399 400 709
f 709 400 404
f 395 712 394
f 712 713 394
f 394 713 714
f 379 389 715
f 714 716 394
f 716 715 394
f 394 715 390
f 715 389 390
f 379 715 380
f 715 717 380
f 380 717 718
f 718 719 380
f 719 720 380
f 380 720 385
f 721 377 720
f 377 378 720
f 720 378 385
f 721 722 377
f 722 723 377
f 377 723 373
f 723 372 373
f 723 724 372
f 724 725 372
f 372 725 368
f 725 367 368
f 726 727 362
f 725 728 367
f 728 726 367
f 367 726 363
f 726 362 363
f 727 729 362
f 729 730 362
f 362 730 352
f 730 353 352
f 730 731 353
f 731 732 353
f 353 732 358
f 733 351 734
f 351 347 734
f 734 347 735
f 347 346 735
f 735 346 736
f 346 358 736
f 736 358 737
f 358 732 737
f 332 344 629
f 344 343 629
f 629 343 738
f 343 342 738
f 738 342 739
f 342 341 739
f 739 341 740
f 341 340 740
f 740 340 741
f 340 339 741
f 741 339 742
f 339 338 742
f 742 338 733
f 338 337 733
f 733 337 351
f 743 744 3
f 744 67 3
f 743 3 745
f 3 65 745
f 745 65 746
f 746 65 747
f 65 61 747
f 747 61 748
f 748 61 749
f 61 60 749
f 749 60 750
f 750 60 751
f 60 59 751
f 751 59 752
f 49 753 59
f 753 754 59
f 59 754 752
f 47 578 48
f 578 755 48
f 755 756 48
f 48 756 49
f 756 757 49
f 49 757 753
f 37 758 47
f 758 759 47
f 47 759 577
f 35 760 36
f 760 761 36
f 36 761 37
f 761 762 37
f 37 762 758
f 25 763 764
f 764 765 25
f 765 766 25
f 25 766 35
f 766 767 35
f 35 767 760
f 763 25 768
f 25 24 768
f 768 24 769
f 770 771 23
f 771 772 23
f 23 772 24
f 772 773 24
f 24 773 769
f 774 775 13
f 775 776 13
f 13 776 23
f 776 777 23
f 23 777 770
f 778 779 12
f 778 12 780
f 779 781 12
f 781 782 12
f 12 782 13
f 782 783 13
f 13 783 774
f 784 785 11
f 785 786 11
f 11 786 787
f 680 788 10
f 788 789 10
f 10 789 11
f 789 790 11
f 11 790 784
f 787 791 11
f 791 792 11
f 11 792 12
f 792 793 12
f 12 793 780
f 4 794 795
f 795 796 4
f 796 797 4
f 4 797 798
f 798 799 4
f 799 800 4
f 4 800 5
f 800 801 5
f 5 801 681
f 802 2 803
f 2 804 803
f 802 805 2
f 805 806 2
f 2 806 4
f 806 807 4
f 4 807 794
f 808 809 1
f 809 810 1
f 1 810 2
f 810 811 2
f 2 811 804
f 812 813 19
f 813 814 19
f 19 814 1
f 814 815 1
f 1 815 808
f 18 576 19
f 576 816 19
f 19 816 812
f 31 574 17
f 574 817 17
f 17 817 818
f 818 819 17
f 819 820 17
f 17 820 18
f 820 821 18
f 18 821 575
f 573 31 822
f 31 30 822
f 822 30 823
f 30 29 823
f 823 29 824
f 824 29 825
f 29 43 825
f 825 43 826
f 42 827 43
f 827 828 43
f 43 828 826
f 41 829 42
f 829 830 42
f 42 830 827
f 55 831 41
f 831 832 41
f 41 832 829
f 54 833 55
f 833 834 55
f 55 834 831
f 53 835 54
f 835 836 54
f 54 836 833
f 69 837 53
f 837 838 53
f 53 838 835
f 68 839 69
f 839 840 69
f 69 840 837
f 744 841 67
f 841 842 67
f 67 842 68
f 842 843 68
f 68 843 839
f 453 10 455
f 10 9 455
f 455 9 583
f 9 7 583
f 583 7 844
f 7 6 844
f 844 6 845
f 6 22 845
f 845 22 846
f 22 21 846
f 846 21 847
f 21 20 847
f 847 20 848
f 20 34 848
f 848 34 849
f 34 33 849
f 849 33 850
f 33 32 850
f 850 32 851
f 32 46 851
f 851 46 852
f 46 45 852
f 852 45 853
f 45 44 853
f 853 44 854
f 44 58 854
f 854 58 855
f 58 57 855
f 855 57 856
f 57 56 856
f 856 56 857
f 56 70 857
f 857 70 858
f 70 72 858
f 858 72 859
f 72 71 859
f 859 71 860
f 71 8 860
f 860 8 861
f 8 66 861
f 861 66 862
f 66 64 862
f 862 64 863
f 64 63 863
f 863 63 864
f 63 62 864
f 864 62 865
f 62 52 865
f 865 52 866
f 52 51 866
f 866 51 867
f 51 50 867
f 867 50 868
f 50 40 868
f 868 40 869
f 40 39 869
f 869 39 870
f 39 38 870
f 870 38 871
f 38 28 871
f 871 28 872
f 28 27 872
f 872 27 873
f 27 26 873
f 873 26 874
f 26 16 874
f 874 16 875
f 16 15 875
f 875 15 876
f 15 14 876
f 876 14 619
f 14 206 619
f 619 206 208
f 877 714 713
f 878 658 650
f 879 707 706
f 702 701 880
f 881 580 579
f 882 837 840
f 743 745 882
f 840 839 882
f 839 843 882
f 882 843 842
f 842 841 882
f 841 744 882
f 882 744 743
f 747 748 883
f 748 749 883
f 833 836 883
f 836 835 883
f 835 838 883
f 838 837 883
f 883 837 747
f 837 882 747
f 747 882 746
f 882 745 746
f 749 750 883
f 750 751 883
f 883 751 833
f 751 884 833
f 833 884 834
f 884 831 834
f 751 752 884
f 752 754 884
f 884 754 831
f 754 885 831
f 831 885 832
f 885 829 832
f 754 753 885
f 753 757 885
f 885 757 829
f 757 886 829
f 829 886 830
f 886 827 830
f 757 756 886
f 756 755 886
f 886 755 827
f 755 887 827
f 827 887 828
f 887 826 828
f 755 578 887
f 578 577 887
f 887 577 826
f 577 759 826
f 826 759 825
f 759 888 825
f 825 888 824
f 888 823 824
f 759 758 888
f 758 762 888
f 888 762 823
f 762 889 823
f 823 889 822
f 889 573 822
f 762 761 889
f 761 760 889
f 889 760 573
f 760 890 573
f 573 890 574
f 890 817 574
f 760 767 890
f 767 766 890
f 890 766 817
f 766 891 817
f 817 891 818
f 891 819 818
f 766 765 891
f 765 764 891
f 891 764 819
f 764 892 819
f 819 892 820
f 892 821 820
f 768 769 893
f 893 816 576
f 764 763 892
f 763 768 892
f 892 768 821
f 768 893 821
f 821 893 575
f 893 576 575
f 769 773 893
f 773 772 893
f 893 772 816
f 772 894 816
f 816 894 812
f 894 813 812
f 772 771 894
f 771 770 894
f 894 770 813
f 770 895 813
f 813 895 814
f 895 815 814
f 770 777 895
f 777 776 895
f 895 776 815
f 776 896 815
f 815 896 808
f 896 809 808
f 776 775 896
f 775 774 896
f 896 774 809
f 774 897 809
f 809 897 810
f 897 811 810
f 774 783 897
f 783 782 897
f 897 782 811
f 782 898 811
f 811 898 804
f 898 803 804
f 782 781 898
f 781 779 898
f 898 779 803
f 779 899 803
f 803 899 802
f 899 805 802
f 779 778 899
f 778 780 899
f 899 780 805
f 780 900 805
f 805 900 806
f 900 807 806
f 780 793 900
f 793 792 900
f 900 792 807
f 792 901 807
f 807 901 794
f 901 795 794
f 792 791 901
f 791 787 901
f 901 787 795
f 787 902 795
f 795 902 796
f 902 797 796
f 787 786 902
f 786 785 902
f 902 785 797
f 785 903 797
f 797 903 798
f 903 799 798
f 785 784 903
f 784 790 903
f 903 790 799
f 790 904 799
f 799 904 800
f 904 801 800
f 790 789 904
f 789 788 904
f 904 788 801
f 788 905 801
f 801 905 681
f 905 682 681
f 788 680 905
f 680 679 905
f 905 679 682
f 679 678 682
f 682 678 683
f 678 677 683
f 683 677 684
f 677 676 684
f 684 676 685
f 676 906 685
f 685 906 686
f 906 687 686
f 676 675 906
f 675 674 906
f 906 674 687
f 674 907 687
f 687 907 688
f 907 696 688
f 674 673 907
f 673 672 907
f 907 672 696
f 672 908 696
f 696 908 695
f 908 692 695
f 672 671 908
f 671 670 908
f 908 670 692
f 670 909 692
f 692 909 693
f 909 694 693
f 670 669 909
f 669 668 909
f 909 668 694
f 668 910 694
f 694 910 691
f 910 689 691
f 668 667 910
f 667 666 910
f 910 666 689
f 666 911 689
f 689 911 690
f 911 698 690
f 580 881 664
f 666 665 911
f 665 664 911
f 911 664 698
f 664 881 698
f 698 881 697
f 697 881 699
f 881 579 699
f 699 579 912
f 579 661 912
f 912 661 660
f 662 663 880
f 662 880 659
f 659 880 660
f 880 701 660
f 660 701 912
f 701 700 912
f 912 700 699
f 654 653 913
f 654 913 663
f 913 704 663
f 663 704 880
f 704 703 880
f 880 703 702
f 655 657 879
f 655 879 653
f 879 706 653
f 653 706 913
f 706 705 913
f 913 705 704
f 709 708 878
f 709 878 710
f 707 879 708
f 879 657 708
f 708 657 878
f 657 656 878
f 878 656 658
f 710 878 711
f 878 650 711
f 711 650 914
f 650 651 914
f 914 651 652
f 649 648 877
f 649 877 652
f 877 713 652
f 652 713 914
f 713 712 914
f 914 712 711
f 714 877 716
f 877 648 716
f 716 648 915
f 648 644 915
f 915 644 643
f 642 646 916
f 642 916 643
f 916 717 643
f 643 717 915
f 717 715 915
f 915 715 716
f 645 917 646
f 917 719 646
f 646 719 916
f 719 718 916
f 916 718 717
f 722 721 917
f 721 720 917
f 917 720 719
f 645 647 917
f 647 640 917
f 917 640 722
f 640 918 722
f 722 918 723
f 918 724 723
f 640 639 918
f 639 641 918
f 918 641 724
f 641 919 724
f 724 919 725
f 919 728 725
f 641 638 919
f 638 637 919
f 919 637 728
f 637 920 728
f 728 920 726
f 920 727 726
f 637 636 920
f 636 635 920
f 920 635 727
f 635 633 727
f 727 633 729
f 633 921 729
f 729 921 730
f 921 731 730
f 633 632 921
f 632 634 921
f 921 634 731
f 634 922 731
f 731 922 732
f 922 737 732
f 734 735 923
f 923 630 620
f 634 631 922
f 631 630 922
f 922 630 737
f 630 923 737
f 737 923 736
f 923 735 736
f 620 621 923
f 621 622 923
f 923 622 734
f 622 924 734
f 734 924 733
f 924 742 733
f 622 623 924
f 623 624 924
f 924 624 742
f 624 925 742
f 742 925 741
f 738 739 925
f 739 740 925
f 925 740 741
f 624 625 925
f 625 626 925
f 925 626 627
f 627 628 925
f 628 629 925
f 925 629 738
f 858 859 926
f 859 860 926
f 926 860 861
f 855 856 926
f 856 857 926
f 926 857 858
f 852 853 926
f 853 854 926
f 926 854 855
f 849 850 926
f 850 851 926
f 926 851 852
f 846 847 926
f 847 848 926
f 926 848 849
f 583 844 926
f 844 845 926
f 926 845 846
f 586 585 926
f 585 584 926
f 926 584 583
f 587 581 926
f 581 582 926
f 926 582 586
f 590 588 926
f 588 589 926
f 926 589 587
f 593 592 926
f 592 591 926
f 926 591 590
f 596 594 926
f 594 595 926
f 926 595 593
f 599 598 926
f 598 597 926
f 926 597 596
f 602 601 926
f 601 600 926
f 926 600 599
f 605 604 926
f 604 603 926
f 926 603 602
f 608 607 926
f 607 606 926
f 926 606 605
f 611 610 926
f 610 609 926
f 926 609 608
f 614 613 926
f 613 612 926
f 926 612 611
f 617 616 926
f 616 615 926
f 926 615 614
f 876 619 926
f 619 618 926
f 926 618 617
f 873 874 926
f 874 875 926
f 926 875 876
f 870 871 926
f 871 872 926
f 926 872 873
f 867 868 926
f 868 869 926
f 926 869 870
f 864 865 926
f 865 866 926
f 926 866 867
f 861 862 926
f 862 863 926
f 926 863 864

