# https://github.com/mikedh/trimesh

o tm26_251_p14_p_threaded__bearing.stl
v 0.10240000 0.04765000 0.01250000
v 0.11040000 0.04765000 0.01250000
v 0.10240000 0.04778073 0.01250571
v 0.11040000 0.04778073 0.01250571
v 0.10240000 0.04791047 0.01252279
v 0.11040000 0.04791047 0.01252279
v 0.10240000 0.04803823 0.01255111
v 0.11040000 0.04803823 0.01255111
v 0.10240000 0.04816303 0.01259046
v 0.11040000 0.04816303 0.01259046
v 0.10240000 0.04828393 0.01264054
v 0.11040000 0.04828393 0.01264054
v 0.10240000 0.04840000 0.01270096
v 0.11040000 0.04840000 0.01270096
v 0.10240000 0.04851037 0.01277127
v 0.11040000 0.04851037 0.01277127
v 0.10240000 0.04861418 0.01285093
v 0.11040000 0.04861418 0.01285093
v 0.10240000 0.04871066 0.01293934
v 0.11040000 0.04871066 0.01293934
v 0.10240000 0.04879907 0.01303582
v 0.11040000 0.04879907 0.01303582
v 0.10240000 0.04887873 0.01313964
v 0.11040000 0.04887873 0.01313964
v 0.10240000 0.04894904 0.01325000
v 0.11040000 0.04894904 0.01325000
v 0.10240000 0.04900946 0.01336607
v 0.11040000 0.04900946 0.01336607
v 0.10240000 0.04905954 0.01348697
v 0.11040000 0.04905954 0.01348697
v 0.10240000 0.04909889 0.01361177
v 0.11040000 0.04909889 0.01361177
v 0.10240000 0.04912721 0.01373953
v 0.11040000 0.04912721 0.01373953
v 0.10240000 0.04914429 0.01386927
v 0.11040000 0.04914429 0.01386927
v 0.10240000 0.04915000 0.01400000
v 0.11040000 0.04915000 0.01400000
v 0.10240000 0.04914429 0.01413073
v 0.11040000 0.04914429 0.01413073
v 0.10240000 0.04912721 0.01426047
v 0.11040000 0.04912721 0.01426047
v 0.10240000 0.04909889 0.01438823
v 0.11040000 0.04909889 0.01438823
v 0.10240000 0.04905954 0.01451303
v 0.11040000 0.04905954 0.01451303
v 0.10240000 0.04900946 0.01463393
v 0.11040000 0.04900946 0.01463393
v 0.10240000 0.04894904 0.01475000
v 0.11040000 0.04894904 0.01475000
v 0.10240000 0.04887873 0.01486036
v 0.11040000 0.04887873 0.01486036
v 0.10240000 0.04879907 0.01496418
v 0.11040000 0.04879907 0.01496418
v 0.10240000 0.04871066 0.01506066
v 0.11040000 0.04871066 0.01506066
v 0.10240000 0.04861418 0.01514907
v 0.11040000 0.04861418 0.01514907
v 0.10240000 0.04851037 0.01522873
v 0.11040000 0.04851037 0.01522873
v 0.10240000 0.04840000 0.01529904
v 0.11040000 0.04840000 0.01529904
v 0.10240000 0.04828393 0.01535946
v 0.11040000 0.04828393 0.01535946
v 0.10240000 0.04816303 0.01540954
v 0.11040000 0.04816303 0.01540954
v 0.10240000 0.04803823 0.01544889
v 0.11040000 0.04803823 0.01544889
v 0.10240000 0.04791047 0.01547721
v 0.11040000 0.04791047 0.01547721
v 0.10240000 0.04778073 0.01549429
v 0.11040000 0.04778073 0.01549429
v 0.10240000 0.04765000 0.01550000
v 0.11040000 0.04765000 0.01550000
v 0.10240000 0.04751927 0.01549429
v 0.11040000 0.04751927 0.01549429
v 0.10240000 0.04738953 0.01547721
v 0.11040000 0.04738953 0.01547721
v 0.10240000 0.04726177 0.01544889
v 0.11040000 0.04726177 0.01544889
v 0.10240000 0.04713697 0.01540954
v 0.11040000 0.04713697 0.01540954
v 0.10240000 0.04701607 0.01535946
v 0.11040000 0.04701607 0.01535946
v 0.10240000 0.04690000 0.01529904
v 0.11040000 0.04690000 0.01529904
v 0.10240000 0.04678963 0.01522873
v 0.11040000 0.04678963 0.01522873
v 0.10240000 0.04668582 0.01514907
v 0.11040000 0.04668582 0.01514907
v 0.10240000 0.04658934 0.01506066
v 0.11040000 0.04658934 0.01506066
v 0.10240000 0.04650093 0.01496418
v 0.11040000 0.04650093 0.01496418
v 0.10240000 0.04642127 0.01486036
v 0.11040000 0.04642127 0.01486036
v 0.10240000 0.04635096 0.01475000
v 0.11040000 0.04635096 0.01475000
v 0.10240000 0.04629054 0.01463393
v 0.11040000 0.04629054 0.01463393
v 0.10240000 0.04624046 0.01451303
v 0.11040000 0.04624046 0.01451303
v 0.10240000 0.04620111 0.01438823
v 0.11040000 0.04620111 0.01438823
v 0.10240000 0.04617279 0.01426047
v 0.11040000 0.04617279 0.01426047
v 0.10240000 0.04615571 0.01413073
v 0.11040000 0.04615571 0.01413073
v 0.10240000 0.04615000 0.01400000
v 0.11040000 0.04615000 0.01400000
v 0.10240000 0.04615571 0.01386927
v 0.11040000 0.04615571 0.01386927
v 0.10240000 0.04617279 0.01373953
v 0.11040000 0.04617279 0.01373953
v 0.10240000 0.04620111 0.01361177
v 0.11040000 0.04620111 0.01361177
v 0.10240000 0.04624046 0.01348697
v 0.11040000 0.04624046 0.01348697
v 0.10240000 0.04629054 0.01336607
v 0.11040000 0.04629054 0.01336607
v 0.10240000 0.04635096 0.01325000
v 0.11040000 0.04635096 0.01325000
v 0.10240000 0.04642127 0.01313964
v 0.11040000 0.04642127 0.01313964
v 0.10240000 0.04650093 0.01303582
v 0.11040000 0.04650093 0.01303582
v 0.10240000 0.04658934 0.01293934
v 0.11040000 0.04658934 0.01293934
v 0.10240000 0.04668582 0.01285093
v 0.11040000 0.04668582 0.01285093
v 0.10240000 0.04678963 0.01277127
v 0.11040000 0.04678963 0.01277127
v 0.10240000 0.04690000 0.01270096
v 0.11040000 0.04690000 0.01270096
v 0.10240000 0.04701607 0.01264054
v 0.11040000 0.04701607 0.01264054
v 0.10240000 0.04713697 0.01259046
v 0.11040000 0.04713697 0.01259046
v 0.10240000 0.04726177 0.01255111
v 0.11040000 0.04726177 0.01255111
v 0.10240000 0.04738953 0.01252279
v 0.11040000 0.04738953 0.01252279
v 0.10240000 0.04751927 0.01250571
v 0.11040000 0.04751927 0.01250571
v 0.09840000 0.03449479 0.01099480
v 0.09840000 0.03325736 0.00975736
v 0.09840000 0.03424431 0.01126815
v 0.09840000 0.03290373 0.01014327
v 0.09840000 0.03401860 0.01156230
v 0.09840000 0.03258509 0.01055854
v 0.09840000 0.03381939 0.01187500
v 0.09840000 0.03230385 0.01100000
v 0.09840000 0.03364819 0.01220387
v 0.09840000 0.03206215 0.01146429
v 0.09840000 0.03350631 0.01254641
v 0.09840000 0.03186185 0.01194788
v 0.09840000 0.03339481 0.01290002
v 0.09840000 0.03170444 0.01244709
v 0.09840000 0.03331457 0.01326200
v 0.09840000 0.03159115 0.01295811
v 0.09840000 0.03326617 0.01362959
v 0.09840000 0.03152283 0.01347707
v 0.09840000 0.03325000 0.01400000
v 0.09840000 0.03150000 0.01400000
v 0.09840000 0.03326617 0.01437041
v 0.09840000 0.03152283 0.01452293
v 0.09840000 0.03331457 0.01473800
v 0.09840000 0.03159115 0.01504189
v 0.09840000 0.03339481 0.01509998
v 0.09840000 0.03170444 0.01555291
v 0.09840000 0.03350631 0.01545359
v 0.09840000 0.03186185 0.01605212
v 0.09840000 0.03364819 0.01579613
v 0.09840000 0.03206215 0.01653571
v 0.09840000 0.03381939 0.01612500
v 0.09840000 0.03230385 0.01700000
v 0.09840000 0.03401860 0.01643770
v 0.09840000 0.03258509 0.01744146
v 0.09840000 0.03424431 0.01673185
v 0.09840000 0.03290373 0.01785673
v 0.09840000 0.03449479 0.01700520
v 0.09840000 0.03325736 0.01824264
v 0.09840000 0.03476815 0.01725569
v 0.09840000 0.03364328 0.01859627
v 0.09840000 0.03506230 0.01748140
v 0.09840000 0.03405854 0.01891491
v 0.09840000 0.03537500 0.01768061
v 0.09840000 0.03450000 0.01919615
v 0.09840000 0.03570387 0.01785181
v 0.09840000 0.03496429 0.01943785
v 0.09840000 0.03604642 0.01799369
v 0.09840000 0.03544788 0.01963816
v 0.09840000 0.03640002 0.01810518
v 0.09840000 0.03594708 0.01979556
v 0.09840000 0.03676200 0.01818543
v 0.09840000 0.03645811 0.01990885
v 0.09840000 0.03712959 0.01823383
v 0.09840000 0.03697706 0.01997717
v 0.09840000 0.03750000 0.01825000
v 0.09840000 0.03750000 0.02000000
v 0.09840000 0.03787041 0.01823383
v 0.09840000 0.03802294 0.01997717
v 0.09840000 0.03823800 0.01818543
v 0.09840000 0.03854189 0.01990885
v 0.09840000 0.03859998 0.01810518
v 0.09840000 0.03905291 0.01979556
v 0.09840000 0.03895359 0.01799369
v 0.09840000 0.03955212 0.01963816
v 0.09840000 0.03929613 0.01785181
v 0.09840000 0.04003571 0.01943785
v 0.09840000 0.03962500 0.01768061
v 0.09840000 0.04050000 0.01919615
v 0.09840000 0.03993770 0.01748140
v 0.09840000 0.04094146 0.01891491
v 0.09840000 0.04023185 0.01725569
v 0.09840000 0.04135673 0.01859627
v 0.09840000 0.04050520 0.01700520
v 0.09840000 0.04174264 0.01824264
v 0.09840000 0.04075569 0.01673185
v 0.09840000 0.04209627 0.01785673
v 0.09840000 0.04098140 0.01643770
v 0.09840000 0.04241491 0.01744146
v 0.09840000 0.04118061 0.01612500
v 0.09840000 0.04269615 0.01700000
v 0.09840000 0.04135181 0.01579613
v 0.09840000 0.04293784 0.01653571
v 0.09840000 0.04149370 0.01545359
v 0.09840000 0.04313816 0.01605212
v 0.09840000 0.04160519 0.01509998
v 0.09840000 0.04329555 0.01555291
v 0.09840000 0.04168543 0.01473800
v 0.09840000 0.04340885 0.01504189
v 0.09840000 0.04173383 0.01437041
v 0.09840000 0.04347717 0.01452293
v 0.09840000 0.04175000 0.01400000
v 0.09840000 0.04350000 0.01400000
v 0.09840000 0.04173383 0.01362959
v 0.09840000 0.04347717 0.01347707
v 0.09840000 0.04168543 0.01326200
v 0.09840000 0.04340885 0.01295811
v 0.09840000 0.04160519 0.01290002
v 0.09840000 0.04329555 0.01244709
v 0.09840000 0.04149370 0.01254641
v 0.09840000 0.04313816 0.01194788
v 0.09840000 0.04135181 0.01220387
v 0.09840000 0.04293784 0.01146429
v 0.09840000 0.04118061 0.01187500
v 0.09840000 0.04269615 0.01100000
v 0.09840000 0.04098140 0.01156230
v 0.09840000 0.04241491 0.01055854
v 0.09840000 0.04075569 0.01126815
v 0.09840000 0.04209627 0.01014327
v 0.09840000 0.04050520 0.01099480
v 0.09840000 0.04174264 0.00975736
v 0.09840000 0.04023185 0.01074431
v 0.09840000 0.04135673 0.00940373
v 0.09840000 0.03993770 0.01051860
v 0.09840000 0.04094146 0.00908509
v 0.09840000 0.03962500 0.01031939
v 0.09840000 0.04050000 0.00880385
v 0.09840000 0.03929613 0.01014819
v 0.09840000 0.04003571 0.00856215
v 0.09840000 0.03895359 0.01000631
v 0.09840000 0.03955212 0.00836184
v 0.09840000 0.03859998 0.00989482
v 0.09840000 0.03905291 0.00820445
v 0.09840000 0.03823800 0.00981457
v 0.09840000 0.03854189 0.00809115
v 0.09840000 0.03787041 0.00976617
v 0.09840000 0.03802294 0.00802283
v 0.09840000 0.03750000 0.00975000
v 0.09840000 0.03750000 0.00800000
v 0.09840000 0.03712959 0.00976617
v 0.09840000 0.03697706 0.00802283
v 0.09840000 0.03676200 0.00981457
v 0.09840000 0.03645811 0.00809115
v 0.09840000 0.03640002 0.00989482
v 0.09840000 0.03594708 0.00820445
v 0.09840000 0.03604642 0.01000631
v 0.09840000 0.03544788 0.00836184
v 0.09840000 0.03570387 0.01014819
v 0.09840000 0.03496429 0.00856215
v 0.09840000 0.03537500 0.01031939
v 0.09840000 0.03450000 0.00880385
v 0.09840000 0.03506230 0.01051860
v 0.09840000 0.03405854 0.00908509
v 0.09840000 0.03476815 0.01074431
v 0.09840000 0.03364328 0.00940373
v 0.11040000 0.03929613 0.01014819
v 0.11040000 0.05350000 0.00700000
v 0.11040000 0.05350000 0.02100000
v 0.11040000 0.03895359 0.01000631
v 0.11040000 0.04160519 0.01290002
v 0.11040000 0.04149370 0.01254641
v 0.11040000 0.04023185 0.01074431
v 0.11040000 0.03993770 0.01051860
v 0.11040000 0.03962500 0.01031939
v 0.11040000 0.03962500 0.01768061
v 0.11040000 0.03993770 0.01748140
v 0.11040000 0.04023185 0.01725569
v 0.11040000 0.04149370 0.01545359
v 0.11040000 0.04160519 0.01509998
v 0.11040000 0.04168543 0.01473800
v 0.11040000 0.04135181 0.01220387
v 0.11040000 0.04118061 0.01187500
v 0.11040000 0.04098140 0.01156230
v 0.11040000 0.04075569 0.01126815
v 0.11040000 0.04050520 0.01099480
v 0.11040000 0.04050520 0.01700520
v 0.11040000 0.04075569 0.01673185
v 0.11040000 0.04098140 0.01643770
v 0.11040000 0.04173383 0.01437041
v 0.11040000 0.04175000 0.01400000
v 0.11040000 0.04173383 0.01362959
v 0.11040000 0.04168543 0.01326200
v 0.11040000 0.04118061 0.01612500
v 0.11040000 0.04135181 0.01579613
v 0.11040000 0.03823800 0.00981457
v 0.11040000 0.03859998 0.00989482
v 0.11040000 0.03326617 0.01437041
v 0.11040000 0.03331457 0.01473800
v 0.11040000 0.02150000 0.02100000
v 0.11040000 0.03339481 0.01509998
v 0.11040000 0.03350631 0.01545359
v 0.11040000 0.03364819 0.01579613
v 0.11040000 0.03381939 0.01612500
v 0.11040000 0.03401860 0.01643770
v 0.11040000 0.02150000 0.00700000
v 0.11040000 0.03401860 0.01156230
v 0.11040000 0.03381939 0.01187500
v 0.11040000 0.03929613 0.01785181
v 0.11040000 0.03676200 0.00981457
v 0.11040000 0.03640002 0.00989482
v 0.11040000 0.03604642 0.01000631
v 0.11040000 0.03570387 0.01014819
v 0.11040000 0.03364819 0.01220387
v 0.11040000 0.03350631 0.01254641
v 0.11040000 0.03339481 0.01290002
v 0.11040000 0.03331457 0.01326200
v 0.11040000 0.03326617 0.01362959
v 0.11040000 0.03325000 0.01400000
v 0.11040000 0.03424431 0.01673185
v 0.11040000 0.03449479 0.01700520
v 0.11040000 0.03476815 0.01725569
v 0.11040000 0.03787041 0.00976617
v 0.11040000 0.03750000 0.00975000
v 0.11040000 0.03712959 0.00976617
v 0.11040000 0.03537500 0.01031939
v 0.11040000 0.03506230 0.01051860
v 0.11040000 0.03476815 0.01074431
v 0.11040000 0.03895359 0.01799369
v 0.11040000 0.03506230 0.01748140
v 0.11040000 0.03537500 0.01768061
v 0.11040000 0.03570387 0.01785181
v 0.11040000 0.03449479 0.01099480
v 0.11040000 0.03424431 0.01126815
v 0.11040000 0.03604642 0.01799369
v 0.11040000 0.03640002 0.01810518
v 0.11040000 0.03676200 0.01818543
v 0.11040000 0.03787041 0.01823383
v 0.11040000 0.03750000 0.01825000
v 0.11040000 0.03712959 0.01823383
v 0.11040000 0.03859998 0.01810518
v 0.11040000 0.03823800 0.01818543
v 0.10240000 0.05350000 0.00700000
v 0.10240000 0.05350000 0.02100000
v 0.10240000 0.02150000 0.02100000
v 0.10240000 0.02150000 0.00700000
v 0.10420002 0.02899987 0.02100000
v 0.10420002 0.02899987 0.00700000
v 0.10420573 0.02913061 0.02100000
v 0.10420573 0.02913061 0.00700000
v 0.10422280 0.02926034 0.02100000
v 0.10422280 0.02926034 0.00700000
v 0.10425113 0.02938810 0.02100000
v 0.10425113 0.02938810 0.00700000
v 0.10429048 0.02951290 0.02100000
v 0.10429048 0.02951290 0.00700000
v 0.10434055 0.02963380 0.02100000
v 0.10434055 0.02963380 0.00700000
v 0.10440098 0.02974987 0.02100000
v 0.10440098 0.02974987 0.00700000
v 0.10447129 0.02986024 0.02100000
v 0.10447129 0.02986024 0.00700000
v 0.10455095 0.02996405 0.02100000
v 0.10455095 0.02996405 0.00700000
v 0.10463936 0.03006053 0.02100000
v 0.10463936 0.03006053 0.00700000
v 0.10473584 0.03014894 0.02100000
v 0.10473584 0.03014894 0.00700000
v 0.10483965 0.03022860 0.02100000
v 0.10483965 0.03022860 0.00700000
v 0.10495002 0.03029891 0.02100000
v 0.10495002 0.03029891 0.00700000
v 0.10506609 0.03035933 0.02100000
v 0.10506609 0.03035933 0.00700000
v 0.10518699 0.03040941 0.02100000
v 0.10518699 0.03040941 0.00700000
v 0.10531179 0.03044876 0.02100000
v 0.10531179 0.03044876 0.00700000
v 0.10543954 0.03047708 0.02100000
v 0.10543954 0.03047708 0.00700000
v 0.10556928 0.03049416 0.02100000
v 0.10556928 0.03049416 0.00700000
v 0.10570002 0.03049987 0.02100000
v 0.10570002 0.03049987 0.00700000
v 0.10583075 0.03049416 0.02100000
v 0.10583075 0.03049416 0.00700000
v 0.10596049 0.03047708 0.02100000
v 0.10596049 0.03047708 0.00700000
v 0.10608824 0.03044876 0.02100000
v 0.10608824 0.03044876 0.00700000
v 0.10621305 0.03040941 0.02100000
v 0.10621305 0.03040941 0.00700000
v 0.10633395 0.03035933 0.02100000
v 0.10633395 0.03035933 0.00700000
v 0.10645002 0.03029891 0.02100000
v 0.10645002 0.03029891 0.00700000
v 0.10656038 0.03022860 0.02100000
v 0.10656038 0.03022860 0.00700000
v 0.10666420 0.03014894 0.02100000
v 0.10666420 0.03014894 0.00700000
v 0.10676068 0.03006053 0.02100000
v 0.10676068 0.03006053 0.00700000
v 0.10684908 0.02996405 0.02100000
v 0.10684908 0.02996405 0.00700000
v 0.10692874 0.02986024 0.02100000
v 0.10692874 0.02986024 0.00700000
v 0.10699905 0.02974987 0.02100000
v 0.10699905 0.02974987 0.00700000
v 0.10705948 0.02963380 0.02100000
v 0.10705948 0.02963380 0.00700000
v 0.10710955 0.02951290 0.02100000
v 0.10710955 0.02951290 0.00700000
v 0.10714891 0.02938810 0.02100000
v 0.10714891 0.02938810 0.00700000
v 0.10717723 0.02926034 0.02100000
v 0.10717723 0.02926034 0.00700000
v 0.10719431 0.02913061 0.02100000
v 0.10719431 0.02913061 0.00700000
v 0.10720002 0.02899987 0.02100000
v 0.10720002 0.02899987 0.00700000
v 0.10719431 0.02886914 0.02100000
v 0.10719431 0.02886914 0.00700000
v 0.10717723 0.02873940 0.02100000
v 0.10717723 0.02873940 0.00700000
v 0.10714891 0.02861164 0.02100000
v 0.10714891 0.02861164 0.00700000
v 0.10710955 0.02848684 0.02100000
v 0.10710955 0.02848684 0.00700000
v 0.10705948 0.02836594 0.02100000
v 0.10705948 0.02836594 0.00700000
v 0.10699905 0.02824987 0.02100000
v 0.10699905 0.02824987 0.00700000
v 0.10692874 0.02813951 0.02100000
v 0.10692874 0.02813951 0.00700000
v 0.10684908 0.02803569 0.02100000
v 0.10684908 0.02803569 0.00700000
v 0.10676068 0.02793921 0.02100000
v 0.10676068 0.02793921 0.00700000
v 0.10666420 0.02785080 0.02100000
v 0.10666420 0.02785080 0.00700000
v 0.10656038 0.02777114 0.02100000
v 0.10656038 0.02777114 0.00700000
v 0.10645002 0.02770083 0.02100000
v 0.10645002 0.02770083 0.00700000
v 0.10633395 0.02764041 0.02100000
v 0.10633395 0.02764041 0.00700000
v 0.10621305 0.02759033 0.02100000
v 0.10621305 0.02759033 0.00700000
v 0.10608824 0.02755098 0.02100000
v 0.10608824 0.02755098 0.00700000
v 0.10596049 0.02752266 0.02100000
v 0.10596049 0.02752266 0.00700000
v 0.10583075 0.02750558 0.02100000
v 0.10583075 0.02750558 0.00700000
v 0.10570002 0.02749987 0.02100000
v 0.10570002 0.02749987 0.00700000
v 0.10556928 0.02750558 0.02100000
v 0.10556928 0.02750558 0.00700000
v 0.10543954 0.02752266 0.02100000
v 0.10543954 0.02752266 0.00700000
v 0.10531179 0.02755098 0.02100000
v 0.10531179 0.02755098 0.00700000
v 0.10518699 0.02759033 0.02100000
v 0.10518699 0.02759033 0.00700000
v 0.10506609 0.02764041 0.02100000
v 0.10506609 0.02764041 0.00700000
v 0.10495002 0.02770083 0.02100000
v 0.10495002 0.02770083 0.00700000
v 0.10483965 0.02777114 0.02100000
v 0.10483965 0.02777114 0.00700000
v 0.10473584 0.02785080 0.02100000
v 0.10473584 0.02785080 0.00700000
v 0.10463936 0.02793921 0.02100000
v 0.10463936 0.02793921 0.00700000
v 0.10455095 0.02803569 0.02100000
v 0.10455095 0.02803569 0.00700000
v 0.10447129 0.02813951 0.02100000
v 0.10447129 0.02813951 0.00700000
v 0.10440098 0.02824987 0.02100000
v 0.10440098 0.02824987 0.00700000
v 0.10434055 0.02836594 0.02100000
v 0.10434055 0.02836594 0.00700000
v 0.10429048 0.02848684 0.02100000
v 0.10429048 0.02848684 0.00700000
v 0.10425113 0.02861164 0.02100000
v 0.10425113 0.02861164 0.00700000
v 0.10422280 0.02873940 0.02100000
v 0.10422280 0.02873940 0.00700000
v 0.10420573 0.02886914 0.02100000
v 0.10420573 0.02886914 0.00700000
v 0.10240000 0.03750000 0.00800000
v 0.10240000 0.03802294 0.00802283
v 0.10240000 0.03854189 0.00809115
v 0.10240000 0.03905291 0.00820445
v 0.10240000 0.03955212 0.00836184
v 0.10240000 0.04003571 0.00856215
v 0.10240000 0.04050000 0.00880385
v 0.10240000 0.04094146 0.00908509
v 0.10240000 0.04135673 0.00940373
v 0.10240000 0.04174264 0.00975736
v 0.10240000 0.04209627 0.01014327
v 0.10240000 0.04241491 0.01055854
v 0.10240000 0.04269615 0.01100000
v 0.10240000 0.04293784 0.01146429
v 0.10240000 0.04313816 0.01194788
v 0.10240000 0.04329555 0.01244709
v 0.10240000 0.04340885 0.01295811
v 0.10240000 0.04347717 0.01347707
v 0.10240000 0.04350000 0.01400000
v 0.10240000 0.04347717 0.01452293
v 0.10240000 0.04340885 0.01504189
v 0.10240000 0.04329555 0.01555291
v 0.10240000 0.04313816 0.01605212
v 0.10240000 0.04293784 0.01653571
v 0.10240000 0.04269615 0.01700000
v 0.10240000 0.04241491 0.01744146
v 0.10240000 0.04209627 0.01785673
v 0.10240000 0.04174264 0.01824264
v 0.10240000 0.04135673 0.01859627
v 0.10240000 0.04094146 0.01891491
v 0.10240000 0.04050000 0.01919615
v 0.10240000 0.04003571 0.01943785
v 0.10240000 0.03955212 0.01963816
v 0.10240000 0.03905291 0.01979556
v 0.10240000 0.03854189 0.01990885
v 0.10240000 0.03802294 0.01997717
v 0.10240000 0.03750000 0.02000000
v 0.10240000 0.03697706 0.01997717
v 0.10240000 0.03645811 0.01990885
v 0.10240000 0.03594708 0.01979556
v 0.10240000 0.03544788 0.01963816
v 0.10240000 0.03496429 0.01943785
v 0.10240000 0.03450000 0.01919615
v 0.10240000 0.03405854 0.01891491
v 0.10240000 0.03364328 0.01859627
v 0.10240000 0.03325736 0.01824264
v 0.10240000 0.03290373 0.01785673
v 0.10240000 0.03258509 0.01744146
v 0.10240000 0.03230385 0.01700000
v 0.10240000 0.03206215 0.01653571
v 0.10240000 0.03186185 0.01605212
v 0.10240000 0.03170444 0.01555291
v 0.10240000 0.03159115 0.01504189
v 0.10240000 0.03152283 0.01452293
v 0.10240000 0.03150000 0.01400000
v 0.10240000 0.03152283 0.01347707
v 0.10240000 0.03159115 0.01295811
v 0.10240000 0.03170444 0.01244709
v 0.10240000 0.03186185 0.01194788
v 0.10240000 0.03206215 0.01146429
v 0.10240000 0.03230385 0.01100000
v 0.10240000 0.03258509 0.01055854
v 0.10240000 0.03290373 0.01014327
v 0.10240000 0.03325736 0.00975736
v 0.10240000 0.03364328 0.00940373
v 0.10240000 0.03405854 0.00908509
v 0.10240000 0.03450000 0.00880385
v 0.10240000 0.03496429 0.00856215
v 0.10240000 0.03544788 0.00836184
v 0.10240000 0.03594708 0.00820445
v 0.10240000 0.03645811 0.00809115
v 0.10240000 0.03697706 0.00802283
f 1 2 3
f 2 4 3
f 3 4 5
f 4 6 5
f 5 6 7
f 6 8 7
f 7 8 9
f 8 10 9
f 9 10 11
f 10 12 11
f 11 12 13
f 12 14 13
f 13 14 15
f 14 16 15
f 15 16 17
f 16 18 17
f 17 18 19
f 18 20 19
f 19 20 21
f 20 22 21
f 21 22 23
f 22 24 23
f 23 24 25
f 24 26 25
f 25 26 27
f 26 28 27
f 27 28 29
f 28 30 29
f 29 30 31
f 30 32 31
f 31 32 33
f 32 34 33
f 33 34 35
f 34 36 35
f 35 36 37
f 36 38 37
f 37 38 39
f 38 40 39
f 39 40 41
f 40 42 41
f 41 42 43
f 42 44 43
f 43 44 45
f 44 46 45
f 45 46 47
f 46 48 47
f 47 48 49
f 48 50 49
f 49 50 51
f 50 52 51
f 51 52 53
f 52 54 53
f 53 54 55
f 54 56 55
f 55 56 57
f 56 58 57
f 57 58 59
f 58 60 59
f 59 60 61
f 60 62 61
f 61 62 63
f 62 64 63
f 63 64 65
f 64 66 65
f 65 66 67
f 66 68 67
f 67 68 69
f 68 70 69
f 69 70 71
f 70 72 71
f 71 72 73
f 72 74 73
f 73 74 75
f 74 76 75
f 75 76 77
f 76 78 77
f 77 78 79
f 78 80 79
f 79 80 81
f 80 82 81
f 81 82 83
f 82 84 83
f 83 84 85
f 84 86 85
f 85 86 87
f 86 88 87
f 87 88 89
f 88 90 89
f 89 90 91
f 90 92 91
f 91 92 93
f 92 94 93
f 93 94 95
f 94 96 95
f 95 96 97
f 96 98 97
f 97 98 99
f 98 100 99
f 99 100 101
f 100 102 101
f 101 102 103
f 102 104 103
f 103 104 105
f 104 106 105
f 105 106 107
f 106 108 107
f 107 108 109
f 108 110 109
f 109 110 111
f 110 112 111
f 111 112 113
f 112 114 113
f 113 114 115
f 114 116 115
f 115 116 117
f 116 118 117
f 117 118 119
f 118 120 119
f 119 120 121
f 120 122 121
f 121 122 123
f 122 124 123
f 123 124 125
f 124 126 125
f 125 126 127
f 126 128 127
f 127 128 129
f 128 130 129
f 129 130 131
f 130 132 131
f 131 132 133
f 132 134 133
f 133 134 135
f 134 136 135
f 135 136 137
f 136 138 137
f 137 138 139
f 138 140 139
f 139 140 141
f 140 142 141
f 141 142 143
f 142 144 143
f 143 144 1
f 144 2 1
f 145 146 147
f 146 148 147
f 147 148 149
f 148 150 149
f 149 150 151
f 150 152 151
f 151 152 153
f 152 154 153
f 153 154 155
f 154 156 155
f 155 156 157
f 156 158 157
f 157 158 159
f 158 160 159
f 159 160 161
f 160 162 161
f 161 162 163
f 162 164 163
f 163 164 165
f 164 166 165
f 165 166 167
f 166 168 167
f 167 168 169
f 168 170 169
f 169 170 171
f 170 172 171
f 171 172 173
f 172 174 173
f 173 174 175
f 174 176 175
f 175 176 177
f 176 178 177
f 177 178 179
f 178 180 179
f 179 180 181
f 180 182 181
f 181 182 183
f 182 184 183
f 183 184 185
f 184 186 185
f 185 186 187
f 186 188 187
f 187 188 189
f 188 190 189
f 189 190 191
f 190 192 191
f 191 192 193
f 192 194 193
f 193 194 195
f 194 196 195
f 195 196 197
f 196 198 197
f 197 198 199
f 198 200 199
f 199 200 201
f 200 202 201
f 201 202 203
f 202 204 203
f 203 204 205
f 204 206 205
f 205 206 207
f 206 208 207
f 207 208 209
f 208 210 209
f 209 210 211
f 210 212 211
f 211 212 213
f 212 214 213
f 213 214 215
f 214 216 215
f 215 216 217
f 216 218 217
f 217 218 219
f 218 220 219
f 219 220 221
f 220 222 221
f 221 222 223
f 222 224 223
f 223 224 225
f 224 226 225
f 225 226 227
f 226 228 227
f 227 228 229
f 228 230 229
f 229 230 231
f 230 232 231
f 231 232 233
f 232 234 233
f 233 234 235
f 234 236 235
f 235 236 237
f 236 238 237
f 237 238 239
f 238 240 239
f 239 240 241
f 240 242 241
f 241 242 243
f 242 244 243
f 243 244 245
f 244 246 245
f 245 246 247
f 246 248 247
f 247 248 249
f 248 250 249
f 249 250 251
f 250 252 251
f 251 252 253
f 252 254 253
f 253 254 255
f 254 256 255
f 255 256 257
f 256 258 257
f 257 258 259
f 258 260 259
f 259 260 261
f 260 262 261
f 261 262 263
f 262 264 263
f 263 264 265
f 264 266 265
f 265 266 267
f 266 268 267
f 267 268 269
f 268 270 269
f 269 270 271
f 270 272 271
f 271 272 273
f 272 274 273
f 273 274 275
f 274 276 275
f 275 276 277
f 276 278 277
f 277 278 279
f 278 280 279
f 279 280 281
f 280 282 281
f 281 282 283
f 282 284 283
f 283 284 285
f 284 286 285
f 285 286 287
f 286 288 287
f 287 288 145
f 288 146 145
f 122 120 289
f 28 26 290
f 26 24 290
f 24 22 290
f 290 22 20
f 46 44 291
f 44 42 291
f 20 18 290
f 18 16 290
f 290 16 14
f 136 134 292
f 134 132 292
f 292 132 130
f 293 294 120
f 295 296 120
f 296 297 120
f 120 297 289
f 114 112 298
f 112 110 298
f 298 110 108
f 42 40 291
f 40 38 291
f 291 38 290
f 38 36 290
f 290 36 34
f 34 32 290
f 32 30 290
f 290 30 28
f 130 128 292
f 128 126 292
f 292 126 289
f 126 124 289
f 289 124 122
f 114 298 116
f 298 299 116
f 116 299 300
f 301 302 116
f 302 303 116
f 294 304 120
f 304 305 120
f 120 305 306
f 306 307 120
f 307 308 120
f 120 308 295
f 8 6 290
f 6 4 290
f 290 4 2
f 300 309 116
f 309 310 116
f 116 310 311
f 303 312 116
f 312 313 116
f 116 313 118
f 313 314 118
f 118 314 120
f 314 315 120
f 120 315 293
f 14 12 290
f 12 10 290
f 290 10 8
f 2 144 290
f 144 142 290
f 290 142 140
f 311 316 116
f 316 317 116
f 116 317 301
f 318 290 319
f 290 140 319
f 319 140 292
f 140 138 292
f 292 138 136
f 320 321 322
f 321 323 322
f 322 323 324
f 324 325 322
f 325 326 322
f 322 326 327
f 62 60 291
f 60 58 291
f 328 329 330
f 100 98 331
f 58 56 291
f 56 54 291
f 291 54 52
f 332 333 328
f 333 334 328
f 328 334 335
f 330 336 328
f 336 337 328
f 328 337 338
f 338 339 328
f 339 340 328
f 328 340 322
f 340 341 322
f 322 341 320
f 327 342 322
f 342 343 322
f 322 343 344
f 108 106 298
f 106 104 298
f 298 104 331
f 104 102 331
f 331 102 100
f 52 50 291
f 50 48 291
f 291 48 46
f 318 345 290
f 345 346 290
f 290 346 328
f 346 347 328
f 328 347 332
f 335 348 328
f 348 349 328
f 328 349 350
f 98 96 331
f 96 94 331
f 331 94 351
f 94 92 351
f 351 92 90
f 90 88 351
f 88 86 351
f 351 86 84
f 344 352 322
f 352 353 322
f 322 353 354
f 350 355 328
f 355 356 328
f 328 356 329
f 354 357 322
f 357 358 322
f 322 358 359
f 80 78 291
f 360 291 361
f 291 322 361
f 361 322 362
f 322 359 362
f 68 291 70
f 291 72 70
f 68 66 291
f 66 64 291
f 291 64 62
f 78 76 291
f 76 74 291
f 291 74 72
f 84 82 351
f 82 80 351
f 351 80 363
f 80 291 363
f 363 291 364
f 291 360 364
f 365 366 290
f 366 291 290
f 367 368 322
f 368 328 322
f 369 370 371
f 370 372 371
f 371 372 373
f 372 374 373
f 373 374 375
f 374 376 375
f 375 376 377
f 376 378 377
f 377 378 379
f 378 380 379
f 379 380 381
f 380 382 381
f 381 382 383
f 382 384 383
f 383 384 385
f 384 386 385
f 385 386 387
f 386 388 387
f 387 388 389
f 388 390 389
f 389 390 391
f 390 392 391
f 391 392 393
f 392 394 393
f 393 394 395
f 394 396 395
f 395 396 397
f 396 398 397
f 397 398 399
f 398 400 399
f 399 400 401
f 400 402 401
f 401 402 403
f 402 404 403
f 403 404 405
f 404 406 405
f 405 406 407
f 406 408 407
f 407 408 409
f 408 410 409
f 409 410 411
f 410 412 411
f 411 412 413
f 412 414 413
f 413 414 415
f 414 416 415
f 415 416 417
f 416 418 417
f 417 418 419
f 418 420 419
f 419 420 421
f 420 422 421
f 421 422 423
f 422 424 423
f 423 424 425
f 424 426 425
f 425 426 427
f 426 428 427
f 427 428 429
f 428 430 429
f 429 430 431
f 430 432 431
f 431 432 433
f 432 434 433
f 433 434 435
f 434 436 435
f 435 436 437
f 436 438 437
f 437 438 439
f 438 440 439
f 439 440 441
f 440 442 441
f 441 442 443
f 442 444 443
f 443 444 445
f 444 446 445
f 445 446 447
f 446 448 447
f 447 448 449
f 448 450 449
f 449 450 451
f 450 452 451
f 451 452 453
f 452 454 453
f 453 454 455
f 454 456 455
f 455 456 457
f 456 458 457
f 457 458 459
f 458 460 459
f 459 460 461
f 460 462 461
f 461 462 463
f 462 464 463
f 463 464 465
f 464 466 465
f 465 466 467
f 466 468 467
f 467 468 469
f 468 470 469
f 469 470 471
f 470 472 471
f 471 472 473
f 472 474 473
f 473 474 475
f 474 476 475
f 475 476 477
f 476 478 477
f 477 478 479
f 478 480 479
f 479 480 481
f 480 482 481
f 481 482 483
f 482 484 483
f 483 484 485
f 484 486 485
f 485 486 487
f 486 488 487
f 487 488 489
f 488 490 489
f 489 490 491
f 490 492 491
f 491 492 493
f 492 494 493
f 493 494 495
f 494 496 495
f 495 496 497
f 496 498 497
f 497 498 499
f 498 500 499
f 499 500 501
f 500 502 501
f 501 502 503
f 502 504 503
f 503 504 505
f 504 506 505
f 505 506 507
f 506 508 507
f 507 508 509
f 508 510 509
f 509 510 511
f 510 512 511
f 511 512 369
f 512 370 369
f 512 510 368
f 510 508 368
f 368 508 506
f 496 368 498
f 368 500 498
f 506 504 368
f 504 502 368
f 368 502 500
f 386 384 365
f 374 372 368
f 372 370 368
f 368 370 512
f 458 456 328
f 456 454 328
f 374 368 376
f 368 365 376
f 376 365 378
f 464 462 328
f 462 460 328
f 328 460 458
f 454 452 328
f 452 450 328
f 328 450 448
f 424 290 426
f 290 428 426
f 384 382 365
f 382 380 365
f 365 380 378
f 448 446 328
f 446 444 328
f 328 444 442
f 442 440 328
f 440 438 328
f 328 438 290
f 438 436 290
f 290 436 434
f 434 432 290
f 432 430 290
f 290 430 428
f 392 390 365
f 390 388 365
f 365 388 386
f 474 472 328
f 472 470 328
f 496 494 368
f 494 492 368
f 368 492 490
f 470 468 328
f 468 466 328
f 328 466 464
f 368 484 482
f 424 422 290
f 422 420 290
f 290 420 418
f 404 402 365
f 402 400 365
f 365 400 398
f 398 396 365
f 396 394 365
f 365 394 392
f 490 488 368
f 488 486 368
f 368 486 484
f 482 480 368
f 480 478 368
f 368 478 328
f 478 476 328
f 328 476 474
f 412 410 290
f 410 408 290
f 290 408 365
f 408 406 365
f 365 406 404
f 418 416 290
f 416 414 290
f 290 414 412
f 271 346 269
f 346 345 269
f 269 345 267
f 345 318 267
f 267 318 265
f 318 319 265
f 265 319 263
f 319 292 263
f 263 292 261
f 292 289 261
f 261 289 259
f 289 297 259
f 259 297 257
f 297 296 257
f 257 296 255
f 296 295 255
f 255 295 253
f 295 308 253
f 253 308 251
f 308 307 251
f 251 307 249
f 307 306 249
f 249 306 247
f 306 305 247
f 247 305 245
f 305 304 245
f 245 304 243
f 304 294 243
f 243 294 241
f 294 293 241
f 241 293 239
f 293 315 239
f 239 315 237
f 315 314 237
f 237 314 235
f 314 313 235
f 235 313 233
f 313 312 233
f 233 312 231
f 312 303 231
f 231 303 229
f 303 302 229
f 229 302 227
f 302 301 227
f 227 301 225
f 301 317 225
f 225 317 223
f 317 316 223
f 223 316 221
f 316 311 221
f 221 311 219
f 311 310 219
f 219 310 217
f 310 309 217
f 217 309 215
f 309 300 215
f 215 300 213
f 300 299 213
f 213 299 211
f 299 298 211
f 211 298 209
f 298 331 209
f 209 331 207
f 331 351 207
f 207 351 205
f 351 363 205
f 205 363 203
f 363 364 203
f 203 364 201
f 364 360 201
f 201 360 199
f 360 361 199
f 199 361 197
f 361 362 197
f 197 362 195
f 362 359 195
f 195 359 193
f 359 358 193
f 193 358 191
f 358 357 191
f 191 357 189
f 357 354 189
f 189 354 187
f 354 353 187
f 187 353 185
f 353 352 185
f 185 352 183
f 352 344 183
f 183 344 181
f 344 343 181
f 181 343 179
f 343 342 179
f 179 342 177
f 342 327 177
f 177 327 175
f 327 326 175
f 175 326 173
f 326 325 173
f 173 325 171
f 325 324 171
f 171 324 169
f 324 323 169
f 169 323 167
f 323 321 167
f 167 321 165
f 321 320 165
f 165 320 163
f 320 341 163
f 163 341 161
f 341 340 161
f 161 340 159
f 340 339 159
f 159 339 157
f 339 338 157
f 157 338 155
f 338 337 155
f 155 337 153
f 337 336 153
f 153 336 151
f 336 330 151
f 151 330 149
f 330 329 149
f 149 329 147
f 329 356 147
f 147 356 145
f 356 355 145
f 145 355 287
f 355 350 287
f 287 350 285
f 350 349 285
f 285 349 283
f 349 348 283
f 283 348 281
f 348 335 281
f 281 335 279
f 335 334 279
f 279 334 277
f 334 333 277
f 277 333 275
f 333 332 275
f 275 332 273
f 332 347 273
f 273 347 271
f 347 346 271
f 513 270 514
f 270 268 514
f 514 268 515
f 268 266 515
f 515 266 516
f 266 264 516
f 516 264 517
f 264 262 517
f 517 262 518
f 262 260 518
f 518 260 519
f 260 258 519
f 519 258 520
f 258 256 520
f 520 256 521
f 256 254 521
f 521 254 522
f 254 252 522
f 522 252 523
f 252 250 523
f 523 250 524
f 250 248 524
f 524 248 525
f 248 246 525
f 525 246 526
f 246 244 526
f 526 244 527
f 244 242 527
f 527 242 528
f 242 240 528
f 528 240 529
f 240 238 529
f 529 238 530
f 238 236 530
f 530 236 531
f 236 234 531
f 531 234 532
f 234 232 532
f 532 232 533
f 232 230 533
f 533 230 534
f 230 228 534
f 534 228 535
f 228 226 535
f 535 226 536
f 226 224 536
f 536 224 537
f 224 222 537
f 537 222 538
f 222 220 538
f 538 220 539
f 220 218 539
f 539 218 540
f 218 216 540
f 540 216 541
f 216 214 541
f 541 214 542
f 214 212 542
f 542 212 543
f 212 210 543
f 543 210 544
f 210 208 544
f 544 208 545
f 208 206 545
f 545 206 546
f 206 204 546
f 546 204 547
f 204 202 547
f 547 202 548
f 202 200 548
f 548 200 549
f 200 198 549
f 549 198 550
f 198 196 550
f 550 196 551
f 196 194 551
f 551 194 552
f 194 192 552
f 552 192 553
f 192 190 553
f 553 190 554
f 190 188 554
f 554 188 555
f 188 186 555
f 555 186 556
f 186 184 556
f 556 184 557
f 184 182 557
f 557 182 558
f 182 180 558
f 558 180 559
f 180 178 559
f 559 178 560
f 178 176 560
f 560 176 561
f 176 174 561
f 561 174 562
f 174 172 562
f 562 172 563
f 172 170 563
f 563 170 564
f 170 168 564
f 564 168 565
f 168 166 565
f 565 166 566
f 166 164 566
f 566 164 567
f 164 162 567
f 567 162 568
f 162 160 568
f 568 160 569
f 160 158 569
f 569 158 570
f 158 156 570
f 570 156 571
f 156 154 571
f 571 154 572
f 154 152 572
f 572 152 573
f 152 150 573
f 573 150 574
f 150 148 574
f 574 148 575
f 148 146 575
f 575 146 576
f 146 288 576
f 576 288 577
f 288 286 577
f 577 286 578
f 286 284 578
f 578 284 579
f 284 282 579
f 579 282 580
f 282 280 580
f 580 280 581
f 280 278 581
f 581 278 582
f 278 276 582
f 582 276 583
f 276 274 583
f 583 274 584
f 274 272 584
f 584 272 513
f 272 270 513
f 443 445 322
f 445 447 322
f 322 447 449
f 437 439 322
f 439 441 322
f 322 441 443
f 459 322 457
f 322 455 457
f 437 322 435
f 322 291 435
f 435 291 433
f 449 451 322
f 451 453 322
f 322 453 455
f 491 493 367
f 493 495 367
f 367 495 497
f 497 499 367
f 499 501 367
f 367 501 503
f 503 505 367
f 505 507 367
f 367 507 509
f 459 461 322
f 461 463 322
f 322 463 465
f 377 366 375
f 366 373 375
f 387 366 385
f 366 383 385
f 425 427 291
f 377 379 366
f 379 381 366
f 366 381 383
f 465 467 322
f 467 469 322
f 322 469 471
f 419 421 291
f 421 423 291
f 291 423 425
f 427 429 291
f 429 431 291
f 291 431 433
f 479 481 367
f 481 483 367
f 367 483 485
f 509 511 367
f 511 369 367
f 367 369 366
f 369 371 366
f 366 371 373
f 387 389 366
f 389 391 366
f 366 391 393
f 471 473 322
f 473 475 322
f 322 475 367
f 475 477 367
f 367 477 479
f 485 487 367
f 487 489 367
f 367 489 491
f 366 399 401
f 393 395 366
f 395 397 366
f 366 397 399
f 407 291 405
f 291 366 405
f 405 366 403
f 366 401 403
f 407 409 291
f 409 411 291
f 291 411 413
f 413 415 291
f 415 417 291
f 291 417 419
f 45 47 366
f 573 574 368
f 105 107 532
f 39 41 366
f 41 43 366
f 366 43 45
f 53 55 366
f 91 93 542
f 521 522 115
f 522 523 115
f 115 523 524
f 21 23 365
f 23 25 365
f 31 33 365
f 33 35 365
f 365 35 366
f 35 37 366
f 366 37 39
f 55 57 366
f 57 59 366
f 366 59 61
f 542 93 541
f 532 107 531
f 107 109 531
f 531 109 530
f 524 525 115
f 525 526 115
f 115 526 527
f 367 366 549
f 25 27 365
f 27 29 365
f 365 29 31
f 549 550 367
f 550 551 367
f 367 551 552
f 552 553 367
f 553 554 367
f 367 554 555
f 569 570 368
f 47 49 366
f 49 51 366
f 366 51 53
f 61 63 366
f 63 65 366
f 366 65 67
f 67 69 366
f 69 71 366
f 366 71 73
f 543 81 83
f 527 528 115
f 528 529 115
f 115 529 113
f 529 530 113
f 113 530 111
f 530 109 111
f 555 556 367
f 556 557 367
f 367 557 558
f 570 571 368
f 571 572 368
f 368 572 573
f 115 117 521
f 117 119 521
f 521 119 121
f 543 544 366
f 544 545 366
f 366 545 546
f 95 97 537
f 367 561 562
f 546 547 366
f 547 548 366
f 366 548 549
f 83 85 543
f 85 87 543
f 543 87 542
f 87 89 542
f 542 89 91
f 537 538 95
f 538 539 95
f 95 539 93
f 539 540 93
f 93 540 541
f 105 532 103
f 532 533 103
f 103 533 101
f 533 534 101
f 101 534 99
f 534 535 99
f 99 535 97
f 535 536 97
f 97 536 537
f 558 559 367
f 559 560 367
f 367 560 561
f 121 123 521
f 123 125 521
f 521 125 520
f 125 127 520
f 520 127 129
f 73 75 366
f 75 77 366
f 366 77 543
f 77 79 543
f 543 79 81
f 562 563 367
f 563 564 367
f 367 564 565
f 565 566 367
f 566 567 367
f 367 567 368
f 567 568 368
f 368 568 569
f 574 575 368
f 575 576 368
f 368 576 577
f 137 139 519
f 15 17 365
f 17 19 365
f 365 19 21
f 577 578 368
f 578 579 368
f 368 579 580
f 129 131 520
f 131 133 520
f 520 133 519
f 133 135 519
f 519 135 137
f 580 581 368
f 581 582 368
f 368 582 583
f 3 5 365
f 5 7 365
f 365 7 9
f 583 584 368
f 584 513 368
f 368 513 365
f 513 514 365
f 514 515 365
f 365 515 516
f 516 517 365
f 517 518 365
f 365 518 519
f 9 11 365
f 11 13 365
f 365 13 15
f 139 141 519
f 141 143 519
f 519 143 365
f 143 1 365
f 365 1 3

