# https://github.com/mikedh/trimesh

o tm26_251_p02_w_top_aluminum_plate.stl
v 0.00030384 0.09672319 0.02670000
v 0.00030384 0.09672319 0.02540000
v 0.00007611 0.09499334 0.02540000
v 0.00007611 0.09499334 0.02670000
v 0.00000000 0.09325023 0.02540000
v 0.00000000 0.09325023 0.02670000
v 0.00725000 0.02500000 0.02670000
v 0.00725000 0.02500000 0.02540000
v 0.00725571 0.02513073 0.02670000
v 0.00725571 0.02513073 0.02540000
v 0.00727279 0.02526047 0.02670000
v 0.00727279 0.02526047 0.02540000
v 0.00730111 0.02538823 0.02670000
v 0.00730111 0.02538823 0.02540000
v 0.00734046 0.02551303 0.02670000
v 0.00734046 0.02551303 0.02540000
v 0.00739054 0.02563393 0.02670000
v 0.00739054 0.02563393 0.02540000
v 0.00745096 0.02575000 0.02670000
v 0.00745096 0.02575000 0.02540000
v 0.00752127 0.02586037 0.02670000
v 0.00752127 0.02586037 0.02540000
v 0.00760093 0.02596418 0.02670000
v 0.00760093 0.02596418 0.02540000
v 0.00768934 0.02606066 0.02670000
v 0.00768934 0.02606066 0.02540000
v 0.00778582 0.02614907 0.02670000
v 0.00778582 0.02614907 0.02540000
v 0.00788963 0.02622873 0.02670000
v 0.00788963 0.02622873 0.02540000
v 0.00800000 0.02629904 0.02670000
v 0.00800000 0.02629904 0.02540000
v 0.00811607 0.02635946 0.02670000
v 0.00811607 0.02635946 0.02540000
v 0.00823697 0.02640954 0.02670000
v 0.00823697 0.02640954 0.02540000
v 0.00836177 0.02644889 0.02670000
v 0.00836177 0.02644889 0.02540000
v 0.00848953 0.02647721 0.02670000
v 0.00848953 0.02647721 0.02540000
v 0.00861927 0.02649429 0.02670000
v 0.00861927 0.02649429 0.02540000
v 0.00875000 0.02650000 0.02670000
v 0.00875000 0.02650000 0.02540000
v 0.00888073 0.02649429 0.02670000
v 0.00888073 0.02649429 0.02540000
v 0.00901047 0.02647721 0.02670000
v 0.00901047 0.02647721 0.02540000
v 0.00913823 0.02644889 0.02670000
v 0.00913823 0.02644889 0.02540000
v 0.00926303 0.02640954 0.02670000
v 0.00926303 0.02640954 0.02540000
v 0.00938393 0.02635946 0.02670000
v 0.00938393 0.02635946 0.02540000
v 0.00950000 0.02629904 0.02670000
v 0.00950000 0.02629904 0.02540000
v 0.00961036 0.02622873 0.02670000
v 0.00961036 0.02622873 0.02540000
v 0.00971418 0.02614907 0.02670000
v 0.00971418 0.02614907 0.02540000
v 0.00981066 0.02606066 0.02670000
v 0.00981066 0.02606066 0.02540000
v 0.00989907 0.02596418 0.02670000
v 0.00989907 0.02596418 0.02540000
v 0.00997873 0.02586037 0.02670000
v 0.00997873 0.02586037 0.02540000
v 0.01004904 0.02575000 0.02670000
v 0.01004904 0.02575000 0.02540000
v 0.01010946 0.02563393 0.02670000
v 0.01010946 0.02563393 0.02540000
v 0.01015954 0.02551303 0.02670000
v 0.01015954 0.02551303 0.02540000
v 0.01019889 0.02538823 0.02670000
v 0.01019889 0.02538823 0.02540000
v 0.01022721 0.02526047 0.02670000
v 0.01022721 0.02526047 0.02540000
v 0.01024429 0.02513073 0.02670000
v 0.01024429 0.02513073 0.02540000
v 0.01025000 0.02500000 0.02670000
v 0.01025000 0.02500000 0.02540000
v 0.01024429 0.02486927 0.02670000
v 0.01024429 0.02486927 0.02540000
v 0.01022721 0.02473953 0.02670000
v 0.01022721 0.02473953 0.02540000
v 0.01019889 0.02461177 0.02670000
v 0.01019889 0.02461177 0.02540000
v 0.01015954 0.02448697 0.02670000
v 0.01015954 0.02448697 0.02540000
v 0.01010946 0.02436607 0.02670000
v 0.01010946 0.02436607 0.02540000
v 0.01004904 0.02425000 0.02670000
v 0.01004904 0.02425000 0.02540000
v 0.00997873 0.02413964 0.02670000
v 0.00997873 0.02413964 0.02540000
v 0.00989907 0.02403582 0.02670000
v 0.00989907 0.02403582 0.02540000
v 0.00981066 0.02393934 0.02670000
v 0.00981066 0.02393934 0.02540000
v 0.00971418 0.02385093 0.02670000
v 0.00971418 0.02385093 0.02540000
v 0.00961036 0.02377127 0.02670000
v 0.00961036 0.02377127 0.02540000
v 0.00950000 0.02370096 0.02670000
v 0.00950000 0.02370096 0.02540000
v 0.00938393 0.02364054 0.02670000
v 0.00938393 0.02364054 0.02540000
v 0.00926303 0.02359046 0.02670000
v 0.00926303 0.02359046 0.02540000
v 0.00913823 0.02355111 0.02670000
v 0.00913823 0.02355111 0.02540000
v 0.00901047 0.02352279 0.02670000
v 0.00901047 0.02352279 0.02540000
v 0.00888073 0.02350571 0.02670000
v 0.00888073 0.02350571 0.02540000
v 0.00875000 0.02350000 0.02670000
v 0.00875000 0.02350000 0.02540000
v 0.00861927 0.02350571 0.02670000
v 0.00861927 0.02350571 0.02540000
v 0.00848953 0.02352279 0.02670000
v 0.00848953 0.02352279 0.02540000
v 0.00836177 0.02355111 0.02670000
v 0.00836177 0.02355111 0.02540000
v 0.00823697 0.02359046 0.02670000
v 0.00823697 0.02359046 0.02540000
v 0.00811607 0.02364054 0.02670000
v 0.00811607 0.02364054 0.02540000
v 0.00800000 0.02370096 0.02670000
v 0.00800000 0.02370096 0.02540000
v 0.00788963 0.02377127 0.02670000
v 0.00788963 0.02377127 0.02540000
v 0.00778582 0.02385093 0.02670000
v 0.00778582 0.02385093 0.02540000
v 0.00768934 0.02393934 0.02670000
v 0.00768934 0.02393934 0.02540000
v 0.00760093 0.02403582 0.02670000
v 0.00760093 0.02403582 0.02540000
v 0.00752127 0.02413964 0.02670000
v 0.00752127 0.02413964 0.02540000
v 0.00745096 0.02425000 0.02670000
v 0.00745096 0.02425000 0.02540000
v 0.00739054 0.02436607 0.02670000
v 0.00739054 0.02436607 0.02540000
v 0.00734046 0.02448697 0.02670000
v 0.00734046 0.02448697 0.02540000
v 0.00730111 0.02461177 0.02670000
v 0.00730111 0.02461177 0.02540000
v 0.00727279 0.02473953 0.02670000
v 0.00727279 0.02473953 0.02540000
v 0.00725571 0.02486927 0.02670000
v 0.00725571 0.02486927 0.02540000
v 0.01737500 0.02500000 0.02670000
v 0.01737500 0.02500000 0.02540000
v 0.01738071 0.02513073 0.02670000
v 0.01738071 0.02513073 0.02540000
v 0.01739779 0.02526047 0.02670000
v 0.01739779 0.02526047 0.02540000
v 0.01742611 0.02538823 0.02670000
v 0.01742611 0.02538823 0.02540000
v 0.01746546 0.02551303 0.02670000
v 0.01746546 0.02551303 0.02540000
v 0.01751554 0.02563393 0.02670000
v 0.01751554 0.02563393 0.02540000
v 0.01757596 0.02575000 0.02670000
v 0.01757596 0.02575000 0.02540000
v 0.01764627 0.02586037 0.02670000
v 0.01764627 0.02586037 0.02540000
v 0.01772593 0.02596418 0.02670000
v 0.01772593 0.02596418 0.02540000
v 0.01781434 0.02606066 0.02670000
v 0.01781434 0.02606066 0.02540000
v 0.01791082 0.02614907 0.02670000
v 0.01791082 0.02614907 0.02540000
v 0.01801464 0.02622873 0.02670000
v 0.01801464 0.02622873 0.02540000
v 0.01812500 0.02629904 0.02670000
v 0.01812500 0.02629904 0.02540000
v 0.01824107 0.02635946 0.02670000
v 0.01824107 0.02635946 0.02540000
v 0.01836197 0.02640954 0.02670000
v 0.01836197 0.02640954 0.02540000
v 0.01848677 0.02644889 0.02670000
v 0.01848677 0.02644889 0.02540000
v 0.01861453 0.02647721 0.02670000
v 0.01861453 0.02647721 0.02540000
v 0.01874427 0.02649429 0.02670000
v 0.01874427 0.02649429 0.02540000
v 0.01887500 0.02650000 0.02670000
v 0.01887500 0.02650000 0.02540000
v 0.01900573 0.02649429 0.02670000
v 0.01900573 0.02649429 0.02540000
v 0.01913547 0.02647721 0.02670000
v 0.01913547 0.02647721 0.02540000
v 0.01926323 0.02644889 0.02670000
v 0.01926323 0.02644889 0.02540000
v 0.01938803 0.02640954 0.02670000
v 0.01938803 0.02640954 0.02540000
v 0.01950893 0.02635946 0.02670000
v 0.01950893 0.02635946 0.02540000
v 0.01962500 0.02629904 0.02670000
v 0.01962500 0.02629904 0.02540000
v 0.01973536 0.02622873 0.02670000
v 0.01973536 0.02622873 0.02540000
v 0.01983918 0.02614907 0.02670000
v 0.01983918 0.02614907 0.02540000
v 0.01993566 0.02606066 0.02670000
v 0.01993566 0.02606066 0.02540000
v 0.02002407 0.02596418 0.02670000
v 0.02002407 0.02596418 0.02540000
v 0.02010373 0.02586037 0.02670000
v 0.02010373 0.02586037 0.02540000
v 0.02017404 0.02575000 0.02670000
v 0.02017404 0.02575000 0.02540000
v 0.02023446 0.02563393 0.02670000
v 0.02023446 0.02563393 0.02540000
v 0.02028454 0.02551303 0.02670000
v 0.02028454 0.02551303 0.02540000
v 0.02032389 0.02538823 0.02670000
v 0.02032389 0.02538823 0.02540000
v 0.02035221 0.02526047 0.02670000
v 0.02035221 0.02526047 0.02540000
v 0.02036929 0.02513073 0.02670000
v 0.02036929 0.02513073 0.02540000
v 0.02037500 0.02500000 0.02670000
v 0.02037500 0.02500000 0.02540000
v 0.02036929 0.02486927 0.02670000
v 0.02036929 0.02486927 0.02540000
v 0.02035221 0.02473953 0.02670000
v 0.02035221 0.02473953 0.02540000
v 0.02032389 0.02461177 0.02670000
v 0.02032389 0.02461177 0.02540000
v 0.02028454 0.02448697 0.02670000
v 0.02028454 0.02448697 0.02540000
v 0.02023446 0.02436607 0.02670000
v 0.02023446 0.02436607 0.02540000
v 0.02017404 0.02425000 0.02670000
v 0.02017404 0.02425000 0.02540000
v 0.02010373 0.02413964 0.02670000
v 0.02010373 0.02413964 0.02540000
v 0.02002407 0.02403582 0.02670000
v 0.02002407 0.02403582 0.02540000
v 0.01993566 0.02393934 0.02670000
v 0.01993566 0.02393934 0.02540000
v 0.01983918 0.02385093 0.02670000
v 0.01983918 0.02385093 0.02540000
v 0.01973536 0.02377127 0.02670000
v 0.01973536 0.02377127 0.02540000
v 0.01962500 0.02370096 0.02670000
v 0.01962500 0.02370096 0.02540000
v 0.01950893 0.02364054 0.02670000
v 0.01950893 0.02364054 0.02540000
v 0.01938803 0.02359046 0.02670000
v 0.01938803 0.02359046 0.02540000
v 0.01926323 0.02355111 0.02670000
v 0.01926323 0.02355111 0.02540000
v 0.01913547 0.02352279 0.02670000
v 0.01913547 0.02352279 0.02540000
v 0.01900573 0.02350571 0.02670000
v 0.01900573 0.02350571 0.02540000
v 0.01887500 0.02350000 0.02670000
v 0.01887500 0.02350000 0.02540000
v 0.01874427 0.02350571 0.02670000
v 0.01874427 0.02350571 0.02540000
v 0.01861453 0.02352279 0.02670000
v 0.01861453 0.02352279 0.02540000
v 0.01848677 0.02355111 0.02670000
v 0.01848677 0.02355111 0.02540000
v 0.01836197 0.02359046 0.02670000
v 0.01836197 0.02359046 0.02540000
v 0.01824107 0.02364054 0.02670000
v 0.01824107 0.02364054 0.02540000
v 0.01812500 0.02370096 0.02670000
v 0.01812500 0.02370096 0.02540000
v 0.01801464 0.02377127 0.02670000
v 0.01801464 0.02377127 0.02540000
v 0.01791082 0.02385093 0.02670000
v 0.01791082 0.02385093 0.02540000
v 0.01781434 0.02393934 0.02670000
v 0.01781434 0.02393934 0.02540000
v 0.01772593 0.02403582 0.02670000
v 0.01772593 0.02403582 0.02540000
v 0.01764627 0.02413964 0.02670000
v 0.01764627 0.02413964 0.02540000
v 0.01757596 0.02425000 0.02670000
v 0.01757596 0.02425000 0.02540000
v 0.01751554 0.02436607 0.02670000
v 0.01751554 0.02436607 0.02540000
v 0.01746546 0.02448697 0.02670000
v 0.01746546 0.02448697 0.02540000
v 0.01742611 0.02461177 0.02670000
v 0.01742611 0.02461177 0.02540000
v 0.01739779 0.02473953 0.02670000
v 0.01739779 0.02473953 0.02540000
v 0.01738071 0.02486927 0.02670000
v 0.01738071 0.02486927 0.02540000
v 0.00793754 0.00677496 0.02540000
v 0.00793754 0.00677496 0.02670000
v 0.00817722 0.00678543 0.02540000
v 0.00817722 0.00678543 0.02670000
v 0.00841508 0.00681674 0.02540000
v 0.00841508 0.00681674 0.02670000
v 0.00864930 0.00686867 0.02540000
v 0.00864930 0.00686867 0.02670000
v 0.00887810 0.00694081 0.02540000
v 0.00887810 0.00694081 0.02670000
v 0.00909974 0.00703262 0.02540000
v 0.00909974 0.00703262 0.02670000
v 0.00931254 0.00714339 0.02540000
v 0.00931254 0.00714339 0.02670000
v 0.00951488 0.00727230 0.02540000
v 0.00951488 0.00727230 0.02670000
v 0.00970521 0.00741834 0.02540000
v 0.00970521 0.00741834 0.02670000
v 0.00988209 0.00758042 0.02540000
v 0.00988209 0.00758042 0.02670000
v 0.01004416 0.00775730 0.02540000
v 0.01004416 0.00775730 0.02670000
v 0.01019021 0.00794763 0.02540000
v 0.01019021 0.00794763 0.02670000
v 0.01031911 0.00814996 0.02540000
v 0.01031911 0.00814996 0.02670000
v 0.01042989 0.00836276 0.02540000
v 0.01042989 0.00836276 0.02670000
v 0.01052170 0.00858441 0.02540000
v 0.01052170 0.00858441 0.02670000
v 0.01059384 0.00881321 0.02540000
v 0.01059384 0.00881321 0.02670000
v 0.01064576 0.00904743 0.02540000
v 0.01064576 0.00904743 0.02670000
v 0.01067708 0.00928529 0.02540000
v 0.01067708 0.00928529 0.02670000
v 0.01068754 0.00952496 0.02540000
v 0.01068754 0.00952496 0.02670000
v 0.01067708 0.00976464 0.02540000
v 0.01067708 0.00976464 0.02670000
v 0.01064576 0.01000250 0.02540000
v 0.01064576 0.01000250 0.02670000
v 0.01059384 0.01023672 0.02540000
v 0.01059384 0.01023672 0.02670000
v 0.01052170 0.01046552 0.02540000
v 0.01052170 0.01046552 0.02670000
v 0.01042989 0.01068716 0.02540000
v 0.01042989 0.01068716 0.02670000
v 0.01031911 0.01089996 0.02540000
v 0.01031911 0.01089996 0.02670000
v 0.01019021 0.01110230 0.02540000
v 0.01019021 0.01110230 0.02670000
v 0.01004416 0.01129263 0.02540000
v 0.01004416 0.01129263 0.02670000
v 0.00988209 0.01146951 0.02540000
v 0.00988209 0.01146951 0.02670000
v 0.00970521 0.01163159 0.02540000
v 0.00970521 0.01163159 0.02670000
v 0.00951488 0.01177763 0.02540000
v 0.00951488 0.01177763 0.02670000
v 0.00931254 0.01190653 0.02540000
v 0.00931254 0.01190653 0.02670000
v 0.00909974 0.01201731 0.02540000
v 0.00909974 0.01201731 0.02670000
v 0.00887810 0.01210912 0.02540000
v 0.00887810 0.01210912 0.02670000
v 0.00864930 0.01218126 0.02540000
v 0.00864930 0.01218126 0.02670000
v 0.00841508 0.01223319 0.02540000
v 0.00841508 0.01223319 0.02670000
v 0.00817722 0.01226450 0.02540000
v 0.00817722 0.01226450 0.02670000
v 0.00793754 0.01227496 0.02540000
v 0.00793754 0.01227496 0.02670000
v 0.00769786 0.01226450 0.02540000
v 0.00769786 0.01226450 0.02670000
v 0.00746001 0.01223319 0.02540000
v 0.00746001 0.01223319 0.02670000
v 0.00722579 0.01218126 0.02540000
v 0.00722579 0.01218126 0.02670000
v 0.00699699 0.01210912 0.02540000
v 0.00699699 0.01210912 0.02670000
v 0.00677534 0.01201731 0.02540000
v 0.00677534 0.01201731 0.02670000
v 0.00656254 0.01190653 0.02540000
v 0.00656254 0.01190653 0.02670000
v 0.00636021 0.01177763 0.02540000
v 0.00636021 0.01177763 0.02670000
v 0.00616988 0.01163159 0.02540000
v 0.00616988 0.01163159 0.02670000
v 0.00599300 0.01146951 0.02540000
v 0.00599300 0.01146951 0.02670000
v 0.00583092 0.01129263 0.02540000
v 0.00583092 0.01129263 0.02670000
v 0.00568487 0.01110230 0.02540000
v 0.00568487 0.01110230 0.02670000
v 0.00555597 0.01089996 0.02540000
v 0.00555597 0.01089996 0.02670000
v 0.00544520 0.01068716 0.02540000
v 0.00544520 0.01068716 0.02670000
v 0.00535339 0.01046552 0.02540000
v 0.00535339 0.01046552 0.02670000
v 0.00528125 0.01023672 0.02540000
v 0.00528125 0.01023672 0.02670000
v 0.00522932 0.01000250 0.02540000
v 0.00522932 0.01000250 0.02670000
v 0.00519801 0.00976464 0.02540000
v 0.00519801 0.00976464 0.02670000
v 0.00518754 0.00952496 0.02540000
v 0.00518754 0.00952496 0.02670000
v 0.00519801 0.00928529 0.02540000
v 0.00519801 0.00928529 0.02670000
v 0.00522932 0.00904743 0.02540000
v 0.00522932 0.00904743 0.02670000
v 0.00528125 0.00881321 0.02540000
v 0.00528125 0.00881321 0.02670000
v 0.00535339 0.00858441 0.02540000
v 0.00535339 0.00858441 0.02670000
v 0.00544520 0.00836276 0.02540000
v 0.00544520 0.00836276 0.02670000
v 0.00555597 0.00814996 0.02540000
v 0.00555597 0.00814996 0.02670000
v 0.00568487 0.00794763 0.02540000
v 0.00568487 0.00794763 0.02670000
v 0.00583092 0.00775730 0.02540000
v 0.00583092 0.00775730 0.02670000
v 0.00599300 0.00758042 0.02540000
v 0.00599300 0.00758042 0.02670000
v 0.00616988 0.00741834 0.02540000
v 0.00616988 0.00741834 0.02670000
v 0.00636021 0.00727230 0.02540000
v 0.00636021 0.00727230 0.02670000
v 0.00656254 0.00714339 0.02540000
v 0.00656254 0.00714339 0.02670000
v 0.00677534 0.00703262 0.02540000
v 0.00677534 0.00703262 0.02670000
v 0.00699699 0.00694081 0.02540000
v 0.00699699 0.00694081 0.02670000
v 0.00722579 0.00686867 0.02540000
v 0.00722579 0.00686867 0.02670000
v 0.00746001 0.00681674 0.02540000
v 0.00746001 0.00681674 0.02670000
v 0.00769786 0.00678543 0.02540000
v 0.00769786 0.00678543 0.02670000
v 0.00700000 0.04100000 0.02540000
v 0.00700000 0.04100000 0.02670000
v 0.00682569 0.04100761 0.02670000
v 0.00682569 0.04100761 0.02540000
v 0.00665270 0.04103038 0.02670000
v 0.00665270 0.04103038 0.02540000
v 0.00648236 0.04106815 0.02670000
v 0.00648236 0.04106815 0.02540000
v 0.00631596 0.04112061 0.02670000
v 0.00631596 0.04112061 0.02540000
v 0.00615476 0.04118738 0.02670000
v 0.00615476 0.04118738 0.02540000
v 0.00600000 0.04126795 0.02670000
v 0.00600000 0.04126795 0.02540000
v 0.00585285 0.04136170 0.02670000
v 0.00585285 0.04136170 0.02540000
v 0.00571442 0.04146791 0.02670000
v 0.00571442 0.04146791 0.02540000
v 0.00558579 0.04158579 0.02670000
v 0.00558579 0.04158579 0.02540000
v 0.00546791 0.04171443 0.02670000
v 0.00546791 0.04171443 0.02540000
v 0.00536170 0.04185285 0.02670000
v 0.00536170 0.04185285 0.02540000
v 0.00526795 0.04200000 0.02670000
v 0.00526795 0.04200000 0.02540000
v 0.00518738 0.04215476 0.02670000
v 0.00518738 0.04215476 0.02540000
v 0.00512061 0.04231596 0.02670000
v 0.00512061 0.04231596 0.02540000
v 0.00506815 0.04248236 0.02670000
v 0.00506815 0.04248236 0.02540000
v 0.00503038 0.04265270 0.02670000
v 0.00503038 0.04265270 0.02540000
v 0.00500761 0.04282569 0.02670000
v 0.00500761 0.04282569 0.02540000
v 0.00500000 0.04300000 0.02670000
v 0.00500000 0.04300000 0.02540000
v 0.02381254 0.00677489 0.02540000
v 0.02381254 0.00677489 0.02670000
v 0.02405222 0.00678536 0.02540000
v 0.02405222 0.00678536 0.02670000
v 0.02429008 0.00681667 0.02540000
v 0.02429008 0.00681667 0.02670000
v 0.02452430 0.00686860 0.02540000
v 0.02452430 0.00686860 0.02670000
v 0.02475310 0.00694074 0.02540000
v 0.02475310 0.00694074 0.02670000
v 0.02497474 0.00703255 0.02540000
v 0.02497474 0.00703255 0.02670000
v 0.02518754 0.00714332 0.02540000
v 0.02518754 0.00714332 0.02670000
v 0.02538988 0.00727223 0.02540000
v 0.02538988 0.00727223 0.02670000
v 0.02558021 0.00741827 0.02540000
v 0.02558021 0.00741827 0.02670000
v 0.02575709 0.00758035 0.02540000
v 0.02575709 0.00758035 0.02670000
v 0.02591917 0.00775723 0.02540000
v 0.02591917 0.00775723 0.02670000
v 0.02606521 0.00794756 0.02540000
v 0.02606521 0.00794756 0.02670000
v 0.02619411 0.00814989 0.02540000
v 0.02619411 0.00814989 0.02670000
v 0.02630489 0.00836269 0.02540000
v 0.02630489 0.00836269 0.02670000
v 0.02639670 0.00858434 0.02540000
v 0.02639670 0.00858434 0.02670000
v 0.02646884 0.00881314 0.02540000
v 0.02646884 0.00881314 0.02670000
v 0.02652076 0.00904736 0.02540000
v 0.02652076 0.00904736 0.02670000
v 0.02655208 0.00928522 0.02540000
v 0.02655208 0.00928522 0.02670000
v 0.02656254 0.00952489 0.02540000
v 0.02656254 0.00952489 0.02670000
v 0.02655208 0.00976457 0.02540000
v 0.02655208 0.00976457 0.02670000
v 0.02652076 0.01000243 0.02540000
v 0.02652076 0.01000243 0.02670000
v 0.02646884 0.01023665 0.02540000
v 0.02646884 0.01023665 0.02670000
v 0.02639670 0.01046545 0.02540000
v 0.02639670 0.01046545 0.02670000
v 0.02630489 0.01068709 0.02540000
v 0.02630489 0.01068709 0.02670000
v 0.02619411 0.01089989 0.02540000
v 0.02619411 0.01089989 0.02670000
v 0.02606521 0.01110223 0.02540000
v 0.02606521 0.01110223 0.02670000
v 0.02591917 0.01129256 0.02540000
v 0.02591917 0.01129256 0.02670000
v 0.02575709 0.01146944 0.02540000
v 0.02575709 0.01146944 0.02670000
v 0.02558021 0.01163152 0.02540000
v 0.02558021 0.01163152 0.02670000
v 0.02538988 0.01177756 0.02540000
v 0.02538988 0.01177756 0.02670000
v 0.02518754 0.01190646 0.02540000
v 0.02518754 0.01190646 0.02670000
v 0.02497474 0.01201724 0.02540000
v 0.02497474 0.01201724 0.02670000
v 0.02475310 0.01210905 0.02540000
v 0.02475310 0.01210905 0.02670000
v 0.02452430 0.01218119 0.02540000
v 0.02452430 0.01218119 0.02670000
v 0.02429008 0.01223311 0.02540000
v 0.02429008 0.01223311 0.02670000
v 0.02405222 0.01226443 0.02540000
v 0.02405222 0.01226443 0.02670000
v 0.02381254 0.01227489 0.02540000
v 0.02381254 0.01227489 0.02670000
v 0.02357286 0.01226443 0.02540000
v 0.02357286 0.01226443 0.02670000
v 0.02333501 0.01223311 0.02540000
v 0.02333501 0.01223311 0.02670000
v 0.02310079 0.01218119 0.02540000
v 0.02310079 0.01218119 0.02670000
v 0.02287199 0.01210905 0.02540000
v 0.02287199 0.01210905 0.02670000
v 0.02265034 0.01201724 0.02540000
v 0.02265034 0.01201724 0.02670000
v 0.02243754 0.01190646 0.02540000
v 0.02243754 0.01190646 0.02670000
v 0.02223521 0.01177756 0.02540000
v 0.02223521 0.01177756 0.02670000
v 0.02204488 0.01163152 0.02540000
v 0.02204488 0.01163152 0.02670000
v 0.02186800 0.01146944 0.02540000
v 0.02186800 0.01146944 0.02670000
v 0.02170592 0.01129256 0.02540000
v 0.02170592 0.01129256 0.02670000
v 0.02155988 0.01110223 0.02540000
v 0.02155988 0.01110223 0.02670000
v 0.02143097 0.01089989 0.02540000
v 0.02143097 0.01089989 0.02670000
v 0.02132020 0.01068709 0.02540000
v 0.02132020 0.01068709 0.02670000
v 0.02122839 0.01046545 0.02540000
v 0.02122839 0.01046545 0.02670000
v 0.02115625 0.01023665 0.02540000
v 0.02115625 0.01023665 0.02670000
v 0.02110432 0.01000243 0.02540000
v 0.02110432 0.01000243 0.02670000
v 0.02107301 0.00976457 0.02540000
v 0.02107301 0.00976457 0.02670000
v 0.02106254 0.00952489 0.02540000
v 0.02106254 0.00952489 0.02670000
v 0.02107301 0.00928522 0.02540000
v 0.02107301 0.00928522 0.02670000
v 0.02110432 0.00904736 0.02540000
v 0.02110432 0.00904736 0.02670000
v 0.02115625 0.00881314 0.02540000
v 0.02115625 0.00881314 0.02670000
v 0.02122839 0.00858434 0.02540000
v 0.02122839 0.00858434 0.02670000
v 0.02132020 0.00836269 0.02540000
v 0.02132020 0.00836269 0.02670000
v 0.02143097 0.00814989 0.02540000
v 0.02143097 0.00814989 0.02670000
v 0.02155988 0.00794756 0.02540000
v 0.02155988 0.00794756 0.02670000
v 0.02170592 0.00775723 0.02540000
v 0.02170592 0.00775723 0.02670000
v 0.02186800 0.00758035 0.02540000
v 0.02186800 0.00758035 0.02670000
v 0.02204488 0.00741827 0.02540000
v 0.02204488 0.00741827 0.02670000
v 0.02223521 0.00727223 0.02540000
v 0.02223521 0.00727223 0.02670000
v 0.02243754 0.00714332 0.02540000
v 0.02243754 0.00714332 0.02670000
v 0.02265034 0.00703255 0.02540000
v 0.02265034 0.00703255 0.02670000
v 0.02287199 0.00694074 0.02540000
v 0.02287199 0.00694074 0.02670000
v 0.02310079 0.00686860 0.02540000
v 0.02310079 0.00686860 0.02670000
v 0.02333501 0.00681667 0.02540000
v 0.02333501 0.00681667 0.02670000
v 0.02357286 0.00678536 0.02540000
v 0.02357286 0.00678536 0.02670000
v 0.01000000 0.04100000 0.02670000
v 0.01000000 0.04100000 0.02540000
v 0.01200000 0.03900000 0.02540000
v 0.01200000 0.03900000 0.02670000
v 0.01199239 0.03917431 0.02540000
v 0.01199239 0.03917431 0.02670000
v 0.01196962 0.03934729 0.02540000
v 0.01196962 0.03934729 0.02670000
v 0.01193185 0.03951764 0.02540000
v 0.01193185 0.03951764 0.02670000
v 0.01187939 0.03968404 0.02540000
v 0.01187939 0.03968404 0.02670000
v 0.01181262 0.03984524 0.02540000
v 0.01181262 0.03984524 0.02670000
v 0.01173205 0.04000000 0.02540000
v 0.01173205 0.04000000 0.02670000
v 0.01163830 0.04014715 0.02540000
v 0.01163830 0.04014715 0.02670000
v 0.01153209 0.04028558 0.02540000
v 0.01153209 0.04028558 0.02670000
v 0.01141421 0.04041421 0.02540000
v 0.01141421 0.04041421 0.02670000
v 0.01128558 0.04053209 0.02540000
v 0.01128558 0.04053209 0.02670000
v 0.01114715 0.04063831 0.02540000
v 0.01114715 0.04063831 0.02670000
v 0.01100000 0.04073205 0.02540000
v 0.01100000 0.04073205 0.02670000
v 0.01084524 0.04081262 0.02540000
v 0.01084524 0.04081262 0.02670000
v 0.01068404 0.04087938 0.02540000
v 0.01068404 0.04087938 0.02670000
v 0.01051764 0.04093185 0.02540000
v 0.01051764 0.04093185 0.02670000
v 0.01034730 0.04096961 0.02540000
v 0.01034730 0.04096961 0.02670000
v 0.01017431 0.04099239 0.02540000
v 0.01017431 0.04099239 0.02670000
v 0.01200000 0.03600000 0.02670000
v 0.01200000 0.03600000 0.02540000
v 0.01000000 0.03400000 0.02540000
v 0.01000000 0.03400000 0.02670000
v 0.01017431 0.03400761 0.02540000
v 0.01017431 0.03400761 0.02670000
v 0.01034730 0.03403039 0.02540000
v 0.01034730 0.03403039 0.02670000
v 0.01051764 0.03406815 0.02540000
v 0.01051764 0.03406815 0.02670000
v 0.01068404 0.03412062 0.02540000
v 0.01068404 0.03412062 0.02670000
v 0.01084524 0.03418738 0.02540000
v 0.01084524 0.03418738 0.02670000
v 0.01100000 0.03426795 0.02540000
v 0.01100000 0.03426795 0.02670000
v 0.01114715 0.03436170 0.02540000
v 0.01114715 0.03436170 0.02670000
v 0.01128558 0.03446791 0.02540000
v 0.01128558 0.03446791 0.02670000
v 0.01141421 0.03458579 0.02540000
v 0.01141421 0.03458579 0.02670000
v 0.01153209 0.03471442 0.02540000
v 0.01153209 0.03471442 0.02670000
v 0.01163830 0.03485285 0.02540000
v 0.01163830 0.03485285 0.02670000
v 0.01173205 0.03500000 0.02540000
v 0.01173205 0.03500000 0.02670000
v 0.01181262 0.03515476 0.02540000
v 0.01181262 0.03515476 0.02670000
v 0.01187939 0.03531596 0.02540000
v 0.01187939 0.03531596 0.02670000
v 0.01193185 0.03548236 0.02540000
v 0.01193185 0.03548236 0.02670000
v 0.01196962 0.03565270 0.02540000
v 0.01196962 0.03565270 0.02670000
v 0.01199239 0.03582569 0.02540000
v 0.01199239 0.03582569 0.02670000
v 0.00700000 0.03400000 0.02670000
v 0.00700000 0.03400000 0.02540000
v 0.00500000 0.02776809 0.02670000
v 0.00500000 0.03200000 0.02670000
v 0.00500000 0.02700053 0.02607316
v 0.00500000 0.03200000 0.02540000
v 0.00500000 0.02627325 0.02540000
v 0.00181645 0.02627325 0.02540000
v 0.00000000 0.02627325 0.02540000
v -0.00000000 0.02700053 0.02607316
v 0.00000000 0.02776809 0.02670000
v 0.00181645 0.02776809 0.02670000
v 0.00500000 0.04723191 0.02670000
v 0.00000000 0.04723191 0.02670000
v 0.00500000 0.04799947 0.02607316
v 0.00000000 0.04799947 0.02607316
v 0.00500000 0.04872675 0.02540000
v 0.00000000 0.04872675 0.02540000
v 0.02300000 0.14000000 0.02540000
v 0.02300000 0.08225521 0.02540000
v 0.02071877 0.08225521 0.02540000
v 0.02900000 0.05000000 0.02540000
v 0.03500000 0.05000000 0.02540000
v 0.03500000 0.04386914 0.02540000
v 0.00447463 0.01788748 0.02540000
v 0.00181645 0.01788748 0.02540000
v 0.00632231 0.01788748 0.02540000
v 0.00631596 0.03387938 0.02540000
v 0.01046877 0.04386914 0.02540000
v 0.00186914 0.06359269 0.02540000
v 0.00177631 0.06353354 0.02540000
v 0.00181645 0.08225521 0.02540000
v 0.00146646 0.06322370 0.02540000
v 0.00140732 0.06313086 0.02540000
v 0.00000000 0.08225521 0.02540000
v 0.00135649 0.06303323 0.02540000
v 0.00131437 0.06293154 0.02540000
v 0.00128127 0.06282656 0.02540000
v 0.00168898 0.06346653 0.02540000
v 0.00160783 0.06339217 0.02540000
v 0.00153346 0.06331102 0.02540000
v 0.00140732 0.06186914 0.02540000
v 0.00146646 0.06177631 0.02540000
v 0.00125745 0.06271910 0.02540000
v 0.00124308 0.06260996 0.02540000
v 0.00123828 0.06250000 0.02540000
v 0.00124308 0.06239003 0.02540000
v 0.00125745 0.06228090 0.02540000
v 0.00128127 0.06217344 0.02540000
v 0.00131437 0.06206847 0.02540000
v 0.00135649 0.06196677 0.02540000
v 0.00153346 0.06168898 0.02540000
v 0.00160783 0.06160783 0.02540000
v 0.00168898 0.06153347 0.02540000
v 0.00177631 0.06146646 0.02540000
v 0.00186914 0.06140732 0.02540000
v 0.00196677 0.06135649 0.02540000
v 0.00206847 0.06131437 0.02540000
v 0.00217344 0.06128127 0.02540000
v 0.00228090 0.06125744 0.02540000
v 0.00250000 0.06376173 0.02540000
v 0.00260997 0.06375692 0.02540000
v 0.00447463 0.08225521 0.02540000
v 0.00271910 0.06374256 0.02540000
v 0.00239003 0.06375692 0.02540000
v 0.00228090 0.06374256 0.02540000
v 0.00217344 0.06371873 0.02540000
v 0.00239003 0.06124308 0.02540000
v 0.00250000 0.06123828 0.02540000
v 0.00260997 0.06124308 0.02540000
v 0.00271910 0.06125744 0.02540000
v 0.00206847 0.06368563 0.02540000
v 0.00196677 0.06364351 0.02540000
v 0.00331102 0.06346653 0.02540000
v 0.00322369 0.06353354 0.02540000
v 0.00313086 0.06359269 0.02540000
v 0.00303323 0.06364351 0.02540000
v 0.00293153 0.06368563 0.02540000
v 0.00282656 0.06371873 0.02540000
v 0.00282656 0.06128127 0.02540000
v 0.00293153 0.06131437 0.02540000
v 0.00303323 0.06135649 0.02540000
v 0.00368563 0.06206847 0.02540000
v 0.00371873 0.06217344 0.02540000
v 0.00374255 0.06228090 0.02540000
v 0.00359268 0.06313086 0.02540000
v 0.00353354 0.06322370 0.02540000
v 0.00313086 0.06140732 0.02540000
v 0.00322369 0.06146646 0.02540000
v 0.00331102 0.06153347 0.02540000
v 0.00353354 0.06177631 0.02540000
v 0.00359268 0.06186914 0.02540000
v 0.00364351 0.06196677 0.02540000
v 0.00346654 0.06331102 0.02540000
v 0.00339217 0.06339217 0.02540000
v 0.00339217 0.06160783 0.02540000
v 0.00346654 0.06168898 0.02540000
v 0.00374255 0.06271910 0.02540000
v 0.00371873 0.06282656 0.02540000
v 0.00375692 0.06239003 0.02540000
v 0.00376172 0.06250000 0.02540000
v 0.00375692 0.06260996 0.02540000
v 0.00368563 0.06293154 0.02540000
v 0.00364351 0.06303323 0.02540000
v 0.00632231 0.08225521 0.02540000
v 0.00632231 0.04386914 0.02540000
v 0.00500000 0.04386914 0.02540000
v 0.01046877 0.01788748 0.02540000
v 0.01403127 0.01788748 0.02540000
v 0.01403127 0.04386914 0.02540000
v 0.00648236 0.03393185 0.02540000
v 0.00682569 0.03399239 0.02540000
v 0.00665270 0.03396961 0.02540000
v 0.00500761 0.03217431 0.02540000
v 0.00503038 0.03234730 0.02540000
v 0.00615476 0.03381262 0.02540000
v 0.00506815 0.03251764 0.02540000
v 0.00512061 0.03268404 0.02540000
v 0.00518738 0.03284524 0.02540000
v 0.00526795 0.03300000 0.02540000
v 0.00536170 0.03314715 0.02540000
v 0.00558579 0.03341421 0.02540000
v 0.00571442 0.03353209 0.02540000
v 0.00585285 0.03363830 0.02540000
v 0.00546791 0.03328558 0.02540000
v 0.00600000 0.03373205 0.02540000
v 0.00000000 0.01788748 0.02540000
v 0.02300000 0.06000000 0.02540000
v 0.02900000 0.06000000 0.02540000
v 0.02071877 0.04386914 0.02540000
v 0.02071877 0.15000001 0.02540000
v 0.02900000 0.15000001 0.02540000
v 0.02900000 0.14000000 0.02540000
v 0.01046877 0.08225521 0.02540000
v 0.00939196 0.14152797 0.02540000
v 0.01948854 0.15000001 0.02540000
v 0.00777627 0.13899183 0.02540000
v 0.00790743 0.13940784 0.02540000
v 0.00851014 0.14056562 0.02540000
v 0.00807436 0.13981083 0.02540000
v 0.00827577 0.14019774 0.02540000
v 0.00519366 0.10299869 0.02540000
v 0.00512335 0.10310905 0.02540000
v 0.00632231 0.13085561 0.02540000
v 0.00525408 0.10288262 0.02540000
v 0.00504369 0.10321287 0.02540000
v 0.00495528 0.10330935 0.02540000
v 0.00485880 0.10339776 0.02540000
v 0.00475499 0.10101996 0.02540000
v 0.00485880 0.10109963 0.02540000
v 0.00495528 0.10118803 0.02540000
v 0.00504369 0.10128451 0.02540000
v 0.00512335 0.10138833 0.02540000
v 0.00519366 0.10149869 0.02540000
v 0.00525408 0.10161477 0.02540000
v 0.00530416 0.10173566 0.02540000
v 0.00534351 0.10186046 0.02540000
v 0.00537183 0.10198822 0.02540000
v 0.00537183 0.10250916 0.02540000
v 0.00534351 0.10263692 0.02540000
v 0.00530416 0.10276172 0.02540000
v 0.00538891 0.10211796 0.02540000
v 0.00539462 0.10224869 0.02540000
v 0.00538891 0.10237943 0.02540000
v 0.00326069 0.10360815 0.02540000
v 0.00314462 0.10354773 0.02540000
v 0.00181645 0.10530160 0.02540000
v 0.00338159 0.10083915 0.02540000
v 0.00350639 0.10079980 0.02540000
v 0.00475499 0.10347742 0.02540000
v 0.00464462 0.10354773 0.02540000
v 0.00447463 0.12037690 0.02540000
v 0.00452855 0.10360815 0.02540000
v 0.00440765 0.10365823 0.02540000
v 0.00415509 0.10077148 0.02540000
v 0.00428285 0.10079980 0.02540000
v 0.00363415 0.10372590 0.02540000
v 0.00350639 0.10369758 0.02540000
v 0.00402535 0.10075440 0.02540000
v 0.00440765 0.10083915 0.02540000
v 0.00452855 0.10088923 0.02540000
v 0.00464462 0.10094965 0.02540000
v 0.00338159 0.10365823 0.02540000
v 0.00303426 0.10101996 0.02540000
v 0.00314462 0.10094965 0.02540000
v 0.00326069 0.10088923 0.02540000
v 0.00428285 0.10369758 0.02540000
v 0.00415509 0.10372590 0.02540000
v 0.00402535 0.10374298 0.02540000
v 0.00303426 0.10347742 0.02540000
v 0.00293044 0.10339776 0.02540000
v 0.00283396 0.10330935 0.02540000
v 0.00266589 0.10138833 0.02540000
v 0.00274555 0.10128451 0.02540000
v 0.00389462 0.10374869 0.02540000
v 0.00376389 0.10374298 0.02540000
v 0.00363415 0.10077148 0.02540000
v 0.00376389 0.10075440 0.02540000
v 0.00389462 0.10074869 0.02540000
v 0.00274555 0.10321287 0.02540000
v 0.00266589 0.10310905 0.02540000
v 0.00259558 0.10299869 0.02540000
v 0.00248508 0.10173566 0.02540000
v 0.00253516 0.10161477 0.02540000
v 0.00259558 0.10149869 0.02540000
v 0.00283396 0.10118803 0.02540000
v 0.00293044 0.10109963 0.02540000
v 0.00253516 0.10288262 0.02540000
v 0.00248508 0.10276172 0.02540000
v 0.00244573 0.10263692 0.02540000
v 0.00240033 0.10211796 0.02540000
v 0.00241741 0.10198822 0.02540000
v 0.00244573 0.10186046 0.02540000
v 0.00241741 0.10250916 0.02540000
v 0.00240033 0.10237943 0.02540000
v 0.00239462 0.10224869 0.02540000
v 0.02071877 0.00677493 0.02540000
v 0.03500000 0.00677493 0.02540000
v 0.03500000 0.01788748 0.02540000
v 0.02071877 0.01788748 0.02540000
v 0.02071877 0.00000000 0.02540000
v 0.03500000 0.00000000 0.02540000
v 0.01046877 0.00677493 0.02540000
v 0.01403127 0.00677493 0.02540000
v 0.00632231 0.00677493 0.02540000
v 0.00447463 0.00677493 0.02540000
v 0.00000000 0.00000000 0.02540000
v 0.00000000 0.00677493 0.02540000
v 0.00181645 0.00000000 0.02540000
v 0.00181645 0.00677493 0.02540000
v 0.00447463 0.00000000 0.02540000
v 0.00632231 0.00000000 0.02540000
v 0.01046877 0.00000000 0.02540000
v 0.01403127 0.00000000 0.02540000
v 0.01403127 0.08225521 0.02540000
v 0.00877567 0.14091168 0.02540000
v 0.00907036 0.14123328 0.02540000
v 0.00768186 0.13856599 0.02540000
v 0.00239462 0.10224869 0.02670000
v 0.00240033 0.10237943 0.02670000
v 0.00241741 0.10250916 0.02670000
v 0.00244573 0.10263692 0.02670000
v 0.00248508 0.10276172 0.02670000
v 0.00253516 0.10288262 0.02670000
v 0.00259558 0.10299869 0.02670000
v 0.00266589 0.10310905 0.02670000
v 0.00274555 0.10321287 0.02670000
v 0.00283396 0.10330935 0.02670000
v 0.00293044 0.10339776 0.02670000
v 0.00303426 0.10347742 0.02670000
v 0.00314462 0.10354773 0.02670000
v 0.00326069 0.10360815 0.02670000
v 0.00338159 0.10365823 0.02670000
v 0.00350639 0.10369758 0.02670000
v 0.00363415 0.10372590 0.02670000
v 0.00376389 0.10374298 0.02670000
v 0.00389462 0.10374869 0.02670000
v 0.00402535 0.10374298 0.02670000
v 0.00415509 0.10372590 0.02670000
v 0.00428285 0.10369758 0.02670000
v 0.00440765 0.10365823 0.02670000
v 0.00452855 0.10360815 0.02670000
v 0.00464462 0.10354773 0.02670000
v 0.00475499 0.10347742 0.02670000
v 0.00485880 0.10339776 0.02670000
v 0.00495528 0.10330935 0.02670000
v 0.00504369 0.10321287 0.02670000
v 0.00512335 0.10310905 0.02670000
v 0.00519366 0.10299869 0.02670000
v 0.00525408 0.10288262 0.02670000
v 0.00530416 0.10276172 0.02670000
v 0.00534351 0.10263692 0.02670000
v 0.00537183 0.10250916 0.02670000
v 0.00538891 0.10237943 0.02670000
v 0.00539462 0.10224869 0.02670000
v 0.00538891 0.10211796 0.02670000
v 0.00537183 0.10198822 0.02670000
v 0.00534351 0.10186046 0.02670000
v 0.00530416 0.10173566 0.02670000
v 0.00525408 0.10161477 0.02670000
v 0.00519366 0.10149869 0.02670000
v 0.00512335 0.10138833 0.02670000
v 0.00504369 0.10128451 0.02670000
v 0.00495528 0.10118803 0.02670000
v 0.00485880 0.10109963 0.02670000
v 0.00475499 0.10101996 0.02670000
v 0.00464462 0.10094965 0.02670000
v 0.00452855 0.10088923 0.02670000
v 0.00440765 0.10083915 0.02670000
v 0.00428285 0.10079980 0.02670000
v 0.00415509 0.10077148 0.02670000
v 0.00402535 0.10075440 0.02670000
v 0.00389462 0.10074869 0.02670000
v 0.00376389 0.10075440 0.02670000
v 0.00363415 0.10077148 0.02670000
v 0.00350639 0.10079980 0.02670000
v 0.00338159 0.10083915 0.02670000
v 0.00326069 0.10088923 0.02670000
v 0.00314462 0.10094965 0.02670000
v 0.00303426 0.10101996 0.02670000
v 0.00293044 0.10109963 0.02670000
v 0.00283396 0.10118803 0.02670000
v 0.00274555 0.10128451 0.02670000
v 0.00266589 0.10138833 0.02670000
v 0.00259558 0.10149869 0.02670000
v 0.00253516 0.10161477 0.02670000
v 0.00248508 0.10173566 0.02670000
v 0.00244573 0.10186046 0.02670000
v 0.00241741 0.10198822 0.02670000
v 0.00240033 0.10211796 0.02670000
v 0.00939196 0.14152797 0.02670000
v 0.00907036 0.14123328 0.02670000
v 0.00877567 0.14091168 0.02670000
v 0.00851014 0.14056562 0.02670000
v 0.00827577 0.14019774 0.02670000
v 0.00807436 0.13981083 0.02670000
v 0.00790743 0.13940784 0.02670000
v 0.00777627 0.13899183 0.02670000
v 0.00768186 0.13856599 0.02670000
v 0.02900000 0.05000000 0.02670000
v 0.03500000 0.05000000 0.02670000
v 0.00500000 0.04386914 0.02670000
v 0.00500761 0.03217431 0.02670000
v 0.00503038 0.03234730 0.02670000
v 0.00506815 0.03251764 0.02670000
v 0.00512061 0.03268404 0.02670000
v 0.00518738 0.03284524 0.02670000
v 0.00526795 0.03300000 0.02670000
v 0.00536170 0.03314715 0.02670000
v 0.00546791 0.03328558 0.02670000
v 0.00558579 0.03341421 0.02670000
v 0.00571442 0.03353209 0.02670000
v 0.00585285 0.03363830 0.02670000
v 0.00600000 0.03373205 0.02670000
v 0.00615476 0.03381262 0.02670000
v 0.00631596 0.03387938 0.02670000
v 0.00648236 0.03393185 0.02670000
v 0.00665270 0.03396961 0.02670000
v 0.00682569 0.03399239 0.02670000
v 0.02071877 0.04386914 0.02670000
v 0.02071877 0.08225521 0.02670000
v 0.01403127 0.08225521 0.02670000
v 0.00632231 0.13085561 0.02670000
v 0.00632231 0.08225521 0.02670000
v 0.01046877 0.08225521 0.02670000
v 0.02900000 0.14000000 0.02670000
v 0.02900000 0.15000001 0.02670000
v 0.02300000 0.14000000 0.02670000
v 0.02071877 0.15000001 0.02670000
v 0.01948854 0.15000001 0.02670000
v 0.03500000 0.01788748 0.02670000
v 0.03500000 0.04386914 0.02670000
v 0.02900000 0.06000000 0.02670000
v 0.02300000 0.06000000 0.02670000
v 0.02300000 0.08225521 0.02670000
v 0.00000000 0.01788748 0.02670000
v 0.00181645 0.01788748 0.02670000
v 0.00447463 0.01788748 0.02670000
v 0.01046877 0.01788748 0.02670000
v 0.00632231 0.01788748 0.02670000
v 0.01403127 0.01788748 0.02670000
v 0.01403127 0.04386914 0.02670000
v 0.01046877 0.04386914 0.02670000
v 0.00632231 0.04386914 0.02670000
v 0.00239003 0.06124308 0.02670000
v 0.00228090 0.06125744 0.02670000
v 0.00217344 0.06128127 0.02670000
v 0.00186914 0.06359269 0.02670000
v 0.00196677 0.06364351 0.02670000
v 0.00181645 0.08225521 0.02670000
v 0.00228090 0.06374256 0.02670000
v 0.00239003 0.06375692 0.02670000
v 0.00250000 0.06376173 0.02670000
v 0.00447463 0.08225521 0.02670000
v 0.00206847 0.06131437 0.02670000
v 0.00196677 0.06135649 0.02670000
v 0.00186914 0.06140732 0.02670000
v 0.00206847 0.06368563 0.02670000
v 0.00217344 0.06371873 0.02670000
v 0.00322369 0.06146646 0.02670000
v 0.00313086 0.06140732 0.02670000
v 0.00260997 0.06375692 0.02670000
v 0.00271910 0.06374256 0.02670000
v 0.00282656 0.06371873 0.02670000
v 0.00313086 0.06359269 0.02670000
v 0.00322369 0.06353354 0.02670000
v 0.00282656 0.06128127 0.02670000
v 0.00271910 0.06125744 0.02670000
v 0.00260997 0.06124308 0.02670000
v 0.00250000 0.06123828 0.02670000
v 0.00293153 0.06368563 0.02670000
v 0.00303323 0.06364351 0.02670000
v 0.00303323 0.06135649 0.02670000
v 0.00293153 0.06131437 0.02670000
v 0.00331102 0.06346653 0.02670000
v 0.00339217 0.06339217 0.02670000
v 0.00346654 0.06331102 0.02670000
v 0.00374255 0.06271910 0.02670000
v 0.00375692 0.06260996 0.02670000
v 0.00376172 0.06250000 0.02670000
v 0.00353354 0.06322370 0.02670000
v 0.00359268 0.06313086 0.02670000
v 0.00364351 0.06303323 0.02670000
v 0.00375692 0.06239003 0.02670000
v 0.00374255 0.06228090 0.02670000
v 0.00371873 0.06217344 0.02670000
v 0.00368563 0.06206847 0.02670000
v 0.00364351 0.06196677 0.02670000
v 0.00368563 0.06293154 0.02670000
v 0.00371873 0.06282656 0.02670000
v 0.00359268 0.06186914 0.02670000
v 0.00353354 0.06177631 0.02670000
v 0.00346654 0.06168898 0.02670000
v 0.00339217 0.06160783 0.02670000
v 0.00331102 0.06153347 0.02670000
v 0.00128127 0.06282656 0.02670000
v 0.00131437 0.06293154 0.02670000
v 0.00000000 0.08225521 0.02670000
v 0.00135649 0.06303323 0.02670000
v 0.00140732 0.06313086 0.02670000
v 0.00146646 0.06322370 0.02670000
v 0.00153346 0.06331102 0.02670000
v 0.00177631 0.06146646 0.02670000
v 0.00168898 0.06153347 0.02670000
v 0.00160783 0.06160783 0.02670000
v 0.00123828 0.06250000 0.02670000
v 0.00160783 0.06339217 0.02670000
v 0.00168898 0.06346653 0.02670000
v 0.00177631 0.06353354 0.02670000
v 0.00153346 0.06168898 0.02670000
v 0.00146646 0.06177631 0.02670000
v 0.00140732 0.06186914 0.02670000
v 0.00135649 0.06196677 0.02670000
v 0.00131437 0.06206847 0.02670000
v 0.00128127 0.06217344 0.02670000
v 0.00124308 0.06260996 0.02670000
v 0.00125745 0.06271910 0.02670000
v 0.00125745 0.06228090 0.02670000
v 0.00124308 0.06239003 0.02670000
v 0.00181645 0.10530160 0.02670000
v 0.00447463 0.12037690 0.02670000
v 0.03500000 0.00677493 0.02670000
v 0.02071877 0.00677493 0.02670000
v 0.02071877 0.01788748 0.02670000
v 0.02071877 0.00000000 0.02670000
v 0.03500000 0.00000000 0.02670000
v 0.01403127 0.00677493 0.02670000
v 0.01046877 0.00677493 0.02670000
v 0.00447463 0.00677493 0.02670000
v 0.00632231 0.00677493 0.02670000
v 0.00181645 0.00677493 0.02670000
v 0.00000000 0.00677493 0.02670000
v 0.01403127 0.00000000 0.02670000
v 0.01046877 0.00000000 0.02670000
v 0.00632231 0.00000000 0.02670000
v 0.00447463 0.00000000 0.02670000
v 0.00181645 0.00000000 0.02670000
v 0.00000000 0.00000000 0.02670000
f 1 2 3
f 1 3 4
f 3 5 4
f 4 5 6
f 7 8 9
f 8 10 9
f 9 10 11
f 10 12 11
f 11 12 13
f 12 14 13
f 13 14 15
f 14 16 15
f 15 16 17
f 16 18 17
f 17 18 19
f 18 20 19
f 19 20 21
f 20 22 21
f 21 22 23
f 22 24 23
f 23 24 25
f 24 26 25
f 25 26 27
f 26 28 27
f 27 28 29
f 28 30 29
f 29 30 31
f 30 32 31
f 31 32 33
f 32 34 33
f 33 34 35
f 34 36 35
f 35 36 37
f 36 38 37
f 37 38 39
f 38 40 39
f 39 40 41
f 40 42 41
f 41 42 43
f 42 44 43
f 43 44 45
f 44 46 45
f 45 46 47
f 46 48 47
f 47 48 49
f 48 50 49
f 49 50 51
f 50 52 51
f 51 52 53
f 52 54 53
f 53 54 55
f 54 56 55
f 55 56 57
f 56 58 57
f 57 58 59
f 58 60 59
f 59 60 61
f 60 62 61
f 61 62 63
f 62 64 63
f 63 64 65
f 64 66 65
f 65 66 67
f 66 68 67
f 67 68 69
f 68 70 69
f 69 70 71
f 70 72 71
f 71 72 73
f 72 74 73
f 73 74 75
f 74 76 75
f 75 76 77
f 76 78 77
f 77 78 79
f 78 80 79
f 79 80 81
f 80 82 81
f 81 82 83
f 82 84 83
f 83 84 85
f 84 86 85
f 85 86 87
f 86 88 87
f 87 88 89
f 88 90 89
f 89 90 91
f 90 92 91
f 91 92 93
f 92 94 93
f 93 94 95
f 94 96 95
f 95 96 97
f 96 98 97
f 97 98 99
f 98 100 99
f 99 100 101
f 100 102 101
f 101 102 103
f 102 104 103
f 103 104 105
f 104 106 105
f 105 106 107
f 106 108 107
f 107 108 109
f 108 110 109
f 109 110 111
f 110 112 111
f 111 112 113
f 112 114 113
f 113 114 115
f 114 116 115
f 115 116 117
f 116 118 117
f 117 118 119
f 118 120 119
f 119 120 121
f 120 122 121
f 121 122 123
f 122 124 123
f 123 124 125
f 124 126 125
f 125 126 127
f 126 128 127
f 127 128 129
f 128 130 129
f 129 130 131
f 130 132 131
f 131 132 133
f 132 134 133
f 133 134 135
f 134 136 135
f 135 136 137
f 136 138 137
f 137 138 139
f 138 140 139
f 139 140 141
f 140 142 141
f 141 142 143
f 142 144 143
f 143 144 145
f 144 146 145
f 145 146 147
f 146 148 147
f 147 148 149
f 148 150 149
f 149 150 7
f 150 8 7
f 151 152 153
f 152 154 153
f 153 154 155
f 154 156 155
f 155 156 157
f 156 158 157
f 157 158 159
f 158 160 159
f 159 160 161
f 160 162 161
f 161 162 163
f 162 164 163
f 163 164 165
f 164 166 165
f 165 166 167
f 166 168 167
f 167 168 169
f 168 170 169
f 169 170 171
f 170 172 171
f 171 172 173
f 172 174 173
f 173 174 175
f 174 176 175
f 175 176 177
f 176 178 177
f 177 178 179
f 178 180 179
f 179 180 181
f 180 182 181
f 181 182 183
f 182 184 183
f 183 184 185
f 184 186 185
f 185 186 187
f 186 188 187
f 187 188 189
f 188 190 189
f 189 190 191
f 190 192 191
f 191 192 193
f 192 194 193
f 193 194 195
f 194 196 195
f 195 196 197
f 196 198 197
f 197 198 199
f 198 200 199
f 199 200 201
f 200 202 201
f 201 202 203
f 202 204 203
f 203 204 205
f 204 206 205
f 205 206 207
f 206 208 207
f 207 208 209
f 208 210 209
f 209 210 211
f 210 212 211
f 211 212 213
f 212 214 213
f 213 214 215
f 214 216 215
f 215 216 217
f 216 218 217
f 217 218 219
f 218 220 219
f 219 220 221
f 220 222 221
f 221 222 223
f 222 224 223
f 223 224 225
f 224 226 225
f 225 226 227
f 226 228 227
f 227 228 229
f 228 230 229
f 229 230 231
f 230 232 231
f 231 232 233
f 232 234 233
f 233 234 235
f 234 236 235
f 235 236 237
f 236 238 237
f 237 238 239
f 238 240 239
f 239 240 241
f 240 242 241
f 241 242 243
f 242 244 243
f 243 244 245
f 244 246 245
f 245 246 247
f 246 248 247
f 247 248 249
f 248 250 249
f 249 250 251
f 250 252 251
f 251 252 253
f 252 254 253
f 253 254 255
f 254 256 255
f 255 256 257
f 256 258 257
f 257 258 259
f 258 260 259
f 259 260 261
f 260 262 261
f 261 262 263
f 262 264 263
f 263 264 265
f 264 266 265
f 265 266 267
f 266 268 267
f 267 268 269
f 268 270 269
f 269 270 271
f 270 272 271
f 271 272 273
f 272 274 273
f 273 274 275
f 274 276 275
f 275 276 277
f 276 278 277
f 277 278 279
f 278 280 279
f 279 280 281
f 280 282 281
f 281 282 283
f 282 284 283
f 283 284 285
f 284 286 285
f 285 286 287
f 286 288 287
f 287 288 289
f 288 290 289
f 289 290 291
f 290 292 291
f 291 292 293
f 292 294 293
f 293 294 151
f 294 152 151
f 295 296 297
f 296 298 297
f 297 298 299
f 298 300 299
f 299 300 301
f 300 302 301
f 301 302 303
f 302 304 303
f 303 304 305
f 304 306 305
f 305 306 307
f 306 308 307
f 307 308 309
f 308 310 309
f 309 310 311
f 310 312 311
f 311 312 313
f 312 314 313
f 313 314 315
f 314 316 315
f 315 316 317
f 316 318 317
f 317 318 319
f 318 320 319
f 319 320 321
f 320 322 321
f 321 322 323
f 322 324 323
f 323 324 325
f 324 326 325
f 325 326 327
f 326 328 327
f 327 328 329
f 328 330 329
f 329 330 331
f 330 332 331
f 331 332 333
f 332 334 333
f 333 334 335
f 334 336 335
f 335 336 337
f 336 338 337
f 337 338 339
f 338 340 339
f 339 340 341
f 340 342 341
f 341 342 343
f 342 344 343
f 343 344 345
f 344 346 345
f 345 346 347
f 346 348 347
f 347 348 349
f 348 350 349
f 349 350 351
f 350 352 351
f 351 352 353
f 352 354 353
f 353 354 355
f 354 356 355
f 355 356 357
f 356 358 357
f 357 358 359
f 358 360 359
f 359 360 361
f 360 362 361
f 361 362 363
f 362 364 363
f 363 364 365
f 364 366 365
f 365 366 367
f 366 368 367
f 367 368 369
f 368 370 369
f 369 370 371
f 370 372 371
f 371 372 373
f 372 374 373
f 373 374 375
f 374 376 375
f 375 376 377
f 376 378 377
f 377 378 379
f 378 380 379
f 379 380 381
f 380 382 381
f 381 382 383
f 382 384 383
f 383 384 385
f 384 386 385
f 385 386 387
f 386 388 387
f 387 388 389
f 388 390 389
f 389 390 391
f 390 392 391
f 391 392 393
f 392 394 393
f 393 394 395
f 394 396 395
f 395 396 397
f 396 398 397
f 397 398 399
f 398 400 399
f 399 400 401
f 400 402 401
f 401 402 403
f 402 404 403
f 403 404 405
f 404 406 405
f 405 406 407
f 406 408 407
f 407 408 409
f 408 410 409
f 409 410 411
f 410 412 411
f 411 412 413
f 412 414 413
f 413 414 415
f 414 416 415
f 415 416 417
f 416 418 417
f 417 418 419
f 418 420 419
f 419 420 421
f 420 422 421
f 421 422 423
f 422 424 423
f 423 424 425
f 424 426 425
f 425 426 427
f 426 428 427
f 427 428 429
f 428 430 429
f 429 430 431
f 430 432 431
f 431 432 433
f 432 434 433
f 433 434 435
f 434 436 435
f 435 436 437
f 436 438 437
f 437 438 295
f 438 296 295
f 439 440 441
f 439 441 442
f 441 443 442
f 442 443 444
f 443 445 444
f 444 445 446
f 445 447 446
f 446 447 448
f 447 449 448
f 448 449 450
f 449 451 450
f 450 451 452
f 451 453 452
f 452 453 454
f 453 455 454
f 454 455 456
f 455 457 456
f 456 457 458
f 457 459 458
f 458 459 460
f 459 461 460
f 460 461 462
f 461 463 462
f 462 463 464
f 463 465 464
f 464 465 466
f 465 467 466
f 466 467 468
f 467 469 468
f 468 469 470
f 469 471 470
f 470 471 472
f 471 473 472
f 472 473 474
f 473 475 474
f 474 475 476
f 477 478 479
f 478 480 479
f 479 480 481
f 480 482 481
f 481 482 483
f 482 484 483
f 483 484 485
f 484 486 485
f 485 486 487
f 486 488 487
f 487 488 489
f 488 490 489
f 489 490 491
f 490 492 491
f 491 492 493
f 492 494 493
f 493 494 495
f 494 496 495
f 495 496 497
f 496 498 497
f 497 498 499
f 498 500 499
f 499 500 501
f 500 502 501
f 501 502 503
f 502 504 503
f 503 504 505
f 504 506 505
f 505 506 507
f 506 508 507
f 507 508 509
f 508 510 509
f 509 510 511
f 510 512 511
f 511 512 513
f 512 514 513
f 513 514 515
f 514 516 515
f 515 516 517
f 516 518 517
f 517 518 519
f 518 520 519
f 519 520 521
f 520 522 521
f 521 522 523
f 522 524 523
f 523 524 525
f 524 526 525
f 525 526 527
f 526 528 527
f 527 528 529
f 528 530 529
f 529 530 531
f 530 532 531
f 531 532 533
f 532 534 533
f 533 534 535
f 534 536 535
f 535 536 537
f 536 538 537
f 537 538 539
f 538 540 539
f 539 540 541
f 540 542 541
f 541 542 543
f 542 544 543
f 543 544 545
f 544 546 545
f 545 546 547
f 546 548 547
f 547 548 549
f 548 550 549
f 549 550 551
f 550 552 551
f 551 552 553
f 552 554 553
f 553 554 555
f 554 556 555
f 555 556 557
f 556 558 557
f 557 558 559
f 558 560 559
f 559 560 561
f 560 562 561
f 561 562 563
f 562 564 563
f 563 564 565
f 564 566 565
f 565 566 567
f 566 568 567
f 567 568 569
f 568 570 569
f 569 570 571
f 570 572 571
f 571 572 573
f 572 574 573
f 573 574 575
f 574 576 575
f 575 576 577
f 576 578 577
f 577 578 579
f 578 580 579
f 579 580 581
f 580 582 581
f 581 582 583
f 582 584 583
f 583 584 585
f 584 586 585
f 585 586 587
f 586 588 587
f 587 588 589
f 588 590 589
f 589 590 591
f 590 592 591
f 591 592 593
f 592 594 593
f 593 594 595
f 594 596 595
f 595 596 597
f 596 598 597
f 597 598 599
f 598 600 599
f 599 600 601
f 600 602 601
f 601 602 603
f 602 604 603
f 603 604 605
f 604 606 605
f 605 606 607
f 606 608 607
f 607 608 609
f 608 610 609
f 609 610 611
f 610 612 611
f 611 612 613
f 612 614 613
f 613 614 615
f 614 616 615
f 615 616 617
f 616 618 617
f 617 618 619
f 618 620 619
f 619 620 477
f 620 478 477
f 621 440 622
f 440 439 622
f 623 624 625
f 624 626 625
f 625 626 627
f 626 628 627
f 627 628 629
f 628 630 629
f 629 630 631
f 630 632 631
f 631 632 633
f 632 634 633
f 633 634 635
f 634 636 635
f 635 636 637
f 636 638 637
f 637 638 639
f 638 640 639
f 639 640 641
f 640 642 641
f 641 642 643
f 642 644 643
f 643 644 645
f 644 646 645
f 645 646 647
f 646 648 647
f 647 648 649
f 648 650 649
f 649 650 651
f 650 652 651
f 651 652 653
f 652 654 653
f 653 654 655
f 654 656 655
f 655 656 657
f 656 658 657
f 657 658 622
f 658 621 622
f 659 624 660
f 624 623 660
f 661 662 663
f 662 664 663
f 663 664 665
f 664 666 665
f 665 666 667
f 666 668 667
f 667 668 669
f 668 670 669
f 669 670 671
f 670 672 671
f 671 672 673
f 672 674 673
f 673 674 675
f 674 676 675
f 675 676 677
f 676 678 677
f 677 678 679
f 678 680 679
f 679 680 681
f 680 682 681
f 681 682 683
f 682 684 683
f 683 684 685
f 684 686 685
f 685 686 687
f 686 688 687
f 687 688 689
f 688 690 689
f 689 690 691
f 690 692 691
f 691 692 693
f 692 694 693
f 693 694 695
f 694 696 695
f 695 696 660
f 696 659 660
f 662 661 697
f 661 698 697
f 699 700 701
f 700 702 701
f 701 702 703
f 704 705 706
f 704 706 703
f 706 707 708
f 703 706 701
f 706 708 701
f 701 708 699
f 709 710 711
f 710 712 711
f 711 712 713
f 712 714 713
f 715 716 717
f 718 719 720
f 703 721 722
f 8 723 724
f 651 653 725
f 726 727 728
f 729 730 731
f 730 732 731
f 732 733 731
f 731 733 734
f 727 735 731
f 735 736 731
f 736 737 731
f 731 737 729
f 714 738 739
f 734 740 731
f 740 741 731
f 731 741 714
f 741 742 714
f 742 743 714
f 743 744 714
f 714 744 745
f 745 746 714
f 746 747 714
f 714 747 738
f 739 748 714
f 748 749 714
f 714 749 750
f 750 751 714
f 751 752 714
f 714 752 753
f 753 754 714
f 754 755 714
f 714 755 756
f 757 728 758
f 728 759 758
f 758 759 760
f 757 761 728
f 761 762 728
f 728 762 763
f 756 764 714
f 764 765 714
f 714 765 713
f 765 766 713
f 713 766 767
f 763 768 728
f 768 769 728
f 728 769 726
f 770 771 759
f 771 772 759
f 759 772 773
f 773 774 759
f 774 775 759
f 759 775 760
f 767 776 713
f 776 777 713
f 713 777 778
f 779 780 713
f 780 781 713
f 782 783 759
f 778 784 713
f 784 785 713
f 713 785 786
f 787 788 713
f 788 789 713
f 713 789 779
f 783 790 759
f 790 791 759
f 759 791 770
f 786 792 713
f 792 793 713
f 713 793 787
f 794 795 759
f 781 796 713
f 796 797 713
f 713 797 759
f 797 798 759
f 759 798 794
f 795 799 759
f 799 800 759
f 759 800 782
f 759 801 713
f 801 802 713
f 713 802 803
f 802 476 803
f 470 472 802
f 472 474 802
f 802 474 476
f 448 450 802
f 450 452 802
f 452 454 802
f 454 456 802
f 802 456 458
f 458 460 802
f 460 462 802
f 802 462 464
f 464 466 802
f 466 468 802
f 802 468 470
f 653 655 725
f 655 657 725
f 725 657 622
f 802 439 442
f 442 444 802
f 444 446 802
f 802 446 448
f 804 667 805
f 667 669 805
f 669 671 805
f 671 673 805
f 805 673 675
f 805 687 689
f 631 806 629
f 806 627 629
f 631 633 806
f 633 635 806
f 806 635 637
f 643 645 806
f 645 647 806
f 806 647 649
f 675 677 805
f 677 679 805
f 805 679 681
f 689 691 805
f 691 693 805
f 805 693 695
f 637 639 806
f 639 641 806
f 806 641 643
f 681 683 805
f 683 685 805
f 805 685 687
f 695 660 806
f 660 623 806
f 623 625 806
f 806 625 627
f 26 724 28
f 724 30 28
f 136 723 138
f 723 140 138
f 723 130 128
f 122 120 723
f 120 118 723
f 723 118 804
f 118 116 804
f 804 116 114
f 114 112 804
f 112 110 804
f 804 110 108
f 804 102 100
f 36 724 38
f 724 807 38
f 36 34 724
f 34 32 724
f 724 32 30
f 26 24 724
f 24 22 724
f 724 22 20
f 136 134 723
f 134 132 723
f 723 132 130
f 128 126 723
f 126 124 723
f 723 124 122
f 108 106 804
f 106 104 804
f 804 104 102
f 667 50 665
f 50 48 665
f 665 48 663
f 48 661 663
f 698 40 808
f 40 38 808
f 808 38 809
f 38 807 809
f 20 18 724
f 18 16 724
f 724 16 14
f 14 12 724
f 12 10 724
f 724 10 8
f 8 150 723
f 150 148 723
f 723 148 146
f 68 66 667
f 66 64 667
f 667 64 62
f 62 60 667
f 60 58 667
f 667 58 56
f 48 46 661
f 46 44 661
f 661 44 698
f 44 42 698
f 698 42 40
f 146 144 723
f 144 142 723
f 723 142 140
f 88 86 804
f 86 84 804
f 56 54 667
f 54 52 667
f 667 52 50
f 100 98 804
f 98 96 804
f 804 96 94
f 94 92 804
f 92 90 804
f 804 90 88
f 76 74 667
f 84 82 804
f 82 80 804
f 804 80 667
f 80 78 667
f 667 78 76
f 74 72 667
f 72 70 667
f 667 70 68
f 810 811 812
f 811 813 812
f 812 813 814
f 814 815 812
f 815 816 812
f 812 816 817
f 818 819 820
f 817 821 812
f 821 818 812
f 812 818 822
f 818 820 822
f 823 705 722
f 705 704 722
f 722 704 703
f 824 825 826
f 825 718 826
f 827 828 829
f 830 831 832
f 833 834 835
f 834 836 835
f 835 836 837
f 838 839 840
f 838 840 841
f 839 842 840
f 842 843 840
f 840 843 844
f 845 846 801
f 846 847 801
f 801 847 848
f 848 849 801
f 849 850 801
f 801 850 851
f 851 852 801
f 852 853 801
f 801 853 854
f 855 856 840
f 856 857 840
f 840 857 841
f 854 858 801
f 858 859 801
f 801 859 840
f 859 860 840
f 840 860 855
f 861 862 863
f 864 865 728
f 844 866 840
f 866 867 840
f 840 867 868
f 867 869 868
f 868 869 870
f 871 872 759
f 873 874 868
f 871 759 875
f 872 876 759
f 876 877 759
f 759 877 801
f 877 878 801
f 801 878 845
f 868 874 863
f 874 879 863
f 863 879 861
f 880 881 728
f 881 882 728
f 728 882 864
f 870 883 868
f 883 884 868
f 868 884 885
f 862 886 863
f 886 887 863
f 863 887 888
f 889 890 728
f 885 891 868
f 891 892 868
f 868 892 873
f 865 893 728
f 893 894 728
f 728 894 759
f 894 895 759
f 759 895 875
f 888 896 863
f 896 897 863
f 863 897 898
f 899 900 728
f 900 901 728
f 728 901 889
f 890 902 728
f 902 903 728
f 728 903 880
f 898 904 863
f 904 905 863
f 863 905 906
f 907 908 728
f 908 909 728
f 728 909 899
f 906 910 863
f 910 911 863
f 863 911 912
f 912 907 863
f 907 728 863
f 863 728 2
f 728 3 2
f 727 731 728
f 731 5 728
f 728 5 3
f 615 617 913
f 481 483 914
f 481 914 479
f 483 485 914
f 485 487 914
f 914 487 489
f 521 523 915
f 523 525 915
f 489 491 914
f 491 493 914
f 914 493 495
f 525 527 915
f 527 529 915
f 915 529 531
f 609 611 913
f 611 613 913
f 913 613 615
f 495 497 914
f 497 499 914
f 914 499 501
f 501 503 914
f 503 505 914
f 914 505 507
f 507 509 914
f 509 511 914
f 914 511 513
f 513 515 914
f 515 517 914
f 914 517 915
f 517 519 915
f 915 519 521
f 531 533 915
f 533 535 915
f 915 535 537
f 597 599 913
f 599 601 913
f 913 601 603
f 603 605 913
f 605 607 913
f 913 607 609
f 537 539 915
f 539 541 915
f 915 541 543
f 545 547 916
f 547 549 916
f 916 549 551
f 551 553 916
f 553 555 916
f 916 555 557
f 557 559 916
f 559 561 916
f 916 561 563
f 569 571 916
f 571 573 916
f 916 573 575
f 589 591 913
f 563 565 916
f 565 567 916
f 916 567 569
f 575 577 916
f 577 579 916
f 916 579 581
f 591 593 913
f 593 595 913
f 913 595 597
f 581 583 916
f 583 585 916
f 916 585 913
f 585 587 913
f 913 587 589
f 617 619 913
f 619 477 913
f 913 477 917
f 479 914 477
f 914 918 477
f 477 918 917
f 919 321 920
f 321 323 920
f 920 323 325
f 325 327 920
f 327 329 920
f 920 329 331
f 331 333 920
f 333 335 920
f 920 335 805
f 921 427 429
f 429 431 921
f 431 433 921
f 921 433 435
f 303 919 301
f 919 299 301
f 315 317 919
f 317 319 919
f 919 319 321
f 303 305 919
f 305 307 919
f 919 307 309
f 309 311 919
f 311 313 919
f 919 313 315
f 435 437 921
f 437 295 921
f 921 295 919
f 295 297 919
f 919 297 299
f 385 387 721
f 385 721 383
f 810 812 702
f 812 724 702
f 702 724 703
f 724 723 703
f 703 723 721
f 723 381 721
f 721 381 383
f 922 423 921
f 423 425 921
f 921 425 427
f 387 389 721
f 389 391 721
f 721 391 393
f 393 395 721
f 395 397 721
f 721 397 399
f 401 403 922
f 415 417 922
f 417 419 922
f 419 421 922
f 922 421 423
f 403 405 922
f 405 407 922
f 922 407 409
f 409 411 922
f 411 413 922
f 922 413 415
f 335 337 805
f 337 339 805
f 805 339 804
f 339 341 804
f 804 341 343
f 343 345 804
f 345 347 804
f 804 347 349
f 349 351 804
f 351 353 804
f 804 353 355
f 355 357 804
f 357 359 804
f 804 359 361
f 369 371 723
f 371 373 723
f 723 373 375
f 375 377 723
f 377 379 723
f 723 379 381
f 361 363 804
f 363 365 804
f 804 365 723
f 365 367 723
f 723 367 369
f 923 924 925
f 924 926 925
f 925 926 927
f 926 922 927
f 927 922 928
f 922 921 928
f 928 921 929
f 921 919 929
f 929 919 930
f 919 920 930
f 930 920 917
f 924 823 926
f 823 722 926
f 926 722 922
f 722 721 922
f 922 721 401
f 721 399 401
f 718 720 826
f 720 915 826
f 826 915 916
f 915 543 916
f 916 543 545
f 278 276 805
f 292 805 294
f 805 152 294
f 286 284 805
f 248 246 916
f 284 282 805
f 282 280 805
f 805 280 278
f 248 916 250
f 206 204 826
f 695 806 805
f 806 154 805
f 805 154 152
f 276 274 805
f 274 272 805
f 805 272 270
f 270 268 805
f 268 266 805
f 805 266 264
f 917 920 913
f 920 805 913
f 913 805 916
f 805 264 916
f 916 264 262
f 262 260 916
f 260 258 916
f 916 258 256
f 174 172 806
f 292 290 805
f 290 288 805
f 805 288 286
f 256 254 916
f 254 252 916
f 916 252 250
f 246 244 916
f 244 242 916
f 916 242 240
f 172 170 806
f 170 168 806
f 806 168 166
f 166 164 806
f 164 162 806
f 806 162 160
f 160 158 806
f 158 156 806
f 806 156 154
f 240 238 916
f 238 236 916
f 916 236 234
f 214 212 826
f 204 202 826
f 202 200 826
f 826 200 198
f 198 196 826
f 196 194 826
f 826 194 192
f 212 210 826
f 210 208 826
f 826 208 206
f 186 806 188
f 806 826 188
f 188 826 190
f 826 192 190
f 186 184 806
f 184 182 806
f 806 182 180
f 180 178 806
f 178 176 806
f 806 176 174
f 234 232 916
f 232 230 916
f 916 230 228
f 228 226 916
f 226 224 916
f 916 224 826
f 224 222 826
f 826 222 220
f 220 218 826
f 218 216 826
f 826 216 214
f 806 931 826
f 931 717 826
f 826 717 824
f 717 716 824
f 829 715 827
f 715 717 827
f 827 717 832
f 717 931 832
f 832 931 830
f 931 806 830
f 830 806 725
f 806 649 725
f 725 649 651
f 835 932 833
f 932 933 833
f 833 933 934
f 933 831 934
f 934 831 840
f 831 830 840
f 840 830 801
f 830 725 801
f 801 725 802
f 725 622 802
f 802 622 439
f 935 912 936
f 912 911 936
f 936 911 937
f 911 910 937
f 937 910 938
f 910 906 938
f 938 906 939
f 906 905 939
f 939 905 940
f 905 904 940
f 940 904 941
f 904 898 941
f 941 898 942
f 898 897 942
f 942 897 943
f 897 896 943
f 943 896 944
f 896 888 944
f 944 888 945
f 888 887 945
f 945 887 946
f 887 886 946
f 946 886 947
f 886 862 947
f 947 862 948
f 862 861 948
f 948 861 949
f 861 879 949
f 949 879 950
f 879 874 950
f 950 874 951
f 874 873 951
f 951 873 952
f 873 892 952
f 952 892 953
f 892 891 953
f 953 891 954
f 891 885 954
f 954 885 955
f 885 884 955
f 955 884 956
f 884 883 956
f 956 883 957
f 883 870 957
f 957 870 958
f 870 869 958
f 958 869 959
f 869 867 959
f 959 867 960
f 867 866 960
f 960 866 961
f 866 844 961
f 961 844 962
f 844 843 962
f 962 843 963
f 843 842 963
f 963 842 964
f 842 839 964
f 964 839 965
f 839 838 965
f 965 838 966
f 838 841 966
f 966 841 967
f 841 857 967
f 967 857 968
f 857 856 968
f 968 856 969
f 856 855 969
f 969 855 970
f 855 860 970
f 970 860 971
f 860 859 971
f 971 859 972
f 859 858 972
f 972 858 973
f 858 854 973
f 973 854 974
f 854 853 974
f 974 853 975
f 853 852 975
f 975 852 976
f 852 851 976
f 976 851 977
f 851 850 977
f 977 850 978
f 850 849 978
f 978 849 979
f 849 848 979
f 979 848 980
f 848 847 980
f 980 847 981
f 847 846 981
f 981 846 982
f 846 845 982
f 982 845 983
f 845 878 983
f 983 878 984
f 878 877 984
f 984 877 985
f 877 876 985
f 985 876 986
f 876 872 986
f 986 872 987
f 872 871 987
f 987 871 988
f 871 875 988
f 988 875 989
f 875 895 989
f 989 895 990
f 895 894 990
f 990 894 991
f 894 893 991
f 991 893 992
f 893 865 992
f 992 865 993
f 865 864 993
f 993 864 994
f 864 882 994
f 994 882 995
f 882 881 995
f 995 881 996
f 881 880 996
f 996 880 997
f 880 903 997
f 997 903 998
f 903 902 998
f 998 902 999
f 902 890 999
f 999 890 1000
f 890 889 1000
f 1000 889 1001
f 889 901 1001
f 1001 901 1002
f 901 900 1002
f 1002 900 1003
f 900 899 1003
f 1003 899 1004
f 899 909 1004
f 1004 909 1005
f 909 908 1005
f 1005 908 1006
f 908 907 1006
f 1006 907 935
f 907 912 935
f 1007 831 933
f 1007 933 1008
f 933 932 1008
f 1008 932 1009
f 932 835 1009
f 1009 835 1010
f 835 837 1010
f 1010 837 1011
f 837 836 1011
f 1011 836 1012
f 836 834 1012
f 1012 834 1013
f 834 833 1013
f 1013 833 1014
f 833 934 1014
f 1014 934 1015
f 1016 1017 718
f 1017 719 718
f 476 475 803
f 475 1018 803
f 1018 709 803
f 709 711 803
f 803 711 713
f 702 700 1019
f 702 1019 810
f 1019 1020 810
f 810 1020 811
f 1020 1021 811
f 811 1021 813
f 1021 1022 813
f 813 1022 814
f 1022 1023 814
f 814 1023 815
f 1023 1024 815
f 815 1024 816
f 1024 1025 816
f 816 1025 817
f 1025 1026 817
f 817 1026 821
f 1026 1027 821
f 821 1027 818
f 1027 1028 818
f 818 1028 819
f 1028 1029 819
f 819 1029 820
f 1029 1030 820
f 820 1030 822
f 1030 1031 822
f 822 1031 812
f 1031 1032 812
f 812 1032 724
f 1032 1033 724
f 724 1033 807
f 1033 1034 807
f 807 1034 809
f 1034 1035 809
f 809 1035 808
f 1035 697 808
f 808 697 698
f 1036 1037 1038
f 1039 1040 1041
f 1014 1015 1008
f 1015 1007 1008
f 1010 1011 1012
f 1008 1009 1014
f 1009 1010 1014
f 1014 1010 1013
f 1010 1012 1013
f 1042 1043 1044
f 1043 1045 1044
f 1044 1045 1037
f 1045 1046 1037
f 1037 1046 1038
f 1046 1007 1038
f 1047 1048 1036
f 1048 1017 1036
f 1036 1017 1016
f 1016 1049 1036
f 1049 1050 1036
f 1036 1050 1037
f 1050 1051 1037
f 1037 1051 1044
f 707 1052 1053
f 707 1053 708
f 1053 1054 708
f 708 1054 699
f 1023 1022 1031
f 1022 1021 1031
f 1031 1021 1020
f 1029 1028 1027
f 1026 1025 1031
f 1025 1024 1031
f 1031 1024 1023
f 1026 1031 1027
f 1031 1030 1027
f 1027 1030 1029
f 49 51 668
f 79 81 1055
f 81 83 1055
f 1055 83 85
f 109 111 1055
f 1033 1032 37
f 49 668 47
f 85 87 1055
f 87 89 1055
f 1055 89 91
f 91 93 1055
f 93 95 1055
f 1055 95 97
f 97 99 1055
f 99 101 1055
f 1055 101 103
f 668 666 47
f 666 664 47
f 47 664 45
f 664 662 45
f 45 662 43
f 668 57 59
f 59 61 668
f 61 63 668
f 668 63 65
f 103 105 1055
f 105 107 1055
f 1055 107 109
f 123 1056 121
f 1056 119 121
f 51 53 668
f 53 55 668
f 668 55 57
f 65 67 668
f 67 69 668
f 668 69 71
f 71 73 668
f 73 75 668
f 668 75 77
f 111 113 1055
f 113 115 1055
f 1055 115 1056
f 115 117 1056
f 1056 117 119
f 27 29 1032
f 29 31 1032
f 43 662 41
f 662 697 41
f 41 697 39
f 697 1035 39
f 39 1035 37
f 1035 1034 37
f 37 1034 1033
f 31 33 1032
f 33 35 1032
f 1032 35 37
f 123 125 1056
f 125 127 1056
f 1056 127 129
f 129 131 1056
f 131 133 1056
f 1056 133 135
f 135 137 1056
f 137 139 1056
f 1056 139 141
f 19 21 1032
f 21 23 1032
f 23 25 1032
f 1032 25 27
f 141 143 1056
f 143 145 1056
f 1056 145 147
f 11 13 1032
f 147 149 1056
f 149 7 1056
f 1056 7 1032
f 7 9 1032
f 1032 9 11
f 13 15 1032
f 15 17 1032
f 1032 17 19
f 77 79 668
f 79 1055 668
f 668 1055 670
f 1055 1057 670
f 670 1057 672
f 680 678 1057
f 648 646 1058
f 646 644 1058
f 1058 644 642
f 636 634 1058
f 634 632 1058
f 1058 632 630
f 692 690 1057
f 690 688 1057
f 1057 688 686
f 678 676 1057
f 676 674 1057
f 1057 674 672
f 1059 652 1058
f 652 650 1058
f 1058 650 648
f 642 640 1058
f 640 638 1058
f 1058 638 636
f 630 628 1058
f 628 626 1058
f 1058 626 624
f 686 684 1057
f 684 682 1057
f 1057 682 680
f 624 659 1058
f 659 696 1058
f 1058 696 1057
f 696 694 1057
f 1057 694 692
f 658 656 1059
f 656 654 1059
f 1059 654 652
f 449 447 1060
f 447 445 1060
f 1060 440 1059
f 440 621 1059
f 1059 621 658
f 445 443 1060
f 443 441 1060
f 1060 441 440
f 709 1018 1060
f 1018 475 1060
f 1060 475 473
f 473 471 1060
f 471 469 1060
f 1060 469 467
f 461 459 1060
f 459 457 1060
f 1060 457 455
f 455 453 1060
f 453 451 1060
f 1060 451 449
f 467 465 1060
f 465 463 1060
f 1060 463 461
f 1061 1062 710
f 1062 1063 710
f 1064 1065 1066
f 1067 1068 1066
f 1068 1069 1066
f 1066 1069 1070
f 1063 1071 710
f 1071 1072 710
f 710 1072 1073
f 1065 1074 1066
f 1074 1075 1066
f 1066 1075 1067
f 1076 1077 709
f 1069 1078 1070
f 1078 1079 1070
f 1070 1079 1080
f 1070 1081 1082
f 1083 1084 709
f 1084 1085 709
f 709 1085 710
f 1085 1086 710
f 710 1086 1061
f 1080 1087 1070
f 1087 1088 1070
f 1070 1088 1081
f 1077 1089 709
f 1089 1090 709
f 709 1090 1083
f 1082 1091 1070
f 1091 1092 1070
f 1070 1092 1093
f 1094 1095 1070
f 1095 1096 1070
f 1093 1097 1070
f 1097 1098 1070
f 1070 1098 1099
f 709 1100 1101
f 1101 1102 709
f 1102 1103 709
f 709 1103 1104
f 1099 1105 1070
f 1105 1106 1070
f 1070 1106 1094
f 1104 1107 709
f 1107 1108 709
f 709 1108 1109
f 1109 1110 709
f 1110 1111 709
f 709 1111 1076
f 1112 1113 1114
f 1113 1115 1114
f 1115 1116 1114
f 1116 1117 1114
f 1114 1117 1118
f 1073 1119 710
f 1119 1120 710
f 710 1120 1121
f 1122 1114 710
f 1118 1123 1114
f 1123 1124 1114
f 1114 1124 1066
f 1124 1125 1066
f 1066 1125 1064
f 1121 1126 710
f 1126 1127 710
f 710 1127 1128
f 1128 1129 710
f 1129 1130 710
f 710 1130 1131
f 1122 1132 1114
f 1132 1133 1114
f 1114 1133 1112
f 1131 1134 710
f 1134 1135 710
f 710 1135 1122
f 1066 1136 1
f 1 4 1066
f 4 6 1066
f 1066 6 1114
f 946 947 1136
f 955 956 1137
f 956 957 1137
f 985 986 1070
f 986 987 1070
f 991 992 1066
f 992 993 1066
f 1066 993 994
f 947 948 1136
f 948 949 1136
f 1136 949 1137
f 941 942 1136
f 942 943 1136
f 949 950 1137
f 950 951 1137
f 1137 951 952
f 943 944 1136
f 944 945 1136
f 1136 945 946
f 987 988 1070
f 988 989 1070
f 1070 989 1066
f 989 990 1066
f 1066 990 991
f 994 995 1066
f 995 996 1066
f 1066 996 997
f 952 953 1137
f 953 954 1137
f 1137 954 955
f 997 998 1066
f 998 999 1066
f 1066 999 1000
f 1000 1001 1066
f 1001 1002 1066
f 1066 1002 1003
f 1003 1004 1066
f 1004 1005 1066
f 1066 1005 1136
f 1005 1006 1136
f 1136 1006 935
f 935 936 1136
f 936 937 1136
f 1136 937 938
f 938 939 1136
f 939 940 1136
f 1136 940 941
f 957 958 1137
f 958 959 1137
f 1137 959 1039
f 981 982 1040
f 982 983 1040
f 1040 983 1070
f 983 984 1070
f 1070 984 985
f 959 960 1039
f 960 961 1039
f 1039 961 962
f 977 978 1040
f 962 963 1039
f 963 964 1039
f 1039 964 965
f 978 979 1040
f 979 980 1040
f 1040 980 981
f 1040 1039 971
f 971 972 1040
f 972 973 1040
f 1040 973 974
f 974 975 1040
f 975 976 1040
f 1040 976 977
f 965 966 1039
f 966 967 1039
f 1039 967 968
f 968 969 1039
f 969 970 1039
f 1039 970 971
f 484 482 1138
f 482 480 1138
f 478 620 1139
f 620 618 1139
f 1139 618 616
f 616 614 1139
f 614 612 1139
f 1139 612 610
f 610 608 1139
f 608 606 1139
f 1139 606 604
f 604 602 1139
f 602 600 1139
f 1139 600 598
f 1047 544 542
f 490 488 1138
f 488 486 1138
f 1138 486 484
f 536 534 1047
f 534 532 1047
f 1047 532 530
f 530 528 1047
f 528 526 1047
f 1047 526 524
f 598 596 1139
f 596 594 1139
f 1139 594 592
f 580 1140 582
f 1140 584 582
f 580 578 1140
f 578 576 1140
f 1140 576 574
f 574 572 1140
f 572 570 1140
f 1140 570 568
f 558 1140 560
f 1140 562 560
f 558 556 1140
f 556 554 1140
f 1140 554 552
f 552 550 1140
f 550 548 1140
f 1140 548 546
f 542 540 1047
f 540 538 1047
f 1047 538 536
f 496 494 1138
f 494 492 1138
f 1138 492 490
f 568 566 1140
f 566 564 1140
f 1140 564 562
f 524 522 1047
f 522 520 1047
f 1047 520 1138
f 520 518 1138
f 1138 518 516
f 516 514 1138
f 514 512 1138
f 1138 512 510
f 1138 504 502
f 592 590 1139
f 590 588 1139
f 1139 588 586
f 510 508 1138
f 508 506 1138
f 1138 506 504
f 502 500 1138
f 500 498 1138
f 1138 498 496
f 480 478 1138
f 478 1141 1138
f 1138 1141 1142
f 338 336 1143
f 336 334 1143
f 328 326 1143
f 326 324 1143
f 1143 324 1144
f 334 332 1143
f 332 330 1143
f 1143 330 328
f 360 1055 362
f 1055 364 362
f 1055 354 352
f 352 350 1055
f 350 348 1055
f 1055 348 346
f 346 344 1055
f 344 342 1055
f 1055 342 1057
f 342 340 1057
f 1057 340 338
f 360 358 1055
f 358 356 1055
f 1055 356 354
f 384 382 1056
f 382 380 1056
f 1056 380 378
f 378 376 1056
f 376 374 1056
f 1056 374 372
f 372 370 1056
f 370 368 1056
f 1056 368 1055
f 368 366 1055
f 1055 366 364
f 1054 388 386
f 1145 1146 426
f 426 424 1145
f 424 422 1145
f 1145 422 420
f 402 400 1054
f 386 384 1054
f 384 1056 1054
f 1054 1056 699
f 1056 1032 699
f 699 1032 700
f 1032 1031 700
f 700 1031 1019
f 1031 1020 1019
f 420 418 1145
f 418 416 1145
f 1145 416 414
f 400 398 1054
f 398 396 1054
f 1054 396 394
f 394 392 1054
f 392 390 1054
f 1054 390 388
f 414 412 1145
f 412 410 1145
f 1145 410 408
f 408 406 1145
f 406 404 1145
f 1145 404 402
f 324 322 1144
f 322 320 1144
f 1144 320 318
f 432 1146 434
f 1146 436 434
f 432 430 1146
f 430 428 1146
f 1146 428 426
f 318 316 1144
f 316 314 1144
f 1144 314 312
f 312 310 1144
f 310 308 1144
f 1144 308 306
f 306 304 1144
f 304 302 1144
f 1144 302 300
f 300 298 1144
f 298 296 1144
f 1144 296 1146
f 296 438 1146
f 1146 438 436
f 1058 1041 1059
f 1041 1040 1059
f 1059 1040 1060
f 1040 1070 1060
f 1060 1070 709
f 1070 1096 709
f 709 1096 1100
f 265 267 1057
f 273 275 1057
f 251 1140 249
f 1140 247 249
f 251 253 1140
f 253 255 1140
f 1140 255 257
f 227 1140 225
f 1140 223 225
f 233 235 1140
f 241 243 1140
f 243 245 1140
f 1140 245 247
f 257 259 1140
f 259 261 1140
f 1140 261 1057
f 261 263 1057
f 1057 263 265
f 267 269 1057
f 269 271 1057
f 1057 271 273
f 275 277 1057
f 277 279 1057
f 1057 279 281
f 235 237 1140
f 237 239 1140
f 1140 239 241
f 281 283 1057
f 283 285 1057
f 1057 285 287
f 167 1058 165
f 1058 163 165
f 167 169 1058
f 169 171 1058
f 1058 171 173
f 201 203 1036
f 221 223 1036
f 223 1140 1036
f 1036 1140 1047
f 1140 546 1047
f 1047 546 544
f 287 289 1057
f 289 291 1057
f 1057 291 293
f 157 159 1058
f 159 161 1058
f 1058 161 163
f 187 189 1036
f 203 205 1036
f 205 207 1036
f 1036 207 209
f 209 211 1036
f 211 213 1036
f 1036 213 215
f 215 217 1036
f 217 219 1036
f 1036 219 221
f 227 229 1140
f 229 231 1140
f 1140 231 233
f 293 151 1057
f 151 153 1057
f 1057 153 1058
f 153 155 1058
f 1058 155 157
f 173 175 1058
f 175 177 1058
f 1058 177 179
f 179 181 1058
f 181 183 1058
f 1058 183 185
f 1015 1039 1007
f 1039 1041 1007
f 1007 1041 1038
f 1041 1058 1038
f 1038 1058 1036
f 1058 185 1036
f 1036 185 187
f 189 191 1036
f 191 193 1036
f 1036 193 195
f 195 197 1036
f 197 199 1036
f 1036 199 201
f 338 1143 1057
f 1143 1139 1057
f 1057 1139 1140
f 1139 586 1140
f 1140 586 584
f 402 1054 1145
f 1054 1053 1145
f 1145 1053 1147
f 1053 1052 1147
f 1147 1052 1148
f 478 1139 1141
f 1139 1143 1141
f 1141 1143 1149
f 1143 1144 1149
f 1149 1144 1150
f 1144 1146 1150
f 1150 1146 1151
f 1146 1145 1151
f 1151 1145 1152
f 1145 1147 1152
f 1152 1147 1153
f 1147 1148 1153
f 1153 1148 1154
f 1049 1016 825
f 1016 718 825
f 712 710 1114
f 714 712 731
f 712 1114 731
f 731 1114 5
f 1114 6 5
f 1050 1049 824
f 1049 825 824
f 715 1044 716
f 1044 1051 716
f 716 1051 824
f 1051 1050 824
f 1015 934 1039
f 934 840 1039
f 1039 840 1137
f 840 868 1137
f 1137 868 1136
f 868 863 1136
f 1136 863 1
f 863 2 1
f 1042 1044 829
f 1044 715 829
f 1043 1042 828
f 1042 829 828
f 1052 707 706
f 923 1154 924
f 1154 1148 924
f 924 1148 823
f 1148 1052 823
f 823 1052 705
f 1052 706 705
f 832 1046 827
f 1046 1045 827
f 827 1045 828
f 1045 1043 828
f 1122 742 1132
f 742 741 1132
f 1132 741 1133
f 741 740 1133
f 1133 740 1112
f 740 734 1112
f 1112 734 1113
f 734 733 1113
f 1113 733 1115
f 733 732 1115
f 1115 732 1116
f 732 730 1116
f 1116 730 1117
f 730 729 1117
f 1117 729 1118
f 729 737 1118
f 1118 737 1123
f 737 736 1123
f 1123 736 1124
f 736 735 1124
f 1124 735 1125
f 735 727 1125
f 1125 727 1064
f 727 726 1064
f 1064 726 1065
f 726 769 1065
f 1065 769 1074
f 769 768 1074
f 1074 768 1075
f 768 763 1075
f 1075 763 1067
f 763 762 1067
f 1067 762 1068
f 762 761 1068
f 1068 761 1069
f 761 757 1069
f 1069 757 1078
f 757 758 1078
f 1078 758 1079
f 758 760 1079
f 1079 760 1080
f 760 775 1080
f 1080 775 1087
f 775 774 1087
f 1087 774 1088
f 774 773 1088
f 1088 773 1081
f 773 772 1081
f 1081 772 1082
f 772 771 1082
f 1082 771 1091
f 771 770 1091
f 1091 770 1092
f 770 791 1092
f 1092 791 1093
f 791 790 1093
f 1093 790 1097
f 790 783 1097
f 1097 783 1098
f 783 782 1098
f 1098 782 1099
f 782 800 1099
f 1099 800 1105
f 800 799 1105
f 1105 799 1106
f 799 795 1106
f 1106 795 1094
f 795 794 1094
f 1094 794 1095
f 794 798 1095
f 1095 798 1096
f 798 797 1096
f 1096 797 1100
f 797 796 1100
f 1100 796 1101
f 796 781 1101
f 1101 781 1102
f 781 780 1102
f 1102 780 1103
f 780 779 1103
f 1103 779 1104
f 779 789 1104
f 1104 789 1107
f 789 788 1107
f 1107 788 1108
f 788 787 1108
f 1108 787 1109
f 787 793 1109
f 1109 793 1110
f 793 792 1110
f 1110 792 1111
f 792 786 1111
f 1111 786 1076
f 786 785 1076
f 1076 785 1077
f 785 784 1077
f 1077 784 1089
f 784 778 1089
f 1089 778 1090
f 778 777 1090
f 1090 777 1083
f 777 776 1083
f 1083 776 1084
f 776 767 1084
f 1084 767 1085
f 767 766 1085
f 1085 766 1086
f 766 765 1086
f 1086 765 1061
f 765 764 1061
f 1061 764 1062
f 764 756 1062
f 1062 756 1063
f 756 755 1063
f 1063 755 1071
f 755 754 1071
f 1071 754 1072
f 754 753 1072
f 1072 753 1073
f 753 752 1073
f 1073 752 1119
f 752 751 1119
f 1119 751 1120
f 751 750 1120
f 1120 750 1121
f 750 749 1121
f 1121 749 1126
f 749 748 1126
f 1126 748 1127
f 748 739 1127
f 1127 739 1128
f 739 738 1128
f 1128 738 1129
f 738 747 1129
f 1129 747 1130
f 747 746 1130
f 1130 746 1131
f 746 745 1131
f 1131 745 1134
f 745 744 1134
f 1134 744 1135
f 744 743 1135
f 1135 743 1122
f 743 742 1122
f 719 1017 720
f 1017 1048 720
f 720 1048 915
f 1048 1047 915
f 915 1047 914
f 1047 1138 914
f 914 1138 918
f 1138 1142 918
f 1007 1046 831
f 1046 832 831
f 918 1142 917
f 1142 1141 917
f 917 1141 930
f 1141 1149 930
f 930 1149 929
f 1149 1150 929
f 929 1150 928
f 1150 1151 928
f 928 1151 927
f 1151 1152 927
f 927 1152 925
f 1152 1153 925
f 925 1153 923
f 1153 1154 923

