{
    "accessors": [
        {
            "bufferView": 0,
            "componentType": 5126,
            "count": 6,
            "max": [
                0.009605667553842068,
                0.044099848717451096,
                -0.0455843061208725
            ],
            "min": [
                0.009368558414280415,
                0.04295497015118599,
                -0.04572320356965065
            ],
            "name": "mesh761_coord_accessor",
            "type": "VEC3"
        },
        {
            "bufferView": 1,
            "componentType": 5126,
            "count": 6,
            "max": [
                -0.5611558556556702,
                0.4302372932434082,
                -0.7071067690849304
            ],
            "min": [
                -0.7063547968864441,
                -0.2708565592765808,
                -0.7071067690849304
            ],
            "name": "mesh761_norm_accessor",
            "type": "VEC3"
        },
        {
            "bufferView": 2,
            "componentType": 5125,
            "count": 12,
            "max": [
                5
            ],
            "min": [
                0
            ],
            "name": "mesh761_idx_accessor",
            "type": "SCALAR"
        },
        {
            "bufferView": 3,
            "componentType": 5126,
            "count": 9,
            "max": [
                0.009518823586404324,
                0.044099848717451096,
                -0.04452722892165184
            ],
            "min": [
                0.009368558414280415,
                0.04295497015118599,
                -0.04572320356965065
            ],
            "name": "mesh762_coord_accessor",
            "type": "VEC3"
        },
        {
            "bufferView": 4,
            "componentType": 5126,
            "count": 9,
            "max": [
                -0.9914964437484741,
                0.13013380765914917,
                -5.044560833305741e-16
            ],
            "min": [
                -0.9914964437484741,
                0.13013380765914917,
                -5.044560833305741e-16
            ],
            "name": "mesh762_norm_accessor",
            "type": "VEC3"
        },
        {
            "bufferView": 5,
            "componentType": 5125,
            "count": 21,
            "max": [
                8
            ],
            "min": [
                0
            ],
            "name": "mesh762_idx_accessor",
            "type": "SCALAR"
        },
        {
            "bufferView": 6,
            "componentType": 5126,
            "count": 52,
            "max": [
                0.009518823586404324,
                0.04480242356657982,
                -0.04405689612030983
            ],
            "min": [
                0.007385565433651209,
                0.04251266270875931,
                -0.04459534212946892
            ],
            "name": "mesh763_coord_accessor",
            "type": "VEC3"
        },
        {
            "bufferView": 7,
            "componentType": 5126,
            "count": 52,
            "max": [
                0.4226047396659851,
                0.4226152002811432,
                -0.9063078165054321
            ],
            "min": [
                -0.4226047396659851,
                -0.4226152002811432,
                -0.9063078165054321
            ],
            "name": "mesh763_norm_accessor",
            "type": "VEC3"
        },
        {
            "bufferView": 8,
            "componentType": 5125,
            "count": 78,
            "max": [
                51
            ],
            "min": [
                0
            ],
            "name": "mesh763_idx_accessor",
            "type": "SCALAR"
        },
        {
            "bufferView": 9,
            "componentType": 5126,
            "count": 9,
            "max": [
                0.008301928639411926,
                0.04321523755788803,
                -0.0445232056081295
            ],
            "min": [
                0.007385565433651209,
                0.04251266270875931,
                -0.04572320356965065
            ],
            "name": "mesh764_coord_accessor",
            "type": "VEC3"
        },
        {
            "bufferView": 10,
            "componentType": 5126,
            "count": 9,
            "max": [
                0.6084474325180054,
                0.7935941815376282,
                -3.842264533220654e-16
            ],
            "min": [
                0.6084474325180054,
                0.7935941815376282,
                -3.842264533220654e-16
            ],
            "name": "mesh764_norm_accessor",
            "type": "VEC3"
        },
        {
            "bufferView": 11,
            "componentType": 5125,
            "count": 21,
            "max": [
                8
            ],
            "min": [
                0
            ],
            "name": "mesh764_idx_accessor",
            "type": "SCALAR"
        },
        {
            "bufferView": 12,
            "componentType": 5126,
            "count": 10,
            "max": [
                0.009368558414280415,
                0.04295497015118599,
                -0.04453965276479721
            ],
            "min": [
                0.008301928639411926,
                0.04251266270875931,
                -0.04572320356965065
            ],
            "name": "mesh765_coord_accessor",
            "type": "VEC3"
        },
        {
            "bufferView": 13,
            "componentType": 5126,
            "count": 10,
            "max": [
                -0.383048951625824,
                0.9237280488014221,
                -8.8868251018286e-16
            ],
            "min": [
                -0.383048951625824,
                0.9237280488014221,
                -8.8868251018286e-16
            ],
            "name": "mesh765_norm_accessor",
            "type": "VEC3"
        },
        {
            "bufferView": 14,
            "componentType": 5125,
            "count": 24,
            "max": [
                9
            ],
            "min": [
                0
            ],
            "name": "mesh765_idx_accessor",
            "type": "SCALAR"
        },
        {
            "bufferView": 15,
            "componentType": 5126,
            "count": 6,
            "max": [
                0.009368558414280415,
                0.04295497015118599,
                -0.0455843061208725
            ],
            "min": [
                0.008301928639411926,
                0.04251266270875931,
                -0.04572320356965065
            ],
            "name": "mesh766_coord_accessor",
            "type": "VEC3"
        },
        {
            "bufferView": 16,
            "componentType": 5126,
            "count": 6,
            "max": [
                0.09201852977275848,
                0.701093852519989,
                -0.7071067690849304
            ],
            "min": [
                -0.5611557960510254,
                0.4302373230457306,
                -0.7071067690849304
            ],
            "name": "mesh766_norm_accessor",
            "type": "VEC3"
        },
        {
            "bufferView": 17,
            "componentType": 5125,
            "count": 12,
            "max": [
                5
            ],
            "min": [
                0
            ],
            "name": "mesh766_idx_accessor",
            "type": "SCALAR"
        },
        {
            "bufferView": 18,
            "componentType": 5126,
            "count": 9,
            "max": [
                0.007535831071436405,
                0.044360119849443436,
                -0.04452722892165184
            ],
            "min": [
                0.007385565433651209,
                0.04321523755788803,
                -0.04572320356965065
            ],
            "name": "mesh767_coord_accessor",
            "type": "VEC3"
        },
        {
            "bufferView": 19,
            "componentType": 5126,
            "count": 9,
            "max": [
                0.9914964437484741,
                -0.13013380765914917,
                5.044560833305741e-16
            ],
            "min": [
                0.9914964437484741,
                -0.13013380765914917,
                5.044560833305741e-16
            ],
            "name": "mesh767_norm_accessor",
            "type": "VEC3"
        },
        {
            "bufferView": 20,
            "componentType": 5125,
            "count": 21,
            "max": [
                8
            ],
            "min": [
                0
            ],
            "name": "mesh767_idx_accessor",
            "type": "SCALAR"
        },
        {
            "bufferView": 21,
            "componentType": 5126,
            "count": 6,
            "max": [
                0.007535831071436405,
                0.044360119849443436,
                -0.0455843061208725
            ],
            "min": [
                0.007298721931874752,
                0.04321523755788803,
                -0.04572320356965065
            ],
            "name": "mesh768_coord_accessor",
            "type": "VEC3"
        },
        {
            "bufferView": 22,
            "componentType": 5126,
            "count": 6,
            "max": [
                0.7063547968864441,
                0.2708565592765808,
                -0.7071067690849304
            ],
            "min": [
                0.5611558556556702,
                -0.4302372932434082,
                -0.7071067690849304
            ],
            "name": "mesh768_norm_accessor",
            "type": "VEC3"
        },
        {
            "bufferView": 23,
            "componentType": 5125,
            "count": 12,
            "max": [
                5
            ],
            "min": [
                0
            ],
            "name": "mesh768_idx_accessor",
            "type": "SCALAR"
        },
        {
            "bufferView": 24,
            "componentType": 5126,
            "count": 10,
            "max": [
                0.008602459914982319,
                0.04480242356657982,
                -0.04453965276479721
            ],
            "min": [
                0.007535831071436405,
                0.044360119849443436,
                -0.04572320356965065
            ],
            "name": "mesh769_coord_accessor",
            "type": "VEC3"
        },
        {
            "bufferView": 25,
            "componentType": 5126,
            "count": 10,
            "max": [
                0.383048951625824,
                -0.9237280488014221,
                8.8868251018286e-16
            ],
            "min": [
                0.383048951625824,
                -0.9237280488014221,
                8.8868251018286e-16
            ],
            "name": "mesh769_norm_accessor",
            "type": "VEC3"
        },
        {
            "bufferView": 26,
            "componentType": 5125,
            "count": 24,
            "max": [
                9
            ],
            "min": [
                0
            ],
            "name": "mesh769_idx_accessor",
            "type": "SCALAR"
        },
        {
            "bufferView": 27,
            "componentType": 5126,
            "count": 6,
            "max": [
                0.008602459914982319,
                0.04480242356657982,
                -0.0455843061208725
            ],
            "min": [
                0.007535831071436405,
                0.044360119849443436,
                -0.04572320356965065
            ],
            "name": "mesh770_coord_accessor",
            "type": "VEC3"
        },
        {
            "bufferView": 28,
            "componentType": 5126,
            "count": 6,
            "max": [
                0.5611557960510254,
                -0.4302373230457306,
                -0.7071067690849304
            ],
            "min": [
                -0.09201852977275848,
                -0.701093852519989,
                -0.7071067690849304
            ],
            "name": "mesh770_norm_accessor",
            "type": "VEC3"
        },
        {
            "bufferView": 29,
            "componentType": 5125,
            "count": 12,
            "max": [
                5
            ],
            "min": [
                0
            ],
            "name": "mesh770_idx_accessor",
            "type": "SCALAR"
        },
        {
            "bufferView": 30,
            "componentType": 5126,
            "count": 34,
            "max": [
                0.011452194303274155,
                0.04665754362940788,
                -0.04572320356965065
            ],
            "min": [
                0.005452194716781378,
                0.040657542645931244,
                -0.04572320356965065
            ],
            "name": "mesh771_coord_accessor",
            "type": "VEC3"
        },
        {
            "bufferView": 31,
            "componentType": 5126,
            "count": 34,
            "max": [
                0.0,
                0.0,
                -1.0
            ],
            "min": [
                0.0,
                0.0,
                -1.0
            ],
            "name": "mesh771_norm_accessor",
            "type": "VEC3"
        },
        {
            "bufferView": 32,
            "componentType": 5125,
            "count": 102,
            "max": [
                33
            ],
            "min": [
                0
            ],
            "name": "mesh771_idx_accessor",
            "type": "SCALAR"
        },
        {
            "bufferView": 33,
            "componentType": 5126,
            "count": 9,
            "max": [
                0.009518823586404324,
                0.04480242356657982,
                -0.0445232056081295
            ],
            "min": [
                0.008602459914982319,
                0.044099848717451096,
                -0.04572320356965065
            ],
            "name": "mesh772_coord_accessor",
            "type": "VEC3"
        },
        {
            "bufferView": 34,
            "componentType": 5126,
            "count": 9,
            "max": [
                -0.6084474325180054,
                -0.7935941815376282,
                3.842264533220654e-16
            ],
            "min": [
                -0.6084474325180054,
                -0.7935941815376282,
                3.842264533220654e-16
            ],
            "name": "mesh772_norm_accessor",
            "type": "VEC3"
        },
        {
            "bufferView": 35,
            "componentType": 5125,
            "count": 21,
            "max": [
                8
            ],
            "min": [
                0
            ],
            "name": "mesh772_idx_accessor",
            "type": "SCALAR"
        },
        {
            "bufferView": 36,
            "componentType": 5126,
            "count": 6,
            "max": [
                0.009518823586404324,
                0.04480242356657982,
                -0.0455843061208725
            ],
            "min": [
                0.008602459914982319,
                0.044099848717451096,
                -0.04572320356965065
            ],
            "name": "mesh773_coord_accessor",
            "type": "VEC3"
        },
        {
            "bufferView": 37,
            "componentType": 5126,
            "count": 6,
            "max": [
                -0.0920185074210167,
                -0.2708565592765808,
                -0.7071067690849304
            ],
            "min": [
                -0.6531743407249451,
                -0.701093852519989,
                -0.7071067690849304
            ],
            "name": "mesh773_norm_accessor",
            "type": "VEC3"
        },
        {
            "bufferView": 38,
            "componentType": 5125,
            "count": 12,
            "max": [
                5
            ],
            "min": [
                0
            ],
            "name": "mesh773_idx_accessor",
            "type": "SCALAR"
        }
    ],
    "asset": {
        "generator": "ONSHAPE BY PTC INC, 1.212",
        "version": "2.0"
    },
    "bufferViews": [
        {
            "buffer": 0,
            "byteLength": 72,
            "name": "mesh761_coord_bufferView",
            "target": 34962
        },
        {
            "buffer": 0,
            "byteLength": 72,
            "byteOffset": 72,
            "name": "mesh761_norm_bufferView",
            "target": 34962
        },
        {
            "buffer": 0,
            "byteLength": 48,
            "byteOffset": 144,
            "name": "mesh761_idx_bufferView",
            "target": 34963
        },
        {
            "buffer": 0,
            "byteLength": 108,
            "byteOffset": 192,
            "name": "mesh762_coord_bufferView",
            "target": 34962
        },
        {
            "buffer": 0,
            "byteLength": 108,
            "byteOffset": 300,
            "name": "mesh762_norm_bufferView",
            "target": 34962
        },
        {
            "buffer": 0,
            "byteLength": 84,
            "byteOffset": 408,
            "name": "mesh762_idx_bufferView",
            "target": 34963
        },
        {
            "buffer": 0,
            "byteLength": 624,
            "byteOffset": 492,
            "name": "mesh763_coord_bufferView",
            "target": 34962
        },
        {
            "buffer": 0,
            "byteLength": 624,
            "byteOffset": 1116,
            "name": "mesh763_norm_bufferView",
            "target": 34962
        },
        {
            "buffer": 0,
            "byteLength": 312,
            "byteOffset": 1740,
            "name": "mesh763_idx_bufferView",
            "target": 34963
        },
        {
            "buffer": 0,
            "byteLength": 108,
            "byteOffset": 2052,
            "name": "mesh764_coord_bufferView",
            "target": 34962
        },
        {
            "buffer": 0,
            "byteLength": 108,
            "byteOffset": 2160,
            "name": "mesh764_norm_bufferView",
            "target": 34962
        },
        {
            "buffer": 0,
            "byteLength": 84,
            "byteOffset": 2268,
            "name": "mesh764_idx_bufferView",
            "target": 34963
        },
        {
            "buffer": 0,
            "byteLength": 120,
            "byteOffset": 2352,
            "name": "mesh765_coord_bufferView",
            "target": 34962
        },
        {
            "buffer": 0,
            "byteLength": 120,
            "byteOffset": 2472,
            "name": "mesh765_norm_bufferView",
            "target": 34962
        },
        {
            "buffer": 0,
            "byteLength": 96,
            "byteOffset": 2592,
            "name": "mesh765_idx_bufferView",
            "target": 34963
        },
        {
            "buffer": 0,
            "byteLength": 72,
            "byteOffset": 2688,
            "name": "mesh766_coord_bufferView",
            "target": 34962
        },
        {
            "buffer": 0,
            "byteLength": 72,
            "byteOffset": 2760,
            "name": "mesh766_norm_bufferView",
            "target": 34962
        },
        {
            "buffer": 0,
            "byteLength": 48,
            "byteOffset": 2832,
            "name": "mesh766_idx_bufferView",
            "target": 34963
        },
        {
            "buffer": 0,
            "byteLength": 108,
            "byteOffset": 2880,
            "name": "mesh767_coord_bufferView",
            "target": 34962
        },
        {
            "buffer": 0,
            "byteLength": 108,
            "byteOffset": 2988,
            "name": "mesh767_norm_bufferView",
            "target": 34962
        },
        {
            "buffer": 0,
            "byteLength": 84,
            "byteOffset": 3096,
            "name": "mesh767_idx_bufferView",
            "target": 34963
        },
        {
            "buffer": 0,
            "byteLength": 72,
            "byteOffset": 3180,
            "name": "mesh768_coord_bufferView",
            "target": 34962
        },
        {
            "buffer": 0,
            "byteLength": 72,
            "byteOffset": 3252,
            "name": "mesh768_norm_bufferView",
            "target": 34962
        },
        {
            "buffer": 0,
            "byteLength": 48,
            "byteOffset": 3324,
            "name": "mesh768_idx_bufferView",
            "target": 34963
        },
        {
            "buffer": 0,
            "byteLength": 120,
            "byteOffset": 3372,
            "name": "mesh769_coord_bufferView",
            "target": 34962
        },
        {
            "buffer": 0,
            "byteLength": 120,
            "byteOffset": 3492,
            "name": "mesh769_norm_bufferView",
            "target": 34962
        },
        {
            "buffer": 0,
            "byteLength": 96,
            "byteOffset": 3612,
            "name": "mesh769_idx_bufferView",
            "target": 34963
        },
        {
            "buffer": 0,
            "byteLength": 72,
            "byteOffset": 3708,
            "name": "mesh770_coord_bufferView",
            "target": 34962
        },
        {
            "buffer": 0,
            "byteLength": 72,
            "byteOffset": 3780,
            "name": "mesh770_norm_bufferView",
            "target": 34962
        },
        {
            "buffer": 0,
            "byteLength": 48,
            "byteOffset": 3852,
            "name": "mesh770_idx_bufferView",
            "target": 34963
        },
        {
            "buffer": 0,
            "byteLength": 408,
            "byteOffset": 3900,
            "name": "mesh771_coord_bufferView",
            "target": 34962
        },
        {
            "buffer": 0,
            "byteLength": 408,
            "byteOffset": 4308,
            "name": "mesh771_norm_bufferView",
            "target": 34962
        },
        {
            "buffer": 0,
            "byteLength": 408,
            "byteOffset": 4716,
            "name": "mesh771_idx_bufferView",
            "target": 34963
        },
        {
            "buffer": 0,
            "byteLength": 108,
            "byteOffset": 5124,
            "name": "mesh772_coord_bufferView",
            "target": 34962
        },
        {
            "buffer": 0,
            "byteLength": 108,
            "byteOffset": 5232,
            "name": "mesh772_norm_bufferView",
            "target": 34962
        },
        {
            "buffer": 0,
            "byteLength": 84,
            "byteOffset": 5340,
            "name": "mesh772_idx_bufferView",
            "target": 34963
        },
        {
            "buffer": 0,
            "byteLength": 72,
            "byteOffset": 5424,
            "name": "mesh773_coord_bufferView",
            "target": 34962
        },
        {
            "buffer": 0,
            "byteLength": 72,
            "byteOffset": 5496,
            "name": "mesh773_norm_bufferView",
            "target": 34962
        },
        {
            "buffer": 0,
            "byteLength": 48,
            "byteOffset": 5568,
            "name": "mesh773_idx_bufferView",
            "target": 34963
        }
    ],
    "buffers": [
        {
            "byteLength": 5616,
            "name": "Total_buffer",
            "uri": "data:application/octet-stream;base64,"
        }
    ],
    "extensionsUsed": [
        "PTC_onshape_metadata"
    ],
    "materials": [
        {
            "doubleSided": true,
            "name": "0.372549_0.372549_0.372549_0.000000_0.000000",
            "pbrMetallicRoughness": {
                "baseColorFactor": [
                    0.37254902720451355,
                    0.37254902720451355,
                    0.37254902720451355,
                    1.0
                ],
                "metallicFactor": 0.0
            }
        },
        {
            "doubleSided": true,
            "name": "0.901961_0.901961_0.901961_0.000000_0.000000",
            "pbrMetallicRoughness": {
                "baseColorFactor": [
                    0.9019607901573181,
                    0.9019607901573181,
                    0.9019607901573181,
                    1.0
                ],
                "metallicFactor": 0.0
            }
        },
        {
            "doubleSided": true,
            "name": "0.917647_0.917647_0.917647_0.000000_0.000000",
            "pbrMetallicRoughness": {
                "baseColorFactor": [
                    0.9176470637321472,
                    0.9176470637321472,
                    0.9176470637321472,
                    1.0
                ],
                "metallicFactor": 0.0
            }
        },
        {
            "doubleSided": true,
            "name": "0.800000_0.800000_0.800000_0.000000_0.000000",
            "pbrMetallicRoughness": {
                "baseColorFactor": [
                    0.800000011920929,
                    0.800000011920929,
                    0.800000011920929,
                    1.0
                ],
                "metallicFactor": 0.0
            }
        },
        {
            "doubleSided": true,
            "name": "0.910000_0.910000_0.910000_0.000000_0.000000",
            "pbrMetallicRoughness": {
                "baseColorFactor": [
                    0.9100000262260437,
                    0.9100000262260437,
                    0.9100000262260437,
                    1.0
                ],
                "metallicFactor": 0.0
            }
        },
        {
            "doubleSided": true,
            "name": "0.301961_0.301961_0.301961_0.000000_0.000000",
            "pbrMetallicRoughness": {
                "baseColorFactor": [
                    0.3019607961177826,
                    0.3019607961177826,
                    0.3019607961177826,
                    1.0
                ],
                "metallicFactor": 0.0
            }
        },
        {
            "doubleSided": true,
            "name": "0.023529_0.298039_0.568627_0.000000_0.000000",
            "pbrMetallicRoughness": {
                "baseColorFactor": [
                    0.0235294122248888,
                    0.2980392277240753,
                    0.5686274766921997,
                    1.0
                ],
                "metallicFactor": 0.0
            }
        },
        {
            "doubleSided": true,
            "name": "0.501961_0.501961_0.501961_0.000000_0.000000",
            "pbrMetallicRoughness": {
                "baseColorFactor": [
                    0.501960813999176,
                    0.501960813999176,
                    0.501960813999176,
                    1.0
                ],
                "metallicFactor": 0.0
            }
        },
        {
            "doubleSided": true,
            "name": "0.498039_0.498039_0.498039_0.000000_0.000000",
            "pbrMetallicRoughness": {
                "baseColorFactor": [
                    0.49803921580314636,
                    0.49803921580314636,
                    0.49803921580314636,
                    1.0
                ],
                "metallicFactor": 0.0
            }
        },
        {
            "doubleSided": true,
            "name": "0.000000_0.000000_0.000000_0.000000_0.000000",
            "pbrMetallicRoughness": {
                "baseColorFactor": [
                    0.0,
                    0.0,
                    0.0,
                    1.0
                ],
                "metallicFactor": 0.0
            }
        },
        {
            "doubleSided": true,
            "name": "0.752941_0.752941_0.752941_0.000000_0.000000",
            "pbrMetallicRoughness": {
                "baseColorFactor": [
                    0.7529411911964417,
                    0.7529411911964417,
                    0.7529411911964417,
                    1.0
                ],
                "metallicFactor": 0.0
            }
        },
        {
            "doubleSided": true,
            "name": "0.250980_0.250980_0.250980_0.000000_0.000000",
            "pbrMetallicRoughness": {
                "baseColorFactor": [
                    0.250980406999588,
                    0.250980406999588,
                    0.250980406999588,
                    1.0
                ],
                "metallicFactor": 0.0
            }
        },
        {
            "doubleSided": true,
            "name": "0.796078_0.823529_0.937255_0.000000_0.000000",
            "pbrMetallicRoughness": {
                "baseColorFactor": [
                    0.7960784435272217,
                    0.8235294222831726,
                    0.9372549057006836,
                    1.0
                ],
                "metallicFactor": 0.0
            }
        },
        {
            "doubleSided": true,
            "name": "0.117647_0.117647_0.117647_0.000000_0.000000",
            "pbrMetallicRoughness": {
                "baseColorFactor": [
                    0.11764705926179886,
                    0.11764705926179886,
                    0.11764705926179886,
                    1.0
                ],
                "metallicFactor": 0.0
            }
        },
        {
            "doubleSided": true,
            "name": "0.600000_0.600000_0.600000_0.000000_0.000000",
            "pbrMetallicRoughness": {
                "baseColorFactor": [
                    0.6000000238418579,
                    0.6000000238418579,
                    0.6000000238418579,
                    1.0
                ],
                "metallicFactor": 0.0
            }
        },
        {
            "doubleSided": true,
            "name": "0.262745_0.282353_0.301961_0.000000_0.000000",
            "pbrMetallicRoughness": {
                "baseColorFactor": [
                    0.26274511218070984,
                    0.2823529541492462,
                    0.3019607961177826,
                    1.0
                ],
                "metallicFactor": 0.0
            }
        },
        {
            "doubleSided": true,
            "name": "0.792157_0.819608_0.933333_0.000000_0.000000",
            "pbrMetallicRoughness": {
                "baseColorFactor": [
                    0.7921568751335144,
                    0.8196078538894653,
                    0.9333333373069763,
                    1.0
                ],
                "metallicFactor": 0.0
            }
        },
        {
            "doubleSided": true,
            "name": "0.647059_0.647059_0.647059_0.000000_0.000000",
            "pbrMetallicRoughness": {
                "baseColorFactor": [
                    0.6470588445663452,
                    0.6470588445663452,
                    0.6470588445663452,
                    1.0
                ],
                "metallicFactor": 0.0
            }
        },
        {
            "doubleSided": true,
            "name": "0.349020_0.376471_0.400000_0.000000_0.000000",
            "pbrMetallicRoughness": {
                "baseColorFactor": [
                    0.3490196168422699,
                    0.3764705955982208,
                    0.4000000059604645,
                    1.0
                ],
                "metallicFactor": 0.0
            }
        },
        {
            "doubleSided": true,
            "name": "0.298039_0.298039_0.298039_0.000000_0.000000",
            "pbrMetallicRoughness": {
                "baseColorFactor": [
                    0.2980392277240753,
                    0.2980392277240753,
                    0.2980392277240753,
                    1.0
                ],
                "metallicFactor": 0.0
            }
        },
        {
            "doubleSided": true,
            "name": "0.098039_0.098039_0.098039_0.000000_0.000000",
            "pbrMetallicRoughness": {
                "baseColorFactor": [
                    0.09803921729326248,
                    0.09803921729326248,
                    0.09803921729326248,
                    1.0
                ],
                "metallicFactor": 0.0
            }
        },
        {
            "doubleSided": true,
            "name": "0.639216_0.666667_0.678431_0.000000_0.000000",
            "pbrMetallicRoughness": {
                "baseColorFactor": [
                    0.6392157077789307,
                    0.6666666865348816,
                    0.6784313917160034,
                    1.0
                ],
                "metallicFactor": 0.0
            }
        },
        {
            "doubleSided": true,
            "name": "0.905882_0.427451_0.000000_0.000000_0.000000",
            "pbrMetallicRoughness": {
                "baseColorFactor": [
                    0.9058823585510254,
                    0.4274509847164154,
                    0.0,
                    1.0
                ],
                "metallicFactor": 0.0
            }
        },
        {
            "doubleSided": true,
            "name": "1.000000_1.000000_1.000000_0.000000_0.000000",
            "pbrMetallicRoughness": {
                "metallicFactor": 0.0
            }
        },
        {
            "doubleSided": true,
            "name": "0.968627_0.878431_0.600000_0.000000_0.000000",
            "pbrMetallicRoughness": {
                "baseColorFactor": [
                    0.9686274528503418,
                    0.8784313797950745,
                    0.6000000238418579,
                    1.0
                ],
                "metallicFactor": 0.0
            }
        },
        {
            "doubleSided": true,
            "name": "0.196078_0.196078_0.196078_0.000000_0.000000",
            "pbrMetallicRoughness": {
                "baseColorFactor": [
                    0.19607843458652496,
                    0.19607843458652496,
                    0.19607843458652496,
                    1.0
                ],
                "metallicFactor": 0.0
            }
        },
        {
            "doubleSided": true,
            "name": "0.768627_0.886275_0.952941_0.000000_0.000000",
            "pbrMetallicRoughness": {
                "baseColorFactor": [
                    0.7686274647712708,
                    0.886274516582489,
                    0.9529411792755127,
                    1.0
                ],
                "metallicFactor": 0.0
            }
        },
        {
            "doubleSided": true,
            "name": "0.941176_0.941176_0.941176_0.000000_0.000000",
            "pbrMetallicRoughness": {
                "baseColorFactor": [
                    0.9411764740943909,
                    0.9411764740943909,
                    0.9411764740943909,
                    1.0
                ],
                "metallicFactor": 0.0
            }
        },
        {
            "doubleSided": true,
            "name": "0.066667_0.003922_0.592157_0.000000_0.000000",
            "pbrMetallicRoughness": {
                "baseColorFactor": [
                    0.06666667014360428,
                    0.003921568859368563,
                    0.5921568870544434,
                    1.0
                ],
                "metallicFactor": 0.0
            }
        },
        {
            "doubleSided": true,
            "name": "0.843137_0.815686_0.752941_0.000000_0.000000",
            "pbrMetallicRoughness": {
                "baseColorFactor": [
                    0.843137264251709,
                    0.8156862854957581,
                    0.7529411911964417,
                    1.0
                ],
                "metallicFactor": 0.0
            }
        },
        {
            "doubleSided": true,
            "name": "0.615686_0.811765_0.929412_0.000000_0.000000",
            "pbrMetallicRoughness": {
                "baseColorFactor": [
                    0.615686297416687,
                    0.8117647171020508,
                    0.929411768913269,
                    1.0
                ],
                "metallicFactor": 0.0
            }
        },
        {
            "doubleSided": true,
            "name": "0.945098_0.364706_0.184314_0.000000_0.000000",
            "pbrMetallicRoughness": {
                "baseColorFactor": [
                    0.9450980424880981,
                    0.364705890417099,
                    0.18431372940540314,
                    1.0
                ],
                "metallicFactor": 0.0
            }
        },
        {
            "doubleSided": true,
            "name": "0.796078_0.823529_0.933333_0.000000_0.000000",
            "pbrMetallicRoughness": {
                "baseColorFactor": [
                    0.7960784435272217,
                    0.8235294222831726,
                    0.9333333373069763,
                    1.0
                ],
                "metallicFactor": 0.0
            }
        },
        {
            "doubleSided": true,
            "name": "1.000000_0.937255_0.678431_0.000000_0.000000",
            "pbrMetallicRoughness": {
                "baseColorFactor": [
                    1.0,
                    0.9372549057006836,
                    0.6784313917160034,
                    1.0
                ],
                "metallicFactor": 0.0
            }
        },
        {
            "doubleSided": true,
            "name": "0.949020_0.760784_0.180392_0.000000_0.000000",
            "pbrMetallicRoughness": {
                "baseColorFactor": [
                    0.9490196108818054,
                    0.7607843279838562,
                    0.18039216101169586,
                    1.0
                ],
                "metallicFactor": 0.0
            }
        },
        {
            "doubleSided": true,
            "name": "0.701961_0.701961_0.701961_0.000000_0.000000",
            "pbrMetallicRoughness": {
                "baseColorFactor": [
                    0.7019608020782471,
                    0.7019608020782471,
                    0.7019608020782471,
                    1.0
                ],
                "metallicFactor": 0.0
            }
        }
    ],
    "meshes": [
        {
            "name": "mesh761_mesh",
            "primitives": [
                {
                    "attributes": {
                        "NORMAL": 1,
                        "POSITION": 0
                    },
                    "indices": 2,
                    "material": 4
                }
            ]
        },
        {
            "name": "mesh762_mesh",
            "primitives": [
                {
                    "attributes": {
                        "NORMAL": 4,
                        "POSITION": 3
                    },
                    "indices": 5,
                    "material": 4
                }
            ]
        },
        {
            "name": "mesh763_mesh",
            "primitives": [
                {
                    "attributes": {
                        "NORMAL": 7,
                        "POSITION": 6
                    },
                    "indices": 8,
                    "material": 4
                }
            ]
        },
        {
            "name": "mesh764_mesh",
            "primitives": [
                {
                    "attributes": {
                        "NORMAL": 10,
                        "POSITION": 9
                    },
                    "indices": 11,
                    "material": 4
                }
            ]
        },
        {
            "name": "mesh765_mesh",
            "primitives": [
                {
                    "attributes": {
                        "NORMAL": 13,
                        "POSITION": 12
                    },
                    "indices": 14,
                    "material": 4
                }
            ]
        },
        {
            "name": "mesh766_mesh",
            "primitives": [
                {
                    "attributes": {
                        "NORMAL": 16,
                        "POSITION": 15
                    },
                    "indices": 17,
                    "material": 4
                }
            ]
        },
        {
            "name": "mesh767_mesh",
            "primitives": [
                {
                    "attributes": {
                        "NORMAL": 19,
                        "POSITION": 18
                    },
                    "indices": 20,
                    "material": 4
                }
            ]
        },
        {
            "name": "mesh768_mesh",
            "primitives": [
                {
                    "attributes": {
                        "NORMAL": 22,
                        "POSITION": 21
                    },
                    "indices": 23,
                    "material": 4
                }
            ]
        },
        {
            "name": "mesh769_mesh",
            "primitives": [
                {
                    "attributes": {
                        "NORMAL": 25,
                        "POSITION": 24
                    },
                    "indices": 26,
                    "material": 4
                }
            ]
        },
        {
            "name": "mesh770_mesh",
            "primitives": [
                {
                    "attributes": {
                        "NORMAL": 28,
                        "POSITION": 27
                    },
                    "indices": 29,
                    "material": 4
                }
            ]
        },
        {
            "name": "mesh771_mesh",
            "primitives": [
                {
                    "attributes": {
                        "NORMAL": 31,
                        "POSITION": 30
                    },
                    "indices": 32,
                    "material": 4
                }
            ]
        },
        {
            "name": "mesh772_mesh",
            "primitives": [
                {
                    "attributes": {
                        "NORMAL": 34,
                        "POSITION": 33
                    },
                    "indices": 35,
                    "material": 4
                }
            ]
        },
        {
            "name": "mesh773_mesh",
            "primitives": [
                {
                    "attributes": {
                        "NORMAL": 37,
                        "POSITION": 36
                    },
                    "indices": 38,
                    "material": 4
                }
            ]
        }
    ],
    "nodes": [
        {
            "mesh": 0,
            "name": "mesh761"
        },
        {
            "mesh": 1,
            "name": "mesh762"
        },
        {
            "mesh": 2,
            "name": "mesh763"
        },
        {
            "mesh": 3,
            "name": "mesh764"
        },
        {
            "mesh": 4,
            "name": "mesh765"
        },
        {
            "mesh": 5,
            "name": "mesh766"
        },
        {
            "mesh": 6,
            "name": "mesh767"
        },
        {
            "mesh": 7,
            "name": "mesh768"
        },
        {
            "mesh": 8,
            "name": "mesh769"
        },
        {
            "mesh": 9,
            "name": "mesh770"
        },
        {
            "mesh": 10,
            "name": "mesh771"
        },
        {
            "mesh": 11,
            "name": "mesh772"
        },
        {
            "mesh": 12,
            "name": "mesh773"
        }
    ],
    "scene": 0,
    "scenes": [
        {
            "name": "Root",
            "nodes": [
                0,
                1,
                2,
                3,
                4,
                5,
                6,
                7,
                8,
                9,
                10,
                11,
                12
            ]
        }
    ]
}