{
    "accessors": [
        {
            "bufferView": 0,
            "componentType": 5126,
            "count": 36,
            "max": [
                0.21533219516277313,
                0.23793387413024902,
                0.14383569359779358
            ],
            "min": [
                0.21203219890594482,
                0.23344026505947113,
                0.13931138813495636
            ],
            "name": "mesh7957_coord_accessor",
            "type": "VEC3"
        },
        {
            "bufferView": 1,
            "componentType": 5126,
            "count": 36,
            "max": [
                1.0,
                0.5735764503479004,
                0.8191520571708679
            ],
            "min": [
                -1.0,
                -0.5735764503479004,
                -0.8191520571708679
            ],
            "name": "mesh7957_norm_accessor",
            "type": "VEC3"
        },
        {
            "bufferView": 2,
            "componentType": 5125,
            "count": 108,
            "max": [
                35
            ],
            "min": [
                0
            ],
            "name": "mesh7957_idx_accessor",
            "type": "SCALAR"
        },
        {
            "bufferView": 3,
            "componentType": 5126,
            "count": 185,
            "max": [
                0.23516219854354858,
                0.23982667922973633,
                0.18749649822711945
            ],
            "min": [
                0.09028992056846619,
                0.20546945929527283,
                0.13842929899692535
            ],
            "name": "mesh7958_coord_accessor",
            "type": "VEC3"
        },
        {
            "bufferView": 4,
            "componentType": 5126,
            "count": 185,
            "max": [
                0.0,
                0.8191520571708679,
                0.5735764503479004
            ],
            "min": [
                0.0,
                0.8191520571708679,
                0.5735764503479004
            ],
            "name": "mesh7958_norm_accessor",
            "type": "VEC3"
        },
        {
            "bufferView": 5,
            "componentType": 5125,
            "count": 645,
            "max": [
                184
            ],
            "min": [
                0
            ],
            "name": "mesh7958_idx_accessor",
            "type": "SCALAR"
        },
        {
            "bufferView": 6,
            "componentType": 5126,
            "count": 185,
            "max": [
                0.23516219854354858,
                0.23722587525844574,
                0.18567539751529694
            ],
            "min": [
                0.09028992056846619,
                0.20286864042282104,
                0.13660819828510284
            ],
            "name": "mesh7959_coord_accessor",
            "type": "VEC3"
        },
        {
            "bufferView": 7,
            "componentType": 5126,
            "count": 185,
            "max": [
                -0.0,
                -0.8191520571708679,
                -0.5735764503479004
            ],
            "min": [
                -0.0,
                -0.8191520571708679,
                -0.5735764503479004
            ],
            "name": "mesh7959_norm_accessor",
            "type": "VEC3"
        },
        {
            "bufferView": 8,
            "componentType": 5125,
            "count": 645,
            "max": [
                184
            ],
            "min": [
                0
            ],
            "name": "mesh7959_idx_accessor",
            "type": "SCALAR"
        },
        {
            "bufferView": 9,
            "componentType": 5126,
            "count": 8,
            "max": [
                0.09028992056846619,
                0.2369588017463684,
                0.18340075016021729
            ],
            "min": [
                0.09028992056846619,
                0.20573653280735016,
                0.140703946352005
            ],
            "name": "mesh7960_coord_accessor",
            "type": "VEC3"
        },
        {
            "bufferView": 10,
            "componentType": 5126,
            "count": 8,
            "max": [
                -1.0,
                0.0,
                0.0
            ],
            "min": [
                -1.0,
                0.0,
                0.0
            ],
            "name": "mesh7960_norm_accessor",
            "type": "VEC3"
        },
        {
            "bufferView": 11,
            "componentType": 5125,
            "count": 18,
            "max": [
                7
            ],
            "min": [
                0
            ],
            "name": "mesh7960_idx_accessor",
            "type": "SCALAR"
        },
        {
            "bufferView": 12,
            "componentType": 5126,
            "count": 16,
            "max": [
                0.23017069697380066,
                0.20546945929527283,
                0.18749649822711945
            ],
            "min": [
                0.0952899232506752,
                0.20286864042282104,
                0.18567539751529694
            ],
            "name": "mesh7961_coord_accessor",
            "type": "VEC3"
        },
        {
            "bufferView": 13,
            "componentType": 5126,
            "count": 16,
            "max": [
                0.0,
                -0.5735764503479004,
                0.8191520571708679
            ],
            "min": [
                0.0,
                -0.5735764503479004,
                0.8191520571708679
            ],
            "name": "mesh7961_norm_accessor",
            "type": "VEC3"
        },
        {
            "bufferView": 14,
            "componentType": 5125,
            "count": 42,
            "max": [
                15
            ],
            "min": [
                0
            ],
            "name": "mesh7961_idx_accessor",
            "type": "SCALAR"
        },
        {
            "bufferView": 15,
            "componentType": 5126,
            "count": 10,
            "max": [
                0.23491720855236053,
                0.23786036670207977,
                0.1821131855249405
            ],
            "min": [
                0.21839259564876556,
                0.20663809776306152,
                0.1394163817167282
            ],
            "name": "mesh7962_coord_accessor",
            "type": "VEC3"
        },
        {
            "bufferView": 16,
            "componentType": 5126,
            "count": 10,
            "max": [
                0.9493019580841064,
                0.18031272292137146,
                -0.25751325488090515
            ],
            "min": [
                0.9493019580841064,
                0.18031272292137146,
                -0.25751325488090515
            ],
            "name": "mesh7962_norm_accessor",
            "type": "VEC3"
        },
        {
            "bufferView": 17,
            "componentType": 5125,
            "count": 24,
            "max": [
                9
            ],
            "min": [
                0
            ],
            "name": "mesh7962_idx_accessor",
            "type": "SCALAR"
        },
        {
            "bufferView": 18,
            "componentType": 5126,
            "count": 12,
            "max": [
                0.2136460840702057,
                0.23982667922973633,
                0.13842929899692535
            ],
            "min": [
                0.0952899232506752,
                0.23722587525844574,
                0.13660819828510284
            ],
            "name": "mesh7963_coord_accessor",
            "type": "VEC3"
        },
        {
            "bufferView": 19,
            "componentType": 5126,
            "count": 12,
            "max": [
                0.0,
                0.5735764503479004,
                -0.8191520571708679
            ],
            "min": [
                0.0,
                0.5735764503479004,
                -0.8191520571708679
            ],
            "name": "mesh7963_norm_accessor",
            "type": "VEC3"
        },
        {
            "bufferView": 20,
            "componentType": 5125,
            "count": 30,
            "max": [
                11
            ],
            "min": [
                0
            ],
            "name": "mesh7963_idx_accessor",
            "type": "SCALAR"
        },
        {
            "bufferView": 21,
            "componentType": 5126,
            "count": 14,
            "max": [
                0.21839259564876556,
                0.23982667922973633,
                0.14123749732971191
            ],
            "min": [
                0.2136460840702057,
                0.23525956273078918,
                0.13660819828510284
            ],
            "name": "mesh7964_coord_accessor",
            "type": "VEC3"
        },
        {
            "bufferView": 22,
            "componentType": 5126,
            "count": 14,
            "max": [
                0.9493019580841064,
                0.5735764503479004,
                -0.25751325488090515
            ],
            "min": [
                0.0,
                0.18031272292137146,
                -0.8191520571708679
            ],
            "name": "mesh7964_norm_accessor",
            "type": "VEC3"
        },
        {
            "bufferView": 23,
            "componentType": 5125,
            "count": 36,
            "max": [
                13
            ],
            "min": [
                0
            ],
            "name": "mesh7964_idx_accessor",
            "type": "SCALAR"
        },
        {
            "bufferView": 24,
            "componentType": 5126,
            "count": 12,
            "max": [
                0.23516219854354858,
                0.2092389017343521,
                0.18749649822711945
            ],
            "min": [
                0.23017069697380066,
                0.20286864042282104,
                0.1802920699119568
            ],
            "name": "mesh7965_coord_accessor",
            "type": "VEC3"
        },
        {
            "bufferView": 25,
            "componentType": 5126,
            "count": 12,
            "max": [
                0.9982993602752686,
                0.18031272292137146,
                0.8191520571708679
            ],
            "min": [
                1.2246468525851679e-16,
                -0.5735764503479004,
                -0.25751325488090515
            ],
            "name": "mesh7965_norm_accessor",
            "type": "VEC3"
        },
        {
            "bufferView": 26,
            "componentType": 5125,
            "count": 30,
            "max": [
                11
            ],
            "min": [
                0
            ],
            "name": "mesh7965_idx_accessor",
            "type": "SCALAR"
        },
        {
            "bufferView": 27,
            "componentType": 5126,
            "count": 10,
            "max": [
                0.0952899232506752,
                0.20833733677864075,
                0.18749649822711945
            ],
            "min": [
                0.09028992056846619,
                0.20286864042282104,
                0.18157963454723358
            ],
            "name": "mesh7966_coord_accessor",
            "type": "VEC3"
        },
        {
            "bufferView": 28,
            "componentType": 5126,
            "count": 10,
            "max": [
                1.2246468525851679e-16,
                -1.1242406787483864e-15,
                0.8191520571708679
            ],
            "min": [
                -1.0,
                -0.5735764503479004,
                1.6055820799813379e-15
            ],
            "name": "mesh7966_norm_accessor",
            "type": "VEC3"
        },
        {
            "bufferView": 29,
            "componentType": 5125,
            "count": 24,
            "max": [
                9
            ],
            "min": [
                0
            ],
            "name": "mesh7966_idx_accessor",
            "type": "SCALAR"
        },
        {
            "bufferView": 30,
            "componentType": 5126,
            "count": 12,
            "max": [
                0.0952899232506752,
                0.23982667922973633,
                0.1425250619649887
            ],
            "min": [
                0.09028992056846619,
                0.23435799777507782,
                0.13660819828510284
            ],
            "name": "mesh7967_coord_accessor",
            "type": "VEC3"
        },
        {
            "bufferView": 31,
            "componentType": 5126,
            "count": 12,
            "max": [
                -2.4492937051703357e-16,
                0.5735764503479004,
                1.6055820799813379e-15
            ],
            "min": [
                -1.0,
                -1.1242406787483864e-15,
                -0.8191520571708679
            ],
            "name": "mesh7967_norm_accessor",
            "type": "VEC3"
        },
        {
            "bufferView": 32,
            "componentType": 5125,
            "count": 30,
            "max": [
                11
            ],
            "min": [
                0
            ],
            "name": "mesh7967_idx_accessor",
            "type": "SCALAR"
        },
        {
            "bufferView": 33,
            "componentType": 5126,
            "count": 32,
            "max": [
                0.23188991844654083,
                0.20925505459308624,
                0.18479330837726593
            ],
            "min": [
                0.22858992218971252,
                0.20476144552230835,
                0.1802690029144287
            ],
            "name": "mesh7968_coord_accessor",
            "type": "VEC3"
        },
        {
            "bufferView": 34,
            "componentType": 5126,
            "count": 32,
            "max": [
                1.0,
                0.5735764503479004,
                0.8191520571708679
            ],
            "min": [
                -1.0,
                -0.5735764503479004,
                -0.8191520571708679
            ],
            "name": "mesh7968_norm_accessor",
            "type": "VEC3"
        },
        {
            "bufferView": 35,
            "componentType": 5125,
            "count": 96,
            "max": [
                31
            ],
            "min": [
                0
            ],
            "name": "mesh7968_idx_accessor",
            "type": "SCALAR"
        },
        {
            "bufferView": 36,
            "componentType": 5126,
            "count": 32,
            "max": [
                0.0968899205327034,
                0.20925505459308624,
                0.18479330837726593
            ],
            "min": [
                0.09358992427587509,
                0.20476144552230835,
                0.1802690029144287
            ],
            "name": "mesh7969_coord_accessor",
            "type": "VEC3"
        },
        {
            "bufferView": 37,
            "componentType": 5126,
            "count": 32,
            "max": [
                1.0,
                0.5735764503479004,
                0.8191520571708679
            ],
            "min": [
                -1.0,
                -0.5735764503479004,
                -0.8191520571708679
            ],
            "name": "mesh7969_norm_accessor",
            "type": "VEC3"
        },
        {
            "bufferView": 38,
            "componentType": 5125,
            "count": 96,
            "max": [
                31
            ],
            "min": [
                0
            ],
            "name": "mesh7969_idx_accessor",
            "type": "SCALAR"
        },
        {
            "bufferView": 39,
            "componentType": 5126,
            "count": 32,
            "max": [
                0.0968899205327034,
                0.23793387413024902,
                0.14383569359779358
            ],
            "min": [
                0.09358992427587509,
                0.23344026505947113,
                0.13931138813495636
            ],
            "name": "mesh7970_coord_accessor",
            "type": "VEC3"
        },
        {
            "bufferView": 40,
            "componentType": 5126,
            "count": 32,
            "max": [
                1.0,
                0.5735764503479004,
                0.8191520571708679
            ],
            "min": [
                -1.0,
                -0.5735764503479004,
                -0.8191520571708679
            ],
            "name": "mesh7970_norm_accessor",
            "type": "VEC3"
        },
        {
            "bufferView": 41,
            "componentType": 5125,
            "count": 96,
            "max": [
                31
            ],
            "min": [
                0
            ],
            "name": "mesh7970_idx_accessor",
            "type": "SCALAR"
        },
        {
            "bufferView": 42,
            "componentType": 5126,
            "count": 32,
            "max": [
                0.12411105632781982,
                0.22961702942848206,
                0.17291559278964996
            ],
            "min": [
                0.09981106221675873,
                0.2130783051252365,
                0.15118910372257233
            ],
            "name": "mesh7971_coord_accessor",
            "type": "VEC3"
        },
        {
            "bufferView": 43,
            "componentType": 5126,
            "count": 32,
            "max": [
                1.0,
                0.5735764503479004,
                0.8191520571708679
            ],
            "min": [
                -1.0,
                -0.5735764503479004,
                -0.8191520571708679
            ],
            "name": "mesh7971_norm_accessor",
            "type": "VEC3"
        },
        {
            "bufferView": 44,
            "componentType": 5125,
            "count": 96,
            "max": [
                31
            ],
            "min": [
                0
            ],
            "name": "mesh7971_idx_accessor",
            "type": "SCALAR"
        },
        {
            "bufferView": 45,
            "componentType": 5126,
            "count": 32,
            "max": [
                0.15411105751991272,
                0.22961702942848206,
                0.17291559278964996
            ],
            "min": [
                0.12981106340885162,
                0.2130783051252365,
                0.15118910372257233
            ],
            "name": "mesh7972_coord_accessor",
            "type": "VEC3"
        },
        {
            "bufferView": 46,
            "componentType": 5126,
            "count": 32,
            "max": [
                1.0,
                0.5735764503479004,
                0.8191520571708679
            ],
            "min": [
                -1.0,
                -0.5735764503479004,
                -0.8191520571708679
            ],
            "name": "mesh7972_norm_accessor",
            "type": "VEC3"
        },
        {
            "bufferView": 47,
            "componentType": 5125,
            "count": 96,
            "max": [
                31
            ],
            "min": [
                0
            ],
            "name": "mesh7972_idx_accessor",
            "type": "SCALAR"
        },
        {
            "bufferView": 48,
            "componentType": 5126,
            "count": 32,
            "max": [
                0.18411105871200562,
                0.22961702942848206,
                0.17291559278964996
            ],
            "min": [
                0.15981106460094452,
                0.2130783051252365,
                0.15118910372257233
            ],
            "name": "mesh7973_coord_accessor",
            "type": "VEC3"
        },
        {
            "bufferView": 49,
            "componentType": 5126,
            "count": 32,
            "max": [
                1.0,
                0.5735764503479004,
                0.8191520571708679
            ],
            "min": [
                -1.0,
                -0.5735764503479004,
                -0.8191520571708679
            ],
            "name": "mesh7973_norm_accessor",
            "type": "VEC3"
        },
        {
            "bufferView": 50,
            "componentType": 5125,
            "count": 96,
            "max": [
                31
            ],
            "min": [
                0
            ],
            "name": "mesh7973_idx_accessor",
            "type": "SCALAR"
        },
        {
            "bufferView": 51,
            "componentType": 5126,
            "count": 32,
            "max": [
                0.2141110599040985,
                0.22961702942848206,
                0.17291559278964996
            ],
            "min": [
                0.18981106579303741,
                0.2130783051252365,
                0.15118910372257233
            ],
            "name": "mesh7974_coord_accessor",
            "type": "VEC3"
        },
        {
            "bufferView": 52,
            "componentType": 5126,
            "count": 32,
            "max": [
                1.0,
                0.5735764503479004,
                0.8191520571708679
            ],
            "min": [
                -1.0,
                -0.5735764503479004,
                -0.8191520571708679
            ],
            "name": "mesh7974_norm_accessor",
            "type": "VEC3"
        },
        {
            "bufferView": 53,
            "componentType": 5125,
            "count": 96,
            "max": [
                31
            ],
            "min": [
                0
            ],
            "name": "mesh7974_idx_accessor",
            "type": "SCALAR"
        }
    ],
    "asset": {
        "generator": "ONSHAPE BY PTC INC, 1.212",
        "version": "2.0"
    },
    "bufferViews": [
        {
            "buffer": 0,
            "byteLength": 432,
            "name": "mesh7957_coord_bufferView",
            "target": 34962
        },
        {
            "buffer": 0,
            "byteLength": 432,
            "byteOffset": 432,
            "name": "mesh7957_norm_bufferView",
            "target": 34962
        },
        {
            "buffer": 0,
            "byteLength": 432,
            "byteOffset": 864,
            "name": "mesh7957_idx_bufferView",
            "target": 34963
        },
        {
            "buffer": 0,
            "byteLength": 2220,
            "byteOffset": 1296,
            "name": "mesh7958_coord_bufferView",
            "target": 34962
        },
        {
            "buffer": 0,
            "byteLength": 2220,
            "byteOffset": 3516,
            "name": "mesh7958_norm_bufferView",
            "target": 34962
        },
        {
            "buffer": 0,
            "byteLength": 2580,
            "byteOffset": 5736,
            "name": "mesh7958_idx_bufferView",
            "target": 34963
        },
        {
            "buffer": 0,
            "byteLength": 2220,
            "byteOffset": 8316,
            "name": "mesh7959_coord_bufferView",
            "target": 34962
        },
        {
            "buffer": 0,
            "byteLength": 2220,
            "byteOffset": 10536,
            "name": "mesh7959_norm_bufferView",
            "target": 34962
        },
        {
            "buffer": 0,
            "byteLength": 2580,
            "byteOffset": 12756,
            "name": "mesh7959_idx_bufferView",
            "target": 34963
        },
        {
            "buffer": 0,
            "byteLength": 96,
            "byteOffset": 15336,
            "name": "mesh7960_coord_bufferView",
            "target": 34962
        },
        {
            "buffer": 0,
            "byteLength": 96,
            "byteOffset": 15432,
            "name": "mesh7960_norm_bufferView",
            "target": 34962
        },
        {
            "buffer": 0,
            "byteLength": 72,
            "byteOffset": 15528,
            "name": "mesh7960_idx_bufferView",
            "target": 34963
        },
        {
            "buffer": 0,
            "byteLength": 192,
            "byteOffset": 15600,
            "name": "mesh7961_coord_bufferView",
            "target": 34962
        },
        {
            "buffer": 0,
            "byteLength": 192,
            "byteOffset": 15792,
            "name": "mesh7961_norm_bufferView",
            "target": 34962
        },
        {
            "buffer": 0,
            "byteLength": 168,
            "byteOffset": 15984,
            "name": "mesh7961_idx_bufferView",
            "target": 34963
        },
        {
            "buffer": 0,
            "byteLength": 120,
            "byteOffset": 16152,
            "name": "mesh7962_coord_bufferView",
            "target": 34962
        },
        {
            "buffer": 0,
            "byteLength": 120,
            "byteOffset": 16272,
            "name": "mesh7962_norm_bufferView",
            "target": 34962
        },
        {
            "buffer": 0,
            "byteLength": 96,
            "byteOffset": 16392,
            "name": "mesh7962_idx_bufferView",
            "target": 34963
        },
        {
            "buffer": 0,
            "byteLength": 144,
            "byteOffset": 16488,
            "name": "mesh7963_coord_bufferView",
            "target": 34962
        },
        {
            "buffer": 0,
            "byteLength": 144,
            "byteOffset": 16632,
            "name": "mesh7963_norm_bufferView",
            "target": 34962
        },
        {
            "buffer": 0,
            "byteLength": 120,
            "byteOffset": 16776,
            "name": "mesh7963_idx_bufferView",
            "target": 34963
        },
        {
            "buffer": 0,
            "byteLength": 168,
            "byteOffset": 16896,
            "name": "mesh7964_coord_bufferView",
            "target": 34962
        },
        {
            "buffer": 0,
            "byteLength": 168,
            "byteOffset": 17064,
            "name": "mesh7964_norm_bufferView",
            "target": 34962
        },
        {
            "buffer": 0,
            "byteLength": 144,
            "byteOffset": 17232,
            "name": "mesh7964_idx_bufferView",
            "target": 34963
        },
        {
            "buffer": 0,
            "byteLength": 144,
            "byteOffset": 17376,
            "name": "mesh7965_coord_bufferView",
            "target": 34962
        },
        {
            "buffer": 0,
            "byteLength": 144,
            "byteOffset": 17520,
            "name": "mesh7965_norm_bufferView",
            "target": 34962
        },
        {
            "buffer": 0,
            "byteLength": 120,
            "byteOffset": 17664,
            "name": "mesh7965_idx_bufferView",
            "target": 34963
        },
        {
            "buffer": 0,
            "byteLength": 120,
            "byteOffset": 17784,
            "name": "mesh7966_coord_bufferView",
            "target": 34962
        },
        {
            "buffer": 0,
            "byteLength": 120,
            "byteOffset": 17904,
            "name": "mesh7966_norm_bufferView",
            "target": 34962
        },
        {
            "buffer": 0,
            "byteLength": 96,
            "byteOffset": 18024,
            "name": "mesh7966_idx_bufferView",
            "target": 34963
        },
        {
            "buffer": 0,
            "byteLength": 144,
            "byteOffset": 18120,
            "name": "mesh7967_coord_bufferView",
            "target": 34962
        },
        {
            "buffer": 0,
            "byteLength": 144,
            "byteOffset": 18264,
            "name": "mesh7967_norm_bufferView",
            "target": 34962
        },
        {
            "buffer": 0,
            "byteLength": 120,
            "byteOffset": 18408,
            "name": "mesh7967_idx_bufferView",
            "target": 34963
        },
        {
            "buffer": 0,
            "byteLength": 384,
            "byteOffset": 18528,
            "name": "mesh7968_coord_bufferView",
            "target": 34962
        },
        {
            "buffer": 0,
            "byteLength": 384,
            "byteOffset": 18912,
            "name": "mesh7968_norm_bufferView",
            "target": 34962
        },
        {
            "buffer": 0,
            "byteLength": 384,
            "byteOffset": 19296,
            "name": "mesh7968_idx_bufferView",
            "target": 34963
        },
        {
            "buffer": 0,
            "byteLength": 384,
            "byteOffset": 19680,
            "name": "mesh7969_coord_bufferView",
            "target": 34962
        },
        {
            "buffer": 0,
            "byteLength": 384,
            "byteOffset": 20064,
            "name": "mesh7969_norm_bufferView",
            "target": 34962
        },
        {
            "buffer": 0,
            "byteLength": 384,
            "byteOffset": 20448,
            "name": "mesh7969_idx_bufferView",
            "target": 34963
        },
        {
            "buffer": 0,
            "byteLength": 384,
            "byteOffset": 20832,
            "name": "mesh7970_coord_bufferView",
            "target": 34962
        },
        {
            "buffer": 0,
            "byteLength": 384,
            "byteOffset": 21216,
            "name": "mesh7970_norm_bufferView",
            "target": 34962
        },
        {
            "buffer": 0,
            "byteLength": 384,
            "byteOffset": 21600,
            "name": "mesh7970_idx_bufferView",
            "target": 34963
        },
        {
            "buffer": 0,
            "byteLength": 384,
            "byteOffset": 21984,
            "name": "mesh7971_coord_bufferView",
            "target": 34962
        },
        {
            "buffer": 0,
            "byteLength": 384,
            "byteOffset": 22368,
            "name": "mesh7971_norm_bufferView",
            "target": 34962
        },
        {
            "buffer": 0,
            "byteLength": 384,
            "byteOffset": 22752,
            "name": "mesh7971_idx_bufferView",
            "target": 34963
        },
        {
            "buffer": 0,
            "byteLength": 384,
            "byteOffset": 23136,
            "name": "mesh7972_coord_bufferView",
            "target": 34962
        },
        {
            "buffer": 0,
            "byteLength": 384,
            "byteOffset": 23520,
            "name": "mesh7972_norm_bufferView",
            "target": 34962
        },
        {
            "buffer": 0,
            "byteLength": 384,
            "byteOffset": 23904,
            "name": "mesh7972_idx_bufferView",
            "target": 34963
        },
        {
            "buffer": 0,
            "byteLength": 384,
            "byteOffset": 24288,
            "name": "mesh7973_coord_bufferView",
            "target": 34962
        },
        {
            "buffer": 0,
            "byteLength": 384,
            "byteOffset": 24672,
            "name": "mesh7973_norm_bufferView",
            "target": 34962
        },
        {
            "buffer": 0,
            "byteLength": 384,
            "byteOffset": 25056,
            "name": "mesh7973_idx_bufferView",
            "target": 34963
        },
        {
            "buffer": 0,
            "byteLength": 384,
            "byteOffset": 25440,
            "name": "mesh7974_coord_bufferView",
            "target": 34962
        },
        {
            "buffer": 0,
            "byteLength": 384,
            "byteOffset": 25824,
            "name": "mesh7974_norm_bufferView",
            "target": 34962
        },
        {
            "buffer": 0,
            "byteLength": 384,
            "byteOffset": 26208,
            "name": "mesh7974_idx_bufferView",
            "target": 34963
        }
    ],
    "buffers": [
        {
            "byteLength": 26592,
            "name": "Total_buffer",
            "uri": "data:application/octet-stream;base64,"
        }
    ],
    "extensionsUsed": [
        "PTC_onshape_metadata"
    ],
    "materials": [
        {
            "doubleSided": true,
            "name": "0.372549_0.372549_0.372549_0.000000_0.000000",
            "pbrMetallicRoughness": {
                "baseColorFactor": [
                    0.37254902720451355,
                    0.37254902720451355,
                    0.37254902720451355,
                    1.0
                ],
                "metallicFactor": 0.0
            }
        },
        {
            "doubleSided": true,
            "name": "0.901961_0.901961_0.901961_0.000000_0.000000",
            "pbrMetallicRoughness": {
                "baseColorFactor": [
                    0.9019607901573181,
                    0.9019607901573181,
                    0.9019607901573181,
                    1.0
                ],
                "metallicFactor": 0.0
            }
        },
        {
            "doubleSided": true,
            "name": "0.917647_0.917647_0.917647_0.000000_0.000000",
            "pbrMetallicRoughness": {
                "baseColorFactor": [
                    0.9176470637321472,
                    0.9176470637321472,
                    0.9176470637321472,
                    1.0
                ],
                "metallicFactor": 0.0
            }
        },
        {
            "doubleSided": true,
            "name": "0.800000_0.800000_0.800000_0.000000_0.000000",
            "pbrMetallicRoughness": {
                "baseColorFactor": [
                    0.800000011920929,
                    0.800000011920929,
                    0.800000011920929,
                    1.0
                ],
                "metallicFactor": 0.0
            }
        },
        {
            "doubleSided": true,
            "name": "0.910000_0.910000_0.910000_0.000000_0.000000",
            "pbrMetallicRoughness": {
                "baseColorFactor": [
                    0.9100000262260437,
                    0.9100000262260437,
                    0.9100000262260437,
                    1.0
                ],
                "metallicFactor": 0.0
            }
        },
        {
            "doubleSided": true,
            "name": "0.301961_0.301961_0.301961_0.000000_0.000000",
            "pbrMetallicRoughness": {
                "baseColorFactor": [
                    0.3019607961177826,
                    0.3019607961177826,
                    0.3019607961177826,
                    1.0
                ],
                "metallicFactor": 0.0
            }
        },
        {
            "doubleSided": true,
            "name": "0.023529_0.298039_0.568627_0.000000_0.000000",
            "pbrMetallicRoughness": {
                "baseColorFactor": [
                    0.0235294122248888,
                    0.2980392277240753,
                    0.5686274766921997,
                    1.0
                ],
                "metallicFactor": 0.0
            }
        },
        {
            "doubleSided": true,
            "name": "0.501961_0.501961_0.501961_0.000000_0.000000",
            "pbrMetallicRoughness": {
                "baseColorFactor": [
                    0.501960813999176,
                    0.501960813999176,
                    0.501960813999176,
                    1.0
                ],
                "metallicFactor": 0.0
            }
        },
        {
            "doubleSided": true,
            "name": "0.498039_0.498039_0.498039_0.000000_0.000000",
            "pbrMetallicRoughness": {
                "baseColorFactor": [
                    0.49803921580314636,
                    0.49803921580314636,
                    0.49803921580314636,
                    1.0
                ],
                "metallicFactor": 0.0
            }
        },
        {
            "doubleSided": true,
            "name": "0.000000_0.000000_0.000000_0.000000_0.000000",
            "pbrMetallicRoughness": {
                "baseColorFactor": [
                    0.0,
                    0.0,
                    0.0,
                    1.0
                ],
                "metallicFactor": 0.0
            }
        },
        {
            "doubleSided": true,
            "name": "0.752941_0.752941_0.752941_0.000000_0.000000",
            "pbrMetallicRoughness": {
                "baseColorFactor": [
                    0.7529411911964417,
                    0.7529411911964417,
                    0.7529411911964417,
                    1.0
                ],
                "metallicFactor": 0.0
            }
        },
        {
            "doubleSided": true,
            "name": "0.250980_0.250980_0.250980_0.000000_0.000000",
            "pbrMetallicRoughness": {
                "baseColorFactor": [
                    0.250980406999588,
                    0.250980406999588,
                    0.250980406999588,
                    1.0
                ],
                "metallicFactor": 0.0
            }
        },
        {
            "doubleSided": true,
            "name": "0.796078_0.823529_0.937255_0.000000_0.000000",
            "pbrMetallicRoughness": {
                "baseColorFactor": [
                    0.7960784435272217,
                    0.8235294222831726,
                    0.9372549057006836,
                    1.0
                ],
                "metallicFactor": 0.0
            }
        },
        {
            "doubleSided": true,
            "name": "0.117647_0.117647_0.117647_0.000000_0.000000",
            "pbrMetallicRoughness": {
                "baseColorFactor": [
                    0.11764705926179886,
                    0.11764705926179886,
                    0.11764705926179886,
                    1.0
                ],
                "metallicFactor": 0.0
            }
        },
        {
            "doubleSided": true,
            "name": "0.600000_0.600000_0.600000_0.000000_0.000000",
            "pbrMetallicRoughness": {
                "baseColorFactor": [
                    0.6000000238418579,
                    0.6000000238418579,
                    0.6000000238418579,
                    1.0
                ],
                "metallicFactor": 0.0
            }
        },
        {
            "doubleSided": true,
            "name": "0.262745_0.282353_0.301961_0.000000_0.000000",
            "pbrMetallicRoughness": {
                "baseColorFactor": [
                    0.26274511218070984,
                    0.2823529541492462,
                    0.3019607961177826,
                    1.0
                ],
                "metallicFactor": 0.0
            }
        },
        {
            "doubleSided": true,
            "name": "0.792157_0.819608_0.933333_0.000000_0.000000",
            "pbrMetallicRoughness": {
                "baseColorFactor": [
                    0.7921568751335144,
                    0.8196078538894653,
                    0.9333333373069763,
                    1.0
                ],
                "metallicFactor": 0.0
            }
        },
        {
            "doubleSided": true,
            "name": "0.647059_0.647059_0.647059_0.000000_0.000000",
            "pbrMetallicRoughness": {
                "baseColorFactor": [
                    0.6470588445663452,
                    0.6470588445663452,
                    0.6470588445663452,
                    1.0
                ],
                "metallicFactor": 0.0
            }
        },
        {
            "doubleSided": true,
            "name": "0.349020_0.376471_0.400000_0.000000_0.000000",
            "pbrMetallicRoughness": {
                "baseColorFactor": [
                    0.3490196168422699,
                    0.3764705955982208,
                    0.4000000059604645,
                    1.0
                ],
                "metallicFactor": 0.0
            }
        },
        {
            "doubleSided": true,
            "name": "0.298039_0.298039_0.298039_0.000000_0.000000",
            "pbrMetallicRoughness": {
                "baseColorFactor": [
                    0.2980392277240753,
                    0.2980392277240753,
                    0.2980392277240753,
                    1.0
                ],
                "metallicFactor": 0.0
            }
        },
        {
            "doubleSided": true,
            "name": "0.098039_0.098039_0.098039_0.000000_0.000000",
            "pbrMetallicRoughness": {
                "baseColorFactor": [
                    0.09803921729326248,
                    0.09803921729326248,
                    0.09803921729326248,
                    1.0
                ],
                "metallicFactor": 0.0
            }
        },
        {
            "doubleSided": true,
            "name": "0.639216_0.666667_0.678431_0.000000_0.000000",
            "pbrMetallicRoughness": {
                "baseColorFactor": [
                    0.6392157077789307,
                    0.6666666865348816,
                    0.6784313917160034,
                    1.0
                ],
                "metallicFactor": 0.0
            }
        },
        {
            "doubleSided": true,
            "name": "0.905882_0.427451_0.000000_0.000000_0.000000",
            "pbrMetallicRoughness": {
                "baseColorFactor": [
                    0.9058823585510254,
                    0.4274509847164154,
                    0.0,
                    1.0
                ],
                "metallicFactor": 0.0
            }
        },
        {
            "doubleSided": true,
            "name": "1.000000_1.000000_1.000000_0.000000_0.000000",
            "pbrMetallicRoughness": {
                "metallicFactor": 0.0
            }
        },
        {
            "doubleSided": true,
            "name": "0.968627_0.878431_0.600000_0.000000_0.000000",
            "pbrMetallicRoughness": {
                "baseColorFactor": [
                    0.9686274528503418,
                    0.8784313797950745,
                    0.6000000238418579,
                    1.0
                ],
                "metallicFactor": 0.0
            }
        },
        {
            "doubleSided": true,
            "name": "0.196078_0.196078_0.196078_0.000000_0.000000",
            "pbrMetallicRoughness": {
                "baseColorFactor": [
                    0.19607843458652496,
                    0.19607843458652496,
                    0.19607843458652496,
                    1.0
                ],
                "metallicFactor": 0.0
            }
        },
        {
            "doubleSided": true,
            "name": "0.768627_0.886275_0.952941_0.000000_0.000000",
            "pbrMetallicRoughness": {
                "baseColorFactor": [
                    0.7686274647712708,
                    0.886274516582489,
                    0.9529411792755127,
                    1.0
                ],
                "metallicFactor": 0.0
            }
        },
        {
            "doubleSided": true,
            "name": "0.941176_0.941176_0.941176_0.000000_0.000000",
            "pbrMetallicRoughness": {
                "baseColorFactor": [
                    0.9411764740943909,
                    0.9411764740943909,
                    0.9411764740943909,
                    1.0
                ],
                "metallicFactor": 0.0
            }
        },
        {
            "doubleSided": true,
            "name": "0.066667_0.003922_0.592157_0.000000_0.000000",
            "pbrMetallicRoughness": {
                "baseColorFactor": [
                    0.06666667014360428,
                    0.003921568859368563,
                    0.5921568870544434,
                    1.0
                ],
                "metallicFactor": 0.0
            }
        },
        {
            "doubleSided": true,
            "name": "0.843137_0.815686_0.752941_0.000000_0.000000",
            "pbrMetallicRoughness": {
                "baseColorFactor": [
                    0.843137264251709,
                    0.8156862854957581,
                    0.7529411911964417,
                    1.0
                ],
                "metallicFactor": 0.0
            }
        },
        {
            "doubleSided": true,
            "name": "0.615686_0.811765_0.929412_0.000000_0.000000",
            "pbrMetallicRoughness": {
                "baseColorFactor": [
                    0.615686297416687,
                    0.8117647171020508,
                    0.929411768913269,
                    1.0
                ],
                "metallicFactor": 0.0
            }
        },
        {
            "doubleSided": true,
            "name": "0.945098_0.364706_0.184314_0.000000_0.000000",
            "pbrMetallicRoughness": {
                "baseColorFactor": [
                    0.9450980424880981,
                    0.364705890417099,
                    0.18431372940540314,
                    1.0
                ],
                "metallicFactor": 0.0
            }
        },
        {
            "doubleSided": true,
            "name": "0.796078_0.823529_0.933333_0.000000_0.000000",
            "pbrMetallicRoughness": {
                "baseColorFactor": [
                    0.7960784435272217,
                    0.8235294222831726,
                    0.9333333373069763,
                    1.0
                ],
                "metallicFactor": 0.0
            }
        },
        {
            "doubleSided": true,
            "name": "1.000000_0.937255_0.678431_0.000000_0.000000",
            "pbrMetallicRoughness": {
                "baseColorFactor": [
                    1.0,
                    0.9372549057006836,
                    0.6784313917160034,
                    1.0
                ],
                "metallicFactor": 0.0
            }
        },
        {
            "doubleSided": true,
            "name": "0.949020_0.760784_0.180392_0.000000_0.000000",
            "pbrMetallicRoughness": {
                "baseColorFactor": [
                    0.9490196108818054,
                    0.7607843279838562,
                    0.18039216101169586,
                    1.0
                ],
                "metallicFactor": 0.0
            }
        },
        {
            "doubleSided": true,
            "name": "0.701961_0.701961_0.701961_0.000000_0.000000",
            "pbrMetallicRoughness": {
                "baseColorFactor": [
                    0.7019608020782471,
                    0.7019608020782471,
                    0.7019608020782471,
                    1.0
                ],
                "metallicFactor": 0.0
            }
        }
    ],
    "meshes": [
        {
            "name": "mesh7957_mesh",
            "primitives": [
                {
                    "attributes": {
                        "NORMAL": 1,
                        "POSITION": 0
                    },
                    "indices": 2,
                    "material": 6
                }
            ]
        },
        {
            "name": "mesh7958_mesh",
            "primitives": [
                {
                    "attributes": {
                        "NORMAL": 4,
                        "POSITION": 3
                    },
                    "indices": 5,
                    "material": 6
                }
            ]
        },
        {
            "name": "mesh7959_mesh",
            "primitives": [
                {
                    "attributes": {
                        "NORMAL": 7,
                        "POSITION": 6
                    },
                    "indices": 8,
                    "material": 6
                }
            ]
        },
        {
            "name": "mesh7960_mesh",
            "primitives": [
                {
                    "attributes": {
                        "NORMAL": 10,
                        "POSITION": 9
                    },
                    "indices": 11,
                    "material": 6
                }
            ]
        },
        {
            "name": "mesh7961_mesh",
            "primitives": [
                {
                    "attributes": {
                        "NORMAL": 13,
                        "POSITION": 12
                    },
                    "indices": 14,
                    "material": 6
                }
            ]
        },
        {
            "name": "mesh7962_mesh",
            "primitives": [
                {
                    "attributes": {
                        "NORMAL": 16,
                        "POSITION": 15
                    },
                    "indices": 17,
                    "material": 6
                }
            ]
        },
        {
            "name": "mesh7963_mesh",
            "primitives": [
                {
                    "attributes": {
                        "NORMAL": 19,
                        "POSITION": 18
                    },
                    "indices": 20,
                    "material": 6
                }
            ]
        },
        {
            "name": "mesh7964_mesh",
            "primitives": [
                {
                    "attributes": {
                        "NORMAL": 22,
                        "POSITION": 21
                    },
                    "indices": 23,
                    "material": 6
                }
            ]
        },
        {
            "name": "mesh7965_mesh",
            "primitives": [
                {
                    "attributes": {
                        "NORMAL": 25,
                        "POSITION": 24
                    },
                    "indices": 26,
                    "material": 6
                }
            ]
        },
        {
            "name": "mesh7966_mesh",
            "primitives": [
                {
                    "attributes": {
                        "NORMAL": 28,
                        "POSITION": 27
                    },
                    "indices": 29,
                    "material": 6
                }
            ]
        },
        {
            "name": "mesh7967_mesh",
            "primitives": [
                {
                    "attributes": {
                        "NORMAL": 31,
                        "POSITION": 30
                    },
                    "indices": 32,
                    "material": 6
                }
            ]
        },
        {
            "name": "mesh7968_mesh",
            "primitives": [
                {
                    "attributes": {
                        "NORMAL": 34,
                        "POSITION": 33
                    },
                    "indices": 35,
                    "material": 6
                }
            ]
        },
        {
            "name": "mesh7969_mesh",
            "primitives": [
                {
                    "attributes": {
                        "NORMAL": 37,
                        "POSITION": 36
                    },
                    "indices": 38,
                    "material": 6
                }
            ]
        },
        {
            "name": "mesh7970_mesh",
            "primitives": [
                {
                    "attributes": {
                        "NORMAL": 40,
                        "POSITION": 39
                    },
                    "indices": 41,
                    "material": 6
                }
            ]
        },
        {
            "name": "mesh7971_mesh",
            "primitives": [
                {
                    "attributes": {
                        "NORMAL": 43,
                        "POSITION": 42
                    },
                    "indices": 44,
                    "material": 6
                }
            ]
        },
        {
            "name": "mesh7972_mesh",
            "primitives": [
                {
                    "attributes": {
                        "NORMAL": 46,
                        "POSITION": 45
                    },
                    "indices": 47,
                    "material": 6
                }
            ]
        },
        {
            "name": "mesh7973_mesh",
            "primitives": [
                {
                    "attributes": {
                        "NORMAL": 49,
                        "POSITION": 48
                    },
                    "indices": 50,
                    "material": 6
                }
            ]
        },
        {
            "name": "mesh7974_mesh",
            "primitives": [
                {
                    "attributes": {
                        "NORMAL": 52,
                        "POSITION": 51
                    },
                    "indices": 53,
                    "material": 6
                }
            ]
        }
    ],
    "nodes": [
        {
            "mesh": 0,
            "name": "mesh7957"
        },
        {
            "mesh": 1,
            "name": "mesh7958"
        },
        {
            "mesh": 2,
            "name": "mesh7959"
        },
        {
            "mesh": 3,
            "name": "mesh7960"
        },
        {
            "mesh": 4,
            "name": "mesh7961"
        },
        {
            "mesh": 5,
            "name": "mesh7962"
        },
        {
            "mesh": 6,
            "name": "mesh7963"
        },
        {
            "mesh": 7,
            "name": "mesh7964"
        },
        {
            "mesh": 8,
            "name": "mesh7965"
        },
        {
            "mesh": 9,
            "name": "mesh7966"
        },
        {
            "mesh": 10,
            "name": "mesh7967"
        },
        {
            "mesh": 11,
            "name": "mesh7968"
        },
        {
            "mesh": 12,
            "name": "mesh7969"
        },
        {
            "mesh": 13,
            "name": "mesh7970"
        },
        {
            "mesh": 14,
            "name": "mesh7971"
        },
        {
            "mesh": 15,
            "name": "mesh7972"
        },
        {
            "mesh": 16,
            "name": "mesh7973"
        },
        {
            "mesh": 17,
            "name": "mesh7974"
        }
    ],
    "scene": 0,
    "scenes": [
        {
            "name": "Root",
            "nodes": [
                0,
                1,
                2,
                3,
                4,
                5,
                6,
                7,
                8,
                9,
                10,
                11,
                12,
                13,
                14,
                15,
                16,
                17
            ]
        }
    ]
}