{
    "accessors": [
        {
            "bufferView": 0,
            "componentType": 5126,
            "count": 32,
            "max": [
                0.014999999664723873,
                -0.09032141417264938,
                0.10622337460517883
            ],
            "min": [
                0.0,
                -0.11202141642570496,
                0.08452337235212326
            ],
            "name": "mesh8168_coord_accessor",
            "type": "VEC3"
        },
        {
            "bufferView": 1,
            "componentType": 5126,
            "count": 32,
            "max": [
                -0.0,
                1.0,
                1.0
            ],
            "min": [
                -0.0,
                -1.0,
                -1.0
            ],
            "name": "mesh8168_norm_accessor",
            "type": "VEC3"
        },
        {
            "bufferView": 2,
            "componentType": 5125,
            "count": 96,
            "max": [
                31
            ],
            "min": [
                0
            ],
            "name": "mesh8168_idx_accessor",
            "type": "SCALAR"
        },
        {
            "bufferView": 3,
            "componentType": 5126,
            "count": 71,
            "max": [
                0.014999999664723873,
                -0.08617141097784042,
                0.1103733703494072
            ],
            "min": [
                0.014999999664723873,
                -0.11617141216993332,
                0.026373371481895447
            ],
            "name": "mesh8169_coord_accessor",
            "type": "VEC3"
        },
        {
            "bufferView": 4,
            "componentType": 5126,
            "count": 71,
            "max": [
                1.0,
                0.0,
                0.0
            ],
            "min": [
                1.0,
                0.0,
                0.0
            ],
            "name": "mesh8169_norm_accessor",
            "type": "VEC3"
        },
        {
            "bufferView": 5,
            "componentType": 5125,
            "count": 225,
            "max": [
                70
            ],
            "min": [
                0
            ],
            "name": "mesh8169_idx_accessor",
            "type": "SCALAR"
        },
        {
            "bufferView": 6,
            "componentType": 5126,
            "count": 71,
            "max": [
                0.0,
                -0.08617141097784042,
                0.1103733703494072
            ],
            "min": [
                0.0,
                -0.11617141216993332,
                0.026373371481895447
            ],
            "name": "mesh8170_coord_accessor",
            "type": "VEC3"
        },
        {
            "bufferView": 7,
            "componentType": 5126,
            "count": 71,
            "max": [
                -1.0,
                -0.0,
                -0.0
            ],
            "min": [
                -1.0,
                -0.0,
                -0.0
            ],
            "name": "mesh8170_norm_accessor",
            "type": "VEC3"
        },
        {
            "bufferView": 8,
            "componentType": 5125,
            "count": 225,
            "max": [
                70
            ],
            "min": [
                0
            ],
            "name": "mesh8170_idx_accessor",
            "type": "SCALAR"
        },
        {
            "bufferView": 9,
            "componentType": 5126,
            "count": 10,
            "max": [
                0.014999999664723873,
                -0.10717141628265381,
                0.03437337279319763
            ],
            "min": [
                0.0,
                -0.11017141491174698,
                0.03137337043881416
            ],
            "name": "mesh8171_coord_accessor",
            "type": "VEC3"
        },
        {
            "bufferView": 10,
            "componentType": 5126,
            "count": 10,
            "max": [
                0.0,
                1.0,
                1.0
            ],
            "min": [
                0.0,
                -1.2246468525851679e-16,
                1.8369701465288538e-16
            ],
            "name": "mesh8171_norm_accessor",
            "type": "VEC3"
        },
        {
            "bufferView": 11,
            "componentType": 5125,
            "count": 24,
            "max": [
                9
            ],
            "min": [
                0
            ],
            "name": "mesh8171_idx_accessor",
            "type": "SCALAR"
        },
        {
            "bufferView": 12,
            "componentType": 5126,
            "count": 4,
            "max": [
                0.014999999664723873,
                -0.11017141491174698,
                0.04637337103486061
            ],
            "min": [
                0.0,
                -0.11017141491174698,
                0.03437337279319763
            ],
            "name": "mesh8172_coord_accessor",
            "type": "VEC3"
        },
        {
            "bufferView": 13,
            "componentType": 5126,
            "count": 4,
            "max": [
                0.0,
                1.0,
                0.0
            ],
            "min": [
                0.0,
                1.0,
                0.0
            ],
            "name": "mesh8172_norm_accessor",
            "type": "VEC3"
        },
        {
            "bufferView": 14,
            "componentType": 5125,
            "count": 6,
            "max": [
                3
            ],
            "min": [
                0
            ],
            "name": "mesh8172_idx_accessor",
            "type": "SCALAR"
        },
        {
            "bufferView": 15,
            "componentType": 5126,
            "count": 10,
            "max": [
                0.014999999664723873,
                -0.10717141628265381,
                0.04937336966395378
            ],
            "min": [
                0.0,
                -0.11017141491174698,
                0.04637337103486061
            ],
            "name": "mesh8173_coord_accessor",
            "type": "VEC3"
        },
        {
            "bufferView": 16,
            "componentType": 5126,
            "count": 10,
            "max": [
                -0.0,
                1.0,
                1.8369701465288538e-16
            ],
            "min": [
                -0.0,
                2.4492937051703357e-16,
                -1.0
            ],
            "name": "mesh8173_norm_accessor",
            "type": "VEC3"
        },
        {
            "bufferView": 17,
            "componentType": 5125,
            "count": 24,
            "max": [
                9
            ],
            "min": [
                0
            ],
            "name": "mesh8173_idx_accessor",
            "type": "SCALAR"
        },
        {
            "bufferView": 18,
            "componentType": 5126,
            "count": 4,
            "max": [
                0.014999999664723873,
                -0.09517141431570053,
                0.04937336966395378
            ],
            "min": [
                0.0,
                -0.10717141628265381,
                0.04937336966395378
            ],
            "name": "mesh8174_coord_accessor",
            "type": "VEC3"
        },
        {
            "bufferView": 19,
            "componentType": 5126,
            "count": 4,
            "max": [
                -0.0,
                -0.0,
                -1.0
            ],
            "min": [
                -0.0,
                -0.0,
                -1.0
            ],
            "name": "mesh8174_norm_accessor",
            "type": "VEC3"
        },
        {
            "bufferView": 20,
            "componentType": 5125,
            "count": 6,
            "max": [
                3
            ],
            "min": [
                0
            ],
            "name": "mesh8174_idx_accessor",
            "type": "SCALAR"
        },
        {
            "bufferView": 21,
            "componentType": 5126,
            "count": 10,
            "max": [
                0.014999999664723873,
                -0.09217141568660736,
                0.04937336966395378
            ],
            "min": [
                0.0,
                -0.09517141431570053,
                0.04637337103486061
            ],
            "name": "mesh8175_coord_accessor",
            "type": "VEC3"
        },
        {
            "bufferView": 22,
            "componentType": 5126,
            "count": 10,
            "max": [
                -0.0,
                -0.0,
                -6.123234262925839e-17
            ],
            "min": [
                -0.0,
                -1.0,
                -1.0
            ],
            "name": "mesh8175_norm_accessor",
            "type": "VEC3"
        },
        {
            "bufferView": 23,
            "componentType": 5125,
            "count": 24,
            "max": [
                9
            ],
            "min": [
                0
            ],
            "name": "mesh8175_idx_accessor",
            "type": "SCALAR"
        },
        {
            "bufferView": 24,
            "componentType": 5126,
            "count": 4,
            "max": [
                0.014999999664723873,
                -0.09217141568660736,
                0.04637337103486061
            ],
            "min": [
                0.0,
                -0.09217141568660736,
                0.03437337279319763
            ],
            "name": "mesh8176_coord_accessor",
            "type": "VEC3"
        },
        {
            "bufferView": 25,
            "componentType": 5126,
            "count": 4,
            "max": [
                -0.0,
                -1.0,
                -0.0
            ],
            "min": [
                -0.0,
                -1.0,
                -0.0
            ],
            "name": "mesh8176_norm_accessor",
            "type": "VEC3"
        },
        {
            "bufferView": 26,
            "componentType": 5125,
            "count": 6,
            "max": [
                3
            ],
            "min": [
                0
            ],
            "name": "mesh8176_idx_accessor",
            "type": "SCALAR"
        },
        {
            "bufferView": 27,
            "componentType": 5126,
            "count": 10,
            "max": [
                0.014999999664723873,
                -0.09217141568660736,
                0.03437337279319763
            ],
            "min": [
                0.0,
                -0.09517141431570053,
                0.03137337043881416
            ],
            "name": "mesh8177_coord_accessor",
            "type": "VEC3"
        },
        {
            "bufferView": 28,
            "componentType": 5126,
            "count": 10,
            "max": [
                -0.0,
                -1.2246468525851679e-16,
                1.0
            ],
            "min": [
                -0.0,
                -1.0,
                -6.123234262925839e-17
            ],
            "name": "mesh8177_norm_accessor",
            "type": "VEC3"
        },
        {
            "bufferView": 29,
            "componentType": 5125,
            "count": 24,
            "max": [
                9
            ],
            "min": [
                0
            ],
            "name": "mesh8177_idx_accessor",
            "type": "SCALAR"
        },
        {
            "bufferView": 30,
            "componentType": 5126,
            "count": 10,
            "max": [
                0.014999999664723873,
                -0.10717141628265381,
                0.07137337327003479
            ],
            "min": [
                0.0,
                -0.11017141491174698,
                0.06837337464094162
            ],
            "name": "mesh8178_coord_accessor",
            "type": "VEC3"
        },
        {
            "bufferView": 31,
            "componentType": 5126,
            "count": 10,
            "max": [
                -0.0,
                1.0,
                1.8369701465288538e-16
            ],
            "min": [
                -0.0,
                2.4492937051703357e-16,
                -1.0
            ],
            "name": "mesh8178_norm_accessor",
            "type": "VEC3"
        },
        {
            "bufferView": 32,
            "componentType": 5125,
            "count": 24,
            "max": [
                9
            ],
            "min": [
                0
            ],
            "name": "mesh8178_idx_accessor",
            "type": "SCALAR"
        },
        {
            "bufferView": 33,
            "componentType": 5126,
            "count": 4,
            "max": [
                0.014999999664723873,
                -0.09517141431570053,
                0.07137337327003479
            ],
            "min": [
                0.0,
                -0.10717141628265381,
                0.07137337327003479
            ],
            "name": "mesh8179_coord_accessor",
            "type": "VEC3"
        },
        {
            "bufferView": 34,
            "componentType": 5126,
            "count": 4,
            "max": [
                -0.0,
                -0.0,
                -1.0
            ],
            "min": [
                -0.0,
                -0.0,
                -1.0
            ],
            "name": "mesh8179_norm_accessor",
            "type": "VEC3"
        },
        {
            "bufferView": 35,
            "componentType": 5125,
            "count": 6,
            "max": [
                3
            ],
            "min": [
                0
            ],
            "name": "mesh8179_idx_accessor",
            "type": "SCALAR"
        },
        {
            "bufferView": 36,
            "componentType": 5126,
            "count": 10,
            "max": [
                0.014999999664723873,
                -0.09217141568660736,
                0.07137337327003479
            ],
            "min": [
                0.0,
                -0.09517141431570053,
                0.06837337464094162
            ],
            "name": "mesh8180_coord_accessor",
            "type": "VEC3"
        },
        {
            "bufferView": 37,
            "componentType": 5126,
            "count": 10,
            "max": [
                -0.0,
                -0.0,
                -6.123234262925839e-17
            ],
            "min": [
                -0.0,
                -1.0,
                -1.0
            ],
            "name": "mesh8180_norm_accessor",
            "type": "VEC3"
        },
        {
            "bufferView": 38,
            "componentType": 5125,
            "count": 24,
            "max": [
                9
            ],
            "min": [
                0
            ],
            "name": "mesh8180_idx_accessor",
            "type": "SCALAR"
        },
        {
            "bufferView": 39,
            "componentType": 5126,
            "count": 4,
            "max": [
                0.014999999664723873,
                -0.09217141568660736,
                0.06837337464094162
            ],
            "min": [
                0.0,
                -0.09217141568660736,
                0.05637337267398834
            ],
            "name": "mesh8181_coord_accessor",
            "type": "VEC3"
        },
        {
            "bufferView": 40,
            "componentType": 5126,
            "count": 4,
            "max": [
                -0.0,
                -1.0,
                -2.891205881527277e-16
            ],
            "min": [
                -0.0,
                -1.0,
                -2.891205881527277e-16
            ],
            "name": "mesh8181_norm_accessor",
            "type": "VEC3"
        },
        {
            "bufferView": 41,
            "componentType": 5125,
            "count": 6,
            "max": [
                3
            ],
            "min": [
                0
            ],
            "name": "mesh8181_idx_accessor",
            "type": "SCALAR"
        },
        {
            "bufferView": 42,
            "componentType": 5126,
            "count": 10,
            "max": [
                0.014999999664723873,
                -0.09217141568660736,
                0.05637337267398834
            ],
            "min": [
                0.0,
                -0.09517141431570053,
                0.053373370319604874
            ],
            "name": "mesh8182_coord_accessor",
            "type": "VEC3"
        },
        {
            "bufferView": 43,
            "componentType": 5126,
            "count": 10,
            "max": [
                -0.0,
                -1.2246468525851679e-16,
                1.0
            ],
            "min": [
                -0.0,
                -1.0,
                -6.123234262925839e-17
            ],
            "name": "mesh8182_norm_accessor",
            "type": "VEC3"
        },
        {
            "bufferView": 44,
            "componentType": 5125,
            "count": 24,
            "max": [
                9
            ],
            "min": [
                0
            ],
            "name": "mesh8182_idx_accessor",
            "type": "SCALAR"
        },
        {
            "bufferView": 45,
            "componentType": 5126,
            "count": 4,
            "max": [
                0.014999999664723873,
                -0.09517141431570053,
                0.053373370319604874
            ],
            "min": [
                0.0,
                -0.10717141628265381,
                0.053373370319604874
            ],
            "name": "mesh8183_coord_accessor",
            "type": "VEC3"
        },
        {
            "bufferView": 46,
            "componentType": 5126,
            "count": 4,
            "max": [
                0.0,
                0.0,
                1.0
            ],
            "min": [
                0.0,
                0.0,
                1.0
            ],
            "name": "mesh8183_norm_accessor",
            "type": "VEC3"
        },
        {
            "bufferView": 47,
            "componentType": 5125,
            "count": 6,
            "max": [
                3
            ],
            "min": [
                0
            ],
            "name": "mesh8183_idx_accessor",
            "type": "SCALAR"
        },
        {
            "bufferView": 48,
            "componentType": 5126,
            "count": 10,
            "max": [
                0.014999999664723873,
                -0.10717141628265381,
                0.05637337267398834
            ],
            "min": [
                0.0,
                -0.11017141491174698,
                0.053373370319604874
            ],
            "name": "mesh8184_coord_accessor",
            "type": "VEC3"
        },
        {
            "bufferView": 49,
            "componentType": 5126,
            "count": 10,
            "max": [
                0.0,
                1.0,
                1.0
            ],
            "min": [
                0.0,
                -1.2246468525851679e-16,
                1.8369701465288538e-16
            ],
            "name": "mesh8184_norm_accessor",
            "type": "VEC3"
        },
        {
            "bufferView": 50,
            "componentType": 5125,
            "count": 24,
            "max": [
                9
            ],
            "min": [
                0
            ],
            "name": "mesh8184_idx_accessor",
            "type": "SCALAR"
        },
        {
            "bufferView": 51,
            "componentType": 5126,
            "count": 4,
            "max": [
                0.014999999664723873,
                -0.08617141097784042,
                0.09537336975336075
            ],
            "min": [
                0.0,
                -0.08617141097784042,
                0.07637336850166321
            ],
            "name": "mesh8185_coord_accessor",
            "type": "VEC3"
        },
        {
            "bufferView": 52,
            "componentType": 5126,
            "count": 4,
            "max": [
                0.0,
                1.0,
                -6.391086462577942e-16
            ],
            "min": [
                0.0,
                1.0,
                -6.391086462577942e-16
            ],
            "name": "mesh8185_norm_accessor",
            "type": "VEC3"
        },
        {
            "bufferView": 53,
            "componentType": 5125,
            "count": 6,
            "max": [
                3
            ],
            "min": [
                0
            ],
            "name": "mesh8185_idx_accessor",
            "type": "SCALAR"
        },
        {
            "bufferView": 54,
            "componentType": 5126,
            "count": 18,
            "max": [
                0.014999999664723873,
                -0.08617141097784042,
                0.1103733703494072
            ],
            "min": [
                0.0,
                -0.11617141216993332,
                0.09537336975336075
            ],
            "name": "mesh8186_coord_accessor",
            "type": "VEC3"
        },
        {
            "bufferView": 55,
            "componentType": 5126,
            "count": 18,
            "max": [
                -0.0,
                1.0,
                1.0
            ],
            "min": [
                -0.0,
                -1.0,
                -1.8369701465288538e-16
            ],
            "name": "mesh8186_norm_accessor",
            "type": "VEC3"
        },
        {
            "bufferView": 56,
            "componentType": 5125,
            "count": 48,
            "max": [
                17
            ],
            "min": [
                0
            ],
            "name": "mesh8186_idx_accessor",
            "type": "SCALAR"
        },
        {
            "bufferView": 57,
            "componentType": 5126,
            "count": 4,
            "max": [
                0.014999999664723873,
                -0.11617141216993332,
                0.09537336975336075
            ],
            "min": [
                0.0,
                -0.11617141216993332,
                0.07637336850166321
            ],
            "name": "mesh8187_coord_accessor",
            "type": "VEC3"
        },
        {
            "bufferView": 58,
            "componentType": 5126,
            "count": 4,
            "max": [
                -0.0,
                -1.0,
                1.4608198082517233e-15
            ],
            "min": [
                -0.0,
                -1.0,
                1.4608198082517233e-15
            ],
            "name": "mesh8187_norm_accessor",
            "type": "VEC3"
        },
        {
            "bufferView": 59,
            "componentType": 5125,
            "count": 6,
            "max": [
                3
            ],
            "min": [
                0
            ],
            "name": "mesh8187_idx_accessor",
            "type": "SCALAR"
        },
        {
            "bufferView": 60,
            "componentType": 5126,
            "count": 4,
            "max": [
                0.014999999664723873,
                -0.11417141556739807,
                0.07637336850166321
            ],
            "min": [
                0.0,
                -0.11617141216993332,
                0.07637336850166321
            ],
            "name": "mesh8188_coord_accessor",
            "type": "VEC3"
        },
        {
            "bufferView": 61,
            "componentType": 5126,
            "count": 4,
            "max": [
                0.0,
                0.0,
                -1.0
            ],
            "min": [
                0.0,
                0.0,
                -1.0
            ],
            "name": "mesh8188_norm_accessor",
            "type": "VEC3"
        },
        {
            "bufferView": 62,
            "componentType": 5125,
            "count": 6,
            "max": [
                3
            ],
            "min": [
                0
            ],
            "name": "mesh8188_idx_accessor",
            "type": "SCALAR"
        },
        {
            "bufferView": 63,
            "componentType": 5126,
            "count": 4,
            "max": [
                0.014999999664723873,
                -0.11417141556739807,
                0.07637336850166321
            ],
            "min": [
                0.0,
                -0.11417141556739807,
                0.026373371481895447
            ],
            "name": "mesh8189_coord_accessor",
            "type": "VEC3"
        },
        {
            "bufferView": 64,
            "componentType": 5126,
            "count": 4,
            "max": [
                -0.0,
                -1.0,
                1.4608198082517233e-15
            ],
            "min": [
                -0.0,
                -1.0,
                1.4608198082517233e-15
            ],
            "name": "mesh8189_norm_accessor",
            "type": "VEC3"
        },
        {
            "bufferView": 65,
            "componentType": 5125,
            "count": 6,
            "max": [
                3
            ],
            "min": [
                0
            ],
            "name": "mesh8189_idx_accessor",
            "type": "SCALAR"
        },
        {
            "bufferView": 66,
            "componentType": 5126,
            "count": 4,
            "max": [
                0.014999999664723873,
                -0.08817141503095627,
                0.026373371481895447
            ],
            "min": [
                0.0,
                -0.11417141556739807,
                0.026373371481895447
            ],
            "name": "mesh8190_coord_accessor",
            "type": "VEC3"
        },
        {
            "bufferView": 67,
            "componentType": 5126,
            "count": 4,
            "max": [
                0.0,
                0.0,
                -1.0
            ],
            "min": [
                0.0,
                0.0,
                -1.0
            ],
            "name": "mesh8190_norm_accessor",
            "type": "VEC3"
        },
        {
            "bufferView": 68,
            "componentType": 5125,
            "count": 6,
            "max": [
                3
            ],
            "min": [
                0
            ],
            "name": "mesh8190_idx_accessor",
            "type": "SCALAR"
        },
        {
            "bufferView": 69,
            "componentType": 5126,
            "count": 4,
            "max": [
                0.014999999664723873,
                -0.08817141503095627,
                0.07637336850166321
            ],
            "min": [
                0.0,
                -0.08817141503095627,
                0.026373371481895447
            ],
            "name": "mesh8191_coord_accessor",
            "type": "VEC3"
        },
        {
            "bufferView": 70,
            "componentType": 5126,
            "count": 4,
            "max": [
                0.0,
                1.0,
                3.122502256758253e-16
            ],
            "min": [
                0.0,
                1.0,
                3.122502256758253e-16
            ],
            "name": "mesh8191_norm_accessor",
            "type": "VEC3"
        },
        {
            "bufferView": 71,
            "componentType": 5125,
            "count": 6,
            "max": [
                3
            ],
            "min": [
                0
            ],
            "name": "mesh8191_idx_accessor",
            "type": "SCALAR"
        },
        {
            "bufferView": 72,
            "componentType": 5126,
            "count": 4,
            "max": [
                0.014999999664723873,
                -0.11017141491174698,
                0.06837337464094162
            ],
            "min": [
                0.0,
                -0.11017141491174698,
                0.05637337267398834
            ],
            "name": "mesh8192_coord_accessor",
            "type": "VEC3"
        },
        {
            "bufferView": 73,
            "componentType": 5126,
            "count": 4,
            "max": [
                0.0,
                1.0,
                3.122502256758253e-16
            ],
            "min": [
                0.0,
                1.0,
                3.122502256758253e-16
            ],
            "name": "mesh8192_norm_accessor",
            "type": "VEC3"
        },
        {
            "bufferView": 74,
            "componentType": 5125,
            "count": 6,
            "max": [
                3
            ],
            "min": [
                0
            ],
            "name": "mesh8192_idx_accessor",
            "type": "SCALAR"
        },
        {
            "bufferView": 75,
            "componentType": 5126,
            "count": 4,
            "max": [
                0.014999999664723873,
                -0.08617141097784042,
                0.07637336850166321
            ],
            "min": [
                0.0,
                -0.08817141503095627,
                0.07637336850166321
            ],
            "name": "mesh8193_coord_accessor",
            "type": "VEC3"
        },
        {
            "bufferView": 76,
            "componentType": 5126,
            "count": 4,
            "max": [
                0.0,
                0.0,
                -1.0
            ],
            "min": [
                0.0,
                0.0,
                -1.0
            ],
            "name": "mesh8193_norm_accessor",
            "type": "VEC3"
        },
        {
            "bufferView": 77,
            "componentType": 5125,
            "count": 6,
            "max": [
                3
            ],
            "min": [
                0
            ],
            "name": "mesh8193_idx_accessor",
            "type": "SCALAR"
        },
        {
            "bufferView": 78,
            "componentType": 5126,
            "count": 4,
            "max": [
                0.014999999664723873,
                -0.09517141431570053,
                0.03137337043881416
            ],
            "min": [
                0.0,
                -0.10717141628265381,
                0.03137337043881416
            ],
            "name": "mesh8194_coord_accessor",
            "type": "VEC3"
        },
        {
            "bufferView": 79,
            "componentType": 5126,
            "count": 4,
            "max": [
                0.0,
                0.0,
                1.0
            ],
            "min": [
                0.0,
                0.0,
                1.0
            ],
            "name": "mesh8194_norm_accessor",
            "type": "VEC3"
        },
        {
            "bufferView": 80,
            "componentType": 5125,
            "count": 6,
            "max": [
                3
            ],
            "min": [
                0
            ],
            "name": "mesh8194_idx_accessor",
            "type": "SCALAR"
        }
    ],
    "asset": {
        "generator": "ONSHAPE BY PTC INC, 1.212",
        "version": "2.0"
    },
    "bufferViews": [
        {
            "buffer": 0,
            "byteLength": 384,
            "name": "mesh8168_coord_bufferView",
            "target": 34962
        },
        {
            "buffer": 0,
            "byteLength": 384,
            "byteOffset": 384,
            "name": "mesh8168_norm_bufferView",
            "target": 34962
        },
        {
            "buffer": 0,
            "byteLength": 384,
            "byteOffset": 768,
            "name": "mesh8168_idx_bufferView",
            "target": 34963
        },
        {
            "buffer": 0,
            "byteLength": 852,
            "byteOffset": 1152,
            "name": "mesh8169_coord_bufferView",
            "target": 34962
        },
        {
            "buffer": 0,
            "byteLength": 852,
            "byteOffset": 2004,
            "name": "mesh8169_norm_bufferView",
            "target": 34962
        },
        {
            "buffer": 0,
            "byteLength": 900,
            "byteOffset": 2856,
            "name": "mesh8169_idx_bufferView",
            "target": 34963
        },
        {
            "buffer": 0,
            "byteLength": 852,
            "byteOffset": 3756,
            "name": "mesh8170_coord_bufferView",
            "target": 34962
        },
        {
            "buffer": 0,
            "byteLength": 852,
            "byteOffset": 4608,
            "name": "mesh8170_norm_bufferView",
            "target": 34962
        },
        {
            "buffer": 0,
            "byteLength": 900,
            "byteOffset": 5460,
            "name": "mesh8170_idx_bufferView",
            "target": 34963
        },
        {
            "buffer": 0,
            "byteLength": 120,
            "byteOffset": 6360,
            "name": "mesh8171_coord_bufferView",
            "target": 34962
        },
        {
            "buffer": 0,
            "byteLength": 120,
            "byteOffset": 6480,
            "name": "mesh8171_norm_bufferView",
            "target": 34962
        },
        {
            "buffer": 0,
            "byteLength": 96,
            "byteOffset": 6600,
            "name": "mesh8171_idx_bufferView",
            "target": 34963
        },
        {
            "buffer": 0,
            "byteLength": 48,
            "byteOffset": 6696,
            "name": "mesh8172_coord_bufferView",
            "target": 34962
        },
        {
            "buffer": 0,
            "byteLength": 48,
            "byteOffset": 6744,
            "name": "mesh8172_norm_bufferView",
            "target": 34962
        },
        {
            "buffer": 0,
            "byteLength": 24,
            "byteOffset": 6792,
            "name": "mesh8172_idx_bufferView",
            "target": 34963
        },
        {
            "buffer": 0,
            "byteLength": 120,
            "byteOffset": 6816,
            "name": "mesh8173_coord_bufferView",
            "target": 34962
        },
        {
            "buffer": 0,
            "byteLength": 120,
            "byteOffset": 6936,
            "name": "mesh8173_norm_bufferView",
            "target": 34962
        },
        {
            "buffer": 0,
            "byteLength": 96,
            "byteOffset": 7056,
            "name": "mesh8173_idx_bufferView",
            "target": 34963
        },
        {
            "buffer": 0,
            "byteLength": 48,
            "byteOffset": 7152,
            "name": "mesh8174_coord_bufferView",
            "target": 34962
        },
        {
            "buffer": 0,
            "byteLength": 48,
            "byteOffset": 7200,
            "name": "mesh8174_norm_bufferView",
            "target": 34962
        },
        {
            "buffer": 0,
            "byteLength": 24,
            "byteOffset": 7248,
            "name": "mesh8174_idx_bufferView",
            "target": 34963
        },
        {
            "buffer": 0,
            "byteLength": 120,
            "byteOffset": 7272,
            "name": "mesh8175_coord_bufferView",
            "target": 34962
        },
        {
            "buffer": 0,
            "byteLength": 120,
            "byteOffset": 7392,
            "name": "mesh8175_norm_bufferView",
            "target": 34962
        },
        {
            "buffer": 0,
            "byteLength": 96,
            "byteOffset": 7512,
            "name": "mesh8175_idx_bufferView",
            "target": 34963
        },
        {
            "buffer": 0,
            "byteLength": 48,
            "byteOffset": 7608,
            "name": "mesh8176_coord_bufferView",
            "target": 34962
        },
        {
            "buffer": 0,
            "byteLength": 48,
            "byteOffset": 7656,
            "name": "mesh8176_norm_bufferView",
            "target": 34962
        },
        {
            "buffer": 0,
            "byteLength": 24,
            "byteOffset": 7704,
            "name": "mesh8176_idx_bufferView",
            "target": 34963
        },
        {
            "buffer": 0,
            "byteLength": 120,
            "byteOffset": 7728,
            "name": "mesh8177_coord_bufferView",
            "target": 34962
        },
        {
            "buffer": 0,
            "byteLength": 120,
            "byteOffset": 7848,
            "name": "mesh8177_norm_bufferView",
            "target": 34962
        },
        {
            "buffer": 0,
            "byteLength": 96,
            "byteOffset": 7968,
            "name": "mesh8177_idx_bufferView",
            "target": 34963
        },
        {
            "buffer": 0,
            "byteLength": 120,
            "byteOffset": 8064,
            "name": "mesh8178_coord_bufferView",
            "target": 34962
        },
        {
            "buffer": 0,
            "byteLength": 120,
            "byteOffset": 8184,
            "name": "mesh8178_norm_bufferView",
            "target": 34962
        },
        {
            "buffer": 0,
            "byteLength": 96,
            "byteOffset": 8304,
            "name": "mesh8178_idx_bufferView",
            "target": 34963
        },
        {
            "buffer": 0,
            "byteLength": 48,
            "byteOffset": 8400,
            "name": "mesh8179_coord_bufferView",
            "target": 34962
        },
        {
            "buffer": 0,
            "byteLength": 48,
            "byteOffset": 8448,
            "name": "mesh8179_norm_bufferView",
            "target": 34962
        },
        {
            "buffer": 0,
            "byteLength": 24,
            "byteOffset": 8496,
            "name": "mesh8179_idx_bufferView",
            "target": 34963
        },
        {
            "buffer": 0,
            "byteLength": 120,
            "byteOffset": 8520,
            "name": "mesh8180_coord_bufferView",
            "target": 34962
        },
        {
            "buffer": 0,
            "byteLength": 120,
            "byteOffset": 8640,
            "name": "mesh8180_norm_bufferView",
            "target": 34962
        },
        {
            "buffer": 0,
            "byteLength": 96,
            "byteOffset": 8760,
            "name": "mesh8180_idx_bufferView",
            "target": 34963
        },
        {
            "buffer": 0,
            "byteLength": 48,
            "byteOffset": 8856,
            "name": "mesh8181_coord_bufferView",
            "target": 34962
        },
        {
            "buffer": 0,
            "byteLength": 48,
            "byteOffset": 8904,
            "name": "mesh8181_norm_bufferView",
            "target": 34962
        },
        {
            "buffer": 0,
            "byteLength": 24,
            "byteOffset": 8952,
            "name": "mesh8181_idx_bufferView",
            "target": 34963
        },
        {
            "buffer": 0,
            "byteLength": 120,
            "byteOffset": 8976,
            "name": "mesh8182_coord_bufferView",
            "target": 34962
        },
        {
            "buffer": 0,
            "byteLength": 120,
            "byteOffset": 9096,
            "name": "mesh8182_norm_bufferView",
            "target": 34962
        },
        {
            "buffer": 0,
            "byteLength": 96,
            "byteOffset": 9216,
            "name": "mesh8182_idx_bufferView",
            "target": 34963
        },
        {
            "buffer": 0,
            "byteLength": 48,
            "byteOffset": 9312,
            "name": "mesh8183_coord_bufferView",
            "target": 34962
        },
        {
            "buffer": 0,
            "byteLength": 48,
            "byteOffset": 9360,
            "name": "mesh8183_norm_bufferView",
            "target": 34962
        },
        {
            "buffer": 0,
            "byteLength": 24,
            "byteOffset": 9408,
            "name": "mesh8183_idx_bufferView",
            "target": 34963
        },
        {
            "buffer": 0,
            "byteLength": 120,
            "byteOffset": 9432,
            "name": "mesh8184_coord_bufferView",
            "target": 34962
        },
        {
            "buffer": 0,
            "byteLength": 120,
            "byteOffset": 9552,
            "name": "mesh8184_norm_bufferView",
            "target": 34962
        },
        {
            "buffer": 0,
            "byteLength": 96,
            "byteOffset": 9672,
            "name": "mesh8184_idx_bufferView",
            "target": 34963
        },
        {
            "buffer": 0,
            "byteLength": 48,
            "byteOffset": 9768,
            "name": "mesh8185_coord_bufferView",
            "target": 34962
        },
        {
            "buffer": 0,
            "byteLength": 48,
            "byteOffset": 9816,
            "name": "mesh8185_norm_bufferView",
            "target": 34962
        },
        {
            "buffer": 0,
            "byteLength": 24,
            "byteOffset": 9864,
            "name": "mesh8185_idx_bufferView",
            "target": 34963
        },
        {
            "buffer": 0,
            "byteLength": 216,
            "byteOffset": 9888,
            "name": "mesh8186_coord_bufferView",
            "target": 34962
        },
        {
            "buffer": 0,
            "byteLength": 216,
            "byteOffset": 10104,
            "name": "mesh8186_norm_bufferView",
            "target": 34962
        },
        {
            "buffer": 0,
            "byteLength": 192,
            "byteOffset": 10320,
            "name": "mesh8186_idx_bufferView",
            "target": 34963
        },
        {
            "buffer": 0,
            "byteLength": 48,
            "byteOffset": 10512,
            "name": "mesh8187_coord_bufferView",
            "target": 34962
        },
        {
            "buffer": 0,
            "byteLength": 48,
            "byteOffset": 10560,
            "name": "mesh8187_norm_bufferView",
            "target": 34962
        },
        {
            "buffer": 0,
            "byteLength": 24,
            "byteOffset": 10608,
            "name": "mesh8187_idx_bufferView",
            "target": 34963
        },
        {
            "buffer": 0,
            "byteLength": 48,
            "byteOffset": 10632,
            "name": "mesh8188_coord_bufferView",
            "target": 34962
        },
        {
            "buffer": 0,
            "byteLength": 48,
            "byteOffset": 10680,
            "name": "mesh8188_norm_bufferView",
            "target": 34962
        },
        {
            "buffer": 0,
            "byteLength": 24,
            "byteOffset": 10728,
            "name": "mesh8188_idx_bufferView",
            "target": 34963
        },
        {
            "buffer": 0,
            "byteLength": 48,
            "byteOffset": 10752,
            "name": "mesh8189_coord_bufferView",
            "target": 34962
        },
        {
            "buffer": 0,
            "byteLength": 48,
            "byteOffset": 10800,
            "name": "mesh8189_norm_bufferView",
            "target": 34962
        },
        {
            "buffer": 0,
            "byteLength": 24,
            "byteOffset": 10848,
            "name": "mesh8189_idx_bufferView",
            "target": 34963
        },
        {
            "buffer": 0,
            "byteLength": 48,
            "byteOffset": 10872,
            "name": "mesh8190_coord_bufferView",
            "target": 34962
        },
        {
            "buffer": 0,
            "byteLength": 48,
            "byteOffset": 10920,
            "name": "mesh8190_norm_bufferView",
            "target": 34962
        },
        {
            "buffer": 0,
            "byteLength": 24,
            "byteOffset": 10968,
            "name": "mesh8190_idx_bufferView",
            "target": 34963
        },
        {
            "buffer": 0,
            "byteLength": 48,
            "byteOffset": 10992,
            "name": "mesh8191_coord_bufferView",
            "target": 34962
        },
        {
            "buffer": 0,
            "byteLength": 48,
            "byteOffset": 11040,
            "name": "mesh8191_norm_bufferView",
            "target": 34962
        },
        {
            "buffer": 0,
            "byteLength": 24,
            "byteOffset": 11088,
            "name": "mesh8191_idx_bufferView",
            "target": 34963
        },
        {
            "buffer": 0,
            "byteLength": 48,
            "byteOffset": 11112,
            "name": "mesh8192_coord_bufferView",
            "target": 34962
        },
        {
            "buffer": 0,
            "byteLength": 48,
            "byteOffset": 11160,
            "name": "mesh8192_norm_bufferView",
            "target": 34962
        },
        {
            "buffer": 0,
            "byteLength": 24,
            "byteOffset": 11208,
            "name": "mesh8192_idx_bufferView",
            "target": 34963
        },
        {
            "buffer": 0,
            "byteLength": 48,
            "byteOffset": 11232,
            "name": "mesh8193_coord_bufferView",
            "target": 34962
        },
        {
            "buffer": 0,
            "byteLength": 48,
            "byteOffset": 11280,
            "name": "mesh8193_norm_bufferView",
            "target": 34962
        },
        {
            "buffer": 0,
            "byteLength": 24,
            "byteOffset": 11328,
            "name": "mesh8193_idx_bufferView",
            "target": 34963
        },
        {
            "buffer": 0,
            "byteLength": 48,
            "byteOffset": 11352,
            "name": "mesh8194_coord_bufferView",
            "target": 34962
        },
        {
            "buffer": 0,
            "byteLength": 48,
            "byteOffset": 11400,
            "name": "mesh8194_norm_bufferView",
            "target": 34962
        },
        {
            "buffer": 0,
            "byteLength": 24,
            "byteOffset": 11448,
            "name": "mesh8194_idx_bufferView",
            "target": 34963
        }
    ],
    "buffers": [
        {
            "byteLength": 11472,
            "name": "Total_buffer",
            "uri": "data:application/octet-stream;base64,"
        }
    ],
    "extensionsUsed": [
        "PTC_onshape_metadata"
    ],
    "materials": [
        {
            "doubleSided": true,
            "name": "0.372549_0.372549_0.372549_0.000000_0.000000",
            "pbrMetallicRoughness": {
                "baseColorFactor": [
                    0.37254902720451355,
                    0.37254902720451355,
                    0.37254902720451355,
                    1.0
                ],
                "metallicFactor": 0.0
            }
        },
        {
            "doubleSided": true,
            "name": "0.901961_0.901961_0.901961_0.000000_0.000000",
            "pbrMetallicRoughness": {
                "baseColorFactor": [
                    0.9019607901573181,
                    0.9019607901573181,
                    0.9019607901573181,
                    1.0
                ],
                "metallicFactor": 0.0
            }
        },
        {
            "doubleSided": true,
            "name": "0.917647_0.917647_0.917647_0.000000_0.000000",
            "pbrMetallicRoughness": {
                "baseColorFactor": [
                    0.9176470637321472,
                    0.9176470637321472,
                    0.9176470637321472,
                    1.0
                ],
                "metallicFactor": 0.0
            }
        },
        {
            "doubleSided": true,
            "name": "0.800000_0.800000_0.800000_0.000000_0.000000",
            "pbrMetallicRoughness": {
                "baseColorFactor": [
                    0.800000011920929,
                    0.800000011920929,
                    0.800000011920929,
                    1.0
                ],
                "metallicFactor": 0.0
            }
        },
        {
            "doubleSided": true,
            "name": "0.910000_0.910000_0.910000_0.000000_0.000000",
            "pbrMetallicRoughness": {
                "baseColorFactor": [
                    0.9100000262260437,
                    0.9100000262260437,
                    0.9100000262260437,
                    1.0
                ],
                "metallicFactor": 0.0
            }
        },
        {
            "doubleSided": true,
            "name": "0.301961_0.301961_0.301961_0.000000_0.000000",
            "pbrMetallicRoughness": {
                "baseColorFactor": [
                    0.3019607961177826,
                    0.3019607961177826,
                    0.3019607961177826,
                    1.0
                ],
                "metallicFactor": 0.0
            }
        },
        {
            "doubleSided": true,
            "name": "0.023529_0.298039_0.568627_0.000000_0.000000",
            "pbrMetallicRoughness": {
                "baseColorFactor": [
                    0.0235294122248888,
                    0.2980392277240753,
                    0.5686274766921997,
                    1.0
                ],
                "metallicFactor": 0.0
            }
        },
        {
            "doubleSided": true,
            "name": "0.501961_0.501961_0.501961_0.000000_0.000000",
            "pbrMetallicRoughness": {
                "baseColorFactor": [
                    0.501960813999176,
                    0.501960813999176,
                    0.501960813999176,
                    1.0
                ],
                "metallicFactor": 0.0
            }
        },
        {
            "doubleSided": true,
            "name": "0.498039_0.498039_0.498039_0.000000_0.000000",
            "pbrMetallicRoughness": {
                "baseColorFactor": [
                    0.49803921580314636,
                    0.49803921580314636,
                    0.49803921580314636,
                    1.0
                ],
                "metallicFactor": 0.0
            }
        },
        {
            "doubleSided": true,
            "name": "0.000000_0.000000_0.000000_0.000000_0.000000",
            "pbrMetallicRoughness": {
                "baseColorFactor": [
                    0.0,
                    0.0,
                    0.0,
                    1.0
                ],
                "metallicFactor": 0.0
            }
        },
        {
            "doubleSided": true,
            "name": "0.752941_0.752941_0.752941_0.000000_0.000000",
            "pbrMetallicRoughness": {
                "baseColorFactor": [
                    0.7529411911964417,
                    0.7529411911964417,
                    0.7529411911964417,
                    1.0
                ],
                "metallicFactor": 0.0
            }
        },
        {
            "doubleSided": true,
            "name": "0.250980_0.250980_0.250980_0.000000_0.000000",
            "pbrMetallicRoughness": {
                "baseColorFactor": [
                    0.250980406999588,
                    0.250980406999588,
                    0.250980406999588,
                    1.0
                ],
                "metallicFactor": 0.0
            }
        },
        {
            "doubleSided": true,
            "name": "0.796078_0.823529_0.937255_0.000000_0.000000",
            "pbrMetallicRoughness": {
                "baseColorFactor": [
                    0.7960784435272217,
                    0.8235294222831726,
                    0.9372549057006836,
                    1.0
                ],
                "metallicFactor": 0.0
            }
        },
        {
            "doubleSided": true,
            "name": "0.117647_0.117647_0.117647_0.000000_0.000000",
            "pbrMetallicRoughness": {
                "baseColorFactor": [
                    0.11764705926179886,
                    0.11764705926179886,
                    0.11764705926179886,
                    1.0
                ],
                "metallicFactor": 0.0
            }
        },
        {
            "doubleSided": true,
            "name": "0.600000_0.600000_0.600000_0.000000_0.000000",
            "pbrMetallicRoughness": {
                "baseColorFactor": [
                    0.6000000238418579,
                    0.6000000238418579,
                    0.6000000238418579,
                    1.0
                ],
                "metallicFactor": 0.0
            }
        },
        {
            "doubleSided": true,
            "name": "0.262745_0.282353_0.301961_0.000000_0.000000",
            "pbrMetallicRoughness": {
                "baseColorFactor": [
                    0.26274511218070984,
                    0.2823529541492462,
                    0.3019607961177826,
                    1.0
                ],
                "metallicFactor": 0.0
            }
        },
        {
            "doubleSided": true,
            "name": "0.792157_0.819608_0.933333_0.000000_0.000000",
            "pbrMetallicRoughness": {
                "baseColorFactor": [
                    0.7921568751335144,
                    0.8196078538894653,
                    0.9333333373069763,
                    1.0
                ],
                "metallicFactor": 0.0
            }
        },
        {
            "doubleSided": true,
            "name": "0.647059_0.647059_0.647059_0.000000_0.000000",
            "pbrMetallicRoughness": {
                "baseColorFactor": [
                    0.6470588445663452,
                    0.6470588445663452,
                    0.6470588445663452,
                    1.0
                ],
                "metallicFactor": 0.0
            }
        },
        {
            "doubleSided": true,
            "name": "0.349020_0.376471_0.400000_0.000000_0.000000",
            "pbrMetallicRoughness": {
                "baseColorFactor": [
                    0.3490196168422699,
                    0.3764705955982208,
                    0.4000000059604645,
                    1.0
                ],
                "metallicFactor": 0.0
            }
        },
        {
            "doubleSided": true,
            "name": "0.298039_0.298039_0.298039_0.000000_0.000000",
            "pbrMetallicRoughness": {
                "baseColorFactor": [
                    0.2980392277240753,
                    0.2980392277240753,
                    0.2980392277240753,
                    1.0
                ],
                "metallicFactor": 0.0
            }
        },
        {
            "doubleSided": true,
            "name": "0.098039_0.098039_0.098039_0.000000_0.000000",
            "pbrMetallicRoughness": {
                "baseColorFactor": [
                    0.09803921729326248,
                    0.09803921729326248,
                    0.09803921729326248,
                    1.0
                ],
                "metallicFactor": 0.0
            }
        },
        {
            "doubleSided": true,
            "name": "0.639216_0.666667_0.678431_0.000000_0.000000",
            "pbrMetallicRoughness": {
                "baseColorFactor": [
                    0.6392157077789307,
                    0.6666666865348816,
                    0.6784313917160034,
                    1.0
                ],
                "metallicFactor": 0.0
            }
        },
        {
            "doubleSided": true,
            "name": "0.905882_0.427451_0.000000_0.000000_0.000000",
            "pbrMetallicRoughness": {
                "baseColorFactor": [
                    0.9058823585510254,
                    0.4274509847164154,
                    0.0,
                    1.0
                ],
                "metallicFactor": 0.0
            }
        },
        {
            "doubleSided": true,
            "name": "1.000000_1.000000_1.000000_0.000000_0.000000",
            "pbrMetallicRoughness": {
                "metallicFactor": 0.0
            }
        },
        {
            "doubleSided": true,
            "name": "0.968627_0.878431_0.600000_0.000000_0.000000",
            "pbrMetallicRoughness": {
                "baseColorFactor": [
                    0.9686274528503418,
                    0.8784313797950745,
                    0.6000000238418579,
                    1.0
                ],
                "metallicFactor": 0.0
            }
        },
        {
            "doubleSided": true,
            "name": "0.196078_0.196078_0.196078_0.000000_0.000000",
            "pbrMetallicRoughness": {
                "baseColorFactor": [
                    0.19607843458652496,
                    0.19607843458652496,
                    0.19607843458652496,
                    1.0
                ],
                "metallicFactor": 0.0
            }
        },
        {
            "doubleSided": true,
            "name": "0.768627_0.886275_0.952941_0.000000_0.000000",
            "pbrMetallicRoughness": {
                "baseColorFactor": [
                    0.7686274647712708,
                    0.886274516582489,
                    0.9529411792755127,
                    1.0
                ],
                "metallicFactor": 0.0
            }
        },
        {
            "doubleSided": true,
            "name": "0.941176_0.941176_0.941176_0.000000_0.000000",
            "pbrMetallicRoughness": {
                "baseColorFactor": [
                    0.9411764740943909,
                    0.9411764740943909,
                    0.9411764740943909,
                    1.0
                ],
                "metallicFactor": 0.0
            }
        },
        {
            "doubleSided": true,
            "name": "0.066667_0.003922_0.592157_0.000000_0.000000",
            "pbrMetallicRoughness": {
                "baseColorFactor": [
                    0.06666667014360428,
                    0.003921568859368563,
                    0.5921568870544434,
                    1.0
                ],
                "metallicFactor": 0.0
            }
        },
        {
            "doubleSided": true,
            "name": "0.843137_0.815686_0.752941_0.000000_0.000000",
            "pbrMetallicRoughness": {
                "baseColorFactor": [
                    0.843137264251709,
                    0.8156862854957581,
                    0.7529411911964417,
                    1.0
                ],
                "metallicFactor": 0.0
            }
        },
        {
            "doubleSided": true,
            "name": "0.615686_0.811765_0.929412_0.000000_0.000000",
            "pbrMetallicRoughness": {
                "baseColorFactor": [
                    0.615686297416687,
                    0.8117647171020508,
                    0.929411768913269,
                    1.0
                ],
                "metallicFactor": 0.0
            }
        },
        {
            "doubleSided": true,
            "name": "0.945098_0.364706_0.184314_0.000000_0.000000",
            "pbrMetallicRoughness": {
                "baseColorFactor": [
                    0.9450980424880981,
                    0.364705890417099,
                    0.18431372940540314,
                    1.0
                ],
                "metallicFactor": 0.0
            }
        },
        {
            "doubleSided": true,
            "name": "0.796078_0.823529_0.933333_0.000000_0.000000",
            "pbrMetallicRoughness": {
                "baseColorFactor": [
                    0.7960784435272217,
                    0.8235294222831726,
                    0.9333333373069763,
                    1.0
                ],
                "metallicFactor": 0.0
            }
        },
        {
            "doubleSided": true,
            "name": "1.000000_0.937255_0.678431_0.000000_0.000000",
            "pbrMetallicRoughness": {
                "baseColorFactor": [
                    1.0,
                    0.9372549057006836,
                    0.6784313917160034,
                    1.0
                ],
                "metallicFactor": 0.0
            }
        },
        {
            "doubleSided": true,
            "name": "0.949020_0.760784_0.180392_0.000000_0.000000",
            "pbrMetallicRoughness": {
                "baseColorFactor": [
                    0.9490196108818054,
                    0.7607843279838562,
                    0.18039216101169586,
                    1.0
                ],
                "metallicFactor": 0.0
            }
        },
        {
            "doubleSided": true,
            "name": "0.701961_0.701961_0.701961_0.000000_0.000000",
            "pbrMetallicRoughness": {
                "baseColorFactor": [
                    0.7019608020782471,
                    0.7019608020782471,
                    0.7019608020782471,
                    1.0
                ],
                "metallicFactor": 0.0
            }
        }
    ],
    "meshes": [
        {
            "name": "mesh8168_mesh",
            "primitives": [
                {
                    "attributes": {
                        "NORMAL": 1,
                        "POSITION": 0
                    },
                    "indices": 2,
                    "material": 1
                }
            ]
        },
        {
            "name": "mesh8169_mesh",
            "primitives": [
                {
                    "attributes": {
                        "NORMAL": 4,
                        "POSITION": 3
                    },
                    "indices": 5,
                    "material": 1
                }
            ]
        },
        {
            "name": "mesh8170_mesh",
            "primitives": [
                {
                    "attributes": {
                        "NORMAL": 7,
                        "POSITION": 6
                    },
                    "indices": 8,
                    "material": 1
                }
            ]
        },
        {
            "name": "mesh8171_mesh",
            "primitives": [
                {
                    "attributes": {
                        "NORMAL": 10,
                        "POSITION": 9
                    },
                    "indices": 11,
                    "material": 1
                }
            ]
        },
        {
            "name": "mesh8172_mesh",
            "primitives": [
                {
                    "attributes": {
                        "NORMAL": 13,
                        "POSITION": 12
                    },
                    "indices": 14,
                    "material": 1
                }
            ]
        },
        {
            "name": "mesh8173_mesh",
            "primitives": [
                {
                    "attributes": {
                        "NORMAL": 16,
                        "POSITION": 15
                    },
                    "indices": 17,
                    "material": 1
                }
            ]
        },
        {
            "name": "mesh8174_mesh",
            "primitives": [
                {
                    "attributes": {
                        "NORMAL": 19,
                        "POSITION": 18
                    },
                    "indices": 20,
                    "material": 1
                }
            ]
        },
        {
            "name": "mesh8175_mesh",
            "primitives": [
                {
                    "attributes": {
                        "NORMAL": 22,
                        "POSITION": 21
                    },
                    "indices": 23,
                    "material": 1
                }
            ]
        },
        {
            "name": "mesh8176_mesh",
            "primitives": [
                {
                    "attributes": {
                        "NORMAL": 25,
                        "POSITION": 24
                    },
                    "indices": 26,
                    "material": 1
                }
            ]
        },
        {
            "name": "mesh8177_mesh",
            "primitives": [
                {
                    "attributes": {
                        "NORMAL": 28,
                        "POSITION": 27
                    },
                    "indices": 29,
                    "material": 1
                }
            ]
        },
        {
            "name": "mesh8178_mesh",
            "primitives": [
                {
                    "attributes": {
                        "NORMAL": 31,
                        "POSITION": 30
                    },
                    "indices": 32,
                    "material": 1
                }
            ]
        },
        {
            "name": "mesh8179_mesh",
            "primitives": [
                {
                    "attributes": {
                        "NORMAL": 34,
                        "POSITION": 33
                    },
                    "indices": 35,
                    "material": 1
                }
            ]
        },
        {
            "name": "mesh8180_mesh",
            "primitives": [
                {
                    "attributes": {
                        "NORMAL": 37,
                        "POSITION": 36
                    },
                    "indices": 38,
                    "material": 1
                }
            ]
        },
        {
            "name": "mesh8181_mesh",
            "primitives": [
                {
                    "attributes": {
                        "NORMAL": 40,
                        "POSITION": 39
                    },
                    "indices": 41,
                    "material": 1
                }
            ]
        },
        {
            "name": "mesh8182_mesh",
            "primitives": [
                {
                    "attributes": {
                        "NORMAL": 43,
                        "POSITION": 42
                    },
                    "indices": 44,
                    "material": 1
                }
            ]
        },
        {
            "name": "mesh8183_mesh",
            "primitives": [
                {
                    "attributes": {
                        "NORMAL": 46,
                        "POSITION": 45
                    },
                    "indices": 47,
                    "material": 1
                }
            ]
        },
        {
            "name": "mesh8184_mesh",
            "primitives": [
                {
                    "attributes": {
                        "NORMAL": 49,
                        "POSITION": 48
                    },
                    "indices": 50,
                    "material": 1
                }
            ]
        },
        {
            "name": "mesh8185_mesh",
            "primitives": [
                {
                    "attributes": {
                        "NORMAL": 52,
                        "POSITION": 51
                    },
                    "indices": 53,
                    "material": 1
                }
            ]
        },
        {
            "name": "mesh8186_mesh",
            "primitives": [
                {
                    "attributes": {
                        "NORMAL": 55,
                        "POSITION": 54
                    },
                    "indices": 56,
                    "material": 1
                }
            ]
        },
        {
            "name": "mesh8187_mesh",
            "primitives": [
                {
                    "attributes": {
                        "NORMAL": 58,
                        "POSITION": 57
                    },
                    "indices": 59,
                    "material": 1
                }
            ]
        },
        {
            "name": "mesh8188_mesh",
            "primitives": [
                {
                    "attributes": {
                        "NORMAL": 61,
                        "POSITION": 60
                    },
                    "indices": 62,
                    "material": 1
                }
            ]
        },
        {
            "name": "mesh8189_mesh",
            "primitives": [
                {
                    "attributes": {
                        "NORMAL": 64,
                        "POSITION": 63
                    },
                    "indices": 65,
                    "material": 1
                }
            ]
        },
        {
            "name": "mesh8190_mesh",
            "primitives": [
                {
                    "attributes": {
                        "NORMAL": 67,
                        "POSITION": 66
                    },
                    "indices": 68,
                    "material": 1
                }
            ]
        },
        {
            "name": "mesh8191_mesh",
            "primitives": [
                {
                    "attributes": {
                        "NORMAL": 70,
                        "POSITION": 69
                    },
                    "indices": 71,
                    "material": 1
                }
            ]
        },
        {
            "name": "mesh8192_mesh",
            "primitives": [
                {
                    "attributes": {
                        "NORMAL": 73,
                        "POSITION": 72
                    },
                    "indices": 74,
                    "material": 1
                }
            ]
        },
        {
            "name": "mesh8193_mesh",
            "primitives": [
                {
                    "attributes": {
                        "NORMAL": 76,
                        "POSITION": 75
                    },
                    "indices": 77,
                    "material": 1
                }
            ]
        },
        {
            "name": "mesh8194_mesh",
            "primitives": [
                {
                    "attributes": {
                        "NORMAL": 79,
                        "POSITION": 78
                    },
                    "indices": 80,
                    "material": 1
                }
            ]
        }
    ],
    "nodes": [
        {
            "mesh": 0,
            "name": "mesh8168"
        },
        {
            "mesh": 1,
            "name": "mesh8169"
        },
        {
            "mesh": 2,
            "name": "mesh8170"
        },
        {
            "mesh": 3,
            "name": "mesh8171"
        },
        {
            "mesh": 4,
            "name": "mesh8172"
        },
        {
            "mesh": 5,
            "name": "mesh8173"
        },
        {
            "mesh": 6,
            "name": "mesh8174"
        },
        {
            "mesh": 7,
            "name": "mesh8175"
        },
        {
            "mesh": 8,
            "name": "mesh8176"
        },
        {
            "mesh": 9,
            "name": "mesh8177"
        },
        {
            "mesh": 10,
            "name": "mesh8178"
        },
        {
            "mesh": 11,
            "name": "mesh8179"
        },
        {
            "mesh": 12,
            "name": "mesh8180"
        },
        {
            "mesh": 13,
            "name": "mesh8181"
        },
        {
            "mesh": 14,
            "name": "mesh8182"
        },
        {
            "mesh": 15,
            "name": "mesh8183"
        },
        {
            "mesh": 16,
            "name": "mesh8184"
        },
        {
            "mesh": 17,
            "name": "mesh8185"
        },
        {
            "mesh": 18,
            "name": "mesh8186"
        },
        {
            "mesh": 19,
            "name": "mesh8187"
        },
        {
            "mesh": 20,
            "name": "mesh8188"
        },
        {
            "mesh": 21,
            "name": "mesh8189"
        },
        {
            "mesh": 22,
            "name": "mesh8190"
        },
        {
            "mesh": 23,
            "name": "mesh8191"
        },
        {
            "mesh": 24,
            "name": "mesh8192"
        },
        {
            "mesh": 25,
            "name": "mesh8193"
        },
        {
            "mesh": 26,
            "name": "mesh8194"
        }
    ],
    "scene": 0,
    "scenes": [
        {
            "name": "Root",
            "nodes": [
                0,
                1,
                2,
                3,
                4,
                5,
                6,
                7,
                8,
                9,
                10,
                11,
                12,
                13,
                14,
                15,
                16,
                17,
                18,
                19,
                20,
                21,
                22,
                23,
                24,
                25,
                26
            ]
        }
    ]
}