# https://github.com/mikedh/trimesh

o 90576a161_medium_strength_steel_nylon_insert_locknut__9.stl
v 0.09770017 0.06364471 0.03177750
v 0.09770017 0.06364471 0.03116667
v 0.09778364 0.06364107 0.03177750
v 0.09778364 0.06364107 0.03116667
v 0.09786648 0.06363016 0.03177750
v 0.09786648 0.06363016 0.03116667
v 0.09794804 0.06361208 0.03177750
v 0.09794804 0.06361208 0.03116667
v 0.09802773 0.06358696 0.03177750
v 0.09802773 0.06358696 0.03116667
v 0.09810492 0.06355499 0.03177750
v 0.09810492 0.06355499 0.03116667
v 0.09817903 0.06351641 0.03177750
v 0.09817903 0.06351641 0.03116667
v 0.09824950 0.06347152 0.03177750
v 0.09824950 0.06347152 0.03116667
v 0.09831578 0.06342065 0.03177750
v 0.09831578 0.06342065 0.03116667
v 0.09837738 0.06336421 0.03177750
v 0.09837738 0.06336421 0.03116667
v 0.09843382 0.06330261 0.03177750
v 0.09843382 0.06330261 0.03116667
v 0.09848469 0.06323633 0.03177750
v 0.09848469 0.06323633 0.03116667
v 0.09852958 0.06316586 0.03177750
v 0.09852958 0.06316586 0.03116667
v 0.09856816 0.06309175 0.03177750
v 0.09856816 0.06309175 0.03116667
v 0.09860013 0.06301456 0.03177750
v 0.09860013 0.06301456 0.03116667
v 0.09862525 0.06293488 0.03177750
v 0.09862525 0.06293488 0.03116667
v 0.09864333 0.06285331 0.03177750
v 0.09864333 0.06285331 0.03116667
v 0.09865424 0.06277047 0.03177750
v 0.09865424 0.06277047 0.03116667
v 0.09865788 0.06268700 0.03177750
v 0.09865788 0.06268700 0.03116667
v 0.09865424 0.06260353 0.03177750
v 0.09865424 0.06260353 0.03116667
v 0.09864333 0.06252070 0.03177750
v 0.09864333 0.06252070 0.03116667
v 0.09862525 0.06243913 0.03177750
v 0.09862525 0.06243913 0.03116667
v 0.09860013 0.06235944 0.03177750
v 0.09860013 0.06235944 0.03116667
v 0.09856816 0.06228225 0.03177750
v 0.09856816 0.06228225 0.03116667
v 0.09852958 0.06220814 0.03177750
v 0.09852958 0.06220814 0.03116667
v 0.09848469 0.06213768 0.03177750
v 0.09848469 0.06213768 0.03116667
v 0.09843382 0.06207139 0.03177750
v 0.09843382 0.06207139 0.03116667
v 0.09837738 0.06200979 0.03177750
v 0.09837738 0.06200979 0.03116667
v 0.09831578 0.06195335 0.03177750
v 0.09831578 0.06195335 0.03116667
v 0.09824950 0.06190249 0.03177750
v 0.09824950 0.06190249 0.03116667
v 0.09817903 0.06185759 0.03177750
v 0.09817903 0.06185759 0.03116667
v 0.09810492 0.06181901 0.03177750
v 0.09810492 0.06181901 0.03116667
v 0.09802773 0.06178704 0.03177750
v 0.09802773 0.06178704 0.03116667
v 0.09794804 0.06176192 0.03177750
v 0.09794804 0.06176192 0.03116667
v 0.09786648 0.06174383 0.03177750
v 0.09786648 0.06174383 0.03116667
v 0.09778364 0.06173293 0.03177750
v 0.09778364 0.06173293 0.03116667
v 0.09770017 0.06172928 0.03177750
v 0.09770017 0.06172928 0.03116667
v 0.09761669 0.06173293 0.03177750
v 0.09761669 0.06173293 0.03116667
v 0.09753387 0.06174383 0.03177750
v 0.09753387 0.06174383 0.03116667
v 0.09745229 0.06176192 0.03177750
v 0.09745229 0.06176192 0.03116667
v 0.09737261 0.06178704 0.03177750
v 0.09737261 0.06178704 0.03116667
v 0.09729542 0.06181901 0.03177750
v 0.09729542 0.06181901 0.03116667
v 0.09722131 0.06185759 0.03177750
v 0.09722131 0.06185759 0.03116667
v 0.09715085 0.06190249 0.03177750
v 0.09715085 0.06190249 0.03116667
v 0.09708456 0.06195335 0.03177750
v 0.09708456 0.06195335 0.03116667
v 0.09702296 0.06200979 0.03177750
v 0.09702296 0.06200979 0.03116667
v 0.09696651 0.06207139 0.03177750
v 0.09696651 0.06207139 0.03116667
v 0.09691565 0.06213768 0.03177750
v 0.09691565 0.06213768 0.03116667
v 0.09687077 0.06220814 0.03177750
v 0.09687077 0.06220814 0.03116667
v 0.09683219 0.06228225 0.03177750
v 0.09683219 0.06228225 0.03116667
v 0.09680021 0.06235944 0.03177750
v 0.09680021 0.06235944 0.03116667
v 0.09677508 0.06243913 0.03177750
v 0.09677508 0.06243913 0.03116667
v 0.09675700 0.06252070 0.03177750
v 0.09675700 0.06252070 0.03116667
v 0.09674609 0.06260353 0.03177750
v 0.09674609 0.06260353 0.03116667
v 0.09674245 0.06268700 0.03177750
v 0.09674245 0.06268700 0.03116667
v 0.09674609 0.06277047 0.03177750
v 0.09674609 0.06277047 0.03116667
v 0.09675700 0.06285331 0.03177750
v 0.09675700 0.06285331 0.03116667
v 0.09677508 0.06293488 0.03177750
v 0.09677508 0.06293488 0.03116667
v 0.09680021 0.06301456 0.03177750
v 0.09680021 0.06301456 0.03116667
v 0.09683219 0.06309175 0.03177750
v 0.09683219 0.06309175 0.03116667
v 0.09687077 0.06316586 0.03177750
v 0.09687077 0.06316586 0.03116667
v 0.09691565 0.06323633 0.03177750
v 0.09691565 0.06323633 0.03116667
v 0.09696651 0.06330261 0.03177750
v 0.09696651 0.06330261 0.03116667
v 0.09702296 0.06336421 0.03177750
v 0.09702296 0.06336421 0.03116667
v 0.09708456 0.06342065 0.03177750
v 0.09708456 0.06342065 0.03116667
v 0.09715085 0.06347152 0.03177750
v 0.09715085 0.06347152 0.03116667
v 0.09722131 0.06351641 0.03177750
v 0.09722131 0.06351641 0.03116667
v 0.09729542 0.06355499 0.03177750
v 0.09729542 0.06355499 0.03116667
v 0.09737261 0.06358696 0.03177750
v 0.09737261 0.06358696 0.03116667
v 0.09745229 0.06361208 0.03177750
v 0.09745229 0.06361208 0.03116667
v 0.09753387 0.06363016 0.03177750
v 0.09753387 0.06363016 0.03116667
v 0.09761669 0.06364107 0.03177750
v 0.09761669 0.06364107 0.03116667
v 0.09770017 0.06516450 0.03116667
v 0.09791590 0.06515276 0.03121990
v 0.09791610 0.06515507 0.03116667
v 0.09812998 0.06512457 0.03121990
v 0.09813038 0.06512686 0.03116667
v 0.09834079 0.06507783 0.03121990
v 0.09834139 0.06508008 0.03116667
v 0.09854673 0.06501290 0.03121990
v 0.09854753 0.06501509 0.03116667
v 0.09874623 0.06493027 0.03121990
v 0.09874721 0.06493238 0.03116667
v 0.09893776 0.06483056 0.03121990
v 0.09893892 0.06483258 0.03116667
v 0.09911987 0.06471454 0.03121990
v 0.09912121 0.06471645 0.03116667
v 0.09929118 0.06458309 0.03121990
v 0.09929267 0.06458487 0.03116667
v 0.09945038 0.06443721 0.03121990
v 0.09945203 0.06443886 0.03116667
v 0.09959626 0.06427801 0.03121990
v 0.09959804 0.06427950 0.03116667
v 0.09972771 0.06410670 0.03121990
v 0.09972962 0.06410804 0.03116667
v 0.09984373 0.06392459 0.03121990
v 0.09984574 0.06392575 0.03116667
v 0.09994344 0.06373306 0.03121990
v 0.09994555 0.06373404 0.03116667
v 0.10002607 0.06353356 0.03121990
v 0.10002825 0.06353436 0.03116667
v 0.10009100 0.06332763 0.03121990
v 0.10009325 0.06332822 0.03116667
v 0.10013774 0.06311681 0.03121990
v 0.10014003 0.06311721 0.03116667
v 0.10016593 0.06290273 0.03121990
v 0.10016824 0.06290293 0.03116667
v 0.10017534 0.06268700 0.03121990
v 0.10017767 0.06268700 0.03116667
v 0.10016593 0.06247127 0.03121990
v 0.10016824 0.06247107 0.03116667
v 0.10013774 0.06225719 0.03121990
v 0.10014003 0.06225679 0.03116667
v 0.10009100 0.06204638 0.03121990
v 0.10009325 0.06204578 0.03116667
v 0.10002607 0.06184044 0.03121990
v 0.10002825 0.06183964 0.03116667
v 0.09994344 0.06164094 0.03121990
v 0.09994555 0.06163996 0.03116667
v 0.09984373 0.06144941 0.03121990
v 0.09984574 0.06144825 0.03116667
v 0.09972771 0.06126730 0.03121990
v 0.09972962 0.06126596 0.03116667
v 0.09959626 0.06109599 0.03121990
v 0.09959804 0.06109449 0.03116667
v 0.09945038 0.06093679 0.03121990
v 0.09945203 0.06093514 0.03116667
v 0.09929118 0.06079091 0.03121990
v 0.09929267 0.06078913 0.03116667
v 0.09911987 0.06065945 0.03121990
v 0.09912121 0.06065755 0.03116667
v 0.09893776 0.06054344 0.03121990
v 0.09893892 0.06054142 0.03116667
v 0.09874623 0.06044373 0.03121990
v 0.09874721 0.06044162 0.03116667
v 0.09854673 0.06036109 0.03121990
v 0.09854753 0.06035891 0.03116667
v 0.09834079 0.06029616 0.03121990
v 0.09834139 0.06029392 0.03116667
v 0.09812998 0.06024943 0.03121990
v 0.09813038 0.06024714 0.03116667
v 0.09791590 0.06022124 0.03121990
v 0.09791610 0.06021893 0.03116667
v 0.09770017 0.06021183 0.03121990
v 0.09770017 0.06020950 0.03116667
v 0.09748444 0.06022124 0.03121990
v 0.09748424 0.06021893 0.03116667
v 0.09727036 0.06024943 0.03121990
v 0.09726995 0.06024714 0.03116667
v 0.09705955 0.06029616 0.03121990
v 0.09705894 0.06029392 0.03116667
v 0.09685361 0.06036109 0.03121990
v 0.09685282 0.06035891 0.03116667
v 0.09665412 0.06044373 0.03121990
v 0.09665313 0.06044162 0.03116667
v 0.09646258 0.06054344 0.03121990
v 0.09646142 0.06054142 0.03116667
v 0.09628046 0.06065945 0.03121990
v 0.09627914 0.06065755 0.03116667
v 0.09610916 0.06079091 0.03121990
v 0.09610766 0.06078913 0.03116667
v 0.09594996 0.06093679 0.03121990
v 0.09594831 0.06093514 0.03116667
v 0.09580407 0.06109599 0.03121990
v 0.09580229 0.06109449 0.03116667
v 0.09567262 0.06126730 0.03121990
v 0.09567072 0.06126596 0.03116667
v 0.09555660 0.06144941 0.03121990
v 0.09555459 0.06144825 0.03116667
v 0.09545690 0.06164094 0.03121990
v 0.09545479 0.06163996 0.03116667
v 0.09537426 0.06184044 0.03121990
v 0.09537208 0.06183964 0.03116667
v 0.09530933 0.06204638 0.03121990
v 0.09530709 0.06204578 0.03116667
v 0.09526259 0.06225719 0.03121990
v 0.09526031 0.06225679 0.03116667
v 0.09523441 0.06247127 0.03121990
v 0.09523210 0.06247107 0.03116667
v 0.09522499 0.06268700 0.03121990
v 0.09522267 0.06268700 0.03116667
v 0.09523441 0.06290273 0.03121990
v 0.09523210 0.06290293 0.03116667
v 0.09526259 0.06311681 0.03121990
v 0.09526031 0.06311721 0.03116667
v 0.09530933 0.06332763 0.03121990
v 0.09530709 0.06332822 0.03116667
v 0.09537426 0.06353356 0.03121990
v 0.09537208 0.06353436 0.03116667
v 0.09545690 0.06373306 0.03121990
v 0.09545479 0.06373404 0.03116667
v 0.09555660 0.06392459 0.03121990
v 0.09555459 0.06392575 0.03116667
v 0.09567262 0.06410670 0.03121990
v 0.09567072 0.06410804 0.03116667
v 0.09580407 0.06427801 0.03121990
v 0.09580229 0.06427950 0.03116667
v 0.09594996 0.06443721 0.03121990
v 0.09594831 0.06443886 0.03116667
v 0.09610916 0.06458309 0.03121990
v 0.09610766 0.06458487 0.03116667
v 0.09628046 0.06471454 0.03121990
v 0.09627914 0.06471645 0.03116667
v 0.09646258 0.06483056 0.03121990
v 0.09646142 0.06483258 0.03116667
v 0.09665412 0.06493027 0.03121990
v 0.09665313 0.06493238 0.03116667
v 0.09685361 0.06501290 0.03121990
v 0.09685282 0.06501509 0.03116667
v 0.09705955 0.06507783 0.03121990
v 0.09705894 0.06508008 0.03116667
v 0.09727036 0.06512457 0.03121990
v 0.09726995 0.06512686 0.03116667
v 0.09748444 0.06515276 0.03121990
v 0.09748424 0.06515507 0.03116667
v 0.09770017 0.06516217 0.03121990
v 0.09791529 0.06514583 0.03127274
v 0.09812877 0.06511772 0.03127274
v 0.09833899 0.06507112 0.03127274
v 0.09854435 0.06500637 0.03127274
v 0.09874328 0.06492396 0.03127274
v 0.09893428 0.06482454 0.03127274
v 0.09911588 0.06470885 0.03127274
v 0.09928671 0.06457777 0.03127274
v 0.09944546 0.06443229 0.03127274
v 0.09959093 0.06427354 0.03127274
v 0.09972201 0.06410272 0.03127274
v 0.09983771 0.06392111 0.03127274
v 0.09993713 0.06373011 0.03127274
v 0.10001954 0.06353118 0.03127274
v 0.10008429 0.06332582 0.03127274
v 0.10013089 0.06311560 0.03127274
v 0.10015900 0.06290212 0.03127274
v 0.10016839 0.06268700 0.03127274
v 0.10015900 0.06247188 0.03127274
v 0.10013089 0.06225840 0.03127274
v 0.10008429 0.06204818 0.03127274
v 0.10001954 0.06184282 0.03127274
v 0.09993713 0.06164388 0.03127274
v 0.09983771 0.06145289 0.03127274
v 0.09972201 0.06127129 0.03127274
v 0.09959093 0.06110046 0.03127274
v 0.09944546 0.06094170 0.03127274
v 0.09928671 0.06079623 0.03127274
v 0.09911588 0.06066515 0.03127274
v 0.09893428 0.06054946 0.03127274
v 0.09874328 0.06045003 0.03127274
v 0.09854435 0.06036763 0.03127274
v 0.09833899 0.06030288 0.03127274
v 0.09812877 0.06025628 0.03127274
v 0.09791529 0.06022817 0.03127274
v 0.09770017 0.06021878 0.03127274
v 0.09748505 0.06022817 0.03127274
v 0.09727157 0.06025628 0.03127274
v 0.09706134 0.06030288 0.03127274
v 0.09685599 0.06036763 0.03127274
v 0.09665705 0.06045003 0.03127274
v 0.09646606 0.06054946 0.03127274
v 0.09628446 0.06066515 0.03127274
v 0.09611363 0.06079623 0.03127274
v 0.09595487 0.06094170 0.03127274
v 0.09580940 0.06110046 0.03127274
v 0.09567832 0.06127129 0.03127274
v 0.09556263 0.06145289 0.03127274
v 0.09546320 0.06164388 0.03127274
v 0.09538080 0.06184282 0.03127274
v 0.09531605 0.06204818 0.03127274
v 0.09526945 0.06225840 0.03127274
v 0.09524134 0.06247188 0.03127274
v 0.09523195 0.06268700 0.03127274
v 0.09524134 0.06290212 0.03127274
v 0.09526945 0.06311560 0.03127274
v 0.09531605 0.06332582 0.03127274
v 0.09538080 0.06353118 0.03127274
v 0.09546320 0.06373011 0.03127274
v 0.09556263 0.06392111 0.03127274
v 0.09567832 0.06410272 0.03127274
v 0.09580940 0.06427354 0.03127274
v 0.09595487 0.06443229 0.03127274
v 0.09611363 0.06457777 0.03127274
v 0.09628446 0.06470885 0.03127274
v 0.09646606 0.06482454 0.03127274
v 0.09665705 0.06492396 0.03127274
v 0.09685599 0.06500637 0.03127274
v 0.09706134 0.06507112 0.03127274
v 0.09727157 0.06511772 0.03127274
v 0.09748505 0.06514583 0.03127274
v 0.09770017 0.06515522 0.03127274
v 0.09791429 0.06513434 0.03132476
v 0.09812677 0.06510636 0.03132476
v 0.09833600 0.06505997 0.03132476
v 0.09854040 0.06499553 0.03132476
v 0.09873841 0.06491351 0.03132476
v 0.09892851 0.06481455 0.03132476
v 0.09910927 0.06469940 0.03132476
v 0.09927930 0.06456893 0.03132476
v 0.09943731 0.06442414 0.03132476
v 0.09958210 0.06426613 0.03132476
v 0.09971257 0.06409610 0.03132476
v 0.09982772 0.06391534 0.03132476
v 0.09992668 0.06372524 0.03132476
v 0.10000870 0.06352723 0.03132476
v 0.10007314 0.06332283 0.03132476
v 0.10011953 0.06311360 0.03132476
v 0.10014751 0.06290112 0.03132476
v 0.10015686 0.06268700 0.03132476
v 0.10014751 0.06247289 0.03132476
v 0.10011953 0.06226040 0.03132476
v 0.10007314 0.06205116 0.03132476
v 0.10000870 0.06184676 0.03132476
v 0.09992668 0.06164876 0.03132476
v 0.09982772 0.06145866 0.03132476
v 0.09971257 0.06127790 0.03132476
v 0.09958210 0.06110787 0.03132476
v 0.09943731 0.06094986 0.03132476
v 0.09927930 0.06080507 0.03132476
v 0.09910927 0.06067460 0.03132476
v 0.09892851 0.06055945 0.03132476
v 0.09873841 0.06046049 0.03132476
v 0.09854040 0.06037847 0.03132476
v 0.09833600 0.06031402 0.03132476
v 0.09812677 0.06026763 0.03132476
v 0.09791429 0.06023966 0.03132476
v 0.09770017 0.06023031 0.03132476
v 0.09748606 0.06023966 0.03132476
v 0.09727357 0.06026763 0.03132476
v 0.09706433 0.06031402 0.03132476
v 0.09685993 0.06037847 0.03132476
v 0.09666193 0.06046049 0.03132476
v 0.09647182 0.06055945 0.03132476
v 0.09629107 0.06067460 0.03132476
v 0.09612104 0.06080507 0.03132476
v 0.09596303 0.06094986 0.03132476
v 0.09581824 0.06110787 0.03132476
v 0.09568777 0.06127790 0.03132476
v 0.09557261 0.06145866 0.03132476
v 0.09547365 0.06164876 0.03132476
v 0.09539164 0.06184676 0.03132476
v 0.09532719 0.06205116 0.03132476
v 0.09528080 0.06226040 0.03132476
v 0.09525283 0.06247289 0.03132476
v 0.09524348 0.06268700 0.03132476
v 0.09525283 0.06290112 0.03132476
v 0.09528080 0.06311360 0.03132476
v 0.09532719 0.06332283 0.03132476
v 0.09539164 0.06352723 0.03132476
v 0.09547365 0.06372524 0.03132476
v 0.09557261 0.06391534 0.03132476
v 0.09568777 0.06409610 0.03132476
v 0.09581824 0.06426613 0.03132476
v 0.09596303 0.06442414 0.03132476
v 0.09612104 0.06456893 0.03132476
v 0.09629107 0.06469940 0.03132476
v 0.09647182 0.06481455 0.03132476
v 0.09666193 0.06491351 0.03132476
v 0.09685993 0.06499553 0.03132476
v 0.09706433 0.06505997 0.03132476
v 0.09727357 0.06510636 0.03132476
v 0.09748606 0.06513434 0.03132476
v 0.09770017 0.06514369 0.03132476
v 0.09791289 0.06511837 0.03137558
v 0.09812398 0.06509058 0.03137558
v 0.09833186 0.06504450 0.03137558
v 0.09853493 0.06498047 0.03137558
v 0.09873164 0.06489899 0.03137558
v 0.09892050 0.06480067 0.03137558
v 0.09910008 0.06468628 0.03137558
v 0.09926900 0.06455666 0.03137558
v 0.09942598 0.06441281 0.03137558
v 0.09956983 0.06425583 0.03137558
v 0.09969945 0.06408691 0.03137558
v 0.09981384 0.06390733 0.03137558
v 0.09991216 0.06371847 0.03137558
v 0.09999364 0.06352176 0.03137558
v 0.10005767 0.06331869 0.03137558
v 0.10010375 0.06311081 0.03137558
v 0.10013154 0.06289972 0.03137558
v 0.10014083 0.06268700 0.03137558
v 0.10013154 0.06247428 0.03137558
v 0.10010375 0.06226318 0.03137558
v 0.10005767 0.06205531 0.03137558
v 0.09999364 0.06185224 0.03137558
v 0.09991216 0.06165553 0.03137558
v 0.09981384 0.06146667 0.03137558
v 0.09969945 0.06128709 0.03137558
v 0.09956983 0.06111817 0.03137558
v 0.09942598 0.06096119 0.03137558
v 0.09926900 0.06081735 0.03137558
v 0.09910008 0.06068773 0.03137558
v 0.09892050 0.06057332 0.03137558
v 0.09873164 0.06047501 0.03137558
v 0.09853493 0.06039353 0.03137558
v 0.09833186 0.06032950 0.03137558
v 0.09812398 0.06028342 0.03137558
v 0.09791289 0.06025562 0.03137558
v 0.09770017 0.06024634 0.03137558
v 0.09748745 0.06025562 0.03137558
v 0.09727635 0.06028342 0.03137558
v 0.09706848 0.06032950 0.03137558
v 0.09686542 0.06039353 0.03137558
v 0.09666870 0.06047501 0.03137558
v 0.09647984 0.06057332 0.03137558
v 0.09630026 0.06068773 0.03137558
v 0.09613134 0.06081735 0.03137558
v 0.09597436 0.06096119 0.03137558
v 0.09583052 0.06111817 0.03137558
v 0.09570090 0.06128709 0.03137558
v 0.09558649 0.06146667 0.03137558
v 0.09548818 0.06165553 0.03137558
v 0.09540670 0.06185224 0.03137558
v 0.09534267 0.06205531 0.03137558
v 0.09529658 0.06226318 0.03137558
v 0.09526879 0.06247428 0.03137558
v 0.09525951 0.06268700 0.03137558
v 0.09526879 0.06289972 0.03137558
v 0.09529658 0.06311081 0.03137558
v 0.09534267 0.06331869 0.03137558
v 0.09540670 0.06352176 0.03137558
v 0.09548818 0.06371847 0.03137558
v 0.09558649 0.06390733 0.03137558
v 0.09570090 0.06408691 0.03137558
v 0.09583052 0.06425583 0.03137558
v 0.09597436 0.06441281 0.03137558
v 0.09613134 0.06455666 0.03137558
v 0.09630026 0.06468628 0.03137558
v 0.09647984 0.06480067 0.03137558
v 0.09666870 0.06489899 0.03137558
v 0.09686542 0.06498047 0.03137558
v 0.09706848 0.06504450 0.03137558
v 0.09727635 0.06509058 0.03137558
v 0.09748745 0.06511837 0.03137558
v 0.09770017 0.06512766 0.03137558
v 0.09791111 0.06509806 0.03142482
v 0.09812044 0.06507050 0.03142482
v 0.09832658 0.06502480 0.03142482
v 0.09852795 0.06496131 0.03142482
v 0.09872302 0.06488051 0.03142482
v 0.09891030 0.06478301 0.03142482
v 0.09908838 0.06466957 0.03142482
v 0.09925589 0.06454103 0.03142482
v 0.09941155 0.06439839 0.03142482
v 0.09955420 0.06424272 0.03142482
v 0.09968274 0.06407521 0.03142482
v 0.09979618 0.06389713 0.03142482
v 0.09989368 0.06370985 0.03142482
v 0.09997448 0.06351478 0.03142482
v 0.10003797 0.06331341 0.03142482
v 0.10008367 0.06310727 0.03142482
v 0.10011123 0.06289794 0.03142482
v 0.10012044 0.06268700 0.03142482
v 0.10011123 0.06247606 0.03142482
v 0.10008367 0.06226673 0.03142482
v 0.10003797 0.06206059 0.03142482
v 0.09997448 0.06185922 0.03142482
v 0.09989368 0.06166415 0.03142482
v 0.09979618 0.06147686 0.03142482
v 0.09968274 0.06129879 0.03142482
v 0.09955420 0.06113128 0.03142482
v 0.09941155 0.06097561 0.03142482
v 0.09925589 0.06083297 0.03142482
v 0.09908838 0.06070443 0.03142482
v 0.09891030 0.06059099 0.03142482
v 0.09872302 0.06049349 0.03142482
v 0.09852795 0.06041269 0.03142482
v 0.09832658 0.06034920 0.03142482
v 0.09812044 0.06030350 0.03142482
v 0.09791111 0.06027594 0.03142482
v 0.09770017 0.06026673 0.03142482
v 0.09748923 0.06027594 0.03142482
v 0.09727989 0.06030350 0.03142482
v 0.09707376 0.06034920 0.03142482
v 0.09687239 0.06041269 0.03142482
v 0.09667732 0.06049349 0.03142482
v 0.09649003 0.06059099 0.03142482
v 0.09631196 0.06070443 0.03142482
v 0.09614445 0.06083297 0.03142482
v 0.09598878 0.06097561 0.03142482
v 0.09584613 0.06113128 0.03142482
v 0.09571760 0.06129879 0.03142482
v 0.09560415 0.06147686 0.03142482
v 0.09550666 0.06166415 0.03142482
v 0.09542586 0.06185922 0.03142482
v 0.09536237 0.06206059 0.03142482
v 0.09531667 0.06226673 0.03142482
v 0.09528911 0.06247606 0.03142482
v 0.09527990 0.06268700 0.03142482
v 0.09528911 0.06289794 0.03142482
v 0.09531667 0.06310727 0.03142482
v 0.09536237 0.06331341 0.03142482
v 0.09542586 0.06351478 0.03142482
v 0.09550666 0.06370985 0.03142482
v 0.09560415 0.06389713 0.03142482
v 0.09571760 0.06407521 0.03142482
v 0.09584613 0.06424272 0.03142482
v 0.09598878 0.06439839 0.03142482
v 0.09614445 0.06454103 0.03142482
v 0.09631196 0.06466957 0.03142482
v 0.09649003 0.06478301 0.03142482
v 0.09667732 0.06488051 0.03142482
v 0.09687239 0.06496131 0.03142482
v 0.09707376 0.06502480 0.03142482
v 0.09727989 0.06507050 0.03142482
v 0.09748923 0.06509806 0.03142482
v 0.09770017 0.06510727 0.03142482
v 0.09790897 0.06507355 0.03147208
v 0.09811617 0.06504627 0.03147208
v 0.09832022 0.06500103 0.03147208
v 0.09851953 0.06493819 0.03147208
v 0.09871262 0.06485821 0.03147208
v 0.09889800 0.06476171 0.03147208
v 0.09907427 0.06464941 0.03147208
v 0.09924007 0.06452218 0.03147208
v 0.09939416 0.06438099 0.03147208
v 0.09953535 0.06422690 0.03147208
v 0.09966258 0.06406110 0.03147208
v 0.09977487 0.06388483 0.03147208
v 0.09987137 0.06369945 0.03147208
v 0.09995136 0.06350636 0.03147208
v 0.10001420 0.06330705 0.03147208
v 0.10005943 0.06310301 0.03147208
v 0.10008672 0.06289580 0.03147208
v 0.10009583 0.06268700 0.03147208
v 0.10008672 0.06247820 0.03147208
v 0.10005943 0.06227100 0.03147208
v 0.10001420 0.06206696 0.03147208
v 0.09995136 0.06186764 0.03147208
v 0.09987137 0.06167455 0.03147208
v 0.09977487 0.06148917 0.03147208
v 0.09966258 0.06131290 0.03147208
v 0.09953535 0.06114710 0.03147208
v 0.09939416 0.06099301 0.03147208
v 0.09924007 0.06085182 0.03147208
v 0.09907427 0.06072459 0.03147208
v 0.09889800 0.06061229 0.03147208
v 0.09871262 0.06051579 0.03147208
v 0.09851953 0.06043581 0.03147208
v 0.09832022 0.06037297 0.03147208
v 0.09811617 0.06032773 0.03147208
v 0.09790897 0.06030045 0.03147208
v 0.09770017 0.06029133 0.03147208
v 0.09749138 0.06030045 0.03147208
v 0.09728417 0.06032773 0.03147208
v 0.09708013 0.06037297 0.03147208
v 0.09688080 0.06043581 0.03147208
v 0.09668772 0.06051579 0.03147208
v 0.09650233 0.06061229 0.03147208
v 0.09632608 0.06072459 0.03147208
v 0.09616026 0.06085182 0.03147208
v 0.09600618 0.06099301 0.03147208
v 0.09586498 0.06114710 0.03147208
v 0.09573776 0.06131290 0.03147208
v 0.09562546 0.06148917 0.03147208
v 0.09552896 0.06167455 0.03147208
v 0.09544898 0.06186764 0.03147208
v 0.09538613 0.06206696 0.03147208
v 0.09534090 0.06227100 0.03147208
v 0.09531362 0.06247820 0.03147208
v 0.09530450 0.06268700 0.03147208
v 0.09531362 0.06289580 0.03147208
v 0.09534090 0.06310301 0.03147208
v 0.09538613 0.06330705 0.03147208
v 0.09544898 0.06350636 0.03147208
v 0.09552896 0.06369945 0.03147208
v 0.09562546 0.06388483 0.03147208
v 0.09573776 0.06406110 0.03147208
v 0.09586498 0.06422690 0.03147208
v 0.09600618 0.06438099 0.03147208
v 0.09616026 0.06452218 0.03147208
v 0.09632608 0.06464941 0.03147208
v 0.09650233 0.06476171 0.03147208
v 0.09668772 0.06485821 0.03147208
v 0.09688080 0.06493819 0.03147208
v 0.09708013 0.06500103 0.03147208
v 0.09728417 0.06504627 0.03147208
v 0.09749138 0.06507355 0.03147208
v 0.09770017 0.06508266 0.03147208
v 0.09790647 0.06504502 0.03151703
v 0.09811120 0.06501807 0.03151703
v 0.09831280 0.06497338 0.03151703
v 0.09850974 0.06491128 0.03151703
v 0.09870052 0.06483226 0.03151703
v 0.09888369 0.06473691 0.03151703
v 0.09905785 0.06462596 0.03151703
v 0.09922167 0.06450025 0.03151703
v 0.09937391 0.06436075 0.03151703
v 0.09951342 0.06420850 0.03151703
v 0.09963913 0.06404468 0.03151703
v 0.09975008 0.06387052 0.03151703
v 0.09984543 0.06368735 0.03151703
v 0.09992445 0.06349657 0.03151703
v 0.09998655 0.06329963 0.03151703
v 0.10003124 0.06309803 0.03151703
v 0.10005819 0.06289330 0.03151703
v 0.10006720 0.06268700 0.03151703
v 0.10005819 0.06248070 0.03151703
v 0.10003124 0.06227597 0.03151703
v 0.09998655 0.06207437 0.03151703
v 0.09992445 0.06187743 0.03151703
v 0.09984543 0.06168665 0.03151703
v 0.09975008 0.06150348 0.03151703
v 0.09963913 0.06132933 0.03151703
v 0.09951342 0.06116550 0.03151703
v 0.09937391 0.06101326 0.03151703
v 0.09922167 0.06087375 0.03151703
v 0.09905785 0.06074804 0.03151703
v 0.09888369 0.06063709 0.03151703
v 0.09870052 0.06054174 0.03151703
v 0.09850974 0.06046272 0.03151703
v 0.09831280 0.06040062 0.03151703
v 0.09811120 0.06035593 0.03151703
v 0.09790647 0.06032898 0.03151703
v 0.09770017 0.06031997 0.03151703
v 0.09749387 0.06032898 0.03151703
v 0.09728914 0.06035593 0.03151703
v 0.09708753 0.06040062 0.03151703
v 0.09689060 0.06046272 0.03151703
v 0.09669982 0.06054174 0.03151703
v 0.09651665 0.06063709 0.03151703
v 0.09634250 0.06074804 0.03151703
v 0.09617867 0.06087375 0.03151703
v 0.09602643 0.06101326 0.03151703
v 0.09588692 0.06116550 0.03151703
v 0.09576121 0.06132933 0.03151703
v 0.09565026 0.06150348 0.03151703
v 0.09555491 0.06168665 0.03151703
v 0.09547589 0.06187743 0.03151703
v 0.09541379 0.06207437 0.03151703
v 0.09536910 0.06227597 0.03151703
v 0.09534214 0.06248070 0.03151703
v 0.09533314 0.06268700 0.03151703
v 0.09534214 0.06289330 0.03151703
v 0.09536910 0.06309803 0.03151703
v 0.09541379 0.06329963 0.03151703
v 0.09547589 0.06349657 0.03151703
v 0.09555491 0.06368735 0.03151703
v 0.09565026 0.06387052 0.03151703
v 0.09576121 0.06404468 0.03151703
v 0.09588692 0.06420850 0.03151703
v 0.09602643 0.06436075 0.03151703
v 0.09617867 0.06450025 0.03151703
v 0.09634250 0.06462596 0.03151703
v 0.09651665 0.06473691 0.03151703
v 0.09669982 0.06483226 0.03151703
v 0.09689060 0.06491128 0.03151703
v 0.09708753 0.06497338 0.03151703
v 0.09728914 0.06501807 0.03151703
v 0.09749387 0.06504502 0.03151703
v 0.09770017 0.06505403 0.03151703
v 0.09790364 0.06501271 0.03155930
v 0.09810556 0.06498612 0.03155930
v 0.09830441 0.06494204 0.03155930
v 0.09849865 0.06488080 0.03155930
v 0.09868681 0.06480286 0.03155930
v 0.09886747 0.06470881 0.03155930
v 0.09903923 0.06459939 0.03155930
v 0.09920081 0.06447540 0.03155930
v 0.09935097 0.06433780 0.03155930
v 0.09948857 0.06418765 0.03155930
v 0.09961256 0.06402607 0.03155930
v 0.09972198 0.06385430 0.03155930
v 0.09981602 0.06367365 0.03155930
v 0.09989396 0.06348548 0.03155930
v 0.09995521 0.06329124 0.03155930
v 0.09999929 0.06309240 0.03155930
v 0.10002588 0.06289047 0.03155930
v 0.10003476 0.06268700 0.03155930
v 0.10002588 0.06248353 0.03155930
v 0.09999929 0.06228160 0.03155930
v 0.09995521 0.06208276 0.03155930
v 0.09989396 0.06188852 0.03155930
v 0.09981602 0.06170036 0.03155930
v 0.09972198 0.06151970 0.03155930
v 0.09961256 0.06134793 0.03155930
v 0.09948857 0.06118635 0.03155930
v 0.09935097 0.06103620 0.03155930
v 0.09920081 0.06089860 0.03155930
v 0.09903923 0.06077461 0.03155930
v 0.09886747 0.06066518 0.03155930
v 0.09868681 0.06057114 0.03155930
v 0.09849865 0.06049320 0.03155930
v 0.09830441 0.06043196 0.03155930
v 0.09810556 0.06038788 0.03155930
v 0.09790364 0.06036129 0.03155930
v 0.09770017 0.06035241 0.03155930
v 0.09749670 0.06036129 0.03155930
v 0.09729477 0.06038788 0.03155930
v 0.09709593 0.06043196 0.03155930
v 0.09690169 0.06049320 0.03155930
v 0.09671353 0.06057114 0.03155930
v 0.09653287 0.06066518 0.03155930
v 0.09636110 0.06077461 0.03155930
v 0.09619952 0.06089860 0.03155930
v 0.09604936 0.06103620 0.03155930
v 0.09591177 0.06118635 0.03155930
v 0.09578779 0.06134793 0.03155930
v 0.09567835 0.06151970 0.03155930
v 0.09558431 0.06170036 0.03155930
v 0.09550637 0.06188852 0.03155930
v 0.09544513 0.06208276 0.03155930
v 0.09540104 0.06228160 0.03155930
v 0.09537446 0.06248353 0.03155930
v 0.09536558 0.06268700 0.03155930
v 0.09537446 0.06289047 0.03155930
v 0.09540104 0.06309240 0.03155930
v 0.09544513 0.06329124 0.03155930
v 0.09550637 0.06348548 0.03155930
v 0.09558431 0.06367365 0.03155930
v 0.09567835 0.06385430 0.03155930
v 0.09578779 0.06402607 0.03155930
v 0.09591177 0.06418765 0.03155930
v 0.09604936 0.06433780 0.03155930
v 0.09619952 0.06447540 0.03155930
v 0.09636110 0.06459939 0.03155930
v 0.09653287 0.06470881 0.03155930
v 0.09671353 0.06480286 0.03155930
v 0.09690169 0.06488080 0.03155930
v 0.09709593 0.06494204 0.03155930
v 0.09729477 0.06498612 0.03155930
v 0.09749670 0.06501271 0.03155930
v 0.09770017 0.06502159 0.03155930
v 0.09790050 0.06497684 0.03159859
v 0.09809931 0.06495067 0.03159859
v 0.09829509 0.06490727 0.03159859
v 0.09848633 0.06484697 0.03159859
v 0.09867159 0.06477023 0.03159859
v 0.09884947 0.06467764 0.03159859
v 0.09901859 0.06456990 0.03159859
v 0.09917767 0.06444782 0.03159859
v 0.09932552 0.06431235 0.03159859
v 0.09946099 0.06416450 0.03159859
v 0.09958307 0.06400542 0.03159859
v 0.09969081 0.06383630 0.03159859
v 0.09978340 0.06365842 0.03159859
v 0.09986014 0.06347317 0.03159859
v 0.09992044 0.06328192 0.03159859
v 0.09996384 0.06308614 0.03159859
v 0.09999001 0.06288733 0.03159859
v 0.09999876 0.06268700 0.03159859
v 0.09999001 0.06248666 0.03159859
v 0.09996384 0.06228786 0.03159859
v 0.09992044 0.06209208 0.03159859
v 0.09986014 0.06190084 0.03159859
v 0.09978340 0.06171557 0.03159859
v 0.09969081 0.06153771 0.03159859
v 0.09958307 0.06136858 0.03159859
v 0.09946099 0.06120950 0.03159859
v 0.09932552 0.06106165 0.03159859
v 0.09917767 0.06092618 0.03159859
v 0.09901859 0.06080411 0.03159859
v 0.09884947 0.06069636 0.03159859
v 0.09867159 0.06060377 0.03159859
v 0.09848633 0.06052703 0.03159859
v 0.09829509 0.06046673 0.03159859
v 0.09809931 0.06042333 0.03159859
v 0.09790050 0.06039716 0.03159859
v 0.09770017 0.06038841 0.03159859
v 0.09749983 0.06039716 0.03159859
v 0.09730102 0.06042333 0.03159859
v 0.09710525 0.06046673 0.03159859
v 0.09691400 0.06052703 0.03159859
v 0.09672874 0.06060377 0.03159859
v 0.09655087 0.06069636 0.03159859
v 0.09638175 0.06080411 0.03159859
v 0.09622266 0.06092618 0.03159859
v 0.09607482 0.06106165 0.03159859
v 0.09593935 0.06120950 0.03159859
v 0.09581728 0.06136858 0.03159859
v 0.09570953 0.06153771 0.03159859
v 0.09561694 0.06171557 0.03159859
v 0.09554020 0.06190084 0.03159859
v 0.09547990 0.06209208 0.03159859
v 0.09543650 0.06228786 0.03159859
v 0.09541032 0.06248666 0.03159859
v 0.09540158 0.06268700 0.03159859
v 0.09541032 0.06288733 0.03159859
v 0.09543650 0.06308614 0.03159859
v 0.09547990 0.06328192 0.03159859
v 0.09554020 0.06347317 0.03159859
v 0.09561694 0.06365842 0.03159859
v 0.09570953 0.06383630 0.03159859
v 0.09581728 0.06400542 0.03159859
v 0.09593935 0.06416450 0.03159859
v 0.09607482 0.06431235 0.03159859
v 0.09622266 0.06444782 0.03159859
v 0.09638175 0.06456990 0.03159859
v 0.09655087 0.06467764 0.03159859
v 0.09672874 0.06477023 0.03159859
v 0.09691400 0.06484697 0.03159859
v 0.09710525 0.06490727 0.03159859
v 0.09730102 0.06495067 0.03159859
v 0.09749983 0.06497684 0.03159859
v 0.09770017 0.06498559 0.03159859
v 0.09789708 0.06493770 0.03163459
v 0.09809249 0.06491198 0.03163459
v 0.09828492 0.06486932 0.03163459
v 0.09847289 0.06481005 0.03163459
v 0.09865499 0.06473462 0.03163459
v 0.09882982 0.06464361 0.03163459
v 0.09899605 0.06453771 0.03163459
v 0.09915242 0.06441773 0.03163459
v 0.09929774 0.06428457 0.03163459
v 0.09943090 0.06413925 0.03163459
v 0.09955088 0.06398288 0.03163459
v 0.09965678 0.06381665 0.03163459
v 0.09974779 0.06364182 0.03163459
v 0.09982322 0.06345972 0.03163459
v 0.09988249 0.06327175 0.03163459
v 0.09992515 0.06307933 0.03163459
v 0.09995087 0.06288391 0.03163459
v 0.09995947 0.06268700 0.03163459
v 0.09995087 0.06249009 0.03163459
v 0.09992515 0.06229468 0.03163459
v 0.09988249 0.06210225 0.03163459
v 0.09982322 0.06191427 0.03163459
v 0.09974779 0.06173218 0.03163459
v 0.09965678 0.06155735 0.03163459
v 0.09955088 0.06139112 0.03163459
v 0.09943090 0.06123475 0.03163459
v 0.09929774 0.06108943 0.03163459
v 0.09915242 0.06095627 0.03163459
v 0.09899605 0.06083629 0.03163459
v 0.09882982 0.06073039 0.03163459
v 0.09865499 0.06063938 0.03163459
v 0.09847289 0.06056395 0.03163459
v 0.09828492 0.06050468 0.03163459
v 0.09809249 0.06046202 0.03163459
v 0.09789708 0.06043629 0.03163459
v 0.09770017 0.06042770 0.03163459
v 0.09750326 0.06043629 0.03163459
v 0.09730785 0.06046202 0.03163459
v 0.09711542 0.06050468 0.03163459
v 0.09692744 0.06056395 0.03163459
v 0.09674535 0.06063938 0.03163459
v 0.09657051 0.06073039 0.03163459
v 0.09640428 0.06083629 0.03163459
v 0.09624792 0.06095627 0.03163459
v 0.09610260 0.06108943 0.03163459
v 0.09596945 0.06123475 0.03163459
v 0.09584945 0.06139112 0.03163459
v 0.09574355 0.06155735 0.03163459
v 0.09565254 0.06173218 0.03163459
v 0.09557712 0.06191427 0.03163459
v 0.09551785 0.06210225 0.03163459
v 0.09547519 0.06229468 0.03163459
v 0.09544946 0.06249009 0.03163459
v 0.09544086 0.06268700 0.03163459
v 0.09544946 0.06288391 0.03163459
v 0.09547519 0.06307933 0.03163459
v 0.09551785 0.06327175 0.03163459
v 0.09557712 0.06345972 0.03163459
v 0.09565254 0.06364182 0.03163459
v 0.09574355 0.06381665 0.03163459
v 0.09584945 0.06398288 0.03163459
v 0.09596945 0.06413925 0.03163459
v 0.09610260 0.06428457 0.03163459
v 0.09624792 0.06441773 0.03163459
v 0.09640428 0.06453771 0.03163459
v 0.09657051 0.06464361 0.03163459
v 0.09674535 0.06473462 0.03163459
v 0.09692744 0.06481005 0.03163459
v 0.09711542 0.06486932 0.03163459
v 0.09730785 0.06491198 0.03163459
v 0.09750326 0.06493770 0.03163459
v 0.09770017 0.06494630 0.03163459
v 0.09789339 0.06489559 0.03166703
v 0.09808515 0.06487034 0.03166703
v 0.09827398 0.06482849 0.03166703
v 0.09845844 0.06477033 0.03166703
v 0.09863713 0.06469631 0.03166703
v 0.09880868 0.06460700 0.03166703
v 0.09897181 0.06450308 0.03166703
v 0.09912524 0.06438534 0.03166703
v 0.09926784 0.06425467 0.03166703
v 0.09939851 0.06411207 0.03166703
v 0.09951625 0.06395864 0.03166703
v 0.09962017 0.06379551 0.03166703
v 0.09970947 0.06362396 0.03166703
v 0.09978350 0.06344527 0.03166703
v 0.09984165 0.06326081 0.03166703
v 0.09988351 0.06307198 0.03166703
v 0.09990876 0.06288023 0.03166703
v 0.09991720 0.06268700 0.03166703
v 0.09990876 0.06249378 0.03166703
v 0.09988351 0.06230202 0.03166703
v 0.09984165 0.06211319 0.03166703
v 0.09978350 0.06192873 0.03166703
v 0.09970947 0.06175004 0.03166703
v 0.09962017 0.06157849 0.03166703
v 0.09951625 0.06141537 0.03166703
v 0.09939851 0.06126192 0.03166703
v 0.09926784 0.06111933 0.03166703
v 0.09912524 0.06098866 0.03166703
v 0.09897181 0.06087092 0.03166703
v 0.09880868 0.06076700 0.03166703
v 0.09863713 0.06067769 0.03166703
v 0.09845844 0.06060368 0.03166703
v 0.09827398 0.06054552 0.03166703
v 0.09808515 0.06050365 0.03166703
v 0.09789339 0.06047841 0.03166703
v 0.09770017 0.06046997 0.03166703
v 0.09750694 0.06047841 0.03166703
v 0.09731518 0.06050365 0.03166703
v 0.09712636 0.06054552 0.03166703
v 0.09694190 0.06060368 0.03166703
v 0.09676322 0.06067769 0.03166703
v 0.09659166 0.06076700 0.03166703
v 0.09642854 0.06087092 0.03166703
v 0.09627509 0.06098866 0.03166703
v 0.09613249 0.06111933 0.03166703
v 0.09600183 0.06126192 0.03166703
v 0.09588408 0.06141537 0.03166703
v 0.09578016 0.06157849 0.03166703
v 0.09569086 0.06175004 0.03166703
v 0.09561685 0.06192873 0.03166703
v 0.09555869 0.06211319 0.03166703
v 0.09551682 0.06230202 0.03166703
v 0.09549158 0.06249378 0.03166703
v 0.09548314 0.06268700 0.03166703
v 0.09549158 0.06288023 0.03166703
v 0.09551682 0.06307198 0.03166703
v 0.09555869 0.06326081 0.03166703
v 0.09561685 0.06344527 0.03166703
v 0.09569086 0.06362396 0.03166703
v 0.09578016 0.06379551 0.03166703
v 0.09588408 0.06395864 0.03166703
v 0.09600183 0.06411207 0.03166703
v 0.09613249 0.06425467 0.03166703
v 0.09627509 0.06438534 0.03166703
v 0.09642854 0.06450308 0.03166703
v 0.09659166 0.06460700 0.03166703
v 0.09676322 0.06469631 0.03166703
v 0.09694190 0.06477033 0.03166703
v 0.09712636 0.06482849 0.03166703
v 0.09731518 0.06487034 0.03166703
v 0.09750694 0.06489559 0.03166703
v 0.09770017 0.06490403 0.03166703
v 0.09788948 0.06485081 0.03169566
v 0.09807735 0.06482609 0.03169566
v 0.09826235 0.06478507 0.03169566
v 0.09844307 0.06472809 0.03169566
v 0.09861813 0.06465558 0.03169566
v 0.09878621 0.06456808 0.03169566
v 0.09894603 0.06446627 0.03169566
v 0.09909636 0.06435091 0.03169566
v 0.09923606 0.06422289 0.03169566
v 0.09936408 0.06408319 0.03169566
v 0.09947944 0.06393286 0.03169566
v 0.09958125 0.06377304 0.03169566
v 0.09966874 0.06360497 0.03169566
v 0.09974126 0.06342990 0.03169566
v 0.09979824 0.06324918 0.03169566
v 0.09983926 0.06306418 0.03169566
v 0.09986398 0.06287631 0.03169566
v 0.09987225 0.06268700 0.03169566
v 0.09986398 0.06249769 0.03169566
v 0.09983926 0.06230982 0.03169566
v 0.09979824 0.06212482 0.03169566
v 0.09974126 0.06194410 0.03169566
v 0.09966874 0.06176904 0.03169566
v 0.09958125 0.06160096 0.03169566
v 0.09947944 0.06144115 0.03169566
v 0.09936408 0.06129081 0.03169566
v 0.09923606 0.06115111 0.03169566
v 0.09909636 0.06102309 0.03169566
v 0.09894603 0.06090773 0.03169566
v 0.09878621 0.06080592 0.03169566
v 0.09861813 0.06071842 0.03169566
v 0.09844307 0.06064591 0.03169566
v 0.09826235 0.06058893 0.03169566
v 0.09807735 0.06054791 0.03169566
v 0.09788948 0.06052318 0.03169566
v 0.09770017 0.06051492 0.03169566
v 0.09751086 0.06052318 0.03169566
v 0.09732299 0.06054791 0.03169566
v 0.09713800 0.06058893 0.03169566
v 0.09695727 0.06064591 0.03169566
v 0.09678221 0.06071842 0.03169566
v 0.09661413 0.06080592 0.03169566
v 0.09645431 0.06090773 0.03169566
v 0.09630398 0.06102309 0.03169566
v 0.09616427 0.06115111 0.03169566
v 0.09603626 0.06129081 0.03169566
v 0.09592091 0.06144115 0.03169566
v 0.09581909 0.06160096 0.03169566
v 0.09573159 0.06176904 0.03169566
v 0.09565908 0.06194410 0.03169566
v 0.09560210 0.06212482 0.03169566
v 0.09556109 0.06230982 0.03169566
v 0.09553635 0.06249769 0.03169566
v 0.09552809 0.06268700 0.03169566
v 0.09553635 0.06287631 0.03169566
v 0.09556109 0.06306418 0.03169566
v 0.09560210 0.06324918 0.03169566
v 0.09565908 0.06342990 0.03169566
v 0.09573159 0.06360497 0.03169566
v 0.09581909 0.06377304 0.03169566
v 0.09592091 0.06393286 0.03169566
v 0.09603626 0.06408319 0.03169566
v 0.09616427 0.06422289 0.03169566
v 0.09630398 0.06435091 0.03169566
v 0.09645431 0.06446627 0.03169566
v 0.09661413 0.06456808 0.03169566
v 0.09678221 0.06465558 0.03169566
v 0.09695727 0.06472809 0.03169566
v 0.09713800 0.06478507 0.03169566
v 0.09732299 0.06482609 0.03169566
v 0.09751086 0.06485081 0.03169566
v 0.09770017 0.06485908 0.03169566
v 0.09788536 0.06480373 0.03172027
v 0.09806914 0.06477953 0.03172027
v 0.09825011 0.06473941 0.03172027
v 0.09842690 0.06468368 0.03172027
v 0.09859815 0.06461274 0.03172027
v 0.09876258 0.06452715 0.03172027
v 0.09891891 0.06442755 0.03172027
v 0.09906597 0.06431470 0.03172027
v 0.09920264 0.06418947 0.03172027
v 0.09932787 0.06405281 0.03172027
v 0.09944072 0.06390575 0.03172027
v 0.09954032 0.06374941 0.03172027
v 0.09962591 0.06358498 0.03172027
v 0.09969684 0.06341373 0.03172027
v 0.09975258 0.06323694 0.03172027
v 0.09979270 0.06305597 0.03172027
v 0.09981690 0.06287219 0.03172027
v 0.09982499 0.06268700 0.03172027
v 0.09981690 0.06250181 0.03172027
v 0.09979270 0.06231803 0.03172027
v 0.09975258 0.06213706 0.03172027
v 0.09969684 0.06196027 0.03172027
v 0.09962591 0.06178901 0.03172027
v 0.09954032 0.06162459 0.03172027
v 0.09944072 0.06146825 0.03172027
v 0.09932787 0.06132120 0.03172027
v 0.09920264 0.06118453 0.03172027
v 0.09906597 0.06105930 0.03172027
v 0.09891891 0.06094645 0.03172027
v 0.09876258 0.06084685 0.03172027
v 0.09859815 0.06076126 0.03172027
v 0.09842690 0.06069032 0.03172027
v 0.09825011 0.06063459 0.03172027
v 0.09806914 0.06059447 0.03172027
v 0.09788536 0.06057027 0.03172027
v 0.09770017 0.06056219 0.03172027
v 0.09751498 0.06057027 0.03172027
v 0.09733120 0.06059447 0.03172027
v 0.09715023 0.06063459 0.03172027
v 0.09697344 0.06069032 0.03172027
v 0.09680218 0.06076126 0.03172027
v 0.09663776 0.06084685 0.03172027
v 0.09648143 0.06094645 0.03172027
v 0.09633436 0.06105930 0.03172027
v 0.09619769 0.06118453 0.03172027
v 0.09607247 0.06132120 0.03172027
v 0.09595962 0.06146825 0.03172027
v 0.09586003 0.06162459 0.03172027
v 0.09577443 0.06178901 0.03172027
v 0.09570350 0.06196027 0.03172027
v 0.09564775 0.06213706 0.03172027
v 0.09560763 0.06231803 0.03172027
v 0.09558344 0.06250181 0.03172027
v 0.09557535 0.06268700 0.03172027
v 0.09558344 0.06287219 0.03172027
v 0.09560763 0.06305597 0.03172027
v 0.09564775 0.06323694 0.03172027
v 0.09570350 0.06341373 0.03172027
v 0.09577443 0.06358498 0.03172027
v 0.09586003 0.06374941 0.03172027
v 0.09595962 0.06390575 0.03172027
v 0.09607247 0.06405281 0.03172027
v 0.09619769 0.06418947 0.03172027
v 0.09633436 0.06431470 0.03172027
v 0.09648143 0.06442755 0.03172027
v 0.09663776 0.06452715 0.03172027
v 0.09680218 0.06461274 0.03172027
v 0.09697344 0.06468368 0.03172027
v 0.09715023 0.06473941 0.03172027
v 0.09733120 0.06477953 0.03172027
v 0.09751498 0.06480373 0.03172027
v 0.09770017 0.06481182 0.03172027
v 0.09788107 0.06475469 0.03174066
v 0.09806059 0.06473105 0.03174066
v 0.09823737 0.06469186 0.03174066
v 0.09841006 0.06463741 0.03174066
v 0.09857735 0.06456812 0.03174066
v 0.09873796 0.06448451 0.03174066
v 0.09889068 0.06438722 0.03174066
v 0.09903433 0.06427699 0.03174066
v 0.09916783 0.06415466 0.03174066
v 0.09929015 0.06402116 0.03174066
v 0.09940039 0.06387751 0.03174066
v 0.09949768 0.06372479 0.03174066
v 0.09958129 0.06356418 0.03174066
v 0.09965058 0.06339689 0.03174066
v 0.09970503 0.06322420 0.03174066
v 0.09974422 0.06304742 0.03174066
v 0.09976786 0.06286790 0.03174066
v 0.09977575 0.06268700 0.03174066
v 0.09976786 0.06250610 0.03174066
v 0.09974422 0.06232658 0.03174066
v 0.09970503 0.06214980 0.03174066
v 0.09965058 0.06197711 0.03174066
v 0.09958129 0.06180982 0.03174066
v 0.09949768 0.06164921 0.03174066
v 0.09940039 0.06149649 0.03174066
v 0.09929015 0.06135284 0.03174066
v 0.09916783 0.06121934 0.03174066
v 0.09903433 0.06109701 0.03174066
v 0.09889068 0.06098678 0.03174066
v 0.09873796 0.06088949 0.03174066
v 0.09857735 0.06080588 0.03174066
v 0.09841006 0.06073659 0.03174066
v 0.09823737 0.06068214 0.03174066
v 0.09806059 0.06064295 0.03174066
v 0.09788107 0.06061931 0.03174066
v 0.09770017 0.06061142 0.03174066
v 0.09751927 0.06061931 0.03174066
v 0.09733975 0.06064295 0.03174066
v 0.09716297 0.06068214 0.03174066
v 0.09699028 0.06073659 0.03174066
v 0.09682299 0.06080588 0.03174066
v 0.09666238 0.06088949 0.03174066
v 0.09650967 0.06098678 0.03174066
v 0.09636601 0.06109701 0.03174066
v 0.09623251 0.06121934 0.03174066
v 0.09611018 0.06135284 0.03174066
v 0.09599995 0.06149649 0.03174066
v 0.09590266 0.06164921 0.03174066
v 0.09581905 0.06180982 0.03174066
v 0.09574976 0.06197711 0.03174066
v 0.09569531 0.06214980 0.03174066
v 0.09565612 0.06232658 0.03174066
v 0.09563249 0.06250610 0.03174066
v 0.09562459 0.06268700 0.03174066
v 0.09563249 0.06286790 0.03174066
v 0.09565612 0.06304742 0.03174066
v 0.09569531 0.06322420 0.03174066
v 0.09574976 0.06339689 0.03174066
v 0.09581905 0.06356418 0.03174066
v 0.09590266 0.06372479 0.03174066
v 0.09599995 0.06387751 0.03174066
v 0.09611018 0.06402116 0.03174066
v 0.09623251 0.06415466 0.03174066
v 0.09636601 0.06427699 0.03174066
v 0.09650967 0.06438722 0.03174066
v 0.09666238 0.06448451 0.03174066
v 0.09682299 0.06456812 0.03174066
v 0.09699028 0.06463741 0.03174066
v 0.09716297 0.06469186 0.03174066
v 0.09733975 0.06473105 0.03174066
v 0.09751927 0.06475469 0.03174066
v 0.09770017 0.06476258 0.03174066
v 0.09787664 0.06470406 0.03175669
v 0.09805176 0.06468100 0.03175669
v 0.09822422 0.06464277 0.03175669
v 0.09839268 0.06458966 0.03175669
v 0.09855587 0.06452206 0.03175669
v 0.09871255 0.06444050 0.03175669
v 0.09886152 0.06434559 0.03175669
v 0.09900166 0.06423806 0.03175669
v 0.09913189 0.06411872 0.03175669
v 0.09925123 0.06398849 0.03175669
v 0.09935876 0.06384835 0.03175669
v 0.09945367 0.06369938 0.03175669
v 0.09953523 0.06354270 0.03175669
v 0.09960283 0.06337951 0.03175669
v 0.09965594 0.06321105 0.03175669
v 0.09969417 0.06303860 0.03175669
v 0.09971723 0.06286347 0.03175669
v 0.09972493 0.06268700 0.03175669
v 0.09971723 0.06251053 0.03175669
v 0.09969417 0.06233541 0.03175669
v 0.09965594 0.06216295 0.03175669
v 0.09960283 0.06199449 0.03175669
v 0.09953523 0.06183130 0.03175669
v 0.09945367 0.06167462 0.03175669
v 0.09935876 0.06152564 0.03175669
v 0.09925123 0.06138551 0.03175669
v 0.09913189 0.06125528 0.03175669
v 0.09900166 0.06113594 0.03175669
v 0.09886152 0.06102841 0.03175669
v 0.09871255 0.06093350 0.03175669
v 0.09855587 0.06085194 0.03175669
v 0.09839268 0.06078435 0.03175669
v 0.09822422 0.06073123 0.03175669
v 0.09805176 0.06069300 0.03175669
v 0.09787664 0.06066994 0.03175669
v 0.09770017 0.06066224 0.03175669
v 0.09752370 0.06066994 0.03175669
v 0.09734857 0.06069300 0.03175669
v 0.09717612 0.06073123 0.03175669
v 0.09700766 0.06078435 0.03175669
v 0.09684446 0.06085194 0.03175669
v 0.09668779 0.06093350 0.03175669
v 0.09653881 0.06102841 0.03175669
v 0.09639867 0.06113594 0.03175669
v 0.09626845 0.06125528 0.03175669
v 0.09614911 0.06138551 0.03175669
v 0.09604158 0.06152564 0.03175669
v 0.09594668 0.06167462 0.03175669
v 0.09586511 0.06183130 0.03175669
v 0.09579752 0.06199449 0.03175669
v 0.09574440 0.06216295 0.03175669
v 0.09570616 0.06233541 0.03175669
v 0.09568311 0.06251053 0.03175669
v 0.09567541 0.06268700 0.03175669
v 0.09568311 0.06286347 0.03175669
v 0.09570616 0.06303860 0.03175669
v 0.09574440 0.06321105 0.03175669
v 0.09579752 0.06337951 0.03175669
v 0.09586511 0.06354270 0.03175669
v 0.09594668 0.06369938 0.03175669
v 0.09604158 0.06384835 0.03175669
v 0.09614911 0.06398849 0.03175669
v 0.09626845 0.06411872 0.03175669
v 0.09639867 0.06423806 0.03175669
v 0.09653881 0.06434559 0.03175669
v 0.09668779 0.06444050 0.03175669
v 0.09684446 0.06452206 0.03175669
v 0.09700766 0.06458966 0.03175669
v 0.09717612 0.06464277 0.03175669
v 0.09734857 0.06468100 0.03175669
v 0.09752370 0.06470406 0.03175669
v 0.09770017 0.06471176 0.03175669
v 0.09787210 0.06465223 0.03176822
v 0.09804273 0.06462976 0.03176822
v 0.09821075 0.06459252 0.03176822
v 0.09837488 0.06454077 0.03176822
v 0.09853388 0.06447491 0.03176822
v 0.09868654 0.06439544 0.03176822
v 0.09883168 0.06430297 0.03176822
v 0.09896822 0.06419820 0.03176822
v 0.09909511 0.06408194 0.03176822
v 0.09921137 0.06395505 0.03176822
v 0.09931614 0.06381851 0.03176822
v 0.09940861 0.06367337 0.03176822
v 0.09948807 0.06352071 0.03176822
v 0.09955394 0.06336172 0.03176822
v 0.09960569 0.06319758 0.03176822
v 0.09964293 0.06302956 0.03176822
v 0.09966540 0.06285894 0.03176822
v 0.09967291 0.06268700 0.03176822
v 0.09966540 0.06251507 0.03176822
v 0.09964293 0.06234444 0.03176822
v 0.09960569 0.06217642 0.03176822
v 0.09955394 0.06201228 0.03176822
v 0.09948807 0.06185329 0.03176822
v 0.09940861 0.06170063 0.03176822
v 0.09931614 0.06155549 0.03176822
v 0.09921137 0.06141895 0.03176822
v 0.09909511 0.06129206 0.03176822
v 0.09896822 0.06117580 0.03176822
v 0.09883168 0.06107103 0.03176822
v 0.09868654 0.06097856 0.03176822
v 0.09853388 0.06089909 0.03176822
v 0.09837488 0.06083323 0.03176822
v 0.09821075 0.06078148 0.03176822
v 0.09804273 0.06074423 0.03176822
v 0.09787210 0.06072177 0.03176822
v 0.09770017 0.06071426 0.03176822
v 0.09752823 0.06072177 0.03176822
v 0.09735761 0.06074423 0.03176822
v 0.09718959 0.06078148 0.03176822
v 0.09702545 0.06083323 0.03176822
v 0.09686645 0.06089909 0.03176822
v 0.09671380 0.06097856 0.03176822
v 0.09656865 0.06107103 0.03176822
v 0.09643212 0.06117580 0.03176822
v 0.09630524 0.06129206 0.03176822
v 0.09618896 0.06141895 0.03176822
v 0.09608420 0.06155549 0.03176822
v 0.09599173 0.06170063 0.03176822
v 0.09591226 0.06185329 0.03176822
v 0.09584640 0.06201228 0.03176822
v 0.09579465 0.06217642 0.03176822
v 0.09575740 0.06234444 0.03176822
v 0.09573494 0.06251507 0.03176822
v 0.09572743 0.06268700 0.03176822
v 0.09573494 0.06285894 0.03176822
v 0.09575740 0.06302956 0.03176822
v 0.09579465 0.06319758 0.03176822
v 0.09584640 0.06336172 0.03176822
v 0.09591226 0.06352071 0.03176822
v 0.09599173 0.06367337 0.03176822
v 0.09608420 0.06381851 0.03176822
v 0.09618896 0.06395505 0.03176822
v 0.09630524 0.06408194 0.03176822
v 0.09643212 0.06419820 0.03176822
v 0.09656865 0.06430297 0.03176822
v 0.09671380 0.06439544 0.03176822
v 0.09686645 0.06447491 0.03176822
v 0.09702545 0.06454077 0.03176822
v 0.09718959 0.06459252 0.03176822
v 0.09735761 0.06462976 0.03176822
v 0.09752823 0.06465223 0.03176822
v 0.09770017 0.06465974 0.03176822
v 0.09786750 0.06459960 0.03177518
v 0.09803355 0.06457774 0.03177518
v 0.09819708 0.06454149 0.03177518
v 0.09835681 0.06449112 0.03177518
v 0.09851155 0.06442703 0.03177518
v 0.09866012 0.06434969 0.03177518
v 0.09880138 0.06425969 0.03177518
v 0.09893426 0.06415773 0.03177518
v 0.09905775 0.06404458 0.03177518
v 0.09917090 0.06392109 0.03177518
v 0.09927286 0.06378821 0.03177518
v 0.09936286 0.06364695 0.03177518
v 0.09944019 0.06349839 0.03177518
v 0.09950429 0.06334364 0.03177518
v 0.09955465 0.06318391 0.03177518
v 0.09959091 0.06302039 0.03177518
v 0.09961277 0.06285433 0.03177518
v 0.09962007 0.06268700 0.03177518
v 0.09961277 0.06251967 0.03177518
v 0.09959091 0.06235361 0.03177518
v 0.09955465 0.06219009 0.03177518
v 0.09950429 0.06203035 0.03177518
v 0.09944019 0.06187562 0.03177518
v 0.09936286 0.06172705 0.03177518
v 0.09927286 0.06158579 0.03177518
v 0.09917090 0.06145291 0.03177518
v 0.09905775 0.06132942 0.03177518
v 0.09893426 0.06121627 0.03177518
v 0.09880138 0.06111431 0.03177518
v 0.09866012 0.06102432 0.03177518
v 0.09851155 0.06094697 0.03177518
v 0.09835681 0.06088288 0.03177518
v 0.09819708 0.06083252 0.03177518
v 0.09803355 0.06079626 0.03177518
v 0.09786750 0.06077440 0.03177518
v 0.09770017 0.06076710 0.03177518
v 0.09753284 0.06077440 0.03177518
v 0.09736678 0.06079626 0.03177518
v 0.09720326 0.06083252 0.03177518
v 0.09704352 0.06088288 0.03177518
v 0.09688878 0.06094697 0.03177518
v 0.09674022 0.06102432 0.03177518
v 0.09659896 0.06111431 0.03177518
v 0.09646608 0.06121627 0.03177518
v 0.09634259 0.06132942 0.03177518
v 0.09622943 0.06145291 0.03177518
v 0.09612747 0.06158579 0.03177518
v 0.09603748 0.06172705 0.03177518
v 0.09596015 0.06187562 0.03177518
v 0.09589605 0.06203035 0.03177518
v 0.09584568 0.06219009 0.03177518
v 0.09580943 0.06235361 0.03177518
v 0.09578757 0.06251967 0.03177518
v 0.09578026 0.06268700 0.03177518
v 0.09578757 0.06285433 0.03177518
v 0.09580943 0.06302039 0.03177518
v 0.09584568 0.06318391 0.03177518
v 0.09589605 0.06334364 0.03177518
v 0.09596015 0.06349839 0.03177518
v 0.09603748 0.06364695 0.03177518
v 0.09612747 0.06378821 0.03177518
v 0.09622943 0.06392109 0.03177518
v 0.09634259 0.06404458 0.03177518
v 0.09646608 0.06415773 0.03177518
v 0.09659896 0.06425969 0.03177518
v 0.09674022 0.06434969 0.03177518
v 0.09688878 0.06442703 0.03177518
v 0.09704352 0.06449112 0.03177518
v 0.09720326 0.06454149 0.03177518
v 0.09736678 0.06457774 0.03177518
v 0.09753284 0.06459960 0.03177518
v 0.09770017 0.06460690 0.03177518
v 0.09786286 0.06454656 0.03177750
v 0.09802431 0.06452531 0.03177750
v 0.09818330 0.06449006 0.03177750
v 0.09833860 0.06444109 0.03177750
v 0.09848905 0.06437878 0.03177750
v 0.09863351 0.06430358 0.03177750
v 0.09877084 0.06421608 0.03177750
v 0.09890004 0.06411695 0.03177750
v 0.09902010 0.06400693 0.03177750
v 0.09913012 0.06388687 0.03177750
v 0.09922925 0.06375767 0.03177750
v 0.09931675 0.06362034 0.03177750
v 0.09939194 0.06347588 0.03177750
v 0.09945426 0.06332543 0.03177750
v 0.09950323 0.06317013 0.03177750
v 0.09953848 0.06301115 0.03177750
v 0.09955973 0.06284969 0.03177750
v 0.09956683 0.06268700 0.03177750
v 0.09955973 0.06252431 0.03177750
v 0.09953848 0.06236286 0.03177750
v 0.09950323 0.06220387 0.03177750
v 0.09945426 0.06204856 0.03177750
v 0.09939194 0.06189811 0.03177750
v 0.09931675 0.06175367 0.03177750
v 0.09922925 0.06161632 0.03177750
v 0.09913012 0.06148713 0.03177750
v 0.09902010 0.06136707 0.03177750
v 0.09890004 0.06125705 0.03177750
v 0.09877084 0.06115792 0.03177750
v 0.09863351 0.06107042 0.03177750
v 0.09848905 0.06099522 0.03177750
v 0.09833860 0.06093291 0.03177750
v 0.09818330 0.06088394 0.03177750
v 0.09802431 0.06084869 0.03177750
v 0.09786286 0.06082744 0.03177750
v 0.09770017 0.06082033 0.03177750
v 0.09753748 0.06082744 0.03177750
v 0.09737603 0.06084869 0.03177750
v 0.09721704 0.06088394 0.03177750
v 0.09706173 0.06093291 0.03177750
v 0.09691128 0.06099522 0.03177750
v 0.09676684 0.06107042 0.03177750
v 0.09662949 0.06115792 0.03177750
v 0.09650030 0.06125705 0.03177750
v 0.09638023 0.06136707 0.03177750
v 0.09627022 0.06148713 0.03177750
v 0.09617109 0.06161632 0.03177750
v 0.09608359 0.06175367 0.03177750
v 0.09600840 0.06189811 0.03177750
v 0.09594607 0.06204856 0.03177750
v 0.09589711 0.06220387 0.03177750
v 0.09586186 0.06236286 0.03177750
v 0.09584060 0.06252431 0.03177750
v 0.09583350 0.06268700 0.03177750
v 0.09584060 0.06284969 0.03177750
v 0.09586186 0.06301115 0.03177750
v 0.09589711 0.06317013 0.03177750
v 0.09594607 0.06332543 0.03177750
v 0.09600840 0.06347588 0.03177750
v 0.09608359 0.06362034 0.03177750
v 0.09617109 0.06375767 0.03177750
v 0.09627022 0.06388687 0.03177750
v 0.09638023 0.06400693 0.03177750
v 0.09650030 0.06411695 0.03177750
v 0.09662949 0.06421608 0.03177750
v 0.09676684 0.06430358 0.03177750
v 0.09691128 0.06437878 0.03177750
v 0.09706173 0.06444109 0.03177750
v 0.09721704 0.06449006 0.03177750
v 0.09737603 0.06452531 0.03177750
v 0.09753748 0.06454656 0.03177750
v 0.09770017 0.06455367 0.03177750
f 1 2 3
f 2 4 3
f 3 4 5
f 4 6 5
f 5 6 7
f 6 8 7
f 7 8 9
f 8 10 9
f 9 10 11
f 10 12 11
f 11 12 13
f 12 14 13
f 13 14 15
f 14 16 15
f 15 16 17
f 16 18 17
f 17 18 19
f 18 20 19
f 19 20 21
f 20 22 21
f 21 22 23
f 22 24 23
f 23 24 25
f 24 26 25
f 25 26 27
f 26 28 27
f 27 28 29
f 28 30 29
f 29 30 31
f 30 32 31
f 31 32 33
f 32 34 33
f 33 34 35
f 34 36 35
f 35 36 37
f 36 38 37
f 37 38 39
f 38 40 39
f 39 40 41
f 40 42 41
f 41 42 43
f 42 44 43
f 43 44 45
f 44 46 45
f 45 46 47
f 46 48 47
f 47 48 49
f 48 50 49
f 49 50 51
f 50 52 51
f 51 52 53
f 52 54 53
f 53 54 55
f 54 56 55
f 55 56 57
f 56 58 57
f 57 58 59
f 58 60 59
f 59 60 61
f 60 62 61
f 61 62 63
f 62 64 63
f 63 64 65
f 64 66 65
f 65 66 67
f 66 68 67
f 67 68 69
f 68 70 69
f 69 70 71
f 70 72 71
f 71 72 73
f 72 74 73
f 73 74 75
f 74 76 75
f 75 76 77
f 76 78 77
f 77 78 79
f 78 80 79
f 79 80 81
f 80 82 81
f 81 82 83
f 82 84 83
f 83 84 85
f 84 86 85
f 85 86 87
f 86 88 87
f 87 88 89
f 88 90 89
f 89 90 91
f 90 92 91
f 91 92 93
f 92 94 93
f 93 94 95
f 94 96 95
f 95 96 97
f 96 98 97
f 97 98 99
f 98 100 99
f 99 100 101
f 100 102 101
f 101 102 103
f 102 104 103
f 103 104 105
f 104 106 105
f 105 106 107
f 106 108 107
f 107 108 109
f 108 110 109
f 109 110 111
f 110 112 111
f 111 112 113
f 112 114 113
f 113 114 115
f 114 116 115
f 115 116 117
f 116 118 117
f 117 118 119
f 118 120 119
f 119 120 121
f 120 122 121
f 121 122 123
f 122 124 123
f 123 124 125
f 124 126 125
f 125 126 127
f 126 128 127
f 127 128 129
f 128 130 129
f 129 130 131
f 130 132 131
f 131 132 133
f 132 134 133
f 133 134 135
f 134 136 135
f 135 136 137
f 136 138 137
f 137 138 139
f 138 140 139
f 139 140 141
f 140 142 141
f 141 142 143
f 142 144 143
f 143 144 1
f 144 2 1
f 145 146 147
f 146 148 147
f 147 148 149
f 148 150 149
f 149 150 151
f 150 152 151
f 151 152 153
f 152 154 153
f 153 154 155
f 154 156 155
f 155 156 157
f 156 158 157
f 157 158 159
f 158 160 159
f 159 160 161
f 160 162 161
f 161 162 163
f 162 164 163
f 163 164 165
f 164 166 165
f 165 166 167
f 166 168 167
f 167 168 169
f 168 170 169
f 169 170 171
f 170 172 171
f 171 172 173
f 172 174 173
f 173 174 175
f 174 176 175
f 175 176 177
f 176 178 177
f 177 178 179
f 178 180 179
f 179 180 181
f 180 182 181
f 181 182 183
f 182 184 183
f 183 184 185
f 184 186 185
f 185 186 187
f 186 188 187
f 187 188 189
f 188 190 189
f 189 190 191
f 190 192 191
f 191 192 193
f 192 194 193
f 193 194 195
f 194 196 195
f 195 196 197
f 196 198 197
f 197 198 199
f 198 200 199
f 199 200 201
f 200 202 201
f 201 202 203
f 202 204 203
f 203 204 205
f 204 206 205
f 205 206 207
f 206 208 207
f 207 208 209
f 208 210 209
f 209 210 211
f 210 212 211
f 211 212 213
f 212 214 213
f 213 214 215
f 214 216 215
f 215 216 217
f 216 218 217
f 217 218 219
f 218 220 219
f 219 220 221
f 220 222 221
f 221 222 223
f 222 224 223
f 223 224 225
f 224 226 225
f 225 226 227
f 226 228 227
f 227 228 229
f 228 230 229
f 229 230 231
f 230 232 231
f 231 232 233
f 232 234 233
f 233 234 235
f 234 236 235
f 235 236 237
f 236 238 237
f 237 238 239
f 238 240 239
f 239 240 241
f 240 242 241
f 241 242 243
f 242 244 243
f 243 244 245
f 244 246 245
f 245 246 247
f 246 248 247
f 247 248 249
f 248 250 249
f 249 250 251
f 250 252 251
f 251 252 253
f 252 254 253
f 253 254 255
f 254 256 255
f 255 256 257
f 256 258 257
f 257 258 259
f 258 260 259
f 259 260 261
f 260 262 261
f 261 262 263
f 262 264 263
f 263 264 265
f 264 266 265
f 265 266 267
f 266 268 267
f 267 268 269
f 268 270 269
f 269 270 271
f 270 272 271
f 271 272 273
f 272 274 273
f 273 274 275
f 274 276 275
f 275 276 277
f 276 278 277
f 277 278 279
f 278 280 279
f 279 280 281
f 280 282 281
f 281 282 283
f 282 284 283
f 283 284 285
f 284 286 285
f 285 286 287
f 286 288 287
f 287 288 145
f 288 146 145
f 288 289 146
f 289 290 146
f 146 290 148
f 290 291 148
f 148 291 150
f 291 292 150
f 150 292 152
f 292 293 152
f 152 293 154
f 293 294 154
f 154 294 156
f 294 295 156
f 156 295 158
f 295 296 158
f 158 296 160
f 296 297 160
f 160 297 162
f 297 298 162
f 162 298 164
f 298 299 164
f 164 299 166
f 299 300 166
f 166 300 168
f 300 301 168
f 168 301 170
f 301 302 170
f 170 302 172
f 302 303 172
f 172 303 174
f 303 304 174
f 174 304 176
f 304 305 176
f 176 305 178
f 305 306 178
f 178 306 180
f 306 307 180
f 180 307 182
f 307 308 182
f 182 308 184
f 308 309 184
f 184 309 186
f 309 310 186
f 186 310 188
f 310 311 188
f 188 311 190
f 311 312 190
f 190 312 192
f 312 313 192
f 192 313 194
f 313 314 194
f 194 314 196
f 314 315 196
f 196 315 198
f 315 316 198
f 198 316 200
f 316 317 200
f 200 317 202
f 317 318 202
f 202 318 204
f 318 319 204
f 204 319 206
f 319 320 206
f 206 320 208
f 320 321 208
f 208 321 210
f 321 322 210
f 210 322 212
f 322 323 212
f 212 323 214
f 323 324 214
f 214 324 216
f 324 325 216
f 216 325 218
f 325 326 218
f 218 326 220
f 326 327 220
f 220 327 222
f 327 328 222
f 222 328 224
f 328 329 224
f 224 329 226
f 329 330 226
f 226 330 228
f 330 331 228
f 228 331 230
f 331 332 230
f 230 332 232
f 332 333 232
f 232 333 234
f 333 334 234
f 234 334 236
f 334 335 236
f 236 335 238
f 335 336 238
f 238 336 240
f 336 337 240
f 240 337 242
f 337 338 242
f 242 338 244
f 338 339 244
f 244 339 246
f 339 340 246
f 246 340 248
f 340 341 248
f 248 341 250
f 341 342 250
f 250 342 252
f 342 343 252
f 252 343 254
f 343 344 254
f 254 344 256
f 344 345 256
f 256 345 258
f 345 346 258
f 258 346 260
f 346 347 260
f 260 347 262
f 347 348 262
f 262 348 264
f 348 349 264
f 264 349 266
f 349 350 266
f 266 350 268
f 350 351 268
f 268 351 270
f 351 352 270
f 270 352 272
f 352 353 272
f 272 353 274
f 353 354 274
f 274 354 276
f 354 355 276
f 276 355 278
f 355 356 278
f 278 356 280
f 356 357 280
f 280 357 282
f 357 358 282
f 282 358 284
f 358 359 284
f 284 359 286
f 359 360 286
f 286 360 288
f 360 289 288
f 360 361 289
f 361 362 289
f 289 362 290
f 362 363 290
f 290 363 291
f 363 364 291
f 291 364 292
f 364 365 292
f 292 365 293
f 365 366 293
f 293 366 294
f 366 367 294
f 294 367 295
f 367 368 295
f 295 368 296
f 368 369 296
f 296 369 297
f 369 370 297
f 297 370 298
f 370 371 298
f 298 371 299
f 371 372 299
f 299 372 300
f 372 373 300
f 300 373 301
f 373 374 301
f 301 374 302
f 374 375 302
f 302 375 303
f 375 376 303
f 303 376 304
f 376 377 304
f 304 377 305
f 377 378 305
f 305 378 306
f 378 379 306
f 306 379 307
f 379 380 307
f 307 380 308
f 380 381 308
f 308 381 309
f 381 382 309
f 309 382 310
f 382 383 310
f 310 383 311
f 383 384 311
f 311 384 312
f 384 385 312
f 312 385 313
f 385 386 313
f 313 386 314
f 386 387 314
f 314 387 315
f 387 388 315
f 315 388 316
f 388 389 316
f 316 389 317
f 389 390 317
f 317 390 318
f 390 391 318
f 318 391 319
f 391 392 319
f 319 392 320
f 392 393 320
f 320 393 321
f 393 394 321
f 321 394 322
f 394 395 322
f 322 395 323
f 395 396 323
f 323 396 324
f 396 397 324
f 324 397 325
f 397 398 325
f 325 398 326
f 398 399 326
f 326 399 327
f 399 400 327
f 327 400 328
f 400 401 328
f 328 401 329
f 401 402 329
f 329 402 330
f 402 403 330
f 330 403 331
f 403 404 331
f 331 404 332
f 404 405 332
f 332 405 333
f 405 406 333
f 333 406 334
f 406 407 334
f 334 407 335
f 407 408 335
f 335 408 336
f 408 409 336
f 336 409 337
f 409 410 337
f 337 410 338
f 410 411 338
f 338 411 339
f 411 412 339
f 339 412 340
f 412 413 340
f 340 413 341
f 413 414 341
f 341 414 342
f 414 415 342
f 342 415 343
f 415 416 343
f 343 416 344
f 416 417 344
f 344 417 345
f 417 418 345
f 345 418 346
f 418 419 346
f 346 419 347
f 419 420 347
f 347 420 348
f 420 421 348
f 348 421 349
f 421 422 349
f 349 422 350
f 422 423 350
f 350 423 351
f 423 424 351
f 351 424 352
f 424 425 352
f 352 425 353
f 425 426 353
f 353 426 354
f 426 427 354
f 354 427 355
f 427 428 355
f 355 428 356
f 428 429 356
f 356 429 357
f 429 430 357
f 357 430 358
f 430 431 358
f 358 431 359
f 431 432 359
f 359 432 360
f 432 361 360
f 432 433 361
f 433 434 361
f 361 434 362
f 434 435 362
f 362 435 363
f 435 436 363
f 363 436 364
f 436 437 364
f 364 437 365
f 437 438 365
f 365 438 366
f 438 439 366
f 366 439 367
f 439 440 367
f 367 440 368
f 440 441 368
f 368 441 369
f 441 442 369
f 369 442 370
f 442 443 370
f 370 443 371
f 443 444 371
f 371 444 372
f 444 445 372
f 372 445 373
f 445 446 373
f 373 446 374
f 446 447 374
f 374 447 375
f 447 448 375
f 375 448 376
f 448 449 376
f 376 449 377
f 449 450 377
f 377 450 378
f 450 451 378
f 378 451 379
f 451 452 379
f 379 452 380
f 452 453 380
f 380 453 381
f 453 454 381
f 381 454 382
f 454 455 382
f 382 455 383
f 455 456 383
f 383 456 384
f 456 457 384
f 384 457 385
f 457 458 385
f 385 458 386
f 458 459 386
f 386 459 387
f 459 460 387
f 387 460 388
f 460 461 388
f 388 461 389
f 461 462 389
f 389 462 390
f 462 463 390
f 390 463 391
f 463 464 391
f 391 464 392
f 464 465 392
f 392 465 393
f 465 466 393
f 393 466 394
f 466 467 394
f 394 467 395
f 467 468 395
f 395 468 396
f 468 469 396
f 396 469 397
f 469 470 397
f 397 470 398
f 470 471 398
f 398 471 399
f 471 472 399
f 399 472 400
f 472 473 400
f 400 473 401
f 473 474 401
f 401 474 402
f 474 475 402
f 402 475 403
f 475 476 403
f 403 476 404
f 476 477 404
f 404 477 405
f 477 478 405
f 405 478 406
f 478 479 406
f 406 479 407
f 479 480 407
f 407 480 408
f 480 481 408
f 408 481 409
f 481 482 409
f 409 482 410
f 482 483 410
f 410 483 411
f 483 484 411
f 411 484 412
f 484 485 412
f 412 485 413
f 485 486 413
f 413 486 414
f 486 487 414
f 414 487 415
f 487 488 415
f 415 488 416
f 488 489 416
f 416 489 417
f 489 490 417
f 417 490 418
f 490 491 418
f 418 491 419
f 491 492 419
f 419 492 420
f 492 493 420
f 420 493 421
f 493 494 421
f 421 494 422
f 494 495 422
f 422 495 423
f 495 496 423
f 423 496 424
f 496 497 424
f 424 497 425
f 497 498 425
f 425 498 426
f 498 499 426
f 426 499 427
f 499 500 427
f 427 500 428
f 500 501 428
f 428 501 429
f 501 502 429
f 429 502 430
f 502 503 430
f 430 503 431
f 503 504 431
f 431 504 432
f 504 433 432
f 504 505 433
f 505 506 433
f 433 506 434
f 506 507 434
f 434 507 435
f 507 508 435
f 435 508 436
f 508 509 436
f 436 509 437
f 509 510 437
f 437 510 438
f 510 511 438
f 438 511 439
f 511 512 439
f 439 512 440
f 512 513 440
f 440 513 441
f 513 514 441
f 441 514 442
f 514 515 442
f 442 515 443
f 515 516 443
f 443 516 444
f 516 517 444
f 444 517 445
f 517 518 445
f 445 518 446
f 518 519 446
f 446 519 447
f 519 520 447
f 447 520 448
f 520 521 448
f 448 521 449
f 521 522 449
f 449 522 450
f 522 523 450
f 450 523 451
f 523 524 451
f 451 524 452
f 524 525 452
f 452 525 453
f 525 526 453
f 453 526 454
f 526 527 454
f 454 527 455
f 527 528 455
f 455 528 456
f 528 529 456
f 456 529 457
f 529 530 457
f 457 530 458
f 530 531 458
f 458 531 459
f 531 532 459
f 459 532 460
f 532 533 460
f 460 533 461
f 533 534 461
f 461 534 462
f 534 535 462
f 462 535 463
f 535 536 463
f 463 536 464
f 536 537 464
f 464 537 465
f 537 538 465
f 465 538 466
f 538 539 466
f 466 539 467
f 539 540 467
f 467 540 468
f 540 541 468
f 468 541 469
f 541 542 469
f 469 542 470
f 542 543 470
f 470 543 471
f 543 544 471
f 471 544 472
f 544 545 472
f 472 545 473
f 545 546 473
f 473 546 474
f 546 547 474
f 474 547 475
f 547 548 475
f 475 548 476
f 548 549 476
f 476 549 477
f 549 550 477
f 477 550 478
f 550 551 478
f 478 551 479
f 551 552 479
f 479 552 480
f 552 553 480
f 480 553 481
f 553 554 481
f 481 554 482
f 554 555 482
f 482 555 483
f 555 556 483
f 483 556 484
f 556 557 484
f 484 557 485
f 557 558 485
f 485 558 486
f 558 559 486
f 486 559 487
f 559 560 487
f 487 560 488
f 560 561 488
f 488 561 489
f 561 562 489
f 489 562 490
f 562 563 490
f 490 563 491
f 563 564 491
f 491 564 492
f 564 565 492
f 492 565 493
f 565 566 493
f 493 566 494
f 566 567 494
f 494 567 495
f 567 568 495
f 495 568 496
f 568 569 496
f 496 569 497
f 569 570 497
f 497 570 498
f 570 571 498
f 498 571 499
f 571 572 499
f 499 572 500
f 572 573 500
f 500 573 501
f 573 574 501
f 501 574 502
f 574 575 502
f 502 575 503
f 575 576 503
f 503 576 504
f 576 505 504
f 576 577 505
f 577 578 505
f 505 578 506
f 578 579 506
f 506 579 507
f 579 580 507
f 507 580 508
f 580 581 508
f 508 581 509
f 581 582 509
f 509 582 510
f 582 583 510
f 510 583 511
f 583 584 511
f 511 584 512
f 584 585 512
f 512 585 513
f 585 586 513
f 513 586 514
f 586 587 514
f 514 587 515
f 587 588 515
f 515 588 516
f 588 589 516
f 516 589 517
f 589 590 517
f 517 590 518
f 590 591 518
f 518 591 519
f 591 592 519
f 519 592 520
f 592 593 520
f 520 593 521
f 593 594 521
f 521 594 522
f 594 595 522
f 522 595 523
f 595 596 523
f 523 596 524
f 596 597 524
f 524 597 525
f 597 598 525
f 525 598 526
f 598 599 526
f 526 599 527
f 599 600 527
f 527 600 528
f 600 601 528
f 528 601 529
f 601 602 529
f 529 602 530
f 602 603 530
f 530 603 531
f 603 604 531
f 531 604 532
f 604 605 532
f 532 605 533
f 605 606 533
f 533 606 534
f 606 607 534
f 534 607 535
f 607 608 535
f 535 608 536
f 608 609 536
f 536 609 537
f 609 610 537
f 537 610 538
f 610 611 538
f 538 611 539
f 611 612 539
f 539 612 540
f 612 613 540
f 540 613 541
f 613 614 541
f 541 614 542
f 614 615 542
f 542 615 543
f 615 616 543
f 543 616 544
f 616 617 544
f 544 617 545
f 617 618 545
f 545 618 546
f 618 619 546
f 546 619 547
f 619 620 547
f 547 620 548
f 620 621 548
f 548 621 549
f 621 622 549
f 549 622 550
f 622 623 550
f 550 623 551
f 623 624 551
f 551 624 552
f 624 625 552
f 552 625 553
f 625 626 553
f 553 626 554
f 626 627 554
f 554 627 555
f 627 628 555
f 555 628 556
f 628 629 556
f 556 629 557
f 629 630 557
f 557 630 558
f 630 631 558
f 558 631 559
f 631 632 559
f 559 632 560
f 632 633 560
f 560 633 561
f 633 634 561
f 561 634 562
f 634 635 562
f 562 635 563
f 635 636 563
f 563 636 564
f 636 637 564
f 564 637 565
f 637 638 565
f 565 638 566
f 638 639 566
f 566 639 567
f 639 640 567
f 567 640 568
f 640 641 568
f 568 641 569
f 641 642 569
f 569 642 570
f 642 643 570
f 570 643 571
f 643 644 571
f 571 644 572
f 644 645 572
f 572 645 573
f 645 646 573
f 573 646 574
f 646 647 574
f 574 647 575
f 647 648 575
f 575 648 576
f 648 577 576
f 648 649 577
f 649 650 577
f 577 650 578
f 650 651 578
f 578 651 579
f 651 652 579
f 579 652 580
f 652 653 580
f 580 653 581
f 653 654 581
f 581 654 582
f 654 655 582
f 582 655 583
f 655 656 583
f 583 656 584
f 656 657 584
f 584 657 585
f 657 658 585
f 585 658 586
f 658 659 586
f 586 659 587
f 659 660 587
f 587 660 588
f 660 661 588
f 588 661 589
f 661 662 589
f 589 662 590
f 662 663 590
f 590 663 591
f 663 664 591
f 591 664 592
f 664 665 592
f 592 665 593
f 665 666 593
f 593 666 594
f 666 667 594
f 594 667 595
f 667 668 595
f 595 668 596
f 668 669 596
f 596 669 597
f 669 670 597
f 597 670 598
f 670 671 598
f 598 671 599
f 671 672 599
f 599 672 600
f 672 673 600
f 600 673 601
f 673 674 601
f 601 674 602
f 674 675 602
f 602 675 603
f 675 676 603
f 603 676 604
f 676 677 604
f 604 677 605
f 677 678 605
f 605 678 606
f 678 679 606
f 606 679 607
f 679 680 607
f 607 680 608
f 680 681 608
f 608 681 609
f 681 682 609
f 609 682 610
f 682 683 610
f 610 683 611
f 683 684 611
f 611 684 612
f 684 685 612
f 612 685 613
f 685 686 613
f 613 686 614
f 686 687 614
f 614 687 615
f 687 688 615
f 615 688 616
f 688 689 616
f 616 689 617
f 689 690 617
f 617 690 618
f 690 691 618
f 618 691 619
f 691 692 619
f 619 692 620
f 692 693 620
f 620 693 621
f 693 694 621
f 621 694 622
f 694 695 622
f 622 695 623
f 695 696 623
f 623 696 624
f 696 697 624
f 624 697 625
f 697 698 625
f 625 698 626
f 698 699 626
f 626 699 627
f 699 700 627
f 627 700 628
f 700 701 628
f 628 701 629
f 701 702 629
f 629 702 630
f 702 703 630
f 630 703 631
f 703 704 631
f 631 704 632
f 704 705 632
f 632 705 633
f 705 706 633
f 633 706 634
f 706 707 634
f 634 707 635
f 707 708 635
f 635 708 636
f 708 709 636
f 636 709 637
f 709 710 637
f 637 710 638
f 710 711 638
f 638 711 639
f 711 712 639
f 639 712 640
f 712 713 640
f 640 713 641
f 713 714 641
f 641 714 642
f 714 715 642
f 642 715 643
f 715 716 643
f 643 716 644
f 716 717 644
f 644 717 645
f 717 718 645
f 645 718 646
f 718 719 646
f 646 719 647
f 719 720 647
f 647 720 648
f 720 649 648
f 720 721 649
f 721 722 649
f 649 722 650
f 722 723 650
f 650 723 651
f 723 724 651
f 651 724 652
f 724 725 652
f 652 725 653
f 725 726 653
f 653 726 654
f 726 727 654
f 654 727 655
f 727 728 655
f 655 728 656
f 728 729 656
f 656 729 657
f 729 730 657
f 657 730 658
f 730 731 658
f 658 731 659
f 731 732 659
f 659 732 660
f 732 733 660
f 660 733 661
f 733 734 661
f 661 734 662
f 734 735 662
f 662 735 663
f 735 736 663
f 663 736 664
f 736 737 664
f 664 737 665
f 737 738 665
f 665 738 666
f 738 739 666
f 666 739 667
f 739 740 667
f 667 740 668
f 740 741 668
f 668 741 669
f 741 742 669
f 669 742 670
f 742 743 670
f 670 743 671
f 743 744 671
f 671 744 672
f 744 745 672
f 672 745 673
f 745 746 673
f 673 746 674
f 746 747 674
f 674 747 675
f 747 748 675
f 675 748 676
f 748 749 676
f 676 749 677
f 749 750 677
f 677 750 678
f 750 751 678
f 678 751 679
f 751 752 679
f 679 752 680
f 752 753 680
f 680 753 681
f 753 754 681
f 681 754 682
f 754 755 682
f 682 755 683
f 755 756 683
f 683 756 684
f 756 757 684
f 684 757 685
f 757 758 685
f 685 758 686
f 758 759 686
f 686 759 687
f 759 760 687
f 687 760 688
f 760 761 688
f 688 761 689
f 761 762 689
f 689 762 690
f 762 763 690
f 690 763 691
f 763 764 691
f 691 764 692
f 764 765 692
f 692 765 693
f 765 766 693
f 693 766 694
f 766 767 694
f 694 767 695
f 767 768 695
f 695 768 696
f 768 769 696
f 696 769 697
f 769 770 697
f 697 770 698
f 770 771 698
f 698 771 699
f 771 772 699
f 699 772 700
f 772 773 700
f 700 773 701
f 773 774 701
f 701 774 702
f 774 775 702
f 702 775 703
f 775 776 703
f 703 776 704
f 776 777 704
f 704 777 705
f 777 778 705
f 705 778 706
f 778 779 706
f 706 779 707
f 779 780 707
f 707 780 708
f 780 781 708
f 708 781 709
f 781 782 709
f 709 782 710
f 782 783 710
f 710 783 711
f 783 784 711
f 711 784 712
f 784 785 712
f 712 785 713
f 785 786 713
f 713 786 714
f 786 787 714
f 714 787 715
f 787 788 715
f 715 788 716
f 788 789 716
f 716 789 717
f 789 790 717
f 717 790 718
f 790 791 718
f 718 791 719
f 791 792 719
f 719 792 720
f 792 721 720
f 792 793 721
f 793 794 721
f 721 794 722
f 794 795 722
f 722 795 723
f 795 796 723
f 723 796 724
f 796 797 724
f 724 797 725
f 797 798 725
f 725 798 726
f 798 799 726
f 726 799 727
f 799 800 727
f 727 800 728
f 800 801 728
f 728 801 729
f 801 802 729
f 729 802 730
f 802 803 730
f 730 803 731
f 803 804 731
f 731 804 732
f 804 805 732
f 732 805 733
f 805 806 733
f 733 806 734
f 806 807 734
f 734 807 735
f 807 808 735
f 735 808 736
f 808 809 736
f 736 809 737
f 809 810 737
f 737 810 738
f 810 811 738
f 738 811 739
f 811 812 739
f 739 812 740
f 812 813 740
f 740 813 741
f 813 814 741
f 741 814 742
f 814 815 742
f 742 815 743
f 815 816 743
f 743 816 744
f 816 817 744
f 744 817 745
f 817 818 745
f 745 818 746
f 818 819 746
f 746 819 747
f 819 820 747
f 747 820 748
f 820 821 748
f 748 821 749
f 821 822 749
f 749 822 750
f 822 823 750
f 750 823 751
f 823 824 751
f 751 824 752
f 824 825 752
f 752 825 753
f 825 826 753
f 753 826 754
f 826 827 754
f 754 827 755
f 827 828 755
f 755 828 756
f 828 829 756
f 756 829 757
f 829 830 757
f 757 830 758
f 830 831 758
f 758 831 759
f 831 832 759
f 759 832 760
f 832 833 760
f 760 833 761
f 833 834 761
f 761 834 762
f 834 835 762
f 762 835 763
f 835 836 763
f 763 836 764
f 836 837 764
f 764 837 765
f 837 838 765
f 765 838 766
f 838 839 766
f 766 839 767
f 839 840 767
f 767 840 768
f 840 841 768
f 768 841 769
f 841 842 769
f 769 842 770
f 842 843 770
f 770 843 771
f 843 844 771
f 771 844 772
f 844 845 772
f 772 845 773
f 845 846 773
f 773 846 774
f 846 847 774
f 774 847 775
f 847 848 775
f 775 848 776
f 848 849 776
f 776 849 777
f 849 850 777
f 777 850 778
f 850 851 778
f 778 851 779
f 851 852 779
f 779 852 780
f 852 853 780
f 780 853 781
f 853 854 781
f 781 854 782
f 854 855 782
f 782 855 783
f 855 856 783
f 783 856 784
f 856 857 784
f 784 857 785
f 857 858 785
f 785 858 786
f 858 859 786
f 786 859 787
f 859 860 787
f 787 860 788
f 860 861 788
f 788 861 789
f 861 862 789
f 789 862 790
f 862 863 790
f 790 863 791
f 863 864 791
f 791 864 792
f 864 793 792
f 864 865 793
f 865 866 793
f 793 866 794
f 866 867 794
f 794 867 795
f 867 868 795
f 795 868 796
f 868 869 796
f 796 869 797
f 869 870 797
f 797 870 798
f 870 871 798
f 798 871 799
f 871 872 799
f 799 872 800
f 872 873 800
f 800 873 801
f 873 874 801
f 801 874 802
f 874 875 802
f 802 875 803
f 875 876 803
f 803 876 804
f 876 877 804
f 804 877 805
f 877 878 805
f 805 878 806
f 878 879 806
f 806 879 807
f 879 880 807
f 807 880 808
f 880 881 808
f 808 881 809
f 881 882 809
f 809 882 810
f 882 883 810
f 810 883 811
f 883 884 811
f 811 884 812
f 884 885 812
f 812 885 813
f 885 886 813
f 813 886 814
f 886 887 814
f 814 887 815
f 887 888 815
f 815 888 816
f 888 889 816
f 816 889 817
f 889 890 817
f 817 890 818
f 890 891 818
f 818 891 819
f 891 892 819
f 819 892 820
f 892 893 820
f 820 893 821
f 893 894 821
f 821 894 822
f 894 895 822
f 822 895 823
f 895 896 823
f 823 896 824
f 896 897 824
f 824 897 825
f 897 898 825
f 825 898 826
f 898 899 826
f 826 899 827
f 899 900 827
f 827 900 828
f 900 901 828
f 828 901 829
f 901 902 829
f 829 902 830
f 902 903 830
f 830 903 831
f 903 904 831
f 831 904 832
f 904 905 832
f 832 905 833
f 905 906 833
f 833 906 834
f 906 907 834
f 834 907 835
f 907 908 835
f 835 908 836
f 908 909 836
f 836 909 837
f 909 910 837
f 837 910 838
f 910 911 838
f 838 911 839
f 911 912 839
f 839 912 840
f 912 913 840
f 840 913 841
f 913 914 841
f 841 914 842
f 914 915 842
f 842 915 843
f 915 916 843
f 843 916 844
f 916 917 844
f 844 917 845
f 917 918 845
f 845 918 846
f 918 919 846
f 846 919 847
f 919 920 847
f 847 920 848
f 920 921 848
f 848 921 849
f 921 922 849
f 849 922 850
f 922 923 850
f 850 923 851
f 923 924 851
f 851 924 852
f 924 925 852
f 852 925 853
f 925 926 853
f 853 926 854
f 926 927 854
f 854 927 855
f 927 928 855
f 855 928 856
f 928 929 856
f 856 929 857
f 929 930 857
f 857 930 858
f 930 931 858
f 858 931 859
f 931 932 859
f 859 932 860
f 932 933 860
f 860 933 861
f 933 934 861
f 861 934 862
f 934 935 862
f 862 935 863
f 935 936 863
f 863 936 864
f 936 865 864
f 936 937 865
f 937 938 865
f 865 938 866
f 938 939 866
f 866 939 867
f 939 940 867
f 867 940 868
f 940 941 868
f 868 941 869
f 941 942 869
f 869 942 870
f 942 943 870
f 870 943 871
f 943 944 871
f 871 944 872
f 944 945 872
f 872 945 873
f 945 946 873
f 873 946 874
f 946 947 874
f 874 947 875
f 947 948 875
f 875 948 876
f 948 949 876
f 876 949 877
f 949 950 877
f 877 950 878
f 950 951 878
f 878 951 879
f 951 952 879
f 879 952 880
f 952 953 880
f 880 953 881
f 953 954 881
f 881 954 882
f 954 955 882
f 882 955 883
f 955 956 883
f 883 956 884
f 956 957 884
f 884 957 885
f 957 958 885
f 885 958 886
f 958 959 886
f 886 959 887
f 959 960 887
f 887 960 888
f 960 961 888
f 888 961 889
f 961 962 889
f 889 962 890
f 962 963 890
f 890 963 891
f 963 964 891
f 891 964 892
f 964 965 892
f 892 965 893
f 965 966 893
f 893 966 894
f 966 967 894
f 894 967 895
f 967 968 895
f 895 968 896
f 968 969 896
f 896 969 897
f 969 970 897
f 897 970 898
f 970 971 898
f 898 971 899
f 971 972 899
f 899 972 900
f 972 973 900
f 900 973 901
f 973 974 901
f 901 974 902
f 974 975 902
f 902 975 903
f 975 976 903
f 903 976 904
f 976 977 904
f 904 977 905
f 977 978 905
f 905 978 906
f 978 979 906
f 906 979 907
f 979 980 907
f 907 980 908
f 980 981 908
f 908 981 909
f 981 982 909
f 909 982 910
f 982 983 910
f 910 983 911
f 983 984 911
f 911 984 912
f 984 985 912
f 912 985 913
f 985 986 913
f 913 986 914
f 986 987 914
f 914 987 915
f 987 988 915
f 915 988 916
f 988 989 916
f 916 989 917
f 989 990 917
f 917 990 918
f 990 991 918
f 918 991 919
f 991 992 919
f 919 992 920
f 992 993 920
f 920 993 921
f 993 994 921
f 921 994 922
f 994 995 922
f 922 995 923
f 995 996 923
f 923 996 924
f 996 997 924
f 924 997 925
f 997 998 925
f 925 998 926
f 998 999 926
f 926 999 927
f 999 1000 927
f 927 1000 928
f 1000 1001 928
f 928 1001 929
f 1001 1002 929
f 929 1002 930
f 1002 1003 930
f 930 1003 931
f 1003 1004 931
f 931 1004 932
f 1004 1005 932
f 932 1005 933
f 1005 1006 933
f 933 1006 934
f 1006 1007 934
f 934 1007 935
f 1007 1008 935
f 935 1008 936
f 1008 937 936
f 1008 1009 937
f 1009 1010 937
f 937 1010 938
f 1010 1011 938
f 938 1011 939
f 1011 1012 939
f 939 1012 940
f 1012 1013 940
f 940 1013 941
f 1013 1014 941
f 941 1014 942
f 1014 1015 942
f 942 1015 943
f 1015 1016 943
f 943 1016 944
f 1016 1017 944
f 944 1017 945
f 1017 1018 945
f 945 1018 946
f 1018 1019 946
f 946 1019 947
f 1019 1020 947
f 947 1020 948
f 1020 1021 948
f 948 1021 949
f 1021 1022 949
f 949 1022 950
f 1022 1023 950
f 950 1023 951
f 1023 1024 951
f 951 1024 952
f 1024 1025 952
f 952 1025 953
f 1025 1026 953
f 953 1026 954
f 1026 1027 954
f 954 1027 955
f 1027 1028 955
f 955 1028 956
f 1028 1029 956
f 956 1029 957
f 1029 1030 957
f 957 1030 958
f 1030 1031 958
f 958 1031 959
f 1031 1032 959
f 959 1032 960
f 1032 1033 960
f 960 1033 961
f 1033 1034 961
f 961 1034 962
f 1034 1035 962
f 962 1035 963
f 1035 1036 963
f 963 1036 964
f 1036 1037 964
f 964 1037 965
f 1037 1038 965
f 965 1038 966
f 1038 1039 966
f 966 1039 967
f 1039 1040 967
f 967 1040 968
f 1040 1041 968
f 968 1041 969
f 1041 1042 969
f 969 1042 970
f 1042 1043 970
f 970 1043 971
f 1043 1044 971
f 971 1044 972
f 1044 1045 972
f 972 1045 973
f 1045 1046 973
f 973 1046 974
f 1046 1047 974
f 974 1047 975
f 1047 1048 975
f 975 1048 976
f 1048 1049 976
f 976 1049 977
f 1049 1050 977
f 977 1050 978
f 1050 1051 978
f 978 1051 979
f 1051 1052 979
f 979 1052 980
f 1052 1053 980
f 980 1053 981
f 1053 1054 981
f 981 1054 982
f 1054 1055 982
f 982 1055 983
f 1055 1056 983
f 983 1056 984
f 1056 1057 984
f 984 1057 985
f 1057 1058 985
f 985 1058 986
f 1058 1059 986
f 986 1059 987
f 1059 1060 987
f 987 1060 988
f 1060 1061 988
f 988 1061 989
f 1061 1062 989
f 989 1062 990
f 1062 1063 990
f 990 1063 991
f 1063 1064 991
f 991 1064 992
f 1064 1065 992
f 992 1065 993
f 1065 1066 993
f 993 1066 994
f 1066 1067 994
f 994 1067 995
f 1067 1068 995
f 995 1068 996
f 1068 1069 996
f 996 1069 997
f 1069 1070 997
f 997 1070 998
f 1070 1071 998
f 998 1071 999
f 1071 1072 999
f 999 1072 1000
f 1072 1073 1000
f 1000 1073 1001
f 1073 1074 1001
f 1001 1074 1002
f 1074 1075 1002
f 1002 1075 1003
f 1075 1076 1003
f 1003 1076 1004
f 1076 1077 1004
f 1004 1077 1005
f 1077 1078 1005
f 1005 1078 1006
f 1078 1079 1006
f 1006 1079 1007
f 1079 1080 1007
f 1007 1080 1008
f 1080 1009 1008
f 1080 1081 1009
f 1081 1082 1009
f 1009 1082 1010
f 1082 1083 1010
f 1010 1083 1011
f 1083 1084 1011
f 1011 1084 1012
f 1084 1085 1012
f 1012 1085 1013
f 1085 1086 1013
f 1013 1086 1014
f 1086 1087 1014
f 1014 1087 1015
f 1087 1088 1015
f 1015 1088 1016
f 1088 1089 1016
f 1016 1089 1017
f 1089 1090 1017
f 1017 1090 1018
f 1090 1091 1018
f 1018 1091 1019
f 1091 1092 1019
f 1019 1092 1020
f 1092 1093 1020
f 1020 1093 1021
f 1093 1094 1021
f 1021 1094 1022
f 1094 1095 1022
f 1022 1095 1023
f 1095 1096 1023
f 1023 1096 1024
f 1096 1097 1024
f 1024 1097 1025
f 1097 1098 1025
f 1025 1098 1026
f 1098 1099 1026
f 1026 1099 1027
f 1099 1100 1027
f 1027 1100 1028
f 1100 1101 1028
f 1028 1101 1029
f 1101 1102 1029
f 1029 1102 1030
f 1102 1103 1030
f 1030 1103 1031
f 1103 1104 1031
f 1031 1104 1032
f 1104 1105 1032
f 1032 1105 1033
f 1105 1106 1033
f 1033 1106 1034
f 1106 1107 1034
f 1034 1107 1035
f 1107 1108 1035
f 1035 1108 1036
f 1108 1109 1036
f 1036 1109 1037
f 1109 1110 1037
f 1037 1110 1038
f 1110 1111 1038
f 1038 1111 1039
f 1111 1112 1039
f 1039 1112 1040
f 1112 1113 1040
f 1040 1113 1041
f 1113 1114 1041
f 1041 1114 1042
f 1114 1115 1042
f 1042 1115 1043
f 1115 1116 1043
f 1043 1116 1044
f 1116 1117 1044
f 1044 1117 1045
f 1117 1118 1045
f 1045 1118 1046
f 1118 1119 1046
f 1046 1119 1047
f 1119 1120 1047
f 1047 1120 1048
f 1120 1121 1048
f 1048 1121 1049
f 1121 1122 1049
f 1049 1122 1050
f 1122 1123 1050
f 1050 1123 1051
f 1123 1124 1051
f 1051 1124 1052
f 1124 1125 1052
f 1052 1125 1053
f 1125 1126 1053
f 1053 1126 1054
f 1126 1127 1054
f 1054 1127 1055
f 1127 1128 1055
f 1055 1128 1056
f 1128 1129 1056
f 1056 1129 1057
f 1129 1130 1057
f 1057 1130 1058
f 1130 1131 1058
f 1058 1131 1059
f 1131 1132 1059
f 1059 1132 1060
f 1132 1133 1060
f 1060 1133 1061
f 1133 1134 1061
f 1061 1134 1062
f 1134 1135 1062
f 1062 1135 1063
f 1135 1136 1063
f 1063 1136 1064
f 1136 1137 1064
f 1064 1137 1065
f 1137 1138 1065
f 1065 1138 1066
f 1138 1139 1066
f 1066 1139 1067
f 1139 1140 1067
f 1067 1140 1068
f 1140 1141 1068
f 1068 1141 1069
f 1141 1142 1069
f 1069 1142 1070
f 1142 1143 1070
f 1070 1143 1071
f 1143 1144 1071
f 1071 1144 1072
f 1144 1145 1072
f 1072 1145 1073
f 1145 1146 1073
f 1073 1146 1074
f 1146 1147 1074
f 1074 1147 1075
f 1147 1148 1075
f 1075 1148 1076
f 1148 1149 1076
f 1076 1149 1077
f 1149 1150 1077
f 1077 1150 1078
f 1150 1151 1078
f 1078 1151 1079
f 1151 1152 1079
f 1079 1152 1080
f 1152 1081 1080
f 1152 1153 1081
f 1153 1154 1081
f 1081 1154 1082
f 1154 1155 1082
f 1082 1155 1083
f 1155 1156 1083
f 1083 1156 1084
f 1156 1157 1084
f 1084 1157 1085
f 1157 1158 1085
f 1085 1158 1086
f 1158 1159 1086
f 1086 1159 1087
f 1159 1160 1087
f 1087 1160 1088
f 1160 1161 1088
f 1088 1161 1089
f 1161 1162 1089
f 1089 1162 1090
f 1162 1163 1090
f 1090 1163 1091
f 1163 1164 1091
f 1091 1164 1092
f 1164 1165 1092
f 1092 1165 1093
f 1165 1166 1093
f 1093 1166 1094
f 1166 1167 1094
f 1094 1167 1095
f 1167 1168 1095
f 1095 1168 1096
f 1168 1169 1096
f 1096 1169 1097
f 1169 1170 1097
f 1097 1170 1098
f 1170 1171 1098
f 1098 1171 1099
f 1171 1172 1099
f 1099 1172 1100
f 1172 1173 1100
f 1100 1173 1101
f 1173 1174 1101
f 1101 1174 1102
f 1174 1175 1102
f 1102 1175 1103
f 1175 1176 1103
f 1103 1176 1104
f 1176 1177 1104
f 1104 1177 1105
f 1177 1178 1105
f 1105 1178 1106
f 1178 1179 1106
f 1106 1179 1107
f 1179 1180 1107
f 1107 1180 1108
f 1180 1181 1108
f 1108 1181 1109
f 1181 1182 1109
f 1109 1182 1110
f 1182 1183 1110
f 1110 1183 1111
f 1183 1184 1111
f 1111 1184 1112
f 1184 1185 1112
f 1112 1185 1113
f 1185 1186 1113
f 1113 1186 1114
f 1186 1187 1114
f 1114 1187 1115
f 1187 1188 1115
f 1115 1188 1116
f 1188 1189 1116
f 1116 1189 1117
f 1189 1190 1117
f 1117 1190 1118
f 1190 1191 1118
f 1118 1191 1119
f 1191 1192 1119
f 1119 1192 1120
f 1192 1193 1120
f 1120 1193 1121
f 1193 1194 1121
f 1121 1194 1122
f 1194 1195 1122
f 1122 1195 1123
f 1195 1196 1123
f 1123 1196 1124
f 1196 1197 1124
f 1124 1197 1125
f 1197 1198 1125
f 1125 1198 1126
f 1198 1199 1126
f 1126 1199 1127
f 1199 1200 1127
f 1127 1200 1128
f 1200 1201 1128
f 1128 1201 1129
f 1201 1202 1129
f 1129 1202 1130
f 1202 1203 1130
f 1130 1203 1131
f 1203 1204 1131
f 1131 1204 1132
f 1204 1205 1132
f 1132 1205 1133
f 1205 1206 1133
f 1133 1206 1134
f 1206 1207 1134
f 1134 1207 1135
f 1207 1208 1135
f 1135 1208 1136
f 1208 1209 1136
f 1136 1209 1137
f 1209 1210 1137
f 1137 1210 1138
f 1210 1211 1138
f 1138 1211 1139
f 1211 1212 1139
f 1139 1212 1140
f 1212 1213 1140
f 1140 1213 1141
f 1213 1214 1141
f 1141 1214 1142
f 1214 1215 1142
f 1142 1215 1143
f 1215 1216 1143
f 1143 1216 1144
f 1216 1217 1144
f 1144 1217 1145
f 1217 1218 1145
f 1145 1218 1146
f 1218 1219 1146
f 1146 1219 1147
f 1219 1220 1147
f 1147 1220 1148
f 1220 1221 1148
f 1148 1221 1149
f 1221 1222 1149
f 1149 1222 1150
f 1222 1223 1150
f 1150 1223 1151
f 1223 1224 1151
f 1151 1224 1152
f 1224 1153 1152
f 1224 1225 1153
f 1225 1226 1153
f 1153 1226 1154
f 1226 1227 1154
f 1154 1227 1155
f 1227 1228 1155
f 1155 1228 1156
f 1228 1229 1156
f 1156 1229 1157
f 1229 1230 1157
f 1157 1230 1158
f 1230 1231 1158
f 1158 1231 1159
f 1231 1232 1159
f 1159 1232 1160
f 1232 1233 1160
f 1160 1233 1161
f 1233 1234 1161
f 1161 1234 1162
f 1234 1235 1162
f 1162 1235 1163
f 1235 1236 1163
f 1163 1236 1164
f 1236 1237 1164
f 1164 1237 1165
f 1237 1238 1165
f 1165 1238 1166
f 1238 1239 1166
f 1166 1239 1167
f 1239 1240 1167
f 1167 1240 1168
f 1240 1241 1168
f 1168 1241 1169
f 1241 1242 1169
f 1169 1242 1170
f 1242 1243 1170
f 1170 1243 1171
f 1243 1244 1171
f 1171 1244 1172
f 1244 1245 1172
f 1172 1245 1173
f 1245 1246 1173
f 1173 1246 1174
f 1246 1247 1174
f 1174 1247 1175
f 1247 1248 1175
f 1175 1248 1176
f 1248 1249 1176
f 1176 1249 1177
f 1249 1250 1177
f 1177 1250 1178
f 1250 1251 1178
f 1178 1251 1179
f 1251 1252 1179
f 1179 1252 1180
f 1252 1253 1180
f 1180 1253 1181
f 1253 1254 1181
f 1181 1254 1182
f 1254 1255 1182
f 1182 1255 1183
f 1255 1256 1183
f 1183 1256 1184
f 1256 1257 1184
f 1184 1257 1185
f 1257 1258 1185
f 1185 1258 1186
f 1258 1259 1186
f 1186 1259 1187
f 1259 1260 1187
f 1187 1260 1188
f 1260 1261 1188
f 1188 1261 1189
f 1261 1262 1189
f 1189 1262 1190
f 1262 1263 1190
f 1190 1263 1191
f 1263 1264 1191
f 1191 1264 1192
f 1264 1265 1192
f 1192 1265 1193
f 1265 1266 1193
f 1193 1266 1194
f 1266 1267 1194
f 1194 1267 1195
f 1267 1268 1195
f 1195 1268 1196
f 1268 1269 1196
f 1196 1269 1197
f 1269 1270 1197
f 1197 1270 1198
f 1270 1271 1198
f 1198 1271 1199
f 1271 1272 1199
f 1199 1272 1200
f 1272 1273 1200
f 1200 1273 1201
f 1273 1274 1201
f 1201 1274 1202
f 1274 1275 1202
f 1202 1275 1203
f 1275 1276 1203
f 1203 1276 1204
f 1276 1277 1204
f 1204 1277 1205
f 1277 1278 1205
f 1205 1278 1206
f 1278 1279 1206
f 1206 1279 1207
f 1279 1280 1207
f 1207 1280 1208
f 1280 1281 1208
f 1208 1281 1209
f 1281 1282 1209
f 1209 1282 1210
f 1282 1283 1210
f 1210 1283 1211
f 1283 1284 1211
f 1211 1284 1212
f 1284 1285 1212
f 1212 1285 1213
f 1285 1286 1213
f 1213 1286 1214
f 1286 1287 1214
f 1214 1287 1215
f 1287 1288 1215
f 1215 1288 1216
f 1288 1289 1216
f 1216 1289 1217
f 1289 1290 1217
f 1217 1290 1218
f 1290 1291 1218
f 1218 1291 1219
f 1291 1292 1219
f 1219 1292 1220
f 1292 1293 1220
f 1220 1293 1221
f 1293 1294 1221
f 1221 1294 1222
f 1294 1295 1222
f 1222 1295 1223
f 1295 1296 1223
f 1223 1296 1224
f 1296 1225 1224
f 1296 1297 1225
f 1297 1298 1225
f 1225 1298 1226
f 1298 1299 1226
f 1226 1299 1227
f 1299 1300 1227
f 1227 1300 1228
f 1300 1301 1228
f 1228 1301 1229
f 1301 1302 1229
f 1229 1302 1230
f 1302 1303 1230
f 1230 1303 1231
f 1303 1304 1231
f 1231 1304 1232
f 1304 1305 1232
f 1232 1305 1233
f 1305 1306 1233
f 1233 1306 1234
f 1306 1307 1234
f 1234 1307 1235
f 1307 1308 1235
f 1235 1308 1236
f 1308 1309 1236
f 1236 1309 1237
f 1309 1310 1237
f 1237 1310 1238
f 1310 1311 1238
f 1238 1311 1239
f 1311 1312 1239
f 1239 1312 1240
f 1312 1313 1240
f 1240 1313 1241
f 1313 1314 1241
f 1241 1314 1242
f 1314 1315 1242
f 1242 1315 1243
f 1315 1316 1243
f 1243 1316 1244
f 1316 1317 1244
f 1244 1317 1245
f 1317 1318 1245
f 1245 1318 1246
f 1318 1319 1246
f 1246 1319 1247
f 1319 1320 1247
f 1247 1320 1248
f 1320 1321 1248
f 1248 1321 1249
f 1321 1322 1249
f 1249 1322 1250
f 1322 1323 1250
f 1250 1323 1251
f 1323 1324 1251
f 1251 1324 1252
f 1324 1325 1252
f 1252 1325 1253
f 1325 1326 1253
f 1253 1326 1254
f 1326 1327 1254
f 1254 1327 1255
f 1327 1328 1255
f 1255 1328 1256
f 1328 1329 1256
f 1256 1329 1257
f 1329 1330 1257
f 1257 1330 1258
f 1330 1331 1258
f 1258 1331 1259
f 1331 1332 1259
f 1259 1332 1260
f 1332 1333 1260
f 1260 1333 1261
f 1333 1334 1261
f 1261 1334 1262
f 1334 1335 1262
f 1262 1335 1263
f 1335 1336 1263
f 1263 1336 1264
f 1336 1337 1264
f 1264 1337 1265
f 1337 1338 1265
f 1265 1338 1266
f 1338 1339 1266
f 1266 1339 1267
f 1339 1340 1267
f 1267 1340 1268
f 1340 1341 1268
f 1268 1341 1269
f 1341 1342 1269
f 1269 1342 1270
f 1342 1343 1270
f 1270 1343 1271
f 1343 1344 1271
f 1271 1344 1272
f 1344 1345 1272
f 1272 1345 1273
f 1345 1346 1273
f 1273 1346 1274
f 1346 1347 1274
f 1274 1347 1275
f 1347 1348 1275
f 1275 1348 1276
f 1348 1349 1276
f 1276 1349 1277
f 1349 1350 1277
f 1277 1350 1278
f 1350 1351 1278
f 1278 1351 1279
f 1351 1352 1279
f 1279 1352 1280
f 1352 1353 1280
f 1280 1353 1281
f 1353 1354 1281
f 1281 1354 1282
f 1354 1355 1282
f 1282 1355 1283
f 1355 1356 1283
f 1283 1356 1284
f 1356 1357 1284
f 1284 1357 1285
f 1357 1358 1285
f 1285 1358 1286
f 1358 1359 1286
f 1286 1359 1287
f 1359 1360 1287
f 1287 1360 1288
f 1360 1361 1288
f 1288 1361 1289
f 1361 1362 1289
f 1289 1362 1290
f 1362 1363 1290
f 1290 1363 1291
f 1363 1364 1291
f 1291 1364 1292
f 1364 1365 1292
f 1292 1365 1293
f 1365 1366 1293
f 1293 1366 1294
f 1366 1367 1294
f 1294 1367 1295
f 1367 1368 1295
f 1295 1368 1296
f 1368 1297 1296
f 1368 1369 1297
f 1369 1370 1297
f 1297 1370 1298
f 1370 1371 1298
f 1298 1371 1299
f 1371 1372 1299
f 1299 1372 1300
f 1372 1373 1300
f 1300 1373 1301
f 1373 1374 1301
f 1301 1374 1302
f 1374 1375 1302
f 1302 1375 1303
f 1375 1376 1303
f 1303 1376 1304
f 1376 1377 1304
f 1304 1377 1305
f 1377 1378 1305
f 1305 1378 1306
f 1378 1379 1306
f 1306 1379 1307
f 1379 1380 1307
f 1307 1380 1308
f 1380 1381 1308
f 1308 1381 1309
f 1381 1382 1309
f 1309 1382 1310
f 1382 1383 1310
f 1310 1383 1311
f 1383 1384 1311
f 1311 1384 1312
f 1384 1385 1312
f 1312 1385 1313
f 1385 1386 1313
f 1313 1386 1314
f 1386 1387 1314
f 1314 1387 1315
f 1387 1388 1315
f 1315 1388 1316
f 1388 1389 1316
f 1316 1389 1317
f 1389 1390 1317
f 1317 1390 1318
f 1390 1391 1318
f 1318 1391 1319
f 1391 1392 1319
f 1319 1392 1320
f 1392 1393 1320
f 1320 1393 1321
f 1393 1394 1321
f 1321 1394 1322
f 1394 1395 1322
f 1322 1395 1323
f 1395 1396 1323
f 1323 1396 1324
f 1396 1397 1324
f 1324 1397 1325
f 1397 1398 1325
f 1325 1398 1326
f 1398 1399 1326
f 1326 1399 1327
f 1399 1400 1327
f 1327 1400 1328
f 1400 1401 1328
f 1328 1401 1329
f 1401 1402 1329
f 1329 1402 1330
f 1402 1403 1330
f 1330 1403 1331
f 1403 1404 1331
f 1331 1404 1332
f 1404 1405 1332
f 1332 1405 1333
f 1405 1406 1333
f 1333 1406 1334
f 1406 1407 1334
f 1334 1407 1335
f 1407 1408 1335
f 1335 1408 1336
f 1408 1409 1336
f 1336 1409 1337
f 1409 1410 1337
f 1337 1410 1338
f 1410 1411 1338
f 1338 1411 1339
f 1411 1412 1339
f 1339 1412 1340
f 1412 1413 1340
f 1340 1413 1341
f 1413 1414 1341
f 1341 1414 1342
f 1414 1415 1342
f 1342 1415 1343
f 1415 1416 1343
f 1343 1416 1344
f 1416 1417 1344
f 1344 1417 1345
f 1417 1418 1345
f 1345 1418 1346
f 1418 1419 1346
f 1346 1419 1347
f 1419 1420 1347
f 1347 1420 1348
f 1420 1421 1348
f 1348 1421 1349
f 1421 1422 1349
f 1349 1422 1350
f 1422 1423 1350
f 1350 1423 1351
f 1423 1424 1351
f 1351 1424 1352
f 1424 1425 1352
f 1352 1425 1353
f 1425 1426 1353
f 1353 1426 1354
f 1426 1427 1354
f 1354 1427 1355
f 1427 1428 1355
f 1355 1428 1356
f 1428 1429 1356
f 1356 1429 1357
f 1429 1430 1357
f 1357 1430 1358
f 1430 1431 1358
f 1358 1431 1359
f 1431 1432 1359
f 1359 1432 1360
f 1432 1433 1360
f 1360 1433 1361
f 1433 1434 1361
f 1361 1434 1362
f 1434 1435 1362
f 1362 1435 1363
f 1435 1436 1363
f 1363 1436 1364
f 1436 1437 1364
f 1364 1437 1365
f 1437 1438 1365
f 1365 1438 1366
f 1438 1439 1366
f 1366 1439 1367
f 1439 1440 1367
f 1367 1440 1368
f 1440 1369 1368
f 1440 1441 1369
f 1441 1442 1369
f 1369 1442 1370
f 1442 1443 1370
f 1370 1443 1371
f 1443 1444 1371
f 1371 1444 1372
f 1444 1445 1372
f 1372 1445 1373
f 1445 1446 1373
f 1373 1446 1374
f 1446 1447 1374
f 1374 1447 1375
f 1447 1448 1375
f 1375 1448 1376
f 1448 1449 1376
f 1376 1449 1377
f 1449 1450 1377
f 1377 1450 1378
f 1450 1451 1378
f 1378 1451 1379
f 1451 1452 1379
f 1379 1452 1380
f 1452 1453 1380
f 1380 1453 1381
f 1453 1454 1381
f 1381 1454 1382
f 1454 1455 1382
f 1382 1455 1383
f 1455 1456 1383
f 1383 1456 1384
f 1456 1457 1384
f 1384 1457 1385
f 1457 1458 1385
f 1385 1458 1386
f 1458 1459 1386
f 1386 1459 1387
f 1459 1460 1387
f 1387 1460 1388
f 1460 1461 1388
f 1388 1461 1389
f 1461 1462 1389
f 1389 1462 1390
f 1462 1463 1390
f 1390 1463 1391
f 1463 1464 1391
f 1391 1464 1392
f 1464 1465 1392
f 1392 1465 1393
f 1465 1466 1393
f 1393 1466 1394
f 1466 1467 1394
f 1394 1467 1395
f 1467 1468 1395
f 1395 1468 1396
f 1468 1469 1396
f 1396 1469 1397
f 1469 1470 1397
f 1397 1470 1398
f 1470 1471 1398
f 1398 1471 1399
f 1471 1472 1399
f 1399 1472 1400
f 1472 1473 1400
f 1400 1473 1401
f 1473 1474 1401
f 1401 1474 1402
f 1474 1475 1402
f 1402 1475 1403
f 1475 1476 1403
f 1403 1476 1404
f 1476 1477 1404
f 1404 1477 1405
f 1477 1478 1405
f 1405 1478 1406
f 1478 1479 1406
f 1406 1479 1407
f 1479 1480 1407
f 1407 1480 1408
f 1480 1481 1408
f 1408 1481 1409
f 1481 1482 1409
f 1409 1482 1410
f 1482 1483 1410
f 1410 1483 1411
f 1483 1484 1411
f 1411 1484 1412
f 1484 1485 1412
f 1412 1485 1413
f 1485 1486 1413
f 1413 1486 1414
f 1486 1487 1414
f 1414 1487 1415
f 1487 1488 1415
f 1415 1488 1416
f 1488 1489 1416
f 1416 1489 1417
f 1489 1490 1417
f 1417 1490 1418
f 1490 1491 1418
f 1418 1491 1419
f 1491 1492 1419
f 1419 1492 1420
f 1492 1493 1420
f 1420 1493 1421
f 1493 1494 1421
f 1421 1494 1422
f 1494 1495 1422
f 1422 1495 1423
f 1495 1496 1423
f 1423 1496 1424
f 1496 1497 1424
f 1424 1497 1425
f 1497 1498 1425
f 1425 1498 1426
f 1498 1499 1426
f 1426 1499 1427
f 1499 1500 1427
f 1427 1500 1428
f 1500 1501 1428
f 1428 1501 1429
f 1501 1502 1429
f 1429 1502 1430
f 1502 1503 1430
f 1430 1503 1431
f 1503 1504 1431
f 1431 1504 1432
f 1504 1505 1432
f 1432 1505 1433
f 1505 1506 1433
f 1433 1506 1434
f 1506 1507 1434
f 1434 1507 1435
f 1507 1508 1435
f 1435 1508 1436
f 1508 1509 1436
f 1436 1509 1437
f 1509 1510 1437
f 1437 1510 1438
f 1510 1511 1438
f 1438 1511 1439
f 1511 1512 1439
f 1439 1512 1440
f 1512 1441 1440
f 116 259 118
f 259 261 118
f 118 261 120
f 261 263 120
f 120 263 122
f 263 265 122
f 122 265 124
f 265 267 124
f 124 267 126
f 267 269 126
f 126 269 128
f 269 271 128
f 128 271 130
f 271 273 130
f 130 273 132
f 273 275 132
f 132 275 134
f 275 277 134
f 134 277 136
f 277 279 136
f 136 279 138
f 279 281 138
f 138 281 140
f 281 283 140
f 140 283 142
f 283 285 142
f 142 285 144
f 285 287 144
f 144 287 2
f 287 145 2
f 2 145 4
f 145 147 4
f 4 147 6
f 147 149 6
f 6 149 8
f 149 151 8
f 8 151 10
f 151 153 10
f 10 153 12
f 153 155 12
f 12 155 14
f 155 157 14
f 14 157 16
f 157 159 16
f 16 159 18
f 159 161 18
f 18 161 20
f 161 163 20
f 20 163 22
f 163 165 22
f 22 165 24
f 165 167 24
f 24 167 26
f 167 169 26
f 26 169 28
f 169 171 28
f 28 171 30
f 171 173 30
f 30 173 32
f 173 175 32
f 32 175 34
f 175 177 34
f 34 177 36
f 177 179 36
f 36 179 38
f 179 181 38
f 38 181 40
f 181 183 40
f 40 183 42
f 183 185 42
f 42 185 44
f 185 187 44
f 44 187 46
f 187 189 46
f 46 189 48
f 189 191 48
f 48 191 50
f 191 193 50
f 50 193 52
f 193 195 52
f 52 195 54
f 195 197 54
f 54 197 56
f 197 199 56
f 56 199 58
f 199 201 58
f 58 201 60
f 201 203 60
f 60 203 62
f 203 205 62
f 62 205 64
f 205 207 64
f 64 207 66
f 207 209 66
f 66 209 68
f 209 211 68
f 68 211 70
f 211 213 70
f 70 213 72
f 213 215 72
f 72 215 74
f 215 217 74
f 74 217 76
f 217 219 76
f 76 219 78
f 219 221 78
f 78 221 80
f 221 223 80
f 80 223 82
f 223 225 82
f 82 225 84
f 225 227 84
f 84 227 86
f 227 229 86
f 86 229 88
f 229 231 88
f 88 231 90
f 231 233 90
f 90 233 92
f 233 235 92
f 92 235 94
f 235 237 94
f 94 237 96
f 237 239 96
f 96 239 98
f 239 241 98
f 98 241 100
f 241 243 100
f 100 243 102
f 243 245 102
f 102 245 104
f 245 247 104
f 104 247 106
f 247 249 106
f 106 249 108
f 249 251 108
f 108 251 110
f 251 253 110
f 110 253 112
f 253 255 112
f 112 255 114
f 255 257 114
f 114 257 116
f 257 259 116
f 31 1455 29
f 1455 1454 29
f 29 1454 27
f 1454 1453 27
f 27 1453 25
f 1453 1452 25
f 25 1452 23
f 1452 1451 23
f 23 1451 21
f 1451 1450 21
f 21 1450 19
f 1450 1449 19
f 19 1449 17
f 1449 1448 17
f 17 1448 15
f 1448 1447 15
f 15 1447 13
f 1447 1446 13
f 13 1446 11
f 1446 1445 11
f 11 1445 9
f 1445 1444 9
f 9 1444 7
f 1444 1443 7
f 7 1443 5
f 1443 1442 5
f 5 1442 3
f 1442 1441 3
f 3 1441 1
f 1441 1512 1
f 1 1512 143
f 1512 1511 143
f 143 1511 141
f 1511 1510 141
f 141 1510 139
f 1510 1509 139
f 139 1509 137
f 1509 1508 137
f 137 1508 135
f 1508 1507 135
f 135 1507 133
f 1507 1506 133
f 133 1506 131
f 1506 1505 131
f 131 1505 129
f 1505 1504 129
f 129 1504 127
f 1504 1503 127
f 127 1503 125
f 1503 1502 125
f 125 1502 123
f 1502 1501 123
f 123 1501 121
f 1501 1500 121
f 121 1500 119
f 1500 1499 119
f 119 1499 117
f 1499 1498 117
f 117 1498 115
f 1498 1497 115
f 115 1497 113
f 1497 1496 113
f 113 1496 111
f 1496 1495 111
f 111 1495 109
f 1495 1494 109
f 109 1494 107
f 1494 1493 107
f 107 1493 105
f 1493 1492 105
f 105 1492 103
f 1492 1491 103
f 103 1491 101
f 1491 1490 101
f 101 1490 99
f 1490 1489 99
f 99 1489 97
f 1489 1488 97
f 97 1488 95
f 1488 1487 95
f 95 1487 93
f 1487 1486 93
f 93 1486 91
f 1486 1485 91
f 91 1485 89
f 1485 1484 89
f 89 1484 87
f 1484 1483 87
f 87 1483 85
f 1483 1482 85
f 85 1482 83
f 1482 1481 83
f 83 1481 81
f 1481 1480 81
f 81 1480 79
f 1480 1479 79
f 79 1479 77
f 1479 1478 77
f 77 1478 75
f 1478 1477 75
f 75 1477 73
f 1477 1476 73
f 73 1476 71
f 1476 1475 71
f 71 1475 69
f 1475 1474 69
f 69 1474 67
f 1474 1473 67
f 67 1473 65
f 1473 1472 65
f 65 1472 63
f 1472 1471 63
f 63 1471 61
f 1471 1470 61
f 61 1470 59
f 1470 1469 59
f 59 1469 57
f 1469 1468 57
f 57 1468 55
f 1468 1467 55
f 55 1467 53
f 1467 1466 53
f 53 1466 51
f 1466 1465 51
f 51 1465 49
f 1465 1464 49
f 49 1464 47
f 1464 1463 47
f 47 1463 45
f 1463 1462 45
f 45 1462 43
f 1462 1461 43
f 43 1461 41
f 1461 1460 41
f 41 1460 39
f 1460 1459 39
f 39 1459 37
f 1459 1458 37
f 37 1458 35
f 1458 1457 35
f 35 1457 33
f 1457 1456 33
f 33 1456 31
f 1456 1455 31

