# https://github.com/mikedh/trimesh

o 90576a161_medium_strength_steel_nylon_insert_locknut.stl
v 0.00875000 0.02595772 0.03047750
v 0.00875000 0.02595772 0.02986667
v 0.00883347 0.02595407 0.03047750
v 0.00883347 0.02595407 0.02986667
v 0.00891631 0.02594317 0.03047750
v 0.00891631 0.02594317 0.02986667
v 0.00899788 0.02592508 0.03047750
v 0.00899788 0.02592508 0.02986667
v 0.00907756 0.02589996 0.03047750
v 0.00907756 0.02589996 0.02986667
v 0.00915475 0.02586799 0.03047750
v 0.00915475 0.02586799 0.02986667
v 0.00922886 0.02582941 0.03047750
v 0.00922886 0.02582941 0.02986667
v 0.00929932 0.02578451 0.03047750
v 0.00929932 0.02578451 0.02986667
v 0.00936561 0.02573365 0.03047750
v 0.00936561 0.02573365 0.02986667
v 0.00942721 0.02567721 0.03047750
v 0.00942721 0.02567721 0.02986667
v 0.00948365 0.02561561 0.03047750
v 0.00948365 0.02561561 0.02986667
v 0.00953452 0.02554932 0.03047750
v 0.00953452 0.02554932 0.02986667
v 0.00957941 0.02547886 0.03047750
v 0.00957941 0.02547886 0.02986667
v 0.00961799 0.02540475 0.03047750
v 0.00961799 0.02540475 0.02986667
v 0.00964996 0.02532756 0.03047750
v 0.00964996 0.02532756 0.02986667
v 0.00967508 0.02524788 0.03047750
v 0.00967508 0.02524788 0.02986667
v 0.00969317 0.02516630 0.03047750
v 0.00969317 0.02516630 0.02986667
v 0.00970407 0.02508347 0.03047750
v 0.00970407 0.02508347 0.02986667
v 0.00970772 0.02500000 0.03047750
v 0.00970772 0.02500000 0.02986667
v 0.00970407 0.02491653 0.03047750
v 0.00970407 0.02491653 0.02986667
v 0.00969317 0.02483369 0.03047750
v 0.00969317 0.02483369 0.02986667
v 0.00967508 0.02475213 0.03047750
v 0.00967508 0.02475213 0.02986667
v 0.00964996 0.02467244 0.03047750
v 0.00964996 0.02467244 0.02986667
v 0.00961799 0.02459525 0.03047750
v 0.00961799 0.02459525 0.02986667
v 0.00957941 0.02452114 0.03047750
v 0.00957941 0.02452114 0.02986667
v 0.00953452 0.02445068 0.03047750
v 0.00953452 0.02445068 0.02986667
v 0.00948365 0.02438439 0.03047750
v 0.00948365 0.02438439 0.02986667
v 0.00942721 0.02432279 0.03047750
v 0.00942721 0.02432279 0.02986667
v 0.00936561 0.02426635 0.03047750
v 0.00936561 0.02426635 0.02986667
v 0.00929932 0.02421548 0.03047750
v 0.00929932 0.02421548 0.02986667
v 0.00922886 0.02417059 0.03047750
v 0.00922886 0.02417059 0.02986667
v 0.00915475 0.02413201 0.03047750
v 0.00915475 0.02413201 0.02986667
v 0.00907756 0.02410004 0.03047750
v 0.00907756 0.02410004 0.02986667
v 0.00899788 0.02407492 0.03047750
v 0.00899788 0.02407492 0.02986667
v 0.00891631 0.02405683 0.03047750
v 0.00891631 0.02405683 0.02986667
v 0.00883347 0.02404593 0.03047750
v 0.00883347 0.02404593 0.02986667
v 0.00875000 0.02404228 0.03047750
v 0.00875000 0.02404228 0.02986667
v 0.00866653 0.02404593 0.03047750
v 0.00866653 0.02404593 0.02986667
v 0.00858369 0.02405683 0.03047750
v 0.00858369 0.02405683 0.02986667
v 0.00850212 0.02407492 0.03047750
v 0.00850212 0.02407492 0.02986667
v 0.00842244 0.02410004 0.03047750
v 0.00842244 0.02410004 0.02986667
v 0.00834525 0.02413201 0.03047750
v 0.00834525 0.02413201 0.02986667
v 0.00827114 0.02417059 0.03047750
v 0.00827114 0.02417059 0.02986667
v 0.00820068 0.02421548 0.03047750
v 0.00820068 0.02421548 0.02986667
v 0.00813439 0.02426635 0.03047750
v 0.00813439 0.02426635 0.02986667
v 0.00807279 0.02432279 0.03047750
v 0.00807279 0.02432279 0.02986667
v 0.00801635 0.02438439 0.03047750
v 0.00801635 0.02438439 0.02986667
v 0.00796548 0.02445068 0.03047750
v 0.00796548 0.02445068 0.02986667
v 0.00792059 0.02452114 0.03047750
v 0.00792059 0.02452114 0.02986667
v 0.00788201 0.02459525 0.03047750
v 0.00788201 0.02459525 0.02986667
v 0.00785004 0.02467244 0.03047750
v 0.00785004 0.02467244 0.02986667
v 0.00782492 0.02475213 0.03047750
v 0.00782492 0.02475213 0.02986667
v 0.00780683 0.02483369 0.03047750
v 0.00780683 0.02483369 0.02986667
v 0.00779593 0.02491653 0.03047750
v 0.00779593 0.02491653 0.02986667
v 0.00779228 0.02500000 0.03047750
v 0.00779228 0.02500000 0.02986667
v 0.00779593 0.02508347 0.03047750
v 0.00779593 0.02508347 0.02986667
v 0.00780683 0.02516630 0.03047750
v 0.00780683 0.02516630 0.02986667
v 0.00782492 0.02524788 0.03047750
v 0.00782492 0.02524788 0.02986667
v 0.00785004 0.02532756 0.03047750
v 0.00785004 0.02532756 0.02986667
v 0.00788201 0.02540475 0.03047750
v 0.00788201 0.02540475 0.02986667
v 0.00792059 0.02547886 0.03047750
v 0.00792059 0.02547886 0.02986667
v 0.00796548 0.02554932 0.03047750
v 0.00796548 0.02554932 0.02986667
v 0.00801635 0.02561561 0.03047750
v 0.00801635 0.02561561 0.02986667
v 0.00807279 0.02567721 0.03047750
v 0.00807279 0.02567721 0.02986667
v 0.00813439 0.02573365 0.03047750
v 0.00813439 0.02573365 0.02986667
v 0.00820068 0.02578451 0.03047750
v 0.00820068 0.02578451 0.02986667
v 0.00827114 0.02582941 0.03047750
v 0.00827114 0.02582941 0.02986667
v 0.00834525 0.02586799 0.03047750
v 0.00834525 0.02586799 0.02986667
v 0.00842244 0.02589996 0.03047750
v 0.00842244 0.02589996 0.02986667
v 0.00850212 0.02592508 0.03047750
v 0.00850212 0.02592508 0.02986667
v 0.00858369 0.02594317 0.03047750
v 0.00858369 0.02594317 0.02986667
v 0.00866653 0.02595407 0.03047750
v 0.00866653 0.02595407 0.02986667
v 0.00875000 0.02747750 0.02986667
v 0.00896573 0.02746576 0.02991990
v 0.00896593 0.02746807 0.02986667
v 0.00917981 0.02743757 0.02991990
v 0.00918021 0.02743986 0.02986667
v 0.00939062 0.02739084 0.02991990
v 0.00939122 0.02739308 0.02986667
v 0.00959656 0.02732590 0.02991990
v 0.00959735 0.02732809 0.02986667
v 0.00979605 0.02724327 0.02991990
v 0.00979704 0.02724538 0.02986667
v 0.00998759 0.02714356 0.02991990
v 0.00998875 0.02714558 0.02986667
v 0.01016970 0.02702755 0.02991990
v 0.01017104 0.02702945 0.02986667
v 0.01034101 0.02689609 0.02991990
v 0.01034251 0.02689788 0.02986667
v 0.01050021 0.02675021 0.02991990
v 0.01050186 0.02675186 0.02986667
v 0.01064609 0.02659101 0.02991990
v 0.01064788 0.02659251 0.02986667
v 0.01077755 0.02641970 0.02991990
v 0.01077945 0.02642103 0.02986667
v 0.01089356 0.02623759 0.02991990
v 0.01089558 0.02623875 0.02986667
v 0.01099327 0.02604605 0.02991990
v 0.01099538 0.02604704 0.02986667
v 0.01107590 0.02584656 0.02991990
v 0.01107809 0.02584735 0.02986667
v 0.01114084 0.02564062 0.02991990
v 0.01114308 0.02564122 0.02986667
v 0.01118757 0.02542981 0.02991990
v 0.01118986 0.02543021 0.02986667
v 0.01121576 0.02521573 0.02991990
v 0.01121807 0.02521593 0.02986667
v 0.01122518 0.02500000 0.02991990
v 0.01122750 0.02500000 0.02986667
v 0.01121576 0.02478427 0.02991990
v 0.01121807 0.02478407 0.02986667
v 0.01118757 0.02457019 0.02991990
v 0.01118986 0.02456979 0.02986667
v 0.01114084 0.02435938 0.02991990
v 0.01114308 0.02435878 0.02986667
v 0.01107590 0.02415344 0.02991990
v 0.01107809 0.02415265 0.02986667
v 0.01099327 0.02395395 0.02991990
v 0.01099538 0.02395296 0.02986667
v 0.01089356 0.02376241 0.02991990
v 0.01089558 0.02376125 0.02986667
v 0.01077755 0.02358030 0.02991990
v 0.01077945 0.02357896 0.02986667
v 0.01064609 0.02340899 0.02991990
v 0.01064788 0.02340749 0.02986667
v 0.01050021 0.02324979 0.02991990
v 0.01050186 0.02324814 0.02986667
v 0.01034101 0.02310391 0.02991990
v 0.01034251 0.02310213 0.02986667
v 0.01016970 0.02297246 0.02991990
v 0.01017104 0.02297055 0.02986667
v 0.00998759 0.02285643 0.02991990
v 0.00998875 0.02285442 0.02986667
v 0.00979605 0.02275673 0.02991990
v 0.00979704 0.02275462 0.02986667
v 0.00959656 0.02267409 0.02991990
v 0.00959735 0.02267191 0.02986667
v 0.00939062 0.02260916 0.02991990
v 0.00939122 0.02260692 0.02986667
v 0.00917981 0.02256243 0.02991990
v 0.00918021 0.02256014 0.02986667
v 0.00896573 0.02253424 0.02991990
v 0.00896593 0.02253193 0.02986667
v 0.00875000 0.02252482 0.02991990
v 0.00875000 0.02252250 0.02986667
v 0.00853427 0.02253424 0.02991990
v 0.00853407 0.02253193 0.02986667
v 0.00832019 0.02256243 0.02991990
v 0.00831979 0.02256014 0.02986667
v 0.00810938 0.02260916 0.02991990
v 0.00810878 0.02260692 0.02986667
v 0.00790344 0.02267409 0.02991990
v 0.00790265 0.02267191 0.02986667
v 0.00770395 0.02275673 0.02991990
v 0.00770296 0.02275462 0.02986667
v 0.00751241 0.02285643 0.02991990
v 0.00751125 0.02285442 0.02986667
v 0.00733030 0.02297246 0.02991990
v 0.00732896 0.02297055 0.02986667
v 0.00715899 0.02310391 0.02991990
v 0.00715749 0.02310213 0.02986667
v 0.00699979 0.02324979 0.02991990
v 0.00699814 0.02324814 0.02986667
v 0.00685391 0.02340899 0.02991990
v 0.00685212 0.02340749 0.02986667
v 0.00672245 0.02358030 0.02991990
v 0.00672055 0.02357896 0.02986667
v 0.00660643 0.02376241 0.02991990
v 0.00660442 0.02376125 0.02986667
v 0.00650673 0.02395395 0.02991990
v 0.00650462 0.02395296 0.02986667
v 0.00642410 0.02415344 0.02991990
v 0.00642191 0.02415265 0.02986667
v 0.00635916 0.02435938 0.02991990
v 0.00635692 0.02435878 0.02986667
v 0.00631243 0.02457019 0.02991990
v 0.00631014 0.02456979 0.02986667
v 0.00628424 0.02478427 0.02991990
v 0.00628193 0.02478407 0.02986667
v 0.00627482 0.02500000 0.02991990
v 0.00627250 0.02500000 0.02986667
v 0.00628424 0.02521573 0.02991990
v 0.00628193 0.02521593 0.02986667
v 0.00631243 0.02542981 0.02991990
v 0.00631014 0.02543021 0.02986667
v 0.00635916 0.02564062 0.02991990
v 0.00635692 0.02564122 0.02986667
v 0.00642410 0.02584656 0.02991990
v 0.00642191 0.02584735 0.02986667
v 0.00650673 0.02604605 0.02991990
v 0.00650462 0.02604704 0.02986667
v 0.00660643 0.02623759 0.02991990
v 0.00660442 0.02623875 0.02986667
v 0.00672245 0.02641970 0.02991990
v 0.00672055 0.02642103 0.02986667
v 0.00685391 0.02659101 0.02991990
v 0.00685212 0.02659251 0.02986667
v 0.00699979 0.02675021 0.02991990
v 0.00699814 0.02675186 0.02986667
v 0.00715899 0.02689609 0.02991990
v 0.00715749 0.02689788 0.02986667
v 0.00733030 0.02702755 0.02991990
v 0.00732896 0.02702945 0.02986667
v 0.00751241 0.02714356 0.02991990
v 0.00751125 0.02714558 0.02986667
v 0.00770395 0.02724327 0.02991990
v 0.00770296 0.02724538 0.02986667
v 0.00790344 0.02732590 0.02991990
v 0.00790265 0.02732809 0.02986667
v 0.00810938 0.02739084 0.02991990
v 0.00810878 0.02739308 0.02986667
v 0.00832019 0.02743757 0.02991990
v 0.00831979 0.02743986 0.02986667
v 0.00853427 0.02746576 0.02991990
v 0.00853407 0.02746807 0.02986667
v 0.00875000 0.02747518 0.02991990
v 0.00896512 0.02745883 0.02997274
v 0.00917860 0.02743072 0.02997274
v 0.00938882 0.02738412 0.02997274
v 0.00959418 0.02731937 0.02997274
v 0.00979311 0.02723697 0.02997274
v 0.00998411 0.02713754 0.02997274
v 0.01016571 0.02702185 0.02997274
v 0.01033654 0.02689077 0.02997274
v 0.01049529 0.02674530 0.02997274
v 0.01064077 0.02658654 0.02997274
v 0.01077185 0.02641571 0.02997274
v 0.01088754 0.02623411 0.02997274
v 0.01098697 0.02604312 0.02997274
v 0.01106937 0.02584418 0.02997274
v 0.01113412 0.02563882 0.02997274
v 0.01118072 0.02542860 0.02997274
v 0.01120883 0.02521512 0.02997274
v 0.01121822 0.02500000 0.02997274
v 0.01120883 0.02478488 0.02997274
v 0.01118072 0.02457140 0.02997274
v 0.01113412 0.02436118 0.02997274
v 0.01106937 0.02415582 0.02997274
v 0.01098697 0.02395689 0.02997274
v 0.01088754 0.02376589 0.02997274
v 0.01077185 0.02358429 0.02997274
v 0.01064077 0.02341346 0.02997274
v 0.01049529 0.02325471 0.02997274
v 0.01033654 0.02310923 0.02997274
v 0.01016571 0.02297815 0.02997274
v 0.00998411 0.02286246 0.02997274
v 0.00979311 0.02276303 0.02997274
v 0.00959418 0.02268063 0.02997274
v 0.00938882 0.02261588 0.02997274
v 0.00917860 0.02256928 0.02997274
v 0.00896512 0.02254117 0.02997274
v 0.00875000 0.02253178 0.02997274
v 0.00853488 0.02254117 0.02997274
v 0.00832140 0.02256928 0.02997274
v 0.00811118 0.02261588 0.02997274
v 0.00790582 0.02268063 0.02997274
v 0.00770689 0.02276303 0.02997274
v 0.00751589 0.02286246 0.02997274
v 0.00733429 0.02297815 0.02997274
v 0.00716346 0.02310923 0.02997274
v 0.00700470 0.02325471 0.02997274
v 0.00685923 0.02341346 0.02997274
v 0.00672815 0.02358429 0.02997274
v 0.00661246 0.02376589 0.02997274
v 0.00651303 0.02395689 0.02997274
v 0.00643063 0.02415582 0.02997274
v 0.00636588 0.02436118 0.02997274
v 0.00631928 0.02457140 0.02997274
v 0.00629117 0.02478488 0.02997274
v 0.00628178 0.02500000 0.02997274
v 0.00629117 0.02521512 0.02997274
v 0.00631928 0.02542860 0.02997274
v 0.00636588 0.02563882 0.02997274
v 0.00643063 0.02584418 0.02997274
v 0.00651303 0.02604312 0.02997274
v 0.00661246 0.02623411 0.02997274
v 0.00672815 0.02641571 0.02997274
v 0.00685923 0.02658654 0.02997274
v 0.00700470 0.02674530 0.02997274
v 0.00716346 0.02689077 0.02997274
v 0.00733429 0.02702185 0.02997274
v 0.00751589 0.02713754 0.02997274
v 0.00770689 0.02723697 0.02997274
v 0.00790582 0.02731937 0.02997274
v 0.00811118 0.02738412 0.02997274
v 0.00832140 0.02743072 0.02997274
v 0.00853488 0.02745883 0.02997274
v 0.00875000 0.02746822 0.02997274
v 0.00896411 0.02744734 0.03002476
v 0.00917660 0.02741936 0.03002476
v 0.00938584 0.02737298 0.03002476
v 0.00959024 0.02730853 0.03002476
v 0.00978824 0.02722651 0.03002476
v 0.00997834 0.02712755 0.03002476
v 0.01015910 0.02701240 0.03002476
v 0.01032913 0.02688193 0.03002476
v 0.01048714 0.02673714 0.03002476
v 0.01063193 0.02657913 0.03002476
v 0.01076240 0.02640910 0.03002476
v 0.01087755 0.02622834 0.03002476
v 0.01097651 0.02603824 0.03002476
v 0.01105853 0.02584024 0.03002476
v 0.01112298 0.02563584 0.03002476
v 0.01116936 0.02542660 0.03002476
v 0.01119734 0.02521412 0.03002476
v 0.01120669 0.02500000 0.03002476
v 0.01119734 0.02478589 0.03002476
v 0.01116936 0.02457340 0.03002476
v 0.01112298 0.02436416 0.03002476
v 0.01105853 0.02415976 0.03002476
v 0.01097651 0.02396176 0.03002476
v 0.01087755 0.02377166 0.03002476
v 0.01076240 0.02359090 0.03002476
v 0.01063193 0.02342087 0.03002476
v 0.01048714 0.02326286 0.03002476
v 0.01032913 0.02311807 0.03002476
v 0.01015910 0.02298760 0.03002476
v 0.00997834 0.02287245 0.03002476
v 0.00978824 0.02277349 0.03002476
v 0.00959024 0.02269147 0.03002476
v 0.00938584 0.02262702 0.03002476
v 0.00917660 0.02258064 0.03002476
v 0.00896411 0.02255266 0.03002476
v 0.00875000 0.02254331 0.03002476
v 0.00853589 0.02255266 0.03002476
v 0.00832340 0.02258064 0.03002476
v 0.00811416 0.02262702 0.03002476
v 0.00790976 0.02269147 0.03002476
v 0.00771176 0.02277349 0.03002476
v 0.00752166 0.02287245 0.03002476
v 0.00734090 0.02298760 0.03002476
v 0.00717087 0.02311807 0.03002476
v 0.00701286 0.02326286 0.03002476
v 0.00686807 0.02342087 0.03002476
v 0.00673760 0.02359090 0.03002476
v 0.00662245 0.02377166 0.03002476
v 0.00652349 0.02396176 0.03002476
v 0.00644147 0.02415976 0.03002476
v 0.00637702 0.02436416 0.03002476
v 0.00633064 0.02457340 0.03002476
v 0.00630266 0.02478589 0.03002476
v 0.00629331 0.02500000 0.03002476
v 0.00630266 0.02521412 0.03002476
v 0.00633064 0.02542660 0.03002476
v 0.00637702 0.02563584 0.03002476
v 0.00644147 0.02584024 0.03002476
v 0.00652349 0.02603824 0.03002476
v 0.00662245 0.02622834 0.03002476
v 0.00673760 0.02640910 0.03002476
v 0.00686807 0.02657913 0.03002476
v 0.00701286 0.02673714 0.03002476
v 0.00717087 0.02688193 0.03002476
v 0.00734090 0.02701240 0.03002476
v 0.00752166 0.02712755 0.03002476
v 0.00771176 0.02722651 0.03002476
v 0.00790976 0.02730853 0.03002476
v 0.00811416 0.02737298 0.03002476
v 0.00832340 0.02741936 0.03002476
v 0.00853589 0.02744734 0.03002476
v 0.00875000 0.02745669 0.03002476
v 0.00896272 0.02743137 0.03007558
v 0.00917382 0.02740358 0.03007558
v 0.00938169 0.02735750 0.03007558
v 0.00958476 0.02729347 0.03007558
v 0.00978147 0.02721199 0.03007558
v 0.00997033 0.02711368 0.03007558
v 0.01014991 0.02699927 0.03007558
v 0.01031883 0.02686966 0.03007558
v 0.01047581 0.02672581 0.03007558
v 0.01061966 0.02656883 0.03007558
v 0.01074927 0.02639991 0.03007558
v 0.01086368 0.02622033 0.03007558
v 0.01096199 0.02603147 0.03007558
v 0.01104347 0.02583476 0.03007558
v 0.01110750 0.02563169 0.03007558
v 0.01115358 0.02542382 0.03007558
v 0.01118138 0.02521272 0.03007558
v 0.01119066 0.02500000 0.03007558
v 0.01118138 0.02478728 0.03007558
v 0.01115358 0.02457618 0.03007558
v 0.01110750 0.02436831 0.03007558
v 0.01104347 0.02416524 0.03007558
v 0.01096199 0.02396853 0.03007558
v 0.01086368 0.02377967 0.03007558
v 0.01074927 0.02360009 0.03007558
v 0.01061966 0.02343117 0.03007558
v 0.01047581 0.02327419 0.03007558
v 0.01031883 0.02313034 0.03007558
v 0.01014991 0.02300073 0.03007558
v 0.00997033 0.02288632 0.03007558
v 0.00978147 0.02278801 0.03007558
v 0.00958476 0.02270653 0.03007558
v 0.00938169 0.02264250 0.03007558
v 0.00917382 0.02259642 0.03007558
v 0.00896272 0.02256862 0.03007558
v 0.00875000 0.02255934 0.03007558
v 0.00853728 0.02256862 0.03007558
v 0.00832618 0.02259642 0.03007558
v 0.00811831 0.02264250 0.03007558
v 0.00791524 0.02270653 0.03007558
v 0.00771853 0.02278801 0.03007558
v 0.00752967 0.02288632 0.03007558
v 0.00735009 0.02300073 0.03007558
v 0.00718117 0.02313034 0.03007558
v 0.00702419 0.02327419 0.03007558
v 0.00688034 0.02343117 0.03007558
v 0.00675073 0.02360009 0.03007558
v 0.00663632 0.02377967 0.03007558
v 0.00653801 0.02396853 0.03007558
v 0.00645653 0.02416524 0.03007558
v 0.00639250 0.02436831 0.03007558
v 0.00634642 0.02457618 0.03007558
v 0.00631863 0.02478728 0.03007558
v 0.00630934 0.02500000 0.03007558
v 0.00631863 0.02521272 0.03007558
v 0.00634642 0.02542382 0.03007558
v 0.00639250 0.02563169 0.03007558
v 0.00645653 0.02583476 0.03007558
v 0.00653801 0.02603147 0.03007558
v 0.00663632 0.02622033 0.03007558
v 0.00675073 0.02639991 0.03007558
v 0.00688034 0.02656883 0.03007558
v 0.00702419 0.02672581 0.03007558
v 0.00718117 0.02686966 0.03007558
v 0.00735009 0.02699927 0.03007558
v 0.00752967 0.02711368 0.03007558
v 0.00771853 0.02721199 0.03007558
v 0.00791524 0.02729347 0.03007558
v 0.00811831 0.02735750 0.03007558
v 0.00832618 0.02740358 0.03007558
v 0.00853728 0.02743137 0.03007558
v 0.00875000 0.02744066 0.03007558
v 0.00896094 0.02741106 0.03012482
v 0.00917028 0.02738350 0.03012482
v 0.00937641 0.02733780 0.03012482
v 0.00957778 0.02727431 0.03012482
v 0.00977285 0.02719351 0.03012482
v 0.00996013 0.02709601 0.03012482
v 0.01013821 0.02698257 0.03012482
v 0.01030572 0.02685403 0.03012482
v 0.01046139 0.02671139 0.03012482
v 0.01060403 0.02655572 0.03012482
v 0.01073257 0.02638821 0.03012482
v 0.01084602 0.02621013 0.03012482
v 0.01094351 0.02602285 0.03012482
v 0.01102431 0.02582778 0.03012482
v 0.01108780 0.02562641 0.03012482
v 0.01113350 0.02542027 0.03012482
v 0.01116106 0.02521094 0.03012482
v 0.01117027 0.02500000 0.03012482
v 0.01116106 0.02478906 0.03012482
v 0.01113350 0.02457972 0.03012482
v 0.01108780 0.02437359 0.03012482
v 0.01102431 0.02417222 0.03012482
v 0.01094351 0.02397715 0.03012482
v 0.01084602 0.02378987 0.03012482
v 0.01073257 0.02361179 0.03012482
v 0.01060403 0.02344428 0.03012482
v 0.01046139 0.02328861 0.03012482
v 0.01030572 0.02314597 0.03012482
v 0.01013821 0.02301743 0.03012482
v 0.00996013 0.02290398 0.03012482
v 0.00977285 0.02280649 0.03012482
v 0.00957778 0.02272569 0.03012482
v 0.00937641 0.02266220 0.03012482
v 0.00917028 0.02261650 0.03012482
v 0.00896094 0.02258894 0.03012482
v 0.00875000 0.02257973 0.03012482
v 0.00853906 0.02258894 0.03012482
v 0.00832972 0.02261650 0.03012482
v 0.00812359 0.02266220 0.03012482
v 0.00792222 0.02272569 0.03012482
v 0.00772715 0.02280649 0.03012482
v 0.00753987 0.02290398 0.03012482
v 0.00736179 0.02301743 0.03012482
v 0.00719428 0.02314597 0.03012482
v 0.00703861 0.02328861 0.03012482
v 0.00689597 0.02344428 0.03012482
v 0.00676743 0.02361179 0.03012482
v 0.00665399 0.02378987 0.03012482
v 0.00655649 0.02397715 0.03012482
v 0.00647569 0.02417222 0.03012482
v 0.00641220 0.02437359 0.03012482
v 0.00636650 0.02457972 0.03012482
v 0.00633894 0.02478906 0.03012482
v 0.00632973 0.02500000 0.03012482
v 0.00633894 0.02521094 0.03012482
v 0.00636650 0.02542027 0.03012482
v 0.00641220 0.02562641 0.03012482
v 0.00647569 0.02582778 0.03012482
v 0.00655649 0.02602285 0.03012482
v 0.00665399 0.02621013 0.03012482
v 0.00676743 0.02638821 0.03012482
v 0.00689597 0.02655572 0.03012482
v 0.00703861 0.02671139 0.03012482
v 0.00719428 0.02685403 0.03012482
v 0.00736179 0.02698257 0.03012482
v 0.00753987 0.02709601 0.03012482
v 0.00772715 0.02719351 0.03012482
v 0.00792222 0.02727431 0.03012482
v 0.00812359 0.02733780 0.03012482
v 0.00832972 0.02738350 0.03012482
v 0.00853906 0.02741106 0.03012482
v 0.00875000 0.02742027 0.03012482
v 0.00895880 0.02738655 0.03017208
v 0.00916600 0.02735927 0.03017208
v 0.00937004 0.02731403 0.03017208
v 0.00956937 0.02725119 0.03017208
v 0.00976245 0.02717121 0.03017208
v 0.00994783 0.02707471 0.03017208
v 0.01012410 0.02696241 0.03017208
v 0.01028990 0.02683518 0.03017208
v 0.01044399 0.02669399 0.03017208
v 0.01058519 0.02653990 0.03017208
v 0.01071241 0.02637410 0.03017208
v 0.01082471 0.02619783 0.03017208
v 0.01092121 0.02601245 0.03017208
v 0.01100119 0.02581936 0.03017208
v 0.01106403 0.02562004 0.03017208
v 0.01110927 0.02541600 0.03017208
v 0.01113655 0.02520880 0.03017208
v 0.01114566 0.02500000 0.03017208
v 0.01113655 0.02479120 0.03017208
v 0.01110927 0.02458400 0.03017208
v 0.01106403 0.02437996 0.03017208
v 0.01100119 0.02418063 0.03017208
v 0.01092121 0.02398755 0.03017208
v 0.01082471 0.02380217 0.03017208
v 0.01071241 0.02362590 0.03017208
v 0.01058519 0.02346010 0.03017208
v 0.01044399 0.02330601 0.03017208
v 0.01028990 0.02316481 0.03017208
v 0.01012410 0.02303759 0.03017208
v 0.00994783 0.02292529 0.03017208
v 0.00976245 0.02282879 0.03017208
v 0.00956937 0.02274881 0.03017208
v 0.00937004 0.02268597 0.03017208
v 0.00916600 0.02264073 0.03017208
v 0.00895880 0.02261345 0.03017208
v 0.00875000 0.02260434 0.03017208
v 0.00854120 0.02261345 0.03017208
v 0.00833400 0.02264073 0.03017208
v 0.00812996 0.02268597 0.03017208
v 0.00793063 0.02274881 0.03017208
v 0.00773755 0.02282879 0.03017208
v 0.00755217 0.02292529 0.03017208
v 0.00737590 0.02303759 0.03017208
v 0.00721010 0.02316481 0.03017208
v 0.00705601 0.02330601 0.03017208
v 0.00691481 0.02346010 0.03017208
v 0.00678759 0.02362590 0.03017208
v 0.00667529 0.02380217 0.03017208
v 0.00657879 0.02398755 0.03017208
v 0.00649881 0.02418063 0.03017208
v 0.00643597 0.02437996 0.03017208
v 0.00639073 0.02458400 0.03017208
v 0.00636345 0.02479120 0.03017208
v 0.00635434 0.02500000 0.03017208
v 0.00636345 0.02520880 0.03017208
v 0.00639073 0.02541600 0.03017208
v 0.00643597 0.02562004 0.03017208
v 0.00649881 0.02581936 0.03017208
v 0.00657879 0.02601245 0.03017208
v 0.00667529 0.02619783 0.03017208
v 0.00678759 0.02637410 0.03017208
v 0.00691481 0.02653990 0.03017208
v 0.00705601 0.02669399 0.03017208
v 0.00721010 0.02683518 0.03017208
v 0.00737590 0.02696241 0.03017208
v 0.00755217 0.02707471 0.03017208
v 0.00773755 0.02717121 0.03017208
v 0.00793063 0.02725119 0.03017208
v 0.00812996 0.02731403 0.03017208
v 0.00833400 0.02735927 0.03017208
v 0.00854120 0.02738655 0.03017208
v 0.00875000 0.02739566 0.03017208
v 0.00895630 0.02735803 0.03021703
v 0.00916103 0.02733107 0.03021703
v 0.00936263 0.02728638 0.03021703
v 0.00955957 0.02722428 0.03021703
v 0.00975035 0.02714526 0.03021703
v 0.00993352 0.02704991 0.03021703
v 0.01010767 0.02693896 0.03021703
v 0.01027150 0.02681325 0.03021703
v 0.01042374 0.02667374 0.03021703
v 0.01056325 0.02652150 0.03021703
v 0.01068896 0.02635767 0.03021703
v 0.01079991 0.02618352 0.03021703
v 0.01089526 0.02600035 0.03021703
v 0.01097428 0.02580957 0.03021703
v 0.01103638 0.02561263 0.03021703
v 0.01108107 0.02541103 0.03021703
v 0.01110802 0.02520630 0.03021703
v 0.01111703 0.02500000 0.03021703
v 0.01110802 0.02479370 0.03021703
v 0.01108107 0.02458897 0.03021703
v 0.01103638 0.02438737 0.03021703
v 0.01097428 0.02419043 0.03021703
v 0.01089526 0.02399965 0.03021703
v 0.01079991 0.02381648 0.03021703
v 0.01068896 0.02364233 0.03021703
v 0.01056325 0.02347850 0.03021703
v 0.01042374 0.02332626 0.03021703
v 0.01027150 0.02318675 0.03021703
v 0.01010767 0.02306104 0.03021703
v 0.00993352 0.02295009 0.03021703
v 0.00975035 0.02285474 0.03021703
v 0.00955957 0.02277572 0.03021703
v 0.00936263 0.02271362 0.03021703
v 0.00916103 0.02266893 0.03021703
v 0.00895630 0.02264198 0.03021703
v 0.00875000 0.02263297 0.03021703
v 0.00854370 0.02264198 0.03021703
v 0.00833897 0.02266893 0.03021703
v 0.00813737 0.02271362 0.03021703
v 0.00794043 0.02277572 0.03021703
v 0.00774965 0.02285474 0.03021703
v 0.00756648 0.02295009 0.03021703
v 0.00739233 0.02306104 0.03021703
v 0.00722850 0.02318675 0.03021703
v 0.00707626 0.02332626 0.03021703
v 0.00693675 0.02347850 0.03021703
v 0.00681104 0.02364233 0.03021703
v 0.00670009 0.02381648 0.03021703
v 0.00660474 0.02399965 0.03021703
v 0.00652572 0.02419043 0.03021703
v 0.00646362 0.02438737 0.03021703
v 0.00641893 0.02458897 0.03021703
v 0.00639198 0.02479370 0.03021703
v 0.00638297 0.02500000 0.03021703
v 0.00639198 0.02520630 0.03021703
v 0.00641893 0.02541103 0.03021703
v 0.00646362 0.02561263 0.03021703
v 0.00652572 0.02580957 0.03021703
v 0.00660474 0.02600035 0.03021703
v 0.00670009 0.02618352 0.03021703
v 0.00681104 0.02635767 0.03021703
v 0.00693675 0.02652150 0.03021703
v 0.00707626 0.02667374 0.03021703
v 0.00722850 0.02681325 0.03021703
v 0.00739233 0.02693896 0.03021703
v 0.00756648 0.02704991 0.03021703
v 0.00774965 0.02714526 0.03021703
v 0.00794043 0.02722428 0.03021703
v 0.00813737 0.02728638 0.03021703
v 0.00833897 0.02733107 0.03021703
v 0.00854370 0.02735803 0.03021703
v 0.00875000 0.02736703 0.03021703
v 0.00895347 0.02732571 0.03025930
v 0.00915540 0.02729912 0.03025930
v 0.00935424 0.02725504 0.03025930
v 0.00954848 0.02719380 0.03025930
v 0.00973664 0.02711586 0.03025930
v 0.00991730 0.02702182 0.03025930
v 0.01008907 0.02691239 0.03025930
v 0.01025065 0.02678840 0.03025930
v 0.01040081 0.02665081 0.03025930
v 0.01053840 0.02650065 0.03025930
v 0.01066239 0.02633907 0.03025930
v 0.01077182 0.02616730 0.03025930
v 0.01086586 0.02598664 0.03025930
v 0.01094380 0.02579848 0.03025930
v 0.01100504 0.02560424 0.03025930
v 0.01104912 0.02540540 0.03025930
v 0.01107571 0.02520347 0.03025930
v 0.01108459 0.02500000 0.03025930
v 0.01107571 0.02479653 0.03025930
v 0.01104912 0.02459460 0.03025930
v 0.01100504 0.02439576 0.03025930
v 0.01094380 0.02420152 0.03025930
v 0.01086586 0.02401336 0.03025930
v 0.01077182 0.02383270 0.03025930
v 0.01066239 0.02366093 0.03025930
v 0.01053840 0.02349935 0.03025930
v 0.01040081 0.02334919 0.03025930
v 0.01025065 0.02321160 0.03025930
v 0.01008907 0.02308761 0.03025930
v 0.00991730 0.02297818 0.03025930
v 0.00973664 0.02288414 0.03025930
v 0.00954848 0.02280620 0.03025930
v 0.00935424 0.02274496 0.03025930
v 0.00915540 0.02270088 0.03025930
v 0.00895347 0.02267429 0.03025930
v 0.00875000 0.02266541 0.03025930
v 0.00854653 0.02267429 0.03025930
v 0.00834460 0.02270088 0.03025930
v 0.00814576 0.02274496 0.03025930
v 0.00795152 0.02280620 0.03025930
v 0.00776336 0.02288414 0.03025930
v 0.00758270 0.02297818 0.03025930
v 0.00741093 0.02308761 0.03025930
v 0.00724935 0.02321160 0.03025930
v 0.00709919 0.02334919 0.03025930
v 0.00696160 0.02349935 0.03025930
v 0.00683761 0.02366093 0.03025930
v 0.00672818 0.02383270 0.03025930
v 0.00663414 0.02401336 0.03025930
v 0.00655620 0.02420152 0.03025930
v 0.00649496 0.02439576 0.03025930
v 0.00645088 0.02459460 0.03025930
v 0.00642429 0.02479653 0.03025930
v 0.00641541 0.02500000 0.03025930
v 0.00642429 0.02520347 0.03025930
v 0.00645088 0.02540540 0.03025930
v 0.00649496 0.02560424 0.03025930
v 0.00655620 0.02579848 0.03025930
v 0.00663414 0.02598664 0.03025930
v 0.00672818 0.02616730 0.03025930
v 0.00683761 0.02633907 0.03025930
v 0.00696160 0.02650065 0.03025930
v 0.00709919 0.02665081 0.03025930
v 0.00724935 0.02678840 0.03025930
v 0.00741093 0.02691239 0.03025930
v 0.00758270 0.02702182 0.03025930
v 0.00776336 0.02711586 0.03025930
v 0.00795152 0.02719380 0.03025930
v 0.00814576 0.02725504 0.03025930
v 0.00834460 0.02729912 0.03025930
v 0.00854653 0.02732571 0.03025930
v 0.00875000 0.02733459 0.03025930
v 0.00895033 0.02728985 0.03029859
v 0.00914915 0.02726367 0.03029859
v 0.00934492 0.02722027 0.03029859
v 0.00953616 0.02715997 0.03029859
v 0.00972143 0.02708323 0.03029859
v 0.00989930 0.02699064 0.03029859
v 0.01006842 0.02688290 0.03029859
v 0.01022751 0.02676082 0.03029859
v 0.01037535 0.02662535 0.03029859
v 0.01051082 0.02647751 0.03029859
v 0.01063290 0.02631842 0.03029859
v 0.01074064 0.02614930 0.03029859
v 0.01083323 0.02597143 0.03029859
v 0.01090997 0.02578617 0.03029859
v 0.01097027 0.02559492 0.03029859
v 0.01101367 0.02539915 0.03029859
v 0.01103984 0.02520034 0.03029859
v 0.01104859 0.02500000 0.03029859
v 0.01103984 0.02479967 0.03029859
v 0.01101367 0.02460085 0.03029859
v 0.01097027 0.02440508 0.03029859
v 0.01090997 0.02421384 0.03029859
v 0.01083323 0.02402857 0.03029859
v 0.01074064 0.02385070 0.03029859
v 0.01063290 0.02368158 0.03029859
v 0.01051082 0.02352249 0.03029859
v 0.01037535 0.02337465 0.03029859
v 0.01022751 0.02323918 0.03029859
v 0.01006842 0.02311710 0.03029859
v 0.00989930 0.02300936 0.03029859
v 0.00972143 0.02291677 0.03029859
v 0.00953616 0.02284003 0.03029859
v 0.00934492 0.02277973 0.03029859
v 0.00914915 0.02273633 0.03029859
v 0.00895033 0.02271016 0.03029859
v 0.00875000 0.02270141 0.03029859
v 0.00854966 0.02271016 0.03029859
v 0.00835085 0.02273633 0.03029859
v 0.00815508 0.02277973 0.03029859
v 0.00796384 0.02284003 0.03029859
v 0.00777857 0.02291677 0.03029859
v 0.00760070 0.02300936 0.03029859
v 0.00743158 0.02311710 0.03029859
v 0.00727249 0.02323918 0.03029859
v 0.00712465 0.02337465 0.03029859
v 0.00698918 0.02352249 0.03029859
v 0.00686710 0.02368158 0.03029859
v 0.00675936 0.02385070 0.03029859
v 0.00666677 0.02402857 0.03029859
v 0.00659003 0.02421384 0.03029859
v 0.00652973 0.02440508 0.03029859
v 0.00648633 0.02460085 0.03029859
v 0.00646016 0.02479967 0.03029859
v 0.00645141 0.02500000 0.03029859
v 0.00646016 0.02520034 0.03029859
v 0.00648633 0.02539915 0.03029859
v 0.00652973 0.02559492 0.03029859
v 0.00659003 0.02578617 0.03029859
v 0.00666677 0.02597143 0.03029859
v 0.00675936 0.02614930 0.03029859
v 0.00686710 0.02631842 0.03029859
v 0.00698918 0.02647751 0.03029859
v 0.00712465 0.02662535 0.03029859
v 0.00727249 0.02676082 0.03029859
v 0.00743158 0.02688290 0.03029859
v 0.00760070 0.02699064 0.03029859
v 0.00777857 0.02708323 0.03029859
v 0.00796384 0.02715997 0.03029859
v 0.00815508 0.02722027 0.03029859
v 0.00835085 0.02726367 0.03029859
v 0.00854966 0.02728985 0.03029859
v 0.00875000 0.02729859 0.03029859
v 0.00894691 0.02725071 0.03033459
v 0.00914232 0.02722498 0.03033459
v 0.00933475 0.02718232 0.03033459
v 0.00952273 0.02712305 0.03033459
v 0.00970482 0.02704762 0.03033459
v 0.00987965 0.02695661 0.03033459
v 0.01004588 0.02685071 0.03033459
v 0.01020225 0.02673073 0.03033459
v 0.01034757 0.02659757 0.03033459
v 0.01048073 0.02645225 0.03033459
v 0.01060071 0.02629588 0.03033459
v 0.01070661 0.02612965 0.03033459
v 0.01079762 0.02595482 0.03033459
v 0.01087305 0.02577273 0.03033459
v 0.01093232 0.02558475 0.03033459
v 0.01097498 0.02539232 0.03033459
v 0.01100071 0.02519691 0.03033459
v 0.01100930 0.02500000 0.03033459
v 0.01100071 0.02480309 0.03033459
v 0.01097498 0.02460768 0.03033459
v 0.01093232 0.02441525 0.03033459
v 0.01087305 0.02422727 0.03033459
v 0.01079762 0.02404518 0.03033459
v 0.01070661 0.02387035 0.03033459
v 0.01060071 0.02370412 0.03033459
v 0.01048073 0.02354775 0.03033459
v 0.01034757 0.02340243 0.03033459
v 0.01020225 0.02326927 0.03033459
v 0.01004588 0.02314929 0.03033459
v 0.00987965 0.02304339 0.03033459
v 0.00970482 0.02295238 0.03033459
v 0.00952273 0.02287695 0.03033459
v 0.00933475 0.02281768 0.03033459
v 0.00914232 0.02277502 0.03033459
v 0.00894691 0.02274930 0.03033459
v 0.00875000 0.02274070 0.03033459
v 0.00855309 0.02274930 0.03033459
v 0.00835768 0.02277502 0.03033459
v 0.00816525 0.02281768 0.03033459
v 0.00797727 0.02287695 0.03033459
v 0.00779518 0.02295238 0.03033459
v 0.00762035 0.02304339 0.03033459
v 0.00745412 0.02314929 0.03033459
v 0.00729775 0.02326927 0.03033459
v 0.00715243 0.02340243 0.03033459
v 0.00701927 0.02354775 0.03033459
v 0.00689929 0.02370412 0.03033459
v 0.00679339 0.02387035 0.03033459
v 0.00670238 0.02404518 0.03033459
v 0.00662695 0.02422727 0.03033459
v 0.00656768 0.02441525 0.03033459
v 0.00652502 0.02460768 0.03033459
v 0.00649929 0.02480309 0.03033459
v 0.00649070 0.02500000 0.03033459
v 0.00649929 0.02519691 0.03033459
v 0.00652502 0.02539232 0.03033459
v 0.00656768 0.02558475 0.03033459
v 0.00662695 0.02577273 0.03033459
v 0.00670238 0.02595482 0.03033459
v 0.00679339 0.02612965 0.03033459
v 0.00689929 0.02629588 0.03033459
v 0.00701927 0.02645225 0.03033459
v 0.00715243 0.02659757 0.03033459
v 0.00729775 0.02673073 0.03033459
v 0.00745412 0.02685071 0.03033459
v 0.00762035 0.02695661 0.03033459
v 0.00779518 0.02704762 0.03033459
v 0.00797727 0.02712305 0.03033459
v 0.00816525 0.02718232 0.03033459
v 0.00835768 0.02722498 0.03033459
v 0.00855309 0.02725071 0.03033459
v 0.00875000 0.02725930 0.03033459
v 0.00894323 0.02720859 0.03036703
v 0.00913498 0.02718334 0.03036703
v 0.00932381 0.02714148 0.03036703
v 0.00950827 0.02708332 0.03036703
v 0.00968696 0.02700931 0.03036703
v 0.00985851 0.02692000 0.03036703
v 0.01002163 0.02681608 0.03036703
v 0.01017508 0.02669834 0.03036703
v 0.01031767 0.02656768 0.03036703
v 0.01044834 0.02642508 0.03036703
v 0.01056608 0.02627163 0.03036703
v 0.01067000 0.02610851 0.03036703
v 0.01075931 0.02593696 0.03036703
v 0.01083332 0.02575827 0.03036703
v 0.01089148 0.02557381 0.03036703
v 0.01093334 0.02538498 0.03036703
v 0.01095859 0.02519323 0.03036703
v 0.01096703 0.02500000 0.03036703
v 0.01095859 0.02480677 0.03036703
v 0.01093334 0.02461502 0.03036703
v 0.01089148 0.02442619 0.03036703
v 0.01083332 0.02424173 0.03036703
v 0.01075931 0.02406304 0.03036703
v 0.01067000 0.02389149 0.03036703
v 0.01056608 0.02372837 0.03036703
v 0.01044834 0.02357492 0.03036703
v 0.01031767 0.02343233 0.03036703
v 0.01017508 0.02330166 0.03036703
v 0.01002163 0.02318392 0.03036703
v 0.00985851 0.02308000 0.03036703
v 0.00968696 0.02299069 0.03036703
v 0.00950827 0.02291668 0.03036703
v 0.00932381 0.02285852 0.03036703
v 0.00913498 0.02281666 0.03036703
v 0.00894323 0.02279141 0.03036703
v 0.00875000 0.02278297 0.03036703
v 0.00855677 0.02279141 0.03036703
v 0.00836502 0.02281666 0.03036703
v 0.00817619 0.02285852 0.03036703
v 0.00799173 0.02291668 0.03036703
v 0.00781304 0.02299069 0.03036703
v 0.00764149 0.02308000 0.03036703
v 0.00747837 0.02318392 0.03036703
v 0.00732492 0.02330166 0.03036703
v 0.00718233 0.02343233 0.03036703
v 0.00705166 0.02357492 0.03036703
v 0.00693392 0.02372837 0.03036703
v 0.00683000 0.02389149 0.03036703
v 0.00674069 0.02406304 0.03036703
v 0.00666668 0.02424173 0.03036703
v 0.00660852 0.02442619 0.03036703
v 0.00656666 0.02461502 0.03036703
v 0.00654141 0.02480677 0.03036703
v 0.00653297 0.02500000 0.03036703
v 0.00654141 0.02519323 0.03036703
v 0.00656666 0.02538498 0.03036703
v 0.00660852 0.02557381 0.03036703
v 0.00666668 0.02575827 0.03036703
v 0.00674069 0.02593696 0.03036703
v 0.00683000 0.02610851 0.03036703
v 0.00693392 0.02627163 0.03036703
v 0.00705166 0.02642508 0.03036703
v 0.00718233 0.02656768 0.03036703
v 0.00732492 0.02669834 0.03036703
v 0.00747837 0.02681608 0.03036703
v 0.00764149 0.02692000 0.03036703
v 0.00781304 0.02700931 0.03036703
v 0.00799173 0.02708332 0.03036703
v 0.00817619 0.02714148 0.03036703
v 0.00836502 0.02718334 0.03036703
v 0.00855677 0.02720859 0.03036703
v 0.00875000 0.02721703 0.03036703
v 0.00893931 0.02716382 0.03039566
v 0.00912718 0.02713908 0.03039566
v 0.00931218 0.02709807 0.03039566
v 0.00949290 0.02704109 0.03039566
v 0.00966796 0.02696858 0.03039566
v 0.00983604 0.02688108 0.03039566
v 0.00999586 0.02677927 0.03039566
v 0.01014619 0.02666391 0.03039566
v 0.01028590 0.02653589 0.03039566
v 0.01041391 0.02639619 0.03039566
v 0.01052927 0.02624586 0.03039566
v 0.01063108 0.02608604 0.03039566
v 0.01071858 0.02591796 0.03039566
v 0.01079109 0.02574290 0.03039566
v 0.01084807 0.02556218 0.03039566
v 0.01088908 0.02537718 0.03039566
v 0.01091382 0.02518931 0.03039566
v 0.01092208 0.02500000 0.03039566
v 0.01091382 0.02481069 0.03039566
v 0.01088908 0.02462282 0.03039566
v 0.01084807 0.02443782 0.03039566
v 0.01079109 0.02425710 0.03039566
v 0.01071858 0.02408204 0.03039566
v 0.01063108 0.02391396 0.03039566
v 0.01052927 0.02375414 0.03039566
v 0.01041391 0.02360381 0.03039566
v 0.01028590 0.02346411 0.03039566
v 0.01014619 0.02333609 0.03039566
v 0.00999586 0.02322073 0.03039566
v 0.00983604 0.02311892 0.03039566
v 0.00966796 0.02303142 0.03039566
v 0.00949290 0.02295891 0.03039566
v 0.00931218 0.02290193 0.03039566
v 0.00912718 0.02286092 0.03039566
v 0.00893931 0.02283618 0.03039566
v 0.00875000 0.02282792 0.03039566
v 0.00856069 0.02283618 0.03039566
v 0.00837282 0.02286092 0.03039566
v 0.00818782 0.02290193 0.03039566
v 0.00800710 0.02295891 0.03039566
v 0.00783204 0.02303142 0.03039566
v 0.00766396 0.02311892 0.03039566
v 0.00750414 0.02322073 0.03039566
v 0.00735381 0.02333609 0.03039566
v 0.00721411 0.02346411 0.03039566
v 0.00708609 0.02360381 0.03039566
v 0.00697073 0.02375414 0.03039566
v 0.00686892 0.02391396 0.03039566
v 0.00678142 0.02408204 0.03039566
v 0.00670891 0.02425710 0.03039566
v 0.00665193 0.02443782 0.03039566
v 0.00661092 0.02462282 0.03039566
v 0.00658618 0.02481069 0.03039566
v 0.00657792 0.02500000 0.03039566
v 0.00658618 0.02518931 0.03039566
v 0.00661092 0.02537718 0.03039566
v 0.00665193 0.02556218 0.03039566
v 0.00670891 0.02574290 0.03039566
v 0.00678142 0.02591796 0.03039566
v 0.00686892 0.02608604 0.03039566
v 0.00697073 0.02624586 0.03039566
v 0.00708609 0.02639619 0.03039566
v 0.00721411 0.02653589 0.03039566
v 0.00735381 0.02666391 0.03039566
v 0.00750414 0.02677927 0.03039566
v 0.00766396 0.02688108 0.03039566
v 0.00783204 0.02696858 0.03039566
v 0.00800710 0.02704109 0.03039566
v 0.00818782 0.02709807 0.03039566
v 0.00837282 0.02713908 0.03039566
v 0.00856069 0.02716382 0.03039566
v 0.00875000 0.02717208 0.03039566
v 0.00893519 0.02711673 0.03042027
v 0.00911897 0.02709254 0.03042027
v 0.00929994 0.02705242 0.03042027
v 0.00947673 0.02699667 0.03042027
v 0.00964799 0.02692574 0.03042027
v 0.00981241 0.02684014 0.03042027
v 0.00996874 0.02674055 0.03042027
v 0.01011581 0.02662770 0.03042027
v 0.01025247 0.02650247 0.03042027
v 0.01037770 0.02636581 0.03042027
v 0.01049055 0.02621874 0.03042027
v 0.01059014 0.02606241 0.03042027
v 0.01067574 0.02589799 0.03042027
v 0.01074667 0.02572673 0.03042027
v 0.01080241 0.02554994 0.03042027
v 0.01084254 0.02536897 0.03042027
v 0.01086673 0.02518519 0.03042027
v 0.01087482 0.02500000 0.03042027
v 0.01086673 0.02481481 0.03042027
v 0.01084254 0.02463103 0.03042027
v 0.01080241 0.02445006 0.03042027
v 0.01074667 0.02427327 0.03042027
v 0.01067574 0.02410201 0.03042027
v 0.01059014 0.02393759 0.03042027
v 0.01049055 0.02378125 0.03042027
v 0.01037770 0.02363420 0.03042027
v 0.01025247 0.02349753 0.03042027
v 0.01011581 0.02337230 0.03042027
v 0.00996874 0.02325945 0.03042027
v 0.00981241 0.02315986 0.03042027
v 0.00964799 0.02307426 0.03042027
v 0.00947673 0.02300333 0.03042027
v 0.00929994 0.02294759 0.03042027
v 0.00911897 0.02290746 0.03042027
v 0.00893519 0.02288327 0.03042027
v 0.00875000 0.02287518 0.03042027
v 0.00856481 0.02288327 0.03042027
v 0.00838103 0.02290746 0.03042027
v 0.00820006 0.02294759 0.03042027
v 0.00802327 0.02300333 0.03042027
v 0.00785201 0.02307426 0.03042027
v 0.00768759 0.02315986 0.03042027
v 0.00753126 0.02325945 0.03042027
v 0.00738419 0.02337230 0.03042027
v 0.00724753 0.02349753 0.03042027
v 0.00712230 0.02363420 0.03042027
v 0.00700945 0.02378125 0.03042027
v 0.00690986 0.02393759 0.03042027
v 0.00682426 0.02410201 0.03042027
v 0.00675333 0.02427327 0.03042027
v 0.00669759 0.02445006 0.03042027
v 0.00665746 0.02463103 0.03042027
v 0.00663327 0.02481481 0.03042027
v 0.00662518 0.02500000 0.03042027
v 0.00663327 0.02518519 0.03042027
v 0.00665746 0.02536897 0.03042027
v 0.00669759 0.02554994 0.03042027
v 0.00675333 0.02572673 0.03042027
v 0.00682426 0.02589799 0.03042027
v 0.00690986 0.02606241 0.03042027
v 0.00700945 0.02621874 0.03042027
v 0.00712230 0.02636581 0.03042027
v 0.00724753 0.02650247 0.03042027
v 0.00738419 0.02662770 0.03042027
v 0.00753126 0.02674055 0.03042027
v 0.00768759 0.02684014 0.03042027
v 0.00785201 0.02692574 0.03042027
v 0.00802327 0.02699667 0.03042027
v 0.00820006 0.02705242 0.03042027
v 0.00838103 0.02709254 0.03042027
v 0.00856481 0.02711673 0.03042027
v 0.00875000 0.02712482 0.03042027
v 0.00893090 0.02706769 0.03044066
v 0.00911042 0.02704405 0.03044066
v 0.00928720 0.02700486 0.03044066
v 0.00945989 0.02695041 0.03044066
v 0.00962718 0.02688112 0.03044066
v 0.00978779 0.02679751 0.03044066
v 0.00994051 0.02670022 0.03044066
v 0.01008416 0.02658999 0.03044066
v 0.01021766 0.02646766 0.03044066
v 0.01033999 0.02633416 0.03044066
v 0.01045022 0.02619051 0.03044066
v 0.01054751 0.02603779 0.03044066
v 0.01063112 0.02587718 0.03044066
v 0.01070041 0.02570989 0.03044066
v 0.01075486 0.02553720 0.03044066
v 0.01079405 0.02536042 0.03044066
v 0.01081769 0.02518090 0.03044066
v 0.01082558 0.02500000 0.03044066
v 0.01081769 0.02481910 0.03044066
v 0.01079405 0.02463958 0.03044066
v 0.01075486 0.02446280 0.03044066
v 0.01070041 0.02429011 0.03044066
v 0.01063112 0.02412282 0.03044066
v 0.01054751 0.02396221 0.03044066
v 0.01045022 0.02380949 0.03044066
v 0.01033999 0.02366584 0.03044066
v 0.01021766 0.02353234 0.03044066
v 0.01008416 0.02341001 0.03044066
v 0.00994051 0.02329978 0.03044066
v 0.00978779 0.02320249 0.03044066
v 0.00962718 0.02311888 0.03044066
v 0.00945989 0.02304959 0.03044066
v 0.00928720 0.02299514 0.03044066
v 0.00911042 0.02295595 0.03044066
v 0.00893090 0.02293231 0.03044066
v 0.00875000 0.02292442 0.03044066
v 0.00856910 0.02293231 0.03044066
v 0.00838958 0.02295595 0.03044066
v 0.00821280 0.02299514 0.03044066
v 0.00804011 0.02304959 0.03044066
v 0.00787282 0.02311888 0.03044066
v 0.00771221 0.02320249 0.03044066
v 0.00755949 0.02329978 0.03044066
v 0.00741584 0.02341001 0.03044066
v 0.00728234 0.02353234 0.03044066
v 0.00716001 0.02366584 0.03044066
v 0.00704978 0.02380949 0.03044066
v 0.00695249 0.02396221 0.03044066
v 0.00686888 0.02412282 0.03044066
v 0.00679959 0.02429011 0.03044066
v 0.00674514 0.02446280 0.03044066
v 0.00670595 0.02463958 0.03044066
v 0.00668231 0.02481910 0.03044066
v 0.00667442 0.02500000 0.03044066
v 0.00668231 0.02518090 0.03044066
v 0.00670595 0.02536042 0.03044066
v 0.00674514 0.02553720 0.03044066
v 0.00679959 0.02570989 0.03044066
v 0.00686888 0.02587718 0.03044066
v 0.00695249 0.02603779 0.03044066
v 0.00704978 0.02619051 0.03044066
v 0.00716001 0.02633416 0.03044066
v 0.00728234 0.02646766 0.03044066
v 0.00741584 0.02658999 0.03044066
v 0.00755949 0.02670022 0.03044066
v 0.00771221 0.02679751 0.03044066
v 0.00787282 0.02688112 0.03044066
v 0.00804011 0.02695041 0.03044066
v 0.00821280 0.02700486 0.03044066
v 0.00838958 0.02704405 0.03044066
v 0.00856910 0.02706769 0.03044066
v 0.00875000 0.02707558 0.03044066
v 0.00892647 0.02701706 0.03045669
v 0.00910160 0.02699400 0.03045669
v 0.00927405 0.02695577 0.03045669
v 0.00944251 0.02690265 0.03045669
v 0.00960570 0.02683506 0.03045669
v 0.00976238 0.02675349 0.03045669
v 0.00991136 0.02665859 0.03045669
v 0.01005149 0.02655106 0.03045669
v 0.01018172 0.02643172 0.03045669
v 0.01030106 0.02630149 0.03045669
v 0.01040859 0.02616136 0.03045669
v 0.01050350 0.02601238 0.03045669
v 0.01058506 0.02585570 0.03045669
v 0.01065265 0.02569251 0.03045669
v 0.01070577 0.02552405 0.03045669
v 0.01074400 0.02535160 0.03045669
v 0.01076706 0.02517647 0.03045669
v 0.01077476 0.02500000 0.03045669
v 0.01076706 0.02482353 0.03045669
v 0.01074400 0.02464840 0.03045669
v 0.01070577 0.02447595 0.03045669
v 0.01065265 0.02430749 0.03045669
v 0.01058506 0.02414430 0.03045669
v 0.01050350 0.02398762 0.03045669
v 0.01040859 0.02383864 0.03045669
v 0.01030106 0.02369851 0.03045669
v 0.01018172 0.02356828 0.03045669
v 0.01005149 0.02344894 0.03045669
v 0.00991136 0.02334141 0.03045669
v 0.00976238 0.02324650 0.03045669
v 0.00960570 0.02316494 0.03045669
v 0.00944251 0.02309735 0.03045669
v 0.00927405 0.02304423 0.03045669
v 0.00910160 0.02300600 0.03045669
v 0.00892647 0.02298294 0.03045669
v 0.00875000 0.02297524 0.03045669
v 0.00857353 0.02298294 0.03045669
v 0.00839840 0.02300600 0.03045669
v 0.00822595 0.02304423 0.03045669
v 0.00805749 0.02309735 0.03045669
v 0.00789430 0.02316494 0.03045669
v 0.00773762 0.02324650 0.03045669
v 0.00758864 0.02334141 0.03045669
v 0.00744851 0.02344894 0.03045669
v 0.00731828 0.02356828 0.03045669
v 0.00719894 0.02369851 0.03045669
v 0.00709141 0.02383864 0.03045669
v 0.00699650 0.02398762 0.03045669
v 0.00691494 0.02414430 0.03045669
v 0.00684735 0.02430749 0.03045669
v 0.00679423 0.02447595 0.03045669
v 0.00675600 0.02464840 0.03045669
v 0.00673294 0.02482353 0.03045669
v 0.00672524 0.02500000 0.03045669
v 0.00673294 0.02517647 0.03045669
v 0.00675600 0.02535160 0.03045669
v 0.00679423 0.02552405 0.03045669
v 0.00684735 0.02569251 0.03045669
v 0.00691494 0.02585570 0.03045669
v 0.00699650 0.02601238 0.03045669
v 0.00709141 0.02616136 0.03045669
v 0.00719894 0.02630149 0.03045669
v 0.00731828 0.02643172 0.03045669
v 0.00744851 0.02655106 0.03045669
v 0.00758864 0.02665859 0.03045669
v 0.00773762 0.02675349 0.03045669
v 0.00789430 0.02683506 0.03045669
v 0.00805749 0.02690265 0.03045669
v 0.00822595 0.02695577 0.03045669
v 0.00839840 0.02699400 0.03045669
v 0.00857353 0.02701706 0.03045669
v 0.00875000 0.02702476 0.03045669
v 0.00892194 0.02696523 0.03046822
v 0.00909256 0.02694277 0.03046822
v 0.00926058 0.02690552 0.03046822
v 0.00942472 0.02685377 0.03046822
v 0.00958371 0.02678791 0.03046822
v 0.00973637 0.02670844 0.03046822
v 0.00988152 0.02661597 0.03046822
v 0.01001805 0.02651120 0.03046822
v 0.01014494 0.02639494 0.03046822
v 0.01026120 0.02626805 0.03046822
v 0.01036597 0.02613151 0.03046822
v 0.01045844 0.02598637 0.03046822
v 0.01053791 0.02583371 0.03046822
v 0.01060377 0.02567472 0.03046822
v 0.01065552 0.02551058 0.03046822
v 0.01069277 0.02534256 0.03046822
v 0.01071523 0.02517194 0.03046822
v 0.01072274 0.02500000 0.03046822
v 0.01071523 0.02482807 0.03046822
v 0.01069277 0.02465744 0.03046822
v 0.01065552 0.02448942 0.03046822
v 0.01060377 0.02432529 0.03046822
v 0.01053791 0.02416629 0.03046822
v 0.01045844 0.02401363 0.03046822
v 0.01036597 0.02386848 0.03046822
v 0.01026120 0.02373195 0.03046822
v 0.01014494 0.02360506 0.03046822
v 0.01001805 0.02348880 0.03046822
v 0.00988152 0.02338403 0.03046822
v 0.00973637 0.02329156 0.03046822
v 0.00958371 0.02321209 0.03046822
v 0.00942472 0.02314623 0.03046822
v 0.00926058 0.02309448 0.03046822
v 0.00909256 0.02305723 0.03046822
v 0.00892194 0.02303477 0.03046822
v 0.00875000 0.02302726 0.03046822
v 0.00857806 0.02303477 0.03046822
v 0.00840744 0.02305723 0.03046822
v 0.00823942 0.02309448 0.03046822
v 0.00807528 0.02314623 0.03046822
v 0.00791629 0.02321209 0.03046822
v 0.00776363 0.02329156 0.03046822
v 0.00761848 0.02338403 0.03046822
v 0.00748195 0.02348880 0.03046822
v 0.00735506 0.02360506 0.03046822
v 0.00723880 0.02373195 0.03046822
v 0.00713403 0.02386848 0.03046822
v 0.00704156 0.02401363 0.03046822
v 0.00696209 0.02416629 0.03046822
v 0.00689623 0.02432529 0.03046822
v 0.00684448 0.02448942 0.03046822
v 0.00680723 0.02465744 0.03046822
v 0.00678477 0.02482807 0.03046822
v 0.00677726 0.02500000 0.03046822
v 0.00678477 0.02517194 0.03046822
v 0.00680723 0.02534256 0.03046822
v 0.00684448 0.02551058 0.03046822
v 0.00689623 0.02567472 0.03046822
v 0.00696209 0.02583371 0.03046822
v 0.00704156 0.02598637 0.03046822
v 0.00713403 0.02613151 0.03046822
v 0.00723880 0.02626805 0.03046822
v 0.00735506 0.02639494 0.03046822
v 0.00748195 0.02651120 0.03046822
v 0.00761848 0.02661597 0.03046822
v 0.00776363 0.02670844 0.03046822
v 0.00791629 0.02678791 0.03046822
v 0.00807528 0.02685377 0.03046822
v 0.00823942 0.02690552 0.03046822
v 0.00840744 0.02694277 0.03046822
v 0.00857806 0.02696523 0.03046822
v 0.00875000 0.02697274 0.03046822
v 0.00891733 0.02691260 0.03047518
v 0.00908339 0.02689074 0.03047518
v 0.00924691 0.02685449 0.03047518
v 0.00940665 0.02680412 0.03047518
v 0.00956139 0.02674002 0.03047518
v 0.00970995 0.02666268 0.03047518
v 0.00985121 0.02657269 0.03047518
v 0.00998409 0.02647073 0.03047518
v 0.01010758 0.02635758 0.03047518
v 0.01022073 0.02623409 0.03047518
v 0.01032269 0.02610121 0.03047518
v 0.01041269 0.02595995 0.03047518
v 0.01049002 0.02581139 0.03047518
v 0.01055412 0.02565665 0.03047518
v 0.01060448 0.02549691 0.03047518
v 0.01064074 0.02533339 0.03047518
v 0.01066260 0.02516733 0.03047518
v 0.01066990 0.02500000 0.03047518
v 0.01066260 0.02483267 0.03047518
v 0.01064074 0.02466661 0.03047518
v 0.01060448 0.02450309 0.03047518
v 0.01055412 0.02434335 0.03047518
v 0.01049002 0.02418861 0.03047518
v 0.01041269 0.02404005 0.03047518
v 0.01032269 0.02389879 0.03047518
v 0.01022073 0.02376591 0.03047518
v 0.01010758 0.02364242 0.03047518
v 0.00998409 0.02352927 0.03047518
v 0.00985121 0.02342731 0.03047518
v 0.00970995 0.02333731 0.03047518
v 0.00956139 0.02325998 0.03047518
v 0.00940665 0.02319588 0.03047518
v 0.00924691 0.02314552 0.03047518
v 0.00908339 0.02310926 0.03047518
v 0.00891733 0.02308740 0.03047518
v 0.00875000 0.02308010 0.03047518
v 0.00858267 0.02308740 0.03047518
v 0.00841661 0.02310926 0.03047518
v 0.00825309 0.02314552 0.03047518
v 0.00809335 0.02319588 0.03047518
v 0.00793861 0.02325998 0.03047518
v 0.00779005 0.02333731 0.03047518
v 0.00764879 0.02342731 0.03047518
v 0.00751591 0.02352927 0.03047518
v 0.00739242 0.02364242 0.03047518
v 0.00727927 0.02376591 0.03047518
v 0.00717731 0.02389879 0.03047518
v 0.00708731 0.02404005 0.03047518
v 0.00700998 0.02418861 0.03047518
v 0.00694588 0.02434335 0.03047518
v 0.00689551 0.02450309 0.03047518
v 0.00685926 0.02466661 0.03047518
v 0.00683740 0.02483267 0.03047518
v 0.00683010 0.02500000 0.03047518
v 0.00683740 0.02516733 0.03047518
v 0.00685926 0.02533339 0.03047518
v 0.00689551 0.02549691 0.03047518
v 0.00694588 0.02565665 0.03047518
v 0.00700998 0.02581139 0.03047518
v 0.00708731 0.02595995 0.03047518
v 0.00717731 0.02610121 0.03047518
v 0.00727927 0.02623409 0.03047518
v 0.00739242 0.02635758 0.03047518
v 0.00751591 0.02647073 0.03047518
v 0.00764879 0.02657269 0.03047518
v 0.00779005 0.02666268 0.03047518
v 0.00793861 0.02674002 0.03047518
v 0.00809335 0.02680412 0.03047518
v 0.00825309 0.02685449 0.03047518
v 0.00841661 0.02689074 0.03047518
v 0.00858267 0.02691260 0.03047518
v 0.00875000 0.02691991 0.03047518
v 0.00891269 0.02685956 0.03047750
v 0.00907414 0.02683831 0.03047750
v 0.00923313 0.02680306 0.03047750
v 0.00938844 0.02675409 0.03047750
v 0.00953889 0.02669177 0.03047750
v 0.00968333 0.02661658 0.03047750
v 0.00982068 0.02652908 0.03047750
v 0.00994987 0.02642995 0.03047750
v 0.01006993 0.02631993 0.03047750
v 0.01017995 0.02619987 0.03047750
v 0.01027908 0.02607068 0.03047750
v 0.01036658 0.02593333 0.03047750
v 0.01044177 0.02578889 0.03047750
v 0.01050409 0.02563844 0.03047750
v 0.01055306 0.02548313 0.03047750
v 0.01058831 0.02532414 0.03047750
v 0.01060956 0.02516269 0.03047750
v 0.01061667 0.02500000 0.03047750
v 0.01060956 0.02483731 0.03047750
v 0.01058831 0.02467586 0.03047750
v 0.01055306 0.02451687 0.03047750
v 0.01050409 0.02436156 0.03047750
v 0.01044177 0.02421111 0.03047750
v 0.01036658 0.02406667 0.03047750
v 0.01027908 0.02392932 0.03047750
v 0.01017995 0.02380013 0.03047750
v 0.01006993 0.02368007 0.03047750
v 0.00994987 0.02357005 0.03047750
v 0.00982068 0.02347092 0.03047750
v 0.00968333 0.02338342 0.03047750
v 0.00953889 0.02330822 0.03047750
v 0.00938844 0.02324591 0.03047750
v 0.00923313 0.02319694 0.03047750
v 0.00907414 0.02316169 0.03047750
v 0.00891269 0.02314044 0.03047750
v 0.00875000 0.02313333 0.03047750
v 0.00858731 0.02314044 0.03047750
v 0.00842586 0.02316169 0.03047750
v 0.00826687 0.02319694 0.03047750
v 0.00811156 0.02324591 0.03047750
v 0.00796111 0.02330822 0.03047750
v 0.00781667 0.02338342 0.03047750
v 0.00767932 0.02347092 0.03047750
v 0.00755013 0.02357005 0.03047750
v 0.00743007 0.02368007 0.03047750
v 0.00732005 0.02380013 0.03047750
v 0.00722092 0.02392932 0.03047750
v 0.00713342 0.02406667 0.03047750
v 0.00705823 0.02421111 0.03047750
v 0.00699591 0.02436156 0.03047750
v 0.00694694 0.02451687 0.03047750
v 0.00691169 0.02467586 0.03047750
v 0.00689044 0.02483731 0.03047750
v 0.00688333 0.02500000 0.03047750
v 0.00689044 0.02516269 0.03047750
v 0.00691169 0.02532414 0.03047750
v 0.00694694 0.02548313 0.03047750
v 0.00699591 0.02563844 0.03047750
v 0.00705823 0.02578889 0.03047750
v 0.00713342 0.02593333 0.03047750
v 0.00722092 0.02607068 0.03047750
v 0.00732005 0.02619987 0.03047750
v 0.00743007 0.02631993 0.03047750
v 0.00755013 0.02642995 0.03047750
v 0.00767932 0.02652908 0.03047750
v 0.00781667 0.02661658 0.03047750
v 0.00796111 0.02669177 0.03047750
v 0.00811156 0.02675409 0.03047750
v 0.00826687 0.02680306 0.03047750
v 0.00842586 0.02683831 0.03047750
v 0.00858731 0.02685956 0.03047750
v 0.00875000 0.02686667 0.03047750
f 1 2 3
f 2 4 3
f 3 4 5
f 4 6 5
f 5 6 7
f 6 8 7
f 7 8 9
f 8 10 9
f 9 10 11
f 10 12 11
f 11 12 13
f 12 14 13
f 13 14 15
f 14 16 15
f 15 16 17
f 16 18 17
f 17 18 19
f 18 20 19
f 19 20 21
f 20 22 21
f 21 22 23
f 22 24 23
f 23 24 25
f 24 26 25
f 25 26 27
f 26 28 27
f 27 28 29
f 28 30 29
f 29 30 31
f 30 32 31
f 31 32 33
f 32 34 33
f 33 34 35
f 34 36 35
f 35 36 37
f 36 38 37
f 37 38 39
f 38 40 39
f 39 40 41
f 40 42 41
f 41 42 43
f 42 44 43
f 43 44 45
f 44 46 45
f 45 46 47
f 46 48 47
f 47 48 49
f 48 50 49
f 49 50 51
f 50 52 51
f 51 52 53
f 52 54 53
f 53 54 55
f 54 56 55
f 55 56 57
f 56 58 57
f 57 58 59
f 58 60 59
f 59 60 61
f 60 62 61
f 61 62 63
f 62 64 63
f 63 64 65
f 64 66 65
f 65 66 67
f 66 68 67
f 67 68 69
f 68 70 69
f 69 70 71
f 70 72 71
f 71 72 73
f 72 74 73
f 73 74 75
f 74 76 75
f 75 76 77
f 76 78 77
f 77 78 79
f 78 80 79
f 79 80 81
f 80 82 81
f 81 82 83
f 82 84 83
f 83 84 85
f 84 86 85
f 85 86 87
f 86 88 87
f 87 88 89
f 88 90 89
f 89 90 91
f 90 92 91
f 91 92 93
f 92 94 93
f 93 94 95
f 94 96 95
f 95 96 97
f 96 98 97
f 97 98 99
f 98 100 99
f 99 100 101
f 100 102 101
f 101 102 103
f 102 104 103
f 103 104 105
f 104 106 105
f 105 106 107
f 106 108 107
f 107 108 109
f 108 110 109
f 109 110 111
f 110 112 111
f 111 112 113
f 112 114 113
f 113 114 115
f 114 116 115
f 115 116 117
f 116 118 117
f 117 118 119
f 118 120 119
f 119 120 121
f 120 122 121
f 121 122 123
f 122 124 123
f 123 124 125
f 124 126 125
f 125 126 127
f 126 128 127
f 127 128 129
f 128 130 129
f 129 130 131
f 130 132 131
f 131 132 133
f 132 134 133
f 133 134 135
f 134 136 135
f 135 136 137
f 136 138 137
f 137 138 139
f 138 140 139
f 139 140 141
f 140 142 141
f 141 142 143
f 142 144 143
f 143 144 1
f 144 2 1
f 145 146 147
f 146 148 147
f 147 148 149
f 148 150 149
f 149 150 151
f 150 152 151
f 151 152 153
f 152 154 153
f 153 154 155
f 154 156 155
f 155 156 157
f 156 158 157
f 157 158 159
f 158 160 159
f 159 160 161
f 160 162 161
f 161 162 163
f 162 164 163
f 163 164 165
f 164 166 165
f 165 166 167
f 166 168 167
f 167 168 169
f 168 170 169
f 169 170 171
f 170 172 171
f 171 172 173
f 172 174 173
f 173 174 175
f 174 176 175
f 175 176 177
f 176 178 177
f 177 178 179
f 178 180 179
f 179 180 181
f 180 182 181
f 181 182 183
f 182 184 183
f 183 184 185
f 184 186 185
f 185 186 187
f 186 188 187
f 187 188 189
f 188 190 189
f 189 190 191
f 190 192 191
f 191 192 193
f 192 194 193
f 193 194 195
f 194 196 195
f 195 196 197
f 196 198 197
f 197 198 199
f 198 200 199
f 199 200 201
f 200 202 201
f 201 202 203
f 202 204 203
f 203 204 205
f 204 206 205
f 205 206 207
f 206 208 207
f 207 208 209
f 208 210 209
f 209 210 211
f 210 212 211
f 211 212 213
f 212 214 213
f 213 214 215
f 214 216 215
f 215 216 217
f 216 218 217
f 217 218 219
f 218 220 219
f 219 220 221
f 220 222 221
f 221 222 223
f 222 224 223
f 223 224 225
f 224 226 225
f 225 226 227
f 226 228 227
f 227 228 229
f 228 230 229
f 229 230 231
f 230 232 231
f 231 232 233
f 232 234 233
f 233 234 235
f 234 236 235
f 235 236 237
f 236 238 237
f 237 238 239
f 238 240 239
f 239 240 241
f 240 242 241
f 241 242 243
f 242 244 243
f 243 244 245
f 244 246 245
f 245 246 247
f 246 248 247
f 247 248 249
f 248 250 249
f 249 250 251
f 250 252 251
f 251 252 253
f 252 254 253
f 253 254 255
f 254 256 255
f 255 256 257
f 256 258 257
f 257 258 259
f 258 260 259
f 259 260 261
f 260 262 261
f 261 262 263
f 262 264 263
f 263 264 265
f 264 266 265
f 265 266 267
f 266 268 267
f 267 268 269
f 268 270 269
f 269 270 271
f 270 272 271
f 271 272 273
f 272 274 273
f 273 274 275
f 274 276 275
f 275 276 277
f 276 278 277
f 277 278 279
f 278 280 279
f 279 280 281
f 280 282 281
f 281 282 283
f 282 284 283
f 283 284 285
f 284 286 285
f 285 286 287
f 286 288 287
f 287 288 145
f 288 146 145
f 288 289 146
f 289 290 146
f 146 290 148
f 290 291 148
f 148 291 150
f 291 292 150
f 150 292 152
f 292 293 152
f 152 293 154
f 293 294 154
f 154 294 156
f 294 295 156
f 156 295 158
f 295 296 158
f 158 296 160
f 296 297 160
f 160 297 162
f 297 298 162
f 162 298 164
f 298 299 164
f 164 299 166
f 299 300 166
f 166 300 168
f 300 301 168
f 168 301 170
f 301 302 170
f 170 302 172
f 302 303 172
f 172 303 174
f 303 304 174
f 174 304 176
f 304 305 176
f 176 305 178
f 305 306 178
f 178 306 180
f 306 307 180
f 180 307 182
f 307 308 182
f 182 308 184
f 308 309 184
f 184 309 186
f 309 310 186
f 186 310 188
f 310 311 188
f 188 311 190
f 311 312 190
f 190 312 192
f 312 313 192
f 192 313 194
f 313 314 194
f 194 314 196
f 314 315 196
f 196 315 198
f 315 316 198
f 198 316 200
f 316 317 200
f 200 317 202
f 317 318 202
f 202 318 204
f 318 319 204
f 204 319 206
f 319 320 206
f 206 320 208
f 320 321 208
f 208 321 210
f 321 322 210
f 210 322 212
f 322 323 212
f 212 323 214
f 323 324 214
f 214 324 216
f 324 325 216
f 216 325 218
f 325 326 218
f 218 326 220
f 326 327 220
f 220 327 222
f 327 328 222
f 222 328 224
f 328 329 224
f 224 329 226
f 329 330 226
f 226 330 228
f 330 331 228
f 228 331 230
f 331 332 230
f 230 332 232
f 332 333 232
f 232 333 234
f 333 334 234
f 234 334 236
f 334 335 236
f 236 335 238
f 335 336 238
f 238 336 240
f 336 337 240
f 240 337 242
f 337 338 242
f 242 338 244
f 338 339 244
f 244 339 246
f 339 340 246
f 246 340 248
f 340 341 248
f 248 341 250
f 341 342 250
f 250 342 252
f 342 343 252
f 252 343 254
f 343 344 254
f 254 344 256
f 344 345 256
f 256 345 258
f 345 346 258
f 258 346 260
f 346 347 260
f 260 347 262
f 347 348 262
f 262 348 264
f 348 349 264
f 264 349 266
f 349 350 266
f 266 350 268
f 350 351 268
f 268 351 270
f 351 352 270
f 270 352 272
f 352 353 272
f 272 353 274
f 353 354 274
f 274 354 276
f 354 355 276
f 276 355 278
f 355 356 278
f 278 356 280
f 356 357 280
f 280 357 282
f 357 358 282
f 282 358 284
f 358 359 284
f 284 359 286
f 359 360 286
f 286 360 288
f 360 289 288
f 360 361 289
f 361 362 289
f 289 362 290
f 362 363 290
f 290 363 291
f 363 364 291
f 291 364 292
f 364 365 292
f 292 365 293
f 365 366 293
f 293 366 294
f 366 367 294
f 294 367 295
f 367 368 295
f 295 368 296
f 368 369 296
f 296 369 297
f 369 370 297
f 297 370 298
f 370 371 298
f 298 371 299
f 371 372 299
f 299 372 300
f 372 373 300
f 300 373 301
f 373 374 301
f 301 374 302
f 374 375 302
f 302 375 303
f 375 376 303
f 303 376 304
f 376 377 304
f 304 377 305
f 377 378 305
f 305 378 306
f 378 379 306
f 306 379 307
f 379 380 307
f 307 380 308
f 380 381 308
f 308 381 309
f 381 382 309
f 309 382 310
f 382 383 310
f 310 383 311
f 383 384 311
f 311 384 312
f 384 385 312
f 312 385 313
f 385 386 313
f 313 386 314
f 386 387 314
f 314 387 315
f 387 388 315
f 315 388 316
f 388 389 316
f 316 389 317
f 389 390 317
f 317 390 318
f 390 391 318
f 318 391 319
f 391 392 319
f 319 392 320
f 392 393 320
f 320 393 321
f 393 394 321
f 321 394 322
f 394 395 322
f 322 395 323
f 395 396 323
f 323 396 324
f 396 397 324
f 324 397 325
f 397 398 325
f 325 398 326
f 398 399 326
f 326 399 327
f 399 400 327
f 327 400 328
f 400 401 328
f 328 401 329
f 401 402 329
f 329 402 330
f 402 403 330
f 330 403 331
f 403 404 331
f 331 404 332
f 404 405 332
f 332 405 333
f 405 406 333
f 333 406 334
f 406 407 334
f 334 407 335
f 407 408 335
f 335 408 336
f 408 409 336
f 336 409 337
f 409 410 337
f 337 410 338
f 410 411 338
f 338 411 339
f 411 412 339
f 339 412 340
f 412 413 340
f 340 413 341
f 413 414 341
f 341 414 342
f 414 415 342
f 342 415 343
f 415 416 343
f 343 416 344
f 416 417 344
f 344 417 345
f 417 418 345
f 345 418 346
f 418 419 346
f 346 419 347
f 419 420 347
f 347 420 348
f 420 421 348
f 348 421 349
f 421 422 349
f 349 422 350
f 422 423 350
f 350 423 351
f 423 424 351
f 351 424 352
f 424 425 352
f 352 425 353
f 425 426 353
f 353 426 354
f 426 427 354
f 354 427 355
f 427 428 355
f 355 428 356
f 428 429 356
f 356 429 357
f 429 430 357
f 357 430 358
f 430 431 358
f 358 431 359
f 431 432 359
f 359 432 360
f 432 361 360
f 432 433 361
f 433 434 361
f 361 434 362
f 434 435 362
f 362 435 363
f 435 436 363
f 363 436 364
f 436 437 364
f 364 437 365
f 437 438 365
f 365 438 366
f 438 439 366
f 366 439 367
f 439 440 367
f 367 440 368
f 440 441 368
f 368 441 369
f 441 442 369
f 369 442 370
f 442 443 370
f 370 443 371
f 443 444 371
f 371 444 372
f 444 445 372
f 372 445 373
f 445 446 373
f 373 446 374
f 446 447 374
f 374 447 375
f 447 448 375
f 375 448 376
f 448 449 376
f 376 449 377
f 449 450 377
f 377 450 378
f 450 451 378
f 378 451 379
f 451 452 379
f 379 452 380
f 452 453 380
f 380 453 381
f 453 454 381
f 381 454 382
f 454 455 382
f 382 455 383
f 455 456 383
f 383 456 384
f 456 457 384
f 384 457 385
f 457 458 385
f 385 458 386
f 458 459 386
f 386 459 387
f 459 460 387
f 387 460 388
f 460 461 388
f 388 461 389
f 461 462 389
f 389 462 390
f 462 463 390
f 390 463 391
f 463 464 391
f 391 464 392
f 464 465 392
f 392 465 393
f 465 466 393
f 393 466 394
f 466 467 394
f 394 467 395
f 467 468 395
f 395 468 396
f 468 469 396
f 396 469 397
f 469 470 397
f 397 470 398
f 470 471 398
f 398 471 399
f 471 472 399
f 399 472 400
f 472 473 400
f 400 473 401
f 473 474 401
f 401 474 402
f 474 475 402
f 402 475 403
f 475 476 403
f 403 476 404
f 476 477 404
f 404 477 405
f 477 478 405
f 405 478 406
f 478 479 406
f 406 479 407
f 479 480 407
f 407 480 408
f 480 481 408
f 408 481 409
f 481 482 409
f 409 482 410
f 482 483 410
f 410 483 411
f 483 484 411
f 411 484 412
f 484 485 412
f 412 485 413
f 485 486 413
f 413 486 414
f 486 487 414
f 414 487 415
f 487 488 415
f 415 488 416
f 488 489 416
f 416 489 417
f 489 490 417
f 417 490 418
f 490 491 418
f 418 491 419
f 491 492 419
f 419 492 420
f 492 493 420
f 420 493 421
f 493 494 421
f 421 494 422
f 494 495 422
f 422 495 423
f 495 496 423
f 423 496 424
f 496 497 424
f 424 497 425
f 497 498 425
f 425 498 426
f 498 499 426
f 426 499 427
f 499 500 427
f 427 500 428
f 500 501 428
f 428 501 429
f 501 502 429
f 429 502 430
f 502 503 430
f 430 503 431
f 503 504 431
f 431 504 432
f 504 433 432
f 504 505 433
f 505 506 433
f 433 506 434
f 506 507 434
f 434 507 435
f 507 508 435
f 435 508 436
f 508 509 436
f 436 509 437
f 509 510 437
f 437 510 438
f 510 511 438
f 438 511 439
f 511 512 439
f 439 512 440
f 512 513 440
f 440 513 441
f 513 514 441
f 441 514 442
f 514 515 442
f 442 515 443
f 515 516 443
f 443 516 444
f 516 517 444
f 444 517 445
f 517 518 445
f 445 518 446
f 518 519 446
f 446 519 447
f 519 520 447
f 447 520 448
f 520 521 448
f 448 521 449
f 521 522 449
f 449 522 450
f 522 523 450
f 450 523 451
f 523 524 451
f 451 524 452
f 524 525 452
f 452 525 453
f 525 526 453
f 453 526 454
f 526 527 454
f 454 527 455
f 527 528 455
f 455 528 456
f 528 529 456
f 456 529 457
f 529 530 457
f 457 530 458
f 530 531 458
f 458 531 459
f 531 532 459
f 459 532 460
f 532 533 460
f 460 533 461
f 533 534 461
f 461 534 462
f 534 535 462
f 462 535 463
f 535 536 463
f 463 536 464
f 536 537 464
f 464 537 465
f 537 538 465
f 465 538 466
f 538 539 466
f 466 539 467
f 539 540 467
f 467 540 468
f 540 541 468
f 468 541 469
f 541 542 469
f 469 542 470
f 542 543 470
f 470 543 471
f 543 544 471
f 471 544 472
f 544 545 472
f 472 545 473
f 545 546 473
f 473 546 474
f 546 547 474
f 474 547 475
f 547 548 475
f 475 548 476
f 548 549 476
f 476 549 477
f 549 550 477
f 477 550 478
f 550 551 478
f 478 551 479
f 551 552 479
f 479 552 480
f 552 553 480
f 480 553 481
f 553 554 481
f 481 554 482
f 554 555 482
f 482 555 483
f 555 556 483
f 483 556 484
f 556 557 484
f 484 557 485
f 557 558 485
f 485 558 486
f 558 559 486
f 486 559 487
f 559 560 487
f 487 560 488
f 560 561 488
f 488 561 489
f 561 562 489
f 489 562 490
f 562 563 490
f 490 563 491
f 563 564 491
f 491 564 492
f 564 565 492
f 492 565 493
f 565 566 493
f 493 566 494
f 566 567 494
f 494 567 495
f 567 568 495
f 495 568 496
f 568 569 496
f 496 569 497
f 569 570 497
f 497 570 498
f 570 571 498
f 498 571 499
f 571 572 499
f 499 572 500
f 572 573 500
f 500 573 501
f 573 574 501
f 501 574 502
f 574 575 502
f 502 575 503
f 575 576 503
f 503 576 504
f 576 505 504
f 576 577 505
f 577 578 505
f 505 578 506
f 578 579 506
f 506 579 507
f 579 580 507
f 507 580 508
f 580 581 508
f 508 581 509
f 581 582 509
f 509 582 510
f 582 583 510
f 510 583 511
f 583 584 511
f 511 584 512
f 584 585 512
f 512 585 513
f 585 586 513
f 513 586 514
f 586 587 514
f 514 587 515
f 587 588 515
f 515 588 516
f 588 589 516
f 516 589 517
f 589 590 517
f 517 590 518
f 590 591 518
f 518 591 519
f 591 592 519
f 519 592 520
f 592 593 520
f 520 593 521
f 593 594 521
f 521 594 522
f 594 595 522
f 522 595 523
f 595 596 523
f 523 596 524
f 596 597 524
f 524 597 525
f 597 598 525
f 525 598 526
f 598 599 526
f 526 599 527
f 599 600 527
f 527 600 528
f 600 601 528
f 528 601 529
f 601 602 529
f 529 602 530
f 602 603 530
f 530 603 531
f 603 604 531
f 531 604 532
f 604 605 532
f 532 605 533
f 605 606 533
f 533 606 534
f 606 607 534
f 534 607 535
f 607 608 535
f 535 608 536
f 608 609 536
f 536 609 537
f 609 610 537
f 537 610 538
f 610 611 538
f 538 611 539
f 611 612 539
f 539 612 540
f 612 613 540
f 540 613 541
f 613 614 541
f 541 614 542
f 614 615 542
f 542 615 543
f 615 616 543
f 543 616 544
f 616 617 544
f 544 617 545
f 617 618 545
f 545 618 546
f 618 619 546
f 546 619 547
f 619 620 547
f 547 620 548
f 620 621 548
f 548 621 549
f 621 622 549
f 549 622 550
f 622 623 550
f 550 623 551
f 623 624 551
f 551 624 552
f 624 625 552
f 552 625 553
f 625 626 553
f 553 626 554
f 626 627 554
f 554 627 555
f 627 628 555
f 555 628 556
f 628 629 556
f 556 629 557
f 629 630 557
f 557 630 558
f 630 631 558
f 558 631 559
f 631 632 559
f 559 632 560
f 632 633 560
f 560 633 561
f 633 634 561
f 561 634 562
f 634 635 562
f 562 635 563
f 635 636 563
f 563 636 564
f 636 637 564
f 564 637 565
f 637 638 565
f 565 638 566
f 638 639 566
f 566 639 567
f 639 640 567
f 567 640 568
f 640 641 568
f 568 641 569
f 641 642 569
f 569 642 570
f 642 643 570
f 570 643 571
f 643 644 571
f 571 644 572
f 644 645 572
f 572 645 573
f 645 646 573
f 573 646 574
f 646 647 574
f 574 647 575
f 647 648 575
f 575 648 576
f 648 577 576
f 648 649 577
f 649 650 577
f 577 650 578
f 650 651 578
f 578 651 579
f 651 652 579
f 579 652 580
f 652 653 580
f 580 653 581
f 653 654 581
f 581 654 582
f 654 655 582
f 582 655 583
f 655 656 583
f 583 656 584
f 656 657 584
f 584 657 585
f 657 658 585
f 585 658 586
f 658 659 586
f 586 659 587
f 659 660 587
f 587 660 588
f 660 661 588
f 588 661 589
f 661 662 589
f 589 662 590
f 662 663 590
f 590 663 591
f 663 664 591
f 591 664 592
f 664 665 592
f 592 665 593
f 665 666 593
f 593 666 594
f 666 667 594
f 594 667 595
f 667 668 595
f 595 668 596
f 668 669 596
f 596 669 597
f 669 670 597
f 597 670 598
f 670 671 598
f 598 671 599
f 671 672 599
f 599 672 600
f 672 673 600
f 600 673 601
f 673 674 601
f 601 674 602
f 674 675 602
f 602 675 603
f 675 676 603
f 603 676 604
f 676 677 604
f 604 677 605
f 677 678 605
f 605 678 606
f 678 679 606
f 606 679 607
f 679 680 607
f 607 680 608
f 680 681 608
f 608 681 609
f 681 682 609
f 609 682 610
f 682 683 610
f 610 683 611
f 683 684 611
f 611 684 612
f 684 685 612
f 612 685 613
f 685 686 613
f 613 686 614
f 686 687 614
f 614 687 615
f 687 688 615
f 615 688 616
f 688 689 616
f 616 689 617
f 689 690 617
f 617 690 618
f 690 691 618
f 618 691 619
f 691 692 619
f 619 692 620
f 692 693 620
f 620 693 621
f 693 694 621
f 621 694 622
f 694 695 622
f 622 695 623
f 695 696 623
f 623 696 624
f 696 697 624
f 624 697 625
f 697 698 625
f 625 698 626
f 698 699 626
f 626 699 627
f 699 700 627
f 627 700 628
f 700 701 628
f 628 701 629
f 701 702 629
f 629 702 630
f 702 703 630
f 630 703 631
f 703 704 631
f 631 704 632
f 704 705 632
f 632 705 633
f 705 706 633
f 633 706 634
f 706 707 634
f 634 707 635
f 707 708 635
f 635 708 636
f 708 709 636
f 636 709 637
f 709 710 637
f 637 710 638
f 710 711 638
f 638 711 639
f 711 712 639
f 639 712 640
f 712 713 640
f 640 713 641
f 713 714 641
f 641 714 642
f 714 715 642
f 642 715 643
f 715 716 643
f 643 716 644
f 716 717 644
f 644 717 645
f 717 718 645
f 645 718 646
f 718 719 646
f 646 719 647
f 719 720 647
f 647 720 648
f 720 649 648
f 720 721 649
f 721 722 649
f 649 722 650
f 722 723 650
f 650 723 651
f 723 724 651
f 651 724 652
f 724 725 652
f 652 725 653
f 725 726 653
f 653 726 654
f 726 727 654
f 654 727 655
f 727 728 655
f 655 728 656
f 728 729 656
f 656 729 657
f 729 730 657
f 657 730 658
f 730 731 658
f 658 731 659
f 731 732 659
f 659 732 660
f 732 733 660
f 660 733 661
f 733 734 661
f 661 734 662
f 734 735 662
f 662 735 663
f 735 736 663
f 663 736 664
f 736 737 664
f 664 737 665
f 737 738 665
f 665 738 666
f 738 739 666
f 666 739 667
f 739 740 667
f 667 740 668
f 740 741 668
f 668 741 669
f 741 742 669
f 669 742 670
f 742 743 670
f 670 743 671
f 743 744 671
f 671 744 672
f 744 745 672
f 672 745 673
f 745 746 673
f 673 746 674
f 746 747 674
f 674 747 675
f 747 748 675
f 675 748 676
f 748 749 676
f 676 749 677
f 749 750 677
f 677 750 678
f 750 751 678
f 678 751 679
f 751 752 679
f 679 752 680
f 752 753 680
f 680 753 681
f 753 754 681
f 681 754 682
f 754 755 682
f 682 755 683
f 755 756 683
f 683 756 684
f 756 757 684
f 684 757 685
f 757 758 685
f 685 758 686
f 758 759 686
f 686 759 687
f 759 760 687
f 687 760 688
f 760 761 688
f 688 761 689
f 761 762 689
f 689 762 690
f 762 763 690
f 690 763 691
f 763 764 691
f 691 764 692
f 764 765 692
f 692 765 693
f 765 766 693
f 693 766 694
f 766 767 694
f 694 767 695
f 767 768 695
f 695 768 696
f 768 769 696
f 696 769 697
f 769 770 697
f 697 770 698
f 770 771 698
f 698 771 699
f 771 772 699
f 699 772 700
f 772 773 700
f 700 773 701
f 773 774 701
f 701 774 702
f 774 775 702
f 702 775 703
f 775 776 703
f 703 776 704
f 776 777 704
f 704 777 705
f 777 778 705
f 705 778 706
f 778 779 706
f 706 779 707
f 779 780 707
f 707 780 708
f 780 781 708
f 708 781 709
f 781 782 709
f 709 782 710
f 782 783 710
f 710 783 711
f 783 784 711
f 711 784 712
f 784 785 712
f 712 785 713
f 785 786 713
f 713 786 714
f 786 787 714
f 714 787 715
f 787 788 715
f 715 788 716
f 788 789 716
f 716 789 717
f 789 790 717
f 717 790 718
f 790 791 718
f 718 791 719
f 791 792 719
f 719 792 720
f 792 721 720
f 792 793 721
f 793 794 721
f 721 794 722
f 794 795 722
f 722 795 723
f 795 796 723
f 723 796 724
f 796 797 724
f 724 797 725
f 797 798 725
f 725 798 726
f 798 799 726
f 726 799 727
f 799 800 727
f 727 800 728
f 800 801 728
f 728 801 729
f 801 802 729
f 729 802 730
f 802 803 730
f 730 803 731
f 803 804 731
f 731 804 732
f 804 805 732
f 732 805 733
f 805 806 733
f 733 806 734
f 806 807 734
f 734 807 735
f 807 808 735
f 735 808 736
f 808 809 736
f 736 809 737
f 809 810 737
f 737 810 738
f 810 811 738
f 738 811 739
f 811 812 739
f 739 812 740
f 812 813 740
f 740 813 741
f 813 814 741
f 741 814 742
f 814 815 742
f 742 815 743
f 815 816 743
f 743 816 744
f 816 817 744
f 744 817 745
f 817 818 745
f 745 818 746
f 818 819 746
f 746 819 747
f 819 820 747
f 747 820 748
f 820 821 748
f 748 821 749
f 821 822 749
f 749 822 750
f 822 823 750
f 750 823 751
f 823 824 751
f 751 824 752
f 824 825 752
f 752 825 753
f 825 826 753
f 753 826 754
f 826 827 754
f 754 827 755
f 827 828 755
f 755 828 756
f 828 829 756
f 756 829 757
f 829 830 757
f 757 830 758
f 830 831 758
f 758 831 759
f 831 832 759
f 759 832 760
f 832 833 760
f 760 833 761
f 833 834 761
f 761 834 762
f 834 835 762
f 762 835 763
f 835 836 763
f 763 836 764
f 836 837 764
f 764 837 765
f 837 838 765
f 765 838 766
f 838 839 766
f 766 839 767
f 839 840 767
f 767 840 768
f 840 841 768
f 768 841 769
f 841 842 769
f 769 842 770
f 842 843 770
f 770 843 771
f 843 844 771
f 771 844 772
f 844 845 772
f 772 845 773
f 845 846 773
f 773 846 774
f 846 847 774
f 774 847 775
f 847 848 775
f 775 848 776
f 848 849 776
f 776 849 777
f 849 850 777
f 777 850 778
f 850 851 778
f 778 851 779
f 851 852 779
f 779 852 780
f 852 853 780
f 780 853 781
f 853 854 781
f 781 854 782
f 854 855 782
f 782 855 783
f 855 856 783
f 783 856 784
f 856 857 784
f 784 857 785
f 857 858 785
f 785 858 786
f 858 859 786
f 786 859 787
f 859 860 787
f 787 860 788
f 860 861 788
f 788 861 789
f 861 862 789
f 789 862 790
f 862 863 790
f 790 863 791
f 863 864 791
f 791 864 792
f 864 793 792
f 864 865 793
f 865 866 793
f 793 866 794
f 866 867 794
f 794 867 795
f 867 868 795
f 795 868 796
f 868 869 796
f 796 869 797
f 869 870 797
f 797 870 798
f 870 871 798
f 798 871 799
f 871 872 799
f 799 872 800
f 872 873 800
f 800 873 801
f 873 874 801
f 801 874 802
f 874 875 802
f 802 875 803
f 875 876 803
f 803 876 804
f 876 877 804
f 804 877 805
f 877 878 805
f 805 878 806
f 878 879 806
f 806 879 807
f 879 880 807
f 807 880 808
f 880 881 808
f 808 881 809
f 881 882 809
f 809 882 810
f 882 883 810
f 810 883 811
f 883 884 811
f 811 884 812
f 884 885 812
f 812 885 813
f 885 886 813
f 813 886 814
f 886 887 814
f 814 887 815
f 887 888 815
f 815 888 816
f 888 889 816
f 816 889 817
f 889 890 817
f 817 890 818
f 890 891 818
f 818 891 819
f 891 892 819
f 819 892 820
f 892 893 820
f 820 893 821
f 893 894 821
f 821 894 822
f 894 895 822
f 822 895 823
f 895 896 823
f 823 896 824
f 896 897 824
f 824 897 825
f 897 898 825
f 825 898 826
f 898 899 826
f 826 899 827
f 899 900 827
f 827 900 828
f 900 901 828
f 828 901 829
f 901 902 829
f 829 902 830
f 902 903 830
f 830 903 831
f 903 904 831
f 831 904 832
f 904 905 832
f 832 905 833
f 905 906 833
f 833 906 834
f 906 907 834
f 834 907 835
f 907 908 835
f 835 908 836
f 908 909 836
f 836 909 837
f 909 910 837
f 837 910 838
f 910 911 838
f 838 911 839
f 911 912 839
f 839 912 840
f 912 913 840
f 840 913 841
f 913 914 841
f 841 914 842
f 914 915 842
f 842 915 843
f 915 916 843
f 843 916 844
f 916 917 844
f 844 917 845
f 917 918 845
f 845 918 846
f 918 919 846
f 846 919 847
f 919 920 847
f 847 920 848
f 920 921 848
f 848 921 849
f 921 922 849
f 849 922 850
f 922 923 850
f 850 923 851
f 923 924 851
f 851 924 852
f 924 925 852
f 852 925 853
f 925 926 853
f 853 926 854
f 926 927 854
f 854 927 855
f 927 928 855
f 855 928 856
f 928 929 856
f 856 929 857
f 929 930 857
f 857 930 858
f 930 931 858
f 858 931 859
f 931 932 859
f 859 932 860
f 932 933 860
f 860 933 861
f 933 934 861
f 861 934 862
f 934 935 862
f 862 935 863
f 935 936 863
f 863 936 864
f 936 865 864
f 936 937 865
f 937 938 865
f 865 938 866
f 938 939 866
f 866 939 867
f 939 940 867
f 867 940 868
f 940 941 868
f 868 941 869
f 941 942 869
f 869 942 870
f 942 943 870
f 870 943 871
f 943 944 871
f 871 944 872
f 944 945 872
f 872 945 873
f 945 946 873
f 873 946 874
f 946 947 874
f 874 947 875
f 947 948 875
f 875 948 876
f 948 949 876
f 876 949 877
f 949 950 877
f 877 950 878
f 950 951 878
f 878 951 879
f 951 952 879
f 879 952 880
f 952 953 880
f 880 953 881
f 953 954 881
f 881 954 882
f 954 955 882
f 882 955 883
f 955 956 883
f 883 956 884
f 956 957 884
f 884 957 885
f 957 958 885
f 885 958 886
f 958 959 886
f 886 959 887
f 959 960 887
f 887 960 888
f 960 961 888
f 888 961 889
f 961 962 889
f 889 962 890
f 962 963 890
f 890 963 891
f 963 964 891
f 891 964 892
f 964 965 892
f 892 965 893
f 965 966 893
f 893 966 894
f 966 967 894
f 894 967 895
f 967 968 895
f 895 968 896
f 968 969 896
f 896 969 897
f 969 970 897
f 897 970 898
f 970 971 898
f 898 971 899
f 971 972 899
f 899 972 900
f 972 973 900
f 900 973 901
f 973 974 901
f 901 974 902
f 974 975 902
f 902 975 903
f 975 976 903
f 903 976 904
f 976 977 904
f 904 977 905
f 977 978 905
f 905 978 906
f 978 979 906
f 906 979 907
f 979 980 907
f 907 980 908
f 980 981 908
f 908 981 909
f 981 982 909
f 909 982 910
f 982 983 910
f 910 983 911
f 983 984 911
f 911 984 912
f 984 985 912
f 912 985 913
f 985 986 913
f 913 986 914
f 986 987 914
f 914 987 915
f 987 988 915
f 915 988 916
f 988 989 916
f 916 989 917
f 989 990 917
f 917 990 918
f 990 991 918
f 918 991 919
f 991 992 919
f 919 992 920
f 992 993 920
f 920 993 921
f 993 994 921
f 921 994 922
f 994 995 922
f 922 995 923
f 995 996 923
f 923 996 924
f 996 997 924
f 924 997 925
f 997 998 925
f 925 998 926
f 998 999 926
f 926 999 927
f 999 1000 927
f 927 1000 928
f 1000 1001 928
f 928 1001 929
f 1001 1002 929
f 929 1002 930
f 1002 1003 930
f 930 1003 931
f 1003 1004 931
f 931 1004 932
f 1004 1005 932
f 932 1005 933
f 1005 1006 933
f 933 1006 934
f 1006 1007 934
f 934 1007 935
f 1007 1008 935
f 935 1008 936
f 1008 937 936
f 1008 1009 937
f 1009 1010 937
f 937 1010 938
f 1010 1011 938
f 938 1011 939
f 1011 1012 939
f 939 1012 940
f 1012 1013 940
f 940 1013 941
f 1013 1014 941
f 941 1014 942
f 1014 1015 942
f 942 1015 943
f 1015 1016 943
f 943 1016 944
f 1016 1017 944
f 944 1017 945
f 1017 1018 945
f 945 1018 946
f 1018 1019 946
f 946 1019 947
f 1019 1020 947
f 947 1020 948
f 1020 1021 948
f 948 1021 949
f 1021 1022 949
f 949 1022 950
f 1022 1023 950
f 950 1023 951
f 1023 1024 951
f 951 1024 952
f 1024 1025 952
f 952 1025 953
f 1025 1026 953
f 953 1026 954
f 1026 1027 954
f 954 1027 955
f 1027 1028 955
f 955 1028 956
f 1028 1029 956
f 956 1029 957
f 1029 1030 957
f 957 1030 958
f 1030 1031 958
f 958 1031 959
f 1031 1032 959
f 959 1032 960
f 1032 1033 960
f 960 1033 961
f 1033 1034 961
f 961 1034 962
f 1034 1035 962
f 962 1035 963
f 1035 1036 963
f 963 1036 964
f 1036 1037 964
f 964 1037 965
f 1037 1038 965
f 965 1038 966
f 1038 1039 966
f 966 1039 967
f 1039 1040 967
f 967 1040 968
f 1040 1041 968
f 968 1041 969
f 1041 1042 969
f 969 1042 970
f 1042 1043 970
f 970 1043 971
f 1043 1044 971
f 971 1044 972
f 1044 1045 972
f 972 1045 973
f 1045 1046 973
f 973 1046 974
f 1046 1047 974
f 974 1047 975
f 1047 1048 975
f 975 1048 976
f 1048 1049 976
f 976 1049 977
f 1049 1050 977
f 977 1050 978
f 1050 1051 978
f 978 1051 979
f 1051 1052 979
f 979 1052 980
f 1052 1053 980
f 980 1053 981
f 1053 1054 981
f 981 1054 982
f 1054 1055 982
f 982 1055 983
f 1055 1056 983
f 983 1056 984
f 1056 1057 984
f 984 1057 985
f 1057 1058 985
f 985 1058 986
f 1058 1059 986
f 986 1059 987
f 1059 1060 987
f 987 1060 988
f 1060 1061 988
f 988 1061 989
f 1061 1062 989
f 989 1062 990
f 1062 1063 990
f 990 1063 991
f 1063 1064 991
f 991 1064 992
f 1064 1065 992
f 992 1065 993
f 1065 1066 993
f 993 1066 994
f 1066 1067 994
f 994 1067 995
f 1067 1068 995
f 995 1068 996
f 1068 1069 996
f 996 1069 997
f 1069 1070 997
f 997 1070 998
f 1070 1071 998
f 998 1071 999
f 1071 1072 999
f 999 1072 1000
f 1072 1073 1000
f 1000 1073 1001
f 1073 1074 1001
f 1001 1074 1002
f 1074 1075 1002
f 1002 1075 1003
f 1075 1076 1003
f 1003 1076 1004
f 1076 1077 1004
f 1004 1077 1005
f 1077 1078 1005
f 1005 1078 1006
f 1078 1079 1006
f 1006 1079 1007
f 1079 1080 1007
f 1007 1080 1008
f 1080 1009 1008
f 1080 1081 1009
f 1081 1082 1009
f 1009 1082 1010
f 1082 1083 1010
f 1010 1083 1011
f 1083 1084 1011
f 1011 1084 1012
f 1084 1085 1012
f 1012 1085 1013
f 1085 1086 1013
f 1013 1086 1014
f 1086 1087 1014
f 1014 1087 1015
f 1087 1088 1015
f 1015 1088 1016
f 1088 1089 1016
f 1016 1089 1017
f 1089 1090 1017
f 1017 1090 1018
f 1090 1091 1018
f 1018 1091 1019
f 1091 1092 1019
f 1019 1092 1020
f 1092 1093 1020
f 1020 1093 1021
f 1093 1094 1021
f 1021 1094 1022
f 1094 1095 1022
f 1022 1095 1023
f 1095 1096 1023
f 1023 1096 1024
f 1096 1097 1024
f 1024 1097 1025
f 1097 1098 1025
f 1025 1098 1026
f 1098 1099 1026
f 1026 1099 1027
f 1099 1100 1027
f 1027 1100 1028
f 1100 1101 1028
f 1028 1101 1029
f 1101 1102 1029
f 1029 1102 1030
f 1102 1103 1030
f 1030 1103 1031
f 1103 1104 1031
f 1031 1104 1032
f 1104 1105 1032
f 1032 1105 1033
f 1105 1106 1033
f 1033 1106 1034
f 1106 1107 1034
f 1034 1107 1035
f 1107 1108 1035
f 1035 1108 1036
f 1108 1109 1036
f 1036 1109 1037
f 1109 1110 1037
f 1037 1110 1038
f 1110 1111 1038
f 1038 1111 1039
f 1111 1112 1039
f 1039 1112 1040
f 1112 1113 1040
f 1040 1113 1041
f 1113 1114 1041
f 1041 1114 1042
f 1114 1115 1042
f 1042 1115 1043
f 1115 1116 1043
f 1043 1116 1044
f 1116 1117 1044
f 1044 1117 1045
f 1117 1118 1045
f 1045 1118 1046
f 1118 1119 1046
f 1046 1119 1047
f 1119 1120 1047
f 1047 1120 1048
f 1120 1121 1048
f 1048 1121 1049
f 1121 1122 1049
f 1049 1122 1050
f 1122 1123 1050
f 1050 1123 1051
f 1123 1124 1051
f 1051 1124 1052
f 1124 1125 1052
f 1052 1125 1053
f 1125 1126 1053
f 1053 1126 1054
f 1126 1127 1054
f 1054 1127 1055
f 1127 1128 1055
f 1055 1128 1056
f 1128 1129 1056
f 1056 1129 1057
f 1129 1130 1057
f 1057 1130 1058
f 1130 1131 1058
f 1058 1131 1059
f 1131 1132 1059
f 1059 1132 1060
f 1132 1133 1060
f 1060 1133 1061
f 1133 1134 1061
f 1061 1134 1062
f 1134 1135 1062
f 1062 1135 1063
f 1135 1136 1063
f 1063 1136 1064
f 1136 1137 1064
f 1064 1137 1065
f 1137 1138 1065
f 1065 1138 1066
f 1138 1139 1066
f 1066 1139 1067
f 1139 1140 1067
f 1067 1140 1068
f 1140 1141 1068
f 1068 1141 1069
f 1141 1142 1069
f 1069 1142 1070
f 1142 1143 1070
f 1070 1143 1071
f 1143 1144 1071
f 1071 1144 1072
f 1144 1145 1072
f 1072 1145 1073
f 1145 1146 1073
f 1073 1146 1074
f 1146 1147 1074
f 1074 1147 1075
f 1147 1148 1075
f 1075 1148 1076
f 1148 1149 1076
f 1076 1149 1077
f 1149 1150 1077
f 1077 1150 1078
f 1150 1151 1078
f 1078 1151 1079
f 1151 1152 1079
f 1079 1152 1080
f 1152 1081 1080
f 1152 1153 1081
f 1153 1154 1081
f 1081 1154 1082
f 1154 1155 1082
f 1082 1155 1083
f 1155 1156 1083
f 1083 1156 1084
f 1156 1157 1084
f 1084 1157 1085
f 1157 1158 1085
f 1085 1158 1086
f 1158 1159 1086
f 1086 1159 1087
f 1159 1160 1087
f 1087 1160 1088
f 1160 1161 1088
f 1088 1161 1089
f 1161 1162 1089
f 1089 1162 1090
f 1162 1163 1090
f 1090 1163 1091
f 1163 1164 1091
f 1091 1164 1092
f 1164 1165 1092
f 1092 1165 1093
f 1165 1166 1093
f 1093 1166 1094
f 1166 1167 1094
f 1094 1167 1095
f 1167 1168 1095
f 1095 1168 1096
f 1168 1169 1096
f 1096 1169 1097
f 1169 1170 1097
f 1097 1170 1098
f 1170 1171 1098
f 1098 1171 1099
f 1171 1172 1099
f 1099 1172 1100
f 1172 1173 1100
f 1100 1173 1101
f 1173 1174 1101
f 1101 1174 1102
f 1174 1175 1102
f 1102 1175 1103
f 1175 1176 1103
f 1103 1176 1104
f 1176 1177 1104
f 1104 1177 1105
f 1177 1178 1105
f 1105 1178 1106
f 1178 1179 1106
f 1106 1179 1107
f 1179 1180 1107
f 1107 1180 1108
f 1180 1181 1108
f 1108 1181 1109
f 1181 1182 1109
f 1109 1182 1110
f 1182 1183 1110
f 1110 1183 1111
f 1183 1184 1111
f 1111 1184 1112
f 1184 1185 1112
f 1112 1185 1113
f 1185 1186 1113
f 1113 1186 1114
f 1186 1187 1114
f 1114 1187 1115
f 1187 1188 1115
f 1115 1188 1116
f 1188 1189 1116
f 1116 1189 1117
f 1189 1190 1117
f 1117 1190 1118
f 1190 1191 1118
f 1118 1191 1119
f 1191 1192 1119
f 1119 1192 1120
f 1192 1193 1120
f 1120 1193 1121
f 1193 1194 1121
f 1121 1194 1122
f 1194 1195 1122
f 1122 1195 1123
f 1195 1196 1123
f 1123 1196 1124
f 1196 1197 1124
f 1124 1197 1125
f 1197 1198 1125
f 1125 1198 1126
f 1198 1199 1126
f 1126 1199 1127
f 1199 1200 1127
f 1127 1200 1128
f 1200 1201 1128
f 1128 1201 1129
f 1201 1202 1129
f 1129 1202 1130
f 1202 1203 1130
f 1130 1203 1131
f 1203 1204 1131
f 1131 1204 1132
f 1204 1205 1132
f 1132 1205 1133
f 1205 1206 1133
f 1133 1206 1134
f 1206 1207 1134
f 1134 1207 1135
f 1207 1208 1135
f 1135 1208 1136
f 1208 1209 1136
f 1136 1209 1137
f 1209 1210 1137
f 1137 1210 1138
f 1210 1211 1138
f 1138 1211 1139
f 1211 1212 1139
f 1139 1212 1140
f 1212 1213 1140
f 1140 1213 1141
f 1213 1214 1141
f 1141 1214 1142
f 1214 1215 1142
f 1142 1215 1143
f 1215 1216 1143
f 1143 1216 1144
f 1216 1217 1144
f 1144 1217 1145
f 1217 1218 1145
f 1145 1218 1146
f 1218 1219 1146
f 1146 1219 1147
f 1219 1220 1147
f 1147 1220 1148
f 1220 1221 1148
f 1148 1221 1149
f 1221 1222 1149
f 1149 1222 1150
f 1222 1223 1150
f 1150 1223 1151
f 1223 1224 1151
f 1151 1224 1152
f 1224 1153 1152
f 1224 1225 1153
f 1225 1226 1153
f 1153 1226 1154
f 1226 1227 1154
f 1154 1227 1155
f 1227 1228 1155
f 1155 1228 1156
f 1228 1229 1156
f 1156 1229 1157
f 1229 1230 1157
f 1157 1230 1158
f 1230 1231 1158
f 1158 1231 1159
f 1231 1232 1159
f 1159 1232 1160
f 1232 1233 1160
f 1160 1233 1161
f 1233 1234 1161
f 1161 1234 1162
f 1234 1235 1162
f 1162 1235 1163
f 1235 1236 1163
f 1163 1236 1164
f 1236 1237 1164
f 1164 1237 1165
f 1237 1238 1165
f 1165 1238 1166
f 1238 1239 1166
f 1166 1239 1167
f 1239 1240 1167
f 1167 1240 1168
f 1240 1241 1168
f 1168 1241 1169
f 1241 1242 1169
f 1169 1242 1170
f 1242 1243 1170
f 1170 1243 1171
f 1243 1244 1171
f 1171 1244 1172
f 1244 1245 1172
f 1172 1245 1173
f 1245 1246 1173
f 1173 1246 1174
f 1246 1247 1174
f 1174 1247 1175
f 1247 1248 1175
f 1175 1248 1176
f 1248 1249 1176
f 1176 1249 1177
f 1249 1250 1177
f 1177 1250 1178
f 1250 1251 1178
f 1178 1251 1179
f 1251 1252 1179
f 1179 1252 1180
f 1252 1253 1180
f 1180 1253 1181
f 1253 1254 1181
f 1181 1254 1182
f 1254 1255 1182
f 1182 1255 1183
f 1255 1256 1183
f 1183 1256 1184
f 1256 1257 1184
f 1184 1257 1185
f 1257 1258 1185
f 1185 1258 1186
f 1258 1259 1186
f 1186 1259 1187
f 1259 1260 1187
f 1187 1260 1188
f 1260 1261 1188
f 1188 1261 1189
f 1261 1262 1189
f 1189 1262 1190
f 1262 1263 1190
f 1190 1263 1191
f 1263 1264 1191
f 1191 1264 1192
f 1264 1265 1192
f 1192 1265 1193
f 1265 1266 1193
f 1193 1266 1194
f 1266 1267 1194
f 1194 1267 1195
f 1267 1268 1195
f 1195 1268 1196
f 1268 1269 1196
f 1196 1269 1197
f 1269 1270 1197
f 1197 1270 1198
f 1270 1271 1198
f 1198 1271 1199
f 1271 1272 1199
f 1199 1272 1200
f 1272 1273 1200
f 1200 1273 1201
f 1273 1274 1201
f 1201 1274 1202
f 1274 1275 1202
f 1202 1275 1203
f 1275 1276 1203
f 1203 1276 1204
f 1276 1277 1204
f 1204 1277 1205
f 1277 1278 1205
f 1205 1278 1206
f 1278 1279 1206
f 1206 1279 1207
f 1279 1280 1207
f 1207 1280 1208
f 1280 1281 1208
f 1208 1281 1209
f 1281 1282 1209
f 1209 1282 1210
f 1282 1283 1210
f 1210 1283 1211
f 1283 1284 1211
f 1211 1284 1212
f 1284 1285 1212
f 1212 1285 1213
f 1285 1286 1213
f 1213 1286 1214
f 1286 1287 1214
f 1214 1287 1215
f 1287 1288 1215
f 1215 1288 1216
f 1288 1289 1216
f 1216 1289 1217
f 1289 1290 1217
f 1217 1290 1218
f 1290 1291 1218
f 1218 1291 1219
f 1291 1292 1219
f 1219 1292 1220
f 1292 1293 1220
f 1220 1293 1221
f 1293 1294 1221
f 1221 1294 1222
f 1294 1295 1222
f 1222 1295 1223
f 1295 1296 1223
f 1223 1296 1224
f 1296 1225 1224
f 1296 1297 1225
f 1297 1298 1225
f 1225 1298 1226
f 1298 1299 1226
f 1226 1299 1227
f 1299 1300 1227
f 1227 1300 1228
f 1300 1301 1228
f 1228 1301 1229
f 1301 1302 1229
f 1229 1302 1230
f 1302 1303 1230
f 1230 1303 1231
f 1303 1304 1231
f 1231 1304 1232
f 1304 1305 1232
f 1232 1305 1233
f 1305 1306 1233
f 1233 1306 1234
f 1306 1307 1234
f 1234 1307 1235
f 1307 1308 1235
f 1235 1308 1236
f 1308 1309 1236
f 1236 1309 1237
f 1309 1310 1237
f 1237 1310 1238
f 1310 1311 1238
f 1238 1311 1239
f 1311 1312 1239
f 1239 1312 1240
f 1312 1313 1240
f 1240 1313 1241
f 1313 1314 1241
f 1241 1314 1242
f 1314 1315 1242
f 1242 1315 1243
f 1315 1316 1243
f 1243 1316 1244
f 1316 1317 1244
f 1244 1317 1245
f 1317 1318 1245
f 1245 1318 1246
f 1318 1319 1246
f 1246 1319 1247
f 1319 1320 1247
f 1247 1320 1248
f 1320 1321 1248
f 1248 1321 1249
f 1321 1322 1249
f 1249 1322 1250
f 1322 1323 1250
f 1250 1323 1251
f 1323 1324 1251
f 1251 1324 1252
f 1324 1325 1252
f 1252 1325 1253
f 1325 1326 1253
f 1253 1326 1254
f 1326 1327 1254
f 1254 1327 1255
f 1327 1328 1255
f 1255 1328 1256
f 1328 1329 1256
f 1256 1329 1257
f 1329 1330 1257
f 1257 1330 1258
f 1330 1331 1258
f 1258 1331 1259
f 1331 1332 1259
f 1259 1332 1260
f 1332 1333 1260
f 1260 1333 1261
f 1333 1334 1261
f 1261 1334 1262
f 1334 1335 1262
f 1262 1335 1263
f 1335 1336 1263
f 1263 1336 1264
f 1336 1337 1264
f 1264 1337 1265
f 1337 1338 1265
f 1265 1338 1266
f 1338 1339 1266
f 1266 1339 1267
f 1339 1340 1267
f 1267 1340 1268
f 1340 1341 1268
f 1268 1341 1269
f 1341 1342 1269
f 1269 1342 1270
f 1342 1343 1270
f 1270 1343 1271
f 1343 1344 1271
f 1271 1344 1272
f 1344 1345 1272
f 1272 1345 1273
f 1345 1346 1273
f 1273 1346 1274
f 1346 1347 1274
f 1274 1347 1275
f 1347 1348 1275
f 1275 1348 1276
f 1348 1349 1276
f 1276 1349 1277
f 1349 1350 1277
f 1277 1350 1278
f 1350 1351 1278
f 1278 1351 1279
f 1351 1352 1279
f 1279 1352 1280
f 1352 1353 1280
f 1280 1353 1281
f 1353 1354 1281
f 1281 1354 1282
f 1354 1355 1282
f 1282 1355 1283
f 1355 1356 1283
f 1283 1356 1284
f 1356 1357 1284
f 1284 1357 1285
f 1357 1358 1285
f 1285 1358 1286
f 1358 1359 1286
f 1286 1359 1287
f 1359 1360 1287
f 1287 1360 1288
f 1360 1361 1288
f 1288 1361 1289
f 1361 1362 1289
f 1289 1362 1290
f 1362 1363 1290
f 1290 1363 1291
f 1363 1364 1291
f 1291 1364 1292
f 1364 1365 1292
f 1292 1365 1293
f 1365 1366 1293
f 1293 1366 1294
f 1366 1367 1294
f 1294 1367 1295
f 1367 1368 1295
f 1295 1368 1296
f 1368 1297 1296
f 1368 1369 1297
f 1369 1370 1297
f 1297 1370 1298
f 1370 1371 1298
f 1298 1371 1299
f 1371 1372 1299
f 1299 1372 1300
f 1372 1373 1300
f 1300 1373 1301
f 1373 1374 1301
f 1301 1374 1302
f 1374 1375 1302
f 1302 1375 1303
f 1375 1376 1303
f 1303 1376 1304
f 1376 1377 1304
f 1304 1377 1305
f 1377 1378 1305
f 1305 1378 1306
f 1378 1379 1306
f 1306 1379 1307
f 1379 1380 1307
f 1307 1380 1308
f 1380 1381 1308
f 1308 1381 1309
f 1381 1382 1309
f 1309 1382 1310
f 1382 1383 1310
f 1310 1383 1311
f 1383 1384 1311
f 1311 1384 1312
f 1384 1385 1312
f 1312 1385 1313
f 1385 1386 1313
f 1313 1386 1314
f 1386 1387 1314
f 1314 1387 1315
f 1387 1388 1315
f 1315 1388 1316
f 1388 1389 1316
f 1316 1389 1317
f 1389 1390 1317
f 1317 1390 1318
f 1390 1391 1318
f 1318 1391 1319
f 1391 1392 1319
f 1319 1392 1320
f 1392 1393 1320
f 1320 1393 1321
f 1393 1394 1321
f 1321 1394 1322
f 1394 1395 1322
f 1322 1395 1323
f 1395 1396 1323
f 1323 1396 1324
f 1396 1397 1324
f 1324 1397 1325
f 1397 1398 1325
f 1325 1398 1326
f 1398 1399 1326
f 1326 1399 1327
f 1399 1400 1327
f 1327 1400 1328
f 1400 1401 1328
f 1328 1401 1329
f 1401 1402 1329
f 1329 1402 1330
f 1402 1403 1330
f 1330 1403 1331
f 1403 1404 1331
f 1331 1404 1332
f 1404 1405 1332
f 1332 1405 1333
f 1405 1406 1333
f 1333 1406 1334
f 1406 1407 1334
f 1334 1407 1335
f 1407 1408 1335
f 1335 1408 1336
f 1408 1409 1336
f 1336 1409 1337
f 1409 1410 1337
f 1337 1410 1338
f 1410 1411 1338
f 1338 1411 1339
f 1411 1412 1339
f 1339 1412 1340
f 1412 1413 1340
f 1340 1413 1341
f 1413 1414 1341
f 1341 1414 1342
f 1414 1415 1342
f 1342 1415 1343
f 1415 1416 1343
f 1343 1416 1344
f 1416 1417 1344
f 1344 1417 1345
f 1417 1418 1345
f 1345 1418 1346
f 1418 1419 1346
f 1346 1419 1347
f 1419 1420 1347
f 1347 1420 1348
f 1420 1421 1348
f 1348 1421 1349
f 1421 1422 1349
f 1349 1422 1350
f 1422 1423 1350
f 1350 1423 1351
f 1423 1424 1351
f 1351 1424 1352
f 1424 1425 1352
f 1352 1425 1353
f 1425 1426 1353
f 1353 1426 1354
f 1426 1427 1354
f 1354 1427 1355
f 1427 1428 1355
f 1355 1428 1356
f 1428 1429 1356
f 1356 1429 1357
f 1429 1430 1357
f 1357 1430 1358
f 1430 1431 1358
f 1358 1431 1359
f 1431 1432 1359
f 1359 1432 1360
f 1432 1433 1360
f 1360 1433 1361
f 1433 1434 1361
f 1361 1434 1362
f 1434 1435 1362
f 1362 1435 1363
f 1435 1436 1363
f 1363 1436 1364
f 1436 1437 1364
f 1364 1437 1365
f 1437 1438 1365
f 1365 1438 1366
f 1438 1439 1366
f 1366 1439 1367
f 1439 1440 1367
f 1367 1440 1368
f 1440 1369 1368
f 1440 1441 1369
f 1441 1442 1369
f 1369 1442 1370
f 1442 1443 1370
f 1370 1443 1371
f 1443 1444 1371
f 1371 1444 1372
f 1444 1445 1372
f 1372 1445 1373
f 1445 1446 1373
f 1373 1446 1374
f 1446 1447 1374
f 1374 1447 1375
f 1447 1448 1375
f 1375 1448 1376
f 1448 1449 1376
f 1376 1449 1377
f 1449 1450 1377
f 1377 1450 1378
f 1450 1451 1378
f 1378 1451 1379
f 1451 1452 1379
f 1379 1452 1380
f 1452 1453 1380
f 1380 1453 1381
f 1453 1454 1381
f 1381 1454 1382
f 1454 1455 1382
f 1382 1455 1383
f 1455 1456 1383
f 1383 1456 1384
f 1456 1457 1384
f 1384 1457 1385
f 1457 1458 1385
f 1385 1458 1386
f 1458 1459 1386
f 1386 1459 1387
f 1459 1460 1387
f 1387 1460 1388
f 1460 1461 1388
f 1388 1461 1389
f 1461 1462 1389
f 1389 1462 1390
f 1462 1463 1390
f 1390 1463 1391
f 1463 1464 1391
f 1391 1464 1392
f 1464 1465 1392
f 1392 1465 1393
f 1465 1466 1393
f 1393 1466 1394
f 1466 1467 1394
f 1394 1467 1395
f 1467 1468 1395
f 1395 1468 1396
f 1468 1469 1396
f 1396 1469 1397
f 1469 1470 1397
f 1397 1470 1398
f 1470 1471 1398
f 1398 1471 1399
f 1471 1472 1399
f 1399 1472 1400
f 1472 1473 1400
f 1400 1473 1401
f 1473 1474 1401
f 1401 1474 1402
f 1474 1475 1402
f 1402 1475 1403
f 1475 1476 1403
f 1403 1476 1404
f 1476 1477 1404
f 1404 1477 1405
f 1477 1478 1405
f 1405 1478 1406
f 1478 1479 1406
f 1406 1479 1407
f 1479 1480 1407
f 1407 1480 1408
f 1480 1481 1408
f 1408 1481 1409
f 1481 1482 1409
f 1409 1482 1410
f 1482 1483 1410
f 1410 1483 1411
f 1483 1484 1411
f 1411 1484 1412
f 1484 1485 1412
f 1412 1485 1413
f 1485 1486 1413
f 1413 1486 1414
f 1486 1487 1414
f 1414 1487 1415
f 1487 1488 1415
f 1415 1488 1416
f 1488 1489 1416
f 1416 1489 1417
f 1489 1490 1417
f 1417 1490 1418
f 1490 1491 1418
f 1418 1491 1419
f 1491 1492 1419
f 1419 1492 1420
f 1492 1493 1420
f 1420 1493 1421
f 1493 1494 1421
f 1421 1494 1422
f 1494 1495 1422
f 1422 1495 1423
f 1495 1496 1423
f 1423 1496 1424
f 1496 1497 1424
f 1424 1497 1425
f 1497 1498 1425
f 1425 1498 1426
f 1498 1499 1426
f 1426 1499 1427
f 1499 1500 1427
f 1427 1500 1428
f 1500 1501 1428
f 1428 1501 1429
f 1501 1502 1429
f 1429 1502 1430
f 1502 1503 1430
f 1430 1503 1431
f 1503 1504 1431
f 1431 1504 1432
f 1504 1505 1432
f 1432 1505 1433
f 1505 1506 1433
f 1433 1506 1434
f 1506 1507 1434
f 1434 1507 1435
f 1507 1508 1435
f 1435 1508 1436
f 1508 1509 1436
f 1436 1509 1437
f 1509 1510 1437
f 1437 1510 1438
f 1510 1511 1438
f 1438 1511 1439
f 1511 1512 1439
f 1439 1512 1440
f 1512 1441 1440
f 120 263 122
f 263 265 122
f 122 265 124
f 265 267 124
f 124 267 126
f 267 269 126
f 126 269 128
f 269 271 128
f 128 271 130
f 271 273 130
f 130 273 132
f 273 275 132
f 132 275 134
f 275 277 134
f 134 277 136
f 277 279 136
f 136 279 138
f 279 281 138
f 138 281 140
f 281 283 140
f 140 283 142
f 283 285 142
f 142 285 144
f 285 287 144
f 144 287 2
f 287 145 2
f 2 145 4
f 145 147 4
f 4 147 6
f 147 149 6
f 6 149 8
f 149 151 8
f 8 151 10
f 151 153 10
f 10 153 12
f 153 155 12
f 12 155 14
f 155 157 14
f 14 157 16
f 157 159 16
f 16 159 18
f 159 161 18
f 18 161 20
f 161 163 20
f 20 163 22
f 163 165 22
f 22 165 24
f 165 167 24
f 24 167 26
f 167 169 26
f 26 169 28
f 169 171 28
f 28 171 30
f 171 173 30
f 30 173 32
f 173 175 32
f 32 175 34
f 175 177 34
f 34 177 36
f 177 179 36
f 36 179 38
f 179 181 38
f 38 181 40
f 181 183 40
f 40 183 42
f 183 185 42
f 42 185 44
f 185 187 44
f 44 187 46
f 187 189 46
f 46 189 48
f 189 191 48
f 48 191 50
f 191 193 50
f 50 193 52
f 193 195 52
f 52 195 54
f 195 197 54
f 54 197 56
f 197 199 56
f 56 199 58
f 199 201 58
f 58 201 60
f 201 203 60
f 60 203 62
f 203 205 62
f 62 205 64
f 205 207 64
f 64 207 66
f 207 209 66
f 66 209 68
f 209 211 68
f 68 211 70
f 211 213 70
f 70 213 72
f 213 215 72
f 72 215 74
f 215 217 74
f 74 217 76
f 217 219 76
f 76 219 78
f 219 221 78
f 78 221 80
f 221 223 80
f 80 223 82
f 223 225 82
f 82 225 84
f 225 227 84
f 84 227 86
f 227 229 86
f 86 229 88
f 229 231 88
f 88 231 90
f 231 233 90
f 90 233 92
f 233 235 92
f 92 235 94
f 235 237 94
f 94 237 96
f 237 239 96
f 96 239 98
f 239 241 98
f 98 241 100
f 241 243 100
f 100 243 102
f 243 245 102
f 102 245 104
f 245 247 104
f 104 247 106
f 247 249 106
f 106 249 108
f 249 251 108
f 108 251 110
f 251 253 110
f 110 253 112
f 253 255 112
f 112 255 114
f 255 257 114
f 114 257 116
f 257 259 116
f 116 259 118
f 259 261 118
f 118 261 120
f 261 263 120
f 27 1453 25
f 1453 1452 25
f 25 1452 23
f 1452 1451 23
f 23 1451 21
f 1451 1450 21
f 21 1450 19
f 1450 1449 19
f 19 1449 17
f 1449 1448 17
f 17 1448 15
f 1448 1447 15
f 15 1447 13
f 1447 1446 13
f 13 1446 11
f 1446 1445 11
f 11 1445 9
f 1445 1444 9
f 9 1444 7
f 1444 1443 7
f 7 1443 5
f 1443 1442 5
f 5 1442 3
f 1442 1441 3
f 3 1441 1
f 1441 1512 1
f 1 1512 143
f 1512 1511 143
f 143 1511 141
f 1511 1510 141
f 141 1510 139
f 1510 1509 139
f 139 1509 137
f 1509 1508 137
f 137 1508 135
f 1508 1507 135
f 135 1507 133
f 1507 1506 133
f 133 1506 131
f 1506 1505 131
f 131 1505 129
f 1505 1504 129
f 129 1504 127
f 1504 1503 127
f 127 1503 125
f 1503 1502 125
f 125 1502 123
f 1502 1501 123
f 123 1501 121
f 1501 1500 121
f 121 1500 119
f 1500 1499 119
f 119 1499 117
f 1499 1498 117
f 117 1498 115
f 1498 1497 115
f 115 1497 113
f 1497 1496 113
f 113 1496 111
f 1496 1495 111
f 111 1495 109
f 1495 1494 109
f 109 1494 107
f 1494 1493 107
f 107 1493 105
f 1493 1492 105
f 105 1492 103
f 1492 1491 103
f 103 1491 101
f 1491 1490 101
f 101 1490 99
f 1490 1489 99
f 99 1489 97
f 1489 1488 97
f 97 1488 95
f 1488 1487 95
f 95 1487 93
f 1487 1486 93
f 93 1486 91
f 1486 1485 91
f 91 1485 89
f 1485 1484 89
f 89 1484 87
f 1484 1483 87
f 87 1483 85
f 1483 1482 85
f 85 1482 83
f 1482 1481 83
f 83 1481 81
f 1481 1480 81
f 81 1480 79
f 1480 1479 79
f 79 1479 77
f 1479 1478 77
f 77 1478 75
f 1478 1477 75
f 75 1477 73
f 1477 1476 73
f 73 1476 71
f 1476 1475 71
f 71 1475 69
f 1475 1474 69
f 69 1474 67
f 1474 1473 67
f 67 1473 65
f 1473 1472 65
f 65 1472 63
f 1472 1471 63
f 63 1471 61
f 1471 1470 61
f 61 1470 59
f 1470 1469 59
f 59 1469 57
f 1469 1468 57
f 57 1468 55
f 1468 1467 55
f 55 1467 53
f 1467 1466 53
f 53 1466 51
f 1466 1465 51
f 51 1465 49
f 1465 1464 49
f 49 1464 47
f 1464 1463 47
f 47 1463 45
f 1463 1462 45
f 45 1462 43
f 1462 1461 43
f 43 1461 41
f 1461 1460 41
f 41 1460 39
f 1460 1459 39
f 39 1459 37
f 1459 1458 37
f 37 1458 35
f 1458 1457 35
f 35 1457 33
f 1457 1456 33
f 33 1456 31
f 1456 1455 31
f 31 1455 29
f 1455 1454 29
f 29 1454 27
f 1454 1453 27

