# https://github.com/mikedh/trimesh

o tm26_251_p08_p_linear_pot.stl
v 0.01453999 0.00349149 -0.00361750
v 0.01453999 0.01365149 -0.00361750
v 0.03953999 0.01365149 -0.00361750
v 0.03953999 0.00349149 -0.00361750
v 0.04652499 0.01047649 -0.00361750
v 0.03953999 -0.00158851 -0.00361750
v 0.04652499 0.00666649 -0.00361750
v 0.22539999 -0.00158851 -0.00361750
v 0.21841499 0.00666649 -0.00361750
v 0.22539999 0.01873149 -0.00361750
v 0.21841499 0.01047649 -0.00361750
v 0.03953999 0.01873149 -0.00361750
v 0.03953999 0.00349149 -0.00028750
v 0.03953999 -0.00158851 -0.00028750
v 0.04652499 0.00666649 -0.00028750
v 0.21841499 0.00666649 -0.00028750
v 0.22539999 -0.00158851 -0.00028750
v 0.21841499 0.01047649 -0.00028750
v 0.22539999 0.01873149 -0.00028750
v 0.04652499 0.01047649 -0.00028750
v 0.03953999 0.01873149 -0.00028750
v 0.03953999 0.01365149 -0.00028750
v 0.01453999 0.01365149 -0.00028750
v 0.01453999 0.00349149 -0.00028750
f 1 2 3
f 1 3 4
f 3 5 4
f 4 5 6
f 5 7 6
f 6 7 8
f 7 9 8
f 8 9 10
f 9 11 10
f 10 11 12
f 11 5 12
f 12 5 3
f 13 14 15
f 15 14 16
f 14 17 16
f 16 17 18
f 17 19 18
f 18 19 20
f 19 21 20
f 20 21 22
f 23 24 22
f 24 13 22
f 22 13 20
f 13 15 20
f 18 20 11
f 20 5 11
f 24 23 1
f 23 2 1
f 23 22 2
f 22 3 2
f 22 21 3
f 21 12 3
f 21 19 12
f 19 10 12
f 19 17 10
f 17 8 10
f 15 16 7
f 16 9 7
f 17 14 8
f 14 6 8
f 16 18 9
f 18 11 9
f 20 15 5
f 15 7 5
f 13 24 4
f 24 1 4
f 14 13 6
f 13 4 6

