# https://github.com/mikedh/trimesh

o tm26_251_p19_a_pla_end_support.stl
v 0.21948296 0.01177189 0.01734347
v 0.21958114 0.01176546 0.01734309
v 0.21958114 0.01176546 0.02670000
v 0.22117221 0.01089096 0.01719307
v 0.22122814 0.01081456 0.01717019
v 0.22122814 0.01081456 0.02670000
v 0.22163324 0.00961417 0.01656030
v 0.22163504 0.00952402 0.01649128
v 0.22163504 0.00952402 0.02670000
v 0.22123380 0.00824160 0.01471808
v 0.22122814 0.00823347 0.01469552
v 0.22122814 0.00823347 0.02670000
v 0.21928664 0.01177186 0.00935653
v 0.21918894 0.01176546 0.00935690
v 0.21918894 0.01176546 0.00130000
v 0.21759796 0.01089107 0.00950690
v 0.21754195 0.01081456 0.00952982
v 0.21754195 0.01081456 0.00130000
v 0.21713686 0.00961431 0.01013961
v 0.21713504 0.00952402 0.01020873
v 0.21713504 0.00952402 0.00130000
v 0.21753627 0.00824162 0.01198192
v 0.21754195 0.00823347 0.01200452
v 0.21754195 0.00823347 0.00130000
v 0.21771555 0.00801561 0.01300138
v 0.21772590 0.00800423 0.01317474
v 0.21779405 0.00793303 0.00130000
v 0.21769853 0.00803466 0.01282750
v 0.21772943 0.00800039 0.01335000
v 0.21772592 0.00800422 0.01352500
v 0.21779405 0.00793303 0.02670000
v 0.21771555 0.00801561 0.01369862
v 0.21766144 0.00807775 0.02670000
v 0.21769848 0.00803472 0.01387291
v 0.21767549 0.00806116 0.01404459
v 0.21766144 0.00807775 0.00130000
v 0.21761365 0.00813669 0.01231472
v 0.21766144 0.00807775 0.01256715
v 0.21767546 0.00806119 0.01265521
v 0.21743649 0.00839902 0.00130000
v 0.21734585 0.00857313 0.00130000
v 0.21734585 0.00857313 0.01128751
v 0.21736343 0.00853629 0.01135000
v 0.21743722 0.00839774 0.01161193
v 0.21745045 0.00837516 0.01165953
v 0.21721171 0.00894167 0.01077236
v 0.21721318 0.00893619 0.01077887
v 0.21727073 0.00875447 0.00130000
v 0.21727073 0.00875447 0.01101248
v 0.21728219 0.00872370 0.01105581
v 0.21721171 0.00894167 0.00130000
v 0.21716923 0.00913331 0.00130000
v 0.21716923 0.00913331 0.01056076
v 0.21714361 0.00932792 0.00130000
v 0.21713704 0.00942924 0.01028582
v 0.21714361 0.00932792 0.01037378
v 0.21716276 0.00917197 0.01052157
v 0.21714361 0.00972012 0.00130000
v 0.21714361 0.00972012 0.01006361
v 0.21714242 0.00970610 0.01007338
v 0.21716923 0.00991473 0.00130000
v 0.21721171 0.01010636 0.00130000
v 0.21721171 0.01010636 0.00982684
v 0.21718605 0.01000039 0.00988590
v 0.21716923 0.00991473 0.00993679
v 0.21715416 0.00981668 0.00999867
v 0.21730950 0.01039273 0.00968729
v 0.21727073 0.01029356 0.00130000
v 0.21734585 0.01047491 0.00965231
v 0.21734585 0.01047491 0.00130000
v 0.21738462 0.01055398 0.00962067
v 0.21727675 0.01030992 0.00972477
v 0.21727069 0.01029345 0.00973250
v 0.21723907 0.01020025 0.00977796
v 0.21743649 0.01064902 0.00130000
v 0.21748702 0.01073233 0.00955632
v 0.21743649 0.01064902 0.00958519
v 0.21742703 0.01063249 0.00959116
v 0.21766144 0.01097029 0.00130000
v 0.21779405 0.01111501 0.00130000
v 0.21779405 0.01111501 0.00944922
v 0.21772608 0.01104399 0.00946602
v 0.21766144 0.01097029 0.00948491
v 0.21765719 0.01096520 0.00948627
v 0.21793877 0.01124762 0.00130000
v 0.21809450 0.01136711 0.00130000
v 0.21809450 0.01136711 0.00940045
v 0.21801108 0.01130580 0.00941077
v 0.21793877 0.01124762 0.00942147
v 0.21786475 0.01118269 0.00943447
v 0.21826005 0.01147257 0.00130000
v 0.21843415 0.01156321 0.00130000
v 0.21843415 0.01156321 0.00937396
v 0.21834604 0.01151976 0.00937898
v 0.21826005 0.01147257 0.00938498
v 0.21817622 0.01142171 0.00939208
v 0.21861550 0.01163833 0.00130000
v 0.21880271 0.01169735 0.00130000
v 0.21880271 0.01169735 0.00936150
v 0.21865347 0.01165176 0.00936522
v 0.21861549 0.01163832 0.00936642
v 0.21852379 0.01160265 0.00936982
v 0.21899433 0.01173984 0.00130000
v 0.21909127 0.01175476 0.00935755
v 0.21899433 0.01173984 0.00935849
v 0.21889815 0.01172070 0.00935979
v 0.21938504 0.01177402 0.00935641
v 0.21938504 0.01177402 0.00130000
v 0.21948344 0.01177187 0.00935653
v 0.21958114 0.01176546 0.00130000
v 0.21958114 0.01176546 0.00935690
v 0.21967879 0.01175476 0.00935755
v 0.21977575 0.01173984 0.00130000
v 0.21977575 0.01173984 0.00935849
v 0.21987191 0.01172071 0.00935979
v 0.21996738 0.01169735 0.00130000
v 0.21996738 0.01169735 0.00936150
v 0.22033593 0.01156321 0.00130000
v 0.22024630 0.01160265 0.00936982
v 0.22015458 0.01163833 0.00130000
v 0.22015458 0.01163833 0.00936642
v 0.22011663 0.01165176 0.00936522
v 0.22051004 0.01147257 0.00130000
v 0.22042403 0.01151976 0.00937898
v 0.22033593 0.01156321 0.00937396
v 0.22067559 0.01136711 0.00130000
v 0.22059387 0.01142171 0.00939208
v 0.22051004 0.01147257 0.00938497
v 0.22083132 0.01124762 0.00130000
v 0.22075902 0.01130578 0.00941077
v 0.22067559 0.01136711 0.00940045
v 0.22097604 0.01111501 0.00130000
v 0.22090536 0.01118266 0.00943447
v 0.22083132 0.01124762 0.00942147
v 0.22110865 0.01097029 0.00130000
v 0.22104403 0.01104396 0.00946602
v 0.22097604 0.01111501 0.00944921
v 0.22122814 0.01081456 0.00952981
v 0.22117215 0.01089103 0.00950691
v 0.22122814 0.01081456 0.00130000
v 0.22111298 0.01096510 0.00948630
v 0.22110865 0.01097028 0.00948491
v 0.22128299 0.01073245 0.00955627
v 0.22133359 0.01064902 0.00130000
v 0.22133364 0.01064895 0.00958521
v 0.22134316 0.01063229 0.00959123
v 0.22142424 0.01047491 0.00130000
v 0.22138546 0.01055397 0.00962067
v 0.22149935 0.01029356 0.00973243
v 0.22149329 0.01031002 0.00972471
v 0.22149935 0.01029356 0.00130000
v 0.22146058 0.01039272 0.00968729
v 0.22142424 0.01047491 0.00965230
v 0.22153106 0.01020009 0.00977803
v 0.22155838 0.01010636 0.00130000
v 0.22155838 0.01010636 0.00982683
v 0.22158404 0.01000037 0.00988590
v 0.22160086 0.00991473 0.00130000
v 0.22160086 0.00991473 0.00993678
v 0.22161591 0.00981678 0.00999860
v 0.22162648 0.00972012 0.00130000
v 0.22162649 0.00971997 0.01006370
v 0.22162767 0.00970607 0.01007339
v 0.22163504 0.00952402 0.00130000
v 0.22163323 0.00961427 0.01013963
v 0.22162648 0.00932792 0.00130000
v 0.22163305 0.00942922 0.01028582
v 0.22163504 0.00952402 0.01020872
v 0.22160086 0.00913331 0.01056074
v 0.22160733 0.00917195 0.01052157
v 0.22162648 0.00932792 0.01037376
v 0.22160086 0.00913331 0.00130000
v 0.22155838 0.00894167 0.00130000
v 0.22155838 0.00894167 0.01077233
v 0.22155689 0.00893617 0.01077888
v 0.22149935 0.00875447 0.00130000
v 0.22149935 0.00875447 0.01101245
v 0.22148789 0.00872368 0.01105581
v 0.22142424 0.00857313 0.00130000
v 0.22142424 0.00857313 0.01128748
v 0.22140664 0.00853627 0.01135000
v 0.22133359 0.00839902 0.00130000
v 0.22133286 0.00839773 0.01161190
v 0.22131962 0.00837514 0.01165953
v 0.22122814 0.00823347 0.00130000
v 0.22123380 0.00824160 0.01198192
v 0.22110865 0.00807775 0.00130000
v 0.22115642 0.00813667 0.01231472
v 0.22122814 0.00823347 0.01200448
v 0.22105452 0.00801560 0.01369862
v 0.22104415 0.00800420 0.01352488
v 0.22097604 0.00793303 0.02670000
v 0.22107150 0.00803460 0.01387215
v 0.22097604 0.00793303 0.00130000
v 0.22104064 0.00800037 0.01335000
v 0.22104412 0.00800417 0.01317581
v 0.22107157 0.00803469 0.01282719
v 0.22109458 0.00806114 0.01265541
v 0.22110865 0.00807775 0.01256707
v 0.22105452 0.00801560 0.01300138
v 0.22110865 0.00807775 0.02670000
v 0.22115642 0.00813667 0.01438528
v 0.22110865 0.00807775 0.01413293
v 0.22109461 0.00806118 0.01404479
v 0.22133359 0.00839902 0.02670000
v 0.22142424 0.00857313 0.02670000
v 0.22142424 0.00857313 0.01541252
v 0.22140664 0.00853627 0.01535000
v 0.22133286 0.00839773 0.01508810
v 0.22131962 0.00837514 0.01504047
v 0.22155838 0.00894167 0.01592767
v 0.22155689 0.00893617 0.01592113
v 0.22149935 0.00875447 0.02670000
v 0.22149935 0.00875447 0.01568755
v 0.22148789 0.00872368 0.01564419
v 0.22155838 0.00894167 0.02670000
v 0.22160086 0.00913331 0.02670000
v 0.22160086 0.00913331 0.01613926
v 0.22162648 0.00932792 0.02670000
v 0.22163305 0.00942922 0.01641418
v 0.22162648 0.00932792 0.01632624
v 0.22160733 0.00917195 0.01617843
v 0.22162648 0.00972012 0.02670000
v 0.22162648 0.00972012 0.01663640
v 0.22162767 0.00970608 0.01662662
v 0.22160086 0.00991473 0.02670000
v 0.22155838 0.01010636 0.02670000
v 0.22155838 0.01010636 0.01687317
v 0.22158404 0.01000037 0.01681410
v 0.22160086 0.00991473 0.01676322
v 0.22161596 0.00981652 0.01670124
v 0.22146063 0.01039260 0.01701266
v 0.22149935 0.01029356 0.02670000
v 0.22142424 0.01047491 0.01704770
v 0.22142424 0.01047491 0.02670000
v 0.22138552 0.01055385 0.01707929
v 0.22149333 0.01030990 0.01697523
v 0.22149940 0.01029345 0.01696751
v 0.22153106 0.01020011 0.01692198
v 0.22133359 0.01064902 0.02670000
v 0.22128277 0.01073279 0.01714384
v 0.22133359 0.01064902 0.01711482
v 0.22134306 0.01063247 0.01710884
v 0.22110865 0.01097029 0.02670000
v 0.22097604 0.01111501 0.02670000
v 0.22097604 0.01111501 0.01725079
v 0.22104411 0.01104389 0.01723396
v 0.22110865 0.01097029 0.01721509
v 0.22111291 0.01096519 0.01721373
v 0.22083132 0.01124762 0.02670000
v 0.22067559 0.01136711 0.02670000
v 0.22067559 0.01136711 0.01729955
v 0.22075902 0.01130578 0.01728923
v 0.22083132 0.01124762 0.01727853
v 0.22090544 0.01118260 0.01726551
v 0.22051004 0.01147257 0.02670000
v 0.22033593 0.01156321 0.02670000
v 0.22033593 0.01156321 0.01732604
v 0.22042413 0.01151971 0.01732101
v 0.22051004 0.01147257 0.01731502
v 0.22059397 0.01142165 0.01730791
v 0.22015458 0.01163833 0.02670000
v 0.21996738 0.01169735 0.02670000
v 0.21996738 0.01169735 0.01733851
v 0.22011663 0.01165176 0.01733478
v 0.22015460 0.01163832 0.01733358
v 0.22024611 0.01160274 0.01733019
v 0.21977575 0.01173984 0.02670000
v 0.21967894 0.01175474 0.01734245
v 0.21977575 0.01173984 0.01734151
v 0.21987206 0.01172068 0.01734021
v 0.21938504 0.01177402 0.01734359
v 0.21938504 0.01177402 0.02670000
v 0.21928677 0.01177187 0.01734347
v 0.21918894 0.01176546 0.02670000
v 0.21918894 0.01176546 0.01734309
v 0.21909142 0.01175478 0.01734245
v 0.21899433 0.01173984 0.02670000
v 0.21899433 0.01173984 0.01734151
v 0.21889830 0.01172074 0.01734021
v 0.21880271 0.01169735 0.02670000
v 0.21880271 0.01169735 0.01733851
v 0.21843415 0.01156321 0.02670000
v 0.21852389 0.01160270 0.01733018
v 0.21861550 0.01163833 0.02670000
v 0.21861550 0.01163833 0.01733358
v 0.21865347 0.01165176 0.01733478
v 0.21826005 0.01147257 0.02670000
v 0.21834616 0.01151982 0.01732103
v 0.21843415 0.01156321 0.01732604
v 0.21809450 0.01136711 0.02670000
v 0.21817632 0.01142178 0.01730793
v 0.21826005 0.01147257 0.01731502
v 0.21793877 0.01124762 0.02670000
v 0.21801108 0.01130580 0.01728923
v 0.21809450 0.01136711 0.01729955
v 0.21779405 0.01111501 0.02670000
v 0.21786481 0.01118276 0.01726554
v 0.21793877 0.01124762 0.01727853
v 0.21766144 0.01097029 0.02670000
v 0.21772614 0.01104406 0.01723400
v 0.21779405 0.01111501 0.01725078
v 0.21754195 0.01081456 0.01717019
v 0.21759792 0.01089102 0.01719308
v 0.21754195 0.01081456 0.02670000
v 0.21765712 0.01096511 0.01721370
v 0.21766144 0.01097028 0.01721508
v 0.21748710 0.01073244 0.01714372
v 0.21743649 0.01064902 0.02670000
v 0.21743645 0.01064895 0.01711478
v 0.21742694 0.01063231 0.01710877
v 0.21734585 0.01047491 0.02670000
v 0.21738468 0.01055408 0.01707937
v 0.21727073 0.01029356 0.01696756
v 0.21727680 0.01031004 0.01697529
v 0.21727073 0.01029356 0.02670000
v 0.21730955 0.01039284 0.01701276
v 0.21734585 0.01047491 0.01704769
v 0.21723889 0.01019966 0.01692175
v 0.21721171 0.01010636 0.02670000
v 0.21721171 0.01010636 0.01687316
v 0.21718605 0.01000039 0.01681410
v 0.21716923 0.00991473 0.02670000
v 0.21716923 0.00991473 0.01676321
v 0.21715419 0.00981689 0.01670147
v 0.21714361 0.00972012 0.02670000
v 0.21714360 0.00971997 0.01663629
v 0.21714242 0.00970609 0.01662661
v 0.21713504 0.00952402 0.02670000
v 0.21713684 0.00961389 0.01656008
v 0.21714361 0.00932792 0.02670000
v 0.21713704 0.00942924 0.01641418
v 0.21713504 0.00952295 0.01649042
v 0.21716923 0.00913331 0.01613924
v 0.21716276 0.00917197 0.01617843
v 0.21714361 0.00932792 0.01632622
v 0.21716923 0.00913331 0.02670000
v 0.21721171 0.00894167 0.02670000
v 0.21721171 0.00894167 0.01592764
v 0.21721318 0.00893619 0.01592113
v 0.21727073 0.00875447 0.02670000
v 0.21727073 0.00875447 0.01568752
v 0.21728219 0.00872370 0.01564419
v 0.21734585 0.00857313 0.02670000
v 0.21734585 0.00857313 0.01541249
v 0.21736343 0.00853629 0.01535000
v 0.21743649 0.00839902 0.02670000
v 0.21743722 0.00839774 0.01508807
v 0.21745045 0.00837516 0.01504047
v 0.21754195 0.00823347 0.02670000
v 0.21753627 0.00824162 0.01471808
v 0.21766144 0.00807775 0.01413285
v 0.21761365 0.00813669 0.01438528
v 0.21754195 0.00823347 0.01469548
v 0.21793877 0.00780042 0.00130000
v 0.21793877 0.00780042 0.02670000
v 0.21809450 0.00768093 0.00130000
v 0.21809450 0.00768093 0.02670000
v 0.21826005 0.00757546 0.00130000
v 0.21826005 0.00757546 0.02670000
v 0.21843415 0.00748482 0.00130000
v 0.21843415 0.00748482 0.02670000
v 0.21861550 0.00740971 0.00130000
v 0.21861550 0.00740971 0.02670000
v 0.21880271 0.00735068 0.00130000
v 0.21880271 0.00735068 0.02670000
v 0.21899433 0.00730820 0.00130000
v 0.21899433 0.00730820 0.02670000
v 0.21918894 0.00728258 0.00130000
v 0.21918894 0.00728258 0.02670000
v 0.21938504 0.00727402 0.00130000
v 0.21938504 0.00727402 0.02670000
v 0.21958114 0.00728258 0.00130000
v 0.21958114 0.00728258 0.02670000
v 0.21977575 0.00730820 0.00130000
v 0.21977575 0.00730820 0.02670000
v 0.21996738 0.00735068 0.00130000
v 0.21996738 0.00735068 0.02670000
v 0.22015458 0.00740971 0.00130000
v 0.22015458 0.00740971 0.02670000
v 0.22033593 0.00748482 0.00130000
v 0.22033593 0.00748482 0.02670000
v 0.22051004 0.00757546 0.00130000
v 0.22051004 0.00757546 0.02670000
v 0.22067559 0.00768093 0.00130000
v 0.22067559 0.00768093 0.02670000
v 0.22083132 0.00780042 0.00130000
v 0.22083132 0.00780042 0.02670000
v 0.22540018 0.04094955 0.00907280
v 0.22540018 0.04050699 0.00879086
v 0.22540021 0.04566289 0.00427124
v 0.22540019 0.04478391 0.00359677
v 0.22540008 0.01586406 0.01231472
v 0.22540015 0.03449199 0.00879086
v 0.22540015 0.03404942 0.00907280
v 0.22540006 0.01336844 0.01710877
v 0.22540015 0.03363312 0.00939224
v 0.22540015 0.03324624 0.00974675
v 0.22540006 0.01429466 0.01662661
v 0.22540006 0.01457151 0.01641418
v 0.22540016 0.03544223 0.00834775
v 0.22540006 0.01482878 0.01617843
v 0.22540006 0.01506453 0.01592115
v 0.22540005 0.00853625 0.01535000
v 0.22540005 0.00872375 0.01564431
v 0.22540000 -0.00000101 0.02670000
v 0.22540005 0.00942921 0.01641418
v 0.22540005 0.00970605 0.01662661
v 0.22540008 0.01527696 0.01564431
v 0.22540008 0.01546446 0.01535000
v 0.22540008 0.01562559 0.01504047
v 0.22540008 0.01593959 0.01404459
v 0.22540008 0.01598513 0.01369862
v 0.22540008 0.01600036 0.01335000
v 0.22540016 0.03594269 0.00818996
v 0.22540008 0.01598513 0.01300138
v 0.22540008 0.01593959 0.01265541
v 0.22540003 0.00837512 0.01504047
v 0.22540005 0.01000036 0.01681410
v 0.22540005 0.01030988 0.01697523
v 0.22540005 0.01063227 0.01710877
v 0.22540018 0.03860636 0.00134833
v 0.22540018 0.03970482 0.00149294
v 0.22540008 0.01575913 0.01198192
v 0.22540018 0.04078649 0.00173274
v 0.22540006 0.01457151 0.01028582
v 0.22540006 0.01429466 0.01007339
v 0.22540016 0.03749948 0.00130000
v 0.22540015 0.03495743 0.00854856
v 0.22540006 0.01369083 0.01697523
v 0.22540006 0.01400036 0.01681410
v 0.22540008 0.01575913 0.01471808
v 0.22540008 0.01586406 0.01438528
v 0.22540005 0.00893618 0.01592115
v 0.22540005 0.00917193 0.01617843
v 0.22540005 0.01096508 0.01721370
v 0.22540005 0.01130576 0.01728923
v 0.22540005 0.01165173 0.01733478
v 0.22540015 0.03184723 0.01605725
v 0.22540015 0.03204804 0.01654205
v 0.22540006 0.01303563 0.01721370
v 0.22540018 0.03905628 0.00818996
v 0.22540018 0.03854398 0.00807638
v 0.22540016 0.03645499 0.00807638
v 0.22540016 0.03697524 0.00800789
v 0.22540019 0.04184314 0.00206590
v 0.22540019 0.04286674 0.00248989
v 0.22540019 0.04384948 0.00300148
v 0.22540005 0.00917193 0.01052157
v 0.22540005 0.00893618 0.01077885
v 0.22540000 -0.00000101 0.00130000
v 0.22540005 0.00872375 0.01105569
v 0.22540005 0.00853625 0.01135000
v 0.22540003 0.00837512 0.01165953
v 0.22540015 0.03289173 0.01013363
v 0.22540015 0.03257228 0.01054994
v 0.22540015 0.03229034 0.01099250
v 0.22540015 0.03449199 0.01920914
v 0.22540015 0.03495743 0.01945144
v 0.22540016 0.03749948 0.02670000
v 0.22540018 0.04004153 0.00854856
v 0.22540018 0.03955673 0.00834775
v 0.22540016 0.03802373 0.00800789
v 0.22540016 0.03749948 0.00798500
v 0.22540008 0.01546446 0.01135000
v 0.22540008 0.01527696 0.01105569
v 0.22540005 0.01030988 0.00972477
v 0.22540005 0.01000036 0.00988590
v 0.22540003 0.00824159 0.01198192
v 0.22540003 0.00813665 0.01231472
v 0.22540003 0.00806112 0.01265541
v 0.22540003 0.00806112 0.01404459
v 0.22540003 0.00813665 0.01438528
v 0.22540003 0.00824159 0.01471808
v 0.22540006 0.01200036 0.01735000
v 0.22540006 0.01234898 0.01733478
v 0.22540006 0.01269495 0.01728923
v 0.22540016 0.03544223 0.01965225
v 0.22540016 0.03594269 0.01981004
v 0.22540016 0.03645499 0.01992362
v 0.22540008 0.01562559 0.01165953
v 0.22540006 0.01506453 0.01077885
v 0.22540006 0.01482878 0.01052157
v 0.22540006 0.01400036 0.00988590
v 0.22540006 0.01369083 0.00972477
v 0.22540006 0.01336844 0.00959123
v 0.22540005 0.00970605 0.01007339
v 0.22540005 0.00942921 0.01028582
v 0.22540003 0.00801558 0.01300138
v 0.22540003 0.00800036 0.01335000
v 0.22540003 0.00801558 0.01369862
v 0.22540015 0.03204804 0.01145795
v 0.22540015 0.03184723 0.01194275
v 0.22540013 0.03168944 0.01244320
v 0.22540015 0.03229034 0.01700750
v 0.22540015 0.03257228 0.01745006
v 0.22540015 0.03289173 0.01786637
v 0.22540016 0.03697524 0.01999211
v 0.22540016 0.03749948 0.02001500
v 0.22540018 0.03860636 0.02665167
v 0.22540016 0.03802373 0.01999211
v 0.22540018 0.03970482 0.02650706
v 0.22540018 0.03854398 0.01992362
v 0.22540018 0.04078649 0.02626726
v 0.22540018 0.03905628 0.01981004
v 0.22540019 0.04184314 0.02593410
v 0.22540018 0.03955673 0.01965225
v 0.22540019 0.04286674 0.02551011
v 0.22540018 0.04004153 0.01945144
v 0.22540019 0.04384948 0.02499852
v 0.22540018 0.04050699 0.01920914
v 0.22540019 0.04478391 0.02440323
v 0.22540018 0.04094955 0.01892720
v 0.22540021 0.04566289 0.02372876
v 0.22540018 0.04136585 0.01860776
v 0.22540021 0.04647974 0.02298026
v 0.22540018 0.04175273 0.01825325
v 0.22540021 0.04722825 0.02216340
v 0.22540019 0.04210724 0.01786637
v 0.22540021 0.04790271 0.02128442
v 0.22540019 0.04242668 0.01745006
v 0.22540022 0.04849801 0.02035000
v 0.22540019 0.04270863 0.01700750
v 0.22540022 0.04900960 0.01936725
v 0.22540019 0.04295092 0.01654205
v 0.22540022 0.04943358 0.01834366
v 0.22540019 0.04315174 0.01605725
v 0.22540022 0.04976674 0.01728700
v 0.22540019 0.04330953 0.01555680
v 0.22540022 0.05000654 0.01620533
v 0.22540019 0.04342311 0.01504449
v 0.22540022 0.05015116 0.01510688
v 0.22540019 0.04349159 0.01452424
v 0.22540022 0.05019949 0.01400000
v 0.22540019 0.04351449 0.01400000
v 0.22540022 0.05015116 0.01289312
v 0.22540019 0.04349159 0.01347576
v 0.22540022 0.05000654 0.01179467
v 0.22540019 0.04342311 0.01295551
v 0.22540022 0.04976674 0.01071300
v 0.22540019 0.04330953 0.01244320
v 0.22540022 0.04943358 0.00965634
v 0.22540019 0.04315174 0.01194275
v 0.22540022 0.04900960 0.00863275
v 0.22540019 0.04295092 0.01145795
v 0.22540022 0.04849801 0.00765000
v 0.22540019 0.04270863 0.01099250
v 0.22540021 0.04790271 0.00671558
v 0.22540019 0.04242668 0.01054994
v 0.22540021 0.04722825 0.00583660
v 0.22540019 0.04210724 0.01013363
v 0.22540021 0.04647974 0.00501974
v 0.22540018 0.04175273 0.00974675
v 0.22540018 0.04136585 0.00939224
v 0.22540005 0.01165173 0.00936522
v 0.22540005 0.01130576 0.00941077
v 0.22540013 0.03157587 0.01295551
v 0.22540013 0.03150737 0.01347576
v 0.22540013 0.03148448 0.01400000
v 0.22540006 0.01200036 0.00935000
v 0.22540005 0.01096508 0.00948630
v 0.22540005 0.01063227 0.00959123
v 0.22540015 0.03324624 0.01825325
v 0.22540015 0.03363312 0.01860776
v 0.22540015 0.03404942 0.01892720
v 0.22540013 0.03150737 0.01452424
v 0.22540013 0.03157587 0.01504449
v 0.22540013 0.03168944 0.01555680
v 0.22540006 0.01303563 0.00948630
v 0.22540006 0.01269495 0.00941077
v 0.22540006 0.01234898 0.00936522
v 0.21540016 0.03594273 0.00818996
v 0.21540016 0.03645504 0.00807638
v 0.21540017 0.03749953 0.00130000
v 0.21540004 0.00837517 0.01165953
v 0.21540004 0.00853630 0.01135000
v 0.21540000 -0.00000096 0.00130000
v 0.21540004 0.00824163 0.01198192
v 0.21540014 0.03184728 0.01194275
v 0.21540014 0.03204809 0.01145795
v 0.21540014 0.03229039 0.01099250
v 0.21540014 0.03257233 0.01054994
v 0.21540004 0.00872379 0.01105569
v 0.21540004 0.00893622 0.01077885
v 0.21540004 0.00917197 0.01052157
v 0.21540006 0.01096512 0.00948630
v 0.21540006 0.01130581 0.00941077
v 0.21540006 0.01165178 0.00936522
v 0.21540014 0.03289177 0.01013363
v 0.21540014 0.03324628 0.00974675
v 0.21540014 0.03363316 0.00939224
v 0.21540016 0.03544228 0.00834775
v 0.21540004 0.00942925 0.01028582
v 0.21540004 0.00970609 0.01007339
v 0.21540004 0.01000040 0.00988590
v 0.21540004 0.01030993 0.00972477
v 0.21540006 0.01063232 0.00959123
v 0.21540014 0.03324628 0.01825325
v 0.21540014 0.03289177 0.01786637
v 0.21540006 0.01336848 0.01710877
v 0.21540014 0.03257233 0.01745006
v 0.21540014 0.03229039 0.01700750
v 0.21540006 0.01200040 0.01735000
v 0.21540006 0.01165178 0.01733478
v 0.21540000 -0.00000096 0.02670000
v 0.21540004 0.01000040 0.01681410
v 0.21540004 0.01030993 0.01697523
v 0.21540006 0.01063232 0.01710877
v 0.21540004 0.00801562 0.01300138
v 0.21540004 0.00806117 0.01265541
v 0.21540004 0.00813670 0.01231472
v 0.21540006 0.01200040 0.00935000
v 0.21540006 0.01234902 0.00936522
v 0.21540006 0.01269499 0.00941077
v 0.21540016 0.03404947 0.00907280
v 0.21540016 0.03449203 0.00879086
v 0.21540016 0.03495748 0.00854856
v 0.21540006 0.01130581 0.01728923
v 0.21540006 0.01096512 0.01721370
v 0.21540004 0.00970609 0.01662661
v 0.21540004 0.00942925 0.01641418
v 0.21540004 0.00917197 0.01617843
v 0.21540014 0.03168949 0.01244320
v 0.21540014 0.03157591 0.01295551
v 0.21540006 0.01303568 0.00948630
v 0.21540014 0.03150742 0.01347576
v 0.21540017 0.03749953 0.02670000
v 0.21540016 0.03404947 0.01892720
v 0.21540014 0.03363316 0.01860776
v 0.21540006 0.01369087 0.00972477
v 0.21540007 0.01400040 0.00988590
v 0.21540014 0.03148453 0.01400000
v 0.21540007 0.01527701 0.01564431
v 0.21540014 0.03184728 0.01605725
v 0.21540007 0.01546450 0.01535000
v 0.21540007 0.01562563 0.01504047
v 0.21540007 0.01457155 0.01641418
v 0.21540007 0.01429471 0.01662661
v 0.21540007 0.01400040 0.01681410
v 0.21540006 0.01303568 0.01721370
v 0.21540006 0.01269499 0.01728923
v 0.21540006 0.01234902 0.01733478
v 0.21540004 0.00893622 0.01592115
v 0.21540004 0.00872379 0.01564431
v 0.21540004 0.00853630 0.01535000
v 0.21540004 0.00837517 0.01504047
v 0.21540004 0.00824163 0.01471808
v 0.21540004 0.00813670 0.01438528
v 0.21540007 0.01586410 0.01231472
v 0.21540007 0.01593963 0.01265541
v 0.21540014 0.03204809 0.01654205
v 0.21540006 0.01369087 0.01697523
v 0.21540004 0.00806117 0.01404459
v 0.21540004 0.00801562 0.01369862
v 0.21540004 0.00800040 0.01335000
v 0.21540016 0.03697529 0.01999211
v 0.21540016 0.03645504 0.01992362
v 0.21540016 0.03594273 0.01981004
v 0.21540016 0.03544228 0.01965225
v 0.21540016 0.03495748 0.01945144
v 0.21540016 0.03449203 0.01920914
v 0.21540006 0.01336848 0.00959123
v 0.21540007 0.01598518 0.01369862
v 0.21540007 0.01593963 0.01404459
v 0.21540014 0.03168949 0.01555680
v 0.21540007 0.01586410 0.01438528
v 0.21540007 0.01575917 0.01471808
v 0.21540007 0.01506458 0.01592115
v 0.21540007 0.01482883 0.01617843
v 0.21540016 0.03697529 0.00800789
v 0.21540017 0.03749953 0.00798500
v 0.21540017 0.03860641 0.00134833
v 0.21540017 0.03802377 0.00800789
v 0.21540017 0.03970486 0.00149294
v 0.21540017 0.03854403 0.00807638
v 0.21540019 0.04078653 0.00173274
v 0.21540017 0.03905633 0.00818996
v 0.21540019 0.04184319 0.00206590
v 0.21540017 0.03955678 0.00834775
v 0.21540019 0.04286678 0.00248989
v 0.21540017 0.04004158 0.00854856
v 0.21540019 0.04384953 0.00300148
v 0.21540017 0.04050703 0.00879086
v 0.21540020 0.04478395 0.00359677
v 0.21540019 0.04094959 0.00907280
v 0.21540020 0.04566293 0.00427124
v 0.21540019 0.04136590 0.00939224
v 0.21540020 0.04647979 0.00501974
v 0.21540019 0.04175278 0.00974675
v 0.21540022 0.04722830 0.00583660
v 0.21540019 0.04210729 0.01013363
v 0.21540022 0.04790276 0.00671558
v 0.21540019 0.04242673 0.01054994
v 0.21540022 0.04849805 0.00765000
v 0.21540019 0.04270867 0.01099250
v 0.21540022 0.04900964 0.00863275
v 0.21540019 0.04295097 0.01145795
v 0.21540022 0.04943363 0.00965634
v 0.21540019 0.04315178 0.01194275
v 0.21540022 0.04976679 0.01071300
v 0.21540019 0.04330957 0.01244320
v 0.21540022 0.05000659 0.01179467
v 0.21540019 0.04342315 0.01295551
v 0.21540022 0.05015120 0.01289312
v 0.21540019 0.04349164 0.01347576
v 0.21540022 0.05019953 0.01400000
v 0.21540019 0.04351453 0.01400000
v 0.21540022 0.05015120 0.01510688
v 0.21540019 0.04349164 0.01452424
v 0.21540022 0.05000659 0.01620533
v 0.21540019 0.04342315 0.01504449
v 0.21540022 0.04976679 0.01728700
v 0.21540019 0.04330957 0.01555680
v 0.21540022 0.04943363 0.01834366
v 0.21540019 0.04315178 0.01605725
v 0.21540022 0.04900964 0.01936725
v 0.21540019 0.04295097 0.01654205
v 0.21540022 0.04849805 0.02035000
v 0.21540019 0.04270867 0.01700750
v 0.21540022 0.04790276 0.02128442
v 0.21540019 0.04242673 0.01745006
v 0.21540022 0.04722830 0.02216340
v 0.21540019 0.04210729 0.01786637
v 0.21540020 0.04647979 0.02298026
v 0.21540019 0.04175278 0.01825325
v 0.21540020 0.04566293 0.02372876
v 0.21540019 0.04136590 0.01860776
v 0.21540020 0.04478395 0.02440323
v 0.21540019 0.04094959 0.01892720
v 0.21540019 0.04384953 0.02499852
v 0.21540017 0.04050703 0.01920914
v 0.21540019 0.04286678 0.02551011
v 0.21540017 0.04004158 0.01945144
v 0.21540019 0.04184319 0.02593410
v 0.21540017 0.03955678 0.01965225
v 0.21540019 0.04078653 0.02626726
v 0.21540017 0.03905633 0.01981004
v 0.21540017 0.03970486 0.02650706
v 0.21540017 0.03854403 0.01992362
v 0.21540017 0.03860641 0.02665167
v 0.21540017 0.03802377 0.01999211
v 0.21540017 0.03749953 0.02001500
v 0.21540007 0.01429471 0.01007339
v 0.21540007 0.01457155 0.01028582
v 0.21540007 0.01482883 0.01052157
v 0.21540007 0.01598518 0.01300138
v 0.21540007 0.01600040 0.01335000
v 0.21540014 0.03150742 0.01452424
v 0.21540014 0.03157591 0.01504449
v 0.21540007 0.01506458 0.01077885
v 0.21540007 0.01527701 0.01105569
v 0.21540007 0.01546450 0.01135000
v 0.21540007 0.01562563 0.01165953
v 0.21540007 0.01575917 0.01198192
f 1 2 3
f 4 5 6
f 7 8 9
f 10 11 12
f 13 14 15
f 16 17 18
f 19 20 21
f 22 23 24
f 25 26 27
f 25 27 28
f 29 30 31
f 30 32 31
f 31 32 33
f 32 34 33
f 33 34 35
f 24 23 36
f 23 37 36
f 37 38 36
f 36 38 27
f 38 39 27
f 27 39 28
f 40 41 42
f 42 43 40
f 43 44 40
f 40 44 24
f 44 45 24
f 24 45 22
f 46 47 48
f 47 49 48
f 48 49 41
f 49 50 41
f 41 50 42
f 48 51 46
f 51 52 46
f 46 52 53
f 21 20 54
f 20 55 54
f 55 56 54
f 54 56 52
f 56 57 52
f 52 57 53
f 58 59 21
f 59 60 21
f 21 60 19
f 61 62 63
f 63 64 61
f 64 65 61
f 61 65 58
f 65 66 58
f 58 66 59
f 67 68 69
f 68 70 69
f 69 70 71
f 67 72 68
f 72 73 68
f 68 73 62
f 73 74 62
f 62 74 63
f 18 17 75
f 17 76 75
f 76 77 75
f 75 77 70
f 77 78 70
f 70 78 71
f 79 80 81
f 81 82 79
f 82 83 79
f 79 83 18
f 83 84 18
f 18 84 16
f 85 86 87
f 87 88 85
f 88 89 85
f 85 89 80
f 89 90 80
f 80 90 81
f 91 92 93
f 93 94 91
f 94 95 91
f 91 95 86
f 95 96 86
f 86 96 87
f 97 98 99
f 99 100 97
f 100 101 97
f 97 101 92
f 101 102 92
f 92 102 93
f 15 14 103
f 14 104 103
f 104 105 103
f 103 105 98
f 105 106 98
f 98 106 99
f 13 15 107
f 15 108 107
f 107 108 109
f 108 110 109
f 109 110 111
f 111 110 112
f 110 113 112
f 112 113 114
f 114 113 115
f 113 116 115
f 115 116 117
f 118 119 120
f 119 121 120
f 120 121 116
f 121 122 116
f 116 122 117
f 123 124 118
f 124 125 118
f 118 125 119
f 126 127 123
f 127 128 123
f 123 128 124
f 129 130 126
f 130 131 126
f 126 131 127
f 132 133 129
f 133 134 129
f 129 134 130
f 135 136 132
f 136 137 132
f 132 137 133
f 138 139 140
f 139 141 140
f 140 141 135
f 141 142 135
f 135 142 136
f 138 140 143
f 140 144 143
f 143 144 145
f 145 144 146
f 144 147 146
f 146 147 148
f 149 150 151
f 150 152 151
f 151 152 147
f 152 153 147
f 147 153 148
f 149 151 154
f 151 155 154
f 154 155 156
f 156 155 157
f 155 158 157
f 157 158 159
f 159 158 160
f 158 161 160
f 160 161 162
f 162 161 163
f 161 164 163
f 163 164 165
f 166 167 164
f 167 168 164
f 164 168 165
f 169 170 166
f 170 171 166
f 166 171 167
f 166 172 169
f 172 173 169
f 169 173 174
f 174 173 175
f 173 176 175
f 175 176 177
f 177 176 178
f 176 179 178
f 178 179 180
f 180 179 181
f 179 182 181
f 181 182 183
f 183 182 184
f 182 185 184
f 184 185 186
f 187 188 185
f 188 189 185
f 185 189 186
f 190 191 192
f 190 192 193
f 194 195 196
f 197 198 187
f 198 199 187
f 187 199 188
f 194 196 187
f 196 200 187
f 187 200 197
f 12 11 201
f 11 202 201
f 202 203 201
f 201 203 192
f 203 204 192
f 192 204 193
f 205 206 207
f 207 208 205
f 208 209 205
f 205 209 12
f 209 210 12
f 12 210 10
f 211 212 213
f 212 214 213
f 213 214 206
f 214 215 206
f 206 215 207
f 213 216 211
f 216 217 211
f 211 217 218
f 9 8 219
f 8 220 219
f 220 221 219
f 219 221 217
f 221 222 217
f 217 222 218
f 223 224 9
f 224 225 9
f 9 225 7
f 226 227 228
f 228 229 226
f 229 230 226
f 226 230 223
f 230 231 223
f 223 231 224
f 232 233 234
f 233 235 234
f 234 235 236
f 232 237 233
f 237 238 233
f 233 238 227
f 238 239 227
f 227 239 228
f 6 5 240
f 5 241 240
f 241 242 240
f 240 242 235
f 242 243 235
f 235 243 236
f 244 245 246
f 246 247 244
f 247 248 244
f 244 248 6
f 248 249 6
f 6 249 4
f 250 251 252
f 252 253 250
f 253 254 250
f 250 254 245
f 254 255 245
f 245 255 246
f 256 257 258
f 258 259 256
f 259 260 256
f 256 260 251
f 260 261 251
f 251 261 252
f 262 263 264
f 264 265 262
f 265 266 262
f 262 266 257
f 266 267 257
f 257 267 258
f 3 2 268
f 2 269 268
f 269 270 268
f 268 270 263
f 270 271 263
f 263 271 264
f 1 3 272
f 3 273 272
f 272 273 274
f 273 275 274
f 274 275 276
f 276 275 277
f 275 278 277
f 277 278 279
f 279 278 280
f 278 281 280
f 280 281 282
f 283 284 285
f 284 286 285
f 285 286 281
f 286 287 281
f 281 287 282
f 288 289 283
f 289 290 283
f 283 290 284
f 291 292 288
f 292 293 288
f 288 293 289
f 294 295 291
f 295 296 291
f 291 296 292
f 297 298 294
f 298 299 294
f 294 299 295
f 300 301 297
f 301 302 297
f 297 302 298
f 303 304 305
f 304 306 305
f 305 306 300
f 306 307 300
f 300 307 301
f 303 305 308
f 305 309 308
f 308 309 310
f 310 309 311
f 309 312 311
f 311 312 313
f 314 315 316
f 315 317 316
f 316 317 312
f 317 318 312
f 312 318 313
f 314 316 319
f 316 320 319
f 319 320 321
f 321 320 322
f 320 323 322
f 322 323 324
f 324 323 325
f 323 326 325
f 325 326 327
f 327 326 328
f 326 329 328
f 328 329 330
f 331 332 329
f 332 333 329
f 329 333 330
f 334 335 331
f 335 336 331
f 331 336 332
f 331 337 334
f 337 338 334
f 334 338 339
f 339 338 340
f 338 341 340
f 340 341 342
f 342 341 343
f 341 344 343
f 343 344 345
f 345 344 346
f 344 347 346
f 346 347 348
f 348 347 349
f 347 350 349
f 349 350 351
f 35 352 33
f 352 353 33
f 33 353 350
f 353 354 350
f 350 354 351
f 26 29 27
f 29 31 27
f 27 31 355
f 31 356 355
f 355 356 357
f 356 358 357
f 357 358 359
f 358 360 359
f 359 360 361
f 360 362 361
f 361 362 363
f 362 364 363
f 363 364 365
f 364 366 365
f 365 366 367
f 366 368 367
f 367 368 369
f 368 370 369
f 369 370 371
f 370 372 371
f 371 372 373
f 372 374 373
f 373 374 375
f 374 376 375
f 375 376 377
f 376 378 377
f 377 378 379
f 378 380 379
f 379 380 381
f 380 382 381
f 381 382 383
f 382 384 383
f 383 384 385
f 384 386 385
f 385 386 387
f 386 388 387
f 387 388 194
f 388 192 194
f 194 192 195
f 192 191 195
f 389 390 391
f 392 391 393
f 394 395 396
f 395 397 396
f 396 397 398
f 399 400 401
f 400 402 401
f 401 402 403
f 404 405 406
f 406 407 408
f 403 409 401
f 409 410 401
f 401 410 411
f 412 413 401
f 413 414 401
f 401 414 415
f 414 416 415
f 415 416 417
f 404 406 418
f 408 419 406
f 419 420 406
f 406 420 421
f 422 423 424
f 423 425 424
f 426 427 428
f 394 396 429
f 396 430 429
f 429 430 401
f 430 431 401
f 401 431 399
f 411 432 401
f 432 433 401
f 401 433 412
f 405 434 406
f 434 435 406
f 406 435 407
f 421 436 406
f 436 437 406
f 406 437 438
f 439 440 441
f 391 442 443
f 417 393 415
f 393 391 415
f 415 391 444
f 391 445 444
f 425 446 424
f 446 447 424
f 424 447 393
f 447 448 393
f 393 448 392
f 449 450 451
f 450 452 451
f 452 453 451
f 451 453 454
f 398 455 396
f 455 456 396
f 396 456 457
f 458 459 460
f 390 461 391
f 461 462 391
f 391 462 442
f 443 463 391
f 463 464 391
f 391 464 445
f 465 466 428
f 467 468 451
f 454 469 451
f 469 470 451
f 451 470 471
f 472 473 406
f 473 474 406
f 406 474 418
f 438 475 406
f 475 476 406
f 406 476 460
f 476 477 460
f 460 477 441
f 459 478 460
f 478 479 460
f 460 479 480
f 422 424 428
f 424 481 428
f 428 481 465
f 466 482 428
f 482 483 428
f 428 483 426
f 427 484 428
f 484 485 428
f 428 485 486
f 468 487 451
f 487 488 451
f 451 488 449
f 471 489 451
f 489 490 451
f 451 490 406
f 490 491 406
f 406 491 472
f 457 492 396
f 492 493 396
f 396 493 494
f 440 495 441
f 495 496 441
f 441 496 497
f 480 498 460
f 498 499 460
f 460 499 500
f 499 501 500
f 500 501 502
f 501 503 502
f 502 503 504
f 503 505 504
f 504 505 506
f 505 507 506
f 506 507 508
f 507 509 508
f 508 509 510
f 509 511 510
f 510 511 512
f 511 513 512
f 512 513 514
f 513 515 514
f 514 515 516
f 515 517 516
f 516 517 518
f 517 519 518
f 518 519 520
f 519 521 520
f 520 521 522
f 521 523 522
f 522 523 524
f 523 525 524
f 524 525 526
f 525 527 526
f 526 527 528
f 527 529 528
f 528 529 530
f 529 531 530
f 530 531 532
f 531 533 532
f 532 533 534
f 533 535 534
f 534 535 536
f 535 537 536
f 536 537 538
f 537 539 538
f 538 539 540
f 539 541 540
f 540 541 542
f 541 543 542
f 542 543 544
f 543 545 544
f 544 545 546
f 545 547 546
f 546 547 548
f 547 549 548
f 548 549 550
f 549 551 550
f 550 551 552
f 551 553 552
f 552 553 391
f 553 554 391
f 391 554 389
f 555 556 451
f 494 557 396
f 557 558 396
f 396 558 559
f 555 451 560
f 556 561 451
f 561 562 451
f 451 562 467
f 497 563 441
f 563 564 441
f 441 564 460
f 564 565 460
f 460 565 458
f 559 566 396
f 566 567 396
f 396 567 441
f 567 568 441
f 441 568 439
f 486 569 428
f 569 570 428
f 428 570 451
f 570 571 451
f 451 571 560
f 572 573 574
f 575 576 577
f 575 577 578
f 579 580 577
f 580 581 577
f 577 581 582
f 576 583 577
f 583 584 577
f 577 584 585
f 586 587 577
f 587 588 577
f 582 589 577
f 589 590 577
f 577 590 591
f 572 574 592
f 585 593 577
f 593 594 577
f 577 594 595
f 595 596 577
f 596 597 577
f 577 597 586
f 598 599 600
f 599 601 600
f 600 601 602
f 603 604 605
f 606 605 607
f 605 608 607
f 609 610 577
f 610 611 577
f 577 611 578
f 588 612 577
f 612 613 577
f 577 613 614
f 591 615 577
f 615 616 577
f 577 616 574
f 616 617 574
f 574 617 592
f 604 618 605
f 618 619 605
f 605 619 608
f 606 620 605
f 620 621 605
f 605 621 622
f 579 577 623
f 577 614 623
f 623 614 624
f 614 625 624
f 624 625 626
f 627 628 600
f 628 629 600
f 600 629 598
f 630 631 632
f 633 634 635
f 634 636 635
f 637 638 634
f 638 639 634
f 600 640 627
f 640 641 627
f 627 641 605
f 641 642 605
f 605 642 603
f 622 643 605
f 643 644 605
f 605 644 645
f 645 646 605
f 646 647 605
f 605 647 648
f 632 649 650
f 602 651 600
f 651 634 600
f 600 634 652
f 634 639 652
f 648 653 605
f 653 654 605
f 605 654 577
f 654 655 577
f 577 655 609
f 656 657 627
f 657 658 627
f 627 658 659
f 659 660 627
f 660 661 627
f 627 661 628
f 626 625 632
f 625 662 632
f 632 662 630
f 663 664 665
f 664 666 665
f 665 666 634
f 666 667 634
f 634 667 636
f 633 668 634
f 668 669 634
f 634 669 637
f 573 670 574
f 670 671 574
f 574 671 672
f 671 673 672
f 672 673 674
f 673 675 674
f 674 675 676
f 675 677 676
f 676 677 678
f 677 679 678
f 678 679 680
f 679 681 680
f 680 681 682
f 681 683 682
f 682 683 684
f 683 685 684
f 684 685 686
f 685 687 686
f 686 687 688
f 687 689 688
f 688 689 690
f 689 691 690
f 690 691 692
f 691 693 692
f 692 693 694
f 693 695 694
f 694 695 696
f 695 697 696
f 696 697 698
f 697 699 698
f 698 699 700
f 699 701 700
f 700 701 702
f 701 703 702
f 702 703 704
f 703 705 704
f 704 705 706
f 705 707 706
f 706 707 708
f 707 709 708
f 708 709 710
f 709 711 710
f 710 711 712
f 711 713 712
f 712 713 714
f 713 715 714
f 714 715 716
f 715 717 716
f 716 717 718
f 717 719 718
f 718 719 720
f 719 721 720
f 720 721 722
f 721 723 722
f 722 723 724
f 723 725 724
f 724 725 726
f 725 727 726
f 726 727 728
f 727 729 728
f 728 729 730
f 729 731 730
f 730 731 732
f 731 733 732
f 732 733 734
f 733 735 734
f 734 735 736
f 735 737 736
f 736 737 738
f 737 739 738
f 738 739 740
f 739 741 740
f 740 741 627
f 741 742 627
f 627 742 656
f 631 743 632
f 743 744 632
f 632 744 745
f 650 746 632
f 746 747 632
f 632 747 748
f 747 663 748
f 748 663 749
f 663 665 749
f 745 750 632
f 750 751 632
f 632 751 752
f 752 753 632
f 753 754 632
f 632 754 649
f 9 219 406
f 219 217 406
f 350 347 605
f 331 605 337
f 605 338 337
f 331 329 605
f 329 326 605
f 605 326 627
f 326 323 627
f 6 240 460
f 240 235 460
f 460 235 233
f 233 227 460
f 227 226 460
f 460 226 406
f 226 223 406
f 406 223 9
f 217 216 406
f 216 213 406
f 406 213 206
f 323 320 627
f 320 316 627
f 627 316 312
f 312 309 627
f 309 305 627
f 627 305 300
f 206 205 406
f 205 12 406
f 406 12 201
f 347 344 605
f 344 341 605
f 605 341 338
f 251 250 460
f 250 245 460
f 245 244 460
f 460 244 6
f 356 605 358
f 605 360 358
f 356 31 605
f 31 33 605
f 605 33 350
f 283 627 288
f 627 291 288
f 300 297 627
f 297 294 627
f 627 294 291
f 262 460 263
f 460 268 263
f 262 257 460
f 257 256 460
f 460 256 251
f 406 386 384
f 384 382 406
f 382 380 406
f 406 380 378
f 366 605 368
f 605 370 368
f 366 364 605
f 364 362 605
f 605 362 360
f 283 285 627
f 285 281 627
f 627 281 278
f 201 192 406
f 192 388 406
f 406 388 386
f 378 376 406
f 376 374 406
f 406 374 605
f 374 372 605
f 605 372 370
f 278 275 627
f 275 273 627
f 627 273 460
f 273 3 460
f 460 3 268
f 627 460 500
f 627 500 740
f 500 502 740
f 740 502 738
f 502 504 738
f 738 504 736
f 504 506 736
f 736 506 734
f 506 508 734
f 734 508 732
f 508 510 732
f 732 510 730
f 510 512 730
f 730 512 728
f 512 514 728
f 728 514 726
f 514 516 726
f 726 516 724
f 516 518 724
f 724 518 722
f 518 520 722
f 722 520 720
f 520 522 720
f 720 522 718
f 522 524 718
f 718 524 716
f 524 526 716
f 716 526 714
f 526 528 714
f 714 528 712
f 528 530 712
f 712 530 710
f 530 532 710
f 710 532 708
f 532 534 708
f 708 534 706
f 534 536 706
f 706 536 704
f 536 538 704
f 704 538 702
f 538 540 702
f 702 540 700
f 540 542 700
f 700 542 698
f 542 544 698
f 698 544 696
f 544 546 696
f 696 546 694
f 546 548 694
f 694 548 692
f 548 550 692
f 692 550 690
f 550 552 690
f 690 552 688
f 552 391 688
f 688 391 686
f 391 392 686
f 686 392 684
f 392 448 684
f 684 448 682
f 448 447 682
f 682 447 680
f 447 446 680
f 680 446 678
f 446 425 678
f 678 425 676
f 425 423 676
f 676 423 674
f 423 422 674
f 674 422 672
f 422 428 672
f 672 428 574
f 605 577 406
f 577 451 406
f 58 21 577
f 21 54 577
f 58 577 61
f 577 574 61
f 61 574 62
f 54 52 577
f 52 51 577
f 577 51 48
f 18 75 574
f 48 41 577
f 41 40 577
f 577 40 24
f 185 182 451
f 182 179 451
f 451 179 176
f 176 173 451
f 173 172 451
f 451 172 166
f 155 151 428
f 151 147 428
f 428 147 144
f 166 164 451
f 164 161 451
f 451 161 428
f 161 158 428
f 428 158 155
f 75 70 574
f 70 68 574
f 574 68 62
f 24 36 577
f 36 27 577
f 577 27 355
f 355 357 577
f 357 359 577
f 577 359 361
f 385 387 451
f 97 92 574
f 385 451 383
f 387 194 451
f 194 187 451
f 451 187 185
f 144 140 428
f 140 135 428
f 428 135 132
f 132 129 428
f 129 126 428
f 428 126 123
f 92 91 574
f 91 86 574
f 574 86 85
f 451 375 377
f 123 118 428
f 118 120 428
f 428 120 116
f 85 80 574
f 80 79 574
f 574 79 18
f 361 363 577
f 363 365 577
f 577 365 367
f 377 379 451
f 379 381 451
f 451 381 383
f 15 103 574
f 103 98 574
f 574 98 97
f 367 369 577
f 369 371 577
f 577 371 451
f 371 373 451
f 451 373 375
f 116 113 428
f 113 110 428
f 428 110 574
f 110 108 574
f 574 108 15
f 707 535 709
f 535 533 709
f 709 533 711
f 533 531 711
f 711 531 713
f 531 529 713
f 713 529 715
f 529 527 715
f 715 527 717
f 527 525 717
f 717 525 719
f 525 523 719
f 719 523 721
f 523 521 721
f 721 521 723
f 521 519 723
f 723 519 725
f 519 517 725
f 725 517 727
f 517 515 727
f 727 515 729
f 515 513 729
f 729 513 731
f 513 511 731
f 731 511 733
f 511 509 733
f 733 509 735
f 509 507 735
f 735 507 737
f 507 505 737
f 737 505 739
f 505 503 739
f 739 503 741
f 503 501 741
f 741 501 742
f 501 499 742
f 742 499 656
f 499 498 656
f 656 498 657
f 498 480 657
f 657 480 658
f 480 479 658
f 658 479 659
f 479 478 659
f 659 478 660
f 478 459 660
f 660 459 661
f 459 458 661
f 661 458 628
f 458 565 628
f 628 565 629
f 565 564 629
f 629 564 598
f 564 563 598
f 598 563 599
f 563 497 599
f 599 497 601
f 497 496 601
f 601 496 602
f 496 495 602
f 602 495 651
f 495 440 651
f 651 440 634
f 440 439 634
f 634 439 665
f 439 568 665
f 665 568 749
f 568 567 749
f 749 567 748
f 567 566 748
f 748 566 632
f 566 559 632
f 632 559 626
f 559 558 626
f 626 558 624
f 558 557 624
f 624 557 623
f 557 494 623
f 623 494 579
f 494 493 579
f 579 493 580
f 493 492 580
f 580 492 581
f 492 457 581
f 581 457 582
f 457 456 582
f 582 456 589
f 456 455 589
f 589 455 590
f 455 398 590
f 590 398 591
f 398 397 591
f 591 397 615
f 397 395 615
f 615 395 616
f 395 394 616
f 616 394 617
f 394 429 617
f 617 429 592
f 429 401 592
f 592 401 572
f 401 415 572
f 572 415 573
f 415 444 573
f 573 444 670
f 444 445 670
f 670 445 671
f 445 464 671
f 671 464 673
f 464 463 673
f 673 463 675
f 463 443 675
f 675 443 677
f 443 442 677
f 677 442 679
f 442 462 679
f 679 462 681
f 462 461 681
f 681 461 683
f 461 390 683
f 683 390 685
f 390 389 685
f 685 389 687
f 389 554 687
f 687 554 689
f 554 553 689
f 689 553 691
f 553 551 691
f 691 551 693
f 551 549 693
f 693 549 695
f 549 547 695
f 695 547 697
f 547 545 697
f 697 545 699
f 545 543 699
f 699 543 701
f 543 541 701
f 701 541 703
f 541 539 703
f 703 539 705
f 539 537 705
f 705 537 707
f 537 535 707
f 32 30 654
f 30 655 654
f 32 654 34
f 654 653 34
f 34 653 35
f 35 653 352
f 653 648 352
f 352 648 353
f 353 648 354
f 648 647 354
f 354 647 351
f 647 646 351
f 351 646 349
f 645 644 343
f 343 345 645
f 345 346 645
f 645 346 646
f 346 348 646
f 646 348 349
f 622 335 643
f 335 334 643
f 334 339 643
f 339 340 643
f 643 340 644
f 340 342 644
f 644 342 343
f 620 328 330
f 620 330 621
f 330 333 621
f 333 332 621
f 621 332 622
f 332 336 622
f 622 336 335
f 324 325 606
f 606 325 620
f 325 327 620
f 620 327 328
f 314 319 607
f 319 321 607
f 607 321 606
f 321 322 606
f 606 322 324
f 313 318 608
f 318 317 608
f 608 317 607
f 317 315 607
f 607 315 314
f 304 303 619
f 303 308 619
f 308 310 619
f 619 310 608
f 310 311 608
f 608 311 313
f 299 298 618
f 298 302 618
f 302 301 618
f 301 307 618
f 618 307 619
f 307 306 619
f 619 306 304
f 284 290 604
f 290 289 604
f 604 289 293
f 293 292 604
f 292 296 604
f 604 296 618
f 296 295 618
f 618 295 299
f 271 270 475
f 270 269 475
f 475 269 2
f 1 272 603
f 272 274 603
f 603 274 276
f 276 277 603
f 277 279 603
f 603 279 280
f 280 282 603
f 282 287 603
f 603 287 604
f 287 286 604
f 604 286 284
f 438 261 260
f 260 259 438
f 259 258 438
f 438 258 267
f 267 266 438
f 266 265 438
f 438 265 475
f 265 264 475
f 475 264 271
f 255 437 246
f 437 247 246
f 255 254 437
f 254 253 437
f 437 253 438
f 253 252 438
f 438 252 261
f 436 241 5
f 5 4 436
f 4 249 436
f 436 249 437
f 249 248 437
f 437 248 247
f 234 236 421
f 236 243 421
f 421 243 436
f 243 242 436
f 436 242 241
f 239 238 420
f 238 237 420
f 420 237 421
f 237 232 421
f 421 232 234
f 408 225 419
f 225 224 419
f 419 224 231
f 231 230 419
f 230 229 419
f 419 229 420
f 229 228 420
f 420 228 239
f 407 8 408
f 8 7 408
f 408 7 225
f 435 221 407
f 221 220 407
f 407 220 8
f 212 211 434
f 211 218 434
f 434 218 435
f 218 222 435
f 435 222 221
f 212 434 214
f 434 405 214
f 214 405 215
f 215 405 207
f 405 404 207
f 207 404 208
f 208 404 209
f 404 418 209
f 209 418 210
f 418 474 210
f 210 474 10
f 10 474 11
f 474 473 11
f 11 473 202
f 202 473 203
f 473 472 203
f 203 472 204
f 204 472 193
f 472 491 193
f 193 491 190
f 190 491 191
f 491 490 191
f 191 490 195
f 195 490 196
f 490 489 196
f 196 489 200
f 200 489 197
f 489 471 197
f 197 471 198
f 198 471 199
f 471 470 199
f 199 470 188
f 188 470 189
f 470 469 189
f 189 469 186
f 469 454 186
f 186 454 184
f 453 452 178
f 178 180 453
f 180 181 453
f 453 181 454
f 181 183 454
f 454 183 184
f 449 170 450
f 170 169 450
f 169 174 450
f 174 175 450
f 450 175 452
f 175 177 452
f 452 177 178
f 488 487 165
f 165 168 488
f 168 167 488
f 488 167 449
f 167 171 449
f 449 171 170
f 159 160 468
f 160 162 468
f 468 162 487
f 162 163 487
f 487 163 165
f 149 154 467
f 154 156 467
f 467 156 468
f 156 157 468
f 468 157 159
f 148 153 562
f 153 152 562
f 562 152 467
f 152 150 467
f 467 150 149
f 139 138 561
f 138 143 561
f 143 145 561
f 561 145 562
f 145 146 562
f 562 146 148
f 134 133 556
f 133 137 556
f 137 136 556
f 136 142 556
f 556 142 561
f 142 141 561
f 561 141 139
f 119 125 555
f 125 124 555
f 555 124 128
f 128 127 555
f 127 131 555
f 555 131 556
f 131 130 556
f 556 130 134
f 612 106 105
f 105 104 612
f 104 14 612
f 612 14 13
f 107 109 560
f 109 111 560
f 111 112 560
f 112 114 560
f 560 114 115
f 115 117 560
f 117 122 560
f 560 122 555
f 122 121 555
f 555 121 119
f 588 96 95
f 95 94 588
f 94 93 588
f 588 93 102
f 102 101 588
f 101 100 588
f 588 100 612
f 100 99 612
f 612 99 106
f 90 587 81
f 587 82 81
f 90 89 587
f 89 88 587
f 587 88 588
f 88 87 588
f 588 87 96
f 586 76 17
f 17 16 586
f 16 84 586
f 586 84 587
f 84 83 587
f 587 83 82
f 69 71 597
f 71 78 597
f 597 78 586
f 78 77 586
f 586 77 76
f 74 73 596
f 73 72 596
f 596 72 597
f 72 67 597
f 597 67 69
f 66 595 59
f 595 594 59
f 59 594 60
f 594 19 60
f 66 65 595
f 65 64 595
f 595 64 596
f 64 63 596
f 596 63 74
f 19 594 20
f 594 593 20
f 20 593 55
f 55 593 56
f 593 585 56
f 56 585 57
f 57 585 53
f 585 584 53
f 53 584 46
f 583 49 584
f 49 47 584
f 584 47 46
f 576 42 583
f 42 50 583
f 583 50 49
f 578 45 575
f 45 44 575
f 575 44 576
f 44 43 576
f 576 43 42
f 611 23 578
f 23 22 578
f 578 22 45
f 610 38 611
f 38 37 611
f 611 37 23
f 609 28 610
f 28 39 610
f 610 39 38
f 30 29 655
f 29 26 655
f 655 26 609
f 26 25 609
f 609 25 28
f 13 107 612
f 107 560 612
f 612 560 613
f 560 571 613
f 613 571 614
f 571 570 614
f 614 570 625
f 570 569 625
f 625 569 662
f 569 486 662
f 662 486 630
f 486 485 630
f 630 485 631
f 485 484 631
f 631 484 743
f 484 427 743
f 743 427 744
f 427 426 744
f 744 426 745
f 426 483 745
f 745 483 750
f 483 482 750
f 750 482 751
f 482 466 751
f 751 466 752
f 466 465 752
f 752 465 753
f 465 481 753
f 753 481 754
f 481 424 754
f 754 424 649
f 424 393 649
f 649 393 650
f 393 417 650
f 650 417 746
f 417 416 746
f 746 416 747
f 416 414 747
f 747 414 663
f 414 413 663
f 663 413 664
f 413 412 664
f 664 412 666
f 412 433 666
f 666 433 667
f 433 432 667
f 667 432 636
f 432 411 636
f 636 411 635
f 411 410 635
f 635 410 633
f 410 409 633
f 633 409 668
f 409 403 668
f 668 403 669
f 403 402 669
f 669 402 637
f 402 400 637
f 637 400 638
f 400 399 638
f 638 399 639
f 399 431 639
f 639 431 652
f 431 430 652
f 652 430 600
f 430 396 600
f 600 396 640
f 396 441 640
f 640 441 641
f 441 477 641
f 641 477 642
f 477 476 642
f 642 476 603
f 476 475 603
f 603 475 1
f 475 2 1

