# https://github.com/mikedh/trimesh

o tm25_235s_p12_clevis_side.stl
v 0.00476250 -0.07727046 0.32327724
v 0.00000000 -0.07727046 0.32327724
v 0.00476250 -0.07737564 0.32320610
v 0.00000000 -0.07737564 0.32320610
v 0.00476250 -0.07748646 0.32314411
v 0.00000000 -0.07748646 0.32314411
v 0.00476250 -0.07760213 0.32309175
v 0.00000000 -0.07760213 0.32309175
v 0.00476250 -0.07772180 0.32304934
v 0.00000000 -0.07772180 0.32304934
v 0.00476250 -0.07784464 0.32301718
v 0.00000000 -0.07784464 0.32301718
v 0.00476250 -0.07796975 0.32299554
v 0.00000000 -0.07796975 0.32299554
v 0.00476250 -0.07809625 0.32298458
v 0.00000000 -0.07809625 0.32298458
v 0.00476250 -0.07822322 0.32298434
v 0.00000000 -0.07822322 0.32298434
v 0.00476250 -0.07834976 0.32299486
v 0.00000000 -0.07834976 0.32299486
v 0.00476250 -0.07847495 0.32301602
v 0.00000000 -0.07847495 0.32301602
v 0.00476250 -0.07859791 0.32304770
v 0.00000000 -0.07859791 0.32304770
v 0.00476250 -0.07871775 0.32308966
v 0.00000000 -0.07871775 0.32308966
v 0.00476250 -0.07883361 0.32314160
v 0.00000000 -0.07883361 0.32314160
v 0.00476250 -0.07894466 0.32320315
v 0.00000000 -0.07894466 0.32320315
v 0.00476250 -0.07905010 0.32327387
v 0.00000000 -0.07905010 0.32327387
v 0.00476250 -0.07914919 0.32335326
v 0.00000000 -0.07914919 0.32335326
v 0.00476250 -0.07924121 0.32344076
v 0.00000000 -0.07924121 0.32344076
v 0.00476250 -0.07932550 0.32353571
v 0.00000000 -0.07932550 0.32353571
v 0.00476250 -0.07940146 0.32363746
v 0.00000000 -0.07940146 0.32363746
v 0.00476250 -0.07946853 0.32374528
v 0.00000000 -0.07946853 0.32374528
v 0.00476250 -0.07952625 0.32385838
v 0.00000000 -0.07952625 0.32385838
v 0.00476250 -0.07957420 0.32397595
v 0.00000000 -0.07957420 0.32397595
v 0.00476250 -0.07961204 0.32409713
v 0.00000000 -0.07961204 0.32409713
v 0.00476250 -0.07963949 0.32422110
v 0.00000000 -0.07963949 0.32422110
v 0.00476250 -0.07965636 0.32434696
v 0.00000000 -0.07965636 0.32434696
v 0.00476250 -0.07966252 0.32447377
v 0.00000000 -0.07966252 0.32447377
v 0.00476250 -0.07965793 0.32460067
v 0.00000000 -0.07965793 0.32460067
v 0.00476250 -0.07964264 0.32472670
v 0.00000000 -0.07964264 0.32472670
v 0.00476250 -0.07961673 0.32485101
v 0.00000000 -0.07961673 0.32485101
v 0.00476250 -0.07958041 0.32497269
v 0.00000000 -0.07958041 0.32497269
v 0.00476250 -0.07953393 0.32509083
v 0.00000000 -0.07953393 0.32509083
v 0.00476250 -0.07947762 0.32520464
v 0.00000000 -0.07947762 0.32520464
v 0.00476250 -0.06588522 0.32672414
v 0.00000000 -0.06588522 0.32672414
v 0.00476250 -0.06577783 0.32679662
v 0.00000000 -0.06577783 0.32679662
v 0.00476250 -0.06566459 0.32685959
v 0.00000000 -0.06566459 0.32685959
v 0.00476250 -0.06554634 0.32691252
v 0.00000000 -0.06554634 0.32691252
v 0.00476250 -0.06542397 0.32695505
v 0.00000000 -0.06542397 0.32695505
v 0.00476250 -0.06529838 0.32698688
v 0.00000000 -0.06529838 0.32698688
v 0.00476250 -0.06517051 0.32700774
v 0.00000000 -0.06517051 0.32700774
v 0.00476250 -0.06504133 0.32701749
v 0.00000000 -0.06504133 0.32701749
v 0.00476250 -0.06491178 0.32701606
v 0.00000000 -0.06491178 0.32701606
v 0.00476250 -0.06478284 0.32700345
v 0.00000000 -0.06478284 0.32700345
v 0.00476250 -0.06465546 0.32697976
v 0.00000000 -0.06465546 0.32697976
v 0.00476250 -0.06453061 0.32694519
v 0.00000000 -0.06453061 0.32694519
v 0.00476250 -0.06440920 0.32689995
v 0.00000000 -0.06440920 0.32689995
v 0.00476250 -0.06429216 0.32684439
v 0.00000000 -0.06429216 0.32684439
v 0.00476250 -0.06418034 0.32677898
v 0.00000000 -0.06418034 0.32677898
v 0.00476250 -0.06407458 0.32670411
v 0.00000000 -0.06407458 0.32670411
v 0.00476250 -0.06397568 0.32662043
v 0.00000000 -0.06397568 0.32662043
v 0.00476250 -0.06388437 0.32652852
v 0.00000000 -0.06388437 0.32652852
v 0.00476250 -0.06380133 0.32642910
v 0.00000000 -0.06380133 0.32642910
v 0.00476250 -0.06372718 0.32632285
v 0.00000000 -0.06372718 0.32632285
v 0.00476250 -0.06366247 0.32621062
v 0.00000000 -0.06366247 0.32621062
v 0.00476250 -0.06360769 0.32609320
v 0.00000000 -0.06360769 0.32609320
v 0.00476250 -0.06356324 0.32597151
v 0.00000000 -0.06356324 0.32597151
v 0.00476250 -0.06352947 0.32584643
v 0.00000000 -0.06352947 0.32584643
v 0.00476250 -0.06350661 0.32571891
v 0.00000000 -0.06350661 0.32571891
v 0.00476250 -0.06349484 0.32558990
v 0.00000000 -0.06349484 0.32558990
v 0.00476250 -0.06349424 0.32546034
v 0.00000000 -0.06349424 0.32546034
v 0.00476250 -0.06350484 0.32533121
v 0.00000000 -0.06350484 0.32533121
v 0.00476250 -0.06352653 0.32520348
v 0.00000000 -0.06352653 0.32520348
v 0.00476250 -0.06754268 0.29485852
v 0.00000000 -0.06754268 0.29485852
v 0.00476250 -0.06755510 0.29472855
v 0.00000000 -0.06755510 0.29472855
v 0.00476250 -0.06757877 0.29460019
v 0.00000000 -0.06757877 0.29460019
v 0.00476250 -0.06761352 0.29447433
v 0.00000000 -0.06761352 0.29447433
v 0.00476250 -0.06765907 0.29435199
v 0.00000000 -0.06765907 0.29435199
v 0.00476250 -0.06771509 0.29423407
v 0.00000000 -0.06771509 0.29423407
v 0.00476250 -0.06778116 0.29412147
v 0.00000000 -0.06778116 0.29412147
v 0.00476250 -0.06785676 0.29401505
v 0.00000000 -0.06785676 0.29401505
v 0.00476250 -0.06794133 0.29391560
v 0.00000000 -0.06794133 0.29391560
v 0.00476250 -0.06803422 0.29382387
v 0.00000000 -0.06803422 0.29382387
v 0.00476250 -0.06813474 0.29374057
v 0.00000000 -0.06813474 0.29374057
v 0.00476250 -0.06824213 0.29366633
v 0.00000000 -0.06824213 0.29366633
v 0.00476250 -0.06835555 0.29360169
v 0.00000000 -0.06835555 0.29360169
v 0.00476250 -0.06847417 0.29354718
v 0.00000000 -0.06847417 0.29354718
v 0.00476250 -0.06859709 0.29350320
v 0.00000000 -0.06859709 0.29350320
v 0.00476250 -0.06872336 0.29347005
v 0.00000000 -0.06872336 0.29347005
v 0.00476250 -0.06885204 0.29344800
v 0.00000000 -0.06885204 0.29344800
v 0.00476250 -0.06898214 0.29343724
v 0.00000000 -0.06898214 0.29343724
v 0.00476250 -0.06911269 0.29343784
v 0.00000000 -0.06911269 0.29343784
v 0.00476250 -0.06924269 0.29344976
v 0.00000000 -0.06924269 0.29344976
v 0.00476250 -0.06937116 0.29347295
v 0.00000000 -0.06937116 0.29347295
v 0.00476250 -0.06949712 0.29350725
v 0.00000000 -0.06949712 0.29350725
v 0.00476250 -0.06961963 0.29355234
v 0.00000000 -0.06961963 0.29355234
v 0.00476250 -0.06973776 0.29360792
v 0.00000000 -0.06973776 0.29360792
v 0.00476250 -0.06985061 0.29367355
v 0.00000000 -0.06985061 0.29367355
v 0.00476250 -0.06995732 0.29374877
v 0.00000000 -0.06995732 0.29374877
v 0.00476250 -0.07005709 0.29383296
v 0.00000000 -0.07005709 0.29383296
v 0.00476250 -0.07014915 0.29392552
v 0.00000000 -0.07014915 0.29392552
v 0.00476250 -0.07023282 0.29402572
v 0.00000000 -0.07023282 0.29402572
v 0.00476250 -0.07030746 0.29413283
v 0.00000000 -0.07030746 0.29413283
v 0.00476250 -0.07037251 0.29424602
v 0.00000000 -0.07037251 0.29424602
v 0.00476250 -0.08594705 0.31003746
v 0.00000000 -0.08594705 0.31003746
v 0.00476250 -0.08590412 0.31015629
v 0.00000000 -0.08590412 0.31015629
v 0.00476250 -0.08585136 0.31027108
v 0.00000000 -0.08585136 0.31027108
v 0.00476250 -0.08578911 0.31038103
v 0.00000000 -0.08578911 0.31038103
v 0.00476250 -0.08571783 0.31048533
v 0.00000000 -0.08571783 0.31048533
v 0.00476250 -0.08563803 0.31058326
v 0.00000000 -0.08563803 0.31058326
v 0.00476250 -0.08555028 0.31067416
v 0.00000000 -0.08555028 0.31067416
v 0.00476250 -0.08545518 0.31075734
v 0.00000000 -0.08545518 0.31075734
v 0.00476250 -0.08535343 0.31083220
v 0.00000000 -0.08535343 0.31083220
v 0.00476250 -0.08524573 0.31089827
v 0.00000000 -0.08524573 0.31089827
v 0.00476250 -0.08513285 0.31095502
v 0.00000000 -0.08513285 0.31095502
v 0.00476250 -0.08501560 0.31100208
v 0.00000000 -0.08501560 0.31100208
v 0.00476250 -0.08489481 0.31103909
v 0.00000000 -0.08489481 0.31103909
v 0.00476250 -0.08477134 0.31106582
v 0.00000000 -0.08477134 0.31106582
v 0.00476250 -0.08464605 0.31108204
v 0.00000000 -0.08464605 0.31108204
v 0.00476250 -0.08451983 0.31108770
v 0.00000000 -0.08451983 0.31108770
v 0.00476250 -0.08439359 0.31108269
v 0.00000000 -0.08439359 0.31108269
v 0.00476250 -0.08426822 0.31106707
v 0.00000000 -0.08426822 0.31106707
v 0.00476250 -0.08414461 0.31104097
v 0.00000000 -0.08414461 0.31104097
v 0.00476250 -0.08402363 0.31100455
v 0.00000000 -0.08402363 0.31100455
v 0.00476250 -0.08390615 0.31095809
v 0.00000000 -0.08390615 0.31095809
v 0.00476250 -0.08379300 0.31090191
v 0.00000000 -0.08379300 0.31090191
v 0.00476250 -0.08368497 0.31083640
v 0.00000000 -0.08368497 0.31083640
v 0.00476250 -0.08358284 0.31076202
v 0.00000000 -0.08358284 0.31076202
v 0.00476250 -0.08348732 0.31067932
v 0.00000000 -0.08348732 0.31067932
v 0.00476250 -0.08339912 0.31058890
v 0.00000000 -0.08339912 0.31058890
v 0.00476250 -0.08331882 0.31049135
v 0.00000000 -0.08331882 0.31049135
v 0.00476250 -0.08324703 0.31038740
v 0.00000000 -0.08324703 0.31038740
v 0.00476250 -0.08318423 0.31027776
v 0.00000000 -0.08318423 0.31027776
v 0.00476250 -0.07362802 0.33439320
v 0.00000000 -0.07362802 0.33439320
v 0.00476250 -0.07349592 0.33455849
v 0.00000000 -0.07349592 0.33455849
v 0.00476250 -0.07335032 0.33471197
v 0.00000000 -0.07335032 0.33471197
v 0.00476250 -0.07319226 0.33485264
v 0.00000000 -0.07319226 0.33485264
v 0.00476250 -0.07302287 0.33497939
v 0.00000000 -0.07302287 0.33497939
v 0.00476250 -0.07284338 0.33509138
v 0.00000000 -0.07284338 0.33509138
v 0.00476250 -0.07265505 0.33518782
v 0.00000000 -0.07265505 0.33518782
v 0.00476250 -0.07245925 0.33526796
v 0.00000000 -0.07245925 0.33526796
v 0.00476250 -0.07225737 0.33533126
v 0.00000000 -0.07225737 0.33533126
v 0.00476250 -0.07205086 0.33537728
v 0.00000000 -0.07205086 0.33537728
v 0.00476250 -0.07184120 0.33540568
v 0.00000000 -0.07184120 0.33540568
v 0.00476250 -0.07162990 0.33541623
v 0.00000000 -0.07162990 0.33541623
v 0.00476250 -0.07141845 0.33540890
v 0.00000000 -0.07141845 0.33540890
v 0.00476250 -0.07120839 0.33538368
v 0.00000000 -0.07120839 0.33538368
v 0.00476250 -0.07100120 0.33534083
v 0.00000000 -0.07100120 0.33534083
v 0.00476250 -0.07079839 0.33528057
v 0.00000000 -0.07079839 0.33528057
v 0.00476250 -0.07060139 0.33520341
v 0.00000000 -0.07060139 0.33520341
v 0.00476250 -0.07041162 0.33510986
v 0.00000000 -0.07041162 0.33510986
v 0.00476250 -0.07023045 0.33500060
v 0.00000000 -0.07023045 0.33500060
v 0.00476250 -0.07005916 0.33487642
v 0.00000000 -0.07005916 0.33487642
v 0.00476250 -0.06989898 0.33473819
v 0.00000000 -0.06989898 0.33473819
v 0.00476250 -0.06975106 0.33458692
v 0.00000000 -0.06975106 0.33458692
v 0.00476250 -0.06868027 0.33359423
v 0.00000000 -0.06868027 0.33359423
v 0.00476250 -0.06851941 0.33345926
v 0.00000000 -0.06851941 0.33345926
v 0.00476250 -0.06837045 0.33331123
v 0.00000000 -0.06837045 0.33331123
v 0.00476250 -0.06823444 0.33315125
v 0.00000000 -0.06823444 0.33315125
v 0.00476250 -0.06811233 0.33298039
v 0.00000000 -0.06811233 0.33298039
v 0.00476250 -0.06800500 0.33279991
v 0.00000000 -0.06800500 0.33279991
v 0.00476250 -0.06791318 0.33261105
v 0.00000000 -0.06791318 0.33261105
v 0.00476250 -0.06783754 0.33241516
v 0.00000000 -0.06783754 0.33241516
v 0.00476250 -0.06777861 0.33221361
v 0.00000000 -0.06777861 0.33221361
v 0.00476250 -0.06773680 0.33200780
v 0.00000000 -0.06773680 0.33200780
v 0.00476250 -0.06771241 0.33179924
v 0.00000000 -0.06771241 0.33179924
v 0.00476250 -0.06770562 0.33158934
v 0.00000000 -0.06770562 0.33158934
v 0.00476250 -0.06771645 0.33137962
v 0.00000000 -0.06771645 0.33137962
v 0.00476250 -0.06774485 0.33117157
v 0.00000000 -0.06774485 0.33117157
v 0.00476250 -0.06779061 0.33096662
v 0.00000000 -0.06779061 0.33096662
v 0.00476250 -0.06785341 0.33076623
v 0.00000000 -0.06785341 0.33076623
v 0.00476250 -0.06793281 0.33057183
v 0.00000000 -0.06793281 0.33057183
v 0.00476250 -0.06802824 0.33038479
v 0.00000000 -0.06802824 0.33038479
v 0.00476250 -0.06813903 0.33020639
v 0.00000000 -0.06813903 0.33020639
v 0.00476250 -0.06826441 0.33003792
v 0.00000000 -0.06826441 0.33003792
v 0.00476250 -0.06840347 0.32988060
v 0.00000000 -0.06840347 0.32988060
v 0.00476250 -0.06855526 0.32973546
v 0.00000000 -0.06855526 0.32973546
v 0.00476250 -0.06871869 0.32960358
v 0.00000000 -0.06871869 0.32960358
v 0.00476250 -0.08726106 0.28493291
v 0.00000000 -0.08726106 0.28493291
v 0.00476250 -0.08747154 0.28494176
v 0.00000000 -0.08747154 0.28494176
v 0.00476250 -0.08768053 0.28496835
v 0.00000000 -0.08768053 0.28496835
v 0.00476250 -0.08788655 0.28501239
v 0.00000000 -0.08788655 0.28501239
v 0.00476250 -0.08808812 0.28507367
v 0.00000000 -0.08808812 0.28507367
v 0.00476250 -0.08828381 0.28515166
v 0.00000000 -0.08828381 0.28515166
v 0.00476250 -0.08847225 0.28524590
v 0.00000000 -0.08847225 0.28524590
v 0.00476250 -0.08865208 0.28535563
v 0.00000000 -0.08865208 0.28535563
v 0.00476250 -0.08882204 0.28548011
v 0.00000000 -0.08882204 0.28548011
v 0.00476250 -0.08898091 0.28561848
v 0.00000000 -0.08898091 0.28561848
v 0.00476250 -0.08912756 0.28576970
v 0.00000000 -0.08912756 0.28576970
v 0.00476250 -0.08926097 0.28593278
v 0.00000000 -0.08926097 0.28593278
v 0.00476250 -0.08938017 0.28610647
v 0.00000000 -0.08938017 0.28610647
v 0.00476250 -0.08948432 0.28628960
v 0.00000000 -0.08948432 0.28628960
v 0.00476250 -0.08957268 0.28648084
v 0.00000000 -0.08957268 0.28648084
v 0.00476250 -0.08964463 0.28667885
v 0.00000000 -0.08964463 0.28667885
v 0.00476250 -0.08969966 0.28688222
v 0.00000000 -0.08969966 0.28688222
v 0.00476250 -0.08973736 0.28708947
v 0.00000000 -0.08973736 0.28708947
v 0.00476250 -0.08975748 0.28729919
v 0.00000000 -0.08975748 0.28729919
v 0.00476250 -0.08975988 0.28750986
v 0.00000000 -0.08975988 0.28750986
v 0.00000000 -0.07958087 0.31659248
v 0.00476250 -0.07958087 0.31659248
v 0.00000000 -0.07974248 0.31646222
v 0.00476250 -0.07974248 0.31646222
v 0.00000000 -0.07989272 0.31631899
v 0.00476250 -0.07989272 0.31631899
v 0.00000000 -0.08003057 0.31616378
v 0.00476250 -0.08003057 0.31616378
v 0.00000000 -0.08015506 0.31599769
v 0.00476250 -0.08015506 0.31599769
v 0.00000000 -0.08026534 0.31582183
v 0.00476250 -0.08026534 0.31582183
v 0.00000000 -0.08036066 0.31563741
v 0.00476250 -0.08036066 0.31563741
v 0.00000000 -0.08044035 0.31544575
v 0.00476250 -0.08044035 0.31544575
v 0.00000000 -0.08050386 0.31524813
v 0.00476250 -0.08050386 0.31524813
v 0.00000000 -0.08055076 0.31504592
v 0.00476250 -0.08055076 0.31504592
v 0.00000000 -0.08058073 0.31484053
v 0.00476250 -0.08058073 0.31484053
v 0.00000000 -0.08059354 0.31463334
v 0.00476250 -0.08059354 0.31463334
v 0.00000000 -0.08058913 0.31442580
v 0.00476250 -0.08058913 0.31442580
v 0.00000000 -0.08056752 0.31421936
v 0.00476250 -0.08056752 0.31421936
v 0.00000000 -0.08052886 0.31401542
v 0.00476250 -0.08052886 0.31401542
v 0.00000000 -0.08047341 0.31381539
v 0.00476250 -0.08047341 0.31381539
v 0.00000000 -0.08040155 0.31362063
v 0.00476250 -0.08040155 0.31362063
v 0.00000000 -0.08031379 0.31343254
v 0.00476250 -0.08031379 0.31343254
v 0.00000000 -0.07416307 0.28493291
v 0.00476250 -0.07416307 0.28493291
v 0.00000000 -0.07394991 0.28494200
v 0.00476250 -0.07394991 0.28494200
v 0.00000000 -0.07373830 0.28496924
v 0.00476250 -0.07373830 0.28496924
v 0.00000000 -0.07352979 0.28501445
v 0.00476250 -0.07352979 0.28501445
v 0.00000000 -0.07332588 0.28507724
v 0.00476250 -0.07332588 0.28507724
v 0.00000000 -0.07312807 0.28515720
v 0.00476250 -0.07312807 0.28515720
v 0.00000000 -0.07293781 0.28525373
v 0.00476250 -0.07293781 0.28525373
v 0.00000000 -0.07275646 0.28536615
v 0.00476250 -0.07275646 0.28536615
v 0.00000000 -0.07258537 0.28549361
v 0.00476250 -0.07258537 0.28549361
v 0.00000000 -0.07242576 0.28563520
v 0.00476250 -0.07242576 0.28563520
v 0.00000000 -0.07227881 0.28578988
v 0.00476250 -0.07227881 0.28578988
v 0.00000000 -0.07214557 0.28595653
v 0.00476250 -0.07214557 0.28595653
v 0.00000000 -0.07202704 0.28613392
v 0.00476250 -0.07202704 0.28613392
v 0.00000000 -0.07192406 0.28632078
v 0.00476250 -0.07192406 0.28632078
v 0.00000000 -0.07183739 0.28651574
v 0.00476250 -0.07183739 0.28651574
v 0.00000000 -0.07176766 0.28671739
v 0.00476250 -0.07176766 0.28671739
v 0.00000000 -0.07171537 0.28692424
v 0.00476250 -0.07171537 0.28692424
v 0.00000000 -0.07168091 0.28713480
v 0.00476250 -0.07168091 0.28713480
v 0.00000000 -0.07166453 0.28734753
v 0.00476250 -0.07166453 0.28734753
v 0.00000000 -0.07166635 0.28756085
v 0.00476250 -0.07166635 0.28756085
v 0.00000000 -0.07168636 0.28777328
v 0.00476250 -0.07168636 0.28777328
v 0.00000000 -0.07172440 0.28798321
v 0.00476250 -0.07172440 0.28798321
v 0.00000000 -0.07178020 0.28818914
v 0.00476250 -0.07178020 0.28818914
v 0.00000000 -0.07185336 0.28838956
v 0.00476250 -0.07185336 0.28838956
v 0.00000000 -0.07194334 0.28858304
v 0.00476250 -0.07194334 0.28858304
v 0.00000000 -0.06844954 0.32482713
v 0.00000000 -0.08290368 0.32726911
v 0.00000000 -0.08012830 0.31703541
v 0.00000000 -0.08618373 0.32067880
v 0.00000000 -0.07474703 0.33951041
v 0.00000000 -0.07660605 0.33564961
v 0.00000000 -0.07908247 0.33356109
v 0.00000000 -0.06177454 0.33642548
v 0.00000000 -0.06147656 0.33661532
v 0.00000000 -0.06162134 0.33564961
v 0.00000000 -0.06484776 0.33602089
v 0.00000000 -0.06450282 0.33594441
v 0.00000000 -0.06844954 0.33564961
v 0.00000000 -0.06208794 0.33626235
v 0.00000000 -0.06747009 0.34164450
v 0.00000000 -0.06760530 0.34131807
v 0.00000000 -0.06838816 0.34648612
v 0.00000000 -0.06309627 0.33594441
v 0.00000000 -0.06275133 0.33602089
v 0.00000000 -0.06241436 0.33612713
v 0.00000000 -0.06640284 0.34303537
v 0.00000000 -0.06666332 0.34279668
v 0.00000000 -0.06690203 0.34253618
v 0.00000000 -0.06771155 0.34098113
v 0.00000000 -0.06778802 0.34063616
v 0.00000000 -0.06783413 0.34028587
v 0.00000000 -0.06784955 0.33993289
v 0.00000000 -0.06783413 0.33957991
v 0.00000000 -0.06778802 0.33922961
v 0.00000000 -0.06771155 0.33888468
v 0.00000000 -0.06172899 0.34766030
v 0.00000000 -0.06177454 0.34344029
v 0.00000000 -0.06208794 0.34360343
v 0.00000000 -0.06711711 0.34225589
v 0.00000000 -0.06730695 0.34195790
v 0.00000000 -0.06415252 0.33589831
v 0.00000000 -0.06379955 0.33588290
v 0.00000000 -0.06344657 0.33589831
v 0.00000000 -0.06582455 0.33642548
v 0.00000000 -0.06551115 0.33626235
v 0.00000000 -0.06518473 0.33612713
v 0.00000000 -0.06760530 0.33854771
v 0.00000000 -0.06747009 0.33822128
v 0.00000000 -0.06730695 0.33790791
v 0.00000000 -0.06711711 0.33760992
v 0.00000000 -0.06690203 0.33732960
v 0.00000000 -0.06666332 0.33706912
v 0.00000000 -0.06640284 0.33683041
v 0.00000000 -0.06612253 0.33661532
v 0.00000000 -0.06241436 0.34373865
v 0.00000000 -0.06275133 0.34384489
v 0.00000000 -0.06241036 0.34781137
v 0.00000000 -0.06309627 0.34392136
v 0.00000000 -0.06310230 0.34790245
v 0.00000000 -0.06344657 0.34396750
v 0.00000000 -0.06379955 0.34793290
v 0.00000000 -0.06379955 0.34398291
v 0.00000000 -0.06449679 0.34790245
v 0.00000000 -0.06415252 0.34396750
v 0.00000000 -0.06518873 0.34781137
v 0.00000000 -0.06450282 0.34392136
v 0.00000000 -0.06587010 0.34766030
v 0.00000000 -0.06484776 0.34384489
v 0.00000000 -0.06653570 0.34745044
v 0.00000000 -0.06518473 0.34373865
v 0.00000000 -0.06718049 0.34718335
v 0.00000000 -0.06551115 0.34360343
v 0.00000000 -0.06779955 0.34686109
v 0.00000000 -0.06582455 0.34344029
v 0.00000000 -0.06612253 0.34325045
v 0.00000000 -0.06147656 0.34325045
v 0.00000000 -0.06106338 0.34745044
v 0.00000000 -0.06041860 0.34718335
v 0.00000000 -0.06119626 0.33683041
v 0.00000000 -0.05687134 0.33593291
v 0.00000000 -0.06093576 0.33706912
v 0.00000000 -0.06069706 0.33732960
v 0.00000000 -0.05979954 0.34686109
v 0.00000000 -0.05921093 0.34648612
v 0.00000000 -0.06119626 0.34303537
v 0.00000000 -0.05865724 0.34606126
v 0.00000000 -0.06093576 0.34279668
v 0.00000000 -0.05814269 0.34558976
v 0.00000000 -0.06069706 0.34253618
v 0.00000000 -0.05767119 0.34507519
v 0.00000000 -0.06048198 0.34225589
v 0.00000000 -0.05724633 0.34452152
v 0.00000000 -0.06029214 0.34195790
v 0.00000000 -0.05687134 0.34393290
v 0.00000000 -0.06012900 0.34164450
v 0.00000000 -0.05654908 0.34331384
v 0.00000000 -0.05999379 0.34131807
v 0.00000000 -0.05628200 0.34266907
v 0.00000000 -0.05988755 0.34098113
v 0.00000000 -0.05607214 0.34200343
v 0.00000000 -0.05981107 0.34063616
v 0.00000000 -0.05592108 0.34132209
v 0.00000000 -0.05976496 0.34028587
v 0.00000000 -0.05582999 0.34063014
v 0.00000000 -0.05974954 0.33993289
v 0.00000000 -0.05579954 0.33993289
v 0.00000000 -0.05976496 0.33957991
v 0.00000000 -0.05582999 0.33923566
v 0.00000000 -0.05981107 0.33922961
v 0.00000000 -0.05592108 0.33854371
v 0.00000000 -0.05988755 0.33888468
v 0.00000000 -0.05607214 0.33786234
v 0.00000000 -0.05999379 0.33854771
v 0.00000000 -0.05628200 0.33719674
v 0.00000000 -0.06012900 0.33822128
v 0.00000000 -0.05654908 0.33655196
v 0.00000000 -0.06029214 0.33790791
v 0.00000000 -0.06048198 0.33760992
v 0.00000000 -0.06844954 0.28918451
v 0.00000000 -0.06379955 0.28493291
v 0.00000000 -0.06844954 0.28355789
v 0.00000000 -0.06379955 0.28355789
v 0.00000000 -0.06352080 0.29525292
v 0.00000000 -0.05935577 0.32591254
v 0.00000000 -0.06162134 0.31703541
v 0.00000000 -0.06129567 0.31577265
v 0.00000000 -0.06268536 0.30554283
v 0.00000000 -0.06992790 0.34507519
v 0.00000000 -0.06945640 0.34558976
v 0.00000000 -0.06894185 0.34606126
v 0.00000000 -0.07660605 0.31879318
v 0.00000000 -0.07898214 0.31703541
v 0.00000000 -0.08889952 0.31383663
v 0.00000000 -0.08747686 0.30451676
v 0.00000000 -0.08862555 0.29890433
v 0.00000000 -0.08938774 0.29322651
v 0.00000000 -0.09103191 0.30679080
v 0.00000000 -0.09256586 0.29959098
v 0.00000000 -0.09379955 0.28493291
v 0.00000000 -0.09349058 0.29228786
v 0.00000000 -0.09379955 0.28355789
v 0.00000000 -0.07670241 0.32989416
v 0.00000000 -0.06905715 0.33390316
v 0.00000000 -0.06941453 0.33423448
v 0.00000000 -0.06674323 0.30504000
v 0.00000000 -0.06540325 0.31516457
v 0.00000000 -0.07660605 0.28355789
v 0.00000000 -0.07225499 0.28918451
v 0.00000000 -0.08012830 0.28493291
v 0.00000000 -0.07660605 0.28493291
v 0.00000000 -0.08915530 0.28355789
v 0.00000000 -0.08012830 0.28355789
v 0.00000000 -0.08012830 0.30437988
v 0.00000000 -0.07660605 0.29758197
v 0.00000000 -0.06379955 0.27630791
v 0.00000000 -0.06379955 0.27493289
v 0.00000000 -0.06844954 0.27630791
v 0.00000000 -0.06844954 0.27493289
v 0.00000000 -0.07660605 0.27630791
v 0.00000000 -0.08915530 0.27493289
v 0.00000000 -0.08915530 0.27630791
v 0.00000000 -0.08012830 0.27493289
v 0.00000000 -0.08012830 0.27630791
v 0.00000000 -0.07660605 0.27493289
v 0.00000000 -0.07206909 0.27781859
v 0.00000000 -0.07188189 0.27775955
v 0.00000000 -0.07110345 0.27769145
v 0.00000000 -0.07090884 0.27771708
v 0.00000000 -0.07034866 0.28197208
v 0.00000000 -0.07053000 0.28204721
v 0.00000000 -0.07071720 0.28210622
v 0.00000000 -0.07090884 0.28214872
v 0.00000000 -0.07110345 0.28217435
v 0.00000000 -0.07129955 0.28218290
v 0.00000000 -0.07149564 0.28217435
v 0.00000000 -0.07169025 0.28214872
v 0.00000000 -0.07188189 0.28210622
v 0.00000000 -0.07225043 0.27789369
v 0.00000000 -0.07169025 0.27771708
v 0.00000000 -0.07149564 0.27769145
v 0.00000000 -0.07129955 0.27768290
v 0.00000000 -0.07071720 0.27775955
v 0.00000000 -0.07053000 0.27781859
v 0.00000000 -0.07034866 0.27789369
v 0.00000000 -0.06985328 0.28165650
v 0.00000000 -0.07000900 0.28177598
v 0.00000000 -0.07017455 0.28188145
v 0.00000000 -0.07206909 0.28204721
v 0.00000000 -0.07225043 0.28197208
v 0.00000000 -0.07242455 0.28188145
v 0.00000000 -0.07274581 0.27820930
v 0.00000000 -0.07259009 0.27808979
v 0.00000000 -0.07242455 0.27798435
v 0.00000000 -0.07017455 0.27798435
v 0.00000000 -0.07000900 0.27808979
v 0.00000000 -0.06985328 0.27820930
v 0.00000000 -0.07259009 0.28177598
v 0.00000000 -0.07274581 0.28165650
v 0.00000000 -0.07289053 0.28152388
v 0.00000000 -0.06970856 0.27834192
v 0.00000000 -0.06957594 0.27848664
v 0.00000000 -0.06945645 0.27864236
v 0.00000000 -0.06945645 0.28122345
v 0.00000000 -0.06957594 0.28137916
v 0.00000000 -0.06970856 0.28152388
v 0.00000000 -0.07302315 0.28137916
v 0.00000000 -0.07314264 0.28122345
v 0.00000000 -0.07324810 0.28105789
v 0.00000000 -0.07314264 0.27864236
v 0.00000000 -0.07302315 0.27848664
v 0.00000000 -0.07289053 0.27834192
v 0.00000000 -0.06935099 0.27880791
v 0.00000000 -0.06926035 0.27898201
v 0.00000000 -0.06918523 0.27916336
v 0.00000000 -0.06912621 0.27935055
v 0.00000000 -0.06908373 0.27954218
v 0.00000000 -0.06905811 0.27973679
v 0.00000000 -0.06904954 0.27993289
v 0.00000000 -0.06905811 0.28012899
v 0.00000000 -0.07333874 0.28088379
v 0.00000000 -0.07341386 0.28070244
v 0.00000000 -0.07347288 0.28051525
v 0.00000000 -0.07351536 0.28032359
v 0.00000000 -0.07354099 0.28012899
v 0.00000000 -0.07354955 0.27993289
v 0.00000000 -0.06908373 0.28032359
v 0.00000000 -0.06912621 0.28051525
v 0.00000000 -0.06918523 0.28070244
v 0.00000000 -0.06926035 0.28088379
v 0.00000000 -0.06935099 0.28105789
v 0.00000000 -0.07354099 0.27973679
v 0.00000000 -0.07351536 0.27954218
v 0.00000000 -0.07347288 0.27935055
v 0.00000000 -0.07341386 0.27916336
v 0.00000000 -0.07333874 0.27898201
v 0.00000000 -0.07324810 0.27880791
v 0.00000000 -0.08553000 0.28204721
v 0.00000000 -0.08571720 0.28210622
v 0.00000000 -0.08534865 0.28197208
v 0.00000000 -0.08725043 0.27789369
v 0.00000000 -0.08706909 0.27781859
v 0.00000000 -0.08688189 0.27775955
v 0.00000000 -0.08669025 0.27771708
v 0.00000000 -0.08649565 0.27769145
v 0.00000000 -0.08629955 0.27768290
v 0.00000000 -0.08610345 0.27769145
v 0.00000000 -0.08590884 0.27771708
v 0.00000000 -0.08571720 0.27775955
v 0.00000000 -0.08590884 0.28214872
v 0.00000000 -0.08610345 0.28217435
v 0.00000000 -0.08629955 0.28218290
v 0.00000000 -0.08649565 0.28217435
v 0.00000000 -0.08669025 0.28214872
v 0.00000000 -0.08688189 0.28210622
v 0.00000000 -0.08706909 0.28204721
v 0.00000000 -0.08553000 0.27781859
v 0.00000000 -0.08534865 0.27789369
v 0.00000000 -0.08517455 0.27798435
v 0.00000000 -0.08485328 0.28165650
v 0.00000000 -0.08500900 0.28177598
v 0.00000000 -0.08517455 0.28188145
v 0.00000000 -0.08774582 0.27820930
v 0.00000000 -0.08759009 0.27808979
v 0.00000000 -0.08742455 0.27798435
v 0.00000000 -0.08500900 0.27808979
v 0.00000000 -0.08485328 0.27820930
v 0.00000000 -0.08470856 0.27834192
v 0.00000000 -0.08725043 0.28197208
v 0.00000000 -0.08742455 0.28188145
v 0.00000000 -0.08759009 0.28177598
v 0.00000000 -0.08457594 0.27848664
v 0.00000000 -0.08445645 0.27864236
v 0.00000000 -0.08435099 0.27880791
v 0.00000000 -0.08445645 0.28122345
v 0.00000000 -0.08457594 0.28137916
v 0.00000000 -0.08470856 0.28152388
v 0.00000000 -0.08774582 0.28165650
v 0.00000000 -0.08789054 0.28152388
v 0.00000000 -0.08802315 0.28137916
v 0.00000000 -0.08814264 0.27864236
v 0.00000000 -0.08802315 0.27848664
v 0.00000000 -0.08789054 0.27834192
v 0.00000000 -0.08426035 0.27898201
v 0.00000000 -0.08418524 0.27916336
v 0.00000000 -0.08412621 0.27935055
v 0.00000000 -0.08408373 0.27954218
v 0.00000000 -0.08405811 0.27973679
v 0.00000000 -0.08404955 0.27993289
v 0.00000000 -0.08814264 0.28122345
v 0.00000000 -0.08824810 0.28105789
v 0.00000000 -0.08833874 0.28088379
v 0.00000000 -0.08841386 0.28070244
v 0.00000000 -0.08847288 0.28051525
v 0.00000000 -0.08851536 0.28032359
v 0.00000000 -0.08405811 0.28012899
v 0.00000000 -0.08408373 0.28032359
v 0.00000000 -0.08412621 0.28051525
v 0.00000000 -0.08418524 0.28070244
v 0.00000000 -0.08426035 0.28088379
v 0.00000000 -0.08435099 0.28105789
v 0.00000000 -0.08854099 0.28012899
v 0.00000000 -0.08854955 0.27993289
v 0.00000000 -0.08854099 0.27973679
v 0.00000000 -0.08851536 0.27954218
v 0.00000000 -0.08847288 0.27935055
v 0.00000000 -0.08841386 0.27916336
v 0.00000000 -0.08833874 0.27898201
v 0.00000000 -0.08824810 0.27880791
v 0.00000000 -0.09379955 0.27630791
v 0.00000000 -0.09379955 0.27493289
v 0.00476250 -0.06119626 0.33683041
v 0.00476250 -0.06147656 0.33661532
v 0.00476250 -0.06162134 0.33564961
v 0.00476250 -0.06177454 0.33642548
v 0.00476250 -0.06208794 0.33626235
v 0.00476250 -0.06844954 0.33564961
v 0.00476250 -0.06450282 0.33594441
v 0.00476250 -0.06484776 0.33602089
v 0.00476250 -0.06241436 0.33612713
v 0.00476250 -0.06275133 0.33602089
v 0.00476250 -0.06309627 0.33594441
v 0.00476250 -0.06771155 0.33888468
v 0.00476250 -0.06778802 0.33922961
v 0.00476250 -0.06783413 0.33957991
v 0.00476250 -0.06784955 0.33993289
v 0.00476250 -0.06783413 0.34028587
v 0.00476250 -0.06838816 0.34648612
v 0.00476250 -0.06778802 0.34063616
v 0.00476250 -0.06771155 0.34098113
v 0.00476250 -0.06344657 0.33589831
v 0.00476250 -0.06379955 0.33588290
v 0.00476250 -0.06415252 0.33589831
v 0.00476250 -0.06518473 0.33612713
v 0.00476250 -0.06551115 0.33626235
v 0.00476250 -0.06582455 0.33642548
v 0.00476250 -0.06760530 0.34131807
v 0.00476250 -0.06747009 0.34164450
v 0.00476250 -0.06730695 0.34195790
v 0.00476250 -0.06172899 0.34766030
v 0.00476250 -0.06241436 0.34373865
v 0.00476250 -0.06208794 0.34360343
v 0.00476250 -0.06612253 0.33661532
v 0.00476250 -0.06640284 0.33683041
v 0.00476250 -0.06666332 0.33706912
v 0.00476250 -0.06690203 0.33732960
v 0.00476250 -0.06711711 0.33760992
v 0.00476250 -0.06730695 0.33790791
v 0.00476250 -0.06747009 0.33822128
v 0.00476250 -0.06760530 0.33854771
v 0.00476250 -0.06711711 0.34225589
v 0.00476250 -0.06690203 0.34253618
v 0.00476250 -0.06666332 0.34279668
v 0.00476250 -0.06640284 0.34303537
v 0.00476250 -0.06612253 0.34325045
v 0.00476250 -0.06779955 0.34686109
v 0.00476250 -0.06582455 0.34344029
v 0.00476250 -0.06718049 0.34718335
v 0.00476250 -0.06551115 0.34360343
v 0.00476250 -0.06653570 0.34745044
v 0.00476250 -0.06518473 0.34373865
v 0.00476250 -0.06587010 0.34766030
v 0.00476250 -0.06484776 0.34384489
v 0.00476250 -0.06518873 0.34781137
v 0.00476250 -0.06450282 0.34392136
v 0.00476250 -0.06449679 0.34790245
v 0.00476250 -0.06415252 0.34396750
v 0.00476250 -0.06379955 0.34793290
v 0.00476250 -0.06379955 0.34398291
v 0.00476250 -0.06310230 0.34790245
v 0.00476250 -0.06344657 0.34396750
v 0.00476250 -0.06241036 0.34781137
v 0.00476250 -0.06309627 0.34392136
v 0.00476250 -0.06275133 0.34384489
v 0.00476250 -0.06069706 0.33732960
v 0.00476250 -0.06093576 0.33706912
v 0.00476250 -0.05687134 0.33593291
v 0.00476250 -0.06177454 0.34344029
v 0.00476250 -0.06147656 0.34325045
v 0.00476250 -0.06106338 0.34745044
v 0.00476250 -0.05921093 0.34648612
v 0.00476250 -0.05979954 0.34686109
v 0.00476250 -0.06041860 0.34718335
v 0.00476250 -0.06048198 0.33760992
v 0.00476250 -0.05865724 0.34606126
v 0.00476250 -0.06119626 0.34303537
v 0.00476250 -0.05814269 0.34558976
v 0.00476250 -0.06093576 0.34279668
v 0.00476250 -0.05767119 0.34507519
v 0.00476250 -0.06069706 0.34253618
v 0.00476250 -0.05724633 0.34452152
v 0.00476250 -0.06048198 0.34225589
v 0.00476250 -0.05687134 0.34393290
v 0.00476250 -0.06029214 0.34195790
v 0.00476250 -0.05654908 0.34331384
v 0.00476250 -0.06012900 0.34164450
v 0.00476250 -0.05628200 0.34266907
v 0.00476250 -0.05999379 0.34131807
v 0.00476250 -0.05607214 0.34200343
v 0.00476250 -0.05988755 0.34098113
v 0.00476250 -0.05592108 0.34132209
v 0.00476250 -0.05981107 0.34063616
v 0.00476250 -0.05582999 0.34063014
v 0.00476250 -0.05976496 0.34028587
v 0.00476250 -0.05579954 0.33993289
v 0.00476250 -0.05974954 0.33993289
v 0.00476250 -0.05582999 0.33923566
v 0.00476250 -0.05976496 0.33957991
v 0.00476250 -0.05592108 0.33854371
v 0.00476250 -0.05981107 0.33922961
v 0.00476250 -0.05607214 0.33786234
v 0.00476250 -0.05988755 0.33888468
v 0.00476250 -0.05628200 0.33719674
v 0.00476250 -0.05999379 0.33854771
v 0.00476250 -0.05654908 0.33655196
v 0.00476250 -0.06012900 0.33822128
v 0.00476250 -0.06029214 0.33790791
v 0.00476250 -0.09379955 0.28493291
v 0.00476250 -0.09349058 0.29228786
v 0.00476250 -0.09379955 0.28355789
v 0.00476250 -0.08938774 0.29322651
v 0.00476250 -0.09256586 0.29959098
v 0.00476250 -0.09103191 0.30679080
v 0.00476250 -0.08618373 0.32067880
v 0.00476250 -0.08889952 0.31383663
v 0.00476250 -0.08747686 0.30451676
v 0.00476250 -0.08012830 0.31703541
v 0.00476250 -0.08862555 0.29890433
v 0.00476250 -0.08290368 0.32726911
v 0.00476250 -0.07908247 0.33356109
v 0.00476250 -0.07660605 0.31879318
v 0.00476250 -0.07898214 0.31703541
v 0.00476250 -0.06945640 0.34558976
v 0.00476250 -0.06992790 0.34507519
v 0.00476250 -0.07474703 0.33951041
v 0.00476250 -0.07660605 0.33564961
v 0.00476250 -0.07670241 0.32989416
v 0.00476250 -0.06894185 0.34606126
v 0.00476250 -0.05935577 0.32591254
v 0.00476250 -0.06162134 0.31703541
v 0.00476250 -0.06129567 0.31577265
v 0.00476250 -0.06268536 0.30554283
v 0.00476250 -0.06352080 0.29525292
v 0.00476250 -0.06379955 0.28493291
v 0.00476250 -0.06379955 0.27630791
v 0.00476250 -0.06379955 0.28355789
v 0.00476250 -0.06844954 0.28355789
v 0.00476250 -0.06844954 0.28918451
v 0.00476250 -0.06844954 0.32482713
v 0.00476250 -0.06540325 0.31516457
v 0.00476250 -0.06674323 0.30504000
v 0.00476250 -0.06941453 0.33423448
v 0.00476250 -0.06905715 0.33390316
v 0.00476250 -0.08012830 0.28493291
v 0.00476250 -0.08915530 0.28355789
v 0.00476250 -0.07660605 0.28355789
v 0.00476250 -0.07225499 0.28918451
v 0.00476250 -0.07660605 0.29758197
v 0.00476250 -0.08012830 0.30437988
v 0.00476250 -0.07090884 0.27771708
v 0.00476250 -0.07110345 0.27769145
v 0.00476250 -0.06844954 0.27630791
v 0.00476250 -0.07129955 0.27768290
v 0.00476250 -0.07149564 0.27769145
v 0.00476250 -0.07660605 0.27630791
v 0.00476250 -0.07169025 0.27771708
v 0.00476250 -0.07188189 0.27775955
v 0.00476250 -0.07169025 0.28214872
v 0.00476250 -0.07149564 0.28217435
v 0.00476250 -0.07206909 0.27781859
v 0.00476250 -0.07225043 0.27789369
v 0.00476250 -0.07242455 0.27798435
v 0.00476250 -0.07225043 0.28197208
v 0.00476250 -0.07206909 0.28204721
v 0.00476250 -0.07188189 0.28210622
v 0.00476250 -0.07129955 0.28218290
v 0.00476250 -0.07110345 0.28217435
v 0.00476250 -0.07090884 0.28214872
v 0.00476250 -0.07259009 0.27808979
v 0.00476250 -0.07274581 0.27820930
v 0.00476250 -0.07289053 0.27834192
v 0.00476250 -0.07071720 0.28210622
v 0.00476250 -0.07053000 0.28204721
v 0.00476250 -0.07034866 0.28197208
v 0.00476250 -0.07034866 0.27789369
v 0.00476250 -0.07053000 0.27781859
v 0.00476250 -0.07071720 0.27775955
v 0.00476250 -0.07017455 0.28188145
v 0.00476250 -0.07000900 0.28177598
v 0.00476250 -0.06985328 0.28165650
v 0.00476250 -0.07302315 0.27848664
v 0.00476250 -0.07314264 0.27864236
v 0.00476250 -0.07324810 0.27880791
v 0.00476250 -0.07274581 0.28165650
v 0.00476250 -0.07259009 0.28177598
v 0.00476250 -0.07242455 0.28188145
v 0.00476250 -0.07314264 0.28122345
v 0.00476250 -0.07302315 0.28137916
v 0.00476250 -0.07289053 0.28152388
v 0.00476250 -0.06970856 0.28152388
v 0.00476250 -0.06957594 0.28137916
v 0.00476250 -0.06945645 0.28122345
v 0.00476250 -0.07333874 0.27898201
v 0.00476250 -0.07341386 0.27916336
v 0.00476250 -0.07347288 0.27935055
v 0.00476250 -0.07351536 0.27954218
v 0.00476250 -0.07354099 0.27973679
v 0.00476250 -0.07354955 0.27993289
v 0.00476250 -0.06985328 0.27820930
v 0.00476250 -0.07000900 0.27808979
v 0.00476250 -0.07017455 0.27798435
v 0.00476250 -0.07354099 0.28012899
v 0.00476250 -0.07351536 0.28032359
v 0.00476250 -0.07347288 0.28051525
v 0.00476250 -0.07341386 0.28070244
v 0.00476250 -0.07333874 0.28088379
v 0.00476250 -0.07324810 0.28105789
v 0.00476250 -0.06945645 0.27864236
v 0.00476250 -0.06957594 0.27848664
v 0.00476250 -0.06970856 0.27834192
v 0.00476250 -0.06935099 0.28105789
v 0.00476250 -0.06926035 0.28088379
v 0.00476250 -0.06918523 0.28070244
v 0.00476250 -0.06912621 0.28051525
v 0.00476250 -0.06908373 0.28032359
v 0.00476250 -0.06905811 0.28012899
v 0.00476250 -0.06904954 0.27993289
v 0.00476250 -0.06905811 0.27973679
v 0.00476250 -0.06379955 0.27493289
v 0.00476250 -0.06908373 0.27954218
v 0.00476250 -0.06912621 0.27935055
v 0.00476250 -0.06918523 0.27916336
v 0.00476250 -0.06926035 0.27898201
v 0.00476250 -0.06935099 0.27880791
v 0.00476250 -0.08669025 0.28214872
v 0.00476250 -0.08649565 0.28217435
v 0.00476250 -0.08629955 0.28218290
v 0.00476250 -0.08649565 0.27769145
v 0.00476250 -0.08669025 0.27771708
v 0.00476250 -0.08915530 0.27630791
v 0.00476250 -0.08688189 0.27775955
v 0.00476250 -0.08706909 0.27781859
v 0.00476250 -0.08725043 0.28197208
v 0.00476250 -0.08706909 0.28204721
v 0.00476250 -0.08688189 0.28210622
v 0.00476250 -0.08590884 0.28214872
v 0.00476250 -0.08571720 0.28210622
v 0.00476250 -0.08012830 0.28355789
v 0.00476250 -0.08553000 0.27781859
v 0.00476250 -0.08571720 0.27775955
v 0.00476250 -0.08012830 0.27630791
v 0.00476250 -0.08725043 0.27789369
v 0.00476250 -0.08742455 0.27798435
v 0.00476250 -0.08759009 0.27808979
v 0.00476250 -0.08610345 0.28217435
v 0.00476250 -0.07660605 0.28493291
v 0.00476250 -0.08553000 0.28204721
v 0.00476250 -0.08534865 0.28197208
v 0.00476250 -0.08517455 0.28188145
v 0.00476250 -0.08534865 0.27789369
v 0.00476250 -0.08590884 0.27771708
v 0.00476250 -0.08610345 0.27769145
v 0.00476250 -0.08629955 0.27768290
v 0.00476250 -0.08774582 0.27820930
v 0.00476250 -0.08789054 0.27834192
v 0.00476250 -0.08802315 0.27848664
v 0.00476250 -0.08774582 0.28165650
v 0.00476250 -0.08759009 0.28177598
v 0.00476250 -0.08742455 0.28188145
v 0.00476250 -0.08500900 0.28177598
v 0.00476250 -0.08485328 0.28165650
v 0.00476250 -0.08470856 0.28152388
v 0.00476250 -0.08814264 0.28122345
v 0.00476250 -0.08802315 0.28137916
v 0.00476250 -0.08789054 0.28152388
v 0.00476250 -0.08814264 0.27864236
v 0.00476250 -0.08824810 0.27880791
v 0.00476250 -0.08833874 0.27898201
v 0.00476250 -0.08841386 0.27916336
v 0.00476250 -0.08847288 0.27935055
v 0.00476250 -0.08851536 0.27954218
v 0.00476250 -0.08457594 0.28137916
v 0.00476250 -0.08445645 0.28122345
v 0.00476250 -0.08435099 0.28105789
v 0.00476250 -0.08485328 0.27820930
v 0.00476250 -0.08500900 0.27808979
v 0.00476250 -0.08517455 0.27798435
v 0.00476250 -0.08854099 0.27973679
v 0.00476250 -0.08854955 0.27993289
v 0.00476250 -0.08854099 0.28012899
v 0.00476250 -0.08851536 0.28032359
v 0.00476250 -0.08847288 0.28051525
v 0.00476250 -0.08841386 0.28070244
v 0.00476250 -0.08833874 0.28088379
v 0.00476250 -0.08824810 0.28105789
v 0.00476250 -0.08445645 0.27864236
v 0.00476250 -0.08457594 0.27848664
v 0.00476250 -0.08470856 0.27834192
v 0.00476250 -0.08426035 0.28088379
v 0.00476250 -0.08418524 0.28070244
v 0.00476250 -0.08412621 0.28051525
v 0.00476250 -0.08408373 0.28032359
v 0.00476250 -0.08405811 0.28012899
v 0.00476250 -0.08404955 0.27993289
v 0.00476250 -0.08405811 0.27973679
v 0.00476250 -0.08408373 0.27954218
v 0.00476250 -0.08412621 0.27935055
v 0.00476250 -0.08418524 0.27916336
v 0.00476250 -0.08426035 0.27898201
v 0.00476250 -0.08435099 0.27880791
v 0.00476250 -0.09379955 0.27630791
v 0.00476250 -0.06844954 0.27493289
v 0.00476250 -0.07660605 0.27493289
v 0.00476250 -0.08012830 0.27493289
v 0.00476250 -0.08915530 0.27493289
v 0.00476250 -0.09379955 0.27493289
f 1 2 3
f 2 4 3
f 3 4 5
f 4 6 5
f 5 6 7
f 6 8 7
f 7 8 9
f 8 10 9
f 9 10 11
f 10 12 11
f 11 12 13
f 12 14 13
f 13 14 15
f 14 16 15
f 15 16 17
f 16 18 17
f 17 18 19
f 18 20 19
f 19 20 21
f 20 22 21
f 21 22 23
f 22 24 23
f 23 24 25
f 24 26 25
f 25 26 27
f 26 28 27
f 27 28 29
f 28 30 29
f 29 30 31
f 30 32 31
f 31 32 33
f 32 34 33
f 33 34 35
f 34 36 35
f 35 36 37
f 36 38 37
f 37 38 39
f 38 40 39
f 39 40 41
f 40 42 41
f 41 42 43
f 42 44 43
f 43 44 45
f 44 46 45
f 45 46 47
f 46 48 47
f 47 48 49
f 48 50 49
f 49 50 51
f 50 52 51
f 51 52 53
f 52 54 53
f 53 54 55
f 54 56 55
f 55 56 57
f 56 58 57
f 57 58 59
f 58 60 59
f 59 60 61
f 60 62 61
f 61 62 63
f 62 64 63
f 63 64 65
f 64 66 65
f 67 68 69
f 68 70 69
f 69 70 71
f 70 72 71
f 71 72 73
f 72 74 73
f 73 74 75
f 74 76 75
f 75 76 77
f 76 78 77
f 77 78 79
f 78 80 79
f 79 80 81
f 80 82 81
f 81 82 83
f 82 84 83
f 83 84 85
f 84 86 85
f 85 86 87
f 86 88 87
f 87 88 89
f 88 90 89
f 89 90 91
f 90 92 91
f 91 92 93
f 92 94 93
f 93 94 95
f 94 96 95
f 95 96 97
f 96 98 97
f 97 98 99
f 98 100 99
f 99 100 101
f 100 102 101
f 101 102 103
f 102 104 103
f 103 104 105
f 104 106 105
f 105 106 107
f 106 108 107
f 107 108 109
f 108 110 109
f 109 110 111
f 110 112 111
f 111 112 113
f 112 114 113
f 113 114 115
f 114 116 115
f 115 116 117
f 116 118 117
f 117 118 119
f 118 120 119
f 119 120 121
f 120 122 121
f 121 122 123
f 122 124 123
f 125 126 127
f 126 128 127
f 127 128 129
f 128 130 129
f 129 130 131
f 130 132 131
f 131 132 133
f 132 134 133
f 133 134 135
f 134 136 135
f 135 136 137
f 136 138 137
f 137 138 139
f 138 140 139
f 139 140 141
f 140 142 141
f 141 142 143
f 142 144 143
f 143 144 145
f 144 146 145
f 145 146 147
f 146 148 147
f 147 148 149
f 148 150 149
f 149 150 151
f 150 152 151
f 151 152 153
f 152 154 153
f 153 154 155
f 154 156 155
f 155 156 157
f 156 158 157
f 157 158 159
f 158 160 159
f 159 160 161
f 160 162 161
f 161 162 163
f 162 164 163
f 163 164 165
f 164 166 165
f 165 166 167
f 166 168 167
f 167 168 169
f 168 170 169
f 169 170 171
f 170 172 171
f 171 172 173
f 172 174 173
f 173 174 175
f 174 176 175
f 175 176 177
f 176 178 177
f 177 178 179
f 178 180 179
f 179 180 181
f 180 182 181
f 181 182 183
f 182 184 183
f 183 184 185
f 184 186 185
f 187 188 189
f 188 190 189
f 189 190 191
f 190 192 191
f 191 192 193
f 192 194 193
f 193 194 195
f 194 196 195
f 195 196 197
f 196 198 197
f 197 198 199
f 198 200 199
f 199 200 201
f 200 202 201
f 201 202 203
f 202 204 203
f 203 204 205
f 204 206 205
f 205 206 207
f 206 208 207
f 207 208 209
f 208 210 209
f 209 210 211
f 210 212 211
f 211 212 213
f 212 214 213
f 213 214 215
f 214 216 215
f 215 216 217
f 216 218 217
f 217 218 219
f 218 220 219
f 219 220 221
f 220 222 221
f 221 222 223
f 222 224 223
f 223 224 225
f 224 226 225
f 225 226 227
f 226 228 227
f 227 228 229
f 228 230 229
f 229 230 231
f 230 232 231
f 231 232 233
f 232 234 233
f 233 234 235
f 234 236 235
f 235 236 237
f 236 238 237
f 237 238 239
f 238 240 239
f 239 240 241
f 240 242 241
f 241 242 243
f 242 244 243
f 245 246 247
f 246 248 247
f 247 248 249
f 248 250 249
f 249 250 251
f 250 252 251
f 251 252 253
f 252 254 253
f 253 254 255
f 254 256 255
f 255 256 257
f 256 258 257
f 257 258 259
f 258 260 259
f 259 260 261
f 260 262 261
f 261 262 263
f 262 264 263
f 263 264 265
f 264 266 265
f 265 266 267
f 266 268 267
f 267 268 269
f 268 270 269
f 269 270 271
f 270 272 271
f 271 272 273
f 272 274 273
f 273 274 275
f 274 276 275
f 275 276 277
f 276 278 277
f 277 278 279
f 278 280 279
f 279 280 281
f 280 282 281
f 281 282 283
f 282 284 283
f 283 284 285
f 284 286 285
f 285 286 287
f 286 288 287
f 289 290 291
f 290 292 291
f 291 292 293
f 292 294 293
f 293 294 295
f 294 296 295
f 295 296 297
f 296 298 297
f 297 298 299
f 298 300 299
f 299 300 301
f 300 302 301
f 301 302 303
f 302 304 303
f 303 304 305
f 304 306 305
f 305 306 307
f 306 308 307
f 307 308 309
f 308 310 309
f 309 310 311
f 310 312 311
f 311 312 313
f 312 314 313
f 313 314 315
f 314 316 315
f 315 316 317
f 316 318 317
f 317 318 319
f 318 320 319
f 319 320 321
f 320 322 321
f 321 322 323
f 322 324 323
f 323 324 325
f 324 326 325
f 325 326 327
f 326 328 327
f 327 328 329
f 328 330 329
f 329 330 331
f 330 332 331
f 331 332 333
f 332 334 333
f 335 336 337
f 336 338 337
f 337 338 339
f 338 340 339
f 339 340 341
f 340 342 341
f 341 342 343
f 342 344 343
f 343 344 345
f 344 346 345
f 345 346 347
f 346 348 347
f 347 348 349
f 348 350 349
f 349 350 351
f 350 352 351
f 351 352 353
f 352 354 353
f 353 354 355
f 354 356 355
f 355 356 357
f 356 358 357
f 357 358 359
f 358 360 359
f 359 360 361
f 360 362 361
f 361 362 363
f 362 364 363
f 363 364 365
f 364 366 365
f 365 366 367
f 366 368 367
f 367 368 369
f 368 370 369
f 369 370 371
f 370 372 371
f 371 372 373
f 372 374 373
f 375 376 377
f 376 378 377
f 377 378 379
f 378 380 379
f 379 380 381
f 380 382 381
f 381 382 383
f 382 384 383
f 383 384 385
f 384 386 385
f 385 386 387
f 386 388 387
f 387 388 389
f 388 390 389
f 389 390 391
f 390 392 391
f 391 392 393
f 392 394 393
f 393 394 395
f 394 396 395
f 395 396 397
f 396 398 397
f 397 398 399
f 398 400 399
f 399 400 401
f 400 402 401
f 401 402 403
f 402 404 403
f 403 404 405
f 404 406 405
f 405 406 407
f 406 408 407
f 407 408 409
f 408 410 409
f 411 412 413
f 412 414 413
f 413 414 415
f 414 416 415
f 415 416 417
f 416 418 417
f 417 418 419
f 418 420 419
f 419 420 421
f 420 422 421
f 421 422 423
f 422 424 423
f 423 424 425
f 424 426 425
f 425 426 427
f 426 428 427
f 427 428 429
f 428 430 429
f 429 430 431
f 430 432 431
f 431 432 433
f 432 434 433
f 433 434 435
f 434 436 435
f 435 436 437
f 436 438 437
f 437 438 439
f 438 440 439
f 439 440 441
f 440 442 441
f 441 442 443
f 442 444 443
f 443 444 445
f 444 446 445
f 445 446 447
f 446 448 447
f 447 448 449
f 448 450 449
f 449 450 451
f 450 452 451
f 451 452 453
f 452 454 453
f 453 454 455
f 454 456 455
f 455 456 457
f 456 458 457
f 457 458 459
f 458 460 459
f 332 330 461
f 462 463 464
f 465 466 467
f 468 469 470
f 471 472 473
f 468 470 474
f 475 476 477
f 478 479 470
f 479 480 470
f 470 480 474
f 481 482 477
f 482 483 477
f 476 484 477
f 484 485 477
f 477 485 486
f 487 488 473
f 488 489 473
f 473 489 490
f 491 492 493
f 483 494 477
f 494 495 477
f 477 495 475
f 472 496 473
f 496 497 473
f 473 497 470
f 497 498 470
f 470 498 478
f 499 500 473
f 500 501 473
f 473 501 471
f 490 502 473
f 502 503 473
f 473 503 504
f 504 505 473
f 505 506 473
f 473 506 507
f 507 508 473
f 508 509 473
f 473 509 499
f 493 510 491
f 510 511 491
f 491 511 512
f 511 513 512
f 512 513 514
f 513 515 514
f 514 515 516
f 515 517 516
f 516 517 518
f 517 519 518
f 518 519 520
f 519 521 520
f 520 521 522
f 521 523 522
f 522 523 524
f 523 525 524
f 524 525 526
f 525 527 526
f 526 527 528
f 527 529 528
f 528 529 477
f 529 530 477
f 477 530 481
f 492 491 531
f 491 532 531
f 531 532 533
f 469 534 535
f 534 536 535
f 535 536 537
f 533 538 531
f 538 539 531
f 531 539 540
f 539 541 540
f 540 541 542
f 541 543 542
f 542 543 544
f 543 545 544
f 544 545 546
f 545 547 546
f 546 547 548
f 547 549 548
f 548 549 550
f 549 551 550
f 550 551 552
f 551 553 552
f 552 553 554
f 553 555 554
f 554 555 556
f 555 557 556
f 556 557 558
f 557 559 558
f 558 559 560
f 559 561 560
f 560 561 562
f 561 563 562
f 562 563 564
f 563 565 564
f 564 565 566
f 565 567 566
f 566 567 568
f 567 569 568
f 568 569 570
f 569 571 570
f 570 571 572
f 571 535 572
f 572 535 573
f 535 537 573
f 154 152 574
f 152 575 574
f 574 575 576
f 575 577 576
f 132 130 578
f 152 150 575
f 150 148 575
f 575 148 146
f 140 138 575
f 138 136 575
f 575 136 578
f 136 134 578
f 578 134 132
f 146 144 575
f 144 142 575
f 575 142 140
f 469 535 470
f 535 579 470
f 470 579 580
f 579 581 580
f 580 581 582
f 466 465 473
f 465 583 473
f 473 583 584
f 486 487 477
f 487 473 477
f 477 473 585
f 473 584 585
f 12 10 586
f 10 8 586
f 586 8 6
f 42 40 463
f 587 16 586
f 16 14 586
f 586 14 12
f 62 60 462
f 60 58 462
f 462 58 56
f 56 54 462
f 54 52 462
f 462 52 50
f 50 48 462
f 48 46 462
f 462 46 463
f 46 44 463
f 463 44 42
f 34 32 463
f 32 30 463
f 463 30 28
f 28 26 463
f 26 24 463
f 463 24 22
f 40 38 463
f 38 36 463
f 463 36 34
f 22 20 587
f 20 18 587
f 587 18 16
f 230 228 463
f 464 220 218
f 230 463 232
f 218 216 464
f 216 214 464
f 464 214 212
f 212 210 464
f 210 208 464
f 464 208 588
f 208 206 588
f 588 206 204
f 244 242 409
f 228 226 463
f 226 224 463
f 463 224 464
f 224 222 464
f 464 222 220
f 387 389 232
f 389 391 232
f 232 391 393
f 204 202 588
f 202 200 588
f 588 200 198
f 198 196 588
f 196 194 588
f 588 194 192
f 192 190 588
f 190 188 588
f 588 188 589
f 242 240 409
f 240 238 409
f 409 238 407
f 238 236 407
f 407 236 405
f 405 236 403
f 236 234 403
f 403 234 401
f 393 395 232
f 395 397 232
f 232 397 234
f 397 399 234
f 234 399 401
f 589 590 588
f 590 591 588
f 588 591 592
f 591 593 592
f 370 368 594
f 593 591 595
f 591 374 595
f 595 374 594
f 374 372 594
f 594 372 370
f 360 358 596
f 368 366 594
f 366 364 594
f 594 364 596
f 364 362 596
f 596 362 360
f 466 264 262
f 466 250 248
f 288 286 473
f 473 274 272
f 272 270 473
f 270 268 473
f 473 268 466
f 268 266 466
f 466 266 264
f 262 260 466
f 260 258 466
f 466 258 256
f 256 254 466
f 254 252 466
f 466 252 250
f 248 246 466
f 246 597 466
f 466 597 467
f 597 66 467
f 467 66 462
f 66 64 462
f 462 64 62
f 286 284 473
f 284 282 473
f 473 282 280
f 280 278 473
f 278 276 473
f 473 276 274
f 473 292 290
f 290 598 473
f 598 599 473
f 473 599 288
f 130 128 578
f 128 126 578
f 578 126 582
f 126 600 582
f 582 600 580
f 600 601 580
f 580 601 124
f 300 298 473
f 106 104 470
f 94 470 96
f 470 98 96
f 300 473 302
f 74 308 306
f 94 92 470
f 92 90 470
f 470 90 88
f 88 86 470
f 86 84 470
f 470 84 473
f 84 82 473
f 473 82 80
f 298 296 473
f 296 294 473
f 473 294 292
f 70 324 72
f 324 322 72
f 124 122 580
f 122 120 580
f 580 120 470
f 120 118 470
f 118 116 470
f 116 114 470
f 470 114 112
f 112 110 470
f 110 108 470
f 470 108 106
f 104 102 470
f 102 100 470
f 470 100 98
f 80 78 473
f 78 76 473
f 473 76 302
f 76 74 302
f 302 74 304
f 74 306 304
f 322 320 72
f 320 318 72
f 72 318 74
f 318 316 74
f 74 316 314
f 314 312 74
f 312 310 74
f 74 310 308
f 461 330 68
f 330 328 68
f 68 328 70
f 328 326 70
f 70 326 324
f 6 4 586
f 4 2 586
f 586 2 461
f 2 334 461
f 461 334 332
f 421 576 419
f 576 417 419
f 602 413 576
f 413 415 576
f 576 415 417
f 421 423 576
f 423 425 576
f 576 425 427
f 447 449 574
f 427 429 576
f 429 431 576
f 576 431 433
f 439 441 576
f 441 443 576
f 576 443 574
f 443 445 574
f 574 445 447
f 433 435 576
f 435 437 576
f 576 437 439
f 449 451 574
f 451 453 574
f 574 453 455
f 455 457 574
f 457 459 574
f 574 459 603
f 604 605 602
f 605 411 602
f 602 411 413
f 340 338 606
f 338 336 606
f 606 336 607
f 358 356 606
f 356 354 606
f 606 354 352
f 352 350 606
f 350 348 606
f 606 348 346
f 346 344 606
f 344 342 606
f 606 342 340
f 244 409 608
f 409 186 608
f 608 186 609
f 603 172 170
f 574 162 160
f 182 180 603
f 180 178 603
f 160 158 574
f 158 156 574
f 574 156 154
f 609 186 603
f 186 184 603
f 603 184 182
f 178 176 603
f 176 174 603
f 603 174 172
f 170 168 603
f 168 166 603
f 603 166 574
f 166 164 574
f 574 164 162
f 377 379 463
f 379 381 463
f 381 383 463
f 463 383 232
f 383 385 232
f 232 385 387
f 22 587 463
f 587 375 463
f 463 375 377
f 610 611 612
f 611 613 612
f 612 613 614
f 615 616 617
f 616 618 617
f 617 618 619
f 620 621 614
f 612 622 623
f 624 625 576
f 625 626 576
f 626 627 576
f 576 627 628
f 628 629 576
f 629 630 576
f 576 630 602
f 630 631 602
f 602 631 632
f 620 614 633
f 621 634 614
f 634 635 614
f 614 635 612
f 635 636 612
f 612 636 622
f 623 637 612
f 637 638 612
f 612 638 639
f 640 641 576
f 641 642 576
f 576 642 624
f 632 643 602
f 643 644 602
f 602 644 645
f 646 647 614
f 647 648 614
f 614 648 633
f 639 649 612
f 649 650 612
f 612 650 651
f 645 652 602
f 652 653 602
f 602 653 654
f 651 655 612
f 655 656 612
f 612 656 657
f 658 659 576
f 659 660 576
f 576 660 640
f 654 661 602
f 661 662 602
f 602 662 663
f 664 665 614
f 665 666 614
f 614 666 646
f 657 667 612
f 667 668 612
f 612 668 669
f 669 670 612
f 670 671 612
f 612 671 672
f 576 673 674
f 663 675 602
f 675 676 602
f 602 676 677
f 677 678 602
f 678 679 602
f 602 679 680
f 577 610 576
f 610 612 576
f 576 612 673
f 612 672 673
f 674 681 576
f 681 682 576
f 576 682 683
f 683 684 576
f 684 685 576
f 576 685 658
f 686 687 614
f 687 688 614
f 614 688 689
f 689 690 614
f 690 691 614
f 614 691 664
f 336 604 607
f 604 602 607
f 607 602 614
f 602 680 614
f 614 680 686
f 692 693 607
f 692 607 694
f 695 696 616
f 696 697 616
f 697 698 616
f 616 698 699
f 699 700 616
f 700 701 616
f 616 701 618
f 701 702 618
f 618 702 703
f 693 704 607
f 704 705 607
f 607 705 606
f 705 706 606
f 606 706 707
f 707 708 606
f 708 709 606
f 606 709 710
f 703 711 618
f 711 712 618
f 618 712 713
f 714 715 607
f 715 716 607
f 607 716 694
f 717 718 616
f 718 719 616
f 616 719 695
f 713 720 618
f 720 721 618
f 618 721 722
f 710 723 606
f 723 724 606
f 606 724 725
f 722 726 618
f 726 727 618
f 618 727 728
f 729 730 607
f 730 731 607
f 607 731 714
f 725 732 606
f 732 733 606
f 606 733 734
f 735 736 616
f 736 737 616
f 616 737 717
f 728 738 618
f 738 739 618
f 618 739 740
f 740 741 618
f 741 742 618
f 618 742 743
f 734 744 606
f 744 745 606
f 606 745 746
f 746 747 606
f 747 748 606
f 606 748 749
f 613 619 614
f 619 618 614
f 614 618 607
f 618 743 607
f 607 743 750
f 750 751 607
f 751 752 607
f 607 752 753
f 753 754 607
f 754 755 607
f 607 755 729
f 749 756 606
f 756 757 606
f 606 757 616
f 757 758 616
f 758 759 616
f 759 760 616
f 616 760 761
f 761 762 616
f 762 763 616
f 616 763 735
f 358 606 596
f 606 616 596
f 596 616 764
f 616 615 764
f 764 615 765
f 766 767 768
f 767 769 768
f 768 769 770
f 771 772 773
f 770 774 768
f 774 775 768
f 768 775 776
f 777 778 771
f 778 779 771
f 771 779 780
f 780 781 782
f 781 783 782
f 782 783 784
f 776 785 768
f 785 786 768
f 768 786 771
f 786 787 771
f 771 787 772
f 773 788 771
f 788 789 771
f 771 789 790
f 784 791 782
f 791 792 782
f 782 792 793
f 794 795 796
f 790 797 771
f 797 798 771
f 771 798 799
f 799 800 771
f 800 801 771
f 771 801 802
f 802 803 771
f 803 804 771
f 771 804 777
f 793 805 782
f 805 806 782
f 782 806 807
f 807 808 782
f 808 809 782
f 782 809 810
f 809 811 810
f 810 811 812
f 811 813 812
f 812 813 814
f 813 815 814
f 814 815 816
f 815 817 816
f 816 817 818
f 817 819 818
f 818 819 820
f 819 821 820
f 820 821 822
f 821 823 822
f 822 823 824
f 823 825 824
f 824 825 826
f 825 827 826
f 826 827 794
f 827 828 794
f 794 828 795
f 829 830 831
f 796 832 794
f 832 833 794
f 794 833 834
f 835 836 833
f 836 837 833
f 833 837 834
f 829 831 838
f 835 833 839
f 833 840 839
f 839 840 841
f 840 842 841
f 841 842 843
f 842 844 843
f 843 844 845
f 844 846 845
f 845 846 847
f 846 848 847
f 847 848 849
f 848 850 849
f 849 850 851
f 850 852 851
f 851 852 853
f 852 854 853
f 853 854 855
f 854 856 855
f 855 856 857
f 856 858 857
f 857 858 859
f 858 860 859
f 859 860 861
f 860 862 861
f 861 862 863
f 862 864 863
f 863 864 865
f 864 866 865
f 865 866 867
f 866 868 867
f 867 868 869
f 868 870 869
f 869 870 831
f 870 871 831
f 831 871 838
f 365 367 872
f 367 369 872
f 369 371 872
f 872 371 873
f 355 357 874
f 357 359 874
f 359 361 874
f 874 361 872
f 361 363 872
f 872 363 365
f 371 373 873
f 373 875 873
f 873 875 876
f 875 877 876
f 211 213 878
f 203 205 879
f 211 878 209
f 880 187 879
f 187 189 879
f 879 189 191
f 879 205 878
f 205 207 878
f 878 207 209
f 213 215 878
f 215 217 878
f 878 217 219
f 221 223 881
f 223 225 881
f 877 875 879
f 875 882 879
f 879 882 880
f 191 193 879
f 193 195 879
f 879 195 197
f 197 199 879
f 199 201 879
f 879 201 203
f 396 394 231
f 237 239 410
f 239 241 410
f 410 241 243
f 394 392 231
f 392 390 231
f 231 390 388
f 235 406 233
f 406 404 233
f 237 410 235
f 410 408 235
f 235 408 406
f 225 227 881
f 227 229 881
f 881 229 384
f 229 231 384
f 384 231 386
f 231 388 386
f 404 402 233
f 402 400 233
f 233 400 231
f 400 398 231
f 231 398 396
f 41 43 881
f 61 63 883
f 63 65 883
f 883 65 884
f 3 5 885
f 5 7 885
f 885 7 9
f 9 11 885
f 11 13 885
f 885 13 886
f 13 15 886
f 886 15 17
f 45 47 883
f 29 881 27
f 881 25 27
f 883 53 55
f 19 21 881
f 21 23 881
f 881 23 25
f 29 31 881
f 31 33 881
f 881 33 35
f 219 221 878
f 221 881 878
f 878 881 883
f 881 43 883
f 883 43 45
f 47 49 883
f 49 51 883
f 883 51 53
f 55 57 883
f 57 59 883
f 883 59 61
f 35 37 881
f 37 39 881
f 881 39 41
f 887 888 771
f 888 889 771
f 771 889 890
f 889 884 890
f 890 884 891
f 884 65 891
f 780 782 771
f 782 892 771
f 771 892 887
f 830 766 831
f 766 768 831
f 831 768 893
f 768 894 893
f 893 894 895
f 894 896 895
f 127 129 897
f 137 139 898
f 129 131 897
f 131 133 897
f 897 133 898
f 133 135 898
f 898 135 137
f 139 141 898
f 141 143 898
f 898 143 145
f 899 900 901
f 900 898 901
f 901 898 902
f 329 331 903
f 331 333 903
f 903 333 885
f 333 1 885
f 885 1 3
f 105 107 768
f 121 123 894
f 123 904 894
f 894 904 896
f 904 905 896
f 896 905 897
f 905 125 897
f 897 125 127
f 85 87 768
f 323 325 69
f 325 327 69
f 323 69 321
f 69 71 321
f 321 71 319
f 291 293 771
f 293 295 771
f 295 297 771
f 297 299 771
f 771 299 301
f 77 79 771
f 79 81 771
f 771 81 768
f 81 83 768
f 768 83 85
f 87 89 768
f 89 91 768
f 768 91 93
f 93 95 768
f 95 97 768
f 768 97 99
f 305 307 73
f 307 309 73
f 73 309 311
f 311 313 73
f 313 315 73
f 73 315 71
f 315 317 71
f 71 317 319
f 77 771 75
f 771 301 75
f 75 301 73
f 301 303 73
f 73 303 305
f 99 101 768
f 101 103 768
f 768 103 105
f 329 903 327
f 903 67 327
f 327 67 69
f 107 109 768
f 109 111 768
f 768 111 113
f 113 115 768
f 115 117 768
f 768 117 894
f 117 119 894
f 894 119 121
f 261 263 890
f 891 245 890
f 245 247 890
f 890 247 249
f 263 265 890
f 265 267 890
f 890 267 771
f 267 269 771
f 771 269 271
f 249 251 890
f 251 253 890
f 890 253 255
f 255 257 890
f 257 259 890
f 890 259 261
f 271 273 771
f 273 275 771
f 771 275 277
f 277 279 771
f 279 281 771
f 771 281 283
f 283 285 771
f 285 287 771
f 771 287 906
f 906 907 771
f 907 289 771
f 771 289 291
f 908 335 909
f 335 337 909
f 909 337 339
f 909 351 353
f 339 341 909
f 341 343 909
f 909 343 345
f 345 347 909
f 347 349 909
f 909 349 351
f 424 422 901
f 422 420 901
f 901 420 418
f 416 414 910
f 414 412 910
f 432 430 901
f 430 428 901
f 428 426 901
f 901 426 424
f 450 448 902
f 448 446 902
f 902 446 901
f 446 444 901
f 444 442 901
f 442 440 901
f 901 440 438
f 438 436 901
f 436 434 901
f 901 434 432
f 456 454 902
f 454 452 902
f 902 452 450
f 911 460 902
f 460 458 902
f 902 458 456
f 145 147 898
f 147 149 898
f 898 149 902
f 149 151 902
f 902 151 153
f 167 169 911
f 169 171 911
f 911 171 173
f 179 181 911
f 181 183 911
f 911 183 912
f 153 155 902
f 155 157 902
f 902 157 159
f 159 161 902
f 161 163 902
f 902 163 911
f 163 165 911
f 911 165 167
f 173 175 911
f 175 177 911
f 911 177 179
f 243 913 410
f 913 912 410
f 410 912 185
f 912 183 185
f 384 382 881
f 382 380 881
f 881 380 378
f 17 19 886
f 19 881 886
f 886 881 376
f 881 378 376
f 914 915 916
f 915 917 916
f 917 918 916
f 916 918 919
f 918 920 919
f 919 920 921
f 922 923 910
f 923 901 910
f 910 901 416
f 901 418 416
f 921 924 919
f 924 925 919
f 919 925 926
f 927 928 910
f 928 929 910
f 910 929 922
f 923 930 901
f 930 931 901
f 901 931 932
f 926 933 919
f 933 934 919
f 919 934 935
f 932 936 901
f 936 937 901
f 901 937 938
f 939 940 916
f 940 941 916
f 916 941 914
f 938 942 901
f 942 943 901
f 901 943 944
f 935 945 919
f 945 946 919
f 919 946 947
f 948 949 910
f 949 950 910
f 910 950 927
f 951 952 910
f 952 953 910
f 910 953 948
f 944 954 901
f 954 955 901
f 901 955 956
f 947 957 919
f 957 958 919
f 919 958 959
f 959 960 919
f 960 961 919
f 919 961 962
f 963 964 916
f 964 965 916
f 916 965 939
f 962 966 910
f 966 967 910
f 967 968 910
f 910 968 969
f 969 970 910
f 970 971 910
f 910 971 951
f 972 973 916
f 973 974 916
f 916 974 963
f 956 975 901
f 975 976 901
f 901 976 977
f 977 978 901
f 978 979 901
f 901 979 980
f 916 981 982
f 983 899 916
f 899 901 916
f 916 901 981
f 901 980 981
f 982 984 916
f 984 985 916
f 916 985 986
f 986 987 916
f 987 988 916
f 916 988 972
f 989 990 909
f 990 991 909
f 992 993 994
f 993 995 994
f 994 995 996
f 997 998 909
f 998 999 909
f 909 999 989
f 1000 1001 1002
f 1003 1004 1005
f 996 1006 994
f 1006 1007 994
f 994 1007 1008
f 1000 1002 1009
f 991 1009 909
f 1009 1002 909
f 909 1002 908
f 1002 910 908
f 908 910 1010
f 910 412 1010
f 1001 1011 1002
f 1011 1012 1002
f 1002 1012 1013
f 1003 1005 1014
f 1004 1015 1005
f 1015 1016 1005
f 1005 1016 994
f 1016 1017 994
f 994 1017 992
f 1008 1018 994
f 1018 1019 994
f 994 1019 1020
f 1021 1022 909
f 1022 1023 909
f 909 1023 997
f 1013 1024 1002
f 1024 1025 1002
f 1002 1025 1026
f 1027 1028 909
f 1028 1029 909
f 909 1029 1021
f 1020 1030 994
f 1030 1031 994
f 994 1031 1032
f 1032 1033 994
f 1033 1034 994
f 994 1034 1035
f 1026 1036 1002
f 1036 1037 1002
f 1002 1037 1038
f 1039 1040 1005
f 1040 1041 1005
f 1005 1041 1014
f 1035 1042 994
f 1042 1043 994
f 994 1043 909
f 1043 1044 909
f 1044 1045 909
f 1045 1046 909
f 909 1046 1047
f 1047 1048 909
f 1048 1049 909
f 909 1049 1027
f 1050 1051 1005
f 1051 1052 1005
f 1005 1052 1039
f 1038 1053 1002
f 1053 1054 1002
f 1002 1054 1055
f 1055 1056 1002
f 1056 1057 1002
f 1002 1057 1058
f 962 910 919
f 910 1002 919
f 919 1002 1005
f 1002 1058 1005
f 1005 1058 1059
f 1059 1060 1005
f 1060 1061 1005
f 1005 1061 1062
f 1062 1063 1005
f 1063 1064 1005
f 1005 1064 1050
f 353 355 909
f 355 874 909
f 909 874 994
f 874 1065 994
f 983 916 1066
f 916 919 1066
f 1066 919 1067
f 919 1005 1067
f 1067 1005 1068
f 1005 994 1068
f 1068 994 1069
f 994 1065 1069
f 1069 1065 1070
f 991 706 1009
f 706 705 1009
f 1009 705 1000
f 705 704 1000
f 1000 704 1001
f 704 693 1001
f 1001 693 1011
f 693 692 1011
f 1011 692 1012
f 692 694 1012
f 1012 694 1013
f 694 716 1013
f 1013 716 1024
f 716 715 1024
f 1024 715 1025
f 715 714 1025
f 1025 714 1026
f 714 731 1026
f 1026 731 1036
f 731 730 1036
f 1036 730 1037
f 730 729 1037
f 1037 729 1038
f 729 755 1038
f 1038 755 1053
f 755 754 1053
f 1053 754 1054
f 754 753 1054
f 1054 753 1055
f 753 752 1055
f 1055 752 1056
f 752 751 1056
f 1056 751 1057
f 751 750 1057
f 1057 750 1058
f 750 743 1058
f 1058 743 1059
f 743 742 1059
f 1059 742 1060
f 742 741 1060
f 1060 741 1061
f 741 740 1061
f 1061 740 1062
f 740 739 1062
f 1062 739 1063
f 739 738 1063
f 1063 738 1064
f 738 728 1064
f 1064 728 1050
f 728 727 1050
f 1050 727 1051
f 727 726 1051
f 1051 726 1052
f 726 722 1052
f 1052 722 1039
f 722 721 1039
f 1039 721 1040
f 721 720 1040
f 1040 720 1041
f 720 713 1041
f 1041 713 1014
f 713 712 1014
f 1014 712 1003
f 712 711 1003
f 1003 711 1004
f 711 703 1004
f 1004 703 1015
f 703 702 1015
f 1015 702 1016
f 702 701 1016
f 1016 701 1017
f 701 700 1017
f 1017 700 992
f 700 699 992
f 992 699 993
f 699 698 993
f 993 698 995
f 698 697 995
f 995 697 996
f 697 696 996
f 996 696 1006
f 696 695 1006
f 1006 695 1007
f 695 719 1007
f 1007 719 1008
f 719 718 1008
f 1008 718 1018
f 718 717 1018
f 1018 717 1019
f 717 737 1019
f 1019 737 1020
f 737 736 1020
f 1020 736 1030
f 736 735 1030
f 1030 735 1031
f 735 763 1031
f 1031 763 1032
f 763 762 1032
f 1032 762 1033
f 762 761 1033
f 1033 761 1034
f 761 760 1034
f 1034 760 1035
f 760 759 1035
f 1035 759 1042
f 759 758 1042
f 1042 758 1043
f 758 757 1043
f 1043 757 1044
f 757 756 1044
f 1044 756 1045
f 756 749 1045
f 1045 749 1046
f 749 748 1046
f 1046 748 1047
f 748 747 1047
f 1047 747 1048
f 747 746 1048
f 1048 746 1049
f 746 745 1049
f 1049 745 1027
f 745 744 1027
f 1027 744 1028
f 744 734 1028
f 1028 734 1029
f 734 733 1029
f 1029 733 1021
f 733 732 1021
f 1021 732 1022
f 732 725 1022
f 1022 725 1023
f 725 724 1023
f 1023 724 997
f 724 723 997
f 997 723 998
f 723 710 998
f 998 710 999
f 710 709 999
f 999 709 989
f 709 708 989
f 989 708 990
f 708 707 990
f 990 707 991
f 707 706 991
f 186 409 185
f 409 410 185
f 287 288 599
f 287 599 906
f 599 598 906
f 906 598 907
f 598 290 907
f 907 290 289
f 765 1070 764
f 1070 1065 764
f 764 1065 596
f 1065 874 596
f 596 874 594
f 874 872 594
f 831 535 571
f 831 571 869
f 571 569 869
f 869 569 867
f 569 567 867
f 867 567 865
f 567 565 865
f 865 565 863
f 565 563 863
f 863 563 861
f 563 561 861
f 861 561 859
f 561 559 859
f 859 559 857
f 559 557 857
f 857 557 855
f 557 555 855
f 855 555 853
f 555 553 853
f 853 553 851
f 553 551 851
f 851 551 849
f 551 549 849
f 849 549 847
f 549 547 847
f 847 547 845
f 547 545 845
f 845 545 843
f 545 543 843
f 843 543 841
f 543 541 841
f 841 541 839
f 541 539 839
f 839 539 835
f 539 538 835
f 835 538 836
f 538 533 836
f 836 533 837
f 533 532 837
f 837 532 834
f 532 491 834
f 834 491 794
f 491 512 794
f 794 512 826
f 512 514 826
f 826 514 824
f 514 516 824
f 824 516 822
f 516 518 822
f 822 518 820
f 518 520 820
f 820 520 818
f 520 522 818
f 818 522 816
f 522 524 816
f 816 524 814
f 524 526 814
f 814 526 812
f 526 528 812
f 812 528 810
f 528 477 810
f 810 477 782
f 477 585 782
f 782 585 892
f 585 584 892
f 892 584 887
f 584 583 887
f 887 583 888
f 888 583 465
f 888 465 889
f 465 467 889
f 889 467 884
f 467 462 884
f 884 462 883
f 462 464 883
f 883 464 878
f 464 588 878
f 878 588 879
f 588 592 879
f 879 592 877
f 592 593 877
f 877 593 876
f 593 595 876
f 876 595 873
f 595 594 873
f 873 594 872
f 575 898 577
f 898 900 577
f 577 900 610
f 900 899 610
f 610 899 611
f 899 983 611
f 898 575 897
f 575 578 897
f 897 578 896
f 578 582 896
f 896 582 895
f 582 581 895
f 895 581 893
f 581 579 893
f 893 579 831
f 579 535 831
f 1 333 2
f 333 334 2
f 373 374 875
f 374 591 875
f 875 591 882
f 591 590 882
f 882 590 880
f 590 589 880
f 880 589 187
f 589 188 187
f 243 244 913
f 244 608 913
f 913 608 912
f 608 609 912
f 912 609 911
f 609 603 911
f 911 603 460
f 603 459 460
f 376 375 886
f 375 587 886
f 886 587 885
f 587 586 885
f 885 586 903
f 586 461 903
f 903 461 67
f 461 68 67
f 123 124 601
f 123 601 904
f 601 600 904
f 904 600 905
f 600 126 905
f 905 126 125
f 930 629 931
f 629 628 931
f 931 628 932
f 628 627 932
f 932 627 936
f 627 626 936
f 936 626 937
f 626 625 937
f 937 625 938
f 625 624 938
f 938 624 942
f 624 642 942
f 942 642 943
f 642 641 943
f 943 641 944
f 641 640 944
f 944 640 954
f 640 660 954
f 954 660 955
f 660 659 955
f 955 659 956
f 659 658 956
f 956 658 975
f 658 685 975
f 975 685 976
f 685 684 976
f 976 684 977
f 684 683 977
f 977 683 978
f 683 682 978
f 978 682 979
f 682 681 979
f 979 681 980
f 681 674 980
f 980 674 981
f 674 673 981
f 981 673 982
f 673 672 982
f 982 672 984
f 672 671 984
f 984 671 985
f 671 670 985
f 985 670 986
f 670 669 986
f 986 669 987
f 669 668 987
f 987 668 988
f 668 667 988
f 988 667 972
f 667 657 972
f 972 657 973
f 657 656 973
f 973 656 974
f 656 655 974
f 974 655 963
f 655 651 963
f 963 651 964
f 651 650 964
f 964 650 965
f 650 649 965
f 965 649 939
f 649 639 939
f 939 639 940
f 639 638 940
f 940 638 941
f 638 637 941
f 941 637 914
f 637 623 914
f 914 623 915
f 623 622 915
f 915 622 917
f 622 636 917
f 917 636 918
f 636 635 918
f 918 635 920
f 635 634 920
f 920 634 921
f 634 621 921
f 921 621 924
f 621 620 924
f 924 620 925
f 620 633 925
f 925 633 926
f 633 648 926
f 926 648 933
f 648 647 933
f 933 647 934
f 647 646 934
f 934 646 935
f 646 666 935
f 935 666 945
f 666 665 945
f 945 665 946
f 665 664 946
f 946 664 947
f 664 691 947
f 947 691 957
f 691 690 957
f 957 690 958
f 690 689 958
f 958 689 959
f 689 688 959
f 959 688 960
f 688 687 960
f 960 687 961
f 687 686 961
f 961 686 962
f 686 680 962
f 962 680 966
f 680 679 966
f 966 679 967
f 679 678 967
f 967 678 968
f 678 677 968
f 968 677 969
f 677 676 969
f 969 676 970
f 676 675 970
f 970 675 971
f 675 663 971
f 971 663 951
f 663 662 951
f 951 662 952
f 662 661 952
f 952 661 953
f 661 654 953
f 953 654 948
f 654 653 948
f 948 653 949
f 653 652 949
f 949 652 950
f 652 645 950
f 950 645 927
f 645 644 927
f 927 644 928
f 644 643 928
f 928 643 929
f 643 632 929
f 929 632 922
f 632 631 922
f 922 631 923
f 631 630 923
f 923 630 930
f 630 629 930
f 823 517 825
f 517 515 825
f 825 515 827
f 515 513 827
f 827 513 828
f 513 511 828
f 828 511 795
f 511 510 795
f 795 510 796
f 510 493 796
f 796 493 832
f 493 492 832
f 832 492 833
f 492 531 833
f 833 531 840
f 531 540 840
f 840 540 842
f 540 542 842
f 842 542 844
f 542 544 844
f 844 544 846
f 544 546 846
f 846 546 848
f 546 548 848
f 848 548 850
f 548 550 850
f 850 550 852
f 550 552 852
f 852 552 854
f 552 554 854
f 854 554 856
f 554 556 856
f 856 556 858
f 556 558 858
f 858 558 860
f 558 560 860
f 860 560 862
f 560 562 862
f 862 562 864
f 562 564 864
f 864 564 866
f 564 566 866
f 866 566 868
f 566 568 868
f 868 568 870
f 568 570 870
f 870 570 871
f 570 572 871
f 871 572 838
f 572 573 838
f 838 573 829
f 573 537 829
f 829 537 830
f 537 536 830
f 830 536 766
f 536 534 766
f 766 534 767
f 534 469 767
f 767 469 769
f 469 468 769
f 769 468 770
f 468 474 770
f 770 474 774
f 474 480 774
f 774 480 775
f 480 479 775
f 775 479 776
f 479 478 776
f 776 478 785
f 478 498 785
f 785 498 786
f 498 497 786
f 786 497 787
f 497 496 787
f 787 496 772
f 496 472 772
f 772 472 773
f 472 471 773
f 773 471 788
f 471 501 788
f 788 501 789
f 501 500 789
f 789 500 790
f 500 499 790
f 790 499 797
f 499 509 797
f 797 509 798
f 509 508 798
f 798 508 799
f 508 507 799
f 799 507 800
f 507 506 800
f 800 506 801
f 506 505 801
f 801 505 802
f 505 504 802
f 802 504 803
f 504 503 803
f 803 503 804
f 503 502 804
f 804 502 777
f 502 490 777
f 777 490 778
f 490 489 778
f 778 489 779
f 489 488 779
f 779 488 780
f 488 487 780
f 780 487 781
f 487 486 781
f 781 486 783
f 486 485 783
f 783 485 784
f 485 484 784
f 784 484 791
f 484 476 791
f 791 476 792
f 476 475 792
f 792 475 793
f 475 495 793
f 793 495 805
f 495 494 805
f 805 494 806
f 494 483 806
f 806 483 807
f 483 482 807
f 807 482 808
f 482 481 808
f 808 481 809
f 481 530 809
f 809 530 811
f 530 529 811
f 811 529 813
f 529 527 813
f 813 527 815
f 527 525 815
f 815 525 817
f 525 523 817
f 817 523 819
f 523 521 819
f 819 521 821
f 521 519 821
f 821 519 823
f 519 517 823
f 611 983 613
f 983 1066 613
f 613 1066 619
f 1066 1067 619
f 619 1067 617
f 1067 1068 617
f 617 1068 615
f 1068 1069 615
f 615 1069 765
f 1069 1070 765
f 65 66 891
f 66 597 891
f 891 597 245
f 597 246 245
f 412 411 1010
f 411 605 1010
f 1010 605 908
f 605 604 908
f 908 604 335
f 604 336 335

