# https://github.com/mikedh/trimesh

o tm25_231_p15_pusher.stl
v -0.00566636 0.45422161 -0.00250000
v -0.00566636 0.45422161 0.00385000
v -0.00555565 0.45373341 -0.00250000
v -0.00555565 0.45373341 0.00385000
v -0.00540295 0.45325667 -0.00250000
v -0.00540295 0.45325667 0.00385000
v -0.00520943 0.45279497 -0.00250000
v -0.00520943 0.45279497 0.00385000
v -0.00497654 0.45235184 -0.00250000
v -0.00497654 0.45235184 0.00385000
v -0.00470605 0.45193061 -0.00250000
v -0.00470605 0.45193061 0.00385000
v -0.00440000 0.45153445 -0.00250000
v -0.00440000 0.45153445 0.00385000
v -0.00406071 0.45116639 -0.00250000
v -0.00406071 0.45116639 0.00385000
v -0.00369072 0.45082915 -0.00250000
v -0.00369072 0.45082915 0.00385000
v -0.00329286 0.45052534 -0.00250000
v -0.00329286 0.45052534 0.00385000
v -0.00287011 0.45025724 -0.00250000
v -0.00287011 0.45025724 0.00385000
v -0.00242567 0.45002684 -0.00250000
v -0.00242567 0.45002684 0.00385000
v -0.00196290 0.44983593 -0.00250000
v -0.00196290 0.44983593 0.00385000
v -0.00148530 0.44968590 -0.00250000
v -0.00148530 0.44968590 0.00385000
v -0.00099648 0.44957793 -0.00250000
v -0.00099648 0.44957793 0.00385000
v -0.00050013 0.44951284 -0.00250000
v -0.00050013 0.44951284 0.00385000
v 0.00000000 0.44949108 -0.00250000
v 0.00000000 0.44949108 0.00385000
v 0.00050013 0.44951284 -0.00250000
v 0.00050013 0.44951284 0.00385000
v 0.00099648 0.44957793 -0.00250000
v 0.00099648 0.44957793 0.00385000
v 0.00148530 0.44968590 -0.00250000
v 0.00148530 0.44968590 0.00385000
v 0.00196290 0.44983593 -0.00250000
v 0.00196290 0.44983593 0.00385000
v 0.00242567 0.45002684 -0.00250000
v 0.00242567 0.45002684 0.00385000
v 0.00287011 0.45025724 -0.00250000
v 0.00287011 0.45025724 0.00385000
v 0.00329286 0.45052534 -0.00250000
v 0.00329286 0.45052534 0.00385000
v 0.00369072 0.45082915 -0.00250000
v 0.00369072 0.45082915 0.00385000
v 0.00406071 0.45116639 -0.00250000
v 0.00406071 0.45116639 0.00385000
v 0.00440000 0.45153445 -0.00250000
v 0.00440000 0.45153445 0.00385000
v 0.00470605 0.45193061 -0.00250000
v 0.00470605 0.45193061 0.00385000
v 0.00497654 0.45235184 -0.00250000
v 0.00497654 0.45235184 0.00385000
v 0.00520943 0.45279497 -0.00250000
v 0.00520943 0.45279497 0.00385000
v 0.00540295 0.45325667 -0.00250000
v 0.00540295 0.45325667 0.00385000
v 0.00555565 0.45373341 -0.00250000
v 0.00555565 0.45373341 0.00385000
v 0.00566636 0.45422161 -0.00250000
v 0.00566636 0.45422161 0.00385000
v 0.00858525 0.48783511 -0.00250000
v 0.00858525 0.48783511 0.00385000
v 0.00694242 0.48718074 0.00385000
v 0.00694242 0.48718074 -0.00250000
v 0.00525035 0.48666692 0.00385000
v 0.00525035 0.48666692 -0.00250000
v 0.00352105 0.48629728 0.00385000
v 0.00352105 0.48629728 -0.00250000
v 0.00176679 0.48607445 0.00385000
v 0.00176679 0.48607445 -0.00250000
v 0.00000000 0.48600000 0.00385000
v 0.00000000 0.48600000 -0.00250000
v -0.00176679 0.48607445 0.00385000
v -0.00176679 0.48607445 -0.00250000
v -0.00352105 0.48629728 0.00385000
v -0.00352105 0.48629728 -0.00250000
v -0.00525035 0.48666692 0.00385000
v -0.00525035 0.48666692 -0.00250000
v -0.00694242 0.48718074 0.00385000
v -0.00694242 0.48718074 -0.00250000
v -0.00858525 0.48783511 0.00385000
v -0.00858525 0.48783511 -0.00250000
v -0.00400000 0.43700001 0.00385000
v -0.00400000 0.43700001 -0.00250000
v -0.00398478 0.43734863 0.00385000
v -0.00398478 0.43734863 -0.00250000
v -0.00393923 0.43769458 0.00385000
v -0.00393923 0.43769458 -0.00250000
v -0.00386370 0.43803528 0.00385000
v -0.00386370 0.43803528 -0.00250000
v -0.00375877 0.43836808 0.00385000
v -0.00375877 0.43836808 -0.00250000
v -0.00362523 0.43869048 0.00385000
v -0.00362523 0.43869048 -0.00250000
v -0.00346410 0.43900001 0.00385000
v -0.00346410 0.43900001 -0.00250000
v -0.00327661 0.43929431 0.00385000
v -0.00327661 0.43929431 -0.00250000
v -0.00306418 0.43957114 0.00385000
v -0.00306418 0.43957114 -0.00250000
v -0.00282843 0.43982843 0.00385000
v -0.00282843 0.43982843 -0.00250000
v -0.00257115 0.44006419 0.00385000
v -0.00257115 0.44006419 -0.00250000
v -0.00229431 0.44027662 0.00385000
v -0.00229431 0.44027662 -0.00250000
v -0.00200000 0.44046411 0.00385000
v -0.00200000 0.44046411 -0.00250000
v -0.00169047 0.44062522 0.00385000
v -0.00169047 0.44062522 -0.00250000
v -0.00136808 0.44075876 0.00385000
v -0.00136808 0.44075876 -0.00250000
v -0.00103528 0.44086370 0.00385000
v -0.00103528 0.44086370 -0.00250000
v -0.00069459 0.44093922 0.00385000
v -0.00069459 0.44093922 -0.00250000
v -0.00034862 0.44098479 0.00385000
v -0.00034862 0.44098479 -0.00250000
v -0.00000000 0.44100001 0.00385000
v -0.00000000 0.44100001 -0.00250000
v 0.00034862 0.44098479 0.00385000
v 0.00034862 0.44098479 -0.00250000
v 0.00069459 0.44093922 0.00385000
v 0.00069459 0.44093922 -0.00250000
v 0.00103528 0.44086370 0.00385000
v 0.00103528 0.44086370 -0.00250000
v 0.00136808 0.44075876 0.00385000
v 0.00136808 0.44075876 -0.00250000
v 0.00169047 0.44062522 0.00385000
v 0.00169047 0.44062522 -0.00250000
v 0.00200000 0.44046411 0.00385000
v 0.00200000 0.44046411 -0.00250000
v 0.00229431 0.44027662 0.00385000
v 0.00229431 0.44027662 -0.00250000
v 0.00257115 0.44006419 0.00385000
v 0.00257115 0.44006419 -0.00250000
v 0.00282843 0.43982843 0.00385000
v 0.00282843 0.43982843 -0.00250000
v 0.00306418 0.43957114 0.00385000
v 0.00306418 0.43957114 -0.00250000
v 0.00327661 0.43929431 0.00385000
v 0.00327661 0.43929431 -0.00250000
v 0.00346410 0.43900001 0.00385000
v 0.00346410 0.43900001 -0.00250000
v 0.00362523 0.43869048 0.00385000
v 0.00362523 0.43869048 -0.00250000
v 0.00375877 0.43836808 0.00385000
v 0.00375877 0.43836808 -0.00250000
v 0.00386370 0.43803528 0.00385000
v 0.00386370 0.43803528 -0.00250000
v 0.00393923 0.43769458 0.00385000
v 0.00393923 0.43769458 -0.00250000
v 0.00398478 0.43734863 0.00385000
v 0.00398478 0.43734863 -0.00250000
v 0.00400000 0.43700001 0.00385000
v 0.00400000 0.43700001 -0.00250000
v 0.00398478 0.43665138 0.00385000
v 0.00398478 0.43665138 -0.00250000
v 0.00393923 0.43630540 0.00385000
v 0.00393923 0.43630540 -0.00250000
v 0.00386370 0.43596473 0.00385000
v 0.00386370 0.43596473 -0.00250000
v 0.00375877 0.43563193 0.00385000
v 0.00375877 0.43563193 -0.00250000
v 0.00362523 0.43530953 0.00385000
v 0.00362523 0.43530953 -0.00250000
v 0.00346410 0.43500000 0.00385000
v 0.00346410 0.43500000 -0.00250000
v 0.00327661 0.43470570 0.00385000
v 0.00327661 0.43470570 -0.00250000
v 0.00306418 0.43442884 0.00385000
v 0.00306418 0.43442884 -0.00250000
v 0.00282843 0.43417159 0.00385000
v 0.00282843 0.43417159 -0.00250000
v 0.00257115 0.43393582 0.00385000
v 0.00257115 0.43393582 -0.00250000
v 0.00229431 0.43372339 0.00385000
v 0.00229431 0.43372339 -0.00250000
v 0.00200000 0.43353590 0.00385000
v 0.00200000 0.43353590 -0.00250000
v 0.00169047 0.43337476 0.00385000
v 0.00169047 0.43337476 -0.00250000
v 0.00136808 0.43324122 0.00385000
v 0.00136808 0.43324122 -0.00250000
v 0.00103528 0.43313628 0.00385000
v 0.00103528 0.43313628 -0.00250000
v 0.00069459 0.43306077 0.00385000
v 0.00069459 0.43306077 -0.00250000
v 0.00034862 0.43301523 0.00385000
v 0.00034862 0.43301523 -0.00250000
v 0.00000000 0.43300000 0.00385000
v 0.00000000 0.43300000 -0.00250000
v -0.00034862 0.43301523 0.00385000
v -0.00034862 0.43301523 -0.00250000
v -0.00069459 0.43306077 0.00385000
v -0.00069459 0.43306077 -0.00250000
v -0.00103528 0.43313628 0.00385000
v -0.00103528 0.43313628 -0.00250000
v -0.00136808 0.43324122 0.00385000
v -0.00136808 0.43324122 -0.00250000
v -0.00169047 0.43337476 0.00385000
v -0.00169047 0.43337476 -0.00250000
v -0.00200000 0.43353590 0.00385000
v -0.00200000 0.43353590 -0.00250000
v -0.00229431 0.43372339 0.00385000
v -0.00229431 0.43372339 -0.00250000
v -0.00257115 0.43393582 0.00385000
v -0.00257115 0.43393582 -0.00250000
v -0.00282843 0.43417159 0.00385000
v -0.00282843 0.43417159 -0.00250000
v -0.00306418 0.43442884 0.00385000
v -0.00306418 0.43442884 -0.00250000
v -0.00327661 0.43470570 0.00385000
v -0.00327661 0.43470570 -0.00250000
v -0.00346410 0.43500000 0.00385000
v -0.00346410 0.43500000 -0.00250000
v -0.00362523 0.43530953 0.00385000
v -0.00362523 0.43530953 -0.00250000
v -0.00375877 0.43563193 0.00385000
v -0.00375877 0.43563193 -0.00250000
v -0.00386370 0.43596473 0.00385000
v -0.00386370 0.43596473 -0.00250000
v -0.00393923 0.43630540 0.00385000
v -0.00393923 0.43630540 -0.00250000
v -0.00398478 0.43665138 0.00385000
v -0.00398478 0.43665138 -0.00250000
v 0.00737945 0.43566072 0.00385000
v 0.00737945 0.43566072 -0.00250000
v 0.00742500 0.43591169 0.00385000
v 0.00742500 0.43591169 -0.00250000
v 0.00911899 0.44524553 0.00385000
v 0.00911899 0.44524553 -0.00250000
v 0.01207645 0.46154112 0.00385000
v 0.01207645 0.46154112 -0.00250000
v 0.01703813 0.48887995 0.00385000
v 0.01703813 0.48887995 -0.00250000
v 0.01818515 0.49520001 0.00385000
v 0.01818515 0.49520001 -0.00250000
v 0.01913796 0.50045002 0.00385000
v 0.01913796 0.50045002 -0.00250000
v 0.01967854 0.50342858 0.00385000
v 0.01967854 0.50342858 -0.00250000
v -0.00737945 0.43566072 0.00385000
v -0.00737945 0.43566072 -0.00250000
v -0.00723526 0.43502492 -0.00250000
v -0.00723526 0.43502492 0.00385000
v -0.00703640 0.43440405 -0.00250000
v -0.00703640 0.43440405 0.00385000
v -0.00678437 0.43380275 -0.00250000
v -0.00678437 0.43380275 0.00385000
v -0.00648108 0.43322566 -0.00250000
v -0.00648108 0.43322566 0.00385000
v -0.00612881 0.43267709 -0.00250000
v -0.00612881 0.43267709 0.00385000
v -0.00573024 0.43216115 -0.00250000
v -0.00573024 0.43216115 0.00385000
v -0.00528836 0.43168181 -0.00250000
v -0.00528836 0.43168181 0.00385000
v -0.00480652 0.43124261 -0.00250000
v -0.00480652 0.43124261 0.00385000
v -0.00428837 0.43084696 -0.00250000
v -0.00428837 0.43084696 0.00385000
v -0.00373781 0.43049780 -0.00250000
v -0.00373781 0.43049780 0.00385000
v -0.00315901 0.43019775 -0.00250000
v -0.00315901 0.43019775 0.00385000
v -0.00255634 0.42994910 -0.00250000
v -0.00255634 0.42994910 0.00385000
v -0.00193435 0.42975375 -0.00250000
v -0.00193435 0.42975375 0.00385000
v -0.00129774 0.42961314 -0.00250000
v -0.00129774 0.42961314 0.00385000
v -0.00065133 0.42952833 -0.00250000
v -0.00065133 0.42952833 0.00385000
v 0.00000000 0.42950001 -0.00250000
v 0.00000000 0.42950001 0.00385000
v 0.00065133 0.42952833 -0.00250000
v 0.00065133 0.42952833 0.00385000
v 0.00129774 0.42961314 -0.00250000
v 0.00129774 0.42961314 0.00385000
v 0.00193435 0.42975375 -0.00250000
v 0.00193435 0.42975375 0.00385000
v 0.00255634 0.42994910 -0.00250000
v 0.00255634 0.42994910 0.00385000
v 0.00315901 0.43019775 -0.00250000
v 0.00315901 0.43019775 0.00385000
v 0.00373781 0.43049780 -0.00250000
v 0.00373781 0.43049780 0.00385000
v 0.00428837 0.43084696 -0.00250000
v 0.00428837 0.43084696 0.00385000
v 0.00480652 0.43124261 -0.00250000
v 0.00480652 0.43124261 0.00385000
v 0.00528836 0.43168181 -0.00250000
v 0.00528836 0.43168181 0.00385000
v 0.00573024 0.43216115 -0.00250000
v 0.00573024 0.43216115 0.00385000
v 0.00612881 0.43267709 -0.00250000
v 0.00612881 0.43267709 0.00385000
v 0.00648108 0.43322566 -0.00250000
v 0.00648108 0.43322566 0.00385000
v 0.00678437 0.43380275 -0.00250000
v 0.00678437 0.43380275 0.00385000
v 0.00703640 0.43440405 -0.00250000
v 0.00703640 0.43440405 0.00385000
v 0.00723526 0.43502492 -0.00250000
v 0.00723526 0.43502492 0.00385000
v -0.01967854 0.50342858 0.00385000
v -0.01967854 0.50342858 -0.00250000
v -0.01913796 0.50045002 0.00385000
v -0.01913796 0.50045002 -0.00250000
v -0.01862500 0.49762359 0.00385000
v -0.01862500 0.49762359 -0.00250000
v -0.01818515 0.49520001 0.00385000
v -0.01818515 0.49520001 -0.00250000
v -0.01703813 0.48887995 0.00385000
v -0.01703813 0.48887995 -0.00250000
v -0.01207645 0.46154112 0.00385000
v -0.01207645 0.46154112 -0.00250000
v -0.00911899 0.44524553 0.00385000
v -0.00911899 0.44524553 -0.00250000
v -0.00742500 0.43591169 0.00385000
v -0.00742500 0.43591169 -0.00250000
v -0.01137075 0.48565271 -0.00250000
v -0.01137075 0.48565271 0.00385000
v 0.01991142 0.50511974 -0.00250000
v 0.01991142 0.50511974 0.00385000
v 0.01999923 0.50682461 -0.00250000
v 0.01999923 0.50682461 0.00385000
v 0.01994134 0.50853074 -0.00250000
v 0.01994134 0.50853074 0.00385000
v 0.01973815 0.51022571 -0.00250000
v 0.01973815 0.51022571 0.00385000
v 0.01939117 0.51189721 -0.00250000
v 0.01939117 0.51189721 0.00385000
v 0.01890290 0.51353300 -0.00250000
v 0.01890290 0.51353300 0.00385000
v 0.01827692 0.51512122 -0.00250000
v 0.01827692 0.51512122 0.00385000
v 0.01751778 0.51665026 -0.00250000
v 0.01751778 0.51665026 0.00385000
v 0.01663101 0.51810896 -0.00250000
v 0.01663101 0.51810896 0.00385000
v 0.01562306 0.51948678 -0.00250000
v 0.01562306 0.51948678 0.00385000
v 0.01450130 0.52077359 -0.00250000
v 0.01450130 0.52077359 0.00385000
v 0.01327389 0.52196008 -0.00250000
v 0.01327389 0.52196008 0.00385000
v 0.01194976 0.52303755 -0.00250000
v 0.01194976 0.52303755 0.00385000
v 0.01053858 0.52399820 -0.00250000
v 0.01053858 0.52399820 0.00385000
v 0.00905061 0.52483499 -0.00250000
v 0.00905061 0.52483499 0.00385000
v 0.00749670 0.52554184 -0.00250000
v 0.00749670 0.52554184 0.00385000
v 0.00588818 0.52611357 -0.00250000
v 0.00588818 0.52611357 0.00385000
v 0.00423675 0.52654612 -0.00250000
v 0.00423675 0.52654612 0.00385000
v 0.00255446 0.52683622 -0.00250000
v 0.00255446 0.52683622 0.00385000
v 0.00085356 0.52698177 -0.00250000
v 0.00085356 0.52698177 0.00385000
v -0.00085356 0.52698177 -0.00250000
v -0.00085356 0.52698177 0.00385000
v -0.00255446 0.52683622 -0.00250000
v -0.00255446 0.52683622 0.00385000
v -0.00423675 0.52654612 -0.00250000
v -0.00423675 0.52654612 0.00385000
v -0.00588818 0.52611357 -0.00250000
v -0.00588818 0.52611357 0.00385000
v -0.00749670 0.52554184 -0.00250000
v -0.00749670 0.52554184 0.00385000
v -0.00905061 0.52483499 -0.00250000
v -0.00905061 0.52483499 0.00385000
v -0.01053858 0.52399820 -0.00250000
v -0.01053858 0.52399820 0.00385000
v -0.01194976 0.52303755 -0.00250000
v -0.01194976 0.52303755 0.00385000
v -0.01327389 0.52196008 -0.00250000
v -0.01327389 0.52196008 0.00385000
v -0.01450130 0.52077359 -0.00250000
v -0.01450130 0.52077359 0.00385000
v -0.01562306 0.51948678 -0.00250000
v -0.01562306 0.51948678 0.00385000
v -0.01663101 0.51810896 -0.00250000
v -0.01663101 0.51810896 0.00385000
v -0.01751778 0.51665026 -0.00250000
v -0.01751778 0.51665026 0.00385000
v -0.01827692 0.51512122 -0.00250000
v -0.01827692 0.51512122 0.00385000
v -0.01890290 0.51353300 -0.00250000
v -0.01890290 0.51353300 0.00385000
v -0.01939117 0.51189721 -0.00250000
v -0.01939117 0.51189721 0.00385000
v -0.01973815 0.51022571 -0.00250000
v -0.01973815 0.51022571 0.00385000
v -0.01994134 0.50853074 -0.00250000
v -0.01994134 0.50853074 0.00385000
v -0.01999923 0.50682461 -0.00250000
v -0.01999923 0.50682461 0.00385000
v -0.01991142 0.50511974 -0.00250000
v -0.01991142 0.50511974 0.00385000
v 0.00742500 0.51880002 0.00385000
v -0.00312500 0.43125001 0.00385000
v 0.00742500 0.44524553 0.00385000
v -0.00742500 0.44524553 0.00385000
v -0.00312500 0.44524553 0.00385000
v 0.01629055 0.50515693 0.00385000
v 0.01612500 0.50505143 0.00385000
v 0.01595089 0.50496083 0.00385000
v 0.01576954 0.50488567 0.00385000
v 0.01684309 0.50570947 0.00385000
v 0.01672360 0.50555372 0.00385000
v 0.01659099 0.50540900 0.00385000
v 0.01644627 0.50527638 0.00385000
v 0.01558234 0.50482666 0.00385000
v 0.01539071 0.50478417 0.00385000
v 0.01519610 0.50475854 0.00385000
v 0.01500000 0.50475001 0.00385000
v 0.01207645 0.50045002 0.00385000
v 0.01480390 0.50475854 0.00385000
v 0.01460929 0.50478417 0.00385000
v 0.01441766 0.50482666 0.00385000
v 0.01423045 0.50488567 0.00385000
v 0.01404911 0.50496083 0.00385000
v 0.01387500 0.50505143 0.00385000
v 0.01519610 0.50924146 0.00385000
v 0.01539071 0.50921583 0.00385000
v 0.01595089 0.50903916 0.00385000
v 0.01725000 0.50700003 0.00385000
v 0.01724144 0.50680387 0.00385000
v 0.01721582 0.50660932 0.00385000
v 0.01717333 0.50641763 0.00385000
v 0.01711431 0.50623047 0.00385000
v 0.01703919 0.50604910 0.00385000
v 0.01694856 0.50587499 0.00385000
v 0.01558234 0.50917333 0.00385000
v 0.01576954 0.50911433 0.00385000
v 0.01404911 0.50903916 0.00385000
v 0.01423045 0.50911433 0.00385000
v 0.01207645 0.51354998 0.00385000
v 0.01441766 0.50917333 0.00385000
v 0.01460929 0.50921583 0.00385000
v 0.01480390 0.50924146 0.00385000
v 0.01500000 0.50924999 0.00385000
v 0.01659099 0.50859100 0.00385000
v 0.01672360 0.50844628 0.00385000
v 0.01684309 0.50829053 0.00385000
v 0.01694856 0.50812501 0.00385000
v 0.01703919 0.50795090 0.00385000
v 0.01711431 0.50776953 0.00385000
v 0.01355373 0.50872362 0.00385000
v 0.01370945 0.50884306 0.00385000
v 0.01387500 0.50894856 0.00385000
v 0.01612500 0.50894856 0.00385000
v 0.01629055 0.50884306 0.00385000
v 0.01644627 0.50872362 0.00385000
v 0.01717333 0.50758237 0.00385000
v 0.01721582 0.50739074 0.00385000
v 0.01724144 0.50719613 0.00385000
v 0.01340901 0.50540900 0.00385000
v 0.01327640 0.50555372 0.00385000
v 0.01296081 0.50795090 0.00385000
v 0.01305144 0.50812501 0.00385000
v 0.01315691 0.50829053 0.00385000
v 0.01370945 0.50515693 0.00385000
v 0.01355373 0.50527638 0.00385000
v 0.01315691 0.50570947 0.00385000
v 0.01305144 0.50587499 0.00385000
v 0.01296081 0.50604910 0.00385000
v 0.01327640 0.50844628 0.00385000
v 0.01340901 0.50859100 0.00385000
v 0.01288569 0.50623047 0.00385000
v 0.01282667 0.50641763 0.00385000
v 0.01278418 0.50660932 0.00385000
v 0.01275856 0.50680387 0.00385000
v 0.01275000 0.50700003 0.00385000
v 0.01275856 0.50719613 0.00385000
v 0.01278418 0.50739074 0.00385000
v 0.01282667 0.50758237 0.00385000
v 0.01288569 0.50776953 0.00385000
v 0.01207645 0.49520001 0.00385000
v 0.00977444 0.48797506 0.00385000
v 0.00994352 0.48793542 0.00385000
v 0.01207645 0.48887995 0.00385000
v 0.01010852 0.48788127 0.00385000
v 0.01026820 0.48781300 0.00385000
v 0.01042136 0.48773113 0.00385000
v 0.01056684 0.48763630 0.00385000
v 0.00874667 0.48789915 0.00385000
v 0.00742500 0.48887995 0.00385000
v 0.00891304 0.48794895 0.00385000
v 0.00908311 0.48798415 0.00385000
v 0.00925558 0.48800445 0.00385000
v 0.00942917 0.48800969 0.00385000
v 0.00960255 0.48799989 0.00385000
v 0.01070355 0.48752919 0.00385000
v 0.01083045 0.48741063 0.00385000
v 0.01094658 0.48728150 0.00385000
v 0.01105107 0.48714280 0.00385000
v 0.01114314 0.48699555 0.00385000
v 0.01122209 0.48684084 0.00385000
v 0.01128732 0.48667991 0.00385000
v 0.01133834 0.48651391 0.00385000
v 0.01137477 0.48634410 0.00385000
v 0.01139431 0.48582479 0.00385000
v 0.01139633 0.48617178 0.00385000
v 0.01140286 0.48599824 0.00385000
v 0.01137075 0.48565271 0.00385000
v -0.01070355 0.48752919 0.00385000
v -0.01056684 0.48763630 0.00385000
v -0.01207645 0.48887995 0.00385000
v -0.01042136 0.48773113 0.00385000
v -0.01105107 0.48714280 0.00385000
v -0.01094658 0.48728150 0.00385000
v -0.01083045 0.48741063 0.00385000
v -0.01026820 0.48781300 0.00385000
v -0.01010852 0.48788127 0.00385000
v -0.00994352 0.48793542 0.00385000
v -0.00977444 0.48797506 0.00385000
v -0.00960255 0.48799989 0.00385000
v -0.00742500 0.48887995 0.00385000
v -0.00942917 0.48800969 0.00385000
v -0.00925558 0.48800445 0.00385000
v -0.00908311 0.48798415 0.00385000
v -0.00891304 0.48794895 0.00385000
v -0.00874667 0.48789915 0.00385000
v -0.01139431 0.48582479 0.00385000
v -0.01140286 0.48599824 0.00385000
v -0.01133834 0.48651391 0.00385000
v -0.01128732 0.48667991 0.00385000
v -0.01139633 0.48617178 0.00385000
v -0.01137477 0.48634410 0.00385000
v -0.01122209 0.48684084 0.00385000
v -0.01114314 0.48699555 0.00385000
v -0.01207645 0.49520001 0.00385000
v -0.01862500 0.51354998 0.00385000
v -0.01862500 0.50045002 0.00385000
v -0.01207645 0.51354998 0.00385000
v -0.01207645 0.51880002 0.00385000
v -0.00742500 0.51880002 0.00385000
v 0.00203919 0.52104908 0.00385000
v 0.00194856 0.52087498 0.00385000
v 0.00184309 0.52070946 0.00385000
v 0.00112500 0.52005142 0.00385000
v 0.00129055 0.52015692 0.00385000
v 0.00144627 0.52027643 0.00385000
v 0.00172360 0.52055371 0.00385000
v 0.00159099 0.52040899 0.00385000
v 0.00095089 0.51996082 0.00385000
v 0.00076955 0.51988572 0.00385000
v 0.00058234 0.51982665 0.00385000
v -0.00312500 0.51880002 0.00385000
v -0.00019610 0.51975858 0.00385000
v -0.00039071 0.51978421 0.00385000
v 0.00224144 0.52180392 0.00385000
v 0.00221582 0.52160931 0.00385000
v 0.00039071 0.51978421 0.00385000
v 0.00019610 0.51975858 0.00385000
v -0.00000000 0.51975000 0.00385000
v -0.00058234 0.51982665 0.00385000
v -0.00076955 0.51988572 0.00385000
v -0.00095089 0.51996082 0.00385000
v -0.00112500 0.52394855 0.00385000
v -0.00095089 0.52403921 0.00385000
v -0.00076955 0.52411431 0.00385000
v -0.00058234 0.52417332 0.00385000
v -0.00039071 0.52421582 0.00385000
v -0.00019610 0.52424145 0.00385000
v 0.00000000 0.52424997 0.00385000
v 0.00019610 0.52424145 0.00385000
v 0.00217333 0.52141768 0.00385000
v 0.00211431 0.52123046 0.00385000
v 0.00039071 0.52421582 0.00385000
v 0.00058234 0.52417332 0.00385000
v 0.00076955 0.52411431 0.00385000
v 0.00095089 0.52403921 0.00385000
v 0.00112500 0.52394855 0.00385000
v 0.00129055 0.52384311 0.00385000
v 0.00184309 0.52329057 0.00385000
v 0.00194856 0.52312499 0.00385000
v 0.00203919 0.52295089 0.00385000
v 0.00211431 0.52276957 0.00385000
v -0.00112500 0.52005142 0.00385000
v -0.00129055 0.52015692 0.00385000
v -0.00144627 0.52027643 0.00385000
v -0.00159099 0.52040899 0.00385000
v -0.00172360 0.52055371 0.00385000
v -0.00184309 0.52070946 0.00385000
v -0.00144627 0.52372360 0.00385000
v -0.00129055 0.52384311 0.00385000
v 0.00144627 0.52372360 0.00385000
v 0.00159099 0.52359098 0.00385000
v 0.00172360 0.52344626 0.00385000
v 0.00224144 0.52219611 0.00385000
v 0.00225000 0.52200001 0.00385000
v -0.00203919 0.52295089 0.00385000
v -0.00194856 0.52312499 0.00385000
v -0.00184309 0.52329057 0.00385000
v 0.00217333 0.52258235 0.00385000
v 0.00221582 0.52239072 0.00385000
v -0.00172360 0.52344626 0.00385000
v -0.00159099 0.52359098 0.00385000
v -0.00194856 0.52087498 0.00385000
v -0.00203919 0.52104908 0.00385000
v -0.00211431 0.52123046 0.00385000
v -0.00217333 0.52141768 0.00385000
v -0.00221582 0.52160931 0.00385000
v -0.00224144 0.52180392 0.00385000
v -0.00225000 0.52200001 0.00385000
v -0.00224144 0.52219611 0.00385000
v -0.00221582 0.52239072 0.00385000
v -0.00217333 0.52258235 0.00385000
v -0.00211431 0.52276957 0.00385000
v 0.01207645 0.51880002 0.00385000
v 0.00939638 0.51242501 0.00385000
v 0.00983344 0.51158541 0.00385000
v 0.01019567 0.51071090 0.00385000
v 0.01048029 0.50980818 0.00385000
v 0.01068516 0.50888407 0.00385000
v 0.01068516 0.50511593 0.00385000
v 0.01048029 0.50419182 0.00385000
v 0.01019567 0.50328910 0.00385000
v 0.00983344 0.50241458 0.00385000
v 0.01080871 0.50794566 0.00385000
v 0.01085000 0.50700003 0.00385000
v 0.01080871 0.50605434 0.00385000
v 0.00280819 0.51748031 0.00385000
v 0.00371092 0.51719564 0.00385000
v -0.00094564 0.51780874 0.00385000
v -0.00188408 0.51768517 0.00385000
v -0.00280819 0.51748031 0.00385000
v 0.00458541 0.51683342 0.00385000
v 0.00542500 0.51639640 0.00385000
v 0.00622330 0.51588780 0.00385000
v 0.00697425 0.51531160 0.00385000
v 0.00767211 0.51467210 0.00385000
v 0.00831158 0.51397425 0.00385000
v 0.00888780 0.51322329 0.00385000
v 0.00000000 0.51784998 0.00385000
v 0.00094564 0.51780874 0.00385000
v 0.00188408 0.51768517 0.00385000
v -0.00697425 0.51531160 0.00385000
v -0.00622330 0.51588780 0.00385000
v -0.00542500 0.51639640 0.00385000
v -0.00458541 0.51683342 0.00385000
v -0.00371092 0.51719564 0.00385000
v -0.00983344 0.50241458 0.00385000
v -0.01019567 0.50328910 0.00385000
v -0.01207645 0.50045002 0.00385000
v -0.00939638 0.50157499 0.00385000
v -0.00983344 0.51158541 0.00385000
v -0.00939638 0.51242501 0.00385000
v -0.00888780 0.51322329 0.00385000
v -0.00831158 0.51397425 0.00385000
v -0.00767211 0.51467210 0.00385000
v -0.01085000 0.50700003 0.00385000
v -0.01080871 0.50794566 0.00385000
v -0.01068516 0.50888407 0.00385000
v -0.01048029 0.50419182 0.00385000
v -0.01068516 0.50511593 0.00385000
v -0.01080871 0.50605434 0.00385000
v -0.01048029 0.50980818 0.00385000
v -0.01019567 0.51071090 0.00385000
v -0.00742500 0.49520001 0.00385000
v -0.00767211 0.49932790 0.00385000
v -0.00831158 0.50002575 0.00385000
v -0.00888780 0.50077671 0.00385000
v -0.00312500 0.49520001 0.00385000
v -0.00371092 0.49680433 0.00385000
v -0.00458541 0.49716657 0.00385000
v -0.00542500 0.49760363 0.00385000
v -0.00622330 0.49811220 0.00385000
v -0.00697425 0.49868843 0.00385000
v 0.00094564 0.49619129 0.00385000
v -0.00000000 0.49614999 0.00385000
v -0.00094564 0.49619129 0.00385000
v 0.00458541 0.49716657 0.00385000
v 0.00371092 0.49680433 0.00385000
v 0.00742500 0.49520001 0.00385000
v 0.00280819 0.49651971 0.00385000
v 0.00188408 0.49631482 0.00385000
v -0.00188408 0.49631482 0.00385000
v -0.00280819 0.49651971 0.00385000
v 0.00697425 0.49868843 0.00385000
v 0.00622330 0.49811220 0.00385000
v 0.00542500 0.49760363 0.00385000
v 0.00939638 0.50157499 0.00385000
v 0.00888780 0.50077671 0.00385000
v 0.00831158 0.50002575 0.00385000
v 0.00767211 0.49932790 0.00385000
v -0.00312500 0.48887995 0.00385000
v -0.01595089 0.50496083 0.00385000
v -0.01612500 0.50505143 0.00385000
v -0.01404911 0.50496083 0.00385000
v -0.01423045 0.50488567 0.00385000
v -0.01441766 0.50482666 0.00385000
v -0.01460929 0.50478417 0.00385000
v -0.01480390 0.50475854 0.00385000
v -0.01500000 0.50475001 0.00385000
v -0.01519610 0.50475854 0.00385000
v -0.01539071 0.50478417 0.00385000
v -0.01296081 0.50604910 0.00385000
v -0.01305144 0.50587499 0.00385000
v -0.01315691 0.50570947 0.00385000
v -0.01355373 0.50527638 0.00385000
v -0.01370945 0.50515693 0.00385000
v -0.01387500 0.50505143 0.00385000
v -0.01558234 0.50482666 0.00385000
v -0.01576954 0.50488567 0.00385000
v -0.01480390 0.50924146 0.00385000
v -0.01460929 0.50921583 0.00385000
v -0.01441766 0.50917333 0.00385000
v -0.01423045 0.50911433 0.00385000
v -0.01404911 0.50903916 0.00385000
v -0.01387500 0.50894856 0.00385000
v -0.01315691 0.50829053 0.00385000
v -0.01327640 0.50844628 0.00385000
v -0.01340901 0.50859100 0.00385000
v -0.01327640 0.50555372 0.00385000
v -0.01340901 0.50540900 0.00385000
v -0.01659099 0.50540900 0.00385000
v -0.01672360 0.50555372 0.00385000
v -0.01595089 0.50903916 0.00385000
v -0.01576954 0.50911433 0.00385000
v -0.01558234 0.50917333 0.00385000
v -0.01539071 0.50921583 0.00385000
v -0.01519610 0.50924146 0.00385000
v -0.01500000 0.50924999 0.00385000
v -0.01370945 0.50884306 0.00385000
v -0.01355373 0.50872362 0.00385000
v -0.01278418 0.50660932 0.00385000
v -0.01275856 0.50680387 0.00385000
v -0.01275000 0.50700003 0.00385000
v -0.01282667 0.50641763 0.00385000
v -0.01288569 0.50623047 0.00385000
v -0.01629055 0.50515693 0.00385000
v -0.01644627 0.50527638 0.00385000
v -0.01684309 0.50829053 0.00385000
v -0.01672360 0.50844628 0.00385000
v -0.01659099 0.50859100 0.00385000
v -0.01644627 0.50872362 0.00385000
v -0.01629055 0.50884306 0.00385000
v -0.01612500 0.50894856 0.00385000
v -0.01305144 0.50812501 0.00385000
v -0.01296081 0.50795090 0.00385000
v -0.01288569 0.50776953 0.00385000
v -0.01275856 0.50719613 0.00385000
v -0.01684309 0.50570947 0.00385000
v -0.01694856 0.50587499 0.00385000
v -0.01703919 0.50604910 0.00385000
v -0.01282667 0.50758237 0.00385000
v -0.01278418 0.50739074 0.00385000
v -0.01711431 0.50623047 0.00385000
v -0.01717333 0.50641763 0.00385000
v -0.01721582 0.50660932 0.00385000
v -0.01711431 0.50776953 0.00385000
v -0.01717333 0.50758237 0.00385000
v -0.01721582 0.50739074 0.00385000
v -0.01703919 0.50795090 0.00385000
v -0.01694856 0.50812501 0.00385000
v -0.01724144 0.50680387 0.00385000
v -0.01725000 0.50700003 0.00385000
v -0.01724144 0.50719613 0.00385000
v 0.00129055 0.49015692 0.00385000
v 0.00112500 0.49005145 0.00385000
v 0.00058234 0.48982668 0.00385000
v 0.00039071 0.48978418 0.00385000
v 0.00019610 0.48975855 0.00385000
v 0.00095089 0.48996082 0.00385000
v 0.00076955 0.48988569 0.00385000
v 0.00019610 0.49424145 0.00385000
v 0.00039071 0.49421582 0.00385000
v 0.00172360 0.49055374 0.00385000
v 0.00159099 0.49040902 0.00385000
v 0.00144627 0.49027640 0.00385000
v -0.00058234 0.49417335 0.00385000
v -0.00039071 0.49421582 0.00385000
v -0.00019610 0.49424145 0.00385000
v 0.00000000 0.49425000 0.00385000
v 0.00000000 0.48975000 0.00385000
v -0.00019610 0.48975855 0.00385000
v -0.00039071 0.48978418 0.00385000
v -0.00129055 0.49384308 0.00385000
v -0.00112500 0.49394855 0.00385000
v 0.00058234 0.49417335 0.00385000
v 0.00076955 0.49411431 0.00385000
v 0.00095089 0.49403918 0.00385000
v 0.00112500 0.49394855 0.00385000
v 0.00129055 0.49384308 0.00385000
v 0.00144627 0.49372360 0.00385000
v 0.00221582 0.49160931 0.00385000
v 0.00224144 0.49180391 0.00385000
v 0.00225000 0.49200001 0.00385000
v 0.00217333 0.49141765 0.00385000
v 0.00211431 0.49123046 0.00385000
v 0.00203919 0.49104911 0.00385000
v 0.00194856 0.49087501 0.00385000
v 0.00184309 0.49070945 0.00385000
v -0.00095089 0.49403918 0.00385000
v -0.00076955 0.49411431 0.00385000
v 0.00159099 0.49359098 0.00385000
v 0.00172360 0.49344626 0.00385000
v 0.00184309 0.49329054 0.00385000
v -0.00058234 0.48982668 0.00385000
v -0.00076955 0.48988569 0.00385000
v -0.00095089 0.48996082 0.00385000
v 0.00211431 0.49276954 0.00385000
v 0.00217333 0.49258235 0.00385000
v 0.00221582 0.49239072 0.00385000
v 0.00224144 0.49219611 0.00385000
v -0.00112500 0.49005145 0.00385000
v -0.00129055 0.49015692 0.00385000
v -0.00144627 0.49027640 0.00385000
v 0.00194856 0.49312499 0.00385000
v 0.00203919 0.49295089 0.00385000
v -0.00159099 0.49040902 0.00385000
v -0.00172360 0.49055374 0.00385000
v -0.00184309 0.49070945 0.00385000
v -0.00211431 0.49123046 0.00385000
v -0.00217333 0.49141765 0.00385000
v -0.00172360 0.49344626 0.00385000
v -0.00159099 0.49359098 0.00385000
v -0.00144627 0.49372360 0.00385000
v -0.00194856 0.49087501 0.00385000
v -0.00203919 0.49104911 0.00385000
v -0.00224144 0.49219611 0.00385000
v -0.00221582 0.49239072 0.00385000
v -0.00217333 0.49258235 0.00385000
v -0.00211431 0.49276954 0.00385000
v -0.00203919 0.49295089 0.00385000
v -0.00221582 0.49160931 0.00385000
v -0.00224144 0.49180391 0.00385000
v -0.00225000 0.49200001 0.00385000
v -0.00194856 0.49312499 0.00385000
v -0.00184309 0.49329054 0.00385000
v -0.00312500 0.51880002 -0.00250000
v -0.00224144 0.52219611 -0.00250000
v -0.00225000 0.52200001 -0.00250000
v 0.01275856 0.50719613 -0.00250000
v 0.01275000 0.50700003 -0.00250000
v 0.01207645 0.51354998 -0.00250000
v -0.00312500 0.43125001 -0.00250000
v -0.00742500 0.44524553 -0.00250000
v -0.01207645 0.48887995 -0.00250000
v 0.00742500 0.44524553 -0.00250000
v -0.00312500 0.44524553 -0.00250000
v -0.01862500 0.50045002 -0.00250000
v -0.01862500 0.51354998 -0.00250000
v -0.01207645 0.49520001 -0.00250000
v -0.01207645 0.50045002 -0.00250000
v -0.01026820 0.48781300 -0.00250000
v -0.01042136 0.48773113 -0.00250000
v -0.01056684 0.48763630 -0.00250000
v -0.01070355 0.48752919 -0.00250000
v -0.00742500 0.48887995 -0.00250000
v -0.00891304 0.48794895 -0.00250000
v -0.00908311 0.48798415 -0.00250000
v -0.00925558 0.48800445 -0.00250000
v -0.00942917 0.48800969 -0.00250000
v -0.00960255 0.48799989 -0.00250000
v -0.00977444 0.48797506 -0.00250000
v -0.00994352 0.48793542 -0.00250000
v -0.01010852 0.48788127 -0.00250000
v -0.01083045 0.48741063 -0.00250000
v -0.01094658 0.48728150 -0.00250000
v -0.01105107 0.48714280 -0.00250000
v -0.00874667 0.48789915 -0.00250000
v -0.01114314 0.48699555 -0.00250000
v -0.01122209 0.48684084 -0.00250000
v -0.01128732 0.48667991 -0.00250000
v -0.01133834 0.48651391 -0.00250000
v -0.01137477 0.48634410 -0.00250000
v -0.01139633 0.48617178 -0.00250000
v -0.01140286 0.48599824 -0.00250000
v -0.01139431 0.48582479 -0.00250000
v 0.00977444 0.48797506 -0.00250000
v 0.00960255 0.48799989 -0.00250000
v 0.01207645 0.48887995 -0.00250000
v 0.01070355 0.48752919 -0.00250000
v 0.01056684 0.48763630 -0.00250000
v 0.01042136 0.48773113 -0.00250000
v 0.01026820 0.48781300 -0.00250000
v 0.01010852 0.48788127 -0.00250000
v 0.00994352 0.48793542 -0.00250000
v 0.01133834 0.48651391 -0.00250000
v 0.01128732 0.48667991 -0.00250000
v 0.00942917 0.48800969 -0.00250000
v 0.00925558 0.48800445 -0.00250000
v 0.00742500 0.48887995 -0.00250000
v 0.00908311 0.48798415 -0.00250000
v 0.00891304 0.48794895 -0.00250000
v 0.01105107 0.48714280 -0.00250000
v 0.01094658 0.48728150 -0.00250000
v 0.01083045 0.48741063 -0.00250000
v 0.00874667 0.48789915 -0.00250000
v 0.01122209 0.48684084 -0.00250000
v 0.01114314 0.48699555 -0.00250000
v 0.01139431 0.48582479 -0.00250000
v 0.01140286 0.48599824 -0.00250000
v 0.01139633 0.48617178 -0.00250000
v 0.01137477 0.48634410 -0.00250000
v 0.01595089 0.50496083 -0.00250000
v 0.01612500 0.50505143 -0.00250000
v 0.01315691 0.50570947 -0.00250000
v 0.01207645 0.50045002 -0.00250000
v 0.01305144 0.50587499 -0.00250000
v 0.01296081 0.50604910 -0.00250000
v 0.01327640 0.50555372 -0.00250000
v 0.01340901 0.50540900 -0.00250000
v 0.01355373 0.50527638 -0.00250000
v 0.01404911 0.50496083 -0.00250000
v 0.01423045 0.50488567 -0.00250000
v 0.01441766 0.50482666 -0.00250000
v 0.01460929 0.50478417 -0.00250000
v 0.01480390 0.50475854 -0.00250000
v 0.01500000 0.50475001 -0.00250000
v 0.01519610 0.50475854 -0.00250000
v 0.01539071 0.50478417 -0.00250000
v 0.01370945 0.50515693 -0.00250000
v 0.01387500 0.50505143 -0.00250000
v 0.01207645 0.49520001 -0.00250000
v 0.01558234 0.50482666 -0.00250000
v 0.01576954 0.50488567 -0.00250000
v 0.01275856 0.50680387 -0.00250000
v 0.01278418 0.50660932 -0.00250000
v 0.01539071 0.50921583 -0.00250000
v 0.01558234 0.50917333 -0.00250000
v 0.01576954 0.50911433 -0.00250000
v 0.01282667 0.50641763 -0.00250000
v 0.01288569 0.50623047 -0.00250000
v 0.01612500 0.50894856 -0.00250000
v 0.01595089 0.50903916 -0.00250000
v 0.01519610 0.50924146 -0.00250000
v 0.01500000 0.50924999 -0.00250000
v 0.01480390 0.50924146 -0.00250000
v 0.01460929 0.50921583 -0.00250000
v 0.01441766 0.50917333 -0.00250000
v 0.01423045 0.50911433 -0.00250000
v 0.01404911 0.50903916 -0.00250000
v 0.01387500 0.50894856 -0.00250000
v 0.01370945 0.50884306 -0.00250000
v 0.01355373 0.50872362 -0.00250000
v 0.01684309 0.50829053 -0.00250000
v 0.01672360 0.50844628 -0.00250000
v 0.01340901 0.50859100 -0.00250000
v 0.01327640 0.50844628 -0.00250000
v 0.01315691 0.50829053 -0.00250000
v 0.01305144 0.50812501 -0.00250000
v 0.01296081 0.50795090 -0.00250000
v 0.01288569 0.50776953 -0.00250000
v 0.01629055 0.50515693 -0.00250000
v 0.01644627 0.50527638 -0.00250000
v 0.01659099 0.50540900 -0.00250000
v 0.01672360 0.50555372 -0.00250000
v 0.01659099 0.50859100 -0.00250000
v 0.01644627 0.50872362 -0.00250000
v 0.01629055 0.50884306 -0.00250000
v 0.01282667 0.50758237 -0.00250000
v 0.01278418 0.50739074 -0.00250000
v 0.01717333 0.50758237 -0.00250000
v 0.01711431 0.50776953 -0.00250000
v 0.01703919 0.50795090 -0.00250000
v 0.01694856 0.50812501 -0.00250000
v 0.01684309 0.50570947 -0.00250000
v 0.01694856 0.50587499 -0.00250000
v 0.01703919 0.50604910 -0.00250000
v 0.01711431 0.50623047 -0.00250000
v 0.01717333 0.50641763 -0.00250000
v 0.01721582 0.50660932 -0.00250000
v 0.01724144 0.50680387 -0.00250000
v 0.01725000 0.50700003 -0.00250000
v 0.01724144 0.50719613 -0.00250000
v 0.01721582 0.50739074 -0.00250000
v 0.01207645 0.51880002 -0.00250000
v 0.00742500 0.51880002 -0.00250000
v 0.00058234 0.51982665 -0.00250000
v 0.00076955 0.51988572 -0.00250000
v -0.00095089 0.51996082 -0.00250000
v -0.00076955 0.51988572 -0.00250000
v -0.00172360 0.52055371 -0.00250000
v -0.00159099 0.52040899 -0.00250000
v -0.00144627 0.52027643 -0.00250000
v -0.00058234 0.51982665 -0.00250000
v -0.00039071 0.51978421 -0.00250000
v -0.00019610 0.51975858 -0.00250000
v -0.00129055 0.52015692 -0.00250000
v -0.00112500 0.52005142 -0.00250000
v -0.00000000 0.51975000 -0.00250000
v 0.00019610 0.51975858 -0.00250000
v 0.00039071 0.51978421 -0.00250000
v 0.00112500 0.52394855 -0.00250000
v 0.00095089 0.52403921 -0.00250000
v 0.00076955 0.52411431 -0.00250000
v 0.00058234 0.52417332 -0.00250000
v 0.00039071 0.52421582 -0.00250000
v -0.00019610 0.52424145 -0.00250000
v 0.00000000 0.52424997 -0.00250000
v 0.00019610 0.52424145 -0.00250000
v -0.00144627 0.52372360 -0.00250000
v -0.00129055 0.52384311 -0.00250000
v -0.00112500 0.52394855 -0.00250000
v -0.00095089 0.52403921 -0.00250000
v -0.00159099 0.52359098 -0.00250000
v -0.00172360 0.52344626 -0.00250000
v -0.00184309 0.52329057 -0.00250000
v -0.00194856 0.52312499 -0.00250000
v -0.00203919 0.52295089 -0.00250000
v -0.00211431 0.52276957 -0.00250000
v -0.00224144 0.52180392 -0.00250000
v -0.00221582 0.52160931 -0.00250000
v -0.00203919 0.52104908 -0.00250000
v -0.00194856 0.52087498 -0.00250000
v -0.00184309 0.52070946 -0.00250000
v 0.00203919 0.52295089 -0.00250000
v 0.00194856 0.52312499 -0.00250000
v -0.00039071 0.52421582 -0.00250000
v -0.00058234 0.52417332 -0.00250000
v -0.00076955 0.52411431 -0.00250000
v -0.00217333 0.52141768 -0.00250000
v -0.00211431 0.52123046 -0.00250000
v 0.00095089 0.51996082 -0.00250000
v 0.00112500 0.52005142 -0.00250000
v 0.00129055 0.52015692 -0.00250000
v 0.00144627 0.52372360 -0.00250000
v 0.00129055 0.52384311 -0.00250000
v -0.00217333 0.52258235 -0.00250000
v -0.00221582 0.52239072 -0.00250000
v 0.00144627 0.52027643 -0.00250000
v 0.00159099 0.52040899 -0.00250000
v 0.00172360 0.52055371 -0.00250000
v 0.00184309 0.52329057 -0.00250000
v 0.00172360 0.52344626 -0.00250000
v 0.00159099 0.52359098 -0.00250000
v 0.00184309 0.52070946 -0.00250000
v 0.00194856 0.52087498 -0.00250000
v 0.00203919 0.52104908 -0.00250000
v 0.00221582 0.52239072 -0.00250000
v 0.00217333 0.52258235 -0.00250000
v 0.00211431 0.52276957 -0.00250000
v 0.00211431 0.52123046 -0.00250000
v 0.00217333 0.52141768 -0.00250000
v 0.00221582 0.52160931 -0.00250000
v 0.00224144 0.52180392 -0.00250000
v 0.00225000 0.52200001 -0.00250000
v 0.00224144 0.52219611 -0.00250000
v -0.00742500 0.51880002 -0.00250000
v -0.01207645 0.51880002 -0.00250000
v -0.01207645 0.51354998 -0.00250000
v 0.01019567 0.51071090 -0.00250000
v 0.00983344 0.51158541 -0.00250000
v 0.00888780 0.50077671 -0.00250000
v 0.00939638 0.50157499 -0.00250000
v 0.01085000 0.50700003 -0.00250000
v 0.01080871 0.50794566 -0.00250000
v 0.01068516 0.50888407 -0.00250000
v 0.01048029 0.50980818 -0.00250000
v 0.00983344 0.50241458 -0.00250000
v 0.01019567 0.50328910 -0.00250000
v 0.01048029 0.50419182 -0.00250000
v 0.01068516 0.50511593 -0.00250000
v 0.01080871 0.50605434 -0.00250000
v 0.00831158 0.50002575 -0.00250000
v 0.00767211 0.49932790 -0.00250000
v -0.00280819 0.49651971 -0.00250000
v -0.00188408 0.49631482 -0.00250000
v -0.00312500 0.49520001 -0.00250000
v -0.00094564 0.49619129 -0.00250000
v -0.00000000 0.49614999 -0.00250000
v 0.00280819 0.49651971 -0.00250000
v 0.00742500 0.49520001 -0.00250000
v 0.00188408 0.49631482 -0.00250000
v 0.00094564 0.49619129 -0.00250000
v 0.00371092 0.49680433 -0.00250000
v 0.00458541 0.49716657 -0.00250000
v 0.00542500 0.49760363 -0.00250000
v 0.00622330 0.49811220 -0.00250000
v 0.00697425 0.49868843 -0.00250000
v -0.00742500 0.49520001 -0.00250000
v -0.00458541 0.49716657 -0.00250000
v -0.00371092 0.49680433 -0.00250000
v -0.00697425 0.49868843 -0.00250000
v -0.00622330 0.49811220 -0.00250000
v -0.00542500 0.49760363 -0.00250000
v -0.00939638 0.51242501 -0.00250000
v -0.00983344 0.51158541 -0.00250000
v -0.00983344 0.50241458 -0.00250000
v -0.00939638 0.50157499 -0.00250000
v -0.00888780 0.50077671 -0.00250000
v -0.00831158 0.50002575 -0.00250000
v -0.00767211 0.49932790 -0.00250000
v -0.01019567 0.51071090 -0.00250000
v -0.01048029 0.50980818 -0.00250000
v -0.01068516 0.50888407 -0.00250000
v -0.01068516 0.50511593 -0.00250000
v -0.01048029 0.50419182 -0.00250000
v -0.01019567 0.50328910 -0.00250000
v -0.01080871 0.50794566 -0.00250000
v -0.01085000 0.50700003 -0.00250000
v -0.01080871 0.50605434 -0.00250000
v -0.00767211 0.51467210 -0.00250000
v -0.00831158 0.51397425 -0.00250000
v -0.00888780 0.51322329 -0.00250000
v -0.00458541 0.51683342 -0.00250000
v -0.00542500 0.51639640 -0.00250000
v -0.00622330 0.51588780 -0.00250000
v -0.00697425 0.51531160 -0.00250000
v -0.00371092 0.51719564 -0.00250000
v 0.00697425 0.51531160 -0.00250000
v 0.00622330 0.51588780 -0.00250000
v 0.00542500 0.51639640 -0.00250000
v 0.00458541 0.51683342 -0.00250000
v 0.00371092 0.51719564 -0.00250000
v 0.00280819 0.51748031 -0.00250000
v -0.00094564 0.51780874 -0.00250000
v -0.00188408 0.51768517 -0.00250000
v -0.00280819 0.51748031 -0.00250000
v 0.00188408 0.51768517 -0.00250000
v 0.00094564 0.51780874 -0.00250000
v 0.00000000 0.51784998 -0.00250000
v 0.00939638 0.51242501 -0.00250000
v 0.00888780 0.51322329 -0.00250000
v 0.00831158 0.51397425 -0.00250000
v 0.00767211 0.51467210 -0.00250000
v -0.00312500 0.48887995 -0.00250000
v 0.01137075 0.48565271 -0.00250000
v -0.00129055 0.49015692 -0.00250000
v -0.00112500 0.49005145 -0.00250000
v -0.00058234 0.48982668 -0.00250000
v -0.00039071 0.48978418 -0.00250000
v -0.00019610 0.48975855 -0.00250000
v 0.00000000 0.48975000 -0.00250000
v 0.00019610 0.48975855 -0.00250000
v 0.00129055 0.49384308 -0.00250000
v 0.00112500 0.49394855 -0.00250000
v 0.00058234 0.49417335 -0.00250000
v 0.00039071 0.49421582 -0.00250000
v 0.00019610 0.49424145 -0.00250000
v 0.00000000 0.49425000 -0.00250000
v -0.00019610 0.49424145 -0.00250000
v -0.00039071 0.49421582 -0.00250000
v -0.00095089 0.48996082 -0.00250000
v -0.00076955 0.48988569 -0.00250000
v -0.00172360 0.49055374 -0.00250000
v -0.00159099 0.49040902 -0.00250000
v -0.00144627 0.49027640 -0.00250000
v 0.00039071 0.48978418 -0.00250000
v 0.00058234 0.48982668 -0.00250000
v 0.00076955 0.48988569 -0.00250000
v 0.00095089 0.49403918 -0.00250000
v 0.00076955 0.49411431 -0.00250000
v -0.00058234 0.49417335 -0.00250000
v -0.00076955 0.49411431 -0.00250000
v -0.00095089 0.49403918 -0.00250000
v -0.00112500 0.49394855 -0.00250000
v -0.00129055 0.49384308 -0.00250000
v -0.00144627 0.49372360 -0.00250000
v 0.00095089 0.48996082 -0.00250000
v 0.00112500 0.49005145 -0.00250000
v 0.00129055 0.49015692 -0.00250000
v -0.00221582 0.49160931 -0.00250000
v -0.00224144 0.49180391 -0.00250000
v -0.00225000 0.49200001 -0.00250000
v -0.00217333 0.49141765 -0.00250000
v -0.00211431 0.49123046 -0.00250000
v -0.00203919 0.49104911 -0.00250000
v -0.00159099 0.49359098 -0.00250000
v -0.00172360 0.49344626 -0.00250000
v -0.00184309 0.49329054 -0.00250000
v -0.00194856 0.49087501 -0.00250000
v -0.00184309 0.49070945 -0.00250000
v 0.00172360 0.49344626 -0.00250000
v 0.00159099 0.49359098 -0.00250000
v 0.00144627 0.49372360 -0.00250000
v -0.00211431 0.49276954 -0.00250000
v -0.00217333 0.49258235 -0.00250000
v -0.00221582 0.49239072 -0.00250000
v -0.00224144 0.49219611 -0.00250000
v -0.00194856 0.49312499 -0.00250000
v -0.00203919 0.49295089 -0.00250000
v 0.00144627 0.49027640 -0.00250000
v 0.00159099 0.49040902 -0.00250000
v 0.00172360 0.49055374 -0.00250000
v 0.00184309 0.49070945 -0.00250000
v 0.00194856 0.49087501 -0.00250000
v 0.00203919 0.49104911 -0.00250000
v 0.00211431 0.49123046 -0.00250000
v 0.00217333 0.49141765 -0.00250000
v 0.00221582 0.49160931 -0.00250000
v 0.00221582 0.49239072 -0.00250000
v 0.00217333 0.49258235 -0.00250000
v 0.00211431 0.49276954 -0.00250000
v 0.00203919 0.49295089 -0.00250000
v 0.00194856 0.49312499 -0.00250000
v 0.00184309 0.49329054 -0.00250000
v 0.00224144 0.49180391 -0.00250000
v 0.00225000 0.49200001 -0.00250000
v 0.00224144 0.49219611 -0.00250000
v -0.01724144 0.50680387 -0.00250000
v -0.01721582 0.50660932 -0.00250000
v -0.01684309 0.50570947 -0.00250000
v -0.01694856 0.50587499 -0.00250000
v -0.01703919 0.50604910 -0.00250000
v -0.01672360 0.50555372 -0.00250000
v -0.01659099 0.50540900 -0.00250000
v -0.01644627 0.50527638 -0.00250000
v -0.01595089 0.50496083 -0.00250000
v -0.01576954 0.50488567 -0.00250000
v -0.01558234 0.50482666 -0.00250000
v -0.01629055 0.50515693 -0.00250000
v -0.01612500 0.50505143 -0.00250000
v -0.01539071 0.50478417 -0.00250000
v -0.01519610 0.50475854 -0.00250000
v -0.01500000 0.50475001 -0.00250000
v -0.01480390 0.50475854 -0.00250000
v -0.01460929 0.50478417 -0.00250000
v -0.01441766 0.50482666 -0.00250000
v -0.01423045 0.50488567 -0.00250000
v -0.01725000 0.50700003 -0.00250000
v -0.01724144 0.50719613 -0.00250000
v -0.01717333 0.50641763 -0.00250000
v -0.01711431 0.50623047 -0.00250000
v -0.01327640 0.50844628 -0.00250000
v -0.01340901 0.50859100 -0.00250000
v -0.01355373 0.50872362 -0.00250000
v -0.01404911 0.50903916 -0.00250000
v -0.01423045 0.50911433 -0.00250000
v -0.01441766 0.50917333 -0.00250000
v -0.01460929 0.50921583 -0.00250000
v -0.01595089 0.50903916 -0.00250000
v -0.01612500 0.50894856 -0.00250000
v -0.01629055 0.50884306 -0.00250000
v -0.01644627 0.50872362 -0.00250000
v -0.01370945 0.50884306 -0.00250000
v -0.01387500 0.50894856 -0.00250000
v -0.01480390 0.50924146 -0.00250000
v -0.01500000 0.50924999 -0.00250000
v -0.01519610 0.50924146 -0.00250000
v -0.01539071 0.50921583 -0.00250000
v -0.01558234 0.50917333 -0.00250000
v -0.01576954 0.50911433 -0.00250000
v -0.01659099 0.50859100 -0.00250000
v -0.01672360 0.50844628 -0.00250000
v -0.01684309 0.50829053 -0.00250000
v -0.01694856 0.50812501 -0.00250000
v -0.01703919 0.50795090 -0.00250000
v -0.01711431 0.50776953 -0.00250000
v -0.01717333 0.50758237 -0.00250000
v -0.01721582 0.50739074 -0.00250000
v -0.01404911 0.50496083 -0.00250000
v -0.01387500 0.50505143 -0.00250000
v -0.01370945 0.50515693 -0.00250000
v -0.01355373 0.50527638 -0.00250000
v -0.01340901 0.50540900 -0.00250000
v -0.01327640 0.50555372 -0.00250000
v -0.01296081 0.50795090 -0.00250000
v -0.01305144 0.50812501 -0.00250000
v -0.01315691 0.50829053 -0.00250000
v -0.01315691 0.50570947 -0.00250000
v -0.01305144 0.50587499 -0.00250000
v -0.01296081 0.50604910 -0.00250000
v -0.01278418 0.50739074 -0.00250000
v -0.01282667 0.50758237 -0.00250000
v -0.01288569 0.50776953 -0.00250000
v -0.01288569 0.50623047 -0.00250000
v -0.01282667 0.50641763 -0.00250000
v -0.01278418 0.50660932 -0.00250000
v -0.01275856 0.50680387 -0.00250000
v -0.01275000 0.50700003 -0.00250000
v -0.01275856 0.50719613 -0.00250000
f 1 2 3
f 2 4 3
f 3 4 5
f 4 6 5
f 5 6 7
f 6 8 7
f 7 8 9
f 8 10 9
f 9 10 11
f 10 12 11
f 11 12 13
f 12 14 13
f 13 14 15
f 14 16 15
f 15 16 17
f 16 18 17
f 17 18 19
f 18 20 19
f 19 20 21
f 20 22 21
f 21 22 23
f 22 24 23
f 23 24 25
f 24 26 25
f 25 26 27
f 26 28 27
f 27 28 29
f 28 30 29
f 29 30 31
f 30 32 31
f 31 32 33
f 32 34 33
f 33 34 35
f 34 36 35
f 35 36 37
f 36 38 37
f 37 38 39
f 38 40 39
f 39 40 41
f 40 42 41
f 41 42 43
f 42 44 43
f 43 44 45
f 44 46 45
f 45 46 47
f 46 48 47
f 47 48 49
f 48 50 49
f 49 50 51
f 50 52 51
f 51 52 53
f 52 54 53
f 53 54 55
f 54 56 55
f 55 56 57
f 56 58 57
f 57 58 59
f 58 60 59
f 59 60 61
f 60 62 61
f 61 62 63
f 62 64 63
f 63 64 65
f 64 66 65
f 67 68 69
f 67 69 70
f 69 71 70
f 70 71 72
f 71 73 72
f 72 73 74
f 73 75 74
f 74 75 76
f 75 77 76
f 76 77 78
f 77 79 78
f 78 79 80
f 79 81 80
f 80 81 82
f 81 83 82
f 82 83 84
f 83 85 84
f 84 85 86
f 85 87 86
f 86 87 88
f 89 90 91
f 90 92 91
f 91 92 93
f 92 94 93
f 93 94 95
f 94 96 95
f 95 96 97
f 96 98 97
f 97 98 99
f 98 100 99
f 99 100 101
f 100 102 101
f 101 102 103
f 102 104 103
f 103 104 105
f 104 106 105
f 105 106 107
f 106 108 107
f 107 108 109
f 108 110 109
f 109 110 111
f 110 112 111
f 111 112 113
f 112 114 113
f 113 114 115
f 114 116 115
f 115 116 117
f 116 118 117
f 117 118 119
f 118 120 119
f 119 120 121
f 120 122 121
f 121 122 123
f 122 124 123
f 123 124 125
f 124 126 125
f 125 126 127
f 126 128 127
f 127 128 129
f 128 130 129
f 129 130 131
f 130 132 131
f 131 132 133
f 132 134 133
f 133 134 135
f 134 136 135
f 135 136 137
f 136 138 137
f 137 138 139
f 138 140 139
f 139 140 141
f 140 142 141
f 141 142 143
f 142 144 143
f 143 144 145
f 144 146 145
f 145 146 147
f 146 148 147
f 147 148 149
f 148 150 149
f 149 150 151
f 150 152 151
f 151 152 153
f 152 154 153
f 153 154 155
f 154 156 155
f 155 156 157
f 156 158 157
f 157 158 159
f 158 160 159
f 159 160 161
f 160 162 161
f 161 162 163
f 162 164 163
f 163 164 165
f 164 166 165
f 165 166 167
f 166 168 167
f 167 168 169
f 168 170 169
f 169 170 171
f 170 172 171
f 171 172 173
f 172 174 173
f 173 174 175
f 174 176 175
f 175 176 177
f 176 178 177
f 177 178 179
f 178 180 179
f 179 180 181
f 180 182 181
f 181 182 183
f 182 184 183
f 183 184 185
f 184 186 185
f 185 186 187
f 186 188 187
f 187 188 189
f 188 190 189
f 189 190 191
f 190 192 191
f 191 192 193
f 192 194 193
f 193 194 195
f 194 196 195
f 195 196 197
f 196 198 197
f 197 198 199
f 198 200 199
f 199 200 201
f 200 202 201
f 201 202 203
f 202 204 203
f 203 204 205
f 204 206 205
f 205 206 207
f 206 208 207
f 207 208 209
f 208 210 209
f 209 210 211
f 210 212 211
f 211 212 213
f 212 214 213
f 213 214 215
f 214 216 215
f 215 216 217
f 216 218 217
f 217 218 219
f 218 220 219
f 219 220 221
f 220 222 221
f 221 222 223
f 222 224 223
f 223 224 225
f 224 226 225
f 225 226 227
f 226 228 227
f 227 228 229
f 228 230 229
f 229 230 231
f 230 232 231
f 231 232 89
f 232 90 89
f 233 234 235
f 234 236 235
f 235 236 237
f 236 238 237
f 237 238 239
f 238 240 239
f 239 240 241
f 240 242 241
f 241 242 243
f 242 244 243
f 243 244 245
f 244 246 245
f 245 246 247
f 246 248 247
f 249 250 251
f 249 251 252
f 251 253 252
f 252 253 254
f 253 255 254
f 254 255 256
f 255 257 256
f 256 257 258
f 257 259 258
f 258 259 260
f 259 261 260
f 260 261 262
f 261 263 262
f 262 263 264
f 263 265 264
f 264 265 266
f 265 267 266
f 266 267 268
f 267 269 268
f 268 269 270
f 269 271 270
f 270 271 272
f 271 273 272
f 272 273 274
f 273 275 274
f 274 275 276
f 275 277 276
f 276 277 278
f 277 279 278
f 278 279 280
f 279 281 280
f 280 281 282
f 281 283 282
f 282 283 284
f 283 285 284
f 284 285 286
f 285 287 286
f 286 287 288
f 287 289 288
f 288 289 290
f 289 291 290
f 290 291 292
f 291 293 292
f 292 293 294
f 293 295 294
f 294 295 296
f 295 297 296
f 296 297 298
f 297 299 298
f 298 299 300
f 299 301 300
f 300 301 302
f 301 303 302
f 302 303 304
f 303 305 304
f 304 305 306
f 305 307 306
f 306 307 308
f 307 309 308
f 308 309 310
f 309 311 310
f 310 311 312
f 311 234 312
f 312 234 233
f 313 314 315
f 314 316 315
f 315 316 317
f 316 318 317
f 317 318 319
f 318 320 319
f 319 320 321
f 320 322 321
f 321 322 323
f 322 324 323
f 323 324 325
f 324 326 325
f 325 326 327
f 326 328 327
f 327 328 249
f 328 250 249
f 329 330 1
f 330 2 1
f 247 248 331
f 247 331 332
f 331 333 332
f 332 333 334
f 333 335 334
f 334 335 336
f 335 337 336
f 336 337 338
f 337 339 338
f 338 339 340
f 339 341 340
f 340 341 342
f 341 343 342
f 342 343 344
f 343 345 344
f 344 345 346
f 345 347 346
f 346 347 348
f 347 349 348
f 348 349 350
f 349 351 350
f 350 351 352
f 351 353 352
f 352 353 354
f 353 355 354
f 354 355 356
f 355 357 356
f 356 357 358
f 357 359 358
f 358 359 360
f 359 361 360
f 360 361 362
f 361 363 362
f 362 363 364
f 363 365 364
f 364 365 366
f 365 367 366
f 366 367 368
f 367 369 368
f 368 369 370
f 369 371 370
f 370 371 372
f 371 373 372
f 372 373 374
f 373 375 374
f 374 375 376
f 375 377 376
f 376 377 378
f 377 379 378
f 378 379 380
f 379 381 380
f 380 381 382
f 381 383 382
f 382 383 384
f 383 385 384
f 384 385 386
f 385 387 386
f 386 387 388
f 387 389 388
f 388 389 390
f 389 391 390
f 390 391 392
f 391 393 392
f 392 393 394
f 393 395 394
f 394 395 396
f 395 397 396
f 396 397 398
f 397 399 398
f 398 399 400
f 399 401 400
f 400 401 402
f 401 403 402
f 402 403 404
f 403 405 404
f 404 405 406
f 405 407 406
f 406 407 408
f 407 409 408
f 408 409 410
f 409 314 410
f 410 314 313
f 360 362 411
f 296 298 412
f 237 413 235
f 217 219 260
f 93 327 91
f 327 89 91
f 97 99 414
f 260 219 258
f 219 221 258
f 258 221 256
f 221 223 256
f 256 223 254
f 223 225 254
f 254 225 252
f 225 227 252
f 252 227 249
f 227 229 249
f 249 229 327
f 229 231 327
f 327 231 89
f 97 414 95
f 115 117 415
f 107 109 415
f 99 101 414
f 101 103 414
f 414 103 415
f 103 105 415
f 415 105 107
f 109 111 415
f 111 113 415
f 415 113 115
f 117 119 415
f 119 121 415
f 415 121 123
f 199 201 412
f 201 203 412
f 412 203 205
f 123 125 415
f 125 127 415
f 415 127 413
f 127 129 413
f 413 129 131
f 191 193 298
f 193 195 298
f 298 195 412
f 195 197 412
f 412 197 199
f 183 185 298
f 205 207 412
f 207 209 412
f 412 209 211
f 211 213 412
f 213 215 412
f 412 215 217
f 131 133 413
f 133 135 413
f 413 135 137
f 185 187 298
f 187 189 298
f 298 189 191
f 137 139 413
f 139 141 413
f 413 141 143
f 143 145 413
f 145 147 413
f 413 147 149
f 149 151 413
f 151 153 413
f 413 153 235
f 153 155 235
f 155 157 235
f 235 157 159
f 159 161 235
f 161 163 235
f 235 163 233
f 163 165 233
f 233 165 312
f 165 167 312
f 312 167 310
f 167 169 310
f 310 169 308
f 169 171 308
f 308 171 306
f 171 173 306
f 306 173 304
f 173 175 304
f 304 175 302
f 175 177 302
f 302 177 300
f 177 179 300
f 300 179 298
f 179 181 298
f 298 181 183
f 416 417 245
f 417 418 245
f 245 418 419
f 420 421 247
f 421 422 247
f 247 422 245
f 422 423 245
f 245 423 416
f 419 424 245
f 424 425 245
f 245 425 426
f 426 427 428
f 427 429 428
f 429 430 428
f 428 430 431
f 431 432 428
f 432 433 428
f 428 433 434
f 344 435 436
f 342 344 437
f 438 439 334
f 439 440 334
f 334 440 332
f 440 441 332
f 441 442 332
f 442 443 332
f 332 443 247
f 443 444 247
f 247 444 420
f 436 445 344
f 445 446 344
f 344 446 437
f 447 448 449
f 448 450 449
f 450 451 449
f 451 452 449
f 449 452 344
f 452 453 344
f 344 453 435
f 340 454 338
f 454 455 338
f 455 456 338
f 456 457 338
f 338 457 336
f 457 458 336
f 336 458 459
f 460 461 449
f 461 462 449
f 449 462 447
f 437 463 342
f 463 464 342
f 342 464 340
f 464 465 340
f 340 465 454
f 459 466 336
f 466 467 336
f 336 467 334
f 467 468 334
f 334 468 438
f 428 469 470
f 471 472 449
f 472 473 449
f 434 474 428
f 474 475 428
f 428 475 469
f 470 476 428
f 476 477 428
f 428 477 478
f 473 479 449
f 479 480 449
f 449 480 460
f 478 481 428
f 481 482 428
f 428 482 483
f 483 484 428
f 484 485 428
f 428 485 449
f 485 486 449
f 449 486 487
f 487 488 449
f 488 489 449
f 449 489 471
f 426 428 245
f 428 490 245
f 245 490 243
f 491 492 493
f 492 494 493
f 494 495 493
f 495 496 493
f 493 496 497
f 68 498 499
f 498 500 499
f 499 500 501
f 501 502 499
f 502 503 499
f 499 503 493
f 503 504 493
f 493 504 491
f 497 505 493
f 505 506 493
f 493 506 507
f 507 508 493
f 508 509 493
f 493 509 510
f 510 511 493
f 511 512 493
f 493 512 513
f 514 239 493
f 239 241 493
f 493 241 243
f 513 515 493
f 515 516 493
f 493 516 514
f 514 517 239
f 517 66 239
f 239 66 237
f 286 288 412
f 288 290 412
f 290 292 412
f 292 294 412
f 412 294 296
f 274 276 412
f 276 278 412
f 412 278 280
f 280 282 412
f 282 284 412
f 412 284 286
f 260 262 217
f 262 264 217
f 217 264 412
f 264 266 412
f 412 266 268
f 268 270 412
f 270 272 412
f 412 272 274
f 518 519 520
f 519 521 520
f 522 523 520
f 523 524 520
f 520 524 518
f 521 525 520
f 525 526 520
f 520 526 527
f 527 528 520
f 528 529 520
f 520 529 530
f 529 531 530
f 530 531 532
f 532 533 530
f 533 534 530
f 530 534 535
f 321 323 520
f 323 536 520
f 520 536 537
f 520 538 539
f 93 95 327
f 95 414 327
f 327 414 325
f 414 323 325
f 537 540 520
f 540 541 520
f 520 541 538
f 539 542 520
f 542 543 520
f 520 543 522
f 544 319 321
f 408 410 545
f 410 313 545
f 545 313 546
f 313 315 546
f 546 315 317
f 545 400 402
f 402 404 545
f 404 406 545
f 545 406 408
f 400 545 398
f 545 547 398
f 398 547 396
f 388 390 548
f 390 392 548
f 548 392 547
f 392 394 547
f 547 394 396
f 380 382 549
f 382 384 549
f 549 384 548
f 384 386 548
f 548 386 388
f 550 551 411
f 551 552 411
f 553 411 554
f 411 555 554
f 552 556 411
f 556 557 411
f 411 557 555
f 553 558 411
f 558 559 411
f 411 559 560
f 561 562 563
f 411 564 565
f 560 566 411
f 566 567 411
f 411 567 561
f 567 568 561
f 561 568 562
f 563 569 561
f 569 570 561
f 561 570 571
f 572 573 374
f 573 574 374
f 374 574 372
f 574 575 372
f 575 576 372
f 576 577 372
f 372 577 370
f 577 578 370
f 370 578 579
f 565 580 411
f 580 581 411
f 411 581 550
f 579 582 370
f 582 583 370
f 370 583 368
f 583 584 368
f 368 584 585
f 585 586 368
f 586 587 368
f 368 587 366
f 362 364 588
f 588 589 362
f 589 590 362
f 362 590 591
f 571 592 561
f 592 593 561
f 561 593 594
f 594 595 561
f 595 596 561
f 561 596 597
f 376 598 374
f 598 599 374
f 374 599 572
f 587 600 366
f 600 601 366
f 366 601 364
f 601 602 364
f 364 602 588
f 362 603 411
f 603 604 411
f 411 604 564
f 605 606 376
f 606 607 376
f 591 608 362
f 608 609 362
f 362 609 603
f 607 610 376
f 610 611 376
f 376 611 598
f 597 612 561
f 612 613 561
f 561 613 614
f 614 615 561
f 615 616 561
f 561 616 617
f 618 619 376
f 619 620 376
f 380 549 378
f 549 561 378
f 378 561 376
f 561 617 376
f 376 617 618
f 620 621 376
f 621 622 376
f 376 622 605
f 352 354 623
f 354 356 623
f 623 356 411
f 356 358 411
f 411 358 360
f 344 346 449
f 346 348 449
f 449 348 623
f 348 350 623
f 623 350 352
f 449 624 625
f 625 626 449
f 626 627 449
f 449 627 628
f 629 630 428
f 630 631 428
f 428 631 632
f 628 633 449
f 633 634 449
f 449 634 428
f 634 635 428
f 428 635 629
f 636 637 411
f 638 561 639
f 561 640 639
f 637 641 411
f 641 642 411
f 411 642 643
f 643 644 411
f 644 645 411
f 411 645 623
f 645 646 623
f 623 646 449
f 646 647 449
f 449 647 624
f 638 648 561
f 648 649 561
f 561 649 411
f 649 650 411
f 411 650 636
f 549 651 652
f 652 653 549
f 653 654 549
f 549 654 561
f 654 655 561
f 561 655 640
f 656 657 658
f 656 658 659
f 660 661 547
f 661 662 547
f 547 662 548
f 662 663 548
f 548 663 549
f 663 664 549
f 549 664 651
f 665 666 547
f 666 667 547
f 657 668 658
f 668 669 658
f 658 669 670
f 667 671 547
f 671 672 547
f 547 672 660
f 673 674 544
f 674 675 544
f 544 675 658
f 675 676 658
f 658 676 659
f 677 678 673
f 678 679 673
f 673 679 680
f 680 681 673
f 681 682 673
f 673 682 674
f 683 684 677
f 684 685 677
f 686 687 688
f 687 689 688
f 688 689 690
f 685 691 677
f 691 692 677
f 677 692 678
f 693 694 688
f 694 695 688
f 688 695 686
f 632 696 428
f 696 697 428
f 428 697 490
f 697 698 490
f 490 698 688
f 698 699 688
f 688 699 693
f 73 71 499
f 71 69 499
f 499 69 68
f 81 79 700
f 79 77 700
f 700 77 75
f 535 87 530
f 87 85 530
f 530 85 700
f 85 83 700
f 700 83 81
f 16 14 414
f 14 12 414
f 12 10 414
f 10 8 414
f 414 8 6
f 6 4 414
f 4 2 414
f 414 2 323
f 2 330 323
f 323 330 536
f 34 32 415
f 32 30 415
f 50 48 413
f 30 28 415
f 28 26 415
f 415 26 24
f 24 22 415
f 22 20 415
f 415 20 414
f 20 18 414
f 414 18 16
f 42 40 413
f 40 38 413
f 413 38 415
f 38 36 415
f 415 36 34
f 48 46 413
f 46 44 413
f 413 44 42
f 237 66 413
f 66 64 413
f 413 64 62
f 62 60 413
f 60 58 413
f 413 58 56
f 56 54 413
f 54 52 413
f 413 52 50
f 701 702 546
f 703 704 658
f 704 705 658
f 705 706 658
f 706 707 658
f 658 707 708
f 546 709 710
f 711 712 658
f 712 713 658
f 714 715 658
f 715 716 658
f 658 716 703
f 319 544 317
f 544 658 317
f 317 658 546
f 658 708 546
f 546 708 709
f 710 717 546
f 717 718 546
f 546 718 701
f 719 720 547
f 720 721 547
f 721 722 547
f 722 723 547
f 547 723 724
f 725 547 726
f 547 727 726
f 713 728 658
f 728 729 658
f 658 729 714
f 546 730 731
f 732 733 545
f 733 734 545
f 734 735 545
f 735 736 545
f 545 736 547
f 736 737 547
f 547 737 719
f 724 738 547
f 738 739 547
f 547 739 727
f 740 658 741
f 658 742 741
f 740 743 658
f 743 744 658
f 658 744 711
f 702 745 546
f 745 746 546
f 546 746 730
f 747 748 545
f 748 749 545
f 545 749 750
f 750 751 545
f 751 752 545
f 545 752 732
f 725 753 547
f 753 754 547
f 547 754 755
f 670 665 658
f 665 547 658
f 658 547 742
f 547 756 742
f 731 757 546
f 757 758 546
f 546 758 759
f 755 760 547
f 760 761 547
f 547 761 756
f 759 762 546
f 762 763 546
f 546 763 764
f 765 545 766
f 545 767 766
f 765 768 545
f 768 769 545
f 545 769 747
f 764 770 546
f 770 771 546
f 546 771 545
f 771 772 545
f 545 772 767
f 773 774 499
f 499 775 776
f 776 777 499
f 777 700 499
f 499 700 73
f 700 75 73
f 774 778 499
f 778 779 499
f 499 779 775
f 688 780 781
f 782 783 499
f 783 784 499
f 499 784 773
f 785 786 677
f 786 787 677
f 677 787 788
f 690 683 688
f 683 677 688
f 688 677 780
f 677 788 780
f 777 789 700
f 789 790 700
f 700 790 791
f 792 793 677
f 781 794 688
f 794 795 688
f 688 795 796
f 796 797 688
f 797 798 688
f 688 798 799
f 800 499 801
f 499 802 801
f 800 803 499
f 803 804 499
f 499 804 805
f 805 806 499
f 806 807 499
f 499 807 782
f 793 808 677
f 808 809 677
f 677 809 785
f 799 810 688
f 810 811 688
f 688 811 812
f 791 813 700
f 813 814 700
f 700 814 815
f 816 817 688
f 817 818 688
f 688 818 819
f 815 820 700
f 820 821 700
f 700 821 822
f 812 823 688
f 823 824 688
f 688 824 816
f 243 490 493
f 490 688 493
f 493 688 499
f 688 819 499
f 499 819 802
f 822 825 700
f 825 826 700
f 700 826 827
f 828 829 700
f 830 831 677
f 831 832 677
f 677 832 792
f 827 833 700
f 833 834 700
f 700 834 828
f 835 836 677
f 836 837 677
f 837 838 677
f 677 838 839
f 829 840 700
f 840 841 700
f 700 841 842
f 839 843 677
f 843 844 677
f 677 844 830
f 321 520 544
f 520 530 544
f 544 530 673
f 530 700 673
f 673 700 677
f 700 842 677
f 677 842 835
f 377 375 845
f 846 847 375
f 848 849 850
f 273 271 851
f 326 852 328
f 322 853 324
f 328 94 92
f 102 100 852
f 100 98 852
f 852 98 328
f 98 96 328
f 328 96 94
f 265 263 218
f 263 261 218
f 218 261 220
f 261 259 220
f 220 259 222
f 259 257 222
f 222 257 224
f 257 255 224
f 224 255 226
f 255 253 226
f 226 253 228
f 253 251 228
f 228 251 230
f 251 250 230
f 230 250 232
f 250 328 232
f 232 328 90
f 328 92 90
f 208 206 851
f 206 204 851
f 851 204 202
f 202 200 851
f 200 198 851
f 851 198 297
f 265 218 851
f 218 216 851
f 851 216 214
f 214 212 851
f 212 210 851
f 851 210 208
f 198 196 297
f 196 194 297
f 297 194 192
f 136 134 854
f 122 855 124
f 855 126 124
f 122 120 855
f 120 118 855
f 855 118 116
f 134 132 854
f 132 130 854
f 854 130 855
f 130 128 855
f 855 128 126
f 116 114 855
f 114 112 855
f 855 112 110
f 110 108 855
f 108 106 855
f 855 106 852
f 106 104 852
f 852 104 102
f 192 190 297
f 190 188 297
f 297 188 186
f 148 146 854
f 146 144 854
f 854 144 142
f 142 140 854
f 140 138 854
f 854 138 136
f 158 236 160
f 236 162 160
f 186 184 297
f 184 182 297
f 297 182 299
f 182 180 299
f 299 180 301
f 180 178 301
f 301 178 303
f 178 176 303
f 303 176 305
f 176 174 305
f 305 174 307
f 174 172 307
f 307 172 309
f 172 170 309
f 309 170 311
f 170 168 311
f 311 168 234
f 168 166 234
f 234 166 236
f 166 164 236
f 236 164 162
f 156 154 854
f 154 152 854
f 152 150 854
f 854 150 148
f 856 316 314
f 856 314 857
f 314 409 857
f 857 409 407
f 407 405 857
f 405 403 857
f 857 403 401
f 858 320 318
f 316 856 318
f 856 859 318
f 318 859 858
f 860 861 853
f 861 862 853
f 853 862 863
f 864 865 866
f 866 867 864
f 867 868 864
f 864 868 853
f 868 869 853
f 853 869 870
f 870 871 853
f 871 872 853
f 853 872 860
f 863 873 853
f 873 874 853
f 853 874 875
f 86 88 864
f 88 876 864
f 864 876 865
f 875 877 853
f 877 878 853
f 853 878 879
f 879 880 853
f 880 881 853
f 853 881 882
f 882 883 853
f 883 884 853
f 853 884 324
f 884 329 324
f 329 1 324
f 324 1 326
f 271 269 851
f 269 267 851
f 851 267 265
f 297 295 851
f 295 293 851
f 851 293 291
f 291 289 851
f 289 287 851
f 851 287 285
f 285 283 851
f 283 281 851
f 851 281 279
f 279 277 851
f 277 275 851
f 851 275 273
f 885 886 887
f 888 889 887
f 889 890 887
f 887 890 891
f 891 892 887
f 892 893 887
f 887 893 885
f 894 895 887
f 896 897 898
f 897 899 898
f 898 899 900
f 901 902 887
f 902 903 887
f 887 903 888
f 900 904 898
f 904 67 898
f 898 67 70
f 158 156 236
f 156 854 236
f 236 854 238
f 854 240 238
f 895 905 887
f 905 906 887
f 887 906 901
f 240 907 887
f 907 908 887
f 908 909 887
f 909 910 887
f 887 910 894
f 911 912 246
f 913 914 915
f 914 916 915
f 913 917 914
f 917 918 914
f 914 918 919
f 920 921 914
f 921 922 914
f 922 923 914
f 923 924 914
f 914 924 925
f 246 926 927
f 919 928 914
f 928 929 914
f 914 929 920
f 240 887 242
f 887 930 242
f 242 930 244
f 930 914 244
f 244 914 246
f 914 925 246
f 246 925 926
f 927 931 246
f 931 932 246
f 246 932 911
f 849 933 914
f 933 934 914
f 935 343 936
f 343 937 936
f 934 938 914
f 938 939 914
f 914 939 916
f 341 940 343
f 940 941 343
f 343 941 937
f 935 942 343
f 942 943 343
f 343 943 850
f 943 944 850
f 850 944 945
f 945 946 850
f 946 947 850
f 850 947 948
f 948 949 850
f 949 950 850
f 850 950 951
f 337 952 953
f 951 954 850
f 954 955 850
f 850 955 956
f 956 957 850
f 957 958 850
f 850 958 959
f 912 960 246
f 960 961 246
f 246 961 248
f 961 962 248
f 248 962 963
f 337 953 339
f 953 964 339
f 964 965 339
f 339 965 341
f 965 966 341
f 341 966 940
f 959 967 850
f 967 968 850
f 850 968 848
f 969 970 335
f 970 971 335
f 335 971 337
f 971 972 337
f 337 972 952
f 963 973 248
f 973 974 248
f 248 974 331
f 974 975 331
f 975 976 331
f 976 977 331
f 331 977 333
f 977 978 333
f 333 978 979
f 979 980 333
f 980 981 333
f 333 981 335
f 981 982 335
f 335 982 969
f 983 347 850
f 347 345 850
f 850 345 343
f 353 351 983
f 351 349 983
f 983 349 347
f 361 359 984
f 359 357 984
f 984 357 983
f 357 355 983
f 983 355 353
f 985 986 984
f 987 988 845
f 989 990 845
f 990 991 845
f 988 992 845
f 992 993 845
f 845 993 994
f 991 995 845
f 995 996 845
f 845 996 987
f 994 997 845
f 997 998 845
f 845 998 984
f 998 999 984
f 984 999 985
f 1000 1001 367
f 1001 1002 367
f 367 1002 369
f 1002 1003 369
f 369 1003 1004
f 1005 371 1006
f 371 369 1006
f 1006 369 1007
f 369 1004 1007
f 1008 375 1009
f 375 373 1009
f 1009 373 1010
f 373 1011 1010
f 1008 1012 375
f 1012 1013 375
f 375 1013 1014
f 1014 1015 375
f 1015 1016 375
f 375 1016 1017
f 375 847 845
f 847 1018 845
f 845 1018 1019
f 1020 1021 845
f 1021 1022 845
f 845 1022 989
f 1023 1024 361
f 1005 1025 371
f 1025 1026 371
f 371 1026 373
f 1026 1027 373
f 373 1027 1011
f 1019 1028 845
f 1028 1029 845
f 845 1029 1020
f 986 1030 984
f 1030 1031 984
f 984 1031 1032
f 361 1024 363
f 365 1033 367
f 1033 1034 367
f 367 1034 1000
f 1017 1035 375
f 1035 1036 375
f 375 1036 846
f 1032 1037 984
f 1037 1038 984
f 984 1038 1039
f 1024 1040 363
f 1040 1041 363
f 363 1041 365
f 1041 1042 365
f 365 1042 1033
f 1039 1043 984
f 1043 1044 984
f 984 1044 1045
f 1046 1047 361
f 1047 1048 361
f 361 1048 1023
f 1045 1049 984
f 1049 1050 984
f 984 1050 1051
f 1051 1052 984
f 1052 1053 984
f 984 1053 361
f 1053 1054 361
f 361 1054 1046
f 381 379 1055
f 379 377 1055
f 389 387 1056
f 387 385 1056
f 1056 385 1055
f 385 383 1055
f 1055 383 381
f 1057 393 1056
f 393 391 1056
f 1056 391 389
f 401 399 857
f 399 397 857
f 857 397 1057
f 397 395 1057
f 1057 395 393
f 850 1058 1059
f 914 1060 1061
f 849 914 850
f 914 1062 850
f 850 1062 1063
f 1063 1064 850
f 1064 1065 850
f 850 1065 1058
f 1061 1066 914
f 1066 1067 914
f 914 1067 1068
f 1068 1069 914
f 1069 1070 914
f 914 1070 1062
f 1060 914 1071
f 914 930 1071
f 1071 930 1072
f 1073 1074 1075
f 1074 1076 1075
f 1075 1076 1077
f 1078 1079 1080
f 1079 1081 1080
f 1078 1082 1079
f 1082 1083 1079
f 1079 1083 1084
f 1084 1085 1079
f 1085 1086 1079
f 1079 1086 1072
f 1087 1088 1075
f 1088 1089 1075
f 1075 1089 1073
f 1090 1091 1087
f 1091 1092 1087
f 1087 1092 1088
f 1057 1093 1094
f 1095 1096 859
f 1096 1097 859
f 859 1097 858
f 1097 1098 858
f 858 1098 1087
f 1098 1099 1087
f 1087 1099 1090
f 1094 1100 1057
f 1100 1101 1057
f 1057 1101 1102
f 1103 1104 859
f 1104 1105 859
f 859 1105 1095
f 1102 1106 1057
f 1106 1107 1057
f 1057 1107 859
f 1107 1108 859
f 859 1108 1103
f 1055 1109 1056
f 1109 1110 1056
f 1056 1110 1057
f 1110 1111 1057
f 1057 1111 1093
f 1112 1113 1055
f 1113 1114 1055
f 1114 1115 1055
f 1055 1115 1109
f 377 845 1055
f 845 1116 1055
f 1055 1116 1112
f 1117 1118 984
f 1118 1119 984
f 1119 1120 984
f 1120 1121 984
f 984 1121 1122
f 1123 1124 845
f 1124 1125 845
f 845 1125 1116
f 1122 1126 984
f 1126 1127 984
f 984 1127 845
f 1127 1128 845
f 845 1128 1123
f 1059 1129 850
f 1129 1130 850
f 850 1130 983
f 1130 1131 983
f 983 1131 984
f 1131 1132 984
f 984 1132 1117
f 86 864 84
f 864 1133 84
f 84 1133 82
f 72 74 1133
f 74 76 1133
f 76 78 1133
f 78 80 1133
f 1133 80 82
f 23 25 855
f 23 855 21
f 25 27 855
f 27 29 855
f 855 29 31
f 31 33 855
f 33 35 855
f 855 35 854
f 35 37 854
f 37 39 854
f 39 41 854
f 854 41 43
f 43 45 854
f 45 47 854
f 854 47 49
f 49 51 854
f 51 53 854
f 854 53 55
f 55 57 854
f 57 59 854
f 854 59 61
f 61 63 854
f 63 65 854
f 854 65 240
f 65 1134 240
f 240 1134 907
f 5 7 852
f 7 9 852
f 9 11 852
f 852 11 13
f 13 15 852
f 15 17 852
f 852 17 855
f 17 19 855
f 855 19 21
f 326 1 852
f 1 3 852
f 852 3 5
f 1072 930 1079
f 930 887 1079
f 1079 887 898
f 887 886 898
f 898 886 896
f 1135 1136 1133
f 1137 1138 1133
f 1138 1139 1133
f 1133 1139 1140
f 70 72 898
f 72 1133 898
f 898 1133 1141
f 1133 1140 1141
f 1142 1143 1079
f 1079 1144 1145
f 1145 1146 1079
f 1146 1075 1079
f 1079 1075 1081
f 1075 1077 1081
f 1146 1147 1075
f 1147 1148 1075
f 1075 1148 1149
f 1136 1150 1133
f 1150 1151 1133
f 1133 1151 1137
f 1152 1153 1133
f 1153 1154 1133
f 1133 1154 1135
f 1141 1155 898
f 1155 1156 898
f 898 1156 1157
f 1143 1158 1079
f 1158 1159 1079
f 1079 1159 1144
f 1149 1160 1075
f 1160 1161 1075
f 1075 1161 1162
f 1162 1163 1075
f 1163 1164 1075
f 1075 1164 1165
f 1157 1166 898
f 1166 1167 898
f 898 1167 1168
f 1169 1133 1170
f 1133 1171 1170
f 1169 1172 1133
f 1172 1173 1133
f 1133 1173 1174
f 1165 1175 1075
f 1175 1176 1075
f 1075 1176 1177
f 1174 1178 1133
f 1178 1179 1133
f 1133 1179 1152
f 1180 1181 1079
f 1181 1182 1079
f 1079 1182 1142
f 1183 1184 1075
f 1184 1185 1075
f 1075 1185 1186
f 1177 1187 1075
f 1187 1188 1075
f 1075 1188 1183
f 1168 1189 898
f 1189 1190 898
f 898 1190 1191
f 1191 1192 898
f 1192 1193 898
f 898 1193 1194
f 1194 1195 898
f 1195 1196 898
f 898 1196 1197
f 1198 1199 1079
f 1199 1200 1079
f 1079 1200 1201
f 1201 1202 1079
f 1202 1203 1079
f 1079 1203 1180
f 1197 1204 898
f 1204 1205 898
f 898 1205 1079
f 1205 1206 1079
f 1079 1206 1198
f 322 320 853
f 320 858 853
f 853 858 864
f 858 1087 864
f 864 1087 1133
f 1087 1075 1133
f 1133 1075 1171
f 1075 1186 1171
f 1207 1208 856
f 1209 856 1210
f 856 1211 1210
f 1209 1212 856
f 1212 1213 856
f 856 1213 1214
f 1215 1216 856
f 1216 1217 856
f 1214 1218 856
f 1218 1219 856
f 856 1219 1215
f 1217 1220 856
f 1220 1221 856
f 856 1221 859
f 1221 1222 859
f 859 1222 1223
f 1223 1224 859
f 1224 1225 859
f 859 1225 1226
f 1207 856 1227
f 856 857 1227
f 1227 857 1228
f 1208 1229 856
f 1229 1230 856
f 856 1230 1211
f 1231 1232 1057
f 1232 1233 1057
f 1234 1235 1057
f 1235 1236 1057
f 1057 1236 1237
f 1238 1239 857
f 1239 1240 857
f 857 1240 1241
f 1233 1242 1057
f 1242 1243 1057
f 1057 1243 1234
f 1237 1244 1057
f 1244 1245 1057
f 1057 1245 857
f 1245 1246 857
f 857 1246 1247
f 1247 1248 857
f 1248 1249 857
f 857 1249 1238
f 1241 1250 857
f 1250 1251 857
f 857 1251 1252
f 1252 1253 857
f 1253 1254 857
f 857 1254 1255
f 1255 1256 857
f 1256 1257 857
f 857 1257 1228
f 1226 1258 859
f 1258 1259 859
f 859 1259 1260
f 1260 1261 859
f 1261 1262 859
f 859 1262 1263
f 1264 1265 1057
f 1265 1266 1057
f 1057 1266 1231
f 1263 1267 859
f 1267 1268 859
f 859 1268 1269
f 1270 1271 1057
f 1271 1272 1057
f 1057 1272 1264
f 1269 1273 859
f 1273 1274 859
f 859 1274 1275
f 1275 1276 859
f 1276 1277 859
f 859 1277 1057
f 1277 1278 1057
f 1057 1278 1270
f 1062 634 1063
f 634 633 1063
f 1063 633 1064
f 633 628 1064
f 1064 628 1065
f 628 627 1065
f 1065 627 1058
f 627 626 1058
f 1058 626 1059
f 626 625 1059
f 1059 625 1129
f 625 624 1129
f 1129 624 1130
f 624 647 1130
f 1130 647 1131
f 647 646 1131
f 1131 646 1132
f 646 645 1132
f 1132 645 1117
f 645 644 1117
f 1117 644 1118
f 644 643 1118
f 1118 643 1119
f 643 642 1119
f 1119 642 1120
f 642 641 1120
f 1120 641 1121
f 641 637 1121
f 1121 637 1122
f 637 636 1122
f 1122 636 1126
f 636 650 1126
f 1126 650 1127
f 650 649 1127
f 1127 649 1128
f 649 648 1128
f 1128 648 1123
f 648 638 1123
f 1123 638 1124
f 638 639 1124
f 1124 639 1125
f 639 640 1125
f 1125 640 1116
f 640 655 1116
f 1116 655 1112
f 655 654 1112
f 1112 654 1113
f 654 653 1113
f 1113 653 1114
f 653 652 1114
f 1114 652 1115
f 652 651 1115
f 1115 651 1109
f 651 664 1109
f 1109 664 1110
f 664 663 1110
f 1110 663 1111
f 663 662 1111
f 1111 662 1093
f 662 661 1093
f 1093 661 1094
f 661 660 1094
f 1094 660 1100
f 660 672 1100
f 1100 672 1101
f 672 671 1101
f 1101 671 1102
f 671 667 1102
f 1102 667 1106
f 667 666 1106
f 1106 666 1107
f 666 665 1107
f 1107 665 1108
f 665 670 1108
f 1108 670 1103
f 670 669 1103
f 1103 669 1104
f 669 668 1104
f 1104 668 1105
f 668 657 1105
f 1105 657 1095
f 657 656 1095
f 1095 656 1096
f 656 659 1096
f 1096 659 1097
f 659 676 1097
f 1097 676 1098
f 676 675 1098
f 1098 675 1099
f 675 674 1099
f 1099 674 1090
f 674 682 1090
f 1090 682 1091
f 682 681 1091
f 1091 681 1092
f 681 680 1092
f 1092 680 1088
f 680 679 1088
f 1088 679 1089
f 679 678 1089
f 1089 678 1073
f 678 692 1073
f 1073 692 1074
f 692 691 1074
f 1074 691 1076
f 691 685 1076
f 1076 685 1077
f 685 684 1077
f 1077 684 1081
f 684 683 1081
f 1081 683 1080
f 683 690 1080
f 1080 690 1078
f 690 689 1078
f 1078 689 1082
f 689 687 1082
f 1082 687 1083
f 687 686 1083
f 1083 686 1084
f 686 695 1084
f 1084 695 1085
f 695 694 1085
f 1085 694 1086
f 694 693 1086
f 1086 693 1072
f 693 699 1072
f 1072 699 1071
f 699 698 1071
f 1071 698 1060
f 698 697 1060
f 1060 697 1061
f 697 696 1061
f 1061 696 1066
f 696 632 1066
f 1066 632 1067
f 632 631 1067
f 1067 631 1068
f 631 630 1068
f 1068 630 1069
f 630 629 1069
f 1069 629 1070
f 629 635 1070
f 1070 635 1062
f 635 634 1062
f 980 438 981
f 438 468 981
f 981 468 982
f 468 467 982
f 982 467 969
f 467 466 969
f 969 466 970
f 466 459 970
f 970 459 971
f 459 458 971
f 971 458 972
f 458 457 972
f 972 457 952
f 457 456 952
f 952 456 953
f 456 455 953
f 953 455 964
f 455 454 964
f 964 454 965
f 454 465 965
f 965 465 966
f 465 464 966
f 966 464 940
f 464 463 940
f 940 463 941
f 463 437 941
f 941 437 937
f 437 446 937
f 937 446 936
f 446 445 936
f 936 445 935
f 445 436 935
f 935 436 942
f 436 435 942
f 942 435 943
f 435 453 943
f 943 453 944
f 453 452 944
f 944 452 945
f 452 451 945
f 945 451 946
f 451 450 946
f 946 450 947
f 450 448 947
f 947 448 948
f 448 447 948
f 948 447 949
f 447 462 949
f 949 462 950
f 462 461 950
f 950 461 951
f 461 460 951
f 951 460 954
f 460 480 954
f 954 480 955
f 480 479 955
f 955 479 956
f 479 473 956
f 956 473 957
f 473 472 957
f 957 472 958
f 472 471 958
f 958 471 959
f 471 489 959
f 959 489 967
f 489 488 967
f 967 488 968
f 488 487 968
f 968 487 848
f 487 486 848
f 848 486 849
f 486 485 849
f 849 485 933
f 485 484 933
f 933 484 934
f 484 483 934
f 934 483 938
f 483 482 938
f 938 482 939
f 482 481 939
f 939 481 916
f 481 478 916
f 916 478 915
f 478 477 915
f 915 477 913
f 477 476 913
f 913 476 917
f 476 470 917
f 917 470 918
f 470 469 918
f 918 469 919
f 469 475 919
f 919 475 928
f 475 474 928
f 928 474 929
f 474 434 929
f 929 434 920
f 434 433 920
f 920 433 921
f 433 432 921
f 921 432 922
f 432 431 922
f 922 431 923
f 431 430 923
f 923 430 924
f 430 429 924
f 924 429 925
f 429 427 925
f 925 427 926
f 427 426 926
f 926 426 927
f 426 425 927
f 927 425 931
f 425 424 931
f 931 424 932
f 424 419 932
f 932 419 911
f 419 418 911
f 911 418 912
f 418 417 912
f 912 417 960
f 417 416 960
f 960 416 961
f 416 423 961
f 961 423 962
f 423 422 962
f 962 422 963
f 422 421 963
f 963 421 973
f 421 420 973
f 973 420 974
f 420 444 974
f 974 444 975
f 444 443 975
f 975 443 976
f 443 442 976
f 976 442 977
f 442 441 977
f 977 441 978
f 441 440 978
f 978 440 979
f 440 439 979
f 979 439 980
f 439 438 980
f 1205 802 1206
f 802 819 1206
f 1206 819 1198
f 819 818 1198
f 1198 818 1199
f 818 817 1199
f 1199 817 1200
f 817 816 1200
f 1200 816 1201
f 816 824 1201
f 1201 824 1202
f 824 823 1202
f 1202 823 1203
f 823 812 1203
f 1203 812 1180
f 812 811 1180
f 1180 811 1181
f 811 810 1181
f 1181 810 1182
f 810 799 1182
f 1182 799 1142
f 799 798 1142
f 1142 798 1143
f 798 797 1143
f 1143 797 1158
f 797 796 1158
f 1158 796 1159
f 796 795 1159
f 1159 795 1144
f 795 794 1144
f 1144 794 1145
f 794 781 1145
f 1145 781 1146
f 781 780 1146
f 1146 780 1147
f 780 788 1147
f 1147 788 1148
f 788 787 1148
f 1148 787 1149
f 787 786 1149
f 1149 786 1160
f 786 785 1160
f 1160 785 1161
f 785 809 1161
f 1161 809 1162
f 809 808 1162
f 1162 808 1163
f 808 793 1163
f 1163 793 1164
f 793 792 1164
f 1164 792 1165
f 792 832 1165
f 1165 832 1175
f 832 831 1175
f 1175 831 1176
f 831 830 1176
f 1176 830 1177
f 830 844 1177
f 1177 844 1187
f 844 843 1187
f 1187 843 1188
f 843 839 1188
f 1188 839 1183
f 839 838 1183
f 1183 838 1184
f 838 837 1184
f 1184 837 1185
f 837 836 1185
f 1185 836 1186
f 836 835 1186
f 1186 835 1171
f 835 842 1171
f 1171 842 1170
f 842 841 1170
f 1170 841 1169
f 841 840 1169
f 1169 840 1172
f 840 829 1172
f 1172 829 1173
f 829 828 1173
f 1173 828 1174
f 828 834 1174
f 1174 834 1178
f 834 833 1178
f 1178 833 1179
f 833 827 1179
f 1179 827 1152
f 827 826 1152
f 1152 826 1153
f 826 825 1153
f 1153 825 1154
f 825 822 1154
f 1154 822 1135
f 822 821 1135
f 1135 821 1136
f 821 820 1136
f 1136 820 1150
f 820 815 1150
f 1150 815 1151
f 815 814 1151
f 1151 814 1137
f 814 813 1137
f 1137 813 1138
f 813 791 1138
f 1138 791 1139
f 791 790 1139
f 1139 790 1140
f 790 789 1140
f 1140 789 1141
f 789 777 1141
f 1141 777 1155
f 777 776 1155
f 1155 776 1156
f 776 775 1156
f 1156 775 1157
f 775 779 1157
f 1157 779 1166
f 779 778 1166
f 1166 778 1167
f 778 774 1167
f 1167 774 1168
f 774 773 1168
f 1168 773 1189
f 773 784 1189
f 1189 784 1190
f 784 783 1190
f 1190 783 1191
f 783 782 1191
f 1191 782 1192
f 782 807 1192
f 1192 807 1193
f 807 806 1193
f 1193 806 1194
f 806 805 1194
f 1194 805 1195
f 805 804 1195
f 1195 804 1196
f 804 803 1196
f 1196 803 1197
f 803 800 1197
f 1197 800 1204
f 800 801 1204
f 1204 801 1205
f 801 802 1205
f 1277 742 1278
f 742 756 1278
f 1278 756 1270
f 756 761 1270
f 1270 761 1271
f 761 760 1271
f 1271 760 1272
f 760 755 1272
f 1272 755 1264
f 755 754 1264
f 1264 754 1265
f 754 753 1265
f 1265 753 1266
f 753 725 1266
f 1266 725 1231
f 725 726 1231
f 1231 726 1232
f 726 727 1232
f 1232 727 1233
f 727 739 1233
f 1233 739 1242
f 739 738 1242
f 1242 738 1243
f 738 724 1243
f 1243 724 1234
f 724 723 1234
f 1234 723 1235
f 723 722 1235
f 1235 722 1236
f 722 721 1236
f 1236 721 1237
f 721 720 1237
f 1237 720 1244
f 720 719 1244
f 1244 719 1245
f 719 737 1245
f 1245 737 1246
f 737 736 1246
f 1246 736 1247
f 736 735 1247
f 1247 735 1248
f 735 734 1248
f 1248 734 1249
f 734 733 1249
f 1249 733 1238
f 733 732 1238
f 1238 732 1239
f 732 752 1239
f 1239 752 1240
f 752 751 1240
f 1240 751 1241
f 751 750 1241
f 1241 750 1250
f 750 749 1250
f 1250 749 1251
f 749 748 1251
f 1251 748 1252
f 748 747 1252
f 1252 747 1253
f 747 769 1253
f 1253 769 1254
f 769 768 1254
f 1254 768 1255
f 768 765 1255
f 1255 765 1256
f 765 766 1256
f 1256 766 1257
f 766 767 1257
f 1257 767 1228
f 767 772 1228
f 1228 772 1227
f 772 771 1227
f 1227 771 1207
f 771 770 1207
f 1207 770 1208
f 770 764 1208
f 1208 764 1229
f 764 763 1229
f 1229 763 1230
f 763 762 1230
f 1230 762 1211
f 762 759 1211
f 1211 759 1210
f 759 758 1210
f 1210 758 1209
f 758 757 1209
f 1209 757 1212
f 757 731 1212
f 1212 731 1213
f 731 730 1213
f 1213 730 1214
f 730 746 1214
f 1214 746 1218
f 746 745 1218
f 1218 745 1219
f 745 702 1219
f 1219 702 1215
f 702 701 1215
f 1215 701 1216
f 701 718 1216
f 1216 718 1217
f 718 717 1217
f 1217 717 1220
f 717 710 1220
f 1220 710 1221
f 710 709 1221
f 1221 709 1222
f 709 708 1222
f 1222 708 1223
f 708 707 1223
f 1223 707 1224
f 707 706 1224
f 1224 706 1225
f 706 705 1225
f 1225 705 1226
f 705 704 1226
f 1226 704 1258
f 704 703 1258
f 1258 703 1259
f 703 716 1259
f 1259 716 1260
f 716 715 1260
f 1260 715 1261
f 715 714 1261
f 1261 714 1262
f 714 729 1262
f 1262 729 1263
f 729 728 1263
f 1263 728 1267
f 728 713 1267
f 1267 713 1268
f 713 712 1268
f 1268 712 1269
f 712 711 1269
f 1269 711 1273
f 711 744 1273
f 1273 744 1274
f 744 743 1274
f 1274 743 1275
f 743 740 1275
f 1275 740 1276
f 740 741 1276
f 1276 741 1277
f 741 742 1277
f 1053 604 1054
f 604 603 1054
f 1054 603 1046
f 603 609 1046
f 1046 609 1047
f 609 608 1047
f 1047 608 1048
f 608 591 1048
f 1048 591 1023
f 591 590 1023
f 1023 590 1024
f 590 589 1024
f 1024 589 1040
f 589 588 1040
f 1040 588 1041
f 588 602 1041
f 1041 602 1042
f 602 601 1042
f 1042 601 1033
f 601 600 1033
f 1033 600 1034
f 600 587 1034
f 1034 587 1000
f 587 586 1000
f 1000 586 1001
f 586 585 1001
f 1001 585 1002
f 585 584 1002
f 1002 584 1003
f 584 583 1003
f 1003 583 1004
f 583 582 1004
f 1004 582 1007
f 582 579 1007
f 1007 579 1006
f 579 578 1006
f 1006 578 1005
f 578 577 1005
f 1005 577 1025
f 577 576 1025
f 1025 576 1026
f 576 575 1026
f 1026 575 1027
f 575 574 1027
f 1027 574 1011
f 574 573 1011
f 1011 573 1010
f 573 572 1010
f 1010 572 1009
f 572 599 1009
f 1009 599 1008
f 599 598 1008
f 1008 598 1012
f 598 611 1012
f 1012 611 1013
f 611 610 1013
f 1013 610 1014
f 610 607 1014
f 1014 607 1015
f 607 606 1015
f 1015 606 1016
f 606 605 1016
f 1016 605 1017
f 605 622 1017
f 1017 622 1035
f 622 621 1035
f 1035 621 1036
f 621 620 1036
f 1036 620 846
f 620 619 846
f 846 619 847
f 619 618 847
f 847 618 1018
f 618 617 1018
f 1018 617 1019
f 617 616 1019
f 1019 616 1028
f 616 615 1028
f 1028 615 1029
f 615 614 1029
f 1029 614 1020
f 614 613 1020
f 1020 613 1021
f 613 612 1021
f 1021 612 1022
f 612 597 1022
f 1022 597 989
f 597 596 989
f 989 596 990
f 596 595 990
f 990 595 991
f 595 594 991
f 991 594 995
f 594 593 995
f 995 593 996
f 593 592 996
f 996 592 987
f 592 571 987
f 987 571 988
f 571 570 988
f 988 570 992
f 570 569 992
f 992 569 993
f 569 563 993
f 993 563 994
f 563 562 994
f 994 562 997
f 562 568 997
f 997 568 998
f 568 567 998
f 998 567 999
f 567 566 999
f 999 566 985
f 566 560 985
f 985 560 986
f 560 559 986
f 986 559 1030
f 559 558 1030
f 1030 558 1031
f 558 553 1031
f 1031 553 1032
f 553 554 1032
f 1032 554 1037
f 554 555 1037
f 1037 555 1038
f 555 557 1038
f 1038 557 1039
f 557 556 1039
f 1039 556 1043
f 556 552 1043
f 1043 552 1044
f 552 551 1044
f 1044 551 1045
f 551 550 1045
f 1045 550 1049
f 550 581 1049
f 1049 581 1050
f 581 580 1050
f 1050 580 1051
f 580 565 1051
f 1051 565 1052
f 565 564 1052
f 1052 564 1053
f 564 604 1053
f 1134 517 907
f 517 514 907
f 907 514 908
f 514 516 908
f 908 516 909
f 516 515 909
f 909 515 910
f 515 513 910
f 910 513 894
f 513 512 894
f 894 512 895
f 512 511 895
f 895 511 905
f 511 510 905
f 905 510 906
f 510 509 906
f 906 509 901
f 509 508 901
f 901 508 902
f 508 507 902
f 902 507 903
f 507 506 903
f 903 506 888
f 506 505 888
f 888 505 889
f 505 497 889
f 889 497 890
f 497 496 890
f 890 496 891
f 496 495 891
f 891 495 892
f 495 494 892
f 892 494 893
f 494 492 893
f 893 492 885
f 492 491 885
f 885 491 886
f 491 504 886
f 886 504 896
f 504 503 896
f 896 503 897
f 503 502 897
f 897 502 899
f 502 501 899
f 899 501 900
f 501 500 900
f 900 500 904
f 500 498 904
f 904 498 67
f 498 68 67
f 66 517 65
f 517 1134 65
f 88 87 876
f 87 535 876
f 876 535 865
f 535 534 865
f 865 534 866
f 534 533 866
f 866 533 867
f 533 532 867
f 867 532 868
f 532 531 868
f 868 531 869
f 531 529 869
f 869 529 870
f 529 528 870
f 870 528 871
f 528 527 871
f 871 527 872
f 527 526 872
f 872 526 860
f 526 525 860
f 860 525 861
f 525 521 861
f 861 521 862
f 521 519 862
f 862 519 863
f 519 518 863
f 863 518 873
f 518 524 873
f 873 524 874
f 524 523 874
f 874 523 875
f 523 522 875
f 875 522 877
f 522 543 877
f 877 543 878
f 543 542 878
f 878 542 879
f 542 539 879
f 879 539 880
f 539 538 880
f 880 538 881
f 538 541 881
f 881 541 882
f 541 540 882
f 882 540 883
f 540 537 883
f 883 537 884
f 537 536 884
f 884 536 329
f 536 330 329

