# https://github.com/mikedh/trimesh

o tm25_235s_p11_clevis_hockey_stick.stl
v -0.01271752 0.07782203 0.30599999
v -0.01471752 0.07582203 0.30599999
v 0.00328248 0.07782203 0.30599999
v 0.00528248 0.07582203 0.30599999
v 0.00328248 0.10382203 0.30599999
v 0.00528248 0.10582203 0.30599999
v -0.01271752 0.10382203 0.30599999
v -0.01471752 0.10582203 0.30599999
v -0.01271752 0.10382203 0.00000000
v -0.01471752 0.10582203 0.00000000
v 0.00328248 0.10382203 0.00000000
v 0.00528248 0.10582203 0.00000000
v 0.00328248 0.07782203 0.00000000
v 0.00528248 0.07582203 0.00000000
v -0.01271752 0.07782203 0.00000000
v -0.01471752 0.07582203 0.00000000
f 1 2 3
f 2 4 3
f 3 4 5
f 4 6 5
f 5 6 7
f 6 8 7
f 7 8 1
f 8 2 1
f 9 10 11
f 10 12 11
f 11 12 13
f 12 14 13
f 13 14 15
f 14 16 15
f 15 16 9
f 16 10 9
f 3 13 1
f 13 15 1
f 11 13 5
f 13 3 5
f 12 10 6
f 10 8 6
f 4 14 6
f 14 12 6
f 10 16 8
f 16 2 8
f 2 16 4
f 16 14 4
f 1 15 7
f 15 9 7
f 9 11 7
f 11 5 7

