# https://github.com/mikedh/trimesh

o permanant_wrist_spacer.stl
v 0.04175000 0.01575000 -0.00187639
v 0.04175000 0.01575000 0.00187639
v 0.04175000 0.01025000 -0.00187639
v 0.04175000 0.01025000 0.00187639
v 0.04500000 0.01575000 0.00375278
v 0.04500000 0.01025000 0.00375278
v 0.01000000 -0.01575000 0.00375278
v 0.00675000 -0.01575000 0.00187639
v 0.01000000 -0.01025000 0.00375278
v 0.00675000 -0.01025000 0.00187639
v 0.00675000 -0.01575000 -0.00187639
v 0.00675000 -0.01025000 -0.00187639
v 0.00000000 -0.01573097 -0.01543578
v 0.00000000 -0.01575000 -0.01500000
v 0.00000000 -0.01025000 -0.01525000
v 0.00000000 -0.01573097 0.01543578
v 0.00000000 -0.01567404 0.01586824
v 0.00000000 -0.01025000 0.01525000
v 0.00000000 -0.01575000 0.01500000
v 0.00000000 -0.01396394 0.01883022
v 0.00000000 -0.01428553 0.01853553
v 0.00000000 -0.01458022 0.01821394
v 0.00000000 -0.01075000 -0.02000000
v 0.00000000 0.01075000 -0.02000000
v 0.00000000 0.01025000 -0.01525000
v 0.00000000 0.01118578 -0.01998097
v 0.00000000 0.01428553 -0.01853553
v 0.00000000 0.01396394 -0.01883022
v 0.00000000 0.01361788 -0.01909576
v 0.00000000 -0.01118578 -0.01998097
v 0.00000000 -0.01161824 -0.01992404
v 0.00000000 -0.01204410 -0.01982963
v 0.00000000 -0.01246010 -0.01969846
v 0.00000000 -0.01286309 -0.01953154
v 0.00000000 -0.01325000 -0.01933013
v 0.00000000 0.01557963 0.01629410
v 0.00000000 0.01567404 0.01586824
v 0.00000000 0.01025000 0.01525000
v 0.00000000 0.01528154 -0.01711309
v 0.00000000 0.01508013 -0.01750000
v 0.00000000 -0.01557963 0.01629410
v 0.00000000 -0.01544846 0.01671010
v 0.00000000 -0.01528154 0.01711309
v 0.00000000 -0.01508013 0.01750000
v 0.00000000 -0.01484576 0.01786788
v 0.00000000 0.01325000 -0.01933013
v 0.00000000 0.01286309 -0.01953154
v 0.00000000 0.01246010 -0.01969846
v 0.00000000 0.01544846 0.01671010
v 0.00000000 -0.01361788 0.01909576
v 0.00000000 -0.01325000 0.01933013
v 0.00000000 -0.01286309 0.01953154
v 0.00000000 -0.01361788 -0.01909576
v 0.00000000 -0.01396394 -0.01883022
v 0.00000000 -0.01428553 -0.01853553
v 0.00000000 -0.01544846 -0.01671010
v 0.00000000 -0.01528154 -0.01711309
v 0.00000000 -0.01508013 -0.01750000
v 0.00000000 -0.01557963 -0.01629410
v 0.00000000 -0.01567404 -0.01586824
v 0.00000000 0.01204410 -0.01982963
v 0.00000000 0.01161824 -0.01992404
v 0.00000000 0.01396394 0.01883022
v 0.00000000 0.01428553 0.01853553
v 0.00000000 0.01458022 0.01821394
v 0.00000000 0.01484576 0.01786788
v 0.00000000 0.01573097 -0.01543578
v 0.00000000 0.01567404 -0.01586824
v 0.00000000 -0.01246010 0.01969846
v 0.00000000 -0.01204410 0.01982963
v 0.00000000 -0.01161824 0.01992404
v 0.00000000 0.01118578 0.01998097
v 0.00000000 0.01161824 0.01992404
v 0.00000000 0.01204410 0.01982963
v 0.00000000 0.01246010 0.01969846
v 0.00000000 0.01286309 0.01953154
v 0.00000000 0.01325000 0.01933013
v 0.00000000 0.01361788 0.01909576
v 0.00000000 -0.01458022 -0.01821394
v 0.00000000 -0.01484576 -0.01786788
v 0.00000000 0.01508013 0.01750000
v 0.00000000 0.01528154 0.01711309
v 0.00000000 0.01573097 0.01543578
v 0.00000000 0.01575000 0.01500000
v 0.00000000 0.01575000 -0.01500000
v 0.00000000 0.01557963 -0.01629410
v 0.00000000 0.01544846 -0.01671010
v 0.00000000 0.01484576 -0.01786788
v 0.00000000 0.01458022 -0.01821394
v 0.00000000 -0.01118578 0.01998097
v 0.00000000 -0.01075000 0.02000000
v 0.00000000 0.01075000 0.02000000
v 0.05500000 0.01428553 0.01853553
v 0.05500000 0.01396394 0.01883022
v 0.05500000 0.01025000 0.01525000
v 0.05500000 0.01396394 -0.01883022
v 0.05500000 0.01428553 -0.01853553
v 0.05500000 0.01025000 -0.01525000
v 0.05500000 0.01458022 -0.01821394
v 0.05500000 0.01573097 0.01543578
v 0.05500000 0.01567404 0.01586824
v 0.05500000 0.01458022 0.01821394
v 0.05500000 -0.01396394 -0.01883022
v 0.05500000 -0.01361788 -0.01909576
v 0.05500000 -0.01025000 -0.01525000
v 0.05500000 -0.01325000 -0.01933013
v 0.05500000 -0.01286309 -0.01953154
v 0.05500000 -0.01246010 -0.01969846
v 0.05500000 -0.01204410 -0.01982963
v 0.05500000 -0.01161824 -0.01992404
v 0.05500000 0.01118578 -0.01998097
v 0.05500000 0.01161824 -0.01992404
v 0.05500000 0.01484576 -0.01786788
v 0.05500000 0.01508013 -0.01750000
v 0.05500000 0.01528154 -0.01711309
v 0.05500000 0.01544846 -0.01671010
v 0.05500000 0.01557963 -0.01629410
v 0.05500000 0.01567404 -0.01586824
v 0.05500000 0.01573097 -0.01543578
v 0.05500000 0.01575000 -0.01500000
v 0.05500000 0.01575000 0.01500000
v 0.05500000 -0.01118578 -0.01998097
v 0.05500000 -0.01075000 -0.02000000
v 0.05500000 0.01075000 -0.02000000
v 0.05500000 0.01286309 -0.01953154
v 0.05500000 0.01325000 -0.01933013
v 0.05500000 0.01361788 -0.01909576
v 0.05500000 -0.01428553 0.01853553
v 0.05500000 -0.01458022 0.01821394
v 0.05500000 -0.01025000 0.01525000
v 0.05500000 0.01361788 0.01909576
v 0.05500000 0.01325000 0.01933013
v 0.05500000 0.01286309 0.01953154
v 0.05500000 0.01246010 0.01969846
v 0.05500000 0.01204410 0.01982963
v 0.05500000 0.01161824 0.01992404
v 0.05500000 -0.01118578 0.01998097
v 0.05500000 -0.01161824 0.01992404
v 0.05500000 -0.01286309 0.01953154
v 0.05500000 -0.01325000 0.01933013
v 0.05500000 0.01557963 0.01629410
v 0.05500000 0.01544846 0.01671010
v 0.05500000 0.01528154 0.01711309
v 0.05500000 0.01204410 -0.01982963
v 0.05500000 0.01246010 -0.01969846
v 0.05500000 -0.01567404 0.01586824
v 0.05500000 -0.01573097 0.01543578
v 0.05500000 -0.01575000 0.01500000
v 0.05500000 -0.01575000 -0.01500000
v 0.05500000 -0.01573097 -0.01543578
v 0.05500000 -0.01567404 -0.01586824
v 0.05500000 -0.01557963 -0.01629410
v 0.05500000 -0.01544846 -0.01671010
v 0.05500000 -0.01528154 -0.01711309
v 0.05500000 -0.01508013 -0.01750000
v 0.05500000 -0.01484576 -0.01786788
v 0.05500000 0.01118578 0.01998097
v 0.05500000 0.01075000 0.02000000
v 0.05500000 -0.01075000 0.02000000
v 0.05500000 -0.01361788 0.01909576
v 0.05500000 -0.01396394 0.01883022
v 0.05500000 0.01508013 0.01750000
v 0.05500000 0.01484576 0.01786788
v 0.05500000 -0.01458022 -0.01821394
v 0.05500000 -0.01428553 -0.01853553
v 0.05500000 -0.01204410 0.01982963
v 0.05500000 -0.01246010 0.01969846
v 0.05500000 -0.01484576 0.01786788
v 0.05500000 -0.01508013 0.01750000
v 0.05500000 -0.01528154 0.01711309
v 0.05500000 -0.01544846 0.01671010
v 0.05500000 -0.01557963 0.01629410
v 0.04825000 -0.01025000 -0.00187639
v 0.01325000 -0.01025000 -0.00187639
v 0.01000000 -0.01025000 -0.00375278
v 0.04825000 -0.01025000 0.00187639
v 0.04500000 -0.01025000 0.00375278
v 0.04175000 -0.01025000 0.00187639
v 0.01325000 -0.01025000 0.00187639
v 0.04175000 -0.01025000 -0.00187639
v 0.04500000 -0.01025000 -0.00375278
v 0.01000000 0.01575000 0.00375278
v 0.01000000 0.01025000 0.00375278
v 0.00675000 0.01575000 0.00187639
v 0.00675000 0.01025000 0.00187639
v 0.00675000 0.01575000 -0.00187639
v 0.00675000 0.01025000 -0.00187639
v 0.01325000 -0.01575000 0.00187639
v 0.01325000 0.01025000 -0.00187639
v 0.01000000 0.01025000 -0.00375278
v 0.04825000 0.01025000 0.00187639
v 0.04825000 0.01025000 -0.00187639
v 0.04500000 0.01025000 -0.00375278
v 0.01325000 0.01025000 0.00187639
v 0.01325000 0.01575000 -0.00187639
v 0.01325000 0.01575000 0.00187639
v 0.04500000 0.01575000 -0.00375278
v 0.04825000 0.01575000 -0.00187639
v 0.04825000 0.01575000 0.00187639
v 0.01000000 0.01575000 -0.00375278
v 0.01325000 -0.01575000 -0.00187639
v 0.01000000 -0.01575000 -0.00375278
v 0.04825000 -0.01575000 0.00187639
v 0.04175000 -0.01575000 0.00187639
v 0.04500000 -0.01575000 0.00375278
v 0.04825000 -0.01575000 -0.00187639
v 0.04500000 -0.01575000 -0.00375278
v 0.04175000 -0.01575000 -0.00187639
f 1 2 3
f 2 4 3
f 2 5 4
f 5 6 4
f 7 8 9
f 8 10 9
f 8 11 10
f 11 12 10
f 13 14 15
f 16 17 18
f 15 14 18
f 14 19 18
f 18 19 16
f 20 18 21
f 18 22 21
f 23 15 24
f 15 25 24
f 24 25 26
f 27 28 25
f 28 29 25
f 23 30 15
f 30 31 15
f 15 31 32
f 32 33 15
f 33 34 15
f 15 34 35
f 36 37 38
f 39 40 25
f 17 41 18
f 41 42 18
f 18 42 43
f 43 44 18
f 44 45 18
f 18 45 22
f 29 46 25
f 46 47 25
f 25 47 48
f 36 38 49
f 20 50 18
f 50 51 18
f 18 51 52
f 35 53 15
f 53 54 15
f 15 54 55
f 56 15 57
f 15 58 57
f 56 59 15
f 59 60 15
f 15 60 13
f 48 61 25
f 61 62 25
f 25 62 26
f 63 64 38
f 64 65 38
f 38 65 66
f 67 68 25
f 52 69 18
f 69 70 18
f 18 70 71
f 72 73 38
f 73 74 38
f 74 75 38
f 38 75 76
f 76 77 38
f 77 78 38
f 38 78 63
f 55 79 15
f 79 80 15
f 15 80 58
f 66 81 38
f 81 82 38
f 38 82 49
f 37 83 38
f 83 84 38
f 38 84 25
f 84 85 25
f 25 85 67
f 68 86 25
f 86 87 25
f 25 87 39
f 40 88 25
f 88 89 25
f 25 89 27
f 71 90 18
f 90 91 18
f 18 91 38
f 91 92 38
f 38 92 72
f 93 94 95
f 96 97 98
f 97 99 98
f 100 101 95
f 93 95 102
f 103 104 105
f 104 106 105
f 105 106 107
f 107 108 105
f 108 109 105
f 105 109 110
f 111 112 98
f 99 113 98
f 113 114 98
f 98 114 115
f 115 116 98
f 116 117 98
f 98 117 118
f 118 119 98
f 119 120 98
f 98 120 95
f 120 121 95
f 95 121 100
f 110 122 105
f 122 123 105
f 105 123 98
f 123 124 98
f 98 124 111
f 125 126 98
f 126 127 98
f 98 127 96
f 128 129 130
f 94 131 95
f 131 132 95
f 95 132 133
f 133 134 95
f 134 135 95
f 95 135 136
f 137 138 130
f 130 139 140
f 101 141 95
f 141 142 95
f 95 142 143
f 112 144 98
f 144 145 98
f 98 145 125
f 146 147 130
f 147 148 130
f 130 148 105
f 148 149 105
f 105 149 150
f 150 151 105
f 151 152 105
f 105 152 153
f 153 154 105
f 154 155 105
f 105 155 156
f 136 157 95
f 157 158 95
f 95 158 130
f 158 159 130
f 130 159 137
f 140 160 130
f 160 161 130
f 130 161 128
f 143 162 95
f 162 163 95
f 95 163 102
f 156 164 105
f 164 165 105
f 105 165 103
f 138 166 130
f 166 167 130
f 130 167 139
f 129 168 130
f 168 169 130
f 130 169 170
f 170 171 130
f 171 172 130
f 130 172 146
f 18 9 10
f 18 10 15
f 130 105 173
f 174 105 175
f 105 15 175
f 175 15 12
f 15 10 12
f 173 176 130
f 176 177 130
f 130 177 18
f 177 178 18
f 9 18 179
f 18 178 179
f 179 178 174
f 178 180 174
f 174 180 105
f 180 181 105
f 105 181 173
f 182 183 184
f 183 185 184
f 184 185 186
f 185 187 186
f 188 7 179
f 7 9 179
f 38 25 187
f 98 189 25
f 189 190 25
f 25 190 187
f 98 95 191
f 38 4 95
f 4 6 95
f 95 6 191
f 191 192 98
f 192 193 98
f 98 193 189
f 193 3 189
f 189 3 194
f 3 4 194
f 194 4 183
f 4 38 183
f 183 38 185
f 38 187 185
f 124 123 24
f 123 23 24
f 159 91 90
f 159 90 137
f 90 71 137
f 137 71 138
f 71 70 138
f 138 70 166
f 70 69 166
f 166 69 167
f 69 52 167
f 167 52 139
f 52 51 139
f 139 51 140
f 51 50 140
f 140 50 160
f 50 20 160
f 160 20 161
f 20 21 161
f 161 21 128
f 21 22 128
f 128 22 129
f 22 45 129
f 129 45 168
f 45 44 168
f 168 44 169
f 44 43 169
f 169 43 170
f 43 42 170
f 170 42 171
f 42 41 171
f 171 41 172
f 41 17 172
f 172 17 146
f 17 16 146
f 146 16 147
f 16 19 147
f 147 19 148
f 195 189 196
f 189 194 196
f 85 84 184
f 120 85 1
f 121 5 84
f 5 2 84
f 1 197 120
f 197 198 120
f 120 198 121
f 198 199 121
f 121 199 5
f 184 186 85
f 186 200 85
f 85 200 1
f 200 195 1
f 1 195 2
f 195 196 2
f 2 196 84
f 196 182 84
f 84 182 184
f 105 98 15
f 98 25 15
f 121 84 83
f 121 83 100
f 83 37 100
f 100 37 101
f 37 36 101
f 101 36 141
f 36 49 141
f 141 49 142
f 49 82 142
f 142 82 143
f 82 81 143
f 143 81 162
f 81 66 162
f 162 66 163
f 66 65 163
f 163 65 102
f 65 64 102
f 102 64 93
f 64 63 93
f 93 63 94
f 63 78 94
f 94 78 131
f 78 77 131
f 131 77 132
f 77 76 132
f 132 76 133
f 76 75 133
f 133 75 134
f 75 74 134
f 134 74 135
f 74 73 135
f 135 73 136
f 73 72 136
f 136 72 157
f 72 92 157
f 157 92 158
f 19 14 11
f 149 201 14
f 201 202 14
f 14 202 11
f 149 148 203
f 19 204 148
f 204 205 148
f 148 205 203
f 203 206 149
f 206 207 149
f 149 207 201
f 207 208 201
f 201 208 188
f 208 204 188
f 188 204 7
f 204 19 7
f 7 19 8
f 19 11 8
f 159 158 91
f 158 92 91
f 124 24 26
f 124 26 111
f 26 62 111
f 111 62 112
f 62 61 112
f 112 61 144
f 61 48 144
f 144 48 145
f 48 47 145
f 145 47 125
f 47 46 125
f 125 46 126
f 46 29 126
f 126 29 127
f 29 28 127
f 127 28 96
f 28 27 96
f 96 27 97
f 27 89 97
f 97 89 99
f 89 88 99
f 99 88 113
f 88 40 113
f 113 40 114
f 40 39 114
f 114 39 115
f 39 87 115
f 115 87 116
f 87 86 116
f 116 86 117
f 86 68 117
f 117 68 118
f 68 67 118
f 118 67 119
f 67 85 119
f 119 85 120
f 202 201 175
f 201 174 175
f 95 130 38
f 130 18 38
f 201 188 174
f 188 179 174
f 11 202 12
f 202 175 12
f 208 180 204
f 180 178 204
f 204 178 205
f 178 177 205
f 205 177 203
f 177 176 203
f 203 176 206
f 176 173 206
f 206 173 207
f 173 181 207
f 207 181 208
f 181 180 208
f 186 187 200
f 187 190 200
f 149 14 13
f 149 13 150
f 13 60 150
f 150 60 151
f 60 59 151
f 151 59 152
f 59 56 152
f 152 56 153
f 56 57 153
f 153 57 154
f 57 58 154
f 154 58 155
f 58 80 155
f 155 80 156
f 80 79 156
f 156 79 164
f 79 55 164
f 164 55 165
f 55 54 165
f 165 54 103
f 54 53 103
f 103 53 104
f 53 35 104
f 104 35 106
f 35 34 106
f 106 34 107
f 34 33 107
f 107 33 108
f 33 32 108
f 108 32 109
f 32 31 109
f 109 31 110
f 31 30 110
f 110 30 122
f 30 23 122
f 122 23 123
f 200 190 195
f 190 189 195
f 196 194 182
f 194 183 182
f 197 1 193
f 1 3 193
f 198 197 192
f 197 193 192
f 199 198 191
f 198 192 191
f 5 199 6
f 199 191 6

