# https://github.com/mikedh/trimesh

o part_16.stl
v 0.01250000 0.02601038 0.01494943
v 0.01050000 0.02601038 0.01494943
v 0.01050000 0.02466559 0.01707740
v 0.01250000 0.02466559 0.01707740
v 0.01050000 0.02314714 0.01908514
v 0.01250000 0.02314714 0.01908514
v 0.01050000 0.02146571 0.02095851
v 0.01250000 0.02146571 0.02095851
v 0.01050000 0.01963315 0.02268432
v 0.01250000 0.01963315 0.02268432
v 0.01050000 0.01766235 0.02425042
v 0.01250000 0.01766235 0.02425042
v 0.01050000 0.01556720 0.02564578
v 0.01250000 0.01556720 0.02564578
v 0.01050000 0.01336244 0.02686059
v 0.01250000 0.01336244 0.02686059
v 0.01050000 0.01106360 0.02788628
v 0.01250000 0.01106360 0.02788628
v 0.01050000 0.00868686 0.02871563
v 0.01250000 0.00868686 0.02871563
v 0.01050000 0.00624896 0.02934281
v 0.01250000 0.00624896 0.02934281
v 0.01050000 0.00376706 0.02976340
v 0.01250000 0.00376706 0.02976340
v 0.01050000 0.00125864 0.02997444
v 0.01250000 0.00125864 0.02997444
v 0.01050000 -0.00125864 0.02997444
v 0.01250000 -0.00125864 0.02997444
v 0.01050000 -0.00376706 0.02976340
v 0.01250000 -0.00376706 0.02976340
v 0.01050000 -0.00624896 0.02934281
v 0.01250000 -0.00624896 0.02934281
v 0.01050000 -0.00868686 0.02871563
v 0.01250000 -0.00868686 0.02871563
v 0.01050000 -0.01106360 0.02788628
v 0.01250000 -0.01106360 0.02788628
v 0.01050000 -0.01336244 0.02686059
v 0.01250000 -0.01336244 0.02686059
v 0.01050000 -0.01556720 0.02564578
v 0.01250000 -0.01556720 0.02564578
v 0.01050000 -0.01766235 0.02425042
v 0.01250000 -0.01766235 0.02425042
v 0.01050000 -0.01963315 0.02268432
v 0.01250000 -0.01963315 0.02268432
v 0.01050000 -0.02146571 0.02095851
v 0.01250000 -0.02146571 0.02095851
v 0.01050000 -0.02314714 0.01908514
v 0.01250000 -0.02314714 0.01908514
v 0.01050000 -0.02466559 0.01707740
v 0.01250000 -0.02466559 0.01707740
v 0.01050000 -0.02601038 0.01494943
v 0.01250000 -0.02601038 0.01494943
v 0.01250000 -0.01266766 -0.02719478
v 0.01250000 -0.01025157 -0.02819452
v 0.01250000 -0.02896868 -0.00780005
v 0.01250000 0.02899141 0.00771514
v 0.01250000 0.02820951 0.01021026
v 0.01250000 0.00775761 -0.02898008
v 0.01250000 -0.02953784 -0.00524799
v 0.01250000 -0.00775761 -0.02898008
v 0.01250000 -0.00520471 -0.02954550
v 0.01250000 0.00261228 -0.02988648
v 0.01250000 0.00520471 -0.02954550
v 0.01250000 0.02721331 0.01262781
v 0.01250000 -0.00261228 -0.02988648
v 0.01250000 0.00000000 -0.03000043
v 0.01250000 0.01025157 -0.02819452
v 0.01250000 0.02953784 -0.00524799
v 0.01250000 0.02988262 -0.00265606
v 0.01250000 0.03000039 -0.00004395
v 0.01250000 0.02989027 0.00256849
v 0.01250000 0.02955309 0.00516142
v 0.01250000 0.01266766 -0.02719478
v 0.01250000 0.01498752 -0.02598845
v 0.01250000 0.01719353 -0.02458471
v 0.01250000 -0.02721331 0.01262781
v 0.01250000 -0.02820951 0.01021026
v 0.01250000 0.02596647 -0.01502558
v 0.01250000 0.02717619 -0.01270749
v 0.01250000 0.02817947 -0.01029287
v 0.01250000 -0.02899141 0.00771514
v 0.01250000 -0.02955309 0.00516142
v 0.01250000 -0.02989027 0.00256849
v 0.01250000 -0.03000039 -0.00004395
v 0.01250000 -0.02988262 -0.00265606
v 0.01250000 -0.02817947 -0.01029287
v 0.01250000 -0.02717619 -0.01270749
v 0.01250000 -0.02596647 -0.01502558
v 0.01250000 0.01926893 -0.02299421
v 0.01250000 0.02119796 -0.02122904
v 0.01250000 0.02296596 -0.01930260
v 0.01250000 0.02455949 -0.01722953
v 0.01250000 0.02896868 -0.00780005
v 0.01250000 -0.02455949 -0.01722953
v 0.01250000 -0.02296596 -0.01930260
v 0.01250000 -0.02119796 -0.02122904
v 0.01250000 -0.01926893 -0.02299421
v 0.01250000 -0.01719353 -0.02458471
v 0.01250000 -0.01498752 -0.02598845
v -0.01950000 -0.02601038 0.01494943
v -0.03150000 -0.02601038 0.01494943
v -0.03150000 -0.02721331 0.01262781
v -0.01950000 -0.02721331 0.01262781
v -0.03150000 -0.02820951 0.01021026
v -0.01950000 -0.02820951 0.01021026
v -0.03150000 -0.02899141 0.00771514
v -0.01950000 -0.02899141 0.00771514
v -0.03150000 -0.02955309 0.00516142
v -0.01950000 -0.02955309 0.00516142
v -0.03150000 -0.02989027 0.00256849
v -0.01950000 -0.02989027 0.00256849
v -0.03150000 -0.03000039 -0.00004395
v -0.01950000 -0.03000039 -0.00004395
v -0.03150000 -0.02988262 -0.00265606
v -0.01950000 -0.02988262 -0.00265606
v -0.03150000 -0.02953784 -0.00524799
v -0.01950000 -0.02953784 -0.00524799
v -0.03150000 -0.02896868 -0.00780005
v -0.01950000 -0.02896868 -0.00780005
v -0.03150000 -0.02817947 -0.01029287
v -0.01950000 -0.02817947 -0.01029287
v -0.03150000 -0.02717619 -0.01270749
v -0.01950000 -0.02717619 -0.01270749
v -0.03150000 -0.02596647 -0.01502558
v -0.01950000 -0.02596647 -0.01502558
v -0.03150000 -0.02455949 -0.01722953
v -0.01950000 -0.02455949 -0.01722953
v -0.03150000 -0.02296596 -0.01930260
v -0.01950000 -0.02296596 -0.01930260
v -0.03150000 -0.02119796 -0.02122904
v -0.01950000 -0.02119796 -0.02122904
v -0.03150000 -0.01926893 -0.02299421
v -0.01950000 -0.01926893 -0.02299421
v -0.03150000 -0.01719353 -0.02458471
v -0.01950000 -0.01719353 -0.02458471
v -0.03150000 -0.01498752 -0.02598845
v -0.01950000 -0.01498752 -0.02598845
v -0.03150000 -0.01266766 -0.02719478
v -0.01950000 -0.01266766 -0.02719478
v -0.03150000 -0.01025157 -0.02819452
v -0.01950000 -0.01025157 -0.02819452
v -0.03150000 -0.00775761 -0.02898008
v -0.01950000 -0.00775761 -0.02898008
v -0.03150000 -0.00520471 -0.02954550
v -0.01950000 -0.00520471 -0.02954550
v -0.03150000 -0.00261228 -0.02988648
v -0.01950000 -0.00261228 -0.02988648
v -0.03150000 0.00000000 -0.03000043
v -0.01950000 0.00000000 -0.03000043
v -0.03150000 0.00261228 -0.02988648
v -0.01950000 0.00261228 -0.02988648
v -0.03150000 0.00520471 -0.02954550
v -0.01950000 0.00520471 -0.02954550
v -0.03150000 0.00775761 -0.02898008
v -0.01950000 0.00775761 -0.02898008
v -0.03150000 0.01025157 -0.02819452
v -0.01950000 0.01025157 -0.02819452
v -0.03150000 0.01266766 -0.02719478
v -0.01950000 0.01266766 -0.02719478
v -0.03150000 0.01498752 -0.02598845
v -0.01950000 0.01498752 -0.02598845
v -0.03150000 0.01719353 -0.02458471
v -0.01950000 0.01719353 -0.02458471
v -0.03150000 0.01926893 -0.02299421
v -0.01950000 0.01926893 -0.02299421
v -0.03150000 0.02119796 -0.02122904
v -0.01950000 0.02119796 -0.02122904
v -0.03150000 0.02296596 -0.01930260
v -0.01950000 0.02296596 -0.01930260
v -0.03150000 0.02455949 -0.01722953
v -0.01950000 0.02455949 -0.01722953
v -0.03150000 0.02596647 -0.01502558
v -0.01950000 0.02596647 -0.01502558
v -0.03150000 0.02717619 -0.01270749
v -0.01950000 0.02717619 -0.01270749
v -0.03150000 0.02817947 -0.01029287
v -0.01950000 0.02817947 -0.01029287
v -0.03150000 0.02896868 -0.00780005
v -0.01950000 0.02896868 -0.00780005
v -0.03150000 0.02953784 -0.00524799
v -0.01950000 0.02953784 -0.00524799
v -0.03150000 0.02988262 -0.00265606
v -0.01950000 0.02988262 -0.00265606
v -0.03150000 0.03000039 -0.00004395
v -0.01950000 0.03000039 -0.00004395
v -0.03150000 0.02989027 0.00256849
v -0.01950000 0.02989027 0.00256849
v -0.03150000 0.02955309 0.00516142
v -0.01950000 0.02955309 0.00516142
v -0.03150000 0.02899141 0.00771514
v -0.01950000 0.02899141 0.00771514
v -0.03150000 0.02820951 0.01021026
v -0.01950000 0.02820951 0.01021026
v -0.03150000 0.02721331 0.01262781
v -0.01950000 0.02721331 0.01262781
v -0.03150000 0.02601038 0.01494943
v -0.01950000 0.02601038 0.01494943
v -0.03150000 0.02466559 0.01707740
v -0.01950000 0.02466559 0.01707740
v -0.03150000 0.02314714 0.01908514
v -0.01950000 0.02314714 0.01908514
v -0.03150000 0.02146571 0.02095851
v -0.01950000 0.02146571 0.02095851
v -0.03150000 0.01963315 0.02268432
v -0.01950000 0.01963315 0.02268432
v -0.03150000 0.01766235 0.02425042
v -0.01950000 0.01766235 0.02425042
v -0.03150000 0.01556720 0.02564578
v -0.01950000 0.01556720 0.02564578
v -0.03150000 0.01336244 0.02686059
v -0.01950000 0.01336244 0.02686059
v -0.03150000 0.01106360 0.02788628
v -0.01950000 0.01106360 0.02788628
v -0.03150000 0.00868686 0.02871563
v -0.01950000 0.00868686 0.02871563
v -0.03150000 0.00624896 0.02934281
v -0.01950000 0.00624896 0.02934281
v -0.03150000 0.00376706 0.02976340
v -0.01950000 0.00376706 0.02976340
v -0.03150000 0.00125864 0.02997444
v -0.01950000 0.00125864 0.02997444
v -0.03150000 -0.00125864 0.02997444
v -0.01950000 -0.00125864 0.02997444
v -0.03150000 -0.00376706 0.02976340
v -0.01950000 -0.00376706 0.02976340
v -0.03150000 -0.00624896 0.02934281
v -0.01950000 -0.00624896 0.02934281
v -0.03150000 -0.00868686 0.02871563
v -0.01950000 -0.00868686 0.02871563
v -0.03150000 -0.01106360 0.02788628
v -0.01950000 -0.01106360 0.02788628
v -0.03150000 -0.01336244 0.02686059
v -0.01950000 -0.01336244 0.02686059
v -0.03150000 -0.01556720 0.02564578
v -0.01950000 -0.01556720 0.02564578
v -0.03150000 -0.01766235 0.02425042
v -0.01950000 -0.01766235 0.02425042
v -0.03150000 -0.01963315 0.02268432
v -0.01950000 -0.01963315 0.02268432
v -0.03150000 -0.02146571 0.02095851
v -0.01950000 -0.02146571 0.02095851
v -0.03150000 -0.02314714 0.01908514
v -0.01950000 -0.02314714 0.01908514
v -0.03150000 -0.02466559 0.01707740
v -0.01950000 -0.02466559 0.01707740
v 0.01050000 -0.02721331 0.01262781
v 0.01050000 -0.02820951 0.01021026
v 0.01050000 -0.02899141 0.00771514
v 0.01050000 -0.02955309 0.00516142
v 0.01050000 -0.02989027 0.00256849
v 0.01050000 -0.03000039 -0.00004395
v 0.01050000 -0.02988262 -0.00265606
v 0.01050000 -0.02953784 -0.00524799
v 0.01050000 -0.02896868 -0.00780005
v 0.01050000 -0.02817947 -0.01029287
v 0.01050000 -0.02717619 -0.01270749
v 0.01050000 -0.02596647 -0.01502558
v 0.01050000 -0.02455949 -0.01722953
v 0.01050000 -0.02296596 -0.01930260
v 0.01050000 -0.02119796 -0.02122904
v 0.01050000 -0.01926893 -0.02299421
v 0.01050000 -0.01719353 -0.02458471
v 0.01050000 -0.01498752 -0.02598845
v 0.01050000 -0.01266766 -0.02719478
v 0.01050000 -0.01025157 -0.02819452
v 0.01050000 -0.00775761 -0.02898008
v 0.01050000 -0.00520471 -0.02954550
v 0.01050000 -0.00261228 -0.02988648
v 0.01050000 0.00000000 -0.03000043
v 0.01050000 0.00261228 -0.02988648
v 0.01050000 0.00520471 -0.02954550
v 0.01050000 0.00775761 -0.02898008
v 0.01050000 0.01025157 -0.02819452
v 0.01050000 0.01266766 -0.02719478
v 0.01050000 0.01498752 -0.02598845
v 0.01050000 0.01719353 -0.02458471
v 0.01050000 0.01926893 -0.02299421
v 0.01050000 0.02119796 -0.02122904
v 0.01050000 0.02296596 -0.01930260
v 0.01050000 0.02455949 -0.01722953
v 0.01050000 0.02596647 -0.01502558
v 0.01050000 0.02717619 -0.01270749
v 0.01050000 0.02817947 -0.01029287
v 0.01050000 0.02896868 -0.00780005
v 0.01050000 0.02953784 -0.00524799
v 0.01050000 0.02988262 -0.00265606
v 0.01050000 0.03000039 -0.00004395
v 0.01050000 0.02989027 0.00256849
v 0.01050000 0.02955309 0.00516142
v 0.01050000 0.02899141 0.00771514
v 0.01050000 0.02820951 0.01021026
v 0.01050000 0.02721331 0.01262781
v 0.01050000 0.00000000 -0.03805779
v -0.01950000 0.00341581 -0.03790866
v 0.01050000 0.00341581 -0.03790866
v -0.01950000 0.00680562 -0.03746238
v 0.01050000 0.00680562 -0.03746238
v -0.01950000 0.01014364 -0.03672236
v 0.01050000 0.01014364 -0.03672236
v -0.01950000 0.01340446 -0.03569423
v 0.01050000 0.01340446 -0.03569423
v -0.01950000 0.01656326 -0.03438581
v 0.01050000 0.01656326 -0.03438581
v -0.01950000 0.01959601 -0.03280706
v 0.01050000 0.01959601 -0.03280706
v -0.01950000 0.02247961 -0.03097000
v 0.01050000 0.02247961 -0.03097000
v -0.01950000 0.02519214 -0.02888861
v 0.01050000 0.02519214 -0.02888861
v -0.01950000 0.02771294 -0.02657872
v 0.01050000 0.02771294 -0.02657872
v -0.01950000 0.03002282 -0.02405792
v 0.01050000 0.03002282 -0.02405792
v -0.01950000 0.03210422 -0.02134540
v 0.01050000 0.03210422 -0.02134540
v -0.01950000 0.03394128 -0.01846179
v 0.01050000 0.03394128 -0.01846179
v -0.01950000 0.03552002 -0.01542904
v 0.01050000 0.03552002 -0.01542904
v -0.01950000 0.03682844 -0.01227024
v 0.01050000 0.03682844 -0.01227024
v -0.01950000 0.03785658 -0.00900942
v 0.01050000 0.03785658 -0.00900942
v -0.01950000 0.03859660 -0.00567140
v 0.01050000 0.03859660 -0.00567140
v -0.01950000 0.03904288 -0.00228159
v 0.01050000 0.03904288 -0.00228159
v -0.01950000 0.03919201 0.00113422
v 0.01050000 0.03919201 0.00113422
v -0.01950000 0.03904288 0.00455003
v 0.01050000 0.03904288 0.00455003
v -0.01950000 0.03859660 0.00793984
v 0.01050000 0.03859660 0.00793984
v -0.01950000 0.03785658 0.01127786
v 0.01050000 0.03785658 0.01127786
v -0.01950000 0.03682844 0.01453868
v 0.01050000 0.03682844 0.01453868
v -0.01950000 0.03552002 0.01769748
v 0.01050000 0.03552002 0.01769748
v -0.01950000 0.03394128 0.02073022
v 0.01050000 0.03394128 0.02073022
v -0.01950000 0.03210422 0.02361383
v 0.01050000 0.03210422 0.02361383
v -0.01950000 0.03002282 0.02632636
v 0.01050000 0.03002282 0.02632636
v -0.01950000 0.02771294 0.02884716
v 0.01050000 0.02771294 0.02884716
v -0.01950000 0.02519214 0.03115704
v 0.01050000 0.02519214 0.03115704
v -0.01950000 0.02247961 0.03323843
v 0.01050000 0.02247961 0.03323843
v -0.01950000 0.01959601 0.03507550
v 0.01050000 0.01959601 0.03507550
v -0.01950000 0.01656326 0.03665425
v 0.01050000 0.01656326 0.03665425
v -0.01950000 0.01340446 0.03796266
v 0.01050000 0.01340446 0.03796266
v -0.01950000 0.01014364 0.03899080
v 0.01050000 0.01014364 0.03899080
v -0.01950000 0.00680562 0.03973082
v 0.01050000 0.00680562 0.03973082
v -0.01950000 0.00341581 0.04017709
v 0.01050000 0.00341581 0.04017709
v -0.01950000 0.00000000 0.04032623
v 0.01050000 0.00000000 0.04032623
v -0.01950000 -0.00341581 0.04017709
v 0.01050000 -0.00341581 0.04017709
v -0.01950000 -0.00680562 0.03973082
v 0.01050000 -0.00680562 0.03973082
v -0.01950000 -0.01014364 0.03899080
v 0.01050000 -0.01014364 0.03899080
v -0.01950000 -0.01340446 0.03796266
v 0.01050000 -0.01340446 0.03796266
v -0.01950000 -0.01656326 0.03665425
v 0.01050000 -0.01656326 0.03665425
v -0.01950000 -0.01959601 0.03507550
v 0.01050000 -0.01959601 0.03507550
v -0.01950000 -0.02247961 0.03323843
v 0.01050000 -0.02247961 0.03323843
v -0.01950000 -0.02519214 0.03115704
v 0.01050000 -0.02519214 0.03115704
v -0.01950000 -0.02771294 0.02884716
v 0.01050000 -0.02771294 0.02884716
v -0.01950000 -0.03002282 0.02632636
v 0.01050000 -0.03002282 0.02632636
v -0.01950000 -0.03210422 0.02361383
v 0.01050000 -0.03210422 0.02361383
v -0.01950000 -0.03394128 0.02073022
v 0.01050000 -0.03394128 0.02073022
v -0.01950000 -0.03552002 0.01769748
v 0.01050000 -0.03552002 0.01769748
v -0.01950000 -0.03682844 0.01453868
v 0.01050000 -0.03682844 0.01453868
v -0.01950000 -0.03785658 0.01127786
v 0.01050000 -0.03785658 0.01127786
v -0.01950000 -0.03859660 0.00793984
v 0.01050000 -0.03859660 0.00793984
v -0.01950000 -0.03904288 0.00455003
v 0.01050000 -0.03904288 0.00455003
v -0.01950000 -0.03919201 0.00113422
v 0.01050000 -0.03919201 0.00113422
v -0.01950000 -0.03904288 -0.00228159
v 0.01050000 -0.03904288 -0.00228159
v -0.01950000 -0.03859660 -0.00567140
v 0.01050000 -0.03859660 -0.00567140
v -0.01950000 -0.03785658 -0.00900942
v 0.01050000 -0.03785658 -0.00900942
v -0.01950000 -0.03682844 -0.01227024
v 0.01050000 -0.03682844 -0.01227024
v -0.01950000 -0.03552002 -0.01542904
v 0.01050000 -0.03552002 -0.01542904
v -0.01950000 -0.03394128 -0.01846179
v 0.01050000 -0.03394128 -0.01846179
v -0.01950000 -0.03210422 -0.02134540
v 0.01050000 -0.03210422 -0.02134540
v -0.01950000 -0.03002282 -0.02405792
v 0.01050000 -0.03002282 -0.02405792
v -0.01950000 -0.02771294 -0.02657872
v 0.01050000 -0.02771294 -0.02657872
v -0.01950000 -0.02519214 -0.02888861
v 0.01050000 -0.02519214 -0.02888861
v -0.01950000 -0.02247961 -0.03097000
v 0.01050000 -0.02247961 -0.03097000
v -0.01950000 -0.01959601 -0.03280706
v 0.01050000 -0.01959601 -0.03280706
v -0.01950000 -0.01656326 -0.03438581
v 0.01050000 -0.01656326 -0.03438581
v -0.01950000 -0.01340446 -0.03569423
v 0.01050000 -0.01340446 -0.03569423
v -0.01950000 -0.01014364 -0.03672236
v 0.01050000 -0.01014364 -0.03672236
v -0.01950000 -0.00680562 -0.03746238
v 0.01050000 -0.00680562 -0.03746238
v -0.01950000 -0.00341581 -0.03790866
v 0.01050000 -0.00341581 -0.03790866
v -0.01950000 -0.00000000 -0.03805779
f 1 2 3
f 1 3 4
f 3 5 4
f 4 5 6
f 5 7 6
f 6 7 8
f 7 9 8
f 8 9 10
f 9 11 10
f 10 11 12
f 11 13 12
f 12 13 14
f 13 15 14
f 14 15 16
f 15 17 16
f 16 17 18
f 17 19 18
f 18 19 20
f 19 21 20
f 20 21 22
f 21 23 22
f 22 23 24
f 23 25 24
f 24 25 26
f 25 27 26
f 26 27 28
f 27 29 28
f 28 29 30
f 29 31 30
f 30 31 32
f 31 33 32
f 32 33 34
f 33 35 34
f 34 35 36
f 35 37 36
f 36 37 38
f 37 39 38
f 38 39 40
f 39 41 40
f 40 41 42
f 41 43 42
f 42 43 44
f 43 45 44
f 44 45 46
f 45 47 46
f 46 47 48
f 47 49 48
f 48 49 50
f 49 51 50
f 50 51 52
f 53 54 55
f 4 6 54
f 6 8 54
f 8 10 54
f 10 12 54
f 54 12 14
f 14 16 54
f 16 18 54
f 54 18 20
f 20 22 54
f 22 24 54
f 54 24 26
f 26 28 54
f 28 30 54
f 54 30 32
f 38 40 54
f 40 42 54
f 54 42 44
f 44 46 54
f 46 48 54
f 54 48 50
f 32 34 54
f 34 36 54
f 54 36 38
f 56 57 58
f 55 54 59
f 4 54 1
f 54 60 1
f 1 60 61
f 62 63 1
f 63 58 1
f 1 58 64
f 58 57 64
f 61 65 1
f 65 66 1
f 1 66 62
f 67 68 58
f 68 69 58
f 58 69 70
f 70 71 58
f 71 72 58
f 58 72 56
f 67 73 68
f 73 74 68
f 68 74 75
f 50 52 54
f 52 76 54
f 54 76 77
f 78 79 80
f 77 81 54
f 81 82 54
f 54 82 83
f 83 84 54
f 84 85 54
f 54 85 59
f 55 86 53
f 86 87 53
f 53 87 88
f 75 89 68
f 89 90 68
f 68 90 91
f 91 92 68
f 92 78 68
f 68 78 93
f 78 80 93
f 88 94 53
f 94 95 53
f 53 95 96
f 96 97 53
f 97 98 53
f 53 98 99
f 100 101 102
f 100 102 103
f 102 104 103
f 103 104 105
f 104 106 105
f 105 106 107
f 106 108 107
f 107 108 109
f 108 110 109
f 109 110 111
f 110 112 111
f 111 112 113
f 112 114 113
f 113 114 115
f 114 116 115
f 115 116 117
f 116 118 117
f 117 118 119
f 118 120 119
f 119 120 121
f 120 122 121
f 121 122 123
f 122 124 123
f 123 124 125
f 124 126 125
f 125 126 127
f 126 128 127
f 127 128 129
f 128 130 129
f 129 130 131
f 130 132 131
f 131 132 133
f 132 134 133
f 133 134 135
f 134 136 135
f 135 136 137
f 136 138 137
f 137 138 139
f 138 140 139
f 139 140 141
f 140 142 141
f 141 142 143
f 142 144 143
f 143 144 145
f 144 146 145
f 145 146 147
f 146 148 147
f 147 148 149
f 148 150 149
f 149 150 151
f 150 152 151
f 151 152 153
f 152 154 153
f 153 154 155
f 154 156 155
f 155 156 157
f 156 158 157
f 157 158 159
f 158 160 159
f 159 160 161
f 160 162 161
f 161 162 163
f 162 164 163
f 163 164 165
f 164 166 165
f 165 166 167
f 166 168 167
f 167 168 169
f 168 170 169
f 169 170 171
f 170 172 171
f 171 172 173
f 172 174 173
f 173 174 175
f 174 176 175
f 175 176 177
f 176 178 177
f 177 178 179
f 178 180 179
f 179 180 181
f 180 182 181
f 181 182 183
f 182 184 183
f 183 184 185
f 184 186 185
f 185 186 187
f 186 188 187
f 187 188 189
f 188 190 189
f 189 190 191
f 190 192 191
f 191 192 193
f 192 194 193
f 193 194 195
f 194 196 195
f 195 196 197
f 197 196 198
f 197 198 199
f 198 200 199
f 199 200 201
f 200 202 201
f 201 202 203
f 202 204 203
f 203 204 205
f 204 206 205
f 205 206 207
f 206 208 207
f 207 208 209
f 208 210 209
f 209 210 211
f 210 212 211
f 211 212 213
f 212 214 213
f 213 214 215
f 214 216 215
f 215 216 217
f 216 218 217
f 217 218 219
f 218 220 219
f 219 220 221
f 220 222 221
f 221 222 223
f 222 224 223
f 223 224 225
f 224 226 225
f 225 226 227
f 226 228 227
f 227 228 229
f 228 230 229
f 229 230 231
f 230 232 231
f 231 232 233
f 232 234 233
f 233 234 235
f 234 236 235
f 235 236 237
f 236 238 237
f 237 238 239
f 238 240 239
f 239 240 241
f 240 242 241
f 241 242 243
f 242 244 243
f 243 244 245
f 244 101 245
f 245 101 100
f 52 51 246
f 52 246 76
f 246 247 76
f 76 247 77
f 247 248 77
f 77 248 81
f 248 249 81
f 81 249 82
f 249 250 82
f 82 250 83
f 250 251 83
f 83 251 84
f 251 252 84
f 84 252 85
f 252 253 85
f 85 253 59
f 253 254 59
f 59 254 55
f 254 255 55
f 55 255 86
f 255 256 86
f 86 256 87
f 256 257 87
f 87 257 88
f 257 258 88
f 88 258 94
f 258 259 94
f 94 259 95
f 259 260 95
f 95 260 96
f 260 261 96
f 96 261 97
f 261 262 97
f 97 262 98
f 262 263 98
f 98 263 99
f 263 264 99
f 99 264 53
f 264 265 53
f 53 265 54
f 265 266 54
f 54 266 60
f 266 267 60
f 60 267 61
f 267 268 61
f 61 268 65
f 268 269 65
f 65 269 66
f 269 270 66
f 66 270 62
f 270 271 62
f 62 271 63
f 271 272 63
f 63 272 58
f 272 273 58
f 58 273 67
f 273 274 67
f 67 274 73
f 274 275 73
f 73 275 74
f 275 276 74
f 74 276 75
f 276 277 75
f 75 277 89
f 277 278 89
f 89 278 90
f 278 279 90
f 90 279 91
f 279 280 91
f 91 280 92
f 280 281 92
f 92 281 78
f 281 282 78
f 78 282 79
f 282 283 79
f 79 283 80
f 283 284 80
f 80 284 93
f 284 285 93
f 93 285 68
f 285 286 68
f 68 286 69
f 286 287 69
f 69 287 70
f 287 288 70
f 70 288 71
f 288 289 71
f 71 289 72
f 289 290 72
f 72 290 56
f 290 291 56
f 56 291 57
f 291 292 57
f 57 292 64
f 292 2 64
f 64 2 1
f 160 244 242
f 242 240 160
f 240 238 160
f 160 238 236
f 160 224 222
f 156 154 101
f 236 234 160
f 234 232 160
f 160 232 230
f 222 220 160
f 220 218 160
f 160 218 216
f 230 228 160
f 228 226 160
f 160 226 224
f 216 214 160
f 214 212 160
f 160 212 210
f 210 208 160
f 208 206 160
f 160 206 204
f 244 160 101
f 160 158 101
f 101 158 156
f 204 202 160
f 202 200 160
f 160 200 198
f 154 152 101
f 152 150 101
f 101 150 148
f 148 146 101
f 146 144 101
f 101 144 142
f 138 118 116
f 138 136 118
f 136 134 118
f 118 134 132
f 198 196 160
f 196 194 160
f 160 194 192
f 122 128 124
f 128 126 124
f 132 130 118
f 130 128 118
f 118 128 120
f 128 122 120
f 116 114 138
f 114 112 138
f 138 112 110
f 110 108 138
f 108 106 138
f 138 106 104
f 142 140 101
f 140 138 101
f 101 138 102
f 138 104 102
f 192 190 160
f 190 188 160
f 160 188 186
f 186 184 160
f 184 182 160
f 160 182 180
f 180 178 160
f 178 176 160
f 160 176 174
f 174 172 160
f 172 170 160
f 160 170 168
f 166 164 168
f 164 162 168
f 168 162 160
f 293 294 295
f 294 296 295
f 295 296 297
f 296 298 297
f 297 298 299
f 298 300 299
f 299 300 301
f 300 302 301
f 301 302 303
f 302 304 303
f 303 304 305
f 304 306 305
f 305 306 307
f 306 308 307
f 307 308 309
f 308 310 309
f 309 310 311
f 310 312 311
f 311 312 313
f 312 314 313
f 313 314 315
f 314 316 315
f 315 316 317
f 316 318 317
f 317 318 319
f 318 320 319
f 319 320 321
f 320 322 321
f 321 322 323
f 322 324 323
f 323 324 325
f 324 326 325
f 325 326 327
f 326 328 327
f 327 328 329
f 328 330 329
f 329 330 331
f 330 332 331
f 331 332 333
f 332 334 333
f 333 334 335
f 334 336 335
f 335 336 337
f 336 338 337
f 337 338 339
f 338 340 339
f 339 340 341
f 340 342 341
f 341 342 343
f 342 344 343
f 343 344 345
f 344 346 345
f 345 346 347
f 346 348 347
f 347 348 349
f 348 350 349
f 349 350 351
f 350 352 351
f 351 352 353
f 352 354 353
f 353 354 355
f 354 356 355
f 355 356 357
f 356 358 357
f 357 358 359
f 358 360 359
f 359 360 361
f 360 362 361
f 361 362 363
f 362 364 363
f 363 364 365
f 364 366 365
f 365 366 367
f 366 368 367
f 367 368 369
f 368 370 369
f 369 370 371
f 370 372 371
f 371 372 373
f 372 374 373
f 373 374 375
f 374 376 375
f 375 376 377
f 376 378 377
f 377 378 379
f 378 380 379
f 379 380 381
f 380 382 381
f 381 382 383
f 382 384 383
f 383 384 385
f 384 386 385
f 385 386 387
f 386 388 387
f 387 388 389
f 388 390 389
f 389 390 391
f 390 392 391
f 391 392 393
f 392 394 393
f 393 394 395
f 394 396 395
f 395 396 397
f 396 398 397
f 397 398 399
f 398 400 399
f 399 400 401
f 400 402 401
f 401 402 403
f 402 404 403
f 403 404 405
f 404 406 405
f 405 406 407
f 406 408 407
f 407 408 409
f 408 410 409
f 409 410 411
f 410 412 411
f 411 412 413
f 412 414 413
f 413 414 415
f 414 416 415
f 415 416 417
f 416 418 417
f 417 418 419
f 418 420 419
f 419 420 421
f 420 422 421
f 421 422 423
f 422 424 423
f 423 424 425
f 424 426 425
f 425 426 427
f 426 428 427
f 427 428 429
f 428 430 429
f 429 430 431
f 430 432 431
f 431 432 433
f 432 434 433
f 433 434 435
f 434 436 435
f 435 436 293
f 436 294 293
f 219 221 364
f 221 223 364
f 364 223 366
f 223 225 366
f 366 225 368
f 225 227 368
f 368 227 370
f 227 229 370
f 370 229 372
f 229 231 372
f 372 231 374
f 231 233 374
f 374 233 376
f 233 235 376
f 376 235 378
f 235 237 378
f 378 237 380
f 237 239 380
f 380 239 382
f 239 241 382
f 382 241 384
f 241 243 384
f 384 243 386
f 243 245 386
f 386 245 388
f 245 100 388
f 388 100 390
f 100 103 390
f 390 103 392
f 103 105 392
f 392 105 394
f 105 107 394
f 394 107 396
f 107 109 396
f 396 109 398
f 109 111 398
f 398 111 400
f 111 113 400
f 400 113 402
f 113 115 402
f 402 115 404
f 115 117 404
f 404 117 406
f 117 119 406
f 406 119 408
f 119 121 408
f 408 121 410
f 121 123 410
f 410 123 412
f 123 125 412
f 412 125 414
f 125 127 414
f 414 127 416
f 127 129 416
f 416 129 418
f 129 131 418
f 418 131 420
f 131 133 420
f 420 133 422
f 133 135 422
f 422 135 424
f 135 137 424
f 424 137 426
f 137 139 426
f 426 139 428
f 139 141 428
f 428 141 430
f 141 143 430
f 430 143 432
f 143 145 432
f 432 145 434
f 145 147 434
f 434 147 436
f 147 149 436
f 436 149 294
f 149 151 294
f 294 151 296
f 151 153 296
f 296 153 298
f 153 155 298
f 298 155 300
f 155 157 300
f 300 157 302
f 157 159 302
f 302 159 304
f 159 161 304
f 304 161 306
f 161 163 306
f 306 163 308
f 163 165 308
f 308 165 310
f 165 167 310
f 310 167 312
f 167 169 312
f 312 169 314
f 169 171 314
f 314 171 316
f 171 173 316
f 316 173 318
f 173 175 318
f 318 175 320
f 175 177 320
f 320 177 322
f 177 179 322
f 322 179 324
f 179 181 324
f 324 181 326
f 181 183 326
f 326 183 328
f 183 185 328
f 328 185 330
f 185 187 330
f 330 187 332
f 187 189 332
f 332 189 334
f 189 191 334
f 334 191 336
f 191 193 336
f 336 193 338
f 193 195 338
f 338 195 340
f 195 197 340
f 340 197 342
f 197 199 342
f 342 199 344
f 199 201 344
f 344 201 346
f 201 203 346
f 346 203 348
f 203 205 348
f 348 205 350
f 205 207 350
f 350 207 352
f 207 209 352
f 352 209 354
f 209 211 354
f 354 211 356
f 211 213 356
f 356 213 358
f 213 215 358
f 358 215 360
f 215 217 360
f 360 217 362
f 217 219 362
f 362 219 364
f 29 27 365
f 27 25 365
f 365 25 363
f 25 23 363
f 363 23 361
f 23 21 361
f 361 21 359
f 21 19 359
f 359 19 357
f 19 17 357
f 357 17 355
f 17 15 355
f 355 15 353
f 15 13 353
f 353 13 351
f 13 11 351
f 351 11 349
f 11 9 349
f 349 9 347
f 9 7 347
f 347 7 345
f 7 5 345
f 345 5 343
f 5 3 343
f 343 3 341
f 3 2 341
f 341 2 339
f 2 292 339
f 339 292 337
f 292 291 337
f 337 291 335
f 291 290 335
f 335 290 333
f 290 289 333
f 333 289 331
f 289 288 331
f 331 288 329
f 288 287 329
f 329 287 327
f 287 286 327
f 327 286 325
f 286 285 325
f 325 285 323
f 285 284 323
f 323 284 321
f 284 283 321
f 321 283 319
f 283 282 319
f 319 282 317
f 282 281 317
f 317 281 315
f 281 280 315
f 315 280 313
f 280 279 313
f 313 279 311
f 279 278 311
f 311 278 309
f 278 277 309
f 309 277 307
f 277 276 307
f 307 276 305
f 276 275 305
f 305 275 303
f 275 274 303
f 303 274 301
f 274 273 301
f 301 273 299
f 273 272 299
f 299 272 297
f 272 271 297
f 297 271 295
f 271 270 295
f 295 270 293
f 270 269 293
f 293 269 435
f 269 268 435
f 435 268 433
f 268 267 433
f 433 267 431
f 267 266 431
f 431 266 429
f 266 265 429
f 429 265 427
f 265 264 427
f 427 264 425
f 264 263 425
f 425 263 423
f 263 262 423
f 423 262 421
f 262 261 421
f 421 261 419
f 261 260 419
f 419 260 417
f 260 259 417
f 417 259 415
f 259 258 415
f 415 258 413
f 258 257 413
f 413 257 411
f 257 256 411
f 411 256 409
f 256 255 409
f 409 255 407
f 255 254 407
f 407 254 405
f 254 253 405
f 405 253 403
f 253 252 403
f 403 252 401
f 252 251 401
f 401 251 399
f 251 250 399
f 399 250 397
f 250 249 397
f 397 249 395
f 249 248 395
f 395 248 393
f 248 247 393
f 393 247 391
f 247 246 391
f 391 246 389
f 246 51 389
f 389 51 387
f 51 49 387
f 387 49 385
f 49 47 385
f 385 47 383
f 47 45 383
f 383 45 381
f 45 43 381
f 381 43 379
f 43 41 379
f 379 41 377
f 41 39 377
f 377 39 375
f 39 37 375
f 375 37 373
f 37 35 373
f 373 35 371
f 35 33 371
f 371 33 369
f 33 31 369
f 369 31 367
f 31 29 367
f 367 29 365

