# https://github.com/mikedh/trimesh

o f1_bolt_middle_hub.stl
v 0.00000000 -0.00317500 0.01190000
v -0.00000000 -0.02857500 0.01190000
v 0.00035734 -0.00317500 0.01191560
v 0.00035734 -0.02857500 0.01191560
v 0.00071196 -0.00317500 0.01196229
v 0.00071196 -0.02857500 0.01196229
v 0.00106116 -0.00317500 0.01203970
v 0.00106116 -0.02857500 0.01203970
v 0.00140228 -0.00317500 0.01214726
v 0.00140228 -0.02857500 0.01214726
v 0.00173273 -0.00317500 0.01228414
v 0.00173273 -0.02857500 0.01228414
v 0.00205000 -0.00317500 0.01244930
v 0.00205000 -0.02857500 0.01244930
v 0.00235166 -0.00317500 0.01264148
v 0.00235166 -0.02857500 0.01264148
v 0.00263543 -0.00317500 0.01285922
v 0.00263543 -0.02857500 0.01285922
v 0.00289914 -0.00317500 0.01310086
v 0.00289914 -0.02857500 0.01310086
v 0.00314078 -0.00317500 0.01336457
v 0.00314078 -0.02857500 0.01336457
v 0.00335852 -0.00317500 0.01364834
v 0.00335852 -0.02857500 0.01364834
v 0.00355070 -0.00317500 0.01395000
v 0.00355070 -0.02857500 0.01395000
v 0.00371586 -0.00317500 0.01426726
v 0.00371586 -0.02857500 0.01426726
v 0.00385274 -0.00317500 0.01459772
v 0.00385274 -0.02857500 0.01459772
v 0.00396030 -0.00317500 0.01493884
v 0.00396030 -0.02857500 0.01493884
v 0.00403771 -0.00317500 0.01528804
v 0.00403771 -0.02857500 0.01528804
v 0.00408440 -0.00317500 0.01564266
v 0.00408440 -0.02857500 0.01564266
v 0.00410000 -0.00317500 0.01600000
v 0.00410000 -0.02857500 0.01600000
v 0.00408440 -0.00317500 0.01635734
v 0.00408440 -0.02857500 0.01635734
v 0.00403771 -0.00317500 0.01671196
v 0.00403771 -0.02857500 0.01671196
v 0.00396030 -0.00317500 0.01706116
v 0.00396030 -0.02857500 0.01706116
v 0.00385274 -0.00317500 0.01740228
v 0.00385274 -0.02857500 0.01740228
v 0.00371586 -0.00317500 0.01773274
v 0.00371586 -0.02857500 0.01773274
v 0.00355070 -0.00317500 0.01805000
v 0.00355070 -0.02857500 0.01805000
v 0.00335852 -0.00317500 0.01835166
v 0.00335852 -0.02857500 0.01835166
v 0.00314078 -0.00317500 0.01863543
v 0.00314078 -0.02857500 0.01863543
v 0.00289914 -0.00317500 0.01889914
v 0.00289914 -0.02857500 0.01889914
v 0.00263543 -0.00317500 0.01914078
v 0.00263543 -0.02857500 0.01914078
v 0.00235166 -0.00317500 0.01935852
v 0.00235166 -0.02857500 0.01935852
v 0.00205000 -0.00317500 0.01955070
v 0.00205000 -0.02857500 0.01955070
v 0.00173273 -0.00317500 0.01971586
v 0.00173273 -0.02857500 0.01971586
v 0.00140228 -0.00317500 0.01985274
v 0.00140228 -0.02857500 0.01985274
v 0.00106116 -0.00317500 0.01996030
v 0.00106116 -0.02857500 0.01996030
v 0.00071196 -0.00317500 0.02003771
v 0.00071196 -0.02857500 0.02003771
v 0.00035734 -0.00317500 0.02008440
v 0.00035734 -0.02857500 0.02008440
v 0.00000000 -0.00317500 0.02010000
v 0.00000000 -0.02857500 0.02010000
v -0.00035734 -0.00317500 0.02008440
v -0.00035734 -0.02857500 0.02008440
v -0.00071196 -0.00317500 0.02003771
v -0.00071196 -0.02857500 0.02003771
v -0.00106116 -0.00317500 0.01996030
v -0.00106116 -0.02857500 0.01996030
v -0.00140228 -0.00317500 0.01985274
v -0.00140228 -0.02857500 0.01985274
v -0.00173273 -0.00317500 0.01971586
v -0.00173273 -0.02857500 0.01971586
v -0.00205000 -0.00317500 0.01955070
v -0.00205000 -0.02857500 0.01955070
v -0.00235166 -0.00317500 0.01935852
v -0.00235166 -0.02857500 0.01935852
v -0.00263543 -0.00317500 0.01914078
v -0.00263543 -0.02857500 0.01914078
v -0.00289914 -0.00317500 0.01889914
v -0.00289914 -0.02857500 0.01889914
v -0.00314078 -0.00317500 0.01863543
v -0.00314078 -0.02857500 0.01863543
v -0.00335852 -0.00317500 0.01835166
v -0.00335852 -0.02857500 0.01835166
v -0.00355070 -0.00317500 0.01805000
v -0.00355070 -0.02857500 0.01805000
v -0.00371586 -0.00317500 0.01773274
v -0.00371586 -0.02857500 0.01773274
v -0.00385274 -0.00317500 0.01740228
v -0.00385274 -0.02857500 0.01740228
v -0.00396030 -0.00317500 0.01706116
v -0.00396030 -0.02857500 0.01706116
v -0.00403771 -0.00317500 0.01671196
v -0.00403771 -0.02857500 0.01671196
v -0.00408440 -0.00317500 0.01635734
v -0.00408440 -0.02857500 0.01635734
v -0.00410000 -0.00317500 0.01600000
v -0.00410000 -0.02857500 0.01600000
v -0.00408440 -0.00317500 0.01564266
v -0.00408440 -0.02857500 0.01564266
v -0.00403771 -0.00317500 0.01528804
v -0.00403771 -0.02857500 0.01528804
v -0.00396030 -0.00317500 0.01493884
v -0.00396030 -0.02857500 0.01493884
v -0.00385274 -0.00317500 0.01459772
v -0.00385274 -0.02857500 0.01459772
v -0.00371586 -0.00317500 0.01426726
v -0.00371586 -0.02857500 0.01426726
v -0.00355070 -0.00317500 0.01395000
v -0.00355070 -0.02857500 0.01395000
v -0.00335852 -0.00317500 0.01364834
v -0.00335852 -0.02857500 0.01364834
v -0.00314078 -0.00317500 0.01336457
v -0.00314078 -0.02857500 0.01336457
v -0.00289914 -0.00317500 0.01310086
v -0.00289914 -0.02857500 0.01310086
v -0.00263543 -0.00317500 0.01285922
v -0.00263543 -0.02857500 0.01285922
v -0.00235166 -0.00317500 0.01264148
v -0.00235166 -0.02857500 0.01264148
v -0.00205000 -0.00317500 0.01244930
v -0.00205000 -0.02857500 0.01244930
v -0.00173273 -0.00317500 0.01228414
v -0.00173273 -0.02857500 0.01228414
v -0.00140228 -0.00317500 0.01214726
v -0.00140228 -0.02857500 0.01214726
v -0.00106116 -0.00317500 0.01203970
v -0.00106116 -0.02857500 0.01203970
v -0.00071196 -0.00317500 0.01196229
v -0.00071196 -0.02857500 0.01196229
v -0.00035734 -0.00317500 0.01191560
v -0.00035734 -0.02857500 0.01191560
v 0.00000000 -0.00317500 -0.00815000
v -0.00000000 -0.02857500 -0.00815000
v 0.00071032 -0.00317500 -0.00811899
v 0.00071032 -0.02857500 -0.00811899
v 0.00141523 -0.00317500 -0.00802618
v 0.00141523 -0.02857500 -0.00802618
v 0.00210938 -0.00317500 -0.00787230
v 0.00210938 -0.02857500 -0.00787230
v 0.00278746 -0.00317500 -0.00765849
v 0.00278746 -0.02857500 -0.00765849
v 0.00344434 -0.00317500 -0.00738641
v 0.00344434 -0.02857500 -0.00738641
v 0.00407500 -0.00317500 -0.00705811
v 0.00407500 -0.02857500 -0.00705811
v 0.00467465 -0.00317500 -0.00667609
v 0.00467465 -0.02857500 -0.00667609
v 0.00523872 -0.00317500 -0.00624326
v 0.00523872 -0.02857500 -0.00624326
v 0.00537167 -0.00317500 -0.00612925
v 0.00537167 -0.02857500 -0.00612925
v 0.00576292 -0.00317500 -0.00576292
v 0.00576292 -0.02857500 -0.00576292
v 0.00624326 -0.00317500 -0.00523872
v 0.00624326 -0.02857500 -0.00523872
v 0.00667609 -0.00317500 -0.00467465
v 0.00667609 -0.02857500 -0.00467465
v 0.00705811 -0.00317500 -0.00407500
v 0.00705811 -0.02857500 -0.00407500
v 0.00738641 -0.00317500 -0.00344434
v 0.00738641 -0.02857500 -0.00344434
v 0.00765849 -0.00317500 -0.00278746
v 0.00765849 -0.02857500 -0.00278746
v 0.00787230 -0.00317500 -0.00210938
v 0.00787230 -0.02857500 -0.00210938
v 0.00802618 -0.00317500 -0.00141523
v 0.00802618 -0.02857500 -0.00141523
v 0.00811899 -0.00317500 -0.00071032
v 0.00811899 -0.02857500 -0.00071032
v 0.00815000 -0.00317500 0.00000000
v 0.00815000 -0.02857500 0.00000000
v 0.00811899 -0.00317500 0.00071032
v 0.00811899 -0.02857500 0.00071032
v 0.00802618 -0.00317500 0.00141523
v 0.00802618 -0.02857500 0.00141523
v 0.00787230 -0.00317500 0.00210938
v 0.00787230 -0.02857500 0.00210938
v 0.00765849 -0.00317500 0.00278746
v 0.00765849 -0.02857500 0.00278746
v 0.00738641 -0.00317500 0.00344434
v 0.00738641 -0.02857500 0.00344434
v 0.00705811 -0.00317500 0.00407500
v 0.00705811 -0.02857500 0.00407500
v 0.00667609 -0.00317500 0.00467465
v 0.00667609 -0.02857500 0.00467465
v 0.00624326 -0.00317500 0.00523872
v 0.00624326 -0.02857500 0.00523872
v 0.00576292 -0.00317500 0.00576292
v 0.00576292 -0.02857500 0.00576292
v 0.00523872 -0.00317500 0.00624326
v 0.00523872 -0.02857500 0.00624326
v 0.00467465 -0.00317500 0.00667609
v 0.00467465 -0.02857500 0.00667609
v 0.00407500 -0.00317500 0.00705811
v 0.00407500 -0.02857500 0.00705811
v 0.00344434 -0.00317500 0.00738641
v 0.00344434 -0.02857500 0.00738641
v 0.00278746 -0.00317500 0.00765849
v 0.00278746 -0.02857500 0.00765849
v 0.00210938 -0.00317500 0.00787230
v 0.00210938 -0.02857500 0.00787230
v 0.00141523 -0.00317500 0.00802618
v 0.00141523 -0.02857500 0.00802618
v 0.00071032 -0.00317500 0.00811899
v 0.00071032 -0.02857500 0.00811899
v 0.00000000 -0.00317500 0.00815000
v 0.00000000 -0.02857500 0.00815000
v -0.00071032 -0.00317500 0.00811899
v -0.00071032 -0.02857500 0.00811899
v -0.00141523 -0.00317500 0.00802618
v -0.00141523 -0.02857500 0.00802618
v -0.00210938 -0.00317500 0.00787230
v -0.00210938 -0.02857500 0.00787230
v -0.00278746 -0.00317500 0.00765849
v -0.00278746 -0.02857500 0.00765849
v -0.00344434 -0.00317500 0.00738641
v -0.00344434 -0.02857500 0.00738641
v -0.00407500 -0.00317500 0.00705811
v -0.00407500 -0.02857500 0.00705811
v -0.00467465 -0.00317500 0.00667609
v -0.00467465 -0.02857500 0.00667609
v -0.00523872 -0.00317500 0.00624326
v -0.00523872 -0.02857500 0.00624326
v -0.00576292 -0.00317500 0.00576292
v -0.00576292 -0.02857500 0.00576292
v -0.00612925 -0.00317500 0.00537167
v -0.00612925 -0.02857500 0.00537167
v -0.00624326 -0.00317500 0.00523872
v -0.00624326 -0.02857500 0.00523872
v -0.00667609 -0.00317500 0.00467465
v -0.00667609 -0.02857500 0.00467465
v -0.00705811 -0.00317500 0.00407500
v -0.00705811 -0.02857500 0.00407500
v -0.00738641 -0.00317500 0.00344434
v -0.00738641 -0.02857500 0.00344434
v -0.00765849 -0.00317500 0.00278746
v -0.00765849 -0.02857500 0.00278746
v -0.00787230 -0.00317500 0.00210938
v -0.00787230 -0.02857500 0.00210938
v -0.00802618 -0.00317500 0.00141523
v -0.00802618 -0.02857500 0.00141523
v -0.00811899 -0.00317500 0.00071032
v -0.00811899 -0.02857500 0.00071032
v -0.00815000 -0.00317500 0.00000000
v -0.00815000 -0.02857500 0.00000000
v -0.00811899 -0.00317500 -0.00071032
v -0.00811899 -0.02857500 -0.00071032
v -0.00802618 -0.00317500 -0.00141523
v -0.00802618 -0.02857500 -0.00141523
v -0.00787230 -0.00317500 -0.00210938
v -0.00787230 -0.02857500 -0.00210938
v -0.00765849 -0.00317500 -0.00278746
v -0.00765849 -0.02857500 -0.00278746
v -0.00738641 -0.00317500 -0.00344434
v -0.00738641 -0.02857500 -0.00344434
v -0.00705811 -0.00317500 -0.00407500
v -0.00705811 -0.02857500 -0.00407500
v -0.00667609 -0.00317500 -0.00467465
v -0.00667609 -0.02857500 -0.00467465
v -0.00624326 -0.00317500 -0.00523872
v -0.00624326 -0.02857500 -0.00523872
v -0.00576292 -0.00317500 -0.00576292
v -0.00576292 -0.02857500 -0.00576292
v -0.00537167 -0.00317500 -0.00612925
v -0.00537167 -0.02857500 -0.00612925
v -0.00523872 -0.00317500 -0.00624326
v -0.00523872 -0.02857500 -0.00624326
v -0.00467465 -0.00317500 -0.00667609
v -0.00467465 -0.02857500 -0.00667609
v -0.00407500 -0.00317500 -0.00705811
v -0.00407500 -0.02857500 -0.00705811
v -0.00344434 -0.00317500 -0.00738641
v -0.00344434 -0.02857500 -0.00738641
v -0.00278746 -0.00317500 -0.00765849
v -0.00278746 -0.02857500 -0.00765849
v -0.00210938 -0.00317500 -0.00787230
v -0.00210938 -0.02857500 -0.00787230
v -0.00141523 -0.00317500 -0.00802618
v -0.00141523 -0.02857500 -0.00802618
v -0.00071032 -0.00317500 -0.00811899
v -0.00071032 -0.02857500 -0.00811899
v 0.00305045 -0.02857500 -0.03486681
v 0.00607769 -0.02857500 -0.03446827
v 0.00106116 -0.02857500 -0.01996030
v -0.00235166 -0.02857500 -0.01264148
v -0.00612500 -0.02857500 -0.00612500
v -0.00263543 -0.02857500 -0.01285922
v -0.00289914 -0.02857500 -0.01310086
v -0.00355070 -0.02857500 -0.01395000
v -0.00335852 -0.02857500 -0.01364834
v -0.00314078 -0.02857500 -0.01336457
v -0.00205000 -0.02857500 -0.01244930
v 0.00071196 -0.02857500 -0.02003771
v 0.00035734 -0.02857500 -0.02008440
v 0.00000000 -0.02857500 -0.03500000
v -0.00000000 -0.02857500 -0.02010000
v -0.00305045 -0.02857500 -0.03486681
v -0.00106116 -0.02857500 -0.01203970
v -0.00140228 -0.02857500 -0.01214726
v -0.00173273 -0.02857500 -0.01228414
v 0.00106116 -0.02857500 -0.01203970
v 0.00071196 -0.02857500 -0.01196229
v 0.00289914 -0.02857500 -0.01310086
v 0.00314078 -0.02857500 -0.01336457
v 0.03445981 -0.02857500 -0.00612545
v 0.02007518 -0.02857500 -0.02867032
v 0.00335852 -0.02857500 -0.01835166
v 0.01750000 -0.02857500 -0.03031089
v 0.00314078 -0.02857500 -0.01863543
v 0.01479164 -0.02857500 -0.03172077
v -0.00905867 -0.02857500 -0.03380740
v -0.00205000 -0.02857500 -0.01955070
v -0.00235166 -0.02857500 -0.01935852
v 0.00205000 -0.02857500 -0.01244930
v 0.00235166 -0.02857500 -0.01264148
v 0.00263543 -0.02857500 -0.01285922
v -0.00035734 -0.02857500 -0.02008440
v -0.00071196 -0.02857500 -0.02003771
v -0.00607769 -0.02857500 -0.03446827
v -0.00403771 -0.02857500 -0.01528804
v -0.00396030 -0.02857500 -0.01493884
v -0.00071196 -0.02857500 -0.01196229
v -0.00035734 -0.02857500 -0.01191560
v 0.00000000 -0.02857500 -0.01190000
v 0.00035734 -0.02857500 -0.01191560
v 0.00335852 -0.02857500 -0.01364834
v 0.00355070 -0.02857500 -0.01395000
v 0.00371586 -0.02857500 -0.01426726
v 0.00289914 -0.02857500 -0.01889914
v 0.00263543 -0.02857500 -0.01914078
v 0.01197071 -0.02857500 -0.03288924
v 0.00235166 -0.02857500 -0.01935852
v 0.00905867 -0.02857500 -0.03380740
v 0.00205000 -0.02857500 -0.01955070
v 0.00173273 -0.02857500 -0.01971586
v 0.00140228 -0.02857500 -0.01985274
v -0.00106116 -0.02857500 -0.01996030
v -0.00140228 -0.02857500 -0.01985274
v -0.00173273 -0.02857500 -0.01971586
v -0.00314078 -0.02857500 -0.01863543
v -0.00335852 -0.02857500 -0.01835166
v -0.00355070 -0.02857500 -0.01805000
v -0.00371586 -0.02857500 -0.01773274
v -0.00385274 -0.02857500 -0.01740228
v -0.00396030 -0.02857500 -0.01706116
v -0.00403771 -0.02857500 -0.01671196
v -0.00385274 -0.02857500 -0.01459772
v -0.00371586 -0.02857500 -0.01426726
v 0.00140228 -0.02857500 -0.01214726
v 0.00173273 -0.02857500 -0.01228414
v -0.00263543 -0.02857500 -0.01914078
v -0.00289914 -0.02857500 -0.01889914
v -0.00408440 -0.02857500 -0.01635734
v -0.00410000 -0.02857500 -0.01600000
v -0.00408440 -0.02857500 -0.01564266
v 0.00385274 -0.02857500 -0.01459772
v 0.00396030 -0.02857500 -0.01493884
v 0.03380740 -0.02857500 -0.00905867
v 0.00403771 -0.02857500 -0.01528804
v 0.03288924 -0.02857500 -0.01197071
v 0.00408440 -0.02857500 -0.01564266
v 0.03172077 -0.02857500 -0.01479164
v 0.00410000 -0.02857500 -0.01600000
v 0.03031089 -0.02857500 -0.01750000
v 0.00408440 -0.02857500 -0.01635734
v 0.02867032 -0.02857500 -0.02007518
v 0.00403771 -0.02857500 -0.01671196
v 0.02681156 -0.02857500 -0.02249757
v 0.00396030 -0.02857500 -0.01706116
v 0.02474874 -0.02857500 -0.02474874
v 0.00385274 -0.02857500 -0.01740228
v 0.02249757 -0.02857500 -0.02681156
v 0.00371586 -0.02857500 -0.01773274
v 0.00355070 -0.02857500 -0.01805000
v -0.03380740 -0.02857500 -0.00905867
v -0.03288924 -0.02857500 -0.01197071
v -0.02249757 -0.02857500 -0.02681156
v -0.02007518 -0.02857500 -0.02867032
v -0.01750000 -0.02857500 -0.03031089
v -0.03172077 -0.02857500 -0.01479164
v -0.03031089 -0.02857500 -0.01750000
v -0.02867032 -0.02857500 -0.02007518
v -0.02681156 -0.02857500 -0.02249757
v -0.02474874 -0.02857500 -0.02474874
v -0.01479164 -0.02857500 -0.03172077
v -0.01197071 -0.02857500 -0.03288924
v -0.03486681 -0.02857500 -0.00305045
v -0.03446827 -0.02857500 -0.00607769
v -0.01996030 -0.02857500 -0.00106116
v -0.03446827 -0.02857500 0.00607769
v -0.03486681 -0.02857500 0.00305045
v -0.02003771 -0.02857500 0.00071196
v -0.01996030 -0.02857500 0.00106116
v -0.01985274 -0.02857500 0.00140228
v -0.03380740 -0.02857500 0.00905867
v -0.01671196 -0.02857500 -0.00403771
v -0.01706116 -0.02857500 -0.00396030
v -0.01740228 -0.02857500 -0.00385274
v -0.01773274 -0.02857500 -0.00371586
v -0.01805000 -0.02857500 -0.00355070
v -0.01835166 -0.02857500 -0.00335852
v -0.01863543 -0.02857500 -0.00314078
v -0.01889914 -0.02857500 -0.00289914
v -0.01914078 -0.02857500 -0.00263543
v -0.01935852 -0.02857500 -0.00235166
v -0.02003771 -0.02857500 -0.00071196
v -0.02008440 -0.02857500 -0.00035734
v -0.03500000 -0.02857500 -0.00000000
v -0.02010000 -0.02857500 0.00000000
v -0.02008440 -0.02857500 0.00035734
v -0.01971586 -0.02857500 0.00173273
v -0.01955070 -0.02857500 0.00205000
v -0.03288924 -0.02857500 0.01197071
v -0.01935852 -0.02857500 0.00235166
v -0.03172077 -0.02857500 0.01479164
v -0.01955070 -0.02857500 -0.00205000
v -0.01971586 -0.02857500 -0.00173273
v -0.01985274 -0.02857500 -0.00140228
v -0.01914078 -0.02857500 0.00263543
v -0.01889914 -0.02857500 0.00289914
v -0.03031089 -0.02857500 0.01750000
v -0.01863543 -0.02857500 0.00314078
v -0.02867032 -0.02857500 0.02007518
v -0.01528804 -0.02857500 -0.00403771
v -0.01493884 -0.02857500 -0.00396030
v -0.01459772 -0.02857500 -0.00385274
v -0.01564266 -0.02857500 -0.00408440
v -0.01600000 -0.02857500 -0.00410000
v -0.01635734 -0.02857500 -0.00408440
v -0.01336457 -0.02857500 -0.00314078
v -0.01364834 -0.02857500 -0.00335852
v -0.01395000 -0.02857500 -0.00355070
v -0.01426726 -0.02857500 -0.00371586
v -0.01264148 -0.02857500 -0.00235166
v -0.01285922 -0.02857500 -0.00263543
v -0.01310086 -0.02857500 -0.00289914
v -0.01196229 -0.02857500 -0.00071196
v -0.01459772 -0.02857500 0.00385274
v -0.01426726 -0.02857500 0.00371586
v -0.00612545 -0.02857500 0.03445981
v -0.01395000 -0.02857500 0.00355070
v -0.01364834 -0.02857500 0.00335852
v -0.01336457 -0.02857500 0.00314078
v -0.01285922 -0.02857500 0.00263543
v -0.01310086 -0.02857500 0.00289914
v -0.01214726 -0.02857500 -0.00140228
v -0.01228414 -0.02857500 -0.00173273
v -0.01835166 -0.02857500 0.00335852
v -0.01805000 -0.02857500 0.00355070
v -0.02681156 -0.02857500 0.02249757
v -0.01773274 -0.02857500 0.00371586
v -0.02474874 -0.02857500 0.02474874
v -0.01740228 -0.02857500 0.00385274
v -0.02249757 -0.02857500 0.02681156
v -0.01706116 -0.02857500 0.00396030
v -0.02007518 -0.02857500 0.02867032
v -0.01671196 -0.02857500 0.00403771
v -0.01750000 -0.02857500 0.03031089
v -0.01635734 -0.02857500 0.00408440
v -0.01479164 -0.02857500 0.03172077
v -0.01600000 -0.02857500 0.00410000
v -0.01197071 -0.02857500 0.03288924
v -0.01564266 -0.02857500 0.00408440
v -0.00905867 -0.02857500 0.03380740
v -0.01528804 -0.02857500 0.00403771
v -0.01493884 -0.02857500 0.00396030
v -0.01264148 -0.02857500 0.00235166
v -0.01244930 -0.02857500 0.00205000
v -0.01203970 -0.02857500 0.00106116
v -0.01196229 -0.02857500 0.00071196
v -0.01191560 -0.02857500 0.00035734
v -0.01190000 -0.02857500 -0.00000000
v -0.01191560 -0.02857500 -0.00035734
v -0.01244930 -0.02857500 -0.00205000
v -0.01214726 -0.02857500 0.00140228
v -0.01228414 -0.02857500 0.00173273
v -0.01203970 -0.02857500 -0.00106116
v 0.01228414 -0.02857500 -0.00173273
v 0.01264148 -0.02857500 -0.00235166
v 0.01196229 -0.02857500 0.00071196
v 0.01635734 -0.02857500 -0.00408440
v 0.01600000 -0.02857500 -0.00410000
v 0.01564266 -0.02857500 -0.00408440
v 0.01528804 -0.02857500 -0.00403771
v 0.01493884 -0.02857500 -0.00396030
v 0.01459772 -0.02857500 -0.00385274
v 0.01426726 -0.02857500 -0.00371586
v 0.01395000 -0.02857500 -0.00355070
v 0.01364834 -0.02857500 -0.00335852
v 0.01336457 -0.02857500 -0.00314078
v 0.01310086 -0.02857500 -0.00289914
v 0.01285922 -0.02857500 -0.00263543
v 0.01244930 -0.02857500 -0.00205000
v 0.01863543 -0.02857500 -0.00314078
v 0.01835166 -0.02857500 -0.00335852
v 0.01214726 -0.02857500 -0.00140228
v 0.01203970 -0.02857500 -0.00106116
v 0.01196229 -0.02857500 -0.00071196
v 0.01191560 -0.02857500 -0.00035734
v 0.01190000 -0.02857500 0.00000000
v 0.01191560 -0.02857500 0.00035734
v 0.01805000 -0.02857500 -0.00355070
v 0.01773274 -0.02857500 -0.00371586
v 0.01740228 -0.02857500 -0.00385274
v 0.01706116 -0.02857500 -0.00396030
v 0.01671196 -0.02857500 -0.00403771
v 0.00607769 -0.02857500 0.03446827
v 0.00305045 -0.02857500 0.03486681
v 0.01336457 -0.02857500 0.00314078
v -0.00607769 -0.02857500 0.03446827
v -0.00305045 -0.02857500 0.03486681
v 0.00000000 -0.02857500 0.03500000
v 0.03486681 -0.02857500 0.00305045
v 0.03446827 -0.02857500 0.00607769
v 0.01996030 -0.02857500 0.00106116
v 0.01203970 -0.02857500 0.00106116
v 0.01214726 -0.02857500 0.00140228
v 0.00905867 -0.02857500 0.03380740
v 0.01971586 -0.02857500 -0.00173273
v 0.01955070 -0.02857500 -0.00205000
v 0.01935852 -0.02857500 -0.00235166
v 0.01228414 -0.02857500 0.00173273
v 0.01244930 -0.02857500 0.00205000
v 0.01264148 -0.02857500 0.00235166
v 0.01914078 -0.02857500 -0.00263543
v 0.01889914 -0.02857500 -0.00289914
v 0.01285922 -0.02857500 0.00263543
v 0.01310086 -0.02857500 0.00289914
v 0.03486681 -0.02857500 -0.00305045
v 0.02003771 -0.02857500 -0.00071196
v 0.03446827 -0.02857500 -0.00607769
v 0.01996030 -0.02857500 -0.00106116
v 0.01985274 -0.02857500 -0.00140228
v 0.01197071 -0.02857500 0.03288924
v 0.01479164 -0.02857500 0.03172077
v 0.02003771 -0.02857500 0.00071196
v 0.02008440 -0.02857500 0.00035734
v 0.03500000 -0.02857500 0.00000000
v 0.02010000 -0.02857500 -0.00000000
v 0.02008440 -0.02857500 -0.00035734
v 0.01493884 -0.02857500 0.00396030
v 0.01706116 -0.02857500 0.00396030
v 0.01740228 -0.02857500 0.00385274
v 0.02681156 -0.02857500 0.02249757
v 0.01773274 -0.02857500 0.00371586
v 0.02867032 -0.02857500 0.02007518
v 0.01600000 -0.02857500 0.00410000
v 0.01635734 -0.02857500 0.00408440
v 0.01671196 -0.02857500 0.00403771
v 0.01750000 -0.02857500 0.03031089
v 0.02007518 -0.02857500 0.02867032
v 0.02474874 -0.02857500 0.02474874
v 0.02249757 -0.02857500 0.02681156
v 0.03380740 -0.02857500 0.00905867
v 0.01971586 -0.02857500 0.00173273
v 0.01985274 -0.02857500 0.00140228
v 0.01364834 -0.02857500 0.00335852
v 0.01395000 -0.02857500 0.00355070
v 0.01426726 -0.02857500 0.00371586
v 0.01459772 -0.02857500 0.00385274
v 0.01528804 -0.02857500 0.00403771
v 0.01564266 -0.02857500 0.00408440
v 0.03172077 -0.02857500 0.01479164
v 0.01914078 -0.02857500 0.00263543
v 0.03288924 -0.02857500 0.01197071
v 0.01935852 -0.02857500 0.00235166
v 0.01955070 -0.02857500 0.00205000
v 0.01805000 -0.02857500 0.00355070
v 0.01835166 -0.02857500 0.00335852
v 0.03031089 -0.02857500 0.01750000
v 0.01863543 -0.02857500 0.00314078
v 0.01889914 -0.02857500 0.00289914
v -0.00612545 -0.00317500 0.03445981
v -0.00607769 -0.00317500 0.03446827
v -0.00905867 -0.00317500 0.03380740
v -0.01197071 -0.00317500 0.03288924
v -0.01479164 -0.00317500 0.03172077
v -0.01750000 -0.00317500 0.03031089
v -0.02007518 -0.00317500 0.02867032
v -0.02249757 -0.00317500 0.02681156
v -0.02474874 -0.00317500 0.02474874
v -0.02681156 -0.00317500 0.02249757
v -0.02867032 -0.00317500 0.02007518
v -0.03031089 -0.00317500 0.01750000
v -0.03172077 -0.00317500 0.01479164
v -0.03288924 -0.00317500 0.01197071
v -0.03380740 -0.00317500 0.00905867
v -0.03446827 -0.00317500 0.00607769
v -0.03486681 -0.00317500 0.00305045
v -0.03500000 -0.00317500 -0.00000000
v -0.03486681 -0.00317500 -0.00305045
v -0.03446827 -0.00317500 -0.00607769
v -0.03380740 -0.00317500 -0.00905867
v -0.03288924 -0.00317500 -0.01197071
v -0.03172077 -0.00317500 -0.01479164
v -0.03031089 -0.00317500 -0.01750000
v -0.02867032 -0.00317500 -0.02007518
v -0.02681156 -0.00317500 -0.02249757
v -0.02474874 -0.00317500 -0.02474874
v -0.02249757 -0.00317500 -0.02681156
v -0.02007518 -0.00317500 -0.02867032
v -0.01750000 -0.00317500 -0.03031089
v -0.01479164 -0.00317500 -0.03172077
v -0.01197071 -0.00317500 -0.03288924
v -0.00905867 -0.00317500 -0.03380740
v -0.00607769 -0.00317500 -0.03446827
v -0.00305045 -0.00317500 -0.03486681
v 0.00000000 -0.00317500 -0.03500000
v 0.00305045 -0.00317500 -0.03486681
v 0.00607769 -0.00317500 -0.03446827
v 0.00905867 -0.00317500 -0.03380740
v 0.01197071 -0.00317500 -0.03288924
v 0.01479164 -0.00317500 -0.03172077
v 0.01750000 -0.00317500 -0.03031089
v 0.02007518 -0.00317500 -0.02867032
v 0.02249757 -0.00317500 -0.02681156
v 0.02474874 -0.00317500 -0.02474874
v 0.02681156 -0.00317500 -0.02249757
v 0.02867032 -0.00317500 -0.02007518
v 0.03031089 -0.00317500 -0.01750000
v 0.03172077 -0.00317500 -0.01479164
v 0.03288924 -0.00317500 -0.01197071
v 0.03380740 -0.00317500 -0.00905867
v 0.03445981 -0.00317500 -0.00612545
v -0.00305045 -0.00317500 0.03486681
v 0.00000000 -0.00317500 0.03500000
v 0.00305045 -0.00317500 0.03486681
v 0.00607769 -0.00317500 0.03446827
v 0.00905867 -0.00317500 0.03380740
v 0.01197071 -0.00317500 0.03288924
v 0.01479164 -0.00317500 0.03172077
v 0.01750000 -0.00317500 0.03031089
v 0.02007518 -0.00317500 0.02867032
v 0.02249757 -0.00317500 0.02681156
v 0.02474874 -0.00317500 0.02474874
v 0.02681156 -0.00317500 0.02249757
v 0.02867032 -0.00317500 0.02007518
v 0.03031089 -0.00317500 0.01750000
v 0.03172077 -0.00317500 0.01479164
v 0.03288924 -0.00317500 0.01197071
v 0.03380740 -0.00317500 0.00905867
v 0.03446827 -0.00317500 0.00607769
v 0.03486681 -0.00317500 0.00305045
v 0.03500000 -0.00317500 0.00000000
v 0.03486681 -0.00317500 -0.00305045
v 0.03446827 -0.00317500 -0.00607769
v -0.01600000 -0.00317500 -0.00410000
v -0.01564266 -0.00317500 -0.00408440
v -0.01528804 -0.00317500 -0.00403771
v -0.01493884 -0.00317500 -0.00396030
v -0.01459772 -0.00317500 -0.00385274
v -0.01426726 -0.00317500 -0.00371586
v -0.01395000 -0.00317500 -0.00355070
v -0.01364834 -0.00317500 -0.00335852
v -0.01336457 -0.00317500 -0.00314078
v -0.01310086 -0.00317500 -0.00289914
v -0.01285922 -0.00317500 -0.00263543
v -0.01264148 -0.00317500 -0.00235166
v -0.01244930 -0.00317500 -0.00205000
v -0.01228414 -0.00317500 -0.00173273
v -0.01214726 -0.00317500 -0.00140228
v -0.01203970 -0.00317500 -0.00106116
v -0.01196229 -0.00317500 -0.00071196
v -0.01191560 -0.00317500 -0.00035734
v -0.01190000 -0.00317500 -0.00000000
v -0.01191560 -0.00317500 0.00035734
v -0.01196229 -0.00317500 0.00071196
v -0.01203970 -0.00317500 0.00106116
v -0.01214726 -0.00317500 0.00140228
v -0.01228414 -0.00317500 0.00173273
v -0.01244930 -0.00317500 0.00205000
v -0.01264148 -0.00317500 0.00235166
v -0.01285922 -0.00317500 0.00263543
v -0.01310086 -0.00317500 0.00289914
v -0.01336457 -0.00317500 0.00314078
v -0.01364834 -0.00317500 0.00335852
v -0.01395000 -0.00317500 0.00355070
v -0.01426726 -0.00317500 0.00371586
v -0.01459772 -0.00317500 0.00385274
v -0.01493884 -0.00317500 0.00396030
v -0.01528804 -0.00317500 0.00403771
v -0.01564266 -0.00317500 0.00408440
v -0.01600000 -0.00317500 0.00410000
v -0.01635734 -0.00317500 0.00408440
v -0.01671196 -0.00317500 0.00403771
v -0.01706116 -0.00317500 0.00396030
v -0.01740228 -0.00317500 0.00385274
v -0.01773274 -0.00317500 0.00371586
v -0.01805000 -0.00317500 0.00355070
v -0.01835166 -0.00317500 0.00335852
v -0.01863543 -0.00317500 0.00314078
v -0.01889914 -0.00317500 0.00289914
v -0.01914078 -0.00317500 0.00263543
v -0.01935852 -0.00317500 0.00235166
v -0.01955070 -0.00317500 0.00205000
v -0.01971586 -0.00317500 0.00173273
v -0.01985274 -0.00317500 0.00140228
v -0.01996030 -0.00317500 0.00106116
v -0.02003771 -0.00317500 0.00071196
v -0.02008440 -0.00317500 0.00035734
v -0.02010000 -0.00317500 0.00000000
v -0.02008440 -0.00317500 -0.00035734
v -0.02003771 -0.00317500 -0.00071196
v -0.01996030 -0.00317500 -0.00106116
v -0.01985274 -0.00317500 -0.00140228
v -0.01971586 -0.00317500 -0.00173273
v -0.01955070 -0.00317500 -0.00205000
v -0.01935852 -0.00317500 -0.00235166
v -0.01914078 -0.00317500 -0.00263543
v -0.01889914 -0.00317500 -0.00289914
v -0.01863543 -0.00317500 -0.00314078
v -0.01835166 -0.00317500 -0.00335852
v -0.01805000 -0.00317500 -0.00355070
v -0.01773274 -0.00317500 -0.00371586
v -0.01740228 -0.00317500 -0.00385274
v -0.01706116 -0.00317500 -0.00396030
v -0.01671196 -0.00317500 -0.00403771
v -0.01635734 -0.00317500 -0.00408440
v -0.00612500 -0.00317500 -0.00612500
v 0.00205000 -0.00317500 -0.01244930
v -0.00106116 -0.00317500 -0.01203970
v -0.00071196 -0.00317500 -0.01196229
v -0.00289914 -0.00317500 -0.01310086
v -0.00263543 -0.00317500 -0.01285922
v -0.00235166 -0.00317500 -0.01264148
v 0.00106116 -0.00317500 -0.01203970
v 0.00140228 -0.00317500 -0.01214726
v 0.00173273 -0.00317500 -0.01228414
v -0.00140228 -0.00317500 -0.01214726
v -0.00173273 -0.00317500 -0.01228414
v -0.00314078 -0.00317500 -0.01336457
v -0.00335852 -0.00317500 -0.01364834
v -0.00355070 -0.00317500 -0.01395000
v 0.00314078 -0.00317500 -0.01336457
v 0.00289914 -0.00317500 -0.01310086
v 0.00263543 -0.00317500 -0.01285922
v 0.00071196 -0.00317500 -0.01196229
v 0.00035734 -0.00317500 -0.01191560
v 0.00000000 -0.00317500 -0.01190000
v -0.00035734 -0.00317500 -0.01191560
v -0.00205000 -0.00317500 -0.01244930
v 0.00235166 -0.00317500 -0.01264148
v 0.00335852 -0.00317500 -0.01364834
v 0.00289914 -0.00317500 -0.01889914
v 0.00314078 -0.00317500 -0.01863543
v -0.00371586 -0.00317500 -0.01426726
v -0.00385274 -0.00317500 -0.01459772
v -0.00396030 -0.00317500 -0.01493884
v -0.00410000 -0.00317500 -0.01600000
v -0.00408440 -0.00317500 -0.01635734
v -0.00385274 -0.00317500 -0.01740228
v -0.00371586 -0.00317500 -0.01773274
v -0.00355070 -0.00317500 -0.01805000
v -0.00205000 -0.00317500 -0.01955070
v -0.00173273 -0.00317500 -0.01971586
v 0.00071196 -0.00317500 -0.02003771
v 0.00106116 -0.00317500 -0.01996030
v 0.00140228 -0.00317500 -0.01985274
v -0.00403771 -0.00317500 -0.01528804
v -0.00408440 -0.00317500 -0.01564266
v -0.00403771 -0.00317500 -0.01671196
v -0.00396030 -0.00317500 -0.01706116
v -0.00335852 -0.00317500 -0.01835166
v -0.00314078 -0.00317500 -0.01863543
v -0.00289914 -0.00317500 -0.01889914
v -0.00140228 -0.00317500 -0.01985274
v -0.00106116 -0.00317500 -0.01996030
v -0.00071196 -0.00317500 -0.02003771
v -0.00035734 -0.00317500 -0.02008440
v -0.00000000 -0.00317500 -0.02010000
v 0.00035734 -0.00317500 -0.02008440
v 0.00385274 -0.00317500 -0.01459772
v 0.00371586 -0.00317500 -0.01426726
v 0.00355070 -0.00317500 -0.01395000
v -0.00263543 -0.00317500 -0.01914078
v -0.00235166 -0.00317500 -0.01935852
v 0.00173273 -0.00317500 -0.01971586
v 0.00205000 -0.00317500 -0.01955070
v 0.00235166 -0.00317500 -0.01935852
v 0.00263543 -0.00317500 -0.01914078
v 0.00335852 -0.00317500 -0.01835166
v 0.00355070 -0.00317500 -0.01805000
v 0.00371586 -0.00317500 -0.01773274
v 0.00385274 -0.00317500 -0.01740228
v 0.00396030 -0.00317500 -0.01706116
v 0.00403771 -0.00317500 -0.01671196
v 0.00408440 -0.00317500 -0.01635734
v 0.00410000 -0.00317500 -0.01600000
v 0.00408440 -0.00317500 -0.01564266
v 0.00403771 -0.00317500 -0.01528804
v 0.00396030 -0.00317500 -0.01493884
v 0.01264148 -0.00317500 -0.00235166
v 0.01196229 -0.00317500 -0.00071196
v 0.01203970 -0.00317500 -0.00106116
v 0.01285922 -0.00317500 -0.00263543
v 0.01310086 -0.00317500 -0.00289914
v 0.01635734 -0.00317500 -0.00408440
v 0.01671196 -0.00317500 -0.00403771
v 0.01706116 -0.00317500 -0.00396030
v 0.01740228 -0.00317500 -0.00385274
v 0.01773274 -0.00317500 -0.00371586
v 0.01805000 -0.00317500 -0.00355070
v 0.01835166 -0.00317500 -0.00335852
v 0.01863543 -0.00317500 -0.00314078
v 0.01889914 -0.00317500 -0.00289914
v 0.01914078 -0.00317500 -0.00263543
v 0.01935852 -0.00317500 -0.00235166
v 0.01955070 -0.00317500 -0.00205000
v 0.01228414 -0.00317500 -0.00173273
v 0.01244930 -0.00317500 -0.00205000
v 0.01336457 -0.00317500 -0.00314078
v 0.01364834 -0.00317500 -0.00335852
v 0.01395000 -0.00317500 -0.00355070
v 0.01214726 -0.00317500 -0.00140228
v 0.01426726 -0.00317500 -0.00371586
v 0.01459772 -0.00317500 -0.00385274
v 0.01493884 -0.00317500 -0.00396030
v 0.01600000 -0.00317500 -0.00410000
v 0.01971586 -0.00317500 -0.00173273
v 0.01985274 -0.00317500 -0.00140228
v 0.01996030 -0.00317500 -0.00106116
v 0.02003771 -0.00317500 0.00071196
v 0.01528804 -0.00317500 0.00403771
v 0.01493884 -0.00317500 0.00396030
v 0.01528804 -0.00317500 -0.00403771
v 0.01564266 -0.00317500 -0.00408440
v 0.02003771 -0.00317500 -0.00071196
v 0.02008440 -0.00317500 -0.00035734
v 0.02010000 -0.00317500 -0.00000000
v 0.02008440 -0.00317500 0.00035734
v 0.01564266 -0.00317500 0.00408440
v 0.01191560 -0.00317500 -0.00035734
v 0.01190000 -0.00317500 0.00000000
v 0.01191560 -0.00317500 0.00035734
v 0.01196229 -0.00317500 0.00071196
v 0.01203970 -0.00317500 0.00106116
v 0.01214726 -0.00317500 0.00140228
v 0.01228414 -0.00317500 0.00173273
v 0.01244930 -0.00317500 0.00205000
v 0.01996030 -0.00317500 0.00106116
v 0.01985274 -0.00317500 0.00140228
v 0.01310086 -0.00317500 0.00289914
v 0.01285922 -0.00317500 0.00263543
v 0.01264148 -0.00317500 0.00235166
v 0.01336457 -0.00317500 0.00314078
v 0.01971586 -0.00317500 0.00173273
v 0.01955070 -0.00317500 0.00205000
v 0.01935852 -0.00317500 0.00235166
v 0.01805000 -0.00317500 0.00355070
v 0.01773274 -0.00317500 0.00371586
v 0.01740228 -0.00317500 0.00385274
v 0.01706116 -0.00317500 0.00396030
v 0.01671196 -0.00317500 0.00403771
v 0.01635734 -0.00317500 0.00408440
v 0.01600000 -0.00317500 0.00410000
v 0.01395000 -0.00317500 0.00355070
v 0.01426726 -0.00317500 0.00371586
v 0.01459772 -0.00317500 0.00385274
v 0.01914078 -0.00317500 0.00263543
v 0.01889914 -0.00317500 0.00289914
v 0.01863543 -0.00317500 0.00314078
v 0.01835166 -0.00317500 0.00335852
v 0.01364834 -0.00317500 0.00335852
f 1 2 3
f 2 4 3
f 3 4 5
f 4 6 5
f 5 6 7
f 6 8 7
f 7 8 9
f 8 10 9
f 9 10 11
f 10 12 11
f 11 12 13
f 12 14 13
f 13 14 15
f 14 16 15
f 15 16 17
f 16 18 17
f 17 18 19
f 18 20 19
f 19 20 21
f 20 22 21
f 21 22 23
f 22 24 23
f 23 24 25
f 24 26 25
f 25 26 27
f 26 28 27
f 27 28 29
f 28 30 29
f 29 30 31
f 30 32 31
f 31 32 33
f 32 34 33
f 33 34 35
f 34 36 35
f 35 36 37
f 36 38 37
f 37 38 39
f 38 40 39
f 39 40 41
f 40 42 41
f 41 42 43
f 42 44 43
f 43 44 45
f 44 46 45
f 45 46 47
f 46 48 47
f 47 48 49
f 48 50 49
f 49 50 51
f 50 52 51
f 51 52 53
f 52 54 53
f 53 54 55
f 54 56 55
f 55 56 57
f 56 58 57
f 57 58 59
f 58 60 59
f 59 60 61
f 60 62 61
f 61 62 63
f 62 64 63
f 63 64 65
f 64 66 65
f 65 66 67
f 66 68 67
f 67 68 69
f 68 70 69
f 69 70 71
f 70 72 71
f 71 72 73
f 72 74 73
f 73 74 75
f 74 76 75
f 75 76 77
f 76 78 77
f 77 78 79
f 78 80 79
f 79 80 81
f 80 82 81
f 81 82 83
f 82 84 83
f 83 84 85
f 84 86 85
f 85 86 87
f 86 88 87
f 87 88 89
f 88 90 89
f 89 90 91
f 90 92 91
f 91 92 93
f 92 94 93
f 93 94 95
f 94 96 95
f 95 96 97
f 96 98 97
f 97 98 99
f 98 100 99
f 99 100 101
f 100 102 101
f 101 102 103
f 102 104 103
f 103 104 105
f 104 106 105
f 105 106 107
f 106 108 107
f 107 108 109
f 108 110 109
f 109 110 111
f 110 112 111
f 111 112 113
f 112 114 113
f 113 114 115
f 114 116 115
f 115 116 117
f 116 118 117
f 117 118 119
f 118 120 119
f 119 120 121
f 120 122 121
f 121 122 123
f 122 124 123
f 123 124 125
f 124 126 125
f 125 126 127
f 126 128 127
f 127 128 129
f 128 130 129
f 129 130 131
f 130 132 131
f 131 132 133
f 132 134 133
f 133 134 135
f 134 136 135
f 135 136 137
f 136 138 137
f 137 138 139
f 138 140 139
f 139 140 141
f 140 142 141
f 141 142 143
f 142 144 143
f 143 144 1
f 144 2 1
f 145 146 147
f 146 148 147
f 147 148 149
f 148 150 149
f 149 150 151
f 150 152 151
f 151 152 153
f 152 154 153
f 153 154 155
f 154 156 155
f 155 156 157
f 156 158 157
f 157 158 159
f 158 160 159
f 159 160 161
f 160 162 161
f 161 162 163
f 162 164 163
f 163 164 165
f 164 166 165
f 165 166 167
f 166 168 167
f 167 168 169
f 168 170 169
f 169 170 171
f 170 172 171
f 171 172 173
f 172 174 173
f 173 174 175
f 174 176 175
f 175 176 177
f 176 178 177
f 177 178 179
f 178 180 179
f 179 180 181
f 180 182 181
f 181 182 183
f 182 184 183
f 183 184 185
f 184 186 185
f 185 186 187
f 186 188 187
f 187 188 189
f 188 190 189
f 189 190 191
f 190 192 191
f 191 192 193
f 192 194 193
f 193 194 195
f 194 196 195
f 195 196 197
f 196 198 197
f 197 198 199
f 198 200 199
f 199 200 201
f 200 202 201
f 201 202 203
f 202 204 203
f 203 204 205
f 204 206 205
f 205 206 207
f 206 208 207
f 207 208 209
f 208 210 209
f 209 210 211
f 210 212 211
f 211 212 213
f 212 214 213
f 213 214 215
f 214 216 215
f 215 216 217
f 216 218 217
f 217 218 219
f 218 220 219
f 219 220 221
f 220 222 221
f 221 222 223
f 222 224 223
f 223 224 225
f 224 226 225
f 225 226 227
f 226 228 227
f 227 228 229
f 228 230 229
f 229 230 231
f 230 232 231
f 231 232 233
f 232 234 233
f 233 234 235
f 234 236 235
f 235 236 237
f 236 238 237
f 237 238 239
f 238 240 239
f 239 240 241
f 240 242 241
f 241 242 243
f 242 244 243
f 243 244 245
f 244 246 245
f 245 246 247
f 246 248 247
f 247 248 249
f 248 250 249
f 249 250 251
f 250 252 251
f 251 252 253
f 252 254 253
f 253 254 255
f 254 256 255
f 255 256 257
f 256 258 257
f 257 258 259
f 258 260 259
f 259 260 261
f 260 262 261
f 261 262 263
f 262 264 263
f 263 264 265
f 264 266 265
f 265 266 267
f 266 268 267
f 267 268 269
f 268 270 269
f 269 270 271
f 270 272 271
f 271 272 273
f 272 274 273
f 273 274 275
f 274 276 275
f 275 276 277
f 276 278 277
f 277 278 279
f 278 280 279
f 279 280 281
f 280 282 281
f 281 282 283
f 282 284 283
f 283 284 285
f 284 286 285
f 285 286 287
f 286 288 287
f 287 288 289
f 288 290 289
f 289 290 291
f 290 292 291
f 291 292 293
f 292 294 293
f 293 294 145
f 294 146 145
f 295 296 297
f 298 299 300
f 299 301 300
f 302 303 299
f 303 304 299
f 299 304 301
f 305 288 298
f 288 286 298
f 297 306 295
f 306 307 295
f 295 307 308
f 307 309 308
f 308 309 310
f 294 292 311
f 292 290 311
f 311 290 312
f 290 288 312
f 312 288 313
f 288 305 313
f 286 284 298
f 284 282 298
f 298 282 299
f 282 280 299
f 299 280 278
f 152 150 314
f 150 148 314
f 314 148 315
f 316 317 318
f 319 320 321
f 320 322 321
f 321 322 323
f 324 325 326
f 162 327 164
f 327 328 164
f 164 328 329
f 309 330 310
f 330 331 310
f 310 331 332
f 333 334 299
f 311 335 294
f 335 336 294
f 294 336 146
f 336 337 146
f 146 337 148
f 337 338 148
f 148 338 315
f 162 160 327
f 160 158 327
f 327 158 156
f 317 339 318
f 339 340 318
f 318 340 341
f 322 342 323
f 342 343 323
f 323 343 344
f 343 345 344
f 344 345 346
f 345 347 346
f 347 348 346
f 346 348 296
f 348 349 296
f 296 349 297
f 331 350 332
f 350 351 332
f 332 351 324
f 351 352 324
f 324 352 325
f 353 354 324
f 354 355 324
f 324 355 356
f 356 357 324
f 357 358 324
f 324 358 359
f 334 360 299
f 360 361 299
f 299 361 302
f 152 314 154
f 314 362 154
f 154 362 156
f 362 363 156
f 156 363 327
f 326 364 324
f 364 365 324
f 324 365 353
f 359 366 324
f 366 367 324
f 324 367 299
f 367 368 299
f 299 368 333
f 341 369 318
f 369 370 318
f 318 370 371
f 370 372 371
f 371 372 373
f 372 374 373
f 373 374 375
f 374 376 375
f 375 376 377
f 376 378 377
f 377 378 379
f 378 380 379
f 379 380 381
f 380 382 381
f 381 382 383
f 382 384 383
f 383 384 385
f 384 386 385
f 385 386 319
f 386 387 319
f 319 387 320
f 299 388 389
f 390 391 299
f 391 392 299
f 389 393 299
f 393 394 299
f 299 394 395
f 395 396 299
f 396 397 299
f 299 397 390
f 392 398 299
f 398 399 299
f 299 399 324
f 400 401 402
f 403 404 405
f 405 406 403
f 406 407 403
f 403 407 408
f 409 410 388
f 410 411 388
f 388 411 412
f 412 413 388
f 413 414 388
f 388 414 415
f 415 416 388
f 416 417 388
f 388 417 418
f 402 419 400
f 419 420 400
f 400 420 421
f 420 422 421
f 421 422 404
f 422 423 404
f 404 423 405
f 407 424 408
f 424 425 408
f 408 425 426
f 425 427 426
f 426 427 428
f 418 429 388
f 429 430 388
f 388 430 401
f 430 431 401
f 401 431 402
f 427 432 428
f 432 433 428
f 428 433 434
f 433 435 434
f 434 435 436
f 437 299 438
f 299 439 438
f 437 440 299
f 440 441 299
f 299 441 388
f 441 442 388
f 388 442 409
f 443 444 299
f 444 445 299
f 445 446 299
f 299 446 439
f 447 448 299
f 448 449 299
f 299 449 443
f 450 262 260
f 451 452 453
f 452 454 453
f 454 455 453
f 455 456 453
f 453 456 240
f 244 457 246
f 457 248 246
f 456 458 240
f 458 457 240
f 240 457 242
f 457 244 242
f 270 268 447
f 459 460 264
f 435 461 436
f 461 462 436
f 436 462 463
f 462 464 463
f 463 464 465
f 464 466 465
f 465 466 467
f 466 468 467
f 467 468 469
f 468 470 469
f 469 470 471
f 470 472 471
f 471 472 473
f 472 474 473
f 473 474 475
f 474 476 475
f 475 476 477
f 476 478 477
f 477 478 453
f 478 479 453
f 453 479 451
f 248 457 250
f 457 480 250
f 250 480 481
f 482 483 256
f 483 484 256
f 256 484 258
f 484 485 258
f 258 485 260
f 485 486 260
f 260 486 450
f 278 276 299
f 276 274 299
f 299 274 447
f 274 272 447
f 447 272 270
f 268 266 447
f 266 264 447
f 447 264 487
f 264 460 487
f 256 254 482
f 254 252 482
f 482 252 488
f 252 250 488
f 488 250 489
f 250 481 489
f 262 450 264
f 450 490 264
f 264 490 459
f 174 172 491
f 166 164 492
f 493 188 186
f 329 316 164
f 316 318 164
f 164 318 494
f 494 495 164
f 495 496 164
f 164 496 497
f 497 498 164
f 498 499 164
f 164 499 500
f 500 501 164
f 501 502 164
f 164 502 503
f 503 504 164
f 504 505 164
f 164 505 492
f 491 172 506
f 172 170 506
f 506 170 492
f 170 168 492
f 492 168 166
f 507 508 318
f 174 491 176
f 491 509 176
f 176 509 178
f 509 510 178
f 178 510 180
f 510 511 180
f 180 511 182
f 511 512 182
f 182 512 184
f 512 513 184
f 184 513 186
f 513 514 186
f 186 514 493
f 508 515 318
f 515 516 318
f 318 516 517
f 517 518 318
f 518 519 318
f 318 519 494
f 226 224 142
f 224 222 142
f 142 222 144
f 142 140 226
f 140 138 226
f 226 138 228
f 138 230 228
f 88 86 453
f 238 236 134
f 236 234 134
f 520 521 70
f 192 190 522
f 138 136 230
f 136 134 230
f 230 134 232
f 134 234 232
f 128 126 240
f 86 84 453
f 84 82 453
f 453 82 523
f 82 80 523
f 523 80 524
f 80 78 524
f 78 76 524
f 524 76 525
f 76 74 525
f 525 74 521
f 74 72 521
f 521 72 70
f 128 240 130
f 100 98 453
f 98 96 453
f 453 96 94
f 94 92 453
f 92 90 453
f 453 90 88
f 526 527 528
f 126 124 240
f 124 122 240
f 240 122 120
f 120 118 240
f 118 116 240
f 240 116 114
f 106 104 453
f 104 102 453
f 453 102 100
f 188 493 190
f 493 529 190
f 190 529 530
f 70 68 520
f 68 66 520
f 520 66 531
f 532 533 318
f 533 534 318
f 238 134 240
f 134 132 240
f 240 132 130
f 522 30 28
f 206 204 14
f 530 535 190
f 535 536 190
f 190 536 537
f 534 538 318
f 538 539 318
f 318 539 507
f 114 112 240
f 112 110 240
f 240 110 453
f 110 108 453
f 453 108 106
f 198 196 522
f 196 194 522
f 522 194 192
f 537 540 190
f 540 541 190
f 190 541 522
f 542 543 544
f 543 545 544
f 544 545 318
f 545 546 318
f 318 546 532
f 66 64 531
f 64 62 531
f 531 62 547
f 62 60 547
f 547 60 548
f 528 549 526
f 549 550 526
f 526 550 551
f 550 552 551
f 551 552 542
f 552 553 542
f 542 553 543
f 28 26 522
f 26 24 522
f 522 24 22
f 40 38 554
f 555 556 557
f 556 558 557
f 557 558 559
f 204 202 14
f 202 200 14
f 14 200 16
f 200 198 16
f 16 198 18
f 198 522 18
f 18 522 20
f 522 22 20
f 144 222 2
f 222 220 2
f 2 220 4
f 220 218 4
f 4 218 6
f 218 216 6
f 6 216 8
f 216 214 8
f 8 214 10
f 214 212 10
f 10 212 12
f 212 210 12
f 12 210 14
f 210 208 14
f 14 208 206
f 40 554 42
f 38 36 554
f 36 34 554
f 554 34 32
f 560 561 557
f 561 562 557
f 557 562 555
f 60 58 548
f 58 56 548
f 548 56 563
f 56 54 563
f 563 54 564
f 44 557 46
f 557 565 46
f 46 565 48
f 565 566 48
f 48 566 50
f 566 564 50
f 50 564 52
f 564 54 52
f 567 568 527
f 568 569 527
f 527 569 528
f 30 522 32
f 522 570 32
f 32 570 571
f 571 572 32
f 572 573 32
f 32 573 554
f 42 554 44
f 554 574 44
f 44 574 557
f 574 575 557
f 557 575 560
f 576 577 578
f 577 579 578
f 578 579 567
f 579 580 567
f 567 580 568
f 558 581 559
f 581 582 559
f 559 582 583
f 582 584 583
f 583 584 576
f 584 585 576
f 576 585 577
f 477 453 586
f 586 453 587
f 586 588 477
f 588 589 477
f 477 589 475
f 589 590 475
f 475 590 473
f 590 591 473
f 473 591 471
f 591 592 471
f 471 592 469
f 592 593 469
f 469 593 467
f 593 594 467
f 467 594 465
f 594 595 465
f 465 595 463
f 595 596 463
f 463 596 436
f 596 597 436
f 436 597 434
f 597 598 434
f 434 598 428
f 598 599 428
f 428 599 426
f 599 600 426
f 426 600 408
f 600 601 408
f 408 601 403
f 601 602 403
f 403 602 404
f 602 603 404
f 404 603 421
f 603 604 421
f 421 604 400
f 604 605 400
f 400 605 401
f 605 606 401
f 401 606 388
f 606 607 388
f 388 607 389
f 607 608 389
f 389 608 393
f 608 609 393
f 393 609 394
f 609 610 394
f 394 610 395
f 610 611 395
f 395 611 396
f 611 612 396
f 396 612 397
f 612 613 397
f 397 613 390
f 613 614 390
f 390 614 391
f 614 615 391
f 391 615 392
f 615 616 392
f 392 616 398
f 616 617 398
f 398 617 399
f 617 618 399
f 399 618 324
f 618 619 324
f 324 619 332
f 619 620 332
f 332 620 310
f 620 621 310
f 310 621 308
f 621 622 308
f 308 622 295
f 622 623 295
f 295 623 296
f 623 624 296
f 296 624 346
f 624 625 346
f 346 625 344
f 625 626 344
f 344 626 323
f 626 627 323
f 323 627 321
f 627 628 321
f 321 628 319
f 628 629 319
f 319 629 385
f 629 630 385
f 385 630 383
f 630 631 383
f 383 631 381
f 631 632 381
f 381 632 379
f 632 633 379
f 379 633 377
f 633 634 377
f 377 634 375
f 634 635 375
f 375 635 373
f 635 636 373
f 373 636 371
f 371 636 318
f 636 637 318
f 318 637 544
f 453 523 587
f 523 524 587
f 587 524 638
f 524 525 638
f 638 525 639
f 525 521 639
f 639 521 640
f 521 520 640
f 640 520 641
f 520 531 641
f 641 531 642
f 531 547 642
f 642 547 643
f 547 548 643
f 643 548 644
f 548 563 644
f 644 563 645
f 563 564 645
f 645 564 646
f 564 566 646
f 646 566 647
f 566 565 647
f 647 565 648
f 565 557 648
f 648 557 649
f 557 559 649
f 649 559 650
f 559 583 650
f 650 583 651
f 583 576 651
f 651 576 652
f 576 578 652
f 652 578 653
f 578 567 653
f 653 567 654
f 567 527 654
f 654 527 655
f 527 526 655
f 655 526 656
f 526 551 656
f 656 551 657
f 551 542 657
f 657 542 658
f 542 544 658
f 658 544 659
f 544 637 659
f 660 441 661
f 441 440 661
f 661 440 662
f 440 437 662
f 662 437 663
f 437 438 663
f 663 438 664
f 438 439 664
f 664 439 665
f 439 446 665
f 665 446 666
f 446 445 666
f 666 445 667
f 445 444 667
f 667 444 668
f 444 443 668
f 668 443 669
f 443 449 669
f 669 449 670
f 449 448 670
f 670 448 671
f 448 447 671
f 671 447 672
f 447 487 672
f 672 487 673
f 487 460 673
f 673 460 674
f 460 459 674
f 674 459 675
f 459 490 675
f 675 490 676
f 490 450 676
f 676 450 677
f 450 486 677
f 677 486 678
f 486 485 678
f 678 485 679
f 485 484 679
f 679 484 680
f 484 483 680
f 680 483 681
f 483 482 681
f 681 482 682
f 482 488 682
f 682 488 683
f 488 489 683
f 683 489 684
f 489 481 684
f 684 481 685
f 481 480 685
f 685 480 686
f 480 457 686
f 686 457 687
f 457 458 687
f 687 458 688
f 458 456 688
f 688 456 689
f 456 455 689
f 689 455 690
f 455 454 690
f 690 454 691
f 454 452 691
f 691 452 692
f 452 451 692
f 692 451 693
f 451 479 693
f 693 479 694
f 479 478 694
f 694 478 695
f 478 476 695
f 695 476 696
f 476 474 696
f 696 474 697
f 474 472 697
f 697 472 698
f 472 470 698
f 698 470 699
f 470 468 699
f 699 468 700
f 468 466 700
f 700 466 701
f 466 464 701
f 701 464 702
f 464 462 702
f 702 462 703
f 462 461 703
f 703 461 704
f 461 435 704
f 704 435 705
f 435 433 705
f 705 433 706
f 433 432 706
f 706 432 707
f 432 427 707
f 707 427 708
f 427 425 708
f 708 425 709
f 425 424 709
f 709 424 710
f 424 407 710
f 710 407 711
f 407 406 711
f 711 406 712
f 406 405 712
f 712 405 713
f 405 423 713
f 713 423 714
f 423 422 714
f 714 422 715
f 422 420 715
f 715 420 716
f 420 419 716
f 716 419 717
f 419 402 717
f 717 402 718
f 402 431 718
f 718 431 719
f 431 430 719
f 719 430 720
f 430 429 720
f 720 429 721
f 429 418 721
f 721 418 722
f 418 417 722
f 722 417 723
f 417 416 723
f 723 416 724
f 416 415 724
f 724 415 725
f 415 414 725
f 725 414 726
f 414 413 726
f 726 413 727
f 413 412 727
f 727 412 728
f 412 411 728
f 728 411 729
f 411 410 729
f 729 410 730
f 410 409 730
f 730 409 731
f 409 442 731
f 731 442 660
f 442 441 660
f 607 606 732
f 157 159 733
f 289 291 734
f 291 293 734
f 734 293 735
f 736 732 737
f 732 738 737
f 147 149 739
f 149 151 739
f 739 151 740
f 151 153 740
f 740 153 741
f 289 734 287
f 734 742 287
f 287 742 743
f 736 744 732
f 744 745 732
f 732 745 746
f 747 748 163
f 748 749 163
f 741 153 733
f 153 155 733
f 733 155 157
f 739 750 147
f 750 751 147
f 147 751 145
f 751 752 145
f 145 752 293
f 752 753 293
f 293 753 735
f 275 277 732
f 277 279 732
f 732 279 738
f 279 281 738
f 738 281 283
f 283 285 738
f 285 287 738
f 738 287 754
f 287 743 754
f 159 161 733
f 161 163 733
f 733 163 755
f 163 749 755
f 637 756 747
f 626 757 627
f 757 758 627
f 627 758 628
f 746 759 732
f 759 760 732
f 732 760 761
f 618 762 763
f 764 765 618
f 765 766 618
f 618 767 768
f 623 622 769
f 769 770 623
f 770 771 623
f 623 771 624
f 761 772 732
f 772 773 732
f 732 773 762
f 763 774 618
f 774 775 618
f 618 775 764
f 766 776 618
f 776 777 618
f 618 777 778
f 618 768 619
f 768 779 619
f 779 780 619
f 619 780 620
f 780 781 620
f 781 782 620
f 620 782 621
f 782 783 621
f 621 783 622
f 783 784 622
f 622 784 769
f 785 786 637
f 786 787 637
f 637 787 756
f 778 788 618
f 788 789 618
f 618 789 767
f 771 790 624
f 790 791 624
f 624 791 625
f 791 792 625
f 625 792 626
f 792 793 626
f 626 793 757
f 758 794 628
f 794 795 628
f 628 795 629
f 795 796 629
f 629 796 630
f 796 797 630
f 630 797 631
f 797 798 631
f 631 798 632
f 798 799 632
f 632 799 633
f 799 800 633
f 633 800 634
f 800 801 634
f 634 801 635
f 801 802 635
f 635 802 636
f 802 803 636
f 636 803 637
f 803 804 637
f 637 804 785
f 167 169 805
f 806 807 179
f 807 177 179
f 167 805 165
f 640 641 67
f 165 805 163
f 805 808 163
f 163 808 809
f 810 811 637
f 811 812 637
f 812 813 637
f 813 814 637
f 637 814 815
f 815 816 637
f 816 817 637
f 637 817 818
f 818 819 637
f 819 820 637
f 637 820 821
f 5 215 217
f 9 211 213
f 175 822 173
f 822 171 173
f 171 822 169
f 822 823 169
f 169 823 805
f 809 824 163
f 824 825 163
f 163 825 826
f 638 77 587
f 77 79 587
f 587 79 586
f 79 81 586
f 231 233 133
f 233 235 133
f 235 237 133
f 133 237 239
f 67 69 640
f 69 71 640
f 640 71 639
f 71 73 639
f 639 73 638
f 73 75 638
f 638 75 77
f 177 807 175
f 807 827 175
f 175 827 822
f 826 828 163
f 828 829 163
f 163 829 830
f 747 163 637
f 163 831 637
f 637 831 810
f 821 832 637
f 832 833 637
f 637 833 659
f 833 834 659
f 659 834 658
f 655 656 835
f 81 83 586
f 83 85 586
f 586 85 87
f 87 89 586
f 89 91 586
f 586 91 93
f 231 133 229
f 133 135 229
f 229 135 227
f 135 137 227
f 227 137 225
f 137 139 225
f 225 139 223
f 139 141 223
f 223 141 221
f 141 143 221
f 221 143 219
f 143 1 219
f 219 1 217
f 1 3 217
f 217 3 5
f 215 5 213
f 5 7 213
f 213 7 9
f 836 837 644
f 830 838 163
f 838 839 163
f 163 839 831
f 834 840 658
f 840 841 658
f 658 841 657
f 841 842 657
f 657 842 656
f 842 843 656
f 656 843 835
f 93 95 586
f 95 97 586
f 586 97 99
f 836 644 844
f 806 179 845
f 179 181 845
f 845 181 846
f 181 183 846
f 846 183 847
f 183 185 847
f 847 185 848
f 185 187 848
f 848 187 849
f 187 189 849
f 849 189 850
f 189 191 850
f 850 191 851
f 191 193 851
f 851 193 852
f 835 853 655
f 853 854 655
f 655 854 654
f 99 101 586
f 101 103 586
f 586 103 105
f 41 43 644
f 43 45 644
f 644 45 47
f 642 63 641
f 63 65 641
f 641 65 67
f 201 203 13
f 113 115 239
f 115 117 239
f 239 117 119
f 855 856 193
f 856 857 193
f 193 857 852
f 855 193 858
f 193 195 858
f 858 195 197
f 854 859 654
f 859 860 654
f 654 860 653
f 860 861 653
f 653 861 652
f 650 862 649
f 862 863 649
f 649 863 648
f 863 864 648
f 648 864 647
f 864 865 647
f 647 865 646
f 865 866 646
f 646 866 645
f 866 867 645
f 645 867 644
f 867 868 644
f 644 868 844
f 105 107 586
f 107 109 586
f 586 109 239
f 109 111 239
f 239 111 113
f 239 125 127
f 869 35 870
f 35 871 870
f 871 35 837
f 35 37 837
f 837 37 644
f 37 39 644
f 644 39 41
f 47 49 644
f 49 51 644
f 644 51 53
f 201 13 199
f 13 15 199
f 199 15 197
f 861 872 652
f 872 873 652
f 652 873 651
f 873 874 651
f 651 874 650
f 874 875 650
f 650 875 862
f 119 121 239
f 121 123 239
f 239 123 125
f 53 55 644
f 55 57 644
f 644 57 643
f 57 59 643
f 643 59 642
f 59 61 642
f 642 61 63
f 203 205 13
f 205 207 13
f 13 207 209
f 197 15 858
f 15 17 858
f 858 17 19
f 127 129 239
f 129 131 239
f 239 131 133
f 25 27 858
f 27 29 858
f 858 29 876
f 29 31 876
f 876 31 869
f 31 33 869
f 869 33 35
f 19 21 858
f 21 23 858
f 858 23 25
f 211 9 209
f 9 11 209
f 209 11 13
f 720 721 606
f 724 725 606
f 602 601 711
f 605 604 716
f 600 709 601
f 709 710 601
f 601 710 711
f 711 712 602
f 712 713 602
f 602 713 603
f 713 714 603
f 603 714 604
f 714 715 604
f 604 715 716
f 664 732 663
f 732 662 663
f 670 671 732
f 596 703 597
f 703 704 597
f 597 704 598
f 704 705 598
f 705 706 598
f 598 706 599
f 706 707 599
f 599 707 600
f 707 708 600
f 600 708 709
f 716 717 605
f 717 718 605
f 605 718 606
f 718 719 606
f 606 719 720
f 721 722 606
f 722 723 606
f 606 723 724
f 606 728 729
f 606 660 732
f 660 661 732
f 732 661 662
f 688 689 247
f 725 726 606
f 726 727 606
f 606 727 728
f 664 665 732
f 665 666 732
f 732 666 667
f 667 668 732
f 668 669 732
f 732 669 670
f 251 253 681
f 253 255 681
f 681 255 680
f 247 689 245
f 729 730 606
f 730 731 606
f 606 731 660
f 672 673 263
f 672 263 671
f 263 265 671
f 671 265 267
f 267 269 671
f 269 271 671
f 671 271 732
f 271 273 732
f 732 273 275
f 239 241 689
f 241 243 689
f 689 243 245
f 239 689 586
f 689 690 586
f 586 690 691
f 691 692 586
f 692 693 586
f 586 693 588
f 693 694 588
f 588 694 589
f 694 695 589
f 589 695 590
f 695 696 590
f 590 696 591
f 696 697 591
f 591 697 592
f 697 698 592
f 592 698 593
f 698 699 593
f 593 699 594
f 699 700 594
f 594 700 595
f 700 701 595
f 595 701 596
f 701 702 596
f 596 702 703
f 673 674 263
f 674 675 263
f 263 675 261
f 675 676 261
f 261 676 259
f 676 677 259
f 259 677 257
f 677 678 257
f 257 678 255
f 678 679 255
f 255 679 680
f 683 684 249
f 251 681 249
f 681 682 249
f 249 682 683
f 684 685 249
f 685 686 249
f 249 686 247
f 686 687 247
f 247 687 688
f 616 615 732
f 615 614 732
f 732 614 613
f 613 612 732
f 612 611 732
f 732 611 610
f 610 609 732
f 609 608 732
f 732 608 607
f 762 618 732
f 618 617 732
f 732 617 616
f 783 309 784
f 309 307 784
f 784 307 769
f 307 306 769
f 769 306 770
f 306 297 770
f 770 297 771
f 297 349 771
f 771 349 790
f 349 348 790
f 790 348 791
f 348 347 791
f 791 347 792
f 347 345 792
f 792 345 793
f 345 343 793
f 793 343 757
f 343 342 757
f 757 342 758
f 342 322 758
f 758 322 794
f 322 320 794
f 794 320 795
f 320 387 795
f 795 387 796
f 387 386 796
f 796 386 797
f 386 384 797
f 797 384 798
f 384 382 798
f 798 382 799
f 382 380 799
f 799 380 800
f 380 378 800
f 800 378 801
f 378 376 801
f 801 376 802
f 376 374 802
f 802 374 803
f 374 372 803
f 803 372 804
f 372 370 804
f 804 370 785
f 370 369 785
f 785 369 786
f 369 341 786
f 786 341 787
f 341 340 787
f 787 340 756
f 340 339 756
f 756 339 747
f 339 317 747
f 747 317 748
f 317 316 748
f 748 316 749
f 316 329 749
f 749 329 755
f 329 328 755
f 755 328 733
f 328 327 733
f 733 327 741
f 327 363 741
f 741 363 740
f 363 362 740
f 740 362 739
f 362 314 739
f 739 314 750
f 314 315 750
f 750 315 751
f 315 338 751
f 751 338 752
f 338 337 752
f 752 337 753
f 337 336 753
f 753 336 735
f 336 335 735
f 735 335 734
f 335 311 734
f 734 311 742
f 311 312 742
f 742 312 743
f 312 313 743
f 743 313 754
f 313 305 754
f 754 305 738
f 305 298 738
f 738 298 737
f 298 300 737
f 737 300 736
f 300 301 736
f 736 301 744
f 301 304 744
f 744 304 745
f 304 303 745
f 745 303 746
f 303 302 746
f 746 302 759
f 302 361 759
f 759 361 760
f 361 360 760
f 760 360 761
f 360 334 761
f 761 334 772
f 334 333 772
f 772 333 773
f 333 368 773
f 773 368 762
f 368 367 762
f 762 367 763
f 367 366 763
f 763 366 774
f 366 359 774
f 774 359 775
f 359 358 775
f 775 358 764
f 358 357 764
f 764 357 765
f 357 356 765
f 765 356 766
f 356 355 766
f 766 355 776
f 355 354 776
f 776 354 777
f 354 353 777
f 777 353 778
f 353 365 778
f 778 365 788
f 365 364 788
f 788 364 789
f 364 326 789
f 789 326 767
f 326 325 767
f 767 325 768
f 325 352 768
f 768 352 779
f 352 351 779
f 779 351 780
f 351 350 780
f 780 350 781
f 350 331 781
f 781 331 782
f 331 330 782
f 782 330 783
f 330 309 783
f 831 495 810
f 495 494 810
f 810 494 811
f 494 519 811
f 811 519 812
f 519 518 812
f 812 518 813
f 518 517 813
f 813 517 814
f 517 516 814
f 814 516 815
f 516 515 815
f 815 515 816
f 515 508 816
f 816 508 817
f 508 507 817
f 817 507 818
f 507 539 818
f 818 539 819
f 539 538 819
f 819 538 820
f 538 534 820
f 820 534 821
f 534 533 821
f 821 533 832
f 533 532 832
f 832 532 833
f 532 546 833
f 833 546 834
f 546 545 834
f 834 545 840
f 545 543 840
f 840 543 841
f 543 553 841
f 841 553 842
f 553 552 842
f 842 552 843
f 552 550 843
f 843 550 835
f 550 549 835
f 835 549 853
f 549 528 853
f 853 528 854
f 528 569 854
f 854 569 859
f 569 568 859
f 859 568 860
f 568 580 860
f 860 580 861
f 580 579 861
f 861 579 872
f 579 577 872
f 872 577 873
f 577 585 873
f 873 585 874
f 585 584 874
f 874 584 875
f 584 582 875
f 875 582 862
f 582 581 862
f 862 581 863
f 581 558 863
f 863 558 864
f 558 556 864
f 864 556 865
f 556 555 865
f 865 555 866
f 555 562 866
f 866 562 867
f 562 561 867
f 867 561 868
f 561 560 868
f 868 560 844
f 560 575 844
f 844 575 836
f 575 574 836
f 836 574 837
f 574 554 837
f 837 554 871
f 554 573 871
f 871 573 870
f 573 572 870
f 870 572 869
f 572 571 869
f 869 571 876
f 571 570 876
f 876 570 858
f 570 522 858
f 858 522 855
f 522 541 855
f 855 541 856
f 541 540 856
f 856 540 857
f 540 537 857
f 857 537 852
f 537 536 852
f 852 536 851
f 536 535 851
f 851 535 850
f 535 530 850
f 850 530 849
f 530 529 849
f 849 529 848
f 529 493 848
f 848 493 847
f 493 514 847
f 847 514 846
f 514 513 846
f 846 513 845
f 513 512 845
f 845 512 806
f 512 511 806
f 806 511 807
f 511 510 807
f 807 510 827
f 510 509 827
f 827 509 822
f 509 491 822
f 822 491 823
f 491 506 823
f 823 506 805
f 506 492 805
f 805 492 808
f 492 505 808
f 808 505 809
f 505 504 809
f 809 504 824
f 504 503 824
f 824 503 825
f 503 502 825
f 825 502 826
f 502 501 826
f 826 501 828
f 501 500 828
f 828 500 829
f 500 499 829
f 829 499 830
f 499 498 830
f 830 498 838
f 498 497 838
f 838 497 839
f 497 496 839
f 839 496 831
f 496 495 831

