# https://github.com/mikedh/trimesh

o lead_screw_bearing_mount.stl
v -0.02003200 0.09037653 0.01700000
v -0.02003200 0.08834454 0.01700000
v -0.01950907 0.09037653 0.01702283
v -0.01950907 0.08834454 0.01702283
v -0.01899011 0.09037653 0.01709115
v -0.01899011 0.08834454 0.01709115
v -0.01847909 0.09037653 0.01720444
v -0.01847909 0.08834454 0.01720444
v -0.01797988 0.09037653 0.01736184
v -0.01797988 0.08834454 0.01736184
v -0.01749629 0.09037653 0.01756215
v -0.01749629 0.08834454 0.01756215
v -0.01703200 0.09037653 0.01780385
v -0.01703200 0.08834454 0.01780385
v -0.01659054 0.09037653 0.01808509
v -0.01659054 0.08834454 0.01808509
v -0.01617527 0.09037653 0.01840373
v -0.01617527 0.08834454 0.01840373
v -0.01578936 0.09037653 0.01875736
v -0.01578936 0.08834454 0.01875736
v -0.01543573 0.09037653 0.01914327
v -0.01543573 0.08834454 0.01914327
v -0.01511709 0.09037653 0.01955854
v -0.01511709 0.08834454 0.01955854
v -0.01483585 0.09037653 0.02000000
v -0.01483585 0.08834454 0.02000000
v -0.01459415 0.09037653 0.02046429
v -0.01459415 0.08834454 0.02046429
v -0.01439384 0.09037653 0.02094788
v -0.01439384 0.08834454 0.02094788
v -0.01423644 0.09037653 0.02144708
v -0.01423644 0.08834454 0.02144708
v -0.01412315 0.09037653 0.02195811
v -0.01412315 0.08834454 0.02195811
v -0.01405483 0.09037653 0.02247707
v -0.01405483 0.08834454 0.02247707
v -0.01403200 0.09037653 0.02300000
v -0.01403200 0.08834454 0.02300000
v -0.01405483 0.09037653 0.02352293
v -0.01405483 0.08834454 0.02352293
v -0.01412315 0.09037653 0.02404189
v -0.01412315 0.08834454 0.02404189
v -0.01423644 0.09037653 0.02455291
v -0.01423644 0.08834454 0.02455291
v -0.01439384 0.09037653 0.02505212
v -0.01439384 0.08834454 0.02505212
v -0.01459415 0.09037653 0.02553571
v -0.01459415 0.08834454 0.02553571
v -0.01483585 0.09037653 0.02600000
v -0.01483585 0.08834454 0.02600000
v -0.01511709 0.09037653 0.02644146
v -0.01511709 0.08834454 0.02644146
v -0.01543573 0.09037653 0.02685673
v -0.01543573 0.08834454 0.02685673
v -0.01578936 0.09037653 0.02724264
v -0.01578936 0.08834454 0.02724264
v -0.01617527 0.09037653 0.02759627
v -0.01617527 0.08834454 0.02759627
v -0.01659054 0.09037653 0.02791491
v -0.01659054 0.08834454 0.02791491
v -0.01703200 0.09037653 0.02819615
v -0.01703200 0.08834454 0.02819615
v -0.01749629 0.09037653 0.02843785
v -0.01749629 0.08834454 0.02843785
v -0.01797988 0.09037653 0.02863816
v -0.01797988 0.08834454 0.02863816
v -0.01847909 0.09037653 0.02879556
v -0.01847909 0.08834454 0.02879556
v -0.01899011 0.09037653 0.02890885
v -0.01899011 0.08834454 0.02890885
v -0.01950907 0.09037653 0.02897717
v -0.01950907 0.08834454 0.02897717
v -0.02003200 0.09037653 0.02900000
v -0.02003200 0.08834454 0.02900000
v -0.02055493 0.09037653 0.02897717
v -0.02055493 0.08834454 0.02897717
v -0.02107389 0.09037653 0.02890885
v -0.02107389 0.08834454 0.02890885
v -0.02158491 0.09037653 0.02879556
v -0.02158491 0.08834454 0.02879556
v -0.02208412 0.09037653 0.02863816
v -0.02208412 0.08834454 0.02863816
v -0.02256771 0.09037653 0.02843785
v -0.02256771 0.08834454 0.02843785
v -0.02303200 0.09037653 0.02819615
v -0.02303200 0.08834454 0.02819615
v -0.02347346 0.09037653 0.02791491
v -0.02347346 0.08834454 0.02791491
v -0.02388873 0.09037653 0.02759627
v -0.02388873 0.08834454 0.02759627
v -0.02427464 0.09037653 0.02724264
v -0.02427464 0.08834454 0.02724264
v -0.02462827 0.09037653 0.02685673
v -0.02462827 0.08834454 0.02685673
v -0.02494691 0.09037653 0.02644146
v -0.02494691 0.08834454 0.02644146
v -0.02522815 0.09037653 0.02600000
v -0.02522815 0.08834454 0.02600000
v -0.02546985 0.09037653 0.02553571
v -0.02546985 0.08834454 0.02553571
v -0.02567016 0.09037653 0.02505212
v -0.02567016 0.08834454 0.02505212
v -0.02582755 0.09037653 0.02455291
v -0.02582755 0.08834454 0.02455291
v -0.02594085 0.09037653 0.02404189
v -0.02594085 0.08834454 0.02404189
v -0.02600917 0.09037653 0.02352293
v -0.02600917 0.08834454 0.02352293
v -0.02603200 0.09037653 0.02300000
v -0.02603200 0.08834454 0.02300000
v -0.02600917 0.09037653 0.02247707
v -0.02600917 0.08834454 0.02247707
v -0.02594085 0.09037653 0.02195811
v -0.02594085 0.08834454 0.02195811
v -0.02582755 0.09037653 0.02144708
v -0.02582755 0.08834454 0.02144708
v -0.02567016 0.09037653 0.02094788
v -0.02567016 0.08834454 0.02094788
v -0.02546985 0.09037653 0.02046429
v -0.02546985 0.08834454 0.02046429
v -0.02522815 0.09037653 0.02000000
v -0.02522815 0.08834454 0.02000000
v -0.02494691 0.09037653 0.01955854
v -0.02494691 0.08834454 0.01955854
v -0.02462827 0.09037653 0.01914327
v -0.02462827 0.08834454 0.01914327
v -0.02427464 0.09037653 0.01875736
v -0.02427464 0.08834454 0.01875736
v -0.02388873 0.09037653 0.01840373
v -0.02388873 0.08834454 0.01840373
v -0.02347346 0.09037653 0.01808509
v -0.02347346 0.08834454 0.01808509
v -0.02303200 0.09037653 0.01780385
v -0.02303200 0.08834454 0.01780385
v -0.02256771 0.09037653 0.01756215
v -0.02256771 0.08834454 0.01756215
v -0.02208412 0.09037653 0.01736184
v -0.02208412 0.08834454 0.01736184
v -0.02158491 0.09037653 0.01720444
v -0.02158491 0.08834454 0.01720444
v -0.02107389 0.09037653 0.01709115
v -0.02107389 0.08834454 0.01709115
v -0.02055493 0.09037653 0.01702283
v -0.02055493 0.08834454 0.01702283
v -0.00203200 0.11334454 0.00203200
v -0.00203200 0.09037653 0.00203200
v -0.00203200 0.11334454 0.00355200
v -0.00203200 0.09037653 0.04300000
v -0.00203200 0.09389654 0.04300000
v -0.03803200 0.09037653 0.04300000
v -0.03803200 0.09037653 0.00203200
v -0.01018200 0.10038830 0.00203200
v -0.01031355 0.10031981 0.00203200
v -0.02873680 0.10353471 0.00203200
v -0.01103200 0.10356054 0.00203200
v -0.02888384 0.10355407 0.00203200
v -0.02903200 0.10356054 0.00203200
v -0.02859201 0.10350261 0.00203200
v -0.02845057 0.10345801 0.00203200
v -0.02831355 0.10340126 0.00203200
v -0.00972972 0.10076780 0.00203200
v -0.00982992 0.10065845 0.00203200
v -0.01045057 0.10026306 0.00203200
v -0.01059201 0.10021846 0.00203200
v -0.01073680 0.10018636 0.00203200
v -0.02818200 0.10333278 0.00203200
v -0.02805692 0.10325310 0.00203200
v -0.02793926 0.10316281 0.00203200
v -0.02782992 0.10306261 0.00203200
v -0.02772972 0.10295328 0.00203200
v -0.01118017 0.10355407 0.00203200
v -0.01147199 0.10021846 0.00203200
v -0.01161343 0.10026306 0.00203200
v -0.02733200 0.10186054 0.00203200
v -0.01175045 0.10031981 0.00203200
v -0.01188200 0.10038830 0.00203200
v -0.01250424 0.10101054 0.00203200
v -0.01257272 0.10114209 0.00203200
v -0.00993926 0.10055826 0.00203200
v -0.01005692 0.10046798 0.00203200
v -0.02805692 0.10046798 0.00203200
v -0.02818200 0.10038830 0.00203200
v -0.02975045 0.10340126 0.00203200
v -0.03803200 0.11334454 0.00203200
v -0.02988200 0.10333278 0.00203200
v -0.03000708 0.10325310 0.00203200
v -0.01188200 0.10333278 0.00203200
v -0.01175045 0.10340126 0.00203200
v -0.02755976 0.10271054 0.00203200
v -0.01161343 0.10345801 0.00203200
v -0.01147199 0.10350261 0.00203200
v -0.02763944 0.10283562 0.00203200
v -0.01132720 0.10353471 0.00203200
v -0.00935783 0.10156533 0.00203200
v -0.00938993 0.10142054 0.00203200
v -0.00943452 0.10127910 0.00203200
v -0.00949128 0.10114209 0.00203200
v -0.00955976 0.10101054 0.00203200
v -0.00963944 0.10088546 0.00203200
v -0.02733847 0.10171237 0.00203200
v -0.01118017 0.10016701 0.00203200
v -0.01132720 0.10018636 0.00203200
v -0.01088384 0.10016701 0.00203200
v -0.01103200 0.10016054 0.00203200
v -0.02749128 0.10114209 0.00203200
v -0.02755976 0.10101054 0.00203200
v -0.02763944 0.10088546 0.00203200
v -0.02772972 0.10076780 0.00203200
v -0.02782992 0.10065845 0.00203200
v -0.02793926 0.10055826 0.00203200
v -0.02831355 0.10031981 0.00203200
v -0.02845057 0.10026306 0.00203200
v -0.02859201 0.10021846 0.00203200
v -0.02873680 0.10018636 0.00203200
v -0.03033428 0.10076780 0.00203200
v -0.03042456 0.10088546 0.00203200
v -0.03050424 0.10101054 0.00203200
v -0.03042456 0.10283562 0.00203200
v -0.03033428 0.10295328 0.00203200
v -0.01031355 0.10340126 0.00203200
v -0.01018200 0.10333278 0.00203200
v -0.01005692 0.10325310 0.00203200
v -0.00972972 0.10295328 0.00203200
v -0.00963944 0.10283562 0.00203200
v -0.00955976 0.10271054 0.00203200
v -0.00949128 0.10257899 0.00203200
v -0.00935783 0.10215574 0.00203200
v -0.00933847 0.10200870 0.00203200
v -0.00933200 0.10186054 0.00203200
v -0.00933847 0.10171237 0.00203200
v -0.02735783 0.10156533 0.00203200
v -0.02738993 0.10142054 0.00203200
v -0.02743452 0.10127910 0.00203200
v -0.02888384 0.10016701 0.00203200
v -0.02903200 0.10016054 0.00203200
v -0.02918017 0.10016701 0.00203200
v -0.02932720 0.10018636 0.00203200
v -0.02947199 0.10021846 0.00203200
v -0.02961343 0.10026306 0.00203200
v -0.03023408 0.10306261 0.00203200
v -0.03012474 0.10316281 0.00203200
v -0.02961343 0.10345801 0.00203200
v -0.02947199 0.10350261 0.00203200
v -0.02932720 0.10353471 0.00203200
v -0.00993926 0.10316281 0.00203200
v -0.00982992 0.10306261 0.00203200
v -0.00943452 0.10244197 0.00203200
v -0.00938993 0.10230052 0.00203200
v -0.01200708 0.10046798 0.00203200
v -0.01212474 0.10055826 0.00203200
v -0.01223408 0.10065845 0.00203200
v -0.01233428 0.10076780 0.00203200
v -0.01242456 0.10088546 0.00203200
v -0.01262948 0.10127910 0.00203200
v -0.01267407 0.10142054 0.00203200
v -0.01270617 0.10156533 0.00203200
v -0.03057272 0.10114209 0.00203200
v -0.03062948 0.10127910 0.00203200
v -0.03067407 0.10142054 0.00203200
v -0.01088384 0.10355407 0.00203200
v -0.01073680 0.10353471 0.00203200
v -0.02975045 0.10031981 0.00203200
v -0.02988200 0.10038830 0.00203200
v -0.03000708 0.10046798 0.00203200
v -0.03012474 0.10055826 0.00203200
v -0.03023408 0.10065845 0.00203200
v -0.03072553 0.10200870 0.00203200
v -0.03070617 0.10215574 0.00203200
v -0.03067407 0.10230052 0.00203200
v -0.03062948 0.10244197 0.00203200
v -0.03057272 0.10257899 0.00203200
v -0.03050424 0.10271054 0.00203200
v -0.01059201 0.10350261 0.00203200
v -0.01045057 0.10345801 0.00203200
v -0.02749128 0.10257899 0.00203200
v -0.02743452 0.10244197 0.00203200
v -0.01270617 0.10215574 0.00203200
v -0.01262948 0.10244197 0.00203200
v -0.01257272 0.10257899 0.00203200
v -0.01250424 0.10271054 0.00203200
v -0.01242456 0.10283562 0.00203200
v -0.01233428 0.10295328 0.00203200
v -0.01223408 0.10306261 0.00203200
v -0.01212474 0.10316281 0.00203200
v -0.01200708 0.10325310 0.00203200
v -0.03070617 0.10156533 0.00203200
v -0.03072553 0.10171237 0.00203200
v -0.03073200 0.10186054 0.00203200
v -0.01267407 0.10230052 0.00203200
v -0.01272553 0.10171237 0.00203200
v -0.01273200 0.10186054 0.00203200
v -0.02733847 0.10200870 0.00203200
v -0.01272553 0.10200870 0.00203200
v -0.02735783 0.10215574 0.00203200
v -0.02738993 0.10230052 0.00203200
v -0.02918017 0.10355407 0.00203200
v -0.03803200 0.09389654 0.04300000
v -0.03803200 0.11334454 0.00355200
v 0.00000000 0.09389654 0.04300000
v 0.00000000 0.08834454 0.04300000
v 0.00000000 0.11334454 0.00355200
v 0.00000000 0.08834454 -0.00000000
v 0.00000000 0.11334454 0.00000000
v -0.04006400 0.11334454 0.00000000
v -0.04006400 0.08834454 -0.00000000
v -0.04006400 0.11334454 0.00355200
v -0.04006400 0.08834454 0.04300000
v -0.04006400 0.09389654 0.04300000
v -0.00933200 0.10186054 0.00000000
v -0.00933847 0.10200870 0.00000000
v -0.00935783 0.10215574 0.00000000
v -0.00938993 0.10230052 0.00000000
v -0.00943452 0.10244197 0.00000000
v -0.00949128 0.10257899 0.00000000
v -0.00955976 0.10271054 0.00000000
v -0.00963944 0.10283562 0.00000000
v -0.00972972 0.10295328 0.00000000
v -0.00982992 0.10306261 0.00000000
v -0.00993926 0.10316281 0.00000000
v -0.01005692 0.10325310 0.00000000
v -0.01018200 0.10333278 0.00000000
v -0.01031355 0.10340126 0.00000000
v -0.01045057 0.10345801 0.00000000
v -0.01059201 0.10350261 0.00000000
v -0.01073680 0.10353471 0.00000000
v -0.01088384 0.10355407 0.00000000
v -0.01103200 0.10356054 0.00000000
v -0.01118017 0.10355407 0.00000000
v -0.01132720 0.10353471 0.00000000
v -0.01147199 0.10350261 0.00000000
v -0.01161343 0.10345801 0.00000000
v -0.01175045 0.10340126 0.00000000
v -0.01188200 0.10333278 0.00000000
v -0.01200708 0.10325310 0.00000000
v -0.01212474 0.10316281 0.00000000
v -0.01223408 0.10306261 0.00000000
v -0.01233428 0.10295328 0.00000000
v -0.01242456 0.10283562 0.00000000
v -0.01250424 0.10271054 0.00000000
v -0.01257272 0.10257899 0.00000000
v -0.01262948 0.10244197 0.00000000
v -0.01267407 0.10230052 0.00000000
v -0.01270617 0.10215574 0.00000000
v -0.01272553 0.10200870 0.00000000
v -0.01273200 0.10186054 0.00000000
v -0.01272553 0.10171237 0.00000000
v -0.01270617 0.10156533 0.00000000
v -0.01267407 0.10142054 0.00000000
v -0.01262948 0.10127910 0.00000000
v -0.01257272 0.10114209 0.00000000
v -0.01250424 0.10101054 0.00000000
v -0.01242456 0.10088546 0.00000000
v -0.01233428 0.10076780 0.00000000
v -0.01223408 0.10065845 0.00000000
v -0.01212474 0.10055826 0.00000000
v -0.01200708 0.10046798 0.00000000
v -0.01188200 0.10038830 0.00000000
v -0.01175045 0.10031981 0.00000000
v -0.01161343 0.10026306 0.00000000
v -0.01147199 0.10021846 0.00000000
v -0.01132720 0.10018636 0.00000000
v -0.01118017 0.10016701 0.00000000
v -0.01103200 0.10016054 0.00000000
v -0.01088384 0.10016701 0.00000000
v -0.01073680 0.10018636 0.00000000
v -0.01059201 0.10021846 0.00000000
v -0.01045057 0.10026306 0.00000000
v -0.01031355 0.10031981 0.00000000
v -0.01018200 0.10038830 0.00000000
v -0.01005692 0.10046798 0.00000000
v -0.00993926 0.10055826 0.00000000
v -0.00982992 0.10065845 0.00000000
v -0.00972972 0.10076780 0.00000000
v -0.00963944 0.10088546 0.00000000
v -0.00955976 0.10101054 0.00000000
v -0.00949128 0.10114209 0.00000000
v -0.00943452 0.10127910 0.00000000
v -0.00938993 0.10142054 0.00000000
v -0.00935783 0.10156533 0.00000000
v -0.00933847 0.10171237 0.00000000
v -0.03072553 0.10200870 0.00000000
v -0.03073200 0.10186054 0.00000000
v -0.03070617 0.10156533 0.00000000
v -0.03067407 0.10142054 0.00000000
v -0.03050424 0.10101054 0.00000000
v -0.03042456 0.10088546 0.00000000
v -0.03033428 0.10076780 0.00000000
v -0.02932720 0.10018636 0.00000000
v -0.02947199 0.10021846 0.00000000
v -0.02961343 0.10026306 0.00000000
v -0.02818200 0.10333278 0.00000000
v -0.02831355 0.10340126 0.00000000
v -0.02845057 0.10345801 0.00000000
v -0.02859201 0.10350261 0.00000000
v -0.02873680 0.10353471 0.00000000
v -0.02888384 0.10355407 0.00000000
v -0.02903200 0.10356054 0.00000000
v -0.02918017 0.10355407 0.00000000
v -0.02932720 0.10353471 0.00000000
v -0.02947199 0.10350261 0.00000000
v -0.02961343 0.10345801 0.00000000
v -0.02975045 0.10340126 0.00000000
v -0.02988200 0.10333278 0.00000000
v -0.03000708 0.10325310 0.00000000
v -0.03057272 0.10257899 0.00000000
v -0.03062948 0.10244197 0.00000000
v -0.03072553 0.10171237 0.00000000
v -0.03062948 0.10127910 0.00000000
v -0.03057272 0.10114209 0.00000000
v -0.02755976 0.10271054 0.00000000
v -0.02763944 0.10283562 0.00000000
v -0.02772972 0.10295328 0.00000000
v -0.02782992 0.10306261 0.00000000
v -0.03067407 0.10230052 0.00000000
v -0.03070617 0.10215574 0.00000000
v -0.03023408 0.10065845 0.00000000
v -0.03012474 0.10055826 0.00000000
v -0.03000708 0.10046798 0.00000000
v -0.02988200 0.10038830 0.00000000
v -0.02975045 0.10031981 0.00000000
v -0.02859201 0.10021846 0.00000000
v -0.02845057 0.10026306 0.00000000
v -0.02831355 0.10031981 0.00000000
v -0.02818200 0.10038830 0.00000000
v -0.02805692 0.10046798 0.00000000
v -0.02793926 0.10316281 0.00000000
v -0.02805692 0.10325310 0.00000000
v -0.03012474 0.10316281 0.00000000
v -0.03023408 0.10306261 0.00000000
v -0.03033428 0.10295328 0.00000000
v -0.03042456 0.10283562 0.00000000
v -0.03050424 0.10271054 0.00000000
v -0.02918017 0.10016701 0.00000000
v -0.02903200 0.10016054 0.00000000
v -0.02888384 0.10016701 0.00000000
v -0.02873680 0.10018636 0.00000000
v -0.02793926 0.10055826 0.00000000
v -0.02782992 0.10065845 0.00000000
v -0.02772972 0.10076780 0.00000000
v -0.02749128 0.10257899 0.00000000
v -0.02743452 0.10244197 0.00000000
v -0.02735783 0.10215574 0.00000000
v -0.02738993 0.10230052 0.00000000
v -0.02763944 0.10088546 0.00000000
v -0.02755976 0.10101054 0.00000000
v -0.02749128 0.10114209 0.00000000
v -0.02743452 0.10127910 0.00000000
v -0.02738993 0.10142054 0.00000000
v -0.02735783 0.10156533 0.00000000
v -0.02733847 0.10171237 0.00000000
v -0.02733200 0.10186054 0.00000000
v -0.02733847 0.10200870 0.00000000
f 1 2 3
f 2 4 3
f 3 4 5
f 4 6 5
f 5 6 7
f 6 8 7
f 7 8 9
f 8 10 9
f 9 10 11
f 10 12 11
f 11 12 13
f 12 14 13
f 13 14 15
f 14 16 15
f 15 16 17
f 16 18 17
f 17 18 19
f 18 20 19
f 19 20 21
f 20 22 21
f 21 22 23
f 22 24 23
f 23 24 25
f 24 26 25
f 25 26 27
f 26 28 27
f 27 28 29
f 28 30 29
f 29 30 31
f 30 32 31
f 31 32 33
f 32 34 33
f 33 34 35
f 34 36 35
f 35 36 37
f 36 38 37
f 37 38 39
f 38 40 39
f 39 40 41
f 40 42 41
f 41 42 43
f 42 44 43
f 43 44 45
f 44 46 45
f 45 46 47
f 46 48 47
f 47 48 49
f 48 50 49
f 49 50 51
f 50 52 51
f 51 52 53
f 52 54 53
f 53 54 55
f 54 56 55
f 55 56 57
f 56 58 57
f 57 58 59
f 58 60 59
f 59 60 61
f 60 62 61
f 61 62 63
f 62 64 63
f 63 64 65
f 64 66 65
f 65 66 67
f 66 68 67
f 67 68 69
f 68 70 69
f 69 70 71
f 70 72 71
f 71 72 73
f 72 74 73
f 73 74 75
f 74 76 75
f 75 76 77
f 76 78 77
f 77 78 79
f 78 80 79
f 79 80 81
f 80 82 81
f 81 82 83
f 82 84 83
f 83 84 85
f 84 86 85
f 85 86 87
f 86 88 87
f 87 88 89
f 88 90 89
f 89 90 91
f 90 92 91
f 91 92 93
f 92 94 93
f 93 94 95
f 94 96 95
f 95 96 97
f 96 98 97
f 97 98 99
f 98 100 99
f 99 100 101
f 100 102 101
f 101 102 103
f 102 104 103
f 103 104 105
f 104 106 105
f 105 106 107
f 106 108 107
f 107 108 109
f 108 110 109
f 109 110 111
f 110 112 111
f 111 112 113
f 112 114 113
f 113 114 115
f 114 116 115
f 115 116 117
f 116 118 117
f 117 118 119
f 118 120 119
f 119 120 121
f 120 122 121
f 121 122 123
f 122 124 123
f 123 124 125
f 124 126 125
f 125 126 127
f 126 128 127
f 127 128 129
f 128 130 129
f 129 130 131
f 130 132 131
f 131 132 133
f 132 134 133
f 133 134 135
f 134 136 135
f 135 136 137
f 136 138 137
f 137 138 139
f 138 140 139
f 139 140 141
f 140 142 141
f 141 142 143
f 142 144 143
f 143 144 1
f 144 2 1
f 145 146 147
f 146 148 147
f 147 148 149
f 85 87 150
f 125 127 151
f 127 129 151
f 73 75 150
f 75 77 150
f 150 77 79
f 87 89 150
f 89 91 150
f 150 91 93
f 129 131 151
f 131 133 151
f 151 133 135
f 79 81 150
f 81 83 150
f 150 83 85
f 93 95 150
f 95 97 150
f 150 97 99
f 135 137 151
f 137 139 151
f 151 139 141
f 5 7 146
f 7 9 146
f 146 9 11
f 73 150 71
f 150 148 71
f 71 148 69
f 99 101 150
f 101 103 150
f 150 103 105
f 113 115 151
f 115 117 151
f 151 117 119
f 119 121 151
f 121 123 151
f 151 123 125
f 148 45 47
f 47 49 148
f 49 51 148
f 148 51 53
f 63 148 61
f 148 59 61
f 63 65 148
f 65 67 148
f 148 67 69
f 105 107 150
f 107 109 150
f 150 109 151
f 109 111 151
f 151 111 113
f 141 143 151
f 143 1 151
f 151 1 146
f 1 3 146
f 146 3 5
f 146 29 31
f 39 41 148
f 41 43 148
f 148 43 45
f 53 55 148
f 55 57 148
f 148 57 59
f 11 13 146
f 13 15 146
f 146 15 17
f 17 19 146
f 19 21 146
f 146 21 23
f 23 25 146
f 25 27 146
f 146 27 29
f 31 33 146
f 33 35 146
f 146 35 148
f 35 37 148
f 148 37 39
f 152 153 146
f 154 155 156
f 155 157 156
f 154 158 155
f 158 159 155
f 155 159 160
f 161 162 146
f 153 163 146
f 163 164 146
f 146 164 165
f 160 166 155
f 166 167 155
f 155 167 168
f 168 169 155
f 169 170 155
f 155 170 171
f 172 173 174
f 173 175 174
f 174 175 176
f 177 178 174
f 162 179 146
f 179 180 146
f 146 180 152
f 146 181 182
f 183 184 185
f 184 186 185
f 187 188 189
f 188 190 189
f 189 190 191
f 170 192 171
f 192 189 171
f 171 189 193
f 189 191 193
f 194 195 146
f 195 196 146
f 146 196 197
f 197 198 146
f 198 199 146
f 146 199 161
f 200 201 174
f 201 202 174
f 174 202 172
f 165 203 146
f 203 204 146
f 146 204 201
f 205 206 146
f 206 207 146
f 146 207 208
f 208 209 146
f 209 210 146
f 146 210 181
f 182 211 146
f 211 212 146
f 146 212 151
f 212 213 151
f 151 213 214
f 215 216 151
f 216 217 151
f 218 219 184
f 220 221 145
f 221 222 145
f 223 224 145
f 224 225 145
f 145 225 226
f 227 228 145
f 228 229 145
f 145 229 146
f 229 230 146
f 146 230 194
f 200 231 201
f 231 232 201
f 201 232 146
f 232 233 146
f 146 233 205
f 214 234 151
f 234 235 151
f 151 235 236
f 236 237 151
f 237 238 151
f 151 238 239
f 219 240 184
f 240 241 184
f 184 241 186
f 183 242 184
f 242 243 184
f 184 243 244
f 222 245 145
f 245 246 145
f 145 246 223
f 226 247 145
f 247 248 145
f 145 248 227
f 176 249 174
f 249 250 174
f 174 250 251
f 251 252 174
f 252 253 174
f 174 253 177
f 178 254 174
f 254 255 174
f 174 255 256
f 217 257 151
f 257 258 151
f 151 258 259
f 260 261 145
f 239 262 151
f 262 263 151
f 151 263 264
f 264 265 151
f 265 266 151
f 151 266 215
f 267 268 184
f 268 269 184
f 184 269 270
f 270 271 184
f 271 272 184
f 184 272 218
f 261 273 145
f 273 274 145
f 145 274 220
f 275 276 277
f 278 279 189
f 279 280 189
f 280 281 189
f 281 282 189
f 189 282 283
f 283 284 189
f 284 285 189
f 189 285 187
f 259 286 151
f 286 287 151
f 151 287 184
f 287 288 184
f 184 288 267
f 275 277 189
f 277 289 189
f 189 289 278
f 256 290 174
f 290 291 174
f 174 291 292
f 291 293 292
f 292 293 294
f 293 277 294
f 294 277 295
f 277 276 295
f 244 296 184
f 296 157 184
f 184 157 145
f 157 155 145
f 145 155 260
f 297 150 298
f 150 151 298
f 298 151 184
f 299 300 301
f 300 302 301
f 301 302 303
f 304 305 306
f 305 307 306
f 306 307 308
f 149 299 147
f 299 301 147
f 309 229 310
f 229 228 310
f 310 228 311
f 228 227 311
f 311 227 312
f 227 248 312
f 312 248 313
f 248 247 313
f 313 247 314
f 247 226 314
f 314 226 315
f 226 225 315
f 315 225 316
f 225 224 316
f 316 224 317
f 224 223 317
f 317 223 318
f 223 246 318
f 318 246 319
f 246 245 319
f 319 245 320
f 245 222 320
f 320 222 321
f 222 221 321
f 321 221 322
f 221 220 322
f 322 220 323
f 220 274 323
f 323 274 324
f 274 273 324
f 324 273 325
f 273 261 325
f 325 261 326
f 261 260 326
f 326 260 327
f 260 155 327
f 327 155 328
f 155 171 328
f 328 171 329
f 171 193 329
f 329 193 330
f 193 191 330
f 330 191 331
f 191 190 331
f 331 190 332
f 190 188 332
f 332 188 333
f 188 187 333
f 333 187 334
f 187 285 334
f 334 285 335
f 285 284 335
f 335 284 336
f 284 283 336
f 336 283 337
f 283 282 337
f 337 282 338
f 282 281 338
f 338 281 339
f 281 280 339
f 339 280 340
f 280 279 340
f 340 279 341
f 279 278 341
f 341 278 342
f 278 289 342
f 342 289 343
f 289 277 343
f 343 277 344
f 277 293 344
f 344 293 345
f 293 291 345
f 345 291 346
f 291 290 346
f 346 290 347
f 290 256 347
f 347 256 348
f 256 255 348
f 348 255 349
f 255 254 349
f 349 254 350
f 254 178 350
f 350 178 351
f 178 177 351
f 351 177 352
f 177 253 352
f 352 253 353
f 253 252 353
f 353 252 354
f 252 251 354
f 354 251 355
f 251 250 355
f 355 250 356
f 250 249 356
f 356 249 357
f 249 176 357
f 357 176 358
f 176 175 358
f 358 175 359
f 175 173 359
f 359 173 360
f 173 172 360
f 360 172 361
f 172 202 361
f 361 202 362
f 202 201 362
f 362 201 363
f 201 204 363
f 363 204 364
f 204 203 364
f 364 203 365
f 203 165 365
f 365 165 366
f 165 164 366
f 366 164 367
f 164 163 367
f 367 163 368
f 163 153 368
f 368 153 369
f 153 152 369
f 369 152 370
f 152 180 370
f 370 180 371
f 180 179 371
f 371 179 372
f 179 162 372
f 372 162 373
f 162 161 373
f 373 161 374
f 161 199 374
f 374 199 375
f 199 198 375
f 375 198 376
f 198 197 376
f 376 197 377
f 197 196 377
f 377 196 378
f 196 195 378
f 378 195 379
f 195 194 379
f 379 194 380
f 194 230 380
f 380 230 309
f 230 229 309
f 147 301 145
f 301 303 145
f 145 303 184
f 303 304 184
f 184 304 298
f 304 306 298
f 297 308 150
f 308 307 150
f 150 307 148
f 307 300 148
f 148 300 149
f 300 299 149
f 381 382 304
f 305 383 384
f 385 386 305
f 386 387 305
f 388 305 389
f 305 390 389
f 359 302 358
f 302 305 358
f 358 305 357
f 303 322 323
f 391 392 303
f 392 393 303
f 303 393 304
f 393 394 304
f 304 394 395
f 395 396 304
f 396 397 304
f 304 397 398
f 398 399 304
f 399 400 304
f 304 400 401
f 401 402 304
f 402 403 304
f 304 403 404
f 405 406 304
f 304 382 305
f 382 407 305
f 305 407 383
f 384 408 305
f 408 409 305
f 305 409 385
f 359 360 302
f 360 361 302
f 302 361 362
f 362 363 302
f 363 364 302
f 302 364 365
f 302 368 369
f 319 320 303
f 320 321 303
f 303 321 322
f 410 411 303
f 411 412 303
f 303 412 413
f 406 414 304
f 414 415 304
f 304 415 381
f 387 416 305
f 416 417 305
f 305 417 418
f 418 419 305
f 419 420 305
f 305 420 390
f 305 350 351
f 365 366 302
f 366 367 302
f 302 367 368
f 315 316 303
f 323 324 303
f 324 325 303
f 303 325 326
f 421 422 345
f 422 423 345
f 423 424 345
f 345 424 425
f 413 426 303
f 426 427 303
f 303 427 391
f 404 428 304
f 428 429 304
f 304 429 430
f 430 431 304
f 431 432 304
f 304 432 405
f 388 433 305
f 433 434 305
f 305 434 435
f 351 352 305
f 352 353 305
f 305 353 354
f 354 355 305
f 355 356 305
f 305 356 357
f 310 311 303
f 311 312 303
f 316 317 303
f 317 318 303
f 303 318 319
f 326 327 303
f 327 328 303
f 303 328 329
f 332 410 331
f 410 303 331
f 331 303 330
f 303 329 330
f 346 347 435
f 347 348 435
f 435 348 305
f 348 349 305
f 305 349 350
f 312 313 303
f 313 314 303
f 303 314 315
f 346 435 345
f 435 436 345
f 345 436 421
f 425 437 345
f 437 438 345
f 345 438 439
f 369 370 302
f 370 371 302
f 302 371 372
f 332 333 410
f 333 334 410
f 410 334 440
f 334 441 440
f 335 442 334
f 442 443 334
f 334 443 441
f 335 336 442
f 336 337 442
f 442 337 338
f 439 444 345
f 444 445 345
f 345 445 446
f 372 373 302
f 373 374 302
f 302 374 375
f 375 376 302
f 376 377 302
f 302 377 378
f 338 339 442
f 339 340 442
f 442 340 341
f 446 447 345
f 447 448 345
f 345 448 449
f 449 450 345
f 450 451 345
f 345 451 344
f 451 452 344
f 344 452 343
f 452 442 343
f 343 442 342
f 442 341 342
f 378 379 302
f 379 380 302
f 302 380 303
f 380 309 303
f 303 309 310
f 451 174 452
f 174 292 452
f 452 292 442
f 292 294 442
f 442 294 443
f 294 295 443
f 443 295 441
f 295 276 441
f 441 276 440
f 276 275 440
f 440 275 410
f 275 189 410
f 410 189 411
f 189 192 411
f 411 192 412
f 192 170 412
f 412 170 413
f 170 169 413
f 413 169 426
f 169 168 426
f 426 168 427
f 168 167 427
f 427 167 391
f 167 166 391
f 391 166 392
f 166 160 392
f 392 160 393
f 160 159 393
f 393 159 394
f 159 158 394
f 394 158 395
f 158 154 395
f 395 154 396
f 154 156 396
f 396 156 397
f 156 157 397
f 397 157 398
f 157 296 398
f 398 296 399
f 296 244 399
f 399 244 400
f 244 243 400
f 400 243 401
f 243 242 401
f 401 242 402
f 242 183 402
f 402 183 403
f 183 185 403
f 403 185 404
f 185 186 404
f 404 186 428
f 186 241 428
f 428 241 429
f 241 240 429
f 429 240 430
f 240 219 430
f 430 219 431
f 219 218 431
f 431 218 432
f 218 272 432
f 432 272 405
f 272 271 405
f 405 271 406
f 271 270 406
f 406 270 414
f 270 269 414
f 414 269 415
f 269 268 415
f 415 268 381
f 268 267 381
f 381 267 382
f 267 288 382
f 382 288 407
f 288 287 407
f 407 287 383
f 287 286 383
f 383 286 384
f 286 259 384
f 384 259 408
f 259 258 408
f 408 258 409
f 258 257 409
f 409 257 385
f 257 217 385
f 385 217 386
f 217 216 386
f 386 216 387
f 216 215 387
f 387 215 416
f 215 266 416
f 416 266 417
f 266 265 417
f 417 265 418
f 265 264 418
f 418 264 419
f 264 263 419
f 419 263 420
f 263 262 420
f 420 262 390
f 262 239 390
f 390 239 389
f 239 238 389
f 389 238 388
f 238 237 388
f 388 237 433
f 237 236 433
f 433 236 434
f 236 235 434
f 434 235 435
f 235 234 435
f 435 234 436
f 234 214 436
f 436 214 421
f 214 213 421
f 421 213 422
f 213 212 422
f 422 212 423
f 212 211 423
f 423 211 424
f 211 182 424
f 424 182 425
f 182 181 425
f 425 181 437
f 181 210 437
f 437 210 438
f 210 209 438
f 438 209 439
f 209 208 439
f 439 208 444
f 208 207 444
f 444 207 445
f 207 206 445
f 445 206 446
f 206 205 446
f 446 205 447
f 205 233 447
f 447 233 448
f 233 232 448
f 448 232 449
f 232 231 449
f 449 231 450
f 231 200 450
f 450 200 451
f 200 174 451
f 306 308 298
f 308 297 298
f 130 128 305
f 144 142 305
f 142 140 305
f 140 138 305
f 305 138 136
f 136 134 305
f 134 132 305
f 305 132 130
f 96 307 98
f 307 100 98
f 96 94 307
f 94 92 307
f 307 92 90
f 90 88 307
f 88 86 307
f 307 86 84
f 84 82 307
f 82 80 307
f 307 80 78
f 300 44 42
f 302 34 32
f 14 12 302
f 12 10 302
f 302 10 8
f 128 126 305
f 126 124 305
f 305 124 122
f 307 108 106
f 70 68 300
f 68 66 300
f 300 66 64
f 300 52 50
f 42 40 300
f 40 38 300
f 300 38 302
f 38 36 302
f 302 36 34
f 32 30 302
f 30 28 302
f 302 28 26
f 8 6 302
f 6 4 302
f 302 4 305
f 4 2 305
f 305 2 144
f 122 120 305
f 120 118 305
f 305 118 116
f 106 104 307
f 104 102 307
f 307 102 100
f 64 62 300
f 62 60 300
f 300 60 58
f 26 24 302
f 24 22 302
f 302 22 20
f 20 18 302
f 18 16 302
f 302 16 14
f 116 114 305
f 114 112 305
f 305 112 307
f 112 110 307
f 307 110 108
f 78 76 307
f 76 74 307
f 307 74 300
f 74 72 300
f 300 72 70
f 58 56 300
f 56 54 300
f 300 54 52
f 50 48 300
f 48 46 300
f 300 46 44

