# https://github.com/mikedh/trimesh

o m4x45mm_torx_92832a573.stl
v -0.00000000 -0.00200000 -0.02197500
v 0.00012855 -0.00146939 -0.02250000
v 0.00017431 -0.00199239 -0.02197500
v 0.00025613 -0.00145259 -0.02250000
v 0.00034730 -0.00196962 -0.02197500
v 0.00038176 -0.00142474 -0.02250000
v 0.00051764 -0.00193185 -0.02197500
v 0.00050448 -0.00138605 -0.02250000
v 0.00068404 -0.00187939 -0.02197500
v 0.00062336 -0.00133680 -0.02250000
v 0.00084524 -0.00181262 -0.02197500
v 0.00073750 -0.00127739 -0.02250000
v 0.00100000 -0.00173205 -0.02197500
v 0.00084603 -0.00120825 -0.02250000
v 0.00114715 -0.00163830 -0.02197500
v 0.00094811 -0.00112992 -0.02250000
v 0.00128558 -0.00153209 -0.02197500
v 0.00104298 -0.00104298 -0.02250000
v 0.00141421 -0.00141421 -0.02197500
v 0.00112992 -0.00094811 -0.02250000
v 0.00153209 -0.00128558 -0.02197500
v 0.00120825 -0.00084603 -0.02250000
v 0.00163830 -0.00114715 -0.02197500
v 0.00127739 -0.00073750 -0.02250000
v 0.00173205 -0.00100000 -0.02197500
v 0.00133680 -0.00062336 -0.02250000
v 0.00181262 -0.00084524 -0.02197500
v 0.00138605 -0.00050448 -0.02250000
v 0.00187939 -0.00068404 -0.02197500
v 0.00142474 -0.00038176 -0.02250000
v 0.00193185 -0.00051764 -0.02197500
v 0.00145259 -0.00025613 -0.02250000
v 0.00196962 -0.00034730 -0.02197500
v 0.00146939 -0.00012855 -0.02250000
v 0.00199239 -0.00017431 -0.02197500
v 0.00147500 -0.00000000 -0.02250000
v 0.00200000 -0.00000000 -0.02197500
v 0.00146939 0.00012855 -0.02250000
v 0.00199239 0.00017431 -0.02197500
v 0.00145259 0.00025613 -0.02250000
v 0.00196962 0.00034730 -0.02197500
v 0.00142474 0.00038176 -0.02250000
v 0.00193185 0.00051764 -0.02197500
v 0.00138605 0.00050448 -0.02250000
v 0.00187939 0.00068404 -0.02197500
v 0.00133680 0.00062336 -0.02250000
v 0.00181262 0.00084524 -0.02197500
v 0.00127739 0.00073750 -0.02250000
v 0.00173205 0.00100000 -0.02197500
v 0.00120825 0.00084603 -0.02250000
v 0.00163830 0.00114715 -0.02197500
v 0.00112992 0.00094811 -0.02250000
v 0.00153209 0.00128558 -0.02197500
v 0.00104298 0.00104298 -0.02250000
v 0.00141421 0.00141421 -0.02197500
v 0.00094811 0.00112992 -0.02250000
v 0.00128558 0.00153209 -0.02197500
v 0.00084603 0.00120825 -0.02250000
v 0.00114715 0.00163830 -0.02197500
v 0.00073750 0.00127739 -0.02250000
v 0.00100000 0.00173205 -0.02197500
v 0.00062336 0.00133680 -0.02250000
v 0.00084524 0.00181262 -0.02197500
v 0.00050448 0.00138605 -0.02250000
v 0.00068404 0.00187939 -0.02197500
v 0.00038176 0.00142474 -0.02250000
v 0.00051764 0.00193185 -0.02197500
v 0.00025613 0.00145259 -0.02250000
v 0.00034730 0.00196962 -0.02197500
v 0.00012855 0.00146939 -0.02250000
v 0.00017431 0.00199239 -0.02197500
v 0.00000000 0.00147500 -0.02250000
v 0.00000000 0.00200000 -0.02197500
v -0.00012855 0.00146939 -0.02250000
v -0.00017431 0.00199239 -0.02197500
v -0.00025613 0.00145259 -0.02250000
v -0.00034730 0.00196962 -0.02197500
v -0.00038176 0.00142474 -0.02250000
v -0.00051764 0.00193185 -0.02197500
v -0.00050448 0.00138605 -0.02250000
v -0.00068404 0.00187939 -0.02197500
v -0.00062336 0.00133680 -0.02250000
v -0.00084524 0.00181262 -0.02197500
v -0.00073750 0.00127739 -0.02250000
v -0.00100000 0.00173205 -0.02197500
v -0.00084603 0.00120825 -0.02250000
v -0.00114715 0.00163830 -0.02197500
v -0.00094811 0.00112992 -0.02250000
v -0.00128558 0.00153209 -0.02197500
v -0.00104298 0.00104298 -0.02250000
v -0.00141421 0.00141421 -0.02197500
v -0.00112992 0.00094811 -0.02250000
v -0.00153209 0.00128558 -0.02197500
v -0.00120825 0.00084603 -0.02250000
v -0.00163830 0.00114715 -0.02197500
v -0.00127739 0.00073750 -0.02250000
v -0.00173205 0.00100000 -0.02197500
v -0.00133680 0.00062336 -0.02250000
v -0.00181262 0.00084524 -0.02197500
v -0.00138605 0.00050448 -0.02250000
v -0.00187939 0.00068404 -0.02197500
v -0.00142474 0.00038176 -0.02250000
v -0.00193185 0.00051764 -0.02197500
v -0.00145259 0.00025613 -0.02250000
v -0.00196962 0.00034730 -0.02197500
v -0.00146939 0.00012855 -0.02250000
v -0.00199239 0.00017431 -0.02197500
v -0.00147500 0.00000000 -0.02250000
v -0.00200000 0.00000000 -0.02197500
v -0.00146939 -0.00012855 -0.02250000
v -0.00199239 -0.00017431 -0.02197500
v -0.00145259 -0.00025613 -0.02250000
v -0.00196962 -0.00034730 -0.02197500
v -0.00142474 -0.00038176 -0.02250000
v -0.00193185 -0.00051764 -0.02197500
v -0.00138605 -0.00050448 -0.02250000
v -0.00187939 -0.00068404 -0.02197500
v -0.00133680 -0.00062336 -0.02250000
v -0.00181262 -0.00084524 -0.02197500
v -0.00127739 -0.00073750 -0.02250000
v -0.00173205 -0.00100000 -0.02197500
v -0.00120825 -0.00084603 -0.02250000
v -0.00163830 -0.00114715 -0.02197500
v -0.00112992 -0.00094811 -0.02250000
v -0.00153209 -0.00128558 -0.02197500
v -0.00104298 -0.00104298 -0.02250000
v -0.00141421 -0.00141421 -0.02197500
v -0.00094811 -0.00112992 -0.02250000
v -0.00128558 -0.00153209 -0.02197500
v -0.00084603 -0.00120825 -0.02250000
v -0.00114715 -0.00163830 -0.02197500
v -0.00073750 -0.00127739 -0.02250000
v -0.00100000 -0.00173205 -0.02197500
v -0.00062336 -0.00133680 -0.02250000
v -0.00084524 -0.00181262 -0.02197500
v -0.00050448 -0.00138605 -0.02250000
v -0.00068404 -0.00187939 -0.02197500
v -0.00038176 -0.00142474 -0.02250000
v -0.00051764 -0.00193185 -0.02197500
v -0.00025613 -0.00145259 -0.02250000
v -0.00034730 -0.00196962 -0.02197500
v -0.00012855 -0.00146939 -0.02250000
v -0.00017431 -0.00199239 -0.02197500
v 0.00000000 -0.00147500 -0.02250000
v -0.00022071 0.00183121 0.02316000
v -0.00022071 0.00183121 0.02470000
v -0.00027331 0.00173494 0.02470000
v -0.00027331 0.00173494 0.02316000
v -0.00033381 0.00164343 0.02470000
v -0.00033381 0.00164343 0.02316000
v -0.00040180 0.00155733 0.02470000
v -0.00040180 0.00155733 0.02316000
v -0.00047678 0.00147725 0.02470000
v -0.00047678 0.00147725 0.02316000
v -0.00055823 0.00140376 0.02470000
v -0.00055823 0.00140376 0.02316000
v -0.00064557 0.00133738 0.02470000
v -0.00064557 0.00133738 0.02316000
v -0.00073819 0.00127858 0.02470000
v -0.00073819 0.00127858 0.02316000
v -0.00083542 0.00122777 0.02470000
v -0.00083542 0.00122777 0.02316000
v -0.00093658 0.00118532 0.02470000
v -0.00093658 0.00118532 0.02316000
v -0.00104095 0.00115153 0.02470000
v -0.00104095 0.00115153 0.02316000
v -0.00114779 0.00112663 0.02470000
v -0.00114779 0.00112663 0.02316000
v -0.00125634 0.00111080 0.02470000
v -0.00125634 0.00111080 0.02316000
v -0.00136585 0.00110416 0.02470000
v -0.00136585 0.00110416 0.02316000
v -0.00147552 0.00110675 0.02470000
v -0.00147552 0.00110675 0.02316000
v 0.00147552 0.00110675 0.02316000
v 0.00147552 0.00110675 0.02470000
v 0.00136585 0.00110416 0.02470000
v 0.00136585 0.00110416 0.02316000
v 0.00125634 0.00111080 0.02470000
v 0.00125634 0.00111080 0.02316000
v 0.00114779 0.00112663 0.02470000
v 0.00114779 0.00112663 0.02316000
v 0.00104095 0.00115153 0.02470000
v 0.00104095 0.00115153 0.02316000
v 0.00093658 0.00118532 0.02470000
v 0.00093658 0.00118532 0.02316000
v 0.00083542 0.00122777 0.02470000
v 0.00083542 0.00122777 0.02316000
v 0.00073819 0.00127858 0.02470000
v 0.00073819 0.00127858 0.02316000
v 0.00064557 0.00133738 0.02470000
v 0.00064557 0.00133738 0.02316000
v 0.00055823 0.00140376 0.02470000
v 0.00055823 0.00140376 0.02316000
v 0.00047678 0.00147725 0.02470000
v 0.00047678 0.00147725 0.02316000
v 0.00040180 0.00155733 0.02470000
v 0.00040180 0.00155733 0.02316000
v 0.00033381 0.00164343 0.02470000
v 0.00033381 0.00164343 0.02316000
v 0.00027331 0.00173494 0.02470000
v 0.00027331 0.00173494 0.02316000
v 0.00022071 0.00183121 0.02470000
v 0.00022071 0.00183121 0.02316000
v 0.00169623 -0.00072446 0.02316000
v 0.00169623 -0.00072446 0.02470000
v 0.00163916 -0.00063078 0.02470000
v 0.00163916 -0.00063078 0.02316000
v 0.00159016 -0.00053262 0.02470000
v 0.00159016 -0.00053262 0.02316000
v 0.00154958 -0.00043070 0.02470000
v 0.00154958 -0.00043070 0.02316000
v 0.00151773 -0.00032572 0.02470000
v 0.00151773 -0.00032572 0.02316000
v 0.00149481 -0.00021844 0.02470000
v 0.00149481 -0.00021844 0.02316000
v 0.00148099 -0.00010961 0.02470000
v 0.00148099 -0.00010961 0.02316000
v 0.00147638 0.00000000 0.02470000
v 0.00147638 0.00000000 0.02316000
v 0.00148099 0.00010961 0.02470000
v 0.00148099 0.00010961 0.02316000
v 0.00149481 0.00021844 0.02470000
v 0.00149481 0.00021844 0.02316000
v 0.00151773 0.00032572 0.02470000
v 0.00151773 0.00032572 0.02316000
v 0.00154958 0.00043070 0.02470000
v 0.00154958 0.00043070 0.02316000
v 0.00159016 0.00053262 0.02470000
v 0.00159016 0.00053262 0.02316000
v 0.00163916 0.00063078 0.02470000
v 0.00163916 0.00063078 0.02316000
v 0.00169623 0.00072446 0.02470000
v 0.00169623 0.00072446 0.02316000
v -0.00149657 0.00110723 0.02316000
v -0.00149657 0.00110723 0.02470000
v -0.00151759 0.00110591 0.02316000
v -0.00151759 0.00110591 0.02470000
v -0.00153842 0.00110280 0.02316000
v -0.00153842 0.00110280 0.02470000
v -0.00155890 0.00109792 0.02316000
v -0.00155890 0.00109792 0.02470000
v -0.00157890 0.00109130 0.02316000
v -0.00157890 0.00109130 0.02470000
v -0.00159825 0.00108300 0.02316000
v -0.00159825 0.00108300 0.02470000
v -0.00161682 0.00107308 0.02316000
v -0.00161682 0.00107308 0.02470000
v -0.00163448 0.00106160 0.02316000
v -0.00163448 0.00106160 0.02470000
v -0.00165109 0.00104866 0.02316000
v -0.00165109 0.00104866 0.02470000
v -0.00166653 0.00103434 0.02316000
v -0.00166653 0.00103434 0.02470000
v -0.00168069 0.00101876 0.02316000
v -0.00168069 0.00101876 0.02470000
v -0.00169347 0.00100202 0.02316000
v -0.00169347 0.00100202 0.02470000
v -0.00170477 0.00098425 0.02316000
v -0.00170477 0.00098425 0.02470000
v -0.00171451 0.00096558 0.02316000
v -0.00171451 0.00096558 0.02470000
v -0.00172262 0.00094614 0.02316000
v -0.00172262 0.00094614 0.02470000
v -0.00172903 0.00092609 0.02316000
v -0.00172903 0.00092609 0.02470000
v -0.00173371 0.00090555 0.02316000
v -0.00173371 0.00090555 0.02470000
v -0.00173661 0.00088470 0.02316000
v -0.00173661 0.00088470 0.02470000
v -0.00173772 0.00086367 0.02316000
v -0.00173772 0.00086367 0.02470000
v -0.00173703 0.00084262 0.02316000
v -0.00173703 0.00084262 0.02470000
v -0.00173454 0.00082171 0.02316000
v -0.00173454 0.00082171 0.02470000
v -0.00173028 0.00080109 0.02316000
v -0.00173028 0.00080109 0.02470000
v -0.00172426 0.00078091 0.02316000
v -0.00172426 0.00078091 0.02470000
v -0.00171654 0.00076132 0.02316000
v -0.00171654 0.00076132 0.02470000
v -0.00170718 0.00074246 0.02316000
v -0.00170718 0.00074246 0.02470000
v -0.00169623 0.00072446 0.02316000
v -0.00169623 0.00072446 0.02470000
v -0.00147638 0.00000000 0.02316000
v -0.00148099 -0.00010961 0.02316000
v -0.00136585 -0.00110416 0.02316000
v -0.00154958 0.00043070 0.02316000
v -0.00151773 0.00032572 0.02316000
v -0.00149481 0.00021844 0.02316000
v -0.00148099 0.00010961 0.02316000
v -0.00022071 -0.00183121 0.02316000
v 0.00022071 -0.00183121 0.02316000
v -0.00027331 -0.00173494 0.02316000
v 0.00027331 -0.00173494 0.02316000
v 0.00033381 -0.00164343 0.02316000
v 0.00040180 -0.00155733 0.02316000
v 0.00047678 -0.00147725 0.02316000
v 0.00055823 -0.00140376 0.02316000
v -0.00125634 -0.00111080 0.02316000
v 0.00104095 -0.00115153 0.02316000
v 0.00114779 -0.00112663 0.02316000
v -0.00149481 -0.00021844 0.02316000
v -0.00151773 -0.00032572 0.02316000
v -0.00154958 -0.00043070 0.02316000
v -0.00163916 0.00063078 0.02316000
v -0.00159016 0.00053262 0.02316000
v 0.00093658 -0.00118532 0.02316000
v -0.00159016 -0.00053262 0.02316000
v -0.00163916 -0.00063078 0.02316000
v -0.00147552 -0.00110675 0.02316000
v -0.00169623 -0.00072446 0.02316000
v -0.00149657 -0.00110723 0.02316000
v -0.00083542 -0.00122777 0.02316000
v -0.00073819 -0.00127858 0.02316000
v -0.00047678 -0.00147725 0.02316000
v -0.00040180 -0.00155733 0.02316000
v -0.00033381 -0.00164343 0.02316000
v -0.00008262 -0.00195421 0.02316000
v -0.00006250 -0.00196043 0.02316000
v 0.00004192 -0.00196490 0.02316000
v 0.00006250 -0.00196043 0.02316000
v 0.00018584 -0.00188371 0.02316000
v 0.00064557 -0.00133738 0.02316000
v 0.00073819 -0.00127858 0.02316000
v 0.00083542 -0.00122777 0.02316000
v 0.00170718 -0.00074246 0.02316000
v 0.00149657 -0.00110723 0.02316000
v 0.00151759 0.00110591 0.02316000
v 0.00149657 0.00110723 0.02316000
v -0.00064557 -0.00133738 0.02316000
v -0.00055823 -0.00140376 0.02316000
v 0.00002104 -0.00196760 0.02316000
v -0.00004192 -0.00196490 0.02316000
v -0.00002104 -0.00196760 0.02316000
v 0.00021060 -0.00184969 0.02316000
v 0.00019895 -0.00186723 0.02316000
v 0.00008262 -0.00195421 0.02316000
v 0.00010214 -0.00194630 0.02316000
v 0.00017137 -0.00189901 0.02316000
v 0.00125634 -0.00111080 0.02316000
v 0.00136585 -0.00110416 0.02316000
v 0.00147552 -0.00110675 0.02316000
v -0.00093658 -0.00118532 0.02316000
v -0.00021060 -0.00184969 0.02316000
v -0.00019895 -0.00186723 0.02316000
v -0.00018584 -0.00188371 0.02316000
v -0.00013878 -0.00192563 0.02316000
v -0.00012090 -0.00193675 0.02316000
v -0.00010214 -0.00194630 0.02316000
v 0.00000000 -0.00196850 0.02316000
v -0.00155890 -0.00109792 0.02316000
v -0.00153842 -0.00110280 0.02316000
v -0.00151759 -0.00110591 0.02316000
v -0.00021060 0.00184969 0.02316000
v -0.00114779 -0.00112663 0.02316000
v -0.00104095 -0.00115153 0.02316000
v -0.00017137 -0.00189901 0.02316000
v -0.00015565 -0.00191302 0.02316000
v 0.00012090 -0.00193675 0.02316000
v 0.00013878 -0.00192563 0.02316000
v 0.00015565 -0.00191302 0.02316000
v -0.00170718 -0.00074246 0.02316000
v -0.00159825 -0.00108300 0.02316000
v -0.00157890 -0.00109130 0.02316000
v -0.00171654 -0.00076132 0.02316000
v -0.00172426 -0.00078091 0.02316000
v -0.00173028 -0.00080109 0.02316000
v -0.00172262 -0.00094614 0.02316000
v -0.00163448 -0.00106160 0.02316000
v -0.00172903 -0.00092609 0.02316000
v -0.00173371 -0.00090555 0.02316000
v 0.00171654 0.00076132 0.02316000
v 0.00172426 0.00078091 0.02316000
v 0.00169347 0.00100202 0.02316000
v -0.00173454 -0.00082171 0.02316000
v -0.00173703 -0.00084262 0.02316000
v -0.00173772 -0.00086367 0.02316000
v 0.00173028 0.00080109 0.02316000
v 0.00173454 0.00082171 0.02316000
v 0.00170477 0.00098425 0.02316000
v 0.00168069 0.00101876 0.02316000
v 0.00166653 0.00103434 0.02316000
v 0.00165109 0.00104866 0.02316000
v 0.00163448 0.00106160 0.02316000
v 0.00161682 0.00107308 0.02316000
v 0.00159825 0.00108300 0.02316000
v 0.00157890 0.00109130 0.02316000
v 0.00155890 0.00109792 0.02316000
v 0.00153842 0.00110280 0.02316000
v -0.00161682 -0.00107308 0.02316000
v -0.00173661 -0.00088470 0.02316000
v -0.00171451 -0.00096558 0.02316000
v -0.00170477 -0.00098425 0.02316000
v -0.00169347 -0.00100202 0.02316000
v -0.00168069 -0.00101876 0.02316000
v -0.00166653 -0.00103434 0.02316000
v -0.00165109 -0.00104866 0.02316000
v 0.00170718 0.00074246 0.02316000
v 0.00173772 -0.00086367 0.02316000
v 0.00173703 -0.00084262 0.02316000
v 0.00173454 -0.00082171 0.02316000
v 0.00173028 -0.00080109 0.02316000
v 0.00172426 -0.00078091 0.02316000
v 0.00171654 -0.00076132 0.02316000
v 0.00171451 0.00096558 0.02316000
v 0.00173703 0.00084262 0.02316000
v 0.00173772 0.00086367 0.02316000
v 0.00173661 0.00088470 0.02316000
v 0.00173371 0.00090555 0.02316000
v 0.00172262 0.00094614 0.02316000
v 0.00172903 0.00092609 0.02316000
v 0.00153842 -0.00110280 0.02316000
v 0.00155890 -0.00109792 0.02316000
v 0.00151759 -0.00110591 0.02316000
v 0.00157890 -0.00109130 0.02316000
v 0.00159825 -0.00108300 0.02316000
v 0.00161682 -0.00107308 0.02316000
v 0.00166653 -0.00103434 0.02316000
v 0.00168069 -0.00101876 0.02316000
v 0.00169347 -0.00100202 0.02316000
v 0.00170477 -0.00098425 0.02316000
v 0.00019895 0.00186723 0.02316000
v 0.00018584 0.00188371 0.02316000
v -0.00019895 0.00186723 0.02316000
v 0.00017137 0.00189901 0.02316000
v 0.00015565 0.00191302 0.02316000
v 0.00013878 0.00192563 0.02316000
v 0.00012090 0.00193675 0.02316000
v 0.00010214 0.00194630 0.02316000
v 0.00008262 0.00195421 0.02316000
v 0.00006250 0.00196043 0.02316000
v 0.00004192 0.00196490 0.02316000
v 0.00002104 0.00196760 0.02316000
v 0.00163448 -0.00106160 0.02316000
v 0.00165109 -0.00104866 0.02316000
v 0.00171451 -0.00096558 0.02316000
v 0.00172262 -0.00094614 0.02316000
v 0.00172903 -0.00092609 0.02316000
v 0.00173371 -0.00090555 0.02316000
v 0.00173661 -0.00088470 0.02316000
v 0.00021060 0.00184969 0.02316000
v -0.00000000 0.00196850 0.02316000
v -0.00002104 0.00196760 0.02316000
v -0.00004192 0.00196490 0.02316000
v -0.00006250 0.00196043 0.02316000
v -0.00008262 0.00195421 0.02316000
v -0.00010214 0.00194630 0.02316000
v -0.00018584 0.00188371 0.02316000
v -0.00017137 0.00189901 0.02316000
v -0.00015565 0.00191302 0.02316000
v -0.00012090 0.00193675 0.02316000
v -0.00013878 0.00192563 0.02316000
v -0.00022071 -0.00183121 0.02470000
v -0.00021060 -0.00184969 0.02470000
v -0.00019895 -0.00186723 0.02470000
v -0.00018584 -0.00188371 0.02470000
v -0.00017137 -0.00189901 0.02470000
v -0.00015565 -0.00191302 0.02470000
v -0.00013878 -0.00192563 0.02470000
v -0.00012090 -0.00193675 0.02470000
v -0.00010214 -0.00194630 0.02470000
v -0.00008262 -0.00195421 0.02470000
v -0.00006250 -0.00196043 0.02470000
v -0.00004192 -0.00196490 0.02470000
v -0.00002104 -0.00196760 0.02470000
v 0.00000000 -0.00196850 0.02470000
v 0.00002104 -0.00196760 0.02470000
v 0.00004192 -0.00196490 0.02470000
v 0.00006250 -0.00196043 0.02470000
v 0.00008262 -0.00195421 0.02470000
v 0.00010214 -0.00194630 0.02470000
v 0.00012090 -0.00193675 0.02470000
v 0.00013878 -0.00192563 0.02470000
v 0.00015565 -0.00191302 0.02470000
v 0.00017137 -0.00189901 0.02470000
v 0.00018584 -0.00188371 0.02470000
v 0.00019895 -0.00186723 0.02470000
v 0.00021060 -0.00184969 0.02470000
v 0.00022071 -0.00183121 0.02470000
v 0.00147552 -0.00110675 0.02470000
v 0.00149657 -0.00110723 0.02470000
v 0.00151759 -0.00110591 0.02470000
v 0.00153842 -0.00110280 0.02470000
v 0.00155890 -0.00109792 0.02470000
v 0.00157890 -0.00109130 0.02470000
v 0.00159825 -0.00108300 0.02470000
v 0.00161682 -0.00107308 0.02470000
v 0.00163448 -0.00106160 0.02470000
v 0.00165109 -0.00104866 0.02470000
v 0.00166653 -0.00103434 0.02470000
v 0.00168069 -0.00101876 0.02470000
v 0.00169347 -0.00100202 0.02470000
v 0.00170477 -0.00098425 0.02470000
v 0.00171451 -0.00096558 0.02470000
v 0.00172262 -0.00094614 0.02470000
v 0.00172903 -0.00092609 0.02470000
v 0.00173371 -0.00090555 0.02470000
v 0.00173661 -0.00088470 0.02470000
v 0.00173772 -0.00086367 0.02470000
v 0.00173703 -0.00084262 0.02470000
v 0.00173454 -0.00082171 0.02470000
v 0.00173028 -0.00080109 0.02470000
v 0.00172426 -0.00078091 0.02470000
v 0.00171654 -0.00076132 0.02470000
v 0.00170718 -0.00074246 0.02470000
v 0.00021060 0.00184969 0.02470000
v 0.00019895 0.00186723 0.02470000
v 0.00018584 0.00188371 0.02470000
v 0.00017137 0.00189901 0.02470000
v 0.00015565 0.00191302 0.02470000
v 0.00013878 0.00192563 0.02470000
v 0.00012090 0.00193675 0.02470000
v 0.00010214 0.00194630 0.02470000
v 0.00008262 0.00195421 0.02470000
v 0.00006250 0.00196043 0.02470000
v 0.00004192 0.00196490 0.02470000
v 0.00002104 0.00196760 0.02470000
v -0.00000000 0.00196850 0.02470000
v -0.00002104 0.00196760 0.02470000
v -0.00004192 0.00196490 0.02470000
v -0.00006250 0.00196043 0.02470000
v -0.00008262 0.00195421 0.02470000
v -0.00010214 0.00194630 0.02470000
v -0.00012090 0.00193675 0.02470000
v -0.00013878 0.00192563 0.02470000
v -0.00015565 0.00191302 0.02470000
v -0.00017137 0.00189901 0.02470000
v -0.00018584 0.00188371 0.02470000
v -0.00019895 0.00186723 0.02470000
v -0.00021060 0.00184969 0.02470000
v 0.00170718 0.00074246 0.02470000
v 0.00171654 0.00076132 0.02470000
v 0.00172426 0.00078091 0.02470000
v 0.00173028 0.00080109 0.02470000
v 0.00173454 0.00082171 0.02470000
v 0.00173703 0.00084262 0.02470000
v 0.00173772 0.00086367 0.02470000
v 0.00173661 0.00088470 0.02470000
v 0.00173371 0.00090555 0.02470000
v 0.00172903 0.00092609 0.02470000
v 0.00172262 0.00094614 0.02470000
v 0.00171451 0.00096558 0.02470000
v 0.00170477 0.00098425 0.02470000
v 0.00169347 0.00100202 0.02470000
v 0.00168069 0.00101876 0.02470000
v 0.00166653 0.00103434 0.02470000
v 0.00165109 0.00104866 0.02470000
v 0.00163448 0.00106160 0.02470000
v 0.00161682 0.00107308 0.02470000
v 0.00159825 0.00108300 0.02470000
v 0.00157890 0.00109130 0.02470000
v 0.00155890 0.00109792 0.02470000
v 0.00153842 0.00110280 0.02470000
v 0.00151759 0.00110591 0.02470000
v 0.00149657 0.00110723 0.02470000
v -0.00169623 -0.00072446 0.02470000
v -0.00170718 -0.00074246 0.02470000
v -0.00171654 -0.00076132 0.02470000
v -0.00172426 -0.00078091 0.02470000
v -0.00173028 -0.00080109 0.02470000
v -0.00173454 -0.00082171 0.02470000
v -0.00173703 -0.00084262 0.02470000
v -0.00173772 -0.00086367 0.02470000
v -0.00173661 -0.00088470 0.02470000
v -0.00173371 -0.00090555 0.02470000
v -0.00172903 -0.00092609 0.02470000
v -0.00172262 -0.00094614 0.02470000
v -0.00171451 -0.00096558 0.02470000
v -0.00170477 -0.00098425 0.02470000
v -0.00169347 -0.00100202 0.02470000
v -0.00168069 -0.00101876 0.02470000
v -0.00166653 -0.00103434 0.02470000
v -0.00165109 -0.00104866 0.02470000
v -0.00163448 -0.00106160 0.02470000
v -0.00161682 -0.00107308 0.02470000
v -0.00159825 -0.00108300 0.02470000
v -0.00157890 -0.00109130 0.02470000
v -0.00155890 -0.00109792 0.02470000
v -0.00153842 -0.00110280 0.02470000
v -0.00151759 -0.00110591 0.02470000
v -0.00149657 -0.00110723 0.02470000
v -0.00147552 -0.00110675 0.02470000
v 0.00181262 -0.00084524 0.02250000
v 0.00344397 -0.00160595 0.02250000
v 0.00173205 -0.00100000 0.02250000
v 0.00329090 -0.00190000 0.02250000
v 0.00163830 -0.00114715 0.02250000
v 0.00311278 -0.00217959 0.02250000
v 0.00153209 -0.00128558 0.02250000
v 0.00291097 -0.00244259 0.02250000
v 0.00141421 -0.00141421 0.02250000
v 0.00268701 -0.00268701 0.02250000
v 0.00128558 -0.00153209 0.02250000
v 0.00244259 -0.00291097 0.02250000
v 0.00114715 -0.00163830 0.02250000
v 0.00217959 -0.00311278 0.02250000
v 0.00100000 -0.00173205 0.02250000
v 0.00190000 -0.00329090 0.02250000
v 0.00084524 -0.00181262 0.02250000
v 0.00160595 -0.00344397 0.02250000
v 0.00068404 -0.00187939 0.02250000
v 0.00129968 -0.00357083 0.02250000
v 0.00051764 -0.00193185 0.02250000
v 0.00098351 -0.00367052 0.02250000
v 0.00034730 -0.00196962 0.02250000
v 0.00065986 -0.00374227 0.02250000
v 0.00017431 -0.00199239 0.02250000
v 0.00033119 -0.00378554 0.02250000
v 0.00000000 -0.00200000 0.02250000
v -0.00000000 -0.00380000 0.02250000
v -0.00017431 -0.00199239 0.02250000
v -0.00033119 -0.00378554 0.02250000
v -0.00034730 -0.00196962 0.02250000
v -0.00065986 -0.00374227 0.02250000
v -0.00051764 -0.00193185 0.02250000
v -0.00098351 -0.00367052 0.02250000
v -0.00068404 -0.00187939 0.02250000
v -0.00129968 -0.00357083 0.02250000
v -0.00084524 -0.00181262 0.02250000
v -0.00160595 -0.00344397 0.02250000
v -0.00100000 -0.00173205 0.02250000
v -0.00190000 -0.00329090 0.02250000
v -0.00114715 -0.00163830 0.02250000
v -0.00217959 -0.00311278 0.02250000
v -0.00128558 -0.00153209 0.02250000
v -0.00244259 -0.00291097 0.02250000
v -0.00141421 -0.00141421 0.02250000
v -0.00268701 -0.00268701 0.02250000
v -0.00153209 -0.00128558 0.02250000
v -0.00291097 -0.00244259 0.02250000
v -0.00163830 -0.00114715 0.02250000
v -0.00311278 -0.00217959 0.02250000
v -0.00173205 -0.00100000 0.02250000
v -0.00329090 -0.00190000 0.02250000
v -0.00181262 -0.00084524 0.02250000
v -0.00344397 -0.00160595 0.02250000
v -0.00187939 -0.00068404 0.02250000
v -0.00357083 -0.00129968 0.02250000
v -0.00193185 -0.00051764 0.02250000
v -0.00367052 -0.00098351 0.02250000
v -0.00196962 -0.00034730 0.02250000
v -0.00374227 -0.00065986 0.02250000
v -0.00199239 -0.00017431 0.02250000
v -0.00378554 -0.00033119 0.02250000
v -0.00200000 -0.00000000 0.02250000
v -0.00380000 -0.00000000 0.02250000
v -0.00199239 0.00017431 0.02250000
v -0.00378554 0.00033119 0.02250000
v -0.00196962 0.00034730 0.02250000
v -0.00374227 0.00065986 0.02250000
v -0.00193185 0.00051764 0.02250000
v -0.00367052 0.00098351 0.02250000
v -0.00187939 0.00068404 0.02250000
v -0.00357083 0.00129968 0.02250000
v -0.00181262 0.00084524 0.02250000
v -0.00344397 0.00160595 0.02250000
v -0.00173205 0.00100000 0.02250000
v -0.00329090 0.00190000 0.02250000
v -0.00163830 0.00114715 0.02250000
v -0.00311278 0.00217959 0.02250000
v -0.00153209 0.00128558 0.02250000
v -0.00291097 0.00244259 0.02250000
v -0.00141421 0.00141421 0.02250000
v -0.00268701 0.00268701 0.02250000
v -0.00128558 0.00153209 0.02250000
v -0.00244259 0.00291097 0.02250000
v -0.00114715 0.00163830 0.02250000
v -0.00217959 0.00311278 0.02250000
v -0.00100000 0.00173205 0.02250000
v -0.00190000 0.00329090 0.02250000
v -0.00084524 0.00181262 0.02250000
v -0.00160595 0.00344397 0.02250000
v -0.00068404 0.00187939 0.02250000
v -0.00129968 0.00357083 0.02250000
v -0.00051764 0.00193185 0.02250000
v -0.00098351 0.00367052 0.02250000
v -0.00034730 0.00196962 0.02250000
v -0.00065986 0.00374227 0.02250000
v -0.00017431 0.00199239 0.02250000
v -0.00033119 0.00378554 0.02250000
v -0.00000000 0.00200000 0.02250000
v 0.00000000 0.00380000 0.02250000
v 0.00017431 0.00199239 0.02250000
v 0.00033119 0.00378554 0.02250000
v 0.00034730 0.00196962 0.02250000
v 0.00065986 0.00374227 0.02250000
v 0.00051764 0.00193185 0.02250000
v 0.00098351 0.00367052 0.02250000
v 0.00068404 0.00187939 0.02250000
v 0.00129968 0.00357083 0.02250000
v 0.00084524 0.00181262 0.02250000
v 0.00160595 0.00344397 0.02250000
v 0.00100000 0.00173205 0.02250000
v 0.00190000 0.00329090 0.02250000
v 0.00114715 0.00163830 0.02250000
v 0.00217959 0.00311278 0.02250000
v 0.00128558 0.00153209 0.02250000
v 0.00244259 0.00291097 0.02250000
v 0.00141421 0.00141421 0.02250000
v 0.00268701 0.00268701 0.02250000
v 0.00153209 0.00128558 0.02250000
v 0.00291097 0.00244259 0.02250000
v 0.00163830 0.00114715 0.02250000
v 0.00311278 0.00217959 0.02250000
v 0.00173205 0.00100000 0.02250000
v 0.00329090 0.00190000 0.02250000
v 0.00181262 0.00084524 0.02250000
v 0.00344397 0.00160595 0.02250000
v 0.00187939 0.00068404 0.02250000
v 0.00357083 0.00129968 0.02250000
v 0.00193185 0.00051764 0.02250000
v 0.00367052 0.00098351 0.02250000
v 0.00196962 0.00034730 0.02250000
v 0.00374227 0.00065986 0.02250000
v 0.00199239 0.00017431 0.02250000
v 0.00378554 0.00033119 0.02250000
v 0.00200000 -0.00000000 0.02250000
v 0.00380000 -0.00000000 0.02250000
v 0.00199239 -0.00017431 0.02250000
v 0.00378554 -0.00033119 0.02250000
v 0.00196962 -0.00034730 0.02250000
v 0.00374227 -0.00065986 0.02250000
v 0.00193185 -0.00051764 0.02250000
v 0.00367052 -0.00098351 0.02250000
v 0.00187939 -0.00068404 0.02250000
v 0.00357083 -0.00129968 0.02250000
v 0.00000000 -0.00200000 0.02470000
v -0.00153209 0.00128558 0.02470000
v -0.00141421 0.00141421 0.02470000
v -0.00017431 -0.00199239 0.02470000
v 0.00187939 -0.00068404 0.02470000
v 0.00153209 -0.00128558 0.02470000
v 0.00141421 -0.00141421 0.02470000
v 0.00163830 -0.00114715 0.02470000
v 0.00016069 -0.00199353 0.02470000
v -0.00019681 -0.00199029 0.02470000
v -0.00034730 -0.00196962 0.02470000
v -0.00163830 -0.00114715 0.02470000
v -0.00153209 -0.00128558 0.02470000
v -0.00181262 -0.00084524 0.02470000
v -0.00173735 -0.00099077 0.02470000
v -0.00181262 0.00084524 0.02470000
v -0.00163830 0.00114715 0.02470000
v -0.00034730 0.00196962 0.02470000
v -0.00017431 0.00199239 0.02470000
v 0.00000000 0.00200000 0.02470000
v 0.00051764 -0.00193185 0.02470000
v 0.00034730 -0.00196962 0.02470000
v 0.00017431 -0.00199239 0.02470000
v -0.00187939 0.00068404 0.02470000
v -0.00173205 0.00100000 0.02470000
v -0.00068404 0.00187939 0.02470000
v -0.00084524 0.00181262 0.02470000
v -0.00090547 0.00178329 0.02470000
v -0.00099069 0.00173739 0.02470000
v -0.00100000 0.00173205 0.02470000
v -0.00114715 0.00163830 0.02470000
v 0.00016069 0.00199353 0.02470000
v 0.00181262 -0.00084524 0.02470000
v -0.00173203 0.00100003 0.02470000
v -0.00128558 0.00153209 0.02470000
v 0.00017431 0.00199239 0.02470000
v 0.00084524 0.00181262 0.02470000
v 0.00100000 -0.00173205 0.02470000
v 0.00073819 -0.00127858 0.02470000
v 0.00086988 -0.00180092 0.02470000
v 0.00064557 -0.00133738 0.02470000
v 0.00084524 -0.00181262 0.02470000
v -0.00141421 -0.00141421 0.02470000
v -0.00173205 -0.00100000 0.02470000
v -0.00187939 -0.00068404 0.02470000
v -0.00051764 0.00193185 0.02470000
v -0.00055302 0.00192202 0.02470000
v 0.00034730 0.00196962 0.02470000
v 0.00051764 0.00193185 0.02470000
v 0.00141421 0.00141421 0.02470000
v 0.00153209 0.00128558 0.02470000
v 0.00181262 0.00084524 0.02470000
v 0.00173205 0.00100000 0.02470000
v 0.00193185 0.00051764 0.02470000
v 0.00188798 0.00065996 0.02470000
v 0.00188016 0.00068190 0.02470000
v 0.00187939 0.00068404 0.02470000
v 0.00193185 -0.00051764 0.02470000
v 0.00196962 -0.00034730 0.02470000
v 0.00173205 -0.00100000 0.02470000
v 0.00136585 -0.00110416 0.02470000
v 0.00128558 -0.00153209 0.02470000
v -0.00193185 -0.00051764 0.02470000
v -0.00193185 0.00051764 0.02470000
v 0.00163830 0.00114715 0.02470000
v 0.00173203 0.00100003 0.02470000
v 0.00188016 -0.00068190 0.02470000
v 0.00189112 -0.00065091 0.02470000
v 0.00199239 0.00017431 0.02470000
v 0.00196962 0.00034730 0.02470000
v 0.00199999 0.00000445 0.02470000
v 0.00055823 -0.00140376 0.02470000
v 0.00047678 -0.00147725 0.02470000
v 0.00068404 -0.00187939 0.02470000
v 0.00040180 -0.00155733 0.02470000
v 0.00033381 -0.00164343 0.02470000
v 0.00027331 -0.00173494 0.02470000
v -0.00051764 -0.00193185 0.02470000
v -0.00055302 -0.00192202 0.02470000
v -0.00027331 -0.00173494 0.02470000
v -0.00033381 -0.00164343 0.02470000
v 0.00200000 -0.00000000 0.02470000
v 0.00199239 -0.00017431 0.02470000
v 0.00125634 -0.00111080 0.02470000
v 0.00114779 -0.00112663 0.02470000
v 0.00114715 -0.00163830 0.02470000
v -0.00100000 -0.00173205 0.02470000
v -0.00090547 -0.00178329 0.02470000
v -0.00064557 -0.00133738 0.02470000
v -0.00084524 -0.00181262 0.02470000
v -0.00055823 -0.00140376 0.02470000
v -0.00068404 -0.00187939 0.02470000
v -0.00047678 -0.00147725 0.02470000
v -0.00040180 -0.00155733 0.02470000
v 0.00104095 -0.00115153 0.02470000
v 0.00093658 -0.00118532 0.02470000
v 0.00083542 -0.00122777 0.02470000
v -0.00073819 -0.00127858 0.02470000
v -0.00083542 -0.00122777 0.02470000
v -0.00114715 -0.00163830 0.02470000
v -0.00093658 -0.00118532 0.02470000
v -0.00104095 -0.00115153 0.02470000
v -0.00128558 -0.00153209 0.02470000
v -0.00114779 -0.00112663 0.02470000
v -0.00125634 -0.00111080 0.02470000
v -0.00136585 -0.00110416 0.02470000
v 0.00068404 0.00187939 0.02470000
v -0.00151773 0.00032572 0.02470000
v -0.00154958 0.00043070 0.02470000
v -0.00196962 0.00034730 0.02470000
v -0.00159016 0.00053262 0.02470000
v -0.00163916 0.00063078 0.02470000
v -0.00149481 0.00021844 0.02470000
v -0.00197265 0.00032961 0.02470000
v -0.00148099 0.00010961 0.02470000
v -0.00199239 0.00017431 0.02470000
v -0.00147638 0.00000000 0.02470000
v -0.00200000 -0.00000000 0.02470000
v -0.00148099 -0.00010961 0.02470000
v -0.00199239 -0.00017431 0.02470000
v -0.00149481 -0.00021844 0.02470000
v -0.00197412 -0.00032071 0.02470000
v -0.00196962 -0.00034730 0.02470000
v -0.00151773 -0.00032572 0.02470000
v -0.00154958 -0.00043070 0.02470000
v 0.00114715 0.00163830 0.02470000
v 0.00100000 0.00173205 0.02470000
v 0.00099069 0.00173739 0.02470000
v 0.00086988 0.00180092 0.02470000
v 0.00128558 0.00153209 0.02470000
v -0.00163916 -0.00063078 0.02470000
v -0.00159016 -0.00053262 0.02470000
v 0.00000000 -0.00000000 -0.02250000
v -0.00158700 -0.00133242 0.02466035
v -0.00191232 -0.00064860 0.02468957
v 0.00051692 0.00209722 0.02460960
v 0.00219322 0.00063026 0.02453431
v 0.00219322 0.00031849 0.02457560
v 0.00219322 0.00000431 0.02458966
v 0.00219322 -0.00062177 0.02453580
v 0.00291097 -0.00244259 0.02283000
v 0.00303030 -0.00225260 0.02287867
v 0.00277039 -0.00243991 0.02303709
v 0.00370054 -0.00086373 0.02283000
v 0.00367355 -0.00088080 0.02287503
v 0.00367409 -0.00097007 0.02283000
v 0.00367409 0.00097007 0.02283000
v 0.00367355 0.00088533 0.02287292
v 0.00369929 0.00086906 0.02283000
v 0.00367052 0.00098351 0.02283000
v 0.00364485 0.00107476 0.02283000
v 0.00348350 0.00119825 0.02305101
v 0.00348583 0.00151294 0.02283000
v 0.00346592 0.00155800 0.02283000
v 0.00326857 0.00172314 0.02303113
v 0.00344397 0.00160595 0.02283000
v 0.00331631 0.00185529 0.02283000
v 0.00326857 0.00189540 0.02287363
v 0.00291097 0.00244259 0.02283000
v 0.00303030 0.00225713 0.02287329
v 0.00311278 0.00217959 0.02283000
v -0.00291097 0.00244259 0.02283000
v -0.00305536 0.00223727 0.02285658
v -0.00279755 0.00242665 0.02301597
v -0.00367052 0.00098351 0.02283000
v -0.00369408 0.00089093 0.02283000
v -0.00369129 0.00087206 0.02284445
v -0.00357083 -0.00129968 0.02283000
v -0.00350383 -0.00135251 0.02291784
v -0.00350383 -0.00117846 0.02302801
v -0.00350657 -0.00146423 0.02283000
v -0.00268701 -0.00268701 0.02283000
v -0.00252061 -0.00284368 0.02283000
v -0.00251977 -0.00277425 0.02293333
v -0.00019675 -0.00379490 0.02283000
v 0.00000000 -0.00380000 0.02283000
v -0.00019672 -0.00364928 0.02310205
v 0.00016067 -0.00365059 0.02310281
v -0.00033119 -0.00378554 0.02283000
v -0.00055272 -0.00362190 0.02308608
v -0.00055280 -0.00375958 0.02283000
v -0.00065986 -0.00374227 0.02283000
v -0.00090476 -0.00356865 0.02305502
v -0.00090488 -0.00369069 0.02283000
v -0.00098351 -0.00367052 0.02283000
v -0.00125034 -0.00348992 0.02300910
v -0.00125047 -0.00358836 0.02283000
v -0.00158700 -0.00338627 0.02294865
v -0.00158708 -0.00345271 0.02283000
v -0.00129968 -0.00357083 0.02283000
v -0.00244259 -0.00291097 0.02283000
v -0.00222399 -0.00293811 0.02304908
v -0.00222441 -0.00308091 0.02283000
v -0.00217959 -0.00311278 0.02283000
v -0.00291097 -0.00244259 0.02283000
v -0.00279880 -0.00257036 0.02283000
v -0.00279755 -0.00242177 0.02302175
v -0.00274068 -0.00263224 0.02283000
v -0.00305536 -0.00223277 0.02286191
v -0.00311278 -0.00217959 0.02283000
v -0.00305536 -0.00206026 0.02304877
v -0.00329090 -0.00190000 0.02283000
v -0.00329135 -0.00187115 0.02285828
v -0.00344397 -0.00160595 0.02283000
v -0.00329135 -0.00170031 0.02301374
v -0.00346913 -0.00155086 0.02283000
v -0.00350383 -0.00099550 0.02312263
v -0.00367052 -0.00098351 0.02283000
v -0.00364663 -0.00106869 0.02283000
v -0.00369929 0.00086906 0.02283000
v -0.00374227 0.00065986 0.02283000
v -0.00369129 0.00070620 0.02291314
v -0.00376688 0.00050064 0.02283000
v -0.00369129 0.00053501 0.02296717
v -0.00378554 0.00033119 0.02283000
v -0.00369129 0.00035976 0.02300612
v -0.00379642 0.00016495 0.02283000
v -0.00369129 0.00018180 0.02302969
v -0.00380000 -0.00000000 0.02283000
v -0.00369129 0.00000246 0.02303771
v -0.00379661 -0.00016048 0.02283000
v -0.00369129 -0.00017690 0.02303012
v -0.00378554 -0.00033119 0.02283000
v -0.00369129 -0.00035492 0.02300697
v -0.00376751 -0.00049588 0.02283000
v -0.00369129 -0.00053025 0.02296844
v -0.00374227 -0.00065986 0.02283000
v -0.00369129 -0.00070158 0.02291482
v -0.00370054 -0.00086373 0.02283000
v -0.00369129 -0.00086760 0.02284652
v -0.00369408 -0.00089093 0.02283000
v -0.00350383 0.00118335 0.02302519
v -0.00364485 0.00107476 0.02283000
v -0.00350383 0.00100062 0.02312025
v -0.00357083 0.00129968 0.02283000
v -0.00350383 0.00135714 0.02291461
v -0.00350657 0.00146423 0.02283000
v -0.00329135 0.00152181 0.02315013
v -0.00346592 0.00155800 0.02283000
v -0.00329090 0.00190000 0.02283000
v -0.00329135 0.00187564 0.02285382
v -0.00311278 0.00217959 0.02283000
v -0.00305536 0.00206520 0.02304385
v -0.00251977 0.00259870 0.02316078
v -0.00272852 0.00264484 0.02283000
v -0.00279880 0.00257036 0.02283000
v -0.00222399 0.00294305 0.02304207
v -0.00244259 0.00291097 0.02283000
v -0.00251977 0.00277891 0.02292671
v -0.00252061 0.00284368 0.02283000
v -0.00268701 0.00268701 0.02283000
v -0.00191232 0.00308616 0.02314266
v -0.00217959 0.00311278 0.02283000
v -0.00222441 0.00308091 0.02283000
v -0.00190000 0.00329090 0.02283000
v -0.00191232 0.00326296 0.02286631
v -0.00160595 0.00344397 0.02283000
v -0.00158700 0.00339097 0.02294057
v -0.00125034 0.00349477 0.02300077
v -0.00129968 0.00357083 0.02283000
v -0.00158708 0.00345271 0.02283000
v -0.00090476 0.00357361 0.02304651
v -0.00098351 0.00367052 0.02283000
v -0.00125047 0.00358836 0.02283000
v -0.00055272 0.00362692 0.02307744
v -0.00065986 0.00374227 0.02283000
v -0.00090488 0.00369069 0.02283000
v -0.00019672 0.00365434 0.02309334
v -0.00033119 0.00378554 0.02283000
v -0.00055280 0.00375958 0.02283000
v 0.00016067 0.00365566 0.02309410
v 0.00000000 0.00380000 0.02283000
v -0.00019675 0.00379490 0.02283000
v 0.00051692 0.00363087 0.02307972
v 0.00033119 0.00378554 0.02283000
v 0.00016071 0.00379660 0.02283000
v 0.00086948 0.00358015 0.02305030
v 0.00065986 0.00374227 0.02283000
v 0.00051702 0.00376466 0.02283000
v 0.00121583 0.00350387 0.02300605
v 0.00098351 0.00367052 0.02283000
v 0.00086963 0.00369915 0.02283000
v 0.00155350 0.00340256 0.02294729
v 0.00129968 0.00357083 0.02283000
v 0.00121602 0.00360018 0.02283000
v 0.00188007 0.00327695 0.02287443
v 0.00160595 0.00344397 0.02283000
v 0.00155369 0.00346786 0.02283000
v 0.00217959 0.00311278 0.02283000
v 0.00190000 0.00329090 0.02283000
v 0.00188019 0.00330226 0.02283000
v 0.00244259 0.00291097 0.02283000
v 0.00219322 0.00295846 0.02305291
v 0.00249131 0.00286939 0.02283000
v 0.00249070 0.00279640 0.02293900
v 0.00268701 0.00268701 0.02283000
v 0.00272852 0.00264484 0.02283000
v 0.00277039 0.00244482 0.02303126
v 0.00329090 0.00190000 0.02283000
v 0.00326944 0.00193669 0.02283000
v 0.00303030 0.00208353 0.02306223
v 0.00348350 0.00101321 0.02314727
v 0.00367052 -0.00098351 0.02283000
v 0.00348350 -0.00100802 0.02314967
v 0.00364663 -0.00106869 0.02283000
v 0.00357083 -0.00129968 0.02283000
v 0.00348350 -0.00136953 0.02294231
v 0.00348583 -0.00151294 0.02283000
v 0.00326857 -0.00153260 0.02317673
v 0.00346913 -0.00155086 0.02283000
v 0.00332095 -0.00184696 0.02283000
v 0.00344397 -0.00160595 0.02283000
v 0.00326857 -0.00171823 0.02303523
v 0.00303030 -0.00207855 0.02306719
v 0.00311278 -0.00217959 0.02283000
v 0.00326857 -0.00189086 0.02287814
v 0.00326944 -0.00193669 0.02283000
v 0.00329090 -0.00190000 0.02283000
v 0.00249070 -0.00260979 0.02318077
v 0.00274068 -0.00263224 0.02283000
v 0.00277155 -0.00259972 0.02283000
v 0.00219322 -0.00295349 0.02305995
v 0.00244259 -0.00291097 0.02283000
v 0.00249070 -0.00279170 0.02294566
v 0.00249131 -0.00286939 0.02283000
v 0.00268701 -0.00268701 0.02283000
v 0.00188007 -0.00309419 0.02315935
v 0.00217959 -0.00311278 0.02283000
v 0.00219336 -0.00310309 0.02283000
v 0.00155350 -0.00339784 0.02295540
v 0.00160595 -0.00344397 0.02283000
v 0.00188007 -0.00327241 0.02288223
v 0.00188019 -0.00330226 0.02283000
v 0.00190000 -0.00329090 0.02283000
v 0.00121583 -0.00349901 0.02301440
v 0.00129968 -0.00357083 0.02283000
v 0.00155369 -0.00346786 0.02283000
v 0.00086948 -0.00357519 0.02305884
v 0.00098351 -0.00367052 0.02283000
v 0.00121602 -0.00360018 0.02283000
v 0.00051692 -0.00362584 0.02308838
v 0.00065986 -0.00374227 0.02283000
v 0.00086963 -0.00369915 0.02283000
v 0.00016071 -0.00379660 0.02283000
v 0.00033119 -0.00378554 0.02283000
v 0.00051702 -0.00376466 0.02283000
v 0.00016067 -0.00210280 0.02463945
v -0.00019672 -0.00210204 0.02463813
v 0.00051692 -0.00208854 0.02461459
v 0.00086948 -0.00205937 0.02456373
v 0.00121583 -0.00201549 0.02448723
v 0.00155350 -0.00165335 0.02454280
v 0.00121583 -0.00170257 0.02464907
v 0.00155350 -0.00133697 0.02467295
v 0.00188007 -0.00128762 0.02453639
v 0.00219322 -0.00092893 0.02446831
v 0.00188007 -0.00097318 0.02463479
v 0.00219322 -0.00030990 0.02457635
v 0.00188007 0.00098191 0.02463246
v 0.00155350 0.00166185 0.02453884
v 0.00121583 0.00171133 0.02464500
v 0.00086948 0.00206792 0.02455881
v 0.00016067 0.00211154 0.02463443
v -0.00055272 0.00209494 0.02460565
v -0.00019672 0.00211078 0.02463311
v -0.00090476 0.00206414 0.02455226
v -0.00125034 0.00201861 0.02447331
v -0.00125034 0.00170689 0.02463546
v -0.00158700 0.00165619 0.02452670
v -0.00191232 0.00097771 0.02461684
v -0.00191232 0.00065746 0.02468801
v -0.00158700 0.00134120 0.02465717
v -0.00191232 0.00129057 0.02451811
v -0.00222399 0.00031683 0.02455684
v -0.00222399 0.00062697 0.02451576
v -0.00222399 -0.00030828 0.02455758
v -0.00222399 0.00000429 0.02457081
v -0.00191232 -0.00096903 0.02461916
v -0.00191232 -0.00128212 0.02452117
v -0.00158700 -0.00164772 0.02453064
v -0.00125034 -0.00169815 0.02463952
v -0.00125034 -0.00201026 0.02447811
v -0.00090476 -0.00205560 0.02455717
v -0.00055272 -0.00208627 0.02461064
v 0.00376751 -0.00049588 0.02283000
v 0.00378554 -0.00033119 0.02283000
v 0.00367355 -0.00053832 0.02299880
v 0.00367355 -0.00036032 0.02303792
v 0.00348350 -0.00061608 0.02329133
v 0.00348350 -0.00041236 0.02333609
v 0.00326857 -0.00068943 0.02356730
v 0.00326857 -0.00046146 0.02361739
v 0.00303030 -0.00075787 0.02382475
v 0.00303030 -0.00050727 0.02387981
v 0.00277039 -0.00082088 0.02406183
v 0.00277039 -0.00054945 0.02412148
v 0.00249070 -0.00087804 0.02427687
v 0.00249070 -0.00058770 0.02434066
v 0.00379661 -0.00016048 0.02283000
v 0.00367355 -0.00017959 0.02306142
v 0.00348350 -0.00020553 0.02336298
v 0.00326857 -0.00023000 0.02364749
v 0.00303030 -0.00025283 0.02391290
v 0.00277039 -0.00027385 0.02415731
v 0.00249070 -0.00029292 0.02437899
v 0.00380000 -0.00000000 0.02283000
v 0.00367355 0.00000250 0.02306912
v 0.00348350 0.00000286 0.02337180
v 0.00326857 0.00000320 0.02365736
v 0.00303030 0.00000352 0.02392375
v 0.00277039 0.00000381 0.02416907
v 0.00249070 0.00000407 0.02439157
v 0.00379642 0.00016495 0.02283000
v 0.00367355 0.00018457 0.02306098
v 0.00348350 0.00021123 0.02336249
v 0.00326857 0.00023638 0.02364693
v 0.00303030 0.00025984 0.02391228
v 0.00277039 0.00028144 0.02415665
v 0.00249070 0.00030104 0.02437828
v 0.00378554 0.00033119 0.02283000
v 0.00367355 0.00036524 0.02303705
v 0.00348350 0.00041800 0.02333510
v 0.00326857 0.00046777 0.02361628
v 0.00303030 0.00051419 0.02387859
v 0.00277039 0.00055695 0.02412016
v 0.00249070 0.00059573 0.02433925
v 0.00376688 0.00050064 0.02283000
v 0.00367355 0.00054315 0.02299751
v 0.00348350 0.00062160 0.02328985
v 0.00326857 0.00069562 0.02356565
v 0.00303030 0.00076466 0.02382293
v 0.00277039 0.00082825 0.02405987
v 0.00249070 0.00088592 0.02427476
v 0.00219322 0.00093726 0.02446608
v 0.00374227 -0.00065986 0.02283000
v 0.00367355 -0.00071226 0.02294437
v 0.00348350 -0.00081513 0.02322903
v 0.00326857 -0.00091219 0.02349759
v 0.00303030 -0.00100273 0.02374811
v 0.00277039 -0.00108611 0.02397883
v 0.00249070 -0.00116174 0.02418808
v 0.00219322 -0.00122907 0.02437438
v 0.00374227 0.00065986 0.02283000
v 0.00367355 0.00071695 0.02294266
v 0.00348350 0.00082051 0.02322708
v 0.00326857 0.00091821 0.02349540
v 0.00303030 0.00100934 0.02374572
v 0.00277039 0.00109328 0.02397623
v 0.00249070 0.00116940 0.02418530
v 0.00219322 0.00123717 0.02437144
v 0.00188007 0.00129611 0.02453331
v 0.00155350 0.00134579 0.02466976
v 0.00326857 -0.00112805 0.02340878
v 0.00303030 -0.00124001 0.02365050
v 0.00277039 -0.00134313 0.02387309
v 0.00249070 -0.00143665 0.02407498
v 0.00219322 -0.00151991 0.02425473
v 0.00188007 -0.00159231 0.02441104
v 0.00326857 0.00113385 0.02340608
v 0.00303030 0.00124639 0.02364753
v 0.00277039 0.00135004 0.02386988
v 0.00249070 0.00144404 0.02407155
v 0.00219322 0.00152772 0.02425109
v 0.00188007 0.00160050 0.02440723
v 0.00155350 -0.00195722 0.02438564
v 0.00188007 -0.00188496 0.02425968
v 0.00219322 -0.00179925 0.02411026
v 0.00249070 -0.00170069 0.02393843
v 0.00277039 -0.00158998 0.02374543
v 0.00303030 -0.00146792 0.02353263
v 0.00326857 -0.00133537 0.02330156
v 0.00348350 -0.00119329 0.02305386
v 0.00326857 0.00134092 0.02329837
v 0.00303030 0.00147401 0.02352912
v 0.00277039 0.00159658 0.02374163
v 0.00249070 0.00170775 0.02393437
v 0.00219322 0.00180672 0.02410596
v 0.00188007 0.00189279 0.02425518
v 0.00155350 0.00196535 0.02438097
v 0.00121583 0.00202386 0.02448242
v 0.00155350 -0.00321280 0.02324313
v 0.00121583 -0.00330845 0.02331070
v 0.00086948 -0.00338049 0.02336159
v 0.00051692 -0.00342838 0.02339542
v 0.00016067 -0.00345178 0.02341195
v -0.00019672 -0.00345054 0.02341107
v -0.00055272 -0.00342465 0.02339279
v -0.00090476 -0.00337430 0.02335722
v -0.00125034 -0.00329986 0.02330464
v 0.00219322 -0.00276104 0.02330869
v 0.00188007 -0.00289257 0.02341993
v 0.00155350 -0.00300345 0.02351370
v 0.00121583 -0.00309287 0.02358933
v 0.00086948 -0.00316021 0.02364628
v 0.00051692 -0.00320498 0.02368414
v 0.00016067 -0.00322686 0.02370265
v -0.00019672 -0.00322570 0.02370166
v -0.00055272 -0.00320150 0.02368120
v -0.00090476 -0.00315443 0.02364139
v -0.00125034 -0.00308484 0.02358253
v 0.00277039 -0.00225138 0.02324128
v 0.00249070 -0.00240814 0.02339918
v 0.00219322 -0.00254771 0.02353976
v 0.00188007 -0.00266908 0.02366200
v 0.00155350 -0.00277138 0.02376505
v 0.00121583 -0.00285390 0.02384817
v 0.00086948 -0.00291603 0.02391075
v 0.00051692 -0.00295734 0.02395236
v 0.00016067 -0.00297753 0.02397270
v -0.00019672 -0.00297646 0.02397162
v -0.00055272 -0.00295413 0.02394913
v -0.00090476 -0.00291070 0.02390538
v -0.00125034 -0.00284649 0.02384070
v 0.00303030 -0.00188877 0.02323987
v 0.00277039 -0.00204583 0.02342832
v 0.00249070 -0.00218828 0.02359924
v 0.00219322 -0.00231510 0.02375141
v 0.00188007 -0.00242539 0.02388375
v 0.00155350 -0.00251836 0.02399530
v 0.00121583 -0.00259334 0.02408526
v 0.00086948 -0.00264980 0.02415301
v 0.00051692 -0.00268734 0.02419805
v 0.00016067 -0.00270568 0.02422007
v -0.00019672 -0.00270471 0.02421890
v -0.00055272 -0.00268442 0.02419455
v -0.00090476 -0.00264495 0.02414720
v -0.00125034 -0.00258660 0.02407718
v 0.00303030 -0.00168472 0.02339541
v 0.00277039 -0.00182481 0.02359680
v 0.00249070 -0.00195187 0.02377945
v 0.00219322 -0.00206499 0.02394206
v 0.00188007 -0.00216336 0.02408348
v 0.00155350 -0.00224628 0.02420268
v 0.00121583 -0.00231316 0.02429883
v 0.00086948 -0.00236352 0.02437122
v 0.00051692 -0.00239701 0.02441936
v 0.00016067 -0.00241337 0.02444288
v -0.00019672 -0.00241250 0.02444163
v -0.00055272 -0.00239440 0.02441561
v -0.00090476 -0.00235920 0.02436501
v -0.00125034 -0.00230715 0.02429019
v -0.00158700 -0.00195055 0.02437402
v -0.00158700 -0.00223863 0.02419169
v -0.00158700 -0.00250978 0.02398500
v -0.00158700 -0.00276195 0.02375555
v -0.00158700 -0.00299322 0.02350505
v -0.00158700 -0.00320186 0.02323540
v -0.00191232 -0.00158551 0.02439636
v -0.00191232 -0.00187691 0.02424565
v -0.00191232 -0.00215412 0.02407020
v -0.00191232 -0.00241503 0.02387132
v -0.00191232 -0.00265768 0.02365052
v -0.00191232 -0.00288022 0.02340948
v -0.00191232 -0.00308098 0.02315001
v -0.00191232 -0.00325844 0.02287408
v -0.00160595 -0.00344397 0.02283000
v -0.00191232 0.00159367 0.02439257
v -0.00158700 0.00195865 0.02436936
v -0.00191232 0.00188471 0.02424117
v 0.00219336 0.00310309 0.02283000
v 0.00188007 0.00309940 0.02315196
v 0.00155350 0.00321820 0.02323546
v 0.00121583 0.00331402 0.02330281
v 0.00086948 0.00338617 0.02335352
v 0.00051692 0.00343414 0.02338724
v 0.00016067 0.00345758 0.02340372
v -0.00019672 0.00345634 0.02340284
v -0.00055272 0.00343041 0.02338461
v -0.00090476 0.00337998 0.02334917
v -0.00125034 0.00330541 0.02329676
v -0.00158700 0.00320724 0.02322776
v -0.00222399 -0.00061853 0.02451724
v -0.00222399 -0.00092409 0.02445010
v -0.00222399 -0.00122266 0.02435666
v -0.00222399 -0.00151199 0.02423763
v -0.00222399 -0.00178988 0.02409391
v -0.00222399 -0.00205423 0.02392659
v -0.00222399 -0.00230304 0.02373694
v -0.00222399 -0.00253443 0.02352638
v -0.00222399 -0.00274666 0.02329652
v -0.00190000 -0.00329090 0.02283000
v -0.00222399 0.00093237 0.02444788
v -0.00222399 0.00123072 0.02435373
v -0.00222399 0.00151976 0.02423402
v -0.00222399 0.00179731 0.02408964
v -0.00251977 -0.00259347 0.02316697
v -0.00251977 -0.00239309 0.02338401
v -0.00251977 -0.00217460 0.02358283
v -0.00251977 -0.00193966 0.02376190
v -0.00251977 -0.00169005 0.02391989
v -0.00251977 -0.00142766 0.02405559
v -0.00251977 -0.00115447 0.02416798
v -0.00251977 -0.00087255 0.02425621
v -0.00251977 -0.00058403 0.02431961
v -0.00251977 -0.00029109 0.02435770
v -0.00251977 0.00000405 0.02437019
v -0.00251977 0.00029916 0.02435699
v -0.00251977 0.00059201 0.02431821
v -0.00251977 0.00088038 0.02425412
v -0.00251977 0.00116209 0.02416522
v -0.00251977 0.00143501 0.02405218
v -0.00251977 0.00169707 0.02391585
v 0.00277155 0.00259972 0.02283000
v 0.00249070 0.00261505 0.02317454
v 0.00219322 0.00276660 0.02330210
v 0.00188007 0.00289840 0.02341302
v 0.00155350 0.00300950 0.02350653
v 0.00121583 0.00309910 0.02358195
v 0.00086948 0.00316657 0.02363874
v 0.00051692 0.00321143 0.02367649
v 0.00016067 0.00323336 0.02369495
v -0.00019672 0.00323219 0.02369396
v -0.00055272 0.00320794 0.02367355
v -0.00090476 0.00316078 0.02363386
v -0.00125034 0.00309105 0.02357517
v -0.00158700 0.00299925 0.02349790
v -0.00191232 0.00288602 0.02340261
v -0.00222399 0.00275219 0.02328996
v -0.00279755 -0.00223465 0.02322443
v -0.00279755 -0.00203063 0.02341008
v -0.00279755 -0.00181124 0.02357730
v -0.00279755 -0.00157816 0.02372483
v -0.00279755 -0.00133314 0.02385154
v -0.00279755 -0.00107804 0.02395649
v -0.00279755 -0.00081478 0.02403888
v -0.00279755 -0.00054536 0.02409808
v -0.00279755 -0.00027182 0.02413365
v -0.00279755 0.00000378 0.02414532
v -0.00279755 0.00027935 0.02413299
v -0.00279755 0.00055281 0.02409677
v -0.00279755 0.00082209 0.02403693
v -0.00279755 0.00108515 0.02395391
v -0.00279755 0.00134000 0.02384836
v -0.00279755 0.00158472 0.02372105
v -0.00305536 -0.00187215 0.02321993
v -0.00305536 -0.00166989 0.02337410
v -0.00305536 -0.00145500 0.02351011
v -0.00305536 -0.00122910 0.02362694
v -0.00305536 -0.00099391 0.02372370
v -0.00305536 -0.00075120 0.02379966
v -0.00305536 -0.00050280 0.02385424
v -0.00305536 -0.00025061 0.02388703
v -0.00305536 0.00000349 0.02389779
v -0.00305536 0.00025755 0.02388643
v -0.00305536 0.00050967 0.02385303
v -0.00305536 0.00075793 0.02379786
v -0.00305536 0.00100046 0.02372132
v -0.00305536 0.00123543 0.02362400
v -0.00305536 0.00146104 0.02350664
v 0.00277039 0.00225678 0.02323591
v 0.00249070 0.00241392 0.02339343
v 0.00219322 0.00255382 0.02353367
v 0.00188007 0.00267548 0.02365563
v 0.00155350 0.00277803 0.02375844
v 0.00121583 0.00286074 0.02384135
v 0.00086948 0.00292303 0.02390379
v 0.00051692 0.00296444 0.02394530
v 0.00016067 0.00298468 0.02396559
v -0.00019672 0.00298360 0.02396451
v -0.00055272 0.00296121 0.02394207
v -0.00090476 0.00291768 0.02389844
v -0.00125034 0.00285332 0.02383391
v -0.00158700 0.00276857 0.02374895
v -0.00191232 0.00266405 0.02364418
v -0.00222399 0.00254051 0.02352033
v -0.00251977 0.00239883 0.02337830
v -0.00279755 0.00224001 0.02321909
v -0.00329135 -0.00151662 0.02315376
v -0.00329135 -0.00132145 0.02327729
v -0.00329135 -0.00111629 0.02338339
v -0.00329135 -0.00090268 0.02347127
v -0.00329135 -0.00068225 0.02354025
v -0.00329135 -0.00045665 0.02358983
v -0.00329135 -0.00022760 0.02361961
v -0.00329135 0.00000317 0.02362938
v -0.00329135 0.00023391 0.02361906
v -0.00329135 0.00046289 0.02358873
v -0.00329135 0.00068836 0.02353862
v -0.00329135 0.00090863 0.02346911
v -0.00329135 0.00112203 0.02338072
v -0.00329135 0.00132694 0.02327413
v -0.00344397 0.00160595 0.02283000
v -0.00329135 0.00170517 0.02300968
v -0.00305536 0.00187751 0.02321546
v -0.00305536 0.00167561 0.02337011
v -0.00279755 0.00203643 0.02340523
v -0.00279755 0.00181745 0.02357297
v -0.00251977 0.00218081 0.02357763
v -0.00251977 0.00194630 0.02375727
v -0.00222399 0.00230962 0.02373144
v -0.00222399 0.00206126 0.02392169
v -0.00191232 0.00242194 0.02386555
v -0.00191232 0.00216150 0.02406505
v -0.00158700 0.00251695 0.02397901
v -0.00158700 0.00224630 0.02418634
v -0.00125034 0.00259400 0.02407101
v -0.00125034 0.00231506 0.02428468
v -0.00090476 0.00265251 0.02414088
v -0.00090476 0.00236728 0.02435938
v -0.00055272 0.00269209 0.02418814
v -0.00055272 0.00240260 0.02440989
v -0.00019672 0.00271244 0.02421244
v -0.00019672 0.00242076 0.02443587
v 0.00016067 0.00271342 0.02421361
v 0.00016067 0.00242164 0.02443712
v 0.00051692 0.00269502 0.02419164
v 0.00051692 0.00240522 0.02441363
v 0.00086948 0.00265737 0.02414669
v 0.00086948 0.00237162 0.02436558
v 0.00121583 0.00260075 0.02407907
v 0.00121583 0.00232108 0.02429330
v 0.00155350 0.00252555 0.02398928
v 0.00155350 0.00225397 0.02419732
v 0.00188007 0.00243232 0.02387796
v 0.00188007 0.00217077 0.02407831
v 0.00219322 0.00232172 0.02374589
v 0.00219322 0.00207206 0.02393713
v 0.00249070 0.00219454 0.02359402
v 0.00249070 0.00195855 0.02377479
v 0.00277039 0.00205168 0.02342344
v 0.00277039 0.00183106 0.02359244
v 0.00303030 0.00189417 0.02323536
v 0.00303030 0.00169049 0.02339138
v 0.00326857 0.00153784 0.02317307
v 0.00348350 0.00137422 0.02293904
v 0.00357083 0.00129968 0.02283000
v -0.00350383 -0.00080500 0.02320100
v -0.00350383 -0.00060842 0.02326252
v -0.00350383 -0.00040724 0.02330673
v -0.00350383 -0.00020298 0.02333329
v -0.00350383 0.00000282 0.02334200
v -0.00350383 0.00020860 0.02333280
v -0.00350383 0.00041280 0.02330575
v -0.00350383 0.00061388 0.02326106
v -0.00350383 0.00081031 0.02319907
f 1 2 3
f 2 4 3
f 3 4 5
f 4 6 5
f 5 6 7
f 6 8 7
f 7 8 9
f 8 10 9
f 9 10 11
f 10 12 11
f 11 12 13
f 12 14 13
f 13 14 15
f 14 16 15
f 15 16 17
f 16 18 17
f 17 18 19
f 18 20 19
f 19 20 21
f 20 22 21
f 21 22 23
f 22 24 23
f 23 24 25
f 24 26 25
f 25 26 27
f 26 28 27
f 27 28 29
f 28 30 29
f 29 30 31
f 30 32 31
f 31 32 33
f 32 34 33
f 33 34 35
f 34 36 35
f 35 36 37
f 36 38 37
f 37 38 39
f 38 40 39
f 39 40 41
f 40 42 41
f 41 42 43
f 42 44 43
f 43 44 45
f 44 46 45
f 45 46 47
f 46 48 47
f 47 48 49
f 48 50 49
f 49 50 51
f 50 52 51
f 51 52 53
f 52 54 53
f 53 54 55
f 54 56 55
f 55 56 57
f 56 58 57
f 57 58 59
f 58 60 59
f 59 60 61
f 60 62 61
f 61 62 63
f 62 64 63
f 63 64 65
f 64 66 65
f 65 66 67
f 66 68 67
f 67 68 69
f 68 70 69
f 69 70 71
f 70 72 71
f 71 72 73
f 72 74 73
f 73 74 75
f 74 76 75
f 75 76 77
f 76 78 77
f 77 78 79
f 78 80 79
f 79 80 81
f 80 82 81
f 81 82 83
f 82 84 83
f 83 84 85
f 84 86 85
f 85 86 87
f 86 88 87
f 87 88 89
f 88 90 89
f 89 90 91
f 90 92 91
f 91 92 93
f 92 94 93
f 93 94 95
f 94 96 95
f 95 96 97
f 96 98 97
f 97 98 99
f 98 100 99
f 99 100 101
f 100 102 101
f 101 102 103
f 102 104 103
f 103 104 105
f 104 106 105
f 105 106 107
f 106 108 107
f 107 108 109
f 108 110 109
f 109 110 111
f 110 112 111
f 111 112 113
f 112 114 113
f 113 114 115
f 114 116 115
f 115 116 117
f 116 118 117
f 117 118 119
f 118 120 119
f 119 120 121
f 120 122 121
f 121 122 123
f 122 124 123
f 123 124 125
f 124 126 125
f 125 126 127
f 126 128 127
f 127 128 129
f 128 130 129
f 129 130 131
f 130 132 131
f 131 132 133
f 132 134 133
f 133 134 135
f 134 136 135
f 135 136 137
f 136 138 137
f 137 138 139
f 138 140 139
f 139 140 141
f 140 142 141
f 141 142 143
f 142 144 143
f 143 144 1
f 144 2 1
f 145 146 147
f 145 147 148
f 147 149 148
f 148 149 150
f 149 151 150
f 150 151 152
f 151 153 152
f 152 153 154
f 153 155 154
f 154 155 156
f 155 157 156
f 156 157 158
f 157 159 158
f 158 159 160
f 159 161 160
f 160 161 162
f 161 163 162
f 162 163 164
f 163 165 164
f 164 165 166
f 165 167 166
f 166 167 168
f 167 169 168
f 168 169 170
f 169 171 170
f 170 171 172
f 171 173 172
f 172 173 174
f 175 176 177
f 175 177 178
f 177 179 178
f 178 179 180
f 179 181 180
f 180 181 182
f 181 183 182
f 182 183 184
f 183 185 184
f 184 185 186
f 185 187 186
f 186 187 188
f 187 189 188
f 188 189 190
f 189 191 190
f 190 191 192
f 191 193 192
f 192 193 194
f 193 195 194
f 194 195 196
f 195 197 196
f 196 197 198
f 197 199 198
f 198 199 200
f 199 201 200
f 200 201 202
f 201 203 202
f 202 203 204
f 205 206 207
f 205 207 208
f 207 209 208
f 208 209 210
f 209 211 210
f 210 211 212
f 211 213 212
f 212 213 214
f 213 215 214
f 214 215 216
f 215 217 216
f 216 217 218
f 217 219 218
f 218 219 220
f 219 221 220
f 220 221 222
f 221 223 222
f 222 223 224
f 223 225 224
f 224 225 226
f 225 227 226
f 226 227 228
f 227 229 228
f 228 229 230
f 229 231 230
f 230 231 232
f 231 233 232
f 232 233 234
f 174 173 235
f 173 236 235
f 235 236 237
f 236 238 237
f 237 238 239
f 238 240 239
f 239 240 241
f 240 242 241
f 241 242 243
f 242 244 243
f 243 244 245
f 244 246 245
f 245 246 247
f 246 248 247
f 247 248 249
f 248 250 249
f 249 250 251
f 250 252 251
f 251 252 253
f 252 254 253
f 253 254 255
f 254 256 255
f 255 256 257
f 256 258 257
f 257 258 259
f 258 260 259
f 259 260 261
f 260 262 261
f 261 262 263
f 262 264 263
f 263 264 265
f 264 266 265
f 265 266 267
f 266 268 267
f 267 268 269
f 268 270 269
f 269 270 271
f 270 272 271
f 271 272 273
f 272 274 273
f 273 274 275
f 274 276 275
f 275 276 277
f 276 278 277
f 277 278 279
f 278 280 279
f 279 280 281
f 280 282 281
f 281 282 283
f 282 284 283
f 283 284 285
f 284 286 285
f 287 288 289
f 290 291 172
f 291 292 172
f 172 292 293
f 294 295 296
f 295 297 296
f 296 297 298
f 298 299 296
f 299 300 296
f 296 300 301
f 302 170 289
f 170 172 289
f 289 172 287
f 172 293 287
f 303 304 208
f 288 305 289
f 305 306 289
f 289 306 307
f 174 308 172
f 308 309 172
f 172 309 290
f 224 180 222
f 180 220 222
f 234 178 232
f 178 180 232
f 232 180 230
f 296 208 210
f 210 212 296
f 212 214 296
f 296 214 216
f 296 184 186
f 303 208 310
f 307 311 289
f 311 312 289
f 289 312 313
f 312 314 313
f 313 314 315
f 224 226 180
f 226 228 180
f 180 228 230
f 184 296 182
f 296 216 182
f 182 216 180
f 216 218 180
f 180 218 220
f 190 192 148
f 158 316 317
f 318 319 158
f 319 320 158
f 158 320 296
f 295 321 322
f 323 324 325
f 301 326 296
f 326 327 296
f 296 327 208
f 327 328 208
f 208 328 310
f 329 205 330
f 331 332 234
f 332 175 234
f 234 175 178
f 192 194 148
f 194 196 148
f 148 196 198
f 317 333 158
f 333 334 158
f 158 334 318
f 323 325 335
f 322 336 295
f 336 337 295
f 295 337 338
f 337 339 338
f 190 148 188
f 148 150 188
f 188 150 186
f 324 340 325
f 340 341 325
f 325 341 342
f 304 343 208
f 343 344 208
f 208 344 205
f 344 345 205
f 205 345 330
f 150 152 186
f 152 154 186
f 186 154 296
f 154 156 296
f 296 156 158
f 158 160 316
f 160 162 316
f 316 162 346
f 162 164 346
f 294 347 295
f 347 348 295
f 295 348 349
f 350 351 295
f 351 352 295
f 295 352 321
f 339 337 325
f 337 353 325
f 325 353 335
f 235 283 174
f 283 285 174
f 174 285 308
f 235 237 283
f 237 239 283
f 283 239 241
f 354 355 314
f 355 356 314
f 314 356 315
f 198 200 148
f 200 202 148
f 148 202 145
f 202 204 145
f 145 204 357
f 302 358 170
f 358 359 170
f 170 359 168
f 359 346 168
f 168 346 166
f 346 164 166
f 349 360 295
f 360 361 295
f 295 361 350
f 362 363 341
f 363 364 341
f 341 364 342
f 247 249 283
f 249 251 283
f 283 251 281
f 273 275 251
f 365 366 314
f 366 367 314
f 314 367 354
f 365 368 366
f 368 369 366
f 366 369 370
f 371 372 373
f 372 374 373
f 375 376 377
f 241 243 283
f 243 245 283
f 283 245 247
f 370 378 366
f 378 379 366
f 366 379 380
f 376 381 377
f 381 382 377
f 377 382 383
f 384 385 234
f 385 386 234
f 234 386 387
f 387 388 234
f 388 389 234
f 234 389 390
f 390 391 234
f 391 392 234
f 234 392 331
f 251 259 261
f 261 263 251
f 263 265 251
f 251 265 267
f 372 393 374
f 393 366 374
f 374 366 394
f 366 380 394
f 371 395 372
f 395 396 372
f 372 396 397
f 397 398 372
f 398 399 372
f 372 399 400
f 384 234 377
f 234 401 377
f 377 401 375
f 402 403 330
f 403 404 330
f 330 404 405
f 405 406 330
f 406 407 330
f 330 407 329
f 253 255 251
f 255 257 251
f 251 257 259
f 267 269 251
f 269 271 251
f 251 271 273
f 275 277 251
f 277 279 251
f 251 279 281
f 383 382 408
f 382 409 408
f 408 409 410
f 410 411 408
f 411 412 408
f 408 412 413
f 412 414 413
f 415 416 417
f 416 330 417
f 416 418 330
f 418 419 330
f 330 419 420
f 421 422 330
f 422 423 330
f 330 423 424
f 425 426 427
f 426 428 427
f 428 429 427
f 427 429 430
f 430 431 427
f 431 432 427
f 427 432 433
f 433 434 427
f 434 435 427
f 427 435 436
f 420 437 330
f 437 438 330
f 330 438 421
f 424 439 330
f 439 440 330
f 330 440 441
f 441 442 330
f 442 443 330
f 330 443 402
f 357 204 427
f 204 444 427
f 427 444 425
f 436 445 427
f 445 446 427
f 427 446 447
f 447 448 427
f 448 449 427
f 427 449 450
f 451 427 452
f 427 453 452
f 450 454 427
f 454 455 427
f 427 455 453
f 294 456 347
f 456 457 347
f 347 457 348
f 457 458 348
f 348 458 349
f 458 459 349
f 349 459 360
f 459 460 360
f 360 460 361
f 460 461 361
f 361 461 350
f 461 462 350
f 350 462 351
f 462 463 351
f 351 463 352
f 463 464 352
f 352 464 321
f 464 465 321
f 321 465 322
f 465 466 322
f 322 466 336
f 466 467 336
f 336 467 337
f 467 468 337
f 337 468 353
f 468 469 353
f 353 469 335
f 469 470 335
f 335 470 323
f 470 471 323
f 323 471 324
f 471 472 324
f 324 472 340
f 472 473 340
f 340 473 341
f 473 474 341
f 341 474 362
f 474 475 362
f 362 475 363
f 475 476 363
f 363 476 364
f 476 477 364
f 364 477 342
f 477 478 342
f 342 478 325
f 478 479 325
f 325 479 339
f 479 480 339
f 339 480 338
f 480 481 338
f 338 481 295
f 481 482 295
f 345 483 330
f 483 484 330
f 330 484 417
f 484 485 417
f 417 485 415
f 485 486 415
f 415 486 416
f 486 487 416
f 416 487 418
f 487 488 418
f 418 488 419
f 488 489 419
f 419 489 420
f 489 490 420
f 420 490 437
f 490 491 437
f 437 491 438
f 491 492 438
f 438 492 421
f 492 493 421
f 421 493 422
f 493 494 422
f 422 494 423
f 494 495 423
f 423 495 424
f 495 496 424
f 424 496 439
f 496 497 439
f 439 497 440
f 497 498 440
f 440 498 441
f 498 499 441
f 441 499 442
f 499 500 442
f 442 500 443
f 500 501 443
f 443 501 402
f 501 502 402
f 402 502 403
f 502 503 403
f 403 503 404
f 503 504 404
f 404 504 405
f 504 505 405
f 405 505 406
f 505 506 406
f 406 506 407
f 506 507 407
f 407 507 329
f 507 508 329
f 329 508 205
f 508 206 205
f 204 203 444
f 203 509 444
f 444 509 425
f 509 510 425
f 425 510 426
f 510 511 426
f 426 511 428
f 511 512 428
f 428 512 429
f 512 513 429
f 429 513 430
f 513 514 430
f 430 514 431
f 514 515 431
f 431 515 432
f 515 516 432
f 432 516 433
f 516 517 433
f 433 517 434
f 517 518 434
f 434 518 435
f 518 519 435
f 435 519 436
f 519 520 436
f 436 520 445
f 520 521 445
f 445 521 446
f 521 522 446
f 446 522 447
f 522 523 447
f 447 523 448
f 523 524 448
f 448 524 449
f 524 525 449
f 449 525 450
f 525 526 450
f 450 526 454
f 526 527 454
f 454 527 455
f 527 528 455
f 455 528 453
f 528 529 453
f 453 529 452
f 529 530 452
f 452 530 451
f 530 531 451
f 451 531 427
f 531 532 427
f 427 532 357
f 532 533 357
f 357 533 145
f 533 146 145
f 234 233 401
f 233 534 401
f 401 534 375
f 534 535 375
f 375 535 376
f 535 536 376
f 376 536 381
f 536 537 381
f 381 537 382
f 537 538 382
f 382 538 409
f 538 539 409
f 409 539 410
f 539 540 410
f 410 540 411
f 540 541 411
f 411 541 412
f 541 542 412
f 412 542 414
f 542 543 414
f 414 543 413
f 543 544 413
f 413 544 408
f 544 545 408
f 408 545 383
f 545 546 383
f 383 546 377
f 546 547 377
f 377 547 384
f 547 548 384
f 384 548 385
f 548 549 385
f 385 549 386
f 549 550 386
f 386 550 387
f 550 551 387
f 387 551 388
f 551 552 388
f 388 552 389
f 552 553 389
f 389 553 390
f 553 554 390
f 390 554 391
f 554 555 391
f 391 555 392
f 555 556 392
f 392 556 331
f 556 557 331
f 331 557 332
f 557 558 332
f 332 558 175
f 558 176 175
f 314 559 365
f 559 560 365
f 365 560 368
f 560 561 368
f 368 561 369
f 561 562 369
f 369 562 370
f 562 563 370
f 370 563 378
f 563 564 378
f 378 564 379
f 564 565 379
f 379 565 380
f 565 566 380
f 380 566 394
f 566 567 394
f 394 567 374
f 567 568 374
f 374 568 373
f 568 569 373
f 373 569 371
f 569 570 371
f 371 570 395
f 570 571 395
f 395 571 396
f 571 572 396
f 396 572 397
f 572 573 397
f 397 573 398
f 573 574 398
f 398 574 399
f 574 575 399
f 399 575 400
f 575 576 400
f 400 576 372
f 576 577 372
f 372 577 393
f 577 578 393
f 393 578 366
f 578 579 366
f 366 579 367
f 579 580 367
f 367 580 354
f 580 581 354
f 354 581 355
f 581 582 355
f 355 582 356
f 582 583 356
f 356 583 315
f 583 584 315
f 315 584 313
f 584 585 313
f 586 587 588
f 587 589 588
f 588 589 590
f 589 591 590
f 590 591 592
f 591 593 592
f 592 593 594
f 593 595 594
f 594 595 596
f 595 597 596
f 596 597 598
f 597 599 598
f 598 599 600
f 599 601 600
f 600 601 602
f 601 603 602
f 602 603 604
f 603 605 604
f 604 605 606
f 605 607 606
f 606 607 608
f 607 609 608
f 608 609 610
f 609 611 610
f 610 611 612
f 611 613 612
f 612 613 614
f 613 615 614
f 614 615 616
f 615 617 616
f 616 617 618
f 617 619 618
f 618 619 620
f 619 621 620
f 620 621 622
f 621 623 622
f 622 623 624
f 623 625 624
f 624 625 626
f 625 627 626
f 626 627 628
f 627 629 628
f 628 629 630
f 629 631 630
f 630 631 632
f 631 633 632
f 632 633 634
f 633 635 634
f 634 635 636
f 635 637 636
f 636 637 638
f 637 639 638
f 638 639 640
f 639 641 640
f 640 641 642
f 641 643 642
f 642 643 644
f 643 645 644
f 644 645 646
f 645 647 646
f 646 647 648
f 647 649 648
f 648 649 650
f 649 651 650
f 650 651 652
f 651 653 652
f 652 653 654
f 653 655 654
f 654 655 656
f 655 657 656
f 656 657 658
f 657 659 658
f 658 659 660
f 659 661 660
f 660 661 662
f 661 663 662
f 662 663 664
f 663 665 664
f 664 665 666
f 665 667 666
f 666 667 668
f 667 669 668
f 668 669 670
f 669 671 670
f 670 671 672
f 671 673 672
f 672 673 674
f 673 675 674
f 674 675 676
f 675 677 676
f 676 677 678
f 677 679 678
f 678 679 680
f 679 681 680
f 680 681 682
f 681 683 682
f 682 683 684
f 683 685 684
f 684 685 686
f 685 687 686
f 686 687 688
f 687 689 688
f 688 689 690
f 689 691 690
f 690 691 692
f 691 693 692
f 692 693 694
f 693 695 694
f 694 695 696
f 695 697 696
f 696 697 698
f 697 699 698
f 698 699 700
f 699 701 700
f 700 701 702
f 701 703 702
f 702 703 704
f 703 705 704
f 704 705 706
f 705 707 706
f 706 707 708
f 707 709 708
f 708 709 710
f 709 711 710
f 710 711 712
f 711 713 712
f 712 713 714
f 713 715 714
f 714 715 716
f 715 717 716
f 716 717 718
f 717 719 718
f 718 719 720
f 719 721 720
f 720 721 722
f 721 723 722
f 722 723 724
f 723 725 724
f 724 725 726
f 725 727 726
f 726 727 728
f 727 729 728
f 728 729 586
f 729 587 586
f 470 469 730
f 240 238 731
f 238 236 731
f 731 236 732
f 733 465 464
f 508 507 734
f 486 485 735
f 485 484 735
f 735 484 736
f 469 468 730
f 468 467 730
f 730 467 733
f 467 466 733
f 733 466 465
f 491 490 737
f 474 473 738
f 473 472 738
f 738 472 730
f 472 471 730
f 730 471 470
f 464 463 733
f 463 462 733
f 733 462 739
f 462 461 739
f 739 461 740
f 461 460 740
f 740 460 459
f 580 741 581
f 741 742 581
f 581 742 582
f 742 583 582
f 569 743 570
f 743 744 570
f 270 745 272
f 745 274 272
f 746 244 731
f 244 242 731
f 731 242 240
f 747 533 532
f 528 527 748
f 527 526 748
f 749 522 521
f 491 737 492
f 750 482 751
f 482 481 751
f 751 481 480
f 480 479 751
f 479 478 751
f 751 478 752
f 580 579 741
f 579 578 741
f 741 578 577
f 282 280 753
f 280 278 753
f 753 278 745
f 278 276 745
f 745 276 274
f 754 262 260
f 252 250 746
f 755 756 157
f 756 757 157
f 157 757 159
f 757 758 159
f 758 759 159
f 159 759 161
f 759 760 161
f 161 760 163
f 532 531 747
f 531 530 747
f 747 530 748
f 530 529 748
f 748 529 528
f 521 520 749
f 520 519 749
f 749 519 761
f 519 518 761
f 761 518 517
f 501 762 502
f 762 503 502
f 569 568 743
f 568 567 743
f 743 567 566
f 754 260 763
f 260 258 763
f 258 256 763
f 763 256 746
f 256 254 746
f 746 254 252
f 250 248 746
f 248 246 746
f 746 246 244
f 163 760 165
f 760 764 165
f 165 764 167
f 526 525 748
f 525 524 748
f 748 524 749
f 524 523 749
f 749 523 522
f 517 516 761
f 516 515 761
f 761 515 765
f 193 191 766
f 490 489 737
f 489 488 737
f 737 488 735
f 488 487 735
f 735 487 486
f 767 768 769
f 768 770 769
f 769 770 771
f 478 477 752
f 477 476 752
f 752 476 738
f 476 475 738
f 738 475 474
f 772 585 742
f 585 584 742
f 742 584 583
f 577 576 741
f 576 575 741
f 741 575 773
f 575 574 773
f 574 573 773
f 573 572 773
f 773 572 744
f 572 571 744
f 744 571 570
f 566 565 743
f 565 564 743
f 743 564 774
f 564 563 774
f 774 563 562
f 533 747 146
f 747 775 146
f 146 775 147
f 775 776 147
f 147 776 149
f 511 510 777
f 510 509 777
f 777 509 778
f 779 176 780
f 176 558 780
f 780 558 557
f 543 781 544
f 781 782 544
f 544 782 545
f 783 784 534
f 784 785 534
f 534 785 535
f 785 786 535
f 535 786 536
f 787 788 209
f 507 506 734
f 506 505 734
f 734 505 762
f 505 504 762
f 762 504 503
f 501 500 762
f 500 499 762
f 762 499 789
f 499 498 789
f 498 497 789
f 789 497 496
f 496 495 789
f 495 494 789
f 789 494 737
f 494 493 737
f 737 493 492
f 484 483 736
f 483 790 736
f 736 790 791
f 562 561 774
f 561 560 774
f 774 560 792
f 793 286 753
f 286 284 753
f 753 284 282
f 270 268 745
f 268 266 745
f 745 266 754
f 266 264 754
f 754 264 262
f 157 155 755
f 155 153 755
f 755 153 776
f 153 151 776
f 776 151 149
f 236 173 732
f 173 171 732
f 732 171 764
f 171 169 764
f 764 169 167
f 515 514 765
f 514 513 765
f 765 513 777
f 513 512 777
f 777 512 511
f 551 794 552
f 794 553 552
f 551 550 794
f 550 549 794
f 794 549 795
f 543 542 781
f 542 541 781
f 781 541 540
f 734 796 508
f 796 797 508
f 508 797 206
f 797 787 206
f 206 787 207
f 787 209 207
f 798 799 227
f 557 556 780
f 556 555 780
f 780 555 794
f 555 554 794
f 794 554 553
f 549 548 795
f 548 547 795
f 795 547 782
f 547 546 782
f 782 546 545
f 534 233 783
f 233 231 783
f 783 231 799
f 231 229 799
f 799 229 227
f 227 225 798
f 225 223 798
f 798 223 800
f 770 801 771
f 801 802 771
f 771 802 803
f 802 804 803
f 804 805 803
f 803 805 750
f 805 806 750
f 750 806 482
f 459 458 740
f 458 457 740
f 740 457 807
f 457 456 807
f 807 456 808
f 456 809 808
f 808 809 810
f 540 539 781
f 539 538 781
f 781 538 786
f 538 537 786
f 786 537 536
f 223 221 800
f 221 219 800
f 800 219 811
f 219 217 811
f 811 217 812
f 217 215 812
f 215 213 812
f 812 213 788
f 213 211 788
f 788 211 209
f 790 813 791
f 813 814 791
f 791 814 815
f 816 817 818
f 817 819 818
f 818 819 820
f 819 821 820
f 820 821 822
f 821 808 822
f 822 808 823
f 808 810 823
f 814 824 815
f 824 825 815
f 815 825 767
f 825 826 767
f 767 826 768
f 818 827 816
f 827 828 816
f 816 828 829
f 828 830 829
f 830 831 829
f 829 831 832
f 831 833 832
f 833 834 832
f 832 834 772
f 834 835 772
f 772 835 585
f 509 203 778
f 203 201 778
f 778 201 836
f 837 838 839
f 838 840 839
f 839 840 793
f 840 841 793
f 793 841 286
f 837 839 842
f 839 843 842
f 842 843 844
f 843 845 844
f 844 845 846
f 845 847 846
f 846 847 848
f 847 849 848
f 848 849 850
f 849 851 850
f 851 852 850
f 850 852 853
f 852 854 853
f 185 855 187
f 855 856 187
f 187 856 189
f 856 857 189
f 189 857 191
f 857 858 191
f 191 858 766
f 185 183 855
f 183 181 855
f 855 181 859
f 181 179 859
f 859 179 779
f 179 177 779
f 779 177 176
f 201 199 836
f 199 197 836
f 836 197 766
f 197 195 766
f 766 195 193
f 560 559 792
f 559 860 792
f 792 860 852
f 860 861 852
f 852 861 854
f 76 74 862
f 74 72 862
f 862 72 70
f 82 80 862
f 80 78 862
f 862 78 76
f 88 86 862
f 86 84 862
f 862 84 82
f 94 92 862
f 92 90 862
f 862 90 88
f 100 98 862
f 98 96 862
f 862 96 94
f 106 104 862
f 104 102 862
f 862 102 100
f 112 110 862
f 110 108 862
f 862 108 106
f 118 116 862
f 116 114 862
f 862 114 112
f 124 122 862
f 122 120 862
f 862 120 118
f 130 128 862
f 128 126 862
f 862 126 124
f 136 134 862
f 134 132 862
f 862 132 130
f 142 140 862
f 140 138 862
f 862 138 136
f 4 2 862
f 2 144 862
f 862 144 142
f 10 8 862
f 8 6 862
f 862 6 4
f 16 14 862
f 14 12 862
f 862 12 10
f 22 20 862
f 20 18 862
f 862 18 16
f 28 26 862
f 26 24 862
f 862 24 22
f 34 32 862
f 32 30 862
f 862 30 28
f 40 38 862
f 38 36 862
f 862 36 34
f 46 44 862
f 44 42 862
f 862 42 40
f 52 50 862
f 50 48 862
f 862 48 46
f 58 56 862
f 56 54 862
f 862 54 52
f 64 62 862
f 62 60 862
f 862 60 58
f 70 68 862
f 68 66 862
f 862 66 64
f 73 686 71
f 686 688 71
f 71 688 69
f 688 690 69
f 69 690 67
f 690 692 67
f 67 692 65
f 692 694 65
f 65 694 63
f 694 696 63
f 63 696 61
f 696 698 61
f 61 698 59
f 698 700 59
f 59 700 57
f 700 702 57
f 57 702 55
f 702 704 55
f 55 704 53
f 704 706 53
f 53 706 51
f 706 708 51
f 51 708 49
f 708 710 49
f 49 710 47
f 710 712 47
f 47 712 45
f 712 714 45
f 45 714 43
f 714 716 43
f 43 716 41
f 716 718 41
f 41 718 39
f 718 720 39
f 39 720 37
f 720 722 37
f 37 722 35
f 722 724 35
f 35 724 33
f 724 726 33
f 33 726 31
f 726 728 31
f 31 728 29
f 728 586 29
f 29 586 27
f 586 588 27
f 27 588 25
f 588 590 25
f 25 590 23
f 590 592 23
f 23 592 21
f 592 594 21
f 21 594 19
f 594 596 19
f 19 596 17
f 596 598 17
f 17 598 15
f 598 600 15
f 15 600 13
f 600 602 13
f 13 602 11
f 602 604 11
f 11 604 9
f 604 606 9
f 9 606 7
f 606 608 7
f 7 608 5
f 608 610 5
f 5 610 3
f 610 612 3
f 3 612 1
f 612 614 1
f 1 614 143
f 614 616 143
f 143 616 141
f 616 618 141
f 141 618 139
f 618 620 139
f 139 620 137
f 620 622 137
f 137 622 135
f 622 624 135
f 135 624 133
f 624 626 133
f 133 626 131
f 626 628 131
f 131 628 129
f 628 630 129
f 129 630 127
f 630 632 127
f 127 632 125
f 632 634 125
f 125 634 123
f 634 636 123
f 123 636 121
f 636 638 121
f 121 638 119
f 638 640 119
f 119 640 117
f 640 642 117
f 117 642 115
f 642 644 115
f 115 644 113
f 644 646 113
f 113 646 111
f 646 648 111
f 111 648 109
f 648 650 109
f 109 650 107
f 650 652 107
f 107 652 105
f 652 654 105
f 105 654 103
f 654 656 103
f 103 656 101
f 656 658 101
f 101 658 99
f 658 660 99
f 99 660 97
f 660 662 97
f 97 662 95
f 662 664 95
f 95 664 93
f 664 666 93
f 93 666 91
f 666 668 91
f 91 668 89
f 668 670 89
f 89 670 87
f 670 672 87
f 87 672 85
f 672 674 85
f 85 674 83
f 674 676 83
f 83 676 81
f 676 678 81
f 81 678 79
f 678 680 79
f 79 680 77
f 680 682 77
f 77 682 75
f 682 684 75
f 75 684 73
f 684 686 73
f 742 741 863
f 792 864 774
f 777 778 865
f 785 784 866
f 783 799 867
f 798 800 868
f 787 797 869
f 870 871 872
f 873 874 875
f 876 877 878
f 879 880 881
f 882 883 884
f 885 886 887
f 888 889 890
f 891 892 893
f 894 895 896
f 897 898 899
f 898 897 900
f 901 902 903
f 904 905 906
f 905 907 906
f 904 906 908
f 906 909 908
f 908 909 910
f 910 909 911
f 909 912 911
f 911 912 913
f 913 912 914
f 912 915 914
f 914 915 916
f 917 918 919
f 902 920 921
f 920 922 921
f 921 922 923
f 924 925 926
f 925 927 926
f 924 928 929
f 928 930 929
f 929 930 931
f 931 932 933
f 932 934 933
f 933 934 935
f 936 937 899
f 937 938 899
f 899 938 897
f 895 939 896
f 939 940 896
f 896 940 941
f 940 942 941
f 941 942 943
f 942 944 943
f 943 944 945
f 944 946 945
f 945 946 947
f 946 948 947
f 947 948 949
f 948 950 949
f 949 950 951
f 950 952 951
f 951 952 953
f 952 954 953
f 953 954 955
f 954 956 955
f 955 956 957
f 956 958 957
f 957 958 959
f 958 960 959
f 961 962 963
f 962 894 963
f 964 965 966
f 965 967 966
f 966 967 968
f 969 970 971
f 970 972 971
f 973 974 893
f 974 975 893
f 893 975 891
f 976 977 978
f 977 979 978
f 978 979 980
f 981 982 976
f 982 983 976
f 976 983 977
f 984 985 986
f 985 987 986
f 988 989 987
f 989 990 987
f 987 990 986
f 991 992 988
f 992 993 988
f 988 993 989
f 994 995 991
f 995 996 991
f 991 996 992
f 997 998 994
f 998 999 994
f 994 999 995
f 1000 1001 997
f 1001 1002 997
f 997 1002 998
f 1003 1004 1000
f 1004 1005 1000
f 1000 1005 1001
f 1006 1007 1003
f 1007 1008 1003
f 1003 1008 1004
f 1009 1010 1006
f 1010 1011 1006
f 1006 1011 1007
f 1012 1013 1009
f 1013 1014 1009
f 1009 1014 1010
f 1015 1016 1012
f 1016 1017 1012
f 1012 1017 1013
f 1018 1019 1015
f 1019 1020 1015
f 1015 1020 1016
f 1021 1022 1023
f 1022 1024 1023
f 1023 1024 1025
f 1024 1026 1025
f 889 888 1027
f 886 1028 887
f 1028 1029 887
f 887 1029 1030
f 877 876 1031
f 875 874 1032
f 874 1033 1032
f 1032 1033 1034
f 1035 1036 1037
f 1036 1038 1037
f 1037 1038 1039
f 1040 1041 1042
f 1043 1044 1045
f 1044 1046 1045
f 1045 1046 1047
f 1048 1049 872
f 1049 1050 872
f 872 1050 870
f 1051 1052 1053
f 1052 1054 1053
f 1053 1054 1055
f 1056 1057 1051
f 1057 1058 1051
f 1051 1058 1052
f 1059 1060 1061
f 1060 1062 1061
f 1061 1062 1063
f 1064 1065 1059
f 1065 1066 1059
f 1059 1066 1060
f 1067 1068 1064
f 1068 1069 1064
f 1064 1069 1065
f 1070 1071 1067
f 1071 1072 1067
f 1067 1072 1068
f 905 1073 907
f 1073 1074 907
f 907 1074 1070
f 1074 1075 1070
f 1070 1075 1071
f 1076 738 730
f 1076 730 1077
f 1078 750 751
f 1078 751 1076
f 751 752 1076
f 1076 752 738
f 750 1078 803
f 1078 1079 803
f 803 1079 771
f 1080 767 1079
f 767 769 1079
f 1079 769 771
f 1081 736 1082
f 736 791 1082
f 1082 791 815
f 735 1083 737
f 1083 1084 737
f 737 1084 789
f 1085 796 1086
f 796 734 1086
f 1086 734 762
f 787 869 788
f 811 812 1087
f 794 795 1088
f 795 782 1088
f 1088 782 781
f 1089 1090 859
f 857 856 1090
f 856 855 1090
f 1090 855 859
f 865 778 1091
f 778 836 1091
f 1091 836 766
f 777 865 765
f 865 1092 765
f 765 1092 761
f 776 775 1093
f 775 747 1093
f 1093 747 1094
f 747 748 1094
f 1094 748 1092
f 748 749 1092
f 1092 749 761
f 776 1093 755
f 1093 1095 755
f 755 1095 756
f 1096 758 1095
f 758 757 1095
f 1095 757 756
f 1097 760 759
f 1098 732 1097
f 732 764 1097
f 1097 764 760
f 745 1099 753
f 1099 1100 753
f 753 1100 793
f 731 1101 746
f 1101 1102 746
f 746 1102 763
f 1102 1099 763
f 763 1099 754
f 1099 745 754
f 843 839 1103
f 839 793 1103
f 1103 793 1104
f 852 851 1105
f 851 849 1105
f 1105 849 1106
f 849 847 1106
f 1106 847 1103
f 847 845 1103
f 1103 845 843
f 774 864 743
f 864 1107 743
f 743 1107 744
f 744 1107 773
f 1107 1108 773
f 773 1108 741
f 742 863 772
f 863 1109 772
f 772 1109 832
f 832 1110 829
f 1110 816 829
f 1110 1111 816
f 1111 1112 816
f 816 1112 817
f 1112 819 817
f 730 733 1077
f 733 739 1077
f 1077 739 1113
f 739 740 1113
f 740 807 1113
f 807 808 1113
f 1113 808 1112
f 808 821 1112
f 1112 821 819
f 1114 1115 1116
f 1115 1117 1116
f 1116 1117 1118
f 1117 1119 1118
f 1118 1119 1120
f 1119 1121 1120
f 1120 1121 1122
f 1121 1123 1122
f 1122 1123 1124
f 1123 1125 1124
f 1124 1125 1126
f 1125 1127 1126
f 1126 1127 1085
f 1127 869 1085
f 1085 869 796
f 869 797 796
f 1115 1128 1117
f 1128 1129 1117
f 1117 1129 1119
f 1129 1130 1119
f 1119 1130 1121
f 1130 1131 1121
f 1121 1131 1123
f 1131 1132 1123
f 1123 1132 1125
f 1132 1133 1125
f 1125 1133 1127
f 1133 1134 1127
f 1127 1134 869
f 1134 1087 869
f 869 1087 788
f 1087 812 788
f 1128 1135 1129
f 1135 1136 1129
f 1129 1136 1130
f 1136 1137 1130
f 1130 1137 1131
f 1137 1138 1131
f 1131 1138 1132
f 1138 1139 1132
f 1132 1139 1133
f 1139 1140 1133
f 1133 1140 1134
f 1140 1141 1134
f 1134 1141 1087
f 1141 868 1087
f 1087 868 811
f 868 800 811
f 1135 1142 1136
f 1142 1143 1136
f 1136 1143 1137
f 1143 1144 1137
f 1137 1144 1138
f 1144 1145 1138
f 1138 1145 1139
f 1145 1146 1139
f 1139 1146 1140
f 1146 1147 1140
f 1140 1147 1141
f 1147 1148 1141
f 1141 1148 868
f 1148 867 868
f 868 867 798
f 867 799 798
f 1142 1149 1143
f 1149 1150 1143
f 1143 1150 1144
f 1150 1151 1144
f 1144 1151 1145
f 1151 1152 1145
f 1145 1152 1146
f 1152 1153 1146
f 1146 1153 1147
f 1153 1154 1147
f 1147 1154 1148
f 1154 1155 1148
f 1148 1155 867
f 1155 866 867
f 867 866 783
f 866 784 783
f 1149 1156 1150
f 1156 1157 1150
f 1150 1157 1151
f 1157 1158 1151
f 1151 1158 1152
f 1158 1159 1152
f 1152 1159 1153
f 1159 1160 1153
f 1153 1160 1154
f 1160 1161 1154
f 1154 1161 1155
f 1161 1162 1155
f 1155 1162 866
f 1162 1163 866
f 866 1163 785
f 1163 1088 785
f 785 1088 786
f 1088 781 786
f 1164 1114 1165
f 1114 1116 1165
f 1165 1116 1166
f 1116 1118 1166
f 1166 1118 1167
f 1118 1120 1167
f 1167 1120 1168
f 1120 1122 1168
f 1168 1122 1169
f 1122 1124 1169
f 1169 1124 1170
f 1124 1126 1170
f 1170 1126 1171
f 1126 1085 1171
f 1171 1085 1084
f 1085 1086 1084
f 1084 1086 789
f 1086 762 789
f 1156 1172 1157
f 1172 1173 1157
f 1157 1173 1158
f 1173 1174 1158
f 1158 1174 1159
f 1174 1175 1159
f 1159 1175 1160
f 1175 1176 1160
f 1160 1176 1161
f 1176 1177 1161
f 1161 1177 1162
f 1177 1178 1162
f 1162 1178 1163
f 1178 1179 1163
f 1163 1179 1088
f 1179 1180 1088
f 1088 1180 794
f 1180 1181 794
f 794 1181 780
f 1181 779 780
f 873 1164 874
f 1164 1165 874
f 874 1165 1033
f 1165 1166 1033
f 1033 1166 1182
f 1166 1167 1182
f 1182 1167 1183
f 1167 1168 1183
f 1183 1168 1184
f 1168 1169 1184
f 1184 1169 1185
f 1169 1170 1185
f 1185 1170 1186
f 1170 1171 1186
f 1186 1171 1187
f 1171 1084 1187
f 1187 1084 1081
f 1084 1083 1081
f 1081 1083 736
f 1083 735 736
f 1172 878 1173
f 878 877 1173
f 1173 877 1174
f 877 1031 1174
f 1174 1031 1175
f 1031 1188 1175
f 1175 1188 1176
f 1188 1189 1176
f 1176 1189 1177
f 1189 1190 1177
f 1177 1190 1178
f 1190 1191 1178
f 1178 1191 1179
f 1191 1192 1179
f 1179 1192 1180
f 1192 1193 1180
f 1180 1193 1181
f 1193 1089 1181
f 1181 1089 779
f 1089 859 779
f 815 767 1082
f 767 1080 1082
f 1082 1080 1081
f 1080 1194 1081
f 1081 1194 1187
f 1194 1195 1187
f 1187 1195 1186
f 1195 1196 1186
f 1186 1196 1185
f 1196 1197 1185
f 1185 1197 1184
f 1197 1198 1184
f 1184 1198 1183
f 1198 1199 1183
f 1183 1199 1182
f 1199 1200 1182
f 1182 1200 1033
f 1200 1201 1033
f 1033 1201 1034
f 876 879 1031
f 879 881 1031
f 1031 881 1188
f 881 1202 1188
f 1188 1202 1189
f 1202 1203 1189
f 1189 1203 1190
f 1203 1204 1190
f 1190 1204 1191
f 1204 1205 1191
f 1191 1205 1192
f 1205 1206 1192
f 1192 1206 1193
f 1206 1207 1193
f 1193 1207 1089
f 1207 1208 1089
f 1089 1208 1090
f 1208 1209 1090
f 1090 1209 857
f 1209 1091 857
f 857 1091 858
f 1091 766 858
f 1063 1057 1061
f 1057 1056 1061
f 1061 1056 1059
f 1056 1210 1059
f 1059 1210 1064
f 1210 1211 1064
f 1064 1211 1067
f 1211 1212 1067
f 1067 1212 1070
f 1212 1213 1070
f 1070 1213 907
f 1213 1214 907
f 907 1214 906
f 1214 1215 906
f 906 1215 909
f 1215 1216 909
f 909 1216 912
f 1216 1217 912
f 912 1217 915
f 1217 1218 915
f 1055 1049 1053
f 1049 1048 1053
f 1053 1048 1051
f 1048 1219 1051
f 1051 1219 1056
f 1219 1220 1056
f 1056 1220 1210
f 1220 1221 1210
f 1210 1221 1211
f 1221 1222 1211
f 1211 1222 1212
f 1222 1223 1212
f 1212 1223 1213
f 1223 1224 1213
f 1213 1224 1214
f 1224 1225 1214
f 1214 1225 1215
f 1225 1226 1215
f 1215 1226 1216
f 1226 1227 1216
f 1216 1227 1217
f 1227 1228 1217
f 1217 1228 1218
f 1228 1229 1218
f 870 1044 871
f 1044 1043 871
f 871 1043 872
f 1043 1230 872
f 872 1230 1048
f 1230 1231 1048
f 1048 1231 1219
f 1231 1232 1219
f 1219 1232 1220
f 1232 1233 1220
f 1220 1233 1221
f 1233 1234 1221
f 1221 1234 1222
f 1234 1235 1222
f 1222 1235 1223
f 1235 1236 1223
f 1223 1236 1224
f 1236 1237 1224
f 1224 1237 1225
f 1237 1238 1225
f 1225 1238 1226
f 1238 1239 1226
f 1226 1239 1227
f 1239 1240 1227
f 1227 1240 1228
f 1240 1241 1228
f 1228 1241 1229
f 1241 1242 1229
f 1047 1040 1045
f 1040 1042 1045
f 1045 1042 1043
f 1042 1243 1043
f 1043 1243 1230
f 1243 1244 1230
f 1230 1244 1231
f 1244 1245 1231
f 1231 1245 1232
f 1245 1246 1232
f 1232 1246 1233
f 1246 1247 1233
f 1233 1247 1234
f 1247 1248 1234
f 1234 1248 1235
f 1248 1249 1235
f 1235 1249 1236
f 1249 1250 1236
f 1236 1250 1237
f 1250 1251 1237
f 1237 1251 1238
f 1251 1252 1238
f 1238 1252 1239
f 1252 1253 1239
f 1239 1253 1240
f 1253 1254 1240
f 1240 1254 1241
f 1254 1255 1241
f 1241 1255 1242
f 1255 1256 1242
f 1041 1039 1042
f 1039 1038 1042
f 1042 1038 1243
f 1038 1257 1243
f 1243 1257 1244
f 1257 1258 1244
f 1244 1258 1245
f 1258 1259 1245
f 1245 1259 1246
f 1259 1260 1246
f 1246 1260 1247
f 1260 1261 1247
f 1247 1261 1248
f 1261 1262 1248
f 1248 1262 1249
f 1262 1263 1249
f 1249 1263 1250
f 1263 1264 1250
f 1250 1264 1251
f 1264 1265 1251
f 1251 1265 1252
f 1265 1266 1252
f 1252 1266 1253
f 1266 1267 1253
f 1253 1267 1254
f 1267 1268 1254
f 1254 1268 1255
f 1268 1269 1255
f 1255 1269 1256
f 1269 1270 1256
f 1035 1034 1036
f 1034 1201 1036
f 1036 1201 1038
f 1201 1200 1038
f 1038 1200 1257
f 1200 1199 1257
f 1257 1199 1258
f 1199 1198 1258
f 1258 1198 1259
f 1198 1197 1259
f 1259 1197 1260
f 1197 1196 1260
f 1260 1196 1261
f 1196 1195 1261
f 1261 1195 1262
f 1195 1194 1262
f 1262 1194 1263
f 1194 1080 1263
f 1263 1080 1264
f 1080 1079 1264
f 1264 1079 1265
f 1079 1078 1265
f 1265 1078 1266
f 1078 1076 1266
f 1266 1076 1267
f 1076 1077 1267
f 1267 1077 1268
f 1077 1113 1268
f 1268 1113 1269
f 1113 1112 1269
f 1269 1112 1270
f 1112 1111 1270
f 832 1109 1110
f 1109 1271 1110
f 1110 1271 1111
f 1271 1272 1111
f 1111 1272 1270
f 1272 1273 1270
f 1270 1273 1256
f 1273 1274 1256
f 1256 1274 1242
f 1274 1275 1242
f 1242 1275 1229
f 1275 1276 1229
f 1229 1276 1218
f 1276 917 1218
f 1218 917 915
f 917 919 915
f 915 919 916
f 741 1108 863
f 1108 1277 863
f 863 1277 1109
f 1277 1278 1109
f 1109 1278 1271
f 1278 1279 1271
f 1271 1279 1272
f 1279 1280 1272
f 1272 1280 1273
f 1280 1281 1273
f 1273 1281 1274
f 1281 1282 1274
f 1274 1282 1275
f 1282 1283 1275
f 1275 1283 1276
f 1283 1284 1276
f 1276 1284 917
f 1284 1285 917
f 917 1285 918
f 731 732 1101
f 732 1098 1101
f 1101 1098 1102
f 1098 1286 1102
f 759 758 1097
f 758 1096 1097
f 1097 1096 1098
f 1096 1287 1098
f 1098 1287 1286
f 1287 1288 1286
f 1021 1289 1022
f 1289 1018 1022
f 1022 1018 1290
f 1018 1015 1290
f 1290 1015 1291
f 1015 1012 1291
f 1291 1012 1292
f 1012 1009 1292
f 1292 1009 1293
f 1009 1006 1293
f 1293 1006 1294
f 1006 1003 1294
f 1294 1003 1295
f 1003 1000 1295
f 1295 1000 1296
f 1000 997 1296
f 1296 997 1297
f 997 994 1297
f 1297 994 1298
f 994 991 1298
f 1298 991 1299
f 991 988 1299
f 1299 988 1300
f 988 987 1300
f 1300 987 981
f 987 985 981
f 981 985 982
f 985 984 982
f 852 1105 792
f 1105 1301 792
f 792 1301 864
f 1301 1302 864
f 864 1302 1107
f 1302 1303 1107
f 1107 1303 1108
f 1303 1304 1108
f 1108 1304 1277
f 1304 1305 1277
f 1277 1305 1278
f 1305 1306 1278
f 1278 1306 1279
f 1306 1307 1279
f 1279 1307 1280
f 1307 1308 1280
f 1280 1308 1281
f 1308 1309 1281
f 1281 1309 1282
f 1309 921 1282
f 1282 921 1283
f 921 923 1283
f 1283 923 1284
f 923 1310 1284
f 1284 1310 1285
f 793 1100 1104
f 1100 1099 1104
f 1104 1099 1311
f 1099 1102 1311
f 1311 1102 1312
f 1102 1286 1312
f 1312 1286 1313
f 1286 1288 1313
f 1313 1288 1314
f 902 921 903
f 921 1309 903
f 903 1309 1315
f 1309 1308 1315
f 1315 1308 1316
f 1308 1307 1316
f 1316 1307 1317
f 1307 1306 1317
f 1317 1306 1318
f 1306 1305 1318
f 1318 1305 1319
f 1305 1304 1319
f 1319 1304 1320
f 1304 1303 1320
f 1320 1303 1321
f 1303 1302 1321
f 1321 1302 1322
f 1302 1301 1322
f 1322 1301 1323
f 1301 1105 1323
f 1323 1105 1324
f 1105 1106 1324
f 1324 1106 1325
f 1106 1103 1325
f 1325 1103 1326
f 1103 1104 1326
f 1326 1104 1327
f 1104 1311 1327
f 1327 1311 1328
f 1311 1312 1328
f 1328 1312 1329
f 1312 1313 1329
f 1329 1313 1330
f 1313 1314 1330
f 1330 1314 1331
f 888 1332 1027
f 1332 1026 1027
f 1027 1026 1333
f 1026 1024 1333
f 1333 1024 1334
f 1024 1022 1334
f 1334 1022 1335
f 1022 1290 1335
f 1335 1290 1336
f 1290 1291 1336
f 1336 1291 1337
f 1291 1292 1337
f 1337 1292 1338
f 1292 1293 1338
f 1338 1293 1339
f 1293 1294 1339
f 1339 1294 1340
f 1294 1295 1340
f 1340 1295 1341
f 1295 1296 1341
f 1341 1296 1342
f 1296 1297 1342
f 1342 1297 1343
f 1297 1298 1343
f 1343 1298 1344
f 1298 1299 1344
f 1344 1299 1345
f 1299 1300 1345
f 1345 1300 1346
f 1300 981 1346
f 1346 981 1347
f 981 976 1347
f 1347 976 973
f 976 978 973
f 973 978 974
f 978 980 974
f 901 903 927
f 903 1315 927
f 927 1315 926
f 1315 1316 926
f 926 1316 1348
f 1316 1317 1348
f 1348 1317 1349
f 1317 1318 1349
f 1349 1318 1350
f 1318 1319 1350
f 1350 1319 1351
f 1319 1320 1351
f 1351 1320 1352
f 1320 1321 1352
f 1352 1321 1353
f 1321 1322 1353
f 1353 1322 1354
f 1322 1323 1354
f 1354 1323 1355
f 1323 1324 1355
f 1355 1324 1356
f 1324 1325 1356
f 1356 1325 1357
f 1325 1326 1357
f 1357 1326 1358
f 1326 1327 1358
f 1358 1327 1359
f 1327 1328 1359
f 1359 1328 1360
f 1328 1329 1360
f 1360 1329 1361
f 1329 1330 1361
f 1361 1330 1362
f 1330 1331 1362
f 1362 1331 1363
f 924 926 928
f 926 1348 928
f 928 1348 930
f 1348 1349 930
f 930 1349 1364
f 1349 1350 1364
f 1364 1350 1365
f 1350 1351 1365
f 1365 1351 1366
f 1351 1352 1366
f 1366 1352 1367
f 1352 1353 1367
f 1367 1353 1368
f 1353 1354 1368
f 1368 1354 1369
f 1354 1355 1369
f 1369 1355 1370
f 1355 1356 1370
f 1370 1356 1371
f 1356 1357 1371
f 1371 1357 1372
f 1357 1358 1372
f 1372 1358 1373
f 1358 1359 1373
f 1373 1359 1374
f 1359 1360 1374
f 1374 1360 1375
f 1360 1361 1375
f 1375 1361 1376
f 1361 1362 1376
f 1376 1362 1377
f 1362 1363 1377
f 1377 1363 1378
f 1029 890 1030
f 890 889 1030
f 1030 889 1379
f 889 1027 1379
f 1379 1027 1380
f 1027 1333 1380
f 1380 1333 1381
f 1333 1334 1381
f 1381 1334 1382
f 1334 1335 1382
f 1382 1335 1383
f 1335 1336 1383
f 1383 1336 1384
f 1336 1337 1384
f 1384 1337 1385
f 1337 1338 1385
f 1385 1338 1386
f 1338 1339 1386
f 1386 1339 1387
f 1339 1340 1387
f 1387 1340 1388
f 1340 1341 1388
f 1388 1341 1389
f 1341 1342 1389
f 1389 1342 1390
f 1342 1343 1390
f 1390 1343 1391
f 1343 1344 1391
f 1391 1344 1392
f 1344 1345 1392
f 1392 1345 1393
f 1345 1346 1393
f 1393 1346 1394
f 1346 1347 1394
f 1394 1347 1395
f 1347 973 1395
f 1395 973 1396
f 973 893 1396
f 1396 893 972
f 893 892 972
f 972 892 971
f 892 891 971
f 931 930 932
f 930 1364 932
f 932 1364 934
f 1364 1365 934
f 934 1365 1397
f 1365 1366 1397
f 1397 1366 1398
f 1366 1367 1398
f 1398 1367 1399
f 1367 1368 1399
f 1399 1368 1400
f 1368 1369 1400
f 1400 1369 1401
f 1369 1370 1401
f 1401 1370 1402
f 1370 1371 1402
f 1402 1371 1403
f 1371 1372 1403
f 1403 1372 1404
f 1372 1373 1404
f 1404 1373 1405
f 1373 1374 1405
f 1405 1374 1406
f 1374 1375 1406
f 1406 1375 1407
f 1375 1376 1407
f 1407 1376 1408
f 1376 1377 1408
f 1408 1377 1409
f 1377 1378 1409
f 1409 1378 1410
f 1411 968 1412
f 968 967 1412
f 1412 967 1413
f 967 1414 1413
f 1413 1414 1415
f 1414 1416 1415
f 1415 1416 1417
f 1416 1418 1417
f 1417 1418 1419
f 1418 1420 1419
f 1419 1420 1421
f 1420 1422 1421
f 1421 1422 1423
f 1422 1424 1423
f 1423 1424 1425
f 1424 1426 1425
f 1425 1426 1427
f 1426 1428 1427
f 1427 1428 1429
f 1428 1430 1429
f 1429 1430 1431
f 1430 1432 1431
f 1431 1432 1433
f 1432 1434 1433
f 1433 1434 1435
f 1434 1436 1435
f 1435 1436 1437
f 1436 1438 1437
f 1437 1438 1439
f 1438 1440 1439
f 1439 1440 1441
f 1440 1442 1441
f 1441 1442 1443
f 1442 1444 1443
f 1443 1444 1445
f 1444 1446 1445
f 1445 1446 1447
f 1446 1448 1447
f 1447 1448 1449
f 1448 1450 1449
f 1449 1450 1451
f 1450 1452 1451
f 1451 1452 884
f 1452 1453 884
f 884 1453 882
f 1453 1454 882
f 882 1454 1455
f 883 885 884
f 885 887 884
f 884 887 1451
f 887 1030 1451
f 1451 1030 1449
f 1030 1379 1449
f 1449 1379 1447
f 1379 1380 1447
f 1447 1380 1445
f 1380 1381 1445
f 1445 1381 1443
f 1381 1382 1443
f 1443 1382 1441
f 1382 1383 1441
f 1441 1383 1439
f 1383 1384 1439
f 1439 1384 1437
f 1384 1385 1437
f 1437 1385 1435
f 1385 1386 1435
f 1435 1386 1433
f 1386 1387 1433
f 1433 1387 1431
f 1387 1388 1431
f 1431 1388 1429
f 1388 1389 1429
f 1429 1389 1427
f 1389 1390 1427
f 1427 1390 1425
f 1390 1391 1425
f 1425 1391 1423
f 1391 1392 1423
f 1423 1392 1421
f 1392 1393 1421
f 1421 1393 1419
f 1393 1394 1419
f 1419 1394 1417
f 1394 1395 1417
f 1417 1395 1415
f 1395 1396 1415
f 1415 1396 1413
f 1396 972 1413
f 1413 972 1412
f 972 970 1412
f 1412 970 1411
f 970 969 1411
f 935 934 900
f 934 1397 900
f 900 1397 898
f 1397 1398 898
f 898 1398 899
f 1398 1399 899
f 899 1399 936
f 1399 1400 936
f 936 1400 1456
f 1400 1401 1456
f 1456 1401 1457
f 1401 1402 1457
f 1457 1402 1458
f 1402 1403 1458
f 1458 1403 1459
f 1403 1404 1459
f 1459 1404 1460
f 1404 1405 1460
f 1460 1405 1461
f 1405 1406 1461
f 1461 1406 1462
f 1406 1407 1462
f 1462 1407 1463
f 1407 1408 1463
f 1463 1408 1464
f 1408 1409 1464
f 1464 1409 963
f 1409 1410 963
f 963 1410 961
f 880 1455 881
f 1455 1454 881
f 881 1454 1202
f 1454 1453 1202
f 1202 1453 1203
f 1453 1452 1203
f 1203 1452 1204
f 1452 1450 1204
f 1204 1450 1205
f 1450 1448 1205
f 1205 1448 1206
f 1448 1446 1206
f 1206 1446 1207
f 1446 1444 1207
f 1207 1444 1208
f 1444 1442 1208
f 1208 1442 1209
f 1442 1440 1209
f 1209 1440 1091
f 1440 1438 1091
f 1091 1438 865
f 1438 1436 865
f 865 1436 1092
f 1436 1434 1092
f 1092 1434 1094
f 1434 1432 1094
f 1094 1432 1093
f 1432 1430 1093
f 1093 1430 1095
f 1430 1428 1095
f 1095 1428 1096
f 1428 1426 1096
f 1096 1426 1287
f 1426 1424 1287
f 1287 1424 1288
f 1424 1422 1288
f 1288 1422 1314
f 1422 1420 1314
f 1314 1420 1331
f 1420 1418 1331
f 1331 1418 1363
f 1418 1416 1363
f 1363 1416 1378
f 1416 1414 1378
f 1378 1414 1410
f 1414 967 1410
f 1410 967 961
f 967 965 961
f 961 965 962
f 965 964 962
f 894 896 963
f 896 941 963
f 963 941 1464
f 941 943 1464
f 1464 943 1463
f 943 945 1463
f 1463 945 1462
f 945 947 1462
f 1462 947 1461
f 947 949 1461
f 1461 949 1460
f 949 951 1460
f 1460 951 1459
f 951 953 1459
f 1459 953 1458
f 953 955 1458
f 1458 955 1457
f 955 957 1457
f 1457 957 1456
f 957 959 1456
f 1456 959 936
f 959 960 936
f 936 960 937
f 904 615 613
f 904 908 615
f 908 910 615
f 615 910 617
f 910 911 617
f 911 913 617
f 617 913 619
f 913 914 619
f 914 916 619
f 619 916 621
f 916 919 621
f 919 918 621
f 621 918 623
f 918 1285 623
f 1285 1310 623
f 623 1310 625
f 1310 923 625
f 625 923 627
f 923 922 627
f 627 922 629
f 901 631 902
f 631 629 902
f 902 629 920
f 629 922 920
f 901 927 631
f 927 925 631
f 631 925 633
f 925 924 633
f 924 929 633
f 633 929 635
f 929 931 635
f 635 931 637
f 931 933 637
f 637 933 639
f 933 935 639
f 935 900 639
f 639 900 641
f 937 643 938
f 643 641 938
f 938 641 897
f 641 900 897
f 937 960 643
f 960 958 643
f 643 958 645
f 958 956 645
f 956 954 645
f 645 954 647
f 954 952 647
f 952 950 647
f 647 950 649
f 950 948 649
f 948 946 649
f 649 946 651
f 946 944 651
f 944 942 651
f 651 942 653
f 942 940 653
f 653 940 655
f 940 939 655
f 655 939 895
f 895 894 655
f 894 962 655
f 655 962 657
f 962 964 657
f 657 964 659
f 964 966 659
f 659 966 968
f 968 1411 659
f 1411 969 659
f 659 969 661
f 969 971 661
f 661 971 663
f 971 891 663
f 663 891 665
f 665 891 667
f 891 975 667
f 667 975 974
f 974 980 667
f 980 979 667
f 667 979 669
f 979 977 669
f 977 983 669
f 669 983 671
f 983 982 671
f 982 984 671
f 671 984 673
f 984 986 673
f 673 986 675
f 986 990 675
f 675 990 677
f 990 989 677
f 989 993 677
f 677 993 679
f 993 992 679
f 992 996 679
f 679 996 681
f 996 995 681
f 995 999 681
f 681 999 683
f 999 998 683
f 998 1002 683
f 683 1002 685
f 1002 1001 685
f 1001 1005 685
f 685 1005 687
f 1005 1004 687
f 1004 1008 687
f 687 1008 689
f 1008 1007 689
f 1007 1011 689
f 689 1011 691
f 1011 1010 691
f 1010 1014 691
f 691 1014 693
f 1014 1013 693
f 1013 1017 693
f 693 1017 695
f 1017 1016 695
f 1016 1020 695
f 695 1020 697
f 1020 1019 697
f 1019 1018 697
f 697 1018 699
f 1018 1289 699
f 699 1289 701
f 1025 703 1023
f 703 701 1023
f 1023 701 1021
f 701 1289 1021
f 1025 1026 703
f 1026 1332 703
f 703 1332 705
f 1332 888 705
f 888 890 705
f 705 890 707
f 890 1029 707
f 707 1029 709
f 885 711 886
f 711 709 886
f 886 709 1028
f 709 1029 1028
f 885 883 711
f 883 882 711
f 711 882 713
f 879 715 880
f 715 713 880
f 880 713 1455
f 713 882 1455
f 879 876 715
f 876 878 715
f 715 878 717
f 878 1172 717
f 1172 1156 717
f 717 1156 719
f 1156 1149 719
f 1149 1142 719
f 719 1142 721
f 1142 1135 721
f 1135 1128 721
f 721 1128 723
f 1128 1115 723
f 1115 1114 723
f 723 1114 725
f 1114 1164 725
f 725 1164 727
f 1164 873 727
f 727 873 875
f 875 1032 727
f 1032 1034 727
f 727 1034 729
f 1034 1035 729
f 729 1035 587
f 1035 1037 587
f 587 1037 1039
f 1039 1041 587
f 1041 1040 587
f 587 1040 589
f 1040 1047 589
f 1047 1046 589
f 589 1046 591
f 1046 1044 591
f 1044 870 591
f 591 870 593
f 593 870 595
f 870 1050 595
f 595 1050 1049
f 1049 1055 595
f 1055 1054 595
f 595 1054 597
f 1054 1052 597
f 1052 1058 597
f 597 1058 599
f 1058 1057 599
f 1057 1063 599
f 599 1063 601
f 1063 1062 601
f 601 1062 603
f 1062 1060 603
f 1060 1066 603
f 603 1066 605
f 1066 1065 605
f 1065 1069 605
f 605 1069 607
f 1069 1068 607
f 1068 1072 607
f 607 1072 609
f 1072 1071 609
f 1071 1075 609
f 609 1075 611
f 1075 1074 611
f 1074 1073 611
f 611 1073 613
f 1073 905 613
f 613 905 904
f 285 286 841
f 285 841 308
f 841 840 308
f 308 840 309
f 840 838 309
f 309 838 290
f 838 837 290
f 290 837 291
f 837 842 291
f 291 842 292
f 842 844 292
f 292 844 293
f 844 846 293
f 293 846 287
f 846 848 287
f 287 848 288
f 848 850 288
f 288 850 305
f 850 853 305
f 305 853 306
f 853 854 306
f 306 854 307
f 854 861 307
f 307 861 311
f 861 860 311
f 311 860 312
f 860 559 312
f 312 559 314
f 313 585 835
f 313 835 289
f 835 834 289
f 289 834 302
f 834 833 302
f 302 833 358
f 833 831 358
f 358 831 359
f 831 830 359
f 359 830 346
f 830 828 346
f 346 828 316
f 828 827 316
f 316 827 317
f 827 818 317
f 317 818 333
f 818 820 333
f 333 820 334
f 820 822 334
f 334 822 318
f 822 823 318
f 318 823 319
f 823 810 319
f 319 810 320
f 810 809 320
f 320 809 296
f 809 456 296
f 296 456 294
f 295 482 806
f 295 806 297
f 806 805 297
f 297 805 298
f 805 804 298
f 298 804 299
f 804 802 299
f 299 802 300
f 802 801 300
f 300 801 301
f 801 770 301
f 301 770 326
f 770 768 326
f 326 768 327
f 768 826 327
f 327 826 328
f 826 825 328
f 328 825 310
f 825 824 310
f 310 824 303
f 824 814 303
f 303 814 304
f 814 813 304
f 304 813 343
f 813 790 343
f 343 790 344
f 790 483 344
f 344 483 345

