# https://github.com/mikedh/trimesh

o part_1__3.stl
v 0.09069310 0.00793750 0.00275000
v 0.09069310 0.00952500 0.00275000
v 0.09093279 0.00793750 0.00273954
v 0.09093279 0.00952500 0.00273954
v 0.09117064 0.00793750 0.00270822
v 0.09117064 0.00952500 0.00270822
v 0.09140486 0.00793750 0.00265630
v 0.09140486 0.00952500 0.00265630
v 0.09163366 0.00793750 0.00258415
v 0.09163366 0.00952500 0.00258415
v 0.09185530 0.00793750 0.00249235
v 0.09185530 0.00952500 0.00249235
v 0.09206811 0.00793750 0.00238157
v 0.09206811 0.00952500 0.00238157
v 0.09227044 0.00793750 0.00225267
v 0.09227044 0.00952500 0.00225267
v 0.09246077 0.00793750 0.00210662
v 0.09246077 0.00952500 0.00210662
v 0.09263765 0.00793750 0.00194454
v 0.09263765 0.00952500 0.00194454
v 0.09279973 0.00793750 0.00176767
v 0.09279973 0.00952500 0.00176767
v 0.09294577 0.00793750 0.00157734
v 0.09294577 0.00952500 0.00157734
v 0.09307467 0.00793750 0.00137500
v 0.09307467 0.00952500 0.00137500
v 0.09318545 0.00793750 0.00116220
v 0.09318545 0.00952500 0.00116220
v 0.09327726 0.00793750 0.00094056
v 0.09327726 0.00952500 0.00094056
v 0.09334940 0.00793750 0.00071175
v 0.09334940 0.00952500 0.00071175
v 0.09340133 0.00793750 0.00047753
v 0.09340133 0.00952500 0.00047753
v 0.09343264 0.00793750 0.00023968
v 0.09343264 0.00952500 0.00023968
v 0.09344310 0.00793750 0.00000000
v 0.09344310 0.00952500 0.00000000
v 0.09343264 0.00793750 -0.00023968
v 0.09343264 0.00952500 -0.00023968
v 0.09340133 0.00793750 -0.00047753
v 0.09340133 0.00952500 -0.00047753
v 0.09334940 0.00793750 -0.00071175
v 0.09334940 0.00952500 -0.00071175
v 0.09327726 0.00793750 -0.00094056
v 0.09327726 0.00952500 -0.00094056
v 0.09318545 0.00793750 -0.00116220
v 0.09318545 0.00952500 -0.00116220
v 0.09307467 0.00793750 -0.00137500
v 0.09307467 0.00952500 -0.00137500
v 0.09294577 0.00793750 -0.00157734
v 0.09294577 0.00952500 -0.00157734
v 0.09279973 0.00793750 -0.00176767
v 0.09279973 0.00952500 -0.00176767
v 0.09263765 0.00793750 -0.00194454
v 0.09263765 0.00952500 -0.00194454
v 0.09246077 0.00793750 -0.00210662
v 0.09246077 0.00952500 -0.00210662
v 0.09227044 0.00793750 -0.00225267
v 0.09227044 0.00952500 -0.00225267
v 0.09206811 0.00793750 -0.00238157
v 0.09206811 0.00952500 -0.00238157
v 0.09185530 0.00793750 -0.00249235
v 0.09185530 0.00952500 -0.00249235
v 0.09163366 0.00793750 -0.00258415
v 0.09163366 0.00952500 -0.00258415
v 0.09140486 0.00793750 -0.00265630
v 0.09140486 0.00952500 -0.00265630
v 0.09117064 0.00793750 -0.00270822
v 0.09117064 0.00952500 -0.00270822
v 0.09093279 0.00793750 -0.00273954
v 0.09093279 0.00952500 -0.00273954
v 0.09069310 0.00793750 -0.00275000
v 0.09069310 0.00952500 -0.00275000
v 0.09045342 0.00793750 -0.00273954
v 0.09045342 0.00952500 -0.00273954
v 0.09021557 0.00793750 -0.00270822
v 0.09021557 0.00952500 -0.00270822
v 0.08998135 0.00793750 -0.00265630
v 0.08998135 0.00952500 -0.00265630
v 0.08975255 0.00793750 -0.00258415
v 0.08975255 0.00952500 -0.00258415
v 0.08953091 0.00793750 -0.00249235
v 0.08953091 0.00952500 -0.00249235
v 0.08931810 0.00793750 -0.00238157
v 0.08931810 0.00952500 -0.00238157
v 0.08911577 0.00793750 -0.00225267
v 0.08911577 0.00952500 -0.00225267
v 0.08892544 0.00793750 -0.00210662
v 0.08892544 0.00952500 -0.00210662
v 0.08874856 0.00793750 -0.00194454
v 0.08874856 0.00952500 -0.00194454
v 0.08858648 0.00793750 -0.00176767
v 0.08858648 0.00952500 -0.00176767
v 0.08844044 0.00793750 -0.00157734
v 0.08844044 0.00952500 -0.00157734
v 0.08831154 0.00793750 -0.00137500
v 0.08831154 0.00952500 -0.00137500
v 0.08820076 0.00793750 -0.00116220
v 0.08820076 0.00952500 -0.00116220
v 0.08810895 0.00793750 -0.00094056
v 0.08810895 0.00952500 -0.00094056
v 0.08803681 0.00793750 -0.00071175
v 0.08803681 0.00952500 -0.00071175
v 0.08798488 0.00793750 -0.00047753
v 0.08798488 0.00952500 -0.00047753
v 0.08795357 0.00793750 -0.00023968
v 0.08795357 0.00952500 -0.00023968
v 0.08794311 0.00793750 0.00000000
v 0.08794311 0.00952500 0.00000000
v 0.08795357 0.00793750 0.00023968
v 0.08795357 0.00952500 0.00023968
v 0.08798488 0.00793750 0.00047753
v 0.08798488 0.00952500 0.00047753
v 0.08803681 0.00793750 0.00071175
v 0.08803681 0.00952500 0.00071175
v 0.08810895 0.00793750 0.00094056
v 0.08810895 0.00952500 0.00094056
v 0.08820076 0.00793750 0.00116220
v 0.08820076 0.00952500 0.00116220
v 0.08831154 0.00793750 0.00137500
v 0.08831154 0.00952500 0.00137500
v 0.08844044 0.00793750 0.00157734
v 0.08844044 0.00952500 0.00157734
v 0.08858648 0.00793750 0.00176767
v 0.08858648 0.00952500 0.00176767
v 0.08874856 0.00793750 0.00194454
v 0.08874856 0.00952500 0.00194454
v 0.08892544 0.00793750 0.00210662
v 0.08892544 0.00952500 0.00210662
v 0.08911577 0.00793750 0.00225267
v 0.08911577 0.00952500 0.00225267
v 0.08931810 0.00793750 0.00238157
v 0.08931810 0.00952500 0.00238157
v 0.08953091 0.00793750 0.00249235
v 0.08953091 0.00952500 0.00249235
v 0.08975255 0.00793750 0.00258415
v 0.08975255 0.00952500 0.00258415
v 0.08998135 0.00793750 0.00265630
v 0.08998135 0.00952500 0.00265630
v 0.09021557 0.00793750 0.00270822
v 0.09021557 0.00952500 0.00270822
v 0.09045342 0.00793750 0.00273954
v 0.09045342 0.00952500 0.00273954
v 0.12889311 0.00793750 0.00275000
v 0.12889311 0.00952500 0.00275000
v 0.12913278 0.00793750 0.00273954
v 0.12913278 0.00952500 0.00273954
v 0.12937064 0.00793750 0.00270822
v 0.12937064 0.00952500 0.00270822
v 0.12960486 0.00793750 0.00265630
v 0.12960486 0.00952500 0.00265630
v 0.12983365 0.00793750 0.00258415
v 0.12983365 0.00952500 0.00258415
v 0.13005531 0.00793750 0.00249235
v 0.13005531 0.00952500 0.00249235
v 0.13026811 0.00793750 0.00238157
v 0.13026811 0.00952500 0.00238157
v 0.13047044 0.00793750 0.00225267
v 0.13047044 0.00952500 0.00225267
v 0.13066077 0.00793750 0.00210662
v 0.13066077 0.00952500 0.00210662
v 0.13083765 0.00793750 0.00194454
v 0.13083765 0.00952500 0.00194454
v 0.13099973 0.00793750 0.00176767
v 0.13099973 0.00952500 0.00176767
v 0.13114578 0.00793750 0.00157734
v 0.13114578 0.00952500 0.00157734
v 0.13127467 0.00793750 0.00137500
v 0.13127467 0.00952500 0.00137500
v 0.13138545 0.00793750 0.00116220
v 0.13138545 0.00952500 0.00116220
v 0.13147727 0.00793750 0.00094056
v 0.13147727 0.00952500 0.00094056
v 0.13154940 0.00793750 0.00071175
v 0.13154940 0.00952500 0.00071175
v 0.13160133 0.00793750 0.00047753
v 0.13160133 0.00952500 0.00047753
v 0.13163264 0.00793750 0.00023968
v 0.13163264 0.00952500 0.00023968
v 0.13164310 0.00793750 0.00000000
v 0.13164310 0.00952500 0.00000000
v 0.13163264 0.00793750 -0.00023968
v 0.13163264 0.00952500 -0.00023968
v 0.13160133 0.00793750 -0.00047753
v 0.13160133 0.00952500 -0.00047753
v 0.13154940 0.00793750 -0.00071175
v 0.13154940 0.00952500 -0.00071175
v 0.13147727 0.00793750 -0.00094056
v 0.13147727 0.00952500 -0.00094056
v 0.13138545 0.00793750 -0.00116220
v 0.13138545 0.00952500 -0.00116220
v 0.13127467 0.00793750 -0.00137500
v 0.13127467 0.00952500 -0.00137500
v 0.13114578 0.00793750 -0.00157734
v 0.13114578 0.00952500 -0.00157734
v 0.13099973 0.00793750 -0.00176767
v 0.13099973 0.00952500 -0.00176767
v 0.13083765 0.00793750 -0.00194454
v 0.13083765 0.00952500 -0.00194454
v 0.13066077 0.00793750 -0.00210662
v 0.13066077 0.00952500 -0.00210662
v 0.13047044 0.00793750 -0.00225267
v 0.13047044 0.00952500 -0.00225267
v 0.13026811 0.00793750 -0.00238157
v 0.13026811 0.00952500 -0.00238157
v 0.13005531 0.00793750 -0.00249235
v 0.13005531 0.00952500 -0.00249235
v 0.12983365 0.00793750 -0.00258415
v 0.12983365 0.00952500 -0.00258415
v 0.12960486 0.00793750 -0.00265630
v 0.12960486 0.00952500 -0.00265630
v 0.12937064 0.00793750 -0.00270822
v 0.12937064 0.00952500 -0.00270822
v 0.12913278 0.00793750 -0.00273954
v 0.12913278 0.00952500 -0.00273954
v 0.12889311 0.00793750 -0.00275000
v 0.12889311 0.00952500 -0.00275000
v 0.12865342 0.00793750 -0.00273954
v 0.12865342 0.00952500 -0.00273954
v 0.12841557 0.00793750 -0.00270822
v 0.12841557 0.00952500 -0.00270822
v 0.12818135 0.00793750 -0.00265630
v 0.12818135 0.00952500 -0.00265630
v 0.12795255 0.00793750 -0.00258415
v 0.12795255 0.00952500 -0.00258415
v 0.12773091 0.00793750 -0.00249235
v 0.12773091 0.00952500 -0.00249235
v 0.12751810 0.00793750 -0.00238157
v 0.12751810 0.00952500 -0.00238157
v 0.12731577 0.00793750 -0.00225267
v 0.12731577 0.00952500 -0.00225267
v 0.12712544 0.00793750 -0.00210662
v 0.12712544 0.00952500 -0.00210662
v 0.12694857 0.00793750 -0.00194454
v 0.12694857 0.00952500 -0.00194454
v 0.12678649 0.00793750 -0.00176767
v 0.12678649 0.00952500 -0.00176767
v 0.12664044 0.00793750 -0.00157734
v 0.12664044 0.00952500 -0.00157734
v 0.12651153 0.00793750 -0.00137500
v 0.12651153 0.00952500 -0.00137500
v 0.12640075 0.00793750 -0.00116220
v 0.12640075 0.00952500 -0.00116220
v 0.12630895 0.00793750 -0.00094056
v 0.12630895 0.00952500 -0.00094056
v 0.12623681 0.00793750 -0.00071175
v 0.12623681 0.00952500 -0.00071175
v 0.12618488 0.00793750 -0.00047753
v 0.12618488 0.00952500 -0.00047753
v 0.12615357 0.00793750 -0.00023968
v 0.12615357 0.00952500 -0.00023968
v 0.12614310 0.00793750 -0.00000000
v 0.12614310 0.00952500 -0.00000000
v 0.12615357 0.00793750 0.00023968
v 0.12615357 0.00952500 0.00023968
v 0.12618488 0.00793750 0.00047753
v 0.12618488 0.00952500 0.00047753
v 0.12623681 0.00793750 0.00071175
v 0.12623681 0.00952500 0.00071175
v 0.12630895 0.00793750 0.00094056
v 0.12630895 0.00952500 0.00094056
v 0.12640075 0.00793750 0.00116220
v 0.12640075 0.00952500 0.00116220
v 0.12651153 0.00793750 0.00137500
v 0.12651153 0.00952500 0.00137500
v 0.12664044 0.00793750 0.00157734
v 0.12664044 0.00952500 0.00157734
v 0.12678649 0.00793750 0.00176767
v 0.12678649 0.00952500 0.00176767
v 0.12694857 0.00793750 0.00194454
v 0.12694857 0.00952500 0.00194454
v 0.12712544 0.00793750 0.00210662
v 0.12712544 0.00952500 0.00210662
v 0.12731577 0.00793750 0.00225267
v 0.12731577 0.00952500 0.00225267
v 0.12751810 0.00793750 0.00238157
v 0.12751810 0.00952500 0.00238157
v 0.12773091 0.00793750 0.00249235
v 0.12773091 0.00952500 0.00249235
v 0.12795255 0.00793750 0.00258415
v 0.12795255 0.00952500 0.00258415
v 0.12818135 0.00793750 0.00265630
v 0.12818135 0.00952500 0.00265630
v 0.12841557 0.00793750 0.00270822
v 0.12841557 0.00952500 0.00270822
v 0.12865342 0.00793750 0.00273954
v 0.12865342 0.00952500 0.00273954
v 0.12913278 -0.00952500 -0.00273954
v 0.12889311 -0.00952500 -0.00275000
v 0.21958621 -0.00952500 -0.00952500
v 0.12865342 -0.00952500 -0.00273954
v 0.08831154 -0.00952500 -0.00137500
v 0.08820076 -0.00952500 -0.00116220
v 0.00000000 -0.00952500 -0.00952500
v 0.08810895 -0.00952500 -0.00094056
v 0.08803681 -0.00952500 -0.00071175
v 0.09294577 -0.00952500 0.00157734
v 0.09307467 -0.00952500 0.00137500
v 0.21958621 -0.00952500 0.00952500
v 0.12712544 -0.00952500 -0.00210662
v 0.12694857 -0.00952500 -0.00194454
v 0.09344310 -0.00952500 0.00000000
v 0.12678649 -0.00952500 -0.00176767
v 0.09307467 -0.00952500 -0.00137500
v 0.09294577 -0.00952500 -0.00157734
v 0.09279973 -0.00952500 -0.00176767
v 0.09263765 -0.00952500 -0.00194454
v 0.09140486 -0.00952500 -0.00265630
v 0.09117064 -0.00952500 -0.00270822
v 0.09093279 -0.00952500 -0.00273954
v 0.09069310 -0.00952500 -0.00275000
v 0.08795357 -0.00952500 0.00023968
v 0.08798488 -0.00952500 0.00047753
v 0.00000000 -0.00952500 0.00952500
v 0.08803681 -0.00952500 0.00071175
v 0.08810895 -0.00952500 0.00094056
v 0.08820076 -0.00952500 0.00116220
v 0.08831154 -0.00952500 0.00137500
v 0.08844044 -0.00952500 0.00157734
v 0.12795255 -0.00952500 -0.00258415
v 0.12773091 -0.00952500 -0.00249235
v 0.09340133 -0.00952500 -0.00047753
v 0.09334940 -0.00952500 -0.00071175
v 0.09327726 -0.00952500 -0.00094056
v 0.09318545 -0.00952500 -0.00116220
v 0.09246077 -0.00952500 -0.00210662
v 0.09227044 -0.00952500 -0.00225267
v 0.09206811 -0.00952500 -0.00238157
v 0.09185530 -0.00952500 -0.00249235
v 0.09163366 -0.00952500 -0.00258415
v 0.08931810 -0.00952500 -0.00238157
v 0.08911577 -0.00952500 -0.00225267
v 0.08892544 -0.00952500 -0.00210662
v 0.08874856 -0.00952500 -0.00194454
v 0.08858648 -0.00952500 -0.00176767
v 0.08844044 -0.00952500 -0.00157734
v 0.08798488 -0.00952500 -0.00047753
v 0.08795357 -0.00952500 -0.00023968
v 0.08794311 -0.00952500 0.00000000
v 0.09185530 -0.00952500 0.00249235
v 0.09206811 -0.00952500 0.00238157
v 0.09227044 -0.00952500 0.00225267
v 0.09246077 -0.00952500 0.00210662
v 0.09263765 -0.00952500 0.00194454
v 0.09279973 -0.00952500 0.00176767
v 0.12751810 -0.00952500 -0.00238157
v 0.12731577 -0.00952500 -0.00225267
v 0.13066077 -0.00952500 0.00210662
v 0.13083765 -0.00952500 0.00194454
v 0.13147727 -0.00952500 -0.00094056
v 0.13138545 -0.00952500 -0.00116220
v 0.09343264 -0.00952500 -0.00023968
v 0.12841557 -0.00952500 -0.00270822
v 0.12818135 -0.00952500 -0.00265630
v 0.09045342 -0.00952500 -0.00273954
v 0.09021557 -0.00952500 -0.00270822
v 0.08998135 -0.00952500 -0.00265630
v 0.08975255 -0.00952500 -0.00258415
v 0.08953091 -0.00952500 -0.00249235
v 0.08858648 -0.00952500 0.00176767
v 0.08874856 -0.00952500 0.00194454
v 0.08892544 -0.00952500 0.00210662
v 0.08911577 -0.00952500 0.00225267
v 0.08931810 -0.00952500 0.00238157
v 0.08953091 -0.00952500 0.00249235
v 0.12664044 -0.00952500 -0.00157734
v 0.12651153 -0.00952500 -0.00137500
v 0.12640075 -0.00952500 -0.00116220
v 0.09327726 -0.00952500 0.00094056
v 0.12623681 -0.00952500 0.00071175
v 0.12630895 -0.00952500 0.00094056
v 0.12694857 -0.00952500 0.00194454
v 0.12678649 -0.00952500 0.00176767
v 0.12664044 -0.00952500 0.00157734
v 0.13127467 -0.00952500 -0.00137500
v 0.13114578 -0.00952500 -0.00157734
v 0.13099973 -0.00952500 -0.00176767
v 0.12630895 -0.00952500 -0.00094056
v 0.12623681 -0.00952500 -0.00071175
v 0.12618488 -0.00952500 -0.00047753
v 0.12640075 -0.00952500 0.00116220
v 0.12651153 -0.00952500 0.00137500
v 0.12751810 -0.00952500 0.00238157
v 0.12773091 -0.00952500 0.00249235
v 0.13099973 -0.00952500 0.00176767
v 0.13114578 -0.00952500 0.00157734
v 0.13127467 -0.00952500 0.00137500
v 0.13138545 -0.00952500 0.00116220
v 0.13147727 -0.00952500 0.00094056
v 0.13154940 -0.00952500 0.00071175
v 0.13083765 -0.00952500 -0.00194454
v 0.13066077 -0.00952500 -0.00210662
v 0.13047044 -0.00952500 -0.00225267
v 0.13026811 -0.00952500 -0.00238157
v 0.13005531 -0.00952500 -0.00249235
v 0.12983365 -0.00952500 -0.00258415
v 0.09045342 -0.00952500 0.00273954
v 0.09021557 -0.00952500 0.00270822
v 0.09069310 -0.00952500 0.00275000
v 0.09093279 -0.00952500 0.00273954
v 0.09117064 -0.00952500 0.00270822
v 0.13163264 -0.00952500 -0.00023968
v 0.13160133 -0.00952500 -0.00047753
v 0.13154940 -0.00952500 -0.00071175
v 0.08975255 -0.00952500 0.00258415
v 0.08998135 -0.00952500 0.00265630
v 0.09140486 -0.00952500 0.00265630
v 0.09163366 -0.00952500 0.00258415
v 0.09334940 -0.00952500 0.00071175
v 0.12615357 -0.00952500 0.00023968
v 0.12618488 -0.00952500 0.00047753
v 0.13160133 -0.00952500 0.00047753
v 0.13163264 -0.00952500 0.00023968
v 0.13164310 -0.00952500 0.00000000
v 0.12960486 -0.00952500 -0.00265630
v 0.12937064 -0.00952500 -0.00270822
v 0.12712544 -0.00952500 0.00210662
v 0.12731577 -0.00952500 0.00225267
v 0.12795255 -0.00952500 0.00258415
v 0.12818135 -0.00952500 0.00265630
v 0.12841557 -0.00952500 0.00270822
v 0.12615357 -0.00952500 -0.00023968
v 0.12614310 -0.00952500 -0.00000000
v 0.09343264 -0.00952500 0.00023968
v 0.09340133 -0.00952500 0.00047753
v 0.09318545 -0.00952500 0.00116220
v 0.12865342 -0.00952500 0.00273954
v 0.12889311 -0.00952500 0.00275000
v 0.12913278 -0.00952500 0.00273954
v 0.12937064 -0.00952500 0.00270822
v 0.12960486 -0.00952500 0.00265630
v 0.12983365 -0.00952500 0.00258415
v 0.13005531 -0.00952500 0.00249235
v 0.13026811 -0.00952500 0.00238157
v 0.13047044 -0.00952500 0.00225267
v 0.20541397 -0.00085000 0.00952500
v 0.20534548 -0.00071845 0.00952500
v 0.01440000 0.00000000 0.00952500
v 0.20857973 -0.00014816 0.00952500
v 0.20858622 0.00000000 0.00952500
v 0.21958621 0.00952500 0.00952500
v 0.20857973 0.00014816 0.00952500
v 0.20856038 0.00029520 0.00952500
v 0.20835845 0.00085000 0.00952500
v 0.20842694 0.00071845 0.00952500
v 0.01429748 0.00058143 0.00952500
v 0.01434207 0.00043999 0.00952500
v 0.20524414 -0.00043999 0.00952500
v 0.01437417 0.00029520 0.00952500
v 0.01439353 0.00014816 0.00952500
v 0.20528874 -0.00058143 0.00952500
v 0.01100647 0.00014816 0.00952500
v 0.01102583 0.00029520 0.00952500
v 0.00000000 0.00952500 0.00952500
v 0.20848368 0.00058143 0.00952500
v 0.20852828 0.00043999 0.00952500
v 0.01400228 0.00109274 0.00952500
v 0.01409256 0.00097508 0.00952500
v 0.20579347 -0.00130228 0.00952500
v 0.20568413 -0.00120208 0.00952500
v 0.20528874 0.00058143 0.00952500
v 0.20534548 0.00071845 0.00952500
v 0.01417224 0.00085000 0.00952500
v 0.01424072 0.00071845 0.00952500
v 0.20558393 -0.00109274 0.00952500
v 0.20549366 -0.00097508 0.00952500
v 0.20856038 -0.00029520 0.00952500
v 0.20852828 -0.00043999 0.00952500
v 0.20848368 -0.00058143 0.00952500
v 0.01110252 -0.00058143 0.00952500
v 0.01105793 -0.00043999 0.00952500
v 0.01299520 0.00167417 0.00952500
v 0.01313999 0.00164207 0.00952500
v 0.01328143 0.00159748 0.00952500
v 0.01341845 0.00154072 0.00952500
v 0.01355000 0.00147224 0.00952500
v 0.01367508 0.00139256 0.00952500
v 0.20659101 -0.00167417 0.00952500
v 0.20644622 -0.00164207 0.00952500
v 0.20630477 -0.00159748 0.00952500
v 0.20616776 -0.00154072 0.00952500
v 0.20842694 -0.00071845 0.00952500
v 0.20835845 -0.00085000 0.00952500
v 0.20827878 -0.00097508 0.00952500
v 0.01434207 -0.00043999 0.00952500
v 0.01429748 -0.00058143 0.00952500
v 0.20519269 0.00014816 0.00952500
v 0.20518620 0.00000000 0.00952500
v 0.20519269 -0.00014816 0.00952500
v 0.20521204 0.00029520 0.00952500
v 0.20524414 0.00043999 0.00952500
v 0.01379274 0.00130228 0.00952500
v 0.01390208 0.00120208 0.00952500
v 0.20603621 -0.00147224 0.00952500
v 0.20591113 -0.00139256 0.00952500
v 0.01437417 -0.00029520 0.00952500
v 0.01139772 -0.00109274 0.00952500
v 0.01130744 -0.00097508 0.00952500
v 0.01102583 -0.00029520 0.00952500
v 0.01100647 -0.00014816 0.00952500
v 0.01100000 0.00000000 0.00952500
v 0.20797895 0.00130228 0.00952500
v 0.20808829 0.00120208 0.00952500
v 0.20760466 -0.00154072 0.00952500
v 0.20746765 -0.00159748 0.00952500
v 0.20732620 -0.00164207 0.00952500
v 0.01105793 0.00043999 0.00952500
v 0.01110252 0.00058143 0.00952500
v 0.01115928 0.00071845 0.00952500
v 0.01211857 0.00159748 0.00952500
v 0.01226001 0.00164207 0.00952500
v 0.20541397 0.00085000 0.00952500
v 0.20549366 0.00097508 0.00952500
v 0.20558393 0.00109274 0.00952500
v 0.20568413 0.00120208 0.00952500
v 0.20579347 0.00130228 0.00952500
v 0.20591113 0.00139256 0.00952500
v 0.20603621 0.00147224 0.00952500
v 0.20616776 0.00154072 0.00952500
v 0.20630477 0.00159748 0.00952500
v 0.20644622 0.00164207 0.00952500
v 0.20818849 0.00109274 0.00952500
v 0.20827878 0.00097508 0.00952500
v 0.20797895 -0.00130228 0.00952500
v 0.20786129 -0.00139256 0.00952500
v 0.20773621 -0.00147224 0.00952500
v 0.20718141 -0.00167417 0.00952500
v 0.20703438 -0.00169353 0.00952500
v 0.20688622 -0.00170000 0.00952500
v 0.01211857 -0.00159748 0.00952500
v 0.01198155 -0.00154072 0.00952500
v 0.01185000 -0.00147224 0.00952500
v 0.01172492 -0.00139256 0.00952500
v 0.01122776 -0.00085000 0.00952500
v 0.01115928 -0.00071845 0.00952500
v 0.01122776 0.00085000 0.00952500
v 0.01130744 0.00097508 0.00952500
v 0.01139772 0.00109274 0.00952500
v 0.20732620 0.00164207 0.00952500
v 0.20746765 0.00159748 0.00952500
v 0.20760466 0.00154072 0.00952500
v 0.20818849 -0.00109274 0.00952500
v 0.20808829 -0.00120208 0.00952500
v 0.01439353 -0.00014816 0.00952500
v 0.20673804 -0.00169353 0.00952500
v 0.01424072 -0.00071845 0.00952500
v 0.01417224 -0.00085000 0.00952500
v 0.01409256 -0.00097508 0.00952500
v 0.01160726 -0.00130228 0.00952500
v 0.01149792 -0.00120208 0.00952500
v 0.01149792 0.00120208 0.00952500
v 0.01160726 0.00130228 0.00952500
v 0.01172492 0.00139256 0.00952500
v 0.20659101 0.00167417 0.00952500
v 0.20673804 0.00169353 0.00952500
v 0.20688622 0.00170000 0.00952500
v 0.20773621 0.00147224 0.00952500
v 0.20786129 0.00139256 0.00952500
v 0.01400228 -0.00109274 0.00952500
v 0.01390208 -0.00120208 0.00952500
v 0.01379274 -0.00130228 0.00952500
v 0.01313999 -0.00164207 0.00952500
v 0.01299520 -0.00167417 0.00952500
v 0.01185000 0.00147224 0.00952500
v 0.01198155 0.00154072 0.00952500
v 0.01240480 0.00167417 0.00952500
v 0.01255183 0.00169353 0.00952500
v 0.01270000 0.00170000 0.00952500
v 0.20703438 0.00169353 0.00952500
v 0.20718141 0.00167417 0.00952500
v 0.01328143 -0.00159748 0.00952500
v 0.01284816 -0.00169353 0.00952500
v 0.01270000 -0.00170000 0.00952500
v 0.01255183 -0.00169353 0.00952500
v 0.01240480 -0.00167417 0.00952500
v 0.01226001 -0.00164207 0.00952500
v 0.20521204 -0.00029520 0.00952500
v 0.01284816 0.00169353 0.00952500
v 0.01367508 -0.00139256 0.00952500
v 0.01355000 -0.00147224 0.00952500
v 0.01341845 -0.00154072 0.00952500
v 0.00000000 0.00793750 -0.00793750
v 0.21958621 0.00793750 0.00793750
v 0.21958621 0.00793750 -0.00793750
v 0.00000000 0.00793750 0.00793750
v 0.08931810 -0.00793750 0.00238157
v 0.08911577 -0.00793750 0.00225267
v 0.00000000 -0.00793750 0.00793750
v 0.08831154 -0.00793750 0.00137500
v 0.08844044 -0.00793750 0.00157734
v 0.08858648 -0.00793750 0.00176767
v 0.09344310 -0.00793750 0.00000000
v 0.12751810 -0.00793750 0.00238157
v 0.12731577 -0.00793750 0.00225267
v 0.08892544 -0.00793750 0.00210662
v 0.08874856 -0.00793750 0.00194454
v 0.08820076 -0.00793750 0.00116220
v 0.08810895 -0.00793750 0.00094056
v 0.08803681 -0.00793750 0.00071175
v 0.09318545 -0.00793750 0.00116220
v 0.12865342 -0.00793750 0.00273954
v 0.09327726 -0.00793750 0.00094056
v 0.12841557 -0.00793750 0.00270822
v 0.12818135 -0.00793750 0.00265630
v 0.12795255 -0.00793750 0.00258415
v 0.12773091 -0.00793750 0.00249235
v 0.09334940 -0.00793750 0.00071175
v 0.09340133 -0.00793750 0.00047753
v 0.09307467 -0.00793750 0.00137500
v 0.09294577 -0.00793750 0.00157734
v 0.21958621 -0.00793750 0.00793750
v 0.09279973 -0.00793750 0.00176767
v 0.09263765 -0.00793750 0.00194454
v 0.09140486 -0.00793750 0.00265630
v 0.09117064 -0.00793750 0.00270822
v 0.09093279 -0.00793750 0.00273954
v 0.09069310 -0.00793750 0.00275000
v 0.09045342 -0.00793750 0.00273954
v 0.09021557 -0.00793750 0.00270822
v 0.08998135 -0.00793750 0.00265630
v 0.08803681 -0.00793750 -0.00071175
v 0.00000000 -0.00793750 -0.00793750
v 0.08798488 -0.00793750 -0.00047753
v 0.08795357 -0.00793750 -0.00023968
v 0.13114578 -0.00793750 -0.00157734
v 0.13127467 -0.00793750 -0.00137500
v 0.21958621 -0.00793750 -0.00793750
v 0.09343264 -0.00793750 0.00023968
v 0.09246077 -0.00793750 0.00210662
v 0.09227044 -0.00793750 0.00225267
v 0.09206811 -0.00793750 0.00238157
v 0.09185530 -0.00793750 0.00249235
v 0.09163366 -0.00793750 0.00258415
v 0.08975255 -0.00793750 0.00258415
v 0.08953091 -0.00793750 0.00249235
v 0.08798488 -0.00793750 0.00047753
v 0.08795357 -0.00793750 0.00023968
v 0.08794311 -0.00793750 0.00000000
v 0.12712544 -0.00793750 0.00210662
v 0.12694857 -0.00793750 0.00194454
v 0.12678649 -0.00793750 0.00176767
v 0.09327726 -0.00793750 -0.00094056
v 0.12623681 -0.00793750 -0.00071175
v 0.12630895 -0.00793750 -0.00094056
v 0.12913278 -0.00793750 0.00273954
v 0.12889311 -0.00793750 0.00275000
v 0.08810895 -0.00793750 -0.00094056
v 0.08820076 -0.00793750 -0.00116220
v 0.08831154 -0.00793750 -0.00137500
v 0.09263765 -0.00793750 -0.00194454
v 0.09279973 -0.00793750 -0.00176767
v 0.09294577 -0.00793750 -0.00157734
v 0.09307467 -0.00793750 -0.00137500
v 0.13099973 -0.00793750 -0.00176767
v 0.13114578 -0.00793750 0.00157734
v 0.13099973 -0.00793750 0.00176767
v 0.08844044 -0.00793750 -0.00157734
v 0.08858648 -0.00793750 -0.00176767
v 0.08874856 -0.00793750 -0.00194454
v 0.08931810 -0.00793750 -0.00238157
v 0.08953091 -0.00793750 -0.00249235
v 0.09185530 -0.00793750 -0.00249235
v 0.09206811 -0.00793750 -0.00238157
v 0.12664044 -0.00793750 0.00157734
v 0.12651153 -0.00793750 0.00137500
v 0.12640075 -0.00793750 0.00116220
v 0.12630895 -0.00793750 0.00094056
v 0.12623681 -0.00793750 0.00071175
v 0.12618488 -0.00793750 0.00047753
v 0.13138545 -0.00793750 -0.00116220
v 0.13147727 -0.00793750 -0.00094056
v 0.13154940 -0.00793750 -0.00071175
v 0.13147727 -0.00793750 0.00094056
v 0.13138545 -0.00793750 0.00116220
v 0.13127467 -0.00793750 0.00137500
v 0.13083765 -0.00793750 0.00194454
v 0.13066077 -0.00793750 0.00210662
v 0.13047044 -0.00793750 0.00225267
v 0.13026811 -0.00793750 0.00238157
v 0.13005531 -0.00793750 0.00249235
v 0.12983365 -0.00793750 0.00258415
v 0.08892544 -0.00793750 -0.00210662
v 0.08911577 -0.00793750 -0.00225267
v 0.09227044 -0.00793750 -0.00225267
v 0.09246077 -0.00793750 -0.00210662
v 0.12640075 -0.00793750 -0.00116220
v 0.12651153 -0.00793750 -0.00137500
v 0.12664044 -0.00793750 -0.00157734
v 0.12678649 -0.00793750 -0.00176767
v 0.12694857 -0.00793750 -0.00194454
v 0.12712544 -0.00793750 -0.00210662
v 0.08975255 -0.00793750 -0.00258415
v 0.08998135 -0.00793750 -0.00265630
v 0.09021557 -0.00793750 -0.00270822
v 0.09117064 -0.00793750 -0.00270822
v 0.09140486 -0.00793750 -0.00265630
v 0.09163366 -0.00793750 -0.00258415
v 0.09334940 -0.00793750 -0.00071175
v 0.12615357 -0.00793750 -0.00023968
v 0.12618488 -0.00793750 -0.00047753
v 0.13005531 -0.00793750 -0.00249235
v 0.13026811 -0.00793750 -0.00238157
v 0.13047044 -0.00793750 -0.00225267
v 0.13163264 -0.00793750 0.00023968
v 0.13160133 -0.00793750 0.00047753
v 0.13154940 -0.00793750 0.00071175
v 0.12960486 -0.00793750 0.00265630
v 0.12937064 -0.00793750 0.00270822
v 0.09045342 -0.00793750 -0.00273954
v 0.09069310 -0.00793750 -0.00275000
v 0.09093279 -0.00793750 -0.00273954
v 0.13066077 -0.00793750 -0.00210662
v 0.13083765 -0.00793750 -0.00194454
v 0.13160133 -0.00793750 -0.00047753
v 0.13163264 -0.00793750 -0.00023968
v 0.13164310 -0.00793750 0.00000000
v 0.12615357 -0.00793750 0.00023968
v 0.12614310 -0.00793750 -0.00000000
v 0.09343264 -0.00793750 -0.00023968
v 0.09340133 -0.00793750 -0.00047753
v 0.12731577 -0.00793750 -0.00225267
v 0.12751810 -0.00793750 -0.00238157
v 0.12773091 -0.00793750 -0.00249235
v 0.12795255 -0.00793750 -0.00258415
v 0.12818135 -0.00793750 -0.00265630
v 0.12841557 -0.00793750 -0.00270822
v 0.12865342 -0.00793750 -0.00273954
v 0.09318545 -0.00793750 -0.00116220
v 0.12889311 -0.00793750 -0.00275000
v 0.12913278 -0.00793750 -0.00273954
v 0.12937064 -0.00793750 -0.00270822
v 0.12960486 -0.00793750 -0.00265630
v 0.12983365 -0.00793750 -0.00258415
v 0.00000000 0.00952500 -0.00952500
v 0.21958621 0.00952500 -0.00952500
v 0.01100647 0.00014816 0.00793750
v 0.01100000 -0.00000000 0.00793750
v 0.20835845 -0.00085000 0.00793750
v 0.20842694 -0.00071845 0.00793750
v 0.01100647 -0.00014816 0.00793750
v 0.01102583 -0.00029520 0.00793750
v 0.01105793 -0.00043999 0.00793750
v 0.20521204 -0.00029520 0.00793750
v 0.20524414 -0.00043999 0.00793750
v 0.20528874 -0.00058143 0.00793750
v 0.20534548 -0.00071845 0.00793750
v 0.20848368 -0.00058143 0.00793750
v 0.20852828 -0.00043999 0.00793750
v 0.20856038 -0.00029520 0.00793750
v 0.20856038 0.00029520 0.00793750
v 0.20852828 0.00043999 0.00793750
v 0.20848368 0.00058143 0.00793750
v 0.20842694 0.00071845 0.00793750
v 0.20541397 0.00085000 0.00793750
v 0.20534548 0.00071845 0.00793750
v 0.20760466 -0.00154072 0.00793750
v 0.20773621 -0.00147224 0.00793750
v 0.20857973 -0.00014816 0.00793750
v 0.20858622 0.00000000 0.00793750
v 0.20857973 0.00014816 0.00793750
v 0.01400228 0.00109274 0.00793750
v 0.01390208 0.00120208 0.00793750
v 0.20524414 0.00043999 0.00793750
v 0.01110252 -0.00058143 0.00793750
v 0.01115928 -0.00071845 0.00793750
v 0.01122776 -0.00085000 0.00793750
v 0.01130744 -0.00097508 0.00793750
v 0.01139772 -0.00109274 0.00793750
v 0.01149792 -0.00120208 0.00793750
v 0.01185000 -0.00147224 0.00793750
v 0.01198155 -0.00154072 0.00793750
v 0.01211857 -0.00159748 0.00793750
v 0.01226001 -0.00164207 0.00793750
v 0.20541397 -0.00085000 0.00793750
v 0.20549366 -0.00097508 0.00793750
v 0.20558393 -0.00109274 0.00793750
v 0.20659101 -0.00167417 0.00793750
v 0.20673804 -0.00169353 0.00793750
v 0.01160726 -0.00130228 0.00793750
v 0.01172492 -0.00139256 0.00793750
v 0.01240480 -0.00167417 0.00793750
v 0.01255183 -0.00169353 0.00793750
v 0.01270000 -0.00170000 0.00793750
v 0.20568413 -0.00120208 0.00793750
v 0.20579347 -0.00130228 0.00793750
v 0.20591113 -0.00139256 0.00793750
v 0.20644622 -0.00164207 0.00793750
v 0.20786129 -0.00139256 0.00793750
v 0.20797895 -0.00130228 0.00793750
v 0.20808829 -0.00120208 0.00793750
v 0.20518620 0.00000000 0.00793750
v 0.01429748 -0.00058143 0.00793750
v 0.01434207 -0.00043999 0.00793750
v 0.01110252 0.00058143 0.00793750
v 0.01105793 0.00043999 0.00793750
v 0.01102583 0.00029520 0.00793750
v 0.20603621 -0.00147224 0.00793750
v 0.20616776 -0.00154072 0.00793750
v 0.20630477 -0.00159748 0.00793750
v 0.20718141 -0.00167417 0.00793750
v 0.20732620 -0.00164207 0.00793750
v 0.20746765 -0.00159748 0.00793750
v 0.20818849 -0.00109274 0.00793750
v 0.20827878 -0.00097508 0.00793750
v 0.01437417 -0.00029520 0.00793750
v 0.01439353 -0.00014816 0.00793750
v 0.20519269 0.00014816 0.00793750
v 0.01440000 0.00000000 0.00793750
v 0.01439353 0.00014816 0.00793750
v 0.01437417 0.00029520 0.00793750
v 0.20688622 -0.00170000 0.00793750
v 0.20703438 -0.00169353 0.00793750
v 0.20835845 0.00085000 0.00793750
v 0.20827878 0.00097508 0.00793750
v 0.20818849 0.00109274 0.00793750
v 0.01400228 -0.00109274 0.00793750
v 0.01409256 -0.00097508 0.00793750
v 0.20521204 0.00029520 0.00793750
v 0.01434207 0.00043999 0.00793750
v 0.01429748 0.00058143 0.00793750
v 0.01424072 0.00071845 0.00793750
v 0.01211857 0.00159748 0.00793750
v 0.01198155 0.00154072 0.00793750
v 0.20808829 0.00120208 0.00793750
v 0.20797895 0.00130228 0.00793750
v 0.20786129 0.00139256 0.00793750
v 0.01355000 -0.00147224 0.00793750
v 0.01367508 -0.00139256 0.00793750
v 0.01417224 -0.00085000 0.00793750
v 0.01424072 -0.00071845 0.00793750
v 0.01417224 0.00085000 0.00793750
v 0.01409256 0.00097508 0.00793750
v 0.01379274 0.00130228 0.00793750
v 0.01367508 0.00139256 0.00793750
v 0.01355000 0.00147224 0.00793750
v 0.01160726 0.00130228 0.00793750
v 0.01149792 0.00120208 0.00793750
v 0.01139772 0.00109274 0.00793750
v 0.01130744 0.00097508 0.00793750
v 0.01122776 0.00085000 0.00793750
v 0.01115928 0.00071845 0.00793750
v 0.20773621 0.00147224 0.00793750
v 0.20760466 0.00154072 0.00793750
v 0.20746765 0.00159748 0.00793750
v 0.20644622 0.00164207 0.00793750
v 0.20630477 0.00159748 0.00793750
v 0.20616776 0.00154072 0.00793750
v 0.20603621 0.00147224 0.00793750
v 0.20591113 0.00139256 0.00793750
v 0.20579347 0.00130228 0.00793750
v 0.20568413 0.00120208 0.00793750
v 0.20558393 0.00109274 0.00793750
v 0.20549366 0.00097508 0.00793750
v 0.01299520 -0.00167417 0.00793750
v 0.01313999 -0.00164207 0.00793750
v 0.20528874 0.00058143 0.00793750
v 0.01341845 0.00154072 0.00793750
v 0.20519269 -0.00014816 0.00793750
v 0.01284816 -0.00169353 0.00793750
v 0.01328143 -0.00159748 0.00793750
v 0.01341845 -0.00154072 0.00793750
v 0.01379274 -0.00130228 0.00793750
v 0.01390208 -0.00120208 0.00793750
v 0.20732620 0.00164207 0.00793750
v 0.20718141 0.00167417 0.00793750
v 0.20703438 0.00169353 0.00793750
v 0.20688622 0.00170000 0.00793750
v 0.20673804 0.00169353 0.00793750
v 0.20659101 0.00167417 0.00793750
v 0.01328143 0.00159748 0.00793750
v 0.01313999 0.00164207 0.00793750
v 0.01299520 0.00167417 0.00793750
v 0.01284816 0.00169353 0.00793750
v 0.01270000 0.00170000 0.00793750
v 0.01255183 0.00169353 0.00793750
v 0.01240480 0.00167417 0.00793750
v 0.01226001 0.00164207 0.00793750
v 0.01185000 0.00147224 0.00793750
v 0.01172492 0.00139256 0.00793750
v 0.01100647 0.00014816 -0.00952500
v 0.01100000 -0.00000000 -0.00952500
v 0.20835845 -0.00085000 -0.00952500
v 0.20842694 -0.00071845 -0.00952500
v 0.20848368 -0.00058143 -0.00952500
v 0.20852828 -0.00043999 -0.00952500
v 0.01100647 -0.00014816 -0.00952500
v 0.01102583 -0.00029520 -0.00952500
v 0.01105793 -0.00043999 -0.00952500
v 0.20857973 0.00014816 -0.00952500
v 0.20856038 0.00029520 -0.00952500
v 0.20521204 -0.00029520 -0.00952500
v 0.20524414 -0.00043999 -0.00952500
v 0.20528874 -0.00058143 -0.00952500
v 0.20534548 -0.00071845 -0.00952500
v 0.20852828 0.00043999 -0.00952500
v 0.20848368 0.00058143 -0.00952500
v 0.20842694 0.00071845 -0.00952500
v 0.20856038 -0.00029520 -0.00952500
v 0.20857973 -0.00014816 -0.00952500
v 0.20858622 0.00000000 -0.00952500
v 0.20541397 0.00085000 -0.00952500
v 0.20534548 0.00071845 -0.00952500
v 0.20528874 0.00058143 -0.00952500
v 0.20524414 0.00043999 -0.00952500
v 0.01110252 -0.00058143 -0.00952500
v 0.01115928 -0.00071845 -0.00952500
v 0.01122776 -0.00085000 -0.00952500
v 0.01130744 -0.00097508 -0.00952500
v 0.01139772 -0.00109274 -0.00952500
v 0.01149792 -0.00120208 -0.00952500
v 0.01185000 -0.00147224 -0.00952500
v 0.01198155 -0.00154072 -0.00952500
v 0.01211857 -0.00159748 -0.00952500
v 0.01226001 -0.00164207 -0.00952500
v 0.20541397 -0.00085000 -0.00952500
v 0.20549366 -0.00097508 -0.00952500
v 0.20558393 -0.00109274 -0.00952500
v 0.20732620 -0.00164207 -0.00952500
v 0.20746765 -0.00159748 -0.00952500
v 0.20760466 -0.00154072 -0.00952500
v 0.20773621 -0.00147224 -0.00952500
v 0.20518620 0.00000000 -0.00952500
v 0.01429748 -0.00058143 -0.00952500
v 0.01434207 -0.00043999 -0.00952500
v 0.01440000 0.00000000 -0.00952500
v 0.01439353 0.00014816 -0.00952500
v 0.01160726 -0.00130228 -0.00952500
v 0.01172492 -0.00139256 -0.00952500
v 0.01240480 -0.00167417 -0.00952500
v 0.01255183 -0.00169353 -0.00952500
v 0.01270000 -0.00170000 -0.00952500
v 0.20568413 -0.00120208 -0.00952500
v 0.20579347 -0.00130228 -0.00952500
v 0.20591113 -0.00139256 -0.00952500
v 0.20603621 -0.00147224 -0.00952500
v 0.20616776 -0.00154072 -0.00952500
v 0.20630477 -0.00159748 -0.00952500
v 0.20644622 -0.00164207 -0.00952500
v 0.20786129 -0.00139256 -0.00952500
v 0.20797895 -0.00130228 -0.00952500
v 0.20808829 -0.00120208 -0.00952500
v 0.01437417 -0.00029520 -0.00952500
v 0.01439353 -0.00014816 -0.00952500
v 0.20519269 0.00014816 -0.00952500
v 0.20818849 -0.00109274 -0.00952500
v 0.20827878 -0.00097508 -0.00952500
v 0.01400228 -0.00109274 -0.00952500
v 0.01409256 -0.00097508 -0.00952500
v 0.01110252 0.00058143 -0.00952500
v 0.01105793 0.00043999 -0.00952500
v 0.01102583 0.00029520 -0.00952500
v 0.20659101 -0.00167417 -0.00952500
v 0.20673804 -0.00169353 -0.00952500
v 0.20688622 -0.00170000 -0.00952500
v 0.20703438 -0.00169353 -0.00952500
v 0.20718141 -0.00167417 -0.00952500
v 0.20835845 0.00085000 -0.00952500
v 0.20827878 0.00097508 -0.00952500
v 0.20818849 0.00109274 -0.00952500
v 0.01355000 -0.00147224 -0.00952500
v 0.01367508 -0.00139256 -0.00952500
v 0.01417224 -0.00085000 -0.00952500
v 0.01424072 -0.00071845 -0.00952500
v 0.20521204 0.00029520 -0.00952500
v 0.01437417 0.00029520 -0.00952500
v 0.01434207 0.00043999 -0.00952500
v 0.01429748 0.00058143 -0.00952500
v 0.20808829 0.00120208 -0.00952500
v 0.20797895 0.00130228 -0.00952500
v 0.20786129 0.00139256 -0.00952500
v 0.01299520 -0.00167417 -0.00952500
v 0.01313999 -0.00164207 -0.00952500
v 0.01211857 0.00159748 -0.00952500
v 0.01198155 0.00154072 -0.00952500
v 0.20773621 0.00147224 -0.00952500
v 0.20760466 0.00154072 -0.00952500
v 0.20746765 0.00159748 -0.00952500
v 0.20644622 0.00164207 -0.00952500
v 0.20630477 0.00159748 -0.00952500
v 0.20616776 0.00154072 -0.00952500
v 0.20603621 0.00147224 -0.00952500
v 0.20591113 0.00139256 -0.00952500
v 0.20579347 0.00130228 -0.00952500
v 0.20568413 0.00120208 -0.00952500
v 0.20558393 0.00109274 -0.00952500
v 0.20549366 0.00097508 -0.00952500
v 0.20519269 -0.00014816 -0.00952500
v 0.01284816 -0.00169353 -0.00952500
v 0.01328143 -0.00159748 -0.00952500
v 0.01341845 -0.00154072 -0.00952500
v 0.01379274 -0.00130228 -0.00952500
v 0.01390208 -0.00120208 -0.00952500
v 0.01424072 0.00071845 -0.00952500
v 0.01417224 0.00085000 -0.00952500
v 0.01409256 0.00097508 -0.00952500
v 0.01160726 0.00130228 -0.00952500
v 0.01149792 0.00120208 -0.00952500
v 0.01139772 0.00109274 -0.00952500
v 0.01130744 0.00097508 -0.00952500
v 0.01122776 0.00085000 -0.00952500
v 0.01115928 0.00071845 -0.00952500
v 0.01400228 0.00109274 -0.00952500
v 0.01390208 0.00120208 -0.00952500
v 0.01379274 0.00130228 -0.00952500
v 0.01313999 0.00164207 -0.00952500
v 0.01299520 0.00167417 -0.00952500
v 0.20732620 0.00164207 -0.00952500
v 0.20718141 0.00167417 -0.00952500
v 0.20703438 0.00169353 -0.00952500
v 0.20688622 0.00170000 -0.00952500
v 0.20673804 0.00169353 -0.00952500
v 0.20659101 0.00167417 -0.00952500
v 0.01328143 0.00159748 -0.00952500
v 0.01367508 0.00139256 -0.00952500
v 0.01355000 0.00147224 -0.00952500
v 0.01341845 0.00154072 -0.00952500
v 0.01284816 0.00169353 -0.00952500
v 0.01270000 0.00170000 -0.00952500
v 0.01255183 0.00169353 -0.00952500
v 0.01185000 0.00147224 -0.00952500
v 0.01172492 0.00139256 -0.00952500
v 0.01240480 0.00167417 -0.00952500
v 0.01226001 0.00164207 -0.00952500
v 0.20856038 -0.00029520 -0.00793750
v 0.20852828 -0.00043999 -0.00793750
v 0.20848368 -0.00058143 -0.00793750
v 0.20541397 -0.00085000 -0.00793750
v 0.20534548 -0.00071845 -0.00793750
v 0.20856038 0.00029520 -0.00793750
v 0.20857973 0.00014816 -0.00793750
v 0.20858622 0.00000000 -0.00793750
v 0.20857973 -0.00014816 -0.00793750
v 0.20835845 0.00085000 -0.00793750
v 0.20842694 0.00071845 -0.00793750
v 0.20842694 -0.00071845 -0.00793750
v 0.20835845 -0.00085000 -0.00793750
v 0.20827878 -0.00097508 -0.00793750
v 0.01100647 0.00014816 -0.00793750
v 0.01102583 0.00029520 -0.00793750
v 0.20848368 0.00058143 -0.00793750
v 0.20852828 0.00043999 -0.00793750
v 0.01400228 -0.00109274 -0.00793750
v 0.01390208 -0.00120208 -0.00793750
v 0.20524414 -0.00043999 -0.00793750
v 0.01110252 -0.00058143 -0.00793750
v 0.01105793 -0.00043999 -0.00793750
v 0.20579347 -0.00130228 -0.00793750
v 0.20568413 -0.00120208 -0.00793750
v 0.20521204 -0.00029520 -0.00793750
v 0.20519269 -0.00014816 -0.00793750
v 0.01440000 0.00000000 -0.00793750
v 0.20518620 0.00000000 -0.00793750
v 0.01439353 0.00014816 -0.00793750
v 0.20519269 0.00014816 -0.00793750
v 0.20524414 0.00043999 -0.00793750
v 0.20528874 0.00058143 -0.00793750
v 0.20534548 0.00071845 -0.00793750
v 0.20541397 0.00085000 -0.00793750
v 0.20773621 -0.00147224 -0.00793750
v 0.20786129 -0.00139256 -0.00793750
v 0.20797895 -0.00130228 -0.00793750
v 0.20760466 -0.00154072 -0.00793750
v 0.20746765 -0.00159748 -0.00793750
v 0.20732620 -0.00164207 -0.00793750
v 0.20558393 -0.00109274 -0.00793750
v 0.20549366 -0.00097508 -0.00793750
v 0.01139772 -0.00109274 -0.00793750
v 0.01130744 -0.00097508 -0.00793750
v 0.01102583 -0.00029520 -0.00793750
v 0.01100647 -0.00014816 -0.00793750
v 0.01100000 -0.00000000 -0.00793750
v 0.01429748 0.00058143 -0.00793750
v 0.01434207 0.00043999 -0.00793750
v 0.20616776 0.00154072 -0.00793750
v 0.20603621 0.00147224 -0.00793750
v 0.20797895 0.00130228 -0.00793750
v 0.20808829 0.00120208 -0.00793750
v 0.20818849 -0.00109274 -0.00793750
v 0.20808829 -0.00120208 -0.00793750
v 0.20630477 -0.00159748 -0.00793750
v 0.20616776 -0.00154072 -0.00793750
v 0.01439353 -0.00014816 -0.00793750
v 0.01437417 -0.00029520 -0.00793750
v 0.01400228 0.00109274 -0.00793750
v 0.01409256 0.00097508 -0.00793750
v 0.20521204 0.00029520 -0.00793750
v 0.01437417 0.00029520 -0.00793750
v 0.20549366 0.00097508 -0.00793750
v 0.20558393 0.00109274 -0.00793750
v 0.20568413 0.00120208 -0.00793750
v 0.20579347 0.00130228 -0.00793750
v 0.20591113 0.00139256 -0.00793750
v 0.20818849 0.00109274 -0.00793750
v 0.20827878 0.00097508 -0.00793750
v 0.20718141 -0.00167417 -0.00793750
v 0.20703438 -0.00169353 -0.00793750
v 0.20688622 -0.00170000 -0.00793750
v 0.20673804 -0.00169353 -0.00793750
v 0.20659101 -0.00167417 -0.00793750
v 0.20644622 -0.00164207 -0.00793750
v 0.20603621 -0.00147224 -0.00793750
v 0.20591113 -0.00139256 -0.00793750
v 0.01434207 -0.00043999 -0.00793750
v 0.01429748 -0.00058143 -0.00793750
v 0.01424072 -0.00071845 -0.00793750
v 0.01211857 -0.00159748 -0.00793750
v 0.01198155 -0.00154072 -0.00793750
v 0.01185000 -0.00147224 -0.00793750
v 0.01172492 -0.00139256 -0.00793750
v 0.01122776 -0.00085000 -0.00793750
v 0.01115928 -0.00071845 -0.00793750
v 0.20630477 0.00159748 -0.00793750
v 0.20644622 0.00164207 -0.00793750
v 0.20659101 0.00167417 -0.00793750
v 0.20746765 0.00159748 -0.00793750
v 0.20760466 0.00154072 -0.00793750
v 0.01417224 -0.00085000 -0.00793750
v 0.01409256 -0.00097508 -0.00793750
v 0.01379274 -0.00130228 -0.00793750
v 0.01367508 -0.00139256 -0.00793750
v 0.01355000 -0.00147224 -0.00793750
v 0.01160726 -0.00130228 -0.00793750
v 0.01149792 -0.00120208 -0.00793750
v 0.01105793 0.00043999 -0.00793750
v 0.01110252 0.00058143 -0.00793750
v 0.01115928 0.00071845 -0.00793750
v 0.01417224 0.00085000 -0.00793750
v 0.01424072 0.00071845 -0.00793750
v 0.20673804 0.00169353 -0.00793750
v 0.20688622 0.00170000 -0.00793750
v 0.20703438 0.00169353 -0.00793750
v 0.20718141 0.00167417 -0.00793750
v 0.20732620 0.00164207 -0.00793750
v 0.20773621 0.00147224 -0.00793750
v 0.20786129 0.00139256 -0.00793750
v 0.20528874 -0.00058143 -0.00793750
v 0.01341845 -0.00154072 -0.00793750
v 0.01122776 0.00085000 -0.00793750
v 0.01130744 0.00097508 -0.00793750
v 0.01139772 0.00109274 -0.00793750
v 0.01211857 0.00159748 -0.00793750
v 0.01226001 0.00164207 -0.00793750
v 0.01328143 -0.00159748 -0.00793750
v 0.01313999 -0.00164207 -0.00793750
v 0.01299520 -0.00167417 -0.00793750
v 0.01284816 -0.00169353 -0.00793750
v 0.01270000 -0.00170000 -0.00793750
v 0.01255183 -0.00169353 -0.00793750
v 0.01240480 -0.00167417 -0.00793750
v 0.01226001 -0.00164207 -0.00793750
v 0.01149792 0.00120208 -0.00793750
v 0.01160726 0.00130228 -0.00793750
v 0.01172492 0.00139256 -0.00793750
v 0.01328143 0.00159748 -0.00793750
v 0.01341845 0.00154072 -0.00793750
v 0.01355000 0.00147224 -0.00793750
v 0.01367508 0.00139256 -0.00793750
v 0.01185000 0.00147224 -0.00793750
v 0.01198155 0.00154072 -0.00793750
v 0.01379274 0.00130228 -0.00793750
v 0.01390208 0.00120208 -0.00793750
v 0.01240480 0.00167417 -0.00793750
v 0.01255183 0.00169353 -0.00793750
v 0.01270000 0.00170000 -0.00793750
v 0.01284816 0.00169353 -0.00793750
v 0.01299520 0.00167417 -0.00793750
v 0.01313999 0.00164207 -0.00793750
f 1 2 3
f 2 4 3
f 3 4 5
f 4 6 5
f 5 6 7
f 6 8 7
f 7 8 9
f 8 10 9
f 9 10 11
f 10 12 11
f 11 12 13
f 12 14 13
f 13 14 15
f 14 16 15
f 15 16 17
f 16 18 17
f 17 18 19
f 18 20 19
f 19 20 21
f 20 22 21
f 21 22 23
f 22 24 23
f 23 24 25
f 24 26 25
f 25 26 27
f 26 28 27
f 27 28 29
f 28 30 29
f 29 30 31
f 30 32 31
f 31 32 33
f 32 34 33
f 33 34 35
f 34 36 35
f 35 36 37
f 36 38 37
f 37 38 39
f 38 40 39
f 39 40 41
f 40 42 41
f 41 42 43
f 42 44 43
f 43 44 45
f 44 46 45
f 45 46 47
f 46 48 47
f 47 48 49
f 48 50 49
f 49 50 51
f 50 52 51
f 51 52 53
f 52 54 53
f 53 54 55
f 54 56 55
f 55 56 57
f 56 58 57
f 57 58 59
f 58 60 59
f 59 60 61
f 60 62 61
f 61 62 63
f 62 64 63
f 63 64 65
f 64 66 65
f 65 66 67
f 66 68 67
f 67 68 69
f 68 70 69
f 69 70 71
f 70 72 71
f 71 72 73
f 72 74 73
f 73 74 75
f 74 76 75
f 75 76 77
f 76 78 77
f 77 78 79
f 78 80 79
f 79 80 81
f 80 82 81
f 81 82 83
f 82 84 83
f 83 84 85
f 84 86 85
f 85 86 87
f 86 88 87
f 87 88 89
f 88 90 89
f 89 90 91
f 90 92 91
f 91 92 93
f 92 94 93
f 93 94 95
f 94 96 95
f 95 96 97
f 96 98 97
f 97 98 99
f 98 100 99
f 99 100 101
f 100 102 101
f 101 102 103
f 102 104 103
f 103 104 105
f 104 106 105
f 105 106 107
f 106 108 107
f 107 108 109
f 108 110 109
f 109 110 111
f 110 112 111
f 111 112 113
f 112 114 113
f 113 114 115
f 114 116 115
f 115 116 117
f 116 118 117
f 117 118 119
f 118 120 119
f 119 120 121
f 120 122 121
f 121 122 123
f 122 124 123
f 123 124 125
f 124 126 125
f 125 126 127
f 126 128 127
f 127 128 129
f 128 130 129
f 129 130 131
f 130 132 131
f 131 132 133
f 132 134 133
f 133 134 135
f 134 136 135
f 135 136 137
f 136 138 137
f 137 138 139
f 138 140 139
f 139 140 141
f 140 142 141
f 141 142 143
f 142 144 143
f 143 144 1
f 144 2 1
f 145 146 147
f 146 148 147
f 147 148 149
f 148 150 149
f 149 150 151
f 150 152 151
f 151 152 153
f 152 154 153
f 153 154 155
f 154 156 155
f 155 156 157
f 156 158 157
f 157 158 159
f 158 160 159
f 159 160 161
f 160 162 161
f 161 162 163
f 162 164 163
f 163 164 165
f 164 166 165
f 165 166 167
f 166 168 167
f 167 168 169
f 168 170 169
f 169 170 171
f 170 172 171
f 171 172 173
f 172 174 173
f 173 174 175
f 174 176 175
f 175 176 177
f 176 178 177
f 177 178 179
f 178 180 179
f 179 180 181
f 180 182 181
f 181 182 183
f 182 184 183
f 183 184 185
f 184 186 185
f 185 186 187
f 186 188 187
f 187 188 189
f 188 190 189
f 189 190 191
f 190 192 191
f 191 192 193
f 192 194 193
f 193 194 195
f 194 196 195
f 195 196 197
f 196 198 197
f 197 198 199
f 198 200 199
f 199 200 201
f 200 202 201
f 201 202 203
f 202 204 203
f 203 204 205
f 204 206 205
f 205 206 207
f 206 208 207
f 207 208 209
f 208 210 209
f 209 210 211
f 210 212 211
f 211 212 213
f 212 214 213
f 213 214 215
f 214 216 215
f 215 216 217
f 216 218 217
f 217 218 219
f 218 220 219
f 219 220 221
f 220 222 221
f 221 222 223
f 222 224 223
f 223 224 225
f 224 226 225
f 225 226 227
f 226 228 227
f 227 228 229
f 228 230 229
f 229 230 231
f 230 232 231
f 231 232 233
f 232 234 233
f 233 234 235
f 234 236 235
f 235 236 237
f 236 238 237
f 237 238 239
f 238 240 239
f 239 240 241
f 240 242 241
f 241 242 243
f 242 244 243
f 243 244 245
f 244 246 245
f 245 246 247
f 246 248 247
f 247 248 249
f 248 250 249
f 249 250 251
f 250 252 251
f 251 252 253
f 252 254 253
f 253 254 255
f 254 256 255
f 255 256 257
f 256 258 257
f 257 258 259
f 258 260 259
f 259 260 261
f 260 262 261
f 261 262 263
f 262 264 263
f 263 264 265
f 264 266 265
f 265 266 267
f 266 268 267
f 267 268 269
f 268 270 269
f 269 270 271
f 270 272 271
f 271 272 273
f 272 274 273
f 273 274 275
f 274 276 275
f 275 276 277
f 276 278 277
f 277 278 279
f 278 280 279
f 279 280 281
f 280 282 281
f 281 282 283
f 282 284 283
f 283 284 285
f 284 286 285
f 285 286 287
f 286 288 287
f 287 288 145
f 288 146 145
f 289 290 291
f 290 292 291
f 293 294 295
f 294 296 295
f 295 296 297
f 298 299 300
f 301 302 303
f 302 304 303
f 305 306 291
f 306 307 291
f 291 307 308
f 309 310 291
f 310 311 291
f 291 311 295
f 311 312 295
f 313 314 315
f 314 316 315
f 315 316 317
f 317 318 315
f 318 319 315
f 315 319 320
f 303 321 322
f 323 324 292
f 324 325 292
f 292 325 291
f 325 326 291
f 291 326 305
f 308 327 291
f 327 328 291
f 291 328 329
f 329 330 291
f 330 331 291
f 291 331 309
f 332 333 295
f 333 334 295
f 295 334 335
f 335 336 295
f 336 337 295
f 295 337 293
f 297 338 295
f 338 339 295
f 295 339 315
f 339 340 315
f 315 340 313
f 341 342 300
f 342 343 300
f 300 343 344
f 344 345 300
f 345 346 300
f 300 346 298
f 322 347 303
f 347 348 303
f 303 348 301
f 349 350 300
f 351 352 291
f 323 292 353
f 292 354 353
f 353 354 303
f 354 355 303
f 303 355 321
f 312 356 295
f 356 357 295
f 295 357 358
f 358 359 295
f 359 360 295
f 295 360 332
f 320 361 315
f 361 362 315
f 315 362 363
f 363 364 315
f 364 365 315
f 315 365 366
f 304 367 303
f 367 368 303
f 303 368 369
f 370 371 372
f 373 370 374
f 370 375 374
f 352 376 291
f 376 377 291
f 291 377 378
f 369 379 303
f 379 380 303
f 303 380 381
f 372 382 370
f 382 383 370
f 370 383 375
f 384 385 370
f 350 386 300
f 386 387 300
f 300 387 388
f 388 389 300
f 389 390 300
f 300 390 391
f 378 392 291
f 392 393 291
f 291 393 394
f 394 395 291
f 395 396 291
f 291 396 397
f 300 315 398
f 315 399 398
f 398 400 300
f 400 401 300
f 300 401 402
f 403 404 291
f 404 405 291
f 291 405 351
f 366 406 315
f 406 407 315
f 315 407 399
f 402 408 300
f 408 409 300
f 300 409 341
f 410 411 370
f 411 412 370
f 370 412 371
f 391 413 300
f 413 414 300
f 300 414 291
f 414 415 291
f 291 415 403
f 397 416 291
f 416 417 291
f 291 417 289
f 373 418 370
f 418 419 370
f 370 419 384
f 385 420 370
f 420 421 370
f 370 421 422
f 381 423 303
f 423 424 303
f 303 424 425
f 424 411 425
f 425 411 426
f 411 410 426
f 299 427 300
f 427 370 300
f 300 370 428
f 370 422 428
f 428 429 300
f 429 430 300
f 300 430 431
f 431 432 300
f 432 433 300
f 300 433 434
f 434 435 300
f 435 436 300
f 300 436 349
f 437 438 439
f 440 300 441
f 300 442 441
f 441 442 443
f 442 444 443
f 445 446 442
f 447 448 449
f 448 450 449
f 449 450 451
f 439 438 451
f 438 452 451
f 451 452 449
f 453 454 455
f 446 456 442
f 456 457 442
f 442 457 444
f 449 458 459
f 460 461 439
f 462 463 455
f 459 464 449
f 464 465 449
f 449 465 447
f 461 466 439
f 466 467 439
f 439 467 437
f 440 468 300
f 468 469 300
f 300 469 470
f 315 471 472
f 473 474 449
f 474 475 449
f 475 476 449
f 476 477 449
f 449 477 478
f 479 480 439
f 480 481 439
f 439 481 482
f 470 483 300
f 483 484 300
f 300 484 485
f 486 487 300
f 488 455 489
f 455 490 489
f 488 491 455
f 491 492 455
f 455 492 462
f 478 493 449
f 493 494 449
f 449 494 458
f 482 495 439
f 495 496 439
f 439 496 460
f 486 300 497
f 315 498 499
f 472 500 315
f 500 501 315
f 315 501 455
f 501 502 455
f 455 502 453
f 503 504 442
f 505 506 300
f 506 507 300
f 454 508 455
f 508 509 455
f 455 509 510
f 511 512 455
f 463 513 455
f 513 514 455
f 455 514 515
f 515 516 455
f 516 517 455
f 455 517 518
f 518 519 455
f 519 520 455
f 455 520 442
f 520 521 442
f 442 521 522
f 504 523 442
f 523 524 442
f 442 524 445
f 525 526 300
f 526 527 300
f 300 527 505
f 507 528 300
f 528 529 300
f 300 529 530
f 531 532 315
f 532 533 315
f 315 533 534
f 499 535 315
f 535 536 315
f 315 536 471
f 510 537 455
f 537 538 455
f 455 538 539
f 540 541 442
f 541 542 442
f 485 543 300
f 543 544 300
f 300 544 525
f 497 300 545
f 300 530 545
f 545 530 439
f 530 546 439
f 439 546 479
f 487 547 300
f 547 548 300
f 300 548 549
f 534 550 315
f 550 551 315
f 315 551 498
f 539 552 455
f 552 553 455
f 455 553 554
f 522 555 442
f 555 556 442
f 442 556 557
f 542 558 442
f 558 559 442
f 442 559 503
f 549 560 300
f 560 561 300
f 300 561 562
f 563 564 315
f 554 565 455
f 565 566 455
f 455 566 511
f 512 567 455
f 567 568 455
f 455 568 569
f 557 570 442
f 570 571 442
f 442 571 540
f 563 315 572
f 564 573 315
f 573 574 315
f 315 574 575
f 575 576 315
f 576 577 315
f 315 577 531
f 490 455 578
f 455 569 578
f 578 569 449
f 569 579 449
f 449 579 473
f 562 580 300
f 580 581 300
f 300 581 315
f 581 582 315
f 315 582 572
f 225 227 45
f 89 91 583
f 97 99 583
f 99 101 583
f 583 101 103
f 227 229 45
f 229 231 45
f 45 231 43
f 231 41 43
f 219 45 47
f 23 25 584
f 25 27 584
f 584 27 29
f 237 37 235
f 37 233 235
f 233 37 231
f 37 39 231
f 231 39 41
f 49 51 585
f 51 53 585
f 585 53 55
f 67 69 585
f 69 71 585
f 585 71 583
f 111 113 586
f 113 115 586
f 586 115 117
f 117 119 586
f 119 121 586
f 586 121 123
f 219 221 45
f 221 223 45
f 45 223 225
f 55 57 585
f 57 59 585
f 585 59 61
f 61 63 585
f 63 65 585
f 585 65 67
f 91 93 583
f 93 95 583
f 583 95 97
f 103 105 583
f 105 107 583
f 583 107 586
f 107 109 586
f 586 109 111
f 11 13 584
f 13 15 584
f 584 15 17
f 17 19 584
f 19 21 584
f 584 21 23
f 161 163 584
f 189 191 585
f 215 217 585
f 217 219 585
f 585 219 49
f 219 47 49
f 71 73 583
f 73 75 583
f 583 75 77
f 77 79 583
f 79 81 583
f 583 81 83
f 83 85 583
f 85 87 583
f 583 87 89
f 123 125 586
f 125 127 586
f 586 127 129
f 129 131 586
f 131 133 586
f 586 133 135
f 237 239 37
f 239 241 37
f 37 241 243
f 29 259 261
f 271 29 269
f 29 267 269
f 191 193 585
f 193 195 585
f 585 195 197
f 243 245 37
f 245 247 37
f 37 247 249
f 261 263 29
f 263 265 29
f 29 265 267
f 163 165 584
f 165 167 584
f 584 167 169
f 169 171 584
f 171 173 584
f 584 173 175
f 197 199 585
f 199 201 585
f 585 201 203
f 203 205 585
f 205 207 585
f 585 207 209
f 5 7 584
f 7 9 584
f 584 9 11
f 183 185 585
f 185 187 585
f 585 187 189
f 135 137 586
f 137 139 586
f 586 139 141
f 141 143 586
f 143 1 586
f 586 1 584
f 1 3 584
f 584 3 5
f 31 255 29
f 255 257 29
f 29 257 259
f 175 177 584
f 177 179 584
f 584 179 585
f 179 181 585
f 585 181 183
f 209 211 585
f 211 213 585
f 585 213 215
f 271 273 29
f 273 275 29
f 29 275 277
f 277 279 29
f 279 281 29
f 29 281 283
f 155 157 584
f 157 159 584
f 584 159 161
f 249 251 37
f 251 253 37
f 37 253 35
f 253 255 35
f 35 255 33
f 255 31 33
f 584 147 149
f 283 285 29
f 285 287 29
f 29 287 584
f 287 145 584
f 584 145 147
f 149 151 584
f 151 153 584
f 584 153 155
f 587 588 589
f 590 589 591
f 589 592 591
f 593 594 595
f 588 596 589
f 596 597 589
f 589 597 592
f 590 598 589
f 598 599 589
f 589 599 600
f 601 602 603
f 602 604 603
f 603 604 605
f 605 606 603
f 606 607 603
f 603 607 608
f 607 609 608
f 610 611 612
f 611 613 612
f 612 613 614
f 615 616 612
f 616 617 612
f 612 617 589
f 617 618 589
f 618 619 589
f 619 620 589
f 589 620 621
f 622 623 624
f 623 625 624
f 626 627 628
f 594 593 607
f 593 629 607
f 607 629 609
f 614 630 612
f 630 631 612
f 612 631 632
f 632 633 612
f 633 634 612
f 612 634 615
f 621 635 589
f 635 636 589
f 589 636 587
f 600 637 589
f 637 638 589
f 589 638 623
f 638 639 623
f 623 639 625
f 595 640 593
f 640 641 593
f 593 641 642
f 643 644 645
f 646 647 612
f 647 602 612
f 612 602 610
f 602 601 610
f 622 648 623
f 648 649 623
f 623 649 650
f 651 652 628
f 652 653 628
f 628 653 654
f 626 628 655
f 612 656 657
f 650 658 623
f 658 659 623
f 623 659 660
f 623 661 662
f 663 664 628
f 642 665 593
f 665 666 593
f 593 666 667
f 667 668 593
f 668 669 593
f 593 669 670
f 627 671 628
f 671 672 628
f 628 672 673
f 674 675 612
f 675 676 612
f 612 676 656
f 657 677 612
f 677 678 612
f 612 678 679
f 679 680 612
f 680 681 612
f 612 681 682
f 660 683 623
f 683 684 623
f 623 684 661
f 664 685 628
f 685 686 628
f 628 686 651
f 645 687 643
f 687 688 643
f 643 688 689
f 689 690 643
f 690 691 643
f 643 691 692
f 662 693 623
f 693 694 623
f 623 694 695
f 696 697 628
f 697 698 628
f 628 698 663
f 699 700 643
f 700 701 643
f 643 701 644
f 702 703 628
f 703 704 628
f 705 706 612
f 706 707 612
f 612 707 674
f 682 708 612
f 708 709 612
f 612 709 646
f 695 710 623
f 710 711 623
f 623 711 628
f 711 712 628
f 628 712 696
f 704 713 628
f 713 714 628
f 628 714 655
f 673 715 628
f 715 716 628
f 628 716 612
f 716 717 612
f 612 717 705
f 670 718 593
f 718 719 593
f 593 719 720
f 719 700 720
f 720 700 721
f 700 699 721
f 692 722 643
f 722 723 643
f 643 723 724
f 724 725 643
f 725 726 643
f 643 726 727
f 727 728 643
f 728 628 643
f 643 628 729
f 628 654 729
f 728 730 628
f 730 731 628
f 628 731 732
f 732 733 628
f 733 734 628
f 628 734 702
f 134 132 455
f 122 455 124
f 455 126 124
f 148 146 442
f 146 288 442
f 34 32 286
f 32 30 286
f 286 30 288
f 132 130 455
f 130 128 455
f 455 128 126
f 122 120 455
f 120 118 455
f 455 118 116
f 288 30 442
f 30 28 442
f 442 28 26
f 26 24 442
f 24 22 442
f 442 22 20
f 8 6 442
f 6 4 442
f 442 4 455
f 4 2 455
f 104 735 106
f 735 108 106
f 196 194 736
f 20 18 442
f 18 16 442
f 442 16 14
f 14 12 442
f 12 10 442
f 442 10 8
f 2 144 455
f 144 142 455
f 455 142 140
f 116 114 455
f 114 112 455
f 455 112 735
f 112 110 735
f 735 110 108
f 46 248 246
f 140 138 455
f 138 136 455
f 455 136 134
f 104 102 735
f 102 100 735
f 735 100 98
f 56 54 736
f 54 52 736
f 736 52 50
f 34 286 36
f 286 284 36
f 36 284 38
f 284 282 38
f 38 282 280
f 274 272 38
f 272 270 38
f 196 736 198
f 442 168 166
f 98 96 735
f 96 94 735
f 735 94 92
f 280 278 38
f 278 276 38
f 38 276 274
f 270 268 38
f 268 266 38
f 38 266 264
f 264 262 38
f 262 260 38
f 38 260 258
f 194 192 736
f 192 190 736
f 736 190 188
f 174 172 442
f 172 170 442
f 442 170 168
f 166 164 442
f 164 162 442
f 442 162 160
f 160 158 442
f 158 156 442
f 442 156 154
f 92 90 735
f 90 88 735
f 735 88 86
f 86 84 735
f 84 82 735
f 735 82 80
f 62 736 64
f 736 66 64
f 62 60 736
f 60 58 736
f 736 58 56
f 246 244 46
f 244 242 46
f 46 242 240
f 240 238 46
f 238 236 46
f 46 236 234
f 80 78 735
f 78 76 735
f 735 76 736
f 76 74 736
f 736 74 72
f 44 252 46
f 252 250 46
f 46 250 248
f 208 206 736
f 206 204 736
f 180 178 442
f 178 176 442
f 442 176 174
f 154 152 442
f 152 150 442
f 442 150 148
f 72 70 736
f 70 68 736
f 736 68 66
f 204 202 736
f 202 200 736
f 736 200 198
f 188 186 736
f 186 184 736
f 736 184 442
f 184 182 442
f 442 182 180
f 258 256 38
f 256 254 38
f 38 254 40
f 254 252 40
f 40 252 42
f 252 44 42
f 234 232 46
f 232 230 46
f 46 230 228
f 228 226 46
f 226 224 46
f 46 224 222
f 50 48 736
f 48 46 736
f 736 46 220
f 46 222 220
f 220 218 736
f 218 216 736
f 736 216 214
f 214 212 736
f 212 210 736
f 736 210 208
f 737 738 586
f 586 738 589
f 739 740 612
f 738 741 589
f 741 742 589
f 589 742 743
f 744 745 589
f 745 746 589
f 589 746 747
f 740 748 612
f 748 749 612
f 612 749 750
f 751 752 584
f 752 753 584
f 584 753 754
f 755 756 586
f 757 758 612
f 750 759 612
f 759 760 612
f 612 760 584
f 760 761 584
f 584 761 751
f 762 763 764
f 743 765 589
f 765 766 589
f 589 766 767
f 767 768 589
f 768 769 589
f 589 769 770
f 771 772 589
f 772 773 589
f 589 773 774
f 747 775 589
f 775 776 589
f 589 776 777
f 778 779 612
f 770 780 589
f 780 781 589
f 589 781 771
f 774 782 589
f 782 783 589
f 589 783 784
f 777 785 589
f 785 786 589
f 589 786 787
f 778 612 788
f 758 789 612
f 789 790 612
f 612 790 791
f 792 793 794
f 795 796 586
f 796 797 586
f 586 797 737
f 787 798 589
f 798 799 589
f 589 799 612
f 799 800 612
f 612 800 788
f 801 802 612
f 802 803 612
f 612 803 757
f 791 804 612
f 804 805 612
f 612 805 739
f 794 806 792
f 806 807 792
f 792 807 808
f 809 810 764
f 810 811 764
f 779 812 612
f 812 813 612
f 612 813 801
f 754 814 584
f 814 815 584
f 584 815 816
f 792 817 818
f 809 764 807
f 764 819 807
f 807 819 808
f 811 820 764
f 820 821 764
f 764 821 822
f 823 824 586
f 816 825 584
f 825 826 584
f 584 826 827
f 828 829 792
f 818 830 792
f 830 831 792
f 792 831 793
f 822 832 764
f 832 833 764
f 764 833 762
f 763 834 764
f 834 835 764
f 764 835 836
f 837 838 586
f 838 839 586
f 586 839 840
f 840 841 586
f 841 842 586
f 586 842 795
f 827 843 584
f 843 844 584
f 584 844 845
f 846 847 586
f 847 848 586
f 586 848 849
f 849 850 586
f 850 851 586
f 586 851 852
f 852 853 586
f 853 854 586
f 586 854 755
f 855 856 792
f 756 857 586
f 857 764 586
f 586 764 858
f 764 836 858
f 744 589 859
f 589 784 859
f 859 784 792
f 784 860 792
f 792 860 855
f 856 861 792
f 861 862 792
f 792 862 828
f 829 863 792
f 863 864 792
f 792 864 817
f 845 865 584
f 865 866 584
f 584 866 867
f 867 868 584
f 868 869 584
f 584 869 586
f 869 870 586
f 586 870 846
f 858 871 586
f 871 872 586
f 586 872 873
f 873 874 586
f 874 875 586
f 586 875 876
f 876 877 586
f 877 878 586
f 586 878 823
f 824 879 586
f 879 880 586
f 586 880 837
f 881 882 735
f 735 882 295
f 883 884 291
f 884 885 291
f 291 885 886
f 882 887 295
f 887 888 295
f 295 888 889
f 736 890 891
f 892 893 295
f 893 894 295
f 295 894 895
f 891 896 736
f 896 897 736
f 736 897 898
f 886 899 291
f 899 900 291
f 291 900 736
f 900 901 736
f 736 901 890
f 902 903 735
f 903 904 735
f 735 904 905
f 889 906 295
f 906 907 295
f 295 907 908
f 908 909 295
f 909 910 295
f 295 910 911
f 912 913 295
f 913 914 295
f 295 914 915
f 895 916 295
f 916 917 295
f 295 917 918
f 919 920 291
f 920 921 291
f 291 921 922
f 923 924 925
f 926 927 905
f 911 928 295
f 928 929 295
f 295 929 912
f 915 930 295
f 930 931 295
f 295 931 932
f 918 933 295
f 933 934 295
f 295 934 935
f 935 936 295
f 936 937 295
f 295 937 291
f 937 938 291
f 291 938 939
f 922 940 291
f 940 941 291
f 291 941 942
f 925 943 923
f 943 944 923
f 923 944 945
f 942 946 291
f 946 947 291
f 291 947 883
f 923 948 949
f 950 951 735
f 951 952 735
f 735 952 881
f 939 953 291
f 953 954 291
f 291 954 955
f 955 956 291
f 956 957 291
f 291 957 919
f 898 958 736
f 958 959 736
f 736 959 960
f 961 962 923
f 949 963 923
f 963 964 923
f 923 964 924
f 926 905 944
f 905 965 944
f 944 965 945
f 927 966 905
f 966 967 905
f 905 967 968
f 960 969 736
f 969 970 736
f 736 970 971
f 972 973 923
f 974 975 735
f 971 976 736
f 976 977 736
f 736 977 978
f 979 980 735
f 980 981 735
f 735 981 982
f 982 983 735
f 983 984 735
f 735 984 985
f 985 986 735
f 986 987 735
f 735 987 902
f 892 295 988
f 295 932 988
f 988 932 923
f 932 989 923
f 923 989 972
f 973 990 923
f 990 991 923
f 923 991 961
f 962 992 923
f 992 993 923
f 923 993 948
f 968 994 905
f 994 995 905
f 905 995 996
f 997 998 735
f 998 999 735
f 735 999 1000
f 1000 1001 735
f 1001 1002 735
f 735 1002 950
f 996 1003 905
f 1003 1004 905
f 905 1004 1005
f 1006 1007 735
f 978 1008 736
f 1008 1009 736
f 736 1009 1010
f 1010 1011 736
f 1011 1012 736
f 736 1012 735
f 1012 1013 735
f 735 1013 979
f 1006 735 1014
f 1005 1015 905
f 1015 1016 905
f 905 1016 735
f 1016 1017 735
f 735 1017 1014
f 1007 1018 735
f 1018 1019 735
f 735 1019 1020
f 975 1021 735
f 1021 1022 735
f 735 1022 997
f 1020 1023 735
f 1023 1024 735
f 735 1024 974
f 400 618 401
f 618 617 401
f 401 617 402
f 617 616 402
f 402 616 408
f 616 615 408
f 408 615 409
f 615 634 409
f 409 634 341
f 634 633 341
f 341 633 342
f 633 632 342
f 342 632 343
f 632 631 343
f 343 631 344
f 631 630 344
f 344 630 345
f 630 614 345
f 345 614 346
f 614 613 346
f 346 613 298
f 613 611 298
f 298 611 299
f 611 610 299
f 299 610 427
f 610 601 427
f 427 601 370
f 601 603 370
f 370 603 410
f 603 608 410
f 410 608 426
f 608 609 426
f 426 609 425
f 609 629 425
f 425 629 303
f 629 593 303
f 303 593 353
f 593 720 353
f 353 720 323
f 720 721 323
f 323 721 324
f 721 699 324
f 324 699 325
f 699 643 325
f 325 643 326
f 643 729 326
f 326 729 305
f 729 654 305
f 305 654 306
f 654 653 306
f 306 653 307
f 653 652 307
f 307 652 308
f 652 651 308
f 308 651 327
f 651 686 327
f 327 686 328
f 686 685 328
f 328 685 329
f 685 664 329
f 329 664 330
f 664 663 330
f 330 663 331
f 663 698 331
f 331 698 309
f 698 697 309
f 309 697 310
f 697 696 310
f 310 696 311
f 696 712 311
f 311 712 312
f 712 711 312
f 312 711 356
f 711 710 356
f 356 710 357
f 710 695 357
f 357 695 358
f 695 694 358
f 358 694 359
f 694 693 359
f 359 693 360
f 693 662 360
f 360 662 332
f 662 661 332
f 332 661 333
f 661 684 333
f 333 684 334
f 684 683 334
f 334 683 335
f 683 660 335
f 335 660 336
f 660 659 336
f 336 659 337
f 659 658 337
f 337 658 293
f 658 650 293
f 293 650 294
f 650 649 294
f 294 649 296
f 649 648 296
f 296 648 297
f 648 622 297
f 297 622 338
f 622 624 338
f 338 624 339
f 624 625 339
f 339 625 340
f 625 639 340
f 340 639 313
f 639 638 313
f 313 638 314
f 638 637 314
f 314 637 316
f 637 600 316
f 316 600 317
f 600 599 317
f 317 599 318
f 599 598 318
f 318 598 319
f 598 590 319
f 319 590 320
f 590 591 320
f 320 591 361
f 591 592 361
f 361 592 362
f 592 597 362
f 362 597 363
f 597 596 363
f 363 596 364
f 596 588 364
f 364 588 365
f 588 587 365
f 365 587 366
f 587 636 366
f 366 636 406
f 636 635 406
f 406 635 407
f 635 621 407
f 407 621 399
f 621 620 399
f 399 620 398
f 620 619 398
f 398 619 400
f 619 618 400
f 1025 1026 628
f 1026 1027 628
f 1028 1029 623
f 1030 1031 585
f 1031 1032 585
f 585 1032 628
f 1032 1033 628
f 628 1033 1025
f 1034 1035 585
f 1027 1036 628
f 1036 1037 628
f 628 1037 1038
f 1039 1040 583
f 1035 1041 585
f 1041 1042 585
f 585 1042 1030
f 1043 1044 1045
f 623 1046 1047
f 1048 1049 623
f 1050 1051 1052
f 1051 1053 1052
f 1052 1053 1054
f 1053 1055 1054
f 1056 1057 583
f 1057 1058 583
f 583 1058 1059
f 1060 628 1061
f 628 1062 1061
f 1060 1063 628
f 1063 1064 628
f 628 1064 1065
f 1049 1066 623
f 1066 1067 623
f 623 1067 1028
f 623 1068 1069
f 1047 1070 623
f 1070 1071 623
f 623 1071 583
f 1071 1072 583
f 583 1072 1039
f 1056 1073 1074
f 585 583 1075
f 583 1076 1075
f 1077 1078 585
f 1038 1079 628
f 1079 1080 628
f 628 1080 1062
f 623 1081 1082
f 1050 1052 1045
f 1052 1083 1045
f 1045 1083 1084
f 1056 1085 1086
f 1055 1087 1054
f 1087 1056 1054
f 1054 1056 1088
f 1056 1074 1088
f 1059 1089 583
f 1089 1090 583
f 583 1090 1091
f 1091 1092 583
f 1092 1093 583
f 583 1093 1076
f 1078 1094 585
f 1094 1095 585
f 585 1095 1034
f 1065 1096 628
f 1096 1097 628
f 628 1097 1098
f 1098 1099 628
f 1099 1100 628
f 628 1100 623
f 1100 1101 623
f 623 1101 1081
f 1082 1102 623
f 1102 1103 623
f 623 1103 1048
f 1084 1104 1045
f 1104 1105 1045
f 1045 1105 1106
f 1107 1108 623
f 1108 1109 623
f 623 1109 1110
f 1069 1111 623
f 1111 1112 623
f 623 1112 1046
f 1075 1113 585
f 1113 1114 585
f 585 1114 1115
f 585 1116 1117
f 1106 1118 1045
f 1118 1119 1045
f 1045 1119 1043
f 1044 1120 1045
f 1120 1121 1045
f 1045 1121 1122
f 1110 1123 623
f 1123 1124 623
f 623 1124 1068
f 1040 1125 583
f 1125 1126 583
f 583 1126 1127
f 1086 1128 1056
f 1128 1129 1056
f 1056 1129 1073
f 1115 1130 585
f 1130 1131 585
f 585 1131 1132
f 1132 1133 585
f 1133 1134 585
f 585 1134 1116
f 1117 1135 585
f 1135 1136 585
f 585 1136 1077
f 1029 1137 623
f 1137 1045 623
f 623 1045 1138
f 1045 1122 1138
f 1127 1139 583
f 1139 1140 583
f 583 1140 1141
f 1142 1143 583
f 1138 1144 623
f 1144 1145 623
f 623 1145 1146
f 1146 1147 623
f 1147 1148 623
f 623 1148 1149
f 1149 1150 623
f 1150 1151 623
f 623 1151 1107
f 1141 1152 583
f 1152 1153 583
f 583 1153 1154
f 1155 1156 1056
f 1156 1157 1056
f 1056 1157 1158
f 1154 1159 583
f 1159 1160 583
f 583 1160 1142
f 1158 1161 1056
f 1161 1162 1056
f 1056 1162 1085
f 1143 1163 583
f 1163 1164 583
f 583 1164 1165
f 1165 1166 583
f 1166 1167 583
f 583 1167 1056
f 1167 1168 1056
f 1056 1168 1155
f 429 647 430
f 647 646 430
f 430 646 431
f 646 709 431
f 431 709 432
f 709 708 432
f 432 708 433
f 708 682 433
f 433 682 434
f 682 681 434
f 434 681 435
f 681 680 435
f 435 680 436
f 680 679 436
f 436 679 349
f 679 678 349
f 349 678 350
f 678 677 350
f 350 677 386
f 677 657 386
f 386 657 387
f 657 656 387
f 387 656 388
f 656 676 388
f 388 676 389
f 676 675 389
f 389 675 390
f 675 674 390
f 390 674 391
f 674 707 391
f 391 707 413
f 707 706 413
f 413 706 414
f 706 705 414
f 414 705 415
f 705 717 415
f 415 717 403
f 717 716 403
f 403 716 404
f 716 715 404
f 404 715 405
f 715 673 405
f 405 673 351
f 673 672 351
f 351 672 352
f 672 671 352
f 352 671 376
f 671 627 376
f 376 627 377
f 627 626 377
f 377 626 378
f 626 655 378
f 378 655 392
f 655 714 392
f 392 714 393
f 714 713 393
f 393 713 394
f 713 704 394
f 394 704 395
f 704 703 395
f 395 703 396
f 703 702 396
f 396 702 397
f 702 734 397
f 397 734 416
f 734 733 416
f 416 733 417
f 733 732 417
f 417 732 289
f 732 731 289
f 289 731 290
f 731 730 290
f 290 730 292
f 730 728 292
f 292 728 354
f 728 727 354
f 354 727 355
f 727 726 355
f 355 726 321
f 726 725 321
f 321 725 322
f 725 724 322
f 322 724 347
f 724 723 347
f 347 723 348
f 723 722 348
f 348 722 301
f 722 692 301
f 301 692 302
f 692 691 302
f 302 691 304
f 691 690 304
f 304 690 367
f 690 689 367
f 367 689 368
f 689 688 368
f 368 688 369
f 688 687 369
f 369 687 379
f 687 645 379
f 379 645 380
f 645 644 380
f 380 644 381
f 644 701 381
f 381 701 423
f 701 700 423
f 423 700 424
f 700 719 424
f 424 719 411
f 719 718 411
f 411 718 412
f 718 670 412
f 412 670 371
f 670 669 371
f 371 669 372
f 669 668 372
f 372 668 382
f 668 667 382
f 382 667 383
f 667 666 383
f 383 666 375
f 666 665 375
f 375 665 374
f 665 642 374
f 374 642 373
f 642 641 373
f 373 641 418
f 641 640 418
f 418 640 419
f 640 595 419
f 419 595 384
f 595 594 384
f 384 594 385
f 594 607 385
f 385 607 420
f 607 606 420
f 420 606 421
f 606 605 421
f 421 605 422
f 605 604 422
f 422 604 428
f 604 602 428
f 428 602 429
f 602 647 429
f 584 442 612
f 442 300 612
f 612 300 628
f 300 291 628
f 628 291 585
f 291 736 585
f 585 736 584
f 736 442 584
f 1053 923 1055
f 923 945 1055
f 1055 945 1087
f 945 965 1087
f 1087 965 1056
f 965 905 1056
f 1056 905 1057
f 905 904 1057
f 1057 904 1058
f 904 903 1058
f 1058 903 1059
f 903 902 1059
f 1059 902 1089
f 902 987 1089
f 1089 987 1090
f 987 986 1090
f 1090 986 1091
f 986 985 1091
f 1091 985 1092
f 985 984 1092
f 1092 984 1093
f 984 983 1093
f 1093 983 1076
f 983 982 1076
f 1076 982 1075
f 982 981 1075
f 1075 981 1113
f 981 980 1113
f 1113 980 1114
f 980 979 1114
f 1114 979 1115
f 979 1013 1115
f 1115 1013 1130
f 1013 1012 1130
f 1130 1012 1131
f 1012 1011 1131
f 1131 1011 1132
f 1011 1010 1132
f 1132 1010 1133
f 1010 1009 1133
f 1133 1009 1134
f 1009 1008 1134
f 1134 1008 1116
f 1008 978 1116
f 1116 978 1117
f 978 977 1117
f 1117 977 1135
f 977 976 1135
f 1135 976 1136
f 976 971 1136
f 1136 971 1077
f 971 970 1077
f 1077 970 1078
f 970 969 1078
f 1078 969 1094
f 969 960 1094
f 1094 960 1095
f 960 959 1095
f 1095 959 1034
f 959 958 1034
f 1034 958 1035
f 958 898 1035
f 1035 898 1041
f 898 897 1041
f 1041 897 1042
f 897 896 1042
f 1042 896 1030
f 896 891 1030
f 1030 891 1031
f 891 890 1031
f 1031 890 1032
f 890 901 1032
f 1032 901 1033
f 901 900 1033
f 1033 900 1025
f 900 899 1025
f 1025 899 1026
f 899 886 1026
f 1026 886 1027
f 886 885 1027
f 1027 885 1036
f 885 884 1036
f 1036 884 1037
f 884 883 1037
f 1037 883 1038
f 883 947 1038
f 1038 947 1079
f 947 946 1079
f 1079 946 1080
f 946 942 1080
f 1080 942 1062
f 942 941 1062
f 1062 941 1061
f 941 940 1061
f 1061 940 1060
f 940 922 1060
f 1060 922 1063
f 922 921 1063
f 1063 921 1064
f 921 920 1064
f 1064 920 1065
f 920 919 1065
f 1065 919 1096
f 919 957 1096
f 1096 957 1097
f 957 956 1097
f 1097 956 1098
f 956 955 1098
f 1098 955 1099
f 955 954 1099
f 1099 954 1100
f 954 953 1100
f 1100 953 1101
f 953 939 1101
f 1101 939 1081
f 939 938 1081
f 1081 938 1082
f 938 937 1082
f 1082 937 1102
f 937 936 1102
f 1102 936 1103
f 936 935 1103
f 1103 935 1048
f 935 934 1048
f 1048 934 1049
f 934 933 1049
f 1049 933 1066
f 933 918 1066
f 1066 918 1067
f 918 917 1067
f 1067 917 1028
f 917 916 1028
f 1028 916 1029
f 916 895 1029
f 1029 895 1137
f 895 894 1137
f 1137 894 1045
f 894 893 1045
f 1045 893 1050
f 893 892 1050
f 1050 892 1051
f 892 988 1051
f 1051 988 1053
f 988 923 1053
f 583 735 623
f 735 295 623
f 623 295 589
f 295 315 589
f 589 315 586
f 315 455 586
f 586 455 583
f 455 735 583
f 489 792 488
f 792 808 488
f 488 808 491
f 808 819 491
f 491 819 492
f 819 764 492
f 492 764 462
f 764 857 462
f 462 857 463
f 857 756 463
f 463 756 513
f 756 755 513
f 513 755 514
f 755 854 514
f 514 854 515
f 854 853 515
f 515 853 516
f 853 852 516
f 516 852 517
f 852 851 517
f 517 851 518
f 851 850 518
f 518 850 519
f 850 849 519
f 519 849 520
f 849 848 520
f 520 848 521
f 848 847 521
f 521 847 522
f 847 846 522
f 522 846 555
f 846 870 555
f 555 870 556
f 870 869 556
f 556 869 557
f 869 868 557
f 557 868 570
f 868 867 570
f 570 867 571
f 867 866 571
f 571 866 540
f 866 865 540
f 540 865 541
f 865 845 541
f 541 845 542
f 845 844 542
f 542 844 558
f 844 843 558
f 558 843 559
f 843 827 559
f 559 827 503
f 827 826 503
f 503 826 504
f 826 825 504
f 504 825 523
f 825 816 523
f 523 816 524
f 816 815 524
f 524 815 445
f 815 814 445
f 445 814 446
f 814 754 446
f 446 754 456
f 754 753 456
f 456 753 457
f 753 752 457
f 457 752 444
f 752 751 444
f 444 751 443
f 751 761 443
f 443 761 441
f 761 760 441
f 441 760 440
f 760 759 440
f 440 759 468
f 759 750 468
f 468 750 469
f 750 749 469
f 469 749 470
f 749 748 470
f 470 748 483
f 748 740 483
f 483 740 484
f 740 739 484
f 484 739 485
f 739 805 485
f 485 805 543
f 805 804 543
f 543 804 544
f 804 791 544
f 544 791 525
f 791 790 525
f 525 790 526
f 790 789 526
f 526 789 527
f 789 758 527
f 527 758 505
f 758 757 505
f 505 757 506
f 757 803 506
f 506 803 507
f 803 802 507
f 507 802 528
f 802 801 528
f 528 801 529
f 801 813 529
f 529 813 530
f 813 812 530
f 530 812 546
f 812 779 546
f 546 779 479
f 779 778 479
f 479 778 480
f 778 788 480
f 480 788 481
f 788 800 481
f 481 800 482
f 800 799 482
f 482 799 495
f 799 798 495
f 495 798 496
f 798 787 496
f 496 787 460
f 787 786 460
f 460 786 461
f 786 785 461
f 461 785 466
f 785 777 466
f 466 777 467
f 777 776 467
f 467 776 437
f 776 775 437
f 437 775 438
f 775 747 438
f 438 747 452
f 747 746 452
f 452 746 449
f 746 745 449
f 449 745 578
f 745 744 578
f 578 744 490
f 744 859 490
f 490 859 489
f 859 792 489
f 1072 882 1039
f 882 881 1039
f 1039 881 1040
f 881 952 1040
f 1040 952 1125
f 952 951 1125
f 1125 951 1126
f 951 950 1126
f 1126 950 1127
f 950 1002 1127
f 1127 1002 1139
f 1002 1001 1139
f 1139 1001 1140
f 1001 1000 1140
f 1140 1000 1141
f 1000 999 1141
f 1141 999 1152
f 999 998 1152
f 1152 998 1153
f 998 997 1153
f 1153 997 1154
f 997 1022 1154
f 1154 1022 1159
f 1022 1021 1159
f 1159 1021 1160
f 1021 975 1160
f 1160 975 1142
f 975 974 1142
f 1142 974 1143
f 974 1024 1143
f 1143 1024 1163
f 1024 1023 1163
f 1163 1023 1164
f 1023 1020 1164
f 1164 1020 1165
f 1020 1019 1165
f 1165 1019 1166
f 1019 1018 1166
f 1166 1018 1167
f 1018 1007 1167
f 1167 1007 1168
f 1007 1006 1168
f 1168 1006 1155
f 1006 1014 1155
f 1155 1014 1156
f 1014 1017 1156
f 1156 1017 1157
f 1017 1016 1157
f 1157 1016 1158
f 1016 1015 1158
f 1158 1015 1161
f 1015 1005 1161
f 1161 1005 1162
f 1005 1004 1162
f 1162 1004 1085
f 1004 1003 1085
f 1085 1003 1086
f 1003 996 1086
f 1086 996 1128
f 996 995 1128
f 1128 995 1129
f 995 994 1129
f 1129 994 1073
f 994 968 1073
f 1073 968 1074
f 968 967 1074
f 1074 967 1088
f 967 966 1088
f 1088 966 1054
f 966 927 1054
f 1054 927 1052
f 927 926 1052
f 1052 926 1083
f 926 944 1083
f 1083 944 1084
f 944 943 1084
f 1084 943 1104
f 943 925 1104
f 1104 925 1105
f 925 924 1105
f 1105 924 1106
f 924 964 1106
f 1106 964 1118
f 964 963 1118
f 1118 963 1119
f 963 949 1119
f 1119 949 1043
f 949 948 1043
f 1043 948 1044
f 948 993 1044
f 1044 993 1120
f 993 992 1120
f 1120 992 1121
f 992 962 1121
f 1121 962 1122
f 962 961 1122
f 1122 961 1138
f 961 991 1138
f 1138 991 1144
f 991 990 1144
f 1144 990 1145
f 990 973 1145
f 1145 973 1146
f 973 972 1146
f 1146 972 1147
f 972 989 1147
f 1147 989 1148
f 989 932 1148
f 1148 932 1149
f 932 931 1149
f 1149 931 1150
f 931 930 1150
f 1150 930 1151
f 930 915 1151
f 1151 915 1107
f 915 914 1107
f 1107 914 1108
f 914 913 1108
f 1108 913 1109
f 913 912 1109
f 1109 912 1110
f 912 929 1110
f 1110 929 1123
f 929 928 1123
f 1123 928 1124
f 928 911 1124
f 1124 911 1068
f 911 910 1068
f 1068 910 1069
f 910 909 1069
f 1069 909 1111
f 909 908 1111
f 1111 908 1112
f 908 907 1112
f 1112 907 1046
f 907 906 1046
f 1046 906 1047
f 906 889 1047
f 1047 889 1070
f 889 888 1070
f 1070 888 1071
f 888 887 1071
f 1071 887 1072
f 887 882 1072
f 502 738 453
f 738 737 453
f 453 737 454
f 737 797 454
f 454 797 508
f 797 796 508
f 508 796 509
f 796 795 509
f 509 795 510
f 795 842 510
f 510 842 537
f 842 841 537
f 537 841 538
f 841 840 538
f 538 840 539
f 840 839 539
f 539 839 552
f 839 838 552
f 552 838 553
f 838 837 553
f 553 837 554
f 837 880 554
f 554 880 565
f 880 879 565
f 565 879 566
f 879 824 566
f 566 824 511
f 824 823 511
f 511 823 512
f 823 878 512
f 512 878 567
f 878 877 567
f 567 877 568
f 877 876 568
f 568 876 569
f 876 875 569
f 569 875 579
f 875 874 579
f 579 874 473
f 874 873 473
f 473 873 474
f 873 872 474
f 474 872 475
f 872 871 475
f 475 871 476
f 871 858 476
f 476 858 477
f 858 836 477
f 477 836 478
f 836 835 478
f 478 835 493
f 835 834 493
f 493 834 494
f 834 763 494
f 494 763 458
f 763 762 458
f 458 762 459
f 762 833 459
f 459 833 464
f 833 832 464
f 464 832 465
f 832 822 465
f 465 822 447
f 822 821 447
f 447 821 448
f 821 820 448
f 448 820 450
f 820 811 450
f 450 811 451
f 811 810 451
f 451 810 439
f 810 809 439
f 439 809 545
f 809 807 545
f 545 807 497
f 807 806 497
f 497 806 486
f 806 794 486
f 486 794 487
f 794 793 487
f 487 793 547
f 793 831 547
f 547 831 548
f 831 830 548
f 548 830 549
f 830 818 549
f 549 818 560
f 818 817 560
f 560 817 561
f 817 864 561
f 561 864 562
f 864 863 562
f 562 863 580
f 863 829 580
f 580 829 581
f 829 828 581
f 581 828 582
f 828 862 582
f 582 862 572
f 862 861 572
f 572 861 563
f 861 856 563
f 563 856 564
f 856 855 564
f 564 855 573
f 855 860 573
f 573 860 574
f 860 784 574
f 574 784 575
f 784 783 575
f 575 783 576
f 783 782 576
f 576 782 577
f 782 774 577
f 577 774 531
f 774 773 531
f 531 773 532
f 773 772 532
f 532 772 533
f 772 771 533
f 533 771 534
f 771 781 534
f 534 781 550
f 781 780 550
f 550 780 551
f 780 770 551
f 551 770 498
f 770 769 498
f 498 769 499
f 769 768 499
f 499 768 535
f 768 767 535
f 535 767 536
f 767 766 536
f 536 766 471
f 766 765 471
f 471 765 472
f 765 743 472
f 472 743 500
f 743 742 500
f 500 742 501
f 742 741 501
f 501 741 502
f 741 738 502

