# https://github.com/mikedh/trimesh

o part_1__8.stl
v 0.01264500 0.00000000 0.00000000
v 0.01264500 -0.00000000 0.87000000
v 0.01259688 0.00110208 0.00000000
v 0.01259688 0.00110208 0.87000000
v 0.01245289 0.00219578 0.00000000
v 0.01245289 0.00219578 0.87000000
v 0.01221413 0.00327277 0.00000000
v 0.01221413 0.00327277 0.87000000
v 0.01188241 0.00432484 0.00000000
v 0.01188241 0.00432484 0.87000000
v 0.01146026 0.00534401 0.00000000
v 0.01146026 0.00534401 0.87000000
v 0.01095089 0.00632250 0.00000000
v 0.01095089 0.00632250 0.87000000
v 0.01035818 0.00725287 0.00000000
v 0.01035818 0.00725287 0.87000000
v 0.00968663 0.00812805 0.00000000
v 0.00968663 0.00812805 0.87000000
v 0.00894137 0.00894137 0.00000000
v 0.00894137 0.00894137 0.87000000
v 0.00812805 0.00968663 0.00000000
v 0.00812805 0.00968663 0.87000000
v 0.00725287 0.01035818 0.00000000
v 0.00725287 0.01035818 0.87000000
v 0.00632250 0.01095089 0.00000000
v 0.00632250 0.01095089 0.87000000
v 0.00534401 0.01146026 0.00000000
v 0.00534401 0.01146026 0.87000000
v 0.00432484 0.01188241 0.00000000
v 0.00432484 0.01188241 0.87000000
v 0.00327277 0.01221413 0.00000000
v 0.00327277 0.01221413 0.87000000
v 0.00219578 0.01245289 0.00000000
v 0.00219578 0.01245289 0.87000000
v 0.00110208 0.01259688 0.00000000
v 0.00110208 0.01259688 0.87000000
v 0.00000000 0.01264500 0.00000000
v 0.00000000 0.01264500 0.87000000
v -0.00110208 0.01259688 0.00000000
v -0.00110208 0.01259688 0.87000000
v -0.00219578 0.01245289 0.00000000
v -0.00219578 0.01245289 0.87000000
v -0.00327277 0.01221413 0.00000000
v -0.00327277 0.01221413 0.87000000
v -0.00432484 0.01188241 0.00000000
v -0.00432484 0.01188241 0.87000000
v -0.00534401 0.01146026 0.00000000
v -0.00534401 0.01146026 0.87000000
v -0.00632250 0.01095089 0.00000000
v -0.00632250 0.01095089 0.87000000
v -0.00725287 0.01035818 0.00000000
v -0.00725287 0.01035818 0.87000000
v -0.00812805 0.00968663 0.00000000
v -0.00812805 0.00968663 0.87000000
v -0.00894137 0.00894137 0.00000000
v -0.00894137 0.00894137 0.87000000
v -0.00968663 0.00812805 0.00000000
v -0.00968663 0.00812805 0.87000000
v -0.01035818 0.00725287 0.00000000
v -0.01035818 0.00725287 0.87000000
v -0.01095089 0.00632250 0.00000000
v -0.01095089 0.00632250 0.87000000
v -0.01146026 0.00534401 0.00000000
v -0.01146026 0.00534401 0.87000000
v -0.01188241 0.00432484 0.00000000
v -0.01188241 0.00432484 0.87000000
v -0.01221413 0.00327277 0.00000000
v -0.01221413 0.00327277 0.87000000
v -0.01245289 0.00219578 0.00000000
v -0.01245289 0.00219578 0.87000000
v -0.01259688 0.00110208 0.00000000
v -0.01259688 0.00110208 0.87000000
v -0.01264500 0.00000000 0.00000000
v -0.01264500 0.00000000 0.87000000
v -0.01259688 -0.00110208 0.00000000
v -0.01259688 -0.00110208 0.87000000
v -0.01245289 -0.00219578 0.00000000
v -0.01245289 -0.00219578 0.87000000
v -0.01221413 -0.00327277 0.00000000
v -0.01221413 -0.00327277 0.87000000
v -0.01188241 -0.00432484 0.00000000
v -0.01188241 -0.00432484 0.87000000
v -0.01146026 -0.00534401 0.00000000
v -0.01146026 -0.00534401 0.87000000
v -0.01095089 -0.00632250 0.00000000
v -0.01095089 -0.00632250 0.87000000
v -0.01035818 -0.00725287 0.00000000
v -0.01035818 -0.00725287 0.87000000
v -0.00968663 -0.00812805 0.00000000
v -0.00968663 -0.00812805 0.87000000
v -0.00894137 -0.00894137 0.00000000
v -0.00894137 -0.00894137 0.87000000
v -0.00812805 -0.00968663 0.00000000
v -0.00812805 -0.00968663 0.87000000
v -0.00725287 -0.01035818 0.00000000
v -0.00725287 -0.01035818 0.87000000
v -0.00632250 -0.01095089 0.00000000
v -0.00632250 -0.01095089 0.87000000
v -0.00534401 -0.01146026 0.00000000
v -0.00534401 -0.01146026 0.87000000
v -0.00432484 -0.01188241 0.00000000
v -0.00432484 -0.01188241 0.87000000
v -0.00327277 -0.01221413 0.00000000
v -0.00327277 -0.01221413 0.87000000
v -0.00219578 -0.01245289 0.00000000
v -0.00219578 -0.01245289 0.87000000
v -0.00110208 -0.01259688 0.00000000
v -0.00110208 -0.01259688 0.87000000
v -0.00000000 -0.01264500 0.00000000
v -0.00000000 -0.01264500 0.87000000
v 0.00110208 -0.01259688 0.00000000
v 0.00110208 -0.01259688 0.87000000
v 0.00219578 -0.01245289 0.00000000
v 0.00219578 -0.01245289 0.87000000
v 0.00327277 -0.01221413 0.00000000
v 0.00327277 -0.01221413 0.87000000
v 0.00432484 -0.01188241 0.00000000
v 0.00432484 -0.01188241 0.87000000
v 0.00534401 -0.01146026 0.00000000
v 0.00534401 -0.01146026 0.87000000
v 0.00632250 -0.01095089 0.00000000
v 0.00632250 -0.01095089 0.87000000
v 0.00725287 -0.01035818 0.00000000
v 0.00725287 -0.01035818 0.87000000
v 0.00812805 -0.00968663 0.00000000
v 0.00812805 -0.00968663 0.87000000
v 0.00894137 -0.00894137 0.00000000
v 0.00894137 -0.00894137 0.87000000
v 0.00968663 -0.00812805 0.00000000
v 0.00968663 -0.00812805 0.87000000
v 0.01035818 -0.00725287 0.00000000
v 0.01035818 -0.00725287 0.87000000
v 0.01095089 -0.00632250 0.00000000
v 0.01095089 -0.00632250 0.87000000
v 0.01146026 -0.00534401 0.00000000
v 0.01146026 -0.00534401 0.87000000
v 0.01188241 -0.00432484 0.00000000
v 0.01188241 -0.00432484 0.87000000
v 0.01221413 -0.00327277 0.00000000
v 0.01221413 -0.00327277 0.87000000
v 0.01245289 -0.00219578 0.00000000
v 0.01245289 -0.00219578 0.87000000
v 0.01259688 -0.00110208 0.00000000
v 0.01259688 -0.00110208 0.87000000
v 0.00950000 -0.03067000 0.87000000
v 0.00950000 -0.03067000 0.82800001
v 0.00950000 -0.01517102 0.87000000
v 0.00950000 -0.01517102 0.82800001
v 0.00912758 -0.01087783 0.00000000
v 0.00814479 -0.01163196 0.00000000
v 0.00710000 -0.01229756 0.00000000
v 0.00600118 -0.01286957 0.00000000
v 0.00485669 -0.01334364 0.00000000
v 0.00367523 -0.01371615 0.00000000
v 0.00246580 -0.01398427 0.00000000
v 0.00123761 -0.01414596 0.00000000
v 0.00000000 -0.01420000 0.00000000
v -0.00123761 -0.01414596 0.00000000
v -0.00246580 -0.01398427 0.00000000
v -0.00367523 -0.01371615 0.00000000
v -0.00485669 -0.01334364 0.00000000
v -0.00600118 -0.01286957 0.00000000
v -0.00710000 -0.01229756 0.00000000
v -0.00814479 -0.01163196 0.00000000
v -0.00912758 -0.01087783 0.00000000
v -0.01004092 -0.01004092 0.00000000
v -0.01087783 -0.00912758 0.00000000
v -0.01163196 -0.00814479 0.00000000
v -0.01229756 -0.00710000 0.00000000
v -0.01286957 -0.00600118 0.00000000
v -0.01334364 -0.00485669 0.00000000
v -0.01371615 -0.00367523 0.00000000
v -0.01398427 -0.00246580 0.00000000
v -0.01414596 -0.00123761 0.00000000
v -0.01420000 0.00000000 0.00000000
v -0.01414596 0.00123761 0.00000000
v -0.01398427 0.00246580 0.00000000
v -0.01371615 0.00367523 0.00000000
v -0.01334364 0.00485669 0.00000000
v -0.01286957 0.00600118 0.00000000
v -0.01229756 0.00710000 0.00000000
v -0.01163196 0.00814479 0.00000000
v -0.01087783 0.00912758 0.00000000
v -0.01004092 0.01004092 0.00000000
v -0.00912758 0.01087783 0.00000000
v -0.00814479 0.01163196 0.00000000
v -0.00710000 0.01229756 0.00000000
v -0.00600118 0.01286957 0.00000000
v -0.00485669 0.01334364 0.00000000
v -0.00367523 0.01371615 0.00000000
v -0.00246580 0.01398427 0.00000000
v -0.00123761 0.01414596 0.00000000
v -0.00000000 0.01420000 0.00000000
v 0.00123761 0.01414596 0.00000000
v 0.00246580 0.01398427 0.00000000
v 0.00367523 0.01371615 0.00000000
v 0.00485669 0.01334364 0.00000000
v 0.00600118 0.01286957 0.00000000
v 0.00710000 0.01229756 0.00000000
v 0.00814479 0.01163196 0.00000000
v 0.00912758 0.01087783 0.00000000
v 0.01004092 0.01004092 0.00000000
v 0.01087783 0.00912758 0.00000000
v 0.01163196 0.00814479 0.00000000
v 0.01229756 0.00710000 0.00000000
v 0.01286957 0.00600118 0.00000000
v 0.01334364 0.00485669 0.00000000
v 0.01371615 0.00367523 0.00000000
v 0.01398427 0.00246580 0.00000000
v 0.01414596 0.00123761 0.00000000
v 0.01420000 0.00000000 0.00000000
v 0.01414596 -0.00123761 0.00000000
v 0.01398427 -0.00246580 0.00000000
v 0.01371615 -0.00367523 0.00000000
v 0.01334364 -0.00485669 0.00000000
v 0.01286957 -0.00600118 0.00000000
v 0.01229756 -0.00710000 0.00000000
v 0.01163196 -0.00814479 0.00000000
v 0.01087783 -0.00912758 0.00000000
v 0.01004092 -0.01004092 0.00000000
v -0.00950000 -0.01517102 0.82800001
v -0.00950000 -0.01517102 0.87000000
v -0.01076901 -0.01429820 0.87000000
v -0.01076901 -0.01429820 0.82800001
v -0.01195829 -0.01331951 0.87000000
v -0.01195829 -0.01331951 0.82800001
v -0.01305903 -0.01224221 0.87000000
v -0.01305903 -0.01224221 0.82800001
v -0.01406309 -0.01107427 0.87000000
v -0.01406309 -0.01107427 0.82800001
v -0.01496303 -0.00982434 0.87000000
v -0.01496303 -0.00982434 0.82800001
v -0.01575219 -0.00850168 0.87000000
v -0.01575219 -0.00850168 0.82800001
v -0.01642472 -0.00711607 0.87000000
v -0.01642472 -0.00711607 0.82800001
v -0.01697565 -0.00567778 0.87000000
v -0.01697565 -0.00567778 0.82800001
v -0.01740090 -0.00419745 0.87000000
v -0.01740090 -0.00419745 0.82800001
v -0.01769732 -0.00268604 0.87000000
v -0.01769732 -0.00268604 0.82800001
v -0.01786271 -0.00115475 0.87000000
v -0.01786271 -0.00115475 0.82800001
v -0.01789586 0.00038509 0.87000000
v -0.01789586 0.00038509 0.82800001
v -0.01779651 0.00192208 0.87000000
v -0.01779651 0.00192208 0.82800001
v -0.01756539 0.00344484 0.87000000
v -0.01756539 0.00344484 0.82800001
v -0.01720423 0.00494210 0.87000000
v -0.01720423 0.00494210 0.82800001
v -0.01671570 0.00640276 0.87000000
v -0.01671570 0.00640276 0.82800001
v -0.01610341 0.00781603 0.87000000
v -0.01610341 0.00781603 0.82800001
v -0.01537189 0.00917142 0.87000000
v -0.01537189 0.00917142 0.82800001
v -0.01452657 0.01045891 0.87000000
v -0.01452657 0.01045891 0.82800001
v -0.01357369 0.01166897 0.87000000
v -0.01357369 0.01166897 0.82800001
v -0.01252032 0.01279264 0.87000000
v -0.01252032 0.01279264 0.82800001
v -0.01137425 0.01382159 0.87000000
v -0.01137425 0.01382159 0.82800001
v -0.01014398 0.01474821 0.87000000
v -0.01014398 0.01474821 0.82800001
v -0.00883860 0.01556564 0.87000000
v -0.00883860 0.01556564 0.82800001
v -0.00746778 0.01626783 0.87000000
v -0.00746778 0.01626783 0.82800001
v -0.00604167 0.01684958 0.87000000
v -0.00604167 0.01684958 0.82800001
v -0.00457083 0.01730657 0.87000000
v -0.00457083 0.01730657 0.82800001
v -0.00306615 0.01763544 0.87000000
v -0.00306615 0.01763544 0.82800001
v -0.00153877 0.01783374 0.87000000
v -0.00153877 0.01783374 0.82800001
v 0.00000000 0.01790000 0.87000000
v 0.00000000 0.01790000 0.82800001
v 0.00153877 0.01783374 0.87000000
v 0.00153877 0.01783374 0.82800001
v 0.00306615 0.01763544 0.87000000
v 0.00306615 0.01763544 0.82800001
v 0.00457083 0.01730657 0.87000000
v 0.00457083 0.01730657 0.82800001
v 0.00604167 0.01684958 0.87000000
v 0.00604167 0.01684958 0.82800001
v 0.00746778 0.01626783 0.87000000
v 0.00746778 0.01626783 0.82800001
v 0.00883860 0.01556564 0.87000000
v 0.00883860 0.01556564 0.82800001
v 0.01014398 0.01474821 0.87000000
v 0.01014398 0.01474821 0.82800001
v 0.01137425 0.01382159 0.87000000
v 0.01137425 0.01382159 0.82800001
v 0.01252032 0.01279264 0.87000000
v 0.01252032 0.01279264 0.82800001
v 0.01357369 0.01166897 0.87000000
v 0.01357369 0.01166897 0.82800001
v 0.01452657 0.01045891 0.87000000
v 0.01452657 0.01045891 0.82800001
v 0.01537189 0.00917142 0.87000000
v 0.01537189 0.00917142 0.82800001
v 0.01610341 0.00781603 0.87000000
v 0.01610341 0.00781603 0.82800001
v 0.01671570 0.00640276 0.87000000
v 0.01671570 0.00640276 0.82800001
v 0.01720423 0.00494210 0.87000000
v 0.01720423 0.00494210 0.82800001
v 0.01756539 0.00344484 0.87000000
v 0.01756539 0.00344484 0.82800001
v 0.01779651 0.00192208 0.87000000
v 0.01779651 0.00192208 0.82800001
v 0.01789586 0.00038509 0.87000000
v 0.01789586 0.00038509 0.82800001
v 0.01786271 -0.00115475 0.87000000
v 0.01786271 -0.00115475 0.82800001
v 0.01769732 -0.00268604 0.87000000
v 0.01769732 -0.00268604 0.82800001
v 0.01740090 -0.00419745 0.87000000
v 0.01740090 -0.00419745 0.82800001
v 0.01697565 -0.00567778 0.87000000
v 0.01697565 -0.00567778 0.82800001
v 0.01642472 -0.00711607 0.87000000
v 0.01642472 -0.00711607 0.82800001
v 0.01575219 -0.00850168 0.87000000
v 0.01575219 -0.00850168 0.82800001
v 0.01496303 -0.00982434 0.87000000
v 0.01496303 -0.00982434 0.82800001
v 0.01406309 -0.01107427 0.87000000
v 0.01406309 -0.01107427 0.82800001
v 0.01305903 -0.01224221 0.87000000
v 0.01305903 -0.01224221 0.82800001
v 0.01195829 -0.01331951 0.87000000
v 0.01195829 -0.01331951 0.82800001
v 0.01076901 -0.01429820 0.87000000
v 0.01076901 -0.01429820 0.82800001
v -0.01414596 0.00123761 0.82800001
v -0.01398427 0.00246580 0.82800001
v -0.01371615 0.00367523 0.82800001
v -0.01334364 0.00485669 0.82800001
v -0.01286957 0.00600118 0.82800001
v -0.01229756 0.00710000 0.82800001
v -0.01163196 0.00814479 0.82800001
v -0.01087783 0.00912758 0.82800001
v -0.01004092 0.01004092 0.82800001
v -0.00912758 0.01087783 0.82800001
v -0.00814479 0.01163196 0.82800001
v -0.00710000 0.01229756 0.82800001
v -0.00600118 0.01286957 0.82800001
v -0.00485669 0.01334364 0.82800001
v -0.00367523 0.01371615 0.82800001
v -0.00246580 0.01398427 0.82800001
v -0.00123761 0.01414596 0.82800001
v -0.00000000 0.01420000 0.82800001
v 0.00123761 0.01414596 0.82800001
v 0.00246580 0.01398427 0.82800001
v 0.00367523 0.01371615 0.82800001
v 0.00485669 0.01334364 0.82800001
v 0.00600118 0.01286957 0.82800001
v 0.00710000 0.01229756 0.82800001
v 0.00814479 0.01163196 0.82800001
v 0.00912758 0.01087783 0.82800001
v 0.01004092 0.01004092 0.82800001
v 0.01087783 0.00912758 0.82800001
v 0.01163196 0.00814479 0.82800001
v 0.01229756 0.00710000 0.82800001
v 0.01286957 0.00600118 0.82800001
v 0.01334364 0.00485669 0.82800001
v 0.01371615 0.00367523 0.82800001
v 0.01398427 0.00246580 0.82800001
v 0.01414596 0.00123761 0.82800001
v 0.01420000 0.00000000 0.82800001
v 0.01414596 -0.00123761 0.82800001
v 0.01398427 -0.00246580 0.82800001
v 0.01371615 -0.00367523 0.82800001
v 0.01334364 -0.00485669 0.82800001
v 0.01286957 -0.00600118 0.82800001
v 0.01229756 -0.00710000 0.82800001
v 0.01163196 -0.00814479 0.82800001
v 0.01087783 -0.00912758 0.82800001
v 0.01004092 -0.01004092 0.82800001
v 0.00912758 -0.01087783 0.82800001
v 0.00814479 -0.01163196 0.82800001
v 0.00710000 -0.01229756 0.82800001
v 0.00600118 -0.01286957 0.82800001
v 0.00485669 -0.01334364 0.82800001
v 0.00367523 -0.01371615 0.82800001
v 0.00246580 -0.01398427 0.82800001
v 0.00123761 -0.01414596 0.82800001
v 0.00000000 -0.01420000 0.82800001
v -0.00123761 -0.01414596 0.82800001
v -0.00246580 -0.01398427 0.82800001
v -0.00367523 -0.01371615 0.82800001
v -0.00485669 -0.01334364 0.82800001
v -0.00600118 -0.01286957 0.82800001
v -0.00710000 -0.01229756 0.82800001
v -0.00814479 -0.01163196 0.82800001
v -0.00912758 -0.01087783 0.82800001
v -0.01004092 -0.01004092 0.82800001
v -0.01087783 -0.00912758 0.82800001
v -0.01163196 -0.00814479 0.82800001
v -0.01229756 -0.00710000 0.82800001
v -0.01286957 -0.00600118 0.82800001
v -0.01334364 -0.00485669 0.82800001
v -0.01371615 -0.00367523 0.82800001
v -0.01398427 -0.00246580 0.82800001
v -0.01414596 -0.00123761 0.82800001
v -0.01420000 0.00000000 0.82800001
v -0.00950000 -0.03067000 0.82800001
v -0.00950000 -0.03067000 0.87000000
f 1 2 3
f 2 4 3
f 3 4 5
f 4 6 5
f 5 6 7
f 6 8 7
f 7 8 9
f 8 10 9
f 9 10 11
f 10 12 11
f 11 12 13
f 12 14 13
f 13 14 15
f 14 16 15
f 15 16 17
f 16 18 17
f 17 18 19
f 18 20 19
f 19 20 21
f 20 22 21
f 21 22 23
f 22 24 23
f 23 24 25
f 24 26 25
f 25 26 27
f 26 28 27
f 27 28 29
f 28 30 29
f 29 30 31
f 30 32 31
f 31 32 33
f 32 34 33
f 33 34 35
f 34 36 35
f 35 36 37
f 36 38 37
f 37 38 39
f 38 40 39
f 39 40 41
f 40 42 41
f 41 42 43
f 42 44 43
f 43 44 45
f 44 46 45
f 45 46 47
f 46 48 47
f 47 48 49
f 48 50 49
f 49 50 51
f 50 52 51
f 51 52 53
f 52 54 53
f 53 54 55
f 54 56 55
f 55 56 57
f 56 58 57
f 57 58 59
f 58 60 59
f 59 60 61
f 60 62 61
f 61 62 63
f 62 64 63
f 63 64 65
f 64 66 65
f 65 66 67
f 66 68 67
f 67 68 69
f 68 70 69
f 69 70 71
f 70 72 71
f 71 72 73
f 72 74 73
f 73 74 75
f 74 76 75
f 75 76 77
f 76 78 77
f 77 78 79
f 78 80 79
f 79 80 81
f 80 82 81
f 81 82 83
f 82 84 83
f 83 84 85
f 84 86 85
f 85 86 87
f 86 88 87
f 87 88 89
f 88 90 89
f 89 90 91
f 90 92 91
f 91 92 93
f 92 94 93
f 93 94 95
f 94 96 95
f 95 96 97
f 96 98 97
f 97 98 99
f 98 100 99
f 99 100 101
f 100 102 101
f 101 102 103
f 102 104 103
f 103 104 105
f 104 106 105
f 105 106 107
f 106 108 107
f 107 108 109
f 108 110 109
f 109 110 111
f 110 112 111
f 111 112 113
f 112 114 113
f 113 114 115
f 114 116 115
f 115 116 117
f 116 118 117
f 117 118 119
f 118 120 119
f 119 120 121
f 120 122 121
f 121 122 123
f 122 124 123
f 123 124 125
f 124 126 125
f 125 126 127
f 126 128 127
f 127 128 129
f 128 130 129
f 129 130 131
f 130 132 131
f 131 132 133
f 132 134 133
f 133 134 135
f 134 136 135
f 135 136 137
f 136 138 137
f 137 138 139
f 138 140 139
f 139 140 141
f 140 142 141
f 141 142 143
f 142 144 143
f 143 144 1
f 144 2 1
f 145 146 147
f 146 148 147
f 125 149 123
f 149 150 123
f 123 150 121
f 150 151 121
f 121 151 119
f 151 152 119
f 119 152 117
f 152 153 117
f 117 153 115
f 153 154 115
f 115 154 113
f 154 155 113
f 113 155 111
f 155 156 111
f 111 156 109
f 156 157 109
f 109 157 107
f 157 158 107
f 107 158 105
f 158 159 105
f 105 159 103
f 159 160 103
f 103 160 101
f 160 161 101
f 101 161 99
f 161 162 99
f 99 162 97
f 162 163 97
f 97 163 95
f 163 164 95
f 95 164 93
f 164 165 93
f 93 165 91
f 165 166 91
f 91 166 89
f 166 167 89
f 89 167 87
f 167 168 87
f 87 168 85
f 168 169 85
f 85 169 83
f 169 170 83
f 83 170 81
f 170 171 81
f 81 171 79
f 171 172 79
f 79 172 77
f 172 173 77
f 77 173 75
f 173 174 75
f 75 174 73
f 174 175 73
f 73 175 71
f 175 176 71
f 71 176 69
f 176 177 69
f 69 177 67
f 177 178 67
f 67 178 65
f 178 179 65
f 65 179 63
f 179 180 63
f 63 180 61
f 180 181 61
f 61 181 59
f 181 182 59
f 59 182 57
f 182 183 57
f 57 183 55
f 183 184 55
f 55 184 53
f 184 185 53
f 53 185 51
f 185 186 51
f 51 186 49
f 186 187 49
f 49 187 47
f 187 188 47
f 47 188 45
f 188 189 45
f 45 189 43
f 189 190 43
f 43 190 41
f 190 191 41
f 41 191 39
f 191 192 39
f 39 192 37
f 192 193 37
f 37 193 35
f 193 194 35
f 35 194 33
f 194 195 33
f 33 195 31
f 195 196 31
f 31 196 29
f 196 197 29
f 29 197 27
f 197 198 27
f 27 198 25
f 198 199 25
f 25 199 23
f 199 200 23
f 23 200 21
f 200 201 21
f 21 201 19
f 201 202 19
f 19 202 17
f 202 203 17
f 17 203 15
f 203 204 15
f 15 204 13
f 204 205 13
f 13 205 11
f 205 206 11
f 11 206 9
f 206 207 9
f 9 207 7
f 207 208 7
f 7 208 5
f 208 209 5
f 5 209 3
f 209 210 3
f 3 210 1
f 210 211 1
f 1 211 143
f 211 212 143
f 143 212 141
f 212 213 141
f 141 213 139
f 213 214 139
f 139 214 137
f 214 215 137
f 137 215 135
f 215 216 135
f 135 216 133
f 216 217 133
f 133 217 131
f 217 218 131
f 131 218 129
f 218 219 129
f 129 219 127
f 219 220 127
f 127 220 125
f 220 149 125
f 221 222 223
f 221 223 224
f 223 225 224
f 224 225 226
f 225 227 226
f 226 227 228
f 227 229 228
f 228 229 230
f 229 231 230
f 230 231 232
f 231 233 232
f 232 233 234
f 233 235 234
f 234 235 236
f 235 237 236
f 236 237 238
f 237 239 238
f 238 239 240
f 239 241 240
f 240 241 242
f 241 243 242
f 242 243 244
f 243 245 244
f 244 245 246
f 245 247 246
f 246 247 248
f 247 249 248
f 248 249 250
f 249 251 250
f 250 251 252
f 251 253 252
f 252 253 254
f 253 255 254
f 254 255 256
f 255 257 256
f 256 257 258
f 257 259 258
f 258 259 260
f 259 261 260
f 260 261 262
f 261 263 262
f 262 263 264
f 263 265 264
f 264 265 266
f 265 267 266
f 266 267 268
f 267 269 268
f 268 269 270
f 269 271 270
f 270 271 272
f 271 273 272
f 272 273 274
f 273 275 274
f 274 275 276
f 275 277 276
f 276 277 278
f 277 279 278
f 278 279 280
f 279 281 280
f 280 281 282
f 281 283 282
f 282 283 284
f 283 285 284
f 284 285 286
f 285 287 286
f 286 287 288
f 287 289 288
f 288 289 290
f 289 291 290
f 290 291 292
f 291 293 292
f 292 293 294
f 293 295 294
f 294 295 296
f 295 297 296
f 296 297 298
f 297 299 298
f 298 299 300
f 299 301 300
f 300 301 302
f 301 303 302
f 302 303 304
f 303 305 304
f 304 305 306
f 305 307 306
f 306 307 308
f 307 309 308
f 308 309 310
f 309 311 310
f 310 311 312
f 311 313 312
f 312 313 314
f 313 315 314
f 314 315 316
f 315 317 316
f 316 317 318
f 317 319 318
f 318 319 320
f 319 321 320
f 320 321 322
f 321 323 322
f 322 323 324
f 323 325 324
f 324 325 326
f 325 327 326
f 326 327 328
f 327 329 328
f 328 329 330
f 329 331 330
f 330 331 332
f 331 333 332
f 332 333 334
f 333 335 334
f 334 335 336
f 335 337 336
f 336 337 338
f 337 339 338
f 338 339 340
f 339 147 340
f 340 147 148
f 175 341 176
f 341 342 176
f 176 342 177
f 342 343 177
f 177 343 178
f 343 344 178
f 178 344 179
f 344 345 179
f 179 345 180
f 345 346 180
f 180 346 181
f 346 347 181
f 181 347 182
f 347 348 182
f 182 348 183
f 348 349 183
f 183 349 184
f 349 350 184
f 184 350 185
f 350 351 185
f 185 351 186
f 351 352 186
f 186 352 187
f 352 353 187
f 187 353 188
f 353 354 188
f 188 354 189
f 354 355 189
f 189 355 190
f 355 356 190
f 190 356 191
f 356 357 191
f 191 357 192
f 357 358 192
f 192 358 193
f 358 359 193
f 193 359 194
f 359 360 194
f 194 360 195
f 360 361 195
f 195 361 196
f 361 362 196
f 196 362 197
f 362 363 197
f 197 363 198
f 363 364 198
f 198 364 199
f 364 365 199
f 199 365 200
f 365 366 200
f 200 366 201
f 366 367 201
f 201 367 202
f 367 368 202
f 202 368 203
f 368 369 203
f 203 369 204
f 369 370 204
f 204 370 205
f 370 371 205
f 205 371 206
f 371 372 206
f 206 372 207
f 372 373 207
f 207 373 208
f 373 374 208
f 208 374 209
f 374 375 209
f 209 375 210
f 375 376 210
f 210 376 211
f 376 377 211
f 211 377 212
f 377 378 212
f 212 378 213
f 378 379 213
f 213 379 214
f 379 380 214
f 214 380 215
f 380 381 215
f 215 381 216
f 381 382 216
f 216 382 217
f 382 383 217
f 217 383 218
f 383 384 218
f 218 384 219
f 384 385 219
f 219 385 220
f 385 386 220
f 220 386 149
f 386 387 149
f 149 387 150
f 387 388 150
f 150 388 151
f 388 389 151
f 151 389 152
f 389 390 152
f 152 390 153
f 390 391 153
f 153 391 154
f 391 392 154
f 154 392 155
f 392 393 155
f 155 393 156
f 393 394 156
f 156 394 157
f 394 395 157
f 157 395 158
f 395 396 158
f 158 396 159
f 396 397 159
f 159 397 160
f 397 398 160
f 160 398 161
f 398 399 161
f 161 399 162
f 399 400 162
f 162 400 163
f 400 401 163
f 163 401 164
f 401 402 164
f 164 402 165
f 402 403 165
f 165 403 166
f 403 404 166
f 166 404 167
f 404 405 167
f 167 405 168
f 405 406 168
f 168 406 169
f 406 407 169
f 169 407 170
f 407 408 170
f 170 408 171
f 408 409 171
f 171 409 172
f 409 410 172
f 172 410 173
f 410 411 173
f 173 411 174
f 411 412 174
f 174 412 175
f 412 341 175
f 221 399 413
f 399 398 413
f 413 398 397
f 393 392 148
f 392 391 148
f 148 391 390
f 397 396 413
f 396 395 413
f 413 395 146
f 146 395 148
f 395 394 148
f 148 394 393
f 390 389 148
f 389 388 148
f 148 388 340
f 388 387 340
f 340 387 338
f 387 386 338
f 338 386 336
f 386 385 336
f 336 385 334
f 385 384 334
f 334 384 332
f 384 383 332
f 332 383 330
f 383 382 330
f 330 382 328
f 382 381 328
f 328 381 326
f 381 380 326
f 326 380 324
f 380 379 324
f 324 379 322
f 379 378 322
f 322 378 320
f 378 377 320
f 320 377 318
f 377 376 318
f 318 376 316
f 376 375 316
f 316 375 314
f 375 374 314
f 314 374 312
f 374 373 312
f 312 373 310
f 373 372 310
f 310 372 308
f 372 371 308
f 308 371 306
f 371 370 306
f 306 370 304
f 370 369 304
f 304 369 302
f 369 368 302
f 302 368 300
f 368 367 300
f 300 367 298
f 367 366 298
f 298 366 296
f 366 365 296
f 296 365 294
f 365 364 294
f 294 364 292
f 364 363 292
f 292 363 290
f 363 362 290
f 290 362 288
f 362 361 288
f 288 361 286
f 361 360 286
f 286 360 284
f 360 359 284
f 284 359 282
f 359 358 282
f 282 358 280
f 358 357 280
f 280 357 278
f 357 356 278
f 278 356 276
f 356 355 276
f 276 355 274
f 355 354 274
f 274 354 272
f 354 353 272
f 272 353 270
f 353 352 270
f 270 352 268
f 352 351 268
f 268 351 266
f 351 350 266
f 266 350 264
f 350 349 264
f 264 349 262
f 349 348 262
f 262 348 260
f 348 347 260
f 260 347 258
f 347 346 258
f 258 346 256
f 346 345 256
f 256 345 254
f 345 344 254
f 254 344 252
f 344 343 252
f 252 343 250
f 343 342 250
f 250 342 248
f 342 341 248
f 248 341 246
f 341 412 246
f 246 412 244
f 412 411 244
f 244 411 242
f 411 410 242
f 242 410 240
f 410 409 240
f 240 409 238
f 409 408 238
f 238 408 236
f 408 407 236
f 236 407 234
f 407 406 234
f 234 406 232
f 406 405 232
f 232 405 230
f 405 404 230
f 230 404 228
f 404 403 228
f 228 403 226
f 403 402 226
f 226 402 224
f 402 401 224
f 224 401 221
f 401 400 221
f 221 400 399
f 145 112 414
f 112 110 414
f 414 110 108
f 102 222 104
f 222 414 104
f 104 414 106
f 414 108 106
f 120 118 147
f 118 116 147
f 147 116 145
f 116 114 145
f 145 114 112
f 102 100 222
f 100 98 222
f 222 98 223
f 98 96 223
f 223 96 225
f 96 94 225
f 225 94 227
f 94 92 227
f 227 92 229
f 92 90 229
f 229 90 231
f 90 88 231
f 231 88 233
f 88 86 233
f 233 86 235
f 86 84 235
f 235 84 237
f 84 82 237
f 237 82 239
f 82 80 239
f 239 80 241
f 80 78 241
f 241 78 243
f 78 76 243
f 243 76 245
f 76 74 245
f 245 74 247
f 74 72 247
f 247 72 249
f 72 70 249
f 249 70 251
f 70 68 251
f 251 68 253
f 68 66 253
f 253 66 255
f 66 64 255
f 255 64 257
f 64 62 257
f 257 62 259
f 62 60 259
f 259 60 261
f 60 58 261
f 261 58 263
f 58 56 263
f 263 56 265
f 56 54 265
f 265 54 267
f 54 52 267
f 267 52 269
f 52 50 269
f 269 50 271
f 50 48 271
f 271 48 273
f 48 46 273
f 273 46 275
f 46 44 275
f 275 44 277
f 44 42 277
f 277 42 279
f 42 40 279
f 279 40 281
f 40 38 281
f 281 38 283
f 38 36 283
f 283 36 285
f 36 34 285
f 285 34 287
f 34 32 287
f 287 32 289
f 32 30 289
f 289 30 291
f 30 28 291
f 291 28 293
f 28 26 293
f 293 26 295
f 26 24 295
f 295 24 297
f 24 22 297
f 297 22 299
f 22 20 299
f 299 20 301
f 20 18 301
f 301 18 303
f 18 16 303
f 303 16 305
f 16 14 305
f 305 14 307
f 14 12 307
f 307 12 309
f 12 10 309
f 309 10 311
f 10 8 311
f 311 8 313
f 8 6 313
f 313 6 315
f 6 4 315
f 315 4 317
f 4 2 317
f 317 2 319
f 2 144 319
f 319 144 321
f 144 142 321
f 321 142 323
f 142 140 323
f 323 140 325
f 140 138 325
f 325 138 327
f 138 136 327
f 327 136 329
f 136 134 329
f 329 134 331
f 134 132 331
f 331 132 333
f 132 130 333
f 333 130 335
f 130 128 335
f 335 128 337
f 128 126 337
f 337 126 339
f 126 124 339
f 339 124 147
f 124 122 147
f 147 122 120
f 146 145 413
f 145 414 413
f 221 413 222
f 413 414 222

