# https://github.com/mikedh/trimesh

o part_1__10.stl
v 0.01045000 0.00000000 0.00000000
v 0.01045000 -0.00000000 0.90109998
v 0.01041023 0.00091078 0.00000000
v 0.01041023 0.00091078 0.90109998
v 0.01029124 0.00181462 0.00000000
v 0.01029124 0.00181462 0.90109998
v 0.01009392 0.00270466 0.00000000
v 0.01009392 0.00270466 0.90109998
v 0.00981979 0.00357411 0.00000000
v 0.00981979 0.00357411 0.90109998
v 0.00947092 0.00441636 0.00000000
v 0.00947092 0.00441636 0.90109998
v 0.00904997 0.00522500 0.00000000
v 0.00904997 0.00522500 0.90109998
v 0.00856014 0.00599387 0.00000000
v 0.00856014 0.00599387 0.90109998
v 0.00800516 0.00671713 0.00000000
v 0.00800516 0.00671713 0.90109998
v 0.00738927 0.00738927 0.00000000
v 0.00738927 0.00738927 0.90109998
v 0.00671713 0.00800516 0.00000000
v 0.00671713 0.00800516 0.90109998
v 0.00599387 0.00856014 0.00000000
v 0.00599387 0.00856014 0.90109998
v 0.00522500 0.00904997 0.00000000
v 0.00522500 0.00904997 0.90109998
v 0.00441636 0.00947092 0.00000000
v 0.00441636 0.00947092 0.90109998
v 0.00357411 0.00981979 0.00000000
v 0.00357411 0.00981979 0.90109998
v 0.00270466 0.01009392 0.00000000
v 0.00270466 0.01009392 0.90109998
v 0.00181462 0.01029124 0.00000000
v 0.00181462 0.01029124 0.90109998
v 0.00091078 0.01041023 0.00000000
v 0.00091078 0.01041023 0.90109998
v 0.00000000 0.01045000 0.00000000
v 0.00000000 0.01045000 0.90109998
v -0.00091078 0.01041023 0.00000000
v -0.00091078 0.01041023 0.90109998
v -0.00181462 0.01029124 0.00000000
v -0.00181462 0.01029124 0.90109998
v -0.00270466 0.01009392 0.00000000
v -0.00270466 0.01009392 0.90109998
v -0.00357411 0.00981979 0.00000000
v -0.00357411 0.00981979 0.90109998
v -0.00441636 0.00947092 0.00000000
v -0.00441636 0.00947092 0.90109998
v -0.00522500 0.00904997 0.00000000
v -0.00522500 0.00904997 0.90109998
v -0.00599387 0.00856014 0.00000000
v -0.00599387 0.00856014 0.90109998
v -0.00671713 0.00800516 0.00000000
v -0.00671713 0.00800516 0.90109998
v -0.00738927 0.00738927 0.00000000
v -0.00738927 0.00738927 0.90109998
v -0.00800516 0.00671713 0.00000000
v -0.00800516 0.00671713 0.90109998
v -0.00856014 0.00599387 0.00000000
v -0.00856014 0.00599387 0.90109998
v -0.00904997 0.00522500 0.00000000
v -0.00904997 0.00522500 0.90109998
v -0.00947092 0.00441636 0.00000000
v -0.00947092 0.00441636 0.90109998
v -0.00981979 0.00357411 0.00000000
v -0.00981979 0.00357411 0.90109998
v -0.01009392 0.00270466 0.00000000
v -0.01009392 0.00270466 0.90109998
v -0.01029124 0.00181462 0.00000000
v -0.01029124 0.00181462 0.90109998
v -0.01041023 0.00091078 0.00000000
v -0.01041023 0.00091078 0.90109998
v -0.01045000 0.00000000 0.00000000
v -0.01045000 0.00000000 0.90109998
v -0.01041023 -0.00091078 0.00000000
v -0.01041023 -0.00091078 0.90109998
v -0.01029124 -0.00181462 0.00000000
v -0.01029124 -0.00181462 0.90109998
v -0.01009392 -0.00270466 0.00000000
v -0.01009392 -0.00270466 0.90109998
v -0.00981979 -0.00357411 0.00000000
v -0.00981979 -0.00357411 0.90109998
v -0.00947092 -0.00441636 0.00000000
v -0.00947092 -0.00441636 0.90109998
v -0.00904997 -0.00522500 0.00000000
v -0.00904997 -0.00522500 0.90109998
v -0.00856014 -0.00599387 0.00000000
v -0.00856014 -0.00599387 0.90109998
v -0.00800516 -0.00671713 0.00000000
v -0.00800516 -0.00671713 0.90109998
v -0.00738927 -0.00738927 0.00000000
v -0.00738927 -0.00738927 0.90109998
v -0.00671713 -0.00800516 0.00000000
v -0.00671713 -0.00800516 0.90109998
v -0.00599387 -0.00856014 0.00000000
v -0.00599387 -0.00856014 0.90109998
v -0.00522500 -0.00904997 0.00000000
v -0.00522500 -0.00904997 0.90109998
v -0.00441636 -0.00947092 0.00000000
v -0.00441636 -0.00947092 0.90109998
v -0.00357411 -0.00981979 0.00000000
v -0.00357411 -0.00981979 0.90109998
v -0.00270466 -0.01009392 0.00000000
v -0.00270466 -0.01009392 0.90109998
v -0.00181462 -0.01029124 0.00000000
v -0.00181462 -0.01029124 0.90109998
v -0.00091078 -0.01041023 0.00000000
v -0.00091078 -0.01041023 0.90109998
v -0.00000000 -0.01045000 0.00000000
v -0.00000000 -0.01045000 0.90109998
v 0.00091078 -0.01041023 0.00000000
v 0.00091078 -0.01041023 0.90109998
v 0.00181462 -0.01029124 0.00000000
v 0.00181462 -0.01029124 0.90109998
v 0.00270466 -0.01009392 0.00000000
v 0.00270466 -0.01009392 0.90109998
v 0.00357411 -0.00981979 0.00000000
v 0.00357411 -0.00981979 0.90109998
v 0.00441636 -0.00947092 0.00000000
v 0.00441636 -0.00947092 0.90109998
v 0.00522500 -0.00904997 0.00000000
v 0.00522500 -0.00904997 0.90109998
v 0.00599387 -0.00856014 0.00000000
v 0.00599387 -0.00856014 0.90109998
v 0.00671713 -0.00800516 0.00000000
v 0.00671713 -0.00800516 0.90109998
v 0.00738927 -0.00738927 0.00000000
v 0.00738927 -0.00738927 0.90109998
v 0.00800516 -0.00671713 0.00000000
v 0.00800516 -0.00671713 0.90109998
v 0.00856014 -0.00599387 0.00000000
v 0.00856014 -0.00599387 0.90109998
v 0.00904997 -0.00522500 0.00000000
v 0.00904997 -0.00522500 0.90109998
v 0.00947092 -0.00441636 0.00000000
v 0.00947092 -0.00441636 0.90109998
v 0.00981979 -0.00357411 0.00000000
v 0.00981979 -0.00357411 0.90109998
v 0.01009392 -0.00270466 0.00000000
v 0.01009392 -0.00270466 0.90109998
v 0.01029124 -0.00181462 0.00000000
v 0.01029124 -0.00181462 0.90109998
v 0.01041023 -0.00091078 0.00000000
v 0.01041023 -0.00091078 0.90109998
v -0.01101507 0.00194225 0.00000000
v -0.01080388 0.00289489 0.00000000
v -0.01051046 0.00382550 0.00000000
v -0.01013705 0.00472699 0.00000000
v -0.00968649 0.00559250 0.00000000
v -0.00916222 0.00641545 0.00000000
v -0.00856821 0.00718958 0.00000000
v -0.00790899 0.00790899 0.00000000
v -0.00718958 0.00856821 0.00000000
v -0.00641545 0.00916222 0.00000000
v -0.00559250 0.00968649 0.00000000
v -0.00472699 0.01013705 0.00000000
v -0.00382550 0.01051046 0.00000000
v -0.00289489 0.01080388 0.00000000
v -0.00194225 0.01101507 0.00000000
v -0.00097484 0.01114244 0.00000000
v -0.00000000 0.01118500 0.00000000
v 0.00097484 0.01114244 0.00000000
v 0.00194225 0.01101507 0.00000000
v 0.00289489 0.01080388 0.00000000
v 0.00382550 0.01051046 0.00000000
v 0.00472699 0.01013705 0.00000000
v 0.00559250 0.00968649 0.00000000
v 0.00641545 0.00916222 0.00000000
v 0.00718958 0.00856821 0.00000000
v 0.00790899 0.00790899 0.00000000
v 0.00856821 0.00718958 0.00000000
v 0.00916222 0.00641545 0.00000000
v 0.00968649 0.00559250 0.00000000
v 0.01013705 0.00472699 0.00000000
v 0.01051046 0.00382550 0.00000000
v 0.01080388 0.00289489 0.00000000
v 0.01101507 0.00194225 0.00000000
v 0.01114244 0.00097484 0.00000000
v 0.01118500 0.00000000 0.00000000
v 0.01114244 -0.00097484 0.00000000
v 0.01101507 -0.00194225 0.00000000
v 0.01080388 -0.00289489 0.00000000
v 0.01051046 -0.00382550 0.00000000
v 0.01013705 -0.00472699 0.00000000
v 0.00968649 -0.00559250 0.00000000
v 0.00916222 -0.00641545 0.00000000
v 0.00856821 -0.00718958 0.00000000
v 0.00790899 -0.00790899 0.00000000
v 0.00718958 -0.00856821 0.00000000
v 0.00641545 -0.00916222 0.00000000
v 0.00559250 -0.00968649 0.00000000
v 0.00472699 -0.01013705 0.00000000
v 0.00382550 -0.01051046 0.00000000
v 0.00289489 -0.01080388 0.00000000
v 0.00194225 -0.01101507 0.00000000
v 0.00097484 -0.01114244 0.00000000
v 0.00000000 -0.01118500 0.00000000
v -0.00097484 -0.01114244 0.00000000
v -0.00194225 -0.01101507 0.00000000
v -0.00289489 -0.01080388 0.00000000
v -0.00382550 -0.01051046 0.00000000
v -0.00472699 -0.01013705 0.00000000
v -0.00559250 -0.00968649 0.00000000
v -0.00641545 -0.00916222 0.00000000
v -0.00718958 -0.00856821 0.00000000
v -0.00790899 -0.00790899 0.00000000
v -0.00856821 -0.00718958 0.00000000
v -0.00916222 -0.00641545 0.00000000
v -0.00968649 -0.00559250 0.00000000
v -0.01013705 -0.00472699 0.00000000
v -0.01051046 -0.00382550 0.00000000
v -0.01080388 -0.00289489 0.00000000
v -0.01101507 -0.00194225 0.00000000
v -0.01114244 -0.00097484 0.00000000
v -0.01118500 0.00000000 0.00000000
v -0.01114244 0.00097484 0.00000000
v -0.01114244 0.00097484 0.90109998
v -0.01101507 0.00194225 0.90109998
v -0.01080388 0.00289489 0.90109998
v -0.01051046 0.00382550 0.90109998
v -0.01013705 0.00472699 0.90109998
v -0.00968649 0.00559250 0.90109998
v -0.00916222 0.00641545 0.90109998
v -0.00856821 0.00718958 0.90109998
v -0.00790899 0.00790899 0.90109998
v -0.00718958 0.00856821 0.90109998
v -0.00641545 0.00916222 0.90109998
v -0.00559250 0.00968649 0.90109998
v -0.00472699 0.01013705 0.90109998
v -0.00382550 0.01051046 0.90109998
v -0.00289489 0.01080388 0.90109998
v -0.00194225 0.01101507 0.90109998
v -0.00097484 0.01114244 0.90109998
v -0.00000000 0.01118500 0.90109998
v 0.00097484 0.01114244 0.90109998
v 0.00194225 0.01101507 0.90109998
v 0.00289489 0.01080388 0.90109998
v 0.00382550 0.01051046 0.90109998
v 0.00472699 0.01013705 0.90109998
v 0.00559250 0.00968649 0.90109998
v 0.00641545 0.00916222 0.90109998
v 0.00718958 0.00856821 0.90109998
v 0.00790899 0.00790899 0.90109998
v 0.00856821 0.00718958 0.90109998
v 0.00916222 0.00641545 0.90109998
v 0.00968649 0.00559250 0.90109998
v 0.01013705 0.00472699 0.90109998
v 0.01051046 0.00382550 0.90109998
v 0.01080388 0.00289489 0.90109998
v 0.01101507 0.00194225 0.90109998
v 0.01114244 0.00097484 0.90109998
v 0.01118500 0.00000000 0.90109998
v 0.01114244 -0.00097484 0.90109998
v 0.01101507 -0.00194225 0.90109998
v 0.01080388 -0.00289489 0.90109998
v 0.01051046 -0.00382550 0.90109998
v 0.01013705 -0.00472699 0.90109998
v 0.00968649 -0.00559250 0.90109998
v 0.00916222 -0.00641545 0.90109998
v 0.00856821 -0.00718958 0.90109998
v 0.00790899 -0.00790899 0.90109998
v 0.00718958 -0.00856821 0.90109998
v 0.00641545 -0.00916222 0.90109998
v 0.00559250 -0.00968649 0.90109998
v 0.00472699 -0.01013705 0.90109998
v 0.00382550 -0.01051046 0.90109998
v 0.00289489 -0.01080388 0.90109998
v 0.00194225 -0.01101507 0.90109998
v 0.00097484 -0.01114244 0.90109998
v 0.00000000 -0.01118500 0.90109998
v -0.00097484 -0.01114244 0.90109998
v -0.00194225 -0.01101507 0.90109998
v -0.00289489 -0.01080388 0.90109998
v -0.00382550 -0.01051046 0.90109998
v -0.00472699 -0.01013705 0.90109998
v -0.00559250 -0.00968649 0.90109998
v -0.00641545 -0.00916222 0.90109998
v -0.00718958 -0.00856821 0.90109998
v -0.00790899 -0.00790899 0.90109998
v -0.00856821 -0.00718958 0.90109998
v -0.00916222 -0.00641545 0.90109998
v -0.00968649 -0.00559250 0.90109998
v -0.01013705 -0.00472699 0.90109998
v -0.01051046 -0.00382550 0.90109998
v -0.01080388 -0.00289489 0.90109998
v -0.01101507 -0.00194225 0.90109998
v -0.01114244 -0.00097484 0.90109998
v -0.01118500 0.00000000 0.90109998
f 1 2 3
f 2 4 3
f 3 4 5
f 4 6 5
f 5 6 7
f 6 8 7
f 7 8 9
f 8 10 9
f 9 10 11
f 10 12 11
f 11 12 13
f 12 14 13
f 13 14 15
f 14 16 15
f 15 16 17
f 16 18 17
f 17 18 19
f 18 20 19
f 19 20 21
f 20 22 21
f 21 22 23
f 22 24 23
f 23 24 25
f 24 26 25
f 25 26 27
f 26 28 27
f 27 28 29
f 28 30 29
f 29 30 31
f 30 32 31
f 31 32 33
f 32 34 33
f 33 34 35
f 34 36 35
f 35 36 37
f 36 38 37
f 37 38 39
f 38 40 39
f 39 40 41
f 40 42 41
f 41 42 43
f 42 44 43
f 43 44 45
f 44 46 45
f 45 46 47
f 46 48 47
f 47 48 49
f 48 50 49
f 49 50 51
f 50 52 51
f 51 52 53
f 52 54 53
f 53 54 55
f 54 56 55
f 55 56 57
f 56 58 57
f 57 58 59
f 58 60 59
f 59 60 61
f 60 62 61
f 61 62 63
f 62 64 63
f 63 64 65
f 64 66 65
f 65 66 67
f 66 68 67
f 67 68 69
f 68 70 69
f 69 70 71
f 70 72 71
f 71 72 73
f 72 74 73
f 73 74 75
f 74 76 75
f 75 76 77
f 76 78 77
f 77 78 79
f 78 80 79
f 79 80 81
f 80 82 81
f 81 82 83
f 82 84 83
f 83 84 85
f 84 86 85
f 85 86 87
f 86 88 87
f 87 88 89
f 88 90 89
f 89 90 91
f 90 92 91
f 91 92 93
f 92 94 93
f 93 94 95
f 94 96 95
f 95 96 97
f 96 98 97
f 97 98 99
f 98 100 99
f 99 100 101
f 100 102 101
f 101 102 103
f 102 104 103
f 103 104 105
f 104 106 105
f 105 106 107
f 106 108 107
f 107 108 109
f 108 110 109
f 109 110 111
f 110 112 111
f 111 112 113
f 112 114 113
f 113 114 115
f 114 116 115
f 115 116 117
f 116 118 117
f 117 118 119
f 118 120 119
f 119 120 121
f 120 122 121
f 121 122 123
f 122 124 123
f 123 124 125
f 124 126 125
f 125 126 127
f 126 128 127
f 127 128 129
f 128 130 129
f 129 130 131
f 130 132 131
f 131 132 133
f 132 134 133
f 133 134 135
f 134 136 135
f 135 136 137
f 136 138 137
f 137 138 139
f 138 140 139
f 139 140 141
f 140 142 141
f 141 142 143
f 142 144 143
f 143 144 1
f 144 2 1
f 69 145 67
f 145 146 67
f 67 146 65
f 146 147 65
f 65 147 63
f 147 148 63
f 63 148 61
f 148 149 61
f 61 149 59
f 149 150 59
f 59 150 57
f 150 151 57
f 57 151 55
f 151 152 55
f 55 152 53
f 152 153 53
f 53 153 51
f 153 154 51
f 51 154 49
f 154 155 49
f 49 155 47
f 155 156 47
f 47 156 45
f 156 157 45
f 45 157 43
f 157 158 43
f 43 158 41
f 158 159 41
f 41 159 39
f 159 160 39
f 39 160 37
f 160 161 37
f 37 161 35
f 161 162 35
f 35 162 33
f 162 163 33
f 33 163 31
f 163 164 31
f 31 164 29
f 164 165 29
f 29 165 27
f 165 166 27
f 27 166 25
f 166 167 25
f 25 167 23
f 167 168 23
f 23 168 21
f 168 169 21
f 21 169 19
f 169 170 19
f 19 170 17
f 170 171 17
f 17 171 15
f 171 172 15
f 15 172 13
f 172 173 13
f 13 173 11
f 173 174 11
f 11 174 9
f 174 175 9
f 9 175 7
f 175 176 7
f 7 176 5
f 176 177 5
f 5 177 3
f 177 178 3
f 3 178 1
f 178 179 1
f 1 179 143
f 179 180 143
f 143 180 141
f 180 181 141
f 141 181 139
f 181 182 139
f 139 182 137
f 182 183 137
f 137 183 135
f 183 184 135
f 135 184 133
f 184 185 133
f 133 185 131
f 185 186 131
f 131 186 129
f 186 187 129
f 129 187 127
f 187 188 127
f 127 188 125
f 188 189 125
f 125 189 123
f 189 190 123
f 123 190 121
f 190 191 121
f 121 191 119
f 191 192 119
f 119 192 117
f 192 193 117
f 117 193 115
f 193 194 115
f 115 194 113
f 194 195 113
f 113 195 111
f 195 196 111
f 111 196 109
f 196 197 109
f 109 197 107
f 197 198 107
f 107 198 105
f 198 199 105
f 105 199 103
f 199 200 103
f 103 200 101
f 200 201 101
f 101 201 99
f 201 202 99
f 99 202 97
f 202 203 97
f 97 203 95
f 203 204 95
f 95 204 93
f 204 205 93
f 93 205 91
f 205 206 91
f 91 206 89
f 206 207 89
f 89 207 87
f 207 208 87
f 87 208 85
f 208 209 85
f 85 209 83
f 209 210 83
f 83 210 81
f 210 211 81
f 81 211 79
f 211 212 79
f 79 212 77
f 212 213 77
f 77 213 75
f 213 214 75
f 75 214 73
f 214 215 73
f 73 215 71
f 215 216 71
f 71 216 69
f 216 145 69
f 215 217 216
f 217 218 216
f 216 218 145
f 218 219 145
f 145 219 146
f 219 220 146
f 146 220 147
f 220 221 147
f 147 221 148
f 221 222 148
f 148 222 149
f 222 223 149
f 149 223 150
f 223 224 150
f 150 224 151
f 224 225 151
f 151 225 152
f 225 226 152
f 152 226 153
f 226 227 153
f 153 227 154
f 227 228 154
f 154 228 155
f 228 229 155
f 155 229 156
f 229 230 156
f 156 230 157
f 230 231 157
f 157 231 158
f 231 232 158
f 158 232 159
f 232 233 159
f 159 233 160
f 233 234 160
f 160 234 161
f 234 235 161
f 161 235 162
f 235 236 162
f 162 236 163
f 236 237 163
f 163 237 164
f 237 238 164
f 164 238 165
f 238 239 165
f 165 239 166
f 239 240 166
f 166 240 167
f 240 241 167
f 167 241 168
f 241 242 168
f 168 242 169
f 242 243 169
f 169 243 170
f 243 244 170
f 170 244 171
f 244 245 171
f 171 245 172
f 245 246 172
f 172 246 173
f 246 247 173
f 173 247 174
f 247 248 174
f 174 248 175
f 248 249 175
f 175 249 176
f 249 250 176
f 176 250 177
f 250 251 177
f 177 251 178
f 251 252 178
f 178 252 179
f 252 253 179
f 179 253 180
f 253 254 180
f 180 254 181
f 254 255 181
f 181 255 182
f 255 256 182
f 182 256 183
f 256 257 183
f 183 257 184
f 257 258 184
f 184 258 185
f 258 259 185
f 185 259 186
f 259 260 186
f 186 260 187
f 260 261 187
f 187 261 188
f 261 262 188
f 188 262 189
f 262 263 189
f 189 263 190
f 263 264 190
f 190 264 191
f 264 265 191
f 191 265 192
f 265 266 192
f 192 266 193
f 266 267 193
f 193 267 194
f 267 268 194
f 194 268 195
f 268 269 195
f 195 269 196
f 269 270 196
f 196 270 197
f 270 271 197
f 197 271 198
f 271 272 198
f 198 272 199
f 272 273 199
f 199 273 200
f 273 274 200
f 200 274 201
f 274 275 201
f 201 275 202
f 275 276 202
f 202 276 203
f 276 277 203
f 203 277 204
f 277 278 204
f 204 278 205
f 278 279 205
f 205 279 206
f 279 280 206
f 206 280 207
f 280 281 207
f 207 281 208
f 281 282 208
f 208 282 209
f 282 283 209
f 209 283 210
f 283 284 210
f 210 284 211
f 284 285 211
f 211 285 212
f 285 286 212
f 212 286 213
f 286 287 213
f 213 287 214
f 287 288 214
f 214 288 215
f 288 217 215
f 12 247 14
f 247 246 14
f 14 246 16
f 246 245 16
f 16 245 18
f 245 244 18
f 18 244 20
f 244 243 20
f 20 243 22
f 243 242 22
f 22 242 24
f 242 241 24
f 24 241 26
f 241 240 26
f 26 240 28
f 240 239 28
f 28 239 30
f 239 238 30
f 30 238 32
f 238 237 32
f 32 237 34
f 237 236 34
f 34 236 36
f 236 235 36
f 36 235 38
f 235 234 38
f 38 234 40
f 234 233 40
f 40 233 42
f 233 232 42
f 42 232 44
f 232 231 44
f 44 231 46
f 231 230 46
f 46 230 48
f 230 229 48
f 48 229 50
f 229 228 50
f 50 228 52
f 228 227 52
f 52 227 54
f 227 226 54
f 54 226 56
f 226 225 56
f 56 225 58
f 225 224 58
f 58 224 60
f 224 223 60
f 60 223 62
f 223 222 62
f 62 222 64
f 222 221 64
f 64 221 66
f 221 220 66
f 66 220 68
f 220 219 68
f 68 219 70
f 219 218 70
f 70 218 72
f 218 217 72
f 72 217 74
f 217 288 74
f 74 288 76
f 288 287 76
f 76 287 78
f 287 286 78
f 78 286 80
f 286 285 80
f 80 285 82
f 285 284 82
f 82 284 84
f 284 283 84
f 84 283 86
f 283 282 86
f 86 282 88
f 282 281 88
f 88 281 90
f 281 280 90
f 90 280 92
f 280 279 92
f 92 279 94
f 279 278 94
f 94 278 96
f 278 277 96
f 96 277 98
f 277 276 98
f 98 276 100
f 276 275 100
f 100 275 102
f 275 274 102
f 102 274 104
f 274 273 104
f 104 273 106
f 273 272 106
f 106 272 108
f 272 271 108
f 108 271 110
f 271 270 110
f 110 270 112
f 270 269 112
f 112 269 114
f 269 268 114
f 114 268 116
f 268 267 116
f 116 267 118
f 267 266 118
f 118 266 120
f 266 265 120
f 120 265 122
f 265 264 122
f 122 264 124
f 264 263 124
f 124 263 126
f 263 262 126
f 126 262 128
f 262 261 128
f 128 261 130
f 261 260 130
f 130 260 132
f 260 259 132
f 132 259 134
f 259 258 134
f 134 258 136
f 258 257 136
f 136 257 138
f 257 256 138
f 138 256 140
f 256 255 140
f 140 255 142
f 255 254 142
f 142 254 144
f 254 253 144
f 144 253 2
f 253 252 2
f 2 252 4
f 252 251 4
f 4 251 6
f 251 250 6
f 6 250 8
f 250 249 8
f 8 249 10
f 249 248 10
f 10 248 12
f 248 247 12

