# https://github.com/mikedh/trimesh

o spoke.stl
v 0.01252000 -0.01587500 0.13801692
v 0.00952500 -0.01587500 0.13801692
v 0.01252000 -0.01568761 0.13800873
v 0.00952500 -0.01568761 0.13800873
v 0.01252000 -0.01550166 0.13798426
v 0.00952500 -0.01550166 0.13798426
v 0.01252000 -0.01531854 0.13794366
v 0.00952500 -0.01531854 0.13794366
v 0.01252000 -0.01513966 0.13788725
v 0.00952500 -0.01513966 0.13788725
v 0.01252000 -0.01496637 0.13781548
v 0.00952500 -0.01496637 0.13781548
v 0.01252000 -0.01480000 0.13772887
v 0.00952500 -0.01480000 0.13772887
v 0.01252000 -0.01464181 0.13762809
v 0.00952500 -0.01464181 0.13762809
v 0.01252000 -0.01449301 0.13751391
v 0.00952500 -0.01449301 0.13751391
v 0.01252000 -0.01435472 0.13738720
v 0.00952500 -0.01435472 0.13738720
v 0.01252000 -0.01422800 0.13724890
v 0.00952500 -0.01422800 0.13724890
v 0.01252000 -0.01411382 0.13710010
v 0.00952500 -0.01411382 0.13710010
v 0.01252000 -0.01401305 0.13694191
v 0.00952500 -0.01401305 0.13694191
v 0.01252000 -0.01392644 0.13677555
v 0.00952500 -0.01392644 0.13677555
v 0.01252000 -0.01385466 0.13660227
v 0.00952500 -0.01385466 0.13660227
v 0.01252000 -0.01379826 0.13642338
v 0.00952500 -0.01379826 0.13642338
v 0.01252000 -0.01375766 0.13624026
v 0.00952500 -0.01375766 0.13624026
v 0.01252000 -0.01373318 0.13605431
v 0.00952500 -0.01373318 0.13605431
v 0.01252000 -0.01372500 0.13586691
v 0.00952500 -0.01372500 0.13586691
v 0.01252000 -0.01373318 0.13567953
v 0.00952500 -0.01373318 0.13567953
v 0.01252000 -0.01375766 0.13549358
v 0.00952500 -0.01375766 0.13549358
v 0.01252000 -0.01379826 0.13531046
v 0.00952500 -0.01379826 0.13531046
v 0.01252000 -0.01385466 0.13513157
v 0.00952500 -0.01385466 0.13513157
v 0.01252000 -0.01392644 0.13495828
v 0.00952500 -0.01392644 0.13495828
v 0.01252000 -0.01401305 0.13479191
v 0.00952500 -0.01401305 0.13479191
v 0.01252000 -0.01411382 0.13463373
v 0.00952500 -0.01411382 0.13463373
v 0.01252000 -0.01422800 0.13448492
v 0.00952500 -0.01422800 0.13448492
v 0.01252000 -0.01435472 0.13434663
v 0.00952500 -0.01435472 0.13434663
v 0.01252000 -0.01449301 0.13421991
v 0.00952500 -0.01449301 0.13421991
v 0.01252000 -0.01464181 0.13410574
v 0.00952500 -0.01464181 0.13410574
v 0.01252000 -0.01480000 0.13400497
v 0.00952500 -0.01480000 0.13400497
v 0.01252000 -0.01496637 0.13391836
v 0.00952500 -0.01496637 0.13391836
v 0.01252000 -0.01513966 0.13384658
v 0.00952500 -0.01513966 0.13384658
v 0.01252000 -0.01531854 0.13379018
v 0.00952500 -0.01531854 0.13379018
v 0.01252000 -0.01550166 0.13374957
v 0.00952500 -0.01550166 0.13374957
v 0.01252000 -0.01568761 0.13372509
v 0.00952500 -0.01568761 0.13372509
v 0.01252000 -0.01587500 0.13371691
v 0.00952500 -0.01587500 0.13371691
v 0.01252000 -0.01606238 0.13372509
v 0.00952500 -0.01606238 0.13372509
v 0.01252000 -0.01624834 0.13374957
v 0.00952500 -0.01624834 0.13374957
v 0.01252000 -0.01643146 0.13379018
v 0.00952500 -0.01643146 0.13379018
v 0.01252000 -0.01661034 0.13384658
v 0.00952500 -0.01661034 0.13384658
v 0.01252000 -0.01678363 0.13391836
v 0.00952500 -0.01678363 0.13391836
v 0.01252000 -0.01695000 0.13400497
v 0.00952500 -0.01695000 0.13400497
v 0.01252000 -0.01710819 0.13410574
v 0.00952500 -0.01710819 0.13410574
v 0.01252000 -0.01725699 0.13421991
v 0.00952500 -0.01725699 0.13421991
v 0.01252000 -0.01739528 0.13434663
v 0.00952500 -0.01739528 0.13434663
v 0.01252000 -0.01752200 0.13448492
v 0.00952500 -0.01752200 0.13448492
v 0.01252000 -0.01763618 0.13463373
v 0.00952500 -0.01763618 0.13463373
v 0.01252000 -0.01773695 0.13479191
v 0.00952500 -0.01773695 0.13479191
v 0.01252000 -0.01782356 0.13495828
v 0.00952500 -0.01782356 0.13495828
v 0.01252000 -0.01789534 0.13513157
v 0.00952500 -0.01789534 0.13513157
v 0.01252000 -0.01795174 0.13531046
v 0.00952500 -0.01795174 0.13531046
v 0.01252000 -0.01799234 0.13549358
v 0.00952500 -0.01799234 0.13549358
v 0.01252000 -0.01801682 0.13567953
v 0.00952500 -0.01801682 0.13567953
v 0.01252000 -0.01802500 0.13586691
v 0.00952500 -0.01802500 0.13586691
v 0.01252000 -0.01801682 0.13605431
v 0.00952500 -0.01801682 0.13605431
v 0.01252000 -0.01799234 0.13624026
v 0.00952500 -0.01799234 0.13624026
v 0.01252000 -0.01795174 0.13642338
v 0.00952500 -0.01795174 0.13642338
v 0.01252000 -0.01789534 0.13660227
v 0.00952500 -0.01789534 0.13660227
v 0.01252000 -0.01782356 0.13677555
v 0.00952500 -0.01782356 0.13677555
v 0.01252000 -0.01773695 0.13694191
v 0.00952500 -0.01773695 0.13694191
v 0.01252000 -0.01763618 0.13710010
v 0.00952500 -0.01763618 0.13710010
v 0.01252000 -0.01752200 0.13724890
v 0.00952500 -0.01752200 0.13724890
v 0.01252000 -0.01739528 0.13738720
v 0.00952500 -0.01739528 0.13738720
v 0.01252000 -0.01725699 0.13751391
v 0.00952500 -0.01725699 0.13751391
v 0.01252000 -0.01710819 0.13762809
v 0.00952500 -0.01710819 0.13762809
v 0.01252000 -0.01695000 0.13772887
v 0.00952500 -0.01695000 0.13772887
v 0.01252000 -0.01678363 0.13781548
v 0.00952500 -0.01678363 0.13781548
v 0.01252000 -0.01661034 0.13788725
v 0.00952500 -0.01661034 0.13788725
v 0.01252000 -0.01643146 0.13794366
v 0.00952500 -0.01643146 0.13794366
v 0.01252000 -0.01624834 0.13798426
v 0.00952500 -0.01624834 0.13798426
v 0.01252000 -0.01606238 0.13800873
v 0.00952500 -0.01606238 0.13800873
v 0.01252000 -0.01587500 0.11126092
v 0.00952500 -0.01587500 0.11126092
v 0.01252000 -0.01568761 0.11125273
v 0.00952500 -0.01568761 0.11125273
v 0.01252000 -0.01550166 0.11122826
v 0.00952500 -0.01550166 0.11122826
v 0.01252000 -0.01531854 0.11118766
v 0.00952500 -0.01531854 0.11118766
v 0.01252000 -0.01513966 0.11113126
v 0.00952500 -0.01513966 0.11113126
v 0.01252000 -0.01496637 0.11105948
v 0.00952500 -0.01496637 0.11105948
v 0.01252000 -0.01480000 0.11097287
v 0.00952500 -0.01480000 0.11097287
v 0.01252000 -0.01464181 0.11087210
v 0.00952500 -0.01464181 0.11087210
v 0.01252000 -0.01449301 0.11075791
v 0.00952500 -0.01449301 0.11075791
v 0.01252000 -0.01435472 0.11063120
v 0.00952500 -0.01435472 0.11063120
v 0.01252000 -0.01422800 0.11049291
v 0.00952500 -0.01422800 0.11049291
v 0.01252000 -0.01411382 0.11034410
v 0.00952500 -0.01411382 0.11034410
v 0.01252000 -0.01401305 0.11018591
v 0.00952500 -0.01401305 0.11018591
v 0.01252000 -0.01392644 0.11001955
v 0.00952500 -0.01392644 0.11001955
v 0.01252000 -0.01385466 0.10984626
v 0.00952500 -0.01385466 0.10984626
v 0.01252000 -0.01379826 0.10966738
v 0.00952500 -0.01379826 0.10966738
v 0.01252000 -0.01375766 0.10948426
v 0.00952500 -0.01375766 0.10948426
v 0.01252000 -0.01373318 0.10929830
v 0.00952500 -0.01373318 0.10929830
v 0.01252000 -0.01372500 0.10911091
v 0.00952500 -0.01372500 0.10911091
v 0.01252000 -0.01373318 0.10892353
v 0.00952500 -0.01373318 0.10892353
v 0.01252000 -0.01375766 0.10873757
v 0.00952500 -0.01375766 0.10873757
v 0.01252000 -0.01379826 0.10855445
v 0.00952500 -0.01379826 0.10855445
v 0.01252000 -0.01385466 0.10837557
v 0.00952500 -0.01385466 0.10837557
v 0.01252000 -0.01392644 0.10820229
v 0.00952500 -0.01392644 0.10820229
v 0.01252000 -0.01401305 0.10803591
v 0.00952500 -0.01401305 0.10803591
v 0.01252000 -0.01411382 0.10787773
v 0.00952500 -0.01411382 0.10787773
v 0.01252000 -0.01422800 0.10772892
v 0.00952500 -0.01422800 0.10772892
v 0.01252000 -0.01435472 0.10759064
v 0.00952500 -0.01435472 0.10759064
v 0.01252000 -0.01449301 0.10746392
v 0.00952500 -0.01449301 0.10746392
v 0.01252000 -0.01464181 0.10734974
v 0.00952500 -0.01464181 0.10734974
v 0.01252000 -0.01480000 0.10724896
v 0.00952500 -0.01480000 0.10724896
v 0.01252000 -0.01496637 0.10716236
v 0.00952500 -0.01496637 0.10716236
v 0.01252000 -0.01513966 0.10709058
v 0.00952500 -0.01513966 0.10709058
v 0.01252000 -0.01531854 0.10703418
v 0.00952500 -0.01531854 0.10703418
v 0.01252000 -0.01550166 0.10699358
v 0.00952500 -0.01550166 0.10699358
v 0.01252000 -0.01568761 0.10696910
v 0.00952500 -0.01568761 0.10696910
v 0.01252000 -0.01587500 0.10696092
v 0.00952500 -0.01587500 0.10696092
v 0.01252000 -0.01606238 0.10696910
v 0.00952500 -0.01606238 0.10696910
v 0.01252000 -0.01624834 0.10699358
v 0.00952500 -0.01624834 0.10699358
v 0.01252000 -0.01643146 0.10703418
v 0.00952500 -0.01643146 0.10703418
v 0.01252000 -0.01661034 0.10709058
v 0.00952500 -0.01661034 0.10709058
v 0.01252000 -0.01678363 0.10716236
v 0.00952500 -0.01678363 0.10716236
v 0.01252000 -0.01695000 0.10724896
v 0.00952500 -0.01695000 0.10724896
v 0.01252000 -0.01710819 0.10734974
v 0.00952500 -0.01710819 0.10734974
v 0.01252000 -0.01725699 0.10746392
v 0.00952500 -0.01725699 0.10746392
v 0.01252000 -0.01739528 0.10759064
v 0.00952500 -0.01739528 0.10759064
v 0.01252000 -0.01752200 0.10772892
v 0.00952500 -0.01752200 0.10772892
v 0.01252000 -0.01763618 0.10787773
v 0.00952500 -0.01763618 0.10787773
v 0.01252000 -0.01773695 0.10803591
v 0.00952500 -0.01773695 0.10803591
v 0.01252000 -0.01782356 0.10820229
v 0.00952500 -0.01782356 0.10820229
v 0.01252000 -0.01789534 0.10837557
v 0.00952500 -0.01789534 0.10837557
v 0.01252000 -0.01795174 0.10855445
v 0.00952500 -0.01795174 0.10855445
v 0.01252000 -0.01799234 0.10873757
v 0.00952500 -0.01799234 0.10873757
v 0.01252000 -0.01801682 0.10892353
v 0.00952500 -0.01801682 0.10892353
v 0.01252000 -0.01802500 0.10911091
v 0.00952500 -0.01802500 0.10911091
v 0.01252000 -0.01801682 0.10929830
v 0.00952500 -0.01801682 0.10929830
v 0.01252000 -0.01799234 0.10948426
v 0.00952500 -0.01799234 0.10948426
v 0.01252000 -0.01795174 0.10966738
v 0.00952500 -0.01795174 0.10966738
v 0.01252000 -0.01789534 0.10984626
v 0.00952500 -0.01789534 0.10984626
v 0.01252000 -0.01782356 0.11001955
v 0.00952500 -0.01782356 0.11001955
v 0.01252000 -0.01773695 0.11018591
v 0.00952500 -0.01773695 0.11018591
v 0.01252000 -0.01763618 0.11034410
v 0.00952500 -0.01763618 0.11034410
v 0.01252000 -0.01752200 0.11049291
v 0.00952500 -0.01752200 0.11049291
v 0.01252000 -0.01739528 0.11063120
v 0.00952500 -0.01739528 0.11063120
v 0.01252000 -0.01725699 0.11075791
v 0.00952500 -0.01725699 0.11075791
v 0.01252000 -0.01710819 0.11087210
v 0.00952500 -0.01710819 0.11087210
v 0.01252000 -0.01695000 0.11097287
v 0.00952500 -0.01695000 0.11097287
v 0.01252000 -0.01678363 0.11105948
v 0.00952500 -0.01678363 0.11105948
v 0.01252000 -0.01661034 0.11113126
v 0.00952500 -0.01661034 0.11113126
v 0.01252000 -0.01643146 0.11118766
v 0.00952500 -0.01643146 0.11118766
v 0.01252000 -0.01624834 0.11122826
v 0.00952500 -0.01624834 0.11122826
v 0.01252000 -0.01606238 0.11125273
v 0.00952500 -0.01606238 0.11125273
v -0.00000000 -0.00635000 0.05326390
v -0.00000000 -0.00317500 0.05326390
v 0.00028447 -0.00635000 0.05325148
v 0.00028447 -0.00317500 0.05325148
v 0.00056677 -0.00635000 0.05321432
v 0.00056677 -0.00317500 0.05321432
v 0.00084476 -0.00635000 0.05315268
v 0.00084476 -0.00317500 0.05315268
v 0.00111632 -0.00635000 0.05306706
v 0.00111632 -0.00317500 0.05306706
v 0.00137938 -0.00635000 0.05295810
v 0.00137938 -0.00317500 0.05295810
v 0.00163195 -0.00635000 0.05282662
v 0.00163195 -0.00317500 0.05282662
v 0.00187210 -0.00635000 0.05267363
v 0.00187210 -0.00317500 0.05267363
v 0.00209799 -0.00635000 0.05250029
v 0.00209799 -0.00317500 0.05250029
v 0.00230793 -0.00635000 0.05230793
v 0.00230793 -0.00317500 0.05230793
v 0.00250029 -0.00635000 0.05209799
v 0.00250029 -0.00317500 0.05209799
v 0.00267363 -0.00635000 0.05187210
v 0.00267363 -0.00317500 0.05187210
v 0.00282662 -0.00635000 0.05163195
v 0.00282662 -0.00317500 0.05163195
v 0.00295810 -0.00635000 0.05137938
v 0.00295810 -0.00317500 0.05137938
v 0.00306706 -0.00635000 0.05111632
v 0.00306706 -0.00317500 0.05111632
v 0.00315269 -0.00635000 0.05084476
v 0.00315269 -0.00317500 0.05084476
v 0.00321431 -0.00635000 0.05056677
v 0.00321431 -0.00317500 0.05056677
v 0.00325148 -0.00635000 0.05028447
v 0.00325148 -0.00317500 0.05028447
v 0.00326390 -0.00635000 0.05000000
v 0.00326390 -0.00317500 0.05000000
v 0.00325148 -0.00635000 0.04971553
v 0.00325148 -0.00317500 0.04971553
v 0.00321431 -0.00635000 0.04943323
v 0.00321431 -0.00317500 0.04943323
v 0.00315269 -0.00635000 0.04915524
v 0.00315269 -0.00317500 0.04915524
v 0.00306706 -0.00635000 0.04888368
v 0.00306706 -0.00317500 0.04888368
v 0.00295810 -0.00635000 0.04862062
v 0.00295810 -0.00317500 0.04862062
v 0.00282662 -0.00635000 0.04836805
v 0.00282662 -0.00317500 0.04836805
v 0.00267363 -0.00635000 0.04812790
v 0.00267363 -0.00317500 0.04812790
v 0.00250029 -0.00635000 0.04790201
v 0.00250029 -0.00317500 0.04790201
v 0.00230793 -0.00635000 0.04769208
v 0.00230793 -0.00317500 0.04769208
v 0.00209799 -0.00635000 0.04749971
v 0.00209799 -0.00317500 0.04749971
v 0.00187210 -0.00635000 0.04732637
v 0.00187210 -0.00317500 0.04732637
v 0.00163195 -0.00635000 0.04717338
v 0.00163195 -0.00317500 0.04717338
v 0.00137938 -0.00635000 0.04704190
v 0.00137938 -0.00317500 0.04704190
v 0.00111632 -0.00635000 0.04693294
v 0.00111632 -0.00317500 0.04693294
v 0.00084476 -0.00635000 0.04684731
v 0.00084476 -0.00317500 0.04684731
v 0.00056677 -0.00635000 0.04678569
v 0.00056677 -0.00317500 0.04678569
v 0.00028447 -0.00635000 0.04674852
v 0.00028447 -0.00317500 0.04674852
v 0.00000000 -0.00635000 0.04673610
v 0.00000000 -0.00317500 0.04673610
v -0.00028447 -0.00635000 0.04674852
v -0.00028447 -0.00317500 0.04674852
v -0.00056677 -0.00635000 0.04678569
v -0.00056677 -0.00317500 0.04678569
v -0.00084476 -0.00635000 0.04684731
v -0.00084476 -0.00317500 0.04684731
v -0.00111632 -0.00635000 0.04693294
v -0.00111632 -0.00317500 0.04693294
v -0.00137938 -0.00635000 0.04704190
v -0.00137938 -0.00317500 0.04704190
v -0.00163195 -0.00635000 0.04717338
v -0.00163195 -0.00317500 0.04717338
v -0.00187210 -0.00635000 0.04732637
v -0.00187210 -0.00317500 0.04732637
v -0.00209799 -0.00635000 0.04749971
v -0.00209799 -0.00317500 0.04749971
v -0.00230793 -0.00635000 0.04769208
v -0.00230793 -0.00317500 0.04769208
v -0.00250029 -0.00635000 0.04790201
v -0.00250029 -0.00317500 0.04790201
v -0.00267363 -0.00635000 0.04812790
v -0.00267363 -0.00317500 0.04812790
v -0.00282662 -0.00635000 0.04836805
v -0.00282662 -0.00317500 0.04836805
v -0.00295810 -0.00635000 0.04862062
v -0.00295810 -0.00317500 0.04862062
v -0.00306706 -0.00635000 0.04888368
v -0.00306706 -0.00317500 0.04888368
v -0.00315269 -0.00635000 0.04915524
v -0.00315269 -0.00317500 0.04915524
v -0.00321431 -0.00635000 0.04943323
v -0.00321431 -0.00317500 0.04943323
v -0.00325148 -0.00635000 0.04971553
v -0.00325148 -0.00317500 0.04971553
v -0.00326390 -0.00635000 0.05000000
v -0.00326390 -0.00317500 0.05000000
v -0.00325148 -0.00635000 0.05028447
v -0.00325148 -0.00317500 0.05028447
v -0.00321431 -0.00635000 0.05056677
v -0.00321431 -0.00317500 0.05056677
v -0.00315269 -0.00635000 0.05084476
v -0.00315269 -0.00317500 0.05084476
v -0.00306706 -0.00635000 0.05111632
v -0.00306706 -0.00317500 0.05111632
v -0.00295810 -0.00635000 0.05137938
v -0.00295810 -0.00317500 0.05137938
v -0.00282662 -0.00635000 0.05163195
v -0.00282662 -0.00317500 0.05163195
v -0.00267363 -0.00635000 0.05187210
v -0.00267363 -0.00317500 0.05187210
v -0.00250029 -0.00635000 0.05209799
v -0.00250029 -0.00317500 0.05209799
v -0.00230793 -0.00635000 0.05230793
v -0.00230793 -0.00317500 0.05230793
v -0.00209799 -0.00635000 0.05250029
v -0.00209799 -0.00317500 0.05250029
v -0.00187210 -0.00635000 0.05267363
v -0.00187210 -0.00317500 0.05267363
v -0.00163195 -0.00635000 0.05282662
v -0.00163195 -0.00317500 0.05282662
v -0.00137938 -0.00635000 0.05295810
v -0.00137938 -0.00317500 0.05295810
v -0.00111632 -0.00635000 0.05306706
v -0.00111632 -0.00317500 0.05306706
v -0.00084476 -0.00635000 0.05315268
v -0.00084476 -0.00317500 0.05315268
v -0.00056677 -0.00635000 0.05321432
v -0.00056677 -0.00317500 0.05321432
v -0.00028447 -0.00635000 0.05325148
v -0.00028447 -0.00317500 0.05325148
v -0.00000000 -0.02857500 0.05326390
v -0.00000000 -0.02540000 0.05326390
v 0.00028447 -0.02857500 0.05325148
v 0.00028447 -0.02540000 0.05325148
v 0.00056677 -0.02857500 0.05321432
v 0.00056677 -0.02540000 0.05321432
v 0.00084476 -0.02857500 0.05315268
v 0.00084476 -0.02540000 0.05315268
v 0.00111632 -0.02857500 0.05306706
v 0.00111632 -0.02540000 0.05306706
v 0.00137938 -0.02857500 0.05295810
v 0.00137938 -0.02540000 0.05295810
v 0.00163195 -0.02857500 0.05282662
v 0.00163195 -0.02540000 0.05282662
v 0.00187210 -0.02857500 0.05267363
v 0.00187210 -0.02540000 0.05267363
v 0.00209799 -0.02857500 0.05250029
v 0.00209799 -0.02540000 0.05250029
v 0.00230793 -0.02857500 0.05230793
v 0.00230793 -0.02540000 0.05230793
v 0.00250029 -0.02857500 0.05209799
v 0.00250029 -0.02540000 0.05209799
v 0.00267363 -0.02857500 0.05187210
v 0.00267363 -0.02540000 0.05187210
v 0.00282662 -0.02857500 0.05163195
v 0.00282662 -0.02540000 0.05163195
v 0.00295810 -0.02857500 0.05137938
v 0.00295810 -0.02540000 0.05137938
v 0.00306706 -0.02857500 0.05111632
v 0.00306706 -0.02540000 0.05111632
v 0.00315269 -0.02857500 0.05084476
v 0.00315269 -0.02540000 0.05084476
v 0.00321431 -0.02857500 0.05056677
v 0.00321431 -0.02540000 0.05056677
v 0.00325148 -0.02857500 0.05028447
v 0.00325148 -0.02540000 0.05028447
v 0.00326390 -0.02857500 0.05000000
v 0.00326390 -0.02540000 0.05000000
v 0.00325148 -0.02857500 0.04971553
v 0.00325148 -0.02540000 0.04971553
v 0.00321431 -0.02857500 0.04943323
v 0.00321431 -0.02540000 0.04943323
v 0.00315269 -0.02857500 0.04915524
v 0.00315269 -0.02540000 0.04915524
v 0.00306706 -0.02857500 0.04888368
v 0.00306706 -0.02540000 0.04888368
v 0.00295810 -0.02857500 0.04862062
v 0.00295810 -0.02540000 0.04862062
v 0.00282662 -0.02857500 0.04836805
v 0.00282662 -0.02540000 0.04836805
v 0.00267363 -0.02857500 0.04812790
v 0.00267363 -0.02540000 0.04812790
v 0.00250029 -0.02857500 0.04790201
v 0.00250029 -0.02540000 0.04790201
v 0.00230793 -0.02857500 0.04769208
v 0.00230793 -0.02540000 0.04769208
v 0.00209799 -0.02857500 0.04749971
v 0.00209799 -0.02540000 0.04749971
v 0.00187210 -0.02857500 0.04732637
v 0.00187210 -0.02540000 0.04732637
v 0.00163195 -0.02857500 0.04717338
v 0.00163195 -0.02540000 0.04717338
v 0.00137938 -0.02857500 0.04704190
v 0.00137938 -0.02540000 0.04704190
v 0.00111632 -0.02857500 0.04693294
v 0.00111632 -0.02540000 0.04693294
v 0.00084476 -0.02857500 0.04684731
v 0.00084476 -0.02540000 0.04684731
v 0.00056677 -0.02857500 0.04678569
v 0.00056677 -0.02540000 0.04678569
v 0.00028447 -0.02857500 0.04674852
v 0.00028447 -0.02540000 0.04674852
v -0.00000000 -0.02857500 0.04673610
v 0.00000000 -0.02540000 0.04673610
v -0.00028447 -0.02857500 0.04674852
v -0.00028447 -0.02540000 0.04674852
v -0.00056677 -0.02857500 0.04678569
v -0.00056677 -0.02540000 0.04678569
v -0.00084476 -0.02857500 0.04684731
v -0.00084476 -0.02540000 0.04684731
v -0.00111632 -0.02857500 0.04693294
v -0.00111632 -0.02540000 0.04693294
v -0.00137938 -0.02857500 0.04704190
v -0.00137938 -0.02540000 0.04704190
v -0.00163195 -0.02857500 0.04717338
v -0.00163195 -0.02540000 0.04717338
v -0.00187210 -0.02857500 0.04732637
v -0.00187210 -0.02540000 0.04732637
v -0.00209799 -0.02857500 0.04749971
v -0.00209799 -0.02540000 0.04749971
v -0.00230793 -0.02857500 0.04769208
v -0.00230793 -0.02540000 0.04769208
v -0.00250029 -0.02857500 0.04790201
v -0.00250029 -0.02540000 0.04790201
v -0.00267363 -0.02857500 0.04812790
v -0.00267363 -0.02540000 0.04812790
v -0.00282662 -0.02857500 0.04836805
v -0.00282662 -0.02540000 0.04836805
v -0.00295810 -0.02857500 0.04862062
v -0.00295810 -0.02540000 0.04862062
v -0.00306706 -0.02857500 0.04888368
v -0.00306706 -0.02540000 0.04888368
v -0.00315269 -0.02857500 0.04915524
v -0.00315269 -0.02540000 0.04915524
v -0.00321431 -0.02857500 0.04943323
v -0.00321431 -0.02540000 0.04943323
v -0.00325148 -0.02857500 0.04971553
v -0.00325148 -0.02540000 0.04971553
v -0.00326390 -0.02857500 0.05000000
v -0.00326390 -0.02540000 0.05000000
v -0.00325148 -0.02857500 0.05028447
v -0.00325148 -0.02540000 0.05028447
v -0.00321431 -0.02857500 0.05056677
v -0.00321431 -0.02540000 0.05056677
v -0.00315269 -0.02857500 0.05084476
v -0.00315269 -0.02540000 0.05084476
v -0.00306706 -0.02857500 0.05111632
v -0.00306706 -0.02540000 0.05111632
v -0.00295810 -0.02857500 0.05137938
v -0.00295810 -0.02540000 0.05137938
v -0.00282662 -0.02857500 0.05163195
v -0.00282662 -0.02540000 0.05163195
v -0.00267363 -0.02857500 0.05187210
v -0.00267363 -0.02540000 0.05187210
v -0.00250029 -0.02857500 0.05209799
v -0.00250029 -0.02540000 0.05209799
v -0.00230793 -0.02857500 0.05230793
v -0.00230793 -0.02540000 0.05230793
v -0.00209799 -0.02857500 0.05250029
v -0.00209799 -0.02540000 0.05250029
v -0.00187210 -0.02857500 0.05267363
v -0.00187210 -0.02540000 0.05267363
v -0.00163195 -0.02857500 0.05282662
v -0.00163195 -0.02540000 0.05282662
v -0.00137938 -0.02857500 0.05295810
v -0.00137938 -0.02540000 0.05295810
v -0.00111632 -0.02857500 0.05306706
v -0.00111632 -0.02540000 0.05306706
v -0.00084476 -0.02857500 0.05315268
v -0.00084476 -0.02540000 0.05315268
v -0.00056677 -0.02857500 0.05321432
v -0.00056677 -0.02540000 0.05321432
v -0.00028447 -0.02857500 0.05325148
v -0.00028447 -0.02540000 0.05325148
v 0.01252000 -0.00317500 0.04273958
v 0.01252000 -0.02857500 0.14773957
v 0.01252000 -0.00317500 0.14773957
v 0.01252000 -0.02857500 0.04273958
v 0.00952500 -0.00635000 0.04273958
v 0.00952500 -0.02540000 0.04273958
v -0.00952500 -0.02540000 0.04273958
v -0.01288000 -0.02857500 0.04273958
v -0.00952500 -0.00635000 0.04273958
v -0.01288000 -0.00317500 0.04273958
v -0.01288000 -0.01531854 0.13794366
v -0.01288000 -0.01550166 0.13798426
v -0.01288000 -0.00317500 0.14773957
v -0.01288000 -0.01661034 0.13788725
v -0.01288000 -0.02857500 0.14773957
v -0.01288000 -0.01643146 0.13794366
v -0.01288000 -0.01624834 0.13798426
v -0.01288000 -0.01568761 0.13800873
v -0.01288000 -0.01587500 0.13801692
v -0.01288000 -0.01606238 0.13800873
v -0.01288000 -0.01789534 0.13513157
v -0.01288000 -0.01782356 0.13495828
v -0.01288000 -0.01587500 0.11126092
v -0.01288000 -0.01752200 0.13448492
v -0.01288000 -0.01739528 0.13434663
v -0.01288000 -0.01725699 0.13421991
v -0.01288000 -0.01710819 0.13410574
v -0.01288000 -0.01464181 0.11087210
v -0.01288000 -0.01480000 0.11097287
v -0.01288000 -0.01661034 0.13384658
v -0.01288000 -0.01531854 0.13379018
v -0.01288000 -0.01513966 0.13384658
v -0.01288000 -0.01496637 0.13391836
v -0.01288000 -0.01449301 0.13751391
v -0.01288000 -0.01464181 0.13762809
v -0.01288000 -0.01480000 0.13772887
v -0.01288000 -0.01795174 0.13531046
v -0.01288000 -0.01587500 0.13371691
v -0.01288000 -0.01568761 0.13372509
v -0.01288000 -0.01550166 0.13374957
v -0.01288000 -0.01496637 0.13781548
v -0.01288000 -0.01513966 0.13788725
v -0.01288000 -0.01496637 0.11105948
v -0.01288000 -0.01513966 0.11113126
v -0.01288000 -0.01531854 0.11118766
v -0.01288000 -0.01480000 0.13400497
v -0.01288000 -0.01464181 0.13410574
v -0.01288000 -0.01449301 0.13421991
v -0.01288000 -0.01773695 0.13479191
v -0.01288000 -0.01763618 0.13463373
v -0.01288000 -0.01422800 0.11049291
v -0.01288000 -0.01411382 0.11034410
v -0.01288000 -0.01401305 0.11018591
v -0.01288000 -0.01550166 0.11122826
v -0.01288000 -0.01568761 0.11125273
v -0.01288000 -0.01678363 0.13391836
v -0.01288000 -0.01695000 0.13400497
v -0.01288000 -0.01678363 0.13781548
v -0.01288000 -0.01695000 0.13772887
v -0.01288000 -0.01710819 0.13762809
v -0.01288000 -0.01643146 0.10703418
v -0.01288000 -0.01661034 0.10709058
v -0.01288000 -0.01678363 0.10716236
v -0.01288000 -0.01379826 0.10966738
v -0.01288000 -0.01375766 0.10948426
v -0.01288000 -0.01373318 0.10929830
v -0.01288000 -0.01435472 0.11063120
v -0.01288000 -0.01449301 0.11075791
v -0.01288000 -0.01725699 0.10746392
v -0.01288000 -0.01710819 0.10734974
v -0.01288000 -0.01695000 0.10724896
v -0.01288000 -0.01385466 0.10984626
v -0.01288000 -0.01392644 0.11001955
v -0.01288000 -0.01725699 0.13751391
v -0.01288000 -0.01739528 0.13738720
v -0.01288000 -0.01752200 0.13724890
v -0.01288000 -0.01763618 0.10787773
v -0.01288000 -0.01752200 0.10772892
v -0.01288000 -0.01739528 0.10759064
v -0.01288000 -0.01568761 0.10696910
v -0.01288000 -0.01550166 0.10699358
v -0.01288000 -0.01435472 0.13434663
v -0.01288000 -0.01422800 0.13448492
v -0.01288000 -0.01411382 0.13463373
v -0.01288000 -0.01401305 0.13479191
v -0.01288000 -0.01392644 0.13495828
v -0.01288000 -0.01385466 0.13513157
v -0.01288000 -0.01379826 0.13531046
v -0.01288000 -0.01379826 0.13642338
v -0.01288000 -0.01385466 0.13660227
v -0.01288000 -0.01763618 0.13710010
v -0.01288000 -0.01773695 0.13694191
v -0.01288000 -0.01782356 0.13677555
v -0.01288000 -0.01710819 0.11087210
v -0.01288000 -0.01695000 0.11097287
v -0.01288000 -0.01678363 0.11105948
v -0.01288000 -0.01531854 0.10703418
v -0.01288000 -0.01513966 0.10709058
v -0.01288000 -0.01496637 0.10716236
v -0.01288000 -0.01375766 0.13549358
v -0.01288000 -0.01373318 0.13567953
v -0.01288000 -0.01372500 0.13586691
v -0.01288000 -0.01392644 0.13677555
v -0.01288000 -0.01401305 0.13694191
v -0.01288000 -0.01411382 0.13710010
v -0.01288000 -0.01422800 0.13724890
v -0.01288000 -0.01435472 0.13738720
v -0.01288000 -0.01801682 0.10892353
v -0.01288000 -0.01799234 0.10873757
v -0.01288000 -0.01795174 0.10855445
v -0.01288000 -0.01789534 0.10837557
v -0.01288000 -0.01782356 0.10820229
v -0.01288000 -0.01773695 0.10803591
v -0.01288000 -0.01624834 0.10699358
v -0.01288000 -0.01606238 0.10696910
v -0.01288000 -0.01587500 0.10696092
v -0.01288000 -0.01480000 0.10724896
v -0.01288000 -0.01464181 0.10734974
v -0.01288000 -0.01449301 0.10746392
v -0.01288000 -0.01643146 0.13379018
v -0.01288000 -0.01624834 0.13374957
v -0.01288000 -0.01606238 0.13372509
v -0.01288000 -0.01789534 0.13660227
v -0.01288000 -0.01795174 0.13642338
v -0.01288000 -0.01799234 0.13624026
v -0.01288000 -0.01606238 0.11125273
v -0.01288000 -0.01801682 0.13567953
v -0.01288000 -0.01799234 0.13549358
v -0.01288000 -0.01752200 0.11049291
v -0.01288000 -0.01763618 0.11034410
v -0.01288000 -0.01773695 0.11018591
v -0.01288000 -0.01435472 0.10759064
v -0.01288000 -0.01422800 0.10772892
v -0.01288000 -0.01411382 0.10787773
v -0.01288000 -0.01373318 0.13605431
v -0.01288000 -0.01375766 0.13624026
v -0.01288000 -0.01725699 0.11075791
v -0.01288000 -0.01739528 0.11063120
v -0.01288000 -0.01782356 0.11001955
v -0.01288000 -0.01789534 0.10984626
v -0.01288000 -0.01795174 0.10966738
v -0.01288000 -0.01799234 0.10948426
v -0.01288000 -0.01801682 0.10929830
v -0.01288000 -0.01802500 0.10911091
v -0.01288000 -0.01401305 0.10803591
v -0.01288000 -0.01392644 0.10820229
v -0.01288000 -0.01385466 0.10837557
v -0.01288000 -0.01379826 0.10855445
v -0.01288000 -0.01375766 0.10873757
v -0.01288000 -0.01373318 0.10892353
v -0.01288000 -0.01372500 0.10911091
v -0.01288000 -0.01801682 0.13605431
v -0.01288000 -0.01802500 0.13586691
v -0.01288000 -0.01624834 0.11122826
v -0.01288000 -0.01643146 0.11118766
v -0.01288000 -0.01661034 0.11113126
v -0.00952500 -0.00635000 0.14773957
v -0.00952500 -0.02540000 0.14773957
v 0.00952500 -0.02540000 0.14773957
v 0.00952500 -0.00635000 0.14773957
v -0.00187215 -0.02857500 0.07482629
v -0.00084479 -0.02857500 0.07434722
v -0.00111635 -0.02857500 0.07443284
v -0.00209806 -0.02857500 0.08000037
v -0.00187215 -0.02857500 0.08017372
v 0.00250037 -0.02857500 0.07540194
v 0.00230800 -0.02857500 0.07519200
v 0.00209806 -0.02857500 0.07499963
v -0.00137943 -0.02857500 0.07454181
v -0.00163200 -0.02857500 0.07467330
v -0.00230800 -0.02857500 0.07519200
v -0.00250037 -0.02857500 0.07540194
v -0.00163200 -0.02857500 0.08032671
v -0.00137943 -0.02857500 0.08045819
v -0.00111635 -0.02857500 0.08056716
v 0.00187215 -0.02857500 0.07482629
v 0.00163200 -0.02857500 0.07467330
v 0.00137943 -0.02857500 0.07454181
v -0.00056679 -0.02857500 0.07428559
v -0.00282671 -0.02857500 0.07913200
v -0.00267371 -0.02857500 0.07937215
v -0.00000000 -0.02857500 0.08076400
v 0.00028448 -0.02857500 0.08075158
v 0.00056679 -0.02857500 0.08071441
v 0.00084479 -0.02857500 0.08065278
v 0.00111635 -0.02857500 0.08056716
v 0.00137943 -0.02857500 0.08045819
v 0.00163200 -0.02857500 0.08032671
v -0.00209806 -0.02857500 0.07499963
v -0.00250037 -0.02857500 0.07959806
v -0.00230800 -0.02857500 0.07980800
v -0.00084479 -0.02857500 0.08065278
v -0.00056679 -0.02857500 0.08071441
v -0.00028448 -0.02857500 0.08075158
v 0.00187215 -0.02857500 0.08017372
v 0.00209806 -0.02857500 0.08000037
v 0.00230800 -0.02857500 0.07980800
v -0.00267371 -0.02857500 0.07562785
v -0.00282671 -0.02857500 0.07586800
v -0.00295819 -0.02857500 0.07612057
v 0.00250037 -0.02857500 0.07959806
v 0.00267371 -0.02857500 0.07937215
v 0.00282671 -0.02857500 0.07913200
v 0.00306716 -0.02857500 0.07638364
v 0.00295819 -0.02857500 0.07612057
v 0.00282671 -0.02857500 0.07586800
v 0.00267371 -0.02857500 0.07562785
v 0.00056679 -0.02857500 0.07428559
v 0.00028448 -0.02857500 0.07424842
v 0.00000000 -0.02857500 0.07423600
v -0.00028448 -0.02857500 0.07424842
v -0.00306716 -0.02857500 0.07638364
v -0.00315278 -0.02857500 0.07665522
v -0.00321441 -0.02857500 0.07693321
v 0.00295819 -0.02857500 0.07887942
v 0.00306716 -0.02857500 0.07861635
v 0.00315278 -0.02857500 0.07834478
v 0.00325158 -0.02857500 0.07721552
v 0.00321441 -0.02857500 0.07693321
v 0.00315278 -0.02857500 0.07665522
v -0.00325158 -0.02857500 0.07721552
v -0.00326400 -0.02857500 0.07750000
v -0.00325158 -0.02857500 0.07778448
v -0.00321441 -0.02857500 0.07806679
v -0.00315278 -0.02857500 0.07834478
v 0.00111635 -0.02857500 0.07443284
v 0.00084479 -0.02857500 0.07434722
v -0.00306716 -0.02857500 0.07861635
v -0.00295819 -0.02857500 0.07887942
v 0.00321441 -0.02857500 0.07806679
v 0.00325158 -0.02857500 0.07778448
v 0.00326400 -0.02857500 0.07750000
v -0.00952500 -0.01587500 0.13801692
v -0.00952500 -0.01568761 0.13800873
v -0.00952500 -0.01550166 0.13798426
v -0.00952500 -0.01531854 0.13794366
v -0.00952500 -0.01513966 0.13788725
v -0.00952500 -0.01496637 0.13781548
v -0.00952500 -0.01480000 0.13772887
v -0.00952500 -0.01464181 0.13762809
v -0.00952500 -0.01449301 0.13751391
v -0.00952500 -0.01435472 0.13738720
v -0.00952500 -0.01422800 0.13724890
v -0.00952500 -0.01411382 0.13710010
v -0.00952500 -0.01401305 0.13694191
v -0.00952500 -0.01392644 0.13677555
v -0.00952500 -0.01385466 0.13660227
v -0.00952500 -0.01379826 0.13642338
v -0.00952500 -0.01375766 0.13624026
v -0.00952500 -0.01373318 0.13605431
v -0.00952500 -0.01372500 0.13586691
v -0.00952500 -0.01373318 0.13567953
v -0.00952500 -0.01375766 0.13549358
v -0.00952500 -0.01379826 0.13531046
v -0.00952500 -0.01385466 0.13513157
v -0.00952500 -0.01392644 0.13495828
v -0.00952500 -0.01401305 0.13479191
v -0.00952500 -0.01411382 0.13463373
v -0.00952500 -0.01422800 0.13448492
v -0.00952500 -0.01435472 0.13434663
v -0.00952500 -0.01449301 0.13421991
v -0.00952500 -0.01464181 0.13410574
v -0.00952500 -0.01480000 0.13400497
v -0.00952500 -0.01496637 0.13391836
v -0.00952500 -0.01513966 0.13384658
v -0.00952500 -0.01531854 0.13379018
v -0.00952500 -0.01550166 0.13374957
v -0.00952500 -0.01568761 0.13372509
v -0.00952500 -0.01587500 0.13371691
v -0.00952500 -0.01606238 0.13372509
v -0.00952500 -0.01624834 0.13374957
v -0.00952500 -0.01643146 0.13379018
v -0.00952500 -0.01661034 0.13384658
v -0.00952500 -0.01678363 0.13391836
v -0.00952500 -0.01695000 0.13400497
v -0.00952500 -0.01710819 0.13410574
v -0.00952500 -0.01725699 0.13421991
v -0.00952500 -0.01739528 0.13434663
v -0.00952500 -0.01752200 0.13448492
v -0.00952500 -0.01763618 0.13463373
v -0.00952500 -0.01773695 0.13479191
v -0.00952500 -0.01782356 0.13495828
v -0.00952500 -0.01789534 0.13513157
v -0.00952500 -0.01795174 0.13531046
v -0.00952500 -0.01799234 0.13549358
v -0.00952500 -0.01801682 0.13567953
v -0.00952500 -0.01802500 0.13586691
v -0.00952500 -0.01801682 0.13605431
v -0.00952500 -0.01799234 0.13624026
v -0.00952500 -0.01795174 0.13642338
v -0.00952500 -0.01789534 0.13660227
v -0.00952500 -0.01782356 0.13677555
v -0.00952500 -0.01773695 0.13694191
v -0.00952500 -0.01763618 0.13710010
v -0.00952500 -0.01752200 0.13724890
v -0.00952500 -0.01739528 0.13738720
v -0.00952500 -0.01725699 0.13751391
v -0.00952500 -0.01710819 0.13762809
v -0.00952500 -0.01695000 0.13772887
v -0.00952500 -0.01678363 0.13781548
v -0.00952500 -0.01661034 0.13788725
v -0.00952500 -0.01643146 0.13794366
v -0.00952500 -0.01624834 0.13798426
v -0.00952500 -0.01606238 0.13800873
v -0.00187215 -0.00317500 0.07482629
v -0.00137943 -0.00317500 0.08045819
v -0.00163200 -0.00317500 0.08032671
v -0.00187215 -0.00317500 0.08017372
v -0.00209806 -0.00317500 0.08000037
v -0.00306716 -0.00317500 0.07638364
v -0.00295819 -0.00317500 0.07612057
v -0.00056679 -0.00317500 0.08071441
v -0.00084479 -0.00317500 0.08065278
v -0.00111635 -0.00317500 0.08056716
v -0.00282671 -0.00317500 0.07586800
v -0.00267371 -0.00317500 0.07562785
v -0.00250037 -0.00317500 0.07540194
v 0.00137943 -0.00317500 0.08045819
v 0.00163200 -0.00317500 0.08032671
v 0.00187215 -0.00317500 0.08017372
v 0.00111635 -0.00317500 0.08056716
v 0.00084479 -0.00317500 0.08065278
v 0.00056679 -0.00317500 0.08071441
v 0.00028448 -0.00317500 0.08075158
v -0.00000000 -0.00317500 0.08076400
v -0.00028448 -0.00317500 0.08075158
v 0.00209806 -0.00317500 0.07499963
v 0.00230800 -0.00317500 0.07519200
v 0.00250037 -0.00317500 0.07540194
v -0.00230800 -0.00317500 0.07980800
v -0.00250037 -0.00317500 0.07959806
v -0.00267371 -0.00317500 0.07937215
v -0.00209806 -0.00317500 0.07499963
v -0.00230800 -0.00317500 0.07519200
v -0.00163200 -0.00317500 0.07467330
v -0.00137943 -0.00317500 0.07454181
v -0.00111635 -0.00317500 0.07443284
v -0.00084479 -0.00317500 0.07434722
v -0.00056679 -0.00317500 0.07428559
v -0.00028448 -0.00317500 0.07424842
v 0.00000000 -0.00317500 0.07423600
v 0.00137943 -0.00317500 0.07454181
v 0.00163200 -0.00317500 0.07467330
v 0.00187215 -0.00317500 0.07482629
v 0.00250037 -0.00317500 0.07959806
v 0.00230800 -0.00317500 0.07980800
v 0.00209806 -0.00317500 0.08000037
v -0.00282671 -0.00317500 0.07913200
v -0.00295819 -0.00317500 0.07887942
v -0.00306716 -0.00317500 0.07861635
v -0.00325158 -0.00317500 0.07721552
v -0.00321441 -0.00317500 0.07693321
v -0.00315278 -0.00317500 0.07665522
v 0.00295819 -0.00317500 0.07887942
v 0.00282671 -0.00317500 0.07913200
v 0.00267371 -0.00317500 0.07937215
v 0.00267371 -0.00317500 0.07562785
v 0.00282671 -0.00317500 0.07586800
v 0.00295819 -0.00317500 0.07612057
v 0.00306716 -0.00317500 0.07638364
v 0.00315278 -0.00317500 0.07665522
v 0.00321441 -0.00317500 0.07693321
v 0.00321441 -0.00317500 0.07806679
v 0.00315278 -0.00317500 0.07834478
v 0.00306716 -0.00317500 0.07861635
v -0.00315278 -0.00317500 0.07834478
v -0.00321441 -0.00317500 0.07806679
v -0.00325158 -0.00317500 0.07778448
v 0.00325158 -0.00317500 0.07721552
v 0.00326400 -0.00317500 0.07750000
v 0.00325158 -0.00317500 0.07778448
v -0.00326400 -0.00317500 0.07750000
v 0.00028448 -0.00317500 0.07424842
v 0.00056679 -0.00317500 0.07428559
v 0.00084479 -0.00317500 0.07434722
v 0.00111635 -0.00317500 0.07443284
v -0.00952500 -0.01372500 0.10911091
v -0.00952500 -0.01801682 0.10929830
v -0.00952500 -0.01789534 0.10984626
v -0.00952500 -0.01782356 0.11001955
v -0.00952500 -0.01678363 0.11105948
v -0.00952500 -0.01695000 0.11097287
v -0.00952500 -0.01710819 0.11087210
v -0.00952500 -0.01661034 0.10709058
v -0.00952500 -0.01678363 0.10716236
v -0.00952500 -0.01795174 0.10966738
v -0.00952500 -0.01773695 0.11018591
v -0.00952500 -0.01763618 0.11034410
v -0.00952500 -0.01752200 0.11049291
v -0.00952500 -0.01799234 0.10948426
v -0.00952500 -0.01739528 0.11063120
v -0.00952500 -0.01725699 0.11075791
v -0.00952500 -0.01568761 0.11125273
v -0.00952500 -0.01550166 0.11122826
v -0.00952500 -0.01531854 0.11118766
v -0.00952500 -0.01513966 0.11113126
v -0.00952500 -0.01661034 0.11113126
v -0.00952500 -0.01643146 0.11118766
v -0.00952500 -0.01624834 0.11122826
v -0.00952500 -0.01496637 0.11105948
v -0.00952500 -0.01480000 0.11097287
v -0.00952500 -0.01464181 0.11087210
v -0.00952500 -0.01464181 0.10734974
v -0.00952500 -0.01480000 0.10724896
v -0.00952500 -0.01695000 0.10724896
v -0.00952500 -0.01710819 0.10734974
v -0.00952500 -0.01725699 0.10746392
v -0.00952500 -0.01401305 0.11018591
v -0.00952500 -0.01411382 0.11034410
v -0.00952500 -0.01422800 0.11049291
v -0.00952500 -0.01411382 0.10787773
v -0.00952500 -0.01422800 0.10772892
v -0.00952500 -0.01449301 0.11075791
v -0.00952500 -0.01435472 0.11063120
v -0.00952500 -0.01496637 0.10716236
v -0.00952500 -0.01513966 0.10709058
v -0.00952500 -0.01531854 0.10703418
v -0.00952500 -0.01606238 0.10696910
v -0.00952500 -0.01624834 0.10699358
v -0.00952500 -0.01643146 0.10703418
v -0.00952500 -0.01739528 0.10759064
v -0.00952500 -0.01752200 0.10772892
v -0.00952500 -0.01763618 0.10787773
v -0.00952500 -0.01773695 0.10803591
v -0.00952500 -0.01782356 0.10820229
v -0.00952500 -0.01789534 0.10837557
v -0.00952500 -0.01606238 0.11125273
v -0.00952500 -0.01587500 0.11126092
v -0.00952500 -0.01392644 0.11001955
v -0.00952500 -0.01385466 0.10984626
v -0.00952500 -0.01379826 0.10966738
v -0.00952500 -0.01375766 0.10948426
v -0.00952500 -0.01373318 0.10929830
v -0.00952500 -0.01550166 0.10699358
v -0.00952500 -0.01568761 0.10696910
v -0.00952500 -0.01587500 0.10696092
v -0.00952500 -0.01795174 0.10855445
v -0.00952500 -0.01799234 0.10873757
v -0.00952500 -0.01801682 0.10892353
v -0.00952500 -0.01373318 0.10892353
v -0.00952500 -0.01435472 0.10759064
v -0.00952500 -0.01449301 0.10746392
v -0.00952500 -0.01802500 0.10911091
v -0.00952500 -0.01375766 0.10873757
v -0.00952500 -0.01379826 0.10855445
v -0.00952500 -0.01385466 0.10837557
v -0.00952500 -0.01392644 0.10820229
v -0.00952500 -0.01401305 0.10803591
v -0.00187215 -0.00635000 0.07482629
v 0.00250037 -0.00635000 0.07540194
v 0.00230800 -0.00635000 0.07519200
v 0.00209806 -0.00635000 0.07499963
v 0.00187215 -0.00635000 0.07482629
v -0.00084479 -0.00635000 0.07434722
v -0.00111635 -0.00635000 0.07443284
v 0.00187215 -0.00635000 0.08017372
v 0.00209806 -0.00635000 0.08000037
v -0.00137943 -0.00635000 0.07454181
v -0.00230800 -0.00635000 0.07519200
v -0.00250037 -0.00635000 0.07540194
v -0.00209806 -0.00635000 0.08000037
v -0.00187215 -0.00635000 0.08017372
v -0.00163200 -0.00635000 0.08032671
v -0.00137943 -0.00635000 0.08045819
v 0.00230800 -0.00635000 0.07980800
v 0.00250037 -0.00635000 0.07959806
v 0.00267371 -0.00635000 0.07937215
v 0.00282671 -0.00635000 0.07913200
v 0.00295819 -0.00635000 0.07887942
v 0.00306716 -0.00635000 0.07861635
v 0.00163200 -0.00635000 0.07467330
v 0.00137943 -0.00635000 0.07454181
v 0.00111635 -0.00635000 0.07443284
v -0.00163200 -0.00635000 0.07467330
v -0.00111635 -0.00635000 0.08056716
v -0.00084479 -0.00635000 0.08065278
v -0.00056679 -0.00635000 0.08071441
v 0.00111635 -0.00635000 0.08056716
v 0.00084479 -0.00635000 0.08065278
v 0.00056679 -0.00635000 0.08071441
v 0.00137943 -0.00635000 0.08045819
v 0.00163200 -0.00635000 0.08032671
v 0.00326400 -0.00635000 0.07750000
v 0.00325158 -0.00635000 0.07721552
v 0.00321441 -0.00635000 0.07693321
v 0.00315278 -0.00635000 0.07665522
v 0.00306716 -0.00635000 0.07638364
v 0.00295819 -0.00635000 0.07612057
v 0.00282671 -0.00635000 0.07586800
v 0.00267371 -0.00635000 0.07562785
v -0.00209806 -0.00635000 0.07499963
v -0.00267371 -0.00635000 0.07937215
v -0.00250037 -0.00635000 0.07959806
v -0.00230800 -0.00635000 0.07980800
v -0.00028448 -0.00635000 0.08075158
v -0.00000000 -0.00635000 0.08076400
v 0.00028448 -0.00635000 0.08075158
v 0.00315278 -0.00635000 0.07834478
v 0.00321441 -0.00635000 0.07806679
v 0.00325158 -0.00635000 0.07778448
v 0.00056679 -0.00635000 0.07428559
v 0.00084479 -0.00635000 0.07434722
v -0.00056679 -0.00635000 0.07428559
v -0.00267371 -0.00635000 0.07562785
v -0.00282671 -0.00635000 0.07586800
v -0.00295819 -0.00635000 0.07612057
v 0.00028448 -0.00635000 0.07424842
v 0.00000000 -0.00635000 0.07423600
v -0.00028448 -0.00635000 0.07424842
v -0.00306716 -0.00635000 0.07638364
v -0.00315278 -0.00635000 0.07665522
v -0.00321441 -0.00635000 0.07693321
v -0.00325158 -0.00635000 0.07721552
v -0.00326400 -0.00635000 0.07750000
v -0.00325158 -0.00635000 0.07778448
v -0.00321441 -0.00635000 0.07806679
v -0.00315278 -0.00635000 0.07834478
v -0.00306716 -0.00635000 0.07861635
v -0.00295819 -0.00635000 0.07887942
v -0.00282671 -0.00635000 0.07913200
v -0.00187215 -0.02540000 0.07482629
v -0.00137943 -0.02540000 0.08045819
v -0.00163200 -0.02540000 0.08032671
v -0.00187215 -0.02540000 0.08017372
v -0.00056679 -0.02540000 0.08071441
v -0.00084479 -0.02540000 0.08065278
v -0.00111635 -0.02540000 0.08056716
v -0.00295819 -0.02540000 0.07612057
v -0.00282671 -0.02540000 0.07586800
v -0.00267371 -0.02540000 0.07562785
v -0.00250037 -0.02540000 0.07540194
v 0.00137943 -0.02540000 0.08045819
v 0.00163200 -0.02540000 0.08032671
v 0.00187215 -0.02540000 0.08017372
v 0.00111635 -0.02540000 0.08056716
v 0.00084479 -0.02540000 0.08065278
v 0.00056679 -0.02540000 0.08071441
v 0.00028448 -0.02540000 0.08075158
v -0.00000000 -0.02540000 0.08076400
v -0.00028448 -0.02540000 0.08075158
v -0.00321441 -0.02540000 0.07693321
v -0.00315278 -0.02540000 0.07665522
v -0.00306716 -0.02540000 0.07638364
v 0.00209806 -0.02540000 0.07499963
v 0.00230800 -0.02540000 0.07519200
v 0.00250037 -0.02540000 0.07540194
v -0.00325158 -0.02540000 0.07721552
v -0.00209806 -0.02540000 0.08000037
v -0.00230800 -0.02540000 0.07980800
v -0.00250037 -0.02540000 0.07959806
v -0.00209806 -0.02540000 0.07499963
v -0.00230800 -0.02540000 0.07519200
v -0.00163200 -0.02540000 0.07467330
v -0.00137943 -0.02540000 0.07454181
v -0.00111635 -0.02540000 0.07443284
v -0.00084479 -0.02540000 0.07434722
v -0.00056679 -0.02540000 0.07428559
v -0.00028448 -0.02540000 0.07424842
v 0.00000000 -0.02540000 0.07423600
v 0.00137943 -0.02540000 0.07454181
v 0.00163200 -0.02540000 0.07467330
v 0.00187215 -0.02540000 0.07482629
v 0.00250037 -0.02540000 0.07959806
v 0.00230800 -0.02540000 0.07980800
v 0.00209806 -0.02540000 0.08000037
v -0.00267371 -0.02540000 0.07937215
v -0.00282671 -0.02540000 0.07913200
v -0.00295819 -0.02540000 0.07887942
v 0.00295819 -0.02540000 0.07887942
v 0.00282671 -0.02540000 0.07913200
v 0.00267371 -0.02540000 0.07937215
v -0.00306716 -0.02540000 0.07861635
v -0.00315278 -0.02540000 0.07834478
v -0.00321441 -0.02540000 0.07806679
v 0.00267371 -0.02540000 0.07562785
v 0.00282671 -0.02540000 0.07586800
v 0.00295819 -0.02540000 0.07612057
v 0.00306716 -0.02540000 0.07638364
v 0.00315278 -0.02540000 0.07665522
v 0.00321441 -0.02540000 0.07693321
v 0.00321441 -0.02540000 0.07806679
v 0.00315278 -0.02540000 0.07834478
v 0.00306716 -0.02540000 0.07861635
v -0.00325158 -0.02540000 0.07778448
v -0.00326400 -0.02540000 0.07750000
v 0.00325158 -0.02540000 0.07721552
v 0.00326400 -0.02540000 0.07750000
v 0.00325158 -0.02540000 0.07778448
v 0.00028448 -0.02540000 0.07424842
v 0.00056679 -0.02540000 0.07428559
v 0.00084479 -0.02540000 0.07434722
v 0.00111635 -0.02540000 0.07443284
f 1 2 3
f 2 4 3
f 3 4 5
f 4 6 5
f 5 6 7
f 6 8 7
f 7 8 9
f 8 10 9
f 9 10 11
f 10 12 11
f 11 12 13
f 12 14 13
f 13 14 15
f 14 16 15
f 15 16 17
f 16 18 17
f 17 18 19
f 18 20 19
f 19 20 21
f 20 22 21
f 21 22 23
f 22 24 23
f 23 24 25
f 24 26 25
f 25 26 27
f 26 28 27
f 27 28 29
f 28 30 29
f 29 30 31
f 30 32 31
f 31 32 33
f 32 34 33
f 33 34 35
f 34 36 35
f 35 36 37
f 36 38 37
f 37 38 39
f 38 40 39
f 39 40 41
f 40 42 41
f 41 42 43
f 42 44 43
f 43 44 45
f 44 46 45
f 45 46 47
f 46 48 47
f 47 48 49
f 48 50 49
f 49 50 51
f 50 52 51
f 51 52 53
f 52 54 53
f 53 54 55
f 54 56 55
f 55 56 57
f 56 58 57
f 57 58 59
f 58 60 59
f 59 60 61
f 60 62 61
f 61 62 63
f 62 64 63
f 63 64 65
f 64 66 65
f 65 66 67
f 66 68 67
f 67 68 69
f 68 70 69
f 69 70 71
f 70 72 71
f 71 72 73
f 72 74 73
f 73 74 75
f 74 76 75
f 75 76 77
f 76 78 77
f 77 78 79
f 78 80 79
f 79 80 81
f 80 82 81
f 81 82 83
f 82 84 83
f 83 84 85
f 84 86 85
f 85 86 87
f 86 88 87
f 87 88 89
f 88 90 89
f 89 90 91
f 90 92 91
f 91 92 93
f 92 94 93
f 93 94 95
f 94 96 95
f 95 96 97
f 96 98 97
f 97 98 99
f 98 100 99
f 99 100 101
f 100 102 101
f 101 102 103
f 102 104 103
f 103 104 105
f 104 106 105
f 105 106 107
f 106 108 107
f 107 108 109
f 108 110 109
f 109 110 111
f 110 112 111
f 111 112 113
f 112 114 113
f 113 114 115
f 114 116 115
f 115 116 117
f 116 118 117
f 117 118 119
f 118 120 119
f 119 120 121
f 120 122 121
f 121 122 123
f 122 124 123
f 123 124 125
f 124 126 125
f 125 126 127
f 126 128 127
f 127 128 129
f 128 130 129
f 129 130 131
f 130 132 131
f 131 132 133
f 132 134 133
f 133 134 135
f 134 136 135
f 135 136 137
f 136 138 137
f 137 138 139
f 138 140 139
f 139 140 141
f 140 142 141
f 141 142 143
f 142 144 143
f 143 144 1
f 144 2 1
f 145 146 147
f 146 148 147
f 147 148 149
f 148 150 149
f 149 150 151
f 150 152 151
f 151 152 153
f 152 154 153
f 153 154 155
f 154 156 155
f 155 156 157
f 156 158 157
f 157 158 159
f 158 160 159
f 159 160 161
f 160 162 161
f 161 162 163
f 162 164 163
f 163 164 165
f 164 166 165
f 165 166 167
f 166 168 167
f 167 168 169
f 168 170 169
f 169 170 171
f 170 172 171
f 171 172 173
f 172 174 173
f 173 174 175
f 174 176 175
f 175 176 177
f 176 178 177
f 177 178 179
f 178 180 179
f 179 180 181
f 180 182 181
f 181 182 183
f 182 184 183
f 183 184 185
f 184 186 185
f 185 186 187
f 186 188 187
f 187 188 189
f 188 190 189
f 189 190 191
f 190 192 191
f 191 192 193
f 192 194 193
f 193 194 195
f 194 196 195
f 195 196 197
f 196 198 197
f 197 198 199
f 198 200 199
f 199 200 201
f 200 202 201
f 201 202 203
f 202 204 203
f 203 204 205
f 204 206 205
f 205 206 207
f 206 208 207
f 207 208 209
f 208 210 209
f 209 210 211
f 210 212 211
f 211 212 213
f 212 214 213
f 213 214 215
f 214 216 215
f 215 216 217
f 216 218 217
f 217 218 219
f 218 220 219
f 219 220 221
f 220 222 221
f 221 222 223
f 222 224 223
f 223 224 225
f 224 226 225
f 225 226 227
f 226 228 227
f 227 228 229
f 228 230 229
f 229 230 231
f 230 232 231
f 231 232 233
f 232 234 233
f 233 234 235
f 234 236 235
f 235 236 237
f 236 238 237
f 237 238 239
f 238 240 239
f 239 240 241
f 240 242 241
f 241 242 243
f 242 244 243
f 243 244 245
f 244 246 245
f 245 246 247
f 246 248 247
f 247 248 249
f 248 250 249
f 249 250 251
f 250 252 251
f 251 252 253
f 252 254 253
f 253 254 255
f 254 256 255
f 255 256 257
f 256 258 257
f 257 258 259
f 258 260 259
f 259 260 261
f 260 262 261
f 261 262 263
f 262 264 263
f 263 264 265
f 264 266 265
f 265 266 267
f 266 268 267
f 267 268 269
f 268 270 269
f 269 270 271
f 270 272 271
f 271 272 273
f 272 274 273
f 273 274 275
f 274 276 275
f 275 276 277
f 276 278 277
f 277 278 279
f 278 280 279
f 279 280 281
f 280 282 281
f 281 282 283
f 282 284 283
f 283 284 285
f 284 286 285
f 285 286 287
f 286 288 287
f 287 288 145
f 288 146 145
f 289 290 291
f 290 292 291
f 291 292 293
f 292 294 293
f 293 294 295
f 294 296 295
f 295 296 297
f 296 298 297
f 297 298 299
f 298 300 299
f 299 300 301
f 300 302 301
f 301 302 303
f 302 304 303
f 303 304 305
f 304 306 305
f 305 306 307
f 306 308 307
f 307 308 309
f 308 310 309
f 309 310 311
f 310 312 311
f 311 312 313
f 312 314 313
f 313 314 315
f 314 316 315
f 315 316 317
f 316 318 317
f 317 318 319
f 318 320 319
f 319 320 321
f 320 322 321
f 321 322 323
f 322 324 323
f 323 324 325
f 324 326 325
f 325 326 327
f 326 328 327
f 327 328 329
f 328 330 329
f 329 330 331
f 330 332 331
f 331 332 333
f 332 334 333
f 333 334 335
f 334 336 335
f 335 336 337
f 336 338 337
f 337 338 339
f 338 340 339
f 339 340 341
f 340 342 341
f 341 342 343
f 342 344 343
f 343 344 345
f 344 346 345
f 345 346 347
f 346 348 347
f 347 348 349
f 348 350 349
f 349 350 351
f 350 352 351
f 351 352 353
f 352 354 353
f 353 354 355
f 354 356 355
f 355 356 357
f 356 358 357
f 357 358 359
f 358 360 359
f 359 360 361
f 360 362 361
f 361 362 363
f 362 364 363
f 363 364 365
f 364 366 365
f 365 366 367
f 366 368 367
f 367 368 369
f 368 370 369
f 369 370 371
f 370 372 371
f 371 372 373
f 372 374 373
f 373 374 375
f 374 376 375
f 375 376 377
f 376 378 377
f 377 378 379
f 378 380 379
f 379 380 381
f 380 382 381
f 381 382 383
f 382 384 383
f 383 384 385
f 384 386 385
f 385 386 387
f 386 388 387
f 387 388 389
f 388 390 389
f 389 390 391
f 390 392 391
f 391 392 393
f 392 394 393
f 393 394 395
f 394 396 395
f 395 396 397
f 396 398 397
f 397 398 399
f 398 400 399
f 399 400 401
f 400 402 401
f 401 402 403
f 402 404 403
f 403 404 405
f 404 406 405
f 405 406 407
f 406 408 407
f 407 408 409
f 408 410 409
f 409 410 411
f 410 412 411
f 411 412 413
f 412 414 413
f 413 414 415
f 414 416 415
f 415 416 417
f 416 418 417
f 417 418 419
f 418 420 419
f 419 420 421
f 420 422 421
f 421 422 423
f 422 424 423
f 423 424 425
f 424 426 425
f 425 426 427
f 426 428 427
f 427 428 429
f 428 430 429
f 429 430 431
f 430 432 431
f 431 432 289
f 432 290 289
f 433 434 435
f 434 436 435
f 435 436 437
f 436 438 437
f 437 438 439
f 438 440 439
f 439 440 441
f 440 442 441
f 441 442 443
f 442 444 443
f 443 444 445
f 444 446 445
f 445 446 447
f 446 448 447
f 447 448 449
f 448 450 449
f 449 450 451
f 450 452 451
f 451 452 453
f 452 454 453
f 453 454 455
f 454 456 455
f 455 456 457
f 456 458 457
f 457 458 459
f 458 460 459
f 459 460 461
f 460 462 461
f 461 462 463
f 462 464 463
f 463 464 465
f 464 466 465
f 465 466 467
f 466 468 467
f 467 468 469
f 468 470 469
f 469 470 471
f 470 472 471
f 471 472 473
f 472 474 473
f 473 474 475
f 474 476 475
f 475 476 477
f 476 478 477
f 477 478 479
f 478 480 479
f 479 480 481
f 480 482 481
f 481 482 483
f 482 484 483
f 483 484 485
f 484 486 485
f 485 486 487
f 486 488 487
f 487 488 489
f 488 490 489
f 489 490 491
f 490 492 491
f 491 492 493
f 492 494 493
f 493 494 495
f 494 496 495
f 495 496 497
f 496 498 497
f 497 498 499
f 498 500 499
f 499 500 501
f 500 502 501
f 501 502 503
f 502 504 503
f 503 504 505
f 504 506 505
f 505 506 507
f 506 508 507
f 507 508 509
f 508 510 509
f 509 510 511
f 510 512 511
f 511 512 513
f 512 514 513
f 513 514 515
f 514 516 515
f 515 516 517
f 516 518 517
f 517 518 519
f 518 520 519
f 519 520 521
f 520 522 521
f 521 522 523
f 522 524 523
f 523 524 525
f 524 526 525
f 525 526 527
f 526 528 527
f 527 528 529
f 528 530 529
f 529 530 531
f 530 532 531
f 531 532 533
f 532 534 533
f 533 534 535
f 534 536 535
f 535 536 537
f 536 538 537
f 537 538 539
f 538 540 539
f 539 540 541
f 540 542 541
f 541 542 543
f 542 544 543
f 543 544 545
f 544 546 545
f 545 546 547
f 546 548 547
f 547 548 549
f 548 550 549
f 549 550 551
f 550 552 551
f 551 552 553
f 552 554 553
f 553 554 555
f 554 556 555
f 555 556 557
f 556 558 557
f 557 558 559
f 558 560 559
f 559 560 561
f 560 562 561
f 561 562 563
f 562 564 563
f 563 564 565
f 564 566 565
f 565 566 567
f 566 568 567
f 567 568 569
f 568 570 569
f 569 570 571
f 570 572 571
f 571 572 573
f 572 574 573
f 573 574 575
f 574 576 575
f 575 576 433
f 576 434 433
f 67 69 577
f 139 141 578
f 3 579 1
f 579 578 1
f 1 578 143
f 578 141 143
f 3 5 579
f 5 7 579
f 579 7 9
f 219 221 580
f 221 223 580
f 223 225 580
f 580 225 227
f 77 79 580
f 79 81 580
f 580 81 83
f 129 131 578
f 131 133 578
f 227 229 580
f 229 231 580
f 580 231 233
f 133 135 578
f 135 137 578
f 578 137 139
f 57 59 577
f 59 61 577
f 69 151 153
f 211 213 577
f 213 215 577
f 577 215 580
f 215 217 580
f 580 217 219
f 233 235 580
f 235 237 580
f 580 237 239
f 61 63 577
f 63 65 577
f 577 65 67
f 75 255 73
f 255 257 73
f 73 277 279
f 279 281 73
f 281 283 73
f 73 283 285
f 239 241 580
f 241 243 580
f 580 243 245
f 123 578 121
f 578 119 121
f 123 125 578
f 125 127 578
f 578 127 129
f 9 11 579
f 11 13 579
f 579 13 15
f 73 263 265
f 205 207 577
f 207 209 577
f 577 209 211
f 578 580 101
f 257 259 73
f 259 261 73
f 73 261 263
f 265 267 73
f 267 269 73
f 73 269 271
f 285 287 73
f 287 145 73
f 73 145 71
f 145 147 71
f 71 147 69
f 147 149 69
f 69 149 151
f 153 155 69
f 155 157 69
f 69 157 159
f 577 197 199
f 245 247 580
f 247 249 580
f 580 249 251
f 83 85 580
f 85 87 580
f 580 87 89
f 89 91 580
f 91 93 580
f 580 93 95
f 95 97 580
f 97 99 580
f 580 99 101
f 101 103 578
f 103 105 578
f 578 105 107
f 271 273 73
f 273 275 73
f 73 275 277
f 199 201 577
f 201 203 577
f 577 203 205
f 113 115 578
f 115 117 578
f 578 117 119
f 15 17 579
f 17 19 579
f 579 19 21
f 51 577 49
f 577 47 49
f 51 53 577
f 53 55 577
f 577 55 57
f 251 253 580
f 253 255 580
f 580 255 77
f 255 75 77
f 107 109 578
f 109 111 578
f 578 111 113
f 171 173 69
f 191 193 577
f 193 195 577
f 577 195 197
f 159 161 69
f 161 163 69
f 69 163 165
f 21 23 579
f 23 25 579
f 579 25 27
f 27 29 579
f 29 31 579
f 579 31 33
f 39 41 579
f 41 43 579
f 579 43 577
f 43 45 577
f 577 45 47
f 165 167 69
f 167 169 69
f 69 169 171
f 33 35 579
f 35 37 579
f 579 37 39
f 181 183 577
f 183 185 577
f 173 175 69
f 175 177 69
f 69 177 577
f 177 179 577
f 577 179 181
f 185 187 577
f 187 189 577
f 577 189 191
f 581 577 582
f 577 580 582
f 582 580 583
f 580 584 583
f 583 584 585
f 584 586 585
f 585 586 581
f 586 577 581
f 587 588 589
f 590 591 592
f 591 593 592
f 588 594 589
f 594 595 589
f 589 595 591
f 595 596 591
f 591 596 593
f 597 598 599
f 600 601 599
f 601 602 599
f 599 602 603
f 604 605 606
f 607 608 586
f 608 609 586
f 610 611 589
f 611 612 589
f 597 599 613
f 614 615 586
f 615 616 586
f 586 616 607
f 612 617 589
f 617 618 589
f 589 618 587
f 605 619 606
f 619 620 606
f 606 620 621
f 609 622 586
f 622 623 586
f 586 623 624
f 598 625 599
f 625 626 599
f 599 626 600
f 627 606 628
f 606 629 628
f 621 630 606
f 630 631 606
f 606 631 632
f 631 599 632
f 632 599 633
f 599 603 633
f 590 634 591
f 634 635 591
f 591 635 636
f 637 584 638
f 584 639 638
f 640 606 641
f 606 642 641
f 627 643 606
f 643 644 606
f 606 644 604
f 645 646 584
f 646 647 584
f 584 647 639
f 640 648 606
f 648 649 606
f 606 649 629
f 636 650 591
f 650 651 591
f 591 651 652
f 653 654 584
f 654 655 584
f 584 655 645
f 586 656 657
f 624 658 586
f 658 659 586
f 586 659 589
f 659 660 589
f 589 660 661
f 661 662 589
f 662 663 589
f 589 663 664
f 589 665 666
f 652 667 591
f 667 668 591
f 591 668 669
f 670 591 671
f 591 672 671
f 657 673 586
f 673 674 586
f 586 674 675
f 664 676 589
f 676 677 589
f 589 677 678
f 666 679 589
f 679 680 589
f 589 680 681
f 681 682 589
f 682 683 589
f 589 683 610
f 684 685 584
f 685 686 584
f 584 686 687
f 687 688 584
f 688 689 584
f 584 689 653
f 637 690 584
f 690 691 584
f 584 691 586
f 691 692 586
f 586 692 656
f 675 693 586
f 693 694 586
f 586 694 695
f 606 696 642
f 696 697 642
f 642 697 698
f 669 699 591
f 699 700 591
f 591 700 701
f 702 703 599
f 703 704 599
f 599 704 613
f 705 706 591
f 706 707 591
f 695 708 586
f 708 709 586
f 586 709 710
f 678 711 589
f 711 712 589
f 589 712 665
f 670 713 591
f 713 714 591
f 591 714 705
f 707 715 591
f 715 716 591
f 591 716 717
f 717 718 591
f 718 719 591
f 591 719 584
f 719 720 584
f 584 720 684
f 710 721 586
f 721 722 586
f 586 722 723
f 723 724 586
f 724 725 586
f 586 725 726
f 726 727 586
f 727 642 586
f 586 642 614
f 642 698 614
f 701 728 591
f 728 729 591
f 591 729 703
f 702 730 703
f 730 731 703
f 703 731 591
f 731 732 591
f 591 732 672
f 733 589 734
f 589 591 734
f 734 591 735
f 591 578 735
f 735 578 736
f 578 579 736
f 736 579 733
f 579 589 733
f 557 559 737
f 549 551 584
f 738 739 571
f 591 740 741
f 742 743 580
f 743 744 580
f 533 535 584
f 551 553 737
f 553 555 737
f 737 555 557
f 559 561 737
f 561 563 737
f 737 563 565
f 739 745 571
f 745 746 571
f 571 746 737
f 747 748 584
f 741 749 591
f 749 750 591
f 591 750 751
f 744 752 580
f 752 753 580
f 580 753 754
f 507 584 505
f 584 580 505
f 505 580 503
f 580 501 503
f 507 509 584
f 509 511 584
f 584 511 513
f 513 515 584
f 515 517 584
f 584 517 519
f 533 584 531
f 565 567 737
f 567 569 737
f 737 569 571
f 738 571 755
f 571 573 755
f 755 573 575
f 756 757 591
f 758 759 578
f 759 760 578
f 578 760 761
f 761 762 578
f 762 763 578
f 578 763 764
f 519 521 584
f 521 523 584
f 584 523 525
f 584 541 543
f 551 737 584
f 737 765 584
f 584 765 747
f 757 766 591
f 766 767 591
f 591 767 740
f 751 768 591
f 768 769 591
f 591 769 578
f 769 770 578
f 578 770 758
f 764 771 578
f 771 772 578
f 578 772 773
f 525 527 584
f 527 529 584
f 584 529 531
f 535 537 584
f 537 539 584
f 584 539 541
f 543 545 584
f 545 547 584
f 584 547 549
f 748 774 584
f 774 775 584
f 584 775 776
f 773 777 578
f 777 778 578
f 578 778 779
f 780 781 580
f 489 580 487
f 580 485 487
f 495 497 580
f 497 499 580
f 580 499 501
f 781 782 580
f 782 783 580
f 580 783 742
f 489 491 580
f 491 493 580
f 580 493 495
f 437 784 435
f 784 785 435
f 435 785 433
f 785 786 433
f 433 786 575
f 786 787 575
f 575 787 755
f 437 439 784
f 439 441 784
f 784 441 443
f 776 788 584
f 788 789 584
f 584 789 790
f 779 791 578
f 791 792 578
f 578 792 793
f 794 795 580
f 795 796 580
f 580 796 780
f 443 445 784
f 445 447 784
f 784 447 449
f 784 455 457
f 457 459 784
f 459 461 784
f 784 461 463
f 790 797 584
f 797 798 584
f 584 798 591
f 798 799 591
f 799 800 591
f 591 800 801
f 754 802 580
f 802 803 580
f 580 803 784
f 580 471 473
f 473 475 580
f 475 477 580
f 580 477 479
f 801 804 591
f 804 805 591
f 591 805 756
f 793 806 578
f 806 807 578
f 578 807 580
f 807 808 580
f 580 808 794
f 463 465 784
f 465 467 784
f 784 467 580
f 467 469 580
f 580 469 471
f 479 481 580
f 481 483 580
f 580 483 485
f 449 451 784
f 451 453 784
f 784 453 455
f 809 595 810
f 595 594 810
f 810 594 811
f 594 588 811
f 811 588 812
f 588 587 812
f 812 587 813
f 587 618 813
f 813 618 814
f 618 617 814
f 814 617 815
f 617 612 815
f 815 612 816
f 612 611 816
f 816 611 817
f 611 610 817
f 817 610 818
f 610 683 818
f 818 683 819
f 683 682 819
f 819 682 820
f 682 681 820
f 820 681 821
f 681 680 821
f 821 680 822
f 680 679 822
f 822 679 823
f 679 666 823
f 823 666 824
f 666 665 824
f 824 665 825
f 665 712 825
f 825 712 826
f 712 711 826
f 826 711 827
f 711 678 827
f 827 678 828
f 678 677 828
f 828 677 829
f 677 676 829
f 829 676 830
f 676 664 830
f 830 664 831
f 664 663 831
f 831 663 832
f 663 662 832
f 832 662 833
f 662 661 833
f 833 661 834
f 661 660 834
f 834 660 835
f 660 659 835
f 835 659 836
f 659 658 836
f 836 658 837
f 658 624 837
f 837 624 838
f 624 623 838
f 838 623 839
f 623 622 839
f 839 622 840
f 622 609 840
f 840 609 841
f 609 608 841
f 841 608 842
f 608 607 842
f 842 607 843
f 607 616 843
f 843 616 844
f 616 615 844
f 844 615 845
f 615 614 845
f 845 614 846
f 614 698 846
f 846 698 847
f 698 697 847
f 847 697 848
f 697 696 848
f 848 696 849
f 696 606 849
f 849 606 850
f 606 632 850
f 850 632 851
f 632 633 851
f 851 633 852
f 633 603 852
f 852 603 853
f 603 602 853
f 853 602 854
f 602 601 854
f 854 601 855
f 601 600 855
f 855 600 856
f 600 626 856
f 856 626 857
f 626 625 857
f 857 625 858
f 625 598 858
f 858 598 859
f 598 597 859
f 859 597 860
f 597 613 860
f 860 613 861
f 613 704 861
f 861 704 862
f 704 703 862
f 862 703 863
f 703 729 863
f 863 729 864
f 729 728 864
f 864 728 865
f 728 701 865
f 865 701 866
f 701 700 866
f 866 700 867
f 700 699 867
f 867 699 868
f 699 669 868
f 868 669 869
f 669 668 869
f 869 668 870
f 668 667 870
f 870 667 871
f 667 652 871
f 871 652 872
f 652 651 872
f 872 651 873
f 651 650 873
f 873 650 874
f 650 636 874
f 874 636 875
f 636 635 875
f 875 635 876
f 635 634 876
f 876 634 877
f 634 590 877
f 877 590 878
f 590 592 878
f 878 592 879
f 592 593 879
f 879 593 880
f 593 596 880
f 880 596 809
f 596 595 809
f 298 296 881
f 882 883 589
f 883 884 589
f 589 884 885
f 589 414 586
f 414 412 586
f 586 412 410
f 886 887 290
f 888 889 589
f 889 890 589
f 589 890 882
f 374 372 586
f 887 891 290
f 891 892 290
f 290 892 893
f 894 579 895
f 579 896 895
f 894 897 579
f 897 898 579
f 579 898 899
f 899 900 579
f 900 901 579
f 579 901 589
f 901 902 589
f 589 902 888
f 589 428 426
f 410 408 586
f 408 406 586
f 586 406 404
f 318 316 881
f 316 314 881
f 314 312 881
f 881 312 310
f 903 904 577
f 904 905 577
f 885 906 589
f 906 907 589
f 589 907 908
f 426 424 589
f 424 422 589
f 589 422 420
f 420 418 589
f 418 416 589
f 589 416 414
f 372 370 586
f 370 368 586
f 586 368 366
f 310 308 881
f 308 306 881
f 881 306 304
f 304 302 881
f 302 300 881
f 881 300 298
f 404 402 586
f 402 400 586
f 586 400 398
f 380 378 586
f 378 376 586
f 586 376 374
f 296 294 881
f 294 292 881
f 881 292 909
f 292 290 909
f 909 290 910
f 290 893 910
f 911 322 881
f 322 320 881
f 881 320 318
f 911 912 322
f 912 913 322
f 322 913 914
f 914 915 322
f 915 916 322
f 322 916 917
f 918 919 577
f 919 920 577
f 577 920 903
f 921 922 579
f 922 923 579
f 579 923 896
f 908 924 589
f 924 925 589
f 589 925 926
f 430 927 432
f 927 928 432
f 432 928 290
f 928 929 290
f 290 929 886
f 398 396 586
f 396 394 586
f 586 394 392
f 392 390 586
f 390 388 586
f 586 388 386
f 386 384 586
f 384 382 586
f 586 382 380
f 366 364 586
f 364 362 586
f 586 362 577
f 362 360 577
f 577 360 358
f 930 931 579
f 931 932 579
f 579 932 921
f 358 356 577
f 356 354 577
f 577 354 352
f 905 933 577
f 933 934 577
f 577 934 935
f 935 936 577
f 936 937 577
f 577 937 938
f 939 940 579
f 940 941 579
f 579 941 930
f 926 942 589
f 942 943 589
f 589 943 944
f 352 350 577
f 350 348 577
f 577 348 346
f 346 344 577
f 344 342 577
f 577 342 340
f 334 332 577
f 332 330 577
f 938 945 577
f 945 946 577
f 577 946 579
f 946 947 579
f 579 947 939
f 944 948 589
f 948 927 589
f 589 927 428
f 927 430 428
f 340 338 577
f 338 336 577
f 577 336 334
f 330 328 577
f 328 326 577
f 577 326 324
f 917 949 322
f 949 950 322
f 322 950 324
f 950 951 324
f 324 951 577
f 951 952 577
f 577 952 918
f 8 6 736
f 6 4 736
f 4 2 736
f 736 2 735
f 2 144 735
f 735 144 142
f 142 140 735
f 140 138 735
f 735 138 136
f 136 134 735
f 134 132 735
f 735 132 130
f 80 78 180
f 70 68 581
f 68 66 581
f 581 66 64
f 78 76 180
f 76 74 180
f 180 74 72
f 130 128 735
f 128 126 735
f 735 126 124
f 124 122 735
f 122 120 735
f 735 120 118
f 112 110 735
f 110 108 735
f 735 108 106
f 224 582 226
f 582 228 226
f 64 62 581
f 62 60 581
f 581 60 58
f 22 20 736
f 118 116 735
f 116 114 735
f 735 114 112
f 104 102 254
f 102 100 254
f 254 100 98
f 98 96 254
f 96 94 254
f 254 94 92
f 92 90 254
f 90 88 254
f 254 88 256
f 82 158 156
f 156 154 82
f 154 152 82
f 82 152 150
f 234 582 236
f 582 238 236
f 234 232 582
f 232 230 582
f 582 230 228
f 20 18 736
f 18 16 736
f 736 16 14
f 14 12 736
f 12 10 736
f 736 10 8
f 288 286 88
f 286 284 88
f 88 284 282
f 270 268 88
f 581 216 214
f 176 174 82
f 174 172 82
f 82 172 170
f 164 162 82
f 162 160 82
f 82 160 158
f 244 242 582
f 242 240 582
f 582 240 238
f 214 212 581
f 212 210 581
f 581 210 208
f 208 206 581
f 206 204 581
f 581 204 202
f 80 180 82
f 180 178 82
f 82 178 176
f 170 168 82
f 168 166 82
f 82 166 164
f 282 280 88
f 280 278 88
f 88 278 276
f 268 266 88
f 266 264 88
f 88 264 262
f 106 104 735
f 104 254 735
f 735 254 582
f 254 252 582
f 582 252 250
f 250 248 582
f 248 246 582
f 582 246 244
f 224 222 582
f 222 220 582
f 582 220 581
f 220 218 581
f 581 218 216
f 58 56 581
f 56 54 581
f 581 54 52
f 150 148 82
f 148 146 82
f 82 146 84
f 146 288 84
f 84 288 86
f 288 88 86
f 276 274 88
f 274 272 88
f 88 272 270
f 262 260 88
f 260 258 88
f 88 258 256
f 202 200 581
f 200 198 581
f 581 198 196
f 196 194 581
f 194 192 581
f 581 192 190
f 44 42 736
f 42 40 736
f 736 40 38
f 32 30 736
f 30 28 736
f 52 50 581
f 50 48 581
f 581 48 736
f 48 46 736
f 736 46 44
f 28 26 736
f 26 24 736
f 736 24 22
f 190 188 581
f 188 186 581
f 581 186 184
f 38 36 736
f 36 34 736
f 736 34 32
f 184 182 581
f 182 180 581
f 581 180 70
f 180 72 70
f 810 811 733
f 837 838 953
f 878 879 734
f 879 880 734
f 734 880 733
f 880 809 733
f 733 809 810
f 842 843 954
f 811 812 733
f 812 813 733
f 733 813 814
f 814 815 733
f 815 816 733
f 733 816 817
f 955 956 841
f 957 841 958
f 841 959 958
f 830 831 953
f 843 844 954
f 844 845 954
f 954 845 846
f 960 961 583
f 849 583 848
f 583 847 848
f 849 850 583
f 850 851 583
f 583 851 852
f 955 841 962
f 956 963 841
f 963 964 841
f 841 964 965
f 875 876 734
f 876 877 734
f 734 877 878
f 823 824 733
f 824 825 733
f 733 825 826
f 842 954 841
f 954 966 841
f 841 966 962
f 965 967 841
f 967 968 841
f 841 968 959
f 826 827 733
f 827 828 733
f 733 828 829
f 834 835 953
f 835 836 953
f 953 836 837
f 969 970 838
f 970 971 838
f 838 971 972
f 852 853 583
f 853 854 583
f 583 854 855
f 817 818 733
f 818 819 733
f 733 819 820
f 820 821 733
f 821 822 733
f 733 822 823
f 831 832 953
f 832 833 953
f 953 833 834
f 957 973 841
f 973 974 841
f 841 974 975
f 972 976 838
f 976 977 838
f 838 977 978
f 979 980 585
f 961 981 583
f 981 982 583
f 583 982 983
f 984 838 985
f 838 986 985
f 987 988 585
f 855 856 583
f 856 857 583
f 583 857 734
f 857 858 734
f 734 858 859
f 869 870 734
f 870 871 734
f 734 871 872
f 872 873 734
f 873 874 734
f 734 874 875
f 978 989 838
f 989 990 838
f 838 990 986
f 980 991 585
f 991 992 585
f 585 992 993
f 994 995 583
f 995 996 583
f 583 996 960
f 983 997 583
f 997 998 583
f 583 998 999
f 999 1000 583
f 1000 1001 583
f 583 1001 1002
f 975 1003 841
f 1003 1004 841
f 841 1004 840
f 1004 969 840
f 840 969 839
f 969 838 839
f 984 1005 838
f 1005 1006 838
f 838 1006 1007
f 1007 1008 838
f 1008 1009 838
f 838 1009 953
f 993 1010 585
f 1010 1011 585
f 585 1011 583
f 1011 1012 583
f 583 1012 994
f 1002 1013 583
f 1013 1014 583
f 583 1014 1015
f 859 860 734
f 860 861 734
f 734 861 862
f 734 865 866
f 1016 585 953
f 585 733 953
f 953 733 830
f 733 829 830
f 988 1017 585
f 1017 1018 585
f 585 1018 979
f 866 867 734
f 867 868 734
f 734 868 869
f 1015 1019 583
f 1019 954 583
f 583 954 847
f 954 846 847
f 862 863 734
f 863 864 734
f 734 864 865
f 1016 1020 585
f 1020 1021 585
f 585 1021 1022
f 1022 1023 585
f 1023 1024 585
f 585 1024 987
f 357 359 581
f 359 361 581
f 581 361 585
f 361 363 585
f 345 581 343
f 581 341 343
f 351 353 581
f 353 355 581
f 581 355 357
f 405 407 1025
f 407 409 1025
f 1025 409 411
f 1026 1027 581
f 1027 1028 581
f 581 1028 1029
f 1030 1031 427
f 736 1032 1033
f 345 347 581
f 347 349 581
f 581 349 351
f 389 391 585
f 415 1031 1034
f 1035 1036 585
f 1037 1038 733
f 1038 1039 733
f 733 1039 1040
f 1033 1041 736
f 1041 1042 736
f 736 1042 1043
f 1043 1044 736
f 1044 1045 736
f 736 1045 1046
f 323 325 581
f 325 327 581
f 581 327 329
f 363 365 585
f 365 367 585
f 585 367 369
f 369 371 585
f 371 373 585
f 585 373 375
f 389 585 387
f 1029 1047 581
f 1047 1048 581
f 581 1048 1049
f 411 413 1025
f 413 415 1025
f 1025 415 1050
f 415 1034 1050
f 1040 1051 733
f 1051 1052 733
f 733 1052 1053
f 1054 736 1055
f 736 1056 1055
f 1054 1057 736
f 1057 1058 736
f 736 1058 1032
f 329 331 581
f 331 333 581
f 581 333 335
f 375 377 585
f 377 379 585
f 585 379 381
f 585 397 399
f 1059 1060 581
f 1060 1061 581
f 1061 1062 581
f 1062 1063 581
f 581 1063 1064
f 1064 1065 581
f 1065 1066 581
f 581 1066 1026
f 405 1025 585
f 1025 1067 585
f 585 1067 1035
f 1068 1069 733
f 1069 1070 733
f 733 1070 1037
f 1053 1071 733
f 1071 1072 733
f 733 1072 736
f 1072 1073 736
f 736 1073 1056
f 1046 1074 736
f 1074 1075 736
f 736 1075 581
f 1075 1076 581
f 581 1076 1059
f 335 337 581
f 337 339 581
f 581 339 341
f 381 383 585
f 383 385 585
f 585 385 387
f 391 393 585
f 393 395 585
f 585 395 397
f 399 401 585
f 401 403 585
f 585 403 405
f 321 323 1077
f 323 581 1077
f 1077 581 1078
f 581 1049 1078
f 415 417 1031
f 417 419 1031
f 1031 419 421
f 1030 427 1079
f 427 429 1079
f 1079 429 431
f 1036 1080 585
f 1080 1081 585
f 585 1081 1082
f 293 295 1077
f 295 297 1077
f 1077 297 299
f 421 423 1031
f 423 425 1031
f 1031 425 427
f 293 1077 291
f 1077 1083 291
f 291 1083 289
f 1083 1084 289
f 289 1084 431
f 1084 1085 431
f 431 1085 1079
f 299 301 1077
f 301 303 1077
f 1077 303 305
f 315 1077 313
f 1077 311 313
f 315 317 1077
f 317 319 1077
f 1077 319 321
f 1082 1086 585
f 1086 1087 585
f 585 1087 1088
f 1088 1089 585
f 1089 1090 585
f 585 1090 733
f 1090 1091 733
f 305 307 1077
f 307 309 1077
f 1077 309 311
f 1091 1092 733
f 1092 1093 733
f 733 1093 1094
f 1094 1095 733
f 1095 1096 733
f 733 1096 1068
f 1004 599 969
f 599 631 969
f 969 631 970
f 631 630 970
f 970 630 971
f 630 621 971
f 971 621 972
f 621 620 972
f 972 620 976
f 620 619 976
f 976 619 977
f 619 605 977
f 977 605 978
f 605 604 978
f 978 604 989
f 604 644 989
f 989 644 990
f 644 643 990
f 990 643 986
f 643 627 986
f 986 627 985
f 627 628 985
f 985 628 984
f 628 629 984
f 984 629 1005
f 629 649 1005
f 1005 649 1006
f 649 648 1006
f 1006 648 1007
f 648 640 1007
f 1007 640 1008
f 640 641 1008
f 1008 641 1009
f 641 642 1009
f 1009 642 953
f 642 727 953
f 953 727 1016
f 727 726 1016
f 1016 726 1020
f 726 725 1020
f 1020 725 1021
f 725 724 1021
f 1021 724 1022
f 724 723 1022
f 1022 723 1023
f 723 722 1023
f 1023 722 1024
f 722 721 1024
f 1024 721 987
f 721 710 987
f 987 710 988
f 710 709 988
f 988 709 1017
f 709 708 1017
f 1017 708 1018
f 708 695 1018
f 1018 695 979
f 695 694 979
f 979 694 980
f 694 693 980
f 980 693 991
f 693 675 991
f 991 675 992
f 675 674 992
f 992 674 993
f 674 673 993
f 993 673 1010
f 673 657 1010
f 1010 657 1011
f 657 656 1011
f 1011 656 1012
f 656 692 1012
f 1012 692 994
f 692 691 994
f 994 691 995
f 691 690 995
f 995 690 996
f 690 637 996
f 996 637 960
f 637 638 960
f 960 638 961
f 638 639 961
f 961 639 981
f 639 647 981
f 981 647 982
f 647 646 982
f 982 646 983
f 646 645 983
f 983 645 997
f 645 655 997
f 997 655 998
f 655 654 998
f 998 654 999
f 654 653 999
f 999 653 1000
f 653 689 1000
f 1000 689 1001
f 689 688 1001
f 1001 688 1002
f 688 687 1002
f 1002 687 1013
f 687 686 1013
f 1013 686 1014
f 686 685 1014
f 1014 685 1015
f 685 684 1015
f 1015 684 1019
f 684 720 1019
f 1019 720 954
f 720 719 954
f 954 719 966
f 719 718 966
f 966 718 962
f 718 717 962
f 962 717 955
f 717 716 955
f 955 716 956
f 716 715 956
f 956 715 963
f 715 707 963
f 963 707 964
f 707 706 964
f 964 706 965
f 706 705 965
f 965 705 967
f 705 714 967
f 967 714 968
f 714 713 968
f 968 713 959
f 713 670 959
f 959 670 958
f 670 671 958
f 958 671 957
f 671 672 957
f 957 672 973
f 672 732 973
f 973 732 974
f 732 731 974
f 974 731 975
f 731 730 975
f 975 730 1003
f 730 702 1003
f 1003 702 1004
f 702 599 1004
f 442 440 1097
f 1098 1099 734
f 1099 1100 734
f 554 583 556
f 583 734 556
f 556 734 558
f 1101 1102 734
f 1102 1103 734
f 734 1103 1098
f 518 516 583
f 1104 1105 434
f 1105 1106 434
f 434 1106 1107
f 1108 735 1109
f 735 1110 1109
f 1108 1111 735
f 1111 1112 735
f 735 1112 1113
f 1113 1114 735
f 1114 1115 735
f 735 1115 734
f 1115 1116 734
f 734 1116 1101
f 566 564 734
f 554 552 583
f 552 550 583
f 583 550 548
f 462 460 1097
f 460 458 1097
f 458 456 1097
f 1097 456 454
f 1117 1118 434
f 1118 1119 434
f 434 1119 1104
f 1120 1121 582
f 1121 1122 582
f 434 576 1117
f 576 574 1117
f 1117 574 1123
f 1100 1124 734
f 1124 1125 734
f 734 1125 1126
f 564 562 734
f 562 560 734
f 734 560 558
f 516 514 583
f 514 512 583
f 583 512 510
f 454 452 1097
f 452 450 1097
f 1097 450 448
f 448 446 1097
f 446 444 1097
f 1097 444 442
f 548 546 583
f 546 544 583
f 583 544 542
f 524 522 583
f 522 520 583
f 583 520 518
f 440 438 1097
f 438 436 1097
f 1097 436 1127
f 436 434 1127
f 1127 434 1128
f 434 1107 1128
f 1129 466 1097
f 466 464 1097
f 1097 464 462
f 1129 1130 466
f 1130 1131 466
f 466 1131 1132
f 1132 1133 466
f 1133 1134 466
f 466 1134 1135
f 1136 1137 582
f 1137 1138 582
f 582 1138 1120
f 1139 1140 735
f 1140 1141 735
f 735 1141 1110
f 1126 1142 734
f 1142 1143 734
f 734 1143 1144
f 542 540 583
f 540 538 583
f 583 538 536
f 536 534 583
f 534 532 583
f 583 532 530
f 530 528 583
f 528 526 583
f 583 526 524
f 510 508 583
f 508 506 583
f 583 506 582
f 506 504 582
f 582 504 502
f 1145 1146 735
f 1146 1147 735
f 735 1147 1139
f 1144 1148 734
f 1148 1149 734
f 734 1149 1150
f 502 500 582
f 500 498 582
f 582 498 496
f 1122 1151 582
f 1151 1152 582
f 582 1152 1153
f 1153 1154 582
f 1154 1155 582
f 582 1155 1156
f 1157 1158 735
f 1158 1159 735
f 735 1159 1145
f 1150 1160 734
f 1160 1161 734
f 734 1161 1123
f 496 494 582
f 494 492 582
f 582 492 490
f 490 488 582
f 488 486 582
f 582 486 484
f 478 476 582
f 476 474 582
f 1156 1162 582
f 1162 1163 582
f 582 1163 735
f 1163 1164 735
f 735 1164 1157
f 574 572 1123
f 572 570 1123
f 1123 570 734
f 570 568 734
f 734 568 566
f 484 482 582
f 482 480 582
f 582 480 478
f 474 472 582
f 472 470 582
f 582 470 468
f 1135 1165 466
f 1165 1166 466
f 466 1166 468
f 1166 1167 468
f 468 1167 582
f 1167 1168 582
f 582 1168 1136
f 758 1115 759
f 1115 1114 759
f 759 1114 760
f 1114 1113 760
f 760 1113 761
f 1113 1112 761
f 761 1112 762
f 1112 1111 762
f 762 1111 763
f 1111 1108 763
f 763 1108 764
f 1108 1109 764
f 764 1109 771
f 1109 1110 771
f 771 1110 772
f 1110 1141 772
f 772 1141 773
f 1141 1140 773
f 773 1140 777
f 1140 1139 777
f 777 1139 778
f 1139 1147 778
f 778 1147 779
f 1147 1146 779
f 779 1146 791
f 1146 1145 791
f 791 1145 792
f 1145 1159 792
f 792 1159 793
f 1159 1158 793
f 793 1158 806
f 1158 1157 806
f 806 1157 807
f 1157 1164 807
f 807 1164 808
f 1164 1163 808
f 808 1163 794
f 1163 1162 794
f 794 1162 795
f 1162 1156 795
f 795 1156 796
f 1156 1155 796
f 796 1155 780
f 1155 1154 780
f 780 1154 781
f 1154 1153 781
f 781 1153 782
f 1153 1152 782
f 782 1152 783
f 1152 1151 783
f 783 1151 742
f 1151 1122 742
f 742 1122 743
f 1122 1121 743
f 743 1121 744
f 1121 1120 744
f 744 1120 752
f 1120 1138 752
f 752 1138 753
f 1138 1137 753
f 753 1137 754
f 1137 1136 754
f 754 1136 802
f 1136 1168 802
f 802 1168 803
f 1168 1167 803
f 803 1167 784
f 1167 1166 784
f 784 1166 785
f 1166 1165 785
f 785 1165 786
f 1165 1135 786
f 786 1135 787
f 1135 1134 787
f 787 1134 755
f 1134 1133 755
f 755 1133 738
f 1133 1132 738
f 738 1132 739
f 1132 1131 739
f 739 1131 745
f 1131 1130 745
f 745 1130 746
f 1130 1129 746
f 746 1129 737
f 1129 1097 737
f 737 1097 765
f 1097 1127 765
f 765 1127 747
f 1127 1128 747
f 747 1128 748
f 1128 1107 748
f 748 1107 774
f 1107 1106 774
f 774 1106 775
f 1106 1105 775
f 775 1105 776
f 1105 1104 776
f 776 1104 788
f 1104 1119 788
f 788 1119 789
f 1119 1118 789
f 789 1118 790
f 1118 1117 790
f 790 1117 797
f 1117 1123 797
f 797 1123 798
f 1123 1161 798
f 798 1161 799
f 1161 1160 799
f 799 1160 800
f 1160 1150 800
f 800 1150 801
f 1150 1149 801
f 801 1149 804
f 1149 1148 804
f 804 1148 805
f 1148 1144 805
f 805 1144 756
f 1144 1143 756
f 756 1143 757
f 1143 1142 757
f 757 1142 766
f 1142 1126 766
f 766 1126 767
f 1126 1125 767
f 767 1125 740
f 1125 1124 740
f 740 1124 741
f 1124 1100 741
f 741 1100 749
f 1100 1099 749
f 749 1099 750
f 1099 1098 750
f 750 1098 751
f 1098 1103 751
f 751 1103 768
f 1103 1102 768
f 768 1102 769
f 1102 1101 769
f 769 1101 770
f 1101 1116 770
f 770 1116 758
f 1116 1115 758
f 1072 901 1073
f 901 900 1073
f 1073 900 1056
f 900 899 1056
f 1056 899 1055
f 899 898 1055
f 1055 898 1054
f 898 897 1054
f 1054 897 1057
f 897 894 1057
f 1057 894 1058
f 894 895 1058
f 1058 895 1032
f 895 896 1032
f 1032 896 1033
f 896 923 1033
f 1033 923 1041
f 923 922 1041
f 1041 922 1042
f 922 921 1042
f 1042 921 1043
f 921 932 1043
f 1043 932 1044
f 932 931 1044
f 1044 931 1045
f 931 930 1045
f 1045 930 1046
f 930 941 1046
f 1046 941 1074
f 941 940 1074
f 1074 940 1075
f 940 939 1075
f 1075 939 1076
f 939 947 1076
f 1076 947 1059
f 947 946 1059
f 1059 946 1060
f 946 945 1060
f 1060 945 1061
f 945 938 1061
f 1061 938 1062
f 938 937 1062
f 1062 937 1063
f 937 936 1063
f 1063 936 1064
f 936 935 1064
f 1064 935 1065
f 935 934 1065
f 1065 934 1066
f 934 933 1066
f 1066 933 1026
f 933 905 1026
f 1026 905 1027
f 905 904 1027
f 1027 904 1028
f 904 903 1028
f 1028 903 1029
f 903 920 1029
f 1029 920 1047
f 920 919 1047
f 1047 919 1048
f 919 918 1048
f 1048 918 1049
f 918 952 1049
f 1049 952 1078
f 952 951 1078
f 1078 951 1077
f 951 950 1077
f 1077 950 1083
f 950 949 1083
f 1083 949 1084
f 949 917 1084
f 1084 917 1085
f 917 916 1085
f 1085 916 1079
f 916 915 1079
f 1079 915 1030
f 915 914 1030
f 1030 914 1031
f 914 913 1031
f 1031 913 1034
f 913 912 1034
f 1034 912 1050
f 912 911 1050
f 1050 911 1025
f 911 881 1025
f 1025 881 1067
f 881 909 1067
f 1067 909 1035
f 909 910 1035
f 1035 910 1036
f 910 893 1036
f 1036 893 1080
f 893 892 1080
f 1080 892 1081
f 892 891 1081
f 1081 891 1082
f 891 887 1082
f 1082 887 1086
f 887 886 1086
f 1086 886 1087
f 886 929 1087
f 1087 929 1088
f 929 928 1088
f 1088 928 1089
f 928 927 1089
f 1089 927 1090
f 927 948 1090
f 1090 948 1091
f 948 944 1091
f 1091 944 1092
f 944 943 1092
f 1092 943 1093
f 943 942 1093
f 1093 942 1094
f 942 926 1094
f 1094 926 1095
f 926 925 1095
f 1095 925 1096
f 925 924 1096
f 1096 924 1068
f 924 908 1068
f 1068 908 1069
f 908 907 1069
f 1069 907 1070
f 907 906 1070
f 1070 906 1037
f 906 885 1037
f 1037 885 1038
f 885 884 1038
f 1038 884 1039
f 884 883 1039
f 1039 883 1040
f 883 882 1040
f 1040 882 1051
f 882 890 1051
f 1051 890 1052
f 890 889 1052
f 1052 889 1053
f 889 888 1053
f 1053 888 1071
f 888 902 1071
f 1071 902 1072
f 902 901 1072

