# https://github.com/mikedh/trimesh

o tm26_251_p01_w_bottom_aluminum_plate.stl
v 0.03500000 0.01904984 0.00000000
v 0.03500000 0.01904984 0.00130000
v 0.00000000 0.01905000 0.00000000
v 0.00000000 0.01905000 0.00130000
v 0.00030384 0.09672319 0.00130000
v 0.00030384 0.09672319 0.00000000
v 0.00007611 0.09499334 0.00000000
v 0.00007611 0.09499334 0.00130000
v 0.00000000 0.09325023 0.00000000
v 0.00000000 0.09325023 0.00130000
v 0.00500000 0.02975403 0.00000000
v 0.00000000 0.02975403 0.00000000
v 0.00500000 0.02873692 0.00061312
v -0.00000000 0.02873692 0.00061312
v 0.00500000 0.02776809 0.00130000
v 0.00000000 0.02776809 0.00130000
v 0.00500000 0.04723191 0.00130000
v 0.00000000 0.04723191 0.00130000
v 0.00500000 0.04626308 0.00061312
v 0.00000000 0.04626308 0.00061312
v 0.00500000 0.04524597 0.00000000
v 0.00000000 0.04524597 0.00000000
v 0.02900000 0.05000000 0.00130000
v 0.00875000 0.02650000 0.00130000
v 0.00888073 0.02649429 0.00130000
v 0.00901047 0.02647721 0.00130000
v 0.00913823 0.02644889 0.00130000
v 0.00926303 0.02640954 0.00130000
v 0.02900000 0.14000000 0.00130000
v 0.02900000 0.15000001 0.00130000
v 0.02300000 0.14000000 0.00130000
v 0.01948854 0.15000001 0.00130000
v 0.02900000 0.06000000 0.00130000
v 0.02300000 0.06000000 0.00130000
v 0.00861927 0.02350571 0.00130000
v 0.00848953 0.02352279 0.00130000
v 0.00836177 0.02355111 0.00130000
v 0.00823697 0.02359046 0.00130000
v 0.00950000 0.02629904 0.00130000
v 0.00961036 0.02622873 0.00130000
v 0.01772593 0.02596418 0.00130000
v 0.02036929 0.02513073 0.00130000
v 0.02037500 0.02500000 0.00130000
v 0.02036929 0.02486927 0.00130000
v 0.02035221 0.02473953 0.00130000
v 0.02023446 0.02436607 0.00130000
v 0.02017404 0.02425000 0.00130000
v 0.01926323 0.02355111 0.00130000
v 0.01913547 0.02352279 0.00130000
v 0.00913823 0.02355111 0.00130000
v 0.00901047 0.02352279 0.00130000
v 0.00752127 0.02586037 0.00130000
v 0.00760093 0.02596418 0.00130000
v 0.00836177 0.02644889 0.00130000
v 0.00848953 0.02647721 0.00130000
v 0.00861927 0.02649429 0.00130000
v 0.01751554 0.02563393 0.00130000
v 0.01757596 0.02575000 0.00130000
v 0.00981066 0.02606066 0.00130000
v 0.00239003 0.06124308 0.00130000
v 0.00228090 0.06125744 0.00130000
v 0.00217344 0.06128127 0.00130000
v 0.02010373 0.02413964 0.00130000
v 0.02002407 0.02403582 0.00130000
v 0.01993566 0.02393934 0.00130000
v 0.01983918 0.02385093 0.00130000
v 0.01973536 0.02377127 0.00130000
v 0.01962500 0.02370096 0.00130000
v 0.01861453 0.02352279 0.00130000
v 0.01848677 0.02355111 0.00130000
v 0.01836197 0.02359046 0.00130000
v 0.00888073 0.02350571 0.00130000
v 0.00875000 0.02350000 0.00130000
v 0.00788963 0.02377127 0.00130000
v 0.00778582 0.02385093 0.00130000
v 0.01746546 0.02551303 0.00130000
v 0.00971418 0.02614907 0.00130000
v 0.01764627 0.02586037 0.00130000
v 0.01781434 0.02606066 0.00130000
v 0.00938393 0.02635946 0.00130000
v 0.00519366 0.10149869 0.00130000
v 0.00512335 0.10138833 0.00130000
v 0.00464462 0.10094965 0.00130000
v 0.00475499 0.10101996 0.00130000
v 0.00485880 0.10109963 0.00130000
v 0.00452855 0.10360815 0.00130000
v 0.00464462 0.10354773 0.00130000
v 0.01950893 0.02364054 0.00130000
v 0.01938803 0.02359046 0.00130000
v 0.01900573 0.02350571 0.00130000
v 0.01887500 0.02350000 0.00130000
v 0.01874427 0.02350571 0.00130000
v 0.00811607 0.02364054 0.00130000
v 0.00800000 0.02370096 0.00130000
v 0.00734046 0.02448697 0.00130000
v 0.00730111 0.02461177 0.00130000
v 0.00745096 0.02575000 0.00130000
v 0.00768934 0.02606066 0.00130000
v 0.00989907 0.02596418 0.00130000
v 0.00997873 0.02586037 0.00130000
v 0.01739779 0.02526047 0.00130000
v 0.01004904 0.02575000 0.00130000
v 0.01973536 0.02622873 0.00130000
v 0.01983918 0.02614907 0.00130000
v 0.03500000 0.05000000 0.00130000
v 0.01993566 0.02606066 0.00130000
v 0.02002407 0.02596418 0.00130000
v 0.02010373 0.02586037 0.00130000
v 0.02017404 0.02575000 0.00130000
v 0.02023446 0.02563393 0.00130000
v 0.02028454 0.02551303 0.00130000
v 0.00293153 0.06131437 0.00130000
v 0.00282656 0.06128127 0.00130000
v 0.02032389 0.02461177 0.00130000
v 0.02028454 0.02448697 0.00130000
v 0.00981066 0.02393934 0.00130000
v 0.00989907 0.02403582 0.00130000
v 0.01824107 0.02364054 0.00130000
v 0.00971418 0.02385093 0.00130000
v 0.00961036 0.02377127 0.00130000
v 0.00950000 0.02370096 0.00130000
v 0.00938393 0.02364054 0.00130000
v 0.00926303 0.02359046 0.00130000
v 0.00778582 0.02614907 0.00130000
v 0.00788963 0.02622873 0.00130000
v 0.00800000 0.02629904 0.00130000
v 0.01742611 0.02538823 0.00130000
v 0.01791082 0.02614907 0.00130000
v 0.01801464 0.02622873 0.00130000
v 0.01812500 0.02629904 0.00130000
v 0.01824107 0.02635946 0.00130000
v 0.01836197 0.02640954 0.00130000
v 0.01848677 0.02644889 0.00130000
v 0.01861453 0.02647721 0.00130000
v 0.01874427 0.02649429 0.00130000
v 0.01887500 0.02650000 0.00130000
v 0.02032389 0.02538823 0.00130000
v 0.02035221 0.02526047 0.00130000
v 0.00303323 0.06135649 0.00130000
v 0.00271910 0.06125744 0.00130000
v 0.00260997 0.06124308 0.00130000
v 0.00250000 0.06123828 0.00130000
v 0.00504369 0.10128451 0.00130000
v 0.00495528 0.10118803 0.00130000
v 0.00128127 0.06282656 0.00130000
v 0.00131437 0.06293154 0.00130000
v 0.00415509 0.10372590 0.00130000
v 0.00428285 0.10369758 0.00130000
v 0.01812500 0.02370096 0.00130000
v 0.01801464 0.02377127 0.00130000
v 0.01791082 0.02385093 0.00130000
v 0.00811607 0.02635946 0.00130000
v 0.00823697 0.02640954 0.00130000
v 0.01019889 0.02538823 0.00130000
v 0.01022721 0.02526047 0.00130000
v 0.01024429 0.02513073 0.00130000
v 0.01738071 0.02513073 0.00130000
v 0.01900573 0.02649429 0.00130000
v 0.01913547 0.02647721 0.00130000
v 0.01926323 0.02644889 0.00130000
v 0.00376172 0.06250000 0.00130000
v 0.00375692 0.06239003 0.00130000
v 0.00374255 0.06228090 0.00130000
v 0.00537183 0.10198822 0.00130000
v 0.00534351 0.10186046 0.00130000
v 0.00228090 0.06374256 0.00130000
v 0.00239003 0.06375692 0.00130000
v 0.00452855 0.10088923 0.00130000
v 0.00440765 0.10083915 0.00130000
v 0.00363415 0.10077148 0.00130000
v 0.00350639 0.10079980 0.00130000
v 0.00338159 0.10083915 0.00130000
v 0.00326069 0.10088923 0.00130000
v 0.01781434 0.02393934 0.00130000
v 0.01772593 0.02403582 0.00130000
v 0.01764627 0.02413964 0.00130000
v 0.00768934 0.02393934 0.00130000
v 0.00760093 0.02403582 0.00130000
v 0.00752127 0.02413964 0.00130000
v 0.00745096 0.02425000 0.00130000
v 0.00739054 0.02436607 0.00130000
v 0.00727279 0.02473953 0.00130000
v 0.00725571 0.02486927 0.00130000
v 0.00725000 0.02500000 0.00130000
v 0.01010946 0.02563393 0.00130000
v 0.01015954 0.02551303 0.00130000
v 0.01938803 0.02640954 0.00130000
v 0.01950893 0.02635946 0.00130000
v 0.01962500 0.02629904 0.00130000
v 0.00371873 0.06217344 0.00130000
v 0.00368563 0.06206847 0.00130000
v 0.00364351 0.06196677 0.00130000
v 0.00339217 0.06160783 0.00130000
v 0.00331102 0.06153347 0.00130000
v 0.00539462 0.10224869 0.00130000
v 0.00538891 0.10211796 0.00130000
v 0.00530416 0.10173566 0.00130000
v 0.00525408 0.10161477 0.00130000
v 0.00440765 0.10365823 0.00130000
v 0.00475499 0.10347742 0.00130000
v 0.00485880 0.10339776 0.00130000
v 0.00495528 0.10330935 0.00130000
v 0.01757596 0.02425000 0.00130000
v 0.01751554 0.02436607 0.00130000
v 0.01746546 0.02448697 0.00130000
v 0.00725571 0.02513073 0.00130000
v 0.00727279 0.02526047 0.00130000
v 0.00730111 0.02538823 0.00130000
v 0.00734046 0.02551303 0.00130000
v 0.00739054 0.02563393 0.00130000
v 0.00322369 0.06146646 0.00130000
v 0.00313086 0.06140732 0.00130000
v 0.00135649 0.06303323 0.00130000
v 0.00140732 0.06313086 0.00130000
v 0.00146646 0.06322370 0.00130000
v 0.00250000 0.06376173 0.00130000
v 0.00303323 0.06364351 0.00130000
v 0.00313086 0.06359269 0.00130000
v 0.00504369 0.10321287 0.00130000
v 0.00512335 0.10310905 0.00130000
v 0.00519366 0.10299869 0.00130000
v 0.00525408 0.10288262 0.00130000
v 0.00530416 0.10276172 0.00130000
v 0.00534351 0.10263692 0.00130000
v 0.01004904 0.02425000 0.00130000
v 0.00997873 0.02413964 0.00130000
v 0.01739779 0.02473953 0.00130000
v 0.01742611 0.02461177 0.00130000
v 0.01737500 0.02500000 0.00130000
v 0.01025000 0.02500000 0.00130000
v 0.01738071 0.02486927 0.00130000
v 0.01024429 0.02486927 0.00130000
v 0.01022721 0.02473953 0.00130000
v 0.01019889 0.02461177 0.00130000
v 0.01015954 0.02448697 0.00130000
v 0.01010946 0.02436607 0.00130000
v 0.00123828 0.06250000 0.00130000
v 0.00153346 0.06331102 0.00130000
v 0.00160783 0.06339217 0.00130000
v 0.00168898 0.06346653 0.00130000
v 0.00177631 0.06353354 0.00130000
v 0.00186914 0.06359269 0.00130000
v 0.00196677 0.06364351 0.00130000
v 0.00293153 0.06368563 0.00130000
v 0.00428285 0.10079980 0.00130000
v 0.00415509 0.10077148 0.00130000
v 0.00402535 0.10075440 0.00130000
v 0.00266589 0.10138833 0.00130000
v 0.00259558 0.10149869 0.00130000
v 0.00259558 0.10299869 0.00130000
v 0.00266589 0.10310905 0.00130000
v 0.00768186 0.13856599 0.00130000
v 0.00274555 0.10321287 0.00130000
v 0.00939196 0.14152797 0.00130000
v 0.00326069 0.10360815 0.00130000
v 0.00338159 0.10365823 0.00130000
v 0.00537183 0.10250916 0.00130000
v 0.00538891 0.10237943 0.00130000
v 0.00359268 0.06186914 0.00130000
v 0.00353354 0.06177631 0.00130000
v 0.00346654 0.06168898 0.00130000
v 0.00206847 0.06131437 0.00130000
v 0.00196677 0.06135649 0.00130000
v 0.00186914 0.06140732 0.00130000
v 0.00177631 0.06146646 0.00130000
v 0.00168898 0.06153347 0.00130000
v 0.00160783 0.06160783 0.00130000
v 0.00153346 0.06168898 0.00130000
v 0.00146646 0.06177631 0.00130000
v 0.00140732 0.06186914 0.00130000
v 0.00135649 0.06196677 0.00130000
v 0.00131437 0.06206847 0.00130000
v 0.00128127 0.06217344 0.00130000
v 0.00124308 0.06260996 0.00130000
v 0.00125745 0.06271910 0.00130000
v 0.00206847 0.06368563 0.00130000
v 0.00217344 0.06371873 0.00130000
v 0.00322369 0.06353354 0.00130000
v 0.00331102 0.06346653 0.00130000
v 0.00339217 0.06339217 0.00130000
v 0.00389462 0.10074869 0.00130000
v 0.00376389 0.10075440 0.00130000
v 0.00283396 0.10330935 0.00130000
v 0.00293044 0.10339776 0.00130000
v 0.00303426 0.10347742 0.00130000
v 0.00907036 0.14123328 0.00130000
v 0.00777627 0.13899183 0.00130000
v 0.00350639 0.10369758 0.00130000
v 0.00363415 0.10372590 0.00130000
v 0.00376389 0.10374298 0.00130000
v 0.00125745 0.06228090 0.00130000
v 0.00124308 0.06239003 0.00130000
v 0.00260997 0.06375692 0.00130000
v 0.00271910 0.06374256 0.00130000
v 0.00282656 0.06371873 0.00130000
v 0.00314462 0.10094965 0.00130000
v 0.00303426 0.10101996 0.00130000
v 0.00293044 0.10109963 0.00130000
v 0.00244573 0.10263692 0.00130000
v 0.00851014 0.14056562 0.00130000
v 0.00827577 0.14019774 0.00130000
v 0.00807436 0.13981083 0.00130000
v 0.00314462 0.10354773 0.00130000
v 0.00389462 0.10374869 0.00130000
v 0.00402535 0.10374298 0.00130000
v 0.00346654 0.06331102 0.00130000
v 0.00353354 0.06322370 0.00130000
v 0.00359268 0.06313086 0.00130000
v 0.00283396 0.10118803 0.00130000
v 0.00274555 0.10128451 0.00130000
v 0.00253516 0.10161477 0.00130000
v 0.00248508 0.10173566 0.00130000
v 0.00244573 0.10186046 0.00130000
v 0.00877567 0.14091168 0.00130000
v 0.00790743 0.13940784 0.00130000
v 0.00364351 0.06303323 0.00130000
v 0.00368563 0.06293154 0.00130000
v 0.00371873 0.06282656 0.00130000
v 0.00374255 0.06271910 0.00130000
v 0.00375692 0.06260996 0.00130000
v 0.00241741 0.10198822 0.00130000
v 0.00240033 0.10211796 0.00130000
v 0.00239462 0.10224869 0.00130000
v 0.00248508 0.10276172 0.00130000
v 0.00253516 0.10288262 0.00130000
v 0.00240033 0.10237943 0.00130000
v 0.00241741 0.10250916 0.00130000
v 0.01948854 0.15000001 0.00000000
v 0.02900000 0.15000001 0.00000000
v 0.00123828 0.06250000 0.00000000
v 0.00124308 0.06260996 0.00000000
v 0.00125745 0.06271910 0.00000000
v 0.00128127 0.06282656 0.00000000
v 0.00131437 0.06293154 0.00000000
v 0.00135649 0.06303323 0.00000000
v 0.00140732 0.06313086 0.00000000
v 0.00146646 0.06322370 0.00000000
v 0.00153346 0.06331102 0.00000000
v 0.00160783 0.06339217 0.00000000
v 0.00168898 0.06346653 0.00000000
v 0.00177631 0.06353354 0.00000000
v 0.00186914 0.06359269 0.00000000
v 0.00196677 0.06364351 0.00000000
v 0.00206847 0.06368563 0.00000000
v 0.00217344 0.06371873 0.00000000
v 0.00228090 0.06374256 0.00000000
v 0.00239003 0.06375692 0.00000000
v 0.00250000 0.06376173 0.00000000
v 0.00260997 0.06375692 0.00000000
v 0.00271910 0.06374256 0.00000000
v 0.00282656 0.06371873 0.00000000
v 0.00293153 0.06368563 0.00000000
v 0.00303323 0.06364351 0.00000000
v 0.00313086 0.06359269 0.00000000
v 0.00322369 0.06353354 0.00000000
v 0.00331102 0.06346653 0.00000000
v 0.00339217 0.06339217 0.00000000
v 0.00346654 0.06331102 0.00000000
v 0.00353354 0.06322370 0.00000000
v 0.00359268 0.06313086 0.00000000
v 0.00364351 0.06303323 0.00000000
v 0.00368563 0.06293154 0.00000000
v 0.00371873 0.06282656 0.00000000
v 0.00374255 0.06271910 0.00000000
v 0.00375692 0.06260996 0.00000000
v 0.00376172 0.06250000 0.00000000
v 0.00375692 0.06239003 0.00000000
v 0.00374255 0.06228090 0.00000000
v 0.00371873 0.06217344 0.00000000
v 0.00368563 0.06206847 0.00000000
v 0.00364351 0.06196677 0.00000000
v 0.00359268 0.06186914 0.00000000
v 0.00353354 0.06177631 0.00000000
v 0.00346654 0.06168898 0.00000000
v 0.00339217 0.06160783 0.00000000
v 0.00331102 0.06153347 0.00000000
v 0.00322369 0.06146646 0.00000000
v 0.00313086 0.06140732 0.00000000
v 0.00303323 0.06135649 0.00000000
v 0.00293153 0.06131437 0.00000000
v 0.00282656 0.06128127 0.00000000
v 0.00271910 0.06125744 0.00000000
v 0.00260997 0.06124308 0.00000000
v 0.00250000 0.06123828 0.00000000
v 0.00239003 0.06124308 0.00000000
v 0.00228090 0.06125744 0.00000000
v 0.00217344 0.06128127 0.00000000
v 0.00206847 0.06131437 0.00000000
v 0.00196677 0.06135649 0.00000000
v 0.00186914 0.06140732 0.00000000
v 0.00177631 0.06146646 0.00000000
v 0.00168898 0.06153347 0.00000000
v 0.00160783 0.06160783 0.00000000
v 0.00153346 0.06168898 0.00000000
v 0.00146646 0.06177631 0.00000000
v 0.00140732 0.06186914 0.00000000
v 0.00135649 0.06196677 0.00000000
v 0.00131437 0.06206847 0.00000000
v 0.00128127 0.06217344 0.00000000
v 0.00125745 0.06228090 0.00000000
v 0.00124308 0.06239003 0.00000000
v 0.02900000 0.06000000 0.00000000
v 0.02900000 0.05000000 0.00000000
v 0.02300000 0.06000000 0.00000000
v 0.03500000 0.05000000 0.00000000
v 0.00768186 0.13856599 0.00000000
v 0.02900000 0.14000000 0.00000000
v 0.02300000 0.14000000 0.00000000
v 0.01926323 0.02355111 0.00000000
v 0.01938803 0.02359046 0.00000000
v 0.02023446 0.02563393 0.00000000
v 0.02017404 0.02575000 0.00000000
v 0.00836177 0.02355111 0.00000000
v 0.00848953 0.02352279 0.00000000
v 0.00861927 0.02350571 0.00000000
v 0.00875000 0.02350000 0.00000000
v 0.00938393 0.02635946 0.00000000
v 0.00926303 0.02640954 0.00000000
v 0.00913823 0.02644889 0.00000000
v 0.00901047 0.02647721 0.00000000
v 0.00888073 0.02649429 0.00000000
v 0.00875000 0.02650000 0.00000000
v 0.00861927 0.02649429 0.00000000
v 0.00848953 0.02647721 0.00000000
v 0.00836177 0.02644889 0.00000000
v 0.00823697 0.02640954 0.00000000
v 0.01848677 0.02644889 0.00000000
v 0.01836197 0.02640954 0.00000000
v 0.00778582 0.02385093 0.00000000
v 0.00788963 0.02377127 0.00000000
v 0.00800000 0.02370096 0.00000000
v 0.01973536 0.02377127 0.00000000
v 0.01983918 0.02385093 0.00000000
v 0.01993566 0.02393934 0.00000000
v 0.02002407 0.02403582 0.00000000
v 0.02010373 0.02413964 0.00000000
v 0.02017404 0.02425000 0.00000000
v 0.00485880 0.10109963 0.00000000
v 0.00475499 0.10101996 0.00000000
v 0.00464462 0.10094965 0.00000000
v 0.00752127 0.02586037 0.00000000
v 0.00745096 0.02575000 0.00000000
v 0.02028454 0.02448697 0.00000000
v 0.02032389 0.02461177 0.00000000
v 0.02035221 0.02473953 0.00000000
v 0.02036929 0.02486927 0.00000000
v 0.02037500 0.02500000 0.00000000
v 0.02036929 0.02513073 0.00000000
v 0.02035221 0.02526047 0.00000000
v 0.02010373 0.02586037 0.00000000
v 0.02002407 0.02596418 0.00000000
v 0.01993566 0.02606066 0.00000000
v 0.00725000 0.02500000 0.00000000
v 0.00725571 0.02486927 0.00000000
v 0.00727279 0.02473953 0.00000000
v 0.00730111 0.02461177 0.00000000
v 0.00734046 0.02448697 0.00000000
v 0.00811607 0.02364054 0.00000000
v 0.00823697 0.02359046 0.00000000
v 0.01812500 0.02370096 0.00000000
v 0.01824107 0.02364054 0.00000000
v 0.01836197 0.02359046 0.00000000
v 0.01848677 0.02355111 0.00000000
v 0.01861453 0.02352279 0.00000000
v 0.01913547 0.02352279 0.00000000
v 0.00519366 0.10299869 0.00000000
v 0.00512335 0.10310905 0.00000000
v 0.00464462 0.10354773 0.00000000
v 0.00475499 0.10347742 0.00000000
v 0.00485880 0.10339776 0.00000000
v 0.00788963 0.02622873 0.00000000
v 0.00778582 0.02614907 0.00000000
v 0.00768934 0.02606066 0.00000000
v 0.00760093 0.02596418 0.00000000
v 0.02032389 0.02538823 0.00000000
v 0.02028454 0.02551303 0.00000000
v 0.01983918 0.02614907 0.00000000
v 0.01973536 0.02622873 0.00000000
v 0.01962500 0.02629904 0.00000000
v 0.01801464 0.02622873 0.00000000
v 0.01791082 0.02614907 0.00000000
v 0.01781434 0.02606066 0.00000000
v 0.01772593 0.02596418 0.00000000
v 0.00950000 0.02370096 0.00000000
v 0.00961036 0.02377127 0.00000000
v 0.00739054 0.02436607 0.00000000
v 0.00745096 0.02425000 0.00000000
v 0.00752127 0.02413964 0.00000000
v 0.00760093 0.02403582 0.00000000
v 0.00768934 0.02393934 0.00000000
v 0.01781434 0.02393934 0.00000000
v 0.01791082 0.02385093 0.00000000
v 0.01801464 0.02377127 0.00000000
v 0.01874427 0.02350571 0.00000000
v 0.01887500 0.02350000 0.00000000
v 0.01900573 0.02350571 0.00000000
v 0.01950893 0.02364054 0.00000000
v 0.01962500 0.02370096 0.00000000
v 0.02023446 0.02436607 0.00000000
v 0.00877567 0.14091168 0.00000000
v 0.00907036 0.14123328 0.00000000
v 0.00939196 0.14152797 0.00000000
v 0.00452855 0.10360815 0.00000000
v 0.00440765 0.10365823 0.00000000
v 0.00811607 0.02635946 0.00000000
v 0.00800000 0.02629904 0.00000000
v 0.00739054 0.02563393 0.00000000
v 0.00734046 0.02551303 0.00000000
v 0.00730111 0.02538823 0.00000000
v 0.00727279 0.02526047 0.00000000
v 0.00725571 0.02513073 0.00000000
v 0.01764627 0.02586037 0.00000000
v 0.01757596 0.02575000 0.00000000
v 0.00926303 0.02359046 0.00000000
v 0.01751554 0.02563393 0.00000000
v 0.01746546 0.02551303 0.00000000
v 0.01738071 0.02513073 0.00000000
v 0.00913823 0.02355111 0.00000000
v 0.01737500 0.02500000 0.00000000
v 0.00901047 0.02352279 0.00000000
v 0.01738071 0.02486927 0.00000000
v 0.01739779 0.02473953 0.00000000
v 0.00971418 0.02614907 0.00000000
v 0.00961036 0.02622873 0.00000000
v 0.00950000 0.02629904 0.00000000
v 0.01757596 0.02425000 0.00000000
v 0.01764627 0.02413964 0.00000000
v 0.01772593 0.02403582 0.00000000
v 0.00525408 0.10288262 0.00000000
v 0.00504369 0.10321287 0.00000000
v 0.00495528 0.10330935 0.00000000
v 0.00363415 0.10372590 0.00000000
v 0.00350639 0.10369758 0.00000000
v 0.00314462 0.10354773 0.00000000
v 0.00303426 0.10347742 0.00000000
v 0.00293044 0.10339776 0.00000000
v 0.00283396 0.10330935 0.00000000
v 0.01950893 0.02635946 0.00000000
v 0.01938803 0.02640954 0.00000000
v 0.01926323 0.02644889 0.00000000
v 0.01913547 0.02647721 0.00000000
v 0.01900573 0.02649429 0.00000000
v 0.01887500 0.02650000 0.00000000
v 0.01874427 0.02649429 0.00000000
v 0.01861453 0.02647721 0.00000000
v 0.01824107 0.02635946 0.00000000
v 0.01812500 0.02629904 0.00000000
v 0.01742611 0.02538823 0.00000000
v 0.01739779 0.02526047 0.00000000
v 0.00938393 0.02364054 0.00000000
v 0.00971418 0.02385093 0.00000000
v 0.00981066 0.02393934 0.00000000
v 0.00989907 0.02403582 0.00000000
v 0.00997873 0.02413964 0.00000000
v 0.01004904 0.02425000 0.00000000
v 0.01010946 0.02436607 0.00000000
v 0.01742611 0.02461177 0.00000000
v 0.01746546 0.02448697 0.00000000
v 0.01751554 0.02436607 0.00000000
v 0.00326069 0.10088923 0.00000000
v 0.00314462 0.10094965 0.00000000
v 0.00303426 0.10101996 0.00000000
v 0.00452855 0.10088923 0.00000000
v 0.00440765 0.10083915 0.00000000
v 0.00428285 0.10079980 0.00000000
v 0.00338159 0.10365823 0.00000000
v 0.00326069 0.10360815 0.00000000
v 0.01015954 0.02448697 0.00000000
v 0.01019889 0.02461177 0.00000000
v 0.01022721 0.02473953 0.00000000
v 0.01024429 0.02486927 0.00000000
v 0.01025000 0.02500000 0.00000000
v 0.01024429 0.02513073 0.00000000
v 0.00248508 0.10173566 0.00000000
v 0.00253516 0.10161477 0.00000000
v 0.00259558 0.10149869 0.00000000
v 0.00266589 0.10138833 0.00000000
v 0.00274555 0.10128451 0.00000000
v 0.00495528 0.10118803 0.00000000
v 0.00504369 0.10128451 0.00000000
v 0.00512335 0.10138833 0.00000000
v 0.00538891 0.10237943 0.00000000
v 0.00537183 0.10250916 0.00000000
v 0.00790743 0.13940784 0.00000000
v 0.00807436 0.13981083 0.00000000
v 0.00274555 0.10321287 0.00000000
v 0.00266589 0.10310905 0.00000000
v 0.00259558 0.10299869 0.00000000
v 0.00997873 0.02586037 0.00000000
v 0.00989907 0.02596418 0.00000000
v 0.00981066 0.02606066 0.00000000
v 0.00241741 0.10250916 0.00000000
v 0.00240033 0.10237943 0.00000000
v 0.00239462 0.10224869 0.00000000
v 0.00240033 0.10211796 0.00000000
v 0.00283396 0.10118803 0.00000000
v 0.00293044 0.10109963 0.00000000
v 0.00338159 0.10083915 0.00000000
v 0.00350639 0.10079980 0.00000000
v 0.00363415 0.10077148 0.00000000
v 0.00534351 0.10186046 0.00000000
v 0.00537183 0.10198822 0.00000000
v 0.00534351 0.10263692 0.00000000
v 0.00530416 0.10276172 0.00000000
v 0.00777627 0.13899183 0.00000000
v 0.00827577 0.14019774 0.00000000
v 0.00851014 0.14056562 0.00000000
v 0.00428285 0.10369758 0.00000000
v 0.00415509 0.10372590 0.00000000
v 0.00402535 0.10374298 0.00000000
v 0.00241741 0.10198822 0.00000000
v 0.00244573 0.10186046 0.00000000
v 0.00389462 0.10074869 0.00000000
v 0.00402535 0.10075440 0.00000000
v 0.00415509 0.10077148 0.00000000
v 0.00389462 0.10374869 0.00000000
v 0.00376389 0.10374298 0.00000000
v 0.00253516 0.10288262 0.00000000
v 0.00248508 0.10276172 0.00000000
v 0.00244573 0.10263692 0.00000000
v 0.01022721 0.02526047 0.00000000
v 0.01019889 0.02538823 0.00000000
v 0.01015954 0.02551303 0.00000000
v 0.00888073 0.02350571 0.00000000
v 0.00376389 0.10075440 0.00000000
v 0.00519366 0.10149869 0.00000000
v 0.00525408 0.10161477 0.00000000
v 0.00530416 0.10173566 0.00000000
v 0.01010946 0.02563393 0.00000000
v 0.01004904 0.02575000 0.00000000
v 0.00538891 0.10211796 0.00000000
v 0.00539462 0.10224869 0.00000000
f 1 2 3
f 2 4 3
f 5 6 7
f 5 7 8
f 7 9 8
f 8 9 10
f 11 12 13
f 12 14 13
f 13 14 15
f 14 16 15
f 17 18 19
f 18 20 19
f 19 20 21
f 20 22 21
f 15 16 4
f 23 24 25
f 25 26 23
f 26 27 23
f 23 27 28
f 29 30 31
f 30 32 31
f 23 33 34
f 35 36 4
f 36 37 4
f 4 37 38
f 39 40 41
f 42 43 2
f 43 44 2
f 2 44 45
f 46 47 2
f 48 49 2
f 50 51 4
f 52 53 4
f 54 55 23
f 55 56 23
f 23 56 24
f 57 58 59
f 60 61 18
f 61 62 18
f 47 63 2
f 63 64 2
f 2 64 65
f 65 66 2
f 66 67 2
f 2 67 68
f 69 70 4
f 70 71 4
f 4 71 50
f 51 72 4
f 72 73 4
f 4 73 35
f 4 74 75
f 57 59 76
f 40 77 41
f 77 59 41
f 41 59 78
f 59 58 78
f 79 28 41
f 28 80 41
f 41 80 39
f 81 82 34
f 83 34 84
f 34 85 84
f 86 87 31
f 68 88 2
f 88 89 2
f 2 89 48
f 49 90 2
f 90 91 2
f 2 91 4
f 91 92 4
f 4 92 69
f 38 93 4
f 93 94 4
f 4 94 74
f 95 96 4
f 52 4 97
f 53 98 4
f 98 23 4
f 4 23 15
f 23 34 15
f 15 34 17
f 99 100 101
f 100 102 101
f 103 104 105
f 104 106 105
f 105 106 107
f 107 108 105
f 108 109 105
f 105 109 2
f 109 110 2
f 2 110 111
f 112 113 17
f 45 114 2
f 114 115 2
f 2 115 46
f 116 71 117
f 71 118 117
f 116 119 71
f 119 120 71
f 71 120 121
f 121 122 71
f 122 123 71
f 71 123 50
f 98 124 23
f 124 125 23
f 23 125 126
f 99 101 59
f 101 127 59
f 59 127 76
f 79 128 28
f 128 129 28
f 28 129 23
f 129 130 23
f 130 131 23
f 131 132 23
f 23 132 133
f 133 134 23
f 134 135 23
f 23 135 136
f 111 137 2
f 137 138 2
f 2 138 42
f 112 17 139
f 113 140 17
f 140 141 17
f 17 141 18
f 141 142 18
f 18 142 60
f 82 143 34
f 143 144 34
f 34 144 85
f 145 146 10
f 147 148 32
f 118 149 117
f 149 150 117
f 117 150 151
f 126 152 23
f 152 153 23
f 23 153 54
f 154 155 101
f 155 156 101
f 101 156 157
f 136 158 23
f 158 159 23
f 23 159 160
f 161 162 34
f 162 163 34
f 34 164 165
f 166 167 10
f 5 168 169
f 170 171 5
f 171 172 5
f 5 172 173
f 151 174 117
f 174 175 117
f 117 175 176
f 75 177 4
f 177 178 4
f 4 178 179
f 179 180 4
f 180 181 4
f 4 181 95
f 96 182 4
f 182 183 4
f 4 183 184
f 102 185 101
f 185 186 101
f 101 186 154
f 160 187 23
f 187 188 23
f 23 188 105
f 188 189 105
f 105 189 103
f 163 190 34
f 190 191 34
f 34 191 192
f 193 194 17
f 31 195 34
f 195 196 34
f 34 196 164
f 165 197 34
f 197 198 34
f 34 198 81
f 32 148 31
f 148 199 31
f 31 199 86
f 87 200 31
f 200 201 31
f 31 201 202
f 176 203 117
f 203 204 117
f 117 204 205
f 184 206 4
f 206 207 4
f 4 207 208
f 208 209 4
f 209 210 4
f 4 210 97
f 194 211 17
f 211 212 17
f 17 212 139
f 146 213 10
f 213 214 10
f 10 214 215
f 83 168 216
f 217 218 34
f 202 219 31
f 219 220 31
f 31 220 221
f 221 222 31
f 222 223 31
f 31 223 224
f 225 226 227
f 226 117 227
f 227 117 228
f 117 205 228
f 157 156 229
f 156 230 229
f 229 230 231
f 230 232 231
f 231 232 227
f 232 233 227
f 227 233 234
f 234 235 227
f 235 236 227
f 227 236 225
f 237 10 18
f 215 238 10
f 238 239 10
f 10 239 240
f 240 241 10
f 241 242 10
f 10 242 243
f 217 34 244
f 169 245 5
f 245 246 5
f 5 246 247
f 248 249 5
f 250 251 252
f 251 253 252
f 254 255 32
f 255 256 32
f 224 257 31
f 257 258 31
f 31 258 195
f 192 259 34
f 259 260 34
f 34 260 17
f 260 261 17
f 17 261 193
f 62 262 18
f 262 263 18
f 18 263 264
f 264 265 18
f 265 266 18
f 18 266 267
f 267 268 18
f 268 269 18
f 18 269 270
f 270 271 18
f 271 272 18
f 18 272 273
f 237 274 10
f 274 275 10
f 10 275 145
f 243 276 10
f 276 277 10
f 10 277 166
f 167 216 10
f 216 168 10
f 10 168 8
f 168 5 8
f 218 278 34
f 278 279 34
f 34 279 280
f 247 281 5
f 281 282 5
f 5 282 170
f 253 283 252
f 283 284 252
f 252 284 285
f 286 287 252
f 256 288 32
f 288 289 32
f 32 289 290
f 273 291 18
f 291 292 18
f 18 292 237
f 216 293 83
f 293 294 83
f 83 294 34
f 294 295 34
f 34 295 244
f 173 296 5
f 296 297 5
f 5 297 298
f 299 252 5
f 300 301 302
f 254 286 255
f 286 252 255
f 255 252 303
f 252 285 303
f 290 304 32
f 304 305 32
f 32 305 147
f 280 306 34
f 306 307 34
f 34 307 308
f 298 309 5
f 309 310 5
f 5 310 248
f 249 311 5
f 311 312 5
f 5 312 313
f 286 314 287
f 314 300 287
f 287 300 315
f 300 302 315
f 308 316 34
f 316 317 34
f 34 317 318
f 318 319 34
f 319 320 34
f 34 320 161
f 313 321 5
f 321 322 5
f 5 322 323
f 299 324 252
f 324 325 252
f 252 325 250
f 323 326 5
f 326 327 5
f 5 327 299
f 21 11 19
f 11 13 19
f 19 13 17
f 13 15 17
f 4 16 3
f 16 14 3
f 3 14 12
f 32 30 328
f 30 329 328
f 237 330 274
f 330 331 274
f 274 331 275
f 331 332 275
f 275 332 145
f 332 333 145
f 145 333 146
f 333 334 146
f 146 334 213
f 334 335 213
f 213 335 214
f 335 336 214
f 214 336 215
f 336 337 215
f 215 337 238
f 337 338 238
f 238 338 239
f 338 339 239
f 239 339 240
f 339 340 240
f 240 340 241
f 340 341 241
f 241 341 242
f 341 342 242
f 242 342 243
f 342 343 243
f 243 343 276
f 343 344 276
f 276 344 277
f 344 345 277
f 277 345 166
f 345 346 166
f 166 346 167
f 346 347 167
f 167 347 216
f 347 348 216
f 216 348 293
f 348 349 293
f 293 349 294
f 349 350 294
f 294 350 295
f 350 351 295
f 295 351 244
f 351 352 244
f 244 352 217
f 352 353 217
f 217 353 218
f 353 354 218
f 218 354 278
f 354 355 278
f 278 355 279
f 355 356 279
f 279 356 280
f 356 357 280
f 280 357 306
f 357 358 306
f 306 358 307
f 358 359 307
f 307 359 308
f 359 360 308
f 308 360 316
f 360 361 316
f 316 361 317
f 361 362 317
f 317 362 318
f 362 363 318
f 318 363 319
f 363 364 319
f 319 364 320
f 364 365 320
f 320 365 161
f 365 366 161
f 161 366 162
f 366 367 162
f 162 367 163
f 367 368 163
f 163 368 190
f 368 369 190
f 190 369 191
f 369 370 191
f 191 370 192
f 370 371 192
f 192 371 259
f 371 372 259
f 259 372 260
f 372 373 260
f 260 373 261
f 373 374 261
f 261 374 193
f 374 375 193
f 193 375 194
f 375 376 194
f 194 376 211
f 376 377 211
f 211 377 212
f 377 378 212
f 212 378 139
f 378 379 139
f 139 379 112
f 379 380 112
f 112 380 113
f 380 381 113
f 113 381 140
f 381 382 140
f 140 382 141
f 382 383 141
f 141 383 142
f 383 384 142
f 142 384 60
f 384 385 60
f 60 385 61
f 385 386 61
f 61 386 62
f 386 387 62
f 62 387 262
f 387 388 262
f 262 388 263
f 388 389 263
f 263 389 264
f 389 390 264
f 264 390 265
f 390 391 265
f 265 391 266
f 391 392 266
f 266 392 267
f 392 393 267
f 267 393 268
f 393 394 268
f 268 394 269
f 394 395 269
f 269 395 270
f 395 396 270
f 270 396 271
f 396 397 271
f 271 397 272
f 397 398 272
f 272 398 273
f 398 399 273
f 273 399 291
f 399 400 291
f 291 400 292
f 400 401 292
f 292 401 237
f 401 330 237
f 33 23 402
f 23 403 402
f 34 33 404
f 33 402 404
f 23 105 403
f 105 405 403
f 5 252 6
f 252 406 6
f 329 407 328
f 407 408 328
f 409 410 1
f 411 412 403
f 413 414 3
f 414 415 3
f 3 415 416
f 417 418 11
f 418 419 11
f 11 419 420
f 420 421 11
f 421 422 11
f 11 422 423
f 423 424 11
f 424 425 11
f 11 425 426
f 427 428 21
f 429 430 3
f 430 431 3
f 432 433 1
f 433 434 1
f 434 435 1
f 435 436 1
f 1 436 437
f 398 397 22
f 397 396 22
f 22 396 395
f 395 394 22
f 394 393 22
f 22 393 392
f 392 391 22
f 391 390 22
f 22 390 389
f 438 404 439
f 404 440 439
f 441 442 12
f 443 444 403
f 444 445 403
f 403 445 446
f 446 447 403
f 447 448 403
f 403 448 449
f 412 450 403
f 450 451 403
f 403 451 452
f 12 453 3
f 453 454 3
f 454 455 3
f 455 456 3
f 3 456 457
f 431 458 3
f 458 459 3
f 3 459 413
f 3 460 461
f 461 462 3
f 462 463 3
f 3 463 464
f 409 1 465
f 401 400 22
f 400 399 22
f 22 399 398
f 466 467 408
f 468 408 469
f 408 470 469
f 471 472 11
f 472 473 11
f 11 473 12
f 473 474 12
f 12 474 441
f 449 475 403
f 475 476 403
f 403 476 411
f 452 477 403
f 477 478 403
f 403 478 479
f 480 481 21
f 481 482 21
f 21 482 483
f 484 485 483
f 457 486 3
f 486 487 3
f 3 487 488
f 488 489 3
f 489 490 3
f 3 490 429
f 491 492 3
f 492 493 3
f 3 493 460
f 464 494 3
f 494 495 3
f 3 495 1
f 495 496 1
f 1 496 465
f 410 497 1
f 497 498 1
f 1 498 432
f 403 405 443
f 405 1 443
f 443 1 499
f 1 437 499
f 500 501 408
f 501 502 408
f 408 502 328
f 406 503 504
f 426 505 11
f 505 506 11
f 11 506 471
f 442 507 12
f 507 508 12
f 12 508 509
f 509 510 12
f 510 511 12
f 12 511 453
f 512 513 514
f 513 515 514
f 514 515 516
f 514 517 518
f 517 519 518
f 518 519 520
f 519 521 520
f 520 521 522
f 483 523 21
f 523 524 21
f 21 524 11
f 524 525 11
f 11 525 417
f 526 527 3
f 527 528 3
f 3 528 491
f 340 339 9
f 339 338 9
f 338 337 9
f 9 337 336
f 336 335 9
f 335 334 9
f 9 334 333
f 333 332 9
f 332 331 9
f 9 331 22
f 331 330 22
f 22 330 401
f 466 408 529
f 467 530 408
f 530 531 408
f 408 531 470
f 532 533 406
f 534 535 406
f 535 536 406
f 406 536 537
f 479 538 403
f 538 539 403
f 403 539 402
f 539 540 402
f 402 540 404
f 540 541 404
f 404 541 542
f 542 543 404
f 543 544 404
f 404 544 21
f 544 545 21
f 21 545 427
f 428 546 21
f 546 547 21
f 21 547 480
f 516 548 514
f 548 549 514
f 514 549 517
f 512 514 483
f 514 550 483
f 483 550 484
f 485 551 483
f 551 552 483
f 483 552 553
f 553 554 483
f 554 555 483
f 483 555 556
f 557 558 3
f 558 559 3
f 3 559 526
f 560 9 561
f 9 7 561
f 561 7 562
f 7 6 562
f 389 388 22
f 388 387 22
f 22 387 386
f 563 349 564
f 349 565 564
f 9 347 346
f 503 406 468
f 533 566 406
f 566 567 406
f 406 567 534
f 556 568 483
f 568 569 483
f 483 569 570
f 570 571 483
f 571 572 483
f 483 572 573
f 6 574 575
f 575 576 6
f 576 577 6
f 6 577 578
f 346 345 9
f 345 344 9
f 9 344 343
f 343 342 9
f 342 341 9
f 9 341 340
f 438 579 404
f 579 580 404
f 404 580 581
f 582 583 408
f 584 585 408
f 537 586 406
f 586 587 406
f 406 587 588
f 589 590 483
f 590 591 483
f 483 591 523
f 592 593 6
f 593 594 6
f 6 594 595
f 578 596 6
f 596 597 6
f 6 597 562
f 386 385 22
f 385 384 22
f 22 384 21
f 384 383 21
f 560 598 9
f 598 599 9
f 9 599 347
f 599 600 347
f 347 600 348
f 601 602 408
f 583 603 408
f 603 604 408
f 408 604 529
f 468 406 408
f 406 605 408
f 408 605 584
f 585 606 408
f 606 607 408
f 408 607 500
f 504 608 406
f 608 609 406
f 406 609 610
f 595 611 6
f 611 612 6
f 6 612 574
f 355 354 563
f 354 353 563
f 563 353 352
f 352 351 563
f 351 350 563
f 563 350 349
f 613 614 349
f 614 615 349
f 349 615 565
f 610 616 406
f 616 617 406
f 406 617 532
f 588 618 406
f 618 619 406
f 406 619 6
f 619 620 6
f 6 620 592
f 573 621 483
f 621 622 483
f 483 622 623
f 416 624 3
f 624 520 3
f 3 520 557
f 520 522 557
f 383 382 21
f 382 381 21
f 21 381 380
f 348 600 349
f 600 625 349
f 349 625 613
f 581 626 404
f 626 627 404
f 404 627 408
f 627 628 408
f 408 628 601
f 623 629 483
f 629 630 483
f 483 630 589
f 602 631 408
f 631 632 408
f 408 632 582
f 370 369 404
f 369 368 404
f 368 367 404
f 367 366 404
f 404 366 365
f 380 379 21
f 379 378 21
f 21 378 377
f 373 372 404
f 372 371 404
f 404 371 370
f 440 404 563
f 404 359 563
f 563 359 358
f 358 357 563
f 357 356 563
f 563 356 355
f 365 364 404
f 364 363 404
f 404 363 362
f 377 376 21
f 376 375 21
f 21 375 404
f 375 374 404
f 404 374 373
f 362 361 404
f 361 360 404
f 404 360 359
f 31 34 408
f 34 404 408
f 1 405 2
f 405 105 2
f 29 31 407
f 31 408 407
f 30 29 329
f 29 407 329
f 323 594 326
f 594 593 326
f 326 593 327
f 593 592 327
f 327 592 299
f 592 620 299
f 299 620 324
f 620 619 324
f 324 619 325
f 619 618 325
f 325 618 250
f 618 588 250
f 250 588 251
f 588 587 251
f 251 587 253
f 587 586 253
f 253 586 283
f 586 537 283
f 283 537 284
f 537 536 284
f 284 536 285
f 536 535 285
f 285 535 303
f 535 534 303
f 303 534 255
f 534 567 255
f 255 567 256
f 567 566 256
f 256 566 288
f 566 533 288
f 288 533 289
f 533 532 289
f 289 532 290
f 532 617 290
f 290 617 304
f 617 616 304
f 304 616 305
f 616 610 305
f 305 610 147
f 610 609 147
f 147 609 148
f 609 608 148
f 148 608 199
f 608 504 199
f 199 504 86
f 504 503 86
f 86 503 87
f 503 468 87
f 87 468 200
f 468 469 200
f 200 469 201
f 469 470 201
f 201 470 202
f 470 531 202
f 202 531 219
f 531 530 219
f 219 530 220
f 530 467 220
f 220 467 221
f 467 466 221
f 221 466 222
f 466 529 222
f 222 529 223
f 529 604 223
f 223 604 224
f 604 603 224
f 224 603 257
f 603 583 257
f 257 583 258
f 583 582 258
f 258 582 195
f 582 632 195
f 195 632 196
f 632 631 196
f 196 631 164
f 631 602 164
f 164 602 165
f 602 601 165
f 165 601 197
f 601 628 197
f 197 628 198
f 628 627 198
f 198 627 81
f 627 626 81
f 81 626 82
f 626 581 82
f 82 581 143
f 581 580 143
f 143 580 144
f 580 579 144
f 144 579 85
f 579 438 85
f 85 438 84
f 438 439 84
f 84 439 83
f 439 440 83
f 83 440 168
f 440 563 168
f 168 563 169
f 563 564 169
f 169 564 245
f 564 565 245
f 245 565 246
f 565 615 246
f 246 615 247
f 615 614 247
f 247 614 281
f 614 613 281
f 281 613 282
f 613 625 282
f 282 625 170
f 625 600 170
f 170 600 171
f 600 599 171
f 171 599 172
f 599 598 172
f 172 598 173
f 598 560 173
f 173 560 296
f 560 561 296
f 296 561 297
f 561 562 297
f 297 562 298
f 562 597 298
f 298 597 309
f 597 596 309
f 309 596 310
f 596 578 310
f 310 578 248
f 578 577 248
f 248 577 249
f 577 576 249
f 249 576 311
f 576 575 311
f 311 575 312
f 575 574 312
f 312 574 313
f 574 612 313
f 313 612 321
f 612 611 321
f 321 611 322
f 611 595 322
f 322 595 323
f 595 594 323
f 254 32 502
f 32 328 502
f 254 502 501
f 254 501 286
f 501 500 286
f 286 500 314
f 500 607 314
f 314 607 300
f 607 606 300
f 300 606 301
f 606 585 301
f 301 585 302
f 585 584 302
f 302 584 315
f 584 605 315
f 315 605 287
f 605 406 287
f 287 406 252
f 572 230 573
f 230 156 573
f 573 156 621
f 156 155 621
f 621 155 622
f 155 154 622
f 622 154 623
f 154 186 623
f 623 186 629
f 186 185 629
f 629 185 630
f 185 102 630
f 630 102 589
f 102 100 589
f 589 100 590
f 100 99 590
f 590 99 591
f 99 59 591
f 591 59 523
f 59 77 523
f 523 77 524
f 77 40 524
f 524 40 525
f 40 39 525
f 525 39 417
f 39 80 417
f 417 80 418
f 80 28 418
f 418 28 419
f 28 27 419
f 419 27 420
f 27 26 420
f 420 26 421
f 26 25 421
f 421 25 422
f 25 24 422
f 422 24 423
f 24 56 423
f 423 56 424
f 56 55 424
f 424 55 425
f 55 54 425
f 425 54 426
f 54 153 426
f 426 153 505
f 153 152 505
f 505 152 506
f 152 126 506
f 506 126 471
f 126 125 471
f 471 125 472
f 125 124 472
f 472 124 473
f 124 98 473
f 473 98 474
f 98 53 474
f 474 53 441
f 53 52 441
f 441 52 442
f 52 97 442
f 442 97 507
f 97 210 507
f 507 210 508
f 210 209 508
f 508 209 509
f 209 208 509
f 509 208 510
f 208 207 510
f 510 207 511
f 207 206 511
f 511 206 453
f 206 184 453
f 453 184 454
f 184 183 454
f 454 183 455
f 183 182 455
f 455 182 456
f 182 96 456
f 456 96 457
f 96 95 457
f 457 95 486
f 95 181 486
f 486 181 487
f 181 180 487
f 487 180 488
f 180 179 488
f 488 179 489
f 179 178 489
f 489 178 490
f 178 177 490
f 490 177 429
f 177 75 429
f 429 75 430
f 75 74 430
f 430 74 431
f 74 94 431
f 431 94 458
f 94 93 458
f 458 93 459
f 93 38 459
f 459 38 413
f 38 37 413
f 413 37 414
f 37 36 414
f 414 36 415
f 36 35 415
f 415 35 416
f 35 73 416
f 416 73 624
f 73 72 624
f 624 72 520
f 72 51 520
f 520 51 518
f 51 50 518
f 518 50 514
f 50 123 514
f 514 123 550
f 123 122 550
f 550 122 484
f 122 121 484
f 484 121 485
f 121 120 485
f 485 120 551
f 120 119 551
f 551 119 552
f 119 116 552
f 552 116 553
f 116 117 553
f 553 117 554
f 117 226 554
f 554 226 555
f 226 225 555
f 555 225 556
f 225 236 556
f 556 236 568
f 236 235 568
f 568 235 569
f 235 234 569
f 569 234 570
f 234 233 570
f 570 233 571
f 233 232 571
f 571 232 572
f 232 230 572
f 18 10 20
f 10 9 20
f 20 9 22
f 447 43 448
f 43 42 448
f 448 42 449
f 42 138 449
f 449 138 475
f 138 137 475
f 475 137 476
f 137 111 476
f 476 111 411
f 111 110 411
f 411 110 412
f 110 109 412
f 412 109 450
f 109 108 450
f 450 108 451
f 108 107 451
f 451 107 452
f 107 106 452
f 452 106 477
f 106 104 477
f 477 104 478
f 104 103 478
f 478 103 479
f 103 189 479
f 479 189 538
f 189 188 538
f 538 188 539
f 188 187 539
f 539 187 540
f 187 160 540
f 540 160 541
f 160 159 541
f 541 159 542
f 159 158 542
f 542 158 543
f 158 136 543
f 543 136 544
f 136 135 544
f 544 135 545
f 135 134 545
f 545 134 427
f 134 133 427
f 427 133 428
f 133 132 428
f 428 132 546
f 132 131 546
f 546 131 547
f 131 130 547
f 547 130 480
f 130 129 480
f 480 129 481
f 129 128 481
f 481 128 482
f 128 79 482
f 482 79 483
f 79 41 483
f 483 41 512
f 41 78 512
f 512 78 513
f 78 58 513
f 513 58 515
f 58 57 515
f 515 57 516
f 57 76 516
f 516 76 548
f 76 127 548
f 548 127 549
f 127 101 549
f 549 101 517
f 101 157 517
f 517 157 519
f 157 229 519
f 519 229 521
f 229 231 521
f 521 231 522
f 231 227 522
f 522 227 557
f 227 228 557
f 557 228 558
f 228 205 558
f 558 205 559
f 205 204 559
f 559 204 526
f 204 203 526
f 526 203 527
f 203 176 527
f 527 176 528
f 176 175 528
f 528 175 491
f 175 174 491
f 491 174 492
f 174 151 492
f 492 151 493
f 151 150 493
f 493 150 460
f 150 149 460
f 460 149 461
f 149 118 461
f 461 118 462
f 118 71 462
f 462 71 463
f 71 70 463
f 463 70 464
f 70 69 464
f 464 69 494
f 69 92 494
f 494 92 495
f 92 91 495
f 495 91 496
f 91 90 496
f 496 90 465
f 90 49 465
f 465 49 409
f 49 48 409
f 409 48 410
f 48 89 410
f 410 89 497
f 89 88 497
f 497 88 498
f 88 68 498
f 498 68 432
f 68 67 432
f 432 67 433
f 67 66 433
f 433 66 434
f 66 65 434
f 434 65 435
f 65 64 435
f 435 64 436
f 64 63 436
f 436 63 437
f 63 47 437
f 437 47 499
f 47 46 499
f 499 46 443
f 46 115 443
f 443 115 444
f 115 114 444
f 444 114 445
f 114 45 445
f 445 45 446
f 45 44 446
f 446 44 447
f 44 43 447

