# https://github.com/mikedh/trimesh

o tm26_251_p36_p_lin_actuator_cover.stl
v 0.00075801 0.09929890 0.02453168
v 0.00475000 0.09929890 0.02453168
v 0.00075804 0.09929907 0.02452383
v 0.00475000 0.09929959 0.02451599
v 0.00075813 0.09929959 0.02451599
v 0.00075828 0.09930044 0.02450819
v 0.00475000 0.09930164 0.02450042
v 0.00075849 0.09930164 0.02450042
v 0.00075876 0.09930317 0.02449272
v 0.00475000 0.09930503 0.02448509
v 0.00075909 0.09930503 0.02448509
v 0.00075948 0.09930723 0.02447755
v 0.00475000 0.09930976 0.02447012
v 0.00075993 0.09930976 0.02447012
v 0.00076043 0.09931260 0.02446280
v 0.00475000 0.09931577 0.02445561
v 0.00076099 0.09931577 0.02445561
v 0.00076160 0.09931924 0.02444857
v 0.00475000 0.09932302 0.02444168
v 0.00076226 0.09932302 0.02444168
v 0.00076298 0.09932709 0.02443497
v 0.00475000 0.09933145 0.02442844
v 0.00076375 0.09933145 0.02442844
v 0.00076457 0.09933610 0.02442210
v 0.00475000 0.09934101 0.02441598
v 0.00076544 0.09934101 0.02441598
v 0.00076635 0.09934619 0.02441007
v 0.00475000 0.09935162 0.02440440
v 0.00076731 0.09935162 0.02440440
v 0.00475000 0.09936320 0.02439379
v 0.00076935 0.09936320 0.02439379
v 0.00475000 0.09937566 0.02438423
v 0.00077155 0.09937566 0.02438423
v 0.00475000 0.09938890 0.02437580
v 0.00077388 0.09938890 0.02437580
v 0.00475000 0.09940283 0.02436855
v 0.00077634 0.09940283 0.02436855
v 0.00475000 0.09941734 0.02436254
v 0.00077890 0.09941734 0.02436254
v 0.00475000 0.09943231 0.02435781
v 0.00078154 0.09943231 0.02435781
v 0.00475000 0.09944765 0.02435442
v 0.00078424 0.09944765 0.02435442
v 0.00475000 0.09946322 0.02435237
v 0.00078699 0.09946322 0.02435237
v 0.00475000 0.09947890 0.02435168
v 0.00078975 0.09947890 0.02435168
v 0.00475000 0.09949459 0.02435237
v 0.00079252 0.09949459 0.02435237
v 0.00475000 0.09951016 0.02435442
v 0.00079526 0.09951016 0.02435442
v 0.00475000 0.09952549 0.02435781
v 0.00079797 0.09952549 0.02435781
v 0.00475000 0.09954046 0.02436254
v 0.00080061 0.09954046 0.02436254
v 0.00049352 0.09779890 0.01161561
v 0.00049352 0.09779890 0.01186561
v 0.00475000 0.09779890 0.01161561
v 0.00475000 0.09779890 0.01186561
v 0.00240033 0.10237943 0.01186561
v 0.00239462 0.10224869 0.01186561
v 0.00259558 0.10149869 0.01186561
v 0.00266589 0.10138833 0.01186561
v 0.00274555 0.10128451 0.01186561
v 0.00525760 0.12481731 0.01186561
v 0.00314462 0.10354773 0.01186561
v 0.00303426 0.10347742 0.01186561
v 0.00475000 0.09954891 0.01186561
v 0.00293044 0.10109963 0.01186561
v 0.00303426 0.10101996 0.01186561
v 0.00240033 0.10211796 0.01186561
v 0.00241741 0.10198822 0.01186561
v 0.00244573 0.10186046 0.01186561
v 0.00293044 0.10339776 0.01186561
v 0.00283396 0.10330935 0.01186561
v 0.00274555 0.10321287 0.01186561
v 0.00248508 0.10173566 0.01186561
v 0.00253516 0.10161477 0.01186561
v 0.00283396 0.10118803 0.01186561
v 0.00415509 0.10077148 0.01186561
v 0.00428285 0.10079980 0.01186561
v 0.00428285 0.10369758 0.01186561
v 0.00625000 0.12473048 0.01186561
v 0.00440765 0.10365823 0.01186561
v 0.00452855 0.10360815 0.01186561
v 0.00363415 0.10372590 0.01186561
v 0.00350639 0.10369758 0.01186561
v 0.00266589 0.10310905 0.01186561
v 0.00259558 0.10299869 0.01186561
v 0.00253516 0.10288262 0.01186561
v 0.00485880 0.10339776 0.01186561
v 0.00475499 0.10347742 0.01186561
v 0.00464462 0.10354773 0.01186561
v 0.00376389 0.10374298 0.01186561
v 0.00338159 0.10365823 0.01186561
v 0.00326069 0.10360815 0.01186561
v 0.00248508 0.10276172 0.01186561
v 0.00244573 0.10263692 0.01186561
v 0.00241741 0.10250916 0.01186561
v 0.00314462 0.10094965 0.01186561
v 0.00326069 0.10088923 0.01186561
v 0.00338159 0.10083915 0.01186561
v 0.00440765 0.10083915 0.01186561
v 0.00452855 0.10088923 0.01186561
v 0.00625000 0.09954891 0.01186561
v 0.00519366 0.10299869 0.01186561
v 0.00512335 0.10310905 0.01186561
v 0.00350639 0.10079980 0.01186561
v 0.00363415 0.10077148 0.01186561
v 0.00376389 0.10075440 0.01186561
v 0.00504369 0.10321287 0.01186561
v 0.00495528 0.10330935 0.01186561
v 0.00464462 0.10094965 0.01186561
v 0.00475499 0.10101996 0.01186561
v 0.00485880 0.10109963 0.01186561
v 0.00389462 0.10074869 0.01186561
v 0.00402535 0.10075440 0.01186561
v 0.00495528 0.10118803 0.01186561
v 0.00504369 0.10128451 0.01186561
v 0.00512335 0.10138833 0.01186561
v 0.00596131 0.12518364 0.01186561
v 0.00600000 0.12516350 0.01186561
v 0.00402535 0.10374298 0.01186561
v 0.00603679 0.12514006 0.01186561
v 0.00519366 0.10149869 0.01186561
v 0.00525408 0.10161477 0.01186561
v 0.00530416 0.10173566 0.01186561
v 0.00534351 0.10186046 0.01186561
v 0.00537183 0.10198822 0.01186561
v 0.00538891 0.10211796 0.01186561
v 0.00607139 0.12511350 0.01186561
v 0.00610355 0.12508404 0.01186561
v 0.00613302 0.12505189 0.01186561
v 0.00539462 0.10224869 0.01186561
v 0.00538891 0.10237943 0.01186561
v 0.00537183 0.10250916 0.01186561
v 0.00534351 0.10263692 0.01186561
v 0.00530416 0.10276172 0.01186561
v 0.00525408 0.10288262 0.01186561
v 0.00615958 0.12501727 0.01186561
v 0.00618301 0.12498049 0.01186561
v 0.00620315 0.12494180 0.01186561
v 0.00621985 0.12490150 0.01186561
v 0.00623296 0.12485989 0.01186561
v 0.00624240 0.12481731 0.01186561
v 0.00624810 0.12477406 0.01186561
v 0.00415509 0.10372590 0.01186561
v 0.00570642 0.12522858 0.01186561
v 0.00575000 0.12523049 0.01186561
v 0.00389462 0.10374869 0.01186561
v 0.00587941 0.12521344 0.01186561
v 0.00592101 0.12520033 0.01186561
v 0.00579358 0.12522858 0.01186561
v 0.00583682 0.12522289 0.01186561
v 0.00528015 0.12490150 0.01186561
v 0.00529685 0.12494180 0.01186561
v 0.00531699 0.12498049 0.01186561
v 0.00526704 0.12485989 0.01186561
v 0.00550000 0.12516350 0.01186561
v 0.00553869 0.12518364 0.01186561
v 0.00557899 0.12520033 0.01186561
v 0.00534042 0.12501727 0.01186561
v 0.00536698 0.12505189 0.01186561
v 0.00539645 0.12508404 0.01186561
v 0.00542861 0.12511350 0.01186561
v 0.00546321 0.12514006 0.01186561
v 0.00562059 0.12521344 0.01186561
v 0.00566318 0.12522289 0.01186561
v 0.00539462 0.10224869 0.02436561
v 0.00538891 0.10237943 0.02436561
v 0.00537183 0.10250916 0.02436561
v 0.00534351 0.10263692 0.02436561
v 0.00530416 0.10276172 0.02436561
v 0.00525408 0.10288262 0.02436561
v 0.00519366 0.10299869 0.02436561
v 0.00512335 0.10310905 0.02436561
v 0.00504369 0.10321287 0.02436561
v 0.00495528 0.10330935 0.02436561
v 0.00485880 0.10339776 0.02436561
v 0.00475499 0.10347742 0.02436561
v 0.00464462 0.10354773 0.02436561
v 0.00452855 0.10360815 0.02436561
v 0.00440765 0.10365823 0.02436561
v 0.00428285 0.10369758 0.02436561
v 0.00415509 0.10372590 0.02436561
v 0.00402535 0.10374298 0.02436561
v 0.00389462 0.10374869 0.02436561
v 0.00376389 0.10374298 0.02436561
v 0.00363415 0.10372590 0.02436561
v 0.00350639 0.10369758 0.02436561
v 0.00338159 0.10365823 0.02436561
v 0.00326069 0.10360815 0.02436561
v 0.00314462 0.10354773 0.02436561
v 0.00303426 0.10347742 0.02436561
v 0.00293044 0.10339776 0.02436561
v 0.00283396 0.10330935 0.02436561
v 0.00274555 0.10321287 0.02436561
v 0.00266589 0.10310905 0.02436561
v 0.00259558 0.10299869 0.02436561
v 0.00253516 0.10288262 0.02436561
v 0.00248508 0.10276172 0.02436561
v 0.00244573 0.10263692 0.02436561
v 0.00241741 0.10250916 0.02436561
v 0.00240033 0.10237943 0.02436561
v 0.00239462 0.10224869 0.02436561
v 0.00240033 0.10211796 0.02436561
v 0.00241741 0.10198822 0.02436561
v 0.00244573 0.10186046 0.02436561
v 0.00248508 0.10173566 0.02436561
v 0.00253516 0.10161477 0.02436561
v 0.00259558 0.10149869 0.02436561
v 0.00266589 0.10138833 0.02436561
v 0.00274555 0.10128451 0.02436561
v 0.00283396 0.10118803 0.02436561
v 0.00293044 0.10109963 0.02436561
v 0.00303426 0.10101996 0.02436561
v 0.00314462 0.10094965 0.02436561
v 0.00326069 0.10088923 0.02436561
v 0.00338159 0.10083915 0.02436561
v 0.00350639 0.10079980 0.02436561
v 0.00363415 0.10077148 0.02436561
v 0.00376389 0.10075440 0.02436561
v 0.00389462 0.10074869 0.02436561
v 0.00402535 0.10075440 0.02436561
v 0.00415509 0.10077148 0.02436561
v 0.00428285 0.10079980 0.02436561
v 0.00440765 0.10083915 0.02436561
v 0.00452855 0.10088923 0.02436561
v 0.00464462 0.10094965 0.02436561
v 0.00475499 0.10101996 0.02436561
v 0.00485880 0.10109963 0.02436561
v 0.00495528 0.10118803 0.02436561
v 0.00504369 0.10128451 0.02436561
v 0.00512335 0.10138833 0.02436561
v 0.00519366 0.10149869 0.02436561
v 0.00525408 0.10161477 0.02436561
v 0.00530416 0.10173566 0.02436561
v 0.00534351 0.10186046 0.02436561
v 0.00537183 0.10198822 0.02436561
v 0.00538891 0.10211796 0.02436561
v 0.00100000 0.05905000 0.00911561
v 0.00100000 0.05905000 0.02278498
v 0.00099495 0.05905001 0.00910893
v 0.00095637 0.05905095 0.02278545
v 0.00091290 0.05905380 0.00900034
v 0.00091284 0.05905380 0.02278688
v 0.00088481 0.05905665 0.00896312
v 0.00086933 0.05905857 0.02278926
v 0.00086745 0.05905882 0.00894009
v 0.00082649 0.05906517 0.00888570
v 0.00082635 0.05906519 0.02279260
v 0.00077104 0.05907657 0.00881184
v 0.00078349 0.05907372 0.02279694
v 0.00074369 0.05908341 0.00877531
v 0.00074120 0.05908407 0.00877198
v 0.00074118 0.05908407 0.02280227
v 0.00065999 0.05910958 0.00866287
v 0.00069930 0.05909628 0.02280864
v 0.00065817 0.05911024 0.00866041
v 0.00065798 0.05911031 0.02281608
v 0.00062828 0.05912165 0.00861997
v 0.00061714 0.05912619 0.02282467
v 0.00057764 0.05914357 0.00855103
v 0.00057738 0.05914369 0.02283431
v 0.00055300 0.05915546 0.00851727
v 0.00053804 0.05916310 0.02284524
v 0.00052785 0.05916848 0.00848264
v 0.00050024 0.05918384 0.00844440
v 0.00050000 0.05918397 0.02285729
v 0.00045145 0.05921388 0.00837619
v 0.00044500 0.05921815 0.02287767
v 0.00043537 0.05922466 0.00835350
v 0.00042653 0.05923077 0.00834100
v 0.00042633 0.05923092 0.02288549
v 0.00035730 0.05928389 0.00824160
v 0.00039115 0.05925671 0.02290166
v 0.00035721 0.05928396 0.02291927
v 0.00035667 0.05928441 0.00824069
v 0.00032408 0.05931303 0.02293868
v 0.00035095 0.05928926 0.00823234
v 0.00029312 0.05934267 0.00814675
v 0.00029289 0.05934289 0.02295932
v 0.00027470 0.05936157 0.00811891
v 0.00025964 0.05937779 0.02298436
v 0.00027008 0.05936647 0.00811187
v 0.00020642 0.05944154 0.02303278
v 0.00019333 0.05945900 0.00799123
v 0.00023396 0.05940721 0.02300626
v 0.00023412 0.05940702 0.00805631
v 0.00024903 0.05938966 0.00807954
v 0.00011267 0.05958886 0.02315957
v 0.00012694 0.05956239 0.00787834
v 0.00013380 0.05955031 0.02312421
v 0.00013410 0.05954978 0.00789109
v 0.00014721 0.05952775 0.02310426
v 0.00014498 0.05953141 0.00791013
v 0.00018085 0.05947642 0.02306084
v 0.00018099 0.05947622 0.00797101
v 0.00019302 0.05945942 0.00799073
v 0.00007628 0.05966694 0.02323652
v 0.00007295 0.05967505 0.00777509
v 0.00009369 0.05962738 0.02319660
v 0.00009380 0.05962714 0.00781680
v 0.00010371 0.05960653 0.00783572
v 0.00004606 0.05975001 0.02332734
v 0.00005753 0.05971571 0.00774199
v 0.00006031 0.05970798 0.02328014
v 0.00006032 0.05970794 0.00774816
v 0.00006934 0.05968413 0.00776752
v 0.00003323 0.05979434 0.02338016
v 0.00003274 0.05979620 0.00768212
v 0.00003407 0.05979118 0.02337628
v 0.00003409 0.05979113 0.00768569
v 0.00003528 0.05978673 0.00768879
v 0.00000998 0.05990904 0.02353415
v 0.00000785 0.05992498 0.00760007
v 0.00001519 0.05987635 0.02348740
v 0.00001522 0.05987618 0.00762932
v 0.00001861 0.05985799 0.00764078
v 0.00000000 0.06005000 0.02377136
v 0.00000000 0.06005000 0.00753447
v 0.00000079 0.06001019 0.02369735
v 0.00000119 0.06000122 0.00755854
v 0.00000381 0.05996284 0.02361707
v 0.00000382 0.05996263 0.00757895
v 0.00000729 0.05992948 0.00759749
v 0.00475000 0.08929890 0.00961560
v 0.00000000 0.08929890 0.00961560
v 0.00475000 0.08930176 0.00968097
v -0.00000000 0.08930176 0.00968097
v 0.00475000 0.08931030 0.00974584
v -0.00000000 0.08931030 0.00974584
v 0.00475000 0.08932446 0.00980972
v -0.00000000 0.08932446 0.00980972
v 0.00475000 0.08934413 0.00987212
v -0.00000000 0.08934413 0.00987212
v 0.00475000 0.08936917 0.00993257
v -0.00000000 0.08936917 0.00993257
v 0.00475000 0.08939938 0.00999060
v -0.00000000 0.08939938 0.00999060
v 0.00475000 0.08943453 0.01004579
v -0.00000000 0.08943453 0.01004579
v 0.00475000 0.08947437 0.01009770
v -0.00000000 0.08947437 0.01009770
v 0.00475000 0.08951857 0.01014594
v -0.00000000 0.08951857 0.01014594
v 0.00475000 0.08956681 0.01019014
v -0.00000000 0.08956681 0.01019014
v 0.00475000 0.08961872 0.01022997
v -0.00000000 0.08961872 0.01022997
v 0.00475000 0.08967390 0.01026512
v -0.00000000 0.08967390 0.01026512
v 0.00475000 0.08973194 0.01029534
v -0.00000000 0.08973194 0.01029534
v 0.00475000 0.08979239 0.01032038
v -0.00000000 0.08979239 0.01032038
v 0.00475000 0.08985478 0.01034005
v -0.00000000 0.08985478 0.01034005
v 0.00475000 0.08991867 0.01035421
v -0.00000000 0.08991867 0.01035421
v 0.00475000 0.08998354 0.01036275
v -0.00000000 0.08998354 0.01036275
v 0.00475000 0.09004890 0.01036560
v 0.00000000 0.09004890 0.01036560
v 0.00475000 0.09954891 0.02436561
v 0.00080209 0.09954891 0.02436561
v 0.00000000 0.09325023 0.01036560
v 0.00475000 0.09654891 0.01036561
v 0.00007611 0.09499334 0.01036561
v 0.00027391 0.09654891 0.01036561
v 0.00030384 0.09672319 0.02515000
v 0.00030384 0.09672319 0.01037782
v 0.00031139 0.09676597 0.01038460
v 0.00033016 0.09687243 0.01040820
v 0.00075801 0.09929890 0.02515000
v 0.00044196 0.09750646 0.01081212
v 0.00043562 0.09747050 0.01077112
v 0.00042897 0.09743278 0.01073172
v 0.00525760 0.12481731 0.02436561
v 0.00045900 0.09760314 0.01094398
v 0.00045366 0.09757284 0.01089864
v 0.00044798 0.09754059 0.01085465
v 0.00038332 0.09717391 0.01053308
v 0.00036626 0.09707718 0.01048272
v 0.00034850 0.09697643 0.01044099
v 0.00047287 0.09768179 0.01108733
v 0.00046862 0.09765767 0.01103842
v 0.00046399 0.09763143 0.01099061
v 0.00041479 0.09735239 0.01065805
v 0.00039953 0.09726588 0.01059167
v 0.00048332 0.09774105 0.01123972
v 0.00048023 0.09772352 0.01118808
v 0.00047674 0.09770375 0.01113725
v 0.00049017 0.09777991 0.01139855
v 0.00048830 0.09776928 0.01134506
v 0.00048601 0.09775631 0.01129208
v 0.00049331 0.09779771 0.01156108
v 0.00049268 0.09779415 0.01150666
v 0.00049164 0.09778821 0.01145245
v 0.00475000 0.09929890 0.02515000
v 0.00475000 0.09779415 0.01150666
v 0.00475000 0.09777991 0.01139855
v 0.00475000 0.09775631 0.01129208
v 0.00475000 0.09772352 0.01118808
v 0.00475000 0.09768179 0.01108733
v 0.00475000 0.09763143 0.01099061
v 0.00475000 0.09757284 0.01089864
v 0.00475000 0.09750646 0.01081212
v 0.00475000 0.09743278 0.01073172
v 0.00475000 0.09735239 0.01065805
v 0.00475000 0.09726588 0.01059167
v 0.00475000 0.09717391 0.01053308
v 0.00475000 0.09707718 0.01048272
v 0.00475000 0.09697643 0.01044099
v 0.00475000 0.09687243 0.01040820
v 0.00475000 0.09676597 0.01038460
v 0.00475000 0.09665785 0.01037036
v 0.00029244 0.09665785 0.01037036
v 0.00000000 0.09325023 0.02515000
v 0.00007611 0.09499334 0.02515000
v 0.00135649 0.06303323 0.02515000
v 0.00140732 0.06313086 0.02515000
v 0.00374255 0.06271910 0.02515000
v 0.00375692 0.06260996 0.02515000
v 0.00475000 0.06029890 0.02515000
v 0.00376172 0.06250000 0.02515000
v 0.00375692 0.06239003 0.02515000
v 0.00374255 0.06228090 0.02515000
v 0.00371873 0.06217344 0.02515000
v 0.00368563 0.06206847 0.02515000
v 0.00331102 0.06346653 0.02515000
v 0.00339217 0.06339217 0.02515000
v 0.00346654 0.06331102 0.02515000
v 0.00353354 0.06322370 0.02515000
v 0.00359268 0.06313086 0.02515000
v 0.00364351 0.06196677 0.02515000
v 0.00359268 0.06186914 0.02515000
v 0.00353354 0.06177631 0.02515000
v 0.00135649 0.06196677 0.02515000
v 0.00131437 0.06206847 0.02515000
v 0.00000000 0.06029890 0.02515000
v 0.00128127 0.06217344 0.02515000
v 0.00125745 0.06228090 0.02515000
v 0.00346654 0.06168898 0.02515000
v 0.00339217 0.06160783 0.02515000
v 0.00331102 0.06153347 0.02515000
v 0.00322369 0.06146646 0.02515000
v 0.00313086 0.06140732 0.02515000
v 0.00303323 0.06135649 0.02515000
v 0.00124308 0.06239003 0.02515000
v 0.00123828 0.06250000 0.02515000
v 0.00124308 0.06260996 0.02515000
v 0.00146646 0.06322370 0.02515000
v 0.00153346 0.06331102 0.02515000
v 0.00160783 0.06339217 0.02515000
v 0.00303323 0.06364351 0.02515000
v 0.00313086 0.06359269 0.02515000
v 0.00322369 0.06353354 0.02515000
v 0.00364351 0.06303323 0.02515000
v 0.00368563 0.06293154 0.02515000
v 0.00371873 0.06282656 0.02515000
v 0.00153346 0.06168898 0.02515000
v 0.00160783 0.06160783 0.02515000
v 0.00168898 0.06153347 0.02515000
v 0.00146646 0.06177631 0.02515000
v 0.00140732 0.06186914 0.02515000
v 0.00125745 0.06271910 0.02515000
v 0.00128127 0.06282656 0.02515000
v 0.00131437 0.06293154 0.02515000
v 0.00168898 0.06346653 0.02515000
v 0.00177631 0.06353354 0.02515000
v 0.00186914 0.06359269 0.02515000
v 0.00196677 0.06364351 0.02515000
v 0.00206847 0.06368563 0.02515000
v 0.00217344 0.06371873 0.02515000
v 0.00260997 0.06375692 0.02515000
v 0.00271910 0.06374256 0.02515000
v 0.00282656 0.06371873 0.02515000
v 0.00293153 0.06368563 0.02515000
v 0.00293153 0.06131437 0.02515000
v 0.00282656 0.06128127 0.02515000
v 0.00271910 0.06125744 0.02515000
v 0.00228090 0.06125744 0.02515000
v 0.00217344 0.06128127 0.02515000
v 0.00206847 0.06131437 0.02515000
v 0.00196677 0.06135649 0.02515000
v 0.00186914 0.06140732 0.02515000
v 0.00177631 0.06146646 0.02515000
v 0.00260997 0.06124308 0.02515000
v 0.00250000 0.06123828 0.02515000
v 0.00239003 0.06124308 0.02515000
v 0.00228090 0.06374256 0.02515000
v 0.00239003 0.06375692 0.02515000
v 0.00250000 0.06376173 0.02515000
v 0.00000000 0.06029890 0.02480000
v 0.00475000 0.06029890 0.02480000
v 0.00625000 0.09954891 0.02436561
v 0.00475000 0.08929414 0.00850667
v 0.00475000 0.08929890 0.00861561
v 0.00475000 0.08804891 0.00736561
v 0.00475000 0.05921815 0.02287767
v 0.00475000 0.05905000 0.02278498
v 0.00475000 0.06064748 0.00737227
v 0.00475000 0.06080000 0.00736561
v 0.00475000 0.05956256 0.00787817
v 0.00475000 0.05905000 0.00911561
v 0.00475000 0.05945942 0.00799073
v 0.00475000 0.06029071 0.02460817
v 0.00475000 0.06026619 0.02441774
v 0.00475000 0.06022553 0.02423009
v 0.00475000 0.05907658 0.00881172
v 0.00475000 0.05910963 0.00866267
v 0.00475000 0.05915554 0.00851707
v 0.00475000 0.05921396 0.00837602
v 0.00475000 0.05928446 0.00824061
v 0.00475000 0.05936648 0.00811185
v 0.00475000 0.08907285 0.00789864
v 0.00475000 0.08913144 0.00799061
v 0.00475000 0.08927991 0.00839855
v 0.00475000 0.05966694 0.02323652
v 0.00475000 0.05979434 0.02338016
v 0.00475000 0.05990904 0.02353415
v 0.00475000 0.05952775 0.02310426
v 0.00475000 0.05937779 0.02298436
v 0.00475000 0.05905666 0.00896308
v 0.00475000 0.05967512 0.00777503
v 0.00475000 0.05979624 0.00768209
v 0.00475000 0.06016902 0.02404659
v 0.00475000 0.06009706 0.02386858
v 0.00475000 0.06001019 0.02369735
v 0.00475000 0.05992500 0.00760006
v 0.00475000 0.06006042 0.00752957
v 0.00475000 0.06020147 0.00747114
v 0.00475000 0.06034707 0.00742524
v 0.00475000 0.06049611 0.00739219
v 0.00475000 0.08815785 0.00737036
v 0.00475000 0.08826596 0.00738460
v 0.00475000 0.08837242 0.00740820
v 0.00475000 0.08847643 0.00744099
v 0.00475000 0.08857717 0.00748272
v 0.00475000 0.08918179 0.00808734
v 0.00475000 0.08922352 0.00818808
v 0.00475000 0.08925631 0.00829209
v 0.00475000 0.08867390 0.00753308
v 0.00475000 0.08876587 0.00759167
v 0.00475000 0.08885239 0.00765805
v 0.00475000 0.08893279 0.00773172
v 0.00475000 0.08900646 0.00781212
v 0.00376172 0.06250000 0.00736561
v 0.00375692 0.06260996 0.00736561
v 0.00374255 0.06271910 0.00736561
v 0.00371873 0.06282656 0.00736561
v 0.00368563 0.06293154 0.00736561
v 0.00364351 0.06303323 0.00736561
v 0.00359268 0.06313086 0.00736561
v 0.00353354 0.06322370 0.00736561
v 0.00346654 0.06331102 0.00736561
v 0.00339217 0.06339217 0.00736561
v 0.00331102 0.06346653 0.00736561
v 0.00322369 0.06353354 0.00736561
v 0.00313086 0.06359269 0.00736561
v 0.00303323 0.06364351 0.00736561
v 0.00293153 0.06368563 0.00736561
v 0.00282656 0.06371873 0.00736561
v 0.00271910 0.06374256 0.00736561
v 0.00260997 0.06375692 0.00736561
v 0.00250000 0.06376173 0.00736561
v 0.00239003 0.06375692 0.00736561
v 0.00228090 0.06374256 0.00736561
v 0.00217344 0.06371873 0.00736561
v 0.00206847 0.06368563 0.00736561
v 0.00196677 0.06364351 0.00736561
v 0.00186914 0.06359269 0.00736561
v 0.00177631 0.06353354 0.00736561
v 0.00168898 0.06346653 0.00736561
v 0.00160783 0.06339217 0.00736561
v 0.00153346 0.06331102 0.00736561
v 0.00146646 0.06322370 0.00736561
v 0.00140732 0.06313086 0.00736561
v 0.00135649 0.06303323 0.00736561
v 0.00131437 0.06293154 0.00736561
v 0.00128127 0.06282656 0.00736561
v 0.00125745 0.06271910 0.00736561
v 0.00124308 0.06260996 0.00736561
v 0.00123828 0.06250000 0.00736561
v 0.00124308 0.06239003 0.00736561
v 0.00125745 0.06228090 0.00736561
v 0.00128127 0.06217344 0.00736561
v 0.00131437 0.06206847 0.00736561
v 0.00135649 0.06196677 0.00736561
v 0.00140732 0.06186914 0.00736561
v 0.00146646 0.06177631 0.00736561
v 0.00153346 0.06168898 0.00736561
v 0.00160783 0.06160783 0.00736561
v 0.00168898 0.06153347 0.00736561
v 0.00177631 0.06146646 0.00736561
v 0.00186914 0.06140732 0.00736561
v 0.00196677 0.06135649 0.00736561
v 0.00206847 0.06131437 0.00736561
v 0.00217344 0.06128127 0.00736561
v 0.00228090 0.06125744 0.00736561
v 0.00239003 0.06124308 0.00736561
v 0.00250000 0.06123828 0.00736561
v 0.00260997 0.06124308 0.00736561
v 0.00271910 0.06125744 0.00736561
v 0.00282656 0.06128127 0.00736561
v 0.00293153 0.06131437 0.00736561
v 0.00303323 0.06135649 0.00736561
v 0.00313086 0.06140732 0.00736561
v 0.00322369 0.06146646 0.00736561
v 0.00331102 0.06153347 0.00736561
v 0.00339217 0.06160783 0.00736561
v 0.00346654 0.06168898 0.00736561
v 0.00353354 0.06177631 0.00736561
v 0.00359268 0.06186914 0.00736561
v 0.00364351 0.06196677 0.00736561
v 0.00368563 0.06206847 0.00736561
v 0.00371873 0.06217344 0.00736561
v 0.00374255 0.06228090 0.00736561
v 0.00375692 0.06239003 0.00736561
v 0.00000000 0.08929890 0.00861561
v -0.00000000 0.06006042 0.00752957
v -0.00000000 0.06020147 0.00747114
v -0.00000000 0.06034707 0.00742524
v -0.00000000 0.06049611 0.00739219
v -0.00000000 0.06064748 0.00737227
v 0.00000000 0.06080000 0.00736561
v 0.00000000 0.08804891 0.00736561
v 0.00000000 0.08815785 0.00737036
v 0.00000000 0.08826596 0.00738460
v 0.00000000 0.08837242 0.00740820
v 0.00000000 0.08847643 0.00744099
v 0.00000000 0.08857717 0.00748272
v 0.00000000 0.08867390 0.00753308
v 0.00000000 0.08876587 0.00759167
v 0.00000000 0.08885239 0.00765805
v 0.00000000 0.08893279 0.00773172
v 0.00000000 0.08900646 0.00781212
v 0.00000000 0.08907285 0.00789864
v 0.00000000 0.08913144 0.00799061
v 0.00000000 0.08918179 0.00808734
v 0.00000000 0.08922352 0.00818808
v 0.00000000 0.08925631 0.00829209
v 0.00000000 0.08927991 0.00839855
v 0.00000000 0.08929414 0.00850667
v 0.00625000 0.12473048 0.02436561
v 0.00624810 0.12477406 0.02436561
v 0.00624240 0.12481731 0.02436561
v 0.00623296 0.12485989 0.02436561
v 0.00621985 0.12490150 0.02436561
v 0.00620315 0.12494180 0.02436561
v 0.00618301 0.12498049 0.02436561
v 0.00615958 0.12501727 0.02436561
v 0.00613302 0.12505189 0.02436561
v 0.00610355 0.12508404 0.02436561
v 0.00607139 0.12511350 0.02436561
v 0.00603679 0.12514006 0.02436561
v 0.00600000 0.12516350 0.02436561
v 0.00596131 0.12518364 0.02436561
v 0.00592101 0.12520033 0.02436561
v 0.00587941 0.12521344 0.02436561
v 0.00583682 0.12522289 0.02436561
v 0.00579358 0.12522858 0.02436561
v 0.00575000 0.12523049 0.02436561
v 0.00570642 0.12522858 0.02436561
v 0.00566318 0.12522289 0.02436561
v 0.00562059 0.12521344 0.02436561
v 0.00557899 0.12520033 0.02436561
v 0.00553869 0.12518364 0.02436561
v 0.00550000 0.12516350 0.02436561
v 0.00546321 0.12514006 0.02436561
v 0.00542861 0.12511350 0.02436561
v 0.00539645 0.12508404 0.02436561
v 0.00536698 0.12505189 0.02436561
v 0.00534042 0.12501727 0.02436561
v 0.00531699 0.12498049 0.02436561
v 0.00529685 0.12494180 0.02436561
v 0.00528015 0.12490150 0.02436561
v 0.00526704 0.12485989 0.02436561
v 0.00072250 0.05913506 0.02282953
v 0.00000000 0.06029071 0.02460817
v 0.00000000 0.06026619 0.02441774
v 0.00000000 0.06022553 0.02423009
v 0.00000000 0.06016902 0.02404659
v 0.00000000 0.06009706 0.02386858
f 1 2 3
f 2 4 3
f 3 4 5
f 5 4 6
f 4 7 6
f 6 7 8
f 8 7 9
f 7 10 9
f 9 10 11
f 11 10 12
f 10 13 12
f 12 13 14
f 14 13 15
f 13 16 15
f 15 16 17
f 17 16 18
f 16 19 18
f 18 19 20
f 20 19 21
f 19 22 21
f 21 22 23
f 23 22 24
f 22 25 24
f 24 25 26
f 26 25 27
f 25 28 27
f 27 28 29
f 28 30 29
f 29 30 31
f 30 32 31
f 31 32 33
f 32 34 33
f 33 34 35
f 34 36 35
f 35 36 37
f 36 38 37
f 37 38 39
f 38 40 39
f 39 40 41
f 40 42 41
f 41 42 43
f 42 44 43
f 43 44 45
f 44 46 45
f 45 46 47
f 46 48 47
f 47 48 49
f 48 50 49
f 49 50 51
f 50 52 51
f 51 52 53
f 52 54 53
f 53 54 55
f 56 57 58
f 57 59 58
f 60 61 57
f 62 63 57
f 63 64 57
f 65 66 67
f 68 69 70
f 61 71 57
f 71 72 57
f 57 72 73
f 67 74 65
f 74 75 65
f 65 75 76
f 73 77 57
f 77 78 57
f 57 78 62
f 68 59 69
f 59 57 69
f 69 57 79
f 57 64 79
f 80 81 68
f 82 83 84
f 83 85 84
f 86 87 65
f 76 88 65
f 88 89 65
f 65 89 90
f 91 92 83
f 92 93 83
f 83 93 85
f 86 65 94
f 87 95 65
f 95 96 65
f 65 96 66
f 90 97 65
f 97 98 65
f 65 98 57
f 98 99 57
f 57 99 60
f 70 100 68
f 100 101 68
f 68 101 102
f 81 103 68
f 103 104 68
f 68 104 105
f 106 107 83
f 102 108 68
f 108 109 68
f 68 109 110
f 107 111 83
f 111 112 83
f 83 112 91
f 104 113 105
f 113 114 105
f 105 114 115
f 110 116 68
f 116 117 68
f 68 117 80
f 115 118 105
f 118 119 105
f 105 119 120
f 121 122 123
f 122 124 123
f 120 125 105
f 125 126 105
f 105 126 127
f 127 128 105
f 128 129 105
f 105 129 130
f 124 131 123
f 131 132 123
f 123 132 133
f 130 134 105
f 134 135 105
f 105 135 83
f 135 136 83
f 83 136 137
f 137 138 83
f 138 139 83
f 83 139 106
f 133 140 123
f 140 141 123
f 123 141 142
f 142 143 123
f 143 144 123
f 123 144 145
f 145 146 123
f 146 83 123
f 123 83 147
f 83 82 147
f 148 149 150
f 150 151 123
f 151 152 123
f 123 152 121
f 149 153 150
f 153 154 150
f 150 154 151
f 155 156 150
f 156 157 150
f 94 65 150
f 65 158 150
f 150 158 155
f 159 160 150
f 160 161 150
f 157 162 150
f 162 163 150
f 150 163 164
f 164 165 150
f 165 166 150
f 150 166 159
f 161 167 150
f 167 168 150
f 150 168 148
f 134 169 135
f 169 170 135
f 135 170 136
f 170 171 136
f 136 171 137
f 171 172 137
f 137 172 138
f 172 173 138
f 138 173 139
f 173 174 139
f 139 174 106
f 174 175 106
f 106 175 107
f 175 176 107
f 107 176 111
f 176 177 111
f 111 177 112
f 177 178 112
f 112 178 91
f 178 179 91
f 91 179 92
f 179 180 92
f 92 180 93
f 180 181 93
f 93 181 85
f 181 182 85
f 85 182 84
f 182 183 84
f 84 183 82
f 183 184 82
f 82 184 147
f 184 185 147
f 147 185 123
f 185 186 123
f 123 186 150
f 186 187 150
f 150 187 94
f 187 188 94
f 94 188 86
f 188 189 86
f 86 189 87
f 189 190 87
f 87 190 95
f 190 191 95
f 95 191 96
f 191 192 96
f 96 192 66
f 192 193 66
f 66 193 67
f 193 194 67
f 67 194 74
f 194 195 74
f 74 195 75
f 195 196 75
f 75 196 76
f 196 197 76
f 76 197 88
f 197 198 88
f 88 198 89
f 198 199 89
f 89 199 90
f 199 200 90
f 90 200 97
f 200 201 97
f 97 201 98
f 201 202 98
f 98 202 99
f 202 203 99
f 99 203 60
f 203 204 60
f 60 204 61
f 204 205 61
f 61 205 71
f 205 206 71
f 71 206 72
f 206 207 72
f 72 207 73
f 207 208 73
f 73 208 77
f 208 209 77
f 77 209 78
f 209 210 78
f 78 210 62
f 210 211 62
f 62 211 63
f 211 212 63
f 63 212 64
f 212 213 64
f 64 213 79
f 213 214 79
f 79 214 69
f 214 215 69
f 69 215 70
f 215 216 70
f 70 216 100
f 216 217 100
f 100 217 101
f 217 218 101
f 101 218 102
f 218 219 102
f 102 219 108
f 219 220 108
f 108 220 109
f 220 221 109
f 109 221 110
f 221 222 110
f 110 222 116
f 222 223 116
f 116 223 117
f 223 224 117
f 117 224 80
f 224 225 80
f 80 225 81
f 225 226 81
f 81 226 103
f 226 227 103
f 103 227 104
f 227 228 104
f 104 228 113
f 228 229 113
f 113 229 114
f 229 230 114
f 114 230 115
f 230 231 115
f 115 231 118
f 231 232 118
f 118 232 119
f 232 233 119
f 119 233 120
f 233 234 120
f 120 234 125
f 234 235 125
f 125 235 126
f 235 236 126
f 126 236 127
f 236 237 127
f 127 237 128
f 237 238 128
f 128 238 129
f 238 239 129
f 129 239 130
f 239 240 130
f 130 240 134
f 240 169 134
f 241 242 243
f 242 244 243
f 243 244 245
f 244 246 245
f 245 246 247
f 246 248 247
f 247 248 249
f 249 248 250
f 248 251 250
f 250 251 252
f 251 253 252
f 252 253 254
f 254 253 255
f 253 256 255
f 255 256 257
f 256 258 257
f 257 258 259
f 258 260 259
f 259 260 261
f 260 262 261
f 261 262 263
f 262 264 263
f 263 264 265
f 264 266 265
f 265 266 267
f 267 266 268
f 266 269 268
f 268 269 270
f 269 271 270
f 270 271 272
f 272 271 273
f 271 274 273
f 273 274 275
f 274 276 275
f 276 277 275
f 275 277 278
f 277 279 278
f 278 279 280
f 280 279 281
f 279 282 281
f 281 282 283
f 282 284 283
f 283 284 285
f 286 287 288
f 287 289 288
f 288 289 284
f 289 290 284
f 284 290 285
f 291 292 293
f 292 294 293
f 293 294 295
f 294 296 295
f 295 296 297
f 296 298 297
f 297 298 286
f 298 299 286
f 286 299 287
f 300 301 302
f 301 303 302
f 302 303 291
f 303 304 291
f 291 304 292
f 305 306 307
f 306 308 307
f 307 308 300
f 308 309 300
f 300 309 301
f 310 311 312
f 311 313 312
f 312 313 305
f 313 314 305
f 305 314 306
f 315 316 317
f 316 318 317
f 317 318 310
f 318 319 310
f 310 319 311
f 320 321 322
f 321 323 322
f 322 323 324
f 323 325 324
f 324 325 315
f 325 326 315
f 315 326 316
f 327 328 329
f 328 330 329
f 329 330 331
f 330 332 331
f 331 332 333
f 332 334 333
f 333 334 335
f 334 336 335
f 335 336 337
f 336 338 337
f 337 338 339
f 338 340 339
f 339 340 341
f 340 342 341
f 341 342 343
f 342 344 343
f 343 344 345
f 344 346 345
f 345 346 347
f 346 348 347
f 347 348 349
f 348 350 349
f 349 350 351
f 350 352 351
f 351 352 353
f 352 354 353
f 353 354 355
f 354 356 355
f 355 356 357
f 356 358 357
f 357 358 359
f 358 360 359
f 359 360 361
f 360 362 361
f 361 362 363
f 362 364 363
f 54 365 55
f 365 366 55
f 363 364 367
f 363 367 368
f 367 369 368
f 368 369 370
f 57 31 33
f 371 57 372
f 57 56 372
f 372 56 373
f 56 374 373
f 371 375 1
f 376 377 56
f 377 378 56
f 33 35 57
f 35 37 57
f 57 37 65
f 51 53 379
f 53 55 379
f 379 55 366
f 380 381 56
f 381 382 56
f 56 382 376
f 1 3 371
f 3 5 371
f 371 5 57
f 5 6 57
f 57 6 8
f 37 39 65
f 39 41 65
f 65 41 43
f 383 384 56
f 384 385 56
f 56 385 374
f 43 45 65
f 45 47 65
f 65 47 379
f 47 49 379
f 379 49 51
f 386 387 56
f 387 388 56
f 56 388 380
f 8 9 57
f 9 11 57
f 57 11 12
f 378 389 56
f 389 390 56
f 56 390 383
f 391 392 56
f 392 393 56
f 56 393 386
f 12 14 57
f 14 15 57
f 57 15 17
f 394 395 56
f 395 396 56
f 56 396 391
f 17 18 57
f 18 20 57
f 57 20 21
f 397 398 56
f 398 399 56
f 56 399 394
f 21 23 57
f 23 24 57
f 57 24 26
f 26 27 57
f 27 29 57
f 57 29 31
f 1 375 2
f 375 400 2
f 56 58 397
f 58 401 397
f 397 401 398
f 398 401 399
f 401 402 399
f 399 402 394
f 394 402 395
f 402 403 395
f 395 403 396
f 396 403 391
f 403 404 391
f 391 404 392
f 392 404 393
f 404 405 393
f 393 405 386
f 386 405 387
f 405 406 387
f 387 406 388
f 388 406 380
f 406 407 380
f 380 407 381
f 381 407 382
f 407 408 382
f 382 408 376
f 376 408 377
f 408 409 377
f 377 409 378
f 409 410 378
f 378 410 389
f 410 411 389
f 389 411 390
f 411 412 390
f 390 412 383
f 412 413 383
f 383 413 384
f 413 414 384
f 384 414 385
f 414 415 385
f 385 415 374
f 415 416 374
f 374 416 373
f 373 416 372
f 416 417 372
f 372 417 418
f 417 368 418
f 418 368 370
f 367 419 420
f 372 418 371
f 418 370 371
f 371 370 420
f 370 369 420
f 420 369 367
f 421 422 419
f 423 424 425
f 424 426 425
f 425 426 427
f 427 428 425
f 428 429 425
f 425 429 430
f 431 432 400
f 432 433 400
f 433 434 400
f 400 434 435
f 430 436 425
f 436 437 425
f 425 437 438
f 439 440 441
f 440 442 441
f 441 442 443
f 438 444 425
f 444 445 425
f 425 445 446
f 446 447 425
f 447 448 425
f 425 448 449
f 443 450 441
f 450 451 441
f 441 451 452
f 422 453 419
f 453 454 419
f 419 454 455
f 456 457 400
f 457 458 400
f 400 458 431
f 435 459 400
f 459 460 400
f 400 460 425
f 460 461 425
f 425 461 423
f 462 441 463
f 441 464 463
f 462 465 441
f 465 466 441
f 441 466 439
f 452 467 441
f 467 468 441
f 441 468 419
f 468 469 419
f 419 469 421
f 455 470 419
f 470 471 419
f 419 471 472
f 472 473 419
f 473 474 419
f 419 474 475
f 476 477 400
f 477 478 400
f 478 479 400
f 400 479 456
f 449 480 425
f 480 481 425
f 425 481 482
f 483 484 441
f 484 485 441
f 441 485 486
f 486 487 441
f 487 488 441
f 441 488 464
f 482 489 425
f 489 490 425
f 425 490 441
f 490 491 441
f 441 491 483
f 375 371 400
f 371 420 400
f 400 420 419
f 475 492 419
f 492 493 419
f 419 493 400
f 493 494 400
f 400 494 476
f 441 495 425
f 495 496 425
f 105 497 68
f 497 365 68
f 337 339 425
f 7 4 425
f 4 2 425
f 425 2 400
f 417 416 368
f 416 415 368
f 368 415 363
f 415 414 363
f 363 414 413
f 498 499 500
f 501 502 333
f 339 341 425
f 341 343 425
f 425 343 345
f 413 412 363
f 412 411 363
f 363 411 410
f 503 504 505
f 499 327 506
f 327 329 506
f 506 329 502
f 329 331 502
f 502 331 333
f 345 347 425
f 347 349 425
f 425 349 351
f 42 40 59
f 25 22 425
f 22 19 425
f 425 19 16
f 40 38 59
f 38 36 59
f 59 36 34
f 32 30 425
f 30 28 425
f 425 28 25
f 16 13 425
f 13 10 425
f 425 10 7
f 505 504 507
f 500 499 504
f 351 353 425
f 353 355 425
f 425 355 357
f 357 359 425
f 359 361 425
f 425 361 363
f 365 54 68
f 54 52 68
f 68 52 50
f 508 509 335
f 509 510 335
f 50 48 68
f 48 46 68
f 68 46 59
f 46 44 59
f 59 44 42
f 511 512 504
f 512 513 504
f 504 513 514
f 514 515 504
f 515 516 504
f 504 516 507
f 517 518 519
f 337 425 335
f 425 496 335
f 335 496 508
f 520 333 521
f 333 522 521
f 520 523 333
f 523 524 333
f 333 524 501
f 404 403 363
f 34 32 59
f 32 425 59
f 59 425 58
f 425 363 58
f 499 506 504
f 506 525 504
f 504 525 511
f 505 526 527
f 510 528 335
f 528 529 335
f 335 529 333
f 529 530 333
f 333 530 522
f 527 531 505
f 531 532 505
f 505 532 533
f 533 534 505
f 534 535 505
f 505 535 503
f 498 500 519
f 500 536 519
f 519 536 537
f 537 538 519
f 538 539 519
f 519 539 540
f 518 541 519
f 541 542 519
f 519 542 543
f 403 402 363
f 402 401 363
f 363 401 58
f 540 544 519
f 544 545 519
f 519 545 546
f 546 547 519
f 547 548 519
f 519 548 517
f 410 409 363
f 409 408 363
f 363 408 407
f 407 406 363
f 406 405 363
f 363 405 404
f 549 426 550
f 426 424 550
f 550 424 551
f 424 423 551
f 551 423 552
f 423 461 552
f 552 461 553
f 461 460 553
f 553 460 554
f 460 459 554
f 554 459 555
f 459 435 555
f 555 435 556
f 435 434 556
f 556 434 557
f 434 433 557
f 557 433 558
f 433 432 558
f 558 432 559
f 432 431 559
f 559 431 560
f 431 458 560
f 560 458 561
f 458 457 561
f 561 457 562
f 457 456 562
f 562 456 563
f 456 479 563
f 563 479 564
f 479 478 564
f 564 478 565
f 478 477 565
f 565 477 566
f 477 476 566
f 566 476 567
f 476 494 567
f 567 494 568
f 494 493 568
f 568 493 569
f 493 492 569
f 569 492 570
f 492 475 570
f 570 475 571
f 475 474 571
f 571 474 572
f 474 473 572
f 572 473 573
f 473 472 573
f 573 472 574
f 472 471 574
f 574 471 575
f 471 470 575
f 575 470 576
f 470 455 576
f 576 455 577
f 455 454 577
f 577 454 578
f 454 453 578
f 578 453 579
f 453 422 579
f 579 422 580
f 422 421 580
f 580 421 581
f 421 469 581
f 581 469 582
f 469 468 582
f 582 468 583
f 468 467 583
f 583 467 584
f 467 452 584
f 584 452 585
f 452 451 585
f 585 451 586
f 451 450 586
f 586 450 587
f 450 443 587
f 587 443 588
f 443 442 588
f 588 442 589
f 442 440 589
f 589 440 590
f 440 439 590
f 590 439 591
f 439 466 591
f 591 466 592
f 466 465 592
f 592 465 593
f 465 462 593
f 593 462 594
f 462 463 594
f 594 463 595
f 463 464 595
f 595 464 596
f 464 488 596
f 596 488 597
f 488 487 597
f 597 487 598
f 487 486 598
f 598 486 599
f 486 485 599
f 599 485 600
f 485 484 600
f 600 484 601
f 484 483 601
f 601 483 602
f 483 491 602
f 602 491 603
f 491 490 603
f 603 490 604
f 490 489 604
f 604 489 605
f 489 482 605
f 605 482 606
f 482 481 606
f 606 481 607
f 481 480 607
f 607 480 608
f 480 449 608
f 608 449 609
f 449 448 609
f 609 448 610
f 448 447 610
f 610 447 611
f 447 446 611
f 611 446 612
f 446 445 612
f 612 445 613
f 445 444 613
f 613 444 614
f 444 438 614
f 614 438 615
f 438 437 615
f 615 437 616
f 437 436 616
f 616 436 617
f 436 430 617
f 617 430 618
f 430 429 618
f 618 429 619
f 429 428 619
f 619 428 620
f 428 427 620
f 620 427 549
f 427 426 549
f 621 328 499
f 328 327 499
f 268 270 514
f 326 532 316
f 532 531 316
f 316 531 318
f 326 325 532
f 325 323 532
f 532 323 321
f 318 531 319
f 531 527 319
f 319 527 311
f 306 314 527
f 314 313 527
f 527 313 311
f 303 301 526
f 301 309 526
f 526 309 527
f 309 308 527
f 527 308 306
f 296 294 505
f 294 292 505
f 505 292 526
f 292 304 526
f 526 304 303
f 289 287 507
f 287 299 507
f 507 299 505
f 299 298 505
f 505 298 296
f 281 283 516
f 283 285 516
f 516 285 507
f 285 290 507
f 507 290 289
f 273 275 515
f 275 278 515
f 515 278 516
f 278 280 516
f 516 280 281
f 514 270 515
f 270 272 515
f 515 272 273
f 261 263 513
f 263 265 513
f 513 265 514
f 265 267 514
f 514 267 268
f 254 512 252
f 512 511 252
f 252 511 250
f 254 255 512
f 255 257 512
f 512 257 513
f 257 259 513
f 513 259 261
f 506 241 525
f 241 243 525
f 243 245 525
f 245 247 525
f 525 247 511
f 247 249 511
f 511 249 250
f 321 622 532
f 622 623 532
f 532 623 533
f 623 624 533
f 533 624 534
f 624 625 534
f 534 625 535
f 625 626 535
f 535 626 503
f 626 627 503
f 503 627 504
f 500 628 629
f 500 629 536
f 629 630 536
f 536 630 537
f 630 631 537
f 537 631 538
f 631 632 538
f 538 632 539
f 632 633 539
f 539 633 540
f 633 634 540
f 540 634 544
f 634 635 544
f 544 635 545
f 635 636 545
f 545 636 546
f 636 637 546
f 546 637 547
f 637 638 547
f 547 638 548
f 638 639 548
f 548 639 517
f 639 640 517
f 517 640 518
f 640 641 518
f 518 641 541
f 641 642 541
f 541 642 542
f 642 643 542
f 542 643 543
f 643 644 543
f 543 644 519
f 644 645 519
f 519 645 498
f 645 621 498
f 498 621 499
f 241 506 242
f 506 502 242
f 646 83 146
f 646 146 647
f 146 145 647
f 647 145 648
f 145 144 648
f 648 144 649
f 144 143 649
f 649 143 650
f 143 142 650
f 650 142 651
f 142 141 651
f 651 141 652
f 141 140 652
f 652 140 653
f 140 133 653
f 653 133 654
f 133 132 654
f 654 132 655
f 132 131 655
f 655 131 656
f 131 124 656
f 656 124 657
f 124 122 657
f 657 122 658
f 122 121 658
f 658 121 659
f 121 152 659
f 659 152 660
f 152 151 660
f 660 151 661
f 151 154 661
f 661 154 662
f 154 153 662
f 662 153 663
f 153 149 663
f 663 149 664
f 149 148 664
f 664 148 665
f 148 168 665
f 665 168 666
f 168 167 666
f 666 167 667
f 167 161 667
f 667 161 668
f 161 160 668
f 668 160 669
f 160 159 669
f 669 159 670
f 159 166 670
f 670 166 671
f 166 165 671
f 671 165 672
f 165 164 672
f 672 164 673
f 164 163 673
f 673 163 674
f 163 162 674
f 674 162 675
f 162 157 675
f 675 157 676
f 157 156 676
f 676 156 677
f 156 155 677
f 677 155 678
f 155 158 678
f 678 158 679
f 158 65 679
f 679 65 379
f 554 555 500
f 618 619 504
f 584 585 627
f 585 586 627
f 627 586 587
f 609 610 504
f 615 504 614
f 504 613 614
f 587 588 627
f 588 589 627
f 627 589 590
f 610 611 504
f 611 612 504
f 504 612 613
f 615 616 504
f 616 617 504
f 504 617 618
f 619 620 504
f 620 549 504
f 504 549 550
f 560 500 559
f 500 558 559
f 628 582 627
f 582 583 627
f 627 583 584
f 590 591 627
f 591 592 627
f 627 592 593
f 550 551 504
f 551 552 504
f 504 552 500
f 552 553 500
f 500 553 554
f 555 556 500
f 556 557 500
f 500 557 558
f 576 577 628
f 577 578 628
f 628 578 579
f 579 580 628
f 580 581 628
f 628 581 582
f 593 594 627
f 594 595 627
f 627 595 596
f 601 627 600
f 627 599 600
f 560 561 500
f 561 562 500
f 500 562 563
f 596 597 627
f 597 598 627
f 627 598 599
f 504 605 606
f 570 571 628
f 571 572 628
f 628 572 573
f 573 574 628
f 574 575 628
f 628 575 576
f 606 607 504
f 607 608 504
f 504 608 609
f 567 568 628
f 568 569 628
f 628 569 570
f 601 602 627
f 602 603 627
f 627 603 504
f 603 604 504
f 504 604 605
f 563 564 500
f 564 565 500
f 500 565 628
f 565 566 628
f 628 566 567
f 253 251 680
f 253 680 256
f 251 248 680
f 248 246 680
f 680 246 244
f 264 262 680
f 264 680 266
f 262 260 680
f 260 258 680
f 680 258 256
f 244 242 680
f 242 502 680
f 680 502 501
f 282 279 524
f 279 277 524
f 277 276 524
f 276 274 524
f 524 274 501
f 274 271 501
f 501 271 680
f 271 269 680
f 680 269 266
f 297 286 523
f 286 288 523
f 523 288 524
f 288 284 524
f 524 284 282
f 302 291 520
f 291 293 520
f 520 293 523
f 293 295 523
f 523 295 297
f 312 305 521
f 305 307 521
f 521 307 520
f 307 300 520
f 520 300 302
f 522 317 521
f 317 310 521
f 521 310 312
f 530 324 522
f 324 315 522
f 522 315 317
f 529 320 530
f 320 322 530
f 530 322 324
f 496 495 508
f 495 681 508
f 508 681 509
f 681 682 509
f 509 682 510
f 682 683 510
f 510 683 528
f 683 684 528
f 528 684 529
f 684 685 529
f 529 685 320
f 646 497 83
f 497 105 83
f 352 350 441
f 328 643 642
f 643 328 644
f 328 621 644
f 644 621 645
f 362 419 364
f 419 367 364
f 352 441 354
f 350 348 441
f 348 346 441
f 441 346 344
f 338 336 320
f 336 334 320
f 320 334 321
f 334 332 321
f 622 321 627
f 344 342 441
f 342 340 441
f 441 340 495
f 340 681 495
f 332 330 321
f 330 328 321
f 321 328 627
f 362 360 419
f 360 358 419
f 419 358 441
f 358 356 441
f 441 356 354
f 338 320 340
f 320 685 340
f 340 685 684
f 684 683 340
f 683 682 340
f 340 682 681
f 627 626 622
f 626 625 622
f 622 625 623
f 625 624 623
f 642 641 328
f 641 640 328
f 328 640 639
f 633 632 328
f 632 631 328
f 328 631 630
f 630 629 328
f 629 628 328
f 328 628 627
f 639 638 328
f 638 637 328
f 328 637 636
f 636 635 328
f 635 634 328
f 328 634 633
f 219 218 366
f 218 217 366
f 217 216 366
f 366 216 215
f 199 198 379
f 646 181 180
f 497 230 229
f 190 379 191
f 379 192 191
f 185 184 646
f 195 194 379
f 194 193 379
f 379 193 192
f 184 183 646
f 183 182 646
f 646 182 181
f 180 179 646
f 179 178 646
f 646 178 177
f 497 237 236
f 236 235 497
f 235 234 497
f 497 234 233
f 497 229 365
f 229 228 365
f 365 228 227
f 215 214 366
f 214 213 366
f 366 213 212
f 198 197 379
f 197 196 379
f 379 196 195
f 646 171 170
f 646 170 497
f 170 169 497
f 497 169 240
f 233 232 497
f 232 231 497
f 497 231 230
f 177 176 646
f 176 175 646
f 646 175 174
f 174 173 646
f 173 172 646
f 646 172 171
f 240 239 497
f 239 238 497
f 497 238 237
f 365 221 366
f 221 220 366
f 366 220 219
f 212 211 366
f 211 210 366
f 366 210 209
f 209 208 366
f 208 207 366
f 366 207 206
f 206 205 366
f 205 204 366
f 366 204 203
f 227 226 365
f 226 225 365
f 365 225 224
f 190 189 379
f 189 188 379
f 379 188 187
f 224 223 365
f 223 222 365
f 365 222 221
f 203 202 366
f 202 201 366
f 366 201 379
f 201 200 379
f 379 200 199
f 657 658 186
f 658 659 186
f 654 655 186
f 655 656 186
f 186 656 657
f 648 649 186
f 649 650 186
f 186 650 651
f 651 652 186
f 652 653 186
f 186 653 654
f 659 660 186
f 660 661 186
f 186 661 187
f 661 662 187
f 187 662 663
f 663 664 187
f 664 665 187
f 187 665 666
f 676 677 187
f 185 646 186
f 646 647 186
f 186 647 648
f 187 669 670
f 666 667 187
f 667 668 187
f 187 668 669
f 677 678 187
f 678 679 187
f 187 679 379
f 670 671 187
f 671 672 187
f 187 672 673
f 673 674 187
f 674 675 187
f 187 675 676

